<?xml version="1.0" encoding="UTF-8" standalone="no"?>
<!DOCTYPE svg PUBLIC "-//W3C//DTD SVG 1.1//EN"
 "http://www.w3.org/Graphics/SVG/1.1/DTD/svg11.dtd">
<!-- Generated by graphviz version 2.38.0 (20140413.2041)
 -->
<!-- Title: VRObjectResetButton Pages: 1 -->
<svg width="139pt" height="281pt"
 viewBox="0.00 0.00 139.00 281.00" xmlns="http://www.w3.org/2000/svg" xmlns:xlink="http://www.w3.org/1999/xlink">
<g id="graph0" class="graph" transform="scale(1 1) rotate(0) translate(4 277)">
<title>VRObjectResetButton</title>
<polygon fill="white" stroke="none" points="-4,4 -4,-277 135,-277 135,4 -4,4"/>
<!-- Node1 -->
<g id="node1" class="node"><title>Node1</title>
<g id="a_node1"><a xlink:title=" ">
<polygon fill="#bfbfbf" stroke="black" points="0,-0.5 0,-178.5 131,-178.5 131,-0.5 0,-0.5"/>
<text text-anchor="middle" x="65.5" y="-166.5" font-family="Courier New" font-size="10.00">VRObjectResetButton</text>
<polyline fill="none" stroke="black" points="0,-159.5 131,-159.5 "/>
<text text-anchor="start" x="8" y="-147.5" font-family="Courier New" font-size="10.00">+ source</text>
<text text-anchor="start" x="8" y="-136.5" font-family="Courier New" font-size="10.00">+ BackgroundImage</text>
<text text-anchor="start" x="8" y="-125.5" font-family="Courier New" font-size="10.00">+ NormalColor</text>
<text text-anchor="start" x="8" y="-114.5" font-family="Courier New" font-size="10.00">+ HighlightColor</text>
<text text-anchor="start" x="8" y="-103.5" font-family="Courier New" font-size="10.00">+ ButtonObject</text>
<text text-anchor="start" x="8" y="-92.5" font-family="Courier New" font-size="10.00">+ clickSound</text>
<text text-anchor="start" x="8" y="-81.5" font-family="Courier New" font-size="10.00">&#45; startPos</text>
<text text-anchor="start" x="8" y="-70.5" font-family="Courier New" font-size="10.00">&#45; startRot</text>
<polyline fill="none" stroke="black" points="0,-63.5 131,-63.5 "/>
<text text-anchor="start" x="8" y="-51.5" font-family="Courier New" font-size="10.00">+ OnGazeEnter()</text>
<text text-anchor="start" x="8" y="-40.5" font-family="Courier New" font-size="10.00">+ OnGazeExit()</text>
<text text-anchor="start" x="8" y="-29.5" font-family="Courier New" font-size="10.00">+ OnClick()</text>
<text text-anchor="start" x="8" y="-18.5" font-family="Courier New" font-size="10.00">&#45; Start()</text>
<text text-anchor="start" x="8" y="-7.5" font-family="Courier New" font-size="10.00">&#45; Update()</text>
</a>
</g>
</g>
<!-- Node2 -->
<g id="node2" class="node"><title>Node2</title>
<g id="a_node2"><a xlink:title=" ">
<polygon fill="white" stroke="#bfbfbf" points="18,-215.5 18,-272.5 113,-272.5 113,-215.5 18,-215.5"/>
<text text-anchor="middle" x="65.5" y="-260.5" font-family="Courier New" font-size="10.00">MonoBehaviour</text>
<polyline fill="none" stroke="#bfbfbf" points="18,-253.5 113,-253.5 "/>
<text text-anchor="middle" x="65.5" y="-241.5" font-family="Courier New" font-size="10.00"> </text>
<polyline fill="none" stroke="#bfbfbf" points="18,-234.5 113,-234.5 "/>
<text text-anchor="middle" x="65.5" y="-222.5" font-family="Courier New" font-size="10.00"> </text>
</a>
</g>
</g>
<!-- Node2&#45;&gt;Node1 -->
<g id="edge1" class="edge"><title>Node2&#45;&gt;Node1</title>
<path fill="none" stroke="midnightblue" d="M65.5,-205.374C65.5,-197.089 65.5,-187.977 65.5,-178.62"/>
<polygon fill="none" stroke="midnightblue" points="62.0001,-205.383 65.5,-215.383 69.0001,-205.383 62.0001,-205.383"/>
</g>
</g>
</svg>
