<?xml version="1.0" encoding="UTF-8" standalone="no"?>
<!DOCTYPE svg PUBLIC "-//W3C//DTD SVG 1.1//EN"
 "http://www.w3.org/Graphics/SVG/1.1/DTD/svg11.dtd">
<!-- Generated by graphviz version 2.38.0 (20140413.2041)
 -->
<!-- Title: C2M2.Visualization.LUTGradient Pages: 1 -->
<svg width="205pt" height="336pt"
 viewBox="0.00 0.00 205.00 336.00" xmlns="http://www.w3.org/2000/svg" xmlns:xlink="http://www.w3.org/1999/xlink">
<g id="graph0" class="graph" transform="scale(1 1) rotate(0) translate(4 332)">
<title>C2M2.Visualization.LUTGradient</title>
<polygon fill="white" stroke="none" points="-4,4 -4,-332 201,-332 201,4 -4,4"/>
<!-- Node1 -->
<g id="node1" class="node"><title>Node1</title>
<g id="a_node1"><a xlink:title="Create a fast and memory&#45;friendly color lookup table from a gradient">
<polygon fill="#bfbfbf" stroke="black" points="0,-0.5 0,-233.5 197,-233.5 197,-0.5 0,-0.5"/>
<text text-anchor="middle" x="98.5" y="-221.5" font-family="Courier New" font-size="10.00">C2M2.Visualization.LUTGradient</text>
<polyline fill="none" stroke="black" points="0,-214.5 197,-214.5 "/>
<text text-anchor="start" x="8" y="-202.5" font-family="Courier New" font-size="10.00">+ extremaMethod</text>
<text text-anchor="start" x="8" y="-191.5" font-family="Courier New" font-size="10.00">+ globalMax</text>
<text text-anchor="start" x="8" y="-180.5" font-family="Courier New" font-size="10.00">+ globalMin</text>
<text text-anchor="start" x="8" y="-169.5" font-family="Courier New" font-size="10.00">+ curMax</text>
<text text-anchor="start" x="8" y="-158.5" font-family="Courier New" font-size="10.00">+ curMix</text>
<text text-anchor="start" x="8" y="-147.5" font-family="Courier New" font-size="10.00">+ LutRes</text>
<text text-anchor="start" x="8" y="-136.5" font-family="Courier New" font-size="10.00">+ Gradient</text>
<text text-anchor="start" x="8" y="-125.5" font-family="Courier New" font-size="10.00">+ gradientLUT</text>
<text text-anchor="start" x="8" y="-114.5" font-family="Courier New" font-size="10.00">+ oldMin</text>
<text text-anchor="start" x="8" y="-103.5" font-family="Courier New" font-size="10.00">+ oldMax</text>
<text text-anchor="start" x="8" y="-92.5" font-family="Courier New" font-size="10.00">&#45; lutRes</text>
<text text-anchor="start" x="8" y="-81.5" font-family="Courier New" font-size="10.00">&#45; gradient</text>
<polyline fill="none" stroke="black" points="0,-74.5 197,-74.5 "/>
<text text-anchor="start" x="8" y="-62.5" font-family="Courier New" font-size="10.00">+ Evaluate()</text>
<text text-anchor="start" x="8" y="-51.5" font-family="Courier New" font-size="10.00">+ Evaluate()</text>
<text text-anchor="start" x="8" y="-40.5" font-family="Courier New" font-size="10.00">+ EvaluateUnscaled()</text>
<text text-anchor="start" x="8" y="-29.5" font-family="Courier New" font-size="10.00">+ GetMinMax()</text>
<text text-anchor="start" x="8" y="-18.5" font-family="Courier New" font-size="10.00">&#45; BuildLUT()</text>
<text text-anchor="start" x="8" y="-7.5" font-family="Courier New" font-size="10.00">&#45; RescaleArray()</text>
</a>
</g>
</g>
<!-- Node2 -->
<g id="node2" class="node"><title>Node2</title>
<g id="a_node2"><a xlink:title=" ">
<polygon fill="white" stroke="#bfbfbf" points="51,-270.5 51,-327.5 146,-327.5 146,-270.5 51,-270.5"/>
<text text-anchor="middle" x="98.5" y="-315.5" font-family="Courier New" font-size="10.00">MonoBehaviour</text>
<polyline fill="none" stroke="#bfbfbf" points="51,-308.5 146,-308.5 "/>
<text text-anchor="middle" x="98.5" y="-296.5" font-family="Courier New" font-size="10.00"> </text>
<polyline fill="none" stroke="#bfbfbf" points="51,-289.5 146,-289.5 "/>
<text text-anchor="middle" x="98.5" y="-277.5" font-family="Courier New" font-size="10.00"> </text>
</a>
</g>
</g>
<!-- Node2&#45;&gt;Node1 -->
<g id="edge1" class="edge"><title>Node2&#45;&gt;Node1</title>
<path fill="none" stroke="midnightblue" d="M98.5,-260.141C98.5,-252.029 98.5,-243.054 98.5,-233.673"/>
<polygon fill="none" stroke="midnightblue" points="95.0001,-260.269 98.5,-270.269 102,-260.27 95.0001,-260.269"/>
</g>
</g>
</svg>
