<?xml version="1.0" encoding="UTF-8" standalone="no"?>
<!DOCTYPE svg PUBLIC "-//W3C//DTD SVG 1.1//EN"
 "http://www.w3.org/Graphics/SVG/1.1/DTD/svg11.dtd">
<!-- Generated by graphviz version 2.38.0 (20140413.2041)
 -->
<!-- Title: C2M2.Interaction.UI.RaycastKey Pages: 1 -->
<svg width="205pt" height="270pt"
 viewBox="0.00 0.00 205.00 270.00" xmlns="http://www.w3.org/2000/svg" xmlns:xlink="http://www.w3.org/1999/xlink">
<g id="graph0" class="graph" transform="scale(1 1) rotate(0) translate(4 266)">
<title>C2M2.Interaction.UI.RaycastKey</title>
<polygon fill="white" stroke="none" points="-4,4 -4,-266 201,-266 201,4 -4,4"/>
<!-- Node1 -->
<g id="node1" class="node"><title>Node1</title>
<g id="a_node1"><a xlink:title=" ">
<polygon fill="#bfbfbf" stroke="black" points="0,-0.5 0,-167.5 197,-167.5 197,-0.5 0,-0.5"/>
<text text-anchor="middle" x="98.5" y="-155.5" font-family="Courier New" font-size="10.00">C2M2.Interaction.UI.RaycastKey</text>
<polyline fill="none" stroke="black" points="0,-148.5 197,-148.5 "/>
<text text-anchor="start" x="8" y="-136.5" font-family="Courier New" font-size="10.00">+ image</text>
<text text-anchor="start" x="8" y="-125.5" font-family="Courier New" font-size="10.00">+ defaultColor</text>
<text text-anchor="start" x="8" y="-114.5" font-family="Courier New" font-size="10.00">+ clickedColor</text>
<text text-anchor="start" x="8" y="-103.5" font-family="Courier New" font-size="10.00">+ inactiveColor</text>
<text text-anchor="start" x="8" y="-92.5" font-family="Courier New" font-size="10.00">+ clickTime</text>
<text text-anchor="start" x="8" y="-81.5" font-family="Courier New" font-size="10.00">+ character</text>
<text text-anchor="start" x="8" y="-70.5" font-family="Courier New" font-size="10.00">&#45; active</text>
<text text-anchor="start" x="8" y="-59.5" font-family="Courier New" font-size="10.00">&#45; keyboard</text>
<polyline fill="none" stroke="black" points="0,-52.5 197,-52.5 "/>
<text text-anchor="start" x="8" y="-40.5" font-family="Courier New" font-size="10.00">+ Click()</text>
<text text-anchor="start" x="8" y="-29.5" font-family="Courier New" font-size="10.00">&#45; Awake()</text>
<text text-anchor="start" x="8" y="-18.5" font-family="Courier New" font-size="10.00">&#45; Start()</text>
<text text-anchor="start" x="8" y="-7.5" font-family="Courier New" font-size="10.00">&#45; Reenable()</text>
</a>
</g>
</g>
<!-- Node2 -->
<g id="node2" class="node"><title>Node2</title>
<g id="a_node2"><a xlink:title=" ">
<polygon fill="white" stroke="#bfbfbf" points="51,-204.5 51,-261.5 146,-261.5 146,-204.5 51,-204.5"/>
<text text-anchor="middle" x="98.5" y="-249.5" font-family="Courier New" font-size="10.00">MonoBehaviour</text>
<polyline fill="none" stroke="#bfbfbf" points="51,-242.5 146,-242.5 "/>
<text text-anchor="middle" x="98.5" y="-230.5" font-family="Courier New" font-size="10.00"> </text>
<polyline fill="none" stroke="#bfbfbf" points="51,-223.5 146,-223.5 "/>
<text text-anchor="middle" x="98.5" y="-211.5" font-family="Courier New" font-size="10.00"> </text>
</a>
</g>
</g>
<!-- Node2&#45;&gt;Node1 -->
<g id="edge1" class="edge"><title>Node2&#45;&gt;Node1</title>
<path fill="none" stroke="midnightblue" d="M98.5,-194.35C98.5,-186.08 98.5,-177.008 98.5,-167.738"/>
<polygon fill="none" stroke="midnightblue" points="95.0001,-194.35 98.5,-204.35 102,-194.35 95.0001,-194.35"/>
</g>
</g>
</svg>
