<?xml version="1.0" encoding="UTF-8" standalone="no"?>
<!DOCTYPE svg PUBLIC "-//W3C//DTD SVG 1.1//EN"
 "http://www.w3.org/Graphics/SVG/1.1/DTD/svg11.dtd">
<!-- Generated by graphviz version 2.38.0 (20140413.2041)
 -->
<!-- Title: C2M2.OIT.Interaction.ParticleSizeControllerButton Pages: 1 -->
<svg width="199pt" height="281pt"
 viewBox="0.00 0.00 199.00 281.00" xmlns="http://www.w3.org/2000/svg" xmlns:xlink="http://www.w3.org/1999/xlink">
<g id="graph0" class="graph" transform="scale(1 1) rotate(0) translate(4 277)">
<title>C2M2.OIT.Interaction.ParticleSizeControllerButton</title>
<polygon fill="white" stroke="none" points="-4,4 -4,-277 195,-277 195,4 -4,4"/>
<!-- Node1 -->
<g id="node1" class="node"><title>Node1</title>
<g id="a_node1"><a xlink:title=" ">
<polygon fill="#bfbfbf" stroke="black" points="0,-0.5 0,-178.5 191,-178.5 191,-0.5 0,-0.5"/>
<text text-anchor="start" x="8" y="-166.5" font-family="Courier New" font-size="10.00">C2M2.OIT.Interaction.Particle</text>
<text text-anchor="middle" x="95.5" y="-155.5" font-family="Courier New" font-size="10.00">SizeControllerButton</text>
<polyline fill="none" stroke="black" points="0,-148.5 191,-148.5 "/>
<text text-anchor="start" x="8" y="-136.5" font-family="Courier New" font-size="10.00">+ increasingButton</text>
<text text-anchor="start" x="8" y="-125.5" font-family="Courier New" font-size="10.00">+ valueText</text>
<text text-anchor="start" x="8" y="-114.5" font-family="Courier New" font-size="10.00">+ buttonChangeValue</text>
<text text-anchor="start" x="8" y="-103.5" font-family="Courier New" font-size="10.00">+ partSysCon</text>
<text text-anchor="start" x="8" y="-92.5" font-family="Courier New" font-size="10.00">+ buttonWaitTime</text>
<text text-anchor="start" x="8" y="-81.5" font-family="Courier New" font-size="10.00">+ menuAudioSource</text>
<text text-anchor="start" x="8" y="-70.5" font-family="Courier New" font-size="10.00">+ buttonPressSound</text>
<text text-anchor="start" x="8" y="-59.5" font-family="Courier New" font-size="10.00">+ hapticAudioClip</text>
<text text-anchor="start" x="8" y="-48.5" font-family="Courier New" font-size="10.00">&#45; hapticsClip</text>
<polyline fill="none" stroke="black" points="0,-41.5 191,-41.5 "/>
<text text-anchor="start" x="8" y="-29.5" font-family="Courier New" font-size="10.00">+ onClick()</text>
<text text-anchor="start" x="8" y="-18.5" font-family="Courier New" font-size="10.00">&#45; Start()</text>
<text text-anchor="start" x="8" y="-7.5" font-family="Courier New" font-size="10.00">&#45; OnTriggerEnter()</text>
</a>
</g>
</g>
<!-- Node2 -->
<g id="node2" class="node"><title>Node2</title>
<g id="a_node2"><a xlink:title=" ">
<polygon fill="white" stroke="#bfbfbf" points="48,-215.5 48,-272.5 143,-272.5 143,-215.5 48,-215.5"/>
<text text-anchor="middle" x="95.5" y="-260.5" font-family="Courier New" font-size="10.00">MonoBehaviour</text>
<polyline fill="none" stroke="#bfbfbf" points="48,-253.5 143,-253.5 "/>
<text text-anchor="middle" x="95.5" y="-241.5" font-family="Courier New" font-size="10.00"> </text>
<polyline fill="none" stroke="#bfbfbf" points="48,-234.5 143,-234.5 "/>
<text text-anchor="middle" x="95.5" y="-222.5" font-family="Courier New" font-size="10.00"> </text>
</a>
</g>
</g>
<!-- Node2&#45;&gt;Node1 -->
<g id="edge1" class="edge"><title>Node2&#45;&gt;Node1</title>
<path fill="none" stroke="midnightblue" d="M95.5,-205.374C95.5,-197.089 95.5,-187.977 95.5,-178.62"/>
<polygon fill="none" stroke="midnightblue" points="92.0001,-205.383 95.5,-215.383 99.0001,-205.383 92.0001,-205.383"/>
</g>
</g>
</svg>
