<?xml version="1.0" encoding="UTF-8" standalone="no"?>
<!DOCTYPE svg PUBLIC "-//W3C//DTD SVG 1.1//EN"
 "http://www.w3.org/Graphics/SVG/1.1/DTD/svg11.dtd">
<!-- Generated by graphviz version 2.38.0 (20140413.2041)
 -->
<!-- Title: C2M2.Utils.TimeNodeNotFoundException Pages: 1 -->
<svg width="199pt" height="193pt"
 viewBox="0.00 0.00 199.00 193.00" xmlns="http://www.w3.org/2000/svg" xmlns:xlink="http://www.w3.org/1999/xlink">
<g id="graph0" class="graph" transform="scale(1 1) rotate(0) translate(4 189)">
<title>C2M2.Utils.TimeNodeNotFoundException</title>
<polygon fill="white" stroke="none" points="-4,4 -4,-189 195,-189 195,4 -4,4"/>
<!-- Node1 -->
<g id="node1" class="node"><title>Node1</title>
<g id="a_node1"><a xlink:title=" ">
<polygon fill="#bfbfbf" stroke="black" points="0,-0.5 0,-90.5 191,-90.5 191,-0.5 0,-0.5"/>
<text text-anchor="start" x="8" y="-78.5" font-family="Courier New" font-size="10.00">C2M2.Utils.TimeNodeNotFound</text>
<text text-anchor="middle" x="95.5" y="-67.5" font-family="Courier New" font-size="10.00">Exception</text>
<polyline fill="none" stroke="black" points="0,-60.5 191,-60.5 "/>
<text text-anchor="middle" x="95.5" y="-48.5" font-family="Courier New" font-size="10.00"> </text>
<polyline fill="none" stroke="black" points="0,-41.5 191,-41.5 "/>
<text text-anchor="start" x="8" y="-29.5" font-family="Courier New" font-size="10.00">+ TimeNodeNotFoundException()</text>
<text text-anchor="start" x="8" y="-18.5" font-family="Courier New" font-size="10.00">+ TimeNodeNotFoundException()</text>
<text text-anchor="start" x="8" y="-7.5" font-family="Courier New" font-size="10.00">+ TimeNodeNotFoundException()</text>
</a>
</g>
</g>
<!-- Node2 -->
<g id="node2" class="node"><title>Node2</title>
<g id="a_node2"><a xlink:title=" ">
<polygon fill="white" stroke="#bfbfbf" points="60,-127.5 60,-184.5 131,-184.5 131,-127.5 60,-127.5"/>
<text text-anchor="middle" x="95.5" y="-172.5" font-family="Courier New" font-size="10.00">Exception</text>
<polyline fill="none" stroke="#bfbfbf" points="60,-165.5 131,-165.5 "/>
<text text-anchor="middle" x="95.5" y="-153.5" font-family="Courier New" font-size="10.00"> </text>
<polyline fill="none" stroke="#bfbfbf" points="60,-146.5 131,-146.5 "/>
<text text-anchor="middle" x="95.5" y="-134.5" font-family="Courier New" font-size="10.00"> </text>
</a>
</g>
</g>
<!-- Node2&#45;&gt;Node1 -->
<g id="edge1" class="edge"><title>Node2&#45;&gt;Node1</title>
<path fill="none" stroke="midnightblue" d="M95.5,-117.214C95.5,-108.609 95.5,-99.3943 95.5,-90.5541"/>
<polygon fill="none" stroke="midnightblue" points="92.0001,-117.34 95.5,-127.34 99.0001,-117.34 92.0001,-117.34"/>
</g>
</g>
</svg>
