<?xml version="1.0" encoding="UTF-8" standalone="no"?>
<!DOCTYPE svg PUBLIC "-//W3C//DTD SVG 1.1//EN"
 "http://www.w3.org/Graphics/SVG/1.1/DTD/svg11.dtd">
<!-- Generated by graphviz version 2.38.0 (20140413.2041)
 -->
<!-- Title: C2M2.Interaction.UI.FPSLabel Pages: 1 -->
<svg width="201pt" height="215pt"
 viewBox="0.00 0.00 200.50 215.00" xmlns="http://www.w3.org/2000/svg" xmlns:xlink="http://www.w3.org/1999/xlink">
<g id="graph0" class="graph" transform="scale(1 1) rotate(0) translate(4 211)">
<title>C2M2.Interaction.UI.FPSLabel</title>
<polygon fill="white" stroke="none" points="-4,4 -4,-211 196.5,-211 196.5,4 -4,4"/>
<!-- Node1 -->
<g id="node1" class="node"><title>Node1</title>
<g id="a_node1"><a xlink:title=" ">
<polygon fill="#bfbfbf" stroke="black" points="0,-0.5 0,-101.5 185,-101.5 185,-0.5 0,-0.5"/>
<text text-anchor="middle" x="92.5" y="-89.5" font-family="Courier New" font-size="10.00">C2M2.Interaction.UI.FPSLabel</text>
<polyline fill="none" stroke="black" points="0,-82.5 185,-82.5 "/>
<text text-anchor="start" x="8" y="-70.5" font-family="Courier New" font-size="10.00">+ highFPSLabel</text>
<text text-anchor="start" x="8" y="-59.5" font-family="Courier New" font-size="10.00">+ avgFPSLabel</text>
<text text-anchor="start" x="8" y="-48.5" font-family="Courier New" font-size="10.00">+ lowFPSLabel</text>
<polyline fill="none" stroke="black" points="0,-41.5 185,-41.5 "/>
<text text-anchor="start" x="8" y="-29.5" font-family="Courier New" font-size="10.00">&#45; Start()</text>
<text text-anchor="start" x="8" y="-18.5" font-family="Courier New" font-size="10.00">&#45; Update()</text>
<text text-anchor="start" x="8" y="-7.5" font-family="Courier New" font-size="10.00">&#45; UpdateLabels()</text>
</a>
</g>
</g>
<!-- Node2 -->
<g id="node2" class="node"><title>Node2</title>
<g id="a_node2"><a xlink:title=" ">
<polygon fill="white" stroke="#bfbfbf" points="1,-149.5 1,-206.5 96,-206.5 96,-149.5 1,-149.5"/>
<text text-anchor="middle" x="48.5" y="-194.5" font-family="Courier New" font-size="10.00">MonoBehaviour</text>
<polyline fill="none" stroke="#bfbfbf" points="1,-187.5 96,-187.5 "/>
<text text-anchor="middle" x="48.5" y="-175.5" font-family="Courier New" font-size="10.00"> </text>
<polyline fill="none" stroke="#bfbfbf" points="1,-168.5 96,-168.5 "/>
<text text-anchor="middle" x="48.5" y="-156.5" font-family="Courier New" font-size="10.00"> </text>
</a>
</g>
</g>
<!-- Node2&#45;&gt;Node1 -->
<g id="edge1" class="edge"><title>Node2&#45;&gt;Node1</title>
<path fill="none" stroke="midnightblue" d="M61.6427,-139.663C65.8276,-127.774 70.5257,-114.427 74.9698,-101.802"/>
<polygon fill="none" stroke="midnightblue" points="58.284,-138.664 58.265,-149.258 64.8868,-140.988 58.284,-138.664"/>
</g>
<!-- Node3 -->
<g id="node3" class="node"><title>Node3</title>
<g id="a_node3"><a xlink:title=" ">
<polygon fill="white" stroke="#bfbfbf" points="114,-149.5 114,-206.5 161,-206.5 161,-149.5 114,-149.5"/>
<text text-anchor="middle" x="137.5" y="-194.5" font-family="Courier New" font-size="10.00">Utils</text>
<polyline fill="none" stroke="#bfbfbf" points="114,-187.5 161,-187.5 "/>
<text text-anchor="middle" x="137.5" y="-175.5" font-family="Courier New" font-size="10.00"> </text>
<polyline fill="none" stroke="#bfbfbf" points="114,-168.5 161,-168.5 "/>
<text text-anchor="middle" x="137.5" y="-156.5" font-family="Courier New" font-size="10.00"> </text>
</a>
</g>
</g>
<!-- Node3&#45;&gt;Node1 -->
<g id="edge2" class="edge"><title>Node3&#45;&gt;Node1</title>
<path fill="none" stroke="#404040" d="M127.513,-149.258C123.667,-138.575 119.106,-125.905 114.568,-113.3"/>
<polygon fill="none" stroke="#404040" points="114.493,-113.092 108.697,-108.802 110.429,-101.802 116.225,-106.092 114.493,-113.092"/>
<text text-anchor="middle" x="156" y="-123" font-family="Courier New" font-size="10.00"> &#45;fpsCounter</text>
</g>
</g>
</svg>
