<?xml version="1.0" encoding="UTF-8" standalone="no"?>
<!DOCTYPE svg PUBLIC "-//W3C//DTD SVG 1.1//EN"
 "http://www.w3.org/Graphics/SVG/1.1/DTD/svg11.dtd">
<!-- Generated by graphviz version 2.38.0 (20140413.2041)
 -->
<!-- Title: C2M2.RaycastEventManager Pages: 1 -->
<!--zoomable 635 -->
<svg id="main" version="1.1" xmlns="http://www.w3.org/2000/svg" xmlns:xlink="http://www.w3.org/1999/xlink" xml:space="preserve" onload="init(evt)">
<style type="text/css"><![CDATA[
.edge:hover path { stroke: red; }
.edge:hover polygon { stroke: red; fill: red; }
]]></style>
<script type="text/javascript"><![CDATA[
var edges = document.getElementsByTagName('g');
if (edges && edges.length) {
  for (var i=0;i<edges.length;i++) {
    if (edges[i].id.substr(0,4)=='edge') {
      edges[i].setAttribute('class','edge');
    }
  }
}
]]></script>
        <defs>
                <circle id="rim" cx="0" cy="0" r="7"/>
                <circle id="rim2" cx="0" cy="0" r="3.5"/>
                <g id="zoomPlus">
                        <use xlink:href="#rim" fill="#404040">
                                <set attributeName="fill" to="#808080" begin="zoomplus.mouseover" end="zoomplus.mouseout"/>
                        </use>
                        <path d="M-4,0h8M0,-4v8" fill="none" stroke="white" stroke-width="1.5" pointer-events="none"/>
                </g>
                <g id="zoomMin">
                        <use xlink:href="#rim" fill="#404040">
                                <set attributeName="fill" to="#808080" begin="zoomminus.mouseover" end="zoomminus.mouseout"/>
                        </use>
                        <path d="M-4,0h8" fill="none" stroke="white" stroke-width="1.5" pointer-events="none"/>
                </g>
                <g id="dirArrow">
                        <path fill="none" stroke="white" stroke-width="1.5" d="M0,-3.0v7 M-2.5,-0.5L0,-3.0L2.5,-0.5"/>
                </g>
               <g id="resetDef">
                       <use xlink:href="#rim2" fill="#404040">
                               <set attributeName="fill" to="#808080" begin="reset.mouseover" end="reset.mouseout"/>
                       </use>
               </g>
        </defs>

<script type="text/javascript">
var viewWidth = 315;
var viewHeight = 635;
var sectionId = 'dynsection-1';
</script>
<script xlink:href="../../svgpan.js"/>
<svg id="graph" class="graph">
<g id="viewport">
<title>C2M2.RaycastEventManager</title>
<polygon fill="white" stroke="none" points="-4,4 -4,-631 310.5,-631 310.5,4 -4,4"/>
<!-- Node1 -->
<g id="node1" class="node"><title>Node1</title>
<g id="a_node1"><a xlink:title="Attach this script to parent gameObject, create one child with one raycast trigger per child....">
<polygon fill="#bfbfbf" stroke="black" points="73,-0.5 73,-222.5 234,-222.5 234,-0.5 73,-0.5"/>
<text text-anchor="middle" x="153.5" y="-210.5" font-family="Courier New" font-size="10.00">C2M2.RaycastEventManager</text>
<polyline fill="none" stroke="black" points="73,-203.5 234,-203.5 "/>
<text text-anchor="middle" x="153.5" y="-191.5" font-family="Courier New" font-size="10.00"> </text>
<polyline fill="none" stroke="black" points="73,-184.5 234,-184.5 "/>
<text text-anchor="start" x="81" y="-172.5" font-family="Courier New" font-size="10.00">+ TriggerChangeRight()</text>
<text text-anchor="start" x="81" y="-161.5" font-family="Courier New" font-size="10.00">+ TriggerChangeLeft()</text>
<text text-anchor="start" x="81" y="-150.5" font-family="Courier New" font-size="10.00">+ TriggerChangeBoth()</text>
<text text-anchor="start" x="81" y="-139.5" font-family="Courier New" font-size="10.00">+ TriggerEmptyRight()</text>
<text text-anchor="start" x="81" y="-128.5" font-family="Courier New" font-size="10.00">+ TriggerEmptyLeft()</text>
<text text-anchor="start" x="81" y="-117.5" font-family="Courier New" font-size="10.00">+ TriggerEmptyBoth()</text>
<text text-anchor="start" x="81" y="-106.5" font-family="Courier New" font-size="10.00">+ PressEvent()</text>
<text text-anchor="start" x="81" y="-95.5" font-family="Courier New" font-size="10.00">+ HoldEvent()</text>
<text text-anchor="start" x="81" y="-84.5" font-family="Courier New" font-size="10.00">+ EndEvent()</text>
<text text-anchor="start" x="81" y="-73.5" font-family="Courier New" font-size="10.00">+ AllEvents()</text>
<text text-anchor="start" x="81" y="-62.5" font-family="Courier New" font-size="10.00">+ PressEventNull()</text>
<text text-anchor="start" x="81" y="-51.5" font-family="Courier New" font-size="10.00">+ HoldEventNull()</text>
<text text-anchor="start" x="81" y="-40.5" font-family="Courier New" font-size="10.00">+ EndEventNull()</text>
<text text-anchor="start" x="81" y="-29.5" font-family="Courier New" font-size="10.00">+ AllEventsNull()</text>
<text text-anchor="start" x="81" y="-18.5" font-family="Courier New" font-size="10.00">+ ToString()</text>
<text text-anchor="start" x="81" y="-7.5" font-family="Courier New" font-size="10.00">&#45; Awake()</text>
</a>
</g>
</g>
<!-- Node2 -->
<g id="node2" class="node"><title>Node2</title>
<g id="a_node2"><a xlink:title=" ">
<polygon fill="white" stroke="#bfbfbf" points="0,-469 0,-526 95,-526 95,-469 0,-469"/>
<text text-anchor="middle" x="47.5" y="-514" font-family="Courier New" font-size="10.00">MonoBehaviour</text>
<polyline fill="none" stroke="#bfbfbf" points="0,-507 95,-507 "/>
<text text-anchor="middle" x="47.5" y="-495" font-family="Courier New" font-size="10.00"> </text>
<polyline fill="none" stroke="#bfbfbf" points="0,-488 95,-488 "/>
<text text-anchor="middle" x="47.5" y="-476" font-family="Courier New" font-size="10.00"> </text>
</a>
</g>
</g>
<!-- Node2&#45;&gt;Node1 -->
<g id="edge1" class="edge"><title>Node2&#45;&gt;Node1</title>
<path fill="none" stroke="midnightblue" d="M47.0066,-458.58C47.3843,-416.965 50.7271,-348.556 66.5,-292 72.9657,-268.816 82.3329,-244.991 92.5497,-222.581"/>
<polygon fill="none" stroke="midnightblue" points="43.5059,-458.8 46.9692,-468.812 50.5059,-458.825 43.5059,-458.8"/>
</g>
<!-- Node3 -->
<g id="node3" class="node"><title>Node3</title>
<g id="a_node3"><a xlink:href="../../dd/dab/class_c2_m2_1_1_raycast_press_events.html" target="_top" xlink:title="Store custom events that the corresponding RaycastTriggerManager will invoke">
<polygon fill="white" stroke="black" points="76,-292.5 76,-393.5 231,-393.5 231,-292.5 76,-292.5"/>
<text text-anchor="middle" x="153.5" y="-381.5" font-family="Courier New" font-size="10.00">C2M2.RaycastPressEvents</text>
<polyline fill="none" stroke="black" points="76,-374.5 231,-374.5 "/>
<text text-anchor="start" x="84" y="-362.5" font-family="Courier New" font-size="10.00">+ OnPress</text>
<text text-anchor="start" x="84" y="-351.5" font-family="Courier New" font-size="10.00">+ OnHoldPress</text>
<text text-anchor="start" x="84" y="-340.5" font-family="Courier New" font-size="10.00">+ OnEndPress</text>
<polyline fill="none" stroke="black" points="76,-333.5 231,-333.5 "/>
<text text-anchor="start" x="84" y="-321.5" font-family="Courier New" font-size="10.00">+ Press()</text>
<text text-anchor="start" x="84" y="-310.5" font-family="Courier New" font-size="10.00">+ HoldPress()</text>
<text text-anchor="start" x="84" y="-299.5" font-family="Courier New" font-size="10.00">+ EndPress()</text>
</a>
</g>
</g>
<!-- Node2&#45;&gt;Node3 -->
<g id="edge3" class="edge"><title>Node2&#45;&gt;Node3</title>
<path fill="none" stroke="midnightblue" d="M72.4112,-460.661C86.3048,-440.672 103.82,-415.473 119.014,-393.614"/>
<polygon fill="none" stroke="midnightblue" points="69.5294,-458.675 66.6958,-468.883 75.2773,-462.67 69.5294,-458.675"/>
</g>
<!-- Node3&#45;&gt;Node1 -->
<g id="edge2" class="edge"><title>Node3&#45;&gt;Node1</title>
<path fill="none" stroke="#404040" d="M153.5,-292.484C153.5,-275.301 153.5,-255.194 153.5,-234.769"/>
<polygon fill="none" stroke="#404040" points="153.5,-234.726 149.5,-228.726 153.5,-222.726 157.5,-228.726 153.5,-234.726"/>
<text text-anchor="middle" x="193" y="-266" font-family="Courier New" font-size="10.00"> +leftTrigger</text>
<text text-anchor="middle" x="193" y="-255" font-family="Courier New" font-size="10.00">+rightTrigger</text>
<text text-anchor="middle" x="193" y="-244" font-family="Courier New" font-size="10.00">&#45;emptyTrigger</text>
</g>
<!-- Node4 -->
<g id="node4" class="node"><title>Node4</title>
<g id="a_node4"><a xlink:href="../../db/d79/class_c2_m2_1_1_raycast_press_events_1_1_raycast_hit_event.html" target="_top" xlink:title=" ">
<polygon fill="white" stroke="black" points="113,-463.5 113,-531.5 274,-531.5 274,-463.5 113,-463.5"/>
<text text-anchor="start" x="121" y="-519.5" font-family="Courier New" font-size="10.00">C2M2.RaycastPressEvents.</text>
<text text-anchor="middle" x="193.5" y="-508.5" font-family="Courier New" font-size="10.00">RaycastHitEvent</text>
<polyline fill="none" stroke="black" points="113,-501.5 274,-501.5 "/>
<text text-anchor="middle" x="193.5" y="-489.5" font-family="Courier New" font-size="10.00"> </text>
<polyline fill="none" stroke="black" points="113,-482.5 274,-482.5 "/>
<text text-anchor="middle" x="193.5" y="-470.5" font-family="Courier New" font-size="10.00"> </text>
</a>
</g>
</g>
<!-- Node4&#45;&gt;Node3 -->
<g id="edge4" class="edge"><title>Node4&#45;&gt;Node3</title>
<path fill="none" stroke="#404040" d="M184.821,-463.41C180.366,-446.427 174.795,-425.186 169.591,-405.345"/>
<polygon fill="none" stroke="#404040" points="169.541,-405.154 164.149,-400.366 166.496,-393.547 171.887,-398.336 169.541,-405.154"/>
<text text-anchor="middle" x="216" y="-437" font-family="Courier New" font-size="10.00"> &#45;onPress</text>
<text text-anchor="middle" x="216" y="-426" font-family="Courier New" font-size="10.00">&#45;onHoldPress</text>
<text text-anchor="middle" x="216" y="-415" font-family="Courier New" font-size="10.00">&#45;onEndPress</text>
</g>
<!-- Node5 -->
<g id="node5" class="node"><title>Node5</title>
<g id="a_node5"><a xlink:title=" ">
<polygon fill="white" stroke="#bfbfbf" points="113,-569.5 113,-626.5 274,-626.5 274,-569.5 113,-569.5"/>
<text text-anchor="middle" x="193.5" y="-614.5" font-family="Courier New" font-size="10.00">UnityEvent&lt; RaycastHit &gt;</text>
<polyline fill="none" stroke="#bfbfbf" points="113,-607.5 274,-607.5 "/>
<text text-anchor="middle" x="193.5" y="-595.5" font-family="Courier New" font-size="10.00"> </text>
<polyline fill="none" stroke="#bfbfbf" points="113,-588.5 274,-588.5 "/>
<text text-anchor="middle" x="193.5" y="-576.5" font-family="Courier New" font-size="10.00"> </text>
</a>
</g>
</g>
<!-- Node5&#45;&gt;Node4 -->
<g id="edge5" class="edge"><title>Node5&#45;&gt;Node4</title>
<path fill="none" stroke="midnightblue" d="M193.5,-559.007C193.5,-549.962 193.5,-540.383 193.5,-531.578"/>
<polygon fill="none" stroke="midnightblue" points="190,-559.3 193.5,-569.3 197,-559.3 190,-559.3"/>
</g>
<!-- Node6 -->
<g id="node6" class="node"><title>Node6</title>
<g id="a_node6"><a xlink:title=" ">
<polygon fill="white" stroke="#bfbfbf" points="249,-314.5 249,-371.5 302,-371.5 302,-314.5 249,-314.5"/>
<text text-anchor="middle" x="275.5" y="-359.5" font-family="Courier New" font-size="10.00">static</text>
<polyline fill="none" stroke="#bfbfbf" points="249,-352.5 302,-352.5 "/>
<text text-anchor="middle" x="275.5" y="-340.5" font-family="Courier New" font-size="10.00"> </text>
<polyline fill="none" stroke="#bfbfbf" points="249,-333.5 302,-333.5 "/>
<text text-anchor="middle" x="275.5" y="-321.5" font-family="Courier New" font-size="10.00"> </text>
</a>
</g>
</g>
<!-- Node6&#45;&gt;Node1 -->
<g id="edge6" class="edge"><title>Node6&#45;&gt;Node1</title>
<path fill="none" stroke="#404040" d="M266.541,-314.337C259.437,-293.66 248.697,-264.952 236.5,-241 235.204,-238.454 233.869,-235.895 232.503,-233.329"/>
<polygon fill="none" stroke="#404040" points="232.477,-233.28 226.088,-229.935 226.719,-222.751 233.108,-226.097 232.477,-233.28"/>
<text text-anchor="middle" x="279" y="-255" font-family="Courier New" font-size="10.00"> &#45;nullHit</text>
</g>
</g>
</svg>
        <g id="navigator" transform="translate(0 0)" fill="#404254">
                <rect fill="#f2f5e9" fill-opacity="0.5" stroke="#606060" stroke-width=".5" x="0" y="0" width="60" height="60"/>
                <use id="zoomplus" xlink:href="#zoomPlus" x="17" y="9" onmousedown="handleZoom(evt,'in')"/>
                <use id="zoomminus" xlink:href="#zoomMin" x="42" y="9" onmousedown="handleZoom(evt,'out')"/>
                <use id="reset" xlink:href="#resetDef" x="30" y="36" onmousedown="handleReset()"/>
                <g id="arrowUp" xlink:href="#dirArrow" transform="translate(30 24)" onmousedown="handlePan(0,-1)">
                  <use xlink:href="#rim" fill="#404040">
                        <set attributeName="fill" to="#808080" begin="arrowUp.mouseover" end="arrowUp.mouseout"/>
                  </use>
                  <path fill="none" stroke="white" stroke-width="1.5" d="M0,-3.0v7 M-2.5,-0.5L0,-3.0L2.5,-0.5"/>
                </g>
                <g id="arrowRight" xlink:href="#dirArrow" transform="rotate(90) translate(36 -43)" onmousedown="handlePan(1,0)">
                  <use xlink:href="#rim" fill="#404040">
                        <set attributeName="fill" to="#808080" begin="arrowRight.mouseover" end="arrowRight.mouseout"/>
                  </use>
                  <path fill="none" stroke="white" stroke-width="1.5" d="M0,-3.0v7 M-2.5,-0.5L0,-3.0L2.5,-0.5"/>
                </g>
                <g id="arrowDown" xlink:href="#dirArrow" transform="rotate(180) translate(-30 -48)" onmousedown="handlePan(0,1)">
                  <use xlink:href="#rim" fill="#404040">
                        <set attributeName="fill" to="#808080" begin="arrowDown.mouseover" end="arrowDown.mouseout"/>
                  </use>
                  <path fill="none" stroke="white" stroke-width="1.5" d="M0,-3.0v7 M-2.5,-0.5L0,-3.0L2.5,-0.5"/>
                </g>
                <g id="arrowLeft" xlink:href="#dirArrow" transform="rotate(270) translate(-36 17)" onmousedown="handlePan(-1,0)">
                  <use xlink:href="#rim" fill="#404040">
                        <set attributeName="fill" to="#808080" begin="arrowLeft.mouseover" end="arrowLeft.mouseout"/>
                  </use>
                  <path fill="none" stroke="white" stroke-width="1.5" d="M0,-3.0v7 M-2.5,-0.5L0,-3.0L2.5,-0.5"/>
                </g>
        </g>
        <svg viewBox="0 0 15 15" width="100%" height="30px" preserveAspectRatio="xMaxYMin meet">
         <g id="arrow_out" transform="scale(0.3 0.3)">
          <a xlink:href="class_c2_m2_1_1_raycast_event_manager__coll__graph_org.svg" target="_base">
           <rect id="button" ry="5" rx="5" y="6" x="6" height="38" width="38"
                fill="#f2f5e9" fill-opacity="0.5" stroke="#606060" stroke-width="1.0"/>
           <path id="arrow"
             d="M 11.500037,31.436501 C 11.940474,20.09759 22.043105,11.32322 32.158766,21.979434 L 37.068811,17.246167 C 37.068811,17.246167 37.088388,32 37.088388,32 L 22.160133,31.978069 C 22.160133,31.978069 26.997745,27.140456 26.997745,27.140456 C 18.528582,18.264221 13.291696,25.230495 11.500037,31.436501 z"
             style="fill:#404040;"/>
          </a>
         </g>
        </svg>
</svg>
