<?xml version="1.0" encoding="UTF-8" standalone="no"?>
<!DOCTYPE svg PUBLIC "-//W3C//DTD SVG 1.1//EN"
 "http://www.w3.org/Graphics/SVG/1.1/DTD/svg11.dtd">
<!-- Generated by graphviz version 2.38.0 (20140413.2041)
 -->
<!-- Title: C2M2.GameManager Pages: 1 -->
<svg width="414pt" height="1373pt"
 viewBox="0.00 0.00 413.50 1373.00" xmlns="http://www.w3.org/2000/svg" xmlns:xlink="http://www.w3.org/1999/xlink">
<g id="graph0" class="graph" transform="scale(1 1) rotate(0) translate(4 1369)">
<title>C2M2.GameManager</title>
<polygon fill="white" stroke="none" points="-4,4 -4,-1369 409.5,-1369 409.5,4 -4,4"/>
<!-- Node1 -->
<g id="node1" class="node"><title>Node1</title>
<g id="a_node1"><a xlink:title=" ">
<polygon fill="#bfbfbf" stroke="black" points="164,-0.5 164,-277.5 355,-277.5 355,-0.5 164,-0.5"/>
<text text-anchor="middle" x="259.5" y="-265.5" font-family="Courier New" font-size="10.00">C2M2.GameManager</text>
<polyline fill="none" stroke="black" points="164,-258.5 355,-258.5 "/>
<text text-anchor="start" x="172" y="-246.5" font-family="Courier New" font-size="10.00">+ mainThreadId</text>
<text text-anchor="start" x="172" y="-235.5" font-family="Courier New" font-size="10.00">+ assetsPath</text>
<text text-anchor="start" x="172" y="-224.5" font-family="Courier New" font-size="10.00">+ useVirtualReality</text>
<text text-anchor="start" x="172" y="-213.5" font-family="Courier New" font-size="10.00">+ defaultMaterial</text>
<text text-anchor="start" x="172" y="-202.5" font-family="Courier New" font-size="10.00">+ vertexColorationMaterial</text>
<text text-anchor="start" x="172" y="-191.5" font-family="Courier New" font-size="10.00">+ objectScaleDefault</text>
<text text-anchor="start" x="172" y="-180.5" font-family="Courier New" font-size="10.00">+ ovrRightHandAnchor</text>
<text text-anchor="start" x="172" y="-169.5" font-family="Courier New" font-size="10.00">+ ovrLeftHandAnchor</text>
<text text-anchor="start" x="172" y="-158.5" font-family="Courier New" font-size="10.00">+ menu</text>
<text text-anchor="start" x="172" y="-147.5" font-family="Courier New" font-size="10.00">+ raycastKeyboardPrefab</text>
<text text-anchor="start" x="172" y="-136.5" font-family="Courier New" font-size="10.00">+ menuSnapPosition</text>
<text text-anchor="start" x="172" y="-125.5" font-family="Courier New" font-size="10.00">+ ovrPlayerController</text>
<text text-anchor="start" x="172" y="-114.5" font-family="Courier New" font-size="10.00">+ nonVRCamera</text>
<text text-anchor="start" x="172" y="-103.5" font-family="Courier New" font-size="10.00">+ raycastKeyboard</text>
<text text-anchor="start" x="172" y="-92.5" font-family="Courier New" font-size="10.00">&#45; logQ</text>
<text text-anchor="start" x="172" y="-81.5" font-family="Courier New" font-size="10.00">&#45; logQCap</text>
<polyline fill="none" stroke="black" points="164,-74.5 355,-74.5 "/>
<text text-anchor="start" x="172" y="-62.5" font-family="Courier New" font-size="10.00">+ RaycasterRightChangeColor()</text>
<text text-anchor="start" x="172" y="-51.5" font-family="Courier New" font-size="10.00">+ RaycasterLeftChangeColor()</text>
<text text-anchor="start" x="172" y="-40.5" font-family="Courier New" font-size="10.00">+ DebugLogSafe()</text>
<text text-anchor="start" x="172" y="-29.5" font-family="Courier New" font-size="10.00">+ DebugLogSafe&lt; T &gt;()</text>
<text text-anchor="start" x="172" y="-18.5" font-family="Courier New" font-size="10.00">&#45; Awake()</text>
<text text-anchor="start" x="172" y="-7.5" font-family="Courier New" font-size="10.00">&#45; Update()</text>
</a>
</g>
</g>
<!-- Node2 -->
<g id="node2" class="node"><title>Node2</title>
<g id="a_node2"><a xlink:title=" ">
<polygon fill="white" stroke="#bfbfbf" points="0,-1207 0,-1264 95,-1264 95,-1207 0,-1207"/>
<text text-anchor="middle" x="47.5" y="-1252" font-family="Courier New" font-size="10.00">MonoBehaviour</text>
<polyline fill="none" stroke="#bfbfbf" points="0,-1245 95,-1245 "/>
<text text-anchor="middle" x="47.5" y="-1233" font-family="Courier New" font-size="10.00"> </text>
<polyline fill="none" stroke="#bfbfbf" points="0,-1226 95,-1226 "/>
<text text-anchor="middle" x="47.5" y="-1214" font-family="Courier New" font-size="10.00"> </text>
</a>
</g>
</g>
<!-- Node2&#45;&gt;Node1 -->
<g id="edge1" class="edge"><title>Node2&#45;&gt;Node1</title>
<path fill="none" stroke="midnightblue" d="M32.7742,-1197.13C22.0883,-1166.65 9.5,-1122.2 9.5,-1082 9.5,-1082 9.5,-1082 9.5,-512.5 9.5,-430.466 21.2425,-406.312 63.5,-336 89.8384,-292.175 128.076,-250.966 163.799,-217.751"/>
<polygon fill="none" stroke="midnightblue" points="29.6161,-1198.69 36.3043,-1206.91 36.2001,-1196.31 29.6161,-1198.69"/>
</g>
<!-- Node3 -->
<g id="node3" class="node"><title>Node3</title>
<g id="a_node3"><a xlink:href="../../d2/ddc/class_c2_m2_1_1_raycast_forward.html" target="_top" xlink:title=" ">
<polygon fill="white" stroke="black" points="73,-336.5 73,-690.5 240,-690.5 240,-336.5 73,-336.5"/>
<text text-anchor="middle" x="156.5" y="-678.5" font-family="Courier New" font-size="10.00">C2M2.RaycastForward</text>
<polyline fill="none" stroke="black" points="73,-671.5 240,-671.5 "/>
<text text-anchor="start" x="81" y="-659.5" font-family="Courier New" font-size="10.00">+ rightHand</text>
<text text-anchor="start" x="81" y="-648.5" font-family="Courier New" font-size="10.00">+ raycastController</text>
<text text-anchor="start" x="81" y="-637.5" font-family="Courier New" font-size="10.00">+ raycastButton</text>
<text text-anchor="start" x="81" y="-626.5" font-family="Courier New" font-size="10.00">+ triggerButton</text>
<text text-anchor="start" x="81" y="-615.5" font-family="Courier New" font-size="10.00">+ layerMask</text>
<text text-anchor="start" x="81" y="-604.5" font-family="Courier New" font-size="10.00">+ staticIndexRenderer</text>
<text text-anchor="start" x="81" y="-593.5" font-family="Courier New" font-size="10.00">+ staticHandObject</text>
<text text-anchor="start" x="81" y="-582.5" font-family="Courier New" font-size="10.00">+ defaultHandObject</text>
<text text-anchor="start" x="81" y="-571.5" font-family="Courier New" font-size="10.00">+ minHitDist</text>
<text text-anchor="start" x="81" y="-560.5" font-family="Courier New" font-size="10.00">+ hysteresisDist</text>
<text text-anchor="start" x="81" y="-549.5" font-family="Courier New" font-size="10.00">and 10 more...</text>
<text text-anchor="start" x="81" y="-538.5" font-family="Courier New" font-size="10.00">&#45; activeObjectID</text>
<text text-anchor="start" x="81" y="-527.5" font-family="Courier New" font-size="10.00">&#45; valid</text>
<text text-anchor="start" x="81" y="-516.5" font-family="Courier New" font-size="10.00">&#45; clicked</text>
<text text-anchor="start" x="81" y="-505.5" font-family="Courier New" font-size="10.00">&#45; touched</text>
<text text-anchor="start" x="81" y="-494.5" font-family="Courier New" font-size="10.00">&#45; hitTriggered</text>
<text text-anchor="start" x="81" y="-483.5" font-family="Courier New" font-size="10.00">&#45; holdTriggered</text>
<text text-anchor="start" x="81" y="-472.5" font-family="Courier New" font-size="10.00">&#45; endTriggered</text>
<text text-anchor="start" x="81" y="-461.5" font-family="Courier New" font-size="10.00">&#45; validHitEvent</text>
<text text-anchor="start" x="81" y="-450.5" font-family="Courier New" font-size="10.00">&#45; validHoldEvent</text>
<text text-anchor="start" x="81" y="-439.5" font-family="Courier New" font-size="10.00">&#45; validEndEvent</text>
<text text-anchor="start" x="81" y="-428.5" font-family="Courier New" font-size="10.00">&#45; relativeForward</text>
<text text-anchor="start" x="81" y="-417.5" font-family="Courier New" font-size="10.00">&#45; lineRend</text>
<text text-anchor="start" x="81" y="-406.5" font-family="Courier New" font-size="10.00">&#45; invisible</text>
<text text-anchor="start" x="81" y="-395.5" font-family="Courier New" font-size="10.00">&#45; currentState</text>
<polyline fill="none" stroke="black" points="73,-388.5 240,-388.5 "/>
<text text-anchor="start" x="81" y="-376.5" font-family="Courier New" font-size="10.00">+ ChangeStaticHandColor()</text>
<text text-anchor="start" x="81" y="-365.5" font-family="Courier New" font-size="10.00">&#45; Start()</text>
<text text-anchor="start" x="81" y="-354.5" font-family="Courier New" font-size="10.00">&#45; FixedUpdate()</text>
<text text-anchor="start" x="81" y="-343.5" font-family="Courier New" font-size="10.00">&#45; TryRaycastHit()</text>
</a>
</g>
</g>
<!-- Node2&#45;&gt;Node3 -->
<g id="edge3" class="edge"><title>Node2&#45;&gt;Node3</title>
<path fill="none" stroke="midnightblue" d="M44.59,-1196.87C39.0634,-1113.25 30.585,-906.062 66.5,-738 69.8437,-722.353 74.1974,-706.393 79.1847,-690.561"/>
<polygon fill="none" stroke="midnightblue" points="41.1025,-1197.18 45.2792,-1206.91 48.086,-1196.7 41.1025,-1197.18"/>
</g>
<!-- Node4 -->
<g id="node4" class="node"><title>Node4</title>
<g id="a_node4"><a xlink:href="../../d7/dcb/class_c2_m2_1_1_raycast_event_manager.html" target="_top" xlink:title="Attach this script to parent gameObject, create one child with one raycast trigger per child....">
<polygon fill="white" stroke="black" points="76,-738.5 76,-960.5 237,-960.5 237,-738.5 76,-738.5"/>
<text text-anchor="middle" x="156.5" y="-948.5" font-family="Courier New" font-size="10.00">C2M2.RaycastEventManager</text>
<polyline fill="none" stroke="black" points="76,-941.5 237,-941.5 "/>
<text text-anchor="middle" x="156.5" y="-929.5" font-family="Courier New" font-size="10.00"> </text>
<polyline fill="none" stroke="black" points="76,-922.5 237,-922.5 "/>
<text text-anchor="start" x="84" y="-910.5" font-family="Courier New" font-size="10.00">+ TriggerChangeRight()</text>
<text text-anchor="start" x="84" y="-899.5" font-family="Courier New" font-size="10.00">+ TriggerChangeLeft()</text>
<text text-anchor="start" x="84" y="-888.5" font-family="Courier New" font-size="10.00">+ TriggerChangeBoth()</text>
<text text-anchor="start" x="84" y="-877.5" font-family="Courier New" font-size="10.00">+ TriggerEmptyRight()</text>
<text text-anchor="start" x="84" y="-866.5" font-family="Courier New" font-size="10.00">+ TriggerEmptyLeft()</text>
<text text-anchor="start" x="84" y="-855.5" font-family="Courier New" font-size="10.00">+ TriggerEmptyBoth()</text>
<text text-anchor="start" x="84" y="-844.5" font-family="Courier New" font-size="10.00">+ PressEvent()</text>
<text text-anchor="start" x="84" y="-833.5" font-family="Courier New" font-size="10.00">+ HoldEvent()</text>
<text text-anchor="start" x="84" y="-822.5" font-family="Courier New" font-size="10.00">+ EndEvent()</text>
<text text-anchor="start" x="84" y="-811.5" font-family="Courier New" font-size="10.00">+ AllEvents()</text>
<text text-anchor="start" x="84" y="-800.5" font-family="Courier New" font-size="10.00">+ PressEventNull()</text>
<text text-anchor="start" x="84" y="-789.5" font-family="Courier New" font-size="10.00">+ HoldEventNull()</text>
<text text-anchor="start" x="84" y="-778.5" font-family="Courier New" font-size="10.00">+ EndEventNull()</text>
<text text-anchor="start" x="84" y="-767.5" font-family="Courier New" font-size="10.00">+ AllEventsNull()</text>
<text text-anchor="start" x="84" y="-756.5" font-family="Courier New" font-size="10.00">+ ToString()</text>
<text text-anchor="start" x="84" y="-745.5" font-family="Courier New" font-size="10.00">&#45; Awake()</text>
</a>
</g>
</g>
<!-- Node2&#45;&gt;Node4 -->
<g id="edge5" class="edge"><title>Node2&#45;&gt;Node4</title>
<path fill="none" stroke="midnightblue" d="M57.8718,-1196.85C69.2089,-1155.79 87.9662,-1088.18 104.5,-1030 110.886,-1007.53 117.793,-983.5 124.423,-960.566"/>
<polygon fill="none" stroke="midnightblue" points="54.4419,-1196.12 55.1552,-1206.69 61.1896,-1197.98 54.4419,-1196.12"/>
</g>
<!-- Node5 -->
<g id="node5" class="node"><title>Node5</title>
<g id="a_node5"><a xlink:href="../../dd/dab/class_c2_m2_1_1_raycast_press_events.html" target="_top" xlink:title="Store custom events that the corresponding RaycastTriggerManager will invoke">
<polygon fill="white" stroke="black" points="114,-1030.5 114,-1131.5 269,-1131.5 269,-1030.5 114,-1030.5"/>
<text text-anchor="middle" x="191.5" y="-1119.5" font-family="Courier New" font-size="10.00">C2M2.RaycastPressEvents</text>
<polyline fill="none" stroke="black" points="114,-1112.5 269,-1112.5 "/>
<text text-anchor="start" x="122" y="-1100.5" font-family="Courier New" font-size="10.00">+ OnPress</text>
<text text-anchor="start" x="122" y="-1089.5" font-family="Courier New" font-size="10.00">+ OnHoldPress</text>
<text text-anchor="start" x="122" y="-1078.5" font-family="Courier New" font-size="10.00">+ OnEndPress</text>
<polyline fill="none" stroke="black" points="114,-1071.5 269,-1071.5 "/>
<text text-anchor="start" x="122" y="-1059.5" font-family="Courier New" font-size="10.00">+ Press()</text>
<text text-anchor="start" x="122" y="-1048.5" font-family="Courier New" font-size="10.00">+ HoldPress()</text>
<text text-anchor="start" x="122" y="-1037.5" font-family="Courier New" font-size="10.00">+ EndPress()</text>
</a>
</g>
</g>
<!-- Node2&#45;&gt;Node5 -->
<g id="edge7" class="edge"><title>Node2&#45;&gt;Node5</title>
<path fill="none" stroke="midnightblue" d="M83.2338,-1199.59C88.7282,-1194.09 94.3,-1188.42 99.5,-1183 115.343,-1166.48 132.315,-1148.06 147.313,-1131.53"/>
<polygon fill="none" stroke="midnightblue" points="80.4473,-1197.43 75.8314,-1206.96 85.3868,-1202.39 80.4473,-1197.43"/>
</g>
<!-- Node3&#45;&gt;Node1 -->
<g id="edge2" class="edge"><title>Node3&#45;&gt;Node1</title>
<path fill="none" stroke="#404040" d="M197.535,-336.431C201.114,-322.716 204.789,-309.111 208.5,-296 209.14,-293.738 209.792,-291.46 210.454,-289.169"/>
<polygon fill="none" stroke="#404040" points="210.464,-289.137 208.316,-282.253 213.845,-277.623 215.992,-284.507 210.464,-289.137"/>
<text text-anchor="middle" x="254" y="-310" font-family="Courier New" font-size="10.00"> +leftRaycaster</text>
<text text-anchor="middle" x="254" y="-299" font-family="Courier New" font-size="10.00">+rightRaycaster</text>
</g>
<!-- Node4&#45;&gt;Node3 -->
<g id="edge4" class="edge"><title>Node4&#45;&gt;Node3</title>
<path fill="none" stroke="#404040" d="M156.5,-738.21C156.5,-726.738 156.5,-714.861 156.5,-702.834"/>
<polygon fill="none" stroke="#404040" points="156.5,-702.766 152.5,-696.766 156.5,-690.766 160.5,-696.766 156.5,-702.766"/>
<text text-anchor="middle" x="223" y="-712" font-family="Courier New" font-size="10.00"> &#45;activeTriggerManager</text>
</g>
<!-- Node5&#45;&gt;Node4 -->
<g id="edge6" class="edge"><title>Node5&#45;&gt;Node4</title>
<path fill="none" stroke="#404040" d="M150.609,-1030.26C147.33,-1024.37 144.511,-1018.23 142.5,-1012 138.496,-999.594 136.399,-986.39 135.651,-973.083"/>
<polygon fill="none" stroke="#404040" points="135.644,-972.85 131.487,-966.958 135.326,-960.854 139.484,-966.746 135.644,-972.85"/>
<text text-anchor="middle" x="182" y="-1004" font-family="Courier New" font-size="10.00"> +leftTrigger</text>
<text text-anchor="middle" x="182" y="-993" font-family="Courier New" font-size="10.00">+rightTrigger</text>
<text text-anchor="middle" x="182" y="-982" font-family="Courier New" font-size="10.00">&#45;emptyTrigger</text>
</g>
<!-- Node6 -->
<g id="node6" class="node"><title>Node6</title>
<g id="a_node6"><a xlink:href="../../db/d79/class_c2_m2_1_1_raycast_press_events_1_1_raycast_hit_event.html" target="_top" xlink:title=" ">
<polygon fill="white" stroke="black" points="113,-1201.5 113,-1269.5 274,-1269.5 274,-1201.5 113,-1201.5"/>
<text text-anchor="start" x="121" y="-1257.5" font-family="Courier New" font-size="10.00">C2M2.RaycastPressEvents.</text>
<text text-anchor="middle" x="193.5" y="-1246.5" font-family="Courier New" font-size="10.00">RaycastHitEvent</text>
<polyline fill="none" stroke="black" points="113,-1239.5 274,-1239.5 "/>
<text text-anchor="middle" x="193.5" y="-1227.5" font-family="Courier New" font-size="10.00"> </text>
<polyline fill="none" stroke="black" points="113,-1220.5 274,-1220.5 "/>
<text text-anchor="middle" x="193.5" y="-1208.5" font-family="Courier New" font-size="10.00"> </text>
</a>
</g>
</g>
<!-- Node6&#45;&gt;Node5 -->
<g id="edge8" class="edge"><title>Node6&#45;&gt;Node5</title>
<path fill="none" stroke="#404040" d="M193.066,-1201.41C192.844,-1184.51 192.567,-1163.39 192.308,-1143.62"/>
<polygon fill="none" stroke="#404040" points="192.307,-1143.55 188.229,-1137.6 192.15,-1131.55 196.228,-1137.49 192.307,-1143.55"/>
<text text-anchor="middle" x="230" y="-1175" font-family="Courier New" font-size="10.00"> &#45;onPress</text>
<text text-anchor="middle" x="230" y="-1164" font-family="Courier New" font-size="10.00">&#45;onHoldPress</text>
<text text-anchor="middle" x="230" y="-1153" font-family="Courier New" font-size="10.00">&#45;onEndPress</text>
</g>
<!-- Node7 -->
<g id="node7" class="node"><title>Node7</title>
<g id="a_node7"><a xlink:title=" ">
<polygon fill="white" stroke="#bfbfbf" points="113,-1307.5 113,-1364.5 274,-1364.5 274,-1307.5 113,-1307.5"/>
<text text-anchor="middle" x="193.5" y="-1352.5" font-family="Courier New" font-size="10.00">UnityEvent&lt; RaycastHit &gt;</text>
<polyline fill="none" stroke="#bfbfbf" points="113,-1345.5 274,-1345.5 "/>
<text text-anchor="middle" x="193.5" y="-1333.5" font-family="Courier New" font-size="10.00"> </text>
<polyline fill="none" stroke="#bfbfbf" points="113,-1326.5 274,-1326.5 "/>
<text text-anchor="middle" x="193.5" y="-1314.5" font-family="Courier New" font-size="10.00"> </text>
</a>
</g>
</g>
<!-- Node7&#45;&gt;Node6 -->
<g id="edge9" class="edge"><title>Node7&#45;&gt;Node6</title>
<path fill="none" stroke="midnightblue" d="M193.5,-1297.01C193.5,-1287.96 193.5,-1278.38 193.5,-1269.58"/>
<polygon fill="none" stroke="midnightblue" points="190,-1297.3 193.5,-1307.3 197,-1297.3 190,-1297.3"/>
</g>
<!-- Node8 -->
<g id="node8" class="node"><title>Node8</title>
<g id="a_node8"><a xlink:title=" ">
<polygon fill="white" stroke="#bfbfbf" points="287,-1052.5 287,-1109.5 340,-1109.5 340,-1052.5 287,-1052.5"/>
<text text-anchor="middle" x="313.5" y="-1097.5" font-family="Courier New" font-size="10.00">static</text>
<polyline fill="none" stroke="#bfbfbf" points="287,-1090.5 340,-1090.5 "/>
<text text-anchor="middle" x="313.5" y="-1078.5" font-family="Courier New" font-size="10.00"> </text>
<polyline fill="none" stroke="#bfbfbf" points="287,-1071.5 340,-1071.5 "/>
<text text-anchor="middle" x="313.5" y="-1059.5" font-family="Courier New" font-size="10.00"> </text>
</a>
</g>
</g>
<!-- Node8&#45;&gt;Node1 -->
<g id="edge12" class="edge"><title>Node8&#45;&gt;Node1</title>
<path fill="none" stroke="#404040" d="M315.317,-1052.4C321.501,-951.003 339.229,-589.755 299.5,-296 299.223,-293.952 298.929,-291.893 298.618,-289.824"/>
<polygon fill="none" stroke="#404040" points="298.603,-289.732 293.69,-284.454 296.673,-277.888 301.586,-283.167 298.603,-289.732"/>
<text text-anchor="middle" x="356" y="-712" font-family="Courier New" font-size="10.00"> +instance</text>
</g>
<!-- Node8&#45;&gt;Node4 -->
<g id="edge10" class="edge"><title>Node8&#45;&gt;Node4</title>
<path fill="none" stroke="#404040" d="M297.008,-1052.49C291.457,-1044.62 284.798,-1036.44 277.5,-1030 264.974,-1018.95 256.311,-1023.82 244.5,-1012 240.203,-1007.7 230.679,-991.675 219.416,-971.276"/>
<polygon fill="none" stroke="#404040" points="219.334,-971.126 212.945,-967.782 213.575,-960.598 219.964,-963.943 219.334,-971.126"/>
<text text-anchor="middle" x="272" y="-993" font-family="Courier New" font-size="10.00"> &#45;nullHit</text>
</g>
<!-- Node9 -->
<g id="node9" class="node"><title>Node9</title>
<g id="a_node9"><a xlink:title=" ">
<polygon fill="white" stroke="#bfbfbf" points="342,-485 342,-542 389,-542 389,-485 342,-485"/>
<text text-anchor="middle" x="365.5" y="-530" font-family="Courier New" font-size="10.00">Utils</text>
<polyline fill="none" stroke="#bfbfbf" points="342,-523 389,-523 "/>
<text text-anchor="middle" x="365.5" y="-511" font-family="Courier New" font-size="10.00"> </text>
<polyline fill="none" stroke="#bfbfbf" points="342,-504 389,-504 "/>
<text text-anchor="middle" x="365.5" y="-492" font-family="Courier New" font-size="10.00"> </text>
</a>
</g>
</g>
<!-- Node9&#45;&gt;Node1 -->
<g id="edge11" class="edge"><title>Node9&#45;&gt;Node1</title>
<path fill="none" stroke="#404040" d="M362.753,-484.672C358.162,-442.981 347.411,-362.14 327.5,-296 326.813,-293.719 326.103,-291.427 325.37,-289.127"/>
<polygon fill="none" stroke="#404040" points="325.315,-288.961 319.627,-284.528 321.532,-277.573 327.22,-282.006 325.315,-288.961"/>
<text text-anchor="middle" x="369" y="-304.5" font-family="Courier New" font-size="10.00"> +fpsCounter</text>
</g>
</g>
</svg>
