<?xml version="1.0" encoding="UTF-8" standalone="no"?>
<!DOCTYPE svg PUBLIC "-//W3C//DTD SVG 1.1//EN"
 "http://www.w3.org/Graphics/SVG/1.1/DTD/svg11.dtd">
<!-- Generated by graphviz version 2.46.0 (20210118.1747)
 -->
<!-- Title: C2M2.Interaction.GrabRescaler Pages: 1 -->
<svg width="199pt" height="303pt"
 viewBox="0.00 0.00 199.00 303.00" xmlns="http://www.w3.org/2000/svg" xmlns:xlink="http://www.w3.org/1999/xlink">
<g id="graph0" class="graph" transform="scale(1 1) rotate(0) translate(4 299)">
<title>C2M2.Interaction.GrabRescaler</title>
<polygon fill="white" stroke="transparent" points="-4,4 -4,-299 195,-299 195,4 -4,4"/>
<!-- Node1 -->
<g id="node1" class="node">
<title>Node1</title>
<g id="a_node1"><a xlink:title="Adds some percentage of a transform&#39;s original scale at runtime">
<polygon fill="#bfbfbf" stroke="black" points="0,-0.5 0,-200.5 191,-200.5 191,-0.5 0,-0.5"/>
<text text-anchor="middle" x="95.5" y="-188.5" font-family="Courier New" font-size="10.00">C2M2.Interaction.GrabRescaler</text>
<polyline fill="none" stroke="black" points="0,-181.5 191,-181.5 "/>
<text text-anchor="start" x="8" y="-169.5" font-family="Courier New" font-size="10.00">+ scaler</text>
<text text-anchor="start" x="8" y="-158.5" font-family="Courier New" font-size="10.00">+ minPercentage</text>
<text text-anchor="start" x="8" y="-147.5" font-family="Courier New" font-size="10.00">+ maxPercentage</text>
<text text-anchor="start" x="8" y="-136.5" font-family="Courier New" font-size="10.00">+ xScale</text>
<text text-anchor="start" x="8" y="-125.5" font-family="Courier New" font-size="10.00">+ yScale</text>
<text text-anchor="start" x="8" y="-114.5" font-family="Courier New" font-size="10.00">+ zScale</text>
<text text-anchor="start" x="8" y="-103.5" font-family="Courier New" font-size="10.00">+ ThumbstickScaler</text>
<text text-anchor="start" x="8" y="-92.5" font-family="Courier New" font-size="10.00">+ ThumbstickPressed</text>
<text text-anchor="start" x="8" y="-81.5" font-family="Courier New" font-size="10.00">&#45; grabbable</text>
<text text-anchor="start" x="8" y="-70.5" font-family="Courier New" font-size="10.00">&#45; origScale</text>
<text text-anchor="start" x="8" y="-59.5" font-family="Courier New" font-size="10.00">&#45; minScale</text>
<text text-anchor="start" x="8" y="-48.5" font-family="Courier New" font-size="10.00">&#45; maxScale</text>
<text text-anchor="start" x="8" y="-37.5" font-family="Courier New" font-size="10.00">&#45; grabber</text>
<polyline fill="none" stroke="black" points="0,-30.5 191,-30.5 "/>
<text text-anchor="start" x="8" y="-18.5" font-family="Courier New" font-size="10.00">&#45; Start()</text>
<text text-anchor="start" x="8" y="-7.5" font-family="Courier New" font-size="10.00">&#45; Update()</text>
</a>
</g>
</g>
<!-- Node2 -->
<g id="node2" class="node">
<title>Node2</title>
<g id="a_node2"><a xlink:title=" ">
<polygon fill="white" stroke="#bfbfbf" points="48,-237.5 48,-294.5 143,-294.5 143,-237.5 48,-237.5"/>
<text text-anchor="middle" x="95.5" y="-282.5" font-family="Courier New" font-size="10.00">MonoBehaviour</text>
<polyline fill="none" stroke="#bfbfbf" points="48,-275.5 143,-275.5 "/>
<text text-anchor="middle" x="95.5" y="-263.5" font-family="Courier New" font-size="10.00"> </text>
<polyline fill="none" stroke="#bfbfbf" points="48,-256.5 143,-256.5 "/>
<text text-anchor="middle" x="95.5" y="-244.5" font-family="Courier New" font-size="10.00"> </text>
</a>
</g>
</g>
<!-- Node2&#45;&gt;Node1 -->
<g id="edge1" class="edge">
<title>Node2&#45;&gt;Node1</title>
<path fill="none" stroke="midnightblue" d="M95.5,-227.04C95.5,-218.87 95.5,-209.87 95.5,-200.55"/>
<polygon fill="none" stroke="midnightblue" points="92,-227.26 95.5,-237.26 99,-227.26 92,-227.26"/>
</g>
</g>
</svg>
