<?xml version="1.0" encoding="UTF-8" standalone="no"?>
<!DOCTYPE svg PUBLIC "-//W3C//DTD SVG 1.1//EN"
 "http://www.w3.org/Graphics/SVG/1.1/DTD/svg11.dtd">
<!-- Generated by graphviz version 2.38.0 (20140413.2041)
 -->
<!-- Title: C2M2.Visualization.VR.MovingOVRHeadsetEmulator Pages: 1 -->
<svg width="193pt" height="259pt"
 viewBox="0.00 0.00 193.00 259.00" xmlns="http://www.w3.org/2000/svg" xmlns:xlink="http://www.w3.org/1999/xlink">
<g id="graph0" class="graph" transform="scale(1 1) rotate(0) translate(4 255)">
<title>C2M2.Visualization.VR.MovingOVRHeadsetEmulator</title>
<polygon fill="white" stroke="none" points="-4,4 -4,-255 189,-255 189,4 -4,4"/>
<!-- Node1 -->
<g id="node1" class="node"><title>Node1</title>
<g id="a_node1"><a xlink:title="Add movement functionality to Oculus HMD headset emulator, add some additional small functionality li...">
<polygon fill="#bfbfbf" stroke="black" points="0,-0.5 0,-156.5 185,-156.5 185,-0.5 0,-0.5"/>
<text text-anchor="start" x="8" y="-144.5" font-family="Courier New" font-size="10.00">C2M2.Visualization.VR.Moving</text>
<text text-anchor="middle" x="92.5" y="-133.5" font-family="Courier New" font-size="10.00">OVRHeadsetEmulator</text>
<polyline fill="none" stroke="black" points="0,-126.5 185,-126.5 "/>
<text text-anchor="start" x="8" y="-114.5" font-family="Courier New" font-size="10.00">+ slowMoveKeys</text>
<text text-anchor="start" x="8" y="-103.5" font-family="Courier New" font-size="10.00">+ moveSpeed</text>
<text text-anchor="start" x="8" y="-92.5" font-family="Courier New" font-size="10.00">+ slowMoveSpeed</text>
<text text-anchor="start" x="8" y="-81.5" font-family="Courier New" font-size="10.00">+ rotationSensitivity</text>
<text text-anchor="start" x="8" y="-70.5" font-family="Courier New" font-size="10.00">+ IsMovingSlow</text>
<polyline fill="none" stroke="black" points="0,-63.5 185,-63.5 "/>
<text text-anchor="start" x="8" y="-51.5" font-family="Courier New" font-size="10.00">+ ResolveMovement()</text>
<text text-anchor="start" x="8" y="-40.5" font-family="Courier New" font-size="10.00">&#45; Awake()</text>
<text text-anchor="start" x="8" y="-29.5" font-family="Courier New" font-size="10.00">&#45; Start()</text>
<text text-anchor="start" x="8" y="-18.5" font-family="Courier New" font-size="10.00">&#45; DisableAvatar()</text>
<text text-anchor="start" x="8" y="-7.5" font-family="Courier New" font-size="10.00">&#45; InitUI()</text>
</a>
</g>
</g>
<!-- Node2 -->
<g id="node2" class="node"><title>Node2</title>
<g id="a_node2"><a xlink:title=" ">
<polygon fill="white" stroke="#bfbfbf" points="30,-193.5 30,-250.5 155,-250.5 155,-193.5 30,-193.5"/>
<text text-anchor="middle" x="92.5" y="-238.5" font-family="Courier New" font-size="10.00">OVRHeadsetEmulator</text>
<polyline fill="none" stroke="#bfbfbf" points="30,-231.5 155,-231.5 "/>
<text text-anchor="middle" x="92.5" y="-219.5" font-family="Courier New" font-size="10.00"> </text>
<polyline fill="none" stroke="#bfbfbf" points="30,-212.5 155,-212.5 "/>
<text text-anchor="middle" x="92.5" y="-200.5" font-family="Courier New" font-size="10.00"> </text>
</a>
</g>
</g>
<!-- Node2&#45;&gt;Node1 -->
<g id="edge1" class="edge"><title>Node2&#45;&gt;Node1</title>
<path fill="none" stroke="midnightblue" d="M92.5,-183.34C92.5,-175.044 92.5,-165.964 92.5,-156.736"/>
<polygon fill="none" stroke="midnightblue" points="89.0001,-183.381 92.5,-193.381 96.0001,-183.382 89.0001,-183.381"/>
</g>
</g>
</svg>
