<?xml version="1.0" encoding="UTF-8" standalone="no"?>
<!DOCTYPE svg PUBLIC "-//W3C//DTD SVG 1.1//EN"
 "http://www.w3.org/Graphics/SVG/1.1/DTD/svg11.dtd">
<!-- Generated by graphviz version 2.38.0 (20140413.2041)
 -->
<!-- Title: C2M2.Interaction.Signaling.MouseEventSignaler Pages: 1 -->
<svg width="420pt" height="1190pt"
 viewBox="0.00 0.00 419.50 1190.00" xmlns="http://www.w3.org/2000/svg" xmlns:xlink="http://www.w3.org/1999/xlink">
<g id="graph0" class="graph" transform="scale(1 1) rotate(0) translate(4 1186)">
<title>C2M2.Interaction.Signaling.MouseEventSignaler</title>
<polygon fill="white" stroke="none" points="-4,4 -4,-1186 415.5,-1186 415.5,4 -4,4"/>
<!-- Node1 -->
<g id="node1" class="node"><title>Node1</title>
<g id="a_node1"><a xlink:title=" ">
<polygon fill="#bfbfbf" stroke="black" points="28,-0.5 28,-145.5 213,-145.5 213,-0.5 28,-0.5"/>
<text text-anchor="start" x="36" y="-133.5" font-family="Courier New" font-size="10.00">C2M2.Interaction.Signaling.</text>
<text text-anchor="middle" x="120.5" y="-122.5" font-family="Courier New" font-size="10.00">MouseEventSignaler</text>
<polyline fill="none" stroke="black" points="28,-115.5 213,-115.5 "/>
<text text-anchor="middle" x="120.5" y="-103.5" font-family="Courier New" font-size="10.00"> </text>
<polyline fill="none" stroke="black" points="28,-96.5 213,-96.5 "/>
<text text-anchor="start" x="36" y="-84.5" font-family="Courier New" font-size="10.00"># OnAwake()</text>
<text text-anchor="start" x="36" y="-73.5" font-family="Courier New" font-size="10.00"># OnStart()</text>
<text text-anchor="start" x="36" y="-62.5" font-family="Courier New" font-size="10.00"># BeginRaycastingCondition()</text>
<text text-anchor="start" x="36" y="-51.5" font-family="Courier New" font-size="10.00"># RaycastingMethod()</text>
<text text-anchor="start" x="36" y="-40.5" font-family="Courier New" font-size="10.00"># ChildsPressCondition()</text>
<text text-anchor="start" x="36" y="-29.5" font-family="Courier New" font-size="10.00"># OnPressSub()</text>
<text text-anchor="start" x="36" y="-18.5" font-family="Courier New" font-size="10.00"># OnHoldPressSub()</text>
<text text-anchor="start" x="36" y="-7.5" font-family="Courier New" font-size="10.00"># OnEndPressSub()</text>
</a>
</g>
</g>
<!-- Node2 -->
<g id="node2" class="node"><title>Node2</title>
<g id="a_node2"><a xlink:href="../../d6/d2d/class_c2_m2_1_1_interaction_1_1_signaling_1_1_raycast_event_signaler.html" target="_top" xlink:title=" ">
<polygon fill="white" stroke="black" points="28,-183.5 28,-427.5 213,-427.5 213,-183.5 28,-183.5"/>
<text text-anchor="middle" x="120.5" y="-415.5" font-family="Courier New" font-size="10.00">RaycastEventSignaler</text>
<polyline fill="none" stroke="black" points="28,-408.5 213,-408.5 "/>
<text text-anchor="start" x="36" y="-396.5" font-family="Courier New" font-size="10.00">+ rightHand</text>
<text text-anchor="start" x="36" y="-385.5" font-family="Courier New" font-size="10.00">+ maxRaycastDistance</text>
<text text-anchor="start" x="36" y="-374.5" font-family="Courier New" font-size="10.00">&#45; layerMask</text>
<text text-anchor="start" x="36" y="-363.5" font-family="Courier New" font-size="10.00">&#45; lastHit</text>
<polyline fill="none" stroke="black" points="28,-356.5 213,-356.5 "/>
<text text-anchor="start" x="36" y="-344.5" font-family="Courier New" font-size="10.00"># OnAwake()</text>
<text text-anchor="start" x="36" y="-333.5" font-family="Courier New" font-size="10.00"># Awake()</text>
<text text-anchor="start" x="36" y="-322.5" font-family="Courier New" font-size="10.00"># OnStart()</text>
<text text-anchor="start" x="36" y="-311.5" font-family="Courier New" font-size="10.00"># OnPress()</text>
<text text-anchor="start" x="36" y="-300.5" font-family="Courier New" font-size="10.00"># OnHoldPress()</text>
<text text-anchor="start" x="36" y="-289.5" font-family="Courier New" font-size="10.00"># OnEndPress()</text>
<text text-anchor="start" x="36" y="-278.5" font-family="Courier New" font-size="10.00"># OnPressSub()</text>
<text text-anchor="start" x="36" y="-267.5" font-family="Courier New" font-size="10.00"># OnHoldPressSub()</text>
<text text-anchor="start" x="36" y="-256.5" font-family="Courier New" font-size="10.00"># OnEndPressSub()</text>
<text text-anchor="start" x="36" y="-245.5" font-family="Courier New" font-size="10.00"># RaycastingMethod()</text>
<text text-anchor="start" x="36" y="-234.5" font-family="Courier New" font-size="10.00"># BeginRaycastingCondition()</text>
<text text-anchor="start" x="36" y="-223.5" font-family="Courier New" font-size="10.00"># ChildsPressCondition()</text>
<text text-anchor="start" x="36" y="-212.5" font-family="Courier New" font-size="10.00">&#45; Start()</text>
<text text-anchor="start" x="36" y="-201.5" font-family="Courier New" font-size="10.00">&#45; FixedUpdate()</text>
<text text-anchor="start" x="36" y="-190.5" font-family="Courier New" font-size="10.00">&#45; FindRaycastTrigger()</text>
</a>
</g>
</g>
<!-- Node2&#45;&gt;Node1 -->
<g id="edge1" class="edge"><title>Node2&#45;&gt;Node1</title>
<path fill="none" stroke="midnightblue" d="M120.5,-173.01C120.5,-163.683 120.5,-154.501 120.5,-145.715"/>
<polygon fill="none" stroke="midnightblue" points="117,-173.175 120.5,-183.175 124,-173.175 117,-173.175"/>
</g>
<!-- Node3 -->
<g id="node3" class="node"><title>Node3</title>
<g id="a_node3"><a xlink:href="../../d6/d4b/class_c2_m2_1_1_interaction_1_1_signaling_1_1_press_event_signaler.html" target="_top" xlink:title="Send press, holdPress, and endPress events based on set values of Pressed and RaycastTriggerManager">
<polygon fill="white" stroke="black" points="0,-727.5 0,-817.5 125,-817.5 125,-727.5 0,-727.5"/>
<text text-anchor="middle" x="62.5" y="-805.5" font-family="Courier New" font-size="10.00">PressEventSignaler</text>
<polyline fill="none" stroke="black" points="0,-798.5 125,-798.5 "/>
<text text-anchor="start" x="8" y="-786.5" font-family="Courier New" font-size="10.00">+ Pressed</text>
<text text-anchor="start" x="8" y="-775.5" font-family="Courier New" font-size="10.00">&#45; pressedPrevFrame</text>
<polyline fill="none" stroke="black" points="0,-768.5 125,-768.5 "/>
<text text-anchor="start" x="8" y="-756.5" font-family="Courier New" font-size="10.00"># OnPress()</text>
<text text-anchor="start" x="8" y="-745.5" font-family="Courier New" font-size="10.00"># OnHoldPress()</text>
<text text-anchor="start" x="8" y="-734.5" font-family="Courier New" font-size="10.00"># OnEndPress()</text>
</a>
</g>
</g>
<!-- Node3&#45;&gt;Node2 -->
<g id="edge2" class="edge"><title>Node3&#45;&gt;Node2</title>
<path fill="none" stroke="midnightblue" d="M69.2559,-717.337C78.0531,-646.807 93.6856,-521.478 105.379,-427.731"/>
<polygon fill="none" stroke="midnightblue" points="65.7735,-716.978 68.0088,-727.335 72.7197,-717.845 65.7735,-716.978"/>
</g>
<!-- Node4 -->
<g id="node4" class="node"><title>Node4</title>
<g id="a_node4"><a xlink:title=" ">
<polygon fill="white" stroke="#bfbfbf" points="81,-1024 81,-1081 176,-1081 176,-1024 81,-1024"/>
<text text-anchor="middle" x="128.5" y="-1069" font-family="Courier New" font-size="10.00">MonoBehaviour</text>
<polyline fill="none" stroke="#bfbfbf" points="81,-1062 176,-1062 "/>
<text text-anchor="middle" x="128.5" y="-1050" font-family="Courier New" font-size="10.00"> </text>
<polyline fill="none" stroke="#bfbfbf" points="81,-1043 176,-1043 "/>
<text text-anchor="middle" x="128.5" y="-1031" font-family="Courier New" font-size="10.00"> </text>
</a>
</g>
</g>
<!-- Node4&#45;&gt;Node3 -->
<g id="edge3" class="edge"><title>Node4&#45;&gt;Node3</title>
<path fill="none" stroke="midnightblue" d="M119.571,-1013.89C107.474,-962.936 85.915,-872.127 73.0389,-817.891"/>
<polygon fill="none" stroke="midnightblue" points="116.215,-1014.91 121.93,-1023.83 123.026,-1013.29 116.215,-1014.91"/>
</g>
<!-- Node5 -->
<g id="node5" class="node"><title>Node5</title>
<g id="a_node5"><a xlink:href="../../d5/df9/class_c2_m2_1_1_interaction_1_1_raycast_event_manager.html" target="_top" xlink:title="Attach this script to parent gameObject, create one child with one raycast trigger per child....">
<polygon fill="white" stroke="black" points="121,-475.5 121,-708.5 282,-708.5 282,-475.5 121,-475.5"/>
<text text-anchor="start" x="129" y="-696.5" font-family="Courier New" font-size="10.00">C2M2.Interaction.Raycast</text>
<text text-anchor="middle" x="201.5" y="-685.5" font-family="Courier New" font-size="10.00">EventManager</text>
<polyline fill="none" stroke="black" points="121,-678.5 282,-678.5 "/>
<text text-anchor="middle" x="201.5" y="-666.5" font-family="Courier New" font-size="10.00"> </text>
<polyline fill="none" stroke="black" points="121,-659.5 282,-659.5 "/>
<text text-anchor="start" x="129" y="-647.5" font-family="Courier New" font-size="10.00">+ TriggerChangeRight()</text>
<text text-anchor="start" x="129" y="-636.5" font-family="Courier New" font-size="10.00">+ TriggerChangeLeft()</text>
<text text-anchor="start" x="129" y="-625.5" font-family="Courier New" font-size="10.00">+ TriggerChangeBoth()</text>
<text text-anchor="start" x="129" y="-614.5" font-family="Courier New" font-size="10.00">+ TriggerEmptyRight()</text>
<text text-anchor="start" x="129" y="-603.5" font-family="Courier New" font-size="10.00">+ TriggerEmptyLeft()</text>
<text text-anchor="start" x="129" y="-592.5" font-family="Courier New" font-size="10.00">+ TriggerEmptyBoth()</text>
<text text-anchor="start" x="129" y="-581.5" font-family="Courier New" font-size="10.00">+ PressEvent()</text>
<text text-anchor="start" x="129" y="-570.5" font-family="Courier New" font-size="10.00">+ HoldEvent()</text>
<text text-anchor="start" x="129" y="-559.5" font-family="Courier New" font-size="10.00">+ EndEvent()</text>
<text text-anchor="start" x="129" y="-548.5" font-family="Courier New" font-size="10.00">+ AllEvents()</text>
<text text-anchor="start" x="129" y="-537.5" font-family="Courier New" font-size="10.00">+ PressEventNull()</text>
<text text-anchor="start" x="129" y="-526.5" font-family="Courier New" font-size="10.00">+ HoldEventNull()</text>
<text text-anchor="start" x="129" y="-515.5" font-family="Courier New" font-size="10.00">+ EndEventNull()</text>
<text text-anchor="start" x="129" y="-504.5" font-family="Courier New" font-size="10.00">+ AllEventsNull()</text>
<text text-anchor="start" x="129" y="-493.5" font-family="Courier New" font-size="10.00">+ ToString()</text>
<text text-anchor="start" x="129" y="-482.5" font-family="Courier New" font-size="10.00">&#45; Awake()</text>
</a>
</g>
</g>
<!-- Node4&#45;&gt;Node5 -->
<g id="edge5" class="edge"><title>Node4&#45;&gt;Node5</title>
<path fill="none" stroke="midnightblue" d="M133.583,-1013.89C139.475,-970.84 149.644,-898.254 159.5,-836 166.077,-794.454 173.792,-749.005 180.803,-708.769"/>
<polygon fill="none" stroke="midnightblue" points="130.099,-1013.53 132.215,-1023.91 137.035,-1014.47 130.099,-1013.53"/>
</g>
<!-- Node7 -->
<g id="node7" class="node"><title>Node7</title>
<g id="a_node7"><a xlink:href="../../d8/d68/class_c2_m2_1_1_interaction_1_1_raycast_press_events.html" target="_top" xlink:title="Store custom events that the corresponding RaycastTriggerManager will invoke">
<polygon fill="white" stroke="black" points="169,-836.5 169,-948.5 330,-948.5 330,-836.5 169,-836.5"/>
<text text-anchor="start" x="177" y="-936.5" font-family="Courier New" font-size="10.00">C2M2.Interaction.Raycast</text>
<text text-anchor="middle" x="249.5" y="-925.5" font-family="Courier New" font-size="10.00">PressEvents</text>
<polyline fill="none" stroke="black" points="169,-918.5 330,-918.5 "/>
<text text-anchor="start" x="177" y="-906.5" font-family="Courier New" font-size="10.00">+ OnPress</text>
<text text-anchor="start" x="177" y="-895.5" font-family="Courier New" font-size="10.00">+ OnHoldPress</text>
<text text-anchor="start" x="177" y="-884.5" font-family="Courier New" font-size="10.00">+ OnEndPress</text>
<polyline fill="none" stroke="black" points="169,-877.5 330,-877.5 "/>
<text text-anchor="start" x="177" y="-865.5" font-family="Courier New" font-size="10.00">+ Press()</text>
<text text-anchor="start" x="177" y="-854.5" font-family="Courier New" font-size="10.00">+ HoldPress()</text>
<text text-anchor="start" x="177" y="-843.5" font-family="Courier New" font-size="10.00">+ EndPress()</text>
</a>
</g>
</g>
<!-- Node4&#45;&gt;Node7 -->
<g id="edge8" class="edge"><title>Node4&#45;&gt;Node7</title>
<path fill="none" stroke="midnightblue" d="M155.827,-1015.82C171.033,-995.961 190.286,-970.821 207.376,-948.504"/>
<polygon fill="none" stroke="midnightblue" points="152.878,-1013.91 149.577,-1023.98 158.435,-1018.17 152.878,-1013.91"/>
</g>
<!-- Node5&#45;&gt;Node2 -->
<g id="edge4" class="edge"><title>Node5&#45;&gt;Node2</title>
<path fill="none" stroke="#404040" d="M168.554,-475.283C165.204,-463.514 161.781,-451.494 158.384,-439.561"/>
<polygon fill="none" stroke="#404040" points="158.284,-439.211 152.794,-434.535 154.998,-427.669 160.488,-432.345 158.284,-439.211"/>
<text text-anchor="middle" x="201" y="-449" font-family="Courier New" font-size="10.00"> &#45;activeEvent</text>
</g>
<!-- Node6 -->
<g id="node6" class="node"><title>Node6</title>
<g id="a_node6"><a xlink:title=" ">
<polygon fill="white" stroke="#bfbfbf" points="348,-864 348,-921 401,-921 401,-864 348,-864"/>
<text text-anchor="middle" x="374.5" y="-909" font-family="Courier New" font-size="10.00">static</text>
<polyline fill="none" stroke="#bfbfbf" points="348,-902 401,-902 "/>
<text text-anchor="middle" x="374.5" y="-890" font-family="Courier New" font-size="10.00"> </text>
<polyline fill="none" stroke="#bfbfbf" points="348,-883 401,-883 "/>
<text text-anchor="middle" x="374.5" y="-871" font-family="Courier New" font-size="10.00"> </text>
</a>
</g>
</g>
<!-- Node6&#45;&gt;Node5 -->
<g id="edge6" class="edge"><title>Node6&#45;&gt;Node5</title>
<path fill="none" stroke="#404040" d="M369.065,-863.876C361.604,-829.989 346.115,-771.563 320.5,-727 311.808,-711.877 301.215,-696.952 289.972,-682.862"/>
<polygon fill="none" stroke="#404040" points="289.703,-682.534 282.807,-680.426 282.1,-673.249 288.996,-675.357 289.703,-682.534"/>
<text text-anchor="middle" x="384" y="-770" font-family="Courier New" font-size="10.00"> &#45;nullHit</text>
</g>
<!-- Node7&#45;&gt;Node5 -->
<g id="edge7" class="edge"><title>Node7&#45;&gt;Node5</title>
<path fill="none" stroke="#404040" d="M240.64,-836.403C235.401,-803.822 228.535,-761.123 222.019,-720.6"/>
<polygon fill="none" stroke="#404040" points="222.006,-720.523 217.104,-715.234 220.101,-708.675 225.003,-713.964 222.006,-720.523"/>
<text text-anchor="middle" x="277" y="-781" font-family="Courier New" font-size="10.00"> +leftTrigger</text>
<text text-anchor="middle" x="277" y="-770" font-family="Courier New" font-size="10.00">+rightTrigger</text>
<text text-anchor="middle" x="277" y="-759" font-family="Courier New" font-size="10.00">&#45;emptyTrigger</text>
</g>
<!-- Node8 -->
<g id="node8" class="node"><title>Node8</title>
<g id="a_node8"><a xlink:href="../../d2/d43/class_c2_m2_1_1_interaction_1_1_raycast_press_events_1_1_raycast_hit_event.html" target="_top" xlink:title=" ">
<polygon fill="white" stroke="black" points="194,-1018.5 194,-1086.5 373,-1086.5 373,-1018.5 194,-1018.5"/>
<text text-anchor="start" x="202" y="-1074.5" font-family="Courier New" font-size="10.00">C2M2.Interaction.Raycast</text>
<text text-anchor="middle" x="283.5" y="-1063.5" font-family="Courier New" font-size="10.00">PressEvents.RaycastHitEvent</text>
<polyline fill="none" stroke="black" points="194,-1056.5 373,-1056.5 "/>
<text text-anchor="middle" x="283.5" y="-1044.5" font-family="Courier New" font-size="10.00"> </text>
<polyline fill="none" stroke="black" points="194,-1037.5 373,-1037.5 "/>
<text text-anchor="middle" x="283.5" y="-1025.5" font-family="Courier New" font-size="10.00"> </text>
</a>
</g>
</g>
<!-- Node8&#45;&gt;Node7 -->
<g id="edge9" class="edge"><title>Node8&#45;&gt;Node7</title>
<path fill="none" stroke="#404040" d="M276.372,-1018.38C272.76,-1001.59 268.236,-980.568 263.937,-960.588"/>
<polygon fill="none" stroke="#404040" points="263.894,-960.389 258.721,-955.365 261.369,-948.658 266.542,-953.682 263.894,-960.389"/>
<text text-anchor="middle" x="309" y="-992" font-family="Courier New" font-size="10.00"> &#45;onPress</text>
<text text-anchor="middle" x="309" y="-981" font-family="Courier New" font-size="10.00">&#45;onHoldPress</text>
<text text-anchor="middle" x="309" y="-970" font-family="Courier New" font-size="10.00">&#45;onEndPress</text>
</g>
<!-- Node9 -->
<g id="node9" class="node"><title>Node9</title>
<g id="a_node9"><a xlink:title=" ">
<polygon fill="white" stroke="#bfbfbf" points="203,-1124.5 203,-1181.5 364,-1181.5 364,-1124.5 203,-1124.5"/>
<text text-anchor="middle" x="283.5" y="-1169.5" font-family="Courier New" font-size="10.00">UnityEvent&lt; RaycastHit &gt;</text>
<polyline fill="none" stroke="#bfbfbf" points="203,-1162.5 364,-1162.5 "/>
<text text-anchor="middle" x="283.5" y="-1150.5" font-family="Courier New" font-size="10.00"> </text>
<polyline fill="none" stroke="#bfbfbf" points="203,-1143.5 364,-1143.5 "/>
<text text-anchor="middle" x="283.5" y="-1131.5" font-family="Courier New" font-size="10.00"> </text>
</a>
</g>
</g>
<!-- Node9&#45;&gt;Node8 -->
<g id="edge10" class="edge"><title>Node9&#45;&gt;Node8</title>
<path fill="none" stroke="midnightblue" d="M283.5,-1114.01C283.5,-1104.96 283.5,-1095.38 283.5,-1086.58"/>
<polygon fill="none" stroke="midnightblue" points="280,-1114.3 283.5,-1124.3 287,-1114.3 280,-1114.3"/>
</g>
</g>
</svg>
