<?xml version="1.0" encoding="UTF-8" standalone="no"?>
<!DOCTYPE svg PUBLIC "-//W3C//DTD SVG 1.1//EN"
 "http://www.w3.org/Graphics/SVG/1.1/DTD/svg11.dtd">
<!-- Generated by graphviz version 2.38.0 (20140413.2041)
 -->
<!-- Title: C2M2.Interaction.Signaling.MouseEventSignaler Pages: 1 -->
<!--zoomable 1222 -->
<svg id="main" version="1.1" xmlns="http://www.w3.org/2000/svg" xmlns:xlink="http://www.w3.org/1999/xlink" xml:space="preserve" onload="init(evt)">
<style type="text/css"><![CDATA[
.edge:hover path { stroke: red; }
.edge:hover polygon { stroke: red; fill: red; }
]]></style>
<script type="text/javascript"><![CDATA[
var edges = document.getElementsByTagName('g');
if (edges && edges.length) {
  for (var i=0;i<edges.length;i++) {
    if (edges[i].id.substr(0,4)=='edge') {
      edges[i].setAttribute('class','edge');
    }
  }
}
]]></script>
        <defs>
                <circle id="rim" cx="0" cy="0" r="7"/>
                <circle id="rim2" cx="0" cy="0" r="3.5"/>
                <g id="zoomPlus">
                        <use xlink:href="#rim" fill="#404040">
                                <set attributeName="fill" to="#808080" begin="zoomplus.mouseover" end="zoomplus.mouseout"/>
                        </use>
                        <path d="M-4,0h8M0,-4v8" fill="none" stroke="white" stroke-width="1.5" pointer-events="none"/>
                </g>
                <g id="zoomMin">
                        <use xlink:href="#rim" fill="#404040">
                                <set attributeName="fill" to="#808080" begin="zoomminus.mouseover" end="zoomminus.mouseout"/>
                        </use>
                        <path d="M-4,0h8" fill="none" stroke="white" stroke-width="1.5" pointer-events="none"/>
                </g>
                <g id="dirArrow">
                        <path fill="none" stroke="white" stroke-width="1.5" d="M0,-3.0v7 M-2.5,-0.5L0,-3.0L2.5,-0.5"/>
                </g>
               <g id="resetDef">
                       <use xlink:href="#rim2" fill="#404040">
                               <set attributeName="fill" to="#808080" begin="reset.mouseover" end="reset.mouseout"/>
                       </use>
               </g>
        </defs>

<script type="text/javascript">
var viewWidth = 476;
var viewHeight = 1222;
var sectionId = 'dynsection-1';
</script>
<script xlink:href="../../svgpan.js"/>
<svg id="graph" class="graph">
<g id="viewport">
<title>C2M2.Interaction.Signaling.MouseEventSignaler</title>
<polygon fill="white" stroke="none" points="-4,4 -4,-1218 472,-1218 472,4 -4,4"/>
<!-- Node1 -->
<g id="node1" class="node"><title>Node1</title>
<g id="a_node1"><a xlink:title=" ">
<polygon fill="#bfbfbf" stroke="black" points="211,-0.5 211,-167.5 396,-167.5 396,-0.5 211,-0.5"/>
<text text-anchor="start" x="219" y="-155.5" font-family="Courier New" font-size="10.00">C2M2.Interaction.Signaling.</text>
<text text-anchor="middle" x="303.5" y="-144.5" font-family="Courier New" font-size="10.00">MouseEventSignaler</text>
<polyline fill="none" stroke="black" points="211,-137.5 396,-137.5 "/>
<text text-anchor="start" x="219" y="-125.5" font-family="Courier New" font-size="10.00">+ grabKeys</text>
<text text-anchor="start" x="219" y="-114.5" font-family="Courier New" font-size="10.00">&#45; grabTransform</text>
<text text-anchor="start" x="219" y="-103.5" font-family="Courier New" font-size="10.00">&#45; grabVolume</text>
<polyline fill="none" stroke="black" points="211,-96.5 396,-96.5 "/>
<text text-anchor="start" x="219" y="-84.5" font-family="Courier New" font-size="10.00"># OnAwake()</text>
<text text-anchor="start" x="219" y="-73.5" font-family="Courier New" font-size="10.00"># OnStart()</text>
<text text-anchor="start" x="219" y="-62.5" font-family="Courier New" font-size="10.00"># BeginRaycastingCondition()</text>
<text text-anchor="start" x="219" y="-51.5" font-family="Courier New" font-size="10.00"># RaycastingMethod()</text>
<text text-anchor="start" x="219" y="-40.5" font-family="Courier New" font-size="10.00"># ChildsPressCondition()</text>
<text text-anchor="start" x="219" y="-29.5" font-family="Courier New" font-size="10.00"># OnPressSub()</text>
<text text-anchor="start" x="219" y="-18.5" font-family="Courier New" font-size="10.00"># OnHoldPressSub()</text>
<text text-anchor="start" x="219" y="-7.5" font-family="Courier New" font-size="10.00"># OnEndPressSub()</text>
</a>
</g>
</g>
<!-- Node2 -->
<g id="node2" class="node"><title>Node2</title>
<g id="a_node2"><a xlink:href="../../d6/d2d/class_c2_m2_1_1_interaction_1_1_signaling_1_1_raycast_event_signaler.html" target="_top" xlink:title=" ">
<polygon fill="white" stroke="black" points="92,-215.5 92,-459.5 277,-459.5 277,-215.5 92,-215.5"/>
<text text-anchor="middle" x="184.5" y="-447.5" font-family="Courier New" font-size="10.00">RaycastEventSignaler</text>
<polyline fill="none" stroke="black" points="92,-440.5 277,-440.5 "/>
<text text-anchor="start" x="100" y="-428.5" font-family="Courier New" font-size="10.00">+ rightHand</text>
<text text-anchor="start" x="100" y="-417.5" font-family="Courier New" font-size="10.00">+ layerMask</text>
<text text-anchor="start" x="100" y="-406.5" font-family="Courier New" font-size="10.00">+ maxRaycastDistance</text>
<text text-anchor="start" x="100" y="-395.5" font-family="Courier New" font-size="10.00">&#45; lastHit</text>
<polyline fill="none" stroke="black" points="92,-388.5 277,-388.5 "/>
<text text-anchor="start" x="100" y="-376.5" font-family="Courier New" font-size="10.00"># OnAwake()</text>
<text text-anchor="start" x="100" y="-365.5" font-family="Courier New" font-size="10.00"># Awake()</text>
<text text-anchor="start" x="100" y="-354.5" font-family="Courier New" font-size="10.00"># OnStart()</text>
<text text-anchor="start" x="100" y="-343.5" font-family="Courier New" font-size="10.00"># OnPress()</text>
<text text-anchor="start" x="100" y="-332.5" font-family="Courier New" font-size="10.00"># OnHoldPress()</text>
<text text-anchor="start" x="100" y="-321.5" font-family="Courier New" font-size="10.00"># OnEndPress()</text>
<text text-anchor="start" x="100" y="-310.5" font-family="Courier New" font-size="10.00"># OnPressSub()</text>
<text text-anchor="start" x="100" y="-299.5" font-family="Courier New" font-size="10.00"># OnHoldPressSub()</text>
<text text-anchor="start" x="100" y="-288.5" font-family="Courier New" font-size="10.00"># OnEndPressSub()</text>
<text text-anchor="start" x="100" y="-277.5" font-family="Courier New" font-size="10.00"># RaycastingMethod()</text>
<text text-anchor="start" x="100" y="-266.5" font-family="Courier New" font-size="10.00"># BeginRaycastingCondition()</text>
<text text-anchor="start" x="100" y="-255.5" font-family="Courier New" font-size="10.00"># ChildsPressCondition()</text>
<text text-anchor="start" x="100" y="-244.5" font-family="Courier New" font-size="10.00">&#45; Start()</text>
<text text-anchor="start" x="100" y="-233.5" font-family="Courier New" font-size="10.00">&#45; FixedUpdate()</text>
<text text-anchor="start" x="100" y="-222.5" font-family="Courier New" font-size="10.00">&#45; FindRaycastTrigger()</text>
</a>
</g>
</g>
<!-- Node2&#45;&gt;Node1 -->
<g id="edge1" class="edge"><title>Node2&#45;&gt;Node1</title>
<path fill="none" stroke="midnightblue" d="M246.189,-206.123C252.37,-193.06 258.52,-180.064 264.37,-167.699"/>
<polygon fill="none" stroke="midnightblue" points="243.022,-204.634 241.909,-215.17 249.349,-207.628 243.022,-204.634"/>
</g>
<!-- Node3 -->
<g id="node3" class="node"><title>Node3</title>
<g id="a_node3"><a xlink:href="../../d6/d4b/class_c2_m2_1_1_interaction_1_1_signaling_1_1_press_event_signaler.html" target="_top" xlink:title="Send press, holdPress, and endPress events based on set values of Pressed and RaycastTriggerManager">
<polygon fill="white" stroke="black" points="0,-759.5 0,-849.5 125,-849.5 125,-759.5 0,-759.5"/>
<text text-anchor="middle" x="62.5" y="-837.5" font-family="Courier New" font-size="10.00">PressEventSignaler</text>
<polyline fill="none" stroke="black" points="0,-830.5 125,-830.5 "/>
<text text-anchor="start" x="8" y="-818.5" font-family="Courier New" font-size="10.00">+ Pressed</text>
<text text-anchor="start" x="8" y="-807.5" font-family="Courier New" font-size="10.00">&#45; pressedPrevFrame</text>
<polyline fill="none" stroke="black" points="0,-800.5 125,-800.5 "/>
<text text-anchor="start" x="8" y="-788.5" font-family="Courier New" font-size="10.00"># OnPress()</text>
<text text-anchor="start" x="8" y="-777.5" font-family="Courier New" font-size="10.00"># OnHoldPress()</text>
<text text-anchor="start" x="8" y="-766.5" font-family="Courier New" font-size="10.00"># OnEndPress()</text>
</a>
</g>
</g>
<!-- Node3&#45;&gt;Node2 -->
<g id="edge2" class="edge"><title>Node3&#45;&gt;Node2</title>
<path fill="none" stroke="midnightblue" d="M76.4434,-749.349C91.7829,-689.885 117.22,-591.593 139.5,-507 143.549,-491.628 147.829,-475.474 152.076,-459.506"/>
<polygon fill="none" stroke="midnightblue" points="72.9932,-748.713 73.8851,-759.27 79.7714,-750.461 72.9932,-748.713"/>
</g>
<!-- Node4 -->
<g id="node4" class="node"><title>Node4</title>
<g id="a_node4"><a xlink:title=" ">
<polygon fill="white" stroke="#bfbfbf" points="72,-1056 72,-1113 167,-1113 167,-1056 72,-1056"/>
<text text-anchor="middle" x="119.5" y="-1101" font-family="Courier New" font-size="10.00">MonoBehaviour</text>
<polyline fill="none" stroke="#bfbfbf" points="72,-1094 167,-1094 "/>
<text text-anchor="middle" x="119.5" y="-1082" font-family="Courier New" font-size="10.00"> </text>
<polyline fill="none" stroke="#bfbfbf" points="72,-1075 167,-1075 "/>
<text text-anchor="middle" x="119.5" y="-1063" font-family="Courier New" font-size="10.00"> </text>
</a>
</g>
</g>
<!-- Node4&#45;&gt;Node3 -->
<g id="edge3" class="edge"><title>Node4&#45;&gt;Node3</title>
<path fill="none" stroke="midnightblue" d="M111.788,-1045.89C101.341,-994.936 82.7221,-904.127 71.6018,-849.891"/>
<polygon fill="none" stroke="midnightblue" points="108.389,-1046.73 113.826,-1055.83 115.246,-1045.33 108.389,-1046.73"/>
</g>
<!-- Node5 -->
<g id="node5" class="node"><title>Node5</title>
<g id="a_node5"><a xlink:href="../../d5/df9/class_c2_m2_1_1_interaction_1_1_raycast_event_manager.html" target="_top" xlink:title="Attach this script to parent gameObject, create one child with one raycast trigger per child....">
<polygon fill="white" stroke="black" points="149,-507.5 149,-740.5 310,-740.5 310,-507.5 149,-507.5"/>
<text text-anchor="start" x="157" y="-728.5" font-family="Courier New" font-size="10.00">C2M2.Interaction.Raycast</text>
<text text-anchor="middle" x="229.5" y="-717.5" font-family="Courier New" font-size="10.00">EventManager</text>
<polyline fill="none" stroke="black" points="149,-710.5 310,-710.5 "/>
<text text-anchor="middle" x="229.5" y="-698.5" font-family="Courier New" font-size="10.00"> </text>
<polyline fill="none" stroke="black" points="149,-691.5 310,-691.5 "/>
<text text-anchor="start" x="157" y="-679.5" font-family="Courier New" font-size="10.00">+ TriggerChangeRight()</text>
<text text-anchor="start" x="157" y="-668.5" font-family="Courier New" font-size="10.00">+ TriggerChangeLeft()</text>
<text text-anchor="start" x="157" y="-657.5" font-family="Courier New" font-size="10.00">+ TriggerChangeBoth()</text>
<text text-anchor="start" x="157" y="-646.5" font-family="Courier New" font-size="10.00">+ TriggerEmptyRight()</text>
<text text-anchor="start" x="157" y="-635.5" font-family="Courier New" font-size="10.00">+ TriggerEmptyLeft()</text>
<text text-anchor="start" x="157" y="-624.5" font-family="Courier New" font-size="10.00">+ TriggerEmptyBoth()</text>
<text text-anchor="start" x="157" y="-613.5" font-family="Courier New" font-size="10.00">+ PressEvent()</text>
<text text-anchor="start" x="157" y="-602.5" font-family="Courier New" font-size="10.00">+ HoldEvent()</text>
<text text-anchor="start" x="157" y="-591.5" font-family="Courier New" font-size="10.00">+ EndEvent()</text>
<text text-anchor="start" x="157" y="-580.5" font-family="Courier New" font-size="10.00">+ AllEvents()</text>
<text text-anchor="start" x="157" y="-569.5" font-family="Courier New" font-size="10.00">+ PressEventNull()</text>
<text text-anchor="start" x="157" y="-558.5" font-family="Courier New" font-size="10.00">+ HoldEventNull()</text>
<text text-anchor="start" x="157" y="-547.5" font-family="Courier New" font-size="10.00">+ EndEventNull()</text>
<text text-anchor="start" x="157" y="-536.5" font-family="Courier New" font-size="10.00">+ AllEventsNull()</text>
<text text-anchor="start" x="157" y="-525.5" font-family="Courier New" font-size="10.00">+ ToString()</text>
<text text-anchor="start" x="157" y="-514.5" font-family="Courier New" font-size="10.00">&#45; Awake()</text>
</a>
</g>
</g>
<!-- Node4&#45;&gt;Node5 -->
<g id="edge5" class="edge"><title>Node4&#45;&gt;Node5</title>
<path fill="none" stroke="midnightblue" d="M125.376,-1045.7C132.356,-1002.49 144.911,-929.752 159.5,-868 169.392,-826.128 181.969,-780.703 193.725,-740.583"/>
<polygon fill="none" stroke="midnightblue" points="121.889,-1045.34 123.765,-1055.77 128.801,-1046.45 121.889,-1045.34"/>
</g>
<!-- Node7 -->
<g id="node7" class="node"><title>Node7</title>
<g id="a_node7"><a xlink:href="../../d8/d68/class_c2_m2_1_1_interaction_1_1_raycast_press_events.html" target="_top" xlink:title="Store custom events that the corresponding RaycastTriggerManager will invoke">
<polygon fill="white" stroke="black" points="169,-868.5 169,-980.5 330,-980.5 330,-868.5 169,-868.5"/>
<text text-anchor="start" x="177" y="-968.5" font-family="Courier New" font-size="10.00">C2M2.Interaction.Raycast</text>
<text text-anchor="middle" x="249.5" y="-957.5" font-family="Courier New" font-size="10.00">PressEvents</text>
<polyline fill="none" stroke="black" points="169,-950.5 330,-950.5 "/>
<text text-anchor="start" x="177" y="-938.5" font-family="Courier New" font-size="10.00">+ OnPress</text>
<text text-anchor="start" x="177" y="-927.5" font-family="Courier New" font-size="10.00">+ OnHoldPress</text>
<text text-anchor="start" x="177" y="-916.5" font-family="Courier New" font-size="10.00">+ OnEndPress</text>
<polyline fill="none" stroke="black" points="169,-909.5 330,-909.5 "/>
<text text-anchor="start" x="177" y="-897.5" font-family="Courier New" font-size="10.00">+ Press()</text>
<text text-anchor="start" x="177" y="-886.5" font-family="Courier New" font-size="10.00">+ HoldPress()</text>
<text text-anchor="start" x="177" y="-875.5" font-family="Courier New" font-size="10.00">+ EndPress()</text>
</a>
</g>
</g>
<!-- Node4&#45;&gt;Node7 -->
<g id="edge8" class="edge"><title>Node4&#45;&gt;Node7</title>
<path fill="none" stroke="midnightblue" d="M148.642,-1048.08C165.012,-1028.19 185.799,-1002.92 204.243,-980.504"/>
<polygon fill="none" stroke="midnightblue" points="145.795,-1046.03 142.144,-1055.98 151.201,-1050.48 145.795,-1046.03"/>
</g>
<!-- Node5&#45;&gt;Node2 -->
<g id="edge4" class="edge"><title>Node5&#45;&gt;Node2</title>
<path fill="none" stroke="#404040" d="M211.197,-507.283C209.335,-495.514 207.434,-483.494 205.547,-471.561"/>
<polygon fill="none" stroke="#404040" points="205.54,-471.522 200.652,-466.221 203.666,-459.669 208.554,-464.971 205.54,-471.522"/>
<text text-anchor="middle" x="247" y="-481" font-family="Courier New" font-size="10.00"> &#45;activeEvent</text>
</g>
<!-- Node6 -->
<g id="node6" class="node"><title>Node6</title>
<g id="a_node6"><a xlink:title=" ">
<polygon fill="white" stroke="#bfbfbf" points="348,-896 348,-953 401,-953 401,-896 348,-896"/>
<text text-anchor="middle" x="374.5" y="-941" font-family="Courier New" font-size="10.00">static</text>
<polyline fill="none" stroke="#bfbfbf" points="348,-934 401,-934 "/>
<text text-anchor="middle" x="374.5" y="-922" font-family="Courier New" font-size="10.00"> </text>
<polyline fill="none" stroke="#bfbfbf" points="348,-915 401,-915 "/>
<text text-anchor="middle" x="374.5" y="-903" font-family="Courier New" font-size="10.00"> </text>
</a>
</g>
</g>
<!-- Node6&#45;&gt;Node5 -->
<g id="edge6" class="edge"><title>Node6&#45;&gt;Node5</title>
<path fill="none" stroke="#404040" d="M369.719,-895.932C363.21,-862.356 349.749,-804.492 327.5,-759 324.134,-752.119 320.411,-745.222 316.441,-738.387"/>
<polygon fill="none" stroke="#404040" points="316.203,-737.99 309.682,-734.912 310.015,-727.708 316.536,-730.787 316.203,-737.99"/>
<text text-anchor="middle" x="386" y="-802" font-family="Courier New" font-size="10.00"> &#45;nullHit</text>
</g>
<!-- Node7&#45;&gt;Node5 -->
<g id="edge7" class="edge"><title>Node7&#45;&gt;Node5</title>
<path fill="none" stroke="#404040" d="M245.808,-868.403C243.63,-835.892 240.777,-793.306 238.067,-752.861"/>
<polygon fill="none" stroke="#404040" points="238.053,-752.648 233.661,-746.929 237.25,-740.675 241.643,-746.394 238.053,-752.648"/>
<text text-anchor="middle" x="284" y="-813" font-family="Courier New" font-size="10.00"> +leftTrigger</text>
<text text-anchor="middle" x="284" y="-802" font-family="Courier New" font-size="10.00">+rightTrigger</text>
<text text-anchor="middle" x="284" y="-791" font-family="Courier New" font-size="10.00">&#45;emptyTrigger</text>
</g>
<!-- Node8 -->
<g id="node8" class="node"><title>Node8</title>
<g id="a_node8"><a xlink:href="../../d2/d43/class_c2_m2_1_1_interaction_1_1_raycast_press_events_1_1_raycast_hit_event.html" target="_top" xlink:title=" ">
<polygon fill="white" stroke="black" points="185,-1050.5 185,-1118.5 364,-1118.5 364,-1050.5 185,-1050.5"/>
<text text-anchor="start" x="193" y="-1106.5" font-family="Courier New" font-size="10.00">C2M2.Interaction.Raycast</text>
<text text-anchor="middle" x="274.5" y="-1095.5" font-family="Courier New" font-size="10.00">PressEvents.RaycastHitEvent</text>
<polyline fill="none" stroke="black" points="185,-1088.5 364,-1088.5 "/>
<text text-anchor="middle" x="274.5" y="-1076.5" font-family="Courier New" font-size="10.00"> </text>
<polyline fill="none" stroke="black" points="185,-1069.5 364,-1069.5 "/>
<text text-anchor="middle" x="274.5" y="-1057.5" font-family="Courier New" font-size="10.00"> </text>
</a>
</g>
</g>
<!-- Node8&#45;&gt;Node7 -->
<g id="edge9" class="edge"><title>Node8&#45;&gt;Node7</title>
<path fill="none" stroke="#404040" d="M269.259,-1050.38C266.603,-1033.59 263.277,-1012.57 260.115,-992.588"/>
<polygon fill="none" stroke="#404040" points="260.103,-992.51 255.214,-987.209 258.227,-980.658 263.116,-985.959 260.103,-992.51"/>
<text text-anchor="middle" x="303" y="-1024" font-family="Courier New" font-size="10.00"> &#45;onPress</text>
<text text-anchor="middle" x="303" y="-1013" font-family="Courier New" font-size="10.00">&#45;onHoldPress</text>
<text text-anchor="middle" x="303" y="-1002" font-family="Courier New" font-size="10.00">&#45;onEndPress</text>
</g>
<!-- Node9 -->
<g id="node9" class="node"><title>Node9</title>
<g id="a_node9"><a xlink:title=" ">
<polygon fill="white" stroke="#bfbfbf" points="194,-1156.5 194,-1213.5 355,-1213.5 355,-1156.5 194,-1156.5"/>
<text text-anchor="middle" x="274.5" y="-1201.5" font-family="Courier New" font-size="10.00">UnityEvent&lt; RaycastHit &gt;</text>
<polyline fill="none" stroke="#bfbfbf" points="194,-1194.5 355,-1194.5 "/>
<text text-anchor="middle" x="274.5" y="-1182.5" font-family="Courier New" font-size="10.00"> </text>
<polyline fill="none" stroke="#bfbfbf" points="194,-1175.5 355,-1175.5 "/>
<text text-anchor="middle" x="274.5" y="-1163.5" font-family="Courier New" font-size="10.00"> </text>
</a>
</g>
</g>
<!-- Node9&#45;&gt;Node8 -->
<g id="edge10" class="edge"><title>Node9&#45;&gt;Node8</title>
<path fill="none" stroke="midnightblue" d="M274.5,-1146.01C274.5,-1136.96 274.5,-1127.38 274.5,-1118.58"/>
<polygon fill="none" stroke="midnightblue" points="271,-1146.3 274.5,-1156.3 278,-1146.3 271,-1146.3"/>
</g>
<!-- Node10 -->
<g id="node10" class="node"><title>Node10</title>
<g id="a_node10"><a xlink:href="../../dd/d45/class_c2_m2_1_1_interaction_1_1_v_r_1_1_public_o_v_r_grabber.html" target="_top" xlink:title="Offers a public interface for other scripts to change OVRGrabber&#39;s grab volume.">
<polygon fill="white" stroke="black" points="295,-303.5 295,-371.5 468,-371.5 468,-303.5 295,-303.5"/>
<text text-anchor="start" x="303" y="-359.5" font-family="Courier New" font-size="10.00">C2M2.Interaction.VR.Public</text>
<text text-anchor="middle" x="381.5" y="-348.5" font-family="Courier New" font-size="10.00">OVRGrabber</text>
<polyline fill="none" stroke="black" points="295,-341.5 468,-341.5 "/>
<text text-anchor="start" x="303" y="-329.5" font-family="Courier New" font-size="10.00">+ M_GrabVolumes</text>
<polyline fill="none" stroke="black" points="295,-322.5 468,-322.5 "/>
<text text-anchor="middle" x="381.5" y="-310.5" font-family="Courier New" font-size="10.00"> </text>
</a>
</g>
</g>
<!-- Node10&#45;&gt;Node1 -->
<g id="edge11" class="edge"><title>Node10&#45;&gt;Node1</title>
<path fill="none" stroke="#404040" d="M371.223,-303.362C361.444,-271.833 346.26,-222.874 332.746,-179.299"/>
<polygon fill="none" stroke="#404040" points="332.723,-179.224 327.125,-174.678 329.168,-167.762 334.766,-172.308 332.723,-179.224"/>
<text text-anchor="middle" x="366" y="-189" font-family="Courier New" font-size="10.00"> &#45;grabber</text>
</g>
<!-- Node11 -->
<g id="node11" class="node"><title>Node11</title>
<g id="a_node11"><a xlink:title=" ">
<polygon fill="white" stroke="#bfbfbf" points="343,-595.5 343,-652.5 420,-652.5 420,-595.5 343,-595.5"/>
<text text-anchor="middle" x="381.5" y="-640.5" font-family="Courier New" font-size="10.00">OVRGrabber</text>
<polyline fill="none" stroke="#bfbfbf" points="343,-633.5 420,-633.5 "/>
<text text-anchor="middle" x="381.5" y="-621.5" font-family="Courier New" font-size="10.00"> </text>
<polyline fill="none" stroke="#bfbfbf" points="343,-614.5 420,-614.5 "/>
<text text-anchor="middle" x="381.5" y="-602.5" font-family="Courier New" font-size="10.00"> </text>
</a>
</g>
</g>
<!-- Node11&#45;&gt;Node10 -->
<g id="edge12" class="edge"><title>Node11&#45;&gt;Node10</title>
<path fill="none" stroke="midnightblue" d="M381.5,-585.259C381.5,-529.24 381.5,-424.985 381.5,-371.708"/>
<polygon fill="none" stroke="midnightblue" points="378,-585.462 381.5,-595.462 385,-585.462 378,-585.462"/>
</g>
</g>
</svg>
        <g id="navigator" transform="translate(0 0)" fill="#404254">
                <rect fill="#f2f5e9" fill-opacity="0.5" stroke="#606060" stroke-width=".5" x="0" y="0" width="60" height="60"/>
                <use id="zoomplus" xlink:href="#zoomPlus" x="17" y="9" onmousedown="handleZoom(evt,'in')"/>
                <use id="zoomminus" xlink:href="#zoomMin" x="42" y="9" onmousedown="handleZoom(evt,'out')"/>
                <use id="reset" xlink:href="#resetDef" x="30" y="36" onmousedown="handleReset()"/>
                <g id="arrowUp" xlink:href="#dirArrow" transform="translate(30 24)" onmousedown="handlePan(0,-1)">
                  <use xlink:href="#rim" fill="#404040">
                        <set attributeName="fill" to="#808080" begin="arrowUp.mouseover" end="arrowUp.mouseout"/>
                  </use>
                  <path fill="none" stroke="white" stroke-width="1.5" d="M0,-3.0v7 M-2.5,-0.5L0,-3.0L2.5,-0.5"/>
                </g>
                <g id="arrowRight" xlink:href="#dirArrow" transform="rotate(90) translate(36 -43)" onmousedown="handlePan(1,0)">
                  <use xlink:href="#rim" fill="#404040">
                        <set attributeName="fill" to="#808080" begin="arrowRight.mouseover" end="arrowRight.mouseout"/>
                  </use>
                  <path fill="none" stroke="white" stroke-width="1.5" d="M0,-3.0v7 M-2.5,-0.5L0,-3.0L2.5,-0.5"/>
                </g>
                <g id="arrowDown" xlink:href="#dirArrow" transform="rotate(180) translate(-30 -48)" onmousedown="handlePan(0,1)">
                  <use xlink:href="#rim" fill="#404040">
                        <set attributeName="fill" to="#808080" begin="arrowDown.mouseover" end="arrowDown.mouseout"/>
                  </use>
                  <path fill="none" stroke="white" stroke-width="1.5" d="M0,-3.0v7 M-2.5,-0.5L0,-3.0L2.5,-0.5"/>
                </g>
                <g id="arrowLeft" xlink:href="#dirArrow" transform="rotate(270) translate(-36 17)" onmousedown="handlePan(-1,0)">
                  <use xlink:href="#rim" fill="#404040">
                        <set attributeName="fill" to="#808080" begin="arrowLeft.mouseover" end="arrowLeft.mouseout"/>
                  </use>
                  <path fill="none" stroke="white" stroke-width="1.5" d="M0,-3.0v7 M-2.5,-0.5L0,-3.0L2.5,-0.5"/>
                </g>
        </g>
        <svg viewBox="0 0 15 15" width="100%" height="30px" preserveAspectRatio="xMaxYMin meet">
         <g id="arrow_out" transform="scale(0.3 0.3)">
          <a xlink:href="class_c2_m2_1_1_interaction_1_1_signaling_1_1_mouse_event_signaler__coll__graph_org.svg" target="_base">
           <rect id="button" ry="5" rx="5" y="6" x="6" height="38" width="38"
                fill="#f2f5e9" fill-opacity="0.5" stroke="#606060" stroke-width="1.0"/>
           <path id="arrow"
             d="M 11.500037,31.436501 C 11.940474,20.09759 22.043105,11.32322 32.158766,21.979434 L 37.068811,17.246167 C 37.068811,17.246167 37.088388,32 37.088388,32 L 22.160133,31.978069 C 22.160133,31.978069 26.997745,27.140456 26.997745,27.140456 C 18.528582,18.264221 13.291696,25.230495 11.500037,31.436501 z"
             style="fill:#404040;"/>
          </a>
         </g>
        </svg>
</svg>
