<?xml version="1.0" encoding="UTF-8" standalone="no"?>
<!DOCTYPE svg PUBLIC "-//W3C//DTD SVG 1.1//EN"
 "http://www.w3.org/Graphics/SVG/1.1/DTD/svg11.dtd">
<!-- Generated by graphviz version 2.46.0 (20210118.1747)
 -->
<!-- Title: C2M2.Interaction.Signaling.MouseEventSignaler Pages: 1 -->
<svg width="462pt" height="1244pt"
 viewBox="0.00 0.00 462.00 1244.00" xmlns="http://www.w3.org/2000/svg" xmlns:xlink="http://www.w3.org/1999/xlink">
<g id="graph0" class="graph" transform="scale(1 1) rotate(0) translate(4 1240)">
<title>C2M2.Interaction.Signaling.MouseEventSignaler</title>
<polygon fill="white" stroke="transparent" points="-4,4 -4,-1240 458,-1240 458,4 -4,4"/>
<!-- Node1 -->
<g id="node1" class="node">
<title>Node1</title>
<g id="a_node1"><a xlink:title=" ">
<polygon fill="#bfbfbf" stroke="black" points="185,-0.5 185,-134.5 370,-134.5 370,-0.5 185,-0.5"/>
<text text-anchor="start" x="193" y="-122.5" font-family="Courier New" font-size="10.00">C2M2.Interaction.Signaling.</text>
<text text-anchor="middle" x="277.5" y="-111.5" font-family="Courier New" font-size="10.00">MouseEventSignaler</text>
<polyline fill="none" stroke="black" points="185,-104.5 370,-104.5 "/>
<text text-anchor="start" x="193" y="-92.5" font-family="Courier New" font-size="10.00">+ grabKeys</text>
<text text-anchor="start" x="193" y="-81.5" font-family="Courier New" font-size="10.00">&#45; grabTransform</text>
<text text-anchor="start" x="193" y="-70.5" font-family="Courier New" font-size="10.00">&#45; grabVolume</text>
<polyline fill="none" stroke="black" points="185,-63.5 370,-63.5 "/>
<text text-anchor="start" x="193" y="-51.5" font-family="Courier New" font-size="10.00"># OnAwake()</text>
<text text-anchor="start" x="193" y="-40.5" font-family="Courier New" font-size="10.00"># OnStart()</text>
<text text-anchor="start" x="193" y="-29.5" font-family="Courier New" font-size="10.00"># BeginRaycastingCondition()</text>
<text text-anchor="start" x="193" y="-18.5" font-family="Courier New" font-size="10.00"># RaycastingMethod()</text>
<text text-anchor="start" x="193" y="-7.5" font-family="Courier New" font-size="10.00"># ChildsPressCondition()</text>
</a>
</g>
</g>
<!-- Node2 -->
<g id="node2" class="node">
<title>Node2</title>
<g id="a_node2"><a xlink:href="../../d6/d2d/class_c2_m2_1_1_interaction_1_1_signaling_1_1_raycast_event_signaler.html" target="_top" xlink:title=" ">
<polygon fill="white" stroke="black" points="114,-182.5 114,-437.5 263,-437.5 263,-182.5 114,-182.5"/>
<text text-anchor="middle" x="188.5" y="-425.5" font-family="Courier New" font-size="10.00">RaycastEventSignaler</text>
<polyline fill="none" stroke="black" points="114,-418.5 263,-418.5 "/>
<text text-anchor="start" x="122" y="-406.5" font-family="Courier New" font-size="10.00">+ rightHand</text>
<text text-anchor="start" x="122" y="-395.5" font-family="Courier New" font-size="10.00">+ layerMask</text>
<text text-anchor="start" x="122" y="-384.5" font-family="Courier New" font-size="10.00">+ maxRaycastDistance</text>
<text text-anchor="start" x="122" y="-373.5" font-family="Courier New" font-size="10.00">&#45; lastHit</text>
<text text-anchor="start" x="122" y="-362.5" font-family="Courier New" font-size="10.00">&#45; prevObj</text>
<polyline fill="none" stroke="black" points="114,-355.5 263,-355.5 "/>
<text text-anchor="start" x="122" y="-343.5" font-family="Courier New" font-size="10.00"># OnAwake()</text>
<text text-anchor="start" x="122" y="-332.5" font-family="Courier New" font-size="10.00"># Awake()</text>
<text text-anchor="start" x="122" y="-321.5" font-family="Courier New" font-size="10.00"># OnStart()</text>
<text text-anchor="start" x="122" y="-310.5" font-family="Courier New" font-size="10.00"># OnHover()</text>
<text text-anchor="start" x="122" y="-299.5" font-family="Courier New" font-size="10.00"># OnHoverEnd()</text>
<text text-anchor="start" x="122" y="-288.5" font-family="Courier New" font-size="10.00"># OnPress()</text>
<text text-anchor="start" x="122" y="-277.5" font-family="Courier New" font-size="10.00"># OnHoldPress()</text>
<text text-anchor="start" x="122" y="-266.5" font-family="Courier New" font-size="10.00"># OnEndPress()</text>
<text text-anchor="start" x="122" y="-255.5" font-family="Courier New" font-size="10.00"># OnHoverSub()</text>
<text text-anchor="start" x="122" y="-244.5" font-family="Courier New" font-size="10.00"># OnHoverEndSub()</text>
<text text-anchor="start" x="122" y="-233.5" font-family="Courier New" font-size="10.00">and 6 more...</text>
<text text-anchor="start" x="122" y="-222.5" font-family="Courier New" font-size="10.00">&#45; Start()</text>
<text text-anchor="start" x="122" y="-211.5" font-family="Courier New" font-size="10.00">&#45; FixedUpdate()</text>
<text text-anchor="start" x="122" y="-200.5" font-family="Courier New" font-size="10.00">&#45; OnObjectChange()</text>
<text text-anchor="start" x="122" y="-189.5" font-family="Courier New" font-size="10.00">&#45; FindRaycastTrigger()</text>
</a>
</g>
</g>
<!-- Node2&#45;&gt;Node1 -->
<g id="edge1" class="edge">
<title>Node2&#45;&gt;Node1</title>
<path fill="none" stroke="midnightblue" d="M238.92,-172.76C243.81,-159.55 248.6,-146.61 253.05,-134.58"/>
<polygon fill="none" stroke="midnightblue" points="235.53,-171.82 235.35,-182.41 242.1,-174.25 235.53,-171.82"/>
</g>
<!-- Node3 -->
<g id="node3" class="node">
<title>Node3</title>
<g id="a_node3"><a xlink:href="../../d6/d4b/class_c2_m2_1_1_interaction_1_1_signaling_1_1_press_event_signaler.html" target="_top" xlink:title="Send press, holdPress, and endPress events based on set values of Pressed and RaycastTriggerManager">
<polygon fill="white" stroke="black" points="0,-693.5 0,-805.5 125,-805.5 125,-693.5 0,-693.5"/>
<text text-anchor="middle" x="62.5" y="-793.5" font-family="Courier New" font-size="10.00">PressEventSignaler</text>
<polyline fill="none" stroke="black" points="0,-786.5 125,-786.5 "/>
<text text-anchor="start" x="8" y="-774.5" font-family="Courier New" font-size="10.00">+ Pressed</text>
<text text-anchor="start" x="8" y="-763.5" font-family="Courier New" font-size="10.00">&#45; pressedPrevFrame</text>
<polyline fill="none" stroke="black" points="0,-756.5 125,-756.5 "/>
<text text-anchor="start" x="8" y="-744.5" font-family="Courier New" font-size="10.00"># OnHover()</text>
<text text-anchor="start" x="8" y="-733.5" font-family="Courier New" font-size="10.00"># OnHoverEnd()</text>
<text text-anchor="start" x="8" y="-722.5" font-family="Courier New" font-size="10.00"># OnPress()</text>
<text text-anchor="start" x="8" y="-711.5" font-family="Courier New" font-size="10.00"># OnHoldPress()</text>
<text text-anchor="start" x="8" y="-700.5" font-family="Courier New" font-size="10.00"># OnEndPress()</text>
</a>
</g>
</g>
<!-- Node3&#45;&gt;Node2 -->
<g id="edge2" class="edge">
<title>Node3&#45;&gt;Node2</title>
<path fill="none" stroke="midnightblue" d="M77.97,-683.4C91.01,-629.86 110.67,-552.15 130.5,-485 135.05,-469.58 140.07,-453.47 145.18,-437.55"/>
<polygon fill="none" stroke="midnightblue" points="74.49,-682.9 75.53,-693.44 81.29,-684.55 74.49,-682.9"/>
</g>
<!-- Node4 -->
<g id="node4" class="node">
<title>Node4</title>
<g id="a_node4"><a xlink:title=" ">
<polygon fill="white" stroke="#bfbfbf" points="61,-1078 61,-1135 156,-1135 156,-1078 61,-1078"/>
<text text-anchor="middle" x="108.5" y="-1123" font-family="Courier New" font-size="10.00">MonoBehaviour</text>
<polyline fill="none" stroke="#bfbfbf" points="61,-1116 156,-1116 "/>
<text text-anchor="middle" x="108.5" y="-1104" font-family="Courier New" font-size="10.00"> </text>
<polyline fill="none" stroke="#bfbfbf" points="61,-1097 156,-1097 "/>
<text text-anchor="middle" x="108.5" y="-1085" font-family="Courier New" font-size="10.00"> </text>
</a>
</g>
</g>
<!-- Node4&#45;&gt;Node3 -->
<g id="edge3" class="edge">
<title>Node4&#45;&gt;Node3</title>
<path fill="none" stroke="midnightblue" d="M103.6,-1067.69C95.46,-1004.83 79.09,-878.55 69.66,-805.72"/>
<polygon fill="none" stroke="midnightblue" points="100.17,-1068.47 104.93,-1077.94 107.11,-1067.57 100.17,-1068.47"/>
</g>
<!-- Node5 -->
<g id="node5" class="node">
<title>Node5</title>
<g id="a_node5"><a xlink:href="../../d5/df9/class_c2_m2_1_1_interaction_1_1_raycast_event_manager.html" target="_top" xlink:title="Attach this script to parent gameObject, create one child with one raycast trigger per child....">
<polygon fill="white" stroke="black" points="140,-485.5 140,-674.5 301,-674.5 301,-485.5 140,-485.5"/>
<text text-anchor="start" x="148" y="-662.5" font-family="Courier New" font-size="10.00">C2M2.Interaction.Raycast</text>
<text text-anchor="middle" x="220.5" y="-651.5" font-family="Courier New" font-size="10.00">EventManager</text>
<polyline fill="none" stroke="black" points="140,-644.5 301,-644.5 "/>
<text text-anchor="middle" x="220.5" y="-632.5" font-family="Courier New" font-size="10.00"> </text>
<polyline fill="none" stroke="black" points="140,-625.5 301,-625.5 "/>
<text text-anchor="start" x="148" y="-613.5" font-family="Courier New" font-size="10.00">+ TriggerChangeRight()</text>
<text text-anchor="start" x="148" y="-602.5" font-family="Courier New" font-size="10.00">+ TriggerChangeLeft()</text>
<text text-anchor="start" x="148" y="-591.5" font-family="Courier New" font-size="10.00">+ TriggerChangeBoth()</text>
<text text-anchor="start" x="148" y="-580.5" font-family="Courier New" font-size="10.00">+ TriggerEmptyRight()</text>
<text text-anchor="start" x="148" y="-569.5" font-family="Courier New" font-size="10.00">+ TriggerEmptyLeft()</text>
<text text-anchor="start" x="148" y="-558.5" font-family="Courier New" font-size="10.00">+ TriggerEmptyBoth()</text>
<text text-anchor="start" x="148" y="-547.5" font-family="Courier New" font-size="10.00">+ HoverEvent()</text>
<text text-anchor="start" x="148" y="-536.5" font-family="Courier New" font-size="10.00">+ HoverEndEvent()</text>
<text text-anchor="start" x="148" y="-525.5" font-family="Courier New" font-size="10.00">+ PressEvent()</text>
<text text-anchor="start" x="148" y="-514.5" font-family="Courier New" font-size="10.00">+ HoldEvent()</text>
<text text-anchor="start" x="148" y="-503.5" font-family="Courier New" font-size="10.00">and 7 more...</text>
<text text-anchor="start" x="148" y="-492.5" font-family="Courier New" font-size="10.00">&#45; Awake()</text>
</a>
</g>
</g>
<!-- Node4&#45;&gt;Node5 -->
<g id="edge5" class="edge">
<title>Node4&#45;&gt;Node5</title>
<path fill="none" stroke="midnightblue" d="M114.54,-1067.64C123.36,-1013.44 140.78,-910.71 159.5,-824 170.19,-774.47 183.78,-719.69 195.42,-674.71"/>
<polygon fill="none" stroke="midnightblue" points="111.03,-1067.38 112.89,-1077.81 117.94,-1068.5 111.03,-1067.38"/>
</g>
<!-- Node7 -->
<g id="node7" class="node">
<title>Node7</title>
<g id="a_node7"><a xlink:href="../../d8/d68/class_c2_m2_1_1_interaction_1_1_raycast_press_events.html" target="_top" xlink:title="Store custom events that the corresponding RaycastTriggerManager will invoke">
<polygon fill="white" stroke="black" points="169,-824.5 169,-980.5 330,-980.5 330,-824.5 169,-824.5"/>
<text text-anchor="start" x="177" y="-968.5" font-family="Courier New" font-size="10.00">C2M2.Interaction.Raycast</text>
<text text-anchor="middle" x="249.5" y="-957.5" font-family="Courier New" font-size="10.00">PressEvents</text>
<polyline fill="none" stroke="black" points="169,-950.5 330,-950.5 "/>
<text text-anchor="start" x="177" y="-938.5" font-family="Courier New" font-size="10.00">+ OnHover</text>
<text text-anchor="start" x="177" y="-927.5" font-family="Courier New" font-size="10.00">+ OnHoverEnd</text>
<text text-anchor="start" x="177" y="-916.5" font-family="Courier New" font-size="10.00">+ OnPress</text>
<text text-anchor="start" x="177" y="-905.5" font-family="Courier New" font-size="10.00">+ OnHoldPress</text>
<text text-anchor="start" x="177" y="-894.5" font-family="Courier New" font-size="10.00">+ OnEndPress</text>
<polyline fill="none" stroke="black" points="169,-887.5 330,-887.5 "/>
<text text-anchor="start" x="177" y="-875.5" font-family="Courier New" font-size="10.00">+ Hover()</text>
<text text-anchor="start" x="177" y="-864.5" font-family="Courier New" font-size="10.00">+ EndHover()</text>
<text text-anchor="start" x="177" y="-853.5" font-family="Courier New" font-size="10.00">+ Press()</text>
<text text-anchor="start" x="177" y="-842.5" font-family="Courier New" font-size="10.00">+ HoldPress()</text>
<text text-anchor="start" x="177" y="-831.5" font-family="Courier New" font-size="10.00">+ EndPress()</text>
</a>
</g>
</g>
<!-- Node4&#45;&gt;Node7 -->
<g id="edge8" class="edge">
<title>Node4&#45;&gt;Node7</title>
<path fill="none" stroke="midnightblue" d="M141.35,-1070.25C145.91,-1064.93 150.43,-1059.4 154.5,-1054 171.89,-1030.93 189.25,-1004.64 204.29,-980.55"/>
<polygon fill="none" stroke="midnightblue" points="138.63,-1068.05 134.68,-1077.88 143.9,-1072.66 138.63,-1068.05"/>
</g>
<!-- Node5&#45;&gt;Node2 -->
<g id="edge4" class="edge">
<title>Node5&#45;&gt;Node2</title>
<path fill="none" stroke="#404040" d="M209.31,-485.27C207.93,-473.72 206.5,-461.73 205.06,-449.69"/>
<polygon fill="none" stroke="#404040" points="205.05,-449.57 200.36,-444.09 203.62,-437.65 208.31,-443.14 205.05,-449.57"/>
<text text-anchor="middle" x="246" y="-459" font-family="Courier New" font-size="10.00"> &#45;activeEvent</text>
</g>
<!-- Node6 -->
<g id="node6" class="node">
<title>Node6</title>
<g id="a_node6"><a xlink:title=" ">
<polygon fill="white" stroke="#bfbfbf" points="348,-874 348,-931 401,-931 401,-874 348,-874"/>
<text text-anchor="middle" x="374.5" y="-919" font-family="Courier New" font-size="10.00">static</text>
<polyline fill="none" stroke="#bfbfbf" points="348,-912 401,-912 "/>
<text text-anchor="middle" x="374.5" y="-900" font-family="Courier New" font-size="10.00"> </text>
<polyline fill="none" stroke="#bfbfbf" points="348,-893 401,-893 "/>
<text text-anchor="middle" x="374.5" y="-881" font-family="Courier New" font-size="10.00"> </text>
</a>
</g>
</g>
<!-- Node6&#45;&gt;Node5 -->
<g id="edge6" class="edge">
<title>Node6&#45;&gt;Node5</title>
<path fill="none" stroke="#404040" d="M372.17,-873.95C367.72,-832.51 355.43,-752.62 323.5,-693 319.12,-684.81 313.99,-676.76 308.42,-668.97"/>
<polygon fill="none" stroke="#404040" points="308.32,-668.84 301.53,-666.43 301.13,-659.23 307.93,-661.64 308.32,-668.84"/>
<text text-anchor="middle" x="389" y="-747" font-family="Courier New" font-size="10.00"> &#45;nullHit</text>
</g>
<!-- Node7&#45;&gt;Node5 -->
<g id="edge7" class="edge">
<title>Node7&#45;&gt;Node5</title>
<path fill="none" stroke="#404040" d="M242.52,-824.32C238.79,-783.09 234.14,-731.72 230.08,-686.82"/>
<polygon fill="none" stroke="#404040" points="230.06,-686.6 225.53,-680.98 228.97,-674.65 233.5,-680.26 230.06,-686.6"/>
<text text-anchor="middle" x="280" y="-758" font-family="Courier New" font-size="10.00"> +leftTrigger</text>
<text text-anchor="middle" x="280" y="-747" font-family="Courier New" font-size="10.00">+rightTrigger</text>
<text text-anchor="middle" x="280" y="-736" font-family="Courier New" font-size="10.00">&#45;emptyTrigger</text>
</g>
<!-- Node8 -->
<g id="node8" class="node">
<title>Node8</title>
<g id="a_node8"><a xlink:href="../../d2/d43/class_c2_m2_1_1_interaction_1_1_raycast_press_events_1_1_raycast_hit_event.html" target="_top" xlink:title=" ">
<polygon fill="white" stroke="black" points="174,-1072.5 174,-1140.5 353,-1140.5 353,-1072.5 174,-1072.5"/>
<text text-anchor="start" x="182" y="-1128.5" font-family="Courier New" font-size="10.00">C2M2.Interaction.Raycast</text>
<text text-anchor="middle" x="263.5" y="-1117.5" font-family="Courier New" font-size="10.00">PressEvents.RaycastHitEvent</text>
<polyline fill="none" stroke="black" points="174,-1110.5 353,-1110.5 "/>
<text text-anchor="middle" x="263.5" y="-1098.5" font-family="Courier New" font-size="10.00"> </text>
<polyline fill="none" stroke="black" points="174,-1091.5 353,-1091.5 "/>
<text text-anchor="middle" x="263.5" y="-1079.5" font-family="Courier New" font-size="10.00"> </text>
</a>
</g>
</g>
<!-- Node8&#45;&gt;Node7 -->
<g id="edge9" class="edge">
<title>Node8&#45;&gt;Node7</title>
<path fill="none" stroke="#404040" d="M261.19,-1072.14C259.68,-1050.38 257.63,-1020.85 255.67,-992.59"/>
<polygon fill="none" stroke="#404040" points="255.67,-992.55 251.27,-986.84 254.84,-980.58 259.25,-986.29 255.67,-992.55"/>
<text text-anchor="middle" x="297" y="-1046" font-family="Courier New" font-size="10.00"> &#45;onEndPress</text>
<text text-anchor="middle" x="297" y="-1035" font-family="Courier New" font-size="10.00">&#45;onHoldPress</text>
<text text-anchor="middle" x="297" y="-1024" font-family="Courier New" font-size="10.00">&#45;onHover</text>
<text text-anchor="middle" x="297" y="-1013" font-family="Courier New" font-size="10.00">&#45;onHoverEnd</text>
<text text-anchor="middle" x="297" y="-1002" font-family="Courier New" font-size="10.00">&#45;onPress</text>
</g>
<!-- Node9 -->
<g id="node9" class="node">
<title>Node9</title>
<g id="a_node9"><a xlink:title=" ">
<polygon fill="white" stroke="#bfbfbf" points="183,-1178.5 183,-1235.5 344,-1235.5 344,-1178.5 183,-1178.5"/>
<text text-anchor="middle" x="263.5" y="-1223.5" font-family="Courier New" font-size="10.00">UnityEvent&lt; RaycastHit &gt;</text>
<polyline fill="none" stroke="#bfbfbf" points="183,-1216.5 344,-1216.5 "/>
<text text-anchor="middle" x="263.5" y="-1204.5" font-family="Courier New" font-size="10.00"> </text>
<polyline fill="none" stroke="#bfbfbf" points="183,-1197.5 344,-1197.5 "/>
<text text-anchor="middle" x="263.5" y="-1185.5" font-family="Courier New" font-size="10.00"> </text>
</a>
</g>
</g>
<!-- Node9&#45;&gt;Node8 -->
<g id="edge10" class="edge">
<title>Node9&#45;&gt;Node8</title>
<path fill="none" stroke="midnightblue" d="M263.5,-1168.01C263.5,-1158.96 263.5,-1149.38 263.5,-1140.58"/>
<polygon fill="none" stroke="midnightblue" points="260,-1168.3 263.5,-1178.3 267,-1168.3 260,-1168.3"/>
</g>
<!-- Node10 -->
<g id="node10" class="node">
<title>Node10</title>
<g id="a_node10"><a xlink:href="../../dd/d45/class_c2_m2_1_1_interaction_1_1_v_r_1_1_public_o_v_r_grabber.html" target="_top" xlink:title="Offers a public interface for other scripts to change OVRGrabber&#39;s grab volume.">
<polygon fill="white" stroke="black" points="281,-270.5 281,-349.5 454,-349.5 454,-270.5 281,-270.5"/>
<text text-anchor="start" x="289" y="-337.5" font-family="Courier New" font-size="10.00">C2M2.Interaction.VR.Public</text>
<text text-anchor="middle" x="367.5" y="-326.5" font-family="Courier New" font-size="10.00">OVRGrabber</text>
<polyline fill="none" stroke="black" points="281,-319.5 454,-319.5 "/>
<text text-anchor="start" x="289" y="-307.5" font-family="Courier New" font-size="10.00">+ M_GrabVolumes</text>
<text text-anchor="start" x="289" y="-296.5" font-family="Courier New" font-size="10.00">+ Controller</text>
<polyline fill="none" stroke="black" points="281,-289.5 454,-289.5 "/>
<text text-anchor="middle" x="367.5" y="-277.5" font-family="Courier New" font-size="10.00"> </text>
</a>
</g>
</g>
<!-- Node10&#45;&gt;Node1 -->
<g id="edge11" class="edge">
<title>Node10&#45;&gt;Node1</title>
<path fill="none" stroke="#404040" d="M353.04,-270.36C340.55,-236.98 322.12,-187.72 306.59,-146.22"/>
<polygon fill="none" stroke="#404040" points="306.5,-145.98 300.65,-141.76 302.29,-134.74 308.14,-138.96 306.5,-145.98"/>
<text text-anchor="middle" x="340" y="-156" font-family="Courier New" font-size="10.00"> &#45;grabber</text>
</g>
<!-- Node11 -->
<g id="node11" class="node">
<title>Node11</title>
<g id="a_node11"><a xlink:title=" ">
<polygon fill="white" stroke="#bfbfbf" points="329,-551.5 329,-608.5 406,-608.5 406,-551.5 329,-551.5"/>
<text text-anchor="middle" x="367.5" y="-596.5" font-family="Courier New" font-size="10.00">OVRGrabber</text>
<polyline fill="none" stroke="#bfbfbf" points="329,-589.5 406,-589.5 "/>
<text text-anchor="middle" x="367.5" y="-577.5" font-family="Courier New" font-size="10.00"> </text>
<polyline fill="none" stroke="#bfbfbf" points="329,-570.5 406,-570.5 "/>
<text text-anchor="middle" x="367.5" y="-558.5" font-family="Courier New" font-size="10.00"> </text>
</a>
</g>
</g>
<!-- Node11&#45;&gt;Node10 -->
<g id="edge12" class="edge">
<title>Node11&#45;&gt;Node10</title>
<path fill="none" stroke="midnightblue" d="M367.5,-541.12C367.5,-490.38 367.5,-400.84 367.5,-349.69"/>
<polygon fill="none" stroke="midnightblue" points="364,-541.33 367.5,-551.33 371,-541.33 364,-541.33"/>
</g>
</g>
</svg>
