<?xml version="1.0" encoding="UTF-8" standalone="no"?>
<!DOCTYPE svg PUBLIC "-//W3C//DTD SVG 1.1//EN"
 "http://www.w3.org/Graphics/SVG/1.1/DTD/svg11.dtd">
<!-- Generated by graphviz version 2.38.0 (20140413.2041)
 -->
<!-- Title: C2M2.Simulation.PositionFieldSimulation Pages: 1 -->
<svg width="294pt" height="391pt"
 viewBox="0.00 0.00 294.00 391.00" xmlns="http://www.w3.org/2000/svg" xmlns:xlink="http://www.w3.org/1999/xlink">
<g id="graph0" class="graph" transform="scale(1 1) rotate(0) translate(4 387)">
<title>C2M2.Simulation.PositionFieldSimulation</title>
<polygon fill="white" stroke="none" points="-4,4 -4,-387 290,-387 290,4 -4,4"/>
<!-- Node1 -->
<g id="node1" class="node"><title>Node1</title>
<g id="a_node1"><a xlink:title="Simulation of type Vector3[] for simulating positional fields">
<polygon fill="#bfbfbf" stroke="black" points="73,-0.5 73,-101.5 234,-101.5 234,-0.5 73,-0.5"/>
<text text-anchor="start" x="81" y="-89.5" font-family="Courier New" font-size="10.00">C2M2.Simulation.Position</text>
<text text-anchor="middle" x="153.5" y="-78.5" font-family="Courier New" font-size="10.00">FieldSimulation</text>
<polyline fill="none" stroke="black" points="73,-71.5 234,-71.5 "/>
<text text-anchor="start" x="81" y="-59.5" font-family="Courier New" font-size="10.00"># transforms</text>
<text text-anchor="start" x="81" y="-48.5" font-family="Courier New" font-size="10.00">&#45; trials</text>
<polyline fill="none" stroke="black" points="73,-41.5 234,-41.5 "/>
<text text-anchor="start" x="81" y="-29.5" font-family="Courier New" font-size="10.00"># OnAwake()</text>
<text text-anchor="start" x="81" y="-18.5" font-family="Courier New" font-size="10.00"># UpdateVisualization()</text>
<text text-anchor="start" x="81" y="-7.5" font-family="Courier New" font-size="10.00"># UpdateVisChild()</text>
</a>
</g>
</g>
<!-- Node2 -->
<g id="node2" class="node"><title>Node2</title>
<g id="a_node2"><a xlink:href="../../db/d39/class_c2_m2_1_1_simulation_1_1_simulation.html" target="_top" xlink:title=" ">
<polygon fill="white" stroke="black" points="0,-149.5 0,-382.5 155,-382.5 155,-149.5 0,-149.5"/>
<text text-anchor="start" x="8" y="-370.5" font-family="Courier New" font-size="10.00">Simulation&lt; Vector3</text>
<text text-anchor="middle" x="77.5" y="-359.5" font-family="Courier New" font-size="10.00">[], Transform[]&gt;</text>
<polyline fill="none" stroke="black" points="0,-352.5 155,-352.5 "/>
<text text-anchor="start" x="8" y="-340.5" font-family="Courier New" font-size="10.00">+ startOnAwake</text>
<text text-anchor="start" x="8" y="-329.5" font-family="Courier New" font-size="10.00"># mutex</text>
<text text-anchor="start" x="8" y="-318.5" font-family="Courier New" font-size="10.00">&#45; solveThread</text>
<polyline fill="none" stroke="black" points="0,-311.5 155,-311.5 "/>
<text text-anchor="start" x="8" y="-299.5" font-family="Courier New" font-size="10.00">+ GetValues()</text>
<text text-anchor="start" x="8" y="-288.5" font-family="Courier New" font-size="10.00">+ StartSimulation()</text>
<text text-anchor="start" x="8" y="-277.5" font-family="Courier New" font-size="10.00">+ StopSimulation()</text>
<text text-anchor="start" x="8" y="-266.5" font-family="Courier New" font-size="10.00">+ Awake()</text>
<text text-anchor="start" x="8" y="-255.5" font-family="Courier New" font-size="10.00">+ Start()</text>
<text text-anchor="start" x="8" y="-244.5" font-family="Courier New" font-size="10.00">+ Update()</text>
<text text-anchor="start" x="8" y="-233.5" font-family="Courier New" font-size="10.00"># BuildVisualization()</text>
<text text-anchor="start" x="8" y="-222.5" font-family="Courier New" font-size="10.00"># UpdateVisualization()</text>
<text text-anchor="start" x="8" y="-211.5" font-family="Courier New" font-size="10.00"># Solve()</text>
<text text-anchor="start" x="8" y="-200.5" font-family="Courier New" font-size="10.00"># OnAwake()</text>
<text text-anchor="start" x="8" y="-189.5" font-family="Courier New" font-size="10.00"># OnStart()</text>
<text text-anchor="start" x="8" y="-178.5" font-family="Courier New" font-size="10.00"># OnUpdate()</text>
<text text-anchor="start" x="8" y="-167.5" font-family="Courier New" font-size="10.00">&#45; OnApplicationPause()</text>
<text text-anchor="start" x="8" y="-156.5" font-family="Courier New" font-size="10.00">&#45; OnApplicationQuit()</text>
</a>
</g>
</g>
<!-- Node2&#45;&gt;Node1 -->
<g id="edge1" class="edge"><title>Node2&#45;&gt;Node1</title>
<path fill="none" stroke="midnightblue" d="M122.086,-140.042C126.912,-126.516 131.592,-113.399 135.802,-101.601"/>
<polygon fill="none" stroke="midnightblue" points="118.789,-138.867 118.725,-149.461 125.382,-141.219 118.789,-138.867"/>
</g>
<!-- Node3 -->
<g id="node3" class="node"><title>Node3</title>
<g id="a_node3"><a xlink:href="../../d3/dca/class_c2_m2_1_1_utils_1_1_timer.html" target="_top" xlink:title=" ">
<polygon fill="white" stroke="black" points="173,-177 173,-355 286,-355 286,-177 173,-177"/>
<text text-anchor="middle" x="229.5" y="-343" font-family="Courier New" font-size="10.00">C2M2.Utils.Timer</text>
<polyline fill="none" stroke="black" points="173,-336 286,-336 "/>
<text text-anchor="start" x="181" y="-324" font-family="Courier New" font-size="10.00">+ timerNodes</text>
<text text-anchor="start" x="181" y="-313" font-family="Courier New" font-size="10.00">&#45; t0</text>
<text text-anchor="start" x="181" y="-302" font-family="Courier New" font-size="10.00">&#45; t1</text>
<text text-anchor="start" x="181" y="-291" font-family="Courier New" font-size="10.00">&#45; started</text>
<text text-anchor="start" x="181" y="-280" font-family="Courier New" font-size="10.00">&#45; stopwatch</text>
<polyline fill="none" stroke="black" points="173,-273 286,-273 "/>
<text text-anchor="start" x="181" y="-261" font-family="Courier New" font-size="10.00">+ Timer()</text>
<text text-anchor="start" x="181" y="-250" font-family="Courier New" font-size="10.00">+ Timer()</text>
<text text-anchor="start" x="181" y="-239" font-family="Courier New" font-size="10.00">+ StartTimer()</text>
<text text-anchor="start" x="181" y="-228" font-family="Courier New" font-size="10.00">+ StopTimer()</text>
<text text-anchor="start" x="181" y="-217" font-family="Courier New" font-size="10.00">+ StopTimer()</text>
<text text-anchor="start" x="181" y="-206" font-family="Courier New" font-size="10.00">+ ExportCSV()</text>
<text text-anchor="start" x="181" y="-195" font-family="Courier New" font-size="10.00">+ ToString()</text>
<text text-anchor="start" x="181" y="-184" font-family="Courier New" font-size="10.00">+ ToStringPlus()</text>
</a>
</g>
</g>
<!-- Node3&#45;&gt;Node1 -->
<g id="edge2" class="edge"><title>Node3&#45;&gt;Node1</title>
<path fill="none" stroke="#404040" d="M198.039,-176.827C190.393,-155.397 182.382,-132.945 175.296,-113.086"/>
<polygon fill="none" stroke="#404040" points="175.273,-113.023 169.49,-108.716 171.241,-101.721 177.024,-106.027 175.273,-113.023"/>
<text text-anchor="middle" x="202" y="-123" font-family="Courier New" font-size="10.00"> &#45;timer</text>
</g>
</g>
</svg>
