<?xml version="1.0" encoding="UTF-8" standalone="no"?>
<!DOCTYPE svg PUBLIC "-//W3C//DTD SVG 1.1//EN"
 "http://www.w3.org/Graphics/SVG/1.1/DTD/svg11.dtd">
<!-- Generated by graphviz version 2.38.0 (20140413.2041)
 -->
<!-- Title: C2M2.Simulation.PositionFieldSimulation Pages: 1 -->
<svg width="169pt" height="347pt"
 viewBox="0.00 0.00 169.00 347.00" xmlns="http://www.w3.org/2000/svg" xmlns:xlink="http://www.w3.org/1999/xlink">
<g id="graph0" class="graph" transform="scale(1 1) rotate(0) translate(4 343)">
<title>C2M2.Simulation.PositionFieldSimulation</title>
<polygon fill="white" stroke="none" points="-4,4 -4,-343 165,-343 165,4 -4,4"/>
<!-- Node1 -->
<g id="node1" class="node"><title>Node1</title>
<g id="a_node1"><a xlink:title="Simulation of type Vector3[] for simulating positional fields">
<polygon fill="#bfbfbf" stroke="black" points="0,-0.5 0,-90.5 161,-90.5 161,-0.5 0,-0.5"/>
<text text-anchor="start" x="8" y="-78.5" font-family="Courier New" font-size="10.00">C2M2.Simulation.Position</text>
<text text-anchor="middle" x="80.5" y="-67.5" font-family="Courier New" font-size="10.00">FieldSimulation</text>
<polyline fill="none" stroke="black" points="0,-60.5 161,-60.5 "/>
<text text-anchor="start" x="8" y="-48.5" font-family="Courier New" font-size="10.00">&#45; transforms</text>
<polyline fill="none" stroke="black" points="0,-41.5 161,-41.5 "/>
<text text-anchor="start" x="8" y="-29.5" font-family="Courier New" font-size="10.00"># OnAwake()</text>
<text text-anchor="start" x="8" y="-18.5" font-family="Courier New" font-size="10.00"># BuildTransforms()</text>
<text text-anchor="start" x="8" y="-7.5" font-family="Courier New" font-size="10.00"># UpdateVisualization()</text>
</a>
</g>
</g>
<!-- Node2 -->
<g id="node2" class="node"><title>Node2</title>
<g id="a_node2"><a xlink:href="../../db/d39/class_c2_m2_1_1_simulation_1_1_simulation.html" target="_top" xlink:title=" ">
<polygon fill="white" stroke="black" points="3,-127.5 3,-338.5 158,-338.5 158,-127.5 3,-127.5"/>
<text text-anchor="middle" x="80.5" y="-326.5" font-family="Courier New" font-size="10.00">Simulation&lt; Vector3[]&gt;</text>
<polyline fill="none" stroke="black" points="3,-319.5 158,-319.5 "/>
<text text-anchor="start" x="11" y="-307.5" font-family="Courier New" font-size="10.00">+ startOnAwake</text>
<text text-anchor="start" x="11" y="-296.5" font-family="Courier New" font-size="10.00"># mutex</text>
<text text-anchor="start" x="11" y="-285.5" font-family="Courier New" font-size="10.00">&#45; solveThread</text>
<polyline fill="none" stroke="black" points="3,-278.5 158,-278.5 "/>
<text text-anchor="start" x="11" y="-266.5" font-family="Courier New" font-size="10.00">+ GetValues()</text>
<text text-anchor="start" x="11" y="-255.5" font-family="Courier New" font-size="10.00">+ StartSimulation()</text>
<text text-anchor="start" x="11" y="-244.5" font-family="Courier New" font-size="10.00">+ StopSimulation()</text>
<text text-anchor="start" x="11" y="-233.5" font-family="Courier New" font-size="10.00">+ Awake()</text>
<text text-anchor="start" x="11" y="-222.5" font-family="Courier New" font-size="10.00">+ Start()</text>
<text text-anchor="start" x="11" y="-211.5" font-family="Courier New" font-size="10.00">+ Update()</text>
<text text-anchor="start" x="11" y="-200.5" font-family="Courier New" font-size="10.00"># UpdateVisualization()</text>
<text text-anchor="start" x="11" y="-189.5" font-family="Courier New" font-size="10.00"># Solve()</text>
<text text-anchor="start" x="11" y="-178.5" font-family="Courier New" font-size="10.00"># OnAwake()</text>
<text text-anchor="start" x="11" y="-167.5" font-family="Courier New" font-size="10.00"># OnStart()</text>
<text text-anchor="start" x="11" y="-156.5" font-family="Courier New" font-size="10.00"># OnUpdate()</text>
<text text-anchor="start" x="11" y="-145.5" font-family="Courier New" font-size="10.00">&#45; OnApplicationPause()</text>
<text text-anchor="start" x="11" y="-134.5" font-family="Courier New" font-size="10.00">&#45; OnApplicationQuit()</text>
</a>
</g>
</g>
<!-- Node2&#45;&gt;Node1 -->
<g id="edge1" class="edge"><title>Node2&#45;&gt;Node1</title>
<path fill="none" stroke="midnightblue" d="M80.5,-117.191C80.5,-107.949 80.5,-99.017 80.5,-90.7919"/>
<polygon fill="none" stroke="midnightblue" points="77.0001,-117.323 80.5,-127.323 84.0001,-117.323 77.0001,-117.323"/>
</g>
</g>
</svg>
