<?xml version="1.0" encoding="UTF-8" standalone="no"?>
<!DOCTYPE svg PUBLIC "-//W3C//DTD SVG 1.1//EN"
 "http://www.w3.org/Graphics/SVG/1.1/DTD/svg11.dtd">
<!-- Generated by graphviz version 2.38.0 (20140413.2041)
 -->
<!-- Title: C2M2.Interaction.Adjacency.AdjacencyList Pages: 1 -->
<!--zoomable 486 -->
<svg id="main" version="1.1" xmlns="http://www.w3.org/2000/svg" xmlns:xlink="http://www.w3.org/1999/xlink" xml:space="preserve" onload="init(evt)">
<style type="text/css"><![CDATA[
.edge:hover path { stroke: red; }
.edge:hover polygon { stroke: red; fill: red; }
]]></style>
<script type="text/javascript"><![CDATA[
var edges = document.getElementsByTagName('g');
if (edges && edges.length) {
  for (var i=0;i<edges.length;i++) {
    if (edges[i].id.substr(0,4)=='edge') {
      edges[i].setAttribute('class','edge');
    }
  }
}
]]></script>
        <defs>
                <circle id="rim" cx="0" cy="0" r="7"/>
                <circle id="rim2" cx="0" cy="0" r="3.5"/>
                <g id="zoomPlus">
                        <use xlink:href="#rim" fill="#404040">
                                <set attributeName="fill" to="#808080" begin="zoomplus.mouseover" end="zoomplus.mouseout"/>
                        </use>
                        <path d="M-4,0h8M0,-4v8" fill="none" stroke="white" stroke-width="1.5" pointer-events="none"/>
                </g>
                <g id="zoomMin">
                        <use xlink:href="#rim" fill="#404040">
                                <set attributeName="fill" to="#808080" begin="zoomminus.mouseover" end="zoomminus.mouseout"/>
                        </use>
                        <path d="M-4,0h8" fill="none" stroke="white" stroke-width="1.5" pointer-events="none"/>
                </g>
                <g id="dirArrow">
                        <path fill="none" stroke="white" stroke-width="1.5" d="M0,-3.0v7 M-2.5,-0.5L0,-3.0L2.5,-0.5"/>
                </g>
               <g id="resetDef">
                       <use xlink:href="#rim2" fill="#404040">
                               <set attributeName="fill" to="#808080" begin="reset.mouseover" end="reset.mouseout"/>
                       </use>
               </g>
        </defs>

<script type="text/javascript">
var viewWidth = 319;
var viewHeight = 486;
var sectionId = 'dynsection-1';
</script>
<script xlink:href="../../svgpan.js"/>
<svg id="graph" class="graph">
<g id="viewport">
<title>C2M2.Interaction.Adjacency.AdjacencyList</title>
<polygon fill="white" stroke="none" points="-4,4 -4,-482 315,-482 315,4 -4,4"/>
<!-- Node1 -->
<g id="node1" class="node"><title>Node1</title>
<g id="a_node1"><a xlink:title="Given a mesh, creates and stores an edge list and adjacency list of the mesh vertices">
<polygon fill="#bfbfbf" stroke="black" points="0,-0.5 0,-156.5 179,-156.5 179,-0.5 0,-0.5"/>
<text text-anchor="start" x="8" y="-144.5" font-family="Courier New" font-size="10.00">C2M2.Interaction.Adjacency.</text>
<text text-anchor="middle" x="89.5" y="-133.5" font-family="Courier New" font-size="10.00">AdjacencyList</text>
<polyline fill="none" stroke="black" points="0,-126.5 179,-126.5 "/>
<text text-anchor="start" x="8" y="-114.5" font-family="Courier New" font-size="10.00">+ adjacencyList</text>
<text text-anchor="start" x="8" y="-103.5" font-family="Courier New" font-size="10.00">+ edgeList</text>
<text text-anchor="start" x="8" y="-92.5" font-family="Courier New" font-size="10.00">+ edgeCount</text>
<text text-anchor="start" x="8" y="-81.5" font-family="Courier New" font-size="10.00">&#45; mesh</text>
<text text-anchor="start" x="8" y="-70.5" font-family="Courier New" font-size="10.00">&#45; vertices</text>
<text text-anchor="start" x="8" y="-59.5" font-family="Courier New" font-size="10.00">&#45; triangles</text>
<text text-anchor="start" x="8" y="-48.5" font-family="Courier New" font-size="10.00">&#45; duplicate</text>
<polyline fill="none" stroke="black" points="0,-41.5 179,-41.5 "/>
<text text-anchor="start" x="8" y="-29.5" font-family="Courier New" font-size="10.00">&#45; Awake()</text>
<text text-anchor="start" x="8" y="-18.5" font-family="Courier New" font-size="10.00">&#45; CreateAdjacencyList()</text>
<text text-anchor="start" x="8" y="-7.5" font-family="Courier New" font-size="10.00">&#45; AdjacencyListAddEdge()</text>
</a>
</g>
</g>
<!-- Node2 -->
<g id="node2" class="node"><title>Node2</title>
<g id="a_node2"><a xlink:title=" ">
<polygon fill="white" stroke="#bfbfbf" points="65,-420.5 65,-477.5 160,-477.5 160,-420.5 65,-420.5"/>
<text text-anchor="middle" x="112.5" y="-465.5" font-family="Courier New" font-size="10.00">MonoBehaviour</text>
<polyline fill="none" stroke="#bfbfbf" points="65,-458.5 160,-458.5 "/>
<text text-anchor="middle" x="112.5" y="-446.5" font-family="Courier New" font-size="10.00"> </text>
<polyline fill="none" stroke="#bfbfbf" points="65,-439.5 160,-439.5 "/>
<text text-anchor="middle" x="112.5" y="-427.5" font-family="Courier New" font-size="10.00"> </text>
</a>
</g>
</g>
<!-- Node2&#45;&gt;Node1 -->
<g id="edge1" class="edge"><title>Node2&#45;&gt;Node1</title>
<path fill="none" stroke="midnightblue" d="M98.9636,-410.536C96.3076,-401.626 93.9097,-392.07 92.5,-383 80.6441,-306.72 81.3752,-218.352 84.1697,-156.712"/>
<polygon fill="none" stroke="midnightblue" points="95.6853,-411.778 102.033,-420.26 102.361,-409.671 95.6853,-411.778"/>
</g>
<!-- Node3 -->
<g id="node3" class="node"><title>Node3</title>
<g id="a_node3"><a xlink:href="../../d2/d9a/class_c2_m2_1_1_interaction_1_1_adjacency_1_1_unique_vertices.html" target="_top" xlink:title="Get the unique vertices of a mesh and add invisible vertices for adjacency list">
<polygon fill="white" stroke="black" points="102,-204.5 102,-382.5 311,-382.5 311,-204.5 102,-204.5"/>
<text text-anchor="start" x="110" y="-370.5" font-family="Courier New" font-size="10.00">C2M2.Interaction.Adjacency.</text>
<text text-anchor="middle" x="206.5" y="-359.5" font-family="Courier New" font-size="10.00">UniqueVertices</text>
<polyline fill="none" stroke="black" points="102,-352.5 311,-352.5 "/>
<text text-anchor="start" x="110" y="-340.5" font-family="Courier New" font-size="10.00">+ subdivisions</text>
<text text-anchor="start" x="110" y="-329.5" font-family="Courier New" font-size="10.00">+ uniqueVerts</text>
<text text-anchor="start" x="110" y="-318.5" font-family="Courier New" font-size="10.00">+ uniqueMeshVertLength</text>
<text text-anchor="start" x="110" y="-307.5" font-family="Courier New" font-size="10.00">+ uniqueVertReverseLookup</text>
<text text-anchor="start" x="110" y="-296.5" font-family="Courier New" font-size="10.00">&#45; vertices</text>
<text text-anchor="start" x="110" y="-285.5" font-family="Courier New" font-size="10.00">&#45; triangles</text>
<polyline fill="none" stroke="black" points="102,-278.5 311,-278.5 "/>
<text text-anchor="start" x="110" y="-266.5" font-family="Courier New" font-size="10.00">+ FindNearestUniqueVert()</text>
<text text-anchor="start" x="110" y="-255.5" font-family="Courier New" font-size="10.00">+ RaycastFindNearestUnique</text>
<text text-anchor="start" x="110" y="-244.5" font-family="Courier New" font-size="10.00">Verts()</text>
<text text-anchor="start" x="110" y="-233.5" font-family="Courier New" font-size="10.00">&#45; Awake()</text>
<text text-anchor="start" x="110" y="-222.5" font-family="Courier New" font-size="10.00">&#45; BuildInvisibleVerts()</text>
<text text-anchor="start" x="110" y="-211.5" font-family="Courier New" font-size="10.00">&#45; BuildUniqueVertReverseLookup()</text>
</a>
</g>
</g>
<!-- Node2&#45;&gt;Node3 -->
<g id="edge3" class="edge"><title>Node2&#45;&gt;Node3</title>
<path fill="none" stroke="midnightblue" d="M134.764,-411.643C140.231,-402.716 146.322,-392.769 152.581,-382.549"/>
<polygon fill="none" stroke="midnightblue" points="131.76,-409.846 129.523,-420.202 137.73,-413.502 131.76,-409.846"/>
</g>
<!-- Node3&#45;&gt;Node1 -->
<g id="edge2" class="edge"><title>Node3&#45;&gt;Node1</title>
<path fill="none" stroke="#404040" d="M158.067,-204.327C151.357,-192.112 144.465,-179.564 137.758,-167.355"/>
<polygon fill="none" stroke="#404040" points="137.699,-167.246 131.304,-163.913 131.921,-156.728 138.316,-160.062 137.699,-167.246"/>
<text text-anchor="middle" x="196" y="-178" font-family="Courier New" font-size="10.00"> &#45;uniqueVertices</text>
</g>
</g>
</svg>
        <g id="navigator" transform="translate(0 0)" fill="#404254">
                <rect fill="#f2f5e9" fill-opacity="0.5" stroke="#606060" stroke-width=".5" x="0" y="0" width="60" height="60"/>
                <use id="zoomplus" xlink:href="#zoomPlus" x="17" y="9" onmousedown="handleZoom(evt,'in')"/>
                <use id="zoomminus" xlink:href="#zoomMin" x="42" y="9" onmousedown="handleZoom(evt,'out')"/>
                <use id="reset" xlink:href="#resetDef" x="30" y="36" onmousedown="handleReset()"/>
                <g id="arrowUp" xlink:href="#dirArrow" transform="translate(30 24)" onmousedown="handlePan(0,-1)">
                  <use xlink:href="#rim" fill="#404040">
                        <set attributeName="fill" to="#808080" begin="arrowUp.mouseover" end="arrowUp.mouseout"/>
                  </use>
                  <path fill="none" stroke="white" stroke-width="1.5" d="M0,-3.0v7 M-2.5,-0.5L0,-3.0L2.5,-0.5"/>
                </g>
                <g id="arrowRight" xlink:href="#dirArrow" transform="rotate(90) translate(36 -43)" onmousedown="handlePan(1,0)">
                  <use xlink:href="#rim" fill="#404040">
                        <set attributeName="fill" to="#808080" begin="arrowRight.mouseover" end="arrowRight.mouseout"/>
                  </use>
                  <path fill="none" stroke="white" stroke-width="1.5" d="M0,-3.0v7 M-2.5,-0.5L0,-3.0L2.5,-0.5"/>
                </g>
                <g id="arrowDown" xlink:href="#dirArrow" transform="rotate(180) translate(-30 -48)" onmousedown="handlePan(0,1)">
                  <use xlink:href="#rim" fill="#404040">
                        <set attributeName="fill" to="#808080" begin="arrowDown.mouseover" end="arrowDown.mouseout"/>
                  </use>
                  <path fill="none" stroke="white" stroke-width="1.5" d="M0,-3.0v7 M-2.5,-0.5L0,-3.0L2.5,-0.5"/>
                </g>
                <g id="arrowLeft" xlink:href="#dirArrow" transform="rotate(270) translate(-36 17)" onmousedown="handlePan(-1,0)">
                  <use xlink:href="#rim" fill="#404040">
                        <set attributeName="fill" to="#808080" begin="arrowLeft.mouseover" end="arrowLeft.mouseout"/>
                  </use>
                  <path fill="none" stroke="white" stroke-width="1.5" d="M0,-3.0v7 M-2.5,-0.5L0,-3.0L2.5,-0.5"/>
                </g>
        </g>
        <svg viewBox="0 0 15 15" width="100%" height="30px" preserveAspectRatio="xMaxYMin meet">
         <g id="arrow_out" transform="scale(0.3 0.3)">
          <a xlink:href="class_c2_m2_1_1_interaction_1_1_adjacency_1_1_adjacency_list__coll__graph_org.svg" target="_base">
           <rect id="button" ry="5" rx="5" y="6" x="6" height="38" width="38"
                fill="#f2f5e9" fill-opacity="0.5" stroke="#606060" stroke-width="1.0"/>
           <path id="arrow"
             d="M 11.500037,31.436501 C 11.940474,20.09759 22.043105,11.32322 32.158766,21.979434 L 37.068811,17.246167 C 37.068811,17.246167 37.088388,32 37.088388,32 L 22.160133,31.978069 C 22.160133,31.978069 26.997745,27.140456 26.997745,27.140456 C 18.528582,18.264221 13.291696,25.230495 11.500037,31.436501 z"
             style="fill:#404040;"/>
          </a>
         </g>
        </svg>
</svg>
