<?xml version="1.0" encoding="UTF-8" standalone="no"?>
<!DOCTYPE svg PUBLIC "-//W3C//DTD SVG 1.1//EN"
 "http://www.w3.org/Graphics/SVG/1.1/DTD/svg11.dtd">
<!-- Generated by graphviz version 2.46.0 (20210118.1747)
 -->
<!-- Title: C2M2.Interaction.RaycastPressEvents Pages: 1 -->
<svg width="169pt" height="314pt"
 viewBox="0.00 0.00 169.00 314.00" xmlns="http://www.w3.org/2000/svg" xmlns:xlink="http://www.w3.org/1999/xlink">
<g id="graph0" class="graph" transform="scale(1 1) rotate(0) translate(4 310)">
<title>C2M2.Interaction.RaycastPressEvents</title>
<polygon fill="white" stroke="transparent" points="-4,4 -4,-310 165,-310 165,4 -4,4"/>
<!-- Node1 -->
<g id="node1" class="node">
<title>Node1</title>
<g id="a_node1"><a xlink:title="Store custom events that the corresponding RaycastTriggerManager will invoke">
<polygon fill="#bfbfbf" stroke="black" points="0,-0.5 0,-211.5 161,-211.5 161,-0.5 0,-0.5"/>
<text text-anchor="start" x="8" y="-199.5" font-family="Courier New" font-size="10.00">C2M2.Interaction.Raycast</text>
<text text-anchor="middle" x="80.5" y="-188.5" font-family="Courier New" font-size="10.00">PressEvents</text>
<polyline fill="none" stroke="black" points="0,-181.5 161,-181.5 "/>
<text text-anchor="start" x="8" y="-169.5" font-family="Courier New" font-size="10.00">+ OnHover</text>
<text text-anchor="start" x="8" y="-158.5" font-family="Courier New" font-size="10.00">+ OnHoverEnd</text>
<text text-anchor="start" x="8" y="-147.5" font-family="Courier New" font-size="10.00">+ OnPress</text>
<text text-anchor="start" x="8" y="-136.5" font-family="Courier New" font-size="10.00">+ OnHoldPress</text>
<text text-anchor="start" x="8" y="-125.5" font-family="Courier New" font-size="10.00">+ OnEndPress</text>
<text text-anchor="start" x="8" y="-114.5" font-family="Courier New" font-size="10.00">&#45; onHover</text>
<text text-anchor="start" x="8" y="-103.5" font-family="Courier New" font-size="10.00">&#45; onHoverEnd</text>
<text text-anchor="start" x="8" y="-92.5" font-family="Courier New" font-size="10.00">&#45; onPress</text>
<text text-anchor="start" x="8" y="-81.5" font-family="Courier New" font-size="10.00">&#45; onHoldPress</text>
<text text-anchor="start" x="8" y="-70.5" font-family="Courier New" font-size="10.00">&#45; onEndPress</text>
<polyline fill="none" stroke="black" points="0,-63.5 161,-63.5 "/>
<text text-anchor="start" x="8" y="-51.5" font-family="Courier New" font-size="10.00">+ Hover()</text>
<text text-anchor="start" x="8" y="-40.5" font-family="Courier New" font-size="10.00">+ EndHover()</text>
<text text-anchor="start" x="8" y="-29.5" font-family="Courier New" font-size="10.00">+ Press()</text>
<text text-anchor="start" x="8" y="-18.5" font-family="Courier New" font-size="10.00">+ HoldPress()</text>
<text text-anchor="start" x="8" y="-7.5" font-family="Courier New" font-size="10.00">+ EndPress()</text>
</a>
</g>
</g>
<!-- Node2 -->
<g id="node2" class="node">
<title>Node2</title>
<g id="a_node2"><a xlink:title=" ">
<polygon fill="white" stroke="#bfbfbf" points="33,-248.5 33,-305.5 128,-305.5 128,-248.5 33,-248.5"/>
<text text-anchor="middle" x="80.5" y="-293.5" font-family="Courier New" font-size="10.00">MonoBehaviour</text>
<polyline fill="none" stroke="#bfbfbf" points="33,-286.5 128,-286.5 "/>
<text text-anchor="middle" x="80.5" y="-274.5" font-family="Courier New" font-size="10.00"> </text>
<polyline fill="none" stroke="#bfbfbf" points="33,-267.5 128,-267.5 "/>
<text text-anchor="middle" x="80.5" y="-255.5" font-family="Courier New" font-size="10.00"> </text>
</a>
</g>
</g>
<!-- Node2&#45;&gt;Node1 -->
<g id="edge1" class="edge">
<title>Node2&#45;&gt;Node1</title>
<path fill="none" stroke="midnightblue" d="M80.5,-238.23C80.5,-230.04 80.5,-220.99 80.5,-211.58"/>
<polygon fill="none" stroke="midnightblue" points="77,-238.47 80.5,-248.47 84,-238.47 77,-238.47"/>
</g>
</g>
</svg>
