<?xml version="1.0" encoding="UTF-8" standalone="no"?>
<!DOCTYPE svg PUBLIC "-//W3C//DTD SVG 1.1//EN"
 "http://www.w3.org/Graphics/SVG/1.1/DTD/svg11.dtd">
<!-- Generated by graphviz version 2.38.0 (20140413.2041)
 -->
<!-- Title: C2M2.Interaction.RaycastPressEvents Pages: 1 -->
<svg width="169pt" height="248pt"
 viewBox="0.00 0.00 169.00 248.00" xmlns="http://www.w3.org/2000/svg" xmlns:xlink="http://www.w3.org/1999/xlink">
<g id="graph0" class="graph" transform="scale(1 1) rotate(0) translate(4 244)">
<title>C2M2.Interaction.RaycastPressEvents</title>
<polygon fill="white" stroke="none" points="-4,4 -4,-244 165,-244 165,4 -4,4"/>
<!-- Node1 -->
<g id="node1" class="node"><title>Node1</title>
<g id="a_node1"><a xlink:title="Store custom events that the corresponding RaycastTriggerManager will invoke">
<polygon fill="#bfbfbf" stroke="black" points="0,-0.5 0,-145.5 161,-145.5 161,-0.5 0,-0.5"/>
<text text-anchor="start" x="8" y="-133.5" font-family="Courier New" font-size="10.00">C2M2.Interaction.Raycast</text>
<text text-anchor="middle" x="80.5" y="-122.5" font-family="Courier New" font-size="10.00">PressEvents</text>
<polyline fill="none" stroke="black" points="0,-115.5 161,-115.5 "/>
<text text-anchor="start" x="8" y="-103.5" font-family="Courier New" font-size="10.00">+ OnPress</text>
<text text-anchor="start" x="8" y="-92.5" font-family="Courier New" font-size="10.00">+ OnHoldPress</text>
<text text-anchor="start" x="8" y="-81.5" font-family="Courier New" font-size="10.00">+ OnEndPress</text>
<text text-anchor="start" x="8" y="-70.5" font-family="Courier New" font-size="10.00">&#45; onPress</text>
<text text-anchor="start" x="8" y="-59.5" font-family="Courier New" font-size="10.00">&#45; onHoldPress</text>
<text text-anchor="start" x="8" y="-48.5" font-family="Courier New" font-size="10.00">&#45; onEndPress</text>
<polyline fill="none" stroke="black" points="0,-41.5 161,-41.5 "/>
<text text-anchor="start" x="8" y="-29.5" font-family="Courier New" font-size="10.00">+ Press()</text>
<text text-anchor="start" x="8" y="-18.5" font-family="Courier New" font-size="10.00">+ HoldPress()</text>
<text text-anchor="start" x="8" y="-7.5" font-family="Courier New" font-size="10.00">+ EndPress()</text>
</a>
</g>
</g>
<!-- Node2 -->
<g id="node2" class="node"><title>Node2</title>
<g id="a_node2"><a xlink:title=" ">
<polygon fill="white" stroke="#bfbfbf" points="33,-182.5 33,-239.5 128,-239.5 128,-182.5 33,-182.5"/>
<text text-anchor="middle" x="80.5" y="-227.5" font-family="Courier New" font-size="10.00">MonoBehaviour</text>
<polyline fill="none" stroke="#bfbfbf" points="33,-220.5 128,-220.5 "/>
<text text-anchor="middle" x="80.5" y="-208.5" font-family="Courier New" font-size="10.00"> </text>
<polyline fill="none" stroke="#bfbfbf" points="33,-201.5 128,-201.5 "/>
<text text-anchor="middle" x="80.5" y="-189.5" font-family="Courier New" font-size="10.00"> </text>
</a>
</g>
</g>
<!-- Node2&#45;&gt;Node1 -->
<g id="edge1" class="edge"><title>Node2&#45;&gt;Node1</title>
<path fill="none" stroke="midnightblue" d="M80.5,-172.356C80.5,-163.999 80.5,-154.872 80.5,-145.656"/>
<polygon fill="none" stroke="midnightblue" points="77.0001,-172.478 80.5,-182.478 84.0001,-172.478 77.0001,-172.478"/>
</g>
</g>
</svg>
