<?xml version="1.0" encoding="UTF-8" standalone="no"?>
<!DOCTYPE svg PUBLIC "-//W3C//DTD SVG 1.1//EN"
 "http://www.w3.org/Graphics/SVG/1.1/DTD/svg11.dtd">
<!-- Generated by graphviz version 2.46.0 (20210118.1747)
 -->
<!-- Title: C2M2.NeuronalDynamics.Interaction.SwitchNeuronMesh Pages: 1 -->
<!--zoomable 1665 -->
<svg id="main" version="1.1" xmlns="http://www.w3.org/2000/svg" xmlns:xlink="http://www.w3.org/1999/xlink" xml:space="preserve" onload="init(evt)">
<style type="text/css"><![CDATA[
.edge:hover path { stroke: red; }
.edge:hover polygon { stroke: red; fill: red; }
]]></style>
<script type="text/javascript"><![CDATA[
var edges = document.getElementsByTagName('g');
if (edges && edges.length) {
  for (var i=0;i<edges.length;i++) {
    if (edges[i].id.substr(0,4)=='edge') {
      edges[i].setAttribute('class','edge');
    }
  }
}
]]></script>
        <defs>
                <circle id="rim" cx="0" cy="0" r="7"/>
                <circle id="rim2" cx="0" cy="0" r="3.5"/>
                <g id="zoomPlus">
                        <use xlink:href="#rim" fill="#404040">
                                <set attributeName="fill" to="#808080" begin="zoomplus.mouseover" end="zoomplus.mouseout"/>
                        </use>
                        <path d="M-4,0h8M0,-4v8" fill="none" stroke="white" stroke-width="1.5" pointer-events="none"/>
                </g>
                <g id="zoomMin">
                        <use xlink:href="#rim" fill="#404040">
                                <set attributeName="fill" to="#808080" begin="zoomminus.mouseover" end="zoomminus.mouseout"/>
                        </use>
                        <path d="M-4,0h8" fill="none" stroke="white" stroke-width="1.5" pointer-events="none"/>
                </g>
                <g id="dirArrow">
                        <path fill="none" stroke="white" stroke-width="1.5" d="M0,-3.0v7 M-2.5,-0.5L0,-3.0L2.5,-0.5"/>
                </g>
               <g id="resetDef">
                       <use xlink:href="#rim2" fill="#404040">
                               <set attributeName="fill" to="#808080" begin="reset.mouseover" end="reset.mouseout"/>
                       </use>
               </g>
        </defs>

<script type="text/javascript">
var viewWidth = 1390;
var viewHeight = 1665;
var sectionId = 'dynsection-1';
</script>
<script xlink:href="../../svgpan.js"/>
<svg id="graph" class="graph">
<g id="viewport">
<title>C2M2.NeuronalDynamics.Interaction.SwitchNeuronMesh</title>
<polygon fill="white" stroke="transparent" points="-4,4 -4,-1661 1386,-1661 1386,4 -4,4"/>
<!-- Node1 -->
<g id="node1" class="node">
<title>Node1</title>
<g id="a_node1"><a xlink:title=" ">
<polygon fill="#bfbfbf" stroke="black" points="0,-0.5 0,-79.5 221,-79.5 221,-0.5 0,-0.5"/>
<text text-anchor="start" x="8" y="-67.5" font-family="Courier New" font-size="10.00">C2M2.NeuronalDynamics.Interaction.</text>
<text text-anchor="middle" x="110.5" y="-56.5" font-family="Courier New" font-size="10.00">SwitchNeuronMesh</text>
<polyline fill="none" stroke="black" points="0,-49.5 221,-49.5 "/>
<text text-anchor="start" x="8" y="-37.5" font-family="Courier New" font-size="10.00">+ changeViz</text>
<text text-anchor="start" x="8" y="-26.5" font-family="Courier New" font-size="10.00">+ inflation</text>
<polyline fill="none" stroke="black" points="0,-19.5 221,-19.5 "/>
<text text-anchor="start" x="8" y="-7.5" font-family="Courier New" font-size="10.00">+ Switch()</text>
</a>
</g>
</g>
<!-- Node2 -->
<g id="node2" class="node">
<title>Node2</title>
<g id="a_node2"><a xlink:href="../../dd/df7/class_c2_m2_1_1_neuronal_dynamics_1_1_interaction_1_1_n_d_control_button.html" target="_top" xlink:title=" ">
<polygon fill="white" stroke="black" points="57,-117.5 57,-174.5 164,-174.5 164,-117.5 57,-117.5"/>
<text text-anchor="middle" x="110.5" y="-162.5" font-family="Courier New" font-size="10.00">NDControlButton</text>
<polyline fill="none" stroke="black" points="57,-155.5 164,-155.5 "/>
<text text-anchor="middle" x="110.5" y="-143.5" font-family="Courier New" font-size="10.00"> </text>
<polyline fill="none" stroke="black" points="57,-136.5 164,-136.5 "/>
<text text-anchor="middle" x="110.5" y="-124.5" font-family="Courier New" font-size="10.00"> </text>
</a>
</g>
</g>
<!-- Node2&#45;&gt;Node1 -->
<g id="edge1" class="edge">
<title>Node2&#45;&gt;Node1</title>
<path fill="none" stroke="midnightblue" d="M110.5,-107.23C110.5,-98.27 110.5,-88.69 110.5,-79.69"/>
<polygon fill="none" stroke="midnightblue" points="107,-107.4 110.5,-117.4 114,-107.4 107,-107.4"/>
</g>
<!-- Node3 -->
<g id="node3" class="node">
<title>Node3</title>
<g id="a_node3"><a xlink:title=" ">
<polygon fill="white" stroke="#bfbfbf" points="746,-1445 746,-1502 841,-1502 841,-1445 746,-1445"/>
<text text-anchor="middle" x="793.5" y="-1490" font-family="Courier New" font-size="10.00">MonoBehaviour</text>
<polyline fill="none" stroke="#bfbfbf" points="746,-1483 841,-1483 "/>
<text text-anchor="middle" x="793.5" y="-1471" font-family="Courier New" font-size="10.00"> </text>
<polyline fill="none" stroke="#bfbfbf" points="746,-1464 841,-1464 "/>
<text text-anchor="middle" x="793.5" y="-1452" font-family="Courier New" font-size="10.00"> </text>
</a>
</g>
</g>
<!-- Node3&#45;&gt;Node2 -->
<g id="edge2" class="edge">
<title>Node3&#45;&gt;Node2</title>
<path fill="none" stroke="midnightblue" d="M735.61,-1469.4C587.05,-1460.18 198.08,-1427.7 113.5,-1337 67.97,-1288.17 94.5,-1254.76 94.5,-1188 94.5,-1188 94.5,-1188 94.5,-464.5 94.5,-357.15 103.74,-229.65 108.17,-174.58"/>
<polygon fill="none" stroke="midnightblue" points="735.69,-1472.91 745.88,-1470.02 736.11,-1465.92 735.69,-1472.91"/>
</g>
<!-- Node7 -->
<g id="node7" class="node">
<title>Node7</title>
<g id="a_node7"><a xlink:href="../../da/d4f/class_c2_m2_1_1_visualization_1_1_l_u_t_gradient.html" target="_top" xlink:title="Create a fast and memory&#45;friendly color lookup table from a gradient">
<polygon fill="white" stroke="black" points="473,-1070.5 473,-1303.5 670,-1303.5 670,-1070.5 473,-1070.5"/>
<text text-anchor="middle" x="571.5" y="-1291.5" font-family="Courier New" font-size="10.00">C2M2.Visualization.LUTGradient</text>
<polyline fill="none" stroke="black" points="473,-1284.5 670,-1284.5 "/>
<text text-anchor="start" x="481" y="-1272.5" font-family="Courier New" font-size="10.00">+ extremaMethod</text>
<text text-anchor="start" x="481" y="-1261.5" font-family="Courier New" font-size="10.00">+ globalMax</text>
<text text-anchor="start" x="481" y="-1250.5" font-family="Courier New" font-size="10.00">+ globalMin</text>
<text text-anchor="start" x="481" y="-1239.5" font-family="Courier New" font-size="10.00">+ curMax</text>
<text text-anchor="start" x="481" y="-1228.5" font-family="Courier New" font-size="10.00">+ curMix</text>
<text text-anchor="start" x="481" y="-1217.5" font-family="Courier New" font-size="10.00">+ LutRes</text>
<text text-anchor="start" x="481" y="-1206.5" font-family="Courier New" font-size="10.00">+ Gradient</text>
<text text-anchor="start" x="481" y="-1195.5" font-family="Courier New" font-size="10.00">+ gradientLUT</text>
<text text-anchor="start" x="481" y="-1184.5" font-family="Courier New" font-size="10.00">+ oldMin</text>
<text text-anchor="start" x="481" y="-1173.5" font-family="Courier New" font-size="10.00">+ oldMax</text>
<text text-anchor="start" x="481" y="-1162.5" font-family="Courier New" font-size="10.00">&#45; lutRes</text>
<text text-anchor="start" x="481" y="-1151.5" font-family="Courier New" font-size="10.00">&#45; gradient</text>
<polyline fill="none" stroke="black" points="473,-1144.5 670,-1144.5 "/>
<text text-anchor="start" x="481" y="-1132.5" font-family="Courier New" font-size="10.00">+ Evaluate()</text>
<text text-anchor="start" x="481" y="-1121.5" font-family="Courier New" font-size="10.00">+ Evaluate()</text>
<text text-anchor="start" x="481" y="-1110.5" font-family="Courier New" font-size="10.00">+ EvaluateUnscaled()</text>
<text text-anchor="start" x="481" y="-1099.5" font-family="Courier New" font-size="10.00">+ GetMinMax()</text>
<text text-anchor="start" x="481" y="-1088.5" font-family="Courier New" font-size="10.00">&#45; BuildLUT()</text>
<text text-anchor="start" x="481" y="-1077.5" font-family="Courier New" font-size="10.00">&#45; RescaleArray()</text>
</a>
</g>
</g>
<!-- Node3&#45;&gt;Node7 -->
<g id="edge7" class="edge">
<title>Node3&#45;&gt;Node7</title>
<path fill="none" stroke="midnightblue" d="M765.7,-1436.87C739.61,-1403.44 699.13,-1351.56 661.87,-1303.81"/>
<polygon fill="none" stroke="midnightblue" points="763.1,-1439.23 772.01,-1444.96 768.62,-1434.93 763.1,-1439.23"/>
</g>
<!-- Node17 -->
<g id="node17" class="node">
<title>Node17</title>
<g id="a_node17"><a xlink:href="../../d5/df9/class_c2_m2_1_1_interaction_1_1_raycast_event_manager.html" target="_top" xlink:title="Attach this script to parent gameObject, create one child with one raycast trigger per child....">
<polygon fill="white" stroke="black" points="970,-773 970,-962 1131,-962 1131,-773 970,-773"/>
<text text-anchor="start" x="978" y="-950" font-family="Courier New" font-size="10.00">C2M2.Interaction.Raycast</text>
<text text-anchor="middle" x="1050.5" y="-939" font-family="Courier New" font-size="10.00">EventManager</text>
<polyline fill="none" stroke="black" points="970,-932 1131,-932 "/>
<text text-anchor="middle" x="1050.5" y="-920" font-family="Courier New" font-size="10.00"> </text>
<polyline fill="none" stroke="black" points="970,-913 1131,-913 "/>
<text text-anchor="start" x="978" y="-901" font-family="Courier New" font-size="10.00">+ TriggerChangeRight()</text>
<text text-anchor="start" x="978" y="-890" font-family="Courier New" font-size="10.00">+ TriggerChangeLeft()</text>
<text text-anchor="start" x="978" y="-879" font-family="Courier New" font-size="10.00">+ TriggerChangeBoth()</text>
<text text-anchor="start" x="978" y="-868" font-family="Courier New" font-size="10.00">+ TriggerEmptyRight()</text>
<text text-anchor="start" x="978" y="-857" font-family="Courier New" font-size="10.00">+ TriggerEmptyLeft()</text>
<text text-anchor="start" x="978" y="-846" font-family="Courier New" font-size="10.00">+ TriggerEmptyBoth()</text>
<text text-anchor="start" x="978" y="-835" font-family="Courier New" font-size="10.00">+ HoverEvent()</text>
<text text-anchor="start" x="978" y="-824" font-family="Courier New" font-size="10.00">+ HoverEndEvent()</text>
<text text-anchor="start" x="978" y="-813" font-family="Courier New" font-size="10.00">+ PressEvent()</text>
<text text-anchor="start" x="978" y="-802" font-family="Courier New" font-size="10.00">+ HoldEvent()</text>
<text text-anchor="start" x="978" y="-791" font-family="Courier New" font-size="10.00">and 7 more...</text>
<text text-anchor="start" x="978" y="-780" font-family="Courier New" font-size="10.00">&#45; Awake()</text>
</a>
</g>
</g>
<!-- Node3&#45;&gt;Node17 -->
<g id="edge18" class="edge">
<title>Node3&#45;&gt;Node17</title>
<path fill="none" stroke="midnightblue" d="M803.01,-1435.13C823.26,-1358.31 874.42,-1178.01 942.5,-1037 954.59,-1011.97 969.67,-986.13 984.69,-962.42"/>
<polygon fill="none" stroke="midnightblue" points="799.61,-1434.28 800.47,-1444.84 806.39,-1436.05 799.61,-1434.28"/>
</g>
<!-- Node18 -->
<g id="node18" class="node">
<title>Node18</title>
<g id="a_node18"><a xlink:href="../../d8/d68/class_c2_m2_1_1_interaction_1_1_raycast_press_events.html" target="_top" xlink:title="Store custom events that the corresponding RaycastTriggerManager will invoke">
<polygon fill="white" stroke="black" points="951,-1109 951,-1265 1112,-1265 1112,-1109 951,-1109"/>
<text text-anchor="start" x="959" y="-1253" font-family="Courier New" font-size="10.00">C2M2.Interaction.Raycast</text>
<text text-anchor="middle" x="1031.5" y="-1242" font-family="Courier New" font-size="10.00">PressEvents</text>
<polyline fill="none" stroke="black" points="951,-1235 1112,-1235 "/>
<text text-anchor="start" x="959" y="-1223" font-family="Courier New" font-size="10.00">+ OnHover</text>
<text text-anchor="start" x="959" y="-1212" font-family="Courier New" font-size="10.00">+ OnHoverEnd</text>
<text text-anchor="start" x="959" y="-1201" font-family="Courier New" font-size="10.00">+ OnPress</text>
<text text-anchor="start" x="959" y="-1190" font-family="Courier New" font-size="10.00">+ OnHoldPress</text>
<text text-anchor="start" x="959" y="-1179" font-family="Courier New" font-size="10.00">+ OnEndPress</text>
<polyline fill="none" stroke="black" points="951,-1172 1112,-1172 "/>
<text text-anchor="start" x="959" y="-1160" font-family="Courier New" font-size="10.00">+ Hover()</text>
<text text-anchor="start" x="959" y="-1149" font-family="Courier New" font-size="10.00">+ EndHover()</text>
<text text-anchor="start" x="959" y="-1138" font-family="Courier New" font-size="10.00">+ Press()</text>
<text text-anchor="start" x="959" y="-1127" font-family="Courier New" font-size="10.00">+ HoldPress()</text>
<text text-anchor="start" x="959" y="-1116" font-family="Courier New" font-size="10.00">+ EndPress()</text>
</a>
</g>
</g>
<!-- Node3&#45;&gt;Node18 -->
<g id="edge21" class="edge">
<title>Node3&#45;&gt;Node18</title>
<path fill="none" stroke="midnightblue" d="M849.98,-1446.15C867.17,-1436.39 885.26,-1424.19 899.5,-1410 941.19,-1368.46 974.83,-1311.16 997.71,-1265.18"/>
<polygon fill="none" stroke="midnightblue" points="848.17,-1443.15 841.1,-1451.03 851.54,-1449.28 848.17,-1443.15"/>
</g>
<!-- Node4 -->
<g id="node4" class="node">
<title>Node4</title>
<g id="a_node4"><a xlink:href="../../d7/d92/class_c2_m2_1_1_neuronal_dynamics_1_1_simulation_1_1_n_d_simulation.html" target="_top" xlink:title="Provide an interface for 1D neuron&#45;surface simulations to be visualized and interacted with">
<polygon fill="white" stroke="black" points="554,-222.5 554,-708.5 781,-708.5 781,-222.5 554,-222.5"/>
<text text-anchor="start" x="562" y="-696.5" font-family="Courier New" font-size="10.00">C2M2.NeuronalDynamics.Simulation.</text>
<text text-anchor="middle" x="667.5" y="-685.5" font-family="Courier New" font-size="10.00">NDSimulation</text>
<polyline fill="none" stroke="black" points="554,-678.5 781,-678.5 "/>
<text text-anchor="start" x="562" y="-666.5" font-family="Courier New" font-size="10.00">+ visualize1D</text>
<text text-anchor="start" x="562" y="-655.5" font-family="Courier New" font-size="10.00">+ color1D</text>
<text text-anchor="start" x="562" y="-644.5" font-family="Courier New" font-size="10.00">+ lineWidth1D</text>
<text text-anchor="start" x="562" y="-633.5" font-family="Courier New" font-size="10.00">+ vrnFileName</text>
<text text-anchor="start" x="562" y="-622.5" font-family="Courier New" font-size="10.00">+ hitValue</text>
<text text-anchor="start" x="562" y="-611.5" font-family="Courier New" font-size="10.00">+ clamps</text>
<text text-anchor="start" x="562" y="-600.5" font-family="Courier New" font-size="10.00">+ VisualInflation</text>
<text text-anchor="start" x="562" y="-589.5" font-family="Courier New" font-size="10.00">+ ColliderInflation</text>
<text text-anchor="start" x="562" y="-578.5" font-family="Courier New" font-size="10.00">+ RefinementLevel</text>
<text text-anchor="start" x="562" y="-567.5" font-family="Courier New" font-size="10.00">+ ClampMode</text>
<text text-anchor="start" x="562" y="-556.5" font-family="Courier New" font-size="10.00">+ VrnReader</text>
<text text-anchor="start" x="562" y="-545.5" font-family="Courier New" font-size="10.00">+ Grid1D</text>
<text text-anchor="start" x="562" y="-534.5" font-family="Courier New" font-size="10.00">+ Verts1D</text>
<text text-anchor="start" x="562" y="-523.5" font-family="Courier New" font-size="10.00">+ Grid2D</text>
<text text-anchor="start" x="562" y="-512.5" font-family="Courier New" font-size="10.00">+ NeuronCell</text>
<text text-anchor="start" x="562" y="-501.5" font-family="Courier New" font-size="10.00">+ AverageDendriteRadius</text>
<text text-anchor="start" x="562" y="-490.5" font-family="Courier New" font-size="10.00">+ Map</text>
<text text-anchor="start" x="562" y="-479.5" font-family="Courier New" font-size="10.00">+ Mapping</text>
<text text-anchor="start" x="562" y="-468.5" font-family="Courier New" font-size="10.00">+ Scalars3D</text>
<text text-anchor="start" x="562" y="-457.5" font-family="Courier New" font-size="10.00">&#45; visualInflation</text>
<text text-anchor="start" x="562" y="-446.5" font-family="Courier New" font-size="10.00">&#45; colliderInflation</text>
<text text-anchor="start" x="562" y="-435.5" font-family="Courier New" font-size="10.00">&#45; refinementLevel</text>
<text text-anchor="start" x="562" y="-424.5" font-family="Courier New" font-size="10.00">&#45; meshCache</text>
<text text-anchor="start" x="562" y="-413.5" font-family="Courier New" font-size="10.00">&#45; clampMode</text>
<text text-anchor="start" x="562" y="-402.5" font-family="Courier New" font-size="10.00">&#45; averageDendriteRadius</text>
<text text-anchor="start" x="562" y="-391.5" font-family="Courier New" font-size="10.00">&#45; scalars3D</text>
<polyline fill="none" stroke="black" points="554,-384.5 781,-384.5 "/>
<text text-anchor="start" x="562" y="-372.5" font-family="Courier New" font-size="10.00">+ OnVisualInflationChangeDelegate()</text>
<text text-anchor="start" x="562" y="-361.5" font-family="Courier New" font-size="10.00">+ GetValues()</text>
<text text-anchor="start" x="562" y="-350.5" font-family="Courier New" font-size="10.00">+ SetValues()</text>
<text text-anchor="start" x="562" y="-339.5" font-family="Courier New" font-size="10.00">+ SetValues()</text>
<text text-anchor="start" x="562" y="-328.5" font-family="Courier New" font-size="10.00">+ Set1DValues()</text>
<text text-anchor="start" x="562" y="-317.5" font-family="Courier New" font-size="10.00">+ Get1DValues()</text>
<text text-anchor="start" x="562" y="-306.5" font-family="Courier New" font-size="10.00">+ SwitchColliderMesh()</text>
<text text-anchor="start" x="562" y="-295.5" font-family="Courier New" font-size="10.00">+ SwitchMesh()</text>
<text text-anchor="start" x="562" y="-284.5" font-family="Courier New" font-size="10.00"># OnAwakePre()</text>
<text text-anchor="start" x="562" y="-273.5" font-family="Courier New" font-size="10.00"># OnStart()</text>
<text text-anchor="start" x="562" y="-262.5" font-family="Courier New" font-size="10.00"># BuildVisualization()</text>
<text text-anchor="start" x="562" y="-251.5" font-family="Courier New" font-size="10.00">&#45; CheckMeshCache()</text>
<text text-anchor="start" x="562" y="-240.5" font-family="Courier New" font-size="10.00">&#45; UpdateGrid1D()</text>
<text text-anchor="start" x="562" y="-229.5" font-family="Courier New" font-size="10.00">&#45; Update2DGrid()</text>
</a>
</g>
</g>
<!-- Node4&#45;&gt;Node2 -->
<g id="edge3" class="edge">
<title>Node4&#45;&gt;Node2</title>
<path fill="none" stroke="#404040" d="M553.78,-399.67C437.28,-333.27 260.73,-232.64 169.58,-180.68"/>
<polygon fill="none" stroke="#404040" points="169.32,-180.53 162.13,-181.03 158.9,-174.59 166.09,-174.08 169.32,-180.53"/>
<text text-anchor="middle" x="247" y="-196" font-family="Courier New" font-size="10.00"> +ndSimulation</text>
</g>
<!-- Node5 -->
<g id="node5" class="node">
<title>Node5</title>
<g id="a_node5"><a xlink:href="../../d6/d2d/class_c2_m2_1_1_simulation_1_1_mesh_simulation.html" target="_top" xlink:title="Simulation of type double[] for visualizing scalar fields on mesh surfaces">
<polygon fill="white" stroke="black" points="123,-767.5 123,-967.5 278,-967.5 278,-767.5 123,-767.5"/>
<text text-anchor="middle" x="200.5" y="-955.5" font-family="Courier New" font-size="10.00">MeshSimulation</text>
<polyline fill="none" stroke="black" points="123,-948.5 278,-948.5 "/>
<text text-anchor="start" x="131" y="-936.5" font-family="Courier New" font-size="10.00">+ gradient</text>
<text text-anchor="start" x="131" y="-925.5" font-family="Courier New" font-size="10.00">+ globalMax</text>
<text text-anchor="start" x="131" y="-914.5" font-family="Courier New" font-size="10.00">+ globalMin</text>
<text text-anchor="start" x="131" y="-903.5" font-family="Courier New" font-size="10.00">+ rulerInitPos</text>
<text text-anchor="start" x="131" y="-892.5" font-family="Courier New" font-size="10.00">+ rulerInitRot</text>
<text text-anchor="start" x="131" y="-881.5" font-family="Courier New" font-size="10.00">+ colorLUT</text>
<text text-anchor="start" x="131" y="-870.5" font-family="Courier New" font-size="10.00">+ VisualMesh</text>
<text text-anchor="start" x="131" y="-859.5" font-family="Courier New" font-size="10.00">+ ColliderMesh</text>
<text text-anchor="start" x="131" y="-848.5" font-family="Courier New" font-size="10.00">&#45; visualMesh</text>
<text text-anchor="start" x="131" y="-837.5" font-family="Courier New" font-size="10.00">&#45; colliderMesh</text>
<text text-anchor="start" x="131" y="-826.5" font-family="Courier New" font-size="10.00">&#45; mf</text>
<text text-anchor="start" x="131" y="-815.5" font-family="Courier New" font-size="10.00">&#45; mr</text>
<polyline fill="none" stroke="black" points="123,-808.5 278,-808.5 "/>
<text text-anchor="start" x="131" y="-796.5" font-family="Courier New" font-size="10.00"># UpdateVisualization()</text>
<text text-anchor="start" x="131" y="-785.5" font-family="Courier New" font-size="10.00"># OnAwakePost()</text>
<text text-anchor="start" x="131" y="-774.5" font-family="Courier New" font-size="10.00">&#45; UpdateVisualization()</text>
</a>
</g>
</g>
<!-- Node5&#45;&gt;Node4 -->
<g id="edge4" class="edge">
<title>Node5&#45;&gt;Node4</title>
<path fill="none" stroke="midnightblue" d="M285.45,-768.01C285.8,-767.67 286.15,-767.34 286.5,-767 370.84,-686.37 475.44,-605.03 553.69,-547.35"/>
<polygon fill="none" stroke="midnightblue" points="282.74,-765.76 278.08,-775.27 287.66,-770.75 282.74,-765.76"/>
</g>
<!-- Node6 -->
<g id="node6" class="node">
<title>Node6</title>
<g id="a_node6"><a xlink:href="../../db/d39/class_c2_m2_1_1_simulation_1_1_simulation.html" target="_top" xlink:title=" ">
<polygon fill="white" stroke="black" points="123,-1037.5 123,-1336.5 308,-1336.5 308,-1037.5 123,-1037.5"/>
<text text-anchor="start" x="131" y="-1324.5" font-family="Courier New" font-size="10.00">Simulation&lt; double</text>
<text text-anchor="start" x="131" y="-1313.5" font-family="Courier New" font-size="10.00">[], Mesh, VRRaycastableMesh,</text>
<text text-anchor="middle" x="215.5" y="-1302.5" font-family="Courier New" font-size="10.00"> VRGrabbableMesh &gt;</text>
<polyline fill="none" stroke="black" points="123,-1295.5 308,-1295.5 "/>
<text text-anchor="start" x="131" y="-1283.5" font-family="Courier New" font-size="10.00">+ dryRun</text>
<text text-anchor="start" x="131" y="-1272.5" font-family="Courier New" font-size="10.00">+ startOnAwake</text>
<text text-anchor="start" x="131" y="-1261.5" font-family="Courier New" font-size="10.00">+ viz</text>
<text text-anchor="start" x="131" y="-1250.5" font-family="Courier New" font-size="10.00"># mutex</text>
<text text-anchor="start" x="131" y="-1239.5" font-family="Courier New" font-size="10.00">&#45; solveThread</text>
<polyline fill="none" stroke="black" points="123,-1232.5 308,-1232.5 "/>
<text text-anchor="start" x="131" y="-1220.5" font-family="Courier New" font-size="10.00">+ GetValues()</text>
<text text-anchor="start" x="131" y="-1209.5" font-family="Courier New" font-size="10.00">+ Initialize()</text>
<text text-anchor="start" x="131" y="-1198.5" font-family="Courier New" font-size="10.00">+ Update()</text>
<text text-anchor="start" x="131" y="-1187.5" font-family="Courier New" font-size="10.00">+ StartSimulation()</text>
<text text-anchor="start" x="131" y="-1176.5" font-family="Courier New" font-size="10.00">+ StopSimulation()</text>
<text text-anchor="start" x="131" y="-1165.5" font-family="Courier New" font-size="10.00"># BuildVisualization()</text>
<text text-anchor="start" x="131" y="-1154.5" font-family="Courier New" font-size="10.00"># UpdateVisualization()</text>
<text text-anchor="start" x="131" y="-1143.5" font-family="Courier New" font-size="10.00"># Solve()</text>
<text text-anchor="start" x="131" y="-1132.5" font-family="Courier New" font-size="10.00"># PreSolve()</text>
<text text-anchor="start" x="131" y="-1121.5" font-family="Courier New" font-size="10.00"># OnAwakePre()</text>
<text text-anchor="start" x="131" y="-1110.5" font-family="Courier New" font-size="10.00"># OnAwakePost()</text>
<text text-anchor="start" x="131" y="-1099.5" font-family="Courier New" font-size="10.00"># OnStart()</text>
<text text-anchor="start" x="131" y="-1088.5" font-family="Courier New" font-size="10.00"># OnUpdate()</text>
<text text-anchor="start" x="131" y="-1077.5" font-family="Courier New" font-size="10.00"># OnPause()</text>
<text text-anchor="start" x="131" y="-1066.5" font-family="Courier New" font-size="10.00"># OnQuit()</text>
<text text-anchor="start" x="131" y="-1055.5" font-family="Courier New" font-size="10.00">&#45; OnApplicationPause()</text>
<text text-anchor="start" x="131" y="-1044.5" font-family="Courier New" font-size="10.00">&#45; OnApplicationQuit()</text>
</a>
</g>
</g>
<!-- Node6&#45;&gt;Node5 -->
<g id="edge5" class="edge">
<title>Node6&#45;&gt;Node5</title>
<path fill="none" stroke="midnightblue" d="M208.01,-1027.45C207.04,-1007.03 206.08,-986.6 205.18,-967.52"/>
<polygon fill="none" stroke="midnightblue" points="204.51,-1027.65 208.48,-1037.48 211.51,-1027.32 204.51,-1027.65"/>
</g>
<!-- Node7&#45;&gt;Node5 -->
<g id="edge6" class="edge">
<title>Node7&#45;&gt;Node5</title>
<path fill="none" stroke="#404040" d="M472.86,-1118.24C418.62,-1079.22 351.04,-1027.66 287.03,-968.22"/>
<polygon fill="none" stroke="#404040" points="286.78,-967.99 279.67,-966.8 278.02,-959.78 285.14,-960.97 286.78,-967.99"/>
<text text-anchor="middle" x="384" y="-1000" font-family="Courier New" font-size="10.00"> +extremaMethod</text>
</g>
<!-- Node8 -->
<g id="node8" class="node">
<title>Node8</title>
<g id="a_node8"><a xlink:href="../../da/df6/class_c2_m2_1_1_neuronal_dynamics_1_1_u_g_x_1_1_neuron_cell.html" target="_top" xlink:title=" ">
<polygon fill="white" stroke="black" points="296,-773 296,-962 469,-962 469,-773 296,-773"/>
<text text-anchor="start" x="304" y="-950" font-family="Courier New" font-size="10.00">C2M2.NeuronalDynamics.UGX.</text>
<text text-anchor="middle" x="382.5" y="-939" font-family="Courier New" font-size="10.00">NeuronCell</text>
<polyline fill="none" stroke="black" points="296,-932 469,-932 "/>
<text text-anchor="start" x="304" y="-920" font-family="Courier New" font-size="10.00">+ nodeData</text>
<text text-anchor="start" x="304" y="-909" font-family="Courier New" font-size="10.00">+ edges</text>
<text text-anchor="start" x="304" y="-898" font-family="Courier New" font-size="10.00">+ edgeLengths</text>
<text text-anchor="start" x="304" y="-887" font-family="Courier New" font-size="10.00">+ boundaryID</text>
<text text-anchor="start" x="304" y="-876" font-family="Courier New" font-size="10.00">+ somaID</text>
<text text-anchor="start" x="304" y="-865" font-family="Courier New" font-size="10.00">+ vertCount</text>
<text text-anchor="start" x="304" y="-854" font-family="Courier New" font-size="10.00">+ edgeCount</text>
<polyline fill="none" stroke="black" points="296,-847 469,-847 "/>
<text text-anchor="start" x="304" y="-835" font-family="Courier New" font-size="10.00">+ NeuronCell()</text>
<text text-anchor="start" x="304" y="-824" font-family="Courier New" font-size="10.00">+ NodeToString()</text>
<text text-anchor="start" x="304" y="-813" font-family="Courier New" font-size="10.00">+ EdgeToString()</text>
<text text-anchor="start" x="304" y="-802" font-family="Courier New" font-size="10.00">+ ToString()</text>
<text text-anchor="start" x="304" y="-791" font-family="Courier New" font-size="10.00">+ GetEdgeLength()</text>
<text text-anchor="start" x="304" y="-780" font-family="Courier New" font-size="10.00">&#45; NodeNeighborsToString()</text>
</a>
</g>
</g>
<!-- Node8&#45;&gt;Node4 -->
<g id="edge8" class="edge">
<title>Node8&#45;&gt;Node4</title>
<path fill="none" stroke="#404040" d="M449.14,-772.97C478.24,-732.12 513.31,-682.91 546.73,-636"/>
<polygon fill="none" stroke="#404040" points="546.88,-635.8 547.1,-628.59 553.84,-626.02 553.62,-633.23 546.88,-635.8"/>
<text text-anchor="middle" x="511" y="-735.5" font-family="Courier New" font-size="10.00"> &#45;neuronCell</text>
</g>
<!-- Node9 -->
<g id="node9" class="node">
<title>Node9</title>
<g id="a_node9"><a xlink:title=" ">
<polygon fill="white" stroke="#bfbfbf" points="762,-1158.5 762,-1215.5 815,-1215.5 815,-1158.5 762,-1158.5"/>
<text text-anchor="middle" x="788.5" y="-1203.5" font-family="Courier New" font-size="10.00">static</text>
<polyline fill="none" stroke="#bfbfbf" points="762,-1196.5 815,-1196.5 "/>
<text text-anchor="middle" x="788.5" y="-1184.5" font-family="Courier New" font-size="10.00"> </text>
<polyline fill="none" stroke="#bfbfbf" points="762,-1177.5 815,-1177.5 "/>
<text text-anchor="middle" x="788.5" y="-1165.5" font-family="Courier New" font-size="10.00"> </text>
</a>
</g>
</g>
<!-- Node9&#45;&gt;Node8 -->
<g id="edge9" class="edge">
<title>Node9&#45;&gt;Node8</title>
<path fill="none" stroke="#404040" d="M775.02,-1158.38C757.44,-1125.07 723.63,-1069.51 679.5,-1037 606.5,-983.22 561.85,-1015.86 479.66,-968.07"/>
<polygon fill="none" stroke="#404040" points="479.41,-967.92 472.21,-968.2 469.18,-961.66 476.38,-961.38 479.41,-967.92"/>
<text text-anchor="middle" x="703" y="-1011" font-family="Courier New" font-size="10.00"> &#45;cellFormatString</text>
<text text-anchor="middle" x="703" y="-1000" font-family="Courier New" font-size="10.00">&#45;edgeFormatString</text>
<text text-anchor="middle" x="703" y="-989" font-family="Courier New" font-size="10.00">&#45;nodeFormatString</text>
</g>
<!-- Node9&#45;&gt;Node17 -->
<g id="edge19" class="edge">
<title>Node9&#45;&gt;Node17</title>
<path fill="none" stroke="#404040" d="M782.99,-1158.18C776.18,-1114.78 770.53,-1031.26 816.5,-986 837.65,-965.18 917.25,-979.96 960.35,-966.7"/>
<polygon fill="none" stroke="#404040" points="960.35,-966.7 964.39,-960.72 971.46,-962.16 967.42,-968.13 960.35,-966.7"/>
<text text-anchor="middle" x="844" y="-1000" font-family="Courier New" font-size="10.00"> &#45;nullHit</text>
</g>
<!-- Node10 -->
<g id="node10" class="node">
<title>Node10</title>
<g id="a_node10"><a xlink:href="../../db/dbd/struct_c2_m2_1_1_neuronal_dynamics_1_1_simulation_1_1_vert3_d1_d_pair.html" target="_top" xlink:title="Stores two 1D indices and a lambda value for a 3D vertex">
<polygon fill="white" stroke="black" points="487,-817 487,-918 702,-918 702,-817 487,-817"/>
<text text-anchor="start" x="495" y="-906" font-family="Courier New" font-size="10.00">C2M2.NeuronalDynamics.Simulation.</text>
<text text-anchor="middle" x="594.5" y="-895" font-family="Courier New" font-size="10.00">Vert3D1DPair</text>
<polyline fill="none" stroke="black" points="487,-888 702,-888 "/>
<text text-anchor="start" x="495" y="-876" font-family="Courier New" font-size="10.00">+ v1</text>
<text text-anchor="start" x="495" y="-865" font-family="Courier New" font-size="10.00">+ v2</text>
<text text-anchor="start" x="495" y="-854" font-family="Courier New" font-size="10.00">+ lambda</text>
<polyline fill="none" stroke="black" points="487,-847 702,-847 "/>
<text text-anchor="start" x="495" y="-835" font-family="Courier New" font-size="10.00">+ Vert3D1DPair()</text>
<text text-anchor="start" x="495" y="-824" font-family="Courier New" font-size="10.00">+ ToString()</text>
</a>
</g>
</g>
<!-- Node10&#45;&gt;Node4 -->
<g id="edge10" class="edge">
<title>Node10&#45;&gt;Node4</title>
<path fill="none" stroke="#404040" d="M603.6,-816.65C608.32,-790.76 614.49,-756.96 621.13,-720.58"/>
<polygon fill="none" stroke="#404040" points="621.15,-720.49 618.29,-713.87 623.3,-708.68 626.16,-715.3 621.15,-720.49"/>
<text text-anchor="middle" x="633" y="-735.5" font-family="Courier New" font-size="10.00"> &#45;map</text>
</g>
<!-- Node11 -->
<g id="node11" class="node">
<title>Node11</title>
<g id="a_node11"><a xlink:title=" ">
<polygon fill="white" stroke="#bfbfbf" points="720,-839 720,-896 761,-896 761,-839 720,-839"/>
<text text-anchor="middle" x="740.5" y="-884" font-family="Courier New" font-size="10.00">C2M2</text>
<polyline fill="none" stroke="#bfbfbf" points="720,-877 761,-877 "/>
<text text-anchor="middle" x="740.5" y="-865" font-family="Courier New" font-size="10.00"> </text>
<polyline fill="none" stroke="#bfbfbf" points="720,-858 761,-858 "/>
<text text-anchor="middle" x="740.5" y="-846" font-family="Courier New" font-size="10.00"> </text>
</a>
</g>
</g>
<!-- Node11&#45;&gt;Node4 -->
<g id="edge11" class="edge">
<title>Node11&#45;&gt;Node4</title>
<path fill="none" stroke="#404040" d="M735.42,-838.69C730.54,-811.93 722.63,-768.57 713.9,-720.72"/>
<polygon fill="none" stroke="#404040" points="713.88,-720.61 708.86,-715.43 711.72,-708.81 716.73,-713.99 713.88,-720.61"/>
<text text-anchor="middle" x="743" y="-741" font-family="Courier New" font-size="10.00"> &#45;grid1D</text>
<text text-anchor="middle" x="743" y="-730" font-family="Courier New" font-size="10.00">&#45;grid2D</text>
</g>
<!-- Node12 -->
<g id="node12" class="node">
<title>Node12</title>
<g id="a_node12"><a xlink:href="../../dd/d2a/struct_c2_m2_1_1_neuronal_dynamics_1_1_u_g_x_1_1_mapping_info.html" target="_top" xlink:title="Encapsulates the grids and mapping data">
<polygon fill="white" stroke="black" points="779,-822.5 779,-912.5 952,-912.5 952,-822.5 779,-822.5"/>
<text text-anchor="start" x="787" y="-900.5" font-family="Courier New" font-size="10.00">C2M2.NeuronalDynamics.UGX.</text>
<text text-anchor="middle" x="865.5" y="-889.5" font-family="Courier New" font-size="10.00">MappingInfo</text>
<polyline fill="none" stroke="black" points="779,-882.5 952,-882.5 "/>
<text text-anchor="start" x="787" y="-870.5" font-family="Courier New" font-size="10.00">+ ModelGeometry</text>
<text text-anchor="start" x="787" y="-859.5" font-family="Courier New" font-size="10.00">+ SurfaceGeometry</text>
<text text-anchor="start" x="787" y="-848.5" font-family="Courier New" font-size="10.00">+ Data</text>
<polyline fill="none" stroke="black" points="779,-841.5 952,-841.5 "/>
<text text-anchor="start" x="787" y="-829.5" font-family="Courier New" font-size="10.00">+ MappingInfo()</text>
</a>
</g>
</g>
<!-- Node12&#45;&gt;Node4 -->
<g id="edge12" class="edge">
<title>Node12&#45;&gt;Node4</title>
<path fill="none" stroke="#404040" d="M843.55,-822.16C828.9,-792.57 808.36,-751.07 786.46,-706.82"/>
<polygon fill="none" stroke="#404040" points="786.34,-706.58 780.09,-702.98 781.02,-695.83 787.26,-699.43 786.34,-706.58"/>
<text text-anchor="middle" x="834" y="-735.5" font-family="Courier New" font-size="10.00"> &#45;mapping</text>
</g>
<!-- Node13 -->
<g id="node13" class="node">
<title>Node13</title>
<g id="a_node13"><a xlink:href="../../d1/d08/class_c2_m2_1_1_neuronal_dynamics_1_1_visualization_1_1_v_r_n_1_1_vrn_reader.html" target="_top" xlink:title=" ">
<polygon fill="white" stroke="black" points="1149,-800.5 1149,-934.5 1382,-934.5 1382,-800.5 1149,-800.5"/>
<text text-anchor="start" x="1157" y="-922.5" font-family="Courier New" font-size="10.00">C2M2.NeuronalDynamics.Visualization.</text>
<text text-anchor="middle" x="1265.5" y="-911.5" font-family="Courier New" font-size="10.00">VRN.VrnReader</text>
<polyline fill="none" stroke="black" points="1149,-904.5 1382,-904.5 "/>
<text text-anchor="start" x="1157" y="-892.5" font-family="Courier New" font-size="10.00">&#45; fileName</text>
<text text-anchor="start" x="1157" y="-881.5" font-family="Courier New" font-size="10.00">&#45; loaded</text>
<polyline fill="none" stroke="black" points="1149,-874.5 1382,-874.5 "/>
<text text-anchor="start" x="1157" y="-862.5" font-family="Courier New" font-size="10.00">+ List()</text>
<text text-anchor="start" x="1157" y="-851.5" font-family="Courier New" font-size="10.00">+ ReadUGX()</text>
<text text-anchor="start" x="1157" y="-840.5" font-family="Courier New" font-size="10.00">+ Retrieve1DMeshName()</text>
<text text-anchor="start" x="1157" y="-829.5" font-family="Courier New" font-size="10.00">+ Retrieve2DMeshName()</text>
<text text-anchor="start" x="1157" y="-818.5" font-family="Courier New" font-size="10.00">+ VrnReader()</text>
<text text-anchor="start" x="1157" y="-807.5" font-family="Courier New" font-size="10.00">&#45; Load()</text>
</a>
</g>
</g>
<!-- Node13&#45;&gt;Node4 -->
<g id="edge13" class="edge">
<title>Node13&#45;&gt;Node4</title>
<path fill="none" stroke="#404040" d="M1185.1,-800.46C1170.47,-789.03 1155.18,-777.46 1140.5,-767 1025.26,-684.88 888.28,-599.07 791.47,-540.27"/>
<polygon fill="none" stroke="#404040" points="791.31,-540.18 784.1,-540.49 781.05,-533.95 788.25,-533.65 791.31,-540.18"/>
<text text-anchor="middle" x="1136" y="-735.5" font-family="Courier New" font-size="10.00"> &#45;vrnReader</text>
</g>
<!-- Node14 -->
<g id="node14" class="node">
<title>Node14</title>
<g id="a_node14"><a xlink:href="../../d9/d5c/class_c2_m2_1_1_neuronal_dynamics_1_1_visualization_1_1_v_r_n_1_1_vrn_reader_1_1_geometry.html" target="_top" xlink:title="Stores 1D and associated 2D geometries in the member geom1d">
<polygon fill="white" stroke="black" points="1149,-1153 1149,-1221 1382,-1221 1382,-1153 1149,-1153"/>
<text text-anchor="start" x="1157" y="-1209" font-family="Courier New" font-size="10.00">C2M2.NeuronalDynamics.Visualization.</text>
<text text-anchor="middle" x="1265.5" y="-1198" font-family="Courier New" font-size="10.00">VRN.VrnReader.Geometry</text>
<polyline fill="none" stroke="black" points="1149,-1191 1382,-1191 "/>
<text text-anchor="middle" x="1265.5" y="-1179" font-family="Courier New" font-size="10.00"> </text>
<polyline fill="none" stroke="black" points="1149,-1172 1382,-1172 "/>
<text text-anchor="start" x="1157" y="-1160" font-family="Courier New" font-size="10.00">+ Geometry()</text>
</a>
</g>
</g>
<!-- Node14&#45;&gt;Node13 -->
<g id="edge14" class="edge">
<title>Node14&#45;&gt;Node13</title>
<path fill="none" stroke="#404040" d="M1265.5,-1152.92C1265.5,-1104.48 1265.5,-1012.81 1265.5,-946.61"/>
<polygon fill="none" stroke="#404040" points="1265.5,-946.57 1261.5,-940.57 1265.5,-934.57 1269.5,-940.57 1265.5,-946.57"/>
<text text-anchor="middle" x="1296" y="-1000" font-family="Courier New" font-size="10.00"> &#45;geometry</text>
</g>
<!-- Node15 -->
<g id="node15" class="node">
<title>Node15</title>
<g id="a_node15"><a xlink:href="../../dd/df0/struct_c2_m2_1_1_neuronal_dynamics_1_1_visualization_1_1_v_r_n_1_1_vrn_reader_1_1_geom1d.html" target="_top" xlink:title="Stores the 1D geometries by name, refinement and a description Inflations are attached to the 1D geom...">
<polygon fill="white" stroke="black" points="1149,-1428.5 1149,-1518.5 1382,-1518.5 1382,-1428.5 1149,-1428.5"/>
<text text-anchor="start" x="1157" y="-1506.5" font-family="Courier New" font-size="10.00">C2M2.NeuronalDynamics.Visualization.</text>
<text text-anchor="middle" x="1265.5" y="-1495.5" font-family="Courier New" font-size="10.00">VRN.VrnReader.Geom1d</text>
<polyline fill="none" stroke="black" points="1149,-1488.5 1382,-1488.5 "/>
<text text-anchor="start" x="1157" y="-1476.5" font-family="Courier New" font-size="10.00">+ name</text>
<text text-anchor="start" x="1157" y="-1465.5" font-family="Courier New" font-size="10.00">+ refinement</text>
<text text-anchor="start" x="1157" y="-1454.5" font-family="Courier New" font-size="10.00">+ description</text>
<polyline fill="none" stroke="black" points="1149,-1447.5 1382,-1447.5 "/>
<text text-anchor="start" x="1157" y="-1435.5" font-family="Courier New" font-size="10.00">+ Geom1d()</text>
</a>
</g>
</g>
<!-- Node15&#45;&gt;Node14 -->
<g id="edge15" class="edge">
<title>Node15&#45;&gt;Node14</title>
<path fill="none" stroke="#404040" d="M1265.5,-1428.36C1265.5,-1375.33 1265.5,-1286.84 1265.5,-1233.3"/>
<polygon fill="none" stroke="#404040" points="1265.5,-1233.13 1261.5,-1227.13 1265.5,-1221.13 1269.5,-1227.13 1265.5,-1233.13"/>
<text text-anchor="middle" x="1290" y="-1380" font-family="Courier New" font-size="10.00"> +geom1d</text>
</g>
<!-- Node16 -->
<g id="node16" class="node">
<title>Node16</title>
<g id="a_node16"><a xlink:href="../../d8/daf/struct_c2_m2_1_1_neuronal_dynamics_1_1_visualization_1_1_v_r_n_1_1_vrn_reader_1_1_geom2d.html" target="_top" xlink:title="Stores the 2d geometries by name, inflation (factor), and description">
<polygon fill="white" stroke="black" points="1149,-1566.5 1149,-1656.5 1382,-1656.5 1382,-1566.5 1149,-1566.5"/>
<text text-anchor="start" x="1157" y="-1644.5" font-family="Courier New" font-size="10.00">C2M2.NeuronalDynamics.Visualization.</text>
<text text-anchor="middle" x="1265.5" y="-1633.5" font-family="Courier New" font-size="10.00">VRN.VrnReader.Geom2d</text>
<polyline fill="none" stroke="black" points="1149,-1626.5 1382,-1626.5 "/>
<text text-anchor="start" x="1157" y="-1614.5" font-family="Courier New" font-size="10.00">+ inflation</text>
<text text-anchor="start" x="1157" y="-1603.5" font-family="Courier New" font-size="10.00">+ name</text>
<text text-anchor="start" x="1157" y="-1592.5" font-family="Courier New" font-size="10.00">+ description</text>
<polyline fill="none" stroke="black" points="1149,-1585.5 1382,-1585.5 "/>
<text text-anchor="start" x="1157" y="-1573.5" font-family="Courier New" font-size="10.00">+ Geom2d()</text>
</a>
</g>
</g>
<!-- Node16&#45;&gt;Node15 -->
<g id="edge16" class="edge">
<title>Node16&#45;&gt;Node15</title>
<path fill="none" stroke="#404040" d="M1265.5,-1566.34C1265.5,-1555.06 1265.5,-1542.78 1265.5,-1530.97"/>
<polygon fill="none" stroke="#404040" points="1265.5,-1530.9 1261.5,-1524.9 1265.5,-1518.9 1269.5,-1524.9 1265.5,-1530.9"/>
<text text-anchor="middle" x="1302" y="-1540" font-family="Courier New" font-size="10.00"> +inflations</text>
</g>
<!-- Node17&#45;&gt;Node4 -->
<g id="edge17" class="edge">
<title>Node17&#45;&gt;Node4</title>
<path fill="none" stroke="#404040" d="M969.91,-776.04C967.08,-772.98 964.27,-769.96 961.5,-767 905.89,-707.55 842.93,-642.87 789.58,-588.79"/>
<polygon fill="none" stroke="#404040" points="789.53,-588.74 782.47,-587.29 781.1,-580.21 788.16,-581.66 789.53,-588.74"/>
<text text-anchor="middle" x="986" y="-735.5" font-family="Courier New" font-size="10.00"> &#45;raycastManager</text>
</g>
<!-- Node18&#45;&gt;Node17 -->
<g id="edge20" class="edge">
<title>Node18&#45;&gt;Node17</title>
<path fill="none" stroke="#404040" d="M1036.12,-1108.74C1038.54,-1068.39 1041.53,-1018.4 1044.16,-974.49"/>
<polygon fill="none" stroke="#404040" points="1044.17,-974.25 1040.54,-968.02 1044.89,-962.27 1048.52,-968.5 1044.17,-974.25"/>
<text text-anchor="middle" x="1082" y="-1011" font-family="Courier New" font-size="10.00"> +leftTrigger</text>
<text text-anchor="middle" x="1082" y="-1000" font-family="Courier New" font-size="10.00">+rightTrigger</text>
<text text-anchor="middle" x="1082" y="-989" font-family="Courier New" font-size="10.00">&#45;emptyTrigger</text>
</g>
<!-- Node19 -->
<g id="node19" class="node">
<title>Node19</title>
<g id="a_node19"><a xlink:href="../../d2/d43/class_c2_m2_1_1_interaction_1_1_raycast_press_events_1_1_raycast_hit_event.html" target="_top" xlink:title=" ">
<polygon fill="white" stroke="black" points="942,-1439.5 942,-1507.5 1121,-1507.5 1121,-1439.5 942,-1439.5"/>
<text text-anchor="start" x="950" y="-1495.5" font-family="Courier New" font-size="10.00">C2M2.Interaction.Raycast</text>
<text text-anchor="middle" x="1031.5" y="-1484.5" font-family="Courier New" font-size="10.00">PressEvents.RaycastHitEvent</text>
<polyline fill="none" stroke="black" points="942,-1477.5 1121,-1477.5 "/>
<text text-anchor="middle" x="1031.5" y="-1465.5" font-family="Courier New" font-size="10.00"> </text>
<polyline fill="none" stroke="black" points="942,-1458.5 1121,-1458.5 "/>
<text text-anchor="middle" x="1031.5" y="-1446.5" font-family="Courier New" font-size="10.00"> </text>
</a>
</g>
</g>
<!-- Node19&#45;&gt;Node18 -->
<g id="edge22" class="edge">
<title>Node19&#45;&gt;Node18</title>
<path fill="none" stroke="#404040" d="M1031.5,-1439.31C1031.5,-1399.86 1031.5,-1332.44 1031.5,-1277.36"/>
<polygon fill="none" stroke="#404040" points="1031.5,-1277.09 1027.5,-1271.09 1031.5,-1265.09 1035.5,-1271.09 1031.5,-1277.09"/>
<text text-anchor="middle" x="1068" y="-1402" font-family="Courier New" font-size="10.00"> &#45;onEndPress</text>
<text text-anchor="middle" x="1068" y="-1391" font-family="Courier New" font-size="10.00">&#45;onHoldPress</text>
<text text-anchor="middle" x="1068" y="-1380" font-family="Courier New" font-size="10.00">&#45;onHover</text>
<text text-anchor="middle" x="1068" y="-1369" font-family="Courier New" font-size="10.00">&#45;onHoverEnd</text>
<text text-anchor="middle" x="1068" y="-1358" font-family="Courier New" font-size="10.00">&#45;onPress</text>
</g>
<!-- Node20 -->
<g id="node20" class="node">
<title>Node20</title>
<g id="a_node20"><a xlink:title=" ">
<polygon fill="white" stroke="#bfbfbf" points="951,-1583 951,-1640 1112,-1640 1112,-1583 951,-1583"/>
<text text-anchor="middle" x="1031.5" y="-1628" font-family="Courier New" font-size="10.00">UnityEvent&lt; RaycastHit &gt;</text>
<polyline fill="none" stroke="#bfbfbf" points="951,-1621 1112,-1621 "/>
<text text-anchor="middle" x="1031.5" y="-1609" font-family="Courier New" font-size="10.00"> </text>
<polyline fill="none" stroke="#bfbfbf" points="951,-1602 1112,-1602 "/>
<text text-anchor="middle" x="1031.5" y="-1590" font-family="Courier New" font-size="10.00"> </text>
</a>
</g>
</g>
<!-- Node20&#45;&gt;Node19 -->
<g id="edge23" class="edge">
<title>Node20&#45;&gt;Node19</title>
<path fill="none" stroke="midnightblue" d="M1031.5,-1572.78C1031.5,-1552.38 1031.5,-1527.41 1031.5,-1507.75"/>
<polygon fill="none" stroke="midnightblue" points="1028,-1572.98 1031.5,-1582.98 1035,-1572.98 1028,-1572.98"/>
</g>
</g>
</svg>
        <g id="navigator" transform="translate(0 0)" fill="#404254">
                <rect fill="#f2f5e9" fill-opacity="0.5" stroke="#606060" stroke-width=".5" x="0" y="0" width="60" height="60"/>
                <use id="zoomplus" xlink:href="#zoomPlus" x="17" y="9" onmousedown="handleZoom(evt,'in')"/>
                <use id="zoomminus" xlink:href="#zoomMin" x="42" y="9" onmousedown="handleZoom(evt,'out')"/>
                <use id="reset" xlink:href="#resetDef" x="30" y="36" onmousedown="handleReset()"/>
                <g id="arrowUp" xlink:href="#dirArrow" transform="translate(30 24)" onmousedown="handlePan(0,-1)">
                  <use xlink:href="#rim" fill="#404040">
                        <set attributeName="fill" to="#808080" begin="arrowUp.mouseover" end="arrowUp.mouseout"/>
                  </use>
                  <path fill="none" stroke="white" stroke-width="1.5" d="M0,-3.0v7 M-2.5,-0.5L0,-3.0L2.5,-0.5"/>
                </g>
                <g id="arrowRight" xlink:href="#dirArrow" transform="rotate(90) translate(36 -43)" onmousedown="handlePan(1,0)">
                  <use xlink:href="#rim" fill="#404040">
                        <set attributeName="fill" to="#808080" begin="arrowRight.mouseover" end="arrowRight.mouseout"/>
                  </use>
                  <path fill="none" stroke="white" stroke-width="1.5" d="M0,-3.0v7 M-2.5,-0.5L0,-3.0L2.5,-0.5"/>
                </g>
                <g id="arrowDown" xlink:href="#dirArrow" transform="rotate(180) translate(-30 -48)" onmousedown="handlePan(0,1)">
                  <use xlink:href="#rim" fill="#404040">
                        <set attributeName="fill" to="#808080" begin="arrowDown.mouseover" end="arrowDown.mouseout"/>
                  </use>
                  <path fill="none" stroke="white" stroke-width="1.5" d="M0,-3.0v7 M-2.5,-0.5L0,-3.0L2.5,-0.5"/>
                </g>
                <g id="arrowLeft" xlink:href="#dirArrow" transform="rotate(270) translate(-36 17)" onmousedown="handlePan(-1,0)">
                  <use xlink:href="#rim" fill="#404040">
                        <set attributeName="fill" to="#808080" begin="arrowLeft.mouseover" end="arrowLeft.mouseout"/>
                  </use>
                  <path fill="none" stroke="white" stroke-width="1.5" d="M0,-3.0v7 M-2.5,-0.5L0,-3.0L2.5,-0.5"/>
                </g>
        </g>
        <svg viewBox="0 0 15 15" width="100%" height="30px" preserveAspectRatio="xMaxYMin meet">
         <g id="arrow_out" transform="scale(0.3 0.3)">
          <a xlink:href="class_c2_m2_1_1_neuronal_dynamics_1_1_interaction_1_1_switch_neuron_mesh__coll__graph_org.svg" target="_base">
           <rect id="button" ry="5" rx="5" y="6" x="6" height="38" width="38"
                fill="#f2f5e9" fill-opacity="0.5" stroke="#606060" stroke-width="1.0"/>
           <path id="arrow"
             d="M 11.500037,31.436501 C 11.940474,20.09759 22.043105,11.32322 32.158766,21.979434 L 37.068811,17.246167 C 37.068811,17.246167 37.088388,32 37.088388,32 L 22.160133,31.978069 C 22.160133,31.978069 26.997745,27.140456 26.997745,27.140456 C 18.528582,18.264221 13.291696,25.230495 11.500037,31.436501 z"
             style="fill:#404040;"/>
          </a>
         </g>
        </svg>
</svg>
