<?xml version="1.0" encoding="UTF-8" standalone="no"?>
<!DOCTYPE svg PUBLIC "-//W3C//DTD SVG 1.1//EN"
 "http://www.w3.org/Graphics/SVG/1.1/DTD/svg11.dtd">
<!-- Generated by graphviz version 2.38.0 (20140413.2041)
 -->
<!-- Title: C2M2.NeuronalDynamics.Interaction.SwitchNeuronMesh Pages: 1 -->
<svg width="1304pt" height="1687pt"
 viewBox="0.00 0.00 1303.92 1687.00" xmlns="http://www.w3.org/2000/svg" xmlns:xlink="http://www.w3.org/1999/xlink">
<g id="graph0" class="graph" transform="scale(1 1) rotate(0) translate(4 1683)">
<title>C2M2.NeuronalDynamics.Interaction.SwitchNeuronMesh</title>
<polygon fill="white" stroke="none" points="-4,4 -4,-1683 1299.92,-1683 1299.92,4 -4,4"/>
<!-- Node1 -->
<g id="node1" class="node"><title>Node1</title>
<g id="a_node1"><a xlink:title=" ">
<polygon fill="#bfbfbf" stroke="black" points="48.9218,-0.5 48.9218,-79.5 269.922,-79.5 269.922,-0.5 48.9218,-0.5"/>
<text text-anchor="start" x="56.9218" y="-67.5" font-family="Courier New" font-size="10.00">C2M2.NeuronalDynamics.Interaction.</text>
<text text-anchor="middle" x="159.422" y="-56.5" font-family="Courier New" font-size="10.00">SwitchNeuronMesh</text>
<polyline fill="none" stroke="black" points="48.9218,-49.5 269.922,-49.5 "/>
<text text-anchor="start" x="56.9218" y="-37.5" font-family="Courier New" font-size="10.00">+ changeViz</text>
<text text-anchor="start" x="56.9218" y="-26.5" font-family="Courier New" font-size="10.00">+ inflation</text>
<polyline fill="none" stroke="black" points="48.9218,-19.5 269.922,-19.5 "/>
<text text-anchor="start" x="56.9218" y="-7.5" font-family="Courier New" font-size="10.00">+ Switch()</text>
</a>
</g>
</g>
<!-- Node2 -->
<g id="node2" class="node"><title>Node2</title>
<g id="a_node2"><a xlink:href="../../dd/df7/class_c2_m2_1_1_neuronal_dynamics_1_1_interaction_1_1_n_d_control_button.html" target="_top" xlink:title=" ">
<polygon fill="white" stroke="black" points="105.922,-117.5 105.922,-174.5 212.922,-174.5 212.922,-117.5 105.922,-117.5"/>
<text text-anchor="middle" x="159.422" y="-162.5" font-family="Courier New" font-size="10.00">NDControlButton</text>
<polyline fill="none" stroke="black" points="105.922,-155.5 212.922,-155.5 "/>
<text text-anchor="middle" x="159.422" y="-143.5" font-family="Courier New" font-size="10.00"> </text>
<polyline fill="none" stroke="black" points="105.922,-136.5 212.922,-136.5 "/>
<text text-anchor="middle" x="159.422" y="-124.5" font-family="Courier New" font-size="10.00"> </text>
</a>
</g>
</g>
<!-- Node2&#45;&gt;Node1 -->
<g id="edge1" class="edge"><title>Node2&#45;&gt;Node1</title>
<path fill="none" stroke="midnightblue" d="M159.422,-107.232C159.422,-98.2681 159.422,-88.693 159.422,-79.6888"/>
<polygon fill="none" stroke="midnightblue" points="155.922,-107.403 159.422,-117.403 162.922,-107.403 155.922,-107.403"/>
</g>
<!-- Node3 -->
<g id="node3" class="node"><title>Node3</title>
<g id="a_node3"><a xlink:title=" ">
<polygon fill="white" stroke="#bfbfbf" points="545.922,-1467 545.922,-1524 640.922,-1524 640.922,-1467 545.922,-1467"/>
<text text-anchor="middle" x="593.422" y="-1512" font-family="Courier New" font-size="10.00">MonoBehaviour</text>
<polyline fill="none" stroke="#bfbfbf" points="545.922,-1505 640.922,-1505 "/>
<text text-anchor="middle" x="593.422" y="-1493" font-family="Courier New" font-size="10.00"> </text>
<polyline fill="none" stroke="#bfbfbf" points="545.922,-1486 640.922,-1486 "/>
<text text-anchor="middle" x="593.422" y="-1474" font-family="Courier New" font-size="10.00"> </text>
</a>
</g>
</g>
<!-- Node3&#45;&gt;Node2 -->
<g id="edge2" class="edge"><title>Node3&#45;&gt;Node2</title>
<path fill="none" stroke="midnightblue" d="M535.389,-1491.24C405.189,-1482.65 95.8381,-1454.79 27.4218,-1381 -19.6164,-1330.27 8.42177,-1295.68 8.42177,-1226.5 8.42177,-1226.5 8.42177,-1226.5 8.42177,-464.5 8.42177,-347.307 93.3593,-227.31 135.828,-174.636"/>
<polygon fill="none" stroke="midnightblue" points="535.36,-1494.74 545.564,-1491.89 535.81,-1487.76 535.36,-1494.74"/>
</g>
<!-- Node7 -->
<g id="node7" class="node"><title>Node7</title>
<g id="a_node7"><a xlink:href="../../da/d4f/class_c2_m2_1_1_visualization_1_1_l_u_t_gradient.html" target="_top" xlink:title="Create a fast and memory&#45;friendly color lookup table from a gradient">
<polygon fill="white" stroke="black" points="313.922,-1109 313.922,-1342 510.922,-1342 510.922,-1109 313.922,-1109"/>
<text text-anchor="middle" x="412.422" y="-1330" font-family="Courier New" font-size="10.00">C2M2.Visualization.LUTGradient</text>
<polyline fill="none" stroke="black" points="313.922,-1323 510.922,-1323 "/>
<text text-anchor="start" x="321.922" y="-1311" font-family="Courier New" font-size="10.00">+ extremaMethod</text>
<text text-anchor="start" x="321.922" y="-1300" font-family="Courier New" font-size="10.00">+ globalMax</text>
<text text-anchor="start" x="321.922" y="-1289" font-family="Courier New" font-size="10.00">+ globalMin</text>
<text text-anchor="start" x="321.922" y="-1278" font-family="Courier New" font-size="10.00">+ curMax</text>
<text text-anchor="start" x="321.922" y="-1267" font-family="Courier New" font-size="10.00">+ curMix</text>
<text text-anchor="start" x="321.922" y="-1256" font-family="Courier New" font-size="10.00">+ LutRes</text>
<text text-anchor="start" x="321.922" y="-1245" font-family="Courier New" font-size="10.00">+ Gradient</text>
<text text-anchor="start" x="321.922" y="-1234" font-family="Courier New" font-size="10.00">+ gradientLUT</text>
<text text-anchor="start" x="321.922" y="-1223" font-family="Courier New" font-size="10.00">+ oldMin</text>
<text text-anchor="start" x="321.922" y="-1212" font-family="Courier New" font-size="10.00">+ oldMax</text>
<text text-anchor="start" x="321.922" y="-1201" font-family="Courier New" font-size="10.00">&#45; lutRes</text>
<text text-anchor="start" x="321.922" y="-1190" font-family="Courier New" font-size="10.00">&#45; gradient</text>
<polyline fill="none" stroke="black" points="313.922,-1183 510.922,-1183 "/>
<text text-anchor="start" x="321.922" y="-1171" font-family="Courier New" font-size="10.00">+ Evaluate()</text>
<text text-anchor="start" x="321.922" y="-1160" font-family="Courier New" font-size="10.00">+ Evaluate()</text>
<text text-anchor="start" x="321.922" y="-1149" font-family="Courier New" font-size="10.00">+ EvaluateUnscaled()</text>
<text text-anchor="start" x="321.922" y="-1138" font-family="Courier New" font-size="10.00">+ GetMinMax()</text>
<text text-anchor="start" x="321.922" y="-1127" font-family="Courier New" font-size="10.00">&#45; BuildLUT()</text>
<text text-anchor="start" x="321.922" y="-1116" font-family="Courier New" font-size="10.00">&#45; RescaleArray()</text>
</a>
</g>
</g>
<!-- Node3&#45;&gt;Node7 -->
<g id="edge7" class="edge"><title>Node3&#45;&gt;Node7</title>
<path fill="none" stroke="midnightblue" d="M569.035,-1458.39C548.8,-1428.43 518.86,-1384.1 490.562,-1342.2"/>
<polygon fill="none" stroke="midnightblue" points="566.236,-1460.5 574.733,-1466.83 572.037,-1456.58 566.236,-1460.5"/>
</g>
<!-- Node17 -->
<g id="node17" class="node"><title>Node17</title>
<g id="a_node17"><a xlink:href="../../d5/df9/class_c2_m2_1_1_interaction_1_1_raycast_event_manager.html" target="_top" xlink:title="Attach this script to parent gameObject, create one child with one raycast trigger per child....">
<polygon fill="white" stroke="black" points="883.922,-767.5 883.922,-1000.5 1044.92,-1000.5 1044.92,-767.5 883.922,-767.5"/>
<text text-anchor="start" x="891.922" y="-988.5" font-family="Courier New" font-size="10.00">C2M2.Interaction.Raycast</text>
<text text-anchor="middle" x="964.422" y="-977.5" font-family="Courier New" font-size="10.00">EventManager</text>
<polyline fill="none" stroke="black" points="883.922,-970.5 1044.92,-970.5 "/>
<text text-anchor="middle" x="964.422" y="-958.5" font-family="Courier New" font-size="10.00"> </text>
<polyline fill="none" stroke="black" points="883.922,-951.5 1044.92,-951.5 "/>
<text text-anchor="start" x="891.922" y="-939.5" font-family="Courier New" font-size="10.00">+ TriggerChangeRight()</text>
<text text-anchor="start" x="891.922" y="-928.5" font-family="Courier New" font-size="10.00">+ TriggerChangeLeft()</text>
<text text-anchor="start" x="891.922" y="-917.5" font-family="Courier New" font-size="10.00">+ TriggerChangeBoth()</text>
<text text-anchor="start" x="891.922" y="-906.5" font-family="Courier New" font-size="10.00">+ TriggerEmptyRight()</text>
<text text-anchor="start" x="891.922" y="-895.5" font-family="Courier New" font-size="10.00">+ TriggerEmptyLeft()</text>
<text text-anchor="start" x="891.922" y="-884.5" font-family="Courier New" font-size="10.00">+ TriggerEmptyBoth()</text>
<text text-anchor="start" x="891.922" y="-873.5" font-family="Courier New" font-size="10.00">+ PressEvent()</text>
<text text-anchor="start" x="891.922" y="-862.5" font-family="Courier New" font-size="10.00">+ HoldEvent()</text>
<text text-anchor="start" x="891.922" y="-851.5" font-family="Courier New" font-size="10.00">+ EndEvent()</text>
<text text-anchor="start" x="891.922" y="-840.5" font-family="Courier New" font-size="10.00">+ AllEvents()</text>
<text text-anchor="start" x="891.922" y="-829.5" font-family="Courier New" font-size="10.00">+ PressEventNull()</text>
<text text-anchor="start" x="891.922" y="-818.5" font-family="Courier New" font-size="10.00">+ HoldEventNull()</text>
<text text-anchor="start" x="891.922" y="-807.5" font-family="Courier New" font-size="10.00">+ EndEventNull()</text>
<text text-anchor="start" x="891.922" y="-796.5" font-family="Courier New" font-size="10.00">+ AllEventsNull()</text>
<text text-anchor="start" x="891.922" y="-785.5" font-family="Courier New" font-size="10.00">+ ToString()</text>
<text text-anchor="start" x="891.922" y="-774.5" font-family="Courier New" font-size="10.00">&#45; Awake()</text>
</a>
</g>
</g>
<!-- Node3&#45;&gt;Node17 -->
<g id="edge18" class="edge"><title>Node3&#45;&gt;Node17</title>
<path fill="none" stroke="midnightblue" d="M615.558,-1458.13C669.327,-1369.8 808.656,-1140.9 894.08,-1000.56"/>
<polygon fill="none" stroke="midnightblue" points="612.537,-1456.37 610.327,-1466.73 618.516,-1460.01 612.537,-1456.37"/>
</g>
<!-- Node18 -->
<g id="node18" class="node"><title>Node18</title>
<g id="a_node18"><a xlink:href="../../d8/d68/class_c2_m2_1_1_interaction_1_1_raycast_press_events.html" target="_top" xlink:title="Store custom events that the corresponding RaycastTriggerManager will invoke">
<polygon fill="white" stroke="black" points="861.922,-1169.5 861.922,-1281.5 1022.92,-1281.5 1022.92,-1169.5 861.922,-1169.5"/>
<text text-anchor="start" x="869.922" y="-1269.5" font-family="Courier New" font-size="10.00">C2M2.Interaction.Raycast</text>
<text text-anchor="middle" x="942.422" y="-1258.5" font-family="Courier New" font-size="10.00">PressEvents</text>
<polyline fill="none" stroke="black" points="861.922,-1251.5 1022.92,-1251.5 "/>
<text text-anchor="start" x="869.922" y="-1239.5" font-family="Courier New" font-size="10.00">+ OnPress</text>
<text text-anchor="start" x="869.922" y="-1228.5" font-family="Courier New" font-size="10.00">+ OnHoldPress</text>
<text text-anchor="start" x="869.922" y="-1217.5" font-family="Courier New" font-size="10.00">+ OnEndPress</text>
<polyline fill="none" stroke="black" points="861.922,-1210.5 1022.92,-1210.5 "/>
<text text-anchor="start" x="869.922" y="-1198.5" font-family="Courier New" font-size="10.00">+ Press()</text>
<text text-anchor="start" x="869.922" y="-1187.5" font-family="Courier New" font-size="10.00">+ HoldPress()</text>
<text text-anchor="start" x="869.922" y="-1176.5" font-family="Courier New" font-size="10.00">+ EndPress()</text>
</a>
</g>
</g>
<!-- Node3&#45;&gt;Node18 -->
<g id="edge21" class="edge"><title>Node3&#45;&gt;Node18</title>
<path fill="none" stroke="midnightblue" d="M651.211,-1492.88C704.77,-1488.57 784.004,-1474.72 837.422,-1432 884.981,-1393.96 913.08,-1328.65 928.062,-1281.86"/>
<polygon fill="none" stroke="midnightblue" points="650.913,-1489.39 641.189,-1493.6 651.414,-1496.37 650.913,-1489.39"/>
</g>
<!-- Node4 -->
<g id="node4" class="node"><title>Node4</title>
<g id="a_node4"><a xlink:href="../../d7/d92/class_c2_m2_1_1_neuronal_dynamics_1_1_simulation_1_1_n_d_simulation.html" target="_top" xlink:title="Provide an interface for 1D neuron&#45;surface simulations to be visualized and interacted with">
<polygon fill="white" stroke="black" points="467.922,-222.5 467.922,-708.5 694.922,-708.5 694.922,-222.5 467.922,-222.5"/>
<text text-anchor="start" x="475.922" y="-696.5" font-family="Courier New" font-size="10.00">C2M2.NeuronalDynamics.Simulation.</text>
<text text-anchor="middle" x="581.422" y="-685.5" font-family="Courier New" font-size="10.00">NDSimulation</text>
<polyline fill="none" stroke="black" points="467.922,-678.5 694.922,-678.5 "/>
<text text-anchor="start" x="475.922" y="-666.5" font-family="Courier New" font-size="10.00">+ visualize1D</text>
<text text-anchor="start" x="475.922" y="-655.5" font-family="Courier New" font-size="10.00">+ color1D</text>
<text text-anchor="start" x="475.922" y="-644.5" font-family="Courier New" font-size="10.00">+ lineWidth1D</text>
<text text-anchor="start" x="475.922" y="-633.5" font-family="Courier New" font-size="10.00">+ vrnFileName</text>
<text text-anchor="start" x="475.922" y="-622.5" font-family="Courier New" font-size="10.00">+ hitValue</text>
<text text-anchor="start" x="475.922" y="-611.5" font-family="Courier New" font-size="10.00">+ clamps</text>
<text text-anchor="start" x="475.922" y="-600.5" font-family="Courier New" font-size="10.00">+ VisualInflation</text>
<text text-anchor="start" x="475.922" y="-589.5" font-family="Courier New" font-size="10.00">+ ColliderInflation</text>
<text text-anchor="start" x="475.922" y="-578.5" font-family="Courier New" font-size="10.00">+ RefinementLevel</text>
<text text-anchor="start" x="475.922" y="-567.5" font-family="Courier New" font-size="10.00">+ ClampMode</text>
<text text-anchor="start" x="475.922" y="-556.5" font-family="Courier New" font-size="10.00">+ VrnReader</text>
<text text-anchor="start" x="475.922" y="-545.5" font-family="Courier New" font-size="10.00">+ Grid1D</text>
<text text-anchor="start" x="475.922" y="-534.5" font-family="Courier New" font-size="10.00">+ Verts1D</text>
<text text-anchor="start" x="475.922" y="-523.5" font-family="Courier New" font-size="10.00">+ Grid2D</text>
<text text-anchor="start" x="475.922" y="-512.5" font-family="Courier New" font-size="10.00">+ NeuronCell</text>
<text text-anchor="start" x="475.922" y="-501.5" font-family="Courier New" font-size="10.00">+ AverageDendriteRadius</text>
<text text-anchor="start" x="475.922" y="-490.5" font-family="Courier New" font-size="10.00">+ Map</text>
<text text-anchor="start" x="475.922" y="-479.5" font-family="Courier New" font-size="10.00">+ Mapping</text>
<text text-anchor="start" x="475.922" y="-468.5" font-family="Courier New" font-size="10.00">+ Scalars3D</text>
<text text-anchor="start" x="475.922" y="-457.5" font-family="Courier New" font-size="10.00">&#45; visualInflation</text>
<text text-anchor="start" x="475.922" y="-446.5" font-family="Courier New" font-size="10.00">&#45; colliderInflation</text>
<text text-anchor="start" x="475.922" y="-435.5" font-family="Courier New" font-size="10.00">&#45; refinementLevel</text>
<text text-anchor="start" x="475.922" y="-424.5" font-family="Courier New" font-size="10.00">&#45; meshCache</text>
<text text-anchor="start" x="475.922" y="-413.5" font-family="Courier New" font-size="10.00">&#45; clampMode</text>
<text text-anchor="start" x="475.922" y="-402.5" font-family="Courier New" font-size="10.00">&#45; averageDendriteRadius</text>
<text text-anchor="start" x="475.922" y="-391.5" font-family="Courier New" font-size="10.00">&#45; scalars3D</text>
<polyline fill="none" stroke="black" points="467.922,-384.5 694.922,-384.5 "/>
<text text-anchor="start" x="475.922" y="-372.5" font-family="Courier New" font-size="10.00">+ OnVisualInflationChangeDelegate()</text>
<text text-anchor="start" x="475.922" y="-361.5" font-family="Courier New" font-size="10.00">+ GetValues()</text>
<text text-anchor="start" x="475.922" y="-350.5" font-family="Courier New" font-size="10.00">+ SetValues()</text>
<text text-anchor="start" x="475.922" y="-339.5" font-family="Courier New" font-size="10.00">+ SetValues()</text>
<text text-anchor="start" x="475.922" y="-328.5" font-family="Courier New" font-size="10.00">+ Set1DValues()</text>
<text text-anchor="start" x="475.922" y="-317.5" font-family="Courier New" font-size="10.00">+ Get1DValues()</text>
<text text-anchor="start" x="475.922" y="-306.5" font-family="Courier New" font-size="10.00">+ SwitchColliderMesh()</text>
<text text-anchor="start" x="475.922" y="-295.5" font-family="Courier New" font-size="10.00">+ SwitchMesh()</text>
<text text-anchor="start" x="475.922" y="-284.5" font-family="Courier New" font-size="10.00"># OnAwakePre()</text>
<text text-anchor="start" x="475.922" y="-273.5" font-family="Courier New" font-size="10.00"># OnStart()</text>
<text text-anchor="start" x="475.922" y="-262.5" font-family="Courier New" font-size="10.00"># BuildVisualization()</text>
<text text-anchor="start" x="475.922" y="-251.5" font-family="Courier New" font-size="10.00">&#45; CheckMeshCache()</text>
<text text-anchor="start" x="475.922" y="-240.5" font-family="Courier New" font-size="10.00">&#45; UpdateGrid1D()</text>
<text text-anchor="start" x="475.922" y="-229.5" font-family="Courier New" font-size="10.00">&#45; Update2DGrid()</text>
</a>
</g>
</g>
<!-- Node4&#45;&gt;Node2 -->
<g id="edge3" class="edge"><title>Node4&#45;&gt;Node2</title>
<path fill="none" stroke="#404040" d="M467.778,-378.998C381.986,-314.45 268.689,-229.209 206.066,-182.094"/>
<polygon fill="none" stroke="#404040" points="205.681,-181.804 198.482,-181.394 196.092,-174.59 203.292,-175.001 205.681,-181.804"/>
<text text-anchor="middle" x="272.922" y="-196" font-family="Courier New" font-size="10.00"> +ndSimulation</text>
</g>
<!-- Node5 -->
<g id="node5" class="node"><title>Node5</title>
<g id="a_node5"><a xlink:href="../../d6/d2d/class_c2_m2_1_1_simulation_1_1_mesh_simulation.html" target="_top" xlink:title="Simulation of type double[] for visualizing scalar fields on mesh surfaces">
<polygon fill="white" stroke="black" points="36.9218,-795 36.9218,-973 191.922,-973 191.922,-795 36.9218,-795"/>
<text text-anchor="middle" x="114.422" y="-961" font-family="Courier New" font-size="10.00">MeshSimulation</text>
<polyline fill="none" stroke="black" points="36.9218,-954 191.922,-954 "/>
<text text-anchor="start" x="44.9218" y="-942" font-family="Courier New" font-size="10.00">+ gradient</text>
<text text-anchor="start" x="44.9218" y="-931" font-family="Courier New" font-size="10.00">+ globalMax</text>
<text text-anchor="start" x="44.9218" y="-920" font-family="Courier New" font-size="10.00">+ globalMin</text>
<text text-anchor="start" x="44.9218" y="-909" font-family="Courier New" font-size="10.00">+ colorLUT</text>
<text text-anchor="start" x="44.9218" y="-898" font-family="Courier New" font-size="10.00">+ VisualMesh</text>
<text text-anchor="start" x="44.9218" y="-887" font-family="Courier New" font-size="10.00">+ ColliderMesh</text>
<text text-anchor="start" x="44.9218" y="-876" font-family="Courier New" font-size="10.00">&#45; visualMesh</text>
<text text-anchor="start" x="44.9218" y="-865" font-family="Courier New" font-size="10.00">&#45; colliderMesh</text>
<text text-anchor="start" x="44.9218" y="-854" font-family="Courier New" font-size="10.00">&#45; mf</text>
<text text-anchor="start" x="44.9218" y="-843" font-family="Courier New" font-size="10.00">&#45; mr</text>
<polyline fill="none" stroke="black" points="36.9218,-836 191.922,-836 "/>
<text text-anchor="start" x="44.9218" y="-824" font-family="Courier New" font-size="10.00"># UpdateVisualization()</text>
<text text-anchor="start" x="44.9218" y="-813" font-family="Courier New" font-size="10.00"># OnAwakePost()</text>
<text text-anchor="start" x="44.9218" y="-802" font-family="Courier New" font-size="10.00">&#45; UpdateVisualization()</text>
</a>
</g>
</g>
<!-- Node5&#45;&gt;Node4 -->
<g id="edge4" class="edge"><title>Node5&#45;&gt;Node4</title>
<path fill="none" stroke="midnightblue" d="M182.628,-786.691C188.436,-779.847 194.398,-773.206 200.422,-767 282.418,-682.518 388.431,-600.723 467.804,-543.857"/>
<polygon fill="none" stroke="midnightblue" points="179.585,-784.878 175.887,-794.807 184.969,-789.351 179.585,-784.878"/>
</g>
<!-- Node6 -->
<g id="node6" class="node"><title>Node6</title>
<g id="a_node6"><a xlink:href="../../db/d39/class_c2_m2_1_1_simulation_1_1_simulation.html" target="_top" xlink:title=" ">
<polygon fill="white" stroke="black" points="36.9218,-1070.5 36.9218,-1380.5 221.922,-1380.5 221.922,-1070.5 36.9218,-1070.5"/>
<text text-anchor="start" x="44.9218" y="-1368.5" font-family="Courier New" font-size="10.00">Simulation&lt; double</text>
<text text-anchor="start" x="44.9218" y="-1357.5" font-family="Courier New" font-size="10.00">[], Mesh, VRRaycastableMesh,</text>
<text text-anchor="middle" x="129.422" y="-1346.5" font-family="Courier New" font-size="10.00"> VRGrabbableMesh &gt;</text>
<polyline fill="none" stroke="black" points="36.9218,-1339.5 221.922,-1339.5 "/>
<text text-anchor="start" x="44.9218" y="-1327.5" font-family="Courier New" font-size="10.00">+ dryRun</text>
<text text-anchor="start" x="44.9218" y="-1316.5" font-family="Courier New" font-size="10.00">+ startOnAwake</text>
<text text-anchor="start" x="44.9218" y="-1305.5" font-family="Courier New" font-size="10.00">+ viz</text>
<text text-anchor="start" x="44.9218" y="-1294.5" font-family="Courier New" font-size="10.00"># mutex</text>
<text text-anchor="start" x="44.9218" y="-1283.5" font-family="Courier New" font-size="10.00">&#45; solveThread</text>
<polyline fill="none" stroke="black" points="36.9218,-1276.5 221.922,-1276.5 "/>
<text text-anchor="start" x="44.9218" y="-1264.5" font-family="Courier New" font-size="10.00">+ GetValues()</text>
<text text-anchor="start" x="44.9218" y="-1253.5" font-family="Courier New" font-size="10.00">+ Awake()</text>
<text text-anchor="start" x="44.9218" y="-1242.5" font-family="Courier New" font-size="10.00">+ Start()</text>
<text text-anchor="start" x="44.9218" y="-1231.5" font-family="Courier New" font-size="10.00">+ Update()</text>
<text text-anchor="start" x="44.9218" y="-1220.5" font-family="Courier New" font-size="10.00">+ StartSimulation()</text>
<text text-anchor="start" x="44.9218" y="-1209.5" font-family="Courier New" font-size="10.00">+ StopSimulation()</text>
<text text-anchor="start" x="44.9218" y="-1198.5" font-family="Courier New" font-size="10.00"># BuildVisualization()</text>
<text text-anchor="start" x="44.9218" y="-1187.5" font-family="Courier New" font-size="10.00"># UpdateVisualization()</text>
<text text-anchor="start" x="44.9218" y="-1176.5" font-family="Courier New" font-size="10.00"># Solve()</text>
<text text-anchor="start" x="44.9218" y="-1165.5" font-family="Courier New" font-size="10.00"># PreSolve()</text>
<text text-anchor="start" x="44.9218" y="-1154.5" font-family="Courier New" font-size="10.00"># OnAwakePre()</text>
<text text-anchor="start" x="44.9218" y="-1143.5" font-family="Courier New" font-size="10.00"># OnAwakePost()</text>
<text text-anchor="start" x="44.9218" y="-1132.5" font-family="Courier New" font-size="10.00"># OnStart()</text>
<text text-anchor="start" x="44.9218" y="-1121.5" font-family="Courier New" font-size="10.00"># OnUpdate()</text>
<text text-anchor="start" x="44.9218" y="-1110.5" font-family="Courier New" font-size="10.00"># OnPause()</text>
<text text-anchor="start" x="44.9218" y="-1099.5" font-family="Courier New" font-size="10.00"># OnQuit()</text>
<text text-anchor="start" x="44.9218" y="-1088.5" font-family="Courier New" font-size="10.00">&#45; OnApplicationPause()</text>
<text text-anchor="start" x="44.9218" y="-1077.5" font-family="Courier New" font-size="10.00">&#45; OnApplicationQuit()</text>
</a>
</g>
</g>
<!-- Node6&#45;&gt;Node5 -->
<g id="edge5" class="edge"><title>Node6&#45;&gt;Node5</title>
<path fill="none" stroke="midnightblue" d="M122.153,-1059.99C120.828,-1029.99 119.493,-999.773 118.314,-973.09"/>
<polygon fill="none" stroke="midnightblue" points="118.664,-1060.31 122.602,-1070.15 125.657,-1060 118.664,-1060.31"/>
</g>
<!-- Node7&#45;&gt;Node5 -->
<g id="edge6" class="edge"><title>Node7&#45;&gt;Node5</title>
<path fill="none" stroke="#404040" d="M313.721,-1125.63C277.082,-1087.61 235.845,-1043.19 200.422,-1001 195.555,-995.204 190.64,-989.162 185.757,-983.013"/>
<polygon fill="none" stroke="#404040" points="185.528,-982.721 178.677,-980.471 178.119,-973.281 184.97,-975.532 185.528,-982.721"/>
<text text-anchor="middle" x="290.922" y="-1033" font-family="Courier New" font-size="10.00"> +extremaMethod</text>
</g>
<!-- Node8 -->
<g id="node8" class="node"><title>Node8</title>
<g id="a_node8"><a xlink:href="../../da/df6/class_c2_m2_1_1_neuronal_dynamics_1_1_u_g_x_1_1_neuron_cell.html" target="_top" xlink:title=" ">
<polygon fill="white" stroke="black" points="209.922,-789.5 209.922,-978.5 382.922,-978.5 382.922,-789.5 209.922,-789.5"/>
<text text-anchor="start" x="217.922" y="-966.5" font-family="Courier New" font-size="10.00">C2M2.NeuronalDynamics.UGX.</text>
<text text-anchor="middle" x="296.422" y="-955.5" font-family="Courier New" font-size="10.00">NeuronCell</text>
<polyline fill="none" stroke="black" points="209.922,-948.5 382.922,-948.5 "/>
<text text-anchor="start" x="217.922" y="-936.5" font-family="Courier New" font-size="10.00">+ nodeData</text>
<text text-anchor="start" x="217.922" y="-925.5" font-family="Courier New" font-size="10.00">+ edges</text>
<text text-anchor="start" x="217.922" y="-914.5" font-family="Courier New" font-size="10.00">+ edgeLengths</text>
<text text-anchor="start" x="217.922" y="-903.5" font-family="Courier New" font-size="10.00">+ boundaryID</text>
<text text-anchor="start" x="217.922" y="-892.5" font-family="Courier New" font-size="10.00">+ somaID</text>
<text text-anchor="start" x="217.922" y="-881.5" font-family="Courier New" font-size="10.00">+ vertCount</text>
<text text-anchor="start" x="217.922" y="-870.5" font-family="Courier New" font-size="10.00">+ edgeCount</text>
<polyline fill="none" stroke="black" points="209.922,-863.5 382.922,-863.5 "/>
<text text-anchor="start" x="217.922" y="-851.5" font-family="Courier New" font-size="10.00">+ NeuronCell()</text>
<text text-anchor="start" x="217.922" y="-840.5" font-family="Courier New" font-size="10.00">+ NodeToString()</text>
<text text-anchor="start" x="217.922" y="-829.5" font-family="Courier New" font-size="10.00">+ EdgeToString()</text>
<text text-anchor="start" x="217.922" y="-818.5" font-family="Courier New" font-size="10.00">+ ToString()</text>
<text text-anchor="start" x="217.922" y="-807.5" font-family="Courier New" font-size="10.00">&#45; NodeNeighborsToString()</text>
<text text-anchor="start" x="217.922" y="-796.5" font-family="Courier New" font-size="10.00">&#45; GetEdgeLength()</text>
</a>
</g>
</g>
<!-- Node8&#45;&gt;Node4 -->
<g id="edge8" class="edge"><title>Node8&#45;&gt;Node4</title>
<path fill="none" stroke="#404040" d="M360.559,-789.27C390.182,-745.978 426.362,-693.104 460.797,-642.781"/>
<polygon fill="none" stroke="#404040" points="460.882,-642.658 460.969,-635.447 467.658,-632.754 467.571,-639.965 460.882,-642.658"/>
<text text-anchor="middle" x="433.922" y="-735.5" font-family="Courier New" font-size="10.00"> &#45;neuronCell</text>
</g>
<!-- Node9 -->
<g id="node9" class="node"><title>Node9</title>
<g id="a_node9"><a xlink:title=" ">
<polygon fill="white" stroke="#bfbfbf" points="565.922,-1197 565.922,-1254 618.922,-1254 618.922,-1197 565.922,-1197"/>
<text text-anchor="middle" x="592.422" y="-1242" font-family="Courier New" font-size="10.00">static</text>
<polyline fill="none" stroke="#bfbfbf" points="565.922,-1235 618.922,-1235 "/>
<text text-anchor="middle" x="592.422" y="-1223" font-family="Courier New" font-size="10.00"> </text>
<polyline fill="none" stroke="#bfbfbf" points="565.922,-1216 618.922,-1216 "/>
<text text-anchor="middle" x="592.422" y="-1204" font-family="Courier New" font-size="10.00"> </text>
</a>
</g>
</g>
<!-- Node9&#45;&gt;Node8 -->
<g id="edge9" class="edge"><title>Node9&#45;&gt;Node8</title>
<path fill="none" stroke="#404040" d="M585.168,-1196.89C575.174,-1163.38 554.33,-1106.81 519.422,-1070 474.95,-1023.11 441.286,-1042.11 391.422,-1001 386.275,-996.757 381.207,-992.2 376.253,-987.437"/>
<polygon fill="none" stroke="#404040" points="375.957,-987.141 368.886,-985.731 367.468,-978.66 374.539,-980.071 375.957,-987.141"/>
<text text-anchor="middle" x="550.922" y="-1044" font-family="Courier New" font-size="10.00"> &#45;nodeFormatString</text>
<text text-anchor="middle" x="550.922" y="-1033" font-family="Courier New" font-size="10.00">&#45;edgeFormatString</text>
<text text-anchor="middle" x="550.922" y="-1022" font-family="Courier New" font-size="10.00">&#45;cellFormatString</text>
</g>
<!-- Node9&#45;&gt;Node17 -->
<g id="edge19" class="edge"><title>Node9&#45;&gt;Node17</title>
<path fill="none" stroke="#404040" d="M605.552,-1196.68C628.645,-1151.14 681.125,-1061.5 754.422,-1019 798.333,-993.539 824.878,-1023.97 873.133,-1001.29"/>
<polygon fill="none" stroke="#404040" points="873.189,-1001.26 876.597,-994.907 883.774,-995.608 880.366,-1001.96 873.189,-1001.26"/>
<text text-anchor="middle" x="781.922" y="-1033" font-family="Courier New" font-size="10.00"> &#45;nullHit</text>
</g>
<!-- Node10 -->
<g id="node10" class="node"><title>Node10</title>
<g id="a_node10"><a xlink:href="../../db/dbd/struct_c2_m2_1_1_neuronal_dynamics_1_1_simulation_1_1_vert3_d1_d_pair.html" target="_top" xlink:title="Stores two 1D indices and a lambda value for a 3D vertex">
<polygon fill="white" stroke="black" points="400.922,-833.5 400.922,-934.5 615.922,-934.5 615.922,-833.5 400.922,-833.5"/>
<text text-anchor="start" x="408.922" y="-922.5" font-family="Courier New" font-size="10.00">C2M2.NeuronalDynamics.Simulation.</text>
<text text-anchor="middle" x="508.422" y="-911.5" font-family="Courier New" font-size="10.00">Vert3D1DPair</text>
<polyline fill="none" stroke="black" points="400.922,-904.5 615.922,-904.5 "/>
<text text-anchor="start" x="408.922" y="-892.5" font-family="Courier New" font-size="10.00">+ v1</text>
<text text-anchor="start" x="408.922" y="-881.5" font-family="Courier New" font-size="10.00">+ v2</text>
<text text-anchor="start" x="408.922" y="-870.5" font-family="Courier New" font-size="10.00">+ lambda</text>
<polyline fill="none" stroke="black" points="400.922,-863.5 615.922,-863.5 "/>
<text text-anchor="start" x="408.922" y="-851.5" font-family="Courier New" font-size="10.00">+ Vert3D1DPair()</text>
<text text-anchor="start" x="408.922" y="-840.5" font-family="Courier New" font-size="10.00">+ ToString()</text>
</a>
</g>
</g>
<!-- Node10&#45;&gt;Node4 -->
<g id="edge10" class="edge"><title>Node10&#45;&gt;Node4</title>
<path fill="none" stroke="#404040" d="M517.155,-833.174C522.355,-803.506 529.392,-763.354 536.906,-720.481"/>
<polygon fill="none" stroke="#404040" points="536.912,-720.447 534.008,-713.846 538.984,-708.627 541.888,-715.227 536.912,-720.447"/>
<text text-anchor="middle" x="549.922" y="-735.5" font-family="Courier New" font-size="10.00"> &#45;map</text>
</g>
<!-- Node11 -->
<g id="node11" class="node"><title>Node11</title>
<g id="a_node11"><a xlink:title=" ">
<polygon fill="white" stroke="#bfbfbf" points="633.922,-855.5 633.922,-912.5 674.922,-912.5 674.922,-855.5 633.922,-855.5"/>
<text text-anchor="middle" x="654.422" y="-900.5" font-family="Courier New" font-size="10.00">C2M2</text>
<polyline fill="none" stroke="#bfbfbf" points="633.922,-893.5 674.922,-893.5 "/>
<text text-anchor="middle" x="654.422" y="-881.5" font-family="Courier New" font-size="10.00"> </text>
<polyline fill="none" stroke="#bfbfbf" points="633.922,-874.5 674.922,-874.5 "/>
<text text-anchor="middle" x="654.422" y="-862.5" font-family="Courier New" font-size="10.00"> </text>
</a>
</g>
</g>
<!-- Node11&#45;&gt;Node4 -->
<g id="edge11" class="edge"><title>Node11&#45;&gt;Node4</title>
<path fill="none" stroke="#404040" d="M649.576,-855.35C644.376,-825.686 635.563,-775.399 625.968,-720.659"/>
<polygon fill="none" stroke="#404040" points="625.916,-720.363 620.941,-715.144 623.845,-708.543 628.821,-713.763 625.916,-720.363"/>
<text text-anchor="middle" x="654.922" y="-741" font-family="Courier New" font-size="10.00"> &#45;grid1D</text>
<text text-anchor="middle" x="654.922" y="-730" font-family="Courier New" font-size="10.00">&#45;grid2D</text>
</g>
<!-- Node12 -->
<g id="node12" class="node"><title>Node12</title>
<g id="a_node12"><a xlink:href="../../dd/d2a/struct_c2_m2_1_1_neuronal_dynamics_1_1_u_g_x_1_1_mapping_info.html" target="_top" xlink:title="Encapsulates the grids and mapping data">
<polygon fill="white" stroke="black" points="692.922,-839 692.922,-929 865.922,-929 865.922,-839 692.922,-839"/>
<text text-anchor="start" x="700.922" y="-917" font-family="Courier New" font-size="10.00">C2M2.NeuronalDynamics.UGX.</text>
<text text-anchor="middle" x="779.422" y="-906" font-family="Courier New" font-size="10.00">MappingInfo</text>
<polyline fill="none" stroke="black" points="692.922,-899 865.922,-899 "/>
<text text-anchor="start" x="700.922" y="-887" font-family="Courier New" font-size="10.00">+ ModelGeometry</text>
<text text-anchor="start" x="700.922" y="-876" font-family="Courier New" font-size="10.00">+ SurfaceGeometry</text>
<text text-anchor="start" x="700.922" y="-865" font-family="Courier New" font-size="10.00">+ Data</text>
<polyline fill="none" stroke="black" points="692.922,-858 865.922,-858 "/>
<text text-anchor="start" x="700.922" y="-846" font-family="Courier New" font-size="10.00">+ MappingInfo()</text>
</a>
</g>
</g>
<!-- Node12&#45;&gt;Node4 -->
<g id="edge12" class="edge"><title>Node12&#45;&gt;Node4</title>
<path fill="none" stroke="#404040" d="M758.42,-838.822C743.692,-807.842 722.694,-763.67 700.279,-716.519"/>
<polygon fill="none" stroke="#404040" points="700.169,-716.289 693.981,-712.588 695.017,-705.452 701.206,-709.153 700.169,-716.289"/>
<text text-anchor="middle" x="741.922" y="-735.5" font-family="Courier New" font-size="10.00"> &#45;mapping</text>
</g>
<!-- Node13 -->
<g id="node13" class="node"><title>Node13</title>
<g id="a_node13"><a xlink:href="../../d1/d08/class_c2_m2_1_1_neuronal_dynamics_1_1_visualization_1_1_v_r_n_1_1_vrn_reader.html" target="_top" xlink:title=" ">
<polygon fill="white" stroke="black" points="1062.92,-822.5 1062.92,-945.5 1295.92,-945.5 1295.92,-822.5 1062.92,-822.5"/>
<text text-anchor="start" x="1070.92" y="-933.5" font-family="Courier New" font-size="10.00">C2M2.NeuronalDynamics.Visualization.</text>
<text text-anchor="middle" x="1179.42" y="-922.5" font-family="Courier New" font-size="10.00">VRN.VrnReader</text>
<polyline fill="none" stroke="black" points="1062.92,-915.5 1295.92,-915.5 "/>
<text text-anchor="start" x="1070.92" y="-903.5" font-family="Courier New" font-size="10.00">&#45; fileName</text>
<text text-anchor="start" x="1070.92" y="-892.5" font-family="Courier New" font-size="10.00">&#45; loaded</text>
<polyline fill="none" stroke="black" points="1062.92,-885.5 1295.92,-885.5 "/>
<text text-anchor="start" x="1070.92" y="-873.5" font-family="Courier New" font-size="10.00">+ List()</text>
<text text-anchor="start" x="1070.92" y="-862.5" font-family="Courier New" font-size="10.00">+ ReadUGX()</text>
<text text-anchor="start" x="1070.92" y="-851.5" font-family="Courier New" font-size="10.00">+ Retrieve1DMeshName()</text>
<text text-anchor="start" x="1070.92" y="-840.5" font-family="Courier New" font-size="10.00">+ Retrieve2DMeshName()</text>
<text text-anchor="start" x="1070.92" y="-829.5" font-family="Courier New" font-size="10.00">+ VrnReader()</text>
</a>
</g>
</g>
<!-- Node13&#45;&gt;Node4 -->
<g id="edge13" class="edge"><title>Node13&#45;&gt;Node4</title>
<path fill="none" stroke="#404040" d="M1118.44,-822.257C1098.68,-803.724 1076.22,-783.817 1054.42,-767 941.817,-680.143 803.593,-594.503 705.718,-537.008"/>
<polygon fill="none" stroke="#404040" points="705.537,-536.902 698.338,-537.321 695.183,-530.836 702.382,-530.418 705.537,-536.902"/>
<text text-anchor="middle" x="1062.92" y="-735.5" font-family="Courier New" font-size="10.00"> &#45;vrnReader</text>
</g>
<!-- Node14 -->
<g id="node14" class="node"><title>Node14</title>
<g id="a_node14"><a xlink:href="../../d9/d5c/class_c2_m2_1_1_neuronal_dynamics_1_1_visualization_1_1_v_r_n_1_1_vrn_reader_1_1_geometry.html" target="_top" xlink:title="Stores 1D and associated 2D geometries in the member geom1d">
<polygon fill="white" stroke="black" points="1062.92,-1191.5 1062.92,-1259.5 1295.92,-1259.5 1295.92,-1191.5 1062.92,-1191.5"/>
<text text-anchor="start" x="1070.92" y="-1247.5" font-family="Courier New" font-size="10.00">C2M2.NeuronalDynamics.Visualization.</text>
<text text-anchor="middle" x="1179.42" y="-1236.5" font-family="Courier New" font-size="10.00">VRN.VrnReader.Geometry</text>
<polyline fill="none" stroke="black" points="1062.92,-1229.5 1295.92,-1229.5 "/>
<text text-anchor="middle" x="1179.42" y="-1217.5" font-family="Courier New" font-size="10.00"> </text>
<polyline fill="none" stroke="black" points="1062.92,-1210.5 1295.92,-1210.5 "/>
<text text-anchor="start" x="1070.92" y="-1198.5" font-family="Courier New" font-size="10.00">+ Geometry()</text>
</a>
</g>
</g>
<!-- Node14&#45;&gt;Node13 -->
<g id="edge14" class="edge"><title>Node14&#45;&gt;Node13</title>
<path fill="none" stroke="#404040" d="M1179.42,-1191.33C1179.42,-1137.54 1179.42,-1030.06 1179.42,-957.813"/>
<polygon fill="none" stroke="#404040" points="1179.42,-957.645 1175.42,-951.645 1179.42,-945.645 1183.42,-951.645 1179.42,-957.645"/>
<text text-anchor="middle" x="1209.92" y="-1033" font-family="Courier New" font-size="10.00"> &#45;geometry</text>
</g>
<!-- Node15 -->
<g id="node15" class="node"><title>Node15</title>
<g id="a_node15"><a xlink:href="../../dd/df0/struct_c2_m2_1_1_neuronal_dynamics_1_1_visualization_1_1_v_r_n_1_1_vrn_reader_1_1_geom1d.html" target="_top" xlink:title="Stores the 1D geometries by name, refinement and a description Inflations are attached to the 1D geom...">
<polygon fill="white" stroke="black" points="1062.92,-1450.5 1062.92,-1540.5 1295.92,-1540.5 1295.92,-1450.5 1062.92,-1450.5"/>
<text text-anchor="start" x="1070.92" y="-1528.5" font-family="Courier New" font-size="10.00">C2M2.NeuronalDynamics.Visualization.</text>
<text text-anchor="middle" x="1179.42" y="-1517.5" font-family="Courier New" font-size="10.00">VRN.VrnReader.Geom1d</text>
<polyline fill="none" stroke="black" points="1062.92,-1510.5 1295.92,-1510.5 "/>
<text text-anchor="start" x="1070.92" y="-1498.5" font-family="Courier New" font-size="10.00">+ name</text>
<text text-anchor="start" x="1070.92" y="-1487.5" font-family="Courier New" font-size="10.00">+ refinement</text>
<text text-anchor="start" x="1070.92" y="-1476.5" font-family="Courier New" font-size="10.00">+ description</text>
<polyline fill="none" stroke="black" points="1062.92,-1469.5 1295.92,-1469.5 "/>
<text text-anchor="start" x="1070.92" y="-1457.5" font-family="Courier New" font-size="10.00">+ Geom1d()</text>
</a>
</g>
</g>
<!-- Node15&#45;&gt;Node14 -->
<g id="edge15" class="edge"><title>Node15&#45;&gt;Node14</title>
<path fill="none" stroke="#404040" d="M1179.42,-1450.25C1179.42,-1401.01 1179.42,-1321.86 1179.42,-1272.09"/>
<polygon fill="none" stroke="#404040" points="1179.42,-1271.8 1175.42,-1265.8 1179.42,-1259.8 1183.42,-1265.8 1179.42,-1271.8"/>
<text text-anchor="middle" x="1203.92" y="-1413" font-family="Courier New" font-size="10.00"> +geom1d</text>
</g>
<!-- Node16 -->
<g id="node16" class="node"><title>Node16</title>
<g id="a_node16"><a xlink:href="../../d8/daf/struct_c2_m2_1_1_neuronal_dynamics_1_1_visualization_1_1_v_r_n_1_1_vrn_reader_1_1_geom2d.html" target="_top" xlink:title="Stores the 2d geometries by name, inflation (factor), and description">
<polygon fill="white" stroke="black" points="1062.92,-1588.5 1062.92,-1678.5 1295.92,-1678.5 1295.92,-1588.5 1062.92,-1588.5"/>
<text text-anchor="start" x="1070.92" y="-1666.5" font-family="Courier New" font-size="10.00">C2M2.NeuronalDynamics.Visualization.</text>
<text text-anchor="middle" x="1179.42" y="-1655.5" font-family="Courier New" font-size="10.00">VRN.VrnReader.Geom2d</text>
<polyline fill="none" stroke="black" points="1062.92,-1648.5 1295.92,-1648.5 "/>
<text text-anchor="start" x="1070.92" y="-1636.5" font-family="Courier New" font-size="10.00">+ inflation</text>
<text text-anchor="start" x="1070.92" y="-1625.5" font-family="Courier New" font-size="10.00">+ name</text>
<text text-anchor="start" x="1070.92" y="-1614.5" font-family="Courier New" font-size="10.00">+ description</text>
<polyline fill="none" stroke="black" points="1062.92,-1607.5 1295.92,-1607.5 "/>
<text text-anchor="start" x="1070.92" y="-1595.5" font-family="Courier New" font-size="10.00">+ Geom2d()</text>
</a>
</g>
</g>
<!-- Node16&#45;&gt;Node15 -->
<g id="edge16" class="edge"><title>Node16&#45;&gt;Node15</title>
<path fill="none" stroke="#404040" d="M1179.42,-1588.34C1179.42,-1577.06 1179.42,-1564.78 1179.42,-1552.97"/>
<polygon fill="none" stroke="#404040" points="1179.42,-1552.9 1175.42,-1546.9 1179.42,-1540.9 1183.42,-1546.9 1179.42,-1552.9"/>
<text text-anchor="middle" x="1215.92" y="-1562" font-family="Courier New" font-size="10.00"> +inflations</text>
</g>
<!-- Node17&#45;&gt;Node4 -->
<g id="edge17" class="edge"><title>Node17&#45;&gt;Node4</title>
<path fill="none" stroke="#404040" d="M883.689,-776.691C880.926,-773.402 878.166,-770.164 875.422,-767 821.405,-704.718 757.817,-638.894 703.622,-584.779"/>
<polygon fill="none" stroke="#404040" points="703.508,-584.666 696.435,-583.265 695.007,-576.197 702.081,-577.598 703.508,-584.666"/>
<text text-anchor="middle" x="900.922" y="-735.5" font-family="Courier New" font-size="10.00"> &#45;raycastManager</text>
</g>
<!-- Node18&#45;&gt;Node17 -->
<g id="edge20" class="edge"><title>Node18&#45;&gt;Node17</title>
<path fill="none" stroke="#404040" d="M946.005,-1169.2C948.745,-1126.92 952.633,-1066.93 956.131,-1012.94"/>
<polygon fill="none" stroke="#404040" points="956.141,-1012.78 952.538,-1006.54 956.917,-1000.81 960.521,-1007.06 956.141,-1012.78"/>
<text text-anchor="middle" x="993.922" y="-1044" font-family="Courier New" font-size="10.00"> +leftTrigger</text>
<text text-anchor="middle" x="993.922" y="-1033" font-family="Courier New" font-size="10.00">+rightTrigger</text>
<text text-anchor="middle" x="993.922" y="-1022" font-family="Courier New" font-size="10.00">&#45;emptyTrigger</text>
</g>
<!-- Node19 -->
<g id="node19" class="node"><title>Node19</title>
<g id="a_node19"><a xlink:href="../../d2/d43/class_c2_m2_1_1_interaction_1_1_raycast_press_events_1_1_raycast_hit_event.html" target="_top" xlink:title=" ">
<polygon fill="white" stroke="black" points="852.922,-1461.5 852.922,-1529.5 1031.92,-1529.5 1031.92,-1461.5 852.922,-1461.5"/>
<text text-anchor="start" x="860.922" y="-1517.5" font-family="Courier New" font-size="10.00">C2M2.Interaction.Raycast</text>
<text text-anchor="middle" x="942.422" y="-1506.5" font-family="Courier New" font-size="10.00">PressEvents.RaycastHitEvent</text>
<polyline fill="none" stroke="black" points="852.922,-1499.5 1031.92,-1499.5 "/>
<text text-anchor="middle" x="942.422" y="-1487.5" font-family="Courier New" font-size="10.00"> </text>
<polyline fill="none" stroke="black" points="852.922,-1480.5 1031.92,-1480.5 "/>
<text text-anchor="middle" x="942.422" y="-1468.5" font-family="Courier New" font-size="10.00"> </text>
</a>
</g>
</g>
<!-- Node19&#45;&gt;Node18 -->
<g id="edge22" class="edge"><title>Node19&#45;&gt;Node18</title>
<path fill="none" stroke="#404040" d="M942.422,-1461.37C942.422,-1419.73 942.422,-1347.24 942.422,-1293.78"/>
<polygon fill="none" stroke="#404040" points="942.422,-1293.65 938.422,-1287.65 942.422,-1281.65 946.422,-1287.65 942.422,-1293.65"/>
<text text-anchor="middle" x="978.922" y="-1424" font-family="Courier New" font-size="10.00"> &#45;onPress</text>
<text text-anchor="middle" x="978.922" y="-1413" font-family="Courier New" font-size="10.00">&#45;onHoldPress</text>
<text text-anchor="middle" x="978.922" y="-1402" font-family="Courier New" font-size="10.00">&#45;onEndPress</text>
</g>
<!-- Node20 -->
<g id="node20" class="node"><title>Node20</title>
<g id="a_node20"><a xlink:title=" ">
<polygon fill="white" stroke="#bfbfbf" points="861.922,-1605 861.922,-1662 1022.92,-1662 1022.92,-1605 861.922,-1605"/>
<text text-anchor="middle" x="942.422" y="-1650" font-family="Courier New" font-size="10.00">UnityEvent&lt; RaycastHit &gt;</text>
<polyline fill="none" stroke="#bfbfbf" points="861.922,-1643 1022.92,-1643 "/>
<text text-anchor="middle" x="942.422" y="-1631" font-family="Courier New" font-size="10.00"> </text>
<polyline fill="none" stroke="#bfbfbf" points="861.922,-1624 1022.92,-1624 "/>
<text text-anchor="middle" x="942.422" y="-1612" font-family="Courier New" font-size="10.00"> </text>
</a>
</g>
</g>
<!-- Node20&#45;&gt;Node19 -->
<g id="edge23" class="edge"><title>Node20&#45;&gt;Node19</title>
<path fill="none" stroke="midnightblue" d="M942.422,-1594.78C942.422,-1574.38 942.422,-1549.41 942.422,-1529.75"/>
<polygon fill="none" stroke="midnightblue" points="938.922,-1594.98 942.422,-1604.98 945.922,-1594.98 938.922,-1594.98"/>
</g>
</g>
</svg>
