<?xml version="1.0" encoding="UTF-8" standalone="no"?>
<!DOCTYPE svg PUBLIC "-//W3C//DTD SVG 1.1//EN"
 "http://www.w3.org/Graphics/SVG/1.1/DTD/svg11.dtd">
<!-- Generated by graphviz version 2.38.0 (20140413.2041)
 -->
<!-- Title: C2M2.RaycastInputField Pages: 1 -->
<svg width="163pt" height="457pt"
 viewBox="0.00 0.00 163.00 457.00" xmlns="http://www.w3.org/2000/svg" xmlns:xlink="http://www.w3.org/1999/xlink">
<g id="graph0" class="graph" transform="scale(1 1) rotate(0) translate(4 453)">
<title>C2M2.RaycastInputField</title>
<polygon fill="white" stroke="none" points="-4,4 -4,-453 159,-453 159,4 -4,4"/>
<!-- Node1 -->
<g id="node1" class="node"><title>Node1</title>
<g id="a_node1"><a xlink:title=" ">
<polygon fill="#bfbfbf" stroke="black" points="0,-0.5 0,-354.5 155,-354.5 155,-0.5 0,-0.5"/>
<text text-anchor="middle" x="77.5" y="-342.5" font-family="Courier New" font-size="10.00">C2M2.RaycastInputField</text>
<polyline fill="none" stroke="black" points="0,-335.5 155,-335.5 "/>
<text text-anchor="start" x="8" y="-323.5" font-family="Courier New" font-size="10.00">+ menuAnchor</text>
<text text-anchor="start" x="8" y="-312.5" font-family="Courier New" font-size="10.00">+ targetGraphic</text>
<text text-anchor="start" x="8" y="-301.5" font-family="Courier New" font-size="10.00">+ defaultColor</text>
<text text-anchor="start" x="8" y="-290.5" font-family="Courier New" font-size="10.00">+ highlightedColor</text>
<text text-anchor="start" x="8" y="-279.5" font-family="Courier New" font-size="10.00">+ invalidColor</text>
<text text-anchor="start" x="8" y="-268.5" font-family="Courier New" font-size="10.00">+ validColor</text>
<text text-anchor="start" x="8" y="-257.5" font-family="Courier New" font-size="10.00">+ textComponent</text>
<text text-anchor="start" x="8" y="-246.5" font-family="Courier New" font-size="10.00">+ text</text>
<text text-anchor="start" x="8" y="-235.5" font-family="Courier New" font-size="10.00">+ placeHolder</text>
<text text-anchor="start" x="8" y="-224.5" font-family="Courier New" font-size="10.00">+ takeFromHolder</text>
<text text-anchor="start" x="8" y="-213.5" font-family="Courier New" font-size="10.00">and 8 more...</text>
<text text-anchor="start" x="8" y="-202.5" font-family="Courier New" font-size="10.00">&#45; keyboard</text>
<text text-anchor="start" x="8" y="-191.5" font-family="Courier New" font-size="10.00">&#45; caretEnabled</text>
<polyline fill="none" stroke="black" points="0,-184.5 155,-184.5 "/>
<text text-anchor="start" x="8" y="-172.5" font-family="Courier New" font-size="10.00">+ Activate()</text>
<text text-anchor="start" x="8" y="-161.5" font-family="Courier New" font-size="10.00">+ Deactivate()</text>
<text text-anchor="start" x="8" y="-150.5" font-family="Courier New" font-size="10.00">+ CharacterIntake()</text>
<text text-anchor="start" x="8" y="-139.5" font-family="Courier New" font-size="10.00">+ PrintText()</text>
<text text-anchor="start" x="8" y="-128.5" font-family="Courier New" font-size="10.00">&#45; Start()</text>
<text text-anchor="start" x="8" y="-117.5" font-family="Courier New" font-size="10.00">&#45; ValidateInput()</text>
<text text-anchor="start" x="8" y="-106.5" font-family="Courier New" font-size="10.00">&#45; UpdateDisplayText()</text>
<text text-anchor="start" x="8" y="-95.5" font-family="Courier New" font-size="10.00">&#45; ColorToDefault()</text>
<text text-anchor="start" x="8" y="-84.5" font-family="Courier New" font-size="10.00">&#45; ColorToHighlighted()</text>
<text text-anchor="start" x="8" y="-73.5" font-family="Courier New" font-size="10.00">&#45; ColorToInvalid()</text>
<text text-anchor="start" x="8" y="-62.5" font-family="Courier New" font-size="10.00">&#45; ColorToValid()</text>
<text text-anchor="start" x="8" y="-51.5" font-family="Courier New" font-size="10.00">&#45; UpdateCaretPosition()</text>
<text text-anchor="start" x="8" y="-40.5" font-family="Courier New" font-size="10.00">&#45; caretBlink()</text>
<text text-anchor="start" x="8" y="-29.5" font-family="Courier New" font-size="10.00">&#45; AppendText()</text>
<text text-anchor="start" x="8" y="-18.5" font-family="Courier New" font-size="10.00">&#45; RemoveLast()</text>
<text text-anchor="start" x="8" y="-7.5" font-family="Courier New" font-size="10.00">&#45; SubmitText()</text>
</a>
</g>
</g>
<!-- Node2 -->
<g id="node2" class="node"><title>Node2</title>
<g id="a_node2"><a xlink:title=" ">
<polygon fill="white" stroke="#bfbfbf" points="30,-391.5 30,-448.5 125,-448.5 125,-391.5 30,-391.5"/>
<text text-anchor="middle" x="77.5" y="-436.5" font-family="Courier New" font-size="10.00">MonoBehaviour</text>
<polyline fill="none" stroke="#bfbfbf" points="30,-429.5 125,-429.5 "/>
<text text-anchor="middle" x="77.5" y="-417.5" font-family="Courier New" font-size="10.00"> </text>
<polyline fill="none" stroke="#bfbfbf" points="30,-410.5 125,-410.5 "/>
<text text-anchor="middle" x="77.5" y="-398.5" font-family="Courier New" font-size="10.00"> </text>
</a>
</g>
</g>
<!-- Node2&#45;&gt;Node1 -->
<g id="edge1" class="edge"><title>Node2&#45;&gt;Node1</title>
<path fill="none" stroke="midnightblue" d="M77.5,-381.175C77.5,-373.225 77.5,-364.348 77.5,-354.871"/>
<polygon fill="none" stroke="midnightblue" points="74.0001,-381.412 77.5,-391.412 81.0001,-381.412 74.0001,-381.412"/>
</g>
</g>
</svg>
