<?xml version="1.0" encoding="UTF-8" standalone="no"?>
<!DOCTYPE svg PUBLIC "-//W3C//DTD SVG 1.1//EN"
 "http://www.w3.org/Graphics/SVG/1.1/DTD/svg11.dtd">
<!-- Generated by graphviz version 2.38.0 (20140413.2041)
 -->
<!-- Title: C2M2.Interaction.VR.GrabbableNotFoundException Pages: 1 -->
<svg width="205pt" height="193pt"
 viewBox="0.00 0.00 205.00 193.00" xmlns="http://www.w3.org/2000/svg" xmlns:xlink="http://www.w3.org/1999/xlink">
<g id="graph0" class="graph" transform="scale(1 1) rotate(0) translate(4 189)">
<title>C2M2.Interaction.VR.GrabbableNotFoundException</title>
<polygon fill="white" stroke="none" points="-4,4 -4,-189 201,-189 201,4 -4,4"/>
<!-- Node1 -->
<g id="node1" class="node"><title>Node1</title>
<g id="a_node1"><a xlink:title=" ">
<polygon fill="#bfbfbf" stroke="black" points="0,-0.5 0,-90.5 197,-90.5 197,-0.5 0,-0.5"/>
<text text-anchor="start" x="8" y="-78.5" font-family="Courier New" font-size="10.00">C2M2.Interaction.VR.Grabbable</text>
<text text-anchor="middle" x="98.5" y="-67.5" font-family="Courier New" font-size="10.00">NotFoundException</text>
<polyline fill="none" stroke="black" points="0,-60.5 197,-60.5 "/>
<text text-anchor="middle" x="98.5" y="-48.5" font-family="Courier New" font-size="10.00"> </text>
<polyline fill="none" stroke="black" points="0,-41.5 197,-41.5 "/>
<text text-anchor="start" x="8" y="-29.5" font-family="Courier New" font-size="10.00">+ GrabbableNotFoundException()</text>
<text text-anchor="start" x="8" y="-18.5" font-family="Courier New" font-size="10.00">+ GrabbableNotFoundException()</text>
<text text-anchor="start" x="8" y="-7.5" font-family="Courier New" font-size="10.00">+ GrabbableNotFoundException()</text>
</a>
</g>
</g>
<!-- Node2 -->
<g id="node2" class="node"><title>Node2</title>
<g id="a_node2"><a xlink:title=" ">
<polygon fill="white" stroke="#bfbfbf" points="63,-127.5 63,-184.5 134,-184.5 134,-127.5 63,-127.5"/>
<text text-anchor="middle" x="98.5" y="-172.5" font-family="Courier New" font-size="10.00">Exception</text>
<polyline fill="none" stroke="#bfbfbf" points="63,-165.5 134,-165.5 "/>
<text text-anchor="middle" x="98.5" y="-153.5" font-family="Courier New" font-size="10.00"> </text>
<polyline fill="none" stroke="#bfbfbf" points="63,-146.5 134,-146.5 "/>
<text text-anchor="middle" x="98.5" y="-134.5" font-family="Courier New" font-size="10.00"> </text>
</a>
</g>
</g>
<!-- Node2&#45;&gt;Node1 -->
<g id="edge1" class="edge"><title>Node2&#45;&gt;Node1</title>
<path fill="none" stroke="midnightblue" d="M98.5,-117.214C98.5,-108.609 98.5,-99.3943 98.5,-90.5541"/>
<polygon fill="none" stroke="midnightblue" points="95.0001,-117.34 98.5,-127.34 102,-117.34 95.0001,-117.34"/>
</g>
</g>
</svg>
