<?xml version="1.0" encoding="UTF-8" standalone="no"?>
<!DOCTYPE svg PUBLIC "-//W3C//DTD SVG 1.1//EN"
 "http://www.w3.org/Graphics/SVG/1.1/DTD/svg11.dtd">
<!-- Generated by graphviz version 2.38.0 (20140413.2041)
 -->
<!-- Title: C2M2.NeuronalDynamics.Simulation.NeuronSimulation Pages: 1 -->
<svg width="387pt" height="778pt"
 viewBox="0.00 0.00 386.50 778.00" xmlns="http://www.w3.org/2000/svg" xmlns:xlink="http://www.w3.org/1999/xlink">
<g id="graph0" class="graph" transform="scale(1 1) rotate(0) translate(4 774)">
<title>C2M2.NeuronalDynamics.Simulation.NeuronSimulation</title>
<polygon fill="white" stroke="none" points="-4,4 -4,-774 382.5,-774 382.5,4 -4,4"/>
<!-- Node1 -->
<g id="node1" class="node"><title>Node1</title>
<g id="a_node1"><a xlink:title="Provides base functionality for Neuron simulations">
<polygon fill="#bfbfbf" stroke="black" points="102,-0.5 102,-156.5 317,-156.5 317,-0.5 102,-0.5"/>
<text text-anchor="start" x="110" y="-144.5" font-family="Courier New" font-size="10.00">C2M2.NeuronalDynamics.Simulation.</text>
<text text-anchor="middle" x="209.5" y="-133.5" font-family="Courier New" font-size="10.00">NeuronSimulation</text>
<polyline fill="none" stroke="black" points="102,-126.5 317,-126.5 "/>
<text text-anchor="start" x="110" y="-114.5" font-family="Courier New" font-size="10.00">+ visualize1D</text>
<text text-anchor="start" x="110" y="-103.5" font-family="Courier New" font-size="10.00">+ color1D</text>
<text text-anchor="start" x="110" y="-92.5" font-family="Courier New" font-size="10.00">+ lineWidth1D</text>
<text text-anchor="start" x="110" y="-81.5" font-family="Courier New" font-size="10.00">&#45; map</text>
<polyline fill="none" stroke="black" points="102,-74.5 317,-74.5 "/>
<text text-anchor="start" x="110" y="-62.5" font-family="Courier New" font-size="10.00">+ GetValues()</text>
<text text-anchor="start" x="110" y="-51.5" font-family="Courier New" font-size="10.00">+ SetValues()</text>
<text text-anchor="start" x="110" y="-40.5" font-family="Courier New" font-size="10.00"># Set1DValues()</text>
<text text-anchor="start" x="110" y="-29.5" font-family="Courier New" font-size="10.00"># Get1DValues()</text>
<text text-anchor="start" x="110" y="-18.5" font-family="Courier New" font-size="10.00"># SetNeuronCell()</text>
<text text-anchor="start" x="110" y="-7.5" font-family="Courier New" font-size="10.00"># BuildMesh()</text>
</a>
</g>
</g>
<!-- Node2 -->
<g id="node2" class="node"><title>Node2</title>
<g id="a_node2"><a xlink:href="../../d4/de1/class_c2_m2_1_1_simulation_1_1_surface_simulation.html" target="_top" xlink:title="Simulation of type double[] for visualizing scalar fields on mesh surfaces">
<polygon fill="white" stroke="black" points="16,-270.5 16,-415.5 171,-415.5 171,-270.5 16,-270.5"/>
<text text-anchor="middle" x="93.5" y="-403.5" font-family="Courier New" font-size="10.00">SurfaceSimulation</text>
<polyline fill="none" stroke="black" points="16,-396.5 171,-396.5 "/>
<text text-anchor="start" x="24" y="-384.5" font-family="Courier New" font-size="10.00">+ gradient</text>
<text text-anchor="start" x="24" y="-373.5" font-family="Courier New" font-size="10.00">+ globalMax</text>
<text text-anchor="start" x="24" y="-362.5" font-family="Courier New" font-size="10.00">+ globalMin</text>
<text text-anchor="start" x="24" y="-351.5" font-family="Courier New" font-size="10.00">+ colorLUT</text>
<text text-anchor="start" x="24" y="-340.5" font-family="Courier New" font-size="10.00">&#45; mf</text>
<text text-anchor="start" x="24" y="-329.5" font-family="Courier New" font-size="10.00">&#45; mr</text>
<polyline fill="none" stroke="black" points="16,-322.5 171,-322.5 "/>
<text text-anchor="start" x="24" y="-310.5" font-family="Courier New" font-size="10.00"># BuildMesh()</text>
<text text-anchor="start" x="24" y="-299.5" font-family="Courier New" font-size="10.00"># UpdateVisualization()</text>
<text text-anchor="start" x="24" y="-288.5" font-family="Courier New" font-size="10.00"># OnAwake()</text>
<text text-anchor="start" x="24" y="-277.5" font-family="Courier New" font-size="10.00">&#45; UpdateVisualization()</text>
</a>
</g>
</g>
<!-- Node2&#45;&gt;Node1 -->
<g id="edge1" class="edge"><title>Node2&#45;&gt;Node1</title>
<path fill="none" stroke="midnightblue" d="M129.277,-261.039C143.965,-227.802 160.893,-189.495 175.402,-156.662"/>
<polygon fill="none" stroke="midnightblue" points="126.038,-259.709 125.198,-270.271 132.441,-262.539 126.038,-259.709"/>
</g>
<!-- Node3 -->
<g id="node3" class="node"><title>Node3</title>
<g id="a_node3"><a xlink:href="../../db/d39/class_c2_m2_1_1_simulation_1_1_simulation.html" target="_top" xlink:title=" ">
<polygon fill="white" stroke="black" points="0,-463.5 0,-674.5 155,-674.5 155,-463.5 0,-463.5"/>
<text text-anchor="middle" x="77.5" y="-662.5" font-family="Courier New" font-size="10.00">Simulation&lt; double[]&gt;</text>
<polyline fill="none" stroke="black" points="0,-655.5 155,-655.5 "/>
<text text-anchor="start" x="8" y="-643.5" font-family="Courier New" font-size="10.00">+ startOnAwake</text>
<text text-anchor="start" x="8" y="-632.5" font-family="Courier New" font-size="10.00"># mutex</text>
<text text-anchor="start" x="8" y="-621.5" font-family="Courier New" font-size="10.00">&#45; solveThread</text>
<polyline fill="none" stroke="black" points="0,-614.5 155,-614.5 "/>
<text text-anchor="start" x="8" y="-602.5" font-family="Courier New" font-size="10.00">+ GetValues()</text>
<text text-anchor="start" x="8" y="-591.5" font-family="Courier New" font-size="10.00">+ Awake()</text>
<text text-anchor="start" x="8" y="-580.5" font-family="Courier New" font-size="10.00">+ Start()</text>
<text text-anchor="start" x="8" y="-569.5" font-family="Courier New" font-size="10.00">+ Update()</text>
<text text-anchor="start" x="8" y="-558.5" font-family="Courier New" font-size="10.00">+ StartSimulation()</text>
<text text-anchor="start" x="8" y="-547.5" font-family="Courier New" font-size="10.00">+ StopSimulation()</text>
<text text-anchor="start" x="8" y="-536.5" font-family="Courier New" font-size="10.00"># UpdateVisualization()</text>
<text text-anchor="start" x="8" y="-525.5" font-family="Courier New" font-size="10.00"># OnAwake()</text>
<text text-anchor="start" x="8" y="-514.5" font-family="Courier New" font-size="10.00"># OnStart()</text>
<text text-anchor="start" x="8" y="-503.5" font-family="Courier New" font-size="10.00"># OnUpdate()</text>
<text text-anchor="start" x="8" y="-492.5" font-family="Courier New" font-size="10.00"># Solve()</text>
<text text-anchor="start" x="8" y="-481.5" font-family="Courier New" font-size="10.00">&#45; OnApplicationPause()</text>
<text text-anchor="start" x="8" y="-470.5" font-family="Courier New" font-size="10.00">&#45; OnApplicationQuit()</text>
</a>
</g>
</g>
<!-- Node3&#45;&gt;Node2 -->
<g id="edge2" class="edge"><title>Node3&#45;&gt;Node2</title>
<path fill="none" stroke="midnightblue" d="M85.7114,-453.041C86.6177,-440.353 87.5203,-427.716 88.3728,-415.781"/>
<polygon fill="none" stroke="midnightblue" points="82.2061,-452.99 84.9847,-463.214 89.1884,-453.489 82.2061,-452.99"/>
</g>
<!-- Node4 -->
<g id="node4" class="node"><title>Node4</title>
<g id="a_node4"><a xlink:href="../../da/d4f/class_c2_m2_1_1_visualization_1_1_l_u_t_gradient.html" target="_top" xlink:title="Create a fast and memory&#45;friendly color lookup table from a gradient">
<polygon fill="white" stroke="black" points="173,-485.5 173,-652.5 370,-652.5 370,-485.5 173,-485.5"/>
<text text-anchor="middle" x="271.5" y="-640.5" font-family="Courier New" font-size="10.00">C2M2.Visualization.LUTGradient</text>
<polyline fill="none" stroke="black" points="173,-633.5 370,-633.5 "/>
<text text-anchor="start" x="181" y="-621.5" font-family="Courier New" font-size="10.00">+ extremaMethod</text>
<text text-anchor="start" x="181" y="-610.5" font-family="Courier New" font-size="10.00">+ globalMax</text>
<text text-anchor="start" x="181" y="-599.5" font-family="Courier New" font-size="10.00">+ globalMin</text>
<text text-anchor="start" x="181" y="-588.5" font-family="Courier New" font-size="10.00">+ LutRes</text>
<text text-anchor="start" x="181" y="-577.5" font-family="Courier New" font-size="10.00">+ Gradient</text>
<text text-anchor="start" x="181" y="-566.5" font-family="Courier New" font-size="10.00">+ gradientLUT</text>
<text text-anchor="start" x="181" y="-555.5" font-family="Courier New" font-size="10.00">&#45; lutRes</text>
<text text-anchor="start" x="181" y="-544.5" font-family="Courier New" font-size="10.00">&#45; gradient</text>
<polyline fill="none" stroke="black" points="173,-537.5 370,-537.5 "/>
<text text-anchor="start" x="181" y="-525.5" font-family="Courier New" font-size="10.00">+ Evaluate()</text>
<text text-anchor="start" x="181" y="-514.5" font-family="Courier New" font-size="10.00">+ Evaluate()</text>
<text text-anchor="start" x="181" y="-503.5" font-family="Courier New" font-size="10.00">&#45; BuildLUT()</text>
<text text-anchor="start" x="181" y="-492.5" font-family="Courier New" font-size="10.00">&#45; RescaleArray()</text>
</a>
</g>
</g>
<!-- Node4&#45;&gt;Node2 -->
<g id="edge3" class="edge"><title>Node4&#45;&gt;Node2</title>
<path fill="none" stroke="#404040" d="M205.725,-485.227C190.15,-465.627 173.555,-444.744 158.036,-425.214"/>
<polygon fill="none" stroke="#404040" points="157.979,-425.142 151.115,-422.933 150.514,-415.747 157.378,-417.956 157.979,-425.142"/>
<text text-anchor="middle" x="218" y="-437" font-family="Courier New" font-size="10.00"> +extremaMethod</text>
</g>
<!-- Node5 -->
<g id="node5" class="node"><title>Node5</title>
<g id="a_node5"><a xlink:title=" ">
<polygon fill="white" stroke="#bfbfbf" points="224,-712.5 224,-769.5 319,-769.5 319,-712.5 224,-712.5"/>
<text text-anchor="middle" x="271.5" y="-757.5" font-family="Courier New" font-size="10.00">MonoBehaviour</text>
<polyline fill="none" stroke="#bfbfbf" points="224,-750.5 319,-750.5 "/>
<text text-anchor="middle" x="271.5" y="-738.5" font-family="Courier New" font-size="10.00"> </text>
<polyline fill="none" stroke="#bfbfbf" points="224,-731.5 319,-731.5 "/>
<text text-anchor="middle" x="271.5" y="-719.5" font-family="Courier New" font-size="10.00"> </text>
</a>
</g>
</g>
<!-- Node5&#45;&gt;Node4 -->
<g id="edge4" class="edge"><title>Node5&#45;&gt;Node4</title>
<path fill="none" stroke="midnightblue" d="M271.5,-702.149C271.5,-687.476 271.5,-670.061 271.5,-652.769"/>
<polygon fill="none" stroke="midnightblue" points="268,-702.308 271.5,-712.308 275,-702.308 268,-702.308"/>
</g>
<!-- Node6 -->
<g id="node6" class="node"><title>Node6</title>
<g id="a_node6"><a xlink:title=" ">
<polygon fill="white" stroke="#bfbfbf" points="189,-314.5 189,-371.5 230,-371.5 230,-314.5 189,-314.5"/>
<text text-anchor="middle" x="209.5" y="-359.5" font-family="Courier New" font-size="10.00">C2M2</text>
<polyline fill="none" stroke="#bfbfbf" points="189,-352.5 230,-352.5 "/>
<text text-anchor="middle" x="209.5" y="-340.5" font-family="Courier New" font-size="10.00"> </text>
<polyline fill="none" stroke="#bfbfbf" points="189,-333.5 230,-333.5 "/>
<text text-anchor="middle" x="209.5" y="-321.5" font-family="Courier New" font-size="10.00"> </text>
</a>
</g>
</g>
<!-- Node6&#45;&gt;Node1 -->
<g id="edge5" class="edge"><title>Node6&#45;&gt;Node1</title>
<path fill="none" stroke="#404040" d="M209.5,-314.404C209.5,-280.039 209.5,-219.644 209.5,-168.7"/>
<polygon fill="none" stroke="#404040" points="209.5,-168.648 205.5,-162.648 209.5,-156.648 213.5,-162.648 209.5,-168.648"/>
<text text-anchor="middle" x="234" y="-211" font-family="Courier New" font-size="10.00"> #grid1D</text>
</g>
<!-- Node7 -->
<g id="node7" class="node"><title>Node7</title>
<g id="a_node7"><a xlink:title=" ">
<polygon fill="white" stroke="#bfbfbf" points="255,-314.5 255,-371.5 308,-371.5 308,-314.5 255,-314.5"/>
<text text-anchor="middle" x="281.5" y="-359.5" font-family="Courier New" font-size="10.00">static</text>
<polyline fill="none" stroke="#bfbfbf" points="255,-352.5 308,-352.5 "/>
<text text-anchor="middle" x="281.5" y="-340.5" font-family="Courier New" font-size="10.00"> </text>
<polyline fill="none" stroke="#bfbfbf" points="255,-333.5 308,-333.5 "/>
<text text-anchor="middle" x="281.5" y="-321.5" font-family="Courier New" font-size="10.00"> </text>
</a>
</g>
</g>
<!-- Node7&#45;&gt;Node1 -->
<g id="edge6" class="edge"><title>Node7&#45;&gt;Node1</title>
<path fill="none" stroke="#404040" d="M280.814,-314.465C279.312,-280.829 274.551,-222.534 259.5,-175 258.78,-172.725 258.007,-170.44 257.189,-168.151"/>
<polygon fill="none" stroke="#404040" points="257.091,-167.898 251.193,-163.748 252.755,-156.708 258.653,-160.858 257.091,-167.898"/>
<text text-anchor="middle" x="327" y="-244" font-family="Courier New" font-size="10.00"> &#45;specTris</text>
<text text-anchor="middle" x="327" y="-233" font-family="Courier New" font-size="10.00">&#45;activeCellFolder</text>
<text text-anchor="middle" x="327" y="-222" font-family="Courier New" font-size="10.00">&#45;neuronCellFolder</text>
<text text-anchor="middle" x="327" y="-211" font-family="Courier New" font-size="10.00">&#45;cngExt</text>
<text text-anchor="middle" x="327" y="-200" font-family="Courier New" font-size="10.00">&#45;specBlownup</text>
<text text-anchor="middle" x="327" y="-189" font-family="Courier New" font-size="10.00">&#45;spec1D</text>
<text text-anchor="middle" x="327" y="-178" font-family="Courier New" font-size="10.00">&#45;ugxExt</text>
</g>
</g>
</svg>
