<?xml version="1.0" encoding="UTF-8" standalone="no"?>
<!DOCTYPE svg PUBLIC "-//W3C//DTD SVG 1.1//EN"
 "http://www.w3.org/Graphics/SVG/1.1/DTD/svg11.dtd">
<!-- Generated by graphviz version 2.38.0 (20140413.2041)
 -->
<!-- Title: C2M2.Simulation.PositionFieldSimulation Pages: 1 -->
<svg width="468pt" height="733pt"
 viewBox="0.00 0.00 468.00 733.00" xmlns="http://www.w3.org/2000/svg" xmlns:xlink="http://www.w3.org/1999/xlink">
<g id="graph0" class="graph" transform="scale(1 1) rotate(0) translate(4 729)">
<title>C2M2.Simulation.PositionFieldSimulation</title>
<polygon fill="white" stroke="none" points="-4,4 -4,-729 464,-729 464,4 -4,4"/>
<!-- Node1 -->
<g id="node1" class="node"><title>Node1</title>
<g id="a_node1"><a xlink:title="Simulation of type Vector3[] for simulating positional fields">
<polygon fill="#bfbfbf" stroke="black" points="149,-386.5 149,-476.5 310,-476.5 310,-386.5 149,-386.5"/>
<text text-anchor="start" x="157" y="-464.5" font-family="Courier New" font-size="10.00">C2M2.Simulation.Position</text>
<text text-anchor="middle" x="229.5" y="-453.5" font-family="Courier New" font-size="10.00">FieldSimulation</text>
<polyline fill="none" stroke="black" points="149,-446.5 310,-446.5 "/>
<text text-anchor="start" x="157" y="-434.5" font-family="Courier New" font-size="10.00">&#45; transforms</text>
<polyline fill="none" stroke="black" points="149,-427.5 310,-427.5 "/>
<text text-anchor="start" x="157" y="-415.5" font-family="Courier New" font-size="10.00"># OnAwake()</text>
<text text-anchor="start" x="157" y="-404.5" font-family="Courier New" font-size="10.00"># BuildTransforms()</text>
<text text-anchor="start" x="157" y="-393.5" font-family="Courier New" font-size="10.00"># UpdateVisualization()</text>
</a>
</g>
</g>
<!-- Node3 -->
<g id="node3" class="node"><title>Node3</title>
<g id="a_node3"><a xlink:href="../../d0/d99/class_c2_m2_1_1_molecular_dynamics_1_1_simulation_1_1_m_d_simulation.html" target="_top" xlink:title=" ">
<polygon fill="white" stroke="black" points="119,-281.5 119,-349.5 340,-349.5 340,-281.5 119,-281.5"/>
<text text-anchor="start" x="127" y="-337.5" font-family="Courier New" font-size="10.00">C2M2.MolecularDynamics.Simulation.</text>
<text text-anchor="middle" x="229.5" y="-326.5" font-family="Courier New" font-size="10.00">MDSimulation</text>
<polyline fill="none" stroke="black" points="119,-319.5 340,-319.5 "/>
<text text-anchor="start" x="127" y="-307.5" font-family="Courier New" font-size="10.00">+ pdbFilePath</text>
<polyline fill="none" stroke="black" points="119,-300.5 340,-300.5 "/>
<text text-anchor="start" x="127" y="-288.5" font-family="Courier New" font-size="10.00"># BuildTransforms()</text>
</a>
</g>
</g>
<!-- Node1&#45;&gt;Node3 -->
<g id="edge2" class="edge"><title>Node1&#45;&gt;Node3</title>
<path fill="none" stroke="midnightblue" d="M229.5,-376.316C229.5,-367.285 229.5,-358.159 229.5,-349.848"/>
<polygon fill="none" stroke="midnightblue" points="226,-376.425 229.5,-386.425 233,-376.425 226,-376.425"/>
</g>
<!-- Node2 -->
<g id="node2" class="node"><title>Node2</title>
<g id="a_node2"><a xlink:href="../../db/d39/class_c2_m2_1_1_simulation_1_1_simulation.html" target="_top" xlink:title=" ">
<polygon fill="white" stroke="black" points="152,-513.5 152,-724.5 307,-724.5 307,-513.5 152,-513.5"/>
<text text-anchor="middle" x="229.5" y="-712.5" font-family="Courier New" font-size="10.00">Simulation&lt; Vector3[]&gt;</text>
<polyline fill="none" stroke="black" points="152,-705.5 307,-705.5 "/>
<text text-anchor="start" x="160" y="-693.5" font-family="Courier New" font-size="10.00">+ startOnAwake</text>
<text text-anchor="start" x="160" y="-682.5" font-family="Courier New" font-size="10.00"># mutex</text>
<text text-anchor="start" x="160" y="-671.5" font-family="Courier New" font-size="10.00">&#45; solveThread</text>
<polyline fill="none" stroke="black" points="152,-664.5 307,-664.5 "/>
<text text-anchor="start" x="160" y="-652.5" font-family="Courier New" font-size="10.00">+ GetValues()</text>
<text text-anchor="start" x="160" y="-641.5" font-family="Courier New" font-size="10.00">+ Awake()</text>
<text text-anchor="start" x="160" y="-630.5" font-family="Courier New" font-size="10.00">+ Start()</text>
<text text-anchor="start" x="160" y="-619.5" font-family="Courier New" font-size="10.00">+ Update()</text>
<text text-anchor="start" x="160" y="-608.5" font-family="Courier New" font-size="10.00">+ StartSimulation()</text>
<text text-anchor="start" x="160" y="-597.5" font-family="Courier New" font-size="10.00">+ StopSimulation()</text>
<text text-anchor="start" x="160" y="-586.5" font-family="Courier New" font-size="10.00"># UpdateVisualization()</text>
<text text-anchor="start" x="160" y="-575.5" font-family="Courier New" font-size="10.00"># OnAwake()</text>
<text text-anchor="start" x="160" y="-564.5" font-family="Courier New" font-size="10.00"># OnStart()</text>
<text text-anchor="start" x="160" y="-553.5" font-family="Courier New" font-size="10.00"># OnUpdate()</text>
<text text-anchor="start" x="160" y="-542.5" font-family="Courier New" font-size="10.00"># Solve()</text>
<text text-anchor="start" x="160" y="-531.5" font-family="Courier New" font-size="10.00">&#45; OnApplicationPause()</text>
<text text-anchor="start" x="160" y="-520.5" font-family="Courier New" font-size="10.00">&#45; OnApplicationQuit()</text>
</a>
</g>
</g>
<!-- Node2&#45;&gt;Node1 -->
<g id="edge1" class="edge"><title>Node2&#45;&gt;Node1</title>
<path fill="none" stroke="midnightblue" d="M229.5,-503.191C229.5,-493.949 229.5,-485.017 229.5,-476.792"/>
<polygon fill="none" stroke="midnightblue" points="226,-503.323 229.5,-513.323 233,-503.323 226,-503.323"/>
</g>
<!-- Node4 -->
<g id="node4" class="node"><title>Node4</title>
<g id="a_node4"><a xlink:href="../../d5/de2/class_c2_m2_1_1_molecular_dynamics_1_1_simulation_1_1_example_m_d_simulation.html" target="_top" xlink:title=" ">
<polygon fill="white" stroke="black" points="0,-0.5 0,-244.5 221,-244.5 221,-0.5 0,-0.5"/>
<text text-anchor="start" x="8" y="-232.5" font-family="Courier New" font-size="10.00">C2M2.MolecularDynamics.Simulation.</text>
<text text-anchor="middle" x="110.5" y="-221.5" font-family="Courier New" font-size="10.00">ExampleMDSimulation</text>
<polyline fill="none" stroke="black" points="0,-214.5 221,-214.5 "/>
<text text-anchor="start" x="8" y="-202.5" font-family="Courier New" font-size="10.00">+ numSpheres</text>
<text text-anchor="start" x="8" y="-191.5" font-family="Courier New" font-size="10.00">+ radius</text>
<text text-anchor="start" x="8" y="-180.5" font-family="Courier New" font-size="10.00">+ kb</text>
<text text-anchor="start" x="8" y="-169.5" font-family="Courier New" font-size="10.00">+ T</text>
<text text-anchor="start" x="8" y="-158.5" font-family="Courier New" font-size="10.00">+ timestepCount</text>
<text text-anchor="start" x="8" y="-147.5" font-family="Courier New" font-size="10.00">+ timestepSize</text>
<text text-anchor="start" x="8" y="-136.5" font-family="Courier New" font-size="10.00">&#45; x</text>
<text text-anchor="start" x="8" y="-125.5" font-family="Courier New" font-size="10.00">&#45; v</text>
<text text-anchor="start" x="8" y="-114.5" font-family="Courier New" font-size="10.00">&#45; r</text>
<text text-anchor="start" x="8" y="-103.5" font-family="Courier New" font-size="10.00">&#45; bond_topo</text>
<text text-anchor="start" x="8" y="-92.5" font-family="Courier New" font-size="10.00">&#45; angle_topo</text>
<text text-anchor="start" x="8" y="-81.5" font-family="Courier New" font-size="10.00">&#45; molLookup</text>
<polyline fill="none" stroke="black" points="0,-74.5 221,-74.5 "/>
<text text-anchor="start" x="8" y="-62.5" font-family="Courier New" font-size="10.00">+ GetValues()</text>
<text text-anchor="start" x="8" y="-51.5" font-family="Courier New" font-size="10.00">+ SetValues()</text>
<text text-anchor="start" x="8" y="-40.5" font-family="Courier New" font-size="10.00">+ Force()</text>
<text text-anchor="start" x="8" y="-29.5" font-family="Courier New" font-size="10.00">+ angle_Force()</text>
<text text-anchor="start" x="8" y="-18.5" font-family="Courier New" font-size="10.00"># BuildTransforms()</text>
<text text-anchor="start" x="8" y="-7.5" font-family="Courier New" font-size="10.00"># Solve()</text>
</a>
</g>
</g>
<!-- Node3&#45;&gt;Node4 -->
<g id="edge3" class="edge"><title>Node3&#45;&gt;Node4</title>
<path fill="none" stroke="midnightblue" d="M203.405,-272.616C198.058,-264.034 192.179,-254.598 186.054,-244.768"/>
<polygon fill="none" stroke="midnightblue" points="200.513,-274.594 208.772,-281.23 206.454,-270.892 200.513,-274.594"/>
</g>
<!-- Node5 -->
<g id="node5" class="node"><title>Node5</title>
<g id="a_node5"><a xlink:href="../../d0/d05/class_c2_m2_1_1_molecular_dynamics_1_1_simulation_1_1_m_d_solver.html" target="_top" xlink:title=" ">
<polygon fill="white" stroke="black" points="239,-77.5 239,-167.5 460,-167.5 460,-77.5 239,-77.5"/>
<text text-anchor="start" x="247" y="-155.5" font-family="Courier New" font-size="10.00">C2M2.MolecularDynamics.Simulation.</text>
<text text-anchor="middle" x="349.5" y="-144.5" font-family="Courier New" font-size="10.00">MDSolver</text>
<polyline fill="none" stroke="black" points="239,-137.5 460,-137.5 "/>
<text text-anchor="start" x="247" y="-125.5" font-family="Courier New" font-size="10.00">&#45; values</text>
<polyline fill="none" stroke="black" points="239,-118.5 460,-118.5 "/>
<text text-anchor="start" x="247" y="-106.5" font-family="Courier New" font-size="10.00">+ GetValues()</text>
<text text-anchor="start" x="247" y="-95.5" font-family="Courier New" font-size="10.00">+ SetValues()</text>
<text text-anchor="start" x="247" y="-84.5" font-family="Courier New" font-size="10.00"># Solve()</text>
</a>
</g>
</g>
<!-- Node3&#45;&gt;Node5 -->
<g id="edge4" class="edge"><title>Node3&#45;&gt;Node5</title>
<path fill="none" stroke="midnightblue" d="M255.953,-272.396C275.425,-241.403 301.843,-199.354 321.64,-167.844"/>
<polygon fill="none" stroke="midnightblue" points="252.759,-270.901 250.402,-281.23 258.686,-274.625 252.759,-270.901"/>
</g>
</g>
</svg>
