<?xml version="1.0" encoding="UTF-8" standalone="no"?>
<!DOCTYPE svg PUBLIC "-//W3C//DTD SVG 1.1//EN"
 "http://www.w3.org/Graphics/SVG/1.1/DTD/svg11.dtd">
<!-- Generated by graphviz version 2.38.0 (20140413.2041)
 -->
<!-- Title: C2M2.Simulation.PositionFieldSimulation Pages: 1 -->
<svg width="468pt" height="788pt"
 viewBox="0.00 0.00 468.00 788.00" xmlns="http://www.w3.org/2000/svg" xmlns:xlink="http://www.w3.org/1999/xlink">
<g id="graph0" class="graph" transform="scale(1 1) rotate(0) translate(4 784)">
<title>C2M2.Simulation.PositionFieldSimulation</title>
<polygon fill="white" stroke="none" points="-4,4 -4,-784 464,-784 464,4 -4,4"/>
<!-- Node1 -->
<g id="node1" class="node"><title>Node1</title>
<g id="a_node1"><a xlink:title="Simulation of type Vector3[] for simulating positional fields">
<polygon fill="#bfbfbf" stroke="black" points="149,-441.5 149,-531.5 310,-531.5 310,-441.5 149,-441.5"/>
<text text-anchor="start" x="157" y="-519.5" font-family="Courier New" font-size="10.00">C2M2.Simulation.Position</text>
<text text-anchor="middle" x="229.5" y="-508.5" font-family="Courier New" font-size="10.00">FieldSimulation</text>
<polyline fill="none" stroke="black" points="149,-501.5 310,-501.5 "/>
<text text-anchor="start" x="157" y="-489.5" font-family="Courier New" font-size="10.00">&#45; transforms</text>
<polyline fill="none" stroke="black" points="149,-482.5 310,-482.5 "/>
<text text-anchor="start" x="157" y="-470.5" font-family="Courier New" font-size="10.00"># OnAwake()</text>
<text text-anchor="start" x="157" y="-459.5" font-family="Courier New" font-size="10.00"># BuildTransforms()</text>
<text text-anchor="start" x="157" y="-448.5" font-family="Courier New" font-size="10.00"># UpdateVisualization()</text>
</a>
</g>
</g>
<!-- Node3 -->
<g id="node3" class="node"><title>Node3</title>
<g id="a_node3"><a xlink:href="../../d0/d99/class_c2_m2_1_1_molecular_dynamics_1_1_simulation_1_1_m_d_simulation.html" target="_top" xlink:title=" ">
<polygon fill="white" stroke="black" points="119,-237.5 119,-404.5 340,-404.5 340,-237.5 119,-237.5"/>
<text text-anchor="start" x="127" y="-392.5" font-family="Courier New" font-size="10.00">C2M2.MolecularDynamics.Simulation.</text>
<text text-anchor="middle" x="229.5" y="-381.5" font-family="Courier New" font-size="10.00">MDSimulation</text>
<polyline fill="none" stroke="black" points="119,-374.5 340,-374.5 "/>
<text text-anchor="start" x="127" y="-362.5" font-family="Courier New" font-size="10.00">+ pdbFilePath</text>
<text text-anchor="start" x="127" y="-351.5" font-family="Courier New" font-size="10.00">+ psfFilePath</text>
<text text-anchor="start" x="127" y="-340.5" font-family="Courier New" font-size="10.00"># molLookup</text>
<text text-anchor="start" x="127" y="-329.5" font-family="Courier New" font-size="10.00"># x</text>
<text text-anchor="start" x="127" y="-318.5" font-family="Courier New" font-size="10.00"># v</text>
<text text-anchor="start" x="127" y="-307.5" font-family="Courier New" font-size="10.00"># r</text>
<text text-anchor="start" x="127" y="-296.5" font-family="Courier New" font-size="10.00"># bonds</text>
<text text-anchor="start" x="127" y="-285.5" font-family="Courier New" font-size="10.00"># angles</text>
<text text-anchor="start" x="127" y="-274.5" font-family="Courier New" font-size="10.00"># bond_topo</text>
<text text-anchor="start" x="127" y="-263.5" font-family="Courier New" font-size="10.00">&#45; relPath</text>
<polyline fill="none" stroke="black" points="119,-256.5 340,-256.5 "/>
<text text-anchor="start" x="127" y="-244.5" font-family="Courier New" font-size="10.00"># BuildTransforms()</text>
</a>
</g>
</g>
<!-- Node1&#45;&gt;Node3 -->
<g id="edge2" class="edge"><title>Node1&#45;&gt;Node3</title>
<path fill="none" stroke="midnightblue" d="M229.5,-431.133C229.5,-422.631 229.5,-413.681 229.5,-404.715"/>
<polygon fill="none" stroke="midnightblue" points="226,-431.255 229.5,-441.255 233,-431.255 226,-431.255"/>
</g>
<!-- Node2 -->
<g id="node2" class="node"><title>Node2</title>
<g id="a_node2"><a xlink:href="../../db/d39/class_c2_m2_1_1_simulation_1_1_simulation.html" target="_top" xlink:title=" ">
<polygon fill="white" stroke="black" points="152,-568.5 152,-779.5 307,-779.5 307,-568.5 152,-568.5"/>
<text text-anchor="middle" x="229.5" y="-767.5" font-family="Courier New" font-size="10.00">Simulation&lt; Vector3[]&gt;</text>
<polyline fill="none" stroke="black" points="152,-760.5 307,-760.5 "/>
<text text-anchor="start" x="160" y="-748.5" font-family="Courier New" font-size="10.00">+ startOnAwake</text>
<text text-anchor="start" x="160" y="-737.5" font-family="Courier New" font-size="10.00"># mutex</text>
<text text-anchor="start" x="160" y="-726.5" font-family="Courier New" font-size="10.00">&#45; solveThread</text>
<polyline fill="none" stroke="black" points="152,-719.5 307,-719.5 "/>
<text text-anchor="start" x="160" y="-707.5" font-family="Courier New" font-size="10.00">+ GetValues()</text>
<text text-anchor="start" x="160" y="-696.5" font-family="Courier New" font-size="10.00">+ StartSimulation()</text>
<text text-anchor="start" x="160" y="-685.5" font-family="Courier New" font-size="10.00">+ StopSimulation()</text>
<text text-anchor="start" x="160" y="-674.5" font-family="Courier New" font-size="10.00">+ Awake()</text>
<text text-anchor="start" x="160" y="-663.5" font-family="Courier New" font-size="10.00">+ Start()</text>
<text text-anchor="start" x="160" y="-652.5" font-family="Courier New" font-size="10.00">+ Update()</text>
<text text-anchor="start" x="160" y="-641.5" font-family="Courier New" font-size="10.00"># UpdateVisualization()</text>
<text text-anchor="start" x="160" y="-630.5" font-family="Courier New" font-size="10.00"># Solve()</text>
<text text-anchor="start" x="160" y="-619.5" font-family="Courier New" font-size="10.00"># OnAwake()</text>
<text text-anchor="start" x="160" y="-608.5" font-family="Courier New" font-size="10.00"># OnStart()</text>
<text text-anchor="start" x="160" y="-597.5" font-family="Courier New" font-size="10.00"># OnUpdate()</text>
<text text-anchor="start" x="160" y="-586.5" font-family="Courier New" font-size="10.00">&#45; OnApplicationPause()</text>
<text text-anchor="start" x="160" y="-575.5" font-family="Courier New" font-size="10.00">&#45; OnApplicationQuit()</text>
</a>
</g>
</g>
<!-- Node2&#45;&gt;Node1 -->
<g id="edge1" class="edge"><title>Node2&#45;&gt;Node1</title>
<path fill="none" stroke="midnightblue" d="M229.5,-558.191C229.5,-548.949 229.5,-540.017 229.5,-531.792"/>
<polygon fill="none" stroke="midnightblue" points="226,-558.323 229.5,-568.323 233,-558.323 226,-558.323"/>
</g>
<!-- Node4 -->
<g id="node4" class="node"><title>Node4</title>
<g id="a_node4"><a xlink:href="../../d5/de2/class_c2_m2_1_1_molecular_dynamics_1_1_simulation_1_1_example_m_d_simulation.html" target="_top" xlink:title=" ">
<polygon fill="white" stroke="black" points="0,-0.5 0,-200.5 221,-200.5 221,-0.5 0,-0.5"/>
<text text-anchor="start" x="8" y="-188.5" font-family="Courier New" font-size="10.00">C2M2.MolecularDynamics.Simulation.</text>
<text text-anchor="middle" x="110.5" y="-177.5" font-family="Courier New" font-size="10.00">ExampleMDSimulation</text>
<polyline fill="none" stroke="black" points="0,-170.5 221,-170.5 "/>
<text text-anchor="start" x="8" y="-158.5" font-family="Courier New" font-size="10.00">+ numSpheres</text>
<text text-anchor="start" x="8" y="-147.5" font-family="Courier New" font-size="10.00">+ radius</text>
<text text-anchor="start" x="8" y="-136.5" font-family="Courier New" font-size="10.00">+ kb</text>
<text text-anchor="start" x="8" y="-125.5" font-family="Courier New" font-size="10.00">+ T</text>
<text text-anchor="start" x="8" y="-114.5" font-family="Courier New" font-size="10.00">+ timestepCount</text>
<text text-anchor="start" x="8" y="-103.5" font-family="Courier New" font-size="10.00">+ timestepSize</text>
<text text-anchor="start" x="8" y="-92.5" font-family="Courier New" font-size="10.00">+ kappa</text>
<text text-anchor="start" x="8" y="-81.5" font-family="Courier New" font-size="10.00">+ r0</text>
<text text-anchor="start" x="8" y="-70.5" font-family="Courier New" font-size="10.00">&#45; angle_topo</text>
<polyline fill="none" stroke="black" points="0,-63.5 221,-63.5 "/>
<text text-anchor="start" x="8" y="-51.5" font-family="Courier New" font-size="10.00">+ GetValues()</text>
<text text-anchor="start" x="8" y="-40.5" font-family="Courier New" font-size="10.00">+ SetValues()</text>
<text text-anchor="start" x="8" y="-29.5" font-family="Courier New" font-size="10.00">+ Force()</text>
<text text-anchor="start" x="8" y="-18.5" font-family="Courier New" font-size="10.00">+ angle_Force()</text>
<text text-anchor="start" x="8" y="-7.5" font-family="Courier New" font-size="10.00"># Solve()</text>
</a>
</g>
</g>
<!-- Node3&#45;&gt;Node4 -->
<g id="edge3" class="edge"><title>Node3&#45;&gt;Node4</title>
<path fill="none" stroke="midnightblue" d="M179.583,-228.346C174.619,-219.232 169.564,-209.95 164.561,-200.763"/>
<polygon fill="none" stroke="midnightblue" points="176.655,-230.287 184.511,-237.395 182.802,-226.938 176.655,-230.287"/>
</g>
<!-- Node5 -->
<g id="node5" class="node"><title>Node5</title>
<g id="a_node5"><a xlink:href="../../d0/d05/class_c2_m2_1_1_molecular_dynamics_1_1_simulation_1_1_m_d_solver.html" target="_top" xlink:title=" ">
<polygon fill="white" stroke="black" points="239,-55.5 239,-145.5 460,-145.5 460,-55.5 239,-55.5"/>
<text text-anchor="start" x="247" y="-133.5" font-family="Courier New" font-size="10.00">C2M2.MolecularDynamics.Simulation.</text>
<text text-anchor="middle" x="349.5" y="-122.5" font-family="Courier New" font-size="10.00">MDSolver</text>
<polyline fill="none" stroke="black" points="239,-115.5 460,-115.5 "/>
<text text-anchor="start" x="247" y="-103.5" font-family="Courier New" font-size="10.00">&#45; values</text>
<polyline fill="none" stroke="black" points="239,-96.5 460,-96.5 "/>
<text text-anchor="start" x="247" y="-84.5" font-family="Courier New" font-size="10.00">+ GetValues()</text>
<text text-anchor="start" x="247" y="-73.5" font-family="Courier New" font-size="10.00">+ SetValues()</text>
<text text-anchor="start" x="247" y="-62.5" font-family="Courier New" font-size="10.00"># Solve()</text>
</a>
</g>
</g>
<!-- Node3&#45;&gt;Node5 -->
<g id="edge4" class="edge"><title>Node3&#45;&gt;Node5</title>
<path fill="none" stroke="midnightblue" d="M279.723,-228.553C295.48,-199.861 312.163,-169.485 325.264,-145.63"/>
<polygon fill="none" stroke="midnightblue" points="276.613,-226.945 274.867,-237.395 282.748,-230.314 276.613,-226.945"/>
</g>
</g>
</svg>
