<?xml version="1.0" encoding="UTF-8" standalone="no"?>
<!DOCTYPE svg PUBLIC "-//W3C//DTD SVG 1.1//EN"
 "http://www.w3.org/Graphics/SVG/1.1/DTD/svg11.dtd">
<!-- Generated by graphviz version 2.38.0 (20140413.2041)
 -->
<!-- Title: C2M2.Simulation.PositionFieldSimulation Pages: 1 -->
<svg width="468pt" height="920pt"
 viewBox="0.00 0.00 468.00 920.00" xmlns="http://www.w3.org/2000/svg" xmlns:xlink="http://www.w3.org/1999/xlink">
<g id="graph0" class="graph" transform="scale(1 1) rotate(0) translate(4 916)">
<title>C2M2.Simulation.PositionFieldSimulation</title>
<polygon fill="white" stroke="none" points="-4,4 -4,-916 464,-916 464,4 -4,4"/>
<!-- Node1 -->
<g id="node1" class="node"><title>Node1</title>
<g id="a_node1"><a xlink:title="Simulation of type Vector3[] for simulating positional fields">
<polygon fill="#bfbfbf" stroke="black" points="149,-529.5 149,-641.5 310,-641.5 310,-529.5 149,-529.5"/>
<text text-anchor="start" x="157" y="-629.5" font-family="Courier New" font-size="10.00">C2M2.Simulation.Position</text>
<text text-anchor="middle" x="229.5" y="-618.5" font-family="Courier New" font-size="10.00">FieldSimulation</text>
<polyline fill="none" stroke="black" points="149,-611.5 310,-611.5 "/>
<text text-anchor="start" x="157" y="-599.5" font-family="Courier New" font-size="10.00"># transforms</text>
<text text-anchor="start" x="157" y="-588.5" font-family="Courier New" font-size="10.00">&#45; timer</text>
<text text-anchor="start" x="157" y="-577.5" font-family="Courier New" font-size="10.00">&#45; trials</text>
<polyline fill="none" stroke="black" points="149,-570.5 310,-570.5 "/>
<text text-anchor="start" x="157" y="-558.5" font-family="Courier New" font-size="10.00"># OnAwake()</text>
<text text-anchor="start" x="157" y="-547.5" font-family="Courier New" font-size="10.00"># UpdateVisualization()</text>
<text text-anchor="start" x="157" y="-536.5" font-family="Courier New" font-size="10.00"># UpdateVisChild()</text>
</a>
</g>
</g>
<!-- Node3 -->
<g id="node3" class="node"><title>Node3</title>
<g id="a_node3"><a xlink:href="../../d0/d99/class_c2_m2_1_1_molecular_dynamics_1_1_simulation_1_1_m_d_simulation.html" target="_top" xlink:title=" ">
<polygon fill="white" stroke="black" points="119,-215.5 119,-492.5 340,-492.5 340,-215.5 119,-215.5"/>
<text text-anchor="start" x="127" y="-480.5" font-family="Courier New" font-size="10.00">C2M2.MolecularDynamics.Simulation.</text>
<text text-anchor="middle" x="229.5" y="-469.5" font-family="Courier New" font-size="10.00">MDSimulation</text>
<polyline fill="none" stroke="black" points="119,-462.5 340,-462.5 "/>
<text text-anchor="start" x="127" y="-450.5" font-family="Courier New" font-size="10.00">+ pdbFilePath</text>
<text text-anchor="start" x="127" y="-439.5" font-family="Courier New" font-size="10.00">+ psfFilePath</text>
<text text-anchor="start" x="127" y="-428.5" font-family="Courier New" font-size="10.00">+ radius</text>
<text text-anchor="start" x="127" y="-417.5" font-family="Courier New" font-size="10.00">+ shaderName</text>
<text text-anchor="start" x="127" y="-406.5" font-family="Courier New" font-size="10.00">+ atomColors</text>
<text text-anchor="start" x="127" y="-395.5" font-family="Courier New" font-size="10.00">+ bondMaterial</text>
<text text-anchor="start" x="127" y="-384.5" font-family="Courier New" font-size="10.00"># molLookup</text>
<text text-anchor="start" x="127" y="-373.5" font-family="Courier New" font-size="10.00"># x</text>
<text text-anchor="start" x="127" y="-362.5" font-family="Courier New" font-size="10.00"># v</text>
<text text-anchor="start" x="127" y="-351.5" font-family="Courier New" font-size="10.00"># r</text>
<text text-anchor="start" x="127" y="-340.5" font-family="Courier New" font-size="10.00"># bonds</text>
<text text-anchor="start" x="127" y="-329.5" font-family="Courier New" font-size="10.00"># angles</text>
<text text-anchor="start" x="127" y="-318.5" font-family="Courier New" font-size="10.00"># mass</text>
<text text-anchor="start" x="127" y="-307.5" font-family="Courier New" font-size="10.00"># types</text>
<text text-anchor="start" x="127" y="-296.5" font-family="Courier New" font-size="10.00"># bond_topo</text>
<text text-anchor="start" x="127" y="-285.5" font-family="Courier New" font-size="10.00">&#45; relPath</text>
<text text-anchor="start" x="127" y="-274.5" font-family="Courier New" font-size="10.00">&#45; bondRenderers</text>
<text text-anchor="start" x="127" y="-263.5" font-family="Courier New" font-size="10.00">&#45; shader</text>
<text text-anchor="start" x="127" y="-252.5" font-family="Courier New" font-size="10.00">&#45; neighborList</text>
<polyline fill="none" stroke="black" points="119,-245.5 340,-245.5 "/>
<text text-anchor="start" x="127" y="-233.5" font-family="Courier New" font-size="10.00"># BuildVisualization()</text>
<text text-anchor="start" x="127" y="-222.5" font-family="Courier New" font-size="10.00"># UpdateVisChild()</text>
</a>
</g>
</g>
<!-- Node1&#45;&gt;Node3 -->
<g id="edge2" class="edge"><title>Node1&#45;&gt;Node3</title>
<path fill="none" stroke="midnightblue" d="M229.5,-519.211C229.5,-510.8 229.5,-501.951 229.5,-492.901"/>
<polygon fill="none" stroke="midnightblue" points="226,-519.237 229.5,-529.237 233,-519.237 226,-519.237"/>
</g>
<!-- Node2 -->
<g id="node2" class="node"><title>Node2</title>
<g id="a_node2"><a xlink:href="../../db/d39/class_c2_m2_1_1_simulation_1_1_simulation.html" target="_top" xlink:title=" ">
<polygon fill="white" stroke="black" points="152,-678.5 152,-911.5 307,-911.5 307,-678.5 152,-678.5"/>
<text text-anchor="start" x="160" y="-899.5" font-family="Courier New" font-size="10.00">Simulation&lt; Vector3</text>
<text text-anchor="middle" x="229.5" y="-888.5" font-family="Courier New" font-size="10.00">[], Transform[]&gt;</text>
<polyline fill="none" stroke="black" points="152,-881.5 307,-881.5 "/>
<text text-anchor="start" x="160" y="-869.5" font-family="Courier New" font-size="10.00">+ startOnAwake</text>
<text text-anchor="start" x="160" y="-858.5" font-family="Courier New" font-size="10.00"># mutex</text>
<text text-anchor="start" x="160" y="-847.5" font-family="Courier New" font-size="10.00">&#45; solveThread</text>
<polyline fill="none" stroke="black" points="152,-840.5 307,-840.5 "/>
<text text-anchor="start" x="160" y="-828.5" font-family="Courier New" font-size="10.00">+ GetValues()</text>
<text text-anchor="start" x="160" y="-817.5" font-family="Courier New" font-size="10.00">+ StartSimulation()</text>
<text text-anchor="start" x="160" y="-806.5" font-family="Courier New" font-size="10.00">+ StopSimulation()</text>
<text text-anchor="start" x="160" y="-795.5" font-family="Courier New" font-size="10.00">+ Awake()</text>
<text text-anchor="start" x="160" y="-784.5" font-family="Courier New" font-size="10.00">+ Start()</text>
<text text-anchor="start" x="160" y="-773.5" font-family="Courier New" font-size="10.00">+ Update()</text>
<text text-anchor="start" x="160" y="-762.5" font-family="Courier New" font-size="10.00"># BuildVisualization()</text>
<text text-anchor="start" x="160" y="-751.5" font-family="Courier New" font-size="10.00"># UpdateVisualization()</text>
<text text-anchor="start" x="160" y="-740.5" font-family="Courier New" font-size="10.00"># Solve()</text>
<text text-anchor="start" x="160" y="-729.5" font-family="Courier New" font-size="10.00"># OnAwake()</text>
<text text-anchor="start" x="160" y="-718.5" font-family="Courier New" font-size="10.00"># OnStart()</text>
<text text-anchor="start" x="160" y="-707.5" font-family="Courier New" font-size="10.00"># OnUpdate()</text>
<text text-anchor="start" x="160" y="-696.5" font-family="Courier New" font-size="10.00">&#45; OnApplicationPause()</text>
<text text-anchor="start" x="160" y="-685.5" font-family="Courier New" font-size="10.00">&#45; OnApplicationQuit()</text>
</a>
</g>
</g>
<!-- Node2&#45;&gt;Node1 -->
<g id="edge1" class="edge"><title>Node2&#45;&gt;Node1</title>
<path fill="none" stroke="midnightblue" d="M229.5,-668.325C229.5,-659.098 229.5,-650.112 229.5,-641.68"/>
<polygon fill="none" stroke="midnightblue" points="226,-668.419 229.5,-678.419 233,-668.419 226,-668.419"/>
</g>
<!-- Node4 -->
<g id="node4" class="node"><title>Node4</title>
<g id="a_node4"><a xlink:href="../../d5/de2/class_c2_m2_1_1_molecular_dynamics_1_1_simulation_1_1_example_m_d_simulation.html" target="_top" xlink:title=" ">
<polygon fill="white" stroke="black" points="0,-0.5 0,-178.5 221,-178.5 221,-0.5 0,-0.5"/>
<text text-anchor="start" x="8" y="-166.5" font-family="Courier New" font-size="10.00">C2M2.MolecularDynamics.Simulation.</text>
<text text-anchor="middle" x="110.5" y="-155.5" font-family="Courier New" font-size="10.00">ExampleMDSimulation</text>
<polyline fill="none" stroke="black" points="0,-148.5 221,-148.5 "/>
<text text-anchor="start" x="8" y="-136.5" font-family="Courier New" font-size="10.00">+ kb</text>
<text text-anchor="start" x="8" y="-125.5" font-family="Courier New" font-size="10.00">+ T</text>
<text text-anchor="start" x="8" y="-114.5" font-family="Courier New" font-size="10.00">+ timestepCount</text>
<text text-anchor="start" x="8" y="-103.5" font-family="Courier New" font-size="10.00">+ timestepSize</text>
<text text-anchor="start" x="8" y="-92.5" font-family="Courier New" font-size="10.00">+ kappa</text>
<text text-anchor="start" x="8" y="-81.5" font-family="Courier New" font-size="10.00">+ r0</text>
<text text-anchor="start" x="8" y="-70.5" font-family="Courier New" font-size="10.00">&#45; angle_topo</text>
<polyline fill="none" stroke="black" points="0,-63.5 221,-63.5 "/>
<text text-anchor="start" x="8" y="-51.5" font-family="Courier New" font-size="10.00">+ GetValues()</text>
<text text-anchor="start" x="8" y="-40.5" font-family="Courier New" font-size="10.00">+ SetValues()</text>
<text text-anchor="start" x="8" y="-29.5" font-family="Courier New" font-size="10.00">+ Force()</text>
<text text-anchor="start" x="8" y="-18.5" font-family="Courier New" font-size="10.00">+ angle_Force()</text>
<text text-anchor="start" x="8" y="-7.5" font-family="Courier New" font-size="10.00"># Solve()</text>
</a>
</g>
</g>
<!-- Node3&#45;&gt;Node4 -->
<g id="edge3" class="edge"><title>Node3&#45;&gt;Node4</title>
<path fill="none" stroke="midnightblue" d="M162.839,-205.953C158.653,-196.72 154.515,-187.592 150.509,-178.756"/>
<polygon fill="none" stroke="midnightblue" points="159.721,-207.553 167.038,-215.216 166.097,-204.663 159.721,-207.553"/>
</g>
<!-- Node5 -->
<g id="node5" class="node"><title>Node5</title>
<g id="a_node5"><a xlink:href="../../d0/d05/class_c2_m2_1_1_molecular_dynamics_1_1_simulation_1_1_m_d_solver.html" target="_top" xlink:title=" ">
<polygon fill="white" stroke="black" points="239,-44.5 239,-134.5 460,-134.5 460,-44.5 239,-44.5"/>
<text text-anchor="start" x="247" y="-122.5" font-family="Courier New" font-size="10.00">C2M2.MolecularDynamics.Simulation.</text>
<text text-anchor="middle" x="349.5" y="-111.5" font-family="Courier New" font-size="10.00">MDSolver</text>
<polyline fill="none" stroke="black" points="239,-104.5 460,-104.5 "/>
<text text-anchor="start" x="247" y="-92.5" font-family="Courier New" font-size="10.00">&#45; values</text>
<polyline fill="none" stroke="black" points="239,-85.5 460,-85.5 "/>
<text text-anchor="start" x="247" y="-73.5" font-family="Courier New" font-size="10.00">+ GetValues()</text>
<text text-anchor="start" x="247" y="-62.5" font-family="Courier New" font-size="10.00">+ SetValues()</text>
<text text-anchor="start" x="247" y="-51.5" font-family="Courier New" font-size="10.00"># Solve()</text>
</a>
</g>
</g>
<!-- Node3&#45;&gt;Node5 -->
<g id="edge4" class="edge"><title>Node3&#45;&gt;Node5</title>
<path fill="none" stroke="midnightblue" d="M296.703,-205.994C308.585,-180.002 320.085,-154.846 329.302,-134.684"/>
<polygon fill="none" stroke="midnightblue" points="293.462,-204.666 292.487,-215.216 299.828,-207.576 293.462,-204.666"/>
</g>
</g>
</svg>
