<?xml version="1.0" encoding="UTF-8" standalone="no"?>
<!DOCTYPE svg PUBLIC "-//W3C//DTD SVG 1.1//EN"
 "http://www.w3.org/Graphics/SVG/1.1/DTD/svg11.dtd">
<!-- Generated by graphviz version 2.38.0 (20140413.2041)
 -->
<!-- Title: C2M2.Interaction.RaycastSimHeaterDiscrete Pages: 1 -->
<svg width="378pt" height="449pt"
 viewBox="0.00 0.00 378.00 449.00" xmlns="http://www.w3.org/2000/svg" xmlns:xlink="http://www.w3.org/1999/xlink">
<g id="graph0" class="graph" transform="scale(1 1) rotate(0) translate(4 445)">
<title>C2M2.Interaction.RaycastSimHeaterDiscrete</title>
<polygon fill="white" stroke="none" points="-4,4 -4,-445 374,-445 374,4 -4,4"/>
<!-- Node1 -->
<g id="node1" class="node"><title>Node1</title>
<g id="a_node1"><a xlink:title=" ">
<polygon fill="#bfbfbf" stroke="black" points="0,-0.5 0,-90.5 161,-90.5 161,-0.5 0,-0.5"/>
<text text-anchor="start" x="8" y="-78.5" font-family="Courier New" font-size="10.00">C2M2.Interaction.Raycast</text>
<text text-anchor="middle" x="80.5" y="-67.5" font-family="Courier New" font-size="10.00">SimHeaterDiscrete</text>
<polyline fill="none" stroke="black" points="0,-60.5 161,-60.5 "/>
<text text-anchor="start" x="8" y="-48.5" font-family="Courier New" font-size="10.00">&#45; mf</text>
<polyline fill="none" stroke="black" points="0,-41.5 161,-41.5 "/>
<text text-anchor="start" x="8" y="-29.5" font-family="Courier New" font-size="10.00">+ HitToTriangles()</text>
<text text-anchor="start" x="8" y="-18.5" font-family="Courier New" font-size="10.00"># OnAwake()</text>
<text text-anchor="start" x="8" y="-7.5" font-family="Courier New" font-size="10.00"># HitMethod()</text>
</a>
</g>
</g>
<!-- Node2 -->
<g id="node2" class="node"><title>Node2</title>
<g id="a_node2"><a xlink:href="../../dc/d54/class_c2_m2_1_1_interaction_1_1_raycast_heater.html" target="_top" xlink:title=" ">
<polygon fill="white" stroke="black" points="33,-134 33,-224 128,-224 128,-134 33,-134"/>
<text text-anchor="middle" x="80.5" y="-212" font-family="Courier New" font-size="10.00">RaycastHeater</text>
<polyline fill="none" stroke="black" points="33,-205 128,-205 "/>
<text text-anchor="middle" x="80.5" y="-193" font-family="Courier New" font-size="10.00"> </text>
<polyline fill="none" stroke="black" points="33,-186 128,-186 "/>
<text text-anchor="start" x="41" y="-174" font-family="Courier New" font-size="10.00">+ Hit()</text>
<text text-anchor="start" x="41" y="-163" font-family="Courier New" font-size="10.00"># OnAwake()</text>
<text text-anchor="start" x="41" y="-152" font-family="Courier New" font-size="10.00"># HitMethod()</text>
<text text-anchor="start" x="41" y="-141" font-family="Courier New" font-size="10.00">&#45; Awake()</text>
</a>
</g>
</g>
<!-- Node2&#45;&gt;Node1 -->
<g id="edge1" class="edge"><title>Node2&#45;&gt;Node1</title>
<path fill="none" stroke="midnightblue" d="M80.5,-123.55C80.5,-112.631 80.5,-101.283 80.5,-90.7607"/>
<polygon fill="none" stroke="midnightblue" points="77.0001,-123.847 80.5,-133.847 84.0001,-123.847 77.0001,-123.847"/>
</g>
<!-- Node3 -->
<g id="node3" class="node"><title>Node3</title>
<g id="a_node3"><a xlink:title=" ">
<polygon fill="white" stroke="#bfbfbf" points="146,-383.5 146,-440.5 241,-440.5 241,-383.5 146,-383.5"/>
<text text-anchor="middle" x="193.5" y="-428.5" font-family="Courier New" font-size="10.00">MonoBehaviour</text>
<polyline fill="none" stroke="#bfbfbf" points="146,-421.5 241,-421.5 "/>
<text text-anchor="middle" x="193.5" y="-409.5" font-family="Courier New" font-size="10.00"> </text>
<polyline fill="none" stroke="#bfbfbf" points="146,-402.5 241,-402.5 "/>
<text text-anchor="middle" x="193.5" y="-390.5" font-family="Courier New" font-size="10.00"> </text>
</a>
</g>
</g>
<!-- Node3&#45;&gt;Node2 -->
<g id="edge2" class="edge"><title>Node3&#45;&gt;Node2</title>
<path fill="none" stroke="midnightblue" d="M136.846,-387.494C119.369,-377.36 101.981,-363.692 91.5,-346 69.7135,-309.222 69.4411,-259.487 73.0888,-224.068"/>
<polygon fill="none" stroke="midnightblue" points="135.504,-390.749 145.958,-392.474 138.862,-384.607 135.504,-390.749"/>
</g>
<!-- Node4 -->
<g id="node4" class="node"><title>Node4</title>
<g id="a_node4"><a xlink:href="../../dc/daa/class_c2_m2_1_1_simulation_1_1_interactable.html" target="_top" xlink:title="Interface for interaction scripts">
<polygon fill="white" stroke="black" points="101,-277.5 101,-345.5 286,-345.5 286,-277.5 101,-277.5"/>
<text text-anchor="middle" x="193.5" y="-333.5" font-family="Courier New" font-size="10.00">C2M2.Simulation.Interactable</text>
<polyline fill="none" stroke="black" points="101,-326.5 286,-326.5 "/>
<text text-anchor="start" x="109" y="-314.5" font-family="Courier New" font-size="10.00">+ Heater</text>
<text text-anchor="start" x="109" y="-303.5" font-family="Courier New" font-size="10.00"># interactionType</text>
<polyline fill="none" stroke="black" points="101,-296.5 286,-296.5 "/>
<text text-anchor="start" x="109" y="-284.5" font-family="Courier New" font-size="10.00">+ SetValues()</text>
</a>
</g>
</g>
<!-- Node3&#45;&gt;Node4 -->
<g id="edge4" class="edge"><title>Node3&#45;&gt;Node4</title>
<path fill="none" stroke="midnightblue" d="M193.5,-373.007C193.5,-363.962 193.5,-354.383 193.5,-345.578"/>
<polygon fill="none" stroke="midnightblue" points="190,-373.3 193.5,-383.3 197,-373.3 190,-373.3"/>
</g>
<!-- Node5 -->
<g id="node5" class="node"><title>Node5</title>
<g id="a_node5"><a xlink:href="../../dc/d54/class_c2_m2_1_1_interaction_1_1_raycast_heater.html" target="_top" xlink:title=" ">
<polygon fill="white" stroke="black" points="209,-128.5 209,-229.5 370,-229.5 370,-128.5 209,-128.5"/>
<text text-anchor="start" x="217" y="-217.5" font-family="Courier New" font-size="10.00">C2M2.Interaction.Raycast</text>
<text text-anchor="middle" x="289.5" y="-206.5" font-family="Courier New" font-size="10.00">Heater</text>
<polyline fill="none" stroke="black" points="209,-199.5 370,-199.5 "/>
<text text-anchor="middle" x="289.5" y="-187.5" font-family="Courier New" font-size="10.00"> </text>
<polyline fill="none" stroke="black" points="209,-180.5 370,-180.5 "/>
<text text-anchor="start" x="217" y="-168.5" font-family="Courier New" font-size="10.00">+ Hit()</text>
<text text-anchor="start" x="217" y="-157.5" font-family="Courier New" font-size="10.00"># OnAwake()</text>
<text text-anchor="start" x="217" y="-146.5" font-family="Courier New" font-size="10.00"># HitMethod()</text>
<text text-anchor="start" x="217" y="-135.5" font-family="Courier New" font-size="10.00">&#45; Awake()</text>
</a>
</g>
</g>
<!-- Node3&#45;&gt;Node5 -->
<g id="edge6" class="edge"><title>Node3&#45;&gt;Node5</title>
<path fill="none" stroke="midnightblue" d="M249.987,-383.57C266.094,-373.565 282.505,-360.963 294.5,-346 323.157,-310.249 337.798,-292.404 326.5,-248 324.942,-241.878 322.71,-235.712 320.102,-229.725"/>
<polygon fill="none" stroke="midnightblue" points="247.902,-380.737 241.1,-388.859 251.483,-386.752 247.902,-380.737"/>
</g>
<!-- Node4&#45;&gt;Node2 -->
<g id="edge3" class="edge"><title>Node4&#45;&gt;Node2</title>
<path fill="none" stroke="#404040" d="M130.065,-277.476C122.862,-271.971 116.108,-265.806 110.5,-259 104.727,-251.993 99.9916,-243.758 96.13,-235.297"/>
<polygon fill="none" stroke="#404040" points="96.1023,-235.229 90.1226,-231.199 91.543,-224.129 97.5227,-228.16 96.1023,-235.229"/>
<text text-anchor="middle" x="147" y="-251" font-family="Courier New" font-size="10.00"> #simulation</text>
</g>
<!-- Node4&#45;&gt;Node5 -->
<g id="edge7" class="edge"><title>Node4&#45;&gt;Node5</title>
<path fill="none" stroke="#404040" d="M185.653,-277.303C184.924,-267.403 185.845,-256.844 190.5,-248 193.268,-242.741 196.646,-237.811 200.465,-233.2"/>
<polygon fill="none" stroke="#404040" points="200.687,-232.962 201.851,-225.846 208.868,-224.184 207.704,-231.3 200.687,-232.962"/>
<text text-anchor="middle" x="227" y="-251" font-family="Courier New" font-size="10.00"> #simulation</text>
</g>
<!-- Node5&#45;&gt;Node4 -->
<g id="edge5" class="edge"><title>Node5&#45;&gt;Node4</title>
<path fill="none" stroke="#404040" d="M281.326,-229.572C278.127,-239.906 273.68,-250.292 267.5,-259 265.024,-262.488 262.234,-265.819 259.224,-268.985"/>
<polygon fill="none" stroke="#404040" points="258.965,-269.23 257.35,-276.258 250.241,-277.47 251.856,-270.442 258.965,-269.23"/>
<text text-anchor="middle" x="298" y="-251" font-family="Courier New" font-size="10.00"> &#45;heater</text>
</g>
</g>
</svg>
