<?xml version="1.0" encoding="UTF-8" standalone="no"?>
<!DOCTYPE svg PUBLIC "-//W3C//DTD SVG 1.1//EN"
 "http://www.w3.org/Graphics/SVG/1.1/DTD/svg11.dtd">
<!-- Generated by graphviz version 2.38.0 (20140413.2041)
 -->
<!-- Title: C2M2.Interaction.RaycastSimHeaterDiscrete Pages: 1 -->
<!--zoomable 471 -->
<svg id="main" version="1.1" xmlns="http://www.w3.org/2000/svg" xmlns:xlink="http://www.w3.org/1999/xlink" xml:space="preserve" onload="init(evt)">
<style type="text/css"><![CDATA[
.edge:hover path { stroke: red; }
.edge:hover polygon { stroke: red; fill: red; }
]]></style>
<script type="text/javascript"><![CDATA[
var edges = document.getElementsByTagName('g');
if (edges && edges.length) {
  for (var i=0;i<edges.length;i++) {
    if (edges[i].id.substr(0,4)=='edge') {
      edges[i].setAttribute('class','edge');
    }
  }
}
]]></script>
        <defs>
                <circle id="rim" cx="0" cy="0" r="7"/>
                <circle id="rim2" cx="0" cy="0" r="3.5"/>
                <g id="zoomPlus">
                        <use xlink:href="#rim" fill="#404040">
                                <set attributeName="fill" to="#808080" begin="zoomplus.mouseover" end="zoomplus.mouseout"/>
                        </use>
                        <path d="M-4,0h8M0,-4v8" fill="none" stroke="white" stroke-width="1.5" pointer-events="none"/>
                </g>
                <g id="zoomMin">
                        <use xlink:href="#rim" fill="#404040">
                                <set attributeName="fill" to="#808080" begin="zoomminus.mouseover" end="zoomminus.mouseout"/>
                        </use>
                        <path d="M-4,0h8" fill="none" stroke="white" stroke-width="1.5" pointer-events="none"/>
                </g>
                <g id="dirArrow">
                        <path fill="none" stroke="white" stroke-width="1.5" d="M0,-3.0v7 M-2.5,-0.5L0,-3.0L2.5,-0.5"/>
                </g>
               <g id="resetDef">
                       <use xlink:href="#rim2" fill="#404040">
                               <set attributeName="fill" to="#808080" begin="reset.mouseover" end="reset.mouseout"/>
                       </use>
               </g>
        </defs>

<script type="text/javascript">
var viewWidth = 378;
var viewHeight = 471;
var sectionId = 'dynsection-1';
</script>
<script xlink:href="../../svgpan.js"/>
<svg id="graph" class="graph">
<g id="viewport">
<title>C2M2.Interaction.RaycastSimHeaterDiscrete</title>
<polygon fill="white" stroke="none" points="-4,4 -4,-467 374,-467 374,4 -4,4"/>
<!-- Node1 -->
<g id="node1" class="node"><title>Node1</title>
<g id="a_node1"><a xlink:title=" ">
<polygon fill="#bfbfbf" stroke="black" points="0,-0.5 0,-101.5 161,-101.5 161,-0.5 0,-0.5"/>
<text text-anchor="start" x="8" y="-89.5" font-family="Courier New" font-size="10.00">C2M2.Interaction.Raycast</text>
<text text-anchor="middle" x="80.5" y="-78.5" font-family="Courier New" font-size="10.00">SimHeaterDiscrete</text>
<polyline fill="none" stroke="black" points="0,-71.5 161,-71.5 "/>
<text text-anchor="start" x="8" y="-59.5" font-family="Courier New" font-size="10.00">+ value</text>
<text text-anchor="start" x="8" y="-48.5" font-family="Courier New" font-size="10.00">&#45; mf</text>
<polyline fill="none" stroke="black" points="0,-41.5 161,-41.5 "/>
<text text-anchor="start" x="8" y="-29.5" font-family="Courier New" font-size="10.00">+ HitToTriangles()</text>
<text text-anchor="start" x="8" y="-18.5" font-family="Courier New" font-size="10.00"># OnAwake()</text>
<text text-anchor="start" x="8" y="-7.5" font-family="Courier New" font-size="10.00"># HitMethod()</text>
</a>
</g>
</g>
<!-- Node2 -->
<g id="node2" class="node"><title>Node2</title>
<g id="a_node2"><a xlink:href="../../dc/d54/class_c2_m2_1_1_interaction_1_1_raycast_heater.html" target="_top" xlink:title=" ">
<polygon fill="white" stroke="black" points="33,-145 33,-235 128,-235 128,-145 33,-145"/>
<text text-anchor="middle" x="80.5" y="-223" font-family="Courier New" font-size="10.00">RaycastHeater</text>
<polyline fill="none" stroke="black" points="33,-216 128,-216 "/>
<text text-anchor="middle" x="80.5" y="-204" font-family="Courier New" font-size="10.00"> </text>
<polyline fill="none" stroke="black" points="33,-197 128,-197 "/>
<text text-anchor="start" x="41" y="-185" font-family="Courier New" font-size="10.00">+ Hit()</text>
<text text-anchor="start" x="41" y="-174" font-family="Courier New" font-size="10.00"># OnAwake()</text>
<text text-anchor="start" x="41" y="-163" font-family="Courier New" font-size="10.00"># HitMethod()</text>
<text text-anchor="start" x="41" y="-152" font-family="Courier New" font-size="10.00">&#45; Awake()</text>
</a>
</g>
</g>
<!-- Node2&#45;&gt;Node1 -->
<g id="edge1" class="edge"><title>Node2&#45;&gt;Node1</title>
<path fill="none" stroke="midnightblue" d="M80.5,-134.667C80.5,-123.798 80.5,-112.431 80.5,-101.727"/>
<polygon fill="none" stroke="midnightblue" points="77.0001,-134.898 80.5,-144.898 84.0001,-134.898 77.0001,-134.898"/>
</g>
<!-- Node3 -->
<g id="node3" class="node"><title>Node3</title>
<g id="a_node3"><a xlink:title=" ">
<polygon fill="white" stroke="#bfbfbf" points="146,-405.5 146,-462.5 241,-462.5 241,-405.5 146,-405.5"/>
<text text-anchor="middle" x="193.5" y="-450.5" font-family="Courier New" font-size="10.00">MonoBehaviour</text>
<polyline fill="none" stroke="#bfbfbf" points="146,-443.5 241,-443.5 "/>
<text text-anchor="middle" x="193.5" y="-431.5" font-family="Courier New" font-size="10.00"> </text>
<polyline fill="none" stroke="#bfbfbf" points="146,-424.5 241,-424.5 "/>
<text text-anchor="middle" x="193.5" y="-412.5" font-family="Courier New" font-size="10.00"> </text>
</a>
</g>
</g>
<!-- Node3&#45;&gt;Node2 -->
<g id="edge2" class="edge"><title>Node3&#45;&gt;Node2</title>
<path fill="none" stroke="midnightblue" d="M136.805,-409.519C119.324,-399.387 101.944,-385.714 91.5,-368 67.8091,-327.82 68.3061,-273.207 72.6595,-235.316"/>
<polygon fill="none" stroke="midnightblue" points="135.465,-412.775 145.919,-414.497 138.821,-406.632 135.465,-412.775"/>
</g>
<!-- Node4 -->
<g id="node4" class="node"><title>Node4</title>
<g id="a_node4"><a xlink:href="../../dc/daa/class_c2_m2_1_1_simulation_1_1_interactable.html" target="_top" xlink:title="Interface for interaction scripts">
<polygon fill="white" stroke="black" points="101,-288.5 101,-367.5 286,-367.5 286,-288.5 101,-288.5"/>
<text text-anchor="middle" x="193.5" y="-355.5" font-family="Courier New" font-size="10.00">C2M2.Simulation.Interactable</text>
<polyline fill="none" stroke="black" points="101,-348.5 286,-348.5 "/>
<text text-anchor="start" x="109" y="-336.5" font-family="Courier New" font-size="10.00">+ Heater</text>
<text text-anchor="start" x="109" y="-325.5" font-family="Courier New" font-size="10.00"># interactionType</text>
<polyline fill="none" stroke="black" points="101,-318.5 286,-318.5 "/>
<text text-anchor="start" x="109" y="-306.5" font-family="Courier New" font-size="10.00">+ SetValues()</text>
<text text-anchor="start" x="109" y="-295.5" font-family="Courier New" font-size="10.00">+ GetSimulationTime()</text>
</a>
</g>
</g>
<!-- Node3&#45;&gt;Node4 -->
<g id="edge4" class="edge"><title>Node3&#45;&gt;Node4</title>
<path fill="none" stroke="midnightblue" d="M193.5,-395.232C193.5,-386.268 193.5,-376.693 193.5,-367.689"/>
<polygon fill="none" stroke="midnightblue" points="190,-395.403 193.5,-405.403 197,-395.403 190,-395.403"/>
</g>
<!-- Node5 -->
<g id="node5" class="node"><title>Node5</title>
<g id="a_node5"><a xlink:href="../../dc/d54/class_c2_m2_1_1_interaction_1_1_raycast_heater.html" target="_top" xlink:title=" ">
<polygon fill="white" stroke="black" points="209,-139.5 209,-240.5 370,-240.5 370,-139.5 209,-139.5"/>
<text text-anchor="start" x="217" y="-228.5" font-family="Courier New" font-size="10.00">C2M2.Interaction.Raycast</text>
<text text-anchor="middle" x="289.5" y="-217.5" font-family="Courier New" font-size="10.00">Heater</text>
<polyline fill="none" stroke="black" points="209,-210.5 370,-210.5 "/>
<text text-anchor="middle" x="289.5" y="-198.5" font-family="Courier New" font-size="10.00"> </text>
<polyline fill="none" stroke="black" points="209,-191.5 370,-191.5 "/>
<text text-anchor="start" x="217" y="-179.5" font-family="Courier New" font-size="10.00">+ Hit()</text>
<text text-anchor="start" x="217" y="-168.5" font-family="Courier New" font-size="10.00"># OnAwake()</text>
<text text-anchor="start" x="217" y="-157.5" font-family="Courier New" font-size="10.00"># HitMethod()</text>
<text text-anchor="start" x="217" y="-146.5" font-family="Courier New" font-size="10.00">&#45; Awake()</text>
</a>
</g>
</g>
<!-- Node3&#45;&gt;Node5 -->
<g id="edge6" class="edge"><title>Node3&#45;&gt;Node5</title>
<path fill="none" stroke="midnightblue" d="M250.107,-405.976C266.3,-395.961 282.729,-383.252 294.5,-368 325.347,-328.03 338.95,-307.93 326.5,-259 324.942,-252.878 322.71,-246.712 320.102,-240.725"/>
<polygon fill="none" stroke="midnightblue" points="247.993,-403.16 241.166,-411.262 251.556,-409.185 247.993,-403.16"/>
</g>
<!-- Node4&#45;&gt;Node2 -->
<g id="edge3" class="edge"><title>Node4&#45;&gt;Node2</title>
<path fill="none" stroke="#404040" d="M128.426,-288.327C121.842,-282.725 115.684,-276.598 110.5,-270 105.016,-263.021 100.449,-254.928 96.6711,-246.638"/>
<polygon fill="none" stroke="#404040" points="96.5696,-246.392 90.5851,-242.369 91.997,-235.297 97.9815,-239.32 96.5696,-246.392"/>
<text text-anchor="middle" x="147" y="-262" font-family="Courier New" font-size="10.00"> #simulation</text>
</g>
<!-- Node4&#45;&gt;Node5 -->
<g id="edge7" class="edge"><title>Node4&#45;&gt;Node5</title>
<path fill="none" stroke="#404040" d="M185.011,-288.409C184.581,-278.371 185.822,-267.889 190.5,-259 193.268,-253.741 196.646,-248.811 200.465,-244.2"/>
<polygon fill="none" stroke="#404040" points="200.687,-243.962 201.851,-236.846 208.868,-235.184 207.704,-242.3 200.687,-243.962"/>
<text text-anchor="middle" x="227" y="-262" font-family="Courier New" font-size="10.00"> #simulation</text>
</g>
<!-- Node5&#45;&gt;Node4 -->
<g id="edge5" class="edge"><title>Node5&#45;&gt;Node4</title>
<path fill="none" stroke="#404040" d="M280.88,-240.766C277.71,-250.977 273.388,-261.263 267.5,-270 265.28,-273.295 262.806,-276.481 260.149,-279.549"/>
<polygon fill="none" stroke="#404040" points="259.988,-279.718 258.732,-286.819 251.694,-288.39 252.95,-281.289 259.988,-279.718"/>
<text text-anchor="middle" x="298" y="-262" font-family="Courier New" font-size="10.00"> &#45;heater</text>
</g>
</g>
</svg>
        <g id="navigator" transform="translate(0 0)" fill="#404254">
                <rect fill="#f2f5e9" fill-opacity="0.5" stroke="#606060" stroke-width=".5" x="0" y="0" width="60" height="60"/>
                <use id="zoomplus" xlink:href="#zoomPlus" x="17" y="9" onmousedown="handleZoom(evt,'in')"/>
                <use id="zoomminus" xlink:href="#zoomMin" x="42" y="9" onmousedown="handleZoom(evt,'out')"/>
                <use id="reset" xlink:href="#resetDef" x="30" y="36" onmousedown="handleReset()"/>
                <g id="arrowUp" xlink:href="#dirArrow" transform="translate(30 24)" onmousedown="handlePan(0,-1)">
                  <use xlink:href="#rim" fill="#404040">
                        <set attributeName="fill" to="#808080" begin="arrowUp.mouseover" end="arrowUp.mouseout"/>
                  </use>
                  <path fill="none" stroke="white" stroke-width="1.5" d="M0,-3.0v7 M-2.5,-0.5L0,-3.0L2.5,-0.5"/>
                </g>
                <g id="arrowRight" xlink:href="#dirArrow" transform="rotate(90) translate(36 -43)" onmousedown="handlePan(1,0)">
                  <use xlink:href="#rim" fill="#404040">
                        <set attributeName="fill" to="#808080" begin="arrowRight.mouseover" end="arrowRight.mouseout"/>
                  </use>
                  <path fill="none" stroke="white" stroke-width="1.5" d="M0,-3.0v7 M-2.5,-0.5L0,-3.0L2.5,-0.5"/>
                </g>
                <g id="arrowDown" xlink:href="#dirArrow" transform="rotate(180) translate(-30 -48)" onmousedown="handlePan(0,1)">
                  <use xlink:href="#rim" fill="#404040">
                        <set attributeName="fill" to="#808080" begin="arrowDown.mouseover" end="arrowDown.mouseout"/>
                  </use>
                  <path fill="none" stroke="white" stroke-width="1.5" d="M0,-3.0v7 M-2.5,-0.5L0,-3.0L2.5,-0.5"/>
                </g>
                <g id="arrowLeft" xlink:href="#dirArrow" transform="rotate(270) translate(-36 17)" onmousedown="handlePan(-1,0)">
                  <use xlink:href="#rim" fill="#404040">
                        <set attributeName="fill" to="#808080" begin="arrowLeft.mouseover" end="arrowLeft.mouseout"/>
                  </use>
                  <path fill="none" stroke="white" stroke-width="1.5" d="M0,-3.0v7 M-2.5,-0.5L0,-3.0L2.5,-0.5"/>
                </g>
        </g>
        <svg viewBox="0 0 15 15" width="100%" height="30px" preserveAspectRatio="xMaxYMin meet">
         <g id="arrow_out" transform="scale(0.3 0.3)">
          <a xlink:href="class_c2_m2_1_1_interaction_1_1_raycast_sim_heater_discrete__coll__graph_org.svg" target="_base">
           <rect id="button" ry="5" rx="5" y="6" x="6" height="38" width="38"
                fill="#f2f5e9" fill-opacity="0.5" stroke="#606060" stroke-width="1.0"/>
           <path id="arrow"
             d="M 11.500037,31.436501 C 11.940474,20.09759 22.043105,11.32322 32.158766,21.979434 L 37.068811,17.246167 C 37.068811,17.246167 37.088388,32 37.088388,32 L 22.160133,31.978069 C 22.160133,31.978069 26.997745,27.140456 26.997745,27.140456 C 18.528582,18.264221 13.291696,25.230495 11.500037,31.436501 z"
             style="fill:#404040;"/>
          </a>
         </g>
        </svg>
</svg>
