<?xml version="1.0" encoding="UTF-8" standalone="no"?>
<!DOCTYPE svg PUBLIC "-//W3C//DTD SVG 1.1//EN"
 "http://www.w3.org/Graphics/SVG/1.1/DTD/svg11.dtd">
<!-- Generated by graphviz version 2.46.0 (20210118.1747)
 -->
<!-- Title: C2M2.NeuronalDynamics.Interaction.NDControlButton Pages: 1 -->
<!--zoomable 1559 -->
<svg id="main" version="1.1" xmlns="http://www.w3.org/2000/svg" xmlns:xlink="http://www.w3.org/1999/xlink" xml:space="preserve" onload="init(evt)">
<style type="text/css"><![CDATA[
.edge:hover path { stroke: red; }
.edge:hover polygon { stroke: red; fill: red; }
]]></style>
<script type="text/javascript"><![CDATA[
var edges = document.getElementsByTagName('g');
if (edges && edges.length) {
  for (var i=0;i<edges.length;i++) {
    if (edges[i].id.substr(0,4)=='edge') {
      edges[i].setAttribute('class','edge');
    }
  }
}
]]></script>
        <defs>
                <circle id="rim" cx="0" cy="0" r="7"/>
                <circle id="rim2" cx="0" cy="0" r="3.5"/>
                <g id="zoomPlus">
                        <use xlink:href="#rim" fill="#404040">
                                <set attributeName="fill" to="#808080" begin="zoomplus.mouseover" end="zoomplus.mouseout"/>
                        </use>
                        <path d="M-4,0h8M0,-4v8" fill="none" stroke="white" stroke-width="1.5" pointer-events="none"/>
                </g>
                <g id="zoomMin">
                        <use xlink:href="#rim" fill="#404040">
                                <set attributeName="fill" to="#808080" begin="zoomminus.mouseover" end="zoomminus.mouseout"/>
                        </use>
                        <path d="M-4,0h8" fill="none" stroke="white" stroke-width="1.5" pointer-events="none"/>
                </g>
                <g id="dirArrow">
                        <path fill="none" stroke="white" stroke-width="1.5" d="M0,-3.0v7 M-2.5,-0.5L0,-3.0L2.5,-0.5"/>
                </g>
               <g id="resetDef">
                       <use xlink:href="#rim2" fill="#404040">
                               <set attributeName="fill" to="#808080" begin="reset.mouseover" end="reset.mouseout"/>
                       </use>
               </g>
        </defs>

<script type="text/javascript">
var viewWidth = 1390;
var viewHeight = 1559;
var sectionId = 'dynsection-1';
</script>
<script xlink:href="../../svgpan.js"/>
<svg id="graph" class="graph">
<g id="viewport">
<title>C2M2.NeuronalDynamics.Interaction.NDControlButton</title>
<polygon fill="white" stroke="transparent" points="-4,4 -4,-1555 1386,-1555 1386,4 -4,4"/>
<!-- Node1 -->
<g id="node1" class="node">
<title>Node1</title>
<g id="a_node1"><a xlink:title=" ">
<polygon fill="#bfbfbf" stroke="black" points="0,-0.5 0,-68.5 221,-68.5 221,-0.5 0,-0.5"/>
<text text-anchor="start" x="8" y="-56.5" font-family="Courier New" font-size="10.00">C2M2.NeuronalDynamics.Interaction.</text>
<text text-anchor="middle" x="110.5" y="-45.5" font-family="Courier New" font-size="10.00">NDControlButton</text>
<polyline fill="none" stroke="black" points="0,-38.5 221,-38.5 "/>
<text text-anchor="middle" x="110.5" y="-26.5" font-family="Courier New" font-size="10.00"> </text>
<polyline fill="none" stroke="black" points="0,-19.5 221,-19.5 "/>
<text text-anchor="middle" x="110.5" y="-7.5" font-family="Courier New" font-size="10.00"> </text>
</a>
</g>
</g>
<!-- Node2 -->
<g id="node2" class="node">
<title>Node2</title>
<g id="a_node2"><a xlink:title=" ">
<polygon fill="white" stroke="#bfbfbf" points="746,-1339 746,-1396 841,-1396 841,-1339 746,-1339"/>
<text text-anchor="middle" x="793.5" y="-1384" font-family="Courier New" font-size="10.00">MonoBehaviour</text>
<polyline fill="none" stroke="#bfbfbf" points="746,-1377 841,-1377 "/>
<text text-anchor="middle" x="793.5" y="-1365" font-family="Courier New" font-size="10.00"> </text>
<polyline fill="none" stroke="#bfbfbf" points="746,-1358 841,-1358 "/>
<text text-anchor="middle" x="793.5" y="-1346" font-family="Courier New" font-size="10.00"> </text>
</a>
</g>
</g>
<!-- Node2&#45;&gt;Node1 -->
<g id="edge1" class="edge">
<title>Node2&#45;&gt;Node1</title>
<path fill="none" stroke="midnightblue" d="M735.61,-1363.4C587.05,-1354.18 198.08,-1321.7 113.5,-1231 67.97,-1182.17 94.5,-1148.76 94.5,-1082 94.5,-1082 94.5,-1082 94.5,-358.5 94.5,-252.67 103.17,-127.57 107.75,-68.95"/>
<polygon fill="none" stroke="midnightblue" points="735.69,-1366.91 745.88,-1364.02 736.11,-1359.92 735.69,-1366.91"/>
</g>
<!-- Node6 -->
<g id="node6" class="node">
<title>Node6</title>
<g id="a_node6"><a xlink:href="../../da/d4f/class_c2_m2_1_1_visualization_1_1_l_u_t_gradient.html" target="_top" xlink:title="Create a fast and memory&#45;friendly color lookup table from a gradient">
<polygon fill="white" stroke="black" points="473,-964.5 473,-1197.5 670,-1197.5 670,-964.5 473,-964.5"/>
<text text-anchor="middle" x="571.5" y="-1185.5" font-family="Courier New" font-size="10.00">C2M2.Visualization.LUTGradient</text>
<polyline fill="none" stroke="black" points="473,-1178.5 670,-1178.5 "/>
<text text-anchor="start" x="481" y="-1166.5" font-family="Courier New" font-size="10.00">+ extremaMethod</text>
<text text-anchor="start" x="481" y="-1155.5" font-family="Courier New" font-size="10.00">+ globalMax</text>
<text text-anchor="start" x="481" y="-1144.5" font-family="Courier New" font-size="10.00">+ globalMin</text>
<text text-anchor="start" x="481" y="-1133.5" font-family="Courier New" font-size="10.00">+ curMax</text>
<text text-anchor="start" x="481" y="-1122.5" font-family="Courier New" font-size="10.00">+ curMix</text>
<text text-anchor="start" x="481" y="-1111.5" font-family="Courier New" font-size="10.00">+ LutRes</text>
<text text-anchor="start" x="481" y="-1100.5" font-family="Courier New" font-size="10.00">+ Gradient</text>
<text text-anchor="start" x="481" y="-1089.5" font-family="Courier New" font-size="10.00">+ gradientLUT</text>
<text text-anchor="start" x="481" y="-1078.5" font-family="Courier New" font-size="10.00">+ oldMin</text>
<text text-anchor="start" x="481" y="-1067.5" font-family="Courier New" font-size="10.00">+ oldMax</text>
<text text-anchor="start" x="481" y="-1056.5" font-family="Courier New" font-size="10.00">&#45; lutRes</text>
<text text-anchor="start" x="481" y="-1045.5" font-family="Courier New" font-size="10.00">&#45; gradient</text>
<polyline fill="none" stroke="black" points="473,-1038.5 670,-1038.5 "/>
<text text-anchor="start" x="481" y="-1026.5" font-family="Courier New" font-size="10.00">+ Evaluate()</text>
<text text-anchor="start" x="481" y="-1015.5" font-family="Courier New" font-size="10.00">+ Evaluate()</text>
<text text-anchor="start" x="481" y="-1004.5" font-family="Courier New" font-size="10.00">+ EvaluateUnscaled()</text>
<text text-anchor="start" x="481" y="-993.5" font-family="Courier New" font-size="10.00">+ GetMinMax()</text>
<text text-anchor="start" x="481" y="-982.5" font-family="Courier New" font-size="10.00">&#45; BuildLUT()</text>
<text text-anchor="start" x="481" y="-971.5" font-family="Courier New" font-size="10.00">&#45; RescaleArray()</text>
</a>
</g>
</g>
<!-- Node2&#45;&gt;Node6 -->
<g id="edge6" class="edge">
<title>Node2&#45;&gt;Node6</title>
<path fill="none" stroke="midnightblue" d="M765.7,-1330.87C739.61,-1297.44 699.13,-1245.56 661.87,-1197.81"/>
<polygon fill="none" stroke="midnightblue" points="763.1,-1333.23 772.01,-1338.96 768.62,-1328.93 763.1,-1333.23"/>
</g>
<!-- Node16 -->
<g id="node16" class="node">
<title>Node16</title>
<g id="a_node16"><a xlink:href="../../d5/df9/class_c2_m2_1_1_interaction_1_1_raycast_event_manager.html" target="_top" xlink:title="Attach this script to parent gameObject, create one child with one raycast trigger per child....">
<polygon fill="white" stroke="black" points="970,-667 970,-856 1131,-856 1131,-667 970,-667"/>
<text text-anchor="start" x="978" y="-844" font-family="Courier New" font-size="10.00">C2M2.Interaction.Raycast</text>
<text text-anchor="middle" x="1050.5" y="-833" font-family="Courier New" font-size="10.00">EventManager</text>
<polyline fill="none" stroke="black" points="970,-826 1131,-826 "/>
<text text-anchor="middle" x="1050.5" y="-814" font-family="Courier New" font-size="10.00"> </text>
<polyline fill="none" stroke="black" points="970,-807 1131,-807 "/>
<text text-anchor="start" x="978" y="-795" font-family="Courier New" font-size="10.00">+ TriggerChangeRight()</text>
<text text-anchor="start" x="978" y="-784" font-family="Courier New" font-size="10.00">+ TriggerChangeLeft()</text>
<text text-anchor="start" x="978" y="-773" font-family="Courier New" font-size="10.00">+ TriggerChangeBoth()</text>
<text text-anchor="start" x="978" y="-762" font-family="Courier New" font-size="10.00">+ TriggerEmptyRight()</text>
<text text-anchor="start" x="978" y="-751" font-family="Courier New" font-size="10.00">+ TriggerEmptyLeft()</text>
<text text-anchor="start" x="978" y="-740" font-family="Courier New" font-size="10.00">+ TriggerEmptyBoth()</text>
<text text-anchor="start" x="978" y="-729" font-family="Courier New" font-size="10.00">+ HoverEvent()</text>
<text text-anchor="start" x="978" y="-718" font-family="Courier New" font-size="10.00">+ HoverEndEvent()</text>
<text text-anchor="start" x="978" y="-707" font-family="Courier New" font-size="10.00">+ PressEvent()</text>
<text text-anchor="start" x="978" y="-696" font-family="Courier New" font-size="10.00">+ HoldEvent()</text>
<text text-anchor="start" x="978" y="-685" font-family="Courier New" font-size="10.00">and 7 more...</text>
<text text-anchor="start" x="978" y="-674" font-family="Courier New" font-size="10.00">&#45; Awake()</text>
</a>
</g>
</g>
<!-- Node2&#45;&gt;Node16 -->
<g id="edge17" class="edge">
<title>Node2&#45;&gt;Node16</title>
<path fill="none" stroke="midnightblue" d="M803.01,-1329.13C823.26,-1252.31 874.42,-1072.01 942.5,-931 954.59,-905.97 969.67,-880.13 984.69,-856.42"/>
<polygon fill="none" stroke="midnightblue" points="799.61,-1328.28 800.47,-1338.84 806.39,-1330.05 799.61,-1328.28"/>
</g>
<!-- Node17 -->
<g id="node17" class="node">
<title>Node17</title>
<g id="a_node17"><a xlink:href="../../d8/d68/class_c2_m2_1_1_interaction_1_1_raycast_press_events.html" target="_top" xlink:title="Store custom events that the corresponding RaycastTriggerManager will invoke">
<polygon fill="white" stroke="black" points="951,-1003 951,-1159 1112,-1159 1112,-1003 951,-1003"/>
<text text-anchor="start" x="959" y="-1147" font-family="Courier New" font-size="10.00">C2M2.Interaction.Raycast</text>
<text text-anchor="middle" x="1031.5" y="-1136" font-family="Courier New" font-size="10.00">PressEvents</text>
<polyline fill="none" stroke="black" points="951,-1129 1112,-1129 "/>
<text text-anchor="start" x="959" y="-1117" font-family="Courier New" font-size="10.00">+ OnHover</text>
<text text-anchor="start" x="959" y="-1106" font-family="Courier New" font-size="10.00">+ OnHoverEnd</text>
<text text-anchor="start" x="959" y="-1095" font-family="Courier New" font-size="10.00">+ OnPress</text>
<text text-anchor="start" x="959" y="-1084" font-family="Courier New" font-size="10.00">+ OnHoldPress</text>
<text text-anchor="start" x="959" y="-1073" font-family="Courier New" font-size="10.00">+ OnEndPress</text>
<polyline fill="none" stroke="black" points="951,-1066 1112,-1066 "/>
<text text-anchor="start" x="959" y="-1054" font-family="Courier New" font-size="10.00">+ Hover()</text>
<text text-anchor="start" x="959" y="-1043" font-family="Courier New" font-size="10.00">+ EndHover()</text>
<text text-anchor="start" x="959" y="-1032" font-family="Courier New" font-size="10.00">+ Press()</text>
<text text-anchor="start" x="959" y="-1021" font-family="Courier New" font-size="10.00">+ HoldPress()</text>
<text text-anchor="start" x="959" y="-1010" font-family="Courier New" font-size="10.00">+ EndPress()</text>
</a>
</g>
</g>
<!-- Node2&#45;&gt;Node17 -->
<g id="edge20" class="edge">
<title>Node2&#45;&gt;Node17</title>
<path fill="none" stroke="midnightblue" d="M849.98,-1340.15C867.17,-1330.39 885.26,-1318.19 899.5,-1304 941.19,-1262.46 974.83,-1205.16 997.71,-1159.18"/>
<polygon fill="none" stroke="midnightblue" points="848.17,-1337.15 841.1,-1345.03 851.54,-1343.28 848.17,-1337.15"/>
</g>
<!-- Node3 -->
<g id="node3" class="node">
<title>Node3</title>
<g id="a_node3"><a xlink:href="../../d7/d92/class_c2_m2_1_1_neuronal_dynamics_1_1_simulation_1_1_n_d_simulation.html" target="_top" xlink:title="Provide an interface for 1D neuron&#45;surface simulations to be visualized and interacted with">
<polygon fill="white" stroke="black" points="554,-116.5 554,-602.5 781,-602.5 781,-116.5 554,-116.5"/>
<text text-anchor="start" x="562" y="-590.5" font-family="Courier New" font-size="10.00">C2M2.NeuronalDynamics.Simulation.</text>
<text text-anchor="middle" x="667.5" y="-579.5" font-family="Courier New" font-size="10.00">NDSimulation</text>
<polyline fill="none" stroke="black" points="554,-572.5 781,-572.5 "/>
<text text-anchor="start" x="562" y="-560.5" font-family="Courier New" font-size="10.00">+ visualize1D</text>
<text text-anchor="start" x="562" y="-549.5" font-family="Courier New" font-size="10.00">+ color1D</text>
<text text-anchor="start" x="562" y="-538.5" font-family="Courier New" font-size="10.00">+ lineWidth1D</text>
<text text-anchor="start" x="562" y="-527.5" font-family="Courier New" font-size="10.00">+ vrnFileName</text>
<text text-anchor="start" x="562" y="-516.5" font-family="Courier New" font-size="10.00">+ hitValue</text>
<text text-anchor="start" x="562" y="-505.5" font-family="Courier New" font-size="10.00">+ clamps</text>
<text text-anchor="start" x="562" y="-494.5" font-family="Courier New" font-size="10.00">+ VisualInflation</text>
<text text-anchor="start" x="562" y="-483.5" font-family="Courier New" font-size="10.00">+ ColliderInflation</text>
<text text-anchor="start" x="562" y="-472.5" font-family="Courier New" font-size="10.00">+ RefinementLevel</text>
<text text-anchor="start" x="562" y="-461.5" font-family="Courier New" font-size="10.00">+ ClampMode</text>
<text text-anchor="start" x="562" y="-450.5" font-family="Courier New" font-size="10.00">+ VrnReader</text>
<text text-anchor="start" x="562" y="-439.5" font-family="Courier New" font-size="10.00">+ Grid1D</text>
<text text-anchor="start" x="562" y="-428.5" font-family="Courier New" font-size="10.00">+ Verts1D</text>
<text text-anchor="start" x="562" y="-417.5" font-family="Courier New" font-size="10.00">+ Grid2D</text>
<text text-anchor="start" x="562" y="-406.5" font-family="Courier New" font-size="10.00">+ NeuronCell</text>
<text text-anchor="start" x="562" y="-395.5" font-family="Courier New" font-size="10.00">+ AverageDendriteRadius</text>
<text text-anchor="start" x="562" y="-384.5" font-family="Courier New" font-size="10.00">+ Map</text>
<text text-anchor="start" x="562" y="-373.5" font-family="Courier New" font-size="10.00">+ Mapping</text>
<text text-anchor="start" x="562" y="-362.5" font-family="Courier New" font-size="10.00">+ Scalars3D</text>
<text text-anchor="start" x="562" y="-351.5" font-family="Courier New" font-size="10.00">&#45; visualInflation</text>
<text text-anchor="start" x="562" y="-340.5" font-family="Courier New" font-size="10.00">&#45; colliderInflation</text>
<text text-anchor="start" x="562" y="-329.5" font-family="Courier New" font-size="10.00">&#45; refinementLevel</text>
<text text-anchor="start" x="562" y="-318.5" font-family="Courier New" font-size="10.00">&#45; meshCache</text>
<text text-anchor="start" x="562" y="-307.5" font-family="Courier New" font-size="10.00">&#45; clampMode</text>
<text text-anchor="start" x="562" y="-296.5" font-family="Courier New" font-size="10.00">&#45; averageDendriteRadius</text>
<text text-anchor="start" x="562" y="-285.5" font-family="Courier New" font-size="10.00">&#45; scalars3D</text>
<polyline fill="none" stroke="black" points="554,-278.5 781,-278.5 "/>
<text text-anchor="start" x="562" y="-266.5" font-family="Courier New" font-size="10.00">+ OnVisualInflationChangeDelegate()</text>
<text text-anchor="start" x="562" y="-255.5" font-family="Courier New" font-size="10.00">+ GetValues()</text>
<text text-anchor="start" x="562" y="-244.5" font-family="Courier New" font-size="10.00">+ SetValues()</text>
<text text-anchor="start" x="562" y="-233.5" font-family="Courier New" font-size="10.00">+ SetValues()</text>
<text text-anchor="start" x="562" y="-222.5" font-family="Courier New" font-size="10.00">+ Set1DValues()</text>
<text text-anchor="start" x="562" y="-211.5" font-family="Courier New" font-size="10.00">+ Get1DValues()</text>
<text text-anchor="start" x="562" y="-200.5" font-family="Courier New" font-size="10.00">+ SwitchColliderMesh()</text>
<text text-anchor="start" x="562" y="-189.5" font-family="Courier New" font-size="10.00">+ SwitchMesh()</text>
<text text-anchor="start" x="562" y="-178.5" font-family="Courier New" font-size="10.00"># OnAwakePre()</text>
<text text-anchor="start" x="562" y="-167.5" font-family="Courier New" font-size="10.00"># OnStart()</text>
<text text-anchor="start" x="562" y="-156.5" font-family="Courier New" font-size="10.00"># BuildVisualization()</text>
<text text-anchor="start" x="562" y="-145.5" font-family="Courier New" font-size="10.00">&#45; CheckMeshCache()</text>
<text text-anchor="start" x="562" y="-134.5" font-family="Courier New" font-size="10.00">&#45; UpdateGrid1D()</text>
<text text-anchor="start" x="562" y="-123.5" font-family="Courier New" font-size="10.00">&#45; Update2DGrid()</text>
</a>
</g>
</g>
<!-- Node3&#45;&gt;Node1 -->
<g id="edge2" class="edge">
<title>Node3&#45;&gt;Node1</title>
<path fill="none" stroke="#404040" d="M553.78,-292.55C440.72,-226.99 271.11,-128.63 177.88,-74.57"/>
<polygon fill="none" stroke="#404040" points="177.82,-74.54 170.63,-74.99 167.44,-68.52 174.64,-68.07 177.82,-74.54"/>
<text text-anchor="middle" x="260" y="-90" font-family="Courier New" font-size="10.00"> +ndSimulation</text>
</g>
<!-- Node4 -->
<g id="node4" class="node">
<title>Node4</title>
<g id="a_node4"><a xlink:href="../../d6/d2d/class_c2_m2_1_1_simulation_1_1_mesh_simulation.html" target="_top" xlink:title="Simulation of type double[] for visualizing scalar fields on mesh surfaces">
<polygon fill="white" stroke="black" points="123,-661.5 123,-861.5 278,-861.5 278,-661.5 123,-661.5"/>
<text text-anchor="middle" x="200.5" y="-849.5" font-family="Courier New" font-size="10.00">MeshSimulation</text>
<polyline fill="none" stroke="black" points="123,-842.5 278,-842.5 "/>
<text text-anchor="start" x="131" y="-830.5" font-family="Courier New" font-size="10.00">+ gradient</text>
<text text-anchor="start" x="131" y="-819.5" font-family="Courier New" font-size="10.00">+ globalMax</text>
<text text-anchor="start" x="131" y="-808.5" font-family="Courier New" font-size="10.00">+ globalMin</text>
<text text-anchor="start" x="131" y="-797.5" font-family="Courier New" font-size="10.00">+ rulerInitPos</text>
<text text-anchor="start" x="131" y="-786.5" font-family="Courier New" font-size="10.00">+ rulerInitRot</text>
<text text-anchor="start" x="131" y="-775.5" font-family="Courier New" font-size="10.00">+ colorLUT</text>
<text text-anchor="start" x="131" y="-764.5" font-family="Courier New" font-size="10.00">+ VisualMesh</text>
<text text-anchor="start" x="131" y="-753.5" font-family="Courier New" font-size="10.00">+ ColliderMesh</text>
<text text-anchor="start" x="131" y="-742.5" font-family="Courier New" font-size="10.00">&#45; visualMesh</text>
<text text-anchor="start" x="131" y="-731.5" font-family="Courier New" font-size="10.00">&#45; colliderMesh</text>
<text text-anchor="start" x="131" y="-720.5" font-family="Courier New" font-size="10.00">&#45; mf</text>
<text text-anchor="start" x="131" y="-709.5" font-family="Courier New" font-size="10.00">&#45; mr</text>
<polyline fill="none" stroke="black" points="123,-702.5 278,-702.5 "/>
<text text-anchor="start" x="131" y="-690.5" font-family="Courier New" font-size="10.00"># UpdateVisualization()</text>
<text text-anchor="start" x="131" y="-679.5" font-family="Courier New" font-size="10.00"># OnAwakePost()</text>
<text text-anchor="start" x="131" y="-668.5" font-family="Courier New" font-size="10.00">&#45; UpdateVisualization()</text>
</a>
</g>
</g>
<!-- Node4&#45;&gt;Node3 -->
<g id="edge3" class="edge">
<title>Node4&#45;&gt;Node3</title>
<path fill="none" stroke="midnightblue" d="M285.45,-662.01C285.8,-661.67 286.15,-661.34 286.5,-661 370.84,-580.37 475.44,-499.03 553.69,-441.35"/>
<polygon fill="none" stroke="midnightblue" points="282.74,-659.76 278.08,-669.27 287.66,-664.75 282.74,-659.76"/>
</g>
<!-- Node5 -->
<g id="node5" class="node">
<title>Node5</title>
<g id="a_node5"><a xlink:href="../../db/d39/class_c2_m2_1_1_simulation_1_1_simulation.html" target="_top" xlink:title=" ">
<polygon fill="white" stroke="black" points="123,-931.5 123,-1230.5 308,-1230.5 308,-931.5 123,-931.5"/>
<text text-anchor="start" x="131" y="-1218.5" font-family="Courier New" font-size="10.00">Simulation&lt; double</text>
<text text-anchor="start" x="131" y="-1207.5" font-family="Courier New" font-size="10.00">[], Mesh, VRRaycastableMesh,</text>
<text text-anchor="middle" x="215.5" y="-1196.5" font-family="Courier New" font-size="10.00"> VRGrabbableMesh &gt;</text>
<polyline fill="none" stroke="black" points="123,-1189.5 308,-1189.5 "/>
<text text-anchor="start" x="131" y="-1177.5" font-family="Courier New" font-size="10.00">+ dryRun</text>
<text text-anchor="start" x="131" y="-1166.5" font-family="Courier New" font-size="10.00">+ startOnAwake</text>
<text text-anchor="start" x="131" y="-1155.5" font-family="Courier New" font-size="10.00">+ viz</text>
<text text-anchor="start" x="131" y="-1144.5" font-family="Courier New" font-size="10.00"># mutex</text>
<text text-anchor="start" x="131" y="-1133.5" font-family="Courier New" font-size="10.00">&#45; solveThread</text>
<polyline fill="none" stroke="black" points="123,-1126.5 308,-1126.5 "/>
<text text-anchor="start" x="131" y="-1114.5" font-family="Courier New" font-size="10.00">+ GetValues()</text>
<text text-anchor="start" x="131" y="-1103.5" font-family="Courier New" font-size="10.00">+ Initialize()</text>
<text text-anchor="start" x="131" y="-1092.5" font-family="Courier New" font-size="10.00">+ Update()</text>
<text text-anchor="start" x="131" y="-1081.5" font-family="Courier New" font-size="10.00">+ StartSimulation()</text>
<text text-anchor="start" x="131" y="-1070.5" font-family="Courier New" font-size="10.00">+ StopSimulation()</text>
<text text-anchor="start" x="131" y="-1059.5" font-family="Courier New" font-size="10.00"># BuildVisualization()</text>
<text text-anchor="start" x="131" y="-1048.5" font-family="Courier New" font-size="10.00"># UpdateVisualization()</text>
<text text-anchor="start" x="131" y="-1037.5" font-family="Courier New" font-size="10.00"># Solve()</text>
<text text-anchor="start" x="131" y="-1026.5" font-family="Courier New" font-size="10.00"># PreSolve()</text>
<text text-anchor="start" x="131" y="-1015.5" font-family="Courier New" font-size="10.00"># OnAwakePre()</text>
<text text-anchor="start" x="131" y="-1004.5" font-family="Courier New" font-size="10.00"># OnAwakePost()</text>
<text text-anchor="start" x="131" y="-993.5" font-family="Courier New" font-size="10.00"># OnStart()</text>
<text text-anchor="start" x="131" y="-982.5" font-family="Courier New" font-size="10.00"># OnUpdate()</text>
<text text-anchor="start" x="131" y="-971.5" font-family="Courier New" font-size="10.00"># OnPause()</text>
<text text-anchor="start" x="131" y="-960.5" font-family="Courier New" font-size="10.00"># OnQuit()</text>
<text text-anchor="start" x="131" y="-949.5" font-family="Courier New" font-size="10.00">&#45; OnApplicationPause()</text>
<text text-anchor="start" x="131" y="-938.5" font-family="Courier New" font-size="10.00">&#45; OnApplicationQuit()</text>
</a>
</g>
</g>
<!-- Node5&#45;&gt;Node4 -->
<g id="edge4" class="edge">
<title>Node5&#45;&gt;Node4</title>
<path fill="none" stroke="midnightblue" d="M208.01,-921.45C207.04,-901.03 206.08,-880.6 205.18,-861.52"/>
<polygon fill="none" stroke="midnightblue" points="204.51,-921.65 208.48,-931.48 211.51,-921.32 204.51,-921.65"/>
</g>
<!-- Node6&#45;&gt;Node4 -->
<g id="edge5" class="edge">
<title>Node6&#45;&gt;Node4</title>
<path fill="none" stroke="#404040" d="M472.86,-1012.24C418.62,-973.22 351.04,-921.66 287.03,-862.22"/>
<polygon fill="none" stroke="#404040" points="286.78,-861.99 279.67,-860.8 278.02,-853.78 285.14,-854.97 286.78,-861.99"/>
<text text-anchor="middle" x="384" y="-894" font-family="Courier New" font-size="10.00"> +extremaMethod</text>
</g>
<!-- Node7 -->
<g id="node7" class="node">
<title>Node7</title>
<g id="a_node7"><a xlink:href="../../da/df6/class_c2_m2_1_1_neuronal_dynamics_1_1_u_g_x_1_1_neuron_cell.html" target="_top" xlink:title=" ">
<polygon fill="white" stroke="black" points="296,-667 296,-856 469,-856 469,-667 296,-667"/>
<text text-anchor="start" x="304" y="-844" font-family="Courier New" font-size="10.00">C2M2.NeuronalDynamics.UGX.</text>
<text text-anchor="middle" x="382.5" y="-833" font-family="Courier New" font-size="10.00">NeuronCell</text>
<polyline fill="none" stroke="black" points="296,-826 469,-826 "/>
<text text-anchor="start" x="304" y="-814" font-family="Courier New" font-size="10.00">+ nodeData</text>
<text text-anchor="start" x="304" y="-803" font-family="Courier New" font-size="10.00">+ edges</text>
<text text-anchor="start" x="304" y="-792" font-family="Courier New" font-size="10.00">+ edgeLengths</text>
<text text-anchor="start" x="304" y="-781" font-family="Courier New" font-size="10.00">+ boundaryID</text>
<text text-anchor="start" x="304" y="-770" font-family="Courier New" font-size="10.00">+ somaID</text>
<text text-anchor="start" x="304" y="-759" font-family="Courier New" font-size="10.00">+ vertCount</text>
<text text-anchor="start" x="304" y="-748" font-family="Courier New" font-size="10.00">+ edgeCount</text>
<polyline fill="none" stroke="black" points="296,-741 469,-741 "/>
<text text-anchor="start" x="304" y="-729" font-family="Courier New" font-size="10.00">+ NeuronCell()</text>
<text text-anchor="start" x="304" y="-718" font-family="Courier New" font-size="10.00">+ NodeToString()</text>
<text text-anchor="start" x="304" y="-707" font-family="Courier New" font-size="10.00">+ EdgeToString()</text>
<text text-anchor="start" x="304" y="-696" font-family="Courier New" font-size="10.00">+ ToString()</text>
<text text-anchor="start" x="304" y="-685" font-family="Courier New" font-size="10.00">+ GetEdgeLength()</text>
<text text-anchor="start" x="304" y="-674" font-family="Courier New" font-size="10.00">&#45; NodeNeighborsToString()</text>
</a>
</g>
</g>
<!-- Node7&#45;&gt;Node3 -->
<g id="edge7" class="edge">
<title>Node7&#45;&gt;Node3</title>
<path fill="none" stroke="#404040" d="M449.14,-666.97C478.24,-626.12 513.31,-576.91 546.73,-530"/>
<polygon fill="none" stroke="#404040" points="546.88,-529.8 547.1,-522.59 553.84,-520.02 553.62,-527.23 546.88,-529.8"/>
<text text-anchor="middle" x="511" y="-629.5" font-family="Courier New" font-size="10.00"> &#45;neuronCell</text>
</g>
<!-- Node8 -->
<g id="node8" class="node">
<title>Node8</title>
<g id="a_node8"><a xlink:title=" ">
<polygon fill="white" stroke="#bfbfbf" points="762,-1052.5 762,-1109.5 815,-1109.5 815,-1052.5 762,-1052.5"/>
<text text-anchor="middle" x="788.5" y="-1097.5" font-family="Courier New" font-size="10.00">static</text>
<polyline fill="none" stroke="#bfbfbf" points="762,-1090.5 815,-1090.5 "/>
<text text-anchor="middle" x="788.5" y="-1078.5" font-family="Courier New" font-size="10.00"> </text>
<polyline fill="none" stroke="#bfbfbf" points="762,-1071.5 815,-1071.5 "/>
<text text-anchor="middle" x="788.5" y="-1059.5" font-family="Courier New" font-size="10.00"> </text>
</a>
</g>
</g>
<!-- Node8&#45;&gt;Node7 -->
<g id="edge8" class="edge">
<title>Node8&#45;&gt;Node7</title>
<path fill="none" stroke="#404040" d="M775.02,-1052.38C757.44,-1019.07 723.63,-963.51 679.5,-931 606.5,-877.22 561.85,-909.86 479.66,-862.07"/>
<polygon fill="none" stroke="#404040" points="479.41,-861.92 472.21,-862.2 469.18,-855.66 476.38,-855.38 479.41,-861.92"/>
<text text-anchor="middle" x="703" y="-905" font-family="Courier New" font-size="10.00"> &#45;cellFormatString</text>
<text text-anchor="middle" x="703" y="-894" font-family="Courier New" font-size="10.00">&#45;edgeFormatString</text>
<text text-anchor="middle" x="703" y="-883" font-family="Courier New" font-size="10.00">&#45;nodeFormatString</text>
</g>
<!-- Node8&#45;&gt;Node16 -->
<g id="edge18" class="edge">
<title>Node8&#45;&gt;Node16</title>
<path fill="none" stroke="#404040" d="M782.99,-1052.18C776.18,-1008.78 770.53,-925.26 816.5,-880 837.65,-859.18 917.25,-873.96 960.35,-860.7"/>
<polygon fill="none" stroke="#404040" points="960.35,-860.7 964.39,-854.72 971.46,-856.16 967.42,-862.13 960.35,-860.7"/>
<text text-anchor="middle" x="844" y="-894" font-family="Courier New" font-size="10.00"> &#45;nullHit</text>
</g>
<!-- Node9 -->
<g id="node9" class="node">
<title>Node9</title>
<g id="a_node9"><a xlink:href="../../db/dbd/struct_c2_m2_1_1_neuronal_dynamics_1_1_simulation_1_1_vert3_d1_d_pair.html" target="_top" xlink:title="Stores two 1D indices and a lambda value for a 3D vertex">
<polygon fill="white" stroke="black" points="487,-711 487,-812 702,-812 702,-711 487,-711"/>
<text text-anchor="start" x="495" y="-800" font-family="Courier New" font-size="10.00">C2M2.NeuronalDynamics.Simulation.</text>
<text text-anchor="middle" x="594.5" y="-789" font-family="Courier New" font-size="10.00">Vert3D1DPair</text>
<polyline fill="none" stroke="black" points="487,-782 702,-782 "/>
<text text-anchor="start" x="495" y="-770" font-family="Courier New" font-size="10.00">+ v1</text>
<text text-anchor="start" x="495" y="-759" font-family="Courier New" font-size="10.00">+ v2</text>
<text text-anchor="start" x="495" y="-748" font-family="Courier New" font-size="10.00">+ lambda</text>
<polyline fill="none" stroke="black" points="487,-741 702,-741 "/>
<text text-anchor="start" x="495" y="-729" font-family="Courier New" font-size="10.00">+ Vert3D1DPair()</text>
<text text-anchor="start" x="495" y="-718" font-family="Courier New" font-size="10.00">+ ToString()</text>
</a>
</g>
</g>
<!-- Node9&#45;&gt;Node3 -->
<g id="edge9" class="edge">
<title>Node9&#45;&gt;Node3</title>
<path fill="none" stroke="#404040" d="M603.6,-710.65C608.32,-684.76 614.49,-650.96 621.13,-614.58"/>
<polygon fill="none" stroke="#404040" points="621.15,-614.49 618.29,-607.87 623.3,-602.68 626.16,-609.3 621.15,-614.49"/>
<text text-anchor="middle" x="633" y="-629.5" font-family="Courier New" font-size="10.00"> &#45;map</text>
</g>
<!-- Node10 -->
<g id="node10" class="node">
<title>Node10</title>
<g id="a_node10"><a xlink:title=" ">
<polygon fill="white" stroke="#bfbfbf" points="720,-733 720,-790 761,-790 761,-733 720,-733"/>
<text text-anchor="middle" x="740.5" y="-778" font-family="Courier New" font-size="10.00">C2M2</text>
<polyline fill="none" stroke="#bfbfbf" points="720,-771 761,-771 "/>
<text text-anchor="middle" x="740.5" y="-759" font-family="Courier New" font-size="10.00"> </text>
<polyline fill="none" stroke="#bfbfbf" points="720,-752 761,-752 "/>
<text text-anchor="middle" x="740.5" y="-740" font-family="Courier New" font-size="10.00"> </text>
</a>
</g>
</g>
<!-- Node10&#45;&gt;Node3 -->
<g id="edge10" class="edge">
<title>Node10&#45;&gt;Node3</title>
<path fill="none" stroke="#404040" d="M735.42,-732.69C730.54,-705.93 722.63,-662.57 713.9,-614.72"/>
<polygon fill="none" stroke="#404040" points="713.88,-614.61 708.86,-609.43 711.72,-602.81 716.73,-607.99 713.88,-614.61"/>
<text text-anchor="middle" x="743" y="-635" font-family="Courier New" font-size="10.00"> &#45;grid1D</text>
<text text-anchor="middle" x="743" y="-624" font-family="Courier New" font-size="10.00">&#45;grid2D</text>
</g>
<!-- Node11 -->
<g id="node11" class="node">
<title>Node11</title>
<g id="a_node11"><a xlink:href="../../dd/d2a/struct_c2_m2_1_1_neuronal_dynamics_1_1_u_g_x_1_1_mapping_info.html" target="_top" xlink:title="Encapsulates the grids and mapping data">
<polygon fill="white" stroke="black" points="779,-716.5 779,-806.5 952,-806.5 952,-716.5 779,-716.5"/>
<text text-anchor="start" x="787" y="-794.5" font-family="Courier New" font-size="10.00">C2M2.NeuronalDynamics.UGX.</text>
<text text-anchor="middle" x="865.5" y="-783.5" font-family="Courier New" font-size="10.00">MappingInfo</text>
<polyline fill="none" stroke="black" points="779,-776.5 952,-776.5 "/>
<text text-anchor="start" x="787" y="-764.5" font-family="Courier New" font-size="10.00">+ ModelGeometry</text>
<text text-anchor="start" x="787" y="-753.5" font-family="Courier New" font-size="10.00">+ SurfaceGeometry</text>
<text text-anchor="start" x="787" y="-742.5" font-family="Courier New" font-size="10.00">+ Data</text>
<polyline fill="none" stroke="black" points="779,-735.5 952,-735.5 "/>
<text text-anchor="start" x="787" y="-723.5" font-family="Courier New" font-size="10.00">+ MappingInfo()</text>
</a>
</g>
</g>
<!-- Node11&#45;&gt;Node3 -->
<g id="edge11" class="edge">
<title>Node11&#45;&gt;Node3</title>
<path fill="none" stroke="#404040" d="M843.55,-716.16C828.9,-686.57 808.36,-645.07 786.46,-600.82"/>
<polygon fill="none" stroke="#404040" points="786.34,-600.58 780.09,-596.98 781.02,-589.83 787.26,-593.43 786.34,-600.58"/>
<text text-anchor="middle" x="834" y="-629.5" font-family="Courier New" font-size="10.00"> &#45;mapping</text>
</g>
<!-- Node12 -->
<g id="node12" class="node">
<title>Node12</title>
<g id="a_node12"><a xlink:href="../../d1/d08/class_c2_m2_1_1_neuronal_dynamics_1_1_visualization_1_1_v_r_n_1_1_vrn_reader.html" target="_top" xlink:title=" ">
<polygon fill="white" stroke="black" points="1149,-694.5 1149,-828.5 1382,-828.5 1382,-694.5 1149,-694.5"/>
<text text-anchor="start" x="1157" y="-816.5" font-family="Courier New" font-size="10.00">C2M2.NeuronalDynamics.Visualization.</text>
<text text-anchor="middle" x="1265.5" y="-805.5" font-family="Courier New" font-size="10.00">VRN.VrnReader</text>
<polyline fill="none" stroke="black" points="1149,-798.5 1382,-798.5 "/>
<text text-anchor="start" x="1157" y="-786.5" font-family="Courier New" font-size="10.00">&#45; fileName</text>
<text text-anchor="start" x="1157" y="-775.5" font-family="Courier New" font-size="10.00">&#45; loaded</text>
<polyline fill="none" stroke="black" points="1149,-768.5 1382,-768.5 "/>
<text text-anchor="start" x="1157" y="-756.5" font-family="Courier New" font-size="10.00">+ List()</text>
<text text-anchor="start" x="1157" y="-745.5" font-family="Courier New" font-size="10.00">+ ReadUGX()</text>
<text text-anchor="start" x="1157" y="-734.5" font-family="Courier New" font-size="10.00">+ Retrieve1DMeshName()</text>
<text text-anchor="start" x="1157" y="-723.5" font-family="Courier New" font-size="10.00">+ Retrieve2DMeshName()</text>
<text text-anchor="start" x="1157" y="-712.5" font-family="Courier New" font-size="10.00">+ VrnReader()</text>
<text text-anchor="start" x="1157" y="-701.5" font-family="Courier New" font-size="10.00">&#45; Load()</text>
</a>
</g>
</g>
<!-- Node12&#45;&gt;Node3 -->
<g id="edge12" class="edge">
<title>Node12&#45;&gt;Node3</title>
<path fill="none" stroke="#404040" d="M1185.1,-694.46C1170.47,-683.03 1155.18,-671.46 1140.5,-661 1025.26,-578.88 888.28,-493.07 791.47,-434.27"/>
<polygon fill="none" stroke="#404040" points="791.31,-434.18 784.1,-434.49 781.05,-427.95 788.25,-427.65 791.31,-434.18"/>
<text text-anchor="middle" x="1136" y="-629.5" font-family="Courier New" font-size="10.00"> &#45;vrnReader</text>
</g>
<!-- Node13 -->
<g id="node13" class="node">
<title>Node13</title>
<g id="a_node13"><a xlink:href="../../d9/d5c/class_c2_m2_1_1_neuronal_dynamics_1_1_visualization_1_1_v_r_n_1_1_vrn_reader_1_1_geometry.html" target="_top" xlink:title="Stores 1D and associated 2D geometries in the member geom1d">
<polygon fill="white" stroke="black" points="1149,-1047 1149,-1115 1382,-1115 1382,-1047 1149,-1047"/>
<text text-anchor="start" x="1157" y="-1103" font-family="Courier New" font-size="10.00">C2M2.NeuronalDynamics.Visualization.</text>
<text text-anchor="middle" x="1265.5" y="-1092" font-family="Courier New" font-size="10.00">VRN.VrnReader.Geometry</text>
<polyline fill="none" stroke="black" points="1149,-1085 1382,-1085 "/>
<text text-anchor="middle" x="1265.5" y="-1073" font-family="Courier New" font-size="10.00"> </text>
<polyline fill="none" stroke="black" points="1149,-1066 1382,-1066 "/>
<text text-anchor="start" x="1157" y="-1054" font-family="Courier New" font-size="10.00">+ Geometry()</text>
</a>
</g>
</g>
<!-- Node13&#45;&gt;Node12 -->
<g id="edge13" class="edge">
<title>Node13&#45;&gt;Node12</title>
<path fill="none" stroke="#404040" d="M1265.5,-1046.92C1265.5,-998.48 1265.5,-906.81 1265.5,-840.61"/>
<polygon fill="none" stroke="#404040" points="1265.5,-840.57 1261.5,-834.57 1265.5,-828.57 1269.5,-834.57 1265.5,-840.57"/>
<text text-anchor="middle" x="1296" y="-894" font-family="Courier New" font-size="10.00"> &#45;geometry</text>
</g>
<!-- Node14 -->
<g id="node14" class="node">
<title>Node14</title>
<g id="a_node14"><a xlink:href="../../dd/df0/struct_c2_m2_1_1_neuronal_dynamics_1_1_visualization_1_1_v_r_n_1_1_vrn_reader_1_1_geom1d.html" target="_top" xlink:title="Stores the 1D geometries by name, refinement and a description Inflations are attached to the 1D geom...">
<polygon fill="white" stroke="black" points="1149,-1322.5 1149,-1412.5 1382,-1412.5 1382,-1322.5 1149,-1322.5"/>
<text text-anchor="start" x="1157" y="-1400.5" font-family="Courier New" font-size="10.00">C2M2.NeuronalDynamics.Visualization.</text>
<text text-anchor="middle" x="1265.5" y="-1389.5" font-family="Courier New" font-size="10.00">VRN.VrnReader.Geom1d</text>
<polyline fill="none" stroke="black" points="1149,-1382.5 1382,-1382.5 "/>
<text text-anchor="start" x="1157" y="-1370.5" font-family="Courier New" font-size="10.00">+ name</text>
<text text-anchor="start" x="1157" y="-1359.5" font-family="Courier New" font-size="10.00">+ refinement</text>
<text text-anchor="start" x="1157" y="-1348.5" font-family="Courier New" font-size="10.00">+ description</text>
<polyline fill="none" stroke="black" points="1149,-1341.5 1382,-1341.5 "/>
<text text-anchor="start" x="1157" y="-1329.5" font-family="Courier New" font-size="10.00">+ Geom1d()</text>
</a>
</g>
</g>
<!-- Node14&#45;&gt;Node13 -->
<g id="edge14" class="edge">
<title>Node14&#45;&gt;Node13</title>
<path fill="none" stroke="#404040" d="M1265.5,-1322.36C1265.5,-1269.33 1265.5,-1180.84 1265.5,-1127.3"/>
<polygon fill="none" stroke="#404040" points="1265.5,-1127.13 1261.5,-1121.13 1265.5,-1115.13 1269.5,-1121.13 1265.5,-1127.13"/>
<text text-anchor="middle" x="1290" y="-1274" font-family="Courier New" font-size="10.00"> +geom1d</text>
</g>
<!-- Node15 -->
<g id="node15" class="node">
<title>Node15</title>
<g id="a_node15"><a xlink:href="../../d8/daf/struct_c2_m2_1_1_neuronal_dynamics_1_1_visualization_1_1_v_r_n_1_1_vrn_reader_1_1_geom2d.html" target="_top" xlink:title="Stores the 2d geometries by name, inflation (factor), and description">
<polygon fill="white" stroke="black" points="1149,-1460.5 1149,-1550.5 1382,-1550.5 1382,-1460.5 1149,-1460.5"/>
<text text-anchor="start" x="1157" y="-1538.5" font-family="Courier New" font-size="10.00">C2M2.NeuronalDynamics.Visualization.</text>
<text text-anchor="middle" x="1265.5" y="-1527.5" font-family="Courier New" font-size="10.00">VRN.VrnReader.Geom2d</text>
<polyline fill="none" stroke="black" points="1149,-1520.5 1382,-1520.5 "/>
<text text-anchor="start" x="1157" y="-1508.5" font-family="Courier New" font-size="10.00">+ inflation</text>
<text text-anchor="start" x="1157" y="-1497.5" font-family="Courier New" font-size="10.00">+ name</text>
<text text-anchor="start" x="1157" y="-1486.5" font-family="Courier New" font-size="10.00">+ description</text>
<polyline fill="none" stroke="black" points="1149,-1479.5 1382,-1479.5 "/>
<text text-anchor="start" x="1157" y="-1467.5" font-family="Courier New" font-size="10.00">+ Geom2d()</text>
</a>
</g>
</g>
<!-- Node15&#45;&gt;Node14 -->
<g id="edge15" class="edge">
<title>Node15&#45;&gt;Node14</title>
<path fill="none" stroke="#404040" d="M1265.5,-1460.34C1265.5,-1449.06 1265.5,-1436.78 1265.5,-1424.97"/>
<polygon fill="none" stroke="#404040" points="1265.5,-1424.9 1261.5,-1418.9 1265.5,-1412.9 1269.5,-1418.9 1265.5,-1424.9"/>
<text text-anchor="middle" x="1302" y="-1434" font-family="Courier New" font-size="10.00"> +inflations</text>
</g>
<!-- Node16&#45;&gt;Node3 -->
<g id="edge16" class="edge">
<title>Node16&#45;&gt;Node3</title>
<path fill="none" stroke="#404040" d="M969.91,-670.04C967.08,-666.98 964.27,-663.96 961.5,-661 905.89,-601.55 842.93,-536.87 789.58,-482.79"/>
<polygon fill="none" stroke="#404040" points="789.53,-482.74 782.47,-481.29 781.1,-474.21 788.16,-475.66 789.53,-482.74"/>
<text text-anchor="middle" x="986" y="-629.5" font-family="Courier New" font-size="10.00"> &#45;raycastManager</text>
</g>
<!-- Node17&#45;&gt;Node16 -->
<g id="edge19" class="edge">
<title>Node17&#45;&gt;Node16</title>
<path fill="none" stroke="#404040" d="M1036.12,-1002.74C1038.54,-962.39 1041.53,-912.4 1044.16,-868.49"/>
<polygon fill="none" stroke="#404040" points="1044.17,-868.25 1040.54,-862.02 1044.89,-856.27 1048.52,-862.5 1044.17,-868.25"/>
<text text-anchor="middle" x="1082" y="-905" font-family="Courier New" font-size="10.00"> +leftTrigger</text>
<text text-anchor="middle" x="1082" y="-894" font-family="Courier New" font-size="10.00">+rightTrigger</text>
<text text-anchor="middle" x="1082" y="-883" font-family="Courier New" font-size="10.00">&#45;emptyTrigger</text>
</g>
<!-- Node18 -->
<g id="node18" class="node">
<title>Node18</title>
<g id="a_node18"><a xlink:href="../../d2/d43/class_c2_m2_1_1_interaction_1_1_raycast_press_events_1_1_raycast_hit_event.html" target="_top" xlink:title=" ">
<polygon fill="white" stroke="black" points="942,-1333.5 942,-1401.5 1121,-1401.5 1121,-1333.5 942,-1333.5"/>
<text text-anchor="start" x="950" y="-1389.5" font-family="Courier New" font-size="10.00">C2M2.Interaction.Raycast</text>
<text text-anchor="middle" x="1031.5" y="-1378.5" font-family="Courier New" font-size="10.00">PressEvents.RaycastHitEvent</text>
<polyline fill="none" stroke="black" points="942,-1371.5 1121,-1371.5 "/>
<text text-anchor="middle" x="1031.5" y="-1359.5" font-family="Courier New" font-size="10.00"> </text>
<polyline fill="none" stroke="black" points="942,-1352.5 1121,-1352.5 "/>
<text text-anchor="middle" x="1031.5" y="-1340.5" font-family="Courier New" font-size="10.00"> </text>
</a>
</g>
</g>
<!-- Node18&#45;&gt;Node17 -->
<g id="edge21" class="edge">
<title>Node18&#45;&gt;Node17</title>
<path fill="none" stroke="#404040" d="M1031.5,-1333.31C1031.5,-1293.86 1031.5,-1226.44 1031.5,-1171.36"/>
<polygon fill="none" stroke="#404040" points="1031.5,-1171.09 1027.5,-1165.09 1031.5,-1159.09 1035.5,-1165.09 1031.5,-1171.09"/>
<text text-anchor="middle" x="1068" y="-1296" font-family="Courier New" font-size="10.00"> &#45;onEndPress</text>
<text text-anchor="middle" x="1068" y="-1285" font-family="Courier New" font-size="10.00">&#45;onHoldPress</text>
<text text-anchor="middle" x="1068" y="-1274" font-family="Courier New" font-size="10.00">&#45;onHover</text>
<text text-anchor="middle" x="1068" y="-1263" font-family="Courier New" font-size="10.00">&#45;onHoverEnd</text>
<text text-anchor="middle" x="1068" y="-1252" font-family="Courier New" font-size="10.00">&#45;onPress</text>
</g>
<!-- Node19 -->
<g id="node19" class="node">
<title>Node19</title>
<g id="a_node19"><a xlink:title=" ">
<polygon fill="white" stroke="#bfbfbf" points="951,-1477 951,-1534 1112,-1534 1112,-1477 951,-1477"/>
<text text-anchor="middle" x="1031.5" y="-1522" font-family="Courier New" font-size="10.00">UnityEvent&lt; RaycastHit &gt;</text>
<polyline fill="none" stroke="#bfbfbf" points="951,-1515 1112,-1515 "/>
<text text-anchor="middle" x="1031.5" y="-1503" font-family="Courier New" font-size="10.00"> </text>
<polyline fill="none" stroke="#bfbfbf" points="951,-1496 1112,-1496 "/>
<text text-anchor="middle" x="1031.5" y="-1484" font-family="Courier New" font-size="10.00"> </text>
</a>
</g>
</g>
<!-- Node19&#45;&gt;Node18 -->
<g id="edge22" class="edge">
<title>Node19&#45;&gt;Node18</title>
<path fill="none" stroke="midnightblue" d="M1031.5,-1466.78C1031.5,-1446.38 1031.5,-1421.41 1031.5,-1401.75"/>
<polygon fill="none" stroke="midnightblue" points="1028,-1466.98 1031.5,-1476.98 1035,-1466.98 1028,-1466.98"/>
</g>
</g>
</svg>
        <g id="navigator" transform="translate(0 0)" fill="#404254">
                <rect fill="#f2f5e9" fill-opacity="0.5" stroke="#606060" stroke-width=".5" x="0" y="0" width="60" height="60"/>
                <use id="zoomplus" xlink:href="#zoomPlus" x="17" y="9" onmousedown="handleZoom(evt,'in')"/>
                <use id="zoomminus" xlink:href="#zoomMin" x="42" y="9" onmousedown="handleZoom(evt,'out')"/>
                <use id="reset" xlink:href="#resetDef" x="30" y="36" onmousedown="handleReset()"/>
                <g id="arrowUp" xlink:href="#dirArrow" transform="translate(30 24)" onmousedown="handlePan(0,-1)">
                  <use xlink:href="#rim" fill="#404040">
                        <set attributeName="fill" to="#808080" begin="arrowUp.mouseover" end="arrowUp.mouseout"/>
                  </use>
                  <path fill="none" stroke="white" stroke-width="1.5" d="M0,-3.0v7 M-2.5,-0.5L0,-3.0L2.5,-0.5"/>
                </g>
                <g id="arrowRight" xlink:href="#dirArrow" transform="rotate(90) translate(36 -43)" onmousedown="handlePan(1,0)">
                  <use xlink:href="#rim" fill="#404040">
                        <set attributeName="fill" to="#808080" begin="arrowRight.mouseover" end="arrowRight.mouseout"/>
                  </use>
                  <path fill="none" stroke="white" stroke-width="1.5" d="M0,-3.0v7 M-2.5,-0.5L0,-3.0L2.5,-0.5"/>
                </g>
                <g id="arrowDown" xlink:href="#dirArrow" transform="rotate(180) translate(-30 -48)" onmousedown="handlePan(0,1)">
                  <use xlink:href="#rim" fill="#404040">
                        <set attributeName="fill" to="#808080" begin="arrowDown.mouseover" end="arrowDown.mouseout"/>
                  </use>
                  <path fill="none" stroke="white" stroke-width="1.5" d="M0,-3.0v7 M-2.5,-0.5L0,-3.0L2.5,-0.5"/>
                </g>
                <g id="arrowLeft" xlink:href="#dirArrow" transform="rotate(270) translate(-36 17)" onmousedown="handlePan(-1,0)">
                  <use xlink:href="#rim" fill="#404040">
                        <set attributeName="fill" to="#808080" begin="arrowLeft.mouseover" end="arrowLeft.mouseout"/>
                  </use>
                  <path fill="none" stroke="white" stroke-width="1.5" d="M0,-3.0v7 M-2.5,-0.5L0,-3.0L2.5,-0.5"/>
                </g>
        </g>
        <svg viewBox="0 0 15 15" width="100%" height="30px" preserveAspectRatio="xMaxYMin meet">
         <g id="arrow_out" transform="scale(0.3 0.3)">
          <a xlink:href="class_c2_m2_1_1_neuronal_dynamics_1_1_interaction_1_1_n_d_control_button__coll__graph_org.svg" target="_base">
           <rect id="button" ry="5" rx="5" y="6" x="6" height="38" width="38"
                fill="#f2f5e9" fill-opacity="0.5" stroke="#606060" stroke-width="1.0"/>
           <path id="arrow"
             d="M 11.500037,31.436501 C 11.940474,20.09759 22.043105,11.32322 32.158766,21.979434 L 37.068811,17.246167 C 37.068811,17.246167 37.088388,32 37.088388,32 L 22.160133,31.978069 C 22.160133,31.978069 26.997745,27.140456 26.997745,27.140456 C 18.528582,18.264221 13.291696,25.230495 11.500037,31.436501 z"
             style="fill:#404040;"/>
          </a>
         </g>
        </svg>
</svg>
