<?xml version="1.0" encoding="UTF-8" standalone="no"?>
<!DOCTYPE svg PUBLIC "-//W3C//DTD SVG 1.1//EN"
 "http://www.w3.org/Graphics/SVG/1.1/DTD/svg11.dtd">
<!-- Generated by graphviz version 2.38.0 (20140413.2041)
 -->
<!-- Title: C2M2.Interaction.RaycastSimHeaterDiscrete Pages: 1 -->
<!--zoomable 747 -->
<svg id="main" version="1.1" xmlns="http://www.w3.org/2000/svg" xmlns:xlink="http://www.w3.org/1999/xlink" xml:space="preserve" onload="init(evt)">
<style type="text/css"><![CDATA[
.edge:hover path { stroke: red; }
.edge:hover polygon { stroke: red; fill: red; }
]]></style>
<script type="text/javascript"><![CDATA[
var edges = document.getElementsByTagName('g');
if (edges && edges.length) {
  for (var i=0;i<edges.length;i++) {
    if (edges[i].id.substr(0,4)=='edge') {
      edges[i].setAttribute('class','edge');
    }
  }
}
]]></script>
        <defs>
                <circle id="rim" cx="0" cy="0" r="7"/>
                <circle id="rim2" cx="0" cy="0" r="3.5"/>
                <g id="zoomPlus">
                        <use xlink:href="#rim" fill="#404040">
                                <set attributeName="fill" to="#808080" begin="zoomplus.mouseover" end="zoomplus.mouseout"/>
                        </use>
                        <path d="M-4,0h8M0,-4v8" fill="none" stroke="white" stroke-width="1.5" pointer-events="none"/>
                </g>
                <g id="zoomMin">
                        <use xlink:href="#rim" fill="#404040">
                                <set attributeName="fill" to="#808080" begin="zoomminus.mouseover" end="zoomminus.mouseout"/>
                        </use>
                        <path d="M-4,0h8" fill="none" stroke="white" stroke-width="1.5" pointer-events="none"/>
                </g>
                <g id="dirArrow">
                        <path fill="none" stroke="white" stroke-width="1.5" d="M0,-3.0v7 M-2.5,-0.5L0,-3.0L2.5,-0.5"/>
                </g>
               <g id="resetDef">
                       <use xlink:href="#rim2" fill="#404040">
                               <set attributeName="fill" to="#808080" begin="reset.mouseover" end="reset.mouseout"/>
                       </use>
               </g>
        </defs>

<script type="text/javascript">
var viewWidth = 346;
var viewHeight = 747;
var sectionId = 'dynsection-1';
</script>
<script xlink:href="../../svgpan.js"/>
<svg id="graph" class="graph">
<g id="viewport">
<title>C2M2.Interaction.RaycastSimHeaterDiscrete</title>
<polygon fill="white" stroke="none" points="-4,4 -4,-743 341.5,-743 341.5,4 -4,4"/>
<!-- Node1 -->
<g id="node1" class="node"><title>Node1</title>
<g id="a_node1"><a xlink:title=" ">
<polygon fill="#bfbfbf" stroke="black" points="0,-0.5 0,-90.5 161,-90.5 161,-0.5 0,-0.5"/>
<text text-anchor="start" x="8" y="-78.5" font-family="Courier New" font-size="10.00">C2M2.Interaction.Raycast</text>
<text text-anchor="middle" x="80.5" y="-67.5" font-family="Courier New" font-size="10.00">SimHeaterDiscrete</text>
<polyline fill="none" stroke="black" points="0,-60.5 161,-60.5 "/>
<text text-anchor="start" x="8" y="-48.5" font-family="Courier New" font-size="10.00">&#45; mf</text>
<polyline fill="none" stroke="black" points="0,-41.5 161,-41.5 "/>
<text text-anchor="start" x="8" y="-29.5" font-family="Courier New" font-size="10.00">+ HitToTriangles()</text>
<text text-anchor="start" x="8" y="-18.5" font-family="Courier New" font-size="10.00"># OnAwake()</text>
<text text-anchor="start" x="8" y="-7.5" font-family="Courier New" font-size="10.00"># HitMethod()</text>
</a>
</g>
</g>
<!-- Node2 -->
<g id="node2" class="node"><title>Node2</title>
<g id="a_node2"><a xlink:href="../../d4/dfc/class_c2_m2_1_1_interaction_1_1_raycast_sim_heater.html" target="_top" xlink:title=" ">
<polygon fill="white" stroke="black" points="24,-128.5 24,-218.5 137,-218.5 137,-128.5 24,-128.5"/>
<text text-anchor="middle" x="80.5" y="-206.5" font-family="Courier New" font-size="10.00">RaycastSimHeater</text>
<polyline fill="none" stroke="black" points="24,-199.5 137,-199.5 "/>
<text text-anchor="middle" x="80.5" y="-187.5" font-family="Courier New" font-size="10.00"> </text>
<polyline fill="none" stroke="black" points="24,-180.5 137,-180.5 "/>
<text text-anchor="start" x="32" y="-168.5" font-family="Courier New" font-size="10.00">+ Hit()</text>
<text text-anchor="start" x="32" y="-157.5" font-family="Courier New" font-size="10.00"># OnAwake()</text>
<text text-anchor="start" x="32" y="-146.5" font-family="Courier New" font-size="10.00"># HitMethod()</text>
<text text-anchor="start" x="32" y="-135.5" font-family="Courier New" font-size="10.00">&#45; Awake()</text>
</a>
</g>
</g>
<!-- Node2&#45;&gt;Node1 -->
<g id="edge1" class="edge"><title>Node2&#45;&gt;Node1</title>
<path fill="none" stroke="midnightblue" d="M80.5,-118.226C80.5,-109.056 80.5,-99.6331 80.5,-90.7568"/>
<polygon fill="none" stroke="midnightblue" points="77.0001,-118.431 80.5,-128.431 84.0001,-118.431 77.0001,-118.431"/>
</g>
<!-- Node3 -->
<g id="node3" class="node"><title>Node3</title>
<g id="a_node3"><a xlink:title=" ">
<polygon fill="white" stroke="#bfbfbf" points="35,-681.5 35,-738.5 130,-738.5 130,-681.5 35,-681.5"/>
<text text-anchor="middle" x="82.5" y="-726.5" font-family="Courier New" font-size="10.00">MonoBehaviour</text>
<polyline fill="none" stroke="#bfbfbf" points="35,-719.5 130,-719.5 "/>
<text text-anchor="middle" x="82.5" y="-707.5" font-family="Courier New" font-size="10.00"> </text>
<polyline fill="none" stroke="#bfbfbf" points="35,-700.5 130,-700.5 "/>
<text text-anchor="middle" x="82.5" y="-688.5" font-family="Courier New" font-size="10.00"> </text>
</a>
</g>
</g>
<!-- Node3&#45;&gt;Node2 -->
<g id="edge2" class="edge"><title>Node3&#45;&gt;Node2</title>
<path fill="none" stroke="midnightblue" d="M44.2801,-673.556C24.5236,-651.326 4.5,-620.824 4.5,-588.5 4.5,-588.5 4.5,-588.5 4.5,-299.5 4.5,-269.785 20.3747,-241.121 37.6136,-218.755"/>
<polygon fill="none" stroke="midnightblue" points="41.8642,-676.098 51.2238,-681.063 47.003,-671.345 41.8642,-676.098"/>
</g>
<!-- Node4 -->
<g id="node4" class="node"><title>Node4</title>
<g id="a_node4"><a xlink:href="../../d5/d84/class_c2_m2_1_1_interaction_1_1_v_r_1_1_v_r_raycastable.html" target="_top" xlink:title=" ">
<polygon fill="white" stroke="black" points="71,-531.5 71,-643.5 286,-643.5 286,-531.5 71,-531.5"/>
<text text-anchor="middle" x="178.5" y="-631.5" font-family="Courier New" font-size="10.00">C2M2.Interaction.VR.VRRaycastable</text>
<polyline fill="none" stroke="black" points="71,-624.5 286,-624.5 "/>
<text text-anchor="start" x="79" y="-612.5" font-family="Courier New" font-size="10.00">+ raycastTargetObject</text>
<text text-anchor="start" x="79" y="-601.5" font-family="Courier New" font-size="10.00">+ ColliderMesh</text>
<text text-anchor="start" x="79" y="-590.5" font-family="Courier New" font-size="10.00">&#45; colliderMesh</text>
<polyline fill="none" stroke="black" points="71,-583.5 286,-583.5 "/>
<text text-anchor="start" x="79" y="-571.5" font-family="Courier New" font-size="10.00">&#45; Awake()</text>
<text text-anchor="start" x="79" y="-560.5" font-family="Courier New" font-size="10.00">&#45; BuildChildObject()</text>
<text text-anchor="start" x="79" y="-549.5" font-family="Courier New" font-size="10.00">&#45; BuildRigidBody()</text>
<text text-anchor="start" x="79" y="-538.5" font-family="Courier New" font-size="10.00">&#45; BuildMeshCollider()</text>
</a>
</g>
</g>
<!-- Node3&#45;&gt;Node4 -->
<g id="edge4" class="edge"><title>Node3&#45;&gt;Node4</title>
<path fill="none" stroke="midnightblue" d="M110.863,-673.399C118.326,-664.03 126.555,-653.701 134.627,-643.569"/>
<polygon fill="none" stroke="midnightblue" points="108.018,-671.353 104.524,-681.355 113.493,-675.714 108.018,-671.353"/>
</g>
<!-- Node5 -->
<g id="node5" class="node"><title>Node5</title>
<g id="a_node5"><a xlink:href="../../dc/daa/class_c2_m2_1_1_simulation_1_1_interactable.html" target="_top" xlink:title="Interface for interaction scripts">
<polygon fill="white" stroke="black" points="109,-266.5 109,-334.5 294,-334.5 294,-266.5 109,-266.5"/>
<text text-anchor="middle" x="201.5" y="-322.5" font-family="Courier New" font-size="10.00">C2M2.Simulation.Interactable</text>
<polyline fill="none" stroke="black" points="109,-315.5 294,-315.5 "/>
<text text-anchor="start" x="117" y="-303.5" font-family="Courier New" font-size="10.00">+ interactionType</text>
<text text-anchor="start" x="117" y="-292.5" font-family="Courier New" font-size="10.00">+ SimHeater</text>
<polyline fill="none" stroke="black" points="109,-285.5 294,-285.5 "/>
<text text-anchor="start" x="117" y="-273.5" font-family="Courier New" font-size="10.00">+ SetValues()</text>
</a>
</g>
</g>
<!-- Node3&#45;&gt;Node5 -->
<g id="edge6" class="edge"><title>Node3&#45;&gt;Node5</title>
<path fill="none" stroke="midnightblue" d="M68.2205,-671.59C65.4346,-662.677 62.9347,-653.107 61.5,-644 41.1944,-515.1 20.755,-456.287 100.5,-353 105.793,-346.145 112.249,-340.125 119.314,-334.856"/>
<polygon fill="none" stroke="midnightblue" points="64.9753,-672.923 71.4459,-681.312 71.6192,-670.719 64.9753,-672.923"/>
</g>
<!-- Node6 -->
<g id="node6" class="node"><title>Node6</title>
<g id="a_node6"><a xlink:href="../../d4/dfc/class_c2_m2_1_1_interaction_1_1_raycast_sim_heater.html" target="_top" xlink:title=" ">
<polygon fill="white" stroke="black" points="157,-382.5 157,-483.5 318,-483.5 318,-382.5 157,-382.5"/>
<text text-anchor="start" x="165" y="-471.5" font-family="Courier New" font-size="10.00">C2M2.Interaction.Raycast</text>
<text text-anchor="middle" x="237.5" y="-460.5" font-family="Courier New" font-size="10.00">SimHeater</text>
<polyline fill="none" stroke="black" points="157,-453.5 318,-453.5 "/>
<text text-anchor="middle" x="237.5" y="-441.5" font-family="Courier New" font-size="10.00"> </text>
<polyline fill="none" stroke="black" points="157,-434.5 318,-434.5 "/>
<text text-anchor="start" x="165" y="-422.5" font-family="Courier New" font-size="10.00">+ Hit()</text>
<text text-anchor="start" x="165" y="-411.5" font-family="Courier New" font-size="10.00"># OnAwake()</text>
<text text-anchor="start" x="165" y="-400.5" font-family="Courier New" font-size="10.00"># HitMethod()</text>
<text text-anchor="start" x="165" y="-389.5" font-family="Courier New" font-size="10.00">&#45; Awake()</text>
</a>
</g>
</g>
<!-- Node3&#45;&gt;Node6 -->
<g id="edge8" class="edge"><title>Node3&#45;&gt;Node6</title>
<path fill="none" stroke="midnightblue" d="M140.416,-708.931C190.211,-705.407 259.386,-691.494 294.5,-644 332.021,-593.251 315.833,-561.029 293.5,-502 291.119,-495.706 287.902,-489.567 284.207,-483.716"/>
<polygon fill="none" stroke="midnightblue" points="140.195,-705.438 130.418,-709.519 140.606,-712.426 140.195,-705.438"/>
</g>
<!-- Node4&#45;&gt;Node2 -->
<g id="edge3" class="edge"><title>Node4&#45;&gt;Node2</title>
<path fill="none" stroke="#404040" d="M157.903,-531.359C139.856,-480.93 114.268,-403.916 99.5,-335 92.1883,-300.879 87.4966,-262.031 84.6049,-231.102"/>
<polygon fill="none" stroke="#404040" points="84.5741,-230.755 80.0578,-225.133 83.51,-218.802 88.0263,-224.424 84.5741,-230.755"/>
<text text-anchor="middle" x="146" y="-356" font-family="Courier New" font-size="10.00"> #raycastable</text>
</g>
<!-- Node4&#45;&gt;Node6 -->
<g id="edge9" class="edge"><title>Node4&#45;&gt;Node6</title>
<path fill="none" stroke="#404040" d="M199.8,-531.444C204.378,-519.612 209.241,-507.041 213.9,-494.999"/>
<polygon fill="none" stroke="#404040" points="213.958,-494.849 212.393,-487.81 218.288,-483.657 219.854,-490.696 213.958,-494.849"/>
<text text-anchor="middle" x="250" y="-505" font-family="Courier New" font-size="10.00"> #raycastable</text>
</g>
<!-- Node5&#45;&gt;Node2 -->
<g id="edge5" class="edge"><title>Node5&#45;&gt;Node2</title>
<path fill="none" stroke="#404040" d="M169.392,-266.33C157.901,-254.46 144.643,-240.763 131.931,-227.631"/>
<polygon fill="none" stroke="#404040" points="131.593,-227.282 124.546,-225.753 123.247,-218.66 130.294,-220.189 131.593,-227.282"/>
<text text-anchor="middle" x="185" y="-240" font-family="Courier New" font-size="10.00"> #simulation</text>
</g>
<!-- Node5&#45;&gt;Node6 -->
<g id="edge10" class="edge"><title>Node5&#45;&gt;Node6</title>
<path fill="none" stroke="#404040" d="M248.058,-334.607C253.081,-340.16 257.462,-346.316 260.5,-353 262.992,-358.482 264.039,-364.301 264.05,-370.197"/>
<polygon fill="none" stroke="#404040" points="264.029,-370.394 267.366,-376.786 262.748,-382.325 259.412,-375.932 264.029,-370.394"/>
<text text-anchor="middle" x="301" y="-356" font-family="Courier New" font-size="10.00"> #simulation</text>
</g>
<!-- Node6&#45;&gt;Node5 -->
<g id="edge7" class="edge"><title>Node6&#45;&gt;Node5</title>
<path fill="none" stroke="#404040" d="M200.95,-382.321C197.926,-376.373 195.332,-370.203 193.5,-364 191.863,-358.456 191.242,-352.538 191.289,-346.636"/>
<polygon fill="none" stroke="#404040" points="191.289,-346.635 187.76,-340.346 192.208,-334.67 195.737,-340.959 191.289,-346.635"/>
<text text-anchor="middle" x="227" y="-356" font-family="Courier New" font-size="10.00"> &#45;simHeater</text>
</g>
</g>
</svg>
        <g id="navigator" transform="translate(0 0)" fill="#404254">
                <rect fill="#f2f5e9" fill-opacity="0.5" stroke="#606060" stroke-width=".5" x="0" y="0" width="60" height="60"/>
                <use id="zoomplus" xlink:href="#zoomPlus" x="17" y="9" onmousedown="handleZoom(evt,'in')"/>
                <use id="zoomminus" xlink:href="#zoomMin" x="42" y="9" onmousedown="handleZoom(evt,'out')"/>
                <use id="reset" xlink:href="#resetDef" x="30" y="36" onmousedown="handleReset()"/>
                <g id="arrowUp" xlink:href="#dirArrow" transform="translate(30 24)" onmousedown="handlePan(0,-1)">
                  <use xlink:href="#rim" fill="#404040">
                        <set attributeName="fill" to="#808080" begin="arrowUp.mouseover" end="arrowUp.mouseout"/>
                  </use>
                  <path fill="none" stroke="white" stroke-width="1.5" d="M0,-3.0v7 M-2.5,-0.5L0,-3.0L2.5,-0.5"/>
                </g>
                <g id="arrowRight" xlink:href="#dirArrow" transform="rotate(90) translate(36 -43)" onmousedown="handlePan(1,0)">
                  <use xlink:href="#rim" fill="#404040">
                        <set attributeName="fill" to="#808080" begin="arrowRight.mouseover" end="arrowRight.mouseout"/>
                  </use>
                  <path fill="none" stroke="white" stroke-width="1.5" d="M0,-3.0v7 M-2.5,-0.5L0,-3.0L2.5,-0.5"/>
                </g>
                <g id="arrowDown" xlink:href="#dirArrow" transform="rotate(180) translate(-30 -48)" onmousedown="handlePan(0,1)">
                  <use xlink:href="#rim" fill="#404040">
                        <set attributeName="fill" to="#808080" begin="arrowDown.mouseover" end="arrowDown.mouseout"/>
                  </use>
                  <path fill="none" stroke="white" stroke-width="1.5" d="M0,-3.0v7 M-2.5,-0.5L0,-3.0L2.5,-0.5"/>
                </g>
                <g id="arrowLeft" xlink:href="#dirArrow" transform="rotate(270) translate(-36 17)" onmousedown="handlePan(-1,0)">
                  <use xlink:href="#rim" fill="#404040">
                        <set attributeName="fill" to="#808080" begin="arrowLeft.mouseover" end="arrowLeft.mouseout"/>
                  </use>
                  <path fill="none" stroke="white" stroke-width="1.5" d="M0,-3.0v7 M-2.5,-0.5L0,-3.0L2.5,-0.5"/>
                </g>
        </g>
        <svg viewBox="0 0 15 15" width="100%" height="30px" preserveAspectRatio="xMaxYMin meet">
         <g id="arrow_out" transform="scale(0.3 0.3)">
          <a xlink:href="class_c2_m2_1_1_interaction_1_1_raycast_sim_heater_discrete__coll__graph_org.svg" target="_base">
           <rect id="button" ry="5" rx="5" y="6" x="6" height="38" width="38"
                fill="#f2f5e9" fill-opacity="0.5" stroke="#606060" stroke-width="1.0"/>
           <path id="arrow"
             d="M 11.500037,31.436501 C 11.940474,20.09759 22.043105,11.32322 32.158766,21.979434 L 37.068811,17.246167 C 37.068811,17.246167 37.088388,32 37.088388,32 L 22.160133,31.978069 C 22.160133,31.978069 26.997745,27.140456 26.997745,27.140456 C 18.528582,18.264221 13.291696,25.230495 11.500037,31.436501 z"
             style="fill:#404040;"/>
          </a>
         </g>
        </svg>
</svg>
