<?xml version="1.0" encoding="UTF-8" standalone="no"?>
<!DOCTYPE svg PUBLIC "-//W3C//DTD SVG 1.1//EN"
 "http://www.w3.org/Graphics/SVG/1.1/DTD/svg11.dtd">
<!-- Generated by graphviz version 2.38.0 (20140413.2041)
 -->
<!-- Title: C2M2.NeuronalDynamics.Interaction.NDControlButton Pages: 1 -->
<!--zoomable 1581 -->
<svg id="main" version="1.1" xmlns="http://www.w3.org/2000/svg" xmlns:xlink="http://www.w3.org/1999/xlink" xml:space="preserve" onload="init(evt)">
<style type="text/css"><![CDATA[
.edge:hover path { stroke: red; }
.edge:hover polygon { stroke: red; fill: red; }
]]></style>
<script type="text/javascript"><![CDATA[
var edges = document.getElementsByTagName('g');
if (edges && edges.length) {
  for (var i=0;i<edges.length;i++) {
    if (edges[i].id.substr(0,4)=='edge') {
      edges[i].setAttribute('class','edge');
    }
  }
}
]]></script>
        <defs>
                <circle id="rim" cx="0" cy="0" r="7"/>
                <circle id="rim2" cx="0" cy="0" r="3.5"/>
                <g id="zoomPlus">
                        <use xlink:href="#rim" fill="#404040">
                                <set attributeName="fill" to="#808080" begin="zoomplus.mouseover" end="zoomplus.mouseout"/>
                        </use>
                        <path d="M-4,0h8M0,-4v8" fill="none" stroke="white" stroke-width="1.5" pointer-events="none"/>
                </g>
                <g id="zoomMin">
                        <use xlink:href="#rim" fill="#404040">
                                <set attributeName="fill" to="#808080" begin="zoomminus.mouseover" end="zoomminus.mouseout"/>
                        </use>
                        <path d="M-4,0h8" fill="none" stroke="white" stroke-width="1.5" pointer-events="none"/>
                </g>
                <g id="dirArrow">
                        <path fill="none" stroke="white" stroke-width="1.5" d="M0,-3.0v7 M-2.5,-0.5L0,-3.0L2.5,-0.5"/>
                </g>
               <g id="resetDef">
                       <use xlink:href="#rim2" fill="#404040">
                               <set attributeName="fill" to="#808080" begin="reset.mouseover" end="reset.mouseout"/>
                       </use>
               </g>
        </defs>

<script type="text/javascript">
var viewWidth = 1304;
var viewHeight = 1581;
var sectionId = 'dynsection-1';
</script>
<script xlink:href="../../svgpan.js"/>
<svg id="graph" class="graph">
<g id="viewport">
<title>C2M2.NeuronalDynamics.Interaction.NDControlButton</title>
<polygon fill="white" stroke="none" points="-4,4 -4,-1577 1299.92,-1577 1299.92,4 -4,4"/>
<!-- Node1 -->
<g id="node1" class="node"><title>Node1</title>
<g id="a_node1"><a xlink:title=" ">
<polygon fill="#bfbfbf" stroke="black" points="48.9218,-0.5 48.9218,-68.5 269.922,-68.5 269.922,-0.5 48.9218,-0.5"/>
<text text-anchor="start" x="56.9218" y="-56.5" font-family="Courier New" font-size="10.00">C2M2.NeuronalDynamics.Interaction.</text>
<text text-anchor="middle" x="159.422" y="-45.5" font-family="Courier New" font-size="10.00">NDControlButton</text>
<polyline fill="none" stroke="black" points="48.9218,-38.5 269.922,-38.5 "/>
<text text-anchor="middle" x="159.422" y="-26.5" font-family="Courier New" font-size="10.00"> </text>
<polyline fill="none" stroke="black" points="48.9218,-19.5 269.922,-19.5 "/>
<text text-anchor="middle" x="159.422" y="-7.5" font-family="Courier New" font-size="10.00"> </text>
</a>
</g>
</g>
<!-- Node2 -->
<g id="node2" class="node"><title>Node2</title>
<g id="a_node2"><a xlink:title=" ">
<polygon fill="white" stroke="#bfbfbf" points="545.922,-1361 545.922,-1418 640.922,-1418 640.922,-1361 545.922,-1361"/>
<text text-anchor="middle" x="593.422" y="-1406" font-family="Courier New" font-size="10.00">MonoBehaviour</text>
<polyline fill="none" stroke="#bfbfbf" points="545.922,-1399 640.922,-1399 "/>
<text text-anchor="middle" x="593.422" y="-1387" font-family="Courier New" font-size="10.00"> </text>
<polyline fill="none" stroke="#bfbfbf" points="545.922,-1380 640.922,-1380 "/>
<text text-anchor="middle" x="593.422" y="-1368" font-family="Courier New" font-size="10.00"> </text>
</a>
</g>
</g>
<!-- Node2&#45;&gt;Node1 -->
<g id="edge1" class="edge"><title>Node2&#45;&gt;Node1</title>
<path fill="none" stroke="midnightblue" d="M535.389,-1385.24C405.189,-1376.65 95.8381,-1348.79 27.4218,-1275 -19.6164,-1224.27 8.42177,-1189.68 8.42177,-1120.5 8.42177,-1120.5 8.42177,-1120.5 8.42177,-358.5 8.42177,-243.363 88.1336,-125.025 131.726,-68.9175"/>
<polygon fill="none" stroke="midnightblue" points="535.36,-1388.74 545.564,-1385.89 535.81,-1381.76 535.36,-1388.74"/>
</g>
<!-- Node6 -->
<g id="node6" class="node"><title>Node6</title>
<g id="a_node6"><a xlink:href="../../da/d4f/class_c2_m2_1_1_visualization_1_1_l_u_t_gradient.html" target="_top" xlink:title="Create a fast and memory&#45;friendly color lookup table from a gradient">
<polygon fill="white" stroke="black" points="313.922,-1003 313.922,-1236 510.922,-1236 510.922,-1003 313.922,-1003"/>
<text text-anchor="middle" x="412.422" y="-1224" font-family="Courier New" font-size="10.00">C2M2.Visualization.LUTGradient</text>
<polyline fill="none" stroke="black" points="313.922,-1217 510.922,-1217 "/>
<text text-anchor="start" x="321.922" y="-1205" font-family="Courier New" font-size="10.00">+ extremaMethod</text>
<text text-anchor="start" x="321.922" y="-1194" font-family="Courier New" font-size="10.00">+ globalMax</text>
<text text-anchor="start" x="321.922" y="-1183" font-family="Courier New" font-size="10.00">+ globalMin</text>
<text text-anchor="start" x="321.922" y="-1172" font-family="Courier New" font-size="10.00">+ curMax</text>
<text text-anchor="start" x="321.922" y="-1161" font-family="Courier New" font-size="10.00">+ curMix</text>
<text text-anchor="start" x="321.922" y="-1150" font-family="Courier New" font-size="10.00">+ LutRes</text>
<text text-anchor="start" x="321.922" y="-1139" font-family="Courier New" font-size="10.00">+ Gradient</text>
<text text-anchor="start" x="321.922" y="-1128" font-family="Courier New" font-size="10.00">+ gradientLUT</text>
<text text-anchor="start" x="321.922" y="-1117" font-family="Courier New" font-size="10.00">+ oldMin</text>
<text text-anchor="start" x="321.922" y="-1106" font-family="Courier New" font-size="10.00">+ oldMax</text>
<text text-anchor="start" x="321.922" y="-1095" font-family="Courier New" font-size="10.00">&#45; lutRes</text>
<text text-anchor="start" x="321.922" y="-1084" font-family="Courier New" font-size="10.00">&#45; gradient</text>
<polyline fill="none" stroke="black" points="313.922,-1077 510.922,-1077 "/>
<text text-anchor="start" x="321.922" y="-1065" font-family="Courier New" font-size="10.00">+ Evaluate()</text>
<text text-anchor="start" x="321.922" y="-1054" font-family="Courier New" font-size="10.00">+ Evaluate()</text>
<text text-anchor="start" x="321.922" y="-1043" font-family="Courier New" font-size="10.00">+ EvaluateUnscaled()</text>
<text text-anchor="start" x="321.922" y="-1032" font-family="Courier New" font-size="10.00">+ GetMinMax()</text>
<text text-anchor="start" x="321.922" y="-1021" font-family="Courier New" font-size="10.00">&#45; BuildLUT()</text>
<text text-anchor="start" x="321.922" y="-1010" font-family="Courier New" font-size="10.00">&#45; RescaleArray()</text>
</a>
</g>
</g>
<!-- Node2&#45;&gt;Node6 -->
<g id="edge6" class="edge"><title>Node2&#45;&gt;Node6</title>
<path fill="none" stroke="midnightblue" d="M569.035,-1352.39C548.8,-1322.43 518.86,-1278.1 490.562,-1236.2"/>
<polygon fill="none" stroke="midnightblue" points="566.236,-1354.5 574.733,-1360.83 572.037,-1350.58 566.236,-1354.5"/>
</g>
<!-- Node16 -->
<g id="node16" class="node"><title>Node16</title>
<g id="a_node16"><a xlink:href="../../d5/df9/class_c2_m2_1_1_interaction_1_1_raycast_event_manager.html" target="_top" xlink:title="Attach this script to parent gameObject, create one child with one raycast trigger per child....">
<polygon fill="white" stroke="black" points="883.922,-661.5 883.922,-894.5 1044.92,-894.5 1044.92,-661.5 883.922,-661.5"/>
<text text-anchor="start" x="891.922" y="-882.5" font-family="Courier New" font-size="10.00">C2M2.Interaction.Raycast</text>
<text text-anchor="middle" x="964.422" y="-871.5" font-family="Courier New" font-size="10.00">EventManager</text>
<polyline fill="none" stroke="black" points="883.922,-864.5 1044.92,-864.5 "/>
<text text-anchor="middle" x="964.422" y="-852.5" font-family="Courier New" font-size="10.00"> </text>
<polyline fill="none" stroke="black" points="883.922,-845.5 1044.92,-845.5 "/>
<text text-anchor="start" x="891.922" y="-833.5" font-family="Courier New" font-size="10.00">+ TriggerChangeRight()</text>
<text text-anchor="start" x="891.922" y="-822.5" font-family="Courier New" font-size="10.00">+ TriggerChangeLeft()</text>
<text text-anchor="start" x="891.922" y="-811.5" font-family="Courier New" font-size="10.00">+ TriggerChangeBoth()</text>
<text text-anchor="start" x="891.922" y="-800.5" font-family="Courier New" font-size="10.00">+ TriggerEmptyRight()</text>
<text text-anchor="start" x="891.922" y="-789.5" font-family="Courier New" font-size="10.00">+ TriggerEmptyLeft()</text>
<text text-anchor="start" x="891.922" y="-778.5" font-family="Courier New" font-size="10.00">+ TriggerEmptyBoth()</text>
<text text-anchor="start" x="891.922" y="-767.5" font-family="Courier New" font-size="10.00">+ PressEvent()</text>
<text text-anchor="start" x="891.922" y="-756.5" font-family="Courier New" font-size="10.00">+ HoldEvent()</text>
<text text-anchor="start" x="891.922" y="-745.5" font-family="Courier New" font-size="10.00">+ EndEvent()</text>
<text text-anchor="start" x="891.922" y="-734.5" font-family="Courier New" font-size="10.00">+ AllEvents()</text>
<text text-anchor="start" x="891.922" y="-723.5" font-family="Courier New" font-size="10.00">+ PressEventNull()</text>
<text text-anchor="start" x="891.922" y="-712.5" font-family="Courier New" font-size="10.00">+ HoldEventNull()</text>
<text text-anchor="start" x="891.922" y="-701.5" font-family="Courier New" font-size="10.00">+ EndEventNull()</text>
<text text-anchor="start" x="891.922" y="-690.5" font-family="Courier New" font-size="10.00">+ AllEventsNull()</text>
<text text-anchor="start" x="891.922" y="-679.5" font-family="Courier New" font-size="10.00">+ ToString()</text>
<text text-anchor="start" x="891.922" y="-668.5" font-family="Courier New" font-size="10.00">&#45; Awake()</text>
</a>
</g>
</g>
<!-- Node2&#45;&gt;Node16 -->
<g id="edge17" class="edge"><title>Node2&#45;&gt;Node16</title>
<path fill="none" stroke="midnightblue" d="M615.558,-1352.13C669.327,-1263.8 808.656,-1034.9 894.08,-894.562"/>
<polygon fill="none" stroke="midnightblue" points="612.537,-1350.37 610.327,-1360.73 618.516,-1354.01 612.537,-1350.37"/>
</g>
<!-- Node17 -->
<g id="node17" class="node"><title>Node17</title>
<g id="a_node17"><a xlink:href="../../d8/d68/class_c2_m2_1_1_interaction_1_1_raycast_press_events.html" target="_top" xlink:title="Store custom events that the corresponding RaycastTriggerManager will invoke">
<polygon fill="white" stroke="black" points="861.922,-1063.5 861.922,-1175.5 1022.92,-1175.5 1022.92,-1063.5 861.922,-1063.5"/>
<text text-anchor="start" x="869.922" y="-1163.5" font-family="Courier New" font-size="10.00">C2M2.Interaction.Raycast</text>
<text text-anchor="middle" x="942.422" y="-1152.5" font-family="Courier New" font-size="10.00">PressEvents</text>
<polyline fill="none" stroke="black" points="861.922,-1145.5 1022.92,-1145.5 "/>
<text text-anchor="start" x="869.922" y="-1133.5" font-family="Courier New" font-size="10.00">+ OnPress</text>
<text text-anchor="start" x="869.922" y="-1122.5" font-family="Courier New" font-size="10.00">+ OnHoldPress</text>
<text text-anchor="start" x="869.922" y="-1111.5" font-family="Courier New" font-size="10.00">+ OnEndPress</text>
<polyline fill="none" stroke="black" points="861.922,-1104.5 1022.92,-1104.5 "/>
<text text-anchor="start" x="869.922" y="-1092.5" font-family="Courier New" font-size="10.00">+ Press()</text>
<text text-anchor="start" x="869.922" y="-1081.5" font-family="Courier New" font-size="10.00">+ HoldPress()</text>
<text text-anchor="start" x="869.922" y="-1070.5" font-family="Courier New" font-size="10.00">+ EndPress()</text>
</a>
</g>
</g>
<!-- Node2&#45;&gt;Node17 -->
<g id="edge20" class="edge"><title>Node2&#45;&gt;Node17</title>
<path fill="none" stroke="midnightblue" d="M651.211,-1386.88C704.77,-1382.57 784.004,-1368.72 837.422,-1326 884.981,-1287.96 913.08,-1222.65 928.062,-1175.86"/>
<polygon fill="none" stroke="midnightblue" points="650.913,-1383.39 641.189,-1387.6 651.414,-1390.37 650.913,-1383.39"/>
</g>
<!-- Node3 -->
<g id="node3" class="node"><title>Node3</title>
<g id="a_node3"><a xlink:href="../../d7/d92/class_c2_m2_1_1_neuronal_dynamics_1_1_simulation_1_1_n_d_simulation.html" target="_top" xlink:title="Provide an interface for 1D neuron&#45;surface simulations to be visualized and interacted with">
<polygon fill="white" stroke="black" points="467.922,-116.5 467.922,-602.5 694.922,-602.5 694.922,-116.5 467.922,-116.5"/>
<text text-anchor="start" x="475.922" y="-590.5" font-family="Courier New" font-size="10.00">C2M2.NeuronalDynamics.Simulation.</text>
<text text-anchor="middle" x="581.422" y="-579.5" font-family="Courier New" font-size="10.00">NDSimulation</text>
<polyline fill="none" stroke="black" points="467.922,-572.5 694.922,-572.5 "/>
<text text-anchor="start" x="475.922" y="-560.5" font-family="Courier New" font-size="10.00">+ visualize1D</text>
<text text-anchor="start" x="475.922" y="-549.5" font-family="Courier New" font-size="10.00">+ color1D</text>
<text text-anchor="start" x="475.922" y="-538.5" font-family="Courier New" font-size="10.00">+ lineWidth1D</text>
<text text-anchor="start" x="475.922" y="-527.5" font-family="Courier New" font-size="10.00">+ vrnFileName</text>
<text text-anchor="start" x="475.922" y="-516.5" font-family="Courier New" font-size="10.00">+ hitValue</text>
<text text-anchor="start" x="475.922" y="-505.5" font-family="Courier New" font-size="10.00">+ clamps</text>
<text text-anchor="start" x="475.922" y="-494.5" font-family="Courier New" font-size="10.00">+ VisualInflation</text>
<text text-anchor="start" x="475.922" y="-483.5" font-family="Courier New" font-size="10.00">+ ColliderInflation</text>
<text text-anchor="start" x="475.922" y="-472.5" font-family="Courier New" font-size="10.00">+ RefinementLevel</text>
<text text-anchor="start" x="475.922" y="-461.5" font-family="Courier New" font-size="10.00">+ ClampMode</text>
<text text-anchor="start" x="475.922" y="-450.5" font-family="Courier New" font-size="10.00">+ VrnReader</text>
<text text-anchor="start" x="475.922" y="-439.5" font-family="Courier New" font-size="10.00">+ Grid1D</text>
<text text-anchor="start" x="475.922" y="-428.5" font-family="Courier New" font-size="10.00">+ Verts1D</text>
<text text-anchor="start" x="475.922" y="-417.5" font-family="Courier New" font-size="10.00">+ Grid2D</text>
<text text-anchor="start" x="475.922" y="-406.5" font-family="Courier New" font-size="10.00">+ NeuronCell</text>
<text text-anchor="start" x="475.922" y="-395.5" font-family="Courier New" font-size="10.00">+ AverageDendriteRadius</text>
<text text-anchor="start" x="475.922" y="-384.5" font-family="Courier New" font-size="10.00">+ Map</text>
<text text-anchor="start" x="475.922" y="-373.5" font-family="Courier New" font-size="10.00">+ Mapping</text>
<text text-anchor="start" x="475.922" y="-362.5" font-family="Courier New" font-size="10.00">+ Scalars3D</text>
<text text-anchor="start" x="475.922" y="-351.5" font-family="Courier New" font-size="10.00">&#45; visualInflation</text>
<text text-anchor="start" x="475.922" y="-340.5" font-family="Courier New" font-size="10.00">&#45; colliderInflation</text>
<text text-anchor="start" x="475.922" y="-329.5" font-family="Courier New" font-size="10.00">&#45; refinementLevel</text>
<text text-anchor="start" x="475.922" y="-318.5" font-family="Courier New" font-size="10.00">&#45; meshCache</text>
<text text-anchor="start" x="475.922" y="-307.5" font-family="Courier New" font-size="10.00">&#45; clampMode</text>
<text text-anchor="start" x="475.922" y="-296.5" font-family="Courier New" font-size="10.00">&#45; averageDendriteRadius</text>
<text text-anchor="start" x="475.922" y="-285.5" font-family="Courier New" font-size="10.00">&#45; scalars3D</text>
<polyline fill="none" stroke="black" points="467.922,-278.5 694.922,-278.5 "/>
<text text-anchor="start" x="475.922" y="-266.5" font-family="Courier New" font-size="10.00">+ OnVisualInflationChangeDelegate()</text>
<text text-anchor="start" x="475.922" y="-255.5" font-family="Courier New" font-size="10.00">+ GetValues()</text>
<text text-anchor="start" x="475.922" y="-244.5" font-family="Courier New" font-size="10.00">+ SetValues()</text>
<text text-anchor="start" x="475.922" y="-233.5" font-family="Courier New" font-size="10.00">+ SetValues()</text>
<text text-anchor="start" x="475.922" y="-222.5" font-family="Courier New" font-size="10.00">+ Set1DValues()</text>
<text text-anchor="start" x="475.922" y="-211.5" font-family="Courier New" font-size="10.00">+ Get1DValues()</text>
<text text-anchor="start" x="475.922" y="-200.5" font-family="Courier New" font-size="10.00">+ SwitchColliderMesh()</text>
<text text-anchor="start" x="475.922" y="-189.5" font-family="Courier New" font-size="10.00">+ SwitchMesh()</text>
<text text-anchor="start" x="475.922" y="-178.5" font-family="Courier New" font-size="10.00"># OnAwakePre()</text>
<text text-anchor="start" x="475.922" y="-167.5" font-family="Courier New" font-size="10.00"># OnStart()</text>
<text text-anchor="start" x="475.922" y="-156.5" font-family="Courier New" font-size="10.00"># BuildVisualization()</text>
<text text-anchor="start" x="475.922" y="-145.5" font-family="Courier New" font-size="10.00">&#45; CheckMeshCache()</text>
<text text-anchor="start" x="475.922" y="-134.5" font-family="Courier New" font-size="10.00">&#45; UpdateGrid1D()</text>
<text text-anchor="start" x="475.922" y="-123.5" font-family="Courier New" font-size="10.00">&#45; Update2DGrid()</text>
</a>
</g>
</g>
<!-- Node3&#45;&gt;Node1 -->
<g id="edge2" class="edge"><title>Node3&#45;&gt;Node1</title>
<path fill="none" stroke="#404040" d="M467.778,-271.517C384.821,-208.021 276.148,-124.843 212.439,-76.0794"/>
<polygon fill="none" stroke="#404040" points="212.14,-75.8506 204.944,-75.3801 202.611,-68.557 209.807,-69.0274 212.14,-75.8506"/>
<text text-anchor="middle" x="282.922" y="-90" font-family="Courier New" font-size="10.00"> +ndSimulation</text>
</g>
<!-- Node4 -->
<g id="node4" class="node"><title>Node4</title>
<g id="a_node4"><a xlink:href="../../d6/d2d/class_c2_m2_1_1_simulation_1_1_mesh_simulation.html" target="_top" xlink:title="Simulation of type double[] for visualizing scalar fields on mesh surfaces">
<polygon fill="white" stroke="black" points="36.9218,-689 36.9218,-867 191.922,-867 191.922,-689 36.9218,-689"/>
<text text-anchor="middle" x="114.422" y="-855" font-family="Courier New" font-size="10.00">MeshSimulation</text>
<polyline fill="none" stroke="black" points="36.9218,-848 191.922,-848 "/>
<text text-anchor="start" x="44.9218" y="-836" font-family="Courier New" font-size="10.00">+ gradient</text>
<text text-anchor="start" x="44.9218" y="-825" font-family="Courier New" font-size="10.00">+ globalMax</text>
<text text-anchor="start" x="44.9218" y="-814" font-family="Courier New" font-size="10.00">+ globalMin</text>
<text text-anchor="start" x="44.9218" y="-803" font-family="Courier New" font-size="10.00">+ colorLUT</text>
<text text-anchor="start" x="44.9218" y="-792" font-family="Courier New" font-size="10.00">+ VisualMesh</text>
<text text-anchor="start" x="44.9218" y="-781" font-family="Courier New" font-size="10.00">+ ColliderMesh</text>
<text text-anchor="start" x="44.9218" y="-770" font-family="Courier New" font-size="10.00">&#45; visualMesh</text>
<text text-anchor="start" x="44.9218" y="-759" font-family="Courier New" font-size="10.00">&#45; colliderMesh</text>
<text text-anchor="start" x="44.9218" y="-748" font-family="Courier New" font-size="10.00">&#45; mf</text>
<text text-anchor="start" x="44.9218" y="-737" font-family="Courier New" font-size="10.00">&#45; mr</text>
<polyline fill="none" stroke="black" points="36.9218,-730 191.922,-730 "/>
<text text-anchor="start" x="44.9218" y="-718" font-family="Courier New" font-size="10.00"># UpdateVisualization()</text>
<text text-anchor="start" x="44.9218" y="-707" font-family="Courier New" font-size="10.00"># OnAwakePost()</text>
<text text-anchor="start" x="44.9218" y="-696" font-family="Courier New" font-size="10.00">&#45; UpdateVisualization()</text>
</a>
</g>
</g>
<!-- Node4&#45;&gt;Node3 -->
<g id="edge3" class="edge"><title>Node4&#45;&gt;Node3</title>
<path fill="none" stroke="midnightblue" d="M182.628,-680.691C188.436,-673.847 194.398,-667.206 200.422,-661 282.418,-576.518 388.431,-494.723 467.804,-437.857"/>
<polygon fill="none" stroke="midnightblue" points="179.585,-678.878 175.887,-688.807 184.969,-683.351 179.585,-678.878"/>
</g>
<!-- Node5 -->
<g id="node5" class="node"><title>Node5</title>
<g id="a_node5"><a xlink:href="../../db/d39/class_c2_m2_1_1_simulation_1_1_simulation.html" target="_top" xlink:title=" ">
<polygon fill="white" stroke="black" points="36.9218,-964.5 36.9218,-1274.5 221.922,-1274.5 221.922,-964.5 36.9218,-964.5"/>
<text text-anchor="start" x="44.9218" y="-1262.5" font-family="Courier New" font-size="10.00">Simulation&lt; double</text>
<text text-anchor="start" x="44.9218" y="-1251.5" font-family="Courier New" font-size="10.00">[], Mesh, VRRaycastableMesh,</text>
<text text-anchor="middle" x="129.422" y="-1240.5" font-family="Courier New" font-size="10.00"> VRGrabbableMesh &gt;</text>
<polyline fill="none" stroke="black" points="36.9218,-1233.5 221.922,-1233.5 "/>
<text text-anchor="start" x="44.9218" y="-1221.5" font-family="Courier New" font-size="10.00">+ dryRun</text>
<text text-anchor="start" x="44.9218" y="-1210.5" font-family="Courier New" font-size="10.00">+ startOnAwake</text>
<text text-anchor="start" x="44.9218" y="-1199.5" font-family="Courier New" font-size="10.00">+ viz</text>
<text text-anchor="start" x="44.9218" y="-1188.5" font-family="Courier New" font-size="10.00"># mutex</text>
<text text-anchor="start" x="44.9218" y="-1177.5" font-family="Courier New" font-size="10.00">&#45; solveThread</text>
<polyline fill="none" stroke="black" points="36.9218,-1170.5 221.922,-1170.5 "/>
<text text-anchor="start" x="44.9218" y="-1158.5" font-family="Courier New" font-size="10.00">+ GetValues()</text>
<text text-anchor="start" x="44.9218" y="-1147.5" font-family="Courier New" font-size="10.00">+ Awake()</text>
<text text-anchor="start" x="44.9218" y="-1136.5" font-family="Courier New" font-size="10.00">+ Start()</text>
<text text-anchor="start" x="44.9218" y="-1125.5" font-family="Courier New" font-size="10.00">+ Update()</text>
<text text-anchor="start" x="44.9218" y="-1114.5" font-family="Courier New" font-size="10.00">+ StartSimulation()</text>
<text text-anchor="start" x="44.9218" y="-1103.5" font-family="Courier New" font-size="10.00">+ StopSimulation()</text>
<text text-anchor="start" x="44.9218" y="-1092.5" font-family="Courier New" font-size="10.00"># BuildVisualization()</text>
<text text-anchor="start" x="44.9218" y="-1081.5" font-family="Courier New" font-size="10.00"># UpdateVisualization()</text>
<text text-anchor="start" x="44.9218" y="-1070.5" font-family="Courier New" font-size="10.00"># Solve()</text>
<text text-anchor="start" x="44.9218" y="-1059.5" font-family="Courier New" font-size="10.00"># PreSolve()</text>
<text text-anchor="start" x="44.9218" y="-1048.5" font-family="Courier New" font-size="10.00"># OnAwakePre()</text>
<text text-anchor="start" x="44.9218" y="-1037.5" font-family="Courier New" font-size="10.00"># OnAwakePost()</text>
<text text-anchor="start" x="44.9218" y="-1026.5" font-family="Courier New" font-size="10.00"># OnStart()</text>
<text text-anchor="start" x="44.9218" y="-1015.5" font-family="Courier New" font-size="10.00"># OnUpdate()</text>
<text text-anchor="start" x="44.9218" y="-1004.5" font-family="Courier New" font-size="10.00"># OnPause()</text>
<text text-anchor="start" x="44.9218" y="-993.5" font-family="Courier New" font-size="10.00"># OnQuit()</text>
<text text-anchor="start" x="44.9218" y="-982.5" font-family="Courier New" font-size="10.00">&#45; OnApplicationPause()</text>
<text text-anchor="start" x="44.9218" y="-971.5" font-family="Courier New" font-size="10.00">&#45; OnApplicationQuit()</text>
</a>
</g>
</g>
<!-- Node5&#45;&gt;Node4 -->
<g id="edge4" class="edge"><title>Node5&#45;&gt;Node4</title>
<path fill="none" stroke="midnightblue" d="M122.153,-953.988C120.828,-923.99 119.493,-893.773 118.314,-867.09"/>
<polygon fill="none" stroke="midnightblue" points="118.664,-954.312 122.602,-964.148 125.657,-954.003 118.664,-954.312"/>
</g>
<!-- Node6&#45;&gt;Node4 -->
<g id="edge5" class="edge"><title>Node6&#45;&gt;Node4</title>
<path fill="none" stroke="#404040" d="M313.721,-1019.63C277.082,-981.606 235.845,-937.186 200.422,-895 195.555,-889.204 190.64,-883.162 185.757,-877.013"/>
<polygon fill="none" stroke="#404040" points="185.528,-876.721 178.677,-874.471 178.119,-867.281 184.97,-869.532 185.528,-876.721"/>
<text text-anchor="middle" x="290.922" y="-927" font-family="Courier New" font-size="10.00"> +extremaMethod</text>
</g>
<!-- Node7 -->
<g id="node7" class="node"><title>Node7</title>
<g id="a_node7"><a xlink:href="../../da/df6/class_c2_m2_1_1_neuronal_dynamics_1_1_u_g_x_1_1_neuron_cell.html" target="_top" xlink:title=" ">
<polygon fill="white" stroke="black" points="209.922,-683.5 209.922,-872.5 382.922,-872.5 382.922,-683.5 209.922,-683.5"/>
<text text-anchor="start" x="217.922" y="-860.5" font-family="Courier New" font-size="10.00">C2M2.NeuronalDynamics.UGX.</text>
<text text-anchor="middle" x="296.422" y="-849.5" font-family="Courier New" font-size="10.00">NeuronCell</text>
<polyline fill="none" stroke="black" points="209.922,-842.5 382.922,-842.5 "/>
<text text-anchor="start" x="217.922" y="-830.5" font-family="Courier New" font-size="10.00">+ nodeData</text>
<text text-anchor="start" x="217.922" y="-819.5" font-family="Courier New" font-size="10.00">+ edges</text>
<text text-anchor="start" x="217.922" y="-808.5" font-family="Courier New" font-size="10.00">+ edgeLengths</text>
<text text-anchor="start" x="217.922" y="-797.5" font-family="Courier New" font-size="10.00">+ boundaryID</text>
<text text-anchor="start" x="217.922" y="-786.5" font-family="Courier New" font-size="10.00">+ somaID</text>
<text text-anchor="start" x="217.922" y="-775.5" font-family="Courier New" font-size="10.00">+ vertCount</text>
<text text-anchor="start" x="217.922" y="-764.5" font-family="Courier New" font-size="10.00">+ edgeCount</text>
<polyline fill="none" stroke="black" points="209.922,-757.5 382.922,-757.5 "/>
<text text-anchor="start" x="217.922" y="-745.5" font-family="Courier New" font-size="10.00">+ NeuronCell()</text>
<text text-anchor="start" x="217.922" y="-734.5" font-family="Courier New" font-size="10.00">+ NodeToString()</text>
<text text-anchor="start" x="217.922" y="-723.5" font-family="Courier New" font-size="10.00">+ EdgeToString()</text>
<text text-anchor="start" x="217.922" y="-712.5" font-family="Courier New" font-size="10.00">+ ToString()</text>
<text text-anchor="start" x="217.922" y="-701.5" font-family="Courier New" font-size="10.00">&#45; NodeNeighborsToString()</text>
<text text-anchor="start" x="217.922" y="-690.5" font-family="Courier New" font-size="10.00">&#45; GetEdgeLength()</text>
</a>
</g>
</g>
<!-- Node7&#45;&gt;Node3 -->
<g id="edge7" class="edge"><title>Node7&#45;&gt;Node3</title>
<path fill="none" stroke="#404040" d="M360.559,-683.27C390.182,-639.978 426.362,-587.104 460.797,-536.781"/>
<polygon fill="none" stroke="#404040" points="460.882,-536.658 460.969,-529.447 467.658,-526.754 467.571,-533.965 460.882,-536.658"/>
<text text-anchor="middle" x="433.922" y="-629.5" font-family="Courier New" font-size="10.00"> &#45;neuronCell</text>
</g>
<!-- Node8 -->
<g id="node8" class="node"><title>Node8</title>
<g id="a_node8"><a xlink:title=" ">
<polygon fill="white" stroke="#bfbfbf" points="565.922,-1091 565.922,-1148 618.922,-1148 618.922,-1091 565.922,-1091"/>
<text text-anchor="middle" x="592.422" y="-1136" font-family="Courier New" font-size="10.00">static</text>
<polyline fill="none" stroke="#bfbfbf" points="565.922,-1129 618.922,-1129 "/>
<text text-anchor="middle" x="592.422" y="-1117" font-family="Courier New" font-size="10.00"> </text>
<polyline fill="none" stroke="#bfbfbf" points="565.922,-1110 618.922,-1110 "/>
<text text-anchor="middle" x="592.422" y="-1098" font-family="Courier New" font-size="10.00"> </text>
</a>
</g>
</g>
<!-- Node8&#45;&gt;Node7 -->
<g id="edge8" class="edge"><title>Node8&#45;&gt;Node7</title>
<path fill="none" stroke="#404040" d="M585.168,-1090.89C575.174,-1057.38 554.33,-1000.81 519.422,-964 474.95,-917.106 441.286,-936.113 391.422,-895 386.275,-890.757 381.207,-886.2 376.253,-881.437"/>
<polygon fill="none" stroke="#404040" points="375.957,-881.141 368.886,-879.731 367.468,-872.66 374.539,-874.071 375.957,-881.141"/>
<text text-anchor="middle" x="550.922" y="-938" font-family="Courier New" font-size="10.00"> &#45;nodeFormatString</text>
<text text-anchor="middle" x="550.922" y="-927" font-family="Courier New" font-size="10.00">&#45;edgeFormatString</text>
<text text-anchor="middle" x="550.922" y="-916" font-family="Courier New" font-size="10.00">&#45;cellFormatString</text>
</g>
<!-- Node8&#45;&gt;Node16 -->
<g id="edge18" class="edge"><title>Node8&#45;&gt;Node16</title>
<path fill="none" stroke="#404040" d="M605.552,-1090.68C628.645,-1045.14 681.125,-955.499 754.422,-913 798.333,-887.539 824.878,-917.968 873.133,-895.292"/>
<polygon fill="none" stroke="#404040" points="873.189,-895.262 876.597,-888.907 883.774,-889.608 880.366,-895.964 873.189,-895.262"/>
<text text-anchor="middle" x="781.922" y="-927" font-family="Courier New" font-size="10.00"> &#45;nullHit</text>
</g>
<!-- Node9 -->
<g id="node9" class="node"><title>Node9</title>
<g id="a_node9"><a xlink:href="../../db/dbd/struct_c2_m2_1_1_neuronal_dynamics_1_1_simulation_1_1_vert3_d1_d_pair.html" target="_top" xlink:title="Stores two 1D indices and a lambda value for a 3D vertex">
<polygon fill="white" stroke="black" points="400.922,-727.5 400.922,-828.5 615.922,-828.5 615.922,-727.5 400.922,-727.5"/>
<text text-anchor="start" x="408.922" y="-816.5" font-family="Courier New" font-size="10.00">C2M2.NeuronalDynamics.Simulation.</text>
<text text-anchor="middle" x="508.422" y="-805.5" font-family="Courier New" font-size="10.00">Vert3D1DPair</text>
<polyline fill="none" stroke="black" points="400.922,-798.5 615.922,-798.5 "/>
<text text-anchor="start" x="408.922" y="-786.5" font-family="Courier New" font-size="10.00">+ v1</text>
<text text-anchor="start" x="408.922" y="-775.5" font-family="Courier New" font-size="10.00">+ v2</text>
<text text-anchor="start" x="408.922" y="-764.5" font-family="Courier New" font-size="10.00">+ lambda</text>
<polyline fill="none" stroke="black" points="400.922,-757.5 615.922,-757.5 "/>
<text text-anchor="start" x="408.922" y="-745.5" font-family="Courier New" font-size="10.00">+ Vert3D1DPair()</text>
<text text-anchor="start" x="408.922" y="-734.5" font-family="Courier New" font-size="10.00">+ ToString()</text>
</a>
</g>
</g>
<!-- Node9&#45;&gt;Node3 -->
<g id="edge9" class="edge"><title>Node9&#45;&gt;Node3</title>
<path fill="none" stroke="#404040" d="M517.155,-727.174C522.355,-697.506 529.392,-657.354 536.906,-614.481"/>
<polygon fill="none" stroke="#404040" points="536.912,-614.447 534.008,-607.846 538.984,-602.627 541.888,-609.227 536.912,-614.447"/>
<text text-anchor="middle" x="549.922" y="-629.5" font-family="Courier New" font-size="10.00"> &#45;map</text>
</g>
<!-- Node10 -->
<g id="node10" class="node"><title>Node10</title>
<g id="a_node10"><a xlink:title=" ">
<polygon fill="white" stroke="#bfbfbf" points="633.922,-749.5 633.922,-806.5 674.922,-806.5 674.922,-749.5 633.922,-749.5"/>
<text text-anchor="middle" x="654.422" y="-794.5" font-family="Courier New" font-size="10.00">C2M2</text>
<polyline fill="none" stroke="#bfbfbf" points="633.922,-787.5 674.922,-787.5 "/>
<text text-anchor="middle" x="654.422" y="-775.5" font-family="Courier New" font-size="10.00"> </text>
<polyline fill="none" stroke="#bfbfbf" points="633.922,-768.5 674.922,-768.5 "/>
<text text-anchor="middle" x="654.422" y="-756.5" font-family="Courier New" font-size="10.00"> </text>
</a>
</g>
</g>
<!-- Node10&#45;&gt;Node3 -->
<g id="edge10" class="edge"><title>Node10&#45;&gt;Node3</title>
<path fill="none" stroke="#404040" d="M649.576,-749.35C644.376,-719.686 635.563,-669.399 625.968,-614.659"/>
<polygon fill="none" stroke="#404040" points="625.916,-614.363 620.941,-609.144 623.845,-602.543 628.821,-607.763 625.916,-614.363"/>
<text text-anchor="middle" x="654.922" y="-635" font-family="Courier New" font-size="10.00"> &#45;grid1D</text>
<text text-anchor="middle" x="654.922" y="-624" font-family="Courier New" font-size="10.00">&#45;grid2D</text>
</g>
<!-- Node11 -->
<g id="node11" class="node"><title>Node11</title>
<g id="a_node11"><a xlink:href="../../dd/d2a/struct_c2_m2_1_1_neuronal_dynamics_1_1_u_g_x_1_1_mapping_info.html" target="_top" xlink:title="Encapsulates the grids and mapping data">
<polygon fill="white" stroke="black" points="692.922,-733 692.922,-823 865.922,-823 865.922,-733 692.922,-733"/>
<text text-anchor="start" x="700.922" y="-811" font-family="Courier New" font-size="10.00">C2M2.NeuronalDynamics.UGX.</text>
<text text-anchor="middle" x="779.422" y="-800" font-family="Courier New" font-size="10.00">MappingInfo</text>
<polyline fill="none" stroke="black" points="692.922,-793 865.922,-793 "/>
<text text-anchor="start" x="700.922" y="-781" font-family="Courier New" font-size="10.00">+ ModelGeometry</text>
<text text-anchor="start" x="700.922" y="-770" font-family="Courier New" font-size="10.00">+ SurfaceGeometry</text>
<text text-anchor="start" x="700.922" y="-759" font-family="Courier New" font-size="10.00">+ Data</text>
<polyline fill="none" stroke="black" points="692.922,-752 865.922,-752 "/>
<text text-anchor="start" x="700.922" y="-740" font-family="Courier New" font-size="10.00">+ MappingInfo()</text>
</a>
</g>
</g>
<!-- Node11&#45;&gt;Node3 -->
<g id="edge11" class="edge"><title>Node11&#45;&gt;Node3</title>
<path fill="none" stroke="#404040" d="M758.42,-732.822C743.692,-701.842 722.694,-657.67 700.279,-610.519"/>
<polygon fill="none" stroke="#404040" points="700.169,-610.289 693.981,-606.588 695.017,-599.452 701.206,-603.153 700.169,-610.289"/>
<text text-anchor="middle" x="741.922" y="-629.5" font-family="Courier New" font-size="10.00"> &#45;mapping</text>
</g>
<!-- Node12 -->
<g id="node12" class="node"><title>Node12</title>
<g id="a_node12"><a xlink:href="../../d1/d08/class_c2_m2_1_1_neuronal_dynamics_1_1_visualization_1_1_v_r_n_1_1_vrn_reader.html" target="_top" xlink:title=" ">
<polygon fill="white" stroke="black" points="1062.92,-716.5 1062.92,-839.5 1295.92,-839.5 1295.92,-716.5 1062.92,-716.5"/>
<text text-anchor="start" x="1070.92" y="-827.5" font-family="Courier New" font-size="10.00">C2M2.NeuronalDynamics.Visualization.</text>
<text text-anchor="middle" x="1179.42" y="-816.5" font-family="Courier New" font-size="10.00">VRN.VrnReader</text>
<polyline fill="none" stroke="black" points="1062.92,-809.5 1295.92,-809.5 "/>
<text text-anchor="start" x="1070.92" y="-797.5" font-family="Courier New" font-size="10.00">&#45; fileName</text>
<text text-anchor="start" x="1070.92" y="-786.5" font-family="Courier New" font-size="10.00">&#45; loaded</text>
<polyline fill="none" stroke="black" points="1062.92,-779.5 1295.92,-779.5 "/>
<text text-anchor="start" x="1070.92" y="-767.5" font-family="Courier New" font-size="10.00">+ List()</text>
<text text-anchor="start" x="1070.92" y="-756.5" font-family="Courier New" font-size="10.00">+ ReadUGX()</text>
<text text-anchor="start" x="1070.92" y="-745.5" font-family="Courier New" font-size="10.00">+ Retrieve1DMeshName()</text>
<text text-anchor="start" x="1070.92" y="-734.5" font-family="Courier New" font-size="10.00">+ Retrieve2DMeshName()</text>
<text text-anchor="start" x="1070.92" y="-723.5" font-family="Courier New" font-size="10.00">+ VrnReader()</text>
</a>
</g>
</g>
<!-- Node12&#45;&gt;Node3 -->
<g id="edge12" class="edge"><title>Node12&#45;&gt;Node3</title>
<path fill="none" stroke="#404040" d="M1118.44,-716.257C1098.68,-697.724 1076.22,-677.817 1054.42,-661 941.817,-574.143 803.593,-488.503 705.718,-431.008"/>
<polygon fill="none" stroke="#404040" points="705.537,-430.902 698.338,-431.321 695.183,-424.836 702.382,-424.418 705.537,-430.902"/>
<text text-anchor="middle" x="1062.92" y="-629.5" font-family="Courier New" font-size="10.00"> &#45;vrnReader</text>
</g>
<!-- Node13 -->
<g id="node13" class="node"><title>Node13</title>
<g id="a_node13"><a xlink:href="../../d9/d5c/class_c2_m2_1_1_neuronal_dynamics_1_1_visualization_1_1_v_r_n_1_1_vrn_reader_1_1_geometry.html" target="_top" xlink:title="Stores 1D and associated 2D geometries in the member geom1d">
<polygon fill="white" stroke="black" points="1062.92,-1085.5 1062.92,-1153.5 1295.92,-1153.5 1295.92,-1085.5 1062.92,-1085.5"/>
<text text-anchor="start" x="1070.92" y="-1141.5" font-family="Courier New" font-size="10.00">C2M2.NeuronalDynamics.Visualization.</text>
<text text-anchor="middle" x="1179.42" y="-1130.5" font-family="Courier New" font-size="10.00">VRN.VrnReader.Geometry</text>
<polyline fill="none" stroke="black" points="1062.92,-1123.5 1295.92,-1123.5 "/>
<text text-anchor="middle" x="1179.42" y="-1111.5" font-family="Courier New" font-size="10.00"> </text>
<polyline fill="none" stroke="black" points="1062.92,-1104.5 1295.92,-1104.5 "/>
<text text-anchor="start" x="1070.92" y="-1092.5" font-family="Courier New" font-size="10.00">+ Geometry()</text>
</a>
</g>
</g>
<!-- Node13&#45;&gt;Node12 -->
<g id="edge13" class="edge"><title>Node13&#45;&gt;Node12</title>
<path fill="none" stroke="#404040" d="M1179.42,-1085.33C1179.42,-1031.54 1179.42,-924.06 1179.42,-851.813"/>
<polygon fill="none" stroke="#404040" points="1179.42,-851.645 1175.42,-845.645 1179.42,-839.645 1183.42,-845.645 1179.42,-851.645"/>
<text text-anchor="middle" x="1209.92" y="-927" font-family="Courier New" font-size="10.00"> &#45;geometry</text>
</g>
<!-- Node14 -->
<g id="node14" class="node"><title>Node14</title>
<g id="a_node14"><a xlink:href="../../dd/df0/struct_c2_m2_1_1_neuronal_dynamics_1_1_visualization_1_1_v_r_n_1_1_vrn_reader_1_1_geom1d.html" target="_top" xlink:title="Stores the 1D geometries by name, refinement and a description Inflations are attached to the 1D geom...">
<polygon fill="white" stroke="black" points="1062.92,-1344.5 1062.92,-1434.5 1295.92,-1434.5 1295.92,-1344.5 1062.92,-1344.5"/>
<text text-anchor="start" x="1070.92" y="-1422.5" font-family="Courier New" font-size="10.00">C2M2.NeuronalDynamics.Visualization.</text>
<text text-anchor="middle" x="1179.42" y="-1411.5" font-family="Courier New" font-size="10.00">VRN.VrnReader.Geom1d</text>
<polyline fill="none" stroke="black" points="1062.92,-1404.5 1295.92,-1404.5 "/>
<text text-anchor="start" x="1070.92" y="-1392.5" font-family="Courier New" font-size="10.00">+ name</text>
<text text-anchor="start" x="1070.92" y="-1381.5" font-family="Courier New" font-size="10.00">+ refinement</text>
<text text-anchor="start" x="1070.92" y="-1370.5" font-family="Courier New" font-size="10.00">+ description</text>
<polyline fill="none" stroke="black" points="1062.92,-1363.5 1295.92,-1363.5 "/>
<text text-anchor="start" x="1070.92" y="-1351.5" font-family="Courier New" font-size="10.00">+ Geom1d()</text>
</a>
</g>
</g>
<!-- Node14&#45;&gt;Node13 -->
<g id="edge14" class="edge"><title>Node14&#45;&gt;Node13</title>
<path fill="none" stroke="#404040" d="M1179.42,-1344.25C1179.42,-1295.01 1179.42,-1215.86 1179.42,-1166.09"/>
<polygon fill="none" stroke="#404040" points="1179.42,-1165.8 1175.42,-1159.8 1179.42,-1153.8 1183.42,-1159.8 1179.42,-1165.8"/>
<text text-anchor="middle" x="1203.92" y="-1307" font-family="Courier New" font-size="10.00"> +geom1d</text>
</g>
<!-- Node15 -->
<g id="node15" class="node"><title>Node15</title>
<g id="a_node15"><a xlink:href="../../d8/daf/struct_c2_m2_1_1_neuronal_dynamics_1_1_visualization_1_1_v_r_n_1_1_vrn_reader_1_1_geom2d.html" target="_top" xlink:title="Stores the 2d geometries by name, inflation (factor), and description">
<polygon fill="white" stroke="black" points="1062.92,-1482.5 1062.92,-1572.5 1295.92,-1572.5 1295.92,-1482.5 1062.92,-1482.5"/>
<text text-anchor="start" x="1070.92" y="-1560.5" font-family="Courier New" font-size="10.00">C2M2.NeuronalDynamics.Visualization.</text>
<text text-anchor="middle" x="1179.42" y="-1549.5" font-family="Courier New" font-size="10.00">VRN.VrnReader.Geom2d</text>
<polyline fill="none" stroke="black" points="1062.92,-1542.5 1295.92,-1542.5 "/>
<text text-anchor="start" x="1070.92" y="-1530.5" font-family="Courier New" font-size="10.00">+ inflation</text>
<text text-anchor="start" x="1070.92" y="-1519.5" font-family="Courier New" font-size="10.00">+ name</text>
<text text-anchor="start" x="1070.92" y="-1508.5" font-family="Courier New" font-size="10.00">+ description</text>
<polyline fill="none" stroke="black" points="1062.92,-1501.5 1295.92,-1501.5 "/>
<text text-anchor="start" x="1070.92" y="-1489.5" font-family="Courier New" font-size="10.00">+ Geom2d()</text>
</a>
</g>
</g>
<!-- Node15&#45;&gt;Node14 -->
<g id="edge15" class="edge"><title>Node15&#45;&gt;Node14</title>
<path fill="none" stroke="#404040" d="M1179.42,-1482.34C1179.42,-1471.06 1179.42,-1458.78 1179.42,-1446.97"/>
<polygon fill="none" stroke="#404040" points="1179.42,-1446.9 1175.42,-1440.9 1179.42,-1434.9 1183.42,-1440.9 1179.42,-1446.9"/>
<text text-anchor="middle" x="1215.92" y="-1456" font-family="Courier New" font-size="10.00"> +inflations</text>
</g>
<!-- Node16&#45;&gt;Node3 -->
<g id="edge16" class="edge"><title>Node16&#45;&gt;Node3</title>
<path fill="none" stroke="#404040" d="M883.689,-670.691C880.926,-667.402 878.166,-664.164 875.422,-661 821.405,-598.718 757.817,-532.894 703.622,-478.779"/>
<polygon fill="none" stroke="#404040" points="703.508,-478.666 696.435,-477.265 695.007,-470.197 702.081,-471.598 703.508,-478.666"/>
<text text-anchor="middle" x="900.922" y="-629.5" font-family="Courier New" font-size="10.00"> &#45;raycastManager</text>
</g>
<!-- Node17&#45;&gt;Node16 -->
<g id="edge19" class="edge"><title>Node17&#45;&gt;Node16</title>
<path fill="none" stroke="#404040" d="M946.005,-1063.2C948.745,-1020.92 952.633,-960.927 956.131,-906.944"/>
<polygon fill="none" stroke="#404040" points="956.141,-906.784 952.538,-900.538 956.917,-894.809 960.521,-901.055 956.141,-906.784"/>
<text text-anchor="middle" x="993.922" y="-938" font-family="Courier New" font-size="10.00"> +leftTrigger</text>
<text text-anchor="middle" x="993.922" y="-927" font-family="Courier New" font-size="10.00">+rightTrigger</text>
<text text-anchor="middle" x="993.922" y="-916" font-family="Courier New" font-size="10.00">&#45;emptyTrigger</text>
</g>
<!-- Node18 -->
<g id="node18" class="node"><title>Node18</title>
<g id="a_node18"><a xlink:href="../../d2/d43/class_c2_m2_1_1_interaction_1_1_raycast_press_events_1_1_raycast_hit_event.html" target="_top" xlink:title=" ">
<polygon fill="white" stroke="black" points="852.922,-1355.5 852.922,-1423.5 1031.92,-1423.5 1031.92,-1355.5 852.922,-1355.5"/>
<text text-anchor="start" x="860.922" y="-1411.5" font-family="Courier New" font-size="10.00">C2M2.Interaction.Raycast</text>
<text text-anchor="middle" x="942.422" y="-1400.5" font-family="Courier New" font-size="10.00">PressEvents.RaycastHitEvent</text>
<polyline fill="none" stroke="black" points="852.922,-1393.5 1031.92,-1393.5 "/>
<text text-anchor="middle" x="942.422" y="-1381.5" font-family="Courier New" font-size="10.00"> </text>
<polyline fill="none" stroke="black" points="852.922,-1374.5 1031.92,-1374.5 "/>
<text text-anchor="middle" x="942.422" y="-1362.5" font-family="Courier New" font-size="10.00"> </text>
</a>
</g>
</g>
<!-- Node18&#45;&gt;Node17 -->
<g id="edge21" class="edge"><title>Node18&#45;&gt;Node17</title>
<path fill="none" stroke="#404040" d="M942.422,-1355.37C942.422,-1313.73 942.422,-1241.24 942.422,-1187.78"/>
<polygon fill="none" stroke="#404040" points="942.422,-1187.65 938.422,-1181.65 942.422,-1175.65 946.422,-1181.65 942.422,-1187.65"/>
<text text-anchor="middle" x="978.922" y="-1318" font-family="Courier New" font-size="10.00"> &#45;onPress</text>
<text text-anchor="middle" x="978.922" y="-1307" font-family="Courier New" font-size="10.00">&#45;onHoldPress</text>
<text text-anchor="middle" x="978.922" y="-1296" font-family="Courier New" font-size="10.00">&#45;onEndPress</text>
</g>
<!-- Node19 -->
<g id="node19" class="node"><title>Node19</title>
<g id="a_node19"><a xlink:title=" ">
<polygon fill="white" stroke="#bfbfbf" points="861.922,-1499 861.922,-1556 1022.92,-1556 1022.92,-1499 861.922,-1499"/>
<text text-anchor="middle" x="942.422" y="-1544" font-family="Courier New" font-size="10.00">UnityEvent&lt; RaycastHit &gt;</text>
<polyline fill="none" stroke="#bfbfbf" points="861.922,-1537 1022.92,-1537 "/>
<text text-anchor="middle" x="942.422" y="-1525" font-family="Courier New" font-size="10.00"> </text>
<polyline fill="none" stroke="#bfbfbf" points="861.922,-1518 1022.92,-1518 "/>
<text text-anchor="middle" x="942.422" y="-1506" font-family="Courier New" font-size="10.00"> </text>
</a>
</g>
</g>
<!-- Node19&#45;&gt;Node18 -->
<g id="edge22" class="edge"><title>Node19&#45;&gt;Node18</title>
<path fill="none" stroke="midnightblue" d="M942.422,-1488.78C942.422,-1468.38 942.422,-1443.41 942.422,-1423.75"/>
<polygon fill="none" stroke="midnightblue" points="938.922,-1488.98 942.422,-1498.98 945.922,-1488.98 938.922,-1488.98"/>
</g>
</g>
</svg>
        <g id="navigator" transform="translate(0 0)" fill="#404254">
                <rect fill="#f2f5e9" fill-opacity="0.5" stroke="#606060" stroke-width=".5" x="0" y="0" width="60" height="60"/>
                <use id="zoomplus" xlink:href="#zoomPlus" x="17" y="9" onmousedown="handleZoom(evt,'in')"/>
                <use id="zoomminus" xlink:href="#zoomMin" x="42" y="9" onmousedown="handleZoom(evt,'out')"/>
                <use id="reset" xlink:href="#resetDef" x="30" y="36" onmousedown="handleReset()"/>
                <g id="arrowUp" xlink:href="#dirArrow" transform="translate(30 24)" onmousedown="handlePan(0,-1)">
                  <use xlink:href="#rim" fill="#404040">
                        <set attributeName="fill" to="#808080" begin="arrowUp.mouseover" end="arrowUp.mouseout"/>
                  </use>
                  <path fill="none" stroke="white" stroke-width="1.5" d="M0,-3.0v7 M-2.5,-0.5L0,-3.0L2.5,-0.5"/>
                </g>
                <g id="arrowRight" xlink:href="#dirArrow" transform="rotate(90) translate(36 -43)" onmousedown="handlePan(1,0)">
                  <use xlink:href="#rim" fill="#404040">
                        <set attributeName="fill" to="#808080" begin="arrowRight.mouseover" end="arrowRight.mouseout"/>
                  </use>
                  <path fill="none" stroke="white" stroke-width="1.5" d="M0,-3.0v7 M-2.5,-0.5L0,-3.0L2.5,-0.5"/>
                </g>
                <g id="arrowDown" xlink:href="#dirArrow" transform="rotate(180) translate(-30 -48)" onmousedown="handlePan(0,1)">
                  <use xlink:href="#rim" fill="#404040">
                        <set attributeName="fill" to="#808080" begin="arrowDown.mouseover" end="arrowDown.mouseout"/>
                  </use>
                  <path fill="none" stroke="white" stroke-width="1.5" d="M0,-3.0v7 M-2.5,-0.5L0,-3.0L2.5,-0.5"/>
                </g>
                <g id="arrowLeft" xlink:href="#dirArrow" transform="rotate(270) translate(-36 17)" onmousedown="handlePan(-1,0)">
                  <use xlink:href="#rim" fill="#404040">
                        <set attributeName="fill" to="#808080" begin="arrowLeft.mouseover" end="arrowLeft.mouseout"/>
                  </use>
                  <path fill="none" stroke="white" stroke-width="1.5" d="M0,-3.0v7 M-2.5,-0.5L0,-3.0L2.5,-0.5"/>
                </g>
        </g>
        <svg viewBox="0 0 15 15" width="100%" height="30px" preserveAspectRatio="xMaxYMin meet">
         <g id="arrow_out" transform="scale(0.3 0.3)">
          <a xlink:href="class_c2_m2_1_1_neuronal_dynamics_1_1_interaction_1_1_n_d_control_button__coll__graph_org.svg" target="_base">
           <rect id="button" ry="5" rx="5" y="6" x="6" height="38" width="38"
                fill="#f2f5e9" fill-opacity="0.5" stroke="#606060" stroke-width="1.0"/>
           <path id="arrow"
             d="M 11.500037,31.436501 C 11.940474,20.09759 22.043105,11.32322 32.158766,21.979434 L 37.068811,17.246167 C 37.068811,17.246167 37.088388,32 37.088388,32 L 22.160133,31.978069 C 22.160133,31.978069 26.997745,27.140456 26.997745,27.140456 C 18.528582,18.264221 13.291696,25.230495 11.500037,31.436501 z"
             style="fill:#404040;"/>
          </a>
         </g>
        </svg>
</svg>
