<?xml version="1.0" encoding="UTF-8" standalone="no"?>
<!DOCTYPE svg PUBLIC "-//W3C//DTD SVG 1.1//EN"
 "http://www.w3.org/Graphics/SVG/1.1/DTD/svg11.dtd">
<!-- Generated by graphviz version 2.46.0 (20210118.1747)
 -->
<!-- Title: C2M2.NeuronalDynamics.Visualization.VTK.VTUManager Pages: 1 -->
<svg width="241pt" height="303pt"
 viewBox="0.00 0.00 241.00 303.00" xmlns="http://www.w3.org/2000/svg" xmlns:xlink="http://www.w3.org/1999/xlink">
<g id="graph0" class="graph" transform="scale(1 1) rotate(0) translate(4 299)">
<title>C2M2.NeuronalDynamics.Visualization.VTK.VTUManager</title>
<polygon fill="white" stroke="transparent" points="-4,4 -4,-299 237,-299 237,4 -4,4"/>
<!-- Node1 -->
<g id="node1" class="node">
<title>Node1</title>
<g id="a_node1"><a xlink:title=" ">
<polygon fill="#bfbfbf" stroke="black" points="0,-0.5 0,-200.5 233,-200.5 233,-0.5 0,-0.5"/>
<text text-anchor="start" x="8" y="-188.5" font-family="Courier New" font-size="10.00">C2M2.NeuronalDynamics.Visualization.</text>
<text text-anchor="middle" x="116.5" y="-177.5" font-family="Courier New" font-size="10.00">VTK.VTUManager</text>
<polyline fill="none" stroke="black" points="0,-170.5 233,-170.5 "/>
<text text-anchor="start" x="8" y="-158.5" font-family="Courier New" font-size="10.00">+ dataExtension</text>
<text text-anchor="start" x="8" y="-147.5" font-family="Courier New" font-size="10.00">+ dataPath</text>
<text text-anchor="start" x="8" y="-136.5" font-family="Courier New" font-size="10.00">+ fileProcessCount</text>
<text text-anchor="start" x="8" y="-125.5" font-family="Courier New" font-size="10.00">+ initialPosition</text>
<text text-anchor="start" x="8" y="-114.5" font-family="Courier New" font-size="10.00">+ initialRotation</text>
<text text-anchor="start" x="8" y="-103.5" font-family="Courier New" font-size="10.00">+ compoundColliderResolution</text>
<text text-anchor="start" x="8" y="-92.5" font-family="Courier New" font-size="10.00">+ adjacencyListSubdivisions</text>
<text text-anchor="start" x="8" y="-81.5" font-family="Courier New" font-size="10.00">+ VTUPlayer</text>
<text text-anchor="start" x="8" y="-70.5" font-family="Courier New" font-size="10.00">+ vtuList</text>
<text text-anchor="start" x="8" y="-59.5" font-family="Courier New" font-size="10.00">+ gradient</text>
<text text-anchor="start" x="8" y="-48.5" font-family="Courier New" font-size="10.00">&#45; vtuObjectBuilder</text>
<text text-anchor="start" x="8" y="-37.5" font-family="Courier New" font-size="10.00">&#45; meshf</text>
<polyline fill="none" stroke="black" points="0,-30.5 233,-30.5 "/>
<text text-anchor="start" x="8" y="-18.5" font-family="Courier New" font-size="10.00">+ Initialize()</text>
<text text-anchor="start" x="8" y="-7.5" font-family="Courier New" font-size="10.00">&#45; BuildVTUList()</text>
</a>
</g>
</g>
<!-- Node2 -->
<g id="node2" class="node">
<title>Node2</title>
<g id="a_node2"><a xlink:title=" ">
<polygon fill="white" stroke="#bfbfbf" points="69,-237.5 69,-294.5 164,-294.5 164,-237.5 69,-237.5"/>
<text text-anchor="middle" x="116.5" y="-282.5" font-family="Courier New" font-size="10.00">MonoBehaviour</text>
<polyline fill="none" stroke="#bfbfbf" points="69,-275.5 164,-275.5 "/>
<text text-anchor="middle" x="116.5" y="-263.5" font-family="Courier New" font-size="10.00"> </text>
<polyline fill="none" stroke="#bfbfbf" points="69,-256.5 164,-256.5 "/>
<text text-anchor="middle" x="116.5" y="-244.5" font-family="Courier New" font-size="10.00"> </text>
</a>
</g>
</g>
<!-- Node2&#45;&gt;Node1 -->
<g id="edge1" class="edge">
<title>Node2&#45;&gt;Node1</title>
<path fill="none" stroke="midnightblue" d="M116.5,-227.04C116.5,-218.87 116.5,-209.87 116.5,-200.55"/>
<polygon fill="none" stroke="midnightblue" points="113,-227.26 116.5,-237.26 120,-227.26 113,-227.26"/>
</g>
</g>
</svg>
