<?xml version="1.0" encoding="UTF-8" standalone="no"?>
<!DOCTYPE svg PUBLIC "-//W3C//DTD SVG 1.1//EN"
 "http://www.w3.org/Graphics/SVG/1.1/DTD/svg11.dtd">
<!-- Generated by graphviz version 2.38.0 (20140413.2041)
 -->
<!-- Title: C2M2.NeuronalDynamics.Visualization.VRN.VrnReader.Geom1d Pages: 1 -->
<svg width="241pt" height="237pt"
 viewBox="0.00 0.00 241.00 237.00" xmlns="http://www.w3.org/2000/svg" xmlns:xlink="http://www.w3.org/1999/xlink">
<g id="graph0" class="graph" transform="scale(1 1) rotate(0) translate(4 233)">
<title>C2M2.NeuronalDynamics.Visualization.VRN.VrnReader.Geom1d</title>
<polygon fill="white" stroke="none" points="-4,4 -4,-233 237,-233 237,4 -4,4"/>
<!-- Node1 -->
<g id="node1" class="node"><title>Node1</title>
<g id="a_node1"><a xlink:title="Stores the 1D geometries by name, refinement and a description Inflations are attached to the 1D geom...">
<polygon fill="#bfbfbf" stroke="black" points="0,-0.5 0,-90.5 233,-90.5 233,-0.5 0,-0.5"/>
<text text-anchor="start" x="8" y="-78.5" font-family="Courier New" font-size="10.00">C2M2.NeuronalDynamics.Visualization.</text>
<text text-anchor="middle" x="116.5" y="-67.5" font-family="Courier New" font-size="10.00">VRN.VrnReader.Geom1d</text>
<polyline fill="none" stroke="black" points="0,-60.5 233,-60.5 "/>
<text text-anchor="start" x="8" y="-48.5" font-family="Courier New" font-size="10.00">+ name</text>
<text text-anchor="start" x="8" y="-37.5" font-family="Courier New" font-size="10.00">+ refinement</text>
<text text-anchor="start" x="8" y="-26.5" font-family="Courier New" font-size="10.00">+ description</text>
<polyline fill="none" stroke="black" points="0,-19.5 233,-19.5 "/>
<text text-anchor="start" x="8" y="-7.5" font-family="Courier New" font-size="10.00">+ Geom1d()</text>
</a>
</g>
</g>
<!-- Node2 -->
<g id="node2" class="node"><title>Node2</title>
<g id="a_node2"><a xlink:href="../../d8/daf/struct_c2_m2_1_1_neuronal_dynamics_1_1_visualization_1_1_v_r_n_1_1_vrn_reader_1_1_geom2d.html" target="_top" xlink:title="Stores the 2d geometries by name, inflation (factor), and description">
<polygon fill="white" stroke="black" points="0,-138.5 0,-228.5 233,-228.5 233,-138.5 0,-138.5"/>
<text text-anchor="start" x="8" y="-216.5" font-family="Courier New" font-size="10.00">C2M2.NeuronalDynamics.Visualization.</text>
<text text-anchor="middle" x="116.5" y="-205.5" font-family="Courier New" font-size="10.00">VRN.VrnReader.Geom2d</text>
<polyline fill="none" stroke="black" points="0,-198.5 233,-198.5 "/>
<text text-anchor="start" x="8" y="-186.5" font-family="Courier New" font-size="10.00">+ inflation</text>
<text text-anchor="start" x="8" y="-175.5" font-family="Courier New" font-size="10.00">+ name</text>
<text text-anchor="start" x="8" y="-164.5" font-family="Courier New" font-size="10.00">+ description</text>
<polyline fill="none" stroke="black" points="0,-157.5 233,-157.5 "/>
<text text-anchor="start" x="8" y="-145.5" font-family="Courier New" font-size="10.00">+ Geom2d()</text>
</a>
</g>
</g>
<!-- Node2&#45;&gt;Node1 -->
<g id="edge1" class="edge"><title>Node2&#45;&gt;Node1</title>
<path fill="none" stroke="#404040" d="M116.5,-138.345C116.5,-127.062 116.5,-114.777 116.5,-102.969"/>
<polygon fill="none" stroke="#404040" points="116.5,-102.899 112.5,-96.8992 116.5,-90.8992 120.5,-96.8991 116.5,-102.899"/>
<text text-anchor="middle" x="153" y="-112" font-family="Courier New" font-size="10.00"> +inflations</text>
</g>
</g>
</svg>
