<?xml version="1.0" encoding="UTF-8" standalone="no"?>
<!DOCTYPE svg PUBLIC "-//W3C//DTD SVG 1.1//EN"
 "http://www.w3.org/Graphics/SVG/1.1/DTD/svg11.dtd">
<!-- Generated by graphviz version 2.38.0 (20140413.2041)
 -->
<!-- Title: C2M2.OIT.Interaction.ParticleFieldHandleController Pages: 1 -->
<svg width="199pt" height="347pt"
 viewBox="0.00 0.00 199.00 347.00" xmlns="http://www.w3.org/2000/svg" xmlns:xlink="http://www.w3.org/1999/xlink">
<g id="graph0" class="graph" transform="scale(1 1) rotate(0) translate(4 343)">
<title>C2M2.OIT.Interaction.ParticleFieldHandleController</title>
<polygon fill="white" stroke="none" points="-4,4 -4,-343 195,-343 195,4 -4,4"/>
<!-- Node1 -->
<g id="node1" class="node"><title>Node1</title>
<g id="a_node1"><a xlink:title=" ">
<polygon fill="#bfbfbf" stroke="black" points="0,-0.5 0,-244.5 191,-244.5 191,-0.5 0,-0.5"/>
<text text-anchor="start" x="8" y="-232.5" font-family="Courier New" font-size="10.00">C2M2.OIT.Interaction.Particle</text>
<text text-anchor="middle" x="95.5" y="-221.5" font-family="Courier New" font-size="10.00">FieldHandleController</text>
<polyline fill="none" stroke="black" points="0,-214.5 191,-214.5 "/>
<text text-anchor="start" x="8" y="-202.5" font-family="Courier New" font-size="10.00">+ xMinMarker</text>
<text text-anchor="start" x="8" y="-191.5" font-family="Courier New" font-size="10.00">+ xMaxMarker</text>
<text text-anchor="start" x="8" y="-180.5" font-family="Courier New" font-size="10.00">+ yMinMarker</text>
<text text-anchor="start" x="8" y="-169.5" font-family="Courier New" font-size="10.00">+ yMaxMarker</text>
<text text-anchor="start" x="8" y="-158.5" font-family="Courier New" font-size="10.00">+ zMinMarker</text>
<text text-anchor="start" x="8" y="-147.5" font-family="Courier New" font-size="10.00">+ zMaxMarker</text>
<text text-anchor="start" x="8" y="-136.5" font-family="Courier New" font-size="10.00">+ xMinCollider</text>
<text text-anchor="start" x="8" y="-125.5" font-family="Courier New" font-size="10.00">+ xMaxCollider</text>
<text text-anchor="start" x="8" y="-114.5" font-family="Courier New" font-size="10.00">+ yMinCollider</text>
<text text-anchor="start" x="8" y="-103.5" font-family="Courier New" font-size="10.00">+ yMaxCollider</text>
<text text-anchor="start" x="8" y="-92.5" font-family="Courier New" font-size="10.00">+ zMinCollider</text>
<text text-anchor="start" x="8" y="-81.5" font-family="Courier New" font-size="10.00">+ zMaxCollider</text>
<text text-anchor="start" x="8" y="-70.5" font-family="Courier New" font-size="10.00">&#45; minVector</text>
<text text-anchor="start" x="8" y="-59.5" font-family="Courier New" font-size="10.00">&#45; maxVector</text>
<polyline fill="none" stroke="black" points="0,-52.5 191,-52.5 "/>
<text text-anchor="start" x="8" y="-40.5" font-family="Courier New" font-size="10.00">+ UpdateHandlePositions()</text>
<text text-anchor="start" x="8" y="-29.5" font-family="Courier New" font-size="10.00">+ GetMinVector()</text>
<text text-anchor="start" x="8" y="-18.5" font-family="Courier New" font-size="10.00">+ GetMaxVector()</text>
<text text-anchor="start" x="8" y="-7.5" font-family="Courier New" font-size="10.00">&#45; Update()</text>
</a>
</g>
</g>
<!-- Node2 -->
<g id="node2" class="node"><title>Node2</title>
<g id="a_node2"><a xlink:title=" ">
<polygon fill="white" stroke="#bfbfbf" points="48,-281.5 48,-338.5 143,-338.5 143,-281.5 48,-281.5"/>
<text text-anchor="middle" x="95.5" y="-326.5" font-family="Courier New" font-size="10.00">MonoBehaviour</text>
<polyline fill="none" stroke="#bfbfbf" points="48,-319.5 143,-319.5 "/>
<text text-anchor="middle" x="95.5" y="-307.5" font-family="Courier New" font-size="10.00"> </text>
<polyline fill="none" stroke="#bfbfbf" points="48,-300.5 143,-300.5 "/>
<text text-anchor="middle" x="95.5" y="-288.5" font-family="Courier New" font-size="10.00"> </text>
</a>
</g>
</g>
<!-- Node2&#45;&gt;Node1 -->
<g id="edge1" class="edge"><title>Node2&#45;&gt;Node1</title>
<path fill="none" stroke="midnightblue" d="M95.5,-271.139C95.5,-263.055 95.5,-254.101 95.5,-244.718"/>
<polygon fill="none" stroke="midnightblue" points="92.0001,-271.229 95.5,-281.229 99.0001,-271.229 92.0001,-271.229"/>
</g>
</g>
</svg>
