<?xml version="1.0" encoding="UTF-8" standalone="no"?>
<!DOCTYPE svg PUBLIC "-//W3C//DTD SVG 1.1//EN"
 "http://www.w3.org/Graphics/SVG/1.1/DTD/svg11.dtd">
<!-- Generated by graphviz version 2.38.0 (20140413.2041)
 -->
<!-- Title: C2M2.Utils.Animation.UVAnimation Pages: 1 -->
<svg width="217pt" height="193pt"
 viewBox="0.00 0.00 217.00 193.00" xmlns="http://www.w3.org/2000/svg" xmlns:xlink="http://www.w3.org/1999/xlink">
<g id="graph0" class="graph" transform="scale(1 1) rotate(0) translate(4 189)">
<title>C2M2.Utils.Animation.UVAnimation</title>
<polygon fill="white" stroke="none" points="-4,4 -4,-189 213,-189 213,4 -4,4"/>
<!-- Node1 -->
<g id="node1" class="node"><title>Node1</title>
<g id="a_node1"><a xlink:title=" ">
<polygon fill="#bfbfbf" stroke="black" points="0,-0.5 0,-90.5 209,-90.5 209,-0.5 0,-0.5"/>
<text text-anchor="middle" x="104.5" y="-78.5" font-family="Courier New" font-size="10.00">C2M2.Utils.Animation.UVAnimation</text>
<polyline fill="none" stroke="black" points="0,-71.5 209,-71.5 "/>
<text text-anchor="start" x="8" y="-59.5" font-family="Courier New" font-size="10.00">+ uvTileY</text>
<text text-anchor="start" x="8" y="-48.5" font-family="Courier New" font-size="10.00">+ uvTileX</text>
<text text-anchor="start" x="8" y="-37.5" font-family="Courier New" font-size="10.00">+ fps</text>
<text text-anchor="start" x="8" y="-26.5" font-family="Courier New" font-size="10.00">&#45; index</text>
<polyline fill="none" stroke="black" points="0,-19.5 209,-19.5 "/>
<text text-anchor="start" x="8" y="-7.5" font-family="Courier New" font-size="10.00">&#45; Update()</text>
</a>
</g>
</g>
<!-- Node2 -->
<g id="node2" class="node"><title>Node2</title>
<g id="a_node2"><a xlink:title=" ">
<polygon fill="white" stroke="#bfbfbf" points="57,-127.5 57,-184.5 152,-184.5 152,-127.5 57,-127.5"/>
<text text-anchor="middle" x="104.5" y="-172.5" font-family="Courier New" font-size="10.00">MonoBehaviour</text>
<polyline fill="none" stroke="#bfbfbf" points="57,-165.5 152,-165.5 "/>
<text text-anchor="middle" x="104.5" y="-153.5" font-family="Courier New" font-size="10.00"> </text>
<polyline fill="none" stroke="#bfbfbf" points="57,-146.5 152,-146.5 "/>
<text text-anchor="middle" x="104.5" y="-134.5" font-family="Courier New" font-size="10.00"> </text>
</a>
</g>
</g>
<!-- Node2&#45;&gt;Node1 -->
<g id="edge1" class="edge"><title>Node2&#45;&gt;Node1</title>
<path fill="none" stroke="midnightblue" d="M104.5,-117.214C104.5,-108.609 104.5,-99.3943 104.5,-90.5541"/>
<polygon fill="none" stroke="midnightblue" points="101,-117.34 104.5,-127.34 108,-117.34 101,-117.34"/>
</g>
</g>
</svg>
