<?xml version="1.0" encoding="UTF-8" standalone="no"?>
<!DOCTYPE svg PUBLIC "-//W3C//DTD SVG 1.1//EN"
 "http://www.w3.org/Graphics/SVG/1.1/DTD/svg11.dtd">
<!-- Generated by graphviz version 2.38.0 (20140413.2041)
 -->
<!-- Title: C2M2.NeuronalDynamics.UGX.IAttachmentData Pages: 1 -->
<svg width="945pt" height="204pt"
 viewBox="0.00 0.00 945.00 204.00" xmlns="http://www.w3.org/2000/svg" xmlns:xlink="http://www.w3.org/1999/xlink">
<g id="graph0" class="graph" transform="scale(1 1) rotate(0) translate(4 200)">
<title>C2M2.NeuronalDynamics.UGX.IAttachmentData</title>
<polygon fill="white" stroke="none" points="-4,4 -4,-200 941,-200 941,4 -4,4"/>
<!-- Node1 -->
<g id="node1" class="node"><title>Node1</title>
<g id="a_node1"><a xlink:title="Marker interface for attachment data">
<polygon fill="#bfbfbf" stroke="black" points="382,-127.5 382,-195.5 555,-195.5 555,-127.5 382,-127.5"/>
<text text-anchor="start" x="390" y="-183.5" font-family="Courier New" font-size="10.00">C2M2.NeuronalDynamics.UGX.</text>
<text text-anchor="middle" x="468.5" y="-172.5" font-family="Courier New" font-size="10.00">IAttachmentData</text>
<polyline fill="none" stroke="black" points="382,-165.5 555,-165.5 "/>
<text text-anchor="middle" x="468.5" y="-153.5" font-family="Courier New" font-size="10.00"> </text>
<polyline fill="none" stroke="black" points="382,-146.5 555,-146.5 "/>
<text text-anchor="middle" x="468.5" y="-134.5" font-family="Courier New" font-size="10.00"> </text>
</a>
</g>
</g>
<!-- Node2 -->
<g id="node2" class="node"><title>Node2</title>
<g id="a_node2"><a xlink:href="../../de/da8/struct_c2_m2_1_1_neuronal_dynamics_1_1_u_g_x_1_1_diameter_data.html" target="_top" xlink:title="Data for diameter attachment Used to store diameters during reading in a grid">
<polygon fill="white" stroke="black" points="0,-11.5 0,-79.5 173,-79.5 173,-11.5 0,-11.5"/>
<text text-anchor="start" x="8" y="-67.5" font-family="Courier New" font-size="10.00">C2M2.NeuronalDynamics.UGX.</text>
<text text-anchor="middle" x="86.5" y="-56.5" font-family="Courier New" font-size="10.00">DiameterData</text>
<polyline fill="none" stroke="black" points="0,-49.5 173,-49.5 "/>
<text text-anchor="start" x="8" y="-37.5" font-family="Courier New" font-size="10.00">+ Diameter</text>
<polyline fill="none" stroke="black" points="0,-30.5 173,-30.5 "/>
<text text-anchor="start" x="8" y="-18.5" font-family="Courier New" font-size="10.00">+ DiameterData()</text>
</a>
</g>
</g>
<!-- Node1&#45;&gt;Node2 -->
<g id="edge1" class="edge"><title>Node1&#45;&gt;Node2</title>
<path fill="none" stroke="midnightblue" d="M371.825,-142.145C315.495,-130.205 243.556,-112.8 181.5,-91 172.049,-87.68 162.274,-83.7325 152.751,-79.5804"/>
<polygon fill="none" stroke="midnightblue" points="371.292,-145.609 381.797,-144.236 372.729,-138.758 371.292,-145.609"/>
</g>
<!-- Node3 -->
<g id="node3" class="node"><title>Node3</title>
<g id="a_node3"><a xlink:href="../../dd/d35/struct_c2_m2_1_1_neuronal_dynamics_1_1_u_g_x_1_1_index_data.html" target="_top" xlink:title="IndexData">
<polygon fill="white" stroke="black" points="191,-11.5 191,-79.5 364,-79.5 364,-11.5 191,-11.5"/>
<text text-anchor="start" x="199" y="-67.5" font-family="Courier New" font-size="10.00">C2M2.NeuronalDynamics.UGX.</text>
<text text-anchor="middle" x="277.5" y="-56.5" font-family="Courier New" font-size="10.00">IndexData</text>
<polyline fill="none" stroke="black" points="191,-49.5 364,-49.5 "/>
<text text-anchor="start" x="199" y="-37.5" font-family="Courier New" font-size="10.00">+ ParentIndex</text>
<polyline fill="none" stroke="black" points="191,-30.5 364,-30.5 "/>
<text text-anchor="start" x="199" y="-18.5" font-family="Courier New" font-size="10.00">+ IndexData()</text>
</a>
</g>
</g>
<!-- Node1&#45;&gt;Node3 -->
<g id="edge2" class="edge"><title>Node1&#45;&gt;Node3</title>
<path fill="none" stroke="midnightblue" d="M404.265,-122.161C381.09,-108.329 355.155,-92.8489 332.81,-79.5121"/>
<polygon fill="none" stroke="midnightblue" points="402.618,-125.254 412.998,-127.373 406.205,-119.243 402.618,-125.254"/>
</g>
<!-- Node4 -->
<g id="node4" class="node"><title>Node4</title>
<g id="a_node4"><a xlink:href="../../d2/dae/struct_c2_m2_1_1_neuronal_dynamics_1_1_u_g_x_1_1_mapping_data.html" target="_top" xlink:title="Data for mapping attachment Used to read in mapping data which maps between 1d and 2d vertices">
<polygon fill="white" stroke="black" points="382,-0.5 382,-90.5 555,-90.5 555,-0.5 382,-0.5"/>
<text text-anchor="start" x="390" y="-78.5" font-family="Courier New" font-size="10.00">C2M2.NeuronalDynamics.UGX.</text>
<text text-anchor="middle" x="468.5" y="-67.5" font-family="Courier New" font-size="10.00">MappingData</text>
<polyline fill="none" stroke="black" points="382,-60.5 555,-60.5 "/>
<text text-anchor="start" x="390" y="-48.5" font-family="Courier New" font-size="10.00">+ Start</text>
<text text-anchor="start" x="390" y="-37.5" font-family="Courier New" font-size="10.00">+ End</text>
<text text-anchor="start" x="390" y="-26.5" font-family="Courier New" font-size="10.00">+ Lambda</text>
<polyline fill="none" stroke="black" points="382,-19.5 555,-19.5 "/>
<text text-anchor="start" x="390" y="-7.5" font-family="Courier New" font-size="10.00">+ MappingData()</text>
</a>
</g>
</g>
<!-- Node1&#45;&gt;Node4 -->
<g id="edge3" class="edge"><title>Node1&#45;&gt;Node4</title>
<path fill="none" stroke="midnightblue" d="M468.5,-116.972C468.5,-108.346 468.5,-99.2838 468.5,-90.6378"/>
<polygon fill="none" stroke="midnightblue" points="465,-117.22 468.5,-127.22 472,-117.22 465,-117.22"/>
</g>
<!-- Node5 -->
<g id="node5" class="node"><title>Node5</title>
<g id="a_node5"><a xlink:href="../../df/d3d/struct_c2_m2_1_1_neuronal_dynamics_1_1_u_g_x_1_1_normal_data.html" target="_top" xlink:title="Data for normals of grid Used to store normals during reading in a grid">
<polygon fill="white" stroke="black" points="573,-11.5 573,-79.5 746,-79.5 746,-11.5 573,-11.5"/>
<text text-anchor="start" x="581" y="-67.5" font-family="Courier New" font-size="10.00">C2M2.NeuronalDynamics.UGX.</text>
<text text-anchor="middle" x="659.5" y="-56.5" font-family="Courier New" font-size="10.00">NormalData</text>
<polyline fill="none" stroke="black" points="573,-49.5 746,-49.5 "/>
<text text-anchor="start" x="581" y="-37.5" font-family="Courier New" font-size="10.00">+ Normal</text>
<polyline fill="none" stroke="black" points="573,-30.5 746,-30.5 "/>
<text text-anchor="start" x="581" y="-18.5" font-family="Courier New" font-size="10.00">+ NormalData()</text>
</a>
</g>
</g>
<!-- Node1&#45;&gt;Node5 -->
<g id="edge4" class="edge"><title>Node1&#45;&gt;Node5</title>
<path fill="none" stroke="midnightblue" d="M532.735,-122.161C555.91,-108.329 581.845,-92.8489 604.19,-79.5121"/>
<polygon fill="none" stroke="midnightblue" points="530.795,-119.243 524.002,-127.373 534.382,-125.254 530.795,-119.243"/>
</g>
<!-- Node6 -->
<g id="node6" class="node"><title>Node6</title>
<g id="a_node6"><a xlink:href="../../dc/dea/struct_c2_m2_1_1_neuronal_dynamics_1_1_u_g_x_1_1_synapse_data.html" target="_top" xlink:title="Data for synapse attachment Used to store synapse data during reading in a grid">
<polygon fill="white" stroke="black" points="764,-11.5 764,-79.5 937,-79.5 937,-11.5 764,-11.5"/>
<text text-anchor="start" x="772" y="-67.5" font-family="Courier New" font-size="10.00">C2M2.NeuronalDynamics.UGX.</text>
<text text-anchor="middle" x="850.5" y="-56.5" font-family="Courier New" font-size="10.00">SynapseData</text>
<polyline fill="none" stroke="black" points="764,-49.5 937,-49.5 "/>
<text text-anchor="start" x="772" y="-37.5" font-family="Courier New" font-size="10.00">+ Synapse</text>
<polyline fill="none" stroke="black" points="764,-30.5 937,-30.5 "/>
<text text-anchor="start" x="772" y="-18.5" font-family="Courier New" font-size="10.00">+ SynapseData()</text>
</a>
</g>
</g>
<!-- Node1&#45;&gt;Node6 -->
<g id="edge5" class="edge"><title>Node1&#45;&gt;Node6</title>
<path fill="none" stroke="midnightblue" d="M565.175,-142.145C621.505,-130.205 693.444,-112.8 755.5,-91 764.951,-87.68 774.726,-83.7325 784.249,-79.5804"/>
<polygon fill="none" stroke="midnightblue" points="564.271,-138.758 555.203,-144.236 565.708,-145.609 564.271,-138.758"/>
</g>
</g>
</svg>
