<?xml version="1.0" encoding="UTF-8" standalone="no"?>
<!DOCTYPE svg PUBLIC "-//W3C//DTD SVG 1.1//EN"
 "http://www.w3.org/Graphics/SVG/1.1/DTD/svg11.dtd">
<!-- Generated by graphviz version 2.38.0 (20140413.2041)
 -->
<!-- Title: C2M2.NeuronalDynamics.Simulation.SparseSolverTestv1 Pages: 1 -->
<svg width="912pt" height="1579pt"
 viewBox="0.00 0.00 911.50 1579.00" xmlns="http://www.w3.org/2000/svg" xmlns:xlink="http://www.w3.org/1999/xlink">
<g id="graph0" class="graph" transform="scale(1 1) rotate(0) translate(4 1575)">
<title>C2M2.NeuronalDynamics.Simulation.SparseSolverTestv1</title>
<polygon fill="white" stroke="none" points="-4,4 -4,-1575 907.5,-1575 907.5,4 -4,4"/>
<!-- Node1 -->
<g id="node1" class="node"><title>Node1</title>
<g id="a_node1"><a xlink:title=" ">
<polygon fill="#bfbfbf" stroke="black" points="573,-0.5 573,-475.5 788,-475.5 788,-0.5 573,-0.5"/>
<text text-anchor="start" x="581" y="-463.5" font-family="Courier New" font-size="10.00">C2M2.NeuronalDynamics.Simulation.</text>
<text text-anchor="middle" x="680.5" y="-452.5" font-family="Courier New" font-size="10.00">SparseSolverTestv1</text>
<polyline fill="none" stroke="black" points="573,-445.5 788,-445.5 "/>
<text text-anchor="start" x="581" y="-433.5" font-family="Courier New" font-size="10.00">+ vstart</text>
<text text-anchor="start" x="581" y="-422.5" font-family="Courier New" font-size="10.00">+ endTime</text>
<text text-anchor="start" x="581" y="-411.5" font-family="Courier New" font-size="10.00">+ h</text>
<text text-anchor="start" x="581" y="-400.5" font-family="Courier New" font-size="10.00">+ k</text>
<text text-anchor="start" x="581" y="-389.5" font-family="Courier New" font-size="10.00">+ HK_auto</text>
<text text-anchor="start" x="581" y="-378.5" font-family="Courier New" font-size="10.00">+ SomaOn</text>
<text text-anchor="start" x="581" y="-367.5" font-family="Courier New" font-size="10.00">+ numRuns</text>
<text text-anchor="start" x="581" y="-356.5" font-family="Courier New" font-size="10.00">+ randomPermute</text>
<text text-anchor="start" x="581" y="-345.5" font-family="Courier New" font-size="10.00">+ printMatrices</text>
<text text-anchor="start" x="581" y="-334.5" font-family="Courier New" font-size="10.00">+ printCellInfo</text>
<text text-anchor="start" x="581" y="-323.5" font-family="Courier New" font-size="10.00">and 13 more...</text>
<text text-anchor="start" x="581" y="-312.5" font-family="Courier New" font-size="10.00">&#45; mi</text>
<text text-anchor="start" x="581" y="-301.5" font-family="Courier New" font-size="10.00">&#45; hi</text>
<text text-anchor="start" x="581" y="-290.5" font-family="Courier New" font-size="10.00">&#45; U</text>
<text text-anchor="start" x="581" y="-279.5" font-family="Courier New" font-size="10.00">&#45; M</text>
<text text-anchor="start" x="581" y="-268.5" font-family="Courier New" font-size="10.00">&#45; N</text>
<text text-anchor="start" x="581" y="-257.5" font-family="Courier New" font-size="10.00">&#45; H</text>
<text text-anchor="start" x="581" y="-246.5" font-family="Courier New" font-size="10.00">&#45; i</text>
<polyline fill="none" stroke="black" points="573,-239.5 788,-239.5 "/>
<text text-anchor="start" x="581" y="-227.5" font-family="Courier New" font-size="10.00">+ printCell()</text>
<text text-anchor="start" x="581" y="-216.5" font-family="Courier New" font-size="10.00">+ printMatrix()</text>
<text text-anchor="start" x="581" y="-205.5" font-family="Courier New" font-size="10.00">+ thomas_algorithm()</text>
<text text-anchor="start" x="581" y="-194.5" font-family="Courier New" font-size="10.00">+ makeSparseStencils()</text>
<text text-anchor="start" x="581" y="-183.5" font-family="Courier New" font-size="10.00">+ setSoma()</text>
<text text-anchor="start" x="581" y="-172.5" font-family="Courier New" font-size="10.00">+ initialConditions()</text>
<text text-anchor="start" x="581" y="-161.5" font-family="Courier New" font-size="10.00">+ boundaryConditions()</text>
<text text-anchor="start" x="581" y="-150.5" font-family="Courier New" font-size="10.00"># SetNeuronCell()</text>
<text text-anchor="start" x="581" y="-139.5" font-family="Courier New" font-size="10.00"># Get1DValues()</text>
<text text-anchor="start" x="581" y="-128.5" font-family="Courier New" font-size="10.00"># Set1DValues()</text>
<text text-anchor="start" x="581" y="-117.5" font-family="Courier New" font-size="10.00"># Solve()</text>
<text text-anchor="start" x="581" y="-106.5" font-family="Courier New" font-size="10.00">&#45; reactF()</text>
<text text-anchor="start" x="581" y="-95.5" font-family="Courier New" font-size="10.00">&#45; fN()</text>
<text text-anchor="start" x="581" y="-84.5" font-family="Courier New" font-size="10.00">&#45; fM()</text>
<text text-anchor="start" x="581" y="-73.5" font-family="Courier New" font-size="10.00">&#45; fH()</text>
<text text-anchor="start" x="581" y="-62.5" font-family="Courier New" font-size="10.00">&#45; an()</text>
<text text-anchor="start" x="581" y="-51.5" font-family="Courier New" font-size="10.00">&#45; bn()</text>
<text text-anchor="start" x="581" y="-40.5" font-family="Courier New" font-size="10.00">&#45; am()</text>
<text text-anchor="start" x="581" y="-29.5" font-family="Courier New" font-size="10.00">&#45; bm()</text>
<text text-anchor="start" x="581" y="-18.5" font-family="Courier New" font-size="10.00">&#45; ah()</text>
<text text-anchor="start" x="581" y="-7.5" font-family="Courier New" font-size="10.00">&#45; bh()</text>
</a>
</g>
</g>
<!-- Node2 -->
<g id="node2" class="node"><title>Node2</title>
<g id="a_node2"><a xlink:href="../../d4/d5a/class_c2_m2_1_1_neuronal_dynamics_1_1_simulation_1_1_neuron_simulation1_d.html" target="_top" xlink:title="Provide an interface for 1D neuron&#45;surface simulations to be visualized and interacted with">
<polygon fill="white" stroke="black" points="475,-523.5 475,-855.5 624,-855.5 624,-523.5 475,-523.5"/>
<text text-anchor="middle" x="549.5" y="-843.5" font-family="Courier New" font-size="10.00">NeuronSimulation1D</text>
<polyline fill="none" stroke="black" points="475,-836.5 624,-836.5 "/>
<text text-anchor="start" x="483" y="-824.5" font-family="Courier New" font-size="10.00">+ refinementLevel</text>
<text text-anchor="start" x="483" y="-813.5" font-family="Courier New" font-size="10.00">+ cell1xPath</text>
<text text-anchor="start" x="483" y="-802.5" font-family="Courier New" font-size="10.00">+ cell2xPath</text>
<text text-anchor="start" x="483" y="-791.5" font-family="Courier New" font-size="10.00">+ cell3xPath</text>
<text text-anchor="start" x="483" y="-780.5" font-family="Courier New" font-size="10.00">+ cell4xPath</text>
<text text-anchor="start" x="483" y="-769.5" font-family="Courier New" font-size="10.00">+ cell5xPath</text>
<text text-anchor="start" x="483" y="-758.5" font-family="Courier New" font-size="10.00">+ visualize1D</text>
<text text-anchor="start" x="483" y="-747.5" font-family="Courier New" font-size="10.00">+ color1D</text>
<text text-anchor="start" x="483" y="-736.5" font-family="Courier New" font-size="10.00">+ lineWidth1D</text>
<text text-anchor="start" x="483" y="-725.5" font-family="Courier New" font-size="10.00">&#45; meshScale</text>
<text text-anchor="start" x="483" y="-714.5" font-family="Courier New" font-size="10.00">&#45; meshColScale</text>
<text text-anchor="start" x="483" y="-703.5" font-family="Courier New" font-size="10.00">&#45; map</text>
<text text-anchor="start" x="483" y="-692.5" font-family="Courier New" font-size="10.00">&#45; scaledMeshes</text>
<polyline fill="none" stroke="black" points="475,-685.5 624,-685.5 "/>
<text text-anchor="start" x="483" y="-673.5" font-family="Courier New" font-size="10.00">+ GetValues()</text>
<text text-anchor="start" x="483" y="-662.5" font-family="Courier New" font-size="10.00">+ SetValues()</text>
<text text-anchor="start" x="483" y="-651.5" font-family="Courier New" font-size="10.00">+ RescaleMesh()</text>
<text text-anchor="start" x="483" y="-640.5" font-family="Courier New" font-size="10.00">+ SwitchColliderMesh()</text>
<text text-anchor="start" x="483" y="-629.5" font-family="Courier New" font-size="10.00">+ SwitchMesh()</text>
<text text-anchor="start" x="483" y="-618.5" font-family="Courier New" font-size="10.00"># Set1DValues()</text>
<text text-anchor="start" x="483" y="-607.5" font-family="Courier New" font-size="10.00"># Get1DValues()</text>
<text text-anchor="start" x="483" y="-596.5" font-family="Courier New" font-size="10.00"># SetNeuronCell()</text>
<text text-anchor="start" x="483" y="-585.5" font-family="Courier New" font-size="10.00"># ReadData()</text>
<text text-anchor="start" x="483" y="-574.5" font-family="Courier New" font-size="10.00"># BuildVisualization()</text>
<text text-anchor="start" x="483" y="-563.5" font-family="Courier New" font-size="10.00">&#45; BuildUI()</text>
<text text-anchor="start" x="483" y="-552.5" font-family="Courier New" font-size="10.00">&#45; Clean3DCell()</text>
<text text-anchor="start" x="483" y="-541.5" font-family="Courier New" font-size="10.00">&#45; BuildMesh()</text>
<text text-anchor="start" x="483" y="-530.5" font-family="Courier New" font-size="10.00">&#45; SwitchColliderMesh()</text>
</a>
</g>
</g>
<!-- Node2&#45;&gt;Node1 -->
<g id="edge1" class="edge"><title>Node2&#45;&gt;Node1</title>
<path fill="none" stroke="midnightblue" d="M600.507,-513.479C604.114,-501.102 607.783,-488.513 611.467,-475.873"/>
<polygon fill="none" stroke="midnightblue" points="597.066,-512.777 597.629,-523.357 603.787,-514.735 597.066,-512.777"/>
</g>
<!-- Node3 -->
<g id="node3" class="node"><title>Node3</title>
<g id="a_node3"><a xlink:href="../../d6/d2d/class_c2_m2_1_1_simulation_1_1_mesh_simulation.html" target="_top" xlink:title="Simulation of type double[] for visualizing scalar fields on mesh surfaces">
<polygon fill="white" stroke="black" points="171,-925.5 171,-1070.5 326,-1070.5 326,-925.5 171,-925.5"/>
<text text-anchor="middle" x="248.5" y="-1058.5" font-family="Courier New" font-size="10.00">MeshSimulation</text>
<polyline fill="none" stroke="black" points="171,-1051.5 326,-1051.5 "/>
<text text-anchor="start" x="179" y="-1039.5" font-family="Courier New" font-size="10.00">+ gradient</text>
<text text-anchor="start" x="179" y="-1028.5" font-family="Courier New" font-size="10.00">+ globalMax</text>
<text text-anchor="start" x="179" y="-1017.5" font-family="Courier New" font-size="10.00">+ globalMin</text>
<text text-anchor="start" x="179" y="-1006.5" font-family="Courier New" font-size="10.00">+ colorLUT</text>
<text text-anchor="start" x="179" y="-995.5" font-family="Courier New" font-size="10.00"># colliderMesh</text>
<text text-anchor="start" x="179" y="-984.5" font-family="Courier New" font-size="10.00">&#45; mf</text>
<text text-anchor="start" x="179" y="-973.5" font-family="Courier New" font-size="10.00">&#45; mr</text>
<polyline fill="none" stroke="black" points="171,-966.5 326,-966.5 "/>
<text text-anchor="start" x="179" y="-954.5" font-family="Courier New" font-size="10.00"># UpdateVisualization()</text>
<text text-anchor="start" x="179" y="-943.5" font-family="Courier New" font-size="10.00"># OnAwake()</text>
<text text-anchor="start" x="179" y="-932.5" font-family="Courier New" font-size="10.00">&#45; UpdateVisualization()</text>
</a>
</g>
</g>
<!-- Node3&#45;&gt;Node2 -->
<g id="edge2" class="edge"><title>Node3&#45;&gt;Node2</title>
<path fill="none" stroke="midnightblue" d="M326.314,-917.764C372.098,-871.144 429.693,-812.496 474.906,-766.457"/>
<polygon fill="none" stroke="midnightblue" points="323.581,-915.552 319.071,-925.139 328.575,-920.457 323.581,-915.552"/>
</g>
<!-- Node4 -->
<g id="node4" class="node"><title>Node4</title>
<g id="a_node4"><a xlink:href="../../db/d39/class_c2_m2_1_1_simulation_1_1_simulation.html" target="_top" xlink:title=" ">
<polygon fill="white" stroke="black" points="0,-1198.5 0,-1475.5 185,-1475.5 185,-1198.5 0,-1198.5"/>
<text text-anchor="start" x="8" y="-1463.5" font-family="Courier New" font-size="10.00">Simulation&lt; double</text>
<text text-anchor="start" x="8" y="-1452.5" font-family="Courier New" font-size="10.00">[], Mesh, VRRaycastableMesh,</text>
<text text-anchor="middle" x="92.5" y="-1441.5" font-family="Courier New" font-size="10.00"> VRGrabbableMesh &gt;</text>
<polyline fill="none" stroke="black" points="0,-1434.5 185,-1434.5 "/>
<text text-anchor="start" x="8" y="-1422.5" font-family="Courier New" font-size="10.00">+ dryRun</text>
<text text-anchor="start" x="8" y="-1411.5" font-family="Courier New" font-size="10.00">+ startOnAwake</text>
<text text-anchor="start" x="8" y="-1400.5" font-family="Courier New" font-size="10.00">+ viz</text>
<text text-anchor="start" x="8" y="-1389.5" font-family="Courier New" font-size="10.00"># mutex</text>
<text text-anchor="start" x="8" y="-1378.5" font-family="Courier New" font-size="10.00">&#45; solveThread</text>
<polyline fill="none" stroke="black" points="0,-1371.5 185,-1371.5 "/>
<text text-anchor="start" x="8" y="-1359.5" font-family="Courier New" font-size="10.00">+ GetValues()</text>
<text text-anchor="start" x="8" y="-1348.5" font-family="Courier New" font-size="10.00">+ StartSimulation()</text>
<text text-anchor="start" x="8" y="-1337.5" font-family="Courier New" font-size="10.00">+ StopSimulation()</text>
<text text-anchor="start" x="8" y="-1326.5" font-family="Courier New" font-size="10.00">+ Awake()</text>
<text text-anchor="start" x="8" y="-1315.5" font-family="Courier New" font-size="10.00">+ Start()</text>
<text text-anchor="start" x="8" y="-1304.5" font-family="Courier New" font-size="10.00">+ Update()</text>
<text text-anchor="start" x="8" y="-1293.5" font-family="Courier New" font-size="10.00"># BuildVisualization()</text>
<text text-anchor="start" x="8" y="-1282.5" font-family="Courier New" font-size="10.00"># ReadData()</text>
<text text-anchor="start" x="8" y="-1271.5" font-family="Courier New" font-size="10.00"># UpdateVisualization()</text>
<text text-anchor="start" x="8" y="-1260.5" font-family="Courier New" font-size="10.00"># Solve()</text>
<text text-anchor="start" x="8" y="-1249.5" font-family="Courier New" font-size="10.00"># OnAwake()</text>
<text text-anchor="start" x="8" y="-1238.5" font-family="Courier New" font-size="10.00"># OnStart()</text>
<text text-anchor="start" x="8" y="-1227.5" font-family="Courier New" font-size="10.00"># OnUpdate()</text>
<text text-anchor="start" x="8" y="-1216.5" font-family="Courier New" font-size="10.00">&#45; OnApplicationPause()</text>
<text text-anchor="start" x="8" y="-1205.5" font-family="Courier New" font-size="10.00">&#45; OnApplicationQuit()</text>
</a>
</g>
</g>
<!-- Node4&#45;&gt;Node3 -->
<g id="edge3" class="edge"><title>Node4&#45;&gt;Node3</title>
<path fill="none" stroke="midnightblue" d="M160.477,-1189.15C179.502,-1148.05 199.337,-1105.21 215.35,-1070.61"/>
<polygon fill="none" stroke="midnightblue" points="157.201,-1187.9 156.176,-1198.44 163.553,-1190.84 157.201,-1187.9"/>
</g>
<!-- Node5 -->
<g id="node5" class="node"><title>Node5</title>
<g id="a_node5"><a xlink:href="../../da/d4f/class_c2_m2_1_1_visualization_1_1_l_u_t_gradient.html" target="_top" xlink:title="Create a fast and memory&#45;friendly color lookup table from a gradient">
<polygon fill="white" stroke="black" points="203,-1253.5 203,-1420.5 400,-1420.5 400,-1253.5 203,-1253.5"/>
<text text-anchor="middle" x="301.5" y="-1408.5" font-family="Courier New" font-size="10.00">C2M2.Visualization.LUTGradient</text>
<polyline fill="none" stroke="black" points="203,-1401.5 400,-1401.5 "/>
<text text-anchor="start" x="211" y="-1389.5" font-family="Courier New" font-size="10.00">+ extremaMethod</text>
<text text-anchor="start" x="211" y="-1378.5" font-family="Courier New" font-size="10.00">+ globalMax</text>
<text text-anchor="start" x="211" y="-1367.5" font-family="Courier New" font-size="10.00">+ globalMin</text>
<text text-anchor="start" x="211" y="-1356.5" font-family="Courier New" font-size="10.00">+ LutRes</text>
<text text-anchor="start" x="211" y="-1345.5" font-family="Courier New" font-size="10.00">+ Gradient</text>
<text text-anchor="start" x="211" y="-1334.5" font-family="Courier New" font-size="10.00">+ gradientLUT</text>
<text text-anchor="start" x="211" y="-1323.5" font-family="Courier New" font-size="10.00">&#45; lutRes</text>
<text text-anchor="start" x="211" y="-1312.5" font-family="Courier New" font-size="10.00">&#45; gradient</text>
<polyline fill="none" stroke="black" points="203,-1305.5 400,-1305.5 "/>
<text text-anchor="start" x="211" y="-1293.5" font-family="Courier New" font-size="10.00">+ Evaluate()</text>
<text text-anchor="start" x="211" y="-1282.5" font-family="Courier New" font-size="10.00">+ Evaluate()</text>
<text text-anchor="start" x="211" y="-1271.5" font-family="Courier New" font-size="10.00">&#45; BuildLUT()</text>
<text text-anchor="start" x="211" y="-1260.5" font-family="Courier New" font-size="10.00">&#45; RescaleArray()</text>
</a>
</g>
</g>
<!-- Node5&#45;&gt;Node3 -->
<g id="edge4" class="edge"><title>Node5&#45;&gt;Node3</title>
<path fill="none" stroke="#404040" d="M265.193,-1253.29C256.672,-1230.04 248.821,-1204.42 244.5,-1180 237.452,-1140.17 243.602,-1129.43 244.5,-1089 244.545,-1086.96 244.597,-1084.89 244.653,-1082.8"/>
<polygon fill="none" stroke="#404040" points="244.656,-1082.71 240.842,-1076.59 245.025,-1070.71 248.839,-1076.83 244.656,-1082.71"/>
<text text-anchor="middle" x="290" y="-1132" font-family="Courier New" font-size="10.00"> +extremaMethod</text>
</g>
<!-- Node6 -->
<g id="node6" class="node"><title>Node6</title>
<g id="a_node6"><a xlink:title=" ">
<polygon fill="white" stroke="#bfbfbf" points="343,-1513.5 343,-1570.5 438,-1570.5 438,-1513.5 343,-1513.5"/>
<text text-anchor="middle" x="390.5" y="-1558.5" font-family="Courier New" font-size="10.00">MonoBehaviour</text>
<polyline fill="none" stroke="#bfbfbf" points="343,-1551.5 438,-1551.5 "/>
<text text-anchor="middle" x="390.5" y="-1539.5" font-family="Courier New" font-size="10.00"> </text>
<polyline fill="none" stroke="#bfbfbf" points="343,-1532.5 438,-1532.5 "/>
<text text-anchor="middle" x="390.5" y="-1520.5" font-family="Courier New" font-size="10.00"> </text>
</a>
</g>
</g>
<!-- Node6&#45;&gt;Node5 -->
<g id="edge5" class="edge"><title>Node6&#45;&gt;Node5</title>
<path fill="none" stroke="midnightblue" d="M374.29,-1504.03C364.064,-1480.7 350.434,-1449.61 337.734,-1420.65"/>
<polygon fill="none" stroke="midnightblue" points="371.091,-1505.45 378.312,-1513.2 377.502,-1502.64 371.091,-1505.45"/>
</g>
<!-- Node9 -->
<g id="node9" class="node"><title>Node9</title>
<g id="a_node9"><a xlink:href="../../dc/d72/class_c2_m2_1_1_utils_1_1_mesh_utils_1_1_mesh_col_controller.html" target="_top" xlink:title="Set this.mesh to quickly look up and update a MeshCollider&#39;s mesh">
<polygon fill="white" stroke="black" points="345,-1089.5 345,-1179.5 512,-1179.5 512,-1089.5 345,-1089.5"/>
<text text-anchor="start" x="353" y="-1167.5" font-family="Courier New" font-size="10.00">C2M2.Utils.MeshUtils.Mesh</text>
<text text-anchor="middle" x="428.5" y="-1156.5" font-family="Courier New" font-size="10.00">ColController</text>
<polyline fill="none" stroke="black" points="345,-1149.5 512,-1149.5 "/>
<text text-anchor="start" x="353" y="-1137.5" font-family="Courier New" font-size="10.00">+ meshCol</text>
<text text-anchor="start" x="353" y="-1126.5" font-family="Courier New" font-size="10.00">+ Mesh</text>
<text text-anchor="start" x="353" y="-1115.5" font-family="Courier New" font-size="10.00">&#45; mesh</text>
<polyline fill="none" stroke="black" points="345,-1108.5 512,-1108.5 "/>
<text text-anchor="middle" x="428.5" y="-1096.5" font-family="Courier New" font-size="10.00"> </text>
</a>
</g>
</g>
<!-- Node6&#45;&gt;Node9 -->
<g id="edge9" class="edge"><title>Node6&#45;&gt;Node9</title>
<path fill="none" stroke="midnightblue" d="M402.294,-1503.65C404.723,-1494.68 406.996,-1485.06 408.5,-1476 425.97,-1370.7 428.754,-1244.88 428.872,-1179.64"/>
<polygon fill="none" stroke="midnightblue" points="398.876,-1502.88 399.517,-1513.45 405.611,-1504.79 398.876,-1502.88"/>
</g>
<!-- Node7 -->
<g id="node7" class="node"><title>Node7</title>
<g id="a_node7"><a xlink:title=" ">
<polygon fill="white" stroke="#bfbfbf" points="529,-969.5 529,-1026.5 570,-1026.5 570,-969.5 529,-969.5"/>
<text text-anchor="middle" x="549.5" y="-1014.5" font-family="Courier New" font-size="10.00">C2M2</text>
<polyline fill="none" stroke="#bfbfbf" points="529,-1007.5 570,-1007.5 "/>
<text text-anchor="middle" x="549.5" y="-995.5" font-family="Courier New" font-size="10.00"> </text>
<polyline fill="none" stroke="#bfbfbf" points="529,-988.5 570,-988.5 "/>
<text text-anchor="middle" x="549.5" y="-976.5" font-family="Courier New" font-size="10.00"> </text>
</a>
</g>
</g>
<!-- Node7&#45;&gt;Node2 -->
<g id="edge6" class="edge"><title>Node7&#45;&gt;Node2</title>
<path fill="none" stroke="#404040" d="M549.5,-969.26C549.5,-944.969 549.5,-907.425 549.5,-867.68"/>
<polygon fill="none" stroke="#404040" points="549.5,-867.572 545.5,-861.572 549.5,-855.572 553.5,-861.572 549.5,-867.572"/>
<text text-anchor="middle" x="574" y="-888" font-family="Courier New" font-size="10.00"> #grid1D</text>
</g>
<!-- Node8 -->
<g id="node8" class="node"><title>Node8</title>
<g id="a_node8"><a xlink:href="../../dd/d2a/struct_c2_m2_1_1_neuronal_dynamics_1_1_u_g_x_1_1_mapping_info.html" target="_top" xlink:title="Encapsulates the grids and mapping data">
<polygon fill="white" stroke="black" points="588,-953 588,-1043 761,-1043 761,-953 588,-953"/>
<text text-anchor="start" x="596" y="-1031" font-family="Courier New" font-size="10.00">C2M2.NeuronalDynamics.UGX.</text>
<text text-anchor="middle" x="674.5" y="-1020" font-family="Courier New" font-size="10.00">MappingInfo</text>
<polyline fill="none" stroke="black" points="588,-1013 761,-1013 "/>
<text text-anchor="start" x="596" y="-1001" font-family="Courier New" font-size="10.00">+ ModelGeometry</text>
<text text-anchor="start" x="596" y="-990" font-family="Courier New" font-size="10.00">+ SurfaceGeometry</text>
<text text-anchor="start" x="596" y="-979" font-family="Courier New" font-size="10.00">+ Data</text>
<polyline fill="none" stroke="black" points="588,-972 761,-972 "/>
<text text-anchor="start" x="596" y="-960" font-family="Courier New" font-size="10.00">+ MappingInfo()</text>
</a>
</g>
</g>
<!-- Node8&#45;&gt;Node2 -->
<g id="edge7" class="edge"><title>Node8&#45;&gt;Node2</title>
<path fill="none" stroke="#404040" d="M656.457,-952.76C646.902,-929.329 634.471,-898.85 621.481,-866.998"/>
<polygon fill="none" stroke="#404040" points="621.399,-866.796 615.429,-862.751 616.867,-855.684 622.837,-859.73 621.399,-866.796"/>
<text text-anchor="middle" x="666" y="-888" font-family="Courier New" font-size="10.00"> &#45;mapping</text>
</g>
<!-- Node9&#45;&gt;Node2 -->
<g id="edge8" class="edge"><title>Node9&#45;&gt;Node2</title>
<path fill="none" stroke="#404040" d="M409.279,-1089.35C407.31,-1083.29 405.623,-1077.06 404.5,-1071 392.671,-1007.2 386.761,-987.417 404.5,-925 417.563,-879.036 442.488,-833.26 468.036,-794.516"/>
<polygon fill="none" stroke="#404040" points="468.204,-794.265 468.227,-787.054 474.892,-784.302 474.869,-791.513 468.204,-794.265"/>
<text text-anchor="middle" x="462" y="-995.5" font-family="Courier New" font-size="10.00"> &#45;meshColController</text>
</g>
<!-- Node10 -->
<g id="node10" class="node"><title>Node10</title>
<g id="a_node10"><a xlink:href="../../da/df6/class_c2_m2_1_1_neuronal_dynamics_1_1_u_g_x_1_1_neuron_cell.html" target="_top" xlink:title=" ">
<polygon fill="white" stroke="black" points="680,-589.5 680,-789.5 853,-789.5 853,-589.5 680,-589.5"/>
<text text-anchor="start" x="688" y="-777.5" font-family="Courier New" font-size="10.00">C2M2.NeuronalDynamics.UGX.</text>
<text text-anchor="middle" x="766.5" y="-766.5" font-family="Courier New" font-size="10.00">NeuronCell</text>
<polyline fill="none" stroke="black" points="680,-759.5 853,-759.5 "/>
<text text-anchor="start" x="688" y="-747.5" font-family="Courier New" font-size="10.00">+ nodeData</text>
<text text-anchor="start" x="688" y="-736.5" font-family="Courier New" font-size="10.00">+ edges</text>
<text text-anchor="start" x="688" y="-725.5" font-family="Courier New" font-size="10.00">+ edgeLengths</text>
<text text-anchor="start" x="688" y="-714.5" font-family="Courier New" font-size="10.00">+ boundaryID</text>
<text text-anchor="start" x="688" y="-703.5" font-family="Courier New" font-size="10.00">+ somaID</text>
<text text-anchor="start" x="688" y="-692.5" font-family="Courier New" font-size="10.00">+ vertCount</text>
<text text-anchor="start" x="688" y="-681.5" font-family="Courier New" font-size="10.00">+ edgeCount</text>
<polyline fill="none" stroke="black" points="680,-674.5 853,-674.5 "/>
<text text-anchor="start" x="688" y="-662.5" font-family="Courier New" font-size="10.00">+ NeuronCell()</text>
<text text-anchor="start" x="688" y="-651.5" font-family="Courier New" font-size="10.00">+ ReadDataTable()</text>
<text text-anchor="start" x="688" y="-640.5" font-family="Courier New" font-size="10.00">+ NodeToString()</text>
<text text-anchor="start" x="688" y="-629.5" font-family="Courier New" font-size="10.00">+ EdgeToString()</text>
<text text-anchor="start" x="688" y="-618.5" font-family="Courier New" font-size="10.00">+ ToString()</text>
<text text-anchor="start" x="688" y="-607.5" font-family="Courier New" font-size="10.00">&#45; NodeNeighborsToString()</text>
<text text-anchor="start" x="688" y="-596.5" font-family="Courier New" font-size="10.00">&#45; GetEdgeLength()</text>
</a>
</g>
</g>
<!-- Node10&#45;&gt;Node1 -->
<g id="edge10" class="edge"><title>Node10&#45;&gt;Node1</title>
<path fill="none" stroke="#404040" d="M747.52,-589.299C741.676,-558.754 734.961,-523.653 728.087,-487.726"/>
<polygon fill="none" stroke="#404040" points="728.006,-487.302 722.95,-482.16 725.751,-475.516 730.807,-480.657 728.006,-487.302"/>
<text text-anchor="middle" x="756" y="-497" font-family="Courier New" font-size="10.00"> &#45;myCell</text>
</g>
<!-- Node11 -->
<g id="node11" class="node"><title>Node11</title>
<g id="a_node11"><a xlink:title=" ">
<polygon fill="white" stroke="#bfbfbf" points="779,-969.5 779,-1026.5 832,-1026.5 832,-969.5 779,-969.5"/>
<text text-anchor="middle" x="805.5" y="-1014.5" font-family="Courier New" font-size="10.00">static</text>
<polyline fill="none" stroke="#bfbfbf" points="779,-1007.5 832,-1007.5 "/>
<text text-anchor="middle" x="805.5" y="-995.5" font-family="Courier New" font-size="10.00"> </text>
<polyline fill="none" stroke="#bfbfbf" points="779,-988.5 832,-988.5 "/>
<text text-anchor="middle" x="805.5" y="-976.5" font-family="Courier New" font-size="10.00"> </text>
</a>
</g>
</g>
<!-- Node11&#45;&gt;Node10 -->
<g id="edge11" class="edge"><title>Node11&#45;&gt;Node10</title>
<path fill="none" stroke="#404040" d="M801.97,-969.26C797.171,-931.545 788.307,-861.88 780.641,-801.631"/>
<polygon fill="none" stroke="#404040" points="780.64,-801.623 775.914,-796.176 779.125,-789.719 783.85,-795.166 780.64,-801.623"/>
<text text-anchor="middle" x="849" y="-899" font-family="Courier New" font-size="10.00"> &#45;nodeFormatString</text>
<text text-anchor="middle" x="849" y="-888" font-family="Courier New" font-size="10.00">&#45;edgeFormatString</text>
<text text-anchor="middle" x="849" y="-877" font-family="Courier New" font-size="10.00">&#45;cellFormatString</text>
</g>
</g>
</svg>
