<?xml version="1.0" encoding="UTF-8" standalone="no"?>
<!DOCTYPE svg PUBLIC "-//W3C//DTD SVG 1.1//EN"
 "http://www.w3.org/Graphics/SVG/1.1/DTD/svg11.dtd">
<!-- Generated by graphviz version 2.46.0 (20210118.1747)
 -->
<!-- Title: C2M2.NeuronalDynamics.Simulation.SparseSolverTestv1 Pages: 1 -->
<svg width="1491pt" height="1868pt"
 viewBox="0.00 0.00 1491.00 1868.00" xmlns="http://www.w3.org/2000/svg" xmlns:xlink="http://www.w3.org/1999/xlink">
<g id="graph0" class="graph" transform="scale(1 1) rotate(0) translate(4 1864)">
<title>C2M2.NeuronalDynamics.Simulation.SparseSolverTestv1</title>
<polygon fill="white" stroke="transparent" points="-4,4 -4,-1864 1487,-1864 1487,4 -4,4"/>
<!-- Node1 -->
<g id="node1" class="node">
<title>Node1</title>
<g id="a_node1"><a xlink:title="This is the sparse solver class for solving the Hodgkin&#45;Huxley equations for the propagation of actio...">
<polygon fill="#bfbfbf" stroke="black" points="767,-0.5 767,-398.5 982,-398.5 982,-0.5 767,-0.5"/>
<text text-anchor="start" x="775" y="-386.5" font-family="Courier New" font-size="10.00">C2M2.NeuronalDynamics.Simulation.</text>
<text text-anchor="middle" x="874.5" y="-375.5" font-family="Courier New" font-size="10.00">SparseSolverTestv1</text>
<polyline fill="none" stroke="black" points="767,-368.5 982,-368.5 "/>
<text text-anchor="start" x="775" y="-356.5" font-family="Courier New" font-size="10.00">+ vstart</text>
<text text-anchor="start" x="775" y="-345.5" font-family="Courier New" font-size="10.00">+ endTime</text>
<text text-anchor="start" x="775" y="-334.5" font-family="Courier New" font-size="10.00">+ k</text>
<text text-anchor="start" x="775" y="-323.5" font-family="Courier New" font-size="10.00">+ SomaOn</text>
<text text-anchor="start" x="775" y="-312.5" font-family="Courier New" font-size="10.00">&#45; saveMatrices</text>
<text text-anchor="start" x="775" y="-301.5" font-family="Courier New" font-size="10.00">&#45; res</text>
<text text-anchor="start" x="775" y="-290.5" font-family="Courier New" font-size="10.00">&#45; cap</text>
<text text-anchor="start" x="775" y="-279.5" font-family="Courier New" font-size="10.00">&#45; gk</text>
<text text-anchor="start" x="775" y="-268.5" font-family="Courier New" font-size="10.00">&#45; gna</text>
<text text-anchor="start" x="775" y="-257.5" font-family="Courier New" font-size="10.00">&#45; gl</text>
<text text-anchor="start" x="775" y="-246.5" font-family="Courier New" font-size="10.00">&#45; ek</text>
<text text-anchor="start" x="775" y="-235.5" font-family="Courier New" font-size="10.00">&#45; ena</text>
<text text-anchor="start" x="775" y="-224.5" font-family="Courier New" font-size="10.00">&#45; el</text>
<text text-anchor="start" x="775" y="-213.5" font-family="Courier New" font-size="10.00">&#45; ni</text>
<text text-anchor="start" x="775" y="-202.5" font-family="Courier New" font-size="10.00">and 7 more...</text>
<polyline fill="none" stroke="black" points="767,-195.5 982,-195.5 "/>
<text text-anchor="start" x="775" y="-183.5" font-family="Courier New" font-size="10.00">+ GetSimulationTime()</text>
<text text-anchor="start" x="775" y="-172.5" font-family="Courier New" font-size="10.00">+ Get1DValues()</text>
<text text-anchor="start" x="775" y="-161.5" font-family="Courier New" font-size="10.00">+ Set1DValues()</text>
<text text-anchor="start" x="775" y="-150.5" font-family="Courier New" font-size="10.00">+ makeSparseStencils()</text>
<text text-anchor="start" x="775" y="-139.5" font-family="Courier New" font-size="10.00"># PreSolve()</text>
<text text-anchor="start" x="775" y="-128.5" font-family="Courier New" font-size="10.00"># Solve()</text>
<text text-anchor="start" x="775" y="-117.5" font-family="Courier New" font-size="10.00">&#45; InitializeNeuronCell()</text>
<text text-anchor="start" x="775" y="-106.5" font-family="Courier New" font-size="10.00">&#45; reactF()</text>
<text text-anchor="start" x="775" y="-95.5" font-family="Courier New" font-size="10.00">&#45; fN()</text>
<text text-anchor="start" x="775" y="-84.5" font-family="Courier New" font-size="10.00">&#45; fM()</text>
<text text-anchor="start" x="775" y="-73.5" font-family="Courier New" font-size="10.00">&#45; fH()</text>
<text text-anchor="start" x="775" y="-62.5" font-family="Courier New" font-size="10.00">&#45; an()</text>
<text text-anchor="start" x="775" y="-51.5" font-family="Courier New" font-size="10.00">&#45; bn()</text>
<text text-anchor="start" x="775" y="-40.5" font-family="Courier New" font-size="10.00">&#45; am()</text>
<text text-anchor="start" x="775" y="-29.5" font-family="Courier New" font-size="10.00">&#45; bm()</text>
<text text-anchor="start" x="775" y="-18.5" font-family="Courier New" font-size="10.00">&#45; ah()</text>
<text text-anchor="start" x="775" y="-7.5" font-family="Courier New" font-size="10.00">&#45; bh()</text>
</a>
</g>
</g>
<!-- Node2 -->
<g id="node2" class="node">
<title>Node2</title>
<g id="a_node2"><a xlink:href="../../d7/d92/class_c2_m2_1_1_neuronal_dynamics_1_1_simulation_1_1_n_d_simulation.html" target="_top" xlink:title="Provide an interface for 1D neuron&#45;surface simulations to be visualized and interacted with">
<polygon fill="white" stroke="black" points="761,-436.5 761,-911.5 988,-911.5 988,-436.5 761,-436.5"/>
<text text-anchor="middle" x="874.5" y="-899.5" font-family="Courier New" font-size="10.00">NDSimulation</text>
<polyline fill="none" stroke="black" points="761,-892.5 988,-892.5 "/>
<text text-anchor="start" x="769" y="-880.5" font-family="Courier New" font-size="10.00">+ visualize1D</text>
<text text-anchor="start" x="769" y="-869.5" font-family="Courier New" font-size="10.00">+ color1D</text>
<text text-anchor="start" x="769" y="-858.5" font-family="Courier New" font-size="10.00">+ lineWidth1D</text>
<text text-anchor="start" x="769" y="-847.5" font-family="Courier New" font-size="10.00">+ vrnFileName</text>
<text text-anchor="start" x="769" y="-836.5" font-family="Courier New" font-size="10.00">+ hitValue</text>
<text text-anchor="start" x="769" y="-825.5" font-family="Courier New" font-size="10.00">+ clamps</text>
<text text-anchor="start" x="769" y="-814.5" font-family="Courier New" font-size="10.00">+ VisualInflation</text>
<text text-anchor="start" x="769" y="-803.5" font-family="Courier New" font-size="10.00">+ ColliderInflation</text>
<text text-anchor="start" x="769" y="-792.5" font-family="Courier New" font-size="10.00">+ RefinementLevel</text>
<text text-anchor="start" x="769" y="-781.5" font-family="Courier New" font-size="10.00">+ ClampMode</text>
<text text-anchor="start" x="769" y="-770.5" font-family="Courier New" font-size="10.00">+ VrnReader</text>
<text text-anchor="start" x="769" y="-759.5" font-family="Courier New" font-size="10.00">+ Grid1D</text>
<text text-anchor="start" x="769" y="-748.5" font-family="Courier New" font-size="10.00">+ Verts1D</text>
<text text-anchor="start" x="769" y="-737.5" font-family="Courier New" font-size="10.00">+ Grid2D</text>
<text text-anchor="start" x="769" y="-726.5" font-family="Courier New" font-size="10.00">+ NeuronCell</text>
<text text-anchor="start" x="769" y="-715.5" font-family="Courier New" font-size="10.00">+ AverageDendriteRadius</text>
<text text-anchor="start" x="769" y="-704.5" font-family="Courier New" font-size="10.00">+ Map</text>
<text text-anchor="start" x="769" y="-693.5" font-family="Courier New" font-size="10.00">+ Mapping</text>
<text text-anchor="start" x="769" y="-682.5" font-family="Courier New" font-size="10.00">+ Scalars3D</text>
<text text-anchor="start" x="769" y="-671.5" font-family="Courier New" font-size="10.00">&#45; visualInflation</text>
<text text-anchor="start" x="769" y="-660.5" font-family="Courier New" font-size="10.00">&#45; colliderInflation</text>
<text text-anchor="start" x="769" y="-649.5" font-family="Courier New" font-size="10.00">&#45; refinementLevel</text>
<text text-anchor="start" x="769" y="-638.5" font-family="Courier New" font-size="10.00">&#45; meshCache</text>
<text text-anchor="start" x="769" y="-627.5" font-family="Courier New" font-size="10.00">&#45; clampMode</text>
<text text-anchor="start" x="769" y="-616.5" font-family="Courier New" font-size="10.00">&#45; averageDendriteRadius</text>
<text text-anchor="start" x="769" y="-605.5" font-family="Courier New" font-size="10.00">&#45; scalars3D</text>
<polyline fill="none" stroke="black" points="761,-598.5 988,-598.5 "/>
<text text-anchor="start" x="769" y="-586.5" font-family="Courier New" font-size="10.00">+ OnVisualInflationChangeDelegate()</text>
<text text-anchor="start" x="769" y="-575.5" font-family="Courier New" font-size="10.00">+ GetValues()</text>
<text text-anchor="start" x="769" y="-564.5" font-family="Courier New" font-size="10.00">+ SetValues()</text>
<text text-anchor="start" x="769" y="-553.5" font-family="Courier New" font-size="10.00">+ SetValues()</text>
<text text-anchor="start" x="769" y="-542.5" font-family="Courier New" font-size="10.00">+ Set1DValues()</text>
<text text-anchor="start" x="769" y="-531.5" font-family="Courier New" font-size="10.00">+ Get1DValues()</text>
<text text-anchor="start" x="769" y="-520.5" font-family="Courier New" font-size="10.00">+ SwitchColliderMesh()</text>
<text text-anchor="start" x="769" y="-509.5" font-family="Courier New" font-size="10.00">+ SwitchMesh()</text>
<text text-anchor="start" x="769" y="-498.5" font-family="Courier New" font-size="10.00"># OnAwakePre()</text>
<text text-anchor="start" x="769" y="-487.5" font-family="Courier New" font-size="10.00"># OnStart()</text>
<text text-anchor="start" x="769" y="-476.5" font-family="Courier New" font-size="10.00"># BuildVisualization()</text>
<text text-anchor="start" x="769" y="-465.5" font-family="Courier New" font-size="10.00">&#45; CheckMeshCache()</text>
<text text-anchor="start" x="769" y="-454.5" font-family="Courier New" font-size="10.00">&#45; UpdateGrid1D()</text>
<text text-anchor="start" x="769" y="-443.5" font-family="Courier New" font-size="10.00">&#45; Update2DGrid()</text>
</a>
</g>
</g>
<!-- Node2&#45;&gt;Node1 -->
<g id="edge1" class="edge">
<title>Node2&#45;&gt;Node1</title>
<path fill="none" stroke="midnightblue" d="M874.5,-426.31C874.5,-417 874.5,-407.72 874.5,-398.52"/>
<polygon fill="none" stroke="midnightblue" points="871,-426.4 874.5,-436.4 878,-426.4 871,-426.4"/>
</g>
<!-- Node3 -->
<g id="node3" class="node">
<title>Node3</title>
<g id="a_node3"><a xlink:href="../../d6/d2d/class_c2_m2_1_1_simulation_1_1_mesh_simulation.html" target="_top" xlink:title="Simulation of type double[] for visualizing scalar fields on mesh surfaces">
<polygon fill="white" stroke="black" points="224,-970.5 224,-1170.5 379,-1170.5 379,-970.5 224,-970.5"/>
<text text-anchor="middle" x="301.5" y="-1158.5" font-family="Courier New" font-size="10.00">MeshSimulation</text>
<polyline fill="none" stroke="black" points="224,-1151.5 379,-1151.5 "/>
<text text-anchor="start" x="232" y="-1139.5" font-family="Courier New" font-size="10.00">+ gradient</text>
<text text-anchor="start" x="232" y="-1128.5" font-family="Courier New" font-size="10.00">+ globalMax</text>
<text text-anchor="start" x="232" y="-1117.5" font-family="Courier New" font-size="10.00">+ globalMin</text>
<text text-anchor="start" x="232" y="-1106.5" font-family="Courier New" font-size="10.00">+ rulerInitPos</text>
<text text-anchor="start" x="232" y="-1095.5" font-family="Courier New" font-size="10.00">+ rulerInitRot</text>
<text text-anchor="start" x="232" y="-1084.5" font-family="Courier New" font-size="10.00">+ colorLUT</text>
<text text-anchor="start" x="232" y="-1073.5" font-family="Courier New" font-size="10.00">+ VisualMesh</text>
<text text-anchor="start" x="232" y="-1062.5" font-family="Courier New" font-size="10.00">+ ColliderMesh</text>
<text text-anchor="start" x="232" y="-1051.5" font-family="Courier New" font-size="10.00">&#45; visualMesh</text>
<text text-anchor="start" x="232" y="-1040.5" font-family="Courier New" font-size="10.00">&#45; colliderMesh</text>
<text text-anchor="start" x="232" y="-1029.5" font-family="Courier New" font-size="10.00">&#45; mf</text>
<text text-anchor="start" x="232" y="-1018.5" font-family="Courier New" font-size="10.00">&#45; mr</text>
<polyline fill="none" stroke="black" points="224,-1011.5 379,-1011.5 "/>
<text text-anchor="start" x="232" y="-999.5" font-family="Courier New" font-size="10.00"># UpdateVisualization()</text>
<text text-anchor="start" x="232" y="-988.5" font-family="Courier New" font-size="10.00"># OnAwakePost()</text>
<text text-anchor="start" x="232" y="-977.5" font-family="Courier New" font-size="10.00">&#45; UpdateVisualization()</text>
</a>
</g>
</g>
<!-- Node3&#45;&gt;Node2 -->
<g id="edge2" class="edge">
<title>Node3&#45;&gt;Node2</title>
<path fill="none" stroke="midnightblue" d="M386.72,-970.67C386.98,-970.44 387.24,-970.22 387.5,-970 504.27,-871.38 657.65,-784.27 760.81,-730.75"/>
<polygon fill="none" stroke="midnightblue" points="384.35,-968.09 379.18,-977.33 388.99,-973.33 384.35,-968.09"/>
</g>
<!-- Node4 -->
<g id="node4" class="node">
<title>Node4</title>
<g id="a_node4"><a xlink:href="../../db/d39/class_c2_m2_1_1_simulation_1_1_simulation.html" target="_top" xlink:title=" ">
<polygon fill="white" stroke="black" points="0,-1240.5 0,-1539.5 185,-1539.5 185,-1240.5 0,-1240.5"/>
<text text-anchor="start" x="8" y="-1527.5" font-family="Courier New" font-size="10.00">Simulation&lt; double</text>
<text text-anchor="start" x="8" y="-1516.5" font-family="Courier New" font-size="10.00">[], Mesh, VRRaycastableMesh,</text>
<text text-anchor="middle" x="92.5" y="-1505.5" font-family="Courier New" font-size="10.00"> VRGrabbableMesh &gt;</text>
<polyline fill="none" stroke="black" points="0,-1498.5 185,-1498.5 "/>
<text text-anchor="start" x="8" y="-1486.5" font-family="Courier New" font-size="10.00">+ dryRun</text>
<text text-anchor="start" x="8" y="-1475.5" font-family="Courier New" font-size="10.00">+ startOnAwake</text>
<text text-anchor="start" x="8" y="-1464.5" font-family="Courier New" font-size="10.00">+ viz</text>
<text text-anchor="start" x="8" y="-1453.5" font-family="Courier New" font-size="10.00"># mutex</text>
<text text-anchor="start" x="8" y="-1442.5" font-family="Courier New" font-size="10.00">&#45; solveThread</text>
<polyline fill="none" stroke="black" points="0,-1435.5 185,-1435.5 "/>
<text text-anchor="start" x="8" y="-1423.5" font-family="Courier New" font-size="10.00">+ GetValues()</text>
<text text-anchor="start" x="8" y="-1412.5" font-family="Courier New" font-size="10.00">+ Initialize()</text>
<text text-anchor="start" x="8" y="-1401.5" font-family="Courier New" font-size="10.00">+ Update()</text>
<text text-anchor="start" x="8" y="-1390.5" font-family="Courier New" font-size="10.00">+ StartSimulation()</text>
<text text-anchor="start" x="8" y="-1379.5" font-family="Courier New" font-size="10.00">+ StopSimulation()</text>
<text text-anchor="start" x="8" y="-1368.5" font-family="Courier New" font-size="10.00"># BuildVisualization()</text>
<text text-anchor="start" x="8" y="-1357.5" font-family="Courier New" font-size="10.00"># UpdateVisualization()</text>
<text text-anchor="start" x="8" y="-1346.5" font-family="Courier New" font-size="10.00"># Solve()</text>
<text text-anchor="start" x="8" y="-1335.5" font-family="Courier New" font-size="10.00"># PreSolve()</text>
<text text-anchor="start" x="8" y="-1324.5" font-family="Courier New" font-size="10.00"># OnAwakePre()</text>
<text text-anchor="start" x="8" y="-1313.5" font-family="Courier New" font-size="10.00"># OnAwakePost()</text>
<text text-anchor="start" x="8" y="-1302.5" font-family="Courier New" font-size="10.00"># OnStart()</text>
<text text-anchor="start" x="8" y="-1291.5" font-family="Courier New" font-size="10.00"># OnUpdate()</text>
<text text-anchor="start" x="8" y="-1280.5" font-family="Courier New" font-size="10.00"># OnPause()</text>
<text text-anchor="start" x="8" y="-1269.5" font-family="Courier New" font-size="10.00"># OnQuit()</text>
<text text-anchor="start" x="8" y="-1258.5" font-family="Courier New" font-size="10.00">&#45; OnApplicationPause()</text>
<text text-anchor="start" x="8" y="-1247.5" font-family="Courier New" font-size="10.00">&#45; OnApplicationQuit()</text>
</a>
</g>
</g>
<!-- Node4&#45;&gt;Node3 -->
<g id="edge3" class="edge">
<title>Node4&#45;&gt;Node3</title>
<path fill="none" stroke="midnightblue" d="M190.76,-1239.73C206.19,-1216.29 221.8,-1192.58 236.24,-1170.64"/>
<polygon fill="none" stroke="midnightblue" points="187.66,-1238.08 185.08,-1248.35 193.5,-1241.93 187.66,-1238.08"/>
</g>
<!-- Node5 -->
<g id="node5" class="node">
<title>Node5</title>
<g id="a_node5"><a xlink:href="../../da/d4f/class_c2_m2_1_1_visualization_1_1_l_u_t_gradient.html" target="_top" xlink:title="Create a fast and memory&#45;friendly color lookup table from a gradient">
<polygon fill="white" stroke="black" points="203,-1273.5 203,-1506.5 400,-1506.5 400,-1273.5 203,-1273.5"/>
<text text-anchor="middle" x="301.5" y="-1494.5" font-family="Courier New" font-size="10.00">C2M2.Visualization.LUTGradient</text>
<polyline fill="none" stroke="black" points="203,-1487.5 400,-1487.5 "/>
<text text-anchor="start" x="211" y="-1475.5" font-family="Courier New" font-size="10.00">+ extremaMethod</text>
<text text-anchor="start" x="211" y="-1464.5" font-family="Courier New" font-size="10.00">+ globalMax</text>
<text text-anchor="start" x="211" y="-1453.5" font-family="Courier New" font-size="10.00">+ globalMin</text>
<text text-anchor="start" x="211" y="-1442.5" font-family="Courier New" font-size="10.00">+ curMax</text>
<text text-anchor="start" x="211" y="-1431.5" font-family="Courier New" font-size="10.00">+ curMix</text>
<text text-anchor="start" x="211" y="-1420.5" font-family="Courier New" font-size="10.00">+ LutRes</text>
<text text-anchor="start" x="211" y="-1409.5" font-family="Courier New" font-size="10.00">+ Gradient</text>
<text text-anchor="start" x="211" y="-1398.5" font-family="Courier New" font-size="10.00">+ gradientLUT</text>
<text text-anchor="start" x="211" y="-1387.5" font-family="Courier New" font-size="10.00">+ oldMin</text>
<text text-anchor="start" x="211" y="-1376.5" font-family="Courier New" font-size="10.00">+ oldMax</text>
<text text-anchor="start" x="211" y="-1365.5" font-family="Courier New" font-size="10.00">&#45; lutRes</text>
<text text-anchor="start" x="211" y="-1354.5" font-family="Courier New" font-size="10.00">&#45; gradient</text>
<polyline fill="none" stroke="black" points="203,-1347.5 400,-1347.5 "/>
<text text-anchor="start" x="211" y="-1335.5" font-family="Courier New" font-size="10.00">+ Evaluate()</text>
<text text-anchor="start" x="211" y="-1324.5" font-family="Courier New" font-size="10.00">+ Evaluate()</text>
<text text-anchor="start" x="211" y="-1313.5" font-family="Courier New" font-size="10.00">+ EvaluateUnscaled()</text>
<text text-anchor="start" x="211" y="-1302.5" font-family="Courier New" font-size="10.00">+ GetMinMax()</text>
<text text-anchor="start" x="211" y="-1291.5" font-family="Courier New" font-size="10.00">&#45; BuildLUT()</text>
<text text-anchor="start" x="211" y="-1280.5" font-family="Courier New" font-size="10.00">&#45; RescaleArray()</text>
</a>
</g>
</g>
<!-- Node5&#45;&gt;Node3 -->
<g id="edge4" class="edge">
<title>Node5&#45;&gt;Node3</title>
<path fill="none" stroke="#404040" d="M301.5,-1273.48C301.5,-1244 301.5,-1212.37 301.5,-1183.09"/>
<polygon fill="none" stroke="#404040" points="301.5,-1182.7 297.5,-1176.7 301.5,-1170.7 305.5,-1176.7 301.5,-1182.7"/>
<text text-anchor="middle" x="347" y="-1203" font-family="Courier New" font-size="10.00"> +extremaMethod</text>
</g>
<!-- Node6 -->
<g id="node6" class="node">
<title>Node6</title>
<g id="a_node6"><a xlink:title=" ">
<polygon fill="white" stroke="#bfbfbf" points="358,-1648 358,-1705 453,-1705 453,-1648 358,-1648"/>
<text text-anchor="middle" x="405.5" y="-1693" font-family="Courier New" font-size="10.00">MonoBehaviour</text>
<polyline fill="none" stroke="#bfbfbf" points="358,-1686 453,-1686 "/>
<text text-anchor="middle" x="405.5" y="-1674" font-family="Courier New" font-size="10.00"> </text>
<polyline fill="none" stroke="#bfbfbf" points="358,-1667 453,-1667 "/>
<text text-anchor="middle" x="405.5" y="-1655" font-family="Courier New" font-size="10.00"> </text>
</a>
</g>
</g>
<!-- Node6&#45;&gt;Node5 -->
<g id="edge5" class="edge">
<title>Node6&#45;&gt;Node5</title>
<path fill="none" stroke="midnightblue" d="M391.85,-1638.16C379.61,-1604.68 361,-1553.76 343.83,-1506.81"/>
<polygon fill="none" stroke="midnightblue" points="388.71,-1639.77 395.43,-1647.96 395.29,-1637.37 388.71,-1639.77"/>
</g>
<!-- Node16 -->
<g id="node16" class="node">
<title>Node16</title>
<g id="a_node16"><a xlink:href="../../d5/df9/class_c2_m2_1_1_interaction_1_1_raycast_event_manager.html" target="_top" xlink:title="Attach this script to parent gameObject, create one child with one raycast trigger per child....">
<polygon fill="white" stroke="black" points="397,-976 397,-1165 558,-1165 558,-976 397,-976"/>
<text text-anchor="start" x="405" y="-1153" font-family="Courier New" font-size="10.00">C2M2.Interaction.Raycast</text>
<text text-anchor="middle" x="477.5" y="-1142" font-family="Courier New" font-size="10.00">EventManager</text>
<polyline fill="none" stroke="black" points="397,-1135 558,-1135 "/>
<text text-anchor="middle" x="477.5" y="-1123" font-family="Courier New" font-size="10.00"> </text>
<polyline fill="none" stroke="black" points="397,-1116 558,-1116 "/>
<text text-anchor="start" x="405" y="-1104" font-family="Courier New" font-size="10.00">+ TriggerChangeRight()</text>
<text text-anchor="start" x="405" y="-1093" font-family="Courier New" font-size="10.00">+ TriggerChangeLeft()</text>
<text text-anchor="start" x="405" y="-1082" font-family="Courier New" font-size="10.00">+ TriggerChangeBoth()</text>
<text text-anchor="start" x="405" y="-1071" font-family="Courier New" font-size="10.00">+ TriggerEmptyRight()</text>
<text text-anchor="start" x="405" y="-1060" font-family="Courier New" font-size="10.00">+ TriggerEmptyLeft()</text>
<text text-anchor="start" x="405" y="-1049" font-family="Courier New" font-size="10.00">+ TriggerEmptyBoth()</text>
<text text-anchor="start" x="405" y="-1038" font-family="Courier New" font-size="10.00">+ HoverEvent()</text>
<text text-anchor="start" x="405" y="-1027" font-family="Courier New" font-size="10.00">+ HoverEndEvent()</text>
<text text-anchor="start" x="405" y="-1016" font-family="Courier New" font-size="10.00">+ PressEvent()</text>
<text text-anchor="start" x="405" y="-1005" font-family="Courier New" font-size="10.00">+ HoldEvent()</text>
<text text-anchor="start" x="405" y="-994" font-family="Courier New" font-size="10.00">and 7 more...</text>
<text text-anchor="start" x="405" y="-983" font-family="Courier New" font-size="10.00">&#45; Awake()</text>
</a>
</g>
</g>
<!-- Node6&#45;&gt;Node16 -->
<g id="edge16" class="edge">
<title>Node6&#45;&gt;Node16</title>
<path fill="none" stroke="midnightblue" d="M408.11,-1637.91C413.57,-1562.32 427.41,-1386.62 447.5,-1240 450.83,-1215.71 455.13,-1189.58 459.42,-1165.31"/>
<polygon fill="none" stroke="midnightblue" points="404.61,-1637.67 407.39,-1647.9 411.6,-1638.17 404.61,-1637.67"/>
</g>
<!-- Node17 -->
<g id="node17" class="node">
<title>Node17</title>
<g id="a_node17"><a xlink:href="../../d8/d68/class_c2_m2_1_1_interaction_1_1_raycast_press_events.html" target="_top" xlink:title="Store custom events that the corresponding RaycastTriggerManager will invoke">
<polygon fill="white" stroke="black" points="457,-1312 457,-1468 618,-1468 618,-1312 457,-1312"/>
<text text-anchor="start" x="465" y="-1456" font-family="Courier New" font-size="10.00">C2M2.Interaction.Raycast</text>
<text text-anchor="middle" x="537.5" y="-1445" font-family="Courier New" font-size="10.00">PressEvents</text>
<polyline fill="none" stroke="black" points="457,-1438 618,-1438 "/>
<text text-anchor="start" x="465" y="-1426" font-family="Courier New" font-size="10.00">+ OnHover</text>
<text text-anchor="start" x="465" y="-1415" font-family="Courier New" font-size="10.00">+ OnHoverEnd</text>
<text text-anchor="start" x="465" y="-1404" font-family="Courier New" font-size="10.00">+ OnPress</text>
<text text-anchor="start" x="465" y="-1393" font-family="Courier New" font-size="10.00">+ OnHoldPress</text>
<text text-anchor="start" x="465" y="-1382" font-family="Courier New" font-size="10.00">+ OnEndPress</text>
<polyline fill="none" stroke="black" points="457,-1375 618,-1375 "/>
<text text-anchor="start" x="465" y="-1363" font-family="Courier New" font-size="10.00">+ Hover()</text>
<text text-anchor="start" x="465" y="-1352" font-family="Courier New" font-size="10.00">+ EndHover()</text>
<text text-anchor="start" x="465" y="-1341" font-family="Courier New" font-size="10.00">+ Press()</text>
<text text-anchor="start" x="465" y="-1330" font-family="Courier New" font-size="10.00">+ HoldPress()</text>
<text text-anchor="start" x="465" y="-1319" font-family="Courier New" font-size="10.00">+ EndPress()</text>
</a>
</g>
</g>
<!-- Node6&#45;&gt;Node17 -->
<g id="edge19" class="edge">
<title>Node6&#45;&gt;Node17</title>
<path fill="none" stroke="midnightblue" d="M427.99,-1639.32C432.99,-1630.81 438.1,-1621.68 442.5,-1613 466.4,-1565.89 489.78,-1511.38 507.37,-1468.16"/>
<polygon fill="none" stroke="midnightblue" points="424.98,-1637.55 422.87,-1647.93 430.99,-1641.13 424.98,-1637.55"/>
</g>
<!-- Node7 -->
<g id="node7" class="node">
<title>Node7</title>
<g id="a_node7"><a xlink:href="../../da/df6/class_c2_m2_1_1_neuronal_dynamics_1_1_u_g_x_1_1_neuron_cell.html" target="_top" xlink:title=" ">
<polygon fill="white" stroke="black" points="576,-976 576,-1165 749,-1165 749,-976 576,-976"/>
<text text-anchor="start" x="584" y="-1153" font-family="Courier New" font-size="10.00">C2M2.NeuronalDynamics.UGX.</text>
<text text-anchor="middle" x="662.5" y="-1142" font-family="Courier New" font-size="10.00">NeuronCell</text>
<polyline fill="none" stroke="black" points="576,-1135 749,-1135 "/>
<text text-anchor="start" x="584" y="-1123" font-family="Courier New" font-size="10.00">+ nodeData</text>
<text text-anchor="start" x="584" y="-1112" font-family="Courier New" font-size="10.00">+ edges</text>
<text text-anchor="start" x="584" y="-1101" font-family="Courier New" font-size="10.00">+ edgeLengths</text>
<text text-anchor="start" x="584" y="-1090" font-family="Courier New" font-size="10.00">+ boundaryID</text>
<text text-anchor="start" x="584" y="-1079" font-family="Courier New" font-size="10.00">+ somaID</text>
<text text-anchor="start" x="584" y="-1068" font-family="Courier New" font-size="10.00">+ vertCount</text>
<text text-anchor="start" x="584" y="-1057" font-family="Courier New" font-size="10.00">+ edgeCount</text>
<polyline fill="none" stroke="black" points="576,-1050 749,-1050 "/>
<text text-anchor="start" x="584" y="-1038" font-family="Courier New" font-size="10.00">+ NeuronCell()</text>
<text text-anchor="start" x="584" y="-1027" font-family="Courier New" font-size="10.00">+ NodeToString()</text>
<text text-anchor="start" x="584" y="-1016" font-family="Courier New" font-size="10.00">+ EdgeToString()</text>
<text text-anchor="start" x="584" y="-1005" font-family="Courier New" font-size="10.00">+ ToString()</text>
<text text-anchor="start" x="584" y="-994" font-family="Courier New" font-size="10.00">+ GetEdgeLength()</text>
<text text-anchor="start" x="584" y="-983" font-family="Courier New" font-size="10.00">&#45; NodeNeighborsToString()</text>
</a>
</g>
</g>
<!-- Node7&#45;&gt;Node2 -->
<g id="edge6" class="edge">
<title>Node7&#45;&gt;Node2</title>
<path fill="none" stroke="#404040" d="M712.88,-975.76C725.85,-951.61 740.38,-924.58 755.26,-896.89"/>
<polygon fill="none" stroke="#404040" points="755.3,-896.82 754.61,-889.64 760.98,-886.25 761.66,-893.42 755.3,-896.82"/>
<text text-anchor="middle" x="774" y="-938.5" font-family="Courier New" font-size="10.00"> &#45;neuronCell</text>
</g>
<!-- Node8 -->
<g id="node8" class="node">
<title>Node8</title>
<g id="a_node8"><a xlink:title=" ">
<polygon fill="white" stroke="#bfbfbf" points="636,-1361.5 636,-1418.5 689,-1418.5 689,-1361.5 636,-1361.5"/>
<text text-anchor="middle" x="662.5" y="-1406.5" font-family="Courier New" font-size="10.00">static</text>
<polyline fill="none" stroke="#bfbfbf" points="636,-1399.5 689,-1399.5 "/>
<text text-anchor="middle" x="662.5" y="-1387.5" font-family="Courier New" font-size="10.00"> </text>
<polyline fill="none" stroke="#bfbfbf" points="636,-1380.5 689,-1380.5 "/>
<text text-anchor="middle" x="662.5" y="-1368.5" font-family="Courier New" font-size="10.00"> </text>
</a>
</g>
</g>
<!-- Node8&#45;&gt;Node7 -->
<g id="edge7" class="edge">
<title>Node8&#45;&gt;Node7</title>
<path fill="none" stroke="#404040" d="M662.5,-1361.38C662.5,-1320.7 662.5,-1242.48 662.5,-1177.53"/>
<polygon fill="none" stroke="#404040" points="662.5,-1177.16 658.5,-1171.16 662.5,-1165.16 666.5,-1171.16 662.5,-1177.16"/>
<text text-anchor="middle" x="717" y="-1214" font-family="Courier New" font-size="10.00"> &#45;cellFormatString</text>
<text text-anchor="middle" x="717" y="-1203" font-family="Courier New" font-size="10.00">&#45;edgeFormatString</text>
<text text-anchor="middle" x="717" y="-1192" font-family="Courier New" font-size="10.00">&#45;nodeFormatString</text>
</g>
<!-- Node8&#45;&gt;Node16 -->
<g id="edge17" class="edge">
<title>Node8&#45;&gt;Node16</title>
<path fill="none" stroke="#404040" d="M661.22,-1361.33C658.59,-1329.7 650.63,-1277.48 626.5,-1240 619.47,-1229.09 612.83,-1231.03 603.5,-1222 588.31,-1207.31 573.09,-1190.9 558.74,-1174.47"/>
<polygon fill="none" stroke="#404040" points="558.71,-1174.43 551.76,-1172.51 550.86,-1165.35 557.81,-1167.28 558.71,-1174.43"/>
<text text-anchor="middle" x="631" y="-1203" font-family="Courier New" font-size="10.00"> &#45;nullHit</text>
</g>
<!-- Node9 -->
<g id="node9" class="node">
<title>Node9</title>
<g id="a_node9"><a xlink:href="../../db/dbd/struct_c2_m2_1_1_neuronal_dynamics_1_1_simulation_1_1_vert3_d1_d_pair.html" target="_top" xlink:title="Stores two 1D indices and a lambda value for a 3D vertex">
<polygon fill="white" stroke="black" points="767,-1020 767,-1121 982,-1121 982,-1020 767,-1020"/>
<text text-anchor="start" x="775" y="-1109" font-family="Courier New" font-size="10.00">C2M2.NeuronalDynamics.Simulation.</text>
<text text-anchor="middle" x="874.5" y="-1098" font-family="Courier New" font-size="10.00">Vert3D1DPair</text>
<polyline fill="none" stroke="black" points="767,-1091 982,-1091 "/>
<text text-anchor="start" x="775" y="-1079" font-family="Courier New" font-size="10.00">+ v1</text>
<text text-anchor="start" x="775" y="-1068" font-family="Courier New" font-size="10.00">+ v2</text>
<text text-anchor="start" x="775" y="-1057" font-family="Courier New" font-size="10.00">+ lambda</text>
<polyline fill="none" stroke="black" points="767,-1050 982,-1050 "/>
<text text-anchor="start" x="775" y="-1038" font-family="Courier New" font-size="10.00">+ Vert3D1DPair()</text>
<text text-anchor="start" x="775" y="-1027" font-family="Courier New" font-size="10.00">+ ToString()</text>
</a>
</g>
</g>
<!-- Node9&#45;&gt;Node2 -->
<g id="edge8" class="edge">
<title>Node9&#45;&gt;Node2</title>
<path fill="none" stroke="#404040" d="M874.5,-1019.94C874.5,-994.09 874.5,-960.33 874.5,-924.06"/>
<polygon fill="none" stroke="#404040" points="874.5,-923.67 870.5,-917.67 874.5,-911.67 878.5,-917.67 874.5,-923.67"/>
<text text-anchor="middle" x="890" y="-938.5" font-family="Courier New" font-size="10.00"> &#45;map</text>
</g>
<!-- Node10 -->
<g id="node10" class="node">
<title>Node10</title>
<g id="a_node10"><a xlink:title=" ">
<polygon fill="white" stroke="#bfbfbf" points="1000,-1042 1000,-1099 1041,-1099 1041,-1042 1000,-1042"/>
<text text-anchor="middle" x="1020.5" y="-1087" font-family="Courier New" font-size="10.00">C2M2</text>
<polyline fill="none" stroke="#bfbfbf" points="1000,-1080 1041,-1080 "/>
<text text-anchor="middle" x="1020.5" y="-1068" font-family="Courier New" font-size="10.00"> </text>
<polyline fill="none" stroke="#bfbfbf" points="1000,-1061 1041,-1061 "/>
<text text-anchor="middle" x="1020.5" y="-1049" font-family="Courier New" font-size="10.00"> </text>
</a>
</g>
</g>
<!-- Node10&#45;&gt;Node2 -->
<g id="edge9" class="edge">
<title>Node10&#45;&gt;Node2</title>
<path fill="none" stroke="#404040" d="M1012.82,-1041.85C1007.09,-1021.78 998.83,-994.04 990.5,-970 985.21,-954.73 979.6,-939.08 973.82,-923.34"/>
<polygon fill="none" stroke="#404040" points="973.74,-923.12 967.91,-918.88 969.59,-911.86 975.42,-916.11 973.74,-923.12"/>
<text text-anchor="middle" x="1007" y="-944" font-family="Courier New" font-size="10.00"> &#45;grid1D</text>
<text text-anchor="middle" x="1007" y="-933" font-family="Courier New" font-size="10.00">&#45;grid2D</text>
</g>
<!-- Node11 -->
<g id="node11" class="node">
<title>Node11</title>
<g id="a_node11"><a xlink:href="../../dd/d2a/struct_c2_m2_1_1_neuronal_dynamics_1_1_u_g_x_1_1_mapping_info.html" target="_top" xlink:title="Encapsulates the grids and mapping data">
<polygon fill="white" stroke="black" points="1059,-1025.5 1059,-1115.5 1232,-1115.5 1232,-1025.5 1059,-1025.5"/>
<text text-anchor="start" x="1067" y="-1103.5" font-family="Courier New" font-size="10.00">C2M2.NeuronalDynamics.UGX.</text>
<text text-anchor="middle" x="1145.5" y="-1092.5" font-family="Courier New" font-size="10.00">MappingInfo</text>
<polyline fill="none" stroke="black" points="1059,-1085.5 1232,-1085.5 "/>
<text text-anchor="start" x="1067" y="-1073.5" font-family="Courier New" font-size="10.00">+ ModelGeometry</text>
<text text-anchor="start" x="1067" y="-1062.5" font-family="Courier New" font-size="10.00">+ SurfaceGeometry</text>
<text text-anchor="start" x="1067" y="-1051.5" font-family="Courier New" font-size="10.00">+ Data</text>
<polyline fill="none" stroke="black" points="1059,-1044.5 1232,-1044.5 "/>
<text text-anchor="start" x="1067" y="-1032.5" font-family="Courier New" font-size="10.00">+ MappingInfo()</text>
</a>
</g>
</g>
<!-- Node11&#45;&gt;Node2 -->
<g id="edge10" class="edge">
<title>Node11&#45;&gt;Node2</title>
<path fill="none" stroke="#404040" d="M1115.2,-1025.39C1085.84,-982.65 1039.36,-915 995.05,-850.48"/>
<polygon fill="none" stroke="#404040" points="995.04,-850.47 988.34,-847.79 988.24,-840.58 994.94,-843.26 995.04,-850.47"/>
<text text-anchor="middle" x="1086" y="-938.5" font-family="Courier New" font-size="10.00"> &#45;mapping</text>
</g>
<!-- Node12 -->
<g id="node12" class="node">
<title>Node12</title>
<g id="a_node12"><a xlink:href="../../d1/d08/class_c2_m2_1_1_neuronal_dynamics_1_1_visualization_1_1_v_r_n_1_1_vrn_reader.html" target="_top" xlink:title=" ">
<polygon fill="white" stroke="black" points="1250,-1003.5 1250,-1137.5 1483,-1137.5 1483,-1003.5 1250,-1003.5"/>
<text text-anchor="start" x="1258" y="-1125.5" font-family="Courier New" font-size="10.00">C2M2.NeuronalDynamics.Visualization.</text>
<text text-anchor="middle" x="1366.5" y="-1114.5" font-family="Courier New" font-size="10.00">VRN.VrnReader</text>
<polyline fill="none" stroke="black" points="1250,-1107.5 1483,-1107.5 "/>
<text text-anchor="start" x="1258" y="-1095.5" font-family="Courier New" font-size="10.00">&#45; fileName</text>
<text text-anchor="start" x="1258" y="-1084.5" font-family="Courier New" font-size="10.00">&#45; loaded</text>
<polyline fill="none" stroke="black" points="1250,-1077.5 1483,-1077.5 "/>
<text text-anchor="start" x="1258" y="-1065.5" font-family="Courier New" font-size="10.00">+ List()</text>
<text text-anchor="start" x="1258" y="-1054.5" font-family="Courier New" font-size="10.00">+ ReadUGX()</text>
<text text-anchor="start" x="1258" y="-1043.5" font-family="Courier New" font-size="10.00">+ Retrieve1DMeshName()</text>
<text text-anchor="start" x="1258" y="-1032.5" font-family="Courier New" font-size="10.00">+ Retrieve2DMeshName()</text>
<text text-anchor="start" x="1258" y="-1021.5" font-family="Courier New" font-size="10.00">+ VrnReader()</text>
<text text-anchor="start" x="1258" y="-1010.5" font-family="Courier New" font-size="10.00">&#45; Load()</text>
</a>
</g>
</g>
<!-- Node12&#45;&gt;Node2 -->
<g id="edge11" class="edge">
<title>Node12&#45;&gt;Node2</title>
<path fill="none" stroke="#404040" d="M1284.15,-1003.47C1205.81,-940.66 1086.96,-845.35 997.41,-773.55"/>
<polygon fill="none" stroke="#404040" points="997.38,-773.53 990.2,-772.9 988.02,-766.02 995.2,-766.65 997.38,-773.53"/>
<text text-anchor="middle" x="1241" y="-938.5" font-family="Courier New" font-size="10.00"> &#45;vrnReader</text>
</g>
<!-- Node13 -->
<g id="node13" class="node">
<title>Node13</title>
<g id="a_node13"><a xlink:href="../../d9/d5c/class_c2_m2_1_1_neuronal_dynamics_1_1_visualization_1_1_v_r_n_1_1_vrn_reader_1_1_geometry.html" target="_top" xlink:title="Stores 1D and associated 2D geometries in the member geom1d">
<polygon fill="white" stroke="black" points="1250,-1356 1250,-1424 1483,-1424 1483,-1356 1250,-1356"/>
<text text-anchor="start" x="1258" y="-1412" font-family="Courier New" font-size="10.00">C2M2.NeuronalDynamics.Visualization.</text>
<text text-anchor="middle" x="1366.5" y="-1401" font-family="Courier New" font-size="10.00">VRN.VrnReader.Geometry</text>
<polyline fill="none" stroke="black" points="1250,-1394 1483,-1394 "/>
<text text-anchor="middle" x="1366.5" y="-1382" font-family="Courier New" font-size="10.00"> </text>
<polyline fill="none" stroke="black" points="1250,-1375 1483,-1375 "/>
<text text-anchor="start" x="1258" y="-1363" font-family="Courier New" font-size="10.00">+ Geometry()</text>
</a>
</g>
</g>
<!-- Node13&#45;&gt;Node12 -->
<g id="edge12" class="edge">
<title>Node13&#45;&gt;Node12</title>
<path fill="none" stroke="#404040" d="M1366.5,-1355.92C1366.5,-1307.48 1366.5,-1215.81 1366.5,-1149.61"/>
<polygon fill="none" stroke="#404040" points="1366.5,-1149.57 1362.5,-1143.57 1366.5,-1137.57 1370.5,-1143.57 1366.5,-1149.57"/>
<text text-anchor="middle" x="1397" y="-1203" font-family="Courier New" font-size="10.00"> &#45;geometry</text>
</g>
<!-- Node14 -->
<g id="node14" class="node">
<title>Node14</title>
<g id="a_node14"><a xlink:href="../../dd/df0/struct_c2_m2_1_1_neuronal_dynamics_1_1_visualization_1_1_v_r_n_1_1_vrn_reader_1_1_geom1d.html" target="_top" xlink:title="Stores the 1D geometries by name, refinement and a description Inflations are attached to the 1D geom...">
<polygon fill="white" stroke="black" points="1250,-1631.5 1250,-1721.5 1483,-1721.5 1483,-1631.5 1250,-1631.5"/>
<text text-anchor="start" x="1258" y="-1709.5" font-family="Courier New" font-size="10.00">C2M2.NeuronalDynamics.Visualization.</text>
<text text-anchor="middle" x="1366.5" y="-1698.5" font-family="Courier New" font-size="10.00">VRN.VrnReader.Geom1d</text>
<polyline fill="none" stroke="black" points="1250,-1691.5 1483,-1691.5 "/>
<text text-anchor="start" x="1258" y="-1679.5" font-family="Courier New" font-size="10.00">+ name</text>
<text text-anchor="start" x="1258" y="-1668.5" font-family="Courier New" font-size="10.00">+ refinement</text>
<text text-anchor="start" x="1258" y="-1657.5" font-family="Courier New" font-size="10.00">+ description</text>
<polyline fill="none" stroke="black" points="1250,-1650.5 1483,-1650.5 "/>
<text text-anchor="start" x="1258" y="-1638.5" font-family="Courier New" font-size="10.00">+ Geom1d()</text>
</a>
</g>
</g>
<!-- Node14&#45;&gt;Node13 -->
<g id="edge13" class="edge">
<title>Node14&#45;&gt;Node13</title>
<path fill="none" stroke="#404040" d="M1366.5,-1631.36C1366.5,-1578.33 1366.5,-1489.84 1366.5,-1436.3"/>
<polygon fill="none" stroke="#404040" points="1366.5,-1436.13 1362.5,-1430.13 1366.5,-1424.13 1370.5,-1430.13 1366.5,-1436.13"/>
<text text-anchor="middle" x="1391" y="-1583" font-family="Courier New" font-size="10.00"> +geom1d</text>
</g>
<!-- Node15 -->
<g id="node15" class="node">
<title>Node15</title>
<g id="a_node15"><a xlink:href="../../d8/daf/struct_c2_m2_1_1_neuronal_dynamics_1_1_visualization_1_1_v_r_n_1_1_vrn_reader_1_1_geom2d.html" target="_top" xlink:title="Stores the 2d geometries by name, inflation (factor), and description">
<polygon fill="white" stroke="black" points="1250,-1769.5 1250,-1859.5 1483,-1859.5 1483,-1769.5 1250,-1769.5"/>
<text text-anchor="start" x="1258" y="-1847.5" font-family="Courier New" font-size="10.00">C2M2.NeuronalDynamics.Visualization.</text>
<text text-anchor="middle" x="1366.5" y="-1836.5" font-family="Courier New" font-size="10.00">VRN.VrnReader.Geom2d</text>
<polyline fill="none" stroke="black" points="1250,-1829.5 1483,-1829.5 "/>
<text text-anchor="start" x="1258" y="-1817.5" font-family="Courier New" font-size="10.00">+ inflation</text>
<text text-anchor="start" x="1258" y="-1806.5" font-family="Courier New" font-size="10.00">+ name</text>
<text text-anchor="start" x="1258" y="-1795.5" font-family="Courier New" font-size="10.00">+ description</text>
<polyline fill="none" stroke="black" points="1250,-1788.5 1483,-1788.5 "/>
<text text-anchor="start" x="1258" y="-1776.5" font-family="Courier New" font-size="10.00">+ Geom2d()</text>
</a>
</g>
</g>
<!-- Node15&#45;&gt;Node14 -->
<g id="edge14" class="edge">
<title>Node15&#45;&gt;Node14</title>
<path fill="none" stroke="#404040" d="M1366.5,-1769.34C1366.5,-1758.06 1366.5,-1745.78 1366.5,-1733.97"/>
<polygon fill="none" stroke="#404040" points="1366.5,-1733.9 1362.5,-1727.9 1366.5,-1721.9 1370.5,-1727.9 1366.5,-1733.9"/>
<text text-anchor="middle" x="1403" y="-1743" font-family="Courier New" font-size="10.00"> +inflations</text>
</g>
<!-- Node16&#45;&gt;Node2 -->
<g id="edge15" class="edge">
<title>Node16&#45;&gt;Node2</title>
<path fill="none" stroke="#404040" d="M558.22,-978.67C560.99,-975.73 563.76,-972.83 566.5,-970 626.09,-908.34 694.79,-842.1 752.17,-788.04"/>
<polygon fill="none" stroke="#404040" points="752.18,-788.04 753.8,-781.01 760.92,-779.82 759.29,-786.84 752.18,-788.04"/>
<text text-anchor="middle" x="648" y="-938.5" font-family="Courier New" font-size="10.00"> &#45;raycastManager</text>
</g>
<!-- Node17&#45;&gt;Node16 -->
<g id="edge18" class="edge">
<title>Node17&#45;&gt;Node16</title>
<path fill="none" stroke="#404040" d="M506.92,-1311.6C497.3,-1283.79 487.81,-1251.9 482.5,-1222 479.94,-1207.58 478.26,-1192.26 477.2,-1177.13"/>
<polygon fill="none" stroke="#404040" points="477.19,-1177.04 472.84,-1171.29 476.48,-1165.06 480.83,-1170.81 477.19,-1177.04"/>
<text text-anchor="middle" x="522" y="-1214" font-family="Courier New" font-size="10.00"> +leftTrigger</text>
<text text-anchor="middle" x="522" y="-1203" font-family="Courier New" font-size="10.00">+rightTrigger</text>
<text text-anchor="middle" x="522" y="-1192" font-family="Courier New" font-size="10.00">&#45;emptyTrigger</text>
</g>
<!-- Node18 -->
<g id="node18" class="node">
<title>Node18</title>
<g id="a_node18"><a xlink:href="../../d2/d43/class_c2_m2_1_1_interaction_1_1_raycast_press_events_1_1_raycast_hit_event.html" target="_top" xlink:title=" ">
<polygon fill="white" stroke="black" points="471,-1642.5 471,-1710.5 650,-1710.5 650,-1642.5 471,-1642.5"/>
<text text-anchor="start" x="479" y="-1698.5" font-family="Courier New" font-size="10.00">C2M2.Interaction.Raycast</text>
<text text-anchor="middle" x="560.5" y="-1687.5" font-family="Courier New" font-size="10.00">PressEvents.RaycastHitEvent</text>
<polyline fill="none" stroke="black" points="471,-1680.5 650,-1680.5 "/>
<text text-anchor="middle" x="560.5" y="-1668.5" font-family="Courier New" font-size="10.00"> </text>
<polyline fill="none" stroke="black" points="471,-1661.5 650,-1661.5 "/>
<text text-anchor="middle" x="560.5" y="-1649.5" font-family="Courier New" font-size="10.00"> </text>
</a>
</g>
</g>
<!-- Node18&#45;&gt;Node17 -->
<g id="edge20" class="edge">
<title>Node18&#45;&gt;Node17</title>
<path fill="none" stroke="#404040" d="M557.82,-1642.31C554.63,-1602.86 549.18,-1535.44 544.72,-1480.36"/>
<polygon fill="none" stroke="#404040" points="544.7,-1480.05 540.23,-1474.39 543.73,-1468.09 548.2,-1473.75 544.7,-1480.05"/>
<text text-anchor="middle" x="592" y="-1605" font-family="Courier New" font-size="10.00"> &#45;onEndPress</text>
<text text-anchor="middle" x="592" y="-1594" font-family="Courier New" font-size="10.00">&#45;onHoldPress</text>
<text text-anchor="middle" x="592" y="-1583" font-family="Courier New" font-size="10.00">&#45;onHover</text>
<text text-anchor="middle" x="592" y="-1572" font-family="Courier New" font-size="10.00">&#45;onHoverEnd</text>
<text text-anchor="middle" x="592" y="-1561" font-family="Courier New" font-size="10.00">&#45;onPress</text>
</g>
<!-- Node19 -->
<g id="node19" class="node">
<title>Node19</title>
<g id="a_node19"><a xlink:title=" ">
<polygon fill="white" stroke="#bfbfbf" points="480,-1786 480,-1843 641,-1843 641,-1786 480,-1786"/>
<text text-anchor="middle" x="560.5" y="-1831" font-family="Courier New" font-size="10.00">UnityEvent&lt; RaycastHit &gt;</text>
<polyline fill="none" stroke="#bfbfbf" points="480,-1824 641,-1824 "/>
<text text-anchor="middle" x="560.5" y="-1812" font-family="Courier New" font-size="10.00"> </text>
<polyline fill="none" stroke="#bfbfbf" points="480,-1805 641,-1805 "/>
<text text-anchor="middle" x="560.5" y="-1793" font-family="Courier New" font-size="10.00"> </text>
</a>
</g>
</g>
<!-- Node19&#45;&gt;Node18 -->
<g id="edge21" class="edge">
<title>Node19&#45;&gt;Node18</title>
<path fill="none" stroke="midnightblue" d="M560.5,-1775.78C560.5,-1755.38 560.5,-1730.41 560.5,-1710.75"/>
<polygon fill="none" stroke="midnightblue" points="557,-1775.98 560.5,-1785.98 564,-1775.98 557,-1775.98"/>
</g>
</g>
</svg>
