<?xml version="1.0" encoding="UTF-8" standalone="no"?>
<!DOCTYPE svg PUBLIC "-//W3C//DTD SVG 1.1//EN"
 "http://www.w3.org/Graphics/SVG/1.1/DTD/svg11.dtd">
<!-- Generated by graphviz version 2.38.0 (20140413.2041)
 -->
<!-- Title: C2M2.Simulation.Simulation&lt; ValueType &gt; Pages: 1 -->
<!--zoomable 741 -->
<svg id="main" version="1.1" xmlns="http://www.w3.org/2000/svg" xmlns:xlink="http://www.w3.org/1999/xlink" xml:space="preserve" onload="init(evt)">
<style type="text/css"><![CDATA[
.edge:hover path { stroke: red; }
.edge:hover polygon { stroke: red; fill: red; }
]]></style>
<script type="text/javascript"><![CDATA[
var edges = document.getElementsByTagName('g');
if (edges && edges.length) {
  for (var i=0;i<edges.length;i++) {
    if (edges[i].id.substr(0,4)=='edge') {
      edges[i].setAttribute('class','edge');
    }
  }
}
]]></script>
        <defs>
                <circle id="rim" cx="0" cy="0" r="7"/>
                <circle id="rim2" cx="0" cy="0" r="3.5"/>
                <g id="zoomPlus">
                        <use xlink:href="#rim" fill="#404040">
                                <set attributeName="fill" to="#808080" begin="zoomplus.mouseover" end="zoomplus.mouseout"/>
                        </use>
                        <path d="M-4,0h8M0,-4v8" fill="none" stroke="white" stroke-width="1.5" pointer-events="none"/>
                </g>
                <g id="zoomMin">
                        <use xlink:href="#rim" fill="#404040">
                                <set attributeName="fill" to="#808080" begin="zoomminus.mouseover" end="zoomminus.mouseout"/>
                        </use>
                        <path d="M-4,0h8" fill="none" stroke="white" stroke-width="1.5" pointer-events="none"/>
                </g>
                <g id="dirArrow">
                        <path fill="none" stroke="white" stroke-width="1.5" d="M0,-3.0v7 M-2.5,-0.5L0,-3.0L2.5,-0.5"/>
                </g>
               <g id="resetDef">
                       <use xlink:href="#rim2" fill="#404040">
                               <set attributeName="fill" to="#808080" begin="reset.mouseover" end="reset.mouseout"/>
                       </use>
               </g>
        </defs>

<script type="text/javascript">
var viewWidth = 387;
var viewHeight = 741;
var sectionId = 'dynsection-1';
</script>
<script xlink:href="../../svgpan.js"/>
<svg id="graph" class="graph">
<g id="viewport">
<title>C2M2.Simulation.Simulation&lt; ValueType &gt;</title>
<polygon fill="white" stroke="none" points="-4,4 -4,-737 383,-737 383,4 -4,4"/>
<!-- Node1 -->
<g id="node1" class="node"><title>Node1</title>
<g id="a_node1"><a xlink:title="Provides an interface for simulations using a general data type T">
<polygon fill="#bfbfbf" stroke="black" points="0,-0.5 0,-222.5 173,-222.5 173,-0.5 0,-0.5"/>
<text text-anchor="start" x="8" y="-210.5" font-family="Courier New" font-size="10.00">C2M2.Simulation.Simulation</text>
<text text-anchor="middle" x="86.5" y="-199.5" font-family="Courier New" font-size="10.00">&lt; ValueType &gt;</text>
<polyline fill="none" stroke="black" points="0,-192.5 173,-192.5 "/>
<text text-anchor="start" x="8" y="-180.5" font-family="Courier New" font-size="10.00">+ startOnAwake</text>
<text text-anchor="start" x="8" y="-169.5" font-family="Courier New" font-size="10.00"># mutex</text>
<text text-anchor="start" x="8" y="-158.5" font-family="Courier New" font-size="10.00">&#45; solveThread</text>
<polyline fill="none" stroke="black" points="0,-151.5 173,-151.5 "/>
<text text-anchor="start" x="8" y="-139.5" font-family="Courier New" font-size="10.00">+ GetValues()</text>
<text text-anchor="start" x="8" y="-128.5" font-family="Courier New" font-size="10.00">+ Awake()</text>
<text text-anchor="start" x="8" y="-117.5" font-family="Courier New" font-size="10.00">+ Start()</text>
<text text-anchor="start" x="8" y="-106.5" font-family="Courier New" font-size="10.00">+ Update()</text>
<text text-anchor="start" x="8" y="-95.5" font-family="Courier New" font-size="10.00">+ StartSimulation()</text>
<text text-anchor="start" x="8" y="-84.5" font-family="Courier New" font-size="10.00">+ StopSimulation()</text>
<text text-anchor="start" x="8" y="-73.5" font-family="Courier New" font-size="10.00"># UpdateVisualization()</text>
<text text-anchor="start" x="8" y="-62.5" font-family="Courier New" font-size="10.00"># OnAwake()</text>
<text text-anchor="start" x="8" y="-51.5" font-family="Courier New" font-size="10.00"># OnStart()</text>
<text text-anchor="start" x="8" y="-40.5" font-family="Courier New" font-size="10.00"># OnUpdate()</text>
<text text-anchor="start" x="8" y="-29.5" font-family="Courier New" font-size="10.00"># Solve()</text>
<text text-anchor="start" x="8" y="-18.5" font-family="Courier New" font-size="10.00">&#45; OnApplicationPause()</text>
<text text-anchor="start" x="8" y="-7.5" font-family="Courier New" font-size="10.00">&#45; OnApplicationQuit()</text>
</a>
</g>
</g>
<!-- Node2 -->
<g id="node2" class="node"><title>Node2</title>
<g id="a_node2"><a xlink:href="../../dc/daa/class_c2_m2_1_1_simulation_1_1_interactable.html" target="_top" xlink:title="Manages interaction input to simulations">
<polygon fill="white" stroke="black" points="27,-260.5 27,-328.5 146,-328.5 146,-260.5 27,-260.5"/>
<text text-anchor="middle" x="86.5" y="-316.5" font-family="Courier New" font-size="10.00">Interactable</text>
<polyline fill="none" stroke="black" points="27,-309.5 146,-309.5 "/>
<text text-anchor="start" x="35" y="-297.5" font-family="Courier New" font-size="10.00">+ interactionType</text>
<text text-anchor="start" x="35" y="-286.5" font-family="Courier New" font-size="10.00">+ SimHeater</text>
<polyline fill="none" stroke="black" points="27,-279.5 146,-279.5 "/>
<text text-anchor="start" x="35" y="-267.5" font-family="Courier New" font-size="10.00">+ SetValues()</text>
</a>
</g>
</g>
<!-- Node2&#45;&gt;Node1 -->
<g id="edge1" class="edge"><title>Node2&#45;&gt;Node1</title>
<path fill="none" stroke="midnightblue" d="M86.5,-250.292C86.5,-241.742 86.5,-232.408 86.5,-222.759"/>
<polygon fill="none" stroke="midnightblue" points="83.0001,-250.302 86.5,-260.302 90.0001,-250.302 83.0001,-250.302"/>
</g>
<!-- Node3 -->
<g id="node3" class="node"><title>Node3</title>
<g id="a_node3"><a xlink:title=" ">
<polygon fill="white" stroke="#bfbfbf" points="98,-675.5 98,-732.5 193,-732.5 193,-675.5 98,-675.5"/>
<text text-anchor="middle" x="145.5" y="-720.5" font-family="Courier New" font-size="10.00">MonoBehaviour</text>
<polyline fill="none" stroke="#bfbfbf" points="98,-713.5 193,-713.5 "/>
<text text-anchor="middle" x="145.5" y="-701.5" font-family="Courier New" font-size="10.00"> </text>
<polyline fill="none" stroke="#bfbfbf" points="98,-694.5 193,-694.5 "/>
<text text-anchor="middle" x="145.5" y="-682.5" font-family="Courier New" font-size="10.00"> </text>
</a>
</g>
</g>
<!-- Node3&#45;&gt;Node2 -->
<g id="edge2" class="edge"><title>Node3&#45;&gt;Node2</title>
<path fill="none" stroke="midnightblue" d="M122.979,-666.258C118.432,-657.302 114.218,-647.545 111.5,-638 80.2331,-528.192 81.7551,-391.013 84.5068,-328.858"/>
<polygon fill="none" stroke="midnightblue" points="119.989,-668.089 127.79,-675.258 126.162,-664.789 119.989,-668.089"/>
</g>
<!-- Node4 -->
<g id="node4" class="node"><title>Node4</title>
<g id="a_node4"><a xlink:href="../../d4/dfc/class_c2_m2_1_1_interaction_1_1_raycast_sim_heater.html" target="_top" xlink:title=" ">
<polygon fill="white" stroke="black" points="116,-376.5 116,-477.5 277,-477.5 277,-376.5 116,-376.5"/>
<text text-anchor="start" x="124" y="-465.5" font-family="Courier New" font-size="10.00">C2M2.Interaction.Raycast</text>
<text text-anchor="middle" x="196.5" y="-454.5" font-family="Courier New" font-size="10.00">SimHeater</text>
<polyline fill="none" stroke="black" points="116,-447.5 277,-447.5 "/>
<text text-anchor="middle" x="196.5" y="-435.5" font-family="Courier New" font-size="10.00"> </text>
<polyline fill="none" stroke="black" points="116,-428.5 277,-428.5 "/>
<text text-anchor="start" x="124" y="-416.5" font-family="Courier New" font-size="10.00">+ Hit()</text>
<text text-anchor="start" x="124" y="-405.5" font-family="Courier New" font-size="10.00"># OnAwake()</text>
<text text-anchor="start" x="124" y="-394.5" font-family="Courier New" font-size="10.00"># HitMethod()</text>
<text text-anchor="start" x="124" y="-383.5" font-family="Courier New" font-size="10.00">&#45; Awake()</text>
</a>
</g>
</g>
<!-- Node3&#45;&gt;Node4 -->
<g id="edge4" class="edge"><title>Node3&#45;&gt;Node4</title>
<path fill="none" stroke="midnightblue" d="M131.221,-665.59C128.435,-656.677 125.935,-647.107 124.5,-638 116.685,-588.39 108.737,-572.684 124.5,-525 130.062,-508.174 139.797,-491.887 150.344,-477.617"/>
<polygon fill="none" stroke="midnightblue" points="127.975,-666.923 134.446,-675.312 134.619,-664.719 127.975,-666.923"/>
</g>
<!-- Node5 -->
<g id="node5" class="node"><title>Node5</title>
<g id="a_node5"><a xlink:href="../../d5/d84/class_c2_m2_1_1_interaction_1_1_v_r_1_1_v_r_raycastable.html" target="_top" xlink:title=" ">
<polygon fill="white" stroke="black" points="134,-525.5 134,-637.5 349,-637.5 349,-525.5 134,-525.5"/>
<text text-anchor="middle" x="241.5" y="-625.5" font-family="Courier New" font-size="10.00">C2M2.Interaction.VR.VRRaycastable</text>
<polyline fill="none" stroke="black" points="134,-618.5 349,-618.5 "/>
<text text-anchor="start" x="142" y="-606.5" font-family="Courier New" font-size="10.00">+ raycastTargetObject</text>
<text text-anchor="start" x="142" y="-595.5" font-family="Courier New" font-size="10.00">+ ColliderMesh</text>
<text text-anchor="start" x="142" y="-584.5" font-family="Courier New" font-size="10.00">&#45; colliderMesh</text>
<polyline fill="none" stroke="black" points="134,-577.5 349,-577.5 "/>
<text text-anchor="start" x="142" y="-565.5" font-family="Courier New" font-size="10.00">&#45; Awake()</text>
<text text-anchor="start" x="142" y="-554.5" font-family="Courier New" font-size="10.00">&#45; BuildChildObject()</text>
<text text-anchor="start" x="142" y="-543.5" font-family="Courier New" font-size="10.00">&#45; BuildRigidBody()</text>
<text text-anchor="start" x="142" y="-532.5" font-family="Courier New" font-size="10.00">&#45; BuildMeshCollider()</text>
</a>
</g>
</g>
<!-- Node3&#45;&gt;Node5 -->
<g id="edge6" class="edge"><title>Node3&#45;&gt;Node5</title>
<path fill="none" stroke="midnightblue" d="M173.863,-667.399C181.326,-658.03 189.555,-647.701 197.627,-637.569"/>
<polygon fill="none" stroke="midnightblue" points="171.018,-665.353 167.524,-675.355 176.493,-669.714 171.018,-665.353"/>
</g>
<!-- Node6 -->
<g id="node6" class="node"><title>Node6</title>
<g id="a_node6"><a xlink:href="../../dc/daa/class_c2_m2_1_1_simulation_1_1_interactable.html" target="_top" xlink:title="Manages interaction input to simulations">
<polygon fill="white" stroke="black" points="194,-260.5 194,-328.5 379,-328.5 379,-260.5 194,-260.5"/>
<text text-anchor="middle" x="286.5" y="-316.5" font-family="Courier New" font-size="10.00">C2M2.Simulation.Interactable</text>
<polyline fill="none" stroke="black" points="194,-309.5 379,-309.5 "/>
<text text-anchor="start" x="202" y="-297.5" font-family="Courier New" font-size="10.00">+ interactionType</text>
<text text-anchor="start" x="202" y="-286.5" font-family="Courier New" font-size="10.00">+ SimHeater</text>
<polyline fill="none" stroke="black" points="194,-279.5 379,-279.5 "/>
<text text-anchor="start" x="202" y="-267.5" font-family="Courier New" font-size="10.00">+ SetValues()</text>
</a>
</g>
</g>
<!-- Node3&#45;&gt;Node6 -->
<g id="edge8" class="edge"><title>Node3&#45;&gt;Node6</title>
<path fill="none" stroke="midnightblue" d="M203.251,-693.282C259.731,-682.462 339.89,-663.136 358.5,-638 379.51,-609.622 362.894,-377.633 347.5,-347 344.139,-340.313 339.482,-334.155 334.225,-328.601"/>
<polygon fill="none" stroke="midnightblue" points="202.536,-689.855 193.352,-695.139 203.826,-696.735 202.536,-689.855"/>
</g>
<!-- Node4&#45;&gt;Node2 -->
<g id="edge3" class="edge"><title>Node4&#45;&gt;Node2</title>
<path fill="none" stroke="#404040" d="M134.636,-376.148C128.867,-370.323 123.368,-364.228 118.5,-358 114.075,-352.34 109.992,-345.973 106.327,-339.525"/>
<polygon fill="none" stroke="#404040" points="106.207,-339.3 99.8568,-335.883 100.568,-328.707 106.918,-332.124 106.207,-339.3"/>
<text text-anchor="middle" x="152" y="-350" font-family="Courier New" font-size="10.00"> #simHeater</text>
</g>
<!-- Node4&#45;&gt;Node6 -->
<g id="edge9" class="edge"><title>Node4&#45;&gt;Node6</title>
<path fill="none" stroke="#404040" d="M186.288,-376.255C186.418,-366.043 188.343,-355.75 193.5,-347 195.562,-343.502 197.956,-340.225 200.61,-337.156"/>
<polygon fill="none" stroke="#404040" points="200.756,-337.011 202.203,-329.947 209.28,-328.565 207.833,-335.63 200.756,-337.011"/>
<text text-anchor="middle" x="227" y="-350" font-family="Courier New" font-size="10.00"> #simHeater</text>
</g>
<!-- Node5&#45;&gt;Node4 -->
<g id="edge5" class="edge"><title>Node5&#45;&gt;Node4</title>
<path fill="none" stroke="#404040" d="M225.254,-525.444C221.799,-513.734 218.13,-501.3 214.61,-489.372"/>
<polygon fill="none" stroke="#404040" points="214.549,-489.167 209.015,-484.544 211.153,-477.657 216.688,-482.28 214.549,-489.167"/>
<text text-anchor="middle" x="259" y="-499" font-family="Courier New" font-size="10.00"> #raycastable</text>
</g>
<!-- Node6&#45;&gt;Node4 -->
<g id="edge7" class="edge"><title>Node6&#45;&gt;Node4</title>
<path fill="none" stroke="#404040" d="M277.924,-328.56C274.566,-338.454 270.139,-349.044 264.5,-358 262.665,-360.914 260.685,-363.8 258.594,-366.643"/>
<polygon fill="none" stroke="#404040" points="258.545,-366.705 257.968,-373.893 251.111,-376.125 251.688,-368.937 258.545,-366.705"/>
<text text-anchor="middle" x="307" y="-350" font-family="Courier New" font-size="10.00"> #simulation</text>
</g>
</g>
</svg>
        <g id="navigator" transform="translate(0 0)" fill="#404254">
                <rect fill="#f2f5e9" fill-opacity="0.5" stroke="#606060" stroke-width=".5" x="0" y="0" width="60" height="60"/>
                <use id="zoomplus" xlink:href="#zoomPlus" x="17" y="9" onmousedown="handleZoom(evt,'in')"/>
                <use id="zoomminus" xlink:href="#zoomMin" x="42" y="9" onmousedown="handleZoom(evt,'out')"/>
                <use id="reset" xlink:href="#resetDef" x="30" y="36" onmousedown="handleReset()"/>
                <g id="arrowUp" xlink:href="#dirArrow" transform="translate(30 24)" onmousedown="handlePan(0,-1)">
                  <use xlink:href="#rim" fill="#404040">
                        <set attributeName="fill" to="#808080" begin="arrowUp.mouseover" end="arrowUp.mouseout"/>
                  </use>
                  <path fill="none" stroke="white" stroke-width="1.5" d="M0,-3.0v7 M-2.5,-0.5L0,-3.0L2.5,-0.5"/>
                </g>
                <g id="arrowRight" xlink:href="#dirArrow" transform="rotate(90) translate(36 -43)" onmousedown="handlePan(1,0)">
                  <use xlink:href="#rim" fill="#404040">
                        <set attributeName="fill" to="#808080" begin="arrowRight.mouseover" end="arrowRight.mouseout"/>
                  </use>
                  <path fill="none" stroke="white" stroke-width="1.5" d="M0,-3.0v7 M-2.5,-0.5L0,-3.0L2.5,-0.5"/>
                </g>
                <g id="arrowDown" xlink:href="#dirArrow" transform="rotate(180) translate(-30 -48)" onmousedown="handlePan(0,1)">
                  <use xlink:href="#rim" fill="#404040">
                        <set attributeName="fill" to="#808080" begin="arrowDown.mouseover" end="arrowDown.mouseout"/>
                  </use>
                  <path fill="none" stroke="white" stroke-width="1.5" d="M0,-3.0v7 M-2.5,-0.5L0,-3.0L2.5,-0.5"/>
                </g>
                <g id="arrowLeft" xlink:href="#dirArrow" transform="rotate(270) translate(-36 17)" onmousedown="handlePan(-1,0)">
                  <use xlink:href="#rim" fill="#404040">
                        <set attributeName="fill" to="#808080" begin="arrowLeft.mouseover" end="arrowLeft.mouseout"/>
                  </use>
                  <path fill="none" stroke="white" stroke-width="1.5" d="M0,-3.0v7 M-2.5,-0.5L0,-3.0L2.5,-0.5"/>
                </g>
        </g>
        <svg viewBox="0 0 15 15" width="100%" height="30px" preserveAspectRatio="xMaxYMin meet">
         <g id="arrow_out" transform="scale(0.3 0.3)">
          <a xlink:href="class_c2_m2_1_1_simulation_1_1_simulation__coll__graph_org.svg" target="_base">
           <rect id="button" ry="5" rx="5" y="6" x="6" height="38" width="38"
                fill="#f2f5e9" fill-opacity="0.5" stroke="#606060" stroke-width="1.0"/>
           <path id="arrow"
             d="M 11.500037,31.436501 C 11.940474,20.09759 22.043105,11.32322 32.158766,21.979434 L 37.068811,17.246167 C 37.068811,17.246167 37.088388,32 37.088388,32 L 22.160133,31.978069 C 22.160133,31.978069 26.997745,27.140456 26.997745,27.140456 C 18.528582,18.264221 13.291696,25.230495 11.500037,31.436501 z"
             style="fill:#404040;"/>
          </a>
         </g>
        </svg>
</svg>
