<?xml version="1.0" encoding="UTF-8" standalone="no"?>
<!DOCTYPE svg PUBLIC "-//W3C//DTD SVG 1.1//EN"
 "http://www.w3.org/Graphics/SVG/1.1/DTD/svg11.dtd">
<!-- Generated by graphviz version 2.38.0 (20140413.2041)
 -->
<!-- Title: C2M2.OIT.Visualization.ParticleSystemAsciiDataReader Pages: 1 -->
<svg width="211pt" height="314pt"
 viewBox="0.00 0.00 211.00 314.00" xmlns="http://www.w3.org/2000/svg" xmlns:xlink="http://www.w3.org/1999/xlink">
<g id="graph0" class="graph" transform="scale(1 1) rotate(0) translate(4 310)">
<title>C2M2.OIT.Visualization.ParticleSystemAsciiDataReader</title>
<polygon fill="white" stroke="none" points="-4,4 -4,-310 207,-310 207,4 -4,4"/>
<!-- Node1 -->
<g id="node1" class="node"><title>Node1</title>
<g id="a_node1"><a xlink:title="Read and store ascii data representing particle data">
<polygon fill="#bfbfbf" stroke="black" points="0,-0.5 0,-211.5 203,-211.5 203,-0.5 0,-0.5"/>
<text text-anchor="start" x="8" y="-199.5" font-family="Courier New" font-size="10.00">C2M2.OIT.Visualization.Particle</text>
<text text-anchor="middle" x="101.5" y="-188.5" font-family="Courier New" font-size="10.00">SystemAsciiDataReader</text>
<polyline fill="none" stroke="black" points="0,-181.5 203,-181.5 "/>
<text text-anchor="start" x="8" y="-169.5" font-family="Courier New" font-size="10.00">+ assets</text>
<text text-anchor="start" x="8" y="-158.5" font-family="Courier New" font-size="10.00">+ RoomObject</text>
<text text-anchor="start" x="8" y="-147.5" font-family="Courier New" font-size="10.00">+ reduceBy</text>
<text text-anchor="start" x="8" y="-136.5" font-family="Courier New" font-size="10.00">+ dataSetList</text>
<text text-anchor="start" x="8" y="-125.5" font-family="Courier New" font-size="10.00">+ colorFloatMax</text>
<text text-anchor="start" x="8" y="-114.5" font-family="Courier New" font-size="10.00">+ colorFloatMin</text>
<text text-anchor="start" x="8" y="-103.5" font-family="Courier New" font-size="10.00">&#45; assetString</text>
<text text-anchor="start" x="8" y="-92.5" font-family="Courier New" font-size="10.00">&#45; currentLine</text>
<text text-anchor="start" x="8" y="-81.5" font-family="Courier New" font-size="10.00">&#45; sR</text>
<text text-anchor="start" x="8" y="-70.5" font-family="Courier New" font-size="10.00">&#45; currentLineSplit</text>
<text text-anchor="start" x="8" y="-59.5" font-family="Courier New" font-size="10.00">&#45; backupdataSetList</text>
<polyline fill="none" stroke="black" points="0,-52.5 203,-52.5 "/>
<text text-anchor="start" x="8" y="-40.5" font-family="Courier New" font-size="10.00">+ InitializeParticleData()</text>
<text text-anchor="start" x="8" y="-29.5" font-family="Courier New" font-size="10.00">&#45; InitializeInformationLists()</text>
<text text-anchor="start" x="8" y="-18.5" font-family="Courier New" font-size="10.00">&#45; CreateStringReader()</text>
<text text-anchor="start" x="8" y="-7.5" font-family="Courier New" font-size="10.00">&#45; CloseStringReader()</text>
</a>
</g>
</g>
<!-- Node2 -->
<g id="node2" class="node"><title>Node2</title>
<g id="a_node2"><a xlink:title=" ">
<polygon fill="white" stroke="#bfbfbf" points="54,-248.5 54,-305.5 149,-305.5 149,-248.5 54,-248.5"/>
<text text-anchor="middle" x="101.5" y="-293.5" font-family="Courier New" font-size="10.00">MonoBehaviour</text>
<polyline fill="none" stroke="#bfbfbf" points="54,-286.5 149,-286.5 "/>
<text text-anchor="middle" x="101.5" y="-274.5" font-family="Courier New" font-size="10.00"> </text>
<polyline fill="none" stroke="#bfbfbf" points="54,-267.5 149,-267.5 "/>
<text text-anchor="middle" x="101.5" y="-255.5" font-family="Courier New" font-size="10.00"> </text>
</a>
</g>
</g>
<!-- Node2&#45;&gt;Node1 -->
<g id="edge1" class="edge"><title>Node2&#45;&gt;Node1</title>
<path fill="none" stroke="midnightblue" d="M101.5,-238.233C101.5,-230.038 101.5,-220.987 101.5,-211.584"/>
<polygon fill="none" stroke="midnightblue" points="98.0001,-238.471 101.5,-248.471 105,-238.471 98.0001,-238.471"/>
</g>
</g>
</svg>
