<?xml version="1.0" encoding="UTF-8" standalone="no"?>
<!DOCTYPE svg PUBLIC "-//W3C//DTD SVG 1.1//EN"
 "http://www.w3.org/Graphics/SVG/1.1/DTD/svg11.dtd">
<!-- Generated by graphviz version 2.38.0 (20140413.2041)
 -->
<!-- Title: C2M2.NeuronalDynamics.Simulation.CellSolver2FullAP_Implicit Pages: 1 -->
<svg width="560pt" height="1279pt"
 viewBox="0.00 0.00 560.00 1279.00" xmlns="http://www.w3.org/2000/svg" xmlns:xlink="http://www.w3.org/1999/xlink">
<g id="graph0" class="graph" transform="scale(1 1) rotate(0) translate(4 1275)">
<title>C2M2.NeuronalDynamics.Simulation.CellSolver2FullAP_Implicit</title>
<polygon fill="white" stroke="none" points="-4,4 -4,-1275 556,-1275 556,4 -4,4"/>
<!-- Node1 -->
<g id="node1" class="node"><title>Node1</title>
<g id="a_node1"><a xlink:title=" ">
<polygon fill="#bfbfbf" stroke="black" points="227,-0.5 227,-420.5 442,-420.5 442,-0.5 227,-0.5"/>
<text text-anchor="start" x="235" y="-408.5" font-family="Courier New" font-size="10.00">C2M2.NeuronalDynamics.Simulation.</text>
<text text-anchor="middle" x="334.5" y="-397.5" font-family="Courier New" font-size="10.00">CellSolver2FullAP_Implicit</text>
<polyline fill="none" stroke="black" points="227,-390.5 442,-390.5 "/>
<text text-anchor="start" x="235" y="-378.5" font-family="Courier New" font-size="10.00">+ res</text>
<text text-anchor="start" x="235" y="-367.5" font-family="Courier New" font-size="10.00">+ gk</text>
<text text-anchor="start" x="235" y="-356.5" font-family="Courier New" font-size="10.00">+ gna</text>
<text text-anchor="start" x="235" y="-345.5" font-family="Courier New" font-size="10.00">+ gl</text>
<text text-anchor="start" x="235" y="-334.5" font-family="Courier New" font-size="10.00">+ ek</text>
<text text-anchor="start" x="235" y="-323.5" font-family="Courier New" font-size="10.00">+ ena</text>
<text text-anchor="start" x="235" y="-312.5" font-family="Courier New" font-size="10.00">+ el</text>
<text text-anchor="start" x="235" y="-301.5" font-family="Courier New" font-size="10.00">+ cap</text>
<text text-anchor="start" x="235" y="-290.5" font-family="Courier New" font-size="10.00">+ ni</text>
<text text-anchor="start" x="235" y="-279.5" font-family="Courier New" font-size="10.00">+ vstart</text>
<text text-anchor="start" x="235" y="-268.5" font-family="Courier New" font-size="10.00">~ orderType</text>
<text text-anchor="start" x="235" y="-257.5" font-family="Courier New" font-size="10.00">&#45; U</text>
<text text-anchor="start" x="235" y="-246.5" font-family="Courier New" font-size="10.00">&#45; M</text>
<text text-anchor="start" x="235" y="-235.5" font-family="Courier New" font-size="10.00">&#45; N</text>
<text text-anchor="start" x="235" y="-224.5" font-family="Courier New" font-size="10.00">&#45; H</text>
<text text-anchor="start" x="235" y="-213.5" font-family="Courier New" font-size="10.00">&#45; i</text>
<text text-anchor="start" x="235" y="-202.5" font-family="Courier New" font-size="10.00">&#45; mi</text>
<text text-anchor="start" x="235" y="-191.5" font-family="Courier New" font-size="10.00">&#45; hi</text>
<polyline fill="none" stroke="black" points="227,-184.5 442,-184.5 "/>
<text text-anchor="start" x="235" y="-172.5" font-family="Courier New" font-size="10.00">+ initialConditions()</text>
<text text-anchor="start" x="235" y="-161.5" font-family="Courier New" font-size="10.00">+ boundaryConditions()</text>
<text text-anchor="start" x="235" y="-150.5" font-family="Courier New" font-size="10.00"># SetNeuronCell()</text>
<text text-anchor="start" x="235" y="-139.5" font-family="Courier New" font-size="10.00"># Get1DValues()</text>
<text text-anchor="start" x="235" y="-128.5" font-family="Courier New" font-size="10.00"># Set1DValues()</text>
<text text-anchor="start" x="235" y="-117.5" font-family="Courier New" font-size="10.00"># Solve()</text>
<text text-anchor="start" x="235" y="-106.5" font-family="Courier New" font-size="10.00">&#45; reactF()</text>
<text text-anchor="start" x="235" y="-95.5" font-family="Courier New" font-size="10.00">&#45; fN()</text>
<text text-anchor="start" x="235" y="-84.5" font-family="Courier New" font-size="10.00">&#45; fM()</text>
<text text-anchor="start" x="235" y="-73.5" font-family="Courier New" font-size="10.00">&#45; fH()</text>
<text text-anchor="start" x="235" y="-62.5" font-family="Courier New" font-size="10.00">&#45; an()</text>
<text text-anchor="start" x="235" y="-51.5" font-family="Courier New" font-size="10.00">&#45; bn()</text>
<text text-anchor="start" x="235" y="-40.5" font-family="Courier New" font-size="10.00">&#45; am()</text>
<text text-anchor="start" x="235" y="-29.5" font-family="Courier New" font-size="10.00">&#45; bm()</text>
<text text-anchor="start" x="235" y="-18.5" font-family="Courier New" font-size="10.00">&#45; ah()</text>
<text text-anchor="start" x="235" y="-7.5" font-family="Courier New" font-size="10.00">&#45; bh()</text>
</a>
</g>
</g>
<!-- Node2 -->
<g id="node2" class="node"><title>Node2</title>
<g id="a_node2"><a xlink:href="../../d4/d5a/class_c2_m2_1_1_neuronal_dynamics_1_1_simulation_1_1_neuron_simulation1_d.html" target="_top" xlink:title="Provide an interface for 1D neuron&#45;surface simulations to be visualized and interacted with">
<polygon fill="white" stroke="black" points="81,-468.5 81,-690.5 230,-690.5 230,-468.5 81,-468.5"/>
<text text-anchor="middle" x="155.5" y="-678.5" font-family="Courier New" font-size="10.00">NeuronSimulation1D</text>
<polyline fill="none" stroke="black" points="81,-671.5 230,-671.5 "/>
<text text-anchor="start" x="89" y="-659.5" font-family="Courier New" font-size="10.00">+ visualize1D</text>
<text text-anchor="start" x="89" y="-648.5" font-family="Courier New" font-size="10.00">+ color1D</text>
<text text-anchor="start" x="89" y="-637.5" font-family="Courier New" font-size="10.00">+ lineWidth1D</text>
<text text-anchor="start" x="89" y="-626.5" font-family="Courier New" font-size="10.00">&#45; map</text>
<text text-anchor="start" x="89" y="-615.5" font-family="Courier New" font-size="10.00">&#45; neuronCellFolder</text>
<text text-anchor="start" x="89" y="-604.5" font-family="Courier New" font-size="10.00">&#45; activeCellFolder</text>
<text text-anchor="start" x="89" y="-593.5" font-family="Courier New" font-size="10.00">&#45; ugxExt</text>
<text text-anchor="start" x="89" y="-582.5" font-family="Courier New" font-size="10.00">&#45; cngExt</text>
<text text-anchor="start" x="89" y="-571.5" font-family="Courier New" font-size="10.00">&#45; spec1D</text>
<text text-anchor="start" x="89" y="-560.5" font-family="Courier New" font-size="10.00">&#45; specTris</text>
<text text-anchor="start" x="89" y="-549.5" font-family="Courier New" font-size="10.00">&#45; specBlownup</text>
<polyline fill="none" stroke="black" points="81,-542.5 230,-542.5 "/>
<text text-anchor="start" x="89" y="-530.5" font-family="Courier New" font-size="10.00">+ GetValues()</text>
<text text-anchor="start" x="89" y="-519.5" font-family="Courier New" font-size="10.00">+ SetValues()</text>
<text text-anchor="start" x="89" y="-508.5" font-family="Courier New" font-size="10.00"># Set1DValues()</text>
<text text-anchor="start" x="89" y="-497.5" font-family="Courier New" font-size="10.00"># Get1DValues()</text>
<text text-anchor="start" x="89" y="-486.5" font-family="Courier New" font-size="10.00"># SetNeuronCell()</text>
<text text-anchor="start" x="89" y="-475.5" font-family="Courier New" font-size="10.00"># BuildVisualization()</text>
</a>
</g>
</g>
<!-- Node2&#45;&gt;Node1 -->
<g id="edge1" class="edge"><title>Node2&#45;&gt;Node1</title>
<path fill="none" stroke="midnightblue" d="M213.624,-459.329C219.749,-446.772 226.098,-433.754 232.535,-420.556"/>
<polygon fill="none" stroke="midnightblue" points="210.444,-457.866 209.206,-468.388 216.735,-460.934 210.444,-457.866"/>
</g>
<!-- Node3 -->
<g id="node3" class="node"><title>Node3</title>
<g id="a_node3"><a xlink:href="../../d4/de1/class_c2_m2_1_1_simulation_1_1_surface_simulation.html" target="_top" xlink:title="Simulation of type double[] for visualizing scalar fields on mesh surfaces">
<polygon fill="white" stroke="black" points="16,-760.5 16,-894.5 171,-894.5 171,-760.5 16,-760.5"/>
<text text-anchor="middle" x="93.5" y="-882.5" font-family="Courier New" font-size="10.00">SurfaceSimulation</text>
<polyline fill="none" stroke="black" points="16,-875.5 171,-875.5 "/>
<text text-anchor="start" x="24" y="-863.5" font-family="Courier New" font-size="10.00">+ gradient</text>
<text text-anchor="start" x="24" y="-852.5" font-family="Courier New" font-size="10.00">+ globalMax</text>
<text text-anchor="start" x="24" y="-841.5" font-family="Courier New" font-size="10.00">+ globalMin</text>
<text text-anchor="start" x="24" y="-830.5" font-family="Courier New" font-size="10.00">+ colorLUT</text>
<text text-anchor="start" x="24" y="-819.5" font-family="Courier New" font-size="10.00">&#45; mf</text>
<text text-anchor="start" x="24" y="-808.5" font-family="Courier New" font-size="10.00">&#45; mr</text>
<polyline fill="none" stroke="black" points="16,-801.5 171,-801.5 "/>
<text text-anchor="start" x="24" y="-789.5" font-family="Courier New" font-size="10.00"># UpdateVisualization()</text>
<text text-anchor="start" x="24" y="-778.5" font-family="Courier New" font-size="10.00"># OnAwake()</text>
<text text-anchor="start" x="24" y="-767.5" font-family="Courier New" font-size="10.00">&#45; UpdateVisualization()</text>
</a>
</g>
</g>
<!-- Node3&#45;&gt;Node2 -->
<g id="edge2" class="edge"><title>Node3&#45;&gt;Node2</title>
<path fill="none" stroke="midnightblue" d="M112.654,-750.5C117.438,-731.521 122.664,-710.784 127.771,-690.523"/>
<polygon fill="none" stroke="midnightblue" points="109.247,-749.701 110.196,-760.253 116.034,-751.412 109.247,-749.701"/>
</g>
<!-- Node4 -->
<g id="node4" class="node"><title>Node4</title>
<g id="a_node4"><a xlink:href="../../db/d39/class_c2_m2_1_1_simulation_1_1_simulation.html" target="_top" xlink:title=" ">
<polygon fill="white" stroke="black" points="0,-942.5 0,-1175.5 155,-1175.5 155,-942.5 0,-942.5"/>
<text text-anchor="start" x="8" y="-1163.5" font-family="Courier New" font-size="10.00">Simulation&lt; double</text>
<text text-anchor="middle" x="77.5" y="-1152.5" font-family="Courier New" font-size="10.00">[], Mesh &gt;</text>
<polyline fill="none" stroke="black" points="0,-1145.5 155,-1145.5 "/>
<text text-anchor="start" x="8" y="-1133.5" font-family="Courier New" font-size="10.00">+ startOnAwake</text>
<text text-anchor="start" x="8" y="-1122.5" font-family="Courier New" font-size="10.00"># mutex</text>
<text text-anchor="start" x="8" y="-1111.5" font-family="Courier New" font-size="10.00">&#45; solveThread</text>
<polyline fill="none" stroke="black" points="0,-1104.5 155,-1104.5 "/>
<text text-anchor="start" x="8" y="-1092.5" font-family="Courier New" font-size="10.00">+ GetValues()</text>
<text text-anchor="start" x="8" y="-1081.5" font-family="Courier New" font-size="10.00">+ StartSimulation()</text>
<text text-anchor="start" x="8" y="-1070.5" font-family="Courier New" font-size="10.00">+ StopSimulation()</text>
<text text-anchor="start" x="8" y="-1059.5" font-family="Courier New" font-size="10.00">+ Awake()</text>
<text text-anchor="start" x="8" y="-1048.5" font-family="Courier New" font-size="10.00">+ Start()</text>
<text text-anchor="start" x="8" y="-1037.5" font-family="Courier New" font-size="10.00">+ Update()</text>
<text text-anchor="start" x="8" y="-1026.5" font-family="Courier New" font-size="10.00"># BuildVisualization()</text>
<text text-anchor="start" x="8" y="-1015.5" font-family="Courier New" font-size="10.00"># UpdateVisualization()</text>
<text text-anchor="start" x="8" y="-1004.5" font-family="Courier New" font-size="10.00"># Solve()</text>
<text text-anchor="start" x="8" y="-993.5" font-family="Courier New" font-size="10.00"># OnAwake()</text>
<text text-anchor="start" x="8" y="-982.5" font-family="Courier New" font-size="10.00"># OnStart()</text>
<text text-anchor="start" x="8" y="-971.5" font-family="Courier New" font-size="10.00"># OnUpdate()</text>
<text text-anchor="start" x="8" y="-960.5" font-family="Courier New" font-size="10.00">&#45; OnApplicationPause()</text>
<text text-anchor="start" x="8" y="-949.5" font-family="Courier New" font-size="10.00">&#45; OnApplicationQuit()</text>
</a>
</g>
</g>
<!-- Node4&#45;&gt;Node3 -->
<g id="edge3" class="edge"><title>Node4&#45;&gt;Node3</title>
<path fill="none" stroke="midnightblue" d="M86.2916,-931.895C87.1886,-919.029 88.0721,-906.356 88.8966,-894.53"/>
<polygon fill="none" stroke="midnightblue" points="82.7744,-932.022 85.5703,-942.241 89.7574,-932.509 82.7744,-932.022"/>
</g>
<!-- Node5 -->
<g id="node5" class="node"><title>Node5</title>
<g id="a_node5"><a xlink:href="../../da/d4f/class_c2_m2_1_1_visualization_1_1_l_u_t_gradient.html" target="_top" xlink:title="Create a fast and memory&#45;friendly color lookup table from a gradient">
<polygon fill="white" stroke="black" points="173,-975.5 173,-1142.5 370,-1142.5 370,-975.5 173,-975.5"/>
<text text-anchor="middle" x="271.5" y="-1130.5" font-family="Courier New" font-size="10.00">C2M2.Visualization.LUTGradient</text>
<polyline fill="none" stroke="black" points="173,-1123.5 370,-1123.5 "/>
<text text-anchor="start" x="181" y="-1111.5" font-family="Courier New" font-size="10.00">+ extremaMethod</text>
<text text-anchor="start" x="181" y="-1100.5" font-family="Courier New" font-size="10.00">+ globalMax</text>
<text text-anchor="start" x="181" y="-1089.5" font-family="Courier New" font-size="10.00">+ globalMin</text>
<text text-anchor="start" x="181" y="-1078.5" font-family="Courier New" font-size="10.00">+ LutRes</text>
<text text-anchor="start" x="181" y="-1067.5" font-family="Courier New" font-size="10.00">+ Gradient</text>
<text text-anchor="start" x="181" y="-1056.5" font-family="Courier New" font-size="10.00">+ gradientLUT</text>
<text text-anchor="start" x="181" y="-1045.5" font-family="Courier New" font-size="10.00">&#45; lutRes</text>
<text text-anchor="start" x="181" y="-1034.5" font-family="Courier New" font-size="10.00">&#45; gradient</text>
<polyline fill="none" stroke="black" points="173,-1027.5 370,-1027.5 "/>
<text text-anchor="start" x="181" y="-1015.5" font-family="Courier New" font-size="10.00">+ Evaluate()</text>
<text text-anchor="start" x="181" y="-1004.5" font-family="Courier New" font-size="10.00">+ Evaluate()</text>
<text text-anchor="start" x="181" y="-993.5" font-family="Courier New" font-size="10.00">&#45; BuildLUT()</text>
<text text-anchor="start" x="181" y="-982.5" font-family="Courier New" font-size="10.00">&#45; RescaleArray()</text>
</a>
</g>
</g>
<!-- Node5&#45;&gt;Node3 -->
<g id="edge4" class="edge"><title>Node5&#45;&gt;Node3</title>
<path fill="none" stroke="#404040" d="M207.489,-975.469C189.437,-952.194 169.891,-926.993 152.169,-904.143"/>
<polygon fill="none" stroke="#404040" points="152.049,-903.989 145.211,-901.699 144.694,-894.506 151.532,-896.796 152.049,-903.989"/>
<text text-anchor="middle" x="213" y="-916" font-family="Courier New" font-size="10.00"> +extremaMethod</text>
</g>
<!-- Node6 -->
<g id="node6" class="node"><title>Node6</title>
<g id="a_node6"><a xlink:title=" ">
<polygon fill="white" stroke="#bfbfbf" points="224,-1213.5 224,-1270.5 319,-1270.5 319,-1213.5 224,-1213.5"/>
<text text-anchor="middle" x="271.5" y="-1258.5" font-family="Courier New" font-size="10.00">MonoBehaviour</text>
<polyline fill="none" stroke="#bfbfbf" points="224,-1251.5 319,-1251.5 "/>
<text text-anchor="middle" x="271.5" y="-1239.5" font-family="Courier New" font-size="10.00"> </text>
<polyline fill="none" stroke="#bfbfbf" points="224,-1232.5 319,-1232.5 "/>
<text text-anchor="middle" x="271.5" y="-1220.5" font-family="Courier New" font-size="10.00"> </text>
</a>
</g>
</g>
<!-- Node6&#45;&gt;Node5 -->
<g id="edge5" class="edge"><title>Node6&#45;&gt;Node5</title>
<path fill="none" stroke="midnightblue" d="M271.5,-1202.75C271.5,-1185.22 271.5,-1163.71 271.5,-1142.75"/>
<polygon fill="none" stroke="midnightblue" points="268,-1203.12 271.5,-1213.12 275,-1203.12 268,-1203.12"/>
</g>
<!-- Node7 -->
<g id="node7" class="node"><title>Node7</title>
<g id="a_node7"><a xlink:title=" ">
<polygon fill="white" stroke="#bfbfbf" points="189,-799 189,-856 230,-856 230,-799 189,-799"/>
<text text-anchor="middle" x="209.5" y="-844" font-family="Courier New" font-size="10.00">C2M2</text>
<polyline fill="none" stroke="#bfbfbf" points="189,-837 230,-837 "/>
<text text-anchor="middle" x="209.5" y="-825" font-family="Courier New" font-size="10.00"> </text>
<polyline fill="none" stroke="#bfbfbf" points="189,-818 230,-818 "/>
<text text-anchor="middle" x="209.5" y="-806" font-family="Courier New" font-size="10.00"> </text>
</a>
</g>
</g>
<!-- Node7&#45;&gt;Node2 -->
<g id="edge6" class="edge"><title>Node7&#45;&gt;Node2</title>
<path fill="none" stroke="#404040" d="M203.41,-798.759C198.159,-774.835 190.188,-738.522 182.246,-702.343"/>
<polygon fill="none" stroke="#404040" points="182.245,-702.338 177.052,-697.335 179.672,-690.617 184.866,-695.62 182.245,-702.338"/>
<text text-anchor="middle" x="215" y="-723" font-family="Courier New" font-size="10.00"> #grid1D</text>
</g>
<!-- Node8 -->
<g id="node8" class="node"><title>Node8</title>
<g id="a_node8"><a xlink:href="../../da/df6/class_c2_m2_1_1_neuronal_dynamics_1_1_u_g_x_1_1_neuron_cell.html" target="_top" xlink:title=" ">
<polygon fill="white" stroke="black" points="248,-479.5 248,-679.5 421,-679.5 421,-479.5 248,-479.5"/>
<text text-anchor="start" x="256" y="-667.5" font-family="Courier New" font-size="10.00">C2M2.NeuronalDynamics.UGX.</text>
<text text-anchor="middle" x="334.5" y="-656.5" font-family="Courier New" font-size="10.00">NeuronCell</text>
<polyline fill="none" stroke="black" points="248,-649.5 421,-649.5 "/>
<text text-anchor="start" x="256" y="-637.5" font-family="Courier New" font-size="10.00">+ nodeData</text>
<text text-anchor="start" x="256" y="-626.5" font-family="Courier New" font-size="10.00">+ edges</text>
<text text-anchor="start" x="256" y="-615.5" font-family="Courier New" font-size="10.00">+ edgeLengths</text>
<text text-anchor="start" x="256" y="-604.5" font-family="Courier New" font-size="10.00">+ boundaryID</text>
<text text-anchor="start" x="256" y="-593.5" font-family="Courier New" font-size="10.00">+ somaID</text>
<text text-anchor="start" x="256" y="-582.5" font-family="Courier New" font-size="10.00">+ vertCount</text>
<text text-anchor="start" x="256" y="-571.5" font-family="Courier New" font-size="10.00">+ edgeCount</text>
<polyline fill="none" stroke="black" points="248,-564.5 421,-564.5 "/>
<text text-anchor="start" x="256" y="-552.5" font-family="Courier New" font-size="10.00">+ NeuronCell()</text>
<text text-anchor="start" x="256" y="-541.5" font-family="Courier New" font-size="10.00">+ ReadDataTable()</text>
<text text-anchor="start" x="256" y="-530.5" font-family="Courier New" font-size="10.00">+ NodeToString()</text>
<text text-anchor="start" x="256" y="-519.5" font-family="Courier New" font-size="10.00">+ EdgeToString()</text>
<text text-anchor="start" x="256" y="-508.5" font-family="Courier New" font-size="10.00">+ ToString()</text>
<text text-anchor="start" x="256" y="-497.5" font-family="Courier New" font-size="10.00">&#45; NodeNeighborsToString()</text>
<text text-anchor="start" x="256" y="-486.5" font-family="Courier New" font-size="10.00">&#45; GetEdgeLength()</text>
</a>
</g>
</g>
<!-- Node8&#45;&gt;Node1 -->
<g id="edge7" class="edge"><title>Node8&#45;&gt;Node1</title>
<path fill="none" stroke="#404040" d="M334.5,-479.185C334.5,-464.552 334.5,-449.008 334.5,-433.062"/>
<polygon fill="none" stroke="#404040" points="334.5,-432.799 330.5,-426.799 334.5,-420.799 338.5,-426.799 334.5,-432.799"/>
<text text-anchor="middle" x="359" y="-442" font-family="Courier New" font-size="10.00"> &#45;myCell</text>
</g>
<!-- Node9 -->
<g id="node9" class="node"><title>Node9</title>
<g id="a_node9"><a xlink:title=" ">
<polygon fill="white" stroke="#bfbfbf" points="308,-799 308,-856 361,-856 361,-799 308,-799"/>
<text text-anchor="middle" x="334.5" y="-844" font-family="Courier New" font-size="10.00">static</text>
<polyline fill="none" stroke="#bfbfbf" points="308,-837 361,-837 "/>
<text text-anchor="middle" x="334.5" y="-825" font-family="Courier New" font-size="10.00"> </text>
<polyline fill="none" stroke="#bfbfbf" points="308,-818 361,-818 "/>
<text text-anchor="middle" x="334.5" y="-806" font-family="Courier New" font-size="10.00"> </text>
</a>
</g>
</g>
<!-- Node9&#45;&gt;Node8 -->
<g id="edge8" class="edge"><title>Node9&#45;&gt;Node8</title>
<path fill="none" stroke="#404040" d="M334.5,-798.759C334.5,-772.511 334.5,-731.35 334.5,-691.815"/>
<polygon fill="none" stroke="#404040" points="334.5,-691.615 330.5,-685.615 334.5,-679.615 338.5,-685.615 334.5,-691.615"/>
<text text-anchor="middle" x="389" y="-734" font-family="Courier New" font-size="10.00"> &#45;nodeFormatString</text>
<text text-anchor="middle" x="389" y="-723" font-family="Courier New" font-size="10.00">&#45;edgeFormatString</text>
<text text-anchor="middle" x="389" y="-712" font-family="Courier New" font-size="10.00">&#45;cellFormatString</text>
</g>
<!-- Node10 -->
<g id="node10" class="node"><title>Node10</title>
<g id="a_node10"><a xlink:href="../../d3/dca/class_c2_m2_1_1_utils_1_1_timer.html" target="_top" xlink:title=" ">
<polygon fill="white" stroke="black" points="439,-490.5 439,-668.5 552,-668.5 552,-490.5 439,-490.5"/>
<text text-anchor="middle" x="495.5" y="-656.5" font-family="Courier New" font-size="10.00">C2M2.Utils.Timer</text>
<polyline fill="none" stroke="black" points="439,-649.5 552,-649.5 "/>
<text text-anchor="start" x="447" y="-637.5" font-family="Courier New" font-size="10.00">+ timerNodes</text>
<text text-anchor="start" x="447" y="-626.5" font-family="Courier New" font-size="10.00">&#45; t0</text>
<text text-anchor="start" x="447" y="-615.5" font-family="Courier New" font-size="10.00">&#45; t1</text>
<text text-anchor="start" x="447" y="-604.5" font-family="Courier New" font-size="10.00">&#45; started</text>
<text text-anchor="start" x="447" y="-593.5" font-family="Courier New" font-size="10.00">&#45; stopwatch</text>
<polyline fill="none" stroke="black" points="439,-586.5 552,-586.5 "/>
<text text-anchor="start" x="447" y="-574.5" font-family="Courier New" font-size="10.00">+ Timer()</text>
<text text-anchor="start" x="447" y="-563.5" font-family="Courier New" font-size="10.00">+ Timer()</text>
<text text-anchor="start" x="447" y="-552.5" font-family="Courier New" font-size="10.00">+ StartTimer()</text>
<text text-anchor="start" x="447" y="-541.5" font-family="Courier New" font-size="10.00">+ StopTimer()</text>
<text text-anchor="start" x="447" y="-530.5" font-family="Courier New" font-size="10.00">+ StopTimer()</text>
<text text-anchor="start" x="447" y="-519.5" font-family="Courier New" font-size="10.00">+ ExportCSV()</text>
<text text-anchor="start" x="447" y="-508.5" font-family="Courier New" font-size="10.00">+ ToString()</text>
<text text-anchor="start" x="447" y="-497.5" font-family="Courier New" font-size="10.00">+ ToStringPlus()</text>
</a>
</g>
</g>
<!-- Node10&#45;&gt;Node1 -->
<g id="edge9" class="edge"><title>Node10&#45;&gt;Node1</title>
<path fill="none" stroke="#404040" d="M456.732,-490.127C448.805,-472.059 440.132,-452.289 431.181,-431.885"/>
<polygon fill="none" stroke="#404040" points="431.152,-431.818 425.078,-427.93 426.331,-420.828 432.404,-424.716 431.152,-431.818"/>
<text text-anchor="middle" x="461" y="-442" font-family="Courier New" font-size="10.00"> &#45;timer</text>
</g>
</g>
</svg>
