<?xml version="1.0" encoding="UTF-8" standalone="no"?>
<!DOCTYPE svg PUBLIC "-//W3C//DTD SVG 1.1//EN"
 "http://www.w3.org/Graphics/SVG/1.1/DTD/svg11.dtd">
<!-- Generated by graphviz version 2.38.0 (20140413.2041)
 -->
<!-- Title: C2M2.NeuronalDynamics.Simulation.CellSolver2FullAP_Implicit Pages: 1 -->
<svg width="1491pt" height="1944pt"
 viewBox="0.00 0.00 1491.00 1944.00" xmlns="http://www.w3.org/2000/svg" xmlns:xlink="http://www.w3.org/1999/xlink">
<g id="graph0" class="graph" transform="scale(1 1) rotate(0) translate(4 1940)">
<title>C2M2.NeuronalDynamics.Simulation.CellSolver2FullAP_Implicit</title>
<polygon fill="white" stroke="none" points="-4,4 -4,-1940 1487,-1940 1487,4 -4,4"/>
<!-- Node1 -->
<g id="node1" class="node"><title>Node1</title>
<g id="a_node1"><a xlink:title=" ">
<polygon fill="#bfbfbf" stroke="black" points="912,-0.5 912,-442.5 1127,-442.5 1127,-0.5 912,-0.5"/>
<text text-anchor="start" x="920" y="-430.5" font-family="Courier New" font-size="10.00">C2M2.NeuronalDynamics.Simulation.</text>
<text text-anchor="middle" x="1019.5" y="-419.5" font-family="Courier New" font-size="10.00">CellSolver2FullAP_Implicit</text>
<polyline fill="none" stroke="black" points="912,-412.5 1127,-412.5 "/>
<text text-anchor="start" x="920" y="-400.5" font-family="Courier New" font-size="10.00">+ res</text>
<text text-anchor="start" x="920" y="-389.5" font-family="Courier New" font-size="10.00">+ gk</text>
<text text-anchor="start" x="920" y="-378.5" font-family="Courier New" font-size="10.00">+ gna</text>
<text text-anchor="start" x="920" y="-367.5" font-family="Courier New" font-size="10.00">+ gl</text>
<text text-anchor="start" x="920" y="-356.5" font-family="Courier New" font-size="10.00">+ ek</text>
<text text-anchor="start" x="920" y="-345.5" font-family="Courier New" font-size="10.00">+ ena</text>
<text text-anchor="start" x="920" y="-334.5" font-family="Courier New" font-size="10.00">+ el</text>
<text text-anchor="start" x="920" y="-323.5" font-family="Courier New" font-size="10.00">+ cap</text>
<text text-anchor="start" x="920" y="-312.5" font-family="Courier New" font-size="10.00">+ ni</text>
<text text-anchor="start" x="920" y="-301.5" font-family="Courier New" font-size="10.00">+ vstart</text>
<text text-anchor="start" x="920" y="-290.5" font-family="Courier New" font-size="10.00">~ orderType</text>
<text text-anchor="start" x="920" y="-279.5" font-family="Courier New" font-size="10.00">&#45; U</text>
<text text-anchor="start" x="920" y="-268.5" font-family="Courier New" font-size="10.00">&#45; M</text>
<text text-anchor="start" x="920" y="-257.5" font-family="Courier New" font-size="10.00">&#45; N</text>
<text text-anchor="start" x="920" y="-246.5" font-family="Courier New" font-size="10.00">&#45; H</text>
<text text-anchor="start" x="920" y="-235.5" font-family="Courier New" font-size="10.00">&#45; k</text>
<text text-anchor="start" x="920" y="-224.5" font-family="Courier New" font-size="10.00">&#45; i</text>
<text text-anchor="start" x="920" y="-213.5" font-family="Courier New" font-size="10.00">&#45; mi</text>
<text text-anchor="start" x="920" y="-202.5" font-family="Courier New" font-size="10.00">&#45; hi</text>
<polyline fill="none" stroke="black" points="912,-195.5 1127,-195.5 "/>
<text text-anchor="start" x="920" y="-183.5" font-family="Courier New" font-size="10.00">+ GetSimulationTime()</text>
<text text-anchor="start" x="920" y="-172.5" font-family="Courier New" font-size="10.00">+ Get1DValues()</text>
<text text-anchor="start" x="920" y="-161.5" font-family="Courier New" font-size="10.00">+ Set1DValues()</text>
<text text-anchor="start" x="920" y="-150.5" font-family="Courier New" font-size="10.00">+ initialConditions()</text>
<text text-anchor="start" x="920" y="-139.5" font-family="Courier New" font-size="10.00">+ boundaryConditions()</text>
<text text-anchor="start" x="920" y="-128.5" font-family="Courier New" font-size="10.00"># Solve()</text>
<text text-anchor="start" x="920" y="-117.5" font-family="Courier New" font-size="10.00">&#45; InitializeNeuronCell()</text>
<text text-anchor="start" x="920" y="-106.5" font-family="Courier New" font-size="10.00">&#45; reactF()</text>
<text text-anchor="start" x="920" y="-95.5" font-family="Courier New" font-size="10.00">&#45; fN()</text>
<text text-anchor="start" x="920" y="-84.5" font-family="Courier New" font-size="10.00">&#45; fM()</text>
<text text-anchor="start" x="920" y="-73.5" font-family="Courier New" font-size="10.00">&#45; fH()</text>
<text text-anchor="start" x="920" y="-62.5" font-family="Courier New" font-size="10.00">&#45; an()</text>
<text text-anchor="start" x="920" y="-51.5" font-family="Courier New" font-size="10.00">&#45; bn()</text>
<text text-anchor="start" x="920" y="-40.5" font-family="Courier New" font-size="10.00">&#45; am()</text>
<text text-anchor="start" x="920" y="-29.5" font-family="Courier New" font-size="10.00">&#45; bm()</text>
<text text-anchor="start" x="920" y="-18.5" font-family="Courier New" font-size="10.00">&#45; ah()</text>
<text text-anchor="start" x="920" y="-7.5" font-family="Courier New" font-size="10.00">&#45; bh()</text>
</a>
</g>
</g>
<!-- Node2 -->
<g id="node2" class="node"><title>Node2</title>
<g id="a_node2"><a xlink:href="../../d7/d92/class_c2_m2_1_1_neuronal_dynamics_1_1_simulation_1_1_n_d_simulation.html" target="_top" xlink:title="Provide an interface for 1D neuron&#45;surface simulations to be visualized and interacted with">
<polygon fill="white" stroke="black" points="761,-490.5 761,-965.5 988,-965.5 988,-490.5 761,-490.5"/>
<text text-anchor="middle" x="874.5" y="-953.5" font-family="Courier New" font-size="10.00">NDSimulation</text>
<polyline fill="none" stroke="black" points="761,-946.5 988,-946.5 "/>
<text text-anchor="start" x="769" y="-934.5" font-family="Courier New" font-size="10.00">+ visualize1D</text>
<text text-anchor="start" x="769" y="-923.5" font-family="Courier New" font-size="10.00">+ color1D</text>
<text text-anchor="start" x="769" y="-912.5" font-family="Courier New" font-size="10.00">+ lineWidth1D</text>
<text text-anchor="start" x="769" y="-901.5" font-family="Courier New" font-size="10.00">+ vrnFileName</text>
<text text-anchor="start" x="769" y="-890.5" font-family="Courier New" font-size="10.00">+ hitValue</text>
<text text-anchor="start" x="769" y="-879.5" font-family="Courier New" font-size="10.00">+ clamps</text>
<text text-anchor="start" x="769" y="-868.5" font-family="Courier New" font-size="10.00">+ VisualInflation</text>
<text text-anchor="start" x="769" y="-857.5" font-family="Courier New" font-size="10.00">+ ColliderInflation</text>
<text text-anchor="start" x="769" y="-846.5" font-family="Courier New" font-size="10.00">+ RefinementLevel</text>
<text text-anchor="start" x="769" y="-835.5" font-family="Courier New" font-size="10.00">+ ClampMode</text>
<text text-anchor="start" x="769" y="-824.5" font-family="Courier New" font-size="10.00">+ VrnReader</text>
<text text-anchor="start" x="769" y="-813.5" font-family="Courier New" font-size="10.00">+ Grid1D</text>
<text text-anchor="start" x="769" y="-802.5" font-family="Courier New" font-size="10.00">+ Verts1D</text>
<text text-anchor="start" x="769" y="-791.5" font-family="Courier New" font-size="10.00">+ Grid2D</text>
<text text-anchor="start" x="769" y="-780.5" font-family="Courier New" font-size="10.00">+ NeuronCell</text>
<text text-anchor="start" x="769" y="-769.5" font-family="Courier New" font-size="10.00">+ AverageDendriteRadius</text>
<text text-anchor="start" x="769" y="-758.5" font-family="Courier New" font-size="10.00">+ Map</text>
<text text-anchor="start" x="769" y="-747.5" font-family="Courier New" font-size="10.00">+ Mapping</text>
<text text-anchor="start" x="769" y="-736.5" font-family="Courier New" font-size="10.00">+ Scalars3D</text>
<text text-anchor="start" x="769" y="-725.5" font-family="Courier New" font-size="10.00">&#45; visualInflation</text>
<text text-anchor="start" x="769" y="-714.5" font-family="Courier New" font-size="10.00">&#45; colliderInflation</text>
<text text-anchor="start" x="769" y="-703.5" font-family="Courier New" font-size="10.00">&#45; refinementLevel</text>
<text text-anchor="start" x="769" y="-692.5" font-family="Courier New" font-size="10.00">&#45; meshCache</text>
<text text-anchor="start" x="769" y="-681.5" font-family="Courier New" font-size="10.00">&#45; clampMode</text>
<text text-anchor="start" x="769" y="-670.5" font-family="Courier New" font-size="10.00">&#45; averageDendriteRadius</text>
<text text-anchor="start" x="769" y="-659.5" font-family="Courier New" font-size="10.00">&#45; scalars3D</text>
<polyline fill="none" stroke="black" points="761,-652.5 988,-652.5 "/>
<text text-anchor="start" x="769" y="-640.5" font-family="Courier New" font-size="10.00">+ OnVisualInflationChangeDelegate()</text>
<text text-anchor="start" x="769" y="-629.5" font-family="Courier New" font-size="10.00">+ GetValues()</text>
<text text-anchor="start" x="769" y="-618.5" font-family="Courier New" font-size="10.00">+ SetValues()</text>
<text text-anchor="start" x="769" y="-607.5" font-family="Courier New" font-size="10.00">+ SetValues()</text>
<text text-anchor="start" x="769" y="-596.5" font-family="Courier New" font-size="10.00">+ Set1DValues()</text>
<text text-anchor="start" x="769" y="-585.5" font-family="Courier New" font-size="10.00">+ Get1DValues()</text>
<text text-anchor="start" x="769" y="-574.5" font-family="Courier New" font-size="10.00">+ SwitchColliderMesh()</text>
<text text-anchor="start" x="769" y="-563.5" font-family="Courier New" font-size="10.00">+ SwitchMesh()</text>
<text text-anchor="start" x="769" y="-552.5" font-family="Courier New" font-size="10.00"># OnAwakePre()</text>
<text text-anchor="start" x="769" y="-541.5" font-family="Courier New" font-size="10.00"># OnStart()</text>
<text text-anchor="start" x="769" y="-530.5" font-family="Courier New" font-size="10.00"># BuildVisualization()</text>
<text text-anchor="start" x="769" y="-519.5" font-family="Courier New" font-size="10.00">&#45; CheckMeshCache()</text>
<text text-anchor="start" x="769" y="-508.5" font-family="Courier New" font-size="10.00">&#45; UpdateGrid1D()</text>
<text text-anchor="start" x="769" y="-497.5" font-family="Courier New" font-size="10.00">&#45; Update2DGrid()</text>
</a>
</g>
</g>
<!-- Node2&#45;&gt;Node1 -->
<g id="edge1" class="edge"><title>Node2&#45;&gt;Node1</title>
<path fill="none" stroke="midnightblue" d="M945.324,-480.58C948.965,-467.913 952.611,-455.227 956.226,-442.649"/>
<polygon fill="none" stroke="midnightblue" points="941.941,-479.683 942.542,-490.261 948.668,-481.616 941.941,-479.683"/>
</g>
<!-- Node3 -->
<g id="node3" class="node"><title>Node3</title>
<g id="a_node3"><a xlink:href="../../d6/d2d/class_c2_m2_1_1_simulation_1_1_mesh_simulation.html" target="_top" xlink:title="Simulation of type double[] for visualizing scalar fields on mesh surfaces">
<polygon fill="white" stroke="black" points="224,-1052 224,-1230 379,-1230 379,-1052 224,-1052"/>
<text text-anchor="middle" x="301.5" y="-1218" font-family="Courier New" font-size="10.00">MeshSimulation</text>
<polyline fill="none" stroke="black" points="224,-1211 379,-1211 "/>
<text text-anchor="start" x="232" y="-1199" font-family="Courier New" font-size="10.00">+ gradient</text>
<text text-anchor="start" x="232" y="-1188" font-family="Courier New" font-size="10.00">+ globalMax</text>
<text text-anchor="start" x="232" y="-1177" font-family="Courier New" font-size="10.00">+ globalMin</text>
<text text-anchor="start" x="232" y="-1166" font-family="Courier New" font-size="10.00">+ colorLUT</text>
<text text-anchor="start" x="232" y="-1155" font-family="Courier New" font-size="10.00">+ VisualMesh</text>
<text text-anchor="start" x="232" y="-1144" font-family="Courier New" font-size="10.00">+ ColliderMesh</text>
<text text-anchor="start" x="232" y="-1133" font-family="Courier New" font-size="10.00">&#45; visualMesh</text>
<text text-anchor="start" x="232" y="-1122" font-family="Courier New" font-size="10.00">&#45; colliderMesh</text>
<text text-anchor="start" x="232" y="-1111" font-family="Courier New" font-size="10.00">&#45; mf</text>
<text text-anchor="start" x="232" y="-1100" font-family="Courier New" font-size="10.00">&#45; mr</text>
<polyline fill="none" stroke="black" points="224,-1093 379,-1093 "/>
<text text-anchor="start" x="232" y="-1081" font-family="Courier New" font-size="10.00"># UpdateVisualization()</text>
<text text-anchor="start" x="232" y="-1070" font-family="Courier New" font-size="10.00"># OnAwakePost()</text>
<text text-anchor="start" x="232" y="-1059" font-family="Courier New" font-size="10.00">&#45; UpdateVisualization()</text>
</a>
</g>
</g>
<!-- Node3&#45;&gt;Node2 -->
<g id="edge2" class="edge"><title>Node3&#45;&gt;Node2</title>
<path fill="none" stroke="midnightblue" d="M367.72,-1044.12C374.072,-1037.01 380.694,-1030.2 387.5,-1024 501.143,-920.497 656.412,-833.89 760.808,-781.842"/>
<polygon fill="none" stroke="midnightblue" points="364.843,-1042.09 360.937,-1051.94 370.132,-1046.68 364.843,-1042.09"/>
</g>
<!-- Node4 -->
<g id="node4" class="node"><title>Node4</title>
<g id="a_node4"><a xlink:href="../../db/d39/class_c2_m2_1_1_simulation_1_1_simulation.html" target="_top" xlink:title=" ">
<polygon fill="white" stroke="black" points="0,-1327.5 0,-1637.5 185,-1637.5 185,-1327.5 0,-1327.5"/>
<text text-anchor="start" x="8" y="-1625.5" font-family="Courier New" font-size="10.00">Simulation&lt; double</text>
<text text-anchor="start" x="8" y="-1614.5" font-family="Courier New" font-size="10.00">[], Mesh, VRRaycastableMesh,</text>
<text text-anchor="middle" x="92.5" y="-1603.5" font-family="Courier New" font-size="10.00"> VRGrabbableMesh &gt;</text>
<polyline fill="none" stroke="black" points="0,-1596.5 185,-1596.5 "/>
<text text-anchor="start" x="8" y="-1584.5" font-family="Courier New" font-size="10.00">+ dryRun</text>
<text text-anchor="start" x="8" y="-1573.5" font-family="Courier New" font-size="10.00">+ startOnAwake</text>
<text text-anchor="start" x="8" y="-1562.5" font-family="Courier New" font-size="10.00">+ viz</text>
<text text-anchor="start" x="8" y="-1551.5" font-family="Courier New" font-size="10.00"># mutex</text>
<text text-anchor="start" x="8" y="-1540.5" font-family="Courier New" font-size="10.00">&#45; solveThread</text>
<polyline fill="none" stroke="black" points="0,-1533.5 185,-1533.5 "/>
<text text-anchor="start" x="8" y="-1521.5" font-family="Courier New" font-size="10.00">+ GetValues()</text>
<text text-anchor="start" x="8" y="-1510.5" font-family="Courier New" font-size="10.00">+ Awake()</text>
<text text-anchor="start" x="8" y="-1499.5" font-family="Courier New" font-size="10.00">+ Start()</text>
<text text-anchor="start" x="8" y="-1488.5" font-family="Courier New" font-size="10.00">+ Update()</text>
<text text-anchor="start" x="8" y="-1477.5" font-family="Courier New" font-size="10.00">+ StartSimulation()</text>
<text text-anchor="start" x="8" y="-1466.5" font-family="Courier New" font-size="10.00">+ StopSimulation()</text>
<text text-anchor="start" x="8" y="-1455.5" font-family="Courier New" font-size="10.00"># BuildVisualization()</text>
<text text-anchor="start" x="8" y="-1444.5" font-family="Courier New" font-size="10.00"># UpdateVisualization()</text>
<text text-anchor="start" x="8" y="-1433.5" font-family="Courier New" font-size="10.00"># Solve()</text>
<text text-anchor="start" x="8" y="-1422.5" font-family="Courier New" font-size="10.00"># PreSolve()</text>
<text text-anchor="start" x="8" y="-1411.5" font-family="Courier New" font-size="10.00"># OnAwakePre()</text>
<text text-anchor="start" x="8" y="-1400.5" font-family="Courier New" font-size="10.00"># OnAwakePost()</text>
<text text-anchor="start" x="8" y="-1389.5" font-family="Courier New" font-size="10.00"># OnStart()</text>
<text text-anchor="start" x="8" y="-1378.5" font-family="Courier New" font-size="10.00"># OnUpdate()</text>
<text text-anchor="start" x="8" y="-1367.5" font-family="Courier New" font-size="10.00"># OnPause()</text>
<text text-anchor="start" x="8" y="-1356.5" font-family="Courier New" font-size="10.00"># OnQuit()</text>
<text text-anchor="start" x="8" y="-1345.5" font-family="Courier New" font-size="10.00">&#45; OnApplicationPause()</text>
<text text-anchor="start" x="8" y="-1334.5" font-family="Courier New" font-size="10.00">&#45; OnApplicationQuit()</text>
</a>
</g>
</g>
<!-- Node4&#45;&gt;Node3 -->
<g id="edge3" class="edge"><title>Node4&#45;&gt;Node3</title>
<path fill="none" stroke="midnightblue" d="M190.557,-1322.22C209.999,-1290.64 229.739,-1258.57 247.073,-1230.41"/>
<polygon fill="none" stroke="midnightblue" points="187.345,-1320.76 185.083,-1331.11 193.306,-1324.43 187.345,-1320.76"/>
</g>
<!-- Node5 -->
<g id="node5" class="node"><title>Node5</title>
<g id="a_node5"><a xlink:href="../../da/d4f/class_c2_m2_1_1_visualization_1_1_l_u_t_gradient.html" target="_top" xlink:title="Create a fast and memory&#45;friendly color lookup table from a gradient">
<polygon fill="white" stroke="black" points="203,-1366 203,-1599 400,-1599 400,-1366 203,-1366"/>
<text text-anchor="middle" x="301.5" y="-1587" font-family="Courier New" font-size="10.00">C2M2.Visualization.LUTGradient</text>
<polyline fill="none" stroke="black" points="203,-1580 400,-1580 "/>
<text text-anchor="start" x="211" y="-1568" font-family="Courier New" font-size="10.00">+ extremaMethod</text>
<text text-anchor="start" x="211" y="-1557" font-family="Courier New" font-size="10.00">+ globalMax</text>
<text text-anchor="start" x="211" y="-1546" font-family="Courier New" font-size="10.00">+ globalMin</text>
<text text-anchor="start" x="211" y="-1535" font-family="Courier New" font-size="10.00">+ curMax</text>
<text text-anchor="start" x="211" y="-1524" font-family="Courier New" font-size="10.00">+ curMix</text>
<text text-anchor="start" x="211" y="-1513" font-family="Courier New" font-size="10.00">+ LutRes</text>
<text text-anchor="start" x="211" y="-1502" font-family="Courier New" font-size="10.00">+ Gradient</text>
<text text-anchor="start" x="211" y="-1491" font-family="Courier New" font-size="10.00">+ gradientLUT</text>
<text text-anchor="start" x="211" y="-1480" font-family="Courier New" font-size="10.00">+ oldMin</text>
<text text-anchor="start" x="211" y="-1469" font-family="Courier New" font-size="10.00">+ oldMax</text>
<text text-anchor="start" x="211" y="-1458" font-family="Courier New" font-size="10.00">&#45; lutRes</text>
<text text-anchor="start" x="211" y="-1447" font-family="Courier New" font-size="10.00">&#45; gradient</text>
<polyline fill="none" stroke="black" points="203,-1440 400,-1440 "/>
<text text-anchor="start" x="211" y="-1428" font-family="Courier New" font-size="10.00">+ Evaluate()</text>
<text text-anchor="start" x="211" y="-1417" font-family="Courier New" font-size="10.00">+ Evaluate()</text>
<text text-anchor="start" x="211" y="-1406" font-family="Courier New" font-size="10.00">+ EvaluateUnscaled()</text>
<text text-anchor="start" x="211" y="-1395" font-family="Courier New" font-size="10.00">+ GetMinMax()</text>
<text text-anchor="start" x="211" y="-1384" font-family="Courier New" font-size="10.00">&#45; BuildLUT()</text>
<text text-anchor="start" x="211" y="-1373" font-family="Courier New" font-size="10.00">&#45; RescaleArray()</text>
</a>
</g>
</g>
<!-- Node5&#45;&gt;Node3 -->
<g id="edge4" class="edge"><title>Node5&#45;&gt;Node3</title>
<path fill="none" stroke="#404040" d="M301.5,-1365.61C301.5,-1325.49 301.5,-1280.88 301.5,-1242.13"/>
<polygon fill="none" stroke="#404040" points="301.5,-1242.04 297.5,-1236.04 301.5,-1230.04 305.5,-1236.04 301.5,-1242.04"/>
<text text-anchor="middle" x="347" y="-1290" font-family="Courier New" font-size="10.00"> +extremaMethod</text>
</g>
<!-- Node6 -->
<g id="node6" class="node"><title>Node6</title>
<g id="a_node6"><a xlink:title=" ">
<polygon fill="white" stroke="#bfbfbf" points="370,-1724 370,-1781 465,-1781 465,-1724 370,-1724"/>
<text text-anchor="middle" x="417.5" y="-1769" font-family="Courier New" font-size="10.00">MonoBehaviour</text>
<polyline fill="none" stroke="#bfbfbf" points="370,-1762 465,-1762 "/>
<text text-anchor="middle" x="417.5" y="-1750" font-family="Courier New" font-size="10.00"> </text>
<polyline fill="none" stroke="#bfbfbf" points="370,-1743 465,-1743 "/>
<text text-anchor="middle" x="417.5" y="-1731" font-family="Courier New" font-size="10.00"> </text>
</a>
</g>
</g>
<!-- Node6&#45;&gt;Node5 -->
<g id="edge5" class="edge"><title>Node6&#45;&gt;Node5</title>
<path fill="none" stroke="midnightblue" d="M401.536,-1714.62C388.573,-1684.67 369.559,-1640.74 351.579,-1599.2"/>
<polygon fill="none" stroke="midnightblue" points="398.339,-1716.04 405.523,-1723.83 404.763,-1713.26 398.339,-1716.04"/>
</g>
<!-- Node16 -->
<g id="node16" class="node"><title>Node16</title>
<g id="a_node16"><a xlink:href="../../d5/df9/class_c2_m2_1_1_interaction_1_1_raycast_event_manager.html" target="_top" xlink:title="Attach this script to parent gameObject, create one child with one raycast trigger per child....">
<polygon fill="white" stroke="black" points="397,-1024.5 397,-1257.5 558,-1257.5 558,-1024.5 397,-1024.5"/>
<text text-anchor="start" x="405" y="-1245.5" font-family="Courier New" font-size="10.00">C2M2.Interaction.Raycast</text>
<text text-anchor="middle" x="477.5" y="-1234.5" font-family="Courier New" font-size="10.00">EventManager</text>
<polyline fill="none" stroke="black" points="397,-1227.5 558,-1227.5 "/>
<text text-anchor="middle" x="477.5" y="-1215.5" font-family="Courier New" font-size="10.00"> </text>
<polyline fill="none" stroke="black" points="397,-1208.5 558,-1208.5 "/>
<text text-anchor="start" x="405" y="-1196.5" font-family="Courier New" font-size="10.00">+ TriggerChangeRight()</text>
<text text-anchor="start" x="405" y="-1185.5" font-family="Courier New" font-size="10.00">+ TriggerChangeLeft()</text>
<text text-anchor="start" x="405" y="-1174.5" font-family="Courier New" font-size="10.00">+ TriggerChangeBoth()</text>
<text text-anchor="start" x="405" y="-1163.5" font-family="Courier New" font-size="10.00">+ TriggerEmptyRight()</text>
<text text-anchor="start" x="405" y="-1152.5" font-family="Courier New" font-size="10.00">+ TriggerEmptyLeft()</text>
<text text-anchor="start" x="405" y="-1141.5" font-family="Courier New" font-size="10.00">+ TriggerEmptyBoth()</text>
<text text-anchor="start" x="405" y="-1130.5" font-family="Courier New" font-size="10.00">+ PressEvent()</text>
<text text-anchor="start" x="405" y="-1119.5" font-family="Courier New" font-size="10.00">+ HoldEvent()</text>
<text text-anchor="start" x="405" y="-1108.5" font-family="Courier New" font-size="10.00">+ EndEvent()</text>
<text text-anchor="start" x="405" y="-1097.5" font-family="Courier New" font-size="10.00">+ AllEvents()</text>
<text text-anchor="start" x="405" y="-1086.5" font-family="Courier New" font-size="10.00">+ PressEventNull()</text>
<text text-anchor="start" x="405" y="-1075.5" font-family="Courier New" font-size="10.00">+ HoldEventNull()</text>
<text text-anchor="start" x="405" y="-1064.5" font-family="Courier New" font-size="10.00">+ EndEventNull()</text>
<text text-anchor="start" x="405" y="-1053.5" font-family="Courier New" font-size="10.00">+ AllEventsNull()</text>
<text text-anchor="start" x="405" y="-1042.5" font-family="Courier New" font-size="10.00">+ ToString()</text>
<text text-anchor="start" x="405" y="-1031.5" font-family="Courier New" font-size="10.00">&#45; Awake()</text>
</a>
</g>
</g>
<!-- Node6&#45;&gt;Node16 -->
<g id="edge16" class="edge"><title>Node6&#45;&gt;Node16</title>
<path fill="none" stroke="midnightblue" d="M419.03,-1713.6C422.285,-1639.26 430.983,-1469.17 447.5,-1327 450.11,-1304.54 453.513,-1280.64 457.088,-1257.73"/>
<polygon fill="none" stroke="midnightblue" points="415.522,-1713.72 418.589,-1723.86 422.515,-1714.02 415.522,-1713.72"/>
</g>
<!-- Node17 -->
<g id="node17" class="node"><title>Node17</title>
<g id="a_node17"><a xlink:href="../../d8/d68/class_c2_m2_1_1_interaction_1_1_raycast_press_events.html" target="_top" xlink:title="Store custom events that the corresponding RaycastTriggerManager will invoke">
<polygon fill="white" stroke="black" points="457,-1426.5 457,-1538.5 618,-1538.5 618,-1426.5 457,-1426.5"/>
<text text-anchor="start" x="465" y="-1526.5" font-family="Courier New" font-size="10.00">C2M2.Interaction.Raycast</text>
<text text-anchor="middle" x="537.5" y="-1515.5" font-family="Courier New" font-size="10.00">PressEvents</text>
<polyline fill="none" stroke="black" points="457,-1508.5 618,-1508.5 "/>
<text text-anchor="start" x="465" y="-1496.5" font-family="Courier New" font-size="10.00">+ OnPress</text>
<text text-anchor="start" x="465" y="-1485.5" font-family="Courier New" font-size="10.00">+ OnHoldPress</text>
<text text-anchor="start" x="465" y="-1474.5" font-family="Courier New" font-size="10.00">+ OnEndPress</text>
<polyline fill="none" stroke="black" points="457,-1467.5 618,-1467.5 "/>
<text text-anchor="start" x="465" y="-1455.5" font-family="Courier New" font-size="10.00">+ Press()</text>
<text text-anchor="start" x="465" y="-1444.5" font-family="Courier New" font-size="10.00">+ HoldPress()</text>
<text text-anchor="start" x="465" y="-1433.5" font-family="Courier New" font-size="10.00">+ EndPress()</text>
</a>
</g>
</g>
<!-- Node6&#45;&gt;Node17 -->
<g id="edge19" class="edge"><title>Node6&#45;&gt;Node17</title>
<path fill="none" stroke="midnightblue" d="M434.011,-1714.62C454.398,-1669.09 489.259,-1591.24 512.826,-1538.6"/>
<polygon fill="none" stroke="midnightblue" points="430.782,-1713.27 429.89,-1723.83 437.171,-1716.13 430.782,-1713.27"/>
</g>
<!-- Node7 -->
<g id="node7" class="node"><title>Node7</title>
<g id="a_node7"><a xlink:href="../../da/df6/class_c2_m2_1_1_neuronal_dynamics_1_1_u_g_x_1_1_neuron_cell.html" target="_top" xlink:title=" ">
<polygon fill="white" stroke="black" points="576,-1046.5 576,-1235.5 749,-1235.5 749,-1046.5 576,-1046.5"/>
<text text-anchor="start" x="584" y="-1223.5" font-family="Courier New" font-size="10.00">C2M2.NeuronalDynamics.UGX.</text>
<text text-anchor="middle" x="662.5" y="-1212.5" font-family="Courier New" font-size="10.00">NeuronCell</text>
<polyline fill="none" stroke="black" points="576,-1205.5 749,-1205.5 "/>
<text text-anchor="start" x="584" y="-1193.5" font-family="Courier New" font-size="10.00">+ nodeData</text>
<text text-anchor="start" x="584" y="-1182.5" font-family="Courier New" font-size="10.00">+ edges</text>
<text text-anchor="start" x="584" y="-1171.5" font-family="Courier New" font-size="10.00">+ edgeLengths</text>
<text text-anchor="start" x="584" y="-1160.5" font-family="Courier New" font-size="10.00">+ boundaryID</text>
<text text-anchor="start" x="584" y="-1149.5" font-family="Courier New" font-size="10.00">+ somaID</text>
<text text-anchor="start" x="584" y="-1138.5" font-family="Courier New" font-size="10.00">+ vertCount</text>
<text text-anchor="start" x="584" y="-1127.5" font-family="Courier New" font-size="10.00">+ edgeCount</text>
<polyline fill="none" stroke="black" points="576,-1120.5 749,-1120.5 "/>
<text text-anchor="start" x="584" y="-1108.5" font-family="Courier New" font-size="10.00">+ NeuronCell()</text>
<text text-anchor="start" x="584" y="-1097.5" font-family="Courier New" font-size="10.00">+ NodeToString()</text>
<text text-anchor="start" x="584" y="-1086.5" font-family="Courier New" font-size="10.00">+ EdgeToString()</text>
<text text-anchor="start" x="584" y="-1075.5" font-family="Courier New" font-size="10.00">+ ToString()</text>
<text text-anchor="start" x="584" y="-1064.5" font-family="Courier New" font-size="10.00">&#45; NodeNeighborsToString()</text>
<text text-anchor="start" x="584" y="-1053.5" font-family="Courier New" font-size="10.00">&#45; GetEdgeLength()</text>
</a>
</g>
</g>
<!-- Node7&#45;&gt;Node2 -->
<g id="edge6" class="edge"><title>Node7&#45;&gt;Node2</title>
<path fill="none" stroke="#404040" d="M710.739,-1046.48C724.237,-1020.31 739.535,-990.654 755.227,-960.233"/>
<polygon fill="none" stroke="#404040" points="755.29,-960.11 754.486,-952.944 760.791,-949.445 761.595,-956.611 755.29,-960.11"/>
<text text-anchor="middle" x="774" y="-992.5" font-family="Courier New" font-size="10.00"> &#45;neuronCell</text>
</g>
<!-- Node8 -->
<g id="node8" class="node"><title>Node8</title>
<g id="a_node8"><a xlink:title=" ">
<polygon fill="white" stroke="#bfbfbf" points="636,-1454 636,-1511 689,-1511 689,-1454 636,-1454"/>
<text text-anchor="middle" x="662.5" y="-1499" font-family="Courier New" font-size="10.00">static</text>
<polyline fill="none" stroke="#bfbfbf" points="636,-1492 689,-1492 "/>
<text text-anchor="middle" x="662.5" y="-1480" font-family="Courier New" font-size="10.00"> </text>
<polyline fill="none" stroke="#bfbfbf" points="636,-1473 689,-1473 "/>
<text text-anchor="middle" x="662.5" y="-1461" font-family="Courier New" font-size="10.00"> </text>
</a>
</g>
</g>
<!-- Node8&#45;&gt;Node7 -->
<g id="edge7" class="edge"><title>Node8&#45;&gt;Node7</title>
<path fill="none" stroke="#404040" d="M662.5,-1453.72C662.5,-1409.26 662.5,-1319.82 662.5,-1248.11"/>
<polygon fill="none" stroke="#404040" points="662.5,-1247.85 658.5,-1241.85 662.5,-1235.85 666.5,-1241.85 662.5,-1247.85"/>
<text text-anchor="middle" x="717" y="-1301" font-family="Courier New" font-size="10.00"> &#45;nodeFormatString</text>
<text text-anchor="middle" x="717" y="-1290" font-family="Courier New" font-size="10.00">&#45;edgeFormatString</text>
<text text-anchor="middle" x="717" y="-1279" font-family="Courier New" font-size="10.00">&#45;cellFormatString</text>
</g>
<!-- Node8&#45;&gt;Node16 -->
<g id="edge17" class="edge"><title>Node8&#45;&gt;Node16</title>
<path fill="none" stroke="#404040" d="M661.546,-1453.98C659.248,-1421.33 651.606,-1366.36 626.5,-1327 619.519,-1316.06 612.597,-1318.26 603.5,-1309 590.659,-1295.93 577.985,-1281.53 565.912,-1266.82"/>
<polygon fill="none" stroke="#404040" points="565.617,-1266.45 558.733,-1264.31 558.07,-1257.12 564.953,-1259.27 565.617,-1266.45"/>
<text text-anchor="middle" x="631" y="-1290" font-family="Courier New" font-size="10.00"> &#45;nullHit</text>
</g>
<!-- Node9 -->
<g id="node9" class="node"><title>Node9</title>
<g id="a_node9"><a xlink:href="../../db/dbd/struct_c2_m2_1_1_neuronal_dynamics_1_1_simulation_1_1_vert3_d1_d_pair.html" target="_top" xlink:title="Stores two 1D indices and a lambda value for a 3D vertex">
<polygon fill="white" stroke="black" points="767,-1090.5 767,-1191.5 982,-1191.5 982,-1090.5 767,-1090.5"/>
<text text-anchor="start" x="775" y="-1179.5" font-family="Courier New" font-size="10.00">C2M2.NeuronalDynamics.Simulation.</text>
<text text-anchor="middle" x="874.5" y="-1168.5" font-family="Courier New" font-size="10.00">Vert3D1DPair</text>
<polyline fill="none" stroke="black" points="767,-1161.5 982,-1161.5 "/>
<text text-anchor="start" x="775" y="-1149.5" font-family="Courier New" font-size="10.00">+ v1</text>
<text text-anchor="start" x="775" y="-1138.5" font-family="Courier New" font-size="10.00">+ v2</text>
<text text-anchor="start" x="775" y="-1127.5" font-family="Courier New" font-size="10.00">+ lambda</text>
<polyline fill="none" stroke="black" points="767,-1120.5 982,-1120.5 "/>
<text text-anchor="start" x="775" y="-1108.5" font-family="Courier New" font-size="10.00">+ Vert3D1DPair()</text>
<text text-anchor="start" x="775" y="-1097.5" font-family="Courier New" font-size="10.00">+ ToString()</text>
</a>
</g>
</g>
<!-- Node9&#45;&gt;Node2 -->
<g id="edge8" class="edge"><title>Node9&#45;&gt;Node2</title>
<path fill="none" stroke="#404040" d="M874.5,-1090.42C874.5,-1060.76 874.5,-1020.58 874.5,-977.779"/>
<polygon fill="none" stroke="#404040" points="874.5,-977.643 870.5,-971.643 874.5,-965.643 878.5,-971.643 874.5,-977.643"/>
<text text-anchor="middle" x="890" y="-992.5" font-family="Courier New" font-size="10.00"> &#45;map</text>
</g>
<!-- Node10 -->
<g id="node10" class="node"><title>Node10</title>
<g id="a_node10"><a xlink:title=" ">
<polygon fill="white" stroke="#bfbfbf" points="1000,-1112.5 1000,-1169.5 1041,-1169.5 1041,-1112.5 1000,-1112.5"/>
<text text-anchor="middle" x="1020.5" y="-1157.5" font-family="Courier New" font-size="10.00">C2M2</text>
<polyline fill="none" stroke="#bfbfbf" points="1000,-1150.5 1041,-1150.5 "/>
<text text-anchor="middle" x="1020.5" y="-1138.5" font-family="Courier New" font-size="10.00"> </text>
<polyline fill="none" stroke="#bfbfbf" points="1000,-1131.5 1041,-1131.5 "/>
<text text-anchor="middle" x="1020.5" y="-1119.5" font-family="Courier New" font-size="10.00"> </text>
</a>
</g>
</g>
<!-- Node10&#45;&gt;Node2 -->
<g id="edge9" class="edge"><title>Node10&#45;&gt;Node2</title>
<path fill="none" stroke="#404040" d="M1014.28,-1112.07C1008.78,-1088.4 1000.13,-1053.68 990.5,-1024 985.51,-1008.63 980.138,-992.897 974.537,-977.096"/>
<polygon fill="none" stroke="#404040" points="974.46,-976.881 968.674,-972.578 970.421,-965.582 976.207,-969.885 974.46,-976.881"/>
<text text-anchor="middle" x="1007" y="-998" font-family="Courier New" font-size="10.00"> &#45;grid1D</text>
<text text-anchor="middle" x="1007" y="-987" font-family="Courier New" font-size="10.00">&#45;grid2D</text>
</g>
<!-- Node11 -->
<g id="node11" class="node"><title>Node11</title>
<g id="a_node11"><a xlink:href="../../dd/d2a/struct_c2_m2_1_1_neuronal_dynamics_1_1_u_g_x_1_1_mapping_info.html" target="_top" xlink:title="Encapsulates the grids and mapping data">
<polygon fill="white" stroke="black" points="1059,-1096 1059,-1186 1232,-1186 1232,-1096 1059,-1096"/>
<text text-anchor="start" x="1067" y="-1174" font-family="Courier New" font-size="10.00">C2M2.NeuronalDynamics.UGX.</text>
<text text-anchor="middle" x="1145.5" y="-1163" font-family="Courier New" font-size="10.00">MappingInfo</text>
<polyline fill="none" stroke="black" points="1059,-1156 1232,-1156 "/>
<text text-anchor="start" x="1067" y="-1144" font-family="Courier New" font-size="10.00">+ ModelGeometry</text>
<text text-anchor="start" x="1067" y="-1133" font-family="Courier New" font-size="10.00">+ SurfaceGeometry</text>
<text text-anchor="start" x="1067" y="-1122" font-family="Courier New" font-size="10.00">+ Data</text>
<polyline fill="none" stroke="black" points="1059,-1115 1232,-1115 "/>
<text text-anchor="start" x="1067" y="-1103" font-family="Courier New" font-size="10.00">+ MappingInfo()</text>
</a>
</g>
</g>
<!-- Node11&#45;&gt;Node2 -->
<g id="edge10" class="edge"><title>Node11&#45;&gt;Node2</title>
<path fill="none" stroke="#404040" d="M1122.82,-1095.85C1103.44,-1061.67 1072.8,-1015.07 1035.5,-984 1023.01,-973.595 1013.51,-977.435 997.287,-965.464"/>
<polygon fill="none" stroke="#404040" points="997.241,-965.425 990.084,-964.548 988.14,-957.603 995.298,-958.48 997.241,-965.425"/>
<text text-anchor="middle" x="1086" y="-992.5" font-family="Courier New" font-size="10.00"> &#45;mapping</text>
</g>
<!-- Node12 -->
<g id="node12" class="node"><title>Node12</title>
<g id="a_node12"><a xlink:href="../../d1/d08/class_c2_m2_1_1_neuronal_dynamics_1_1_visualization_1_1_v_r_n_1_1_vrn_reader.html" target="_top" xlink:title=" ">
<polygon fill="white" stroke="black" points="1250,-1079.5 1250,-1202.5 1483,-1202.5 1483,-1079.5 1250,-1079.5"/>
<text text-anchor="start" x="1258" y="-1190.5" font-family="Courier New" font-size="10.00">C2M2.NeuronalDynamics.Visualization.</text>
<text text-anchor="middle" x="1366.5" y="-1179.5" font-family="Courier New" font-size="10.00">VRN.VrnReader</text>
<polyline fill="none" stroke="black" points="1250,-1172.5 1483,-1172.5 "/>
<text text-anchor="start" x="1258" y="-1160.5" font-family="Courier New" font-size="10.00">&#45; fileName</text>
<text text-anchor="start" x="1258" y="-1149.5" font-family="Courier New" font-size="10.00">&#45; loaded</text>
<polyline fill="none" stroke="black" points="1250,-1142.5 1483,-1142.5 "/>
<text text-anchor="start" x="1258" y="-1130.5" font-family="Courier New" font-size="10.00">+ List()</text>
<text text-anchor="start" x="1258" y="-1119.5" font-family="Courier New" font-size="10.00">+ ReadUGX()</text>
<text text-anchor="start" x="1258" y="-1108.5" font-family="Courier New" font-size="10.00">+ Retrieve1DMeshName()</text>
<text text-anchor="start" x="1258" y="-1097.5" font-family="Courier New" font-size="10.00">+ Retrieve2DMeshName()</text>
<text text-anchor="start" x="1258" y="-1086.5" font-family="Courier New" font-size="10.00">+ VrnReader()</text>
</a>
</g>
</g>
<!-- Node12&#45;&gt;Node2 -->
<g id="edge11" class="edge"><title>Node12&#45;&gt;Node2</title>
<path fill="none" stroke="#404040" d="M1311.13,-1079.4C1290.51,-1059.58 1265.91,-1038.86 1240.5,-1024 1190.88,-994.976 1173.46,-997.164 1117.5,-984 1068.09,-972.376 1044,-994.361 998.31,-966.435"/>
<polygon fill="none" stroke="#404040" points="998.192,-966.357 990.981,-966.348 988.216,-959.689 995.427,-959.697 998.192,-966.357"/>
<text text-anchor="middle" x="1239" y="-992.5" font-family="Courier New" font-size="10.00"> &#45;vrnReader</text>
</g>
<!-- Node13 -->
<g id="node13" class="node"><title>Node13</title>
<g id="a_node13"><a xlink:href="../../d9/d5c/class_c2_m2_1_1_neuronal_dynamics_1_1_visualization_1_1_v_r_n_1_1_vrn_reader_1_1_geometry.html" target="_top" xlink:title="Stores 1D and associated 2D geometries in the member geom1d">
<polygon fill="white" stroke="black" points="1250,-1448.5 1250,-1516.5 1483,-1516.5 1483,-1448.5 1250,-1448.5"/>
<text text-anchor="start" x="1258" y="-1504.5" font-family="Courier New" font-size="10.00">C2M2.NeuronalDynamics.Visualization.</text>
<text text-anchor="middle" x="1366.5" y="-1493.5" font-family="Courier New" font-size="10.00">VRN.VrnReader.Geometry</text>
<polyline fill="none" stroke="black" points="1250,-1486.5 1483,-1486.5 "/>
<text text-anchor="middle" x="1366.5" y="-1474.5" font-family="Courier New" font-size="10.00"> </text>
<polyline fill="none" stroke="black" points="1250,-1467.5 1483,-1467.5 "/>
<text text-anchor="start" x="1258" y="-1455.5" font-family="Courier New" font-size="10.00">+ Geometry()</text>
</a>
</g>
</g>
<!-- Node13&#45;&gt;Node12 -->
<g id="edge12" class="edge"><title>Node13&#45;&gt;Node12</title>
<path fill="none" stroke="#404040" d="M1366.5,-1448.33C1366.5,-1394.54 1366.5,-1287.06 1366.5,-1214.81"/>
<polygon fill="none" stroke="#404040" points="1366.5,-1214.65 1362.5,-1208.65 1366.5,-1202.65 1370.5,-1208.65 1366.5,-1214.65"/>
<text text-anchor="middle" x="1397" y="-1290" font-family="Courier New" font-size="10.00"> &#45;geometry</text>
</g>
<!-- Node14 -->
<g id="node14" class="node"><title>Node14</title>
<g id="a_node14"><a xlink:href="../../dd/df0/struct_c2_m2_1_1_neuronal_dynamics_1_1_visualization_1_1_v_r_n_1_1_vrn_reader_1_1_geom1d.html" target="_top" xlink:title="Stores the 1D geometries by name, refinement and a description Inflations are attached to the 1D geom...">
<polygon fill="white" stroke="black" points="1250,-1707.5 1250,-1797.5 1483,-1797.5 1483,-1707.5 1250,-1707.5"/>
<text text-anchor="start" x="1258" y="-1785.5" font-family="Courier New" font-size="10.00">C2M2.NeuronalDynamics.Visualization.</text>
<text text-anchor="middle" x="1366.5" y="-1774.5" font-family="Courier New" font-size="10.00">VRN.VrnReader.Geom1d</text>
<polyline fill="none" stroke="black" points="1250,-1767.5 1483,-1767.5 "/>
<text text-anchor="start" x="1258" y="-1755.5" font-family="Courier New" font-size="10.00">+ name</text>
<text text-anchor="start" x="1258" y="-1744.5" font-family="Courier New" font-size="10.00">+ refinement</text>
<text text-anchor="start" x="1258" y="-1733.5" font-family="Courier New" font-size="10.00">+ description</text>
<polyline fill="none" stroke="black" points="1250,-1726.5 1483,-1726.5 "/>
<text text-anchor="start" x="1258" y="-1714.5" font-family="Courier New" font-size="10.00">+ Geom1d()</text>
</a>
</g>
</g>
<!-- Node14&#45;&gt;Node13 -->
<g id="edge13" class="edge"><title>Node14&#45;&gt;Node13</title>
<path fill="none" stroke="#404040" d="M1366.5,-1707.25C1366.5,-1658.01 1366.5,-1578.86 1366.5,-1529.09"/>
<polygon fill="none" stroke="#404040" points="1366.5,-1528.8 1362.5,-1522.8 1366.5,-1516.8 1370.5,-1522.8 1366.5,-1528.8"/>
<text text-anchor="middle" x="1391" y="-1670" font-family="Courier New" font-size="10.00"> +geom1d</text>
</g>
<!-- Node15 -->
<g id="node15" class="node"><title>Node15</title>
<g id="a_node15"><a xlink:href="../../d8/daf/struct_c2_m2_1_1_neuronal_dynamics_1_1_visualization_1_1_v_r_n_1_1_vrn_reader_1_1_geom2d.html" target="_top" xlink:title="Stores the 2d geometries by name, inflation (factor), and description">
<polygon fill="white" stroke="black" points="1250,-1845.5 1250,-1935.5 1483,-1935.5 1483,-1845.5 1250,-1845.5"/>
<text text-anchor="start" x="1258" y="-1923.5" font-family="Courier New" font-size="10.00">C2M2.NeuronalDynamics.Visualization.</text>
<text text-anchor="middle" x="1366.5" y="-1912.5" font-family="Courier New" font-size="10.00">VRN.VrnReader.Geom2d</text>
<polyline fill="none" stroke="black" points="1250,-1905.5 1483,-1905.5 "/>
<text text-anchor="start" x="1258" y="-1893.5" font-family="Courier New" font-size="10.00">+ inflation</text>
<text text-anchor="start" x="1258" y="-1882.5" font-family="Courier New" font-size="10.00">+ name</text>
<text text-anchor="start" x="1258" y="-1871.5" font-family="Courier New" font-size="10.00">+ description</text>
<polyline fill="none" stroke="black" points="1250,-1864.5 1483,-1864.5 "/>
<text text-anchor="start" x="1258" y="-1852.5" font-family="Courier New" font-size="10.00">+ Geom2d()</text>
</a>
</g>
</g>
<!-- Node15&#45;&gt;Node14 -->
<g id="edge14" class="edge"><title>Node15&#45;&gt;Node14</title>
<path fill="none" stroke="#404040" d="M1366.5,-1845.34C1366.5,-1834.06 1366.5,-1821.78 1366.5,-1809.97"/>
<polygon fill="none" stroke="#404040" points="1366.5,-1809.9 1362.5,-1803.9 1366.5,-1797.9 1370.5,-1803.9 1366.5,-1809.9"/>
<text text-anchor="middle" x="1403" y="-1819" font-family="Courier New" font-size="10.00"> +inflations</text>
</g>
<!-- Node16&#45;&gt;Node2 -->
<g id="edge15" class="edge"><title>Node16&#45;&gt;Node2</title>
<path fill="none" stroke="#404040" d="M558.099,-1033.57C560.9,-1030.32 563.705,-1027.12 566.5,-1024 624.313,-959.489 693.612,-892.33 751.823,-838.416"/>
<polygon fill="none" stroke="#404040" points="751.882,-838.362 753.576,-831.352 760.698,-830.22 759.004,-837.229 751.882,-838.362"/>
<text text-anchor="middle" x="647" y="-992.5" font-family="Courier New" font-size="10.00"> &#45;raycastManager</text>
</g>
<!-- Node17&#45;&gt;Node16 -->
<g id="edge18" class="edge"><title>Node17&#45;&gt;Node16</title>
<path fill="none" stroke="#404040" d="M515.507,-1426.16C503.352,-1392.8 489.358,-1349.12 482.5,-1309 480.349,-1296.41 478.789,-1283.22 477.682,-1269.99"/>
<polygon fill="none" stroke="#404040" points="477.67,-1269.82 473.24,-1264.13 476.788,-1257.86 481.218,-1263.55 477.67,-1269.82"/>
<text text-anchor="middle" x="522" y="-1301" font-family="Courier New" font-size="10.00"> +leftTrigger</text>
<text text-anchor="middle" x="522" y="-1290" font-family="Courier New" font-size="10.00">+rightTrigger</text>
<text text-anchor="middle" x="522" y="-1279" font-family="Courier New" font-size="10.00">&#45;emptyTrigger</text>
</g>
<!-- Node18 -->
<g id="node18" class="node"><title>Node18</title>
<g id="a_node18"><a xlink:href="../../d2/d43/class_c2_m2_1_1_interaction_1_1_raycast_press_events_1_1_raycast_hit_event.html" target="_top" xlink:title=" ">
<polygon fill="white" stroke="black" points="483,-1718.5 483,-1786.5 662,-1786.5 662,-1718.5 483,-1718.5"/>
<text text-anchor="start" x="491" y="-1774.5" font-family="Courier New" font-size="10.00">C2M2.Interaction.Raycast</text>
<text text-anchor="middle" x="572.5" y="-1763.5" font-family="Courier New" font-size="10.00">PressEvents.RaycastHitEvent</text>
<polyline fill="none" stroke="black" points="483,-1756.5 662,-1756.5 "/>
<text text-anchor="middle" x="572.5" y="-1744.5" font-family="Courier New" font-size="10.00"> </text>
<polyline fill="none" stroke="black" points="483,-1737.5 662,-1737.5 "/>
<text text-anchor="middle" x="572.5" y="-1725.5" font-family="Courier New" font-size="10.00"> </text>
</a>
</g>
</g>
<!-- Node18&#45;&gt;Node17 -->
<g id="edge20" class="edge"><title>Node18&#45;&gt;Node17</title>
<path fill="none" stroke="#404040" d="M568.173,-1718.37C562.735,-1676.73 553.268,-1604.24 546.286,-1550.78"/>
<polygon fill="none" stroke="#404040" points="546.257,-1550.55 541.514,-1545.12 544.703,-1538.65 549.446,-1544.09 546.257,-1550.55"/>
<text text-anchor="middle" x="601" y="-1681" font-family="Courier New" font-size="10.00"> &#45;onPress</text>
<text text-anchor="middle" x="601" y="-1670" font-family="Courier New" font-size="10.00">&#45;onHoldPress</text>
<text text-anchor="middle" x="601" y="-1659" font-family="Courier New" font-size="10.00">&#45;onEndPress</text>
</g>
<!-- Node19 -->
<g id="node19" class="node"><title>Node19</title>
<g id="a_node19"><a xlink:title=" ">
<polygon fill="white" stroke="#bfbfbf" points="492,-1862 492,-1919 653,-1919 653,-1862 492,-1862"/>
<text text-anchor="middle" x="572.5" y="-1907" font-family="Courier New" font-size="10.00">UnityEvent&lt; RaycastHit &gt;</text>
<polyline fill="none" stroke="#bfbfbf" points="492,-1900 653,-1900 "/>
<text text-anchor="middle" x="572.5" y="-1888" font-family="Courier New" font-size="10.00"> </text>
<polyline fill="none" stroke="#bfbfbf" points="492,-1881 653,-1881 "/>
<text text-anchor="middle" x="572.5" y="-1869" font-family="Courier New" font-size="10.00"> </text>
</a>
</g>
</g>
<!-- Node19&#45;&gt;Node18 -->
<g id="edge21" class="edge"><title>Node19&#45;&gt;Node18</title>
<path fill="none" stroke="midnightblue" d="M572.5,-1851.78C572.5,-1831.38 572.5,-1806.41 572.5,-1786.75"/>
<polygon fill="none" stroke="midnightblue" points="569,-1851.98 572.5,-1861.98 576,-1851.98 569,-1851.98"/>
</g>
<!-- Node20 -->
<g id="node20" class="node"><title>Node20</title>
<g id="a_node20"><a xlink:href="../../d3/dca/class_c2_m2_1_1_utils_1_1_timer.html" target="_top" xlink:title=" ">
<polygon fill="white" stroke="black" points="1006,-639 1006,-817 1131,-817 1131,-639 1006,-639"/>
<text text-anchor="middle" x="1068.5" y="-805" font-family="Courier New" font-size="10.00">C2M2.Utils.Timer</text>
<polyline fill="none" stroke="black" points="1006,-798 1131,-798 "/>
<text text-anchor="start" x="1014" y="-786" font-family="Courier New" font-size="10.00">+ timerNodes</text>
<text text-anchor="start" x="1014" y="-775" font-family="Courier New" font-size="10.00">&#45; t0</text>
<text text-anchor="start" x="1014" y="-764" font-family="Courier New" font-size="10.00">&#45; t1</text>
<text text-anchor="start" x="1014" y="-753" font-family="Courier New" font-size="10.00">&#45; stopwatch</text>
<polyline fill="none" stroke="black" points="1006,-746 1131,-746 "/>
<text text-anchor="start" x="1014" y="-734" font-family="Courier New" font-size="10.00">+ Timer()</text>
<text text-anchor="start" x="1014" y="-723" font-family="Courier New" font-size="10.00">+ Timer()</text>
<text text-anchor="start" x="1014" y="-712" font-family="Courier New" font-size="10.00">+ StartTimer()</text>
<text text-anchor="start" x="1014" y="-701" font-family="Courier New" font-size="10.00">+ StopTimer()</text>
<text text-anchor="start" x="1014" y="-690" font-family="Courier New" font-size="10.00">+ StopTimer()</text>
<text text-anchor="start" x="1014" y="-679" font-family="Courier New" font-size="10.00">+ ExportCSV_path()</text>
<text text-anchor="start" x="1014" y="-668" font-family="Courier New" font-size="10.00">+ ExportCSV()</text>
<text text-anchor="start" x="1014" y="-657" font-family="Courier New" font-size="10.00">+ ToString()</text>
<text text-anchor="start" x="1014" y="-646" font-family="Courier New" font-size="10.00">+ ToStringPlus()</text>
</a>
</g>
</g>
<!-- Node20&#45;&gt;Node1 -->
<g id="edge22" class="edge"><title>Node20&#45;&gt;Node1</title>
<path fill="none" stroke="#404040" d="M1059.94,-638.834C1054.96,-587.582 1048.43,-520.364 1042.08,-454.936"/>
<polygon fill="none" stroke="#404040" points="1042.05,-454.688 1037.49,-449.102 1040.89,-442.744 1045.45,-448.329 1042.05,-454.688"/>
<text text-anchor="middle" x="1065" y="-464" font-family="Courier New" font-size="10.00"> &#45;timer</text>
</g>
</g>
</svg>
