<?xml version="1.0" encoding="UTF-8" standalone="no"?>
<!DOCTYPE svg PUBLIC "-//W3C//DTD SVG 1.1//EN"
 "http://www.w3.org/Graphics/SVG/1.1/DTD/svg11.dtd">
<!-- Generated by graphviz version 2.38.0 (20140413.2041)
 -->
<!-- Title: C2M2.Interaction.Signaling.MouseEventSignaler Pages: 1 -->
<svg width="417pt" height="1168pt"
 viewBox="0.00 0.00 416.50 1168.00" xmlns="http://www.w3.org/2000/svg" xmlns:xlink="http://www.w3.org/1999/xlink">
<g id="graph0" class="graph" transform="scale(1 1) rotate(0) translate(4 1164)">
<title>C2M2.Interaction.Signaling.MouseEventSignaler</title>
<polygon fill="white" stroke="none" points="-4,4 -4,-1164 412.5,-1164 412.5,4 -4,4"/>
<!-- Node1 -->
<g id="node1" class="node"><title>Node1</title>
<g id="a_node1"><a xlink:title=" ">
<polygon fill="#bfbfbf" stroke="black" points="26,-0.5 26,-145.5 211,-145.5 211,-0.5 26,-0.5"/>
<text text-anchor="start" x="34" y="-133.5" font-family="Courier New" font-size="10.00">C2M2.Interaction.Signaling.</text>
<text text-anchor="middle" x="118.5" y="-122.5" font-family="Courier New" font-size="10.00">MouseEventSignaler</text>
<polyline fill="none" stroke="black" points="26,-115.5 211,-115.5 "/>
<text text-anchor="middle" x="118.5" y="-103.5" font-family="Courier New" font-size="10.00"> </text>
<polyline fill="none" stroke="black" points="26,-96.5 211,-96.5 "/>
<text text-anchor="start" x="34" y="-84.5" font-family="Courier New" font-size="10.00"># OnAwake()</text>
<text text-anchor="start" x="34" y="-73.5" font-family="Courier New" font-size="10.00"># OnStart()</text>
<text text-anchor="start" x="34" y="-62.5" font-family="Courier New" font-size="10.00"># BeginRaycastingCondition()</text>
<text text-anchor="start" x="34" y="-51.5" font-family="Courier New" font-size="10.00"># RaycastingMethod()</text>
<text text-anchor="start" x="34" y="-40.5" font-family="Courier New" font-size="10.00"># ChildsPressCondition()</text>
<text text-anchor="start" x="34" y="-29.5" font-family="Courier New" font-size="10.00"># OnPressSub()</text>
<text text-anchor="start" x="34" y="-18.5" font-family="Courier New" font-size="10.00"># OnHoldPressSub()</text>
<text text-anchor="start" x="34" y="-7.5" font-family="Courier New" font-size="10.00"># OnEndPressSub()</text>
</a>
</g>
</g>
<!-- Node2 -->
<g id="node2" class="node"><title>Node2</title>
<g id="a_node2"><a xlink:href="../../d6/d2d/class_c2_m2_1_1_interaction_1_1_signaling_1_1_raycast_event_signaler.html" target="_top" xlink:title=" ">
<polygon fill="white" stroke="black" points="26,-183.5 26,-427.5 211,-427.5 211,-183.5 26,-183.5"/>
<text text-anchor="middle" x="118.5" y="-415.5" font-family="Courier New" font-size="10.00">RaycastEventSignaler</text>
<polyline fill="none" stroke="black" points="26,-408.5 211,-408.5 "/>
<text text-anchor="start" x="34" y="-396.5" font-family="Courier New" font-size="10.00">+ rightHand</text>
<text text-anchor="start" x="34" y="-385.5" font-family="Courier New" font-size="10.00">+ maxRaycastDistance</text>
<text text-anchor="start" x="34" y="-374.5" font-family="Courier New" font-size="10.00">&#45; layerMask</text>
<text text-anchor="start" x="34" y="-363.5" font-family="Courier New" font-size="10.00">&#45; lastHit</text>
<polyline fill="none" stroke="black" points="26,-356.5 211,-356.5 "/>
<text text-anchor="start" x="34" y="-344.5" font-family="Courier New" font-size="10.00"># OnAwake()</text>
<text text-anchor="start" x="34" y="-333.5" font-family="Courier New" font-size="10.00"># Awake()</text>
<text text-anchor="start" x="34" y="-322.5" font-family="Courier New" font-size="10.00"># OnStart()</text>
<text text-anchor="start" x="34" y="-311.5" font-family="Courier New" font-size="10.00"># OnPress()</text>
<text text-anchor="start" x="34" y="-300.5" font-family="Courier New" font-size="10.00"># OnHoldPress()</text>
<text text-anchor="start" x="34" y="-289.5" font-family="Courier New" font-size="10.00"># OnEndPress()</text>
<text text-anchor="start" x="34" y="-278.5" font-family="Courier New" font-size="10.00"># OnPressSub()</text>
<text text-anchor="start" x="34" y="-267.5" font-family="Courier New" font-size="10.00"># OnHoldPressSub()</text>
<text text-anchor="start" x="34" y="-256.5" font-family="Courier New" font-size="10.00"># OnEndPressSub()</text>
<text text-anchor="start" x="34" y="-245.5" font-family="Courier New" font-size="10.00"># RaycastingMethod()</text>
<text text-anchor="start" x="34" y="-234.5" font-family="Courier New" font-size="10.00"># BeginRaycastingCondition()</text>
<text text-anchor="start" x="34" y="-223.5" font-family="Courier New" font-size="10.00"># ChildsPressCondition()</text>
<text text-anchor="start" x="34" y="-212.5" font-family="Courier New" font-size="10.00">&#45; Start()</text>
<text text-anchor="start" x="34" y="-201.5" font-family="Courier New" font-size="10.00">&#45; FixedUpdate()</text>
<text text-anchor="start" x="34" y="-190.5" font-family="Courier New" font-size="10.00">&#45; FindRaycastTrigger()</text>
</a>
</g>
</g>
<!-- Node2&#45;&gt;Node1 -->
<g id="edge1" class="edge"><title>Node2&#45;&gt;Node1</title>
<path fill="none" stroke="midnightblue" d="M118.5,-173.01C118.5,-163.683 118.5,-154.501 118.5,-145.715"/>
<polygon fill="none" stroke="midnightblue" points="115,-173.175 118.5,-183.175 122,-173.175 115,-173.175"/>
</g>
<!-- Node3 -->
<g id="node3" class="node"><title>Node3</title>
<g id="a_node3"><a xlink:href="../../d6/d4b/class_c2_m2_1_1_interaction_1_1_signaling_1_1_press_event_signaler.html" target="_top" xlink:title="Send press, holdPress, and endPress events based on set values of Pressed and RaycastTriggerManager">
<polygon fill="white" stroke="black" points="0,-716.5 0,-806.5 125,-806.5 125,-716.5 0,-716.5"/>
<text text-anchor="middle" x="62.5" y="-794.5" font-family="Courier New" font-size="10.00">PressEventSignaler</text>
<polyline fill="none" stroke="black" points="0,-787.5 125,-787.5 "/>
<text text-anchor="start" x="8" y="-775.5" font-family="Courier New" font-size="10.00">+ Pressed</text>
<text text-anchor="start" x="8" y="-764.5" font-family="Courier New" font-size="10.00">&#45; pressedPrevFrame</text>
<polyline fill="none" stroke="black" points="0,-757.5 125,-757.5 "/>
<text text-anchor="start" x="8" y="-745.5" font-family="Courier New" font-size="10.00"># OnPress()</text>
<text text-anchor="start" x="8" y="-734.5" font-family="Courier New" font-size="10.00"># OnHoldPress()</text>
<text text-anchor="start" x="8" y="-723.5" font-family="Courier New" font-size="10.00"># OnEndPress()</text>
</a>
</g>
</g>
<!-- Node3&#45;&gt;Node2 -->
<g id="edge2" class="edge"><title>Node3&#45;&gt;Node2</title>
<path fill="none" stroke="midnightblue" d="M69.2191,-706.027C77.651,-637.669 92.3587,-518.431 103.518,-427.962"/>
<polygon fill="none" stroke="midnightblue" points="65.7221,-705.789 67.9715,-716.142 72.6694,-706.646 65.7221,-705.789"/>
</g>
<!-- Node4 -->
<g id="node4" class="node"><title>Node4</title>
<g id="a_node4"><a xlink:title=" ">
<polygon fill="white" stroke="#bfbfbf" points="73,-1002 73,-1059 168,-1059 168,-1002 73,-1002"/>
<text text-anchor="middle" x="120.5" y="-1047" font-family="Courier New" font-size="10.00">MonoBehaviour</text>
<polyline fill="none" stroke="#bfbfbf" points="73,-1040 168,-1040 "/>
<text text-anchor="middle" x="120.5" y="-1028" font-family="Courier New" font-size="10.00"> </text>
<polyline fill="none" stroke="#bfbfbf" points="73,-1021 168,-1021 "/>
<text text-anchor="middle" x="120.5" y="-1009" font-family="Courier New" font-size="10.00"> </text>
</a>
</g>
</g>
<!-- Node4&#45;&gt;Node3 -->
<g id="edge3" class="edge"><title>Node4&#45;&gt;Node3</title>
<path fill="none" stroke="midnightblue" d="M112.38,-992.12C101.806,-943.442 83.3477,-858.471 72.0943,-806.667"/>
<polygon fill="none" stroke="midnightblue" points="108.968,-992.903 114.511,-1001.93 115.809,-991.417 108.968,-992.903"/>
</g>
<!-- Node5 -->
<g id="node5" class="node"><title>Node5</title>
<g id="a_node5"><a xlink:href="../../d7/dcb/class_c2_m2_1_1_raycast_event_manager.html" target="_top" xlink:title="Attach this script to parent gameObject, create one child with one raycast trigger per child....">
<polygon fill="white" stroke="black" points="119,-475.5 119,-697.5 280,-697.5 280,-475.5 119,-475.5"/>
<text text-anchor="middle" x="199.5" y="-685.5" font-family="Courier New" font-size="10.00">C2M2.RaycastEventManager</text>
<polyline fill="none" stroke="black" points="119,-678.5 280,-678.5 "/>
<text text-anchor="middle" x="199.5" y="-666.5" font-family="Courier New" font-size="10.00"> </text>
<polyline fill="none" stroke="black" points="119,-659.5 280,-659.5 "/>
<text text-anchor="start" x="127" y="-647.5" font-family="Courier New" font-size="10.00">+ TriggerChangeRight()</text>
<text text-anchor="start" x="127" y="-636.5" font-family="Courier New" font-size="10.00">+ TriggerChangeLeft()</text>
<text text-anchor="start" x="127" y="-625.5" font-family="Courier New" font-size="10.00">+ TriggerChangeBoth()</text>
<text text-anchor="start" x="127" y="-614.5" font-family="Courier New" font-size="10.00">+ TriggerEmptyRight()</text>
<text text-anchor="start" x="127" y="-603.5" font-family="Courier New" font-size="10.00">+ TriggerEmptyLeft()</text>
<text text-anchor="start" x="127" y="-592.5" font-family="Courier New" font-size="10.00">+ TriggerEmptyBoth()</text>
<text text-anchor="start" x="127" y="-581.5" font-family="Courier New" font-size="10.00">+ PressEvent()</text>
<text text-anchor="start" x="127" y="-570.5" font-family="Courier New" font-size="10.00">+ HoldEvent()</text>
<text text-anchor="start" x="127" y="-559.5" font-family="Courier New" font-size="10.00">+ EndEvent()</text>
<text text-anchor="start" x="127" y="-548.5" font-family="Courier New" font-size="10.00">+ AllEvents()</text>
<text text-anchor="start" x="127" y="-537.5" font-family="Courier New" font-size="10.00">+ PressEventNull()</text>
<text text-anchor="start" x="127" y="-526.5" font-family="Courier New" font-size="10.00">+ HoldEventNull()</text>
<text text-anchor="start" x="127" y="-515.5" font-family="Courier New" font-size="10.00">+ EndEventNull()</text>
<text text-anchor="start" x="127" y="-504.5" font-family="Courier New" font-size="10.00">+ AllEventsNull()</text>
<text text-anchor="start" x="127" y="-493.5" font-family="Courier New" font-size="10.00">+ ToString()</text>
<text text-anchor="start" x="127" y="-482.5" font-family="Courier New" font-size="10.00">&#45; Awake()</text>
</a>
</g>
</g>
<!-- Node4&#45;&gt;Node5 -->
<g id="edge5" class="edge"><title>Node4&#45;&gt;Node5</title>
<path fill="none" stroke="midnightblue" d="M127.247,-991.754C138.759,-927.34 162.617,-793.858 179.771,-697.882"/>
<polygon fill="none" stroke="midnightblue" points="123.756,-991.391 125.442,-1001.85 130.647,-992.623 123.756,-991.391"/>
</g>
<!-- Node6 -->
<g id="node6" class="node"><title>Node6</title>
<g id="a_node6"><a xlink:href="../../dd/dab/class_c2_m2_1_1_raycast_press_events.html" target="_top" xlink:title="Store custom events that the corresponding RaycastTriggerManager will invoke">
<polygon fill="white" stroke="black" points="169,-825.5 169,-926.5 324,-926.5 324,-825.5 169,-825.5"/>
<text text-anchor="middle" x="246.5" y="-914.5" font-family="Courier New" font-size="10.00">C2M2.RaycastPressEvents</text>
<polyline fill="none" stroke="black" points="169,-907.5 324,-907.5 "/>
<text text-anchor="start" x="177" y="-895.5" font-family="Courier New" font-size="10.00">+ OnPress</text>
<text text-anchor="start" x="177" y="-884.5" font-family="Courier New" font-size="10.00">+ OnHoldPress</text>
<text text-anchor="start" x="177" y="-873.5" font-family="Courier New" font-size="10.00">+ OnEndPress</text>
<polyline fill="none" stroke="black" points="169,-866.5 324,-866.5 "/>
<text text-anchor="start" x="177" y="-854.5" font-family="Courier New" font-size="10.00">+ Press()</text>
<text text-anchor="start" x="177" y="-843.5" font-family="Courier New" font-size="10.00">+ HoldPress()</text>
<text text-anchor="start" x="177" y="-832.5" font-family="Courier New" font-size="10.00">+ EndPress()</text>
</a>
</g>
</g>
<!-- Node4&#45;&gt;Node6 -->
<g id="edge7" class="edge"><title>Node4&#45;&gt;Node6</title>
<path fill="none" stroke="midnightblue" d="M149.89,-993.928C166.441,-973.897 187.366,-948.571 205.507,-926.614"/>
<polygon fill="none" stroke="midnightblue" points="146.989,-991.945 143.318,-1001.88 152.385,-996.404 146.989,-991.945"/>
</g>
<!-- Node5&#45;&gt;Node2 -->
<g id="edge4" class="edge"><title>Node5&#45;&gt;Node2</title>
<path fill="none" stroke="#404040" d="M167.487,-475.232C164.104,-463.58 160.638,-451.643 157.19,-439.766"/>
<polygon fill="none" stroke="#404040" points="157.097,-439.447 151.583,-434.8 153.752,-427.922 159.266,-432.569 157.097,-439.447"/>
<text text-anchor="middle" x="201" y="-449" font-family="Courier New" font-size="10.00"> &#45;activeEvent</text>
</g>
<!-- Node6&#45;&gt;Node5 -->
<g id="edge6" class="edge"><title>Node6&#45;&gt;Node5</title>
<path fill="none" stroke="#404040" d="M238.367,-825.25C233.142,-793.288 226.112,-750.287 219.468,-709.644"/>
<polygon fill="none" stroke="#404040" points="219.45,-709.532 214.534,-704.256 217.514,-697.69 222.429,-702.966 219.45,-709.532"/>
<text text-anchor="middle" x="275" y="-770" font-family="Courier New" font-size="10.00"> +leftTrigger</text>
<text text-anchor="middle" x="275" y="-759" font-family="Courier New" font-size="10.00">+rightTrigger</text>
<text text-anchor="middle" x="275" y="-748" font-family="Courier New" font-size="10.00">&#45;emptyTrigger</text>
</g>
<!-- Node7 -->
<g id="node7" class="node"><title>Node7</title>
<g id="a_node7"><a xlink:href="../../db/d79/class_c2_m2_1_1_raycast_press_events_1_1_raycast_hit_event.html" target="_top" xlink:title=" ">
<polygon fill="white" stroke="black" points="186,-996.5 186,-1064.5 347,-1064.5 347,-996.5 186,-996.5"/>
<text text-anchor="start" x="194" y="-1052.5" font-family="Courier New" font-size="10.00">C2M2.RaycastPressEvents.</text>
<text text-anchor="middle" x="266.5" y="-1041.5" font-family="Courier New" font-size="10.00">RaycastHitEvent</text>
<polyline fill="none" stroke="black" points="186,-1034.5 347,-1034.5 "/>
<text text-anchor="middle" x="266.5" y="-1022.5" font-family="Courier New" font-size="10.00"> </text>
<polyline fill="none" stroke="black" points="186,-1015.5 347,-1015.5 "/>
<text text-anchor="middle" x="266.5" y="-1003.5" font-family="Courier New" font-size="10.00"> </text>
</a>
</g>
</g>
<!-- Node7&#45;&gt;Node6 -->
<g id="edge8" class="edge"><title>Node7&#45;&gt;Node6</title>
<path fill="none" stroke="#404040" d="M262.16,-996.41C259.944,-979.507 257.173,-958.385 254.582,-938.625"/>
<polygon fill="none" stroke="#404040" points="254.558,-938.445 249.812,-933.016 252.998,-926.547 257.744,-931.976 254.558,-938.445"/>
<text text-anchor="middle" x="296" y="-970" font-family="Courier New" font-size="10.00"> &#45;onPress</text>
<text text-anchor="middle" x="296" y="-959" font-family="Courier New" font-size="10.00">&#45;onHoldPress</text>
<text text-anchor="middle" x="296" y="-948" font-family="Courier New" font-size="10.00">&#45;onEndPress</text>
</g>
<!-- Node8 -->
<g id="node8" class="node"><title>Node8</title>
<g id="a_node8"><a xlink:title=" ">
<polygon fill="white" stroke="#bfbfbf" points="186,-1102.5 186,-1159.5 347,-1159.5 347,-1102.5 186,-1102.5"/>
<text text-anchor="middle" x="266.5" y="-1147.5" font-family="Courier New" font-size="10.00">UnityEvent&lt; RaycastHit &gt;</text>
<polyline fill="none" stroke="#bfbfbf" points="186,-1140.5 347,-1140.5 "/>
<text text-anchor="middle" x="266.5" y="-1128.5" font-family="Courier New" font-size="10.00"> </text>
<polyline fill="none" stroke="#bfbfbf" points="186,-1121.5 347,-1121.5 "/>
<text text-anchor="middle" x="266.5" y="-1109.5" font-family="Courier New" font-size="10.00"> </text>
</a>
</g>
</g>
<!-- Node8&#45;&gt;Node7 -->
<g id="edge9" class="edge"><title>Node8&#45;&gt;Node7</title>
<path fill="none" stroke="midnightblue" d="M266.5,-1092.01C266.5,-1082.96 266.5,-1073.38 266.5,-1064.58"/>
<polygon fill="none" stroke="midnightblue" points="263,-1092.3 266.5,-1102.3 270,-1092.3 263,-1092.3"/>
</g>
<!-- Node9 -->
<g id="node9" class="node"><title>Node9</title>
<g id="a_node9"><a xlink:title=" ">
<polygon fill="white" stroke="#bfbfbf" points="342,-847.5 342,-904.5 395,-904.5 395,-847.5 342,-847.5"/>
<text text-anchor="middle" x="368.5" y="-892.5" font-family="Courier New" font-size="10.00">static</text>
<polyline fill="none" stroke="#bfbfbf" points="342,-885.5 395,-885.5 "/>
<text text-anchor="middle" x="368.5" y="-873.5" font-family="Courier New" font-size="10.00"> </text>
<polyline fill="none" stroke="#bfbfbf" points="342,-866.5 395,-866.5 "/>
<text text-anchor="middle" x="368.5" y="-854.5" font-family="Courier New" font-size="10.00"> </text>
</a>
</g>
</g>
<!-- Node9&#45;&gt;Node5 -->
<g id="edge10" class="edge"><title>Node9&#45;&gt;Node5</title>
<path fill="none" stroke="#404040" d="M363.665,-847.338C357.057,-814.371 343.12,-758.421 318.5,-716 309.882,-701.15 299.275,-686.599 287.977,-672.937"/>
<polygon fill="none" stroke="#404040" points="287.835,-672.77 280.901,-670.791 280.061,-663.629 286.995,-665.608 287.835,-672.77"/>
<text text-anchor="middle" x="381" y="-759" font-family="Courier New" font-size="10.00"> &#45;nullHit</text>
</g>
</g>
</svg>
