<?xml version="1.0" encoding="UTF-8" standalone="no"?>
<!DOCTYPE svg PUBLIC "-//W3C//DTD SVG 1.1//EN"
 "http://www.w3.org/Graphics/SVG/1.1/DTD/svg11.dtd">
<!-- Generated by graphviz version 2.38.0 (20140413.2041)
 -->
<!-- Title: C2M2.Interaction.VR.VRRaycastableMesh Pages: 1 -->
<svg width="247pt" height="248pt"
 viewBox="0.00 0.00 247.00 248.00" xmlns="http://www.w3.org/2000/svg" xmlns:xlink="http://www.w3.org/1999/xlink">
<g id="graph0" class="graph" transform="scale(1 1) rotate(0) translate(4 244)">
<title>C2M2.Interaction.VR.VRRaycastableMesh</title>
<polygon fill="white" stroke="none" points="-4,4 -4,-244 243,-244 243,4 -4,4"/>
<!-- Node1 -->
<g id="node1" class="node"><title>Node1</title>
<g id="a_node1"><a xlink:title=" ">
<polygon fill="#bfbfbf" stroke="black" points="0,-0.5 0,-90.5 239,-90.5 239,-0.5 0,-0.5"/>
<text text-anchor="middle" x="119.5" y="-78.5" font-family="Courier New" font-size="10.00">C2M2.Interaction.VR.VRRaycastableMesh</text>
<polyline fill="none" stroke="black" points="0,-71.5 239,-71.5 "/>
<text text-anchor="start" x="8" y="-59.5" font-family="Courier New" font-size="10.00">+ raycastTargetObj</text>
<polyline fill="none" stroke="black" points="0,-52.5 239,-52.5 "/>
<text text-anchor="start" x="8" y="-40.5" font-family="Courier New" font-size="10.00">+ GetSource()</text>
<text text-anchor="start" x="8" y="-29.5" font-family="Courier New" font-size="10.00">+ SetSource()</text>
<text text-anchor="start" x="8" y="-18.5" font-family="Courier New" font-size="10.00"># OnAwake()</text>
<text text-anchor="start" x="8" y="-7.5" font-family="Courier New" font-size="10.00">&#45; BuildMeshCollider()</text>
</a>
</g>
</g>
<!-- Node2 -->
<g id="node2" class="node"><title>Node2</title>
<g id="a_node2"><a xlink:href="../../d5/d84/class_c2_m2_1_1_interaction_1_1_v_r_1_1_v_r_raycastable.html" target="_top" xlink:title=" ">
<polygon fill="white" stroke="black" points="48,-127.5 48,-239.5 191,-239.5 191,-127.5 48,-127.5"/>
<text text-anchor="middle" x="119.5" y="-227.5" font-family="Courier New" font-size="10.00">VRRaycastable&lt; Mesh &gt;</text>
<polyline fill="none" stroke="black" points="48,-220.5 191,-220.5 "/>
<text text-anchor="start" x="56" y="-208.5" font-family="Courier New" font-size="10.00"># source</text>
<polyline fill="none" stroke="black" points="48,-201.5 191,-201.5 "/>
<text text-anchor="start" x="56" y="-189.5" font-family="Courier New" font-size="10.00">+ GetSource()</text>
<text text-anchor="start" x="56" y="-178.5" font-family="Courier New" font-size="10.00">+ SetSource()</text>
<text text-anchor="start" x="56" y="-167.5" font-family="Courier New" font-size="10.00"># OnAwake()</text>
<text text-anchor="start" x="56" y="-156.5" font-family="Courier New" font-size="10.00"># BuildChildObject()</text>
<text text-anchor="start" x="56" y="-145.5" font-family="Courier New" font-size="10.00"># BuildRigidBody()</text>
<text text-anchor="start" x="56" y="-134.5" font-family="Courier New" font-size="10.00">&#45; Awake()</text>
</a>
</g>
</g>
<!-- Node2&#45;&gt;Node1 -->
<g id="edge1" class="edge"><title>Node2&#45;&gt;Node1</title>
<path fill="none" stroke="midnightblue" d="M119.5,-117.076C119.5,-108.072 119.5,-99.0069 119.5,-90.5144"/>
<polygon fill="none" stroke="midnightblue" points="116,-117.184 119.5,-127.184 123,-117.184 116,-117.184"/>
</g>
</g>
</svg>
