<?xml version="1.0" encoding="UTF-8" standalone="no"?>
<!DOCTYPE svg PUBLIC "-//W3C//DTD SVG 1.1//EN"
 "http://www.w3.org/Graphics/SVG/1.1/DTD/svg11.dtd">
<!-- Generated by graphviz version 2.38.0 (20140413.2041)
 -->
<!-- Title: C2M2.RaycastKey Pages: 1 -->
<!--zoomable 672 -->
<svg id="main" version="1.1" xmlns="http://www.w3.org/2000/svg" xmlns:xlink="http://www.w3.org/1999/xlink" xml:space="preserve" onload="init(evt)">
<style type="text/css"><![CDATA[
.edge:hover path { stroke: red; }
.edge:hover polygon { stroke: red; fill: red; }
]]></style>
<script type="text/javascript"><![CDATA[
var edges = document.getElementsByTagName('g');
if (edges && edges.length) {
  for (var i=0;i<edges.length;i++) {
    if (edges[i].id.substr(0,4)=='edge') {
      edges[i].setAttribute('class','edge');
    }
  }
}
]]></script>
        <defs>
                <circle id="rim" cx="0" cy="0" r="7"/>
                <circle id="rim2" cx="0" cy="0" r="3.5"/>
                <g id="zoomPlus">
                        <use xlink:href="#rim" fill="#404040">
                                <set attributeName="fill" to="#808080" begin="zoomplus.mouseover" end="zoomplus.mouseout"/>
                        </use>
                        <path d="M-4,0h8M0,-4v8" fill="none" stroke="white" stroke-width="1.5" pointer-events="none"/>
                </g>
                <g id="zoomMin">
                        <use xlink:href="#rim" fill="#404040">
                                <set attributeName="fill" to="#808080" begin="zoomminus.mouseover" end="zoomminus.mouseout"/>
                        </use>
                        <path d="M-4,0h8" fill="none" stroke="white" stroke-width="1.5" pointer-events="none"/>
                </g>
                <g id="dirArrow">
                        <path fill="none" stroke="white" stroke-width="1.5" d="M0,-3.0v7 M-2.5,-0.5L0,-3.0L2.5,-0.5"/>
                </g>
               <g id="resetDef">
                       <use xlink:href="#rim2" fill="#404040">
                               <set attributeName="fill" to="#808080" begin="reset.mouseover" end="reset.mouseout"/>
                       </use>
               </g>
        </defs>

<script type="text/javascript">
var viewWidth = 244;
var viewHeight = 672;
var sectionId = 'dynsection-1';
</script>
<script xlink:href="../../svgpan.js"/>
<svg id="graph" class="graph">
<g id="viewport">
<title>C2M2.RaycastKey</title>
<polygon fill="white" stroke="none" points="-4,4 -4,-668 239.5,-668 239.5,4 -4,4"/>
<!-- Node1 -->
<g id="node1" class="node"><title>Node1</title>
<g id="a_node1"><a xlink:title=" ">
<polygon fill="#bfbfbf" stroke="black" points="22,-0.5 22,-156.5 129,-156.5 129,-0.5 22,-0.5"/>
<text text-anchor="middle" x="75.5" y="-144.5" font-family="Courier New" font-size="10.00">C2M2.RaycastKey</text>
<polyline fill="none" stroke="black" points="22,-137.5 129,-137.5 "/>
<text text-anchor="start" x="30" y="-125.5" font-family="Courier New" font-size="10.00">+ image</text>
<text text-anchor="start" x="30" y="-114.5" font-family="Courier New" font-size="10.00">+ defaultColor</text>
<text text-anchor="start" x="30" y="-103.5" font-family="Courier New" font-size="10.00">+ clickedColor</text>
<text text-anchor="start" x="30" y="-92.5" font-family="Courier New" font-size="10.00">+ inactiveColor</text>
<text text-anchor="start" x="30" y="-81.5" font-family="Courier New" font-size="10.00">+ clickTime</text>
<text text-anchor="start" x="30" y="-70.5" font-family="Courier New" font-size="10.00">+ character</text>
<text text-anchor="start" x="30" y="-59.5" font-family="Courier New" font-size="10.00">&#45; active</text>
<polyline fill="none" stroke="black" points="22,-52.5 129,-52.5 "/>
<text text-anchor="start" x="30" y="-40.5" font-family="Courier New" font-size="10.00">+ Click()</text>
<text text-anchor="start" x="30" y="-29.5" font-family="Courier New" font-size="10.00">&#45; Awake()</text>
<text text-anchor="start" x="30" y="-18.5" font-family="Courier New" font-size="10.00">&#45; Start()</text>
<text text-anchor="start" x="30" y="-7.5" font-family="Courier New" font-size="10.00">&#45; Reenable()</text>
</a>
</g>
</g>
<!-- Node2 -->
<g id="node2" class="node"><title>Node2</title>
<g id="a_node2"><a xlink:title=" ">
<polygon fill="white" stroke="#bfbfbf" points="0,-606.5 0,-663.5 95,-663.5 95,-606.5 0,-606.5"/>
<text text-anchor="middle" x="47.5" y="-651.5" font-family="Courier New" font-size="10.00">MonoBehaviour</text>
<polyline fill="none" stroke="#bfbfbf" points="0,-644.5 95,-644.5 "/>
<text text-anchor="middle" x="47.5" y="-632.5" font-family="Courier New" font-size="10.00"> </text>
<polyline fill="none" stroke="#bfbfbf" points="0,-625.5 95,-625.5 "/>
<text text-anchor="middle" x="47.5" y="-613.5" font-family="Courier New" font-size="10.00"> </text>
</a>
</g>
</g>
<!-- Node2&#45;&gt;Node1 -->
<g id="edge1" class="edge"><title>Node2&#45;&gt;Node1</title>
<path fill="none" stroke="midnightblue" d="M47.5063,-595.931C47.7719,-520.856 49.6362,-348.455 60.5,-204 61.651,-188.695 63.3057,-172.377 65.0993,-156.766"/>
<polygon fill="none" stroke="midnightblue" points="44.0055,-596.277 47.4779,-606.286 51.0054,-596.296 44.0055,-596.277"/>
</g>
<!-- Node3 -->
<g id="node3" class="node"><title>Node3</title>
<g id="a_node3"><a xlink:href="../../db/db3/class_c2_m2_1_1_raycast_keyboard.html" target="_top" xlink:title=" ">
<polygon fill="white" stroke="black" points="70,-204.5 70,-448.5 219,-448.5 219,-204.5 70,-204.5"/>
<text text-anchor="middle" x="144.5" y="-436.5" font-family="Courier New" font-size="10.00">C2M2.RaycastKeyboard</text>
<polyline fill="none" stroke="black" points="70,-429.5 219,-429.5 "/>
<text text-anchor="start" x="78" y="-417.5" font-family="Courier New" font-size="10.00">+ keyPrefab</text>
<text text-anchor="start" x="78" y="-406.5" font-family="Courier New" font-size="10.00">+ specialKeyContainer</text>
<text text-anchor="start" x="78" y="-395.5" font-family="Courier New" font-size="10.00">+ lowerKeyContainer</text>
<text text-anchor="start" x="78" y="-384.5" font-family="Courier New" font-size="10.00">+ upperKeyContainer</text>
<text text-anchor="start" x="78" y="-373.5" font-family="Courier New" font-size="10.00">+ menuAnchor</text>
<text text-anchor="start" x="78" y="-362.5" font-family="Courier New" font-size="10.00">+ activeField</text>
<text text-anchor="start" x="78" y="-351.5" font-family="Courier New" font-size="10.00">&#45; hasActiveField</text>
<text text-anchor="start" x="78" y="-340.5" font-family="Courier New" font-size="10.00">&#45; lastHit</text>
<text text-anchor="start" x="78" y="-329.5" font-family="Courier New" font-size="10.00">&#45; keyPositions</text>
<text text-anchor="start" x="78" y="-318.5" font-family="Courier New" font-size="10.00">&#45; specialKeys</text>
<text text-anchor="start" x="78" y="-307.5" font-family="Courier New" font-size="10.00">&#45; specialKeyLocations</text>
<text text-anchor="start" x="78" y="-296.5" font-family="Courier New" font-size="10.00">&#45; upperCharRow1</text>
<text text-anchor="start" x="78" y="-285.5" font-family="Courier New" font-size="10.00">&#45; upperCharRow2</text>
<text text-anchor="start" x="78" y="-274.5" font-family="Courier New" font-size="10.00">&#45; upperCharRow3</text>
<polyline fill="none" stroke="black" points="70,-267.5 219,-267.5 "/>
<text text-anchor="start" x="78" y="-255.5" font-family="Courier New" font-size="10.00">+ PassChar()</text>
<text text-anchor="start" x="78" y="-244.5" font-family="Courier New" font-size="10.00">+ InputFieldActivate()</text>
<text text-anchor="start" x="78" y="-233.5" font-family="Courier New" font-size="10.00">&#45; Awake()</text>
<text text-anchor="start" x="78" y="-222.5" font-family="Courier New" font-size="10.00">&#45; OnEnable()</text>
<text text-anchor="start" x="78" y="-211.5" font-family="Courier New" font-size="10.00">&#45; BuildKeyboard()</text>
</a>
</g>
</g>
<!-- Node2&#45;&gt;Node3 -->
<g id="edge3" class="edge"><title>Node2&#45;&gt;Node3</title>
<path fill="none" stroke="midnightblue" d="M59.3821,-596.455C71.0436,-559.607 89.4637,-501.404 106.19,-448.551"/>
<polygon fill="none" stroke="midnightblue" points="55.9596,-595.67 56.2792,-606.26 62.6334,-597.782 55.9596,-595.67"/>
</g>
<!-- Node3&#45;&gt;Node1 -->
<g id="edge2" class="edge"><title>Node3&#45;&gt;Node1</title>
<path fill="none" stroke="#404040" d="M110.505,-204.302C107.087,-192.113 103.661,-179.901 100.364,-168.144"/>
<polygon fill="none" stroke="#404040" points="100.354,-168.111 94.8826,-163.414 97.1135,-156.557 102.585,-161.254 100.354,-168.111"/>
<text text-anchor="middle" x="135" y="-178" font-family="Courier New" font-size="10.00"> &#45;keyboard</text>
</g>
<!-- Node4 -->
<g id="node4" class="node"><title>Node4</title>
<g id="a_node4"><a xlink:title=" ">
<polygon fill="white" stroke="#bfbfbf" points="118,-606.5 118,-663.5 171,-663.5 171,-606.5 118,-606.5"/>
<text text-anchor="middle" x="144.5" y="-651.5" font-family="Courier New" font-size="10.00">static</text>
<polyline fill="none" stroke="#bfbfbf" points="118,-644.5 171,-644.5 "/>
<text text-anchor="middle" x="144.5" y="-632.5" font-family="Courier New" font-size="10.00"> </text>
<polyline fill="none" stroke="#bfbfbf" points="118,-625.5 171,-625.5 "/>
<text text-anchor="middle" x="144.5" y="-613.5" font-family="Courier New" font-size="10.00"> </text>
</a>
</g>
</g>
<!-- Node4&#45;&gt;Node3 -->
<g id="edge4" class="edge"><title>Node4&#45;&gt;Node3</title>
<path fill="none" stroke="#404040" d="M144.5,-606.26C144.5,-573.106 144.5,-515.263 144.5,-460.831"/>
<polygon fill="none" stroke="#404040" points="144.5,-460.551 140.5,-454.551 144.5,-448.551 148.5,-454.551 144.5,-460.551"/>
<text text-anchor="middle" x="190" y="-580" font-family="Courier New" font-size="10.00"> &#45;lowerCharRow0</text>
<text text-anchor="middle" x="190" y="-569" font-family="Courier New" font-size="10.00">&#45;positionj</text>
<text text-anchor="middle" x="190" y="-558" font-family="Courier New" font-size="10.00">&#45;lowerCharRow1</text>
<text text-anchor="middle" x="190" y="-547" font-family="Courier New" font-size="10.00">&#45;lowerCharRow2</text>
<text text-anchor="middle" x="190" y="-536" font-family="Courier New" font-size="10.00">&#45;position1i</text>
<text text-anchor="middle" x="190" y="-525" font-family="Courier New" font-size="10.00">&#45;lowerCharRow3</text>
<text text-anchor="middle" x="190" y="-514" font-family="Courier New" font-size="10.00">&#45;position0i</text>
<text text-anchor="middle" x="190" y="-503" font-family="Courier New" font-size="10.00">&#45;position3i</text>
<text text-anchor="middle" x="190" y="-492" font-family="Courier New" font-size="10.00">&#45;upperCharRow0</text>
<text text-anchor="middle" x="190" y="-481" font-family="Courier New" font-size="10.00">&#45;position2i</text>
<text text-anchor="middle" x="190" y="-470" font-family="Courier New" font-size="10.00">...</text>
</g>
</g>
</svg>
        <g id="navigator" transform="translate(0 0)" fill="#404254">
                <rect fill="#f2f5e9" fill-opacity="0.5" stroke="#606060" stroke-width=".5" x="0" y="0" width="60" height="60"/>
                <use id="zoomplus" xlink:href="#zoomPlus" x="17" y="9" onmousedown="handleZoom(evt,'in')"/>
                <use id="zoomminus" xlink:href="#zoomMin" x="42" y="9" onmousedown="handleZoom(evt,'out')"/>
                <use id="reset" xlink:href="#resetDef" x="30" y="36" onmousedown="handleReset()"/>
                <g id="arrowUp" xlink:href="#dirArrow" transform="translate(30 24)" onmousedown="handlePan(0,-1)">
                  <use xlink:href="#rim" fill="#404040">
                        <set attributeName="fill" to="#808080" begin="arrowUp.mouseover" end="arrowUp.mouseout"/>
                  </use>
                  <path fill="none" stroke="white" stroke-width="1.5" d="M0,-3.0v7 M-2.5,-0.5L0,-3.0L2.5,-0.5"/>
                </g>
                <g id="arrowRight" xlink:href="#dirArrow" transform="rotate(90) translate(36 -43)" onmousedown="handlePan(1,0)">
                  <use xlink:href="#rim" fill="#404040">
                        <set attributeName="fill" to="#808080" begin="arrowRight.mouseover" end="arrowRight.mouseout"/>
                  </use>
                  <path fill="none" stroke="white" stroke-width="1.5" d="M0,-3.0v7 M-2.5,-0.5L0,-3.0L2.5,-0.5"/>
                </g>
                <g id="arrowDown" xlink:href="#dirArrow" transform="rotate(180) translate(-30 -48)" onmousedown="handlePan(0,1)">
                  <use xlink:href="#rim" fill="#404040">
                        <set attributeName="fill" to="#808080" begin="arrowDown.mouseover" end="arrowDown.mouseout"/>
                  </use>
                  <path fill="none" stroke="white" stroke-width="1.5" d="M0,-3.0v7 M-2.5,-0.5L0,-3.0L2.5,-0.5"/>
                </g>
                <g id="arrowLeft" xlink:href="#dirArrow" transform="rotate(270) translate(-36 17)" onmousedown="handlePan(-1,0)">
                  <use xlink:href="#rim" fill="#404040">
                        <set attributeName="fill" to="#808080" begin="arrowLeft.mouseover" end="arrowLeft.mouseout"/>
                  </use>
                  <path fill="none" stroke="white" stroke-width="1.5" d="M0,-3.0v7 M-2.5,-0.5L0,-3.0L2.5,-0.5"/>
                </g>
        </g>
        <svg viewBox="0 0 15 15" width="100%" height="30px" preserveAspectRatio="xMaxYMin meet">
         <g id="arrow_out" transform="scale(0.3 0.3)">
          <a xlink:href="class_c2_m2_1_1_raycast_key__coll__graph_org.svg" target="_base">
           <rect id="button" ry="5" rx="5" y="6" x="6" height="38" width="38"
                fill="#f2f5e9" fill-opacity="0.5" stroke="#606060" stroke-width="1.0"/>
           <path id="arrow"
             d="M 11.500037,31.436501 C 11.940474,20.09759 22.043105,11.32322 32.158766,21.979434 L 37.068811,17.246167 C 37.068811,17.246167 37.088388,32 37.088388,32 L 22.160133,31.978069 C 22.160133,31.978069 26.997745,27.140456 26.997745,27.140456 C 18.528582,18.264221 13.291696,25.230495 11.500037,31.436501 z"
             style="fill:#404040;"/>
          </a>
         </g>
        </svg>
</svg>
