<?xml version="1.0" encoding="UTF-8" standalone="no"?>
<!DOCTYPE svg PUBLIC "-//W3C//DTD SVG 1.1//EN"
 "http://www.w3.org/Graphics/SVG/1.1/DTD/svg11.dtd">
<!-- Generated by graphviz version 2.38.0 (20140413.2041)
 -->
<!-- Title: C2M2.NeuronalDynamics.Visualization.VRN.VrnReader Pages: 1 -->
<svg width="241pt" height="524pt"
 viewBox="0.00 0.00 241.00 524.00" xmlns="http://www.w3.org/2000/svg" xmlns:xlink="http://www.w3.org/1999/xlink">
<g id="graph0" class="graph" transform="scale(1 1) rotate(0) translate(4 520)">
<title>C2M2.NeuronalDynamics.Visualization.VRN.VrnReader</title>
<polygon fill="white" stroke="none" points="-4,4 -4,-520 237,-520 237,4 -4,4"/>
<!-- Node1 -->
<g id="node1" class="node"><title>Node1</title>
<g id="a_node1"><a xlink:title=" ">
<polygon fill="#bfbfbf" stroke="black" points="0,-0.5 0,-123.5 233,-123.5 233,-0.5 0,-0.5"/>
<text text-anchor="start" x="8" y="-111.5" font-family="Courier New" font-size="10.00">C2M2.NeuronalDynamics.Visualization.</text>
<text text-anchor="middle" x="116.5" y="-100.5" font-family="Courier New" font-size="10.00">VRN.VrnReader</text>
<polyline fill="none" stroke="black" points="0,-93.5 233,-93.5 "/>
<text text-anchor="start" x="8" y="-81.5" font-family="Courier New" font-size="10.00">&#45; fileName</text>
<text text-anchor="start" x="8" y="-70.5" font-family="Courier New" font-size="10.00">&#45; loaded</text>
<polyline fill="none" stroke="black" points="0,-63.5 233,-63.5 "/>
<text text-anchor="start" x="8" y="-51.5" font-family="Courier New" font-size="10.00">+ List()</text>
<text text-anchor="start" x="8" y="-40.5" font-family="Courier New" font-size="10.00">+ ReadUGX()</text>
<text text-anchor="start" x="8" y="-29.5" font-family="Courier New" font-size="10.00">+ Retrieve1DMeshName()</text>
<text text-anchor="start" x="8" y="-18.5" font-family="Courier New" font-size="10.00">+ Retrieve2DMeshName()</text>
<text text-anchor="start" x="8" y="-7.5" font-family="Courier New" font-size="10.00">+ VrnReader()</text>
</a>
</g>
</g>
<!-- Node2 -->
<g id="node2" class="node"><title>Node2</title>
<g id="a_node2"><a xlink:href="../../d9/d5c/class_c2_m2_1_1_neuronal_dynamics_1_1_visualization_1_1_v_r_n_1_1_vrn_reader_1_1_geometry.html" target="_top" xlink:title="Stores 1D and associated 2D geometries in the member geom1d">
<polygon fill="white" stroke="black" points="0,-171.5 0,-239.5 233,-239.5 233,-171.5 0,-171.5"/>
<text text-anchor="start" x="8" y="-227.5" font-family="Courier New" font-size="10.00">C2M2.NeuronalDynamics.Visualization.</text>
<text text-anchor="middle" x="116.5" y="-216.5" font-family="Courier New" font-size="10.00">VRN.VrnReader.Geometry</text>
<polyline fill="none" stroke="black" points="0,-209.5 233,-209.5 "/>
<text text-anchor="middle" x="116.5" y="-197.5" font-family="Courier New" font-size="10.00"> </text>
<polyline fill="none" stroke="black" points="0,-190.5 233,-190.5 "/>
<text text-anchor="start" x="8" y="-178.5" font-family="Courier New" font-size="10.00">+ Geometry()</text>
</a>
</g>
</g>
<!-- Node2&#45;&gt;Node1 -->
<g id="edge1" class="edge"><title>Node2&#45;&gt;Node1</title>
<path fill="none" stroke="#404040" d="M116.5,-171.325C116.5,-160.665 116.5,-148.401 116.5,-136.045"/>
<polygon fill="none" stroke="#404040" points="116.5,-135.713 112.5,-129.713 116.5,-123.713 120.5,-129.713 116.5,-135.713"/>
<text text-anchor="middle" x="147" y="-145" font-family="Courier New" font-size="10.00"> &#45;geometry</text>
</g>
<!-- Node3 -->
<g id="node3" class="node"><title>Node3</title>
<g id="a_node3"><a xlink:href="../../dd/df0/struct_c2_m2_1_1_neuronal_dynamics_1_1_visualization_1_1_v_r_n_1_1_vrn_reader_1_1_geom1d.html" target="_top" xlink:title="Stores the 1D geometries by name, refinement and a description Inflations are attached to the 1D geom...">
<polygon fill="white" stroke="black" points="0,-287.5 0,-377.5 233,-377.5 233,-287.5 0,-287.5"/>
<text text-anchor="start" x="8" y="-365.5" font-family="Courier New" font-size="10.00">C2M2.NeuronalDynamics.Visualization.</text>
<text text-anchor="middle" x="116.5" y="-354.5" font-family="Courier New" font-size="10.00">VRN.VrnReader.Geom1d</text>
<polyline fill="none" stroke="black" points="0,-347.5 233,-347.5 "/>
<text text-anchor="start" x="8" y="-335.5" font-family="Courier New" font-size="10.00">+ name</text>
<text text-anchor="start" x="8" y="-324.5" font-family="Courier New" font-size="10.00">+ refinement</text>
<text text-anchor="start" x="8" y="-313.5" font-family="Courier New" font-size="10.00">+ description</text>
<polyline fill="none" stroke="black" points="0,-306.5 233,-306.5 "/>
<text text-anchor="start" x="8" y="-294.5" font-family="Courier New" font-size="10.00">+ Geom1d()</text>
</a>
</g>
</g>
<!-- Node3&#45;&gt;Node2 -->
<g id="edge2" class="edge"><title>Node3&#45;&gt;Node2</title>
<path fill="none" stroke="#404040" d="M116.5,-287.43C116.5,-275.867 116.5,-263.38 116.5,-251.757"/>
<polygon fill="none" stroke="#404040" points="116.5,-251.567 112.5,-245.567 116.5,-239.567 120.5,-245.567 116.5,-251.567"/>
<text text-anchor="middle" x="141" y="-261" font-family="Courier New" font-size="10.00"> +geom1d</text>
</g>
<!-- Node4 -->
<g id="node4" class="node"><title>Node4</title>
<g id="a_node4"><a xlink:href="../../d8/daf/struct_c2_m2_1_1_neuronal_dynamics_1_1_visualization_1_1_v_r_n_1_1_vrn_reader_1_1_geom2d.html" target="_top" xlink:title="Stores the 2d geometries by name, inflation (factor), and description">
<polygon fill="white" stroke="black" points="0,-425.5 0,-515.5 233,-515.5 233,-425.5 0,-425.5"/>
<text text-anchor="start" x="8" y="-503.5" font-family="Courier New" font-size="10.00">C2M2.NeuronalDynamics.Visualization.</text>
<text text-anchor="middle" x="116.5" y="-492.5" font-family="Courier New" font-size="10.00">VRN.VrnReader.Geom2d</text>
<polyline fill="none" stroke="black" points="0,-485.5 233,-485.5 "/>
<text text-anchor="start" x="8" y="-473.5" font-family="Courier New" font-size="10.00">+ inflation</text>
<text text-anchor="start" x="8" y="-462.5" font-family="Courier New" font-size="10.00">+ name</text>
<text text-anchor="start" x="8" y="-451.5" font-family="Courier New" font-size="10.00">+ description</text>
<polyline fill="none" stroke="black" points="0,-444.5 233,-444.5 "/>
<text text-anchor="start" x="8" y="-432.5" font-family="Courier New" font-size="10.00">+ Geom2d()</text>
</a>
</g>
</g>
<!-- Node4&#45;&gt;Node3 -->
<g id="edge3" class="edge"><title>Node4&#45;&gt;Node3</title>
<path fill="none" stroke="#404040" d="M116.5,-425.345C116.5,-414.062 116.5,-401.777 116.5,-389.969"/>
<polygon fill="none" stroke="#404040" points="116.5,-389.899 112.5,-383.899 116.5,-377.899 120.5,-383.899 116.5,-389.899"/>
<text text-anchor="middle" x="153" y="-399" font-family="Courier New" font-size="10.00"> +inflations</text>
</g>
</g>
</svg>
