<?xml version="1.0" encoding="UTF-8" standalone="no"?>
<!DOCTYPE svg PUBLIC "-//W3C//DTD SVG 1.1//EN"
 "http://www.w3.org/Graphics/SVG/1.1/DTD/svg11.dtd">
<!-- Generated by graphviz version 2.38.0 (20140413.2041)
 -->
<!-- Title: C2M2.Interaction.VR.VRRaycastable&lt; ColliderSourceT &gt; Pages: 1 -->
<svg width="223pt" height="226pt"
 viewBox="0.00 0.00 223.00 226.00" xmlns="http://www.w3.org/2000/svg" xmlns:xlink="http://www.w3.org/1999/xlink">
<g id="graph0" class="graph" transform="scale(1 1) rotate(0) translate(4 222)">
<title>C2M2.Interaction.VR.VRRaycastable&lt; ColliderSourceT &gt;</title>
<polygon fill="white" stroke="none" points="-4,4 -4,-222 219,-222 219,4 -4,4"/>
<!-- Node1 -->
<g id="node1" class="node"><title>Node1</title>
<g id="a_node1"><a xlink:title=" ">
<polygon fill="#bfbfbf" stroke="black" points="0,-0.5 0,-123.5 215,-123.5 215,-0.5 0,-0.5"/>
<text text-anchor="start" x="8" y="-111.5" font-family="Courier New" font-size="10.00">C2M2.Interaction.VR.VRRaycastable</text>
<text text-anchor="middle" x="107.5" y="-100.5" font-family="Courier New" font-size="10.00">&lt; ColliderSourceT &gt;</text>
<polyline fill="none" stroke="black" points="0,-93.5 215,-93.5 "/>
<text text-anchor="start" x="8" y="-81.5" font-family="Courier New" font-size="10.00"># source</text>
<polyline fill="none" stroke="black" points="0,-74.5 215,-74.5 "/>
<text text-anchor="start" x="8" y="-62.5" font-family="Courier New" font-size="10.00">+ GetSource()</text>
<text text-anchor="start" x="8" y="-51.5" font-family="Courier New" font-size="10.00">+ SetSource()</text>
<text text-anchor="start" x="8" y="-40.5" font-family="Courier New" font-size="10.00"># OnAwake()</text>
<text text-anchor="start" x="8" y="-29.5" font-family="Courier New" font-size="10.00"># BuildChildObject()</text>
<text text-anchor="start" x="8" y="-18.5" font-family="Courier New" font-size="10.00"># BuildRigidBody()</text>
<text text-anchor="start" x="8" y="-7.5" font-family="Courier New" font-size="10.00">&#45; Awake()</text>
</a>
</g>
</g>
<!-- Node2 -->
<g id="node2" class="node"><title>Node2</title>
<g id="a_node2"><a xlink:title=" ">
<polygon fill="white" stroke="#bfbfbf" points="60,-160.5 60,-217.5 155,-217.5 155,-160.5 60,-160.5"/>
<text text-anchor="middle" x="107.5" y="-205.5" font-family="Courier New" font-size="10.00">MonoBehaviour</text>
<polyline fill="none" stroke="#bfbfbf" points="60,-198.5 155,-198.5 "/>
<text text-anchor="middle" x="107.5" y="-186.5" font-family="Courier New" font-size="10.00"> </text>
<polyline fill="none" stroke="#bfbfbf" points="60,-179.5 155,-179.5 "/>
<text text-anchor="middle" x="107.5" y="-167.5" font-family="Courier New" font-size="10.00"> </text>
</a>
</g>
</g>
<!-- Node2&#45;&gt;Node1 -->
<g id="edge1" class="edge"><title>Node2&#45;&gt;Node1</title>
<path fill="none" stroke="midnightblue" d="M107.5,-150.099C107.5,-141.739 107.5,-132.68 107.5,-123.672"/>
<polygon fill="none" stroke="midnightblue" points="104,-150.258 107.5,-160.258 111,-150.258 104,-150.258"/>
</g>
</g>
</svg>
