<?xml version="1.0" encoding="UTF-8" standalone="no"?>
<!DOCTYPE svg PUBLIC "-//W3C//DTD SVG 1.1//EN"
 "http://www.w3.org/Graphics/SVG/1.1/DTD/svg11.dtd">
<!-- Generated by graphviz version 2.38.0 (20140413.2041)
 -->
<!-- Title: C2M2.NeuronalDynamics.UGX.AttachmentHandler Pages: 1 -->
<svg width="181pt" height="248pt"
 viewBox="0.00 0.00 181.00 248.00" xmlns="http://www.w3.org/2000/svg" xmlns:xlink="http://www.w3.org/1999/xlink">
<g id="graph0" class="graph" transform="scale(1 1) rotate(0) translate(4 244)">
<title>C2M2.NeuronalDynamics.UGX.AttachmentHandler</title>
<polygon fill="white" stroke="none" points="-4,4 -4,-244 177,-244 177,4 -4,4"/>
<!-- Node1 -->
<g id="node1" class="node"><title>Node1</title>
<g id="a_node1"><a xlink:title="The attachment handler allows managing attachments of grids">
<polygon fill="#bfbfbf" stroke="black" points="0,-0.5 0,-134.5 173,-134.5 173,-0.5 0,-0.5"/>
<text text-anchor="start" x="8" y="-122.5" font-family="Courier New" font-size="10.00">C2M2.NeuronalDynamics.UGX.</text>
<text text-anchor="middle" x="86.5" y="-111.5" font-family="Courier New" font-size="10.00">AttachmentHandler</text>
<polyline fill="none" stroke="black" points="0,-104.5 173,-104.5 "/>
<text text-anchor="middle" x="86.5" y="-92.5" font-family="Courier New" font-size="10.00"> </text>
<polyline fill="none" stroke="black" points="0,-85.5 173,-85.5 "/>
<text text-anchor="start" x="8" y="-73.5" font-family="Courier New" font-size="10.00">+ Distribute()</text>
<text text-anchor="start" x="8" y="-62.5" font-family="Courier New" font-size="10.00">+ Attach&lt; T &gt;()</text>
<text text-anchor="start" x="8" y="-51.5" font-family="Courier New" font-size="10.00">+ GetName&lt; T &gt;()</text>
<text text-anchor="start" x="8" y="-40.5" font-family="Courier New" font-size="10.00">+ Detach&lt; T &gt;()</text>
<text text-anchor="start" x="8" y="-29.5" font-family="Courier New" font-size="10.00">+ Available()</text>
<text text-anchor="start" x="8" y="-18.5" font-family="Courier New" font-size="10.00">&#45; Register&lt; T &gt;()</text>
<text text-anchor="start" x="8" y="-7.5" font-family="Courier New" font-size="10.00">&#45; AttachmentHandler()</text>
</a>
</g>
</g>
<!-- Node2 -->
<g id="node2" class="node"><title>Node2</title>
<g id="a_node2"><a xlink:title=" ">
<polygon fill="white" stroke="#bfbfbf" points="60,-182.5 60,-239.5 113,-239.5 113,-182.5 60,-182.5"/>
<text text-anchor="middle" x="86.5" y="-227.5" font-family="Courier New" font-size="10.00">static</text>
<polyline fill="none" stroke="#bfbfbf" points="60,-220.5 113,-220.5 "/>
<text text-anchor="middle" x="86.5" y="-208.5" font-family="Courier New" font-size="10.00"> </text>
<polyline fill="none" stroke="#bfbfbf" points="60,-201.5 113,-201.5 "/>
<text text-anchor="middle" x="86.5" y="-189.5" font-family="Courier New" font-size="10.00"> </text>
</a>
</g>
</g>
<!-- Node2&#45;&gt;Node1 -->
<g id="edge1" class="edge"><title>Node2&#45;&gt;Node1</title>
<path fill="none" stroke="#404040" d="M86.5,-182.381C86.5,-172.02 86.5,-159.663 86.5,-146.97"/>
<polygon fill="none" stroke="#404040" points="86.5001,-146.753 82.5,-140.753 86.5,-134.753 90.5,-140.753 86.5001,-146.753"/>
<text text-anchor="middle" x="126" y="-156" font-family="Courier New" font-size="10.00"> +attachments</text>
</g>
</g>
</svg>
