<?xml version="1.0" encoding="UTF-8" standalone="no"?>
<!DOCTYPE svg PUBLIC "-//W3C//DTD SVG 1.1//EN"
 "http://www.w3.org/Graphics/SVG/1.1/DTD/svg11.dtd">
<!-- Generated by graphviz version 2.38.0 (20140413.2041)
 -->
<!-- Title: C2M2.Interaction.UI.PointInfo Pages: 1 -->
<svg width="199pt" height="402pt"
 viewBox="0.00 0.00 199.00 402.00" xmlns="http://www.w3.org/2000/svg" xmlns:xlink="http://www.w3.org/1999/xlink">
<g id="graph0" class="graph" transform="scale(1 1) rotate(0) translate(4 398)">
<title>C2M2.Interaction.UI.PointInfo</title>
<polygon fill="white" stroke="none" points="-4,4 -4,-398 195,-398 195,4 -4,4"/>
<!-- Node1 -->
<g id="node1" class="node"><title>Node1</title>
<g id="a_node1"><a xlink:title="Store useful information about individual simulation vertices, and spawn info panels to display that ...">
<polygon fill="#bfbfbf" stroke="black" points="0,-0.5 0,-299.5 191,-299.5 191,-0.5 0,-0.5"/>
<text text-anchor="middle" x="95.5" y="-287.5" font-family="Courier New" font-size="10.00">C2M2.Interaction.UI.PointInfo</text>
<polyline fill="none" stroke="black" points="0,-280.5 191,-280.5 "/>
<text text-anchor="start" x="8" y="-268.5" font-family="Courier New" font-size="10.00">+ vertNum</text>
<text text-anchor="start" x="8" y="-257.5" font-family="Courier New" font-size="10.00">+ vertPos</text>
<text text-anchor="start" x="8" y="-246.5" font-family="Courier New" font-size="10.00">+ curValReading</text>
<text text-anchor="start" x="8" y="-235.5" font-family="Courier New" font-size="10.00">+ curColReading</text>
<text text-anchor="start" x="8" y="-224.5" font-family="Courier New" font-size="10.00">+ infoPanel</text>
<text text-anchor="start" x="8" y="-213.5" font-family="Courier New" font-size="10.00">+ lineRendInfoPanelAnchor</text>
<text text-anchor="start" x="8" y="-202.5" font-family="Courier New" font-size="10.00">+ pointFollower</text>
<text text-anchor="start" x="8" y="-191.5" font-family="Courier New" font-size="10.00">&#45; objectManager</text>
<text text-anchor="start" x="8" y="-180.5" font-family="Courier New" font-size="10.00">&#45; lineRend</text>
<text text-anchor="start" x="8" y="-169.5" font-family="Courier New" font-size="10.00">&#45; curVal</text>
<text text-anchor="start" x="8" y="-158.5" font-family="Courier New" font-size="10.00">&#45; vertToWatch</text>
<text text-anchor="start" x="8" y="-147.5" font-family="Courier New" font-size="10.00">&#45; curCol</text>
<text text-anchor="start" x="8" y="-136.5" font-family="Courier New" font-size="10.00">&#45; addVal</text>
<text text-anchor="start" x="8" y="-125.5" font-family="Courier New" font-size="10.00">&#45; menuSnapPosition</text>
<polyline fill="none" stroke="black" points="0,-118.5 191,-118.5 "/>
<text text-anchor="start" x="8" y="-106.5" font-family="Courier New" font-size="10.00">+ Close()</text>
<text text-anchor="start" x="8" y="-95.5" font-family="Courier New" font-size="10.00">+ InitializeInfoPanel()</text>
<text text-anchor="start" x="8" y="-84.5" font-family="Courier New" font-size="10.00">+ ReadValue()</text>
<text text-anchor="start" x="8" y="-73.5" font-family="Courier New" font-size="10.00">&#45; Awake()</text>
<text text-anchor="start" x="8" y="-62.5" font-family="Courier New" font-size="10.00">&#45; Update()</text>
<text text-anchor="start" x="8" y="-51.5" font-family="Courier New" font-size="10.00">&#45; CurValReadingDefaultColor</text>
<text text-anchor="start" x="8" y="-40.5" font-family="Courier New" font-size="10.00">Timed()</text>
<text text-anchor="start" x="8" y="-29.5" font-family="Courier New" font-size="10.00">&#45; LateUpdate()</text>
<text text-anchor="start" x="8" y="-18.5" font-family="Courier New" font-size="10.00">&#45; InitializePanelLocation()</text>
<text text-anchor="start" x="8" y="-7.5" font-family="Courier New" font-size="10.00">&#45; UpdateInfo()</text>
</a>
</g>
</g>
<!-- Node2 -->
<g id="node2" class="node"><title>Node2</title>
<g id="a_node2"><a xlink:title=" ">
<polygon fill="white" stroke="#bfbfbf" points="48,-336.5 48,-393.5 143,-393.5 143,-336.5 48,-336.5"/>
<text text-anchor="middle" x="95.5" y="-381.5" font-family="Courier New" font-size="10.00">MonoBehaviour</text>
<polyline fill="none" stroke="#bfbfbf" points="48,-374.5 143,-374.5 "/>
<text text-anchor="middle" x="95.5" y="-362.5" font-family="Courier New" font-size="10.00"> </text>
<polyline fill="none" stroke="#bfbfbf" points="48,-355.5 143,-355.5 "/>
<text text-anchor="middle" x="95.5" y="-343.5" font-family="Courier New" font-size="10.00"> </text>
</a>
</g>
</g>
<!-- Node2&#45;&gt;Node1 -->
<g id="edge1" class="edge"><title>Node2&#45;&gt;Node1</title>
<path fill="none" stroke="midnightblue" d="M95.5,-325.923C95.5,-317.996 95.5,-309.193 95.5,-299.872"/>
<polygon fill="none" stroke="midnightblue" points="92.0001,-326.154 95.5,-336.154 99.0001,-326.154 92.0001,-326.154"/>
</g>
</g>
</svg>
