<?xml version="1.0" encoding="UTF-8" standalone="no"?>
<!DOCTYPE svg PUBLIC "-//W3C//DTD SVG 1.1//EN"
 "http://www.w3.org/Graphics/SVG/1.1/DTD/svg11.dtd">
<!-- Generated by graphviz version 2.38.0 (20140413.2041)
 -->
<!-- Title: C2M2.RaycastPressEvents Pages: 1 -->
<svg width="282pt" height="343pt"
 viewBox="0.00 0.00 282.00 343.00" xmlns="http://www.w3.org/2000/svg" xmlns:xlink="http://www.w3.org/1999/xlink">
<g id="graph0" class="graph" transform="scale(1 1) rotate(0) translate(4 339)">
<title>C2M2.RaycastPressEvents</title>
<polygon fill="white" stroke="none" points="-4,4 -4,-339 278,-339 278,4 -4,4"/>
<!-- Node1 -->
<g id="node1" class="node"><title>Node1</title>
<g id="a_node1"><a xlink:title="Store custom events that the corresponding RaycastTriggerManager will invoke">
<polygon fill="#bfbfbf" stroke="black" points="14,-0.5 14,-101.5 169,-101.5 169,-0.5 14,-0.5"/>
<text text-anchor="middle" x="91.5" y="-89.5" font-family="Courier New" font-size="10.00">C2M2.RaycastPressEvents</text>
<polyline fill="none" stroke="black" points="14,-82.5 169,-82.5 "/>
<text text-anchor="start" x="22" y="-70.5" font-family="Courier New" font-size="10.00">+ OnPress</text>
<text text-anchor="start" x="22" y="-59.5" font-family="Courier New" font-size="10.00">+ OnHoldPress</text>
<text text-anchor="start" x="22" y="-48.5" font-family="Courier New" font-size="10.00">+ OnEndPress</text>
<polyline fill="none" stroke="black" points="14,-41.5 169,-41.5 "/>
<text text-anchor="start" x="22" y="-29.5" font-family="Courier New" font-size="10.00">+ Press()</text>
<text text-anchor="start" x="22" y="-18.5" font-family="Courier New" font-size="10.00">+ HoldPress()</text>
<text text-anchor="start" x="22" y="-7.5" font-family="Courier New" font-size="10.00">+ EndPress()</text>
</a>
</g>
</g>
<!-- Node2 -->
<g id="node2" class="node"><title>Node2</title>
<g id="a_node2"><a xlink:title=" ">
<polygon fill="white" stroke="#bfbfbf" points="0,-177 0,-234 95,-234 95,-177 0,-177"/>
<text text-anchor="middle" x="47.5" y="-222" font-family="Courier New" font-size="10.00">MonoBehaviour</text>
<polyline fill="none" stroke="#bfbfbf" points="0,-215 95,-215 "/>
<text text-anchor="middle" x="47.5" y="-203" font-family="Courier New" font-size="10.00"> </text>
<polyline fill="none" stroke="#bfbfbf" points="0,-196 95,-196 "/>
<text text-anchor="middle" x="47.5" y="-184" font-family="Courier New" font-size="10.00"> </text>
</a>
</g>
</g>
<!-- Node2&#45;&gt;Node1 -->
<g id="edge1" class="edge"><title>Node2&#45;&gt;Node1</title>
<path fill="none" stroke="midnightblue" d="M58.3071,-167.044C63.9965,-147.325 71.0471,-122.888 77.185,-101.614"/>
<polygon fill="none" stroke="midnightblue" points="54.8775,-166.305 55.4681,-176.883 61.6031,-168.246 54.8775,-166.305"/>
</g>
<!-- Node3 -->
<g id="node3" class="node"><title>Node3</title>
<g id="a_node3"><a xlink:href="../../db/d79/class_c2_m2_1_1_raycast_press_events_1_1_raycast_hit_event.html" target="_top" xlink:title=" ">
<polygon fill="white" stroke="black" points="113,-171.5 113,-239.5 274,-239.5 274,-171.5 113,-171.5"/>
<text text-anchor="start" x="121" y="-227.5" font-family="Courier New" font-size="10.00">C2M2.RaycastPressEvents.</text>
<text text-anchor="middle" x="193.5" y="-216.5" font-family="Courier New" font-size="10.00">RaycastHitEvent</text>
<polyline fill="none" stroke="black" points="113,-209.5 274,-209.5 "/>
<text text-anchor="middle" x="193.5" y="-197.5" font-family="Courier New" font-size="10.00"> </text>
<polyline fill="none" stroke="black" points="113,-190.5 274,-190.5 "/>
<text text-anchor="middle" x="193.5" y="-178.5" font-family="Courier New" font-size="10.00"> </text>
</a>
</g>
</g>
<!-- Node3&#45;&gt;Node1 -->
<g id="edge2" class="edge"><title>Node3&#45;&gt;Node1</title>
<path fill="none" stroke="#404040" d="M171.368,-171.41C159.689,-153.949 144.999,-131.986 131.412,-111.672"/>
<polygon fill="none" stroke="#404040" points="131.311,-111.521 124.651,-108.758 124.64,-101.547 131.3,-104.31 131.311,-111.521"/>
<text text-anchor="middle" x="194" y="-145" font-family="Courier New" font-size="10.00"> &#45;onPress</text>
<text text-anchor="middle" x="194" y="-134" font-family="Courier New" font-size="10.00">&#45;onHoldPress</text>
<text text-anchor="middle" x="194" y="-123" font-family="Courier New" font-size="10.00">&#45;onEndPress</text>
</g>
<!-- Node4 -->
<g id="node4" class="node"><title>Node4</title>
<g id="a_node4"><a xlink:title=" ">
<polygon fill="white" stroke="#bfbfbf" points="113,-277.5 113,-334.5 274,-334.5 274,-277.5 113,-277.5"/>
<text text-anchor="middle" x="193.5" y="-322.5" font-family="Courier New" font-size="10.00">UnityEvent&lt; RaycastHit &gt;</text>
<polyline fill="none" stroke="#bfbfbf" points="113,-315.5 274,-315.5 "/>
<text text-anchor="middle" x="193.5" y="-303.5" font-family="Courier New" font-size="10.00"> </text>
<polyline fill="none" stroke="#bfbfbf" points="113,-296.5 274,-296.5 "/>
<text text-anchor="middle" x="193.5" y="-284.5" font-family="Courier New" font-size="10.00"> </text>
</a>
</g>
</g>
<!-- Node4&#45;&gt;Node3 -->
<g id="edge3" class="edge"><title>Node4&#45;&gt;Node3</title>
<path fill="none" stroke="midnightblue" d="M193.5,-267.007C193.5,-257.962 193.5,-248.383 193.5,-239.578"/>
<polygon fill="none" stroke="midnightblue" points="190,-267.3 193.5,-277.3 197,-267.3 190,-267.3"/>
</g>
</g>
</svg>
