<?xml version="1.0" encoding="UTF-8" standalone="no"?>
<!DOCTYPE svg PUBLIC "-//W3C//DTD SVG 1.1//EN"
 "http://www.w3.org/Graphics/SVG/1.1/DTD/svg11.dtd">
<!-- Generated by graphviz version 2.46.0 (20210118.1747)
 -->
<!-- Title: C2M2.Simulation.ReactionDiffusion Pages: 1 -->
<svg width="175pt" height="694pt"
 viewBox="0.00 0.00 175.00 694.00" xmlns="http://www.w3.org/2000/svg" xmlns:xlink="http://www.w3.org/1999/xlink">
<g id="graph0" class="graph" transform="scale(1 1) rotate(0) translate(4 690)">
<title>C2M2.Simulation.ReactionDiffusion</title>
<polygon fill="white" stroke="transparent" points="-4,4 -4,-690 171,-690 171,4 -4,4"/>
<!-- Node1 -->
<g id="node1" class="node">
<title>Node1</title>
<g id="a_node1"><a xlink:title="Simulate a diffusion over the surface of a given geometry">
<polygon fill="#bfbfbf" stroke="black" points="0,-0.5 0,-233.5 167,-233.5 167,-0.5 0,-0.5"/>
<text text-anchor="start" x="8" y="-221.5" font-family="Courier New" font-size="10.00">C2M2.Simulation.Reaction</text>
<text text-anchor="middle" x="83.5" y="-210.5" font-family="Courier New" font-size="10.00">Diffusion</text>
<polyline fill="none" stroke="black" points="0,-203.5 167,-203.5 "/>
<text text-anchor="start" x="8" y="-191.5" font-family="Courier New" font-size="10.00">+ diffusionConstant</text>
<text text-anchor="start" x="8" y="-180.5" font-family="Courier New" font-size="10.00">+ reactionConstant</text>
<text text-anchor="start" x="8" y="-169.5" font-family="Courier New" font-size="10.00">+ beta</text>
<text text-anchor="start" x="8" y="-158.5" font-family="Courier New" font-size="10.00">&#45; diffusionManager</text>
<text text-anchor="start" x="8" y="-147.5" font-family="Courier New" font-size="10.00">&#45; meshInfo</text>
<text text-anchor="start" x="8" y="-136.5" font-family="Courier New" font-size="10.00">&#45; edgeList</text>
<text text-anchor="start" x="8" y="-125.5" font-family="Courier New" font-size="10.00">&#45; edgeCount</text>
<text text-anchor="start" x="8" y="-114.5" font-family="Courier New" font-size="10.00">&#45; adjacencyList</text>
<text text-anchor="start" x="8" y="-103.5" font-family="Courier New" font-size="10.00">&#45; flux</text>
<text text-anchor="start" x="8" y="-92.5" font-family="Courier New" font-size="10.00">&#45; inputField</text>
<text text-anchor="start" x="8" y="-81.5" font-family="Courier New" font-size="10.00">&#45; c</text>
<polyline fill="none" stroke="black" points="0,-74.5 167,-74.5 "/>
<text text-anchor="start" x="8" y="-62.5" font-family="Courier New" font-size="10.00">+ ValuesRandomize()</text>
<text text-anchor="start" x="8" y="-51.5" font-family="Courier New" font-size="10.00">+ ValuesEmpty()</text>
<text text-anchor="start" x="8" y="-40.5" font-family="Courier New" font-size="10.00">+ AddDiffusionCondition()</text>
<text text-anchor="start" x="8" y="-29.5" font-family="Courier New" font-size="10.00"># Initialize()</text>
<text text-anchor="start" x="8" y="-18.5" font-family="Courier New" font-size="10.00"># Solve()</text>
<text text-anchor="start" x="8" y="-7.5" font-family="Courier New" font-size="10.00">&#45; R()</text>
</a>
</g>
</g>
<!-- Node2 -->
<g id="node2" class="node">
<title>Node2</title>
<g id="a_node2"><a xlink:href="../../d4/d24/class_c2_m2_1_1_simulation_1_1_simulation_diffuse_react.html" target="_top" xlink:title="Provide a general access point for information regarding a live simulation. Simulations should inheri...">
<polygon fill="white" stroke="black" points="9,-270.5 9,-591.5 158,-591.5 158,-270.5 9,-270.5"/>
<text text-anchor="middle" x="83.5" y="-579.5" font-family="Courier New" font-size="10.00">SimulationDiffuseReact</text>
<polyline fill="none" stroke="black" points="9,-572.5 158,-572.5 "/>
<text text-anchor="start" x="17" y="-560.5" font-family="Courier New" font-size="10.00">+ adaptStepsPerSec</text>
<text text-anchor="start" x="17" y="-549.5" font-family="Courier New" font-size="10.00">+ idealRenderFPS</text>
<text text-anchor="start" x="17" y="-538.5" font-family="Courier New" font-size="10.00">+ stepsPerSec</text>
<text text-anchor="start" x="17" y="-527.5" font-family="Courier New" font-size="10.00">+ simulationConditions</text>
<text text-anchor="start" x="17" y="-516.5" font-family="Courier New" font-size="10.00">+ playState</text>
<text text-anchor="start" x="17" y="-505.5" font-family="Courier New" font-size="10.00">+ paused</text>
<text text-anchor="start" x="17" y="-494.5" font-family="Courier New" font-size="10.00">+ started</text>
<text text-anchor="start" x="17" y="-483.5" font-family="Courier New" font-size="10.00">+ hasChanged</text>
<text text-anchor="start" x="17" y="-472.5" font-family="Courier New" font-size="10.00"># objectManager</text>
<text text-anchor="start" x="17" y="-461.5" font-family="Courier New" font-size="10.00"># max</text>
<text text-anchor="start" x="17" y="-450.5" font-family="Courier New" font-size="10.00"># min</text>
<text text-anchor="start" x="17" y="-439.5" font-family="Courier New" font-size="10.00"># allowOutsideChanges</text>
<text text-anchor="start" x="17" y="-428.5" font-family="Courier New" font-size="10.00"># pauseStartTime</text>
<text text-anchor="start" x="17" y="-417.5" font-family="Courier New" font-size="10.00"># pauseTime</text>
<text text-anchor="start" x="17" y="-406.5" font-family="Courier New" font-size="10.00"># newUnpause</text>
<text text-anchor="start" x="17" y="-395.5" font-family="Courier New" font-size="10.00"># simulationRoutine</text>
<polyline fill="none" stroke="black" points="9,-388.5 158,-388.5 "/>
<text text-anchor="start" x="17" y="-376.5" font-family="Courier New" font-size="10.00">+ Initialize()</text>
<text text-anchor="start" x="17" y="-365.5" font-family="Courier New" font-size="10.00">+ StartSimulation()</text>
<text text-anchor="start" x="17" y="-354.5" font-family="Courier New" font-size="10.00">+ StopSimulation()</text>
<text text-anchor="start" x="17" y="-343.5" font-family="Courier New" font-size="10.00">+ ChangeValues()</text>
<text text-anchor="start" x="17" y="-332.5" font-family="Courier New" font-size="10.00"># Initialize()</text>
<text text-anchor="start" x="17" y="-321.5" font-family="Courier New" font-size="10.00"># Solve()</text>
<text text-anchor="start" x="17" y="-310.5" font-family="Courier New" font-size="10.00"># ApplyChanges()</text>
<text text-anchor="start" x="17" y="-299.5" font-family="Courier New" font-size="10.00">&#45; Update()</text>
<text text-anchor="start" x="17" y="-288.5" font-family="Courier New" font-size="10.00">&#45; SolveWrapper()</text>
<text text-anchor="start" x="17" y="-277.5" font-family="Courier New" font-size="10.00">&#45; AdaptStepsPerSec()</text>
</a>
</g>
</g>
<!-- Node2&#45;&gt;Node1 -->
<g id="edge1" class="edge">
<title>Node2&#45;&gt;Node1</title>
<path fill="none" stroke="midnightblue" d="M83.5,-260.27C83.5,-251.37 83.5,-242.52 83.5,-233.86"/>
<polygon fill="none" stroke="midnightblue" points="80,-260.34 83.5,-270.34 87,-260.34 80,-260.34"/>
</g>
<!-- Node3 -->
<g id="node3" class="node">
<title>Node3</title>
<g id="a_node3"><a xlink:title=" ">
<polygon fill="white" stroke="#bfbfbf" points="36,-628.5 36,-685.5 131,-685.5 131,-628.5 36,-628.5"/>
<text text-anchor="middle" x="83.5" y="-673.5" font-family="Courier New" font-size="10.00">MonoBehaviour</text>
<polyline fill="none" stroke="#bfbfbf" points="36,-666.5 131,-666.5 "/>
<text text-anchor="middle" x="83.5" y="-654.5" font-family="Courier New" font-size="10.00"> </text>
<polyline fill="none" stroke="#bfbfbf" points="36,-647.5 131,-647.5 "/>
<text text-anchor="middle" x="83.5" y="-635.5" font-family="Courier New" font-size="10.00"> </text>
</a>
</g>
</g>
<!-- Node3&#45;&gt;Node2 -->
<g id="edge2" class="edge">
<title>Node3&#45;&gt;Node2</title>
<path fill="none" stroke="midnightblue" d="M83.5,-617.91C83.5,-610.02 83.5,-601.25 83.5,-591.93"/>
<polygon fill="none" stroke="midnightblue" points="80,-618.08 83.5,-628.08 87,-618.08 80,-618.08"/>
</g>
</g>
</svg>
