<?xml version="1.0" encoding="UTF-8" standalone="no"?>
<!DOCTYPE svg PUBLIC "-//W3C//DTD SVG 1.1//EN"
 "http://www.w3.org/Graphics/SVG/1.1/DTD/svg11.dtd">
<!-- Generated by graphviz version 2.38.0 (20140413.2041)
 -->
<!-- Title: C2M2.Utils.Animation.ColorAnimate Pages: 1 -->
<svg width="181pt" height="193pt"
 viewBox="0.00 0.00 181.00 193.00" xmlns="http://www.w3.org/2000/svg" xmlns:xlink="http://www.w3.org/1999/xlink">
<g id="graph0" class="graph" transform="scale(1 1) rotate(0) translate(4 189)">
<title>C2M2.Utils.Animation.ColorAnimate</title>
<polygon fill="white" stroke="none" points="-4,4 -4,-189 177,-189 177,4 -4,4"/>
<!-- Node1 -->
<g id="node1" class="node"><title>Node1</title>
<g id="a_node1"><a xlink:title="Alters the color of a material in a sinusoidal fashion using FixedUpdate">
<polygon fill="#bfbfbf" stroke="black" points="0,-0.5 0,-90.5 173,-90.5 173,-0.5 0,-0.5"/>
<text text-anchor="start" x="8" y="-78.5" font-family="Courier New" font-size="10.00">C2M2.Utils.Animation.Color</text>
<text text-anchor="middle" x="86.5" y="-67.5" font-family="Courier New" font-size="10.00">Animate</text>
<polyline fill="none" stroke="black" points="0,-60.5 173,-60.5 "/>
<text text-anchor="start" x="8" y="-48.5" font-family="Courier New" font-size="10.00">+ altColor</text>
<text text-anchor="start" x="8" y="-37.5" font-family="Courier New" font-size="10.00">+ rend</text>
<polyline fill="none" stroke="black" points="0,-30.5 173,-30.5 "/>
<text text-anchor="start" x="8" y="-18.5" font-family="Courier New" font-size="10.00">&#45; Start()</text>
<text text-anchor="start" x="8" y="-7.5" font-family="Courier New" font-size="10.00">&#45; FixedUpdate()</text>
</a>
</g>
</g>
<!-- Node2 -->
<g id="node2" class="node"><title>Node2</title>
<g id="a_node2"><a xlink:title=" ">
<polygon fill="white" stroke="#bfbfbf" points="39,-127.5 39,-184.5 134,-184.5 134,-127.5 39,-127.5"/>
<text text-anchor="middle" x="86.5" y="-172.5" font-family="Courier New" font-size="10.00">MonoBehaviour</text>
<polyline fill="none" stroke="#bfbfbf" points="39,-165.5 134,-165.5 "/>
<text text-anchor="middle" x="86.5" y="-153.5" font-family="Courier New" font-size="10.00"> </text>
<polyline fill="none" stroke="#bfbfbf" points="39,-146.5 134,-146.5 "/>
<text text-anchor="middle" x="86.5" y="-134.5" font-family="Courier New" font-size="10.00"> </text>
</a>
</g>
</g>
<!-- Node2&#45;&gt;Node1 -->
<g id="edge1" class="edge"><title>Node2&#45;&gt;Node1</title>
<path fill="none" stroke="midnightblue" d="M86.5,-117.214C86.5,-108.609 86.5,-99.3943 86.5,-90.5541"/>
<polygon fill="none" stroke="midnightblue" points="83.0001,-117.34 86.5,-127.34 90.0001,-117.34 83.0001,-117.34"/>
</g>
</g>
</svg>
