<?xml version="1.0" encoding="UTF-8" standalone="no"?>
<!DOCTYPE svg PUBLIC "-//W3C//DTD SVG 1.1//EN"
 "http://www.w3.org/Graphics/SVG/1.1/DTD/svg11.dtd">
<!-- Generated by graphviz version 2.38.0 (20140413.2041)
 -->
<!-- Title: C2M2.NeuronalDynamics.Visualization.VTK.VTUPlayer Pages: 1 -->
<!--zoomable 850 -->
<svg id="main" version="1.1" xmlns="http://www.w3.org/2000/svg" xmlns:xlink="http://www.w3.org/1999/xlink" xml:space="preserve" onload="init(evt)">
<style type="text/css"><![CDATA[
.edge:hover path { stroke: red; }
.edge:hover polygon { stroke: red; fill: red; }
]]></style>
<script type="text/javascript"><![CDATA[
var edges = document.getElementsByTagName('g');
if (edges && edges.length) {
  for (var i=0;i<edges.length;i++) {
    if (edges[i].id.substr(0,4)=='edge') {
      edges[i].setAttribute('class','edge');
    }
  }
}
]]></script>
        <defs>
                <circle id="rim" cx="0" cy="0" r="7"/>
                <circle id="rim2" cx="0" cy="0" r="3.5"/>
                <g id="zoomPlus">
                        <use xlink:href="#rim" fill="#404040">
                                <set attributeName="fill" to="#808080" begin="zoomplus.mouseover" end="zoomplus.mouseout"/>
                        </use>
                        <path d="M-4,0h8M0,-4v8" fill="none" stroke="white" stroke-width="1.5" pointer-events="none"/>
                </g>
                <g id="zoomMin">
                        <use xlink:href="#rim" fill="#404040">
                                <set attributeName="fill" to="#808080" begin="zoomminus.mouseover" end="zoomminus.mouseout"/>
                        </use>
                        <path d="M-4,0h8" fill="none" stroke="white" stroke-width="1.5" pointer-events="none"/>
                </g>
                <g id="dirArrow">
                        <path fill="none" stroke="white" stroke-width="1.5" d="M0,-3.0v7 M-2.5,-0.5L0,-3.0L2.5,-0.5"/>
                </g>
               <g id="resetDef">
                       <use xlink:href="#rim2" fill="#404040">
                               <set attributeName="fill" to="#808080" begin="reset.mouseover" end="reset.mouseout"/>
                       </use>
               </g>
        </defs>

<script type="text/javascript">
var viewWidth = 549;
var viewHeight = 850;
var sectionId = 'dynsection-1';
</script>
<script xlink:href="../../svgpan.js"/>
<svg id="graph" class="graph">
<g id="viewport">
<title>C2M2.NeuronalDynamics.Visualization.VTK.VTUPlayer</title>
<polygon fill="white" stroke="none" points="-4,4 -4,-846 545,-846 545,4 -4,4"/>
<!-- Node1 -->
<g id="node1" class="node"><title>Node1</title>
<g id="a_node1"><a xlink:title=" ">
<polygon fill="#bfbfbf" stroke="black" points="57,-237.5 57,-448.5 290,-448.5 290,-237.5 57,-237.5"/>
<text text-anchor="start" x="65" y="-436.5" font-family="Courier New" font-size="10.00">C2M2.NeuronalDynamics.Visualization.</text>
<text text-anchor="middle" x="173.5" y="-425.5" font-family="Courier New" font-size="10.00">VTK.VTUPlayer</text>
<polyline fill="none" stroke="black" points="57,-418.5 290,-418.5 "/>
<text text-anchor="start" x="65" y="-406.5" font-family="Courier New" font-size="10.00">+ frameCountDisplay</text>
<text text-anchor="start" x="65" y="-395.5" font-family="Courier New" font-size="10.00">&#45; mf</text>
<text text-anchor="start" x="65" y="-384.5" font-family="Courier New" font-size="10.00">&#45; maxFrame</text>
<text text-anchor="start" x="65" y="-373.5" font-family="Courier New" font-size="10.00">&#45; slider</text>
<text text-anchor="start" x="65" y="-362.5" font-family="Courier New" font-size="10.00">&#45; formatString</text>
<text text-anchor="start" x="65" y="-351.5" font-family="Courier New" font-size="10.00">&#45; currentFrame</text>
<polyline fill="none" stroke="black" points="57,-344.5 290,-344.5 "/>
<text text-anchor="start" x="65" y="-332.5" font-family="Courier New" font-size="10.00">+ Initialize()</text>
<text text-anchor="start" x="65" y="-321.5" font-family="Courier New" font-size="10.00">+ Play()</text>
<text text-anchor="start" x="65" y="-310.5" font-family="Courier New" font-size="10.00">+ Pause()</text>
<text text-anchor="start" x="65" y="-299.5" font-family="Courier New" font-size="10.00">+ Rewind()</text>
<text text-anchor="start" x="65" y="-288.5" font-family="Courier New" font-size="10.00">+ NextFrame()</text>
<text text-anchor="start" x="65" y="-277.5" font-family="Courier New" font-size="10.00">+ PreviousFrame()</text>
<text text-anchor="start" x="65" y="-266.5" font-family="Courier New" font-size="10.00">&#45; NextFrameRepeating()</text>
<text text-anchor="start" x="65" y="-255.5" font-family="Courier New" font-size="10.00">&#45; PreviousFramePrevious()</text>
<text text-anchor="start" x="65" y="-244.5" font-family="Courier New" font-size="10.00">&#45; UpdateMesh()</text>
</a>
</g>
</g>
<!-- Node3 -->
<g id="node3" class="node"><title>Node3</title>
<g id="a_node3"><a xlink:href="../../d8/d74/class_c2_m2_1_1_neuronal_dynamics_1_1_visualization_1_1_v_t_k_1_1_v_t_u_manager.html" target="_top" xlink:title=" ">
<polygon fill="white" stroke="black" points="57,-0.5 57,-189.5 290,-189.5 290,-0.5 57,-0.5"/>
<text text-anchor="start" x="65" y="-177.5" font-family="Courier New" font-size="10.00">C2M2.NeuronalDynamics.Visualization.</text>
<text text-anchor="middle" x="173.5" y="-166.5" font-family="Courier New" font-size="10.00">VTK.VTUManager</text>
<polyline fill="none" stroke="black" points="57,-159.5 290,-159.5 "/>
<text text-anchor="start" x="65" y="-147.5" font-family="Courier New" font-size="10.00">+ dataExtension</text>
<text text-anchor="start" x="65" y="-136.5" font-family="Courier New" font-size="10.00">+ dataPath</text>
<text text-anchor="start" x="65" y="-125.5" font-family="Courier New" font-size="10.00">+ fileProcessCount</text>
<text text-anchor="start" x="65" y="-114.5" font-family="Courier New" font-size="10.00">+ initialPosition</text>
<text text-anchor="start" x="65" y="-103.5" font-family="Courier New" font-size="10.00">+ initialRotation</text>
<text text-anchor="start" x="65" y="-92.5" font-family="Courier New" font-size="10.00">+ compoundColliderResolution</text>
<text text-anchor="start" x="65" y="-81.5" font-family="Courier New" font-size="10.00">+ adjacencyListSubdivisions</text>
<text text-anchor="start" x="65" y="-70.5" font-family="Courier New" font-size="10.00">+ vtuList</text>
<text text-anchor="start" x="65" y="-59.5" font-family="Courier New" font-size="10.00">+ gradient</text>
<text text-anchor="start" x="65" y="-48.5" font-family="Courier New" font-size="10.00">&#45; objectManager</text>
<text text-anchor="start" x="65" y="-37.5" font-family="Courier New" font-size="10.00">&#45; meshf</text>
<polyline fill="none" stroke="black" points="57,-30.5 290,-30.5 "/>
<text text-anchor="start" x="65" y="-18.5" font-family="Courier New" font-size="10.00">+ Initialize()</text>
<text text-anchor="start" x="65" y="-7.5" font-family="Courier New" font-size="10.00">&#45; BuildVTUList()</text>
</a>
</g>
</g>
<!-- Node1&#45;&gt;Node3 -->
<g id="edge4" class="edge"><title>Node1&#45;&gt;Node3</title>
<path fill="none" stroke="#404040" d="M124.405,-237.472C123.318,-227.611 123.513,-217.683 125.5,-208 125.951,-205.803 126.447,-203.596 126.983,-201.383"/>
<polygon fill="none" stroke="#404040" points="127.06,-201.103 124.776,-194.263 130.212,-189.524 132.495,-196.365 127.06,-201.103"/>
<text text-anchor="middle" x="159" y="-211" font-family="Courier New" font-size="10.00"> +VTUPlayer</text>
</g>
<!-- Node2 -->
<g id="node2" class="node"><title>Node2</title>
<g id="a_node2"><a xlink:title=" ">
<polygon fill="white" stroke="#bfbfbf" points="0,-684 0,-741 95,-741 95,-684 0,-684"/>
<text text-anchor="middle" x="47.5" y="-729" font-family="Courier New" font-size="10.00">MonoBehaviour</text>
<polyline fill="none" stroke="#bfbfbf" points="0,-722 95,-722 "/>
<text text-anchor="middle" x="47.5" y="-710" font-family="Courier New" font-size="10.00"> </text>
<polyline fill="none" stroke="#bfbfbf" points="0,-703 95,-703 "/>
<text text-anchor="middle" x="47.5" y="-691" font-family="Courier New" font-size="10.00"> </text>
</a>
</g>
</g>
<!-- Node2&#45;&gt;Node1 -->
<g id="edge1" class="edge"><title>Node2&#45;&gt;Node1</title>
<path fill="none" stroke="midnightblue" d="M50.1558,-673.615C54.1394,-629.745 63.6772,-555.846 85.5,-496 91.2454,-480.244 98.584,-464.242 106.566,-448.828"/>
<polygon fill="none" stroke="midnightblue" points="46.6471,-673.567 49.2799,-683.829 53.6215,-674.165 46.6471,-673.567"/>
</g>
<!-- Node2&#45;&gt;Node3 -->
<g id="edge3" class="edge"><title>Node2&#45;&gt;Node3</title>
<path fill="none" stroke="midnightblue" d="M38.7398,-673.871C21.3853,-591.417 -10.8869,-389.962 47.5,-237 53.8219,-220.438 63.0831,-204.589 73.7622,-189.89"/>
<polygon fill="none" stroke="midnightblue" points="35.348,-674.747 40.8764,-683.785 42.1909,-673.272 35.348,-674.747"/>
</g>
<!-- Node5 -->
<g id="node5" class="node"><title>Node5</title>
<g id="a_node5"><a xlink:href="../../d8/d68/class_c2_m2_1_1_interaction_1_1_raycast_press_events.html" target="_top" xlink:title="Store custom events that the corresponding RaycastTriggerManager will invoke">
<polygon fill="white" stroke="black" points="95,-496.5 95,-608.5 256,-608.5 256,-496.5 95,-496.5"/>
<text text-anchor="start" x="103" y="-596.5" font-family="Courier New" font-size="10.00">C2M2.Interaction.Raycast</text>
<text text-anchor="middle" x="175.5" y="-585.5" font-family="Courier New" font-size="10.00">PressEvents</text>
<polyline fill="none" stroke="black" points="95,-578.5 256,-578.5 "/>
<text text-anchor="start" x="103" y="-566.5" font-family="Courier New" font-size="10.00">+ OnPress</text>
<text text-anchor="start" x="103" y="-555.5" font-family="Courier New" font-size="10.00">+ OnHoldPress</text>
<text text-anchor="start" x="103" y="-544.5" font-family="Courier New" font-size="10.00">+ OnEndPress</text>
<polyline fill="none" stroke="black" points="95,-537.5 256,-537.5 "/>
<text text-anchor="start" x="103" y="-525.5" font-family="Courier New" font-size="10.00">+ Press()</text>
<text text-anchor="start" x="103" y="-514.5" font-family="Courier New" font-size="10.00">+ HoldPress()</text>
<text text-anchor="start" x="103" y="-503.5" font-family="Courier New" font-size="10.00">+ EndPress()</text>
</a>
</g>
</g>
<!-- Node2&#45;&gt;Node5 -->
<g id="edge7" class="edge"><title>Node2&#45;&gt;Node5</title>
<path fill="none" stroke="midnightblue" d="M76.1932,-676.082C92.3119,-656.185 112.779,-630.921 130.94,-608.504"/>
<polygon fill="none" stroke="midnightblue" points="73.3712,-674.005 69.7959,-683.979 78.8103,-678.412 73.3712,-674.005"/>
</g>
<!-- Node3&#45;&gt;Node1 -->
<g id="edge2" class="edge"><title>Node3&#45;&gt;Node1</title>
<path fill="none" stroke="#404040" d="M194.174,-189.589C195.095,-195.799 195.888,-201.977 196.5,-208 197.059,-213.498 197.323,-219.112 197.342,-224.773"/>
<polygon fill="none" stroke="#404040" points="197.33,-225.223 201.168,-231.327 197.01,-237.219 193.171,-231.114 197.33,-225.223"/>
<text text-anchor="middle" x="234" y="-211" font-family="Courier New" font-size="10.00"> +vtuManager</text>
</g>
<!-- Node4 -->
<g id="node4" class="node"><title>Node4</title>
<g id="a_node4"><a xlink:href="../../da/da3/class_c2_m2_1_1_neuronal_dynamics_1_1_visualization_1_1_v_t_k_1_1_v_t_u_object_builder.html" target="_top" xlink:title="Overarching manager to control order of events for reading in VTK data, positioning it,...">
<polygon fill="white" stroke="black" points="308,-303.5 308,-382.5 541,-382.5 541,-303.5 308,-303.5"/>
<text text-anchor="start" x="316" y="-370.5" font-family="Courier New" font-size="10.00">C2M2.NeuronalDynamics.Visualization.</text>
<text text-anchor="middle" x="424.5" y="-359.5" font-family="Courier New" font-size="10.00">VTK.VTUObjectBuilder</text>
<polyline fill="none" stroke="black" points="308,-352.5 541,-352.5 "/>
<text text-anchor="middle" x="424.5" y="-340.5" font-family="Courier New" font-size="10.00"> </text>
<polyline fill="none" stroke="black" points="308,-333.5 541,-333.5 "/>
<text text-anchor="start" x="316" y="-321.5" font-family="Courier New" font-size="10.00">+ BuildVTUObjects()</text>
<text text-anchor="start" x="316" y="-310.5" font-family="Courier New" font-size="10.00">+ BuildVTUObjects()</text>
</a>
</g>
</g>
<!-- Node4&#45;&gt;Node3 -->
<g id="edge5" class="edge"><title>Node4&#45;&gt;Node3</title>
<path fill="none" stroke="#404040" d="M385.005,-303.292C356.248,-275.107 315.882,-235.546 278.113,-198.529"/>
<polygon fill="none" stroke="#404040" points="277.657,-198.082 270.572,-196.739 269.087,-189.683 276.172,-191.026 277.657,-198.082"/>
<text text-anchor="middle" x="354" y="-211" font-family="Courier New" font-size="10.00"> &#45;vtuObjectBuilder</text>
</g>
<!-- Node5&#45;&gt;Node1 -->
<g id="edge6" class="edge"><title>Node5&#45;&gt;Node1</title>
<path fill="none" stroke="#404040" d="M174.969,-496.439C174.863,-485.363 174.747,-473.329 174.628,-461.043"/>
<polygon fill="none" stroke="#404040" points="174.625,-460.698 170.567,-454.737 174.509,-448.699 178.567,-454.66 174.625,-460.698"/>
<text text-anchor="middle" x="209" y="-470" font-family="Courier New" font-size="10.00"> +fullPause</text>
</g>
<!-- Node6 -->
<g id="node6" class="node"><title>Node6</title>
<g id="a_node6"><a xlink:href="../../d2/d43/class_c2_m2_1_1_interaction_1_1_raycast_press_events_1_1_raycast_hit_event.html" target="_top" xlink:title=" ">
<polygon fill="white" stroke="black" points="113,-678.5 113,-746.5 292,-746.5 292,-678.5 113,-678.5"/>
<text text-anchor="start" x="121" y="-734.5" font-family="Courier New" font-size="10.00">C2M2.Interaction.Raycast</text>
<text text-anchor="middle" x="202.5" y="-723.5" font-family="Courier New" font-size="10.00">PressEvents.RaycastHitEvent</text>
<polyline fill="none" stroke="black" points="113,-716.5 292,-716.5 "/>
<text text-anchor="middle" x="202.5" y="-704.5" font-family="Courier New" font-size="10.00"> </text>
<polyline fill="none" stroke="black" points="113,-697.5 292,-697.5 "/>
<text text-anchor="middle" x="202.5" y="-685.5" font-family="Courier New" font-size="10.00"> </text>
</a>
</g>
</g>
<!-- Node6&#45;&gt;Node5 -->
<g id="edge8" class="edge"><title>Node6&#45;&gt;Node5</title>
<path fill="none" stroke="#404040" d="M196.84,-678.378C193.971,-661.588 190.379,-640.568 186.964,-620.588"/>
<polygon fill="none" stroke="#404040" points="186.947,-620.486 181.994,-615.246 184.926,-608.658 189.879,-613.898 186.947,-620.486"/>
<text text-anchor="middle" x="230" y="-652" font-family="Courier New" font-size="10.00"> &#45;onPress</text>
<text text-anchor="middle" x="230" y="-641" font-family="Courier New" font-size="10.00">&#45;onHoldPress</text>
<text text-anchor="middle" x="230" y="-630" font-family="Courier New" font-size="10.00">&#45;onEndPress</text>
</g>
<!-- Node7 -->
<g id="node7" class="node"><title>Node7</title>
<g id="a_node7"><a xlink:title=" ">
<polygon fill="white" stroke="#bfbfbf" points="122,-784.5 122,-841.5 283,-841.5 283,-784.5 122,-784.5"/>
<text text-anchor="middle" x="202.5" y="-829.5" font-family="Courier New" font-size="10.00">UnityEvent&lt; RaycastHit &gt;</text>
<polyline fill="none" stroke="#bfbfbf" points="122,-822.5 283,-822.5 "/>
<text text-anchor="middle" x="202.5" y="-810.5" font-family="Courier New" font-size="10.00"> </text>
<polyline fill="none" stroke="#bfbfbf" points="122,-803.5 283,-803.5 "/>
<text text-anchor="middle" x="202.5" y="-791.5" font-family="Courier New" font-size="10.00"> </text>
</a>
</g>
</g>
<!-- Node7&#45;&gt;Node6 -->
<g id="edge9" class="edge"><title>Node7&#45;&gt;Node6</title>
<path fill="none" stroke="midnightblue" d="M202.5,-774.007C202.5,-764.962 202.5,-755.383 202.5,-746.578"/>
<polygon fill="none" stroke="midnightblue" points="199,-774.3 202.5,-784.3 206,-774.3 199,-774.3"/>
</g>
</g>
</svg>
        <g id="navigator" transform="translate(0 0)" fill="#404254">
                <rect fill="#f2f5e9" fill-opacity="0.5" stroke="#606060" stroke-width=".5" x="0" y="0" width="60" height="60"/>
                <use id="zoomplus" xlink:href="#zoomPlus" x="17" y="9" onmousedown="handleZoom(evt,'in')"/>
                <use id="zoomminus" xlink:href="#zoomMin" x="42" y="9" onmousedown="handleZoom(evt,'out')"/>
                <use id="reset" xlink:href="#resetDef" x="30" y="36" onmousedown="handleReset()"/>
                <g id="arrowUp" xlink:href="#dirArrow" transform="translate(30 24)" onmousedown="handlePan(0,-1)">
                  <use xlink:href="#rim" fill="#404040">
                        <set attributeName="fill" to="#808080" begin="arrowUp.mouseover" end="arrowUp.mouseout"/>
                  </use>
                  <path fill="none" stroke="white" stroke-width="1.5" d="M0,-3.0v7 M-2.5,-0.5L0,-3.0L2.5,-0.5"/>
                </g>
                <g id="arrowRight" xlink:href="#dirArrow" transform="rotate(90) translate(36 -43)" onmousedown="handlePan(1,0)">
                  <use xlink:href="#rim" fill="#404040">
                        <set attributeName="fill" to="#808080" begin="arrowRight.mouseover" end="arrowRight.mouseout"/>
                  </use>
                  <path fill="none" stroke="white" stroke-width="1.5" d="M0,-3.0v7 M-2.5,-0.5L0,-3.0L2.5,-0.5"/>
                </g>
                <g id="arrowDown" xlink:href="#dirArrow" transform="rotate(180) translate(-30 -48)" onmousedown="handlePan(0,1)">
                  <use xlink:href="#rim" fill="#404040">
                        <set attributeName="fill" to="#808080" begin="arrowDown.mouseover" end="arrowDown.mouseout"/>
                  </use>
                  <path fill="none" stroke="white" stroke-width="1.5" d="M0,-3.0v7 M-2.5,-0.5L0,-3.0L2.5,-0.5"/>
                </g>
                <g id="arrowLeft" xlink:href="#dirArrow" transform="rotate(270) translate(-36 17)" onmousedown="handlePan(-1,0)">
                  <use xlink:href="#rim" fill="#404040">
                        <set attributeName="fill" to="#808080" begin="arrowLeft.mouseover" end="arrowLeft.mouseout"/>
                  </use>
                  <path fill="none" stroke="white" stroke-width="1.5" d="M0,-3.0v7 M-2.5,-0.5L0,-3.0L2.5,-0.5"/>
                </g>
        </g>
        <svg viewBox="0 0 15 15" width="100%" height="30px" preserveAspectRatio="xMaxYMin meet">
         <g id="arrow_out" transform="scale(0.3 0.3)">
          <a xlink:href="class_c2_m2_1_1_neuronal_dynamics_1_1_visualization_1_1_v_t_k_1_1_v_t_u_player__coll__graph_org.svg" target="_base">
           <rect id="button" ry="5" rx="5" y="6" x="6" height="38" width="38"
                fill="#f2f5e9" fill-opacity="0.5" stroke="#606060" stroke-width="1.0"/>
           <path id="arrow"
             d="M 11.500037,31.436501 C 11.940474,20.09759 22.043105,11.32322 32.158766,21.979434 L 37.068811,17.246167 C 37.068811,17.246167 37.088388,32 37.088388,32 L 22.160133,31.978069 C 22.160133,31.978069 26.997745,27.140456 26.997745,27.140456 C 18.528582,18.264221 13.291696,25.230495 11.500037,31.436501 z"
             style="fill:#404040;"/>
          </a>
         </g>
        </svg>
</svg>
