<?xml version="1.0" encoding="UTF-8" standalone="no"?>
<!DOCTYPE svg PUBLIC "-//W3C//DTD SVG 1.1//EN"
 "http://www.w3.org/Graphics/SVG/1.1/DTD/svg11.dtd">
<!-- Generated by graphviz version 2.38.0 (20140413.2041)
 -->
<!-- Title: C2M2.NeuronalDynamics.Visualization.VTK.VTUPlayer Pages: 1 -->
<svg width="549pt" height="839pt"
 viewBox="0.00 0.00 549.00 839.00" xmlns="http://www.w3.org/2000/svg" xmlns:xlink="http://www.w3.org/1999/xlink">
<g id="graph0" class="graph" transform="scale(1 1) rotate(0) translate(4 835)">
<title>C2M2.NeuronalDynamics.Visualization.VTK.VTUPlayer</title>
<polygon fill="white" stroke="none" points="-4,4 -4,-835 545,-835 545,4 -4,4"/>
<!-- Node1 -->
<g id="node1" class="node"><title>Node1</title>
<g id="a_node1"><a xlink:title=" ">
<polygon fill="#bfbfbf" stroke="black" points="57,-237.5 57,-448.5 290,-448.5 290,-237.5 57,-237.5"/>
<text text-anchor="start" x="65" y="-436.5" font-family="Courier New" font-size="10.00">C2M2.NeuronalDynamics.Visualization.</text>
<text text-anchor="middle" x="173.5" y="-425.5" font-family="Courier New" font-size="10.00">VTK.VTUPlayer</text>
<polyline fill="none" stroke="black" points="57,-418.5 290,-418.5 "/>
<text text-anchor="start" x="65" y="-406.5" font-family="Courier New" font-size="10.00">+ frameCountDisplay</text>
<text text-anchor="start" x="65" y="-395.5" font-family="Courier New" font-size="10.00">&#45; mf</text>
<text text-anchor="start" x="65" y="-384.5" font-family="Courier New" font-size="10.00">&#45; maxFrame</text>
<text text-anchor="start" x="65" y="-373.5" font-family="Courier New" font-size="10.00">&#45; slider</text>
<text text-anchor="start" x="65" y="-362.5" font-family="Courier New" font-size="10.00">&#45; formatString</text>
<text text-anchor="start" x="65" y="-351.5" font-family="Courier New" font-size="10.00">&#45; currentFrame</text>
<polyline fill="none" stroke="black" points="57,-344.5 290,-344.5 "/>
<text text-anchor="start" x="65" y="-332.5" font-family="Courier New" font-size="10.00">+ Initialize()</text>
<text text-anchor="start" x="65" y="-321.5" font-family="Courier New" font-size="10.00">+ Play()</text>
<text text-anchor="start" x="65" y="-310.5" font-family="Courier New" font-size="10.00">+ Pause()</text>
<text text-anchor="start" x="65" y="-299.5" font-family="Courier New" font-size="10.00">+ Rewind()</text>
<text text-anchor="start" x="65" y="-288.5" font-family="Courier New" font-size="10.00">+ NextFrame()</text>
<text text-anchor="start" x="65" y="-277.5" font-family="Courier New" font-size="10.00">+ PreviousFrame()</text>
<text text-anchor="start" x="65" y="-266.5" font-family="Courier New" font-size="10.00">&#45; NextFrameRepeating()</text>
<text text-anchor="start" x="65" y="-255.5" font-family="Courier New" font-size="10.00">&#45; PreviousFramePrevious()</text>
<text text-anchor="start" x="65" y="-244.5" font-family="Courier New" font-size="10.00">&#45; UpdateMesh()</text>
</a>
</g>
</g>
<!-- Node6 -->
<g id="node6" class="node"><title>Node6</title>
<g id="a_node6"><a xlink:href="../../d8/d74/class_c2_m2_1_1_neuronal_dynamics_1_1_visualization_1_1_v_t_k_1_1_v_t_u_manager.html" target="_top" xlink:title=" ">
<polygon fill="white" stroke="black" points="57,-0.5 57,-189.5 290,-189.5 290,-0.5 57,-0.5"/>
<text text-anchor="start" x="65" y="-177.5" font-family="Courier New" font-size="10.00">C2M2.NeuronalDynamics.Visualization.</text>
<text text-anchor="middle" x="173.5" y="-166.5" font-family="Courier New" font-size="10.00">VTK.VTUManager</text>
<polyline fill="none" stroke="black" points="57,-159.5 290,-159.5 "/>
<text text-anchor="start" x="65" y="-147.5" font-family="Courier New" font-size="10.00">+ dataExtension</text>
<text text-anchor="start" x="65" y="-136.5" font-family="Courier New" font-size="10.00">+ dataPath</text>
<text text-anchor="start" x="65" y="-125.5" font-family="Courier New" font-size="10.00">+ fileProcessCount</text>
<text text-anchor="start" x="65" y="-114.5" font-family="Courier New" font-size="10.00">+ initialPosition</text>
<text text-anchor="start" x="65" y="-103.5" font-family="Courier New" font-size="10.00">+ initialRotation</text>
<text text-anchor="start" x="65" y="-92.5" font-family="Courier New" font-size="10.00">+ compoundColliderResolution</text>
<text text-anchor="start" x="65" y="-81.5" font-family="Courier New" font-size="10.00">+ adjacencyListSubdivisions</text>
<text text-anchor="start" x="65" y="-70.5" font-family="Courier New" font-size="10.00">+ vtuList</text>
<text text-anchor="start" x="65" y="-59.5" font-family="Courier New" font-size="10.00">+ gradient</text>
<text text-anchor="start" x="65" y="-48.5" font-family="Courier New" font-size="10.00">&#45; objectManager</text>
<text text-anchor="start" x="65" y="-37.5" font-family="Courier New" font-size="10.00">&#45; meshf</text>
<polyline fill="none" stroke="black" points="57,-30.5 290,-30.5 "/>
<text text-anchor="start" x="65" y="-18.5" font-family="Courier New" font-size="10.00">+ Initialize()</text>
<text text-anchor="start" x="65" y="-7.5" font-family="Courier New" font-size="10.00">&#45; BuildVTUList()</text>
</a>
</g>
</g>
<!-- Node1&#45;&gt;Node6 -->
<g id="edge8" class="edge"><title>Node1&#45;&gt;Node6</title>
<path fill="none" stroke="#404040" d="M124.405,-237.472C123.318,-227.611 123.513,-217.683 125.5,-208 125.951,-205.803 126.447,-203.596 126.983,-201.383"/>
<polygon fill="none" stroke="#404040" points="127.06,-201.103 124.776,-194.263 130.212,-189.524 132.495,-196.365 127.06,-201.103"/>
<text text-anchor="middle" x="159" y="-211" font-family="Courier New" font-size="10.00"> +VTUPlayer</text>
</g>
<!-- Node2 -->
<g id="node2" class="node"><title>Node2</title>
<g id="a_node2"><a xlink:title=" ">
<polygon fill="white" stroke="#bfbfbf" points="0,-673 0,-730 95,-730 95,-673 0,-673"/>
<text text-anchor="middle" x="47.5" y="-718" font-family="Courier New" font-size="10.00">MonoBehaviour</text>
<polyline fill="none" stroke="#bfbfbf" points="0,-711 95,-711 "/>
<text text-anchor="middle" x="47.5" y="-699" font-family="Courier New" font-size="10.00"> </text>
<polyline fill="none" stroke="#bfbfbf" points="0,-692 95,-692 "/>
<text text-anchor="middle" x="47.5" y="-680" font-family="Courier New" font-size="10.00"> </text>
</a>
</g>
</g>
<!-- Node2&#45;&gt;Node1 -->
<g id="edge1" class="edge"><title>Node2&#45;&gt;Node1</title>
<path fill="none" stroke="midnightblue" d="M50.9004,-662.916C55.5363,-621.118 65.7587,-552.097 86.5,-496 92.3522,-480.172 99.756,-464.063 107.764,-448.538"/>
<polygon fill="none" stroke="midnightblue" points="47.4124,-662.618 49.8391,-672.931 54.3734,-663.356 47.4124,-662.618"/>
</g>
<!-- Node3 -->
<g id="node3" class="node"><title>Node3</title>
<g id="a_node3"><a xlink:href="../../dd/dab/class_c2_m2_1_1_raycast_press_events.html" target="_top" xlink:title="Store custom events that the corresponding RaycastTriggerManager will invoke">
<polygon fill="white" stroke="black" points="96,-496.5 96,-597.5 251,-597.5 251,-496.5 96,-496.5"/>
<text text-anchor="middle" x="173.5" y="-585.5" font-family="Courier New" font-size="10.00">C2M2.RaycastPressEvents</text>
<polyline fill="none" stroke="black" points="96,-578.5 251,-578.5 "/>
<text text-anchor="start" x="104" y="-566.5" font-family="Courier New" font-size="10.00">+ OnPress</text>
<text text-anchor="start" x="104" y="-555.5" font-family="Courier New" font-size="10.00">+ OnHoldPress</text>
<text text-anchor="start" x="104" y="-544.5" font-family="Courier New" font-size="10.00">+ OnEndPress</text>
<polyline fill="none" stroke="black" points="96,-537.5 251,-537.5 "/>
<text text-anchor="start" x="104" y="-525.5" font-family="Courier New" font-size="10.00">+ Press()</text>
<text text-anchor="start" x="104" y="-514.5" font-family="Courier New" font-size="10.00">+ HoldPress()</text>
<text text-anchor="start" x="104" y="-503.5" font-family="Courier New" font-size="10.00">+ EndPress()</text>
</a>
</g>
</g>
<!-- Node2&#45;&gt;Node3 -->
<g id="edge3" class="edge"><title>Node2&#45;&gt;Node3</title>
<path fill="none" stroke="midnightblue" d="M76.8904,-664.928C93.4405,-644.897 114.366,-619.571 132.507,-597.614"/>
<polygon fill="none" stroke="midnightblue" points="73.989,-662.945 70.3176,-672.883 79.3853,-667.404 73.989,-662.945"/>
</g>
<!-- Node2&#45;&gt;Node6 -->
<g id="edge7" class="edge"><title>Node2&#45;&gt;Node6</title>
<path fill="none" stroke="midnightblue" d="M38.716,-662.663C21.7123,-581.453 -9.27989,-385.752 47.5,-237 53.8219,-220.438 63.0831,-204.589 73.7622,-189.89"/>
<polygon fill="none" stroke="midnightblue" points="35.3914,-663.852 40.9125,-672.895 42.2355,-662.383 35.3914,-663.852"/>
</g>
<!-- Node3&#45;&gt;Node1 -->
<g id="edge2" class="edge"><title>Node3&#45;&gt;Node1</title>
<path fill="none" stroke="#404040" d="M173.5,-496.327C173.5,-485.463 173.5,-473.519 173.5,-461.248"/>
<polygon fill="none" stroke="#404040" points="173.5,-460.894 169.5,-454.894 173.5,-448.894 177.5,-454.894 173.5,-460.894"/>
<text text-anchor="middle" x="207" y="-470" font-family="Courier New" font-size="10.00"> +fullPause</text>
</g>
<!-- Node4 -->
<g id="node4" class="node"><title>Node4</title>
<g id="a_node4"><a xlink:href="../../db/d79/class_c2_m2_1_1_raycast_press_events_1_1_raycast_hit_event.html" target="_top" xlink:title=" ">
<polygon fill="white" stroke="black" points="113,-667.5 113,-735.5 274,-735.5 274,-667.5 113,-667.5"/>
<text text-anchor="start" x="121" y="-723.5" font-family="Courier New" font-size="10.00">C2M2.RaycastPressEvents.</text>
<text text-anchor="middle" x="193.5" y="-712.5" font-family="Courier New" font-size="10.00">RaycastHitEvent</text>
<polyline fill="none" stroke="black" points="113,-705.5 274,-705.5 "/>
<text text-anchor="middle" x="193.5" y="-693.5" font-family="Courier New" font-size="10.00"> </text>
<polyline fill="none" stroke="black" points="113,-686.5 274,-686.5 "/>
<text text-anchor="middle" x="193.5" y="-674.5" font-family="Courier New" font-size="10.00"> </text>
</a>
</g>
</g>
<!-- Node4&#45;&gt;Node3 -->
<g id="edge4" class="edge"><title>Node4&#45;&gt;Node3</title>
<path fill="none" stroke="#404040" d="M189.16,-667.41C186.944,-650.507 184.173,-629.385 181.582,-609.625"/>
<polygon fill="none" stroke="#404040" points="181.558,-609.445 176.812,-604.016 179.998,-597.547 184.744,-602.976 181.558,-609.445"/>
<text text-anchor="middle" x="223" y="-641" font-family="Courier New" font-size="10.00"> &#45;onPress</text>
<text text-anchor="middle" x="223" y="-630" font-family="Courier New" font-size="10.00">&#45;onHoldPress</text>
<text text-anchor="middle" x="223" y="-619" font-family="Courier New" font-size="10.00">&#45;onEndPress</text>
</g>
<!-- Node5 -->
<g id="node5" class="node"><title>Node5</title>
<g id="a_node5"><a xlink:title=" ">
<polygon fill="white" stroke="#bfbfbf" points="113,-773.5 113,-830.5 274,-830.5 274,-773.5 113,-773.5"/>
<text text-anchor="middle" x="193.5" y="-818.5" font-family="Courier New" font-size="10.00">UnityEvent&lt; RaycastHit &gt;</text>
<polyline fill="none" stroke="#bfbfbf" points="113,-811.5 274,-811.5 "/>
<text text-anchor="middle" x="193.5" y="-799.5" font-family="Courier New" font-size="10.00"> </text>
<polyline fill="none" stroke="#bfbfbf" points="113,-792.5 274,-792.5 "/>
<text text-anchor="middle" x="193.5" y="-780.5" font-family="Courier New" font-size="10.00"> </text>
</a>
</g>
</g>
<!-- Node5&#45;&gt;Node4 -->
<g id="edge5" class="edge"><title>Node5&#45;&gt;Node4</title>
<path fill="none" stroke="midnightblue" d="M193.5,-763.007C193.5,-753.962 193.5,-744.383 193.5,-735.578"/>
<polygon fill="none" stroke="midnightblue" points="190,-763.3 193.5,-773.3 197,-763.3 190,-763.3"/>
</g>
<!-- Node6&#45;&gt;Node1 -->
<g id="edge6" class="edge"><title>Node6&#45;&gt;Node1</title>
<path fill="none" stroke="#404040" d="M194.174,-189.589C195.095,-195.799 195.888,-201.977 196.5,-208 197.059,-213.498 197.323,-219.112 197.342,-224.773"/>
<polygon fill="none" stroke="#404040" points="197.33,-225.223 201.168,-231.327 197.01,-237.219 193.171,-231.114 197.33,-225.223"/>
<text text-anchor="middle" x="234" y="-211" font-family="Courier New" font-size="10.00"> +vtuManager</text>
</g>
<!-- Node7 -->
<g id="node7" class="node"><title>Node7</title>
<g id="a_node7"><a xlink:href="../../da/da3/class_c2_m2_1_1_neuronal_dynamics_1_1_visualization_1_1_v_t_k_1_1_v_t_u_object_builder.html" target="_top" xlink:title="Overarching manager to control order of events for reading in VTK data, positioning it,...">
<polygon fill="white" stroke="black" points="308,-303.5 308,-382.5 541,-382.5 541,-303.5 308,-303.5"/>
<text text-anchor="start" x="316" y="-370.5" font-family="Courier New" font-size="10.00">C2M2.NeuronalDynamics.Visualization.</text>
<text text-anchor="middle" x="424.5" y="-359.5" font-family="Courier New" font-size="10.00">VTK.VTUObjectBuilder</text>
<polyline fill="none" stroke="black" points="308,-352.5 541,-352.5 "/>
<text text-anchor="middle" x="424.5" y="-340.5" font-family="Courier New" font-size="10.00"> </text>
<polyline fill="none" stroke="black" points="308,-333.5 541,-333.5 "/>
<text text-anchor="start" x="316" y="-321.5" font-family="Courier New" font-size="10.00">+ BuildVTUObjects()</text>
<text text-anchor="start" x="316" y="-310.5" font-family="Courier New" font-size="10.00">+ BuildVTUObjects()</text>
</a>
</g>
</g>
<!-- Node7&#45;&gt;Node6 -->
<g id="edge9" class="edge"><title>Node7&#45;&gt;Node6</title>
<path fill="none" stroke="#404040" d="M385.005,-303.292C356.248,-275.107 315.882,-235.546 278.113,-198.529"/>
<polygon fill="none" stroke="#404040" points="277.657,-198.082 270.572,-196.739 269.087,-189.683 276.172,-191.026 277.657,-198.082"/>
<text text-anchor="middle" x="354" y="-211" font-family="Courier New" font-size="10.00"> &#45;vtuObjectBuilder</text>
</g>
</g>
</svg>
