<?xml version="1.0" encoding="UTF-8" standalone="no"?>
<!DOCTYPE svg PUBLIC "-//W3C//DTD SVG 1.1//EN"
 "http://www.w3.org/Graphics/SVG/1.1/DTD/svg11.dtd">
<!-- Generated by graphviz version 2.46.0 (20210118.1747)
 -->
<!-- Title: C2M2.NeuronalDynamics.Visualization.VTK.VTUPlayer Pages: 1 -->
<svg width="549pt" height="905pt"
 viewBox="0.00 0.00 549.00 905.00" xmlns="http://www.w3.org/2000/svg" xmlns:xlink="http://www.w3.org/1999/xlink">
<g id="graph0" class="graph" transform="scale(1 1) rotate(0) translate(4 901)">
<title>C2M2.NeuronalDynamics.Visualization.VTK.VTUPlayer</title>
<polygon fill="white" stroke="transparent" points="-4,4 -4,-901 545,-901 545,4 -4,4"/>
<!-- Node1 -->
<g id="node1" class="node">
<title>Node1</title>
<g id="a_node1"><a xlink:title=" ">
<polygon fill="#bfbfbf" stroke="black" points="57,-226.5 57,-437.5 290,-437.5 290,-226.5 57,-226.5"/>
<text text-anchor="start" x="65" y="-425.5" font-family="Courier New" font-size="10.00">C2M2.NeuronalDynamics.Visualization.</text>
<text text-anchor="middle" x="173.5" y="-414.5" font-family="Courier New" font-size="10.00">VTK.VTUPlayer</text>
<polyline fill="none" stroke="black" points="57,-407.5 290,-407.5 "/>
<text text-anchor="start" x="65" y="-395.5" font-family="Courier New" font-size="10.00">+ frameCountDisplay</text>
<text text-anchor="start" x="65" y="-384.5" font-family="Courier New" font-size="10.00">&#45; mf</text>
<text text-anchor="start" x="65" y="-373.5" font-family="Courier New" font-size="10.00">&#45; maxFrame</text>
<text text-anchor="start" x="65" y="-362.5" font-family="Courier New" font-size="10.00">&#45; slider</text>
<text text-anchor="start" x="65" y="-351.5" font-family="Courier New" font-size="10.00">&#45; formatString</text>
<text text-anchor="start" x="65" y="-340.5" font-family="Courier New" font-size="10.00">&#45; currentFrame</text>
<polyline fill="none" stroke="black" points="57,-333.5 290,-333.5 "/>
<text text-anchor="start" x="65" y="-321.5" font-family="Courier New" font-size="10.00">+ Initialize()</text>
<text text-anchor="start" x="65" y="-310.5" font-family="Courier New" font-size="10.00">+ Play()</text>
<text text-anchor="start" x="65" y="-299.5" font-family="Courier New" font-size="10.00">+ Pause()</text>
<text text-anchor="start" x="65" y="-288.5" font-family="Courier New" font-size="10.00">+ Rewind()</text>
<text text-anchor="start" x="65" y="-277.5" font-family="Courier New" font-size="10.00">+ NextFrame()</text>
<text text-anchor="start" x="65" y="-266.5" font-family="Courier New" font-size="10.00">+ PreviousFrame()</text>
<text text-anchor="start" x="65" y="-255.5" font-family="Courier New" font-size="10.00">&#45; NextFrameRepeating()</text>
<text text-anchor="start" x="65" y="-244.5" font-family="Courier New" font-size="10.00">&#45; PreviousFramePrevious()</text>
<text text-anchor="start" x="65" y="-233.5" font-family="Courier New" font-size="10.00">&#45; UpdateMesh()</text>
</a>
</g>
</g>
<!-- Node3 -->
<g id="node3" class="node">
<title>Node3</title>
<g id="a_node3"><a xlink:href="../../d8/d74/class_c2_m2_1_1_neuronal_dynamics_1_1_visualization_1_1_v_t_k_1_1_v_t_u_manager.html" target="_top" xlink:title=" ">
<polygon fill="white" stroke="black" points="57,-0.5 57,-178.5 290,-178.5 290,-0.5 57,-0.5"/>
<text text-anchor="start" x="65" y="-166.5" font-family="Courier New" font-size="10.00">C2M2.NeuronalDynamics.Visualization.</text>
<text text-anchor="middle" x="173.5" y="-155.5" font-family="Courier New" font-size="10.00">VTK.VTUManager</text>
<polyline fill="none" stroke="black" points="57,-148.5 290,-148.5 "/>
<text text-anchor="start" x="65" y="-136.5" font-family="Courier New" font-size="10.00">+ dataExtension</text>
<text text-anchor="start" x="65" y="-125.5" font-family="Courier New" font-size="10.00">+ dataPath</text>
<text text-anchor="start" x="65" y="-114.5" font-family="Courier New" font-size="10.00">+ fileProcessCount</text>
<text text-anchor="start" x="65" y="-103.5" font-family="Courier New" font-size="10.00">+ initialPosition</text>
<text text-anchor="start" x="65" y="-92.5" font-family="Courier New" font-size="10.00">+ initialRotation</text>
<text text-anchor="start" x="65" y="-81.5" font-family="Courier New" font-size="10.00">+ compoundColliderResolution</text>
<text text-anchor="start" x="65" y="-70.5" font-family="Courier New" font-size="10.00">+ adjacencyListSubdivisions</text>
<text text-anchor="start" x="65" y="-59.5" font-family="Courier New" font-size="10.00">+ vtuList</text>
<text text-anchor="start" x="65" y="-48.5" font-family="Courier New" font-size="10.00">+ gradient</text>
<text text-anchor="start" x="65" y="-37.5" font-family="Courier New" font-size="10.00">&#45; meshf</text>
<polyline fill="none" stroke="black" points="57,-30.5 290,-30.5 "/>
<text text-anchor="start" x="65" y="-18.5" font-family="Courier New" font-size="10.00">+ Initialize()</text>
<text text-anchor="start" x="65" y="-7.5" font-family="Courier New" font-size="10.00">&#45; BuildVTUList()</text>
</a>
</g>
</g>
<!-- Node1&#45;&gt;Node3 -->
<g id="edge4" class="edge">
<title>Node1&#45;&gt;Node3</title>
<path fill="none" stroke="#404040" d="M124.21,-226.43C123.17,-216.58 123.42,-206.66 125.5,-197 125.97,-194.83 126.48,-192.64 127.04,-190.46"/>
<polygon fill="none" stroke="#404040" points="127.09,-190.28 124.91,-183.41 130.41,-178.75 132.59,-185.62 127.09,-190.28"/>
<text text-anchor="middle" x="159" y="-200" font-family="Courier New" font-size="10.00"> +VTUPlayer</text>
</g>
<!-- Node2 -->
<g id="node2" class="node">
<title>Node2</title>
<g id="a_node2"><a xlink:title=" ">
<polygon fill="white" stroke="#bfbfbf" points="0,-739 0,-796 95,-796 95,-739 0,-739"/>
<text text-anchor="middle" x="47.5" y="-784" font-family="Courier New" font-size="10.00">MonoBehaviour</text>
<polyline fill="none" stroke="#bfbfbf" points="0,-777 95,-777 "/>
<text text-anchor="middle" x="47.5" y="-765" font-family="Courier New" font-size="10.00"> </text>
<polyline fill="none" stroke="#bfbfbf" points="0,-758 95,-758 "/>
<text text-anchor="middle" x="47.5" y="-746" font-family="Courier New" font-size="10.00"> </text>
</a>
</g>
</g>
<!-- Node2&#45;&gt;Node1 -->
<g id="edge1" class="edge">
<title>Node2&#45;&gt;Node1</title>
<path fill="none" stroke="midnightblue" d="M47.98,-728.58C49.7,-673.49 56.85,-568.77 85.5,-485 90.93,-469.13 98.08,-453.07 105.98,-437.62"/>
<polygon fill="none" stroke="midnightblue" points="44.47,-728.82 47.7,-738.91 51.47,-729.01 44.47,-728.82"/>
</g>
<!-- Node2&#45;&gt;Node3 -->
<g id="edge3" class="edge">
<title>Node2&#45;&gt;Node3</title>
<path fill="none" stroke="midnightblue" d="M38.39,-728.95C18.35,-638.48 -22.49,-402.85 47.5,-226 54.12,-209.27 63.87,-193.38 75.07,-178.76"/>
<polygon fill="none" stroke="midnightblue" points="34.99,-729.77 40.61,-738.75 41.82,-728.23 34.99,-729.77"/>
</g>
<!-- Node5 -->
<g id="node5" class="node">
<title>Node5</title>
<g id="a_node5"><a xlink:href="../../d8/d68/class_c2_m2_1_1_interaction_1_1_raycast_press_events.html" target="_top" xlink:title="Store custom events that the corresponding RaycastTriggerManager will invoke">
<polygon fill="white" stroke="black" points="95,-485.5 95,-641.5 256,-641.5 256,-485.5 95,-485.5"/>
<text text-anchor="start" x="103" y="-629.5" font-family="Courier New" font-size="10.00">C2M2.Interaction.Raycast</text>
<text text-anchor="middle" x="175.5" y="-618.5" font-family="Courier New" font-size="10.00">PressEvents</text>
<polyline fill="none" stroke="black" points="95,-611.5 256,-611.5 "/>
<text text-anchor="start" x="103" y="-599.5" font-family="Courier New" font-size="10.00">+ OnHover</text>
<text text-anchor="start" x="103" y="-588.5" font-family="Courier New" font-size="10.00">+ OnHoverEnd</text>
<text text-anchor="start" x="103" y="-577.5" font-family="Courier New" font-size="10.00">+ OnPress</text>
<text text-anchor="start" x="103" y="-566.5" font-family="Courier New" font-size="10.00">+ OnHoldPress</text>
<text text-anchor="start" x="103" y="-555.5" font-family="Courier New" font-size="10.00">+ OnEndPress</text>
<polyline fill="none" stroke="black" points="95,-548.5 256,-548.5 "/>
<text text-anchor="start" x="103" y="-536.5" font-family="Courier New" font-size="10.00">+ Hover()</text>
<text text-anchor="start" x="103" y="-525.5" font-family="Courier New" font-size="10.00">+ EndHover()</text>
<text text-anchor="start" x="103" y="-514.5" font-family="Courier New" font-size="10.00">+ Press()</text>
<text text-anchor="start" x="103" y="-503.5" font-family="Courier New" font-size="10.00">+ HoldPress()</text>
<text text-anchor="start" x="103" y="-492.5" font-family="Courier New" font-size="10.00">+ EndPress()</text>
</a>
</g>
</g>
<!-- Node2&#45;&gt;Node5 -->
<g id="edge7" class="edge">
<title>Node2&#45;&gt;Node5</title>
<path fill="none" stroke="midnightblue" d="M70.66,-730.43C73.97,-725.25 77.32,-719.99 80.5,-715 95.67,-691.14 112.14,-665.11 127.03,-641.51"/>
<polygon fill="none" stroke="midnightblue" points="67.62,-728.68 65.17,-738.99 73.51,-732.46 67.62,-728.68"/>
</g>
<!-- Node3&#45;&gt;Node1 -->
<g id="edge2" class="edge">
<title>Node3&#45;&gt;Node1</title>
<path fill="none" stroke="#404040" d="M194.04,-178.6C195.02,-184.8 195.86,-190.98 196.5,-197 197.09,-202.5 197.37,-208.11 197.41,-213.77"/>
<polygon fill="none" stroke="#404040" points="197.4,-214.21 201.26,-220.31 197.11,-226.21 193.26,-220.11 197.4,-214.21"/>
<text text-anchor="middle" x="234" y="-200" font-family="Courier New" font-size="10.00"> +vtuManager</text>
</g>
<!-- Node4 -->
<g id="node4" class="node">
<title>Node4</title>
<g id="a_node4"><a xlink:href="../../da/da3/class_c2_m2_1_1_neuronal_dynamics_1_1_visualization_1_1_v_t_k_1_1_v_t_u_object_builder.html" target="_top" xlink:title="Overarching manager to control order of events for reading in VTK data, positioning it,...">
<polygon fill="white" stroke="black" points="308,-292.5 308,-371.5 541,-371.5 541,-292.5 308,-292.5"/>
<text text-anchor="start" x="316" y="-359.5" font-family="Courier New" font-size="10.00">C2M2.NeuronalDynamics.Visualization.</text>
<text text-anchor="middle" x="424.5" y="-348.5" font-family="Courier New" font-size="10.00">VTK.VTUObjectBuilder</text>
<polyline fill="none" stroke="black" points="308,-341.5 541,-341.5 "/>
<text text-anchor="middle" x="424.5" y="-329.5" font-family="Courier New" font-size="10.00"> </text>
<polyline fill="none" stroke="black" points="308,-322.5 541,-322.5 "/>
<text text-anchor="start" x="316" y="-310.5" font-family="Courier New" font-size="10.00">+ BuildVTUObjects()</text>
<text text-anchor="start" x="316" y="-299.5" font-family="Courier New" font-size="10.00">+ BuildVTUObjects()</text>
</a>
</g>
</g>
<!-- Node4&#45;&gt;Node3 -->
<g id="edge5" class="edge">
<title>Node4&#45;&gt;Node3</title>
<path fill="none" stroke="#404040" d="M384.17,-292.36C354.48,-263.91 312.73,-223.91 274.23,-187.02"/>
<polygon fill="none" stroke="#404040" points="274.22,-187.01 267.12,-185.74 265.56,-178.71 272.66,-179.97 274.22,-187.01"/>
<text text-anchor="middle" x="345" y="-200" font-family="Courier New" font-size="10.00"> &#45;vtuObjectBuilder</text>
</g>
<!-- Node5&#45;&gt;Node1 -->
<g id="edge6" class="edge">
<title>Node5&#45;&gt;Node1</title>
<path fill="none" stroke="#404040" d="M174.83,-485.44C174.73,-473.92 174.62,-461.82 174.52,-449.7"/>
<polygon fill="none" stroke="#404040" points="174.52,-449.58 170.46,-443.62 174.41,-437.58 178.46,-443.55 174.52,-449.58"/>
<text text-anchor="middle" x="209" y="-459" font-family="Courier New" font-size="10.00"> +fullPause</text>
</g>
<!-- Node6 -->
<g id="node6" class="node">
<title>Node6</title>
<g id="a_node6"><a xlink:href="../../d2/d43/class_c2_m2_1_1_interaction_1_1_raycast_press_events_1_1_raycast_hit_event.html" target="_top" xlink:title=" ">
<polygon fill="white" stroke="black" points="113,-733.5 113,-801.5 292,-801.5 292,-733.5 113,-733.5"/>
<text text-anchor="start" x="121" y="-789.5" font-family="Courier New" font-size="10.00">C2M2.Interaction.Raycast</text>
<text text-anchor="middle" x="202.5" y="-778.5" font-family="Courier New" font-size="10.00">PressEvents.RaycastHitEvent</text>
<polyline fill="none" stroke="black" points="113,-771.5 292,-771.5 "/>
<text text-anchor="middle" x="202.5" y="-759.5" font-family="Courier New" font-size="10.00"> </text>
<polyline fill="none" stroke="black" points="113,-752.5 292,-752.5 "/>
<text text-anchor="middle" x="202.5" y="-740.5" font-family="Courier New" font-size="10.00"> </text>
</a>
</g>
</g>
<!-- Node6&#45;&gt;Node5 -->
<g id="edge8" class="edge">
<title>Node6&#45;&gt;Node5</title>
<path fill="none" stroke="#404040" d="M198.04,-733.14C195.13,-711.38 191.19,-681.85 187.41,-653.59"/>
<polygon fill="none" stroke="#404040" points="187.39,-653.47 182.63,-648.06 185.8,-641.58 190.56,-647 187.39,-653.47"/>
<text text-anchor="middle" x="232" y="-707" font-family="Courier New" font-size="10.00"> &#45;onEndPress</text>
<text text-anchor="middle" x="232" y="-696" font-family="Courier New" font-size="10.00">&#45;onHoldPress</text>
<text text-anchor="middle" x="232" y="-685" font-family="Courier New" font-size="10.00">&#45;onHover</text>
<text text-anchor="middle" x="232" y="-674" font-family="Courier New" font-size="10.00">&#45;onHoverEnd</text>
<text text-anchor="middle" x="232" y="-663" font-family="Courier New" font-size="10.00">&#45;onPress</text>
</g>
<!-- Node7 -->
<g id="node7" class="node">
<title>Node7</title>
<g id="a_node7"><a xlink:title=" ">
<polygon fill="white" stroke="#bfbfbf" points="122,-839.5 122,-896.5 283,-896.5 283,-839.5 122,-839.5"/>
<text text-anchor="middle" x="202.5" y="-884.5" font-family="Courier New" font-size="10.00">UnityEvent&lt; RaycastHit &gt;</text>
<polyline fill="none" stroke="#bfbfbf" points="122,-877.5 283,-877.5 "/>
<text text-anchor="middle" x="202.5" y="-865.5" font-family="Courier New" font-size="10.00"> </text>
<polyline fill="none" stroke="#bfbfbf" points="122,-858.5 283,-858.5 "/>
<text text-anchor="middle" x="202.5" y="-846.5" font-family="Courier New" font-size="10.00"> </text>
</a>
</g>
</g>
<!-- Node7&#45;&gt;Node6 -->
<g id="edge9" class="edge">
<title>Node7&#45;&gt;Node6</title>
<path fill="none" stroke="midnightblue" d="M202.5,-829.01C202.5,-819.96 202.5,-810.38 202.5,-801.58"/>
<polygon fill="none" stroke="midnightblue" points="199,-829.3 202.5,-839.3 206,-829.3 199,-829.3"/>
</g>
</g>
</svg>
