<?xml version="1.0" encoding="UTF-8" standalone="no"?>
<!DOCTYPE svg PUBLIC "-//W3C//DTD SVG 1.1//EN"
 "http://www.w3.org/Graphics/SVG/1.1/DTD/svg11.dtd">
<!-- Generated by graphviz version 2.38.0 (20140413.2041)
 -->
<!-- Title: C2M2.NeuronalDynamics.UGX.AlphaPostSynapse Pages: 1 -->
<svg width="181pt" height="237pt"
 viewBox="0.00 0.00 181.00 237.00" xmlns="http://www.w3.org/2000/svg" xmlns:xlink="http://www.w3.org/1999/xlink">
<g id="graph0" class="graph" transform="scale(1 1) rotate(0) translate(4 233)">
<title>C2M2.NeuronalDynamics.UGX.AlphaPostSynapse</title>
<polygon fill="white" stroke="none" points="-4,4 -4,-233 177,-233 177,4 -4,4"/>
<!-- Node1 -->
<g id="node1" class="node"><title>Node1</title>
<g id="a_node1"><a xlink:title="A alpha post synapse">
<polygon fill="#bfbfbf" stroke="black" points="0,-0.5 0,-123.5 173,-123.5 173,-0.5 0,-0.5"/>
<text text-anchor="start" x="8" y="-111.5" font-family="Courier New" font-size="10.00">C2M2.NeuronalDynamics.UGX.</text>
<text text-anchor="middle" x="86.5" y="-100.5" font-family="Courier New" font-size="10.00">AlphaPostSynapse</text>
<polyline fill="none" stroke="black" points="0,-93.5 173,-93.5 "/>
<text text-anchor="start" x="8" y="-81.5" font-family="Courier New" font-size="10.00">+ m_onset</text>
<text text-anchor="start" x="8" y="-70.5" font-family="Courier New" font-size="10.00">+ m_gMax</text>
<text text-anchor="start" x="8" y="-59.5" font-family="Courier New" font-size="10.00">+ m_tau</text>
<text text-anchor="start" x="8" y="-48.5" font-family="Courier New" font-size="10.00">+ m_rev</text>
<polyline fill="none" stroke="black" points="0,-41.5 173,-41.5 "/>
<text text-anchor="start" x="8" y="-29.5" font-family="Courier New" font-size="10.00">+ GetCurrent()</text>
<text text-anchor="start" x="8" y="-18.5" font-family="Courier New" font-size="10.00">+ GetType()</text>
<text text-anchor="start" x="8" y="-7.5" font-family="Courier New" font-size="10.00">+ AlphaPostSynapse()</text>
</a>
</g>
</g>
<!-- Node2 -->
<g id="node2" class="node"><title>Node2</title>
<g id="a_node2"><a xlink:href="../../d7/df5/interface_c2_m2_1_1_neuronal_dynamics_1_1_u_g_x_1_1_i_synapse.html" target="_top" xlink:title="A synapse respresentation">
<polygon fill="white" stroke="black" points="36,-160.5 36,-228.5 137,-228.5 137,-160.5 36,-160.5"/>
<text text-anchor="middle" x="86.5" y="-216.5" font-family="Courier New" font-size="10.00">ISynapse</text>
<polyline fill="none" stroke="black" points="36,-209.5 137,-209.5 "/>
<text text-anchor="middle" x="86.5" y="-197.5" font-family="Courier New" font-size="10.00"> </text>
<polyline fill="none" stroke="black" points="36,-190.5 137,-190.5 "/>
<text text-anchor="start" x="44" y="-178.5" font-family="Courier New" font-size="10.00">+ GetType()</text>
<text text-anchor="start" x="44" y="-167.5" font-family="Courier New" font-size="10.00">+ GetCurrent()</text>
</a>
</g>
</g>
<!-- Node2&#45;&gt;Node1 -->
<g id="edge1" class="edge"><title>Node2&#45;&gt;Node1</title>
<path fill="none" stroke="midnightblue" d="M86.5,-150.169C86.5,-141.652 86.5,-132.572 86.5,-123.609"/>
<polygon fill="none" stroke="midnightblue" points="83.0001,-150.232 86.5,-160.232 90.0001,-150.232 83.0001,-150.232"/>
</g>
</g>
</svg>
