<?xml version="1.0" encoding="UTF-8" standalone="no"?>
<!DOCTYPE svg PUBLIC "-//W3C//DTD SVG 1.1//EN"
 "http://www.w3.org/Graphics/SVG/1.1/DTD/svg11.dtd">
<!-- Generated by graphviz version 2.38.0 (20140413.2041)
 -->
<!-- Title: C2M2.OIT.Interaction.ParticleSizeControllerButton Pages: 1 -->
<svg width="458pt" height="888pt"
 viewBox="0.00 0.00 458.00 888.00" xmlns="http://www.w3.org/2000/svg" xmlns:xlink="http://www.w3.org/1999/xlink">
<g id="graph0" class="graph" transform="scale(1 1) rotate(0) translate(4 884)">
<title>C2M2.OIT.Interaction.ParticleSizeControllerButton</title>
<polygon fill="white" stroke="none" points="-4,4 -4,-884 454,-884 454,4 -4,4"/>
<!-- Node1 -->
<g id="node1" class="node"><title>Node1</title>
<g id="a_node1"><a xlink:title=" ">
<polygon fill="#bfbfbf" stroke="black" points="22,-0.5 22,-156.5 213,-156.5 213,-0.5 22,-0.5"/>
<text text-anchor="start" x="30" y="-144.5" font-family="Courier New" font-size="10.00">C2M2.OIT.Interaction.Particle</text>
<text text-anchor="middle" x="117.5" y="-133.5" font-family="Courier New" font-size="10.00">SizeControllerButton</text>
<polyline fill="none" stroke="black" points="22,-126.5 213,-126.5 "/>
<text text-anchor="start" x="30" y="-114.5" font-family="Courier New" font-size="10.00">+ increasingButton</text>
<text text-anchor="start" x="30" y="-103.5" font-family="Courier New" font-size="10.00">+ buttonChangeValue</text>
<text text-anchor="start" x="30" y="-92.5" font-family="Courier New" font-size="10.00">+ buttonWaitTime</text>
<text text-anchor="start" x="30" y="-81.5" font-family="Courier New" font-size="10.00">+ menuAudioSource</text>
<text text-anchor="start" x="30" y="-70.5" font-family="Courier New" font-size="10.00">+ buttonPressSound</text>
<text text-anchor="start" x="30" y="-59.5" font-family="Courier New" font-size="10.00">+ hapticAudioClip</text>
<text text-anchor="start" x="30" y="-48.5" font-family="Courier New" font-size="10.00">&#45; hapticsClip</text>
<polyline fill="none" stroke="black" points="22,-41.5 213,-41.5 "/>
<text text-anchor="start" x="30" y="-29.5" font-family="Courier New" font-size="10.00">+ onClick()</text>
<text text-anchor="start" x="30" y="-18.5" font-family="Courier New" font-size="10.00">&#45; Start()</text>
<text text-anchor="start" x="30" y="-7.5" font-family="Courier New" font-size="10.00">&#45; OnTriggerEnter()</text>
</a>
</g>
</g>
<!-- Node2 -->
<g id="node2" class="node"><title>Node2</title>
<g id="a_node2"><a xlink:title=" ">
<polygon fill="white" stroke="#bfbfbf" points="0,-822.5 0,-879.5 95,-879.5 95,-822.5 0,-822.5"/>
<text text-anchor="middle" x="47.5" y="-867.5" font-family="Courier New" font-size="10.00">MonoBehaviour</text>
<polyline fill="none" stroke="#bfbfbf" points="0,-860.5 95,-860.5 "/>
<text text-anchor="middle" x="47.5" y="-848.5" font-family="Courier New" font-size="10.00"> </text>
<polyline fill="none" stroke="#bfbfbf" points="0,-841.5 95,-841.5 "/>
<text text-anchor="middle" x="47.5" y="-829.5" font-family="Courier New" font-size="10.00"> </text>
</a>
</g>
</g>
<!-- Node2&#45;&gt;Node1 -->
<g id="edge1" class="edge"><title>Node2&#45;&gt;Node1</title>
<path fill="none" stroke="midnightblue" d="M22.4701,-813.626C17.5386,-804.65 13.0915,-794.791 10.5,-785 -1.28758,-740.464 -0.351311,-238.85 12.5,-204 18.6633,-187.287 28.1521,-171.26 38.9564,-156.593"/>
<polygon fill="none" stroke="midnightblue" points="19.4514,-815.398 27.5122,-822.273 25.4985,-811.872 19.4514,-815.398"/>
</g>
<!-- Node4 -->
<g id="node4" class="node"><title>Node4</title>
<g id="a_node4"><a xlink:href="../../d7/dcd/class_c2_m2_1_1_o_i_t_1_1_interaction_1_1_particle_system_controller.html" target="_top" xlink:title=" ">
<polygon fill="white" stroke="black" points="22,-204.5 22,-492.5 213,-492.5 213,-204.5 22,-204.5"/>
<text text-anchor="start" x="30" y="-480.5" font-family="Courier New" font-size="10.00">C2M2.OIT.Interaction.Particle</text>
<text text-anchor="middle" x="117.5" y="-469.5" font-family="Courier New" font-size="10.00">SystemController</text>
<polyline fill="none" stroke="black" points="22,-462.5 213,-462.5 "/>
<text text-anchor="start" x="30" y="-450.5" font-family="Courier New" font-size="10.00">+ numberOfParticles</text>
<text text-anchor="start" x="30" y="-439.5" font-family="Courier New" font-size="10.00">+ particleSize</text>
<text text-anchor="start" x="30" y="-428.5" font-family="Courier New" font-size="10.00">+ maxValues</text>
<text text-anchor="start" x="30" y="-417.5" font-family="Courier New" font-size="10.00">+ minValues</text>
<text text-anchor="start" x="30" y="-406.5" font-family="Courier New" font-size="10.00">+ isoquantHigh</text>
<text text-anchor="start" x="30" y="-395.5" font-family="Courier New" font-size="10.00">+ isoquantLow</text>
<text text-anchor="start" x="30" y="-384.5" font-family="Courier New" font-size="10.00">&#45; particles</text>
<text text-anchor="start" x="30" y="-373.5" font-family="Courier New" font-size="10.00">&#45; particlesUpdated</text>
<text text-anchor="start" x="30" y="-362.5" font-family="Courier New" font-size="10.00">&#45; particleSys</text>
<text text-anchor="start" x="30" y="-351.5" font-family="Courier New" font-size="10.00">&#45; particleSysRend</text>
<text text-anchor="start" x="30" y="-340.5" font-family="Courier New" font-size="10.00">&#45; newPositions</text>
<text text-anchor="start" x="30" y="-329.5" font-family="Courier New" font-size="10.00">&#45; newColors</text>
<text text-anchor="start" x="30" y="-318.5" font-family="Courier New" font-size="10.00">&#45; particleNumberChangeHolder</text>
<text text-anchor="start" x="30" y="-307.5" font-family="Courier New" font-size="10.00">&#45; particleSizeChangeHolder</text>
<text text-anchor="start" x="30" y="-296.5" font-family="Courier New" font-size="10.00">&#45; maxValueHolder</text>
<text text-anchor="start" x="30" y="-285.5" font-family="Courier New" font-size="10.00">&#45; minValueHolder</text>
<text text-anchor="start" x="30" y="-274.5" font-family="Courier New" font-size="10.00">&#45; isoquantHighHolder</text>
<text text-anchor="start" x="30" y="-263.5" font-family="Courier New" font-size="10.00">&#45; isoquantLowHolder</text>
<polyline fill="none" stroke="black" points="22,-256.5 213,-256.5 "/>
<text text-anchor="start" x="30" y="-244.5" font-family="Courier New" font-size="10.00">+ UpdateParticles()</text>
<text text-anchor="start" x="30" y="-233.5" font-family="Courier New" font-size="10.00">+ UpdateParticleSize()</text>
<text text-anchor="start" x="30" y="-222.5" font-family="Courier New" font-size="10.00">&#45; Start()</text>
<text text-anchor="start" x="30" y="-211.5" font-family="Courier New" font-size="10.00">&#45; Update()</text>
</a>
</g>
</g>
<!-- Node2&#45;&gt;Node4 -->
<g id="edge4" class="edge"><title>Node2&#45;&gt;Node4</title>
<path fill="none" stroke="midnightblue" d="M34.5765,-812.503C32.0561,-803.595 29.7953,-794.048 28.5,-785 13.069,-677.21 4.89355,-646.299 28.5,-540 32.0019,-524.231 36.9523,-508.222 42.7458,-492.526"/>
<polygon fill="none" stroke="midnightblue" points="31.2685,-813.657 37.4949,-822.229 37.9732,-811.645 31.2685,-813.657"/>
</g>
<!-- Node5 -->
<g id="node5" class="node"><title>Node5</title>
<g id="a_node5"><a xlink:href="../../de/dbc/class_c2_m2_1_1_o_i_t_1_1_visualization_1_1_particle_system_ascii_data_reader.html" target="_top" xlink:title=" ">
<polygon fill="white" stroke="black" points="38,-551.5 38,-773.5 241,-773.5 241,-551.5 38,-551.5"/>
<text text-anchor="start" x="46" y="-761.5" font-family="Courier New" font-size="10.00">C2M2.OIT.Visualization.Particle</text>
<text text-anchor="middle" x="139.5" y="-750.5" font-family="Courier New" font-size="10.00">SystemAsciiDataReader</text>
<polyline fill="none" stroke="black" points="38,-743.5 241,-743.5 "/>
<text text-anchor="start" x="46" y="-731.5" font-family="Courier New" font-size="10.00">+ assets</text>
<text text-anchor="start" x="46" y="-720.5" font-family="Courier New" font-size="10.00">+ RoomObject</text>
<text text-anchor="start" x="46" y="-709.5" font-family="Courier New" font-size="10.00">+ reduceBy</text>
<text text-anchor="start" x="46" y="-698.5" font-family="Courier New" font-size="10.00">+ dataSetList</text>
<text text-anchor="start" x="46" y="-687.5" font-family="Courier New" font-size="10.00">+ colorFloatMax</text>
<text text-anchor="start" x="46" y="-676.5" font-family="Courier New" font-size="10.00">+ colorFloatMin</text>
<text text-anchor="start" x="46" y="-665.5" font-family="Courier New" font-size="10.00">&#45; assetString</text>
<text text-anchor="start" x="46" y="-654.5" font-family="Courier New" font-size="10.00">&#45; currentLine</text>
<text text-anchor="start" x="46" y="-643.5" font-family="Courier New" font-size="10.00">&#45; sR</text>
<text text-anchor="start" x="46" y="-632.5" font-family="Courier New" font-size="10.00">&#45; currentLineSplit</text>
<text text-anchor="start" x="46" y="-621.5" font-family="Courier New" font-size="10.00">&#45; backupdataSetList</text>
<polyline fill="none" stroke="black" points="38,-614.5 241,-614.5 "/>
<text text-anchor="start" x="46" y="-602.5" font-family="Courier New" font-size="10.00">+ InitializeParticleData()</text>
<text text-anchor="start" x="46" y="-591.5" font-family="Courier New" font-size="10.00">+ Isoquant()</text>
<text text-anchor="start" x="46" y="-580.5" font-family="Courier New" font-size="10.00">&#45; InitializeInformationLists()</text>
<text text-anchor="start" x="46" y="-569.5" font-family="Courier New" font-size="10.00">&#45; CreateStringReader()</text>
<text text-anchor="start" x="46" y="-558.5" font-family="Courier New" font-size="10.00">&#45; CloseStringReader()</text>
</a>
</g>
</g>
<!-- Node2&#45;&gt;Node5 -->
<g id="edge6" class="edge"><title>Node2&#45;&gt;Node5</title>
<path fill="none" stroke="midnightblue" d="M65.5139,-813.483C71.322,-801.709 78.0904,-787.988 85.1294,-773.719"/>
<polygon fill="none" stroke="midnightblue" points="62.3601,-811.965 61.0749,-822.481 68.6378,-815.062 62.3601,-811.965"/>
</g>
<!-- Node6 -->
<g id="node6" class="node"><title>Node6</title>
<g id="a_node6"><a xlink:href="../../d2/d3c/class_c2_m2_1_1_o_i_t_1_1_interaction_1_1_particle_field_handle_controller.html" target="_top" xlink:title=" ">
<polygon fill="white" stroke="black" points="259,-540.5 259,-784.5 450,-784.5 450,-540.5 259,-540.5"/>
<text text-anchor="start" x="267" y="-772.5" font-family="Courier New" font-size="10.00">C2M2.OIT.Interaction.Particle</text>
<text text-anchor="middle" x="354.5" y="-761.5" font-family="Courier New" font-size="10.00">FieldHandleController</text>
<polyline fill="none" stroke="black" points="259,-754.5 450,-754.5 "/>
<text text-anchor="start" x="267" y="-742.5" font-family="Courier New" font-size="10.00">+ xMinMarker</text>
<text text-anchor="start" x="267" y="-731.5" font-family="Courier New" font-size="10.00">+ xMaxMarker</text>
<text text-anchor="start" x="267" y="-720.5" font-family="Courier New" font-size="10.00">+ yMinMarker</text>
<text text-anchor="start" x="267" y="-709.5" font-family="Courier New" font-size="10.00">+ yMaxMarker</text>
<text text-anchor="start" x="267" y="-698.5" font-family="Courier New" font-size="10.00">+ zMinMarker</text>
<text text-anchor="start" x="267" y="-687.5" font-family="Courier New" font-size="10.00">+ zMaxMarker</text>
<text text-anchor="start" x="267" y="-676.5" font-family="Courier New" font-size="10.00">+ xMinCollider</text>
<text text-anchor="start" x="267" y="-665.5" font-family="Courier New" font-size="10.00">+ xMaxCollider</text>
<text text-anchor="start" x="267" y="-654.5" font-family="Courier New" font-size="10.00">+ yMinCollider</text>
<text text-anchor="start" x="267" y="-643.5" font-family="Courier New" font-size="10.00">+ yMaxCollider</text>
<text text-anchor="start" x="267" y="-632.5" font-family="Courier New" font-size="10.00">+ zMinCollider</text>
<text text-anchor="start" x="267" y="-621.5" font-family="Courier New" font-size="10.00">+ zMaxCollider</text>
<text text-anchor="start" x="267" y="-610.5" font-family="Courier New" font-size="10.00">&#45; minVector</text>
<text text-anchor="start" x="267" y="-599.5" font-family="Courier New" font-size="10.00">&#45; maxVector</text>
<polyline fill="none" stroke="black" points="259,-592.5 450,-592.5 "/>
<text text-anchor="start" x="267" y="-580.5" font-family="Courier New" font-size="10.00">+ UpdateHandlePositions()</text>
<text text-anchor="start" x="267" y="-569.5" font-family="Courier New" font-size="10.00">+ GetMinVector()</text>
<text text-anchor="start" x="267" y="-558.5" font-family="Courier New" font-size="10.00">+ GetMaxVector()</text>
<text text-anchor="start" x="267" y="-547.5" font-family="Courier New" font-size="10.00">&#45; Update()</text>
</a>
</g>
</g>
<!-- Node2&#45;&gt;Node6 -->
<g id="edge8" class="edge"><title>Node2&#45;&gt;Node6</title>
<path fill="none" stroke="midnightblue" d="M105.12,-840.19C147.662,-830.96 205.56,-814.085 249.5,-785 252.638,-782.923 255.738,-780.726 258.794,-778.43"/>
<polygon fill="none" stroke="midnightblue" points="104.271,-836.792 95.1997,-842.265 105.704,-843.643 104.271,-836.792"/>
</g>
<!-- Node3 -->
<g id="node3" class="node"><title>Node3</title>
<g id="a_node3"><a xlink:title=" ">
<polygon fill="white" stroke="#bfbfbf" points="231,-320 231,-377 272,-377 272,-320 231,-320"/>
<text text-anchor="middle" x="251.5" y="-365" font-family="Courier New" font-size="10.00">Text</text>
<polyline fill="none" stroke="#bfbfbf" points="231,-358 272,-358 "/>
<text text-anchor="middle" x="251.5" y="-346" font-family="Courier New" font-size="10.00"> </text>
<polyline fill="none" stroke="#bfbfbf" points="231,-339 272,-339 "/>
<text text-anchor="middle" x="251.5" y="-327" font-family="Courier New" font-size="10.00"> </text>
</a>
</g>
</g>
<!-- Node3&#45;&gt;Node1 -->
<g id="edge2" class="edge"><title>Node3&#45;&gt;Node1</title>
<path fill="none" stroke="#404040" d="M249.71,-319.777C246.889,-289.894 239.694,-241.567 221.5,-204 215.314,-191.227 207.534,-178.659 199.027,-166.71"/>
<polygon fill="none" stroke="#404040" points="198.857,-166.48 192.075,-164.03 191.729,-156.827 198.511,-159.277 198.857,-166.48"/>
<text text-anchor="middle" x="245" y="-178" font-family="Courier New" font-size="10.00"> +valueText</text>
</g>
<!-- Node4&#45;&gt;Node1 -->
<g id="edge3" class="edge"><title>Node4&#45;&gt;Node1</title>
<path fill="none" stroke="#404040" d="M117.5,-204.477C117.5,-192.386 117.5,-180.393 117.5,-168.895"/>
<polygon fill="none" stroke="#404040" points="117.5,-168.632 113.5,-162.632 117.5,-156.632 121.5,-162.632 117.5,-168.632"/>
<text text-anchor="middle" x="154" y="-178" font-family="Courier New" font-size="10.00"> +partSysCon</text>
</g>
<!-- Node5&#45;&gt;Node4 -->
<g id="edge5" class="edge"><title>Node5&#45;&gt;Node4</title>
<path fill="none" stroke="#404040" d="M131.713,-551.061C130.649,-535.975 129.541,-520.265 128.434,-504.568"/>
<polygon fill="none" stroke="#404040" points="128.433,-504.547 124.021,-498.844 127.589,-492.577 132.001,-498.281 128.433,-504.547"/>
<text text-anchor="middle" x="184" y="-514" font-family="Courier New" font-size="10.00"> &#45;particleTextData</text>
</g>
<!-- Node6&#45;&gt;Node4 -->
<g id="edge7" class="edge"><title>Node6&#45;&gt;Node4</title>
<path fill="none" stroke="#404040" d="M268.189,-540.43C259.793,-530.235 251.167,-520.286 242.5,-511 234.112,-502.014 229.831,-502.039 221.5,-493 221.412,-492.905 221.324,-492.809 221.236,-492.713"/>
<polygon fill="none" stroke="#404040" points="221.096,-492.557 214.112,-490.76 213.085,-483.623 220.069,-485.42 221.096,-492.557"/>
<text text-anchor="middle" x="328" y="-514" font-family="Courier New" font-size="10.00"> &#45;particleHandleController</text>
</g>
</g>
</svg>
