<?xml version="1.0" encoding="UTF-8" standalone="no"?>
<!DOCTYPE svg PUBLIC "-//W3C//DTD SVG 1.1//EN"
 "http://www.w3.org/Graphics/SVG/1.1/DTD/svg11.dtd">
<!-- Generated by graphviz version 2.38.0 (20140413.2041)
 -->
<!-- Title: C2M2.Interaction.UI.ControlOverlay Pages: 1 -->
<svg width="187pt" height="193pt"
 viewBox="0.00 0.00 187.00 193.00" xmlns="http://www.w3.org/2000/svg" xmlns:xlink="http://www.w3.org/1999/xlink">
<g id="graph0" class="graph" transform="scale(1 1) rotate(0) translate(4 189)">
<title>C2M2.Interaction.UI.ControlOverlay</title>
<polygon fill="white" stroke="none" points="-4,4 -4,-189 183,-189 183,4 -4,4"/>
<!-- Node1 -->
<g id="node1" class="node"><title>Node1</title>
<g id="a_node1"><a xlink:title=" ">
<polygon fill="#bfbfbf" stroke="black" points="0,-0.5 0,-90.5 179,-90.5 179,-0.5 0,-0.5"/>
<text text-anchor="start" x="8" y="-78.5" font-family="Courier New" font-size="10.00">C2M2.Interaction.UI.Control</text>
<text text-anchor="middle" x="89.5" y="-67.5" font-family="Courier New" font-size="10.00">Overlay</text>
<polyline fill="none" stroke="black" points="0,-60.5 179,-60.5 "/>
<text text-anchor="start" x="8" y="-48.5" font-family="Courier New" font-size="10.00">+ anyRPressed</text>
<text text-anchor="start" x="8" y="-37.5" font-family="Courier New" font-size="10.00">&#45; keys</text>
<polyline fill="none" stroke="black" points="0,-30.5 179,-30.5 "/>
<text text-anchor="start" x="8" y="-18.5" font-family="Courier New" font-size="10.00">+ SetActivationKeys()</text>
<text text-anchor="start" x="8" y="-7.5" font-family="Courier New" font-size="10.00">&#45; Update()</text>
</a>
</g>
</g>
<!-- Node2 -->
<g id="node2" class="node"><title>Node2</title>
<g id="a_node2"><a xlink:title=" ">
<polygon fill="white" stroke="#bfbfbf" points="42,-127.5 42,-184.5 137,-184.5 137,-127.5 42,-127.5"/>
<text text-anchor="middle" x="89.5" y="-172.5" font-family="Courier New" font-size="10.00">MonoBehaviour</text>
<polyline fill="none" stroke="#bfbfbf" points="42,-165.5 137,-165.5 "/>
<text text-anchor="middle" x="89.5" y="-153.5" font-family="Courier New" font-size="10.00"> </text>
<polyline fill="none" stroke="#bfbfbf" points="42,-146.5 137,-146.5 "/>
<text text-anchor="middle" x="89.5" y="-134.5" font-family="Courier New" font-size="10.00"> </text>
</a>
</g>
</g>
<!-- Node2&#45;&gt;Node1 -->
<g id="edge1" class="edge"><title>Node2&#45;&gt;Node1</title>
<path fill="none" stroke="midnightblue" d="M89.5,-117.214C89.5,-108.609 89.5,-99.3943 89.5,-90.5541"/>
<polygon fill="none" stroke="midnightblue" points="86.0001,-117.34 89.5,-127.34 93.0001,-117.34 86.0001,-117.34"/>
</g>
</g>
</svg>
