<?xml version="1.0" encoding="UTF-8" standalone="no"?>
<!DOCTYPE svg PUBLIC "-//W3C//DTD SVG 1.1//EN"
 "http://www.w3.org/Graphics/SVG/1.1/DTD/svg11.dtd">
<!-- Generated by graphviz version 2.38.0 (20140413.2041)
 -->
<!-- Title: QuitOnTriggerEnter Pages: 1 -->
<svg width="139pt" height="237pt"
 viewBox="0.00 0.00 139.00 237.00" xmlns="http://www.w3.org/2000/svg" xmlns:xlink="http://www.w3.org/1999/xlink">
<g id="graph0" class="graph" transform="scale(1 1) rotate(0) translate(4 233)">
<title>QuitOnTriggerEnter</title>
<polygon fill="white" stroke="none" points="-4,4 -4,-233 135,-233 135,4 -4,4"/>
<!-- Node1 -->
<g id="node1" class="node"><title>Node1</title>
<g id="a_node1"><a xlink:title=" ">
<polygon fill="#bfbfbf" stroke="black" points="0,-0.5 0,-134.5 131,-134.5 131,-0.5 0,-0.5"/>
<text text-anchor="middle" x="65.5" y="-122.5" font-family="Courier New" font-size="10.00">QuitOnTriggerEnter</text>
<polyline fill="none" stroke="black" points="0,-115.5 131,-115.5 "/>
<text text-anchor="start" x="8" y="-103.5" font-family="Courier New" font-size="10.00">+ menuAudioSource</text>
<text text-anchor="start" x="8" y="-92.5" font-family="Courier New" font-size="10.00">+ buttonPressSound</text>
<text text-anchor="start" x="8" y="-81.5" font-family="Courier New" font-size="10.00">+ hapticAudioClip</text>
<text text-anchor="start" x="8" y="-70.5" font-family="Courier New" font-size="10.00">&#45; hapticsClip</text>
<polyline fill="none" stroke="black" points="0,-63.5 131,-63.5 "/>
<text text-anchor="start" x="8" y="-51.5" font-family="Courier New" font-size="10.00">&#45; Start()</text>
<text text-anchor="start" x="8" y="-40.5" font-family="Courier New" font-size="10.00">&#45; OnTriggerEnter()</text>
<text text-anchor="start" x="8" y="-29.5" font-family="Courier New" font-size="10.00">&#45; HapticResponse()</text>
<text text-anchor="start" x="8" y="-18.5" font-family="Courier New" font-size="10.00">&#45; ButtonSound()</text>
<text text-anchor="start" x="8" y="-7.5" font-family="Courier New" font-size="10.00">&#45; ExitApplication()</text>
</a>
</g>
</g>
<!-- Node2 -->
<g id="node2" class="node"><title>Node2</title>
<g id="a_node2"><a xlink:title=" ">
<polygon fill="white" stroke="#bfbfbf" points="18,-171.5 18,-228.5 113,-228.5 113,-171.5 18,-171.5"/>
<text text-anchor="middle" x="65.5" y="-216.5" font-family="Courier New" font-size="10.00">MonoBehaviour</text>
<polyline fill="none" stroke="#bfbfbf" points="18,-209.5 113,-209.5 "/>
<text text-anchor="middle" x="65.5" y="-197.5" font-family="Courier New" font-size="10.00"> </text>
<polyline fill="none" stroke="#bfbfbf" points="18,-190.5 113,-190.5 "/>
<text text-anchor="middle" x="65.5" y="-178.5" font-family="Courier New" font-size="10.00"> </text>
</a>
</g>
</g>
<!-- Node2&#45;&gt;Node1 -->
<g id="edge1" class="edge"><title>Node2&#45;&gt;Node1</title>
<path fill="none" stroke="midnightblue" d="M65.5,-161.16C65.5,-152.782 65.5,-143.668 65.5,-134.533"/>
<polygon fill="none" stroke="midnightblue" points="62.0001,-161.324 65.5,-171.324 69.0001,-161.324 62.0001,-161.324"/>
</g>
</g>
</svg>
