<?xml version="1.0" encoding="UTF-8" standalone="no"?>
<!DOCTYPE svg PUBLIC "-//W3C//DTD SVG 1.1//EN"
 "http://www.w3.org/Graphics/SVG/1.1/DTD/svg11.dtd">
<!-- Generated by graphviz version 2.38.0 (20140413.2041)
 -->
<!-- Title: C2M2.Interaction.Adjacency.AdjacencyList Pages: 1 -->
<svg width="187pt" height="270pt"
 viewBox="0.00 0.00 187.00 270.00" xmlns="http://www.w3.org/2000/svg" xmlns:xlink="http://www.w3.org/1999/xlink">
<g id="graph0" class="graph" transform="scale(1 1) rotate(0) translate(4 266)">
<title>C2M2.Interaction.Adjacency.AdjacencyList</title>
<polygon fill="white" stroke="none" points="-4,4 -4,-266 183,-266 183,4 -4,4"/>
<!-- Node1 -->
<g id="node1" class="node"><title>Node1</title>
<g id="a_node1"><a xlink:title="Given a mesh, creates and stores an edge list and adjacency list of the mesh vertices">
<polygon fill="#bfbfbf" stroke="black" points="0,-0.5 0,-167.5 179,-167.5 179,-0.5 0,-0.5"/>
<text text-anchor="start" x="8" y="-155.5" font-family="Courier New" font-size="10.00">C2M2.Interaction.Adjacency.</text>
<text text-anchor="middle" x="89.5" y="-144.5" font-family="Courier New" font-size="10.00">AdjacencyList</text>
<polyline fill="none" stroke="black" points="0,-137.5 179,-137.5 "/>
<text text-anchor="start" x="8" y="-125.5" font-family="Courier New" font-size="10.00">+ adjacencyList</text>
<text text-anchor="start" x="8" y="-114.5" font-family="Courier New" font-size="10.00">+ edgeList</text>
<text text-anchor="start" x="8" y="-103.5" font-family="Courier New" font-size="10.00">+ edgeCount</text>
<text text-anchor="start" x="8" y="-92.5" font-family="Courier New" font-size="10.00">&#45; mesh</text>
<text text-anchor="start" x="8" y="-81.5" font-family="Courier New" font-size="10.00">&#45; vertices</text>
<text text-anchor="start" x="8" y="-70.5" font-family="Courier New" font-size="10.00">&#45; triangles</text>
<text text-anchor="start" x="8" y="-59.5" font-family="Courier New" font-size="10.00">&#45; uniqueVertices</text>
<text text-anchor="start" x="8" y="-48.5" font-family="Courier New" font-size="10.00">&#45; duplicate</text>
<polyline fill="none" stroke="black" points="0,-41.5 179,-41.5 "/>
<text text-anchor="start" x="8" y="-29.5" font-family="Courier New" font-size="10.00">&#45; Awake()</text>
<text text-anchor="start" x="8" y="-18.5" font-family="Courier New" font-size="10.00">&#45; CreateAdjacencyList()</text>
<text text-anchor="start" x="8" y="-7.5" font-family="Courier New" font-size="10.00">&#45; AdjacencyListAddEdge()</text>
</a>
</g>
</g>
<!-- Node2 -->
<g id="node2" class="node"><title>Node2</title>
<g id="a_node2"><a xlink:title=" ">
<polygon fill="white" stroke="#bfbfbf" points="42,-204.5 42,-261.5 137,-261.5 137,-204.5 42,-204.5"/>
<text text-anchor="middle" x="89.5" y="-249.5" font-family="Courier New" font-size="10.00">MonoBehaviour</text>
<polyline fill="none" stroke="#bfbfbf" points="42,-242.5 137,-242.5 "/>
<text text-anchor="middle" x="89.5" y="-230.5" font-family="Courier New" font-size="10.00"> </text>
<polyline fill="none" stroke="#bfbfbf" points="42,-223.5 137,-223.5 "/>
<text text-anchor="middle" x="89.5" y="-211.5" font-family="Courier New" font-size="10.00"> </text>
</a>
</g>
</g>
<!-- Node2&#45;&gt;Node1 -->
<g id="edge1" class="edge"><title>Node2&#45;&gt;Node1</title>
<path fill="none" stroke="midnightblue" d="M89.5,-194.35C89.5,-186.08 89.5,-177.008 89.5,-167.738"/>
<polygon fill="none" stroke="midnightblue" points="86.0001,-194.35 89.5,-204.35 93.0001,-194.35 86.0001,-194.35"/>
</g>
</g>
</svg>
