<?xml version="1.0" encoding="UTF-8" standalone="no"?>
<!DOCTYPE svg PUBLIC "-//W3C//DTD SVG 1.1//EN"
 "http://www.w3.org/Graphics/SVG/1.1/DTD/svg11.dtd">
<!-- Generated by graphviz version 2.46.0 (20210118.1747)
 -->
<!-- Title: C2M2.Simulation.SimulationDiffuseReact Pages: 1 -->
<svg width="181pt" height="705pt"
 viewBox="0.00 0.00 181.00 705.00" xmlns="http://www.w3.org/2000/svg" xmlns:xlink="http://www.w3.org/1999/xlink">
<g id="graph0" class="graph" transform="scale(1 1) rotate(0) translate(4 701)">
<title>C2M2.Simulation.SimulationDiffuseReact</title>
<polygon fill="white" stroke="transparent" points="-4,4 -4,-701 177,-701 177,4 -4,4"/>
<!-- Node1 -->
<g id="node1" class="node">
<title>Node1</title>
<g id="a_node1"><a xlink:title="Provide a general access point for information regarding a live simulation. Simulations should inheri...">
<polygon fill="#bfbfbf" stroke="black" points="0,-270.5 0,-602.5 173,-602.5 173,-270.5 0,-270.5"/>
<text text-anchor="start" x="8" y="-590.5" font-family="Courier New" font-size="10.00">C2M2.Simulation.Simulation</text>
<text text-anchor="middle" x="86.5" y="-579.5" font-family="Courier New" font-size="10.00">DiffuseReact</text>
<polyline fill="none" stroke="black" points="0,-572.5 173,-572.5 "/>
<text text-anchor="start" x="8" y="-560.5" font-family="Courier New" font-size="10.00">+ adaptStepsPerSec</text>
<text text-anchor="start" x="8" y="-549.5" font-family="Courier New" font-size="10.00">+ idealRenderFPS</text>
<text text-anchor="start" x="8" y="-538.5" font-family="Courier New" font-size="10.00">+ stepsPerSec</text>
<text text-anchor="start" x="8" y="-527.5" font-family="Courier New" font-size="10.00">+ simulationConditions</text>
<text text-anchor="start" x="8" y="-516.5" font-family="Courier New" font-size="10.00">+ playState</text>
<text text-anchor="start" x="8" y="-505.5" font-family="Courier New" font-size="10.00">+ paused</text>
<text text-anchor="start" x="8" y="-494.5" font-family="Courier New" font-size="10.00">+ started</text>
<text text-anchor="start" x="8" y="-483.5" font-family="Courier New" font-size="10.00">+ hasChanged</text>
<text text-anchor="start" x="8" y="-472.5" font-family="Courier New" font-size="10.00"># objectManager</text>
<text text-anchor="start" x="8" y="-461.5" font-family="Courier New" font-size="10.00"># max</text>
<text text-anchor="start" x="8" y="-450.5" font-family="Courier New" font-size="10.00"># min</text>
<text text-anchor="start" x="8" y="-439.5" font-family="Courier New" font-size="10.00"># allowOutsideChanges</text>
<text text-anchor="start" x="8" y="-428.5" font-family="Courier New" font-size="10.00"># pauseStartTime</text>
<text text-anchor="start" x="8" y="-417.5" font-family="Courier New" font-size="10.00"># pauseTime</text>
<text text-anchor="start" x="8" y="-406.5" font-family="Courier New" font-size="10.00"># newUnpause</text>
<text text-anchor="start" x="8" y="-395.5" font-family="Courier New" font-size="10.00"># simulationRoutine</text>
<polyline fill="none" stroke="black" points="0,-388.5 173,-388.5 "/>
<text text-anchor="start" x="8" y="-376.5" font-family="Courier New" font-size="10.00">+ Initialize()</text>
<text text-anchor="start" x="8" y="-365.5" font-family="Courier New" font-size="10.00">+ StartSimulation()</text>
<text text-anchor="start" x="8" y="-354.5" font-family="Courier New" font-size="10.00">+ StopSimulation()</text>
<text text-anchor="start" x="8" y="-343.5" font-family="Courier New" font-size="10.00">+ ChangeValues()</text>
<text text-anchor="start" x="8" y="-332.5" font-family="Courier New" font-size="10.00"># Initialize()</text>
<text text-anchor="start" x="8" y="-321.5" font-family="Courier New" font-size="10.00"># Solve()</text>
<text text-anchor="start" x="8" y="-310.5" font-family="Courier New" font-size="10.00"># ApplyChanges()</text>
<text text-anchor="start" x="8" y="-299.5" font-family="Courier New" font-size="10.00">&#45; Update()</text>
<text text-anchor="start" x="8" y="-288.5" font-family="Courier New" font-size="10.00">&#45; SolveWrapper()</text>
<text text-anchor="start" x="8" y="-277.5" font-family="Courier New" font-size="10.00">&#45; AdaptStepsPerSec()</text>
</a>
</g>
</g>
<!-- Node3 -->
<g id="node3" class="node">
<title>Node3</title>
<g id="a_node3"><a xlink:href="../../d9/d9b/class_c2_m2_1_1_simulation_1_1_reaction_diffusion.html" target="_top" xlink:title="Simulate a diffusion over the surface of a given geometry">
<polygon fill="white" stroke="black" points="3,-0.5 3,-233.5 170,-233.5 170,-0.5 3,-0.5"/>
<text text-anchor="start" x="11" y="-221.5" font-family="Courier New" font-size="10.00">C2M2.Simulation.Reaction</text>
<text text-anchor="middle" x="86.5" y="-210.5" font-family="Courier New" font-size="10.00">Diffusion</text>
<polyline fill="none" stroke="black" points="3,-203.5 170,-203.5 "/>
<text text-anchor="start" x="11" y="-191.5" font-family="Courier New" font-size="10.00">+ diffusionConstant</text>
<text text-anchor="start" x="11" y="-180.5" font-family="Courier New" font-size="10.00">+ reactionConstant</text>
<text text-anchor="start" x="11" y="-169.5" font-family="Courier New" font-size="10.00">+ beta</text>
<text text-anchor="start" x="11" y="-158.5" font-family="Courier New" font-size="10.00">&#45; diffusionManager</text>
<text text-anchor="start" x="11" y="-147.5" font-family="Courier New" font-size="10.00">&#45; meshInfo</text>
<text text-anchor="start" x="11" y="-136.5" font-family="Courier New" font-size="10.00">&#45; edgeList</text>
<text text-anchor="start" x="11" y="-125.5" font-family="Courier New" font-size="10.00">&#45; edgeCount</text>
<text text-anchor="start" x="11" y="-114.5" font-family="Courier New" font-size="10.00">&#45; adjacencyList</text>
<text text-anchor="start" x="11" y="-103.5" font-family="Courier New" font-size="10.00">&#45; flux</text>
<text text-anchor="start" x="11" y="-92.5" font-family="Courier New" font-size="10.00">&#45; inputField</text>
<text text-anchor="start" x="11" y="-81.5" font-family="Courier New" font-size="10.00">&#45; c</text>
<polyline fill="none" stroke="black" points="3,-74.5 170,-74.5 "/>
<text text-anchor="start" x="11" y="-62.5" font-family="Courier New" font-size="10.00">+ ValuesRandomize()</text>
<text text-anchor="start" x="11" y="-51.5" font-family="Courier New" font-size="10.00">+ ValuesEmpty()</text>
<text text-anchor="start" x="11" y="-40.5" font-family="Courier New" font-size="10.00">+ AddDiffusionCondition()</text>
<text text-anchor="start" x="11" y="-29.5" font-family="Courier New" font-size="10.00"># Initialize()</text>
<text text-anchor="start" x="11" y="-18.5" font-family="Courier New" font-size="10.00"># Solve()</text>
<text text-anchor="start" x="11" y="-7.5" font-family="Courier New" font-size="10.00">&#45; R()</text>
</a>
</g>
</g>
<!-- Node1&#45;&gt;Node3 -->
<g id="edge2" class="edge">
<title>Node1&#45;&gt;Node3</title>
<path fill="none" stroke="midnightblue" d="M86.5,-260.12C86.5,-251.18 86.5,-242.31 86.5,-233.63"/>
<polygon fill="none" stroke="midnightblue" points="83,-260.24 86.5,-270.24 90,-260.24 83,-260.24"/>
</g>
<!-- Node2 -->
<g id="node2" class="node">
<title>Node2</title>
<g id="a_node2"><a xlink:title=" ">
<polygon fill="white" stroke="#bfbfbf" points="39,-639.5 39,-696.5 134,-696.5 134,-639.5 39,-639.5"/>
<text text-anchor="middle" x="86.5" y="-684.5" font-family="Courier New" font-size="10.00">MonoBehaviour</text>
<polyline fill="none" stroke="#bfbfbf" points="39,-677.5 134,-677.5 "/>
<text text-anchor="middle" x="86.5" y="-665.5" font-family="Courier New" font-size="10.00"> </text>
<polyline fill="none" stroke="#bfbfbf" points="39,-658.5 134,-658.5 "/>
<text text-anchor="middle" x="86.5" y="-646.5" font-family="Courier New" font-size="10.00"> </text>
</a>
</g>
</g>
<!-- Node2&#45;&gt;Node1 -->
<g id="edge1" class="edge">
<title>Node2&#45;&gt;Node1</title>
<path fill="none" stroke="midnightblue" d="M86.5,-629.08C86.5,-621.13 86.5,-612.28 86.5,-602.85"/>
<polygon fill="none" stroke="midnightblue" points="83,-629.32 86.5,-639.32 90,-629.32 83,-629.32"/>
</g>
</g>
</svg>
