<?xml version="1.0" encoding="UTF-8" standalone="no"?>
<!DOCTYPE svg PUBLIC "-//W3C//DTD SVG 1.1//EN"
 "http://www.w3.org/Graphics/SVG/1.1/DTD/svg11.dtd">
<!-- Generated by graphviz version 2.38.0 (20140413.2041)
 -->
<!-- Title: C2M2.Interaction.RaycastSimHeater Pages: 1 -->
<svg width="283pt" height="481pt"
 viewBox="0.00 0.00 282.61 481.00" xmlns="http://www.w3.org/2000/svg" xmlns:xlink="http://www.w3.org/1999/xlink">
<g id="graph0" class="graph" transform="scale(1 1) rotate(0) translate(4 477)">
<title>C2M2.Interaction.RaycastSimHeater</title>
<polygon fill="white" stroke="none" points="-4,4 -4,-477 278.611,-477 278.611,4 -4,4"/>
<!-- Node1 -->
<g id="node1" class="node"><title>Node1</title>
<g id="a_node1"><a xlink:title=" ">
<polygon fill="#bfbfbf" stroke="black" points="32.6111,-116.5 32.6111,-217.5 193.611,-217.5 193.611,-116.5 32.6111,-116.5"/>
<text text-anchor="start" x="40.6111" y="-205.5" font-family="Courier New" font-size="10.00">C2M2.Interaction.Raycast</text>
<text text-anchor="middle" x="113.111" y="-194.5" font-family="Courier New" font-size="10.00">SimHeater</text>
<polyline fill="none" stroke="black" points="32.6111,-187.5 193.611,-187.5 "/>
<text text-anchor="middle" x="113.111" y="-175.5" font-family="Courier New" font-size="10.00"> </text>
<polyline fill="none" stroke="black" points="32.6111,-168.5 193.611,-168.5 "/>
<text text-anchor="start" x="40.6111" y="-156.5" font-family="Courier New" font-size="10.00">+ Hit()</text>
<text text-anchor="start" x="40.6111" y="-145.5" font-family="Courier New" font-size="10.00"># OnAwake()</text>
<text text-anchor="start" x="40.6111" y="-134.5" font-family="Courier New" font-size="10.00"># HitMethod()</text>
<text text-anchor="start" x="40.6111" y="-123.5" font-family="Courier New" font-size="10.00">&#45; Awake()</text>
</a>
</g>
</g>
<!-- Node4 -->
<g id="node4" class="node"><title>Node4</title>
<g id="a_node4"><a xlink:href="../../dc/daa/class_c2_m2_1_1_simulation_1_1_interactable.html" target="_top" xlink:title="Manages interaction input to simulations">
<polygon fill="white" stroke="black" points="89.6111,-0.5 89.6111,-68.5 274.611,-68.5 274.611,-0.5 89.6111,-0.5"/>
<text text-anchor="middle" x="182.111" y="-56.5" font-family="Courier New" font-size="10.00">C2M2.Simulation.Interactable</text>
<polyline fill="none" stroke="black" points="89.6111,-49.5 274.611,-49.5 "/>
<text text-anchor="start" x="97.6111" y="-37.5" font-family="Courier New" font-size="10.00">+ interactionType</text>
<text text-anchor="start" x="97.6111" y="-26.5" font-family="Courier New" font-size="10.00">+ SimHeater</text>
<polyline fill="none" stroke="black" points="89.6111,-19.5 274.611,-19.5 "/>
<text text-anchor="start" x="97.6111" y="-7.5" font-family="Courier New" font-size="10.00">+ SetValues()</text>
</a>
</g>
</g>
<!-- Node1&#45;&gt;Node4 -->
<g id="edge6" class="edge"><title>Node1&#45;&gt;Node4</title>
<path fill="none" stroke="#404040" d="M85.7083,-116.428C83.4671,-106.312 83.7984,-96.015 89.1111,-87 91.1727,-83.5019 93.5667,-80.2247 96.2208,-77.1563"/>
<polygon fill="none" stroke="#404040" points="96.3671,-77.0114 97.8138,-69.9469 104.891,-68.5651 103.445,-75.6297 96.3671,-77.0114"/>
<text text-anchor="middle" x="122.611" y="-90" font-family="Courier New" font-size="10.00"> #simHeater</text>
</g>
<!-- Node2 -->
<g id="node2" class="node"><title>Node2</title>
<g id="a_node2"><a xlink:title=" ">
<polygon fill="white" stroke="#bfbfbf" points="86.6111,-415.5 86.6111,-472.5 181.611,-472.5 181.611,-415.5 86.6111,-415.5"/>
<text text-anchor="middle" x="134.111" y="-460.5" font-family="Courier New" font-size="10.00">MonoBehaviour</text>
<polyline fill="none" stroke="#bfbfbf" points="86.6111,-453.5 181.611,-453.5 "/>
<text text-anchor="middle" x="134.111" y="-441.5" font-family="Courier New" font-size="10.00"> </text>
<polyline fill="none" stroke="#bfbfbf" points="86.6111,-434.5 181.611,-434.5 "/>
<text text-anchor="middle" x="134.111" y="-422.5" font-family="Courier New" font-size="10.00"> </text>
</a>
</g>
</g>
<!-- Node2&#45;&gt;Node1 -->
<g id="edge1" class="edge"><title>Node2&#45;&gt;Node1</title>
<path fill="none" stroke="midnightblue" d="M76.9951,-425.627C54.1909,-415.572 30.2645,-400.354 17.1111,-378 -8.35794,-334.715 -1.9878,-311.449 17.1111,-265 24.3194,-247.469 36.3975,-231.423 49.5978,-217.645"/>
<polygon fill="none" stroke="midnightblue" points="75.7478,-428.899 86.3259,-429.494 78.4279,-422.432 75.7478,-428.899"/>
</g>
<!-- Node3 -->
<g id="node3" class="node"><title>Node3</title>
<g id="a_node3"><a xlink:href="../../d5/d84/class_c2_m2_1_1_interaction_1_1_v_r_1_1_v_r_raycastable.html" target="_top" xlink:title=" ">
<polygon fill="white" stroke="black" points="26.6111,-265.5 26.6111,-377.5 241.611,-377.5 241.611,-265.5 26.6111,-265.5"/>
<text text-anchor="middle" x="134.111" y="-365.5" font-family="Courier New" font-size="10.00">C2M2.Interaction.VR.VRRaycastable</text>
<polyline fill="none" stroke="black" points="26.6111,-358.5 241.611,-358.5 "/>
<text text-anchor="start" x="34.6111" y="-346.5" font-family="Courier New" font-size="10.00">+ raycastTargetObject</text>
<text text-anchor="start" x="34.6111" y="-335.5" font-family="Courier New" font-size="10.00">+ ColliderMesh</text>
<text text-anchor="start" x="34.6111" y="-324.5" font-family="Courier New" font-size="10.00">&#45; colliderMesh</text>
<polyline fill="none" stroke="black" points="26.6111,-317.5 241.611,-317.5 "/>
<text text-anchor="start" x="34.6111" y="-305.5" font-family="Courier New" font-size="10.00">&#45; Awake()</text>
<text text-anchor="start" x="34.6111" y="-294.5" font-family="Courier New" font-size="10.00">&#45; BuildChildObject()</text>
<text text-anchor="start" x="34.6111" y="-283.5" font-family="Courier New" font-size="10.00">&#45; BuildRigidBody()</text>
<text text-anchor="start" x="34.6111" y="-272.5" font-family="Courier New" font-size="10.00">&#45; BuildMeshCollider()</text>
</a>
</g>
</g>
<!-- Node2&#45;&gt;Node3 -->
<g id="edge3" class="edge"><title>Node2&#45;&gt;Node3</title>
<path fill="none" stroke="midnightblue" d="M134.111,-405.109C134.111,-396.362 134.111,-386.883 134.111,-377.569"/>
<polygon fill="none" stroke="midnightblue" points="130.611,-405.355 134.111,-415.355 137.611,-405.355 130.611,-405.355"/>
</g>
<!-- Node2&#45;&gt;Node4 -->
<g id="edge5" class="edge"><title>Node2&#45;&gt;Node4</title>
<path fill="none" stroke="midnightblue" d="M191.019,-425.391C213.551,-415.315 237.135,-400.145 250.111,-378 267.226,-348.791 256.176,-115.881 242.111,-87 238.865,-80.3354 234.319,-74.191 229.166,-68.6438"/>
<polygon fill="none" stroke="midnightblue" points="189.657,-422.167 181.797,-429.271 192.372,-428.619 189.657,-422.167"/>
</g>
<!-- Node3&#45;&gt;Node1 -->
<g id="edge2" class="edge"><title>Node3&#45;&gt;Node1</title>
<path fill="none" stroke="#404040" d="M126.53,-265.444C124.934,-253.856 123.241,-241.559 121.614,-229.745"/>
<polygon fill="none" stroke="#404040" points="121.586,-229.545 116.805,-224.147 119.949,-217.657 124.73,-223.055 121.586,-229.545"/>
<text text-anchor="middle" x="163.611" y="-239" font-family="Courier New" font-size="10.00"> #raycastable</text>
</g>
<!-- Node4&#45;&gt;Node1 -->
<g id="edge4" class="edge"><title>Node4&#45;&gt;Node1</title>
<path fill="none" stroke="#404040" d="M172.29,-68.6235C168.93,-78.3144 164.815,-88.7772 160.111,-98 158.742,-100.685 157.281,-103.387 155.753,-106.085"/>
<polygon fill="none" stroke="#404040" points="155.728,-106.126 156.086,-113.328 149.576,-116.429 149.218,-109.226 155.728,-106.126"/>
<text text-anchor="middle" x="201.611" y="-90" font-family="Courier New" font-size="10.00"> #simulation</text>
</g>
</g>
</svg>
