<?xml version="1.0" encoding="UTF-8" standalone="no"?>
<!DOCTYPE svg PUBLIC "-//W3C//DTD SVG 1.1//EN"
 "http://www.w3.org/Graphics/SVG/1.1/DTD/svg11.dtd">
<!-- Generated by graphviz version 2.46.0 (20210118.1747)
 -->
<!-- Title: SimulationTimerLabel Pages: 1 -->
<svg width="332pt" height="332pt"
 viewBox="0.00 0.00 332.00 332.00" xmlns="http://www.w3.org/2000/svg" xmlns:xlink="http://www.w3.org/1999/xlink">
<g id="graph0" class="graph" transform="scale(1 1) rotate(0) translate(4 328)">
<title>SimulationTimerLabel</title>
<polygon fill="white" stroke="transparent" points="-4,4 -4,-328 328,-328 328,4 -4,4"/>
<!-- Node1 -->
<g id="node1" class="node">
<title>Node1</title>
<g id="a_node1"><a xlink:title=" ">
<polygon fill="#bfbfbf" stroke="black" points="0,-6 0,-96 137,-96 137,-6 0,-6"/>
<text text-anchor="middle" x="68.5" y="-84" font-family="Courier New" font-size="10.00">SimulationTimerLabel</text>
<polyline fill="none" stroke="black" points="0,-77 137,-77 "/>
<text text-anchor="start" x="8" y="-65" font-family="Courier New" font-size="10.00">+ timerText</text>
<text text-anchor="start" x="8" y="-54" font-family="Courier New" font-size="10.00">+ time</text>
<polyline fill="none" stroke="black" points="0,-47 137,-47 "/>
<text text-anchor="start" x="8" y="-35" font-family="Courier New" font-size="10.00">+ ToString()</text>
<text text-anchor="start" x="8" y="-24" font-family="Courier New" font-size="10.00">&#45; Start()</text>
<text text-anchor="start" x="8" y="-13" font-family="Courier New" font-size="10.00">&#45; FixedUpdate()</text>
</a>
</g>
</g>
<!-- Node2 -->
<g id="node2" class="node">
<title>Node2</title>
<g id="a_node2"><a xlink:title=" ">
<polygon fill="white" stroke="#bfbfbf" points="134,-266.5 134,-323.5 229,-323.5 229,-266.5 134,-266.5"/>
<text text-anchor="middle" x="181.5" y="-311.5" font-family="Courier New" font-size="10.00">MonoBehaviour</text>
<polyline fill="none" stroke="#bfbfbf" points="134,-304.5 229,-304.5 "/>
<text text-anchor="middle" x="181.5" y="-292.5" font-family="Courier New" font-size="10.00"> </text>
<polyline fill="none" stroke="#bfbfbf" points="134,-285.5 229,-285.5 "/>
<text text-anchor="middle" x="181.5" y="-273.5" font-family="Courier New" font-size="10.00"> </text>
</a>
</g>
</g>
<!-- Node2&#45;&gt;Node1 -->
<g id="edge1" class="edge">
<title>Node2&#45;&gt;Node1</title>
<path fill="none" stroke="midnightblue" d="M124.8,-270.52C107.32,-260.39 89.94,-246.71 79.5,-229 55.81,-188.82 56.31,-134.21 60.66,-96.32"/>
<polygon fill="none" stroke="midnightblue" points="123.47,-273.78 133.92,-275.5 126.82,-267.63 123.47,-273.78"/>
</g>
<!-- Node3 -->
<g id="node3" class="node">
<title>Node3</title>
<g id="a_node3"><a xlink:href="../../dc/daa/class_c2_m2_1_1_simulation_1_1_interactable.html" target="_top" xlink:title="Interface for interaction scripts">
<polygon fill="white" stroke="black" points="89,-149.5 89,-228.5 274,-228.5 274,-149.5 89,-149.5"/>
<text text-anchor="middle" x="181.5" y="-216.5" font-family="Courier New" font-size="10.00">C2M2.Simulation.Interactable</text>
<polyline fill="none" stroke="black" points="89,-209.5 274,-209.5 "/>
<text text-anchor="start" x="97" y="-197.5" font-family="Courier New" font-size="10.00">+ Heater</text>
<text text-anchor="start" x="97" y="-186.5" font-family="Courier New" font-size="10.00"># interactionType</text>
<polyline fill="none" stroke="black" points="89,-179.5 274,-179.5 "/>
<text text-anchor="start" x="97" y="-167.5" font-family="Courier New" font-size="10.00">+ SetValues()</text>
<text text-anchor="start" x="97" y="-156.5" font-family="Courier New" font-size="10.00">+ GetSimulationTime()</text>
</a>
</g>
</g>
<!-- Node2&#45;&gt;Node3 -->
<g id="edge3" class="edge">
<title>Node2&#45;&gt;Node3</title>
<path fill="none" stroke="midnightblue" d="M181.5,-256.23C181.5,-247.27 181.5,-237.69 181.5,-228.69"/>
<polygon fill="none" stroke="midnightblue" points="178,-256.4 181.5,-266.4 185,-256.4 178,-256.4"/>
</g>
<!-- Node4 -->
<g id="node4" class="node">
<title>Node4</title>
<g id="a_node4"><a xlink:href="../../dc/d54/class_c2_m2_1_1_interaction_1_1_raycast_heater.html" target="_top" xlink:title=" ">
<polygon fill="white" stroke="black" points="163,-0.5 163,-101.5 324,-101.5 324,-0.5 163,-0.5"/>
<text text-anchor="start" x="171" y="-89.5" font-family="Courier New" font-size="10.00">C2M2.Interaction.Raycast</text>
<text text-anchor="middle" x="243.5" y="-78.5" font-family="Courier New" font-size="10.00">Heater</text>
<polyline fill="none" stroke="black" points="163,-71.5 324,-71.5 "/>
<text text-anchor="middle" x="243.5" y="-59.5" font-family="Courier New" font-size="10.00"> </text>
<polyline fill="none" stroke="black" points="163,-52.5 324,-52.5 "/>
<text text-anchor="start" x="171" y="-40.5" font-family="Courier New" font-size="10.00">+ Hit()</text>
<text text-anchor="start" x="171" y="-29.5" font-family="Courier New" font-size="10.00"># OnAwake()</text>
<text text-anchor="start" x="171" y="-18.5" font-family="Courier New" font-size="10.00"># HitMethod()</text>
<text text-anchor="start" x="171" y="-7.5" font-family="Courier New" font-size="10.00">&#45; Awake()</text>
</a>
</g>
</g>
<!-- Node2&#45;&gt;Node4 -->
<g id="edge5" class="edge">
<title>Node2&#45;&gt;Node4</title>
<path fill="none" stroke="midnightblue" d="M238.37,-271.14C256.06,-261.02 273.52,-247.19 283.5,-229 305.24,-189.36 290.04,-138.55 272.48,-101.54"/>
<polygon fill="none" stroke="midnightblue" points="236.29,-268.29 229.14,-276.1 239.61,-274.45 236.29,-268.29"/>
</g>
<!-- Node3&#45;&gt;Node1 -->
<g id="edge2" class="edge">
<title>Node3&#45;&gt;Node1</title>
<path fill="none" stroke="#404040" d="M124.39,-149.32C117.92,-143.61 111.77,-137.46 106.5,-131 100.54,-123.71 95.25,-115.32 90.64,-106.8"/>
<polygon fill="none" stroke="#404040" points="90.6,-106.71 84.32,-103.17 85.17,-96.01 91.45,-99.55 90.6,-106.71"/>
<text text-anchor="middle" x="122" y="-123" font-family="Courier New" font-size="10.00"> +sim</text>
</g>
<!-- Node3&#45;&gt;Node4 -->
<g id="edge6" class="edge">
<title>Node3&#45;&gt;Node4</title>
<path fill="none" stroke="#404040" d="M145.98,-149.26C141.23,-139.72 139.49,-129.51 144.5,-120 147.27,-114.74 150.65,-109.81 154.47,-105.2"/>
<polygon fill="none" stroke="#404040" points="154.69,-104.96 155.85,-97.85 162.87,-96.18 161.7,-103.3 154.69,-104.96"/>
<text text-anchor="middle" x="181" y="-123" font-family="Courier New" font-size="10.00"> #simulation</text>
</g>
<!-- Node4&#45;&gt;Node3 -->
<g id="edge4" class="edge">
<title>Node4&#45;&gt;Node3</title>
<path fill="none" stroke="#404040" d="M232.41,-101.82C229.44,-111.72 225.82,-121.86 221.5,-131 220.28,-133.58 218.94,-136.17 217.52,-138.75"/>
<polygon fill="none" stroke="#404040" points="217.44,-138.89 217.8,-146.09 211.3,-149.2 210.93,-141.99 217.44,-138.89"/>
<text text-anchor="middle" x="250" y="-123" font-family="Courier New" font-size="10.00"> &#45;heater</text>
</g>
</g>
</svg>
