<?xml version="1.0" encoding="UTF-8" standalone="no"?>
<!DOCTYPE svg PUBLIC "-//W3C//DTD SVG 1.1//EN"
 "http://www.w3.org/Graphics/SVG/1.1/DTD/svg11.dtd">
<!-- Generated by graphviz version 2.38.0 (20140413.2041)
 -->
<!-- Title: C2M2.NeuronalDynamics.Simulation.SimpleSolver_constDerivative Pages: 1 -->
<svg width="223pt" height="986pt"
 viewBox="0.00 0.00 223.00 986.00" xmlns="http://www.w3.org/2000/svg" xmlns:xlink="http://www.w3.org/1999/xlink">
<g id="graph0" class="graph" transform="scale(1 1) rotate(0) translate(4 982)">
<title>C2M2.NeuronalDynamics.Simulation.SimpleSolver_constDerivative</title>
<polygon fill="white" stroke="none" points="-4,4 -4,-982 219,-982 219,4 -4,4"/>
<!-- Node1 -->
<g id="node1" class="node"><title>Node1</title>
<g id="a_node1"><a xlink:title=" ">
<polygon fill="#bfbfbf" stroke="black" points="0,-0.5 0,-266.5 215,-266.5 215,-0.5 0,-0.5"/>
<text text-anchor="start" x="8" y="-254.5" font-family="Courier New" font-size="10.00">C2M2.NeuronalDynamics.Simulation.</text>
<text text-anchor="middle" x="107.5" y="-243.5" font-family="Courier New" font-size="10.00">SimpleSolver_constDerivative</text>
<polyline fill="none" stroke="black" points="0,-236.5 215,-236.5 "/>
<text text-anchor="start" x="8" y="-224.5" font-family="Courier New" font-size="10.00">+ res</text>
<text text-anchor="start" x="8" y="-213.5" font-family="Courier New" font-size="10.00">+ gk</text>
<text text-anchor="start" x="8" y="-202.5" font-family="Courier New" font-size="10.00">+ gna</text>
<text text-anchor="start" x="8" y="-191.5" font-family="Courier New" font-size="10.00">+ gl</text>
<text text-anchor="start" x="8" y="-180.5" font-family="Courier New" font-size="10.00">+ ek</text>
<text text-anchor="start" x="8" y="-169.5" font-family="Courier New" font-size="10.00">+ ena</text>
<text text-anchor="start" x="8" y="-158.5" font-family="Courier New" font-size="10.00">+ el</text>
<text text-anchor="start" x="8" y="-147.5" font-family="Courier New" font-size="10.00">+ cap</text>
<text text-anchor="start" x="8" y="-136.5" font-family="Courier New" font-size="10.00">+ ni</text>
<text text-anchor="start" x="8" y="-125.5" font-family="Courier New" font-size="10.00">+ vstart</text>
<text text-anchor="start" x="8" y="-114.5" font-family="Courier New" font-size="10.00">&#45; U</text>
<text text-anchor="start" x="8" y="-103.5" font-family="Courier New" font-size="10.00">&#45; myCell</text>
<text text-anchor="start" x="8" y="-92.5" font-family="Courier New" font-size="10.00">&#45; i</text>
<text text-anchor="start" x="8" y="-81.5" font-family="Courier New" font-size="10.00">&#45; mi</text>
<text text-anchor="start" x="8" y="-70.5" font-family="Courier New" font-size="10.00">&#45; hi</text>
<polyline fill="none" stroke="black" points="0,-63.5 215,-63.5 "/>
<text text-anchor="start" x="8" y="-51.5" font-family="Courier New" font-size="10.00"># SetNeuronCell()</text>
<text text-anchor="start" x="8" y="-40.5" font-family="Courier New" font-size="10.00"># Get1DValues()</text>
<text text-anchor="start" x="8" y="-29.5" font-family="Courier New" font-size="10.00"># Set1DValues()</text>
<text text-anchor="start" x="8" y="-18.5" font-family="Courier New" font-size="10.00"># Solve()</text>
<text text-anchor="start" x="8" y="-7.5" font-family="Courier New" font-size="10.00">&#45; ic()</text>
</a>
</g>
</g>
<!-- Node2 -->
<g id="node2" class="node"><title>Node2</title>
<g id="a_node2"><a xlink:href="../../d1/de3/class_c2_m2_1_1_neuronal_dynamics_1_1_simulation_1_1_neuron_simulation.html" target="_top" xlink:title="Provides base functionality for Neuron simulations">
<polygon fill="white" stroke="black" points="45,-303.5 45,-536.5 170,-536.5 170,-303.5 45,-303.5"/>
<text text-anchor="middle" x="107.5" y="-524.5" font-family="Courier New" font-size="10.00">NeuronSimulation</text>
<polyline fill="none" stroke="black" points="45,-517.5 170,-517.5 "/>
<text text-anchor="start" x="53" y="-505.5" font-family="Courier New" font-size="10.00">+ visualize1D</text>
<text text-anchor="start" x="53" y="-494.5" font-family="Courier New" font-size="10.00">+ color1D</text>
<text text-anchor="start" x="53" y="-483.5" font-family="Courier New" font-size="10.00">+ lineWidth1D</text>
<text text-anchor="start" x="53" y="-472.5" font-family="Courier New" font-size="10.00"># grid1D</text>
<text text-anchor="start" x="53" y="-461.5" font-family="Courier New" font-size="10.00">&#45; map</text>
<text text-anchor="start" x="53" y="-450.5" font-family="Courier New" font-size="10.00">&#45; neuronCellFolder</text>
<text text-anchor="start" x="53" y="-439.5" font-family="Courier New" font-size="10.00">&#45; activeCellFolder</text>
<text text-anchor="start" x="53" y="-428.5" font-family="Courier New" font-size="10.00">&#45; ugxExt</text>
<text text-anchor="start" x="53" y="-417.5" font-family="Courier New" font-size="10.00">&#45; cngExt</text>
<text text-anchor="start" x="53" y="-406.5" font-family="Courier New" font-size="10.00">&#45; spec1D</text>
<text text-anchor="start" x="53" y="-395.5" font-family="Courier New" font-size="10.00">&#45; specTris</text>
<text text-anchor="start" x="53" y="-384.5" font-family="Courier New" font-size="10.00">&#45; specBlownup</text>
<polyline fill="none" stroke="black" points="45,-377.5 170,-377.5 "/>
<text text-anchor="start" x="53" y="-365.5" font-family="Courier New" font-size="10.00">+ GetValues()</text>
<text text-anchor="start" x="53" y="-354.5" font-family="Courier New" font-size="10.00">+ SetValues()</text>
<text text-anchor="start" x="53" y="-343.5" font-family="Courier New" font-size="10.00"># Set1DValues()</text>
<text text-anchor="start" x="53" y="-332.5" font-family="Courier New" font-size="10.00"># Get1DValues()</text>
<text text-anchor="start" x="53" y="-321.5" font-family="Courier New" font-size="10.00"># SetNeuronCell()</text>
<text text-anchor="start" x="53" y="-310.5" font-family="Courier New" font-size="10.00"># BuildMesh()</text>
</a>
</g>
</g>
<!-- Node2&#45;&gt;Node1 -->
<g id="edge1" class="edge"><title>Node2&#45;&gt;Node1</title>
<path fill="none" stroke="midnightblue" d="M107.5,-293.104C107.5,-284.395 107.5,-275.602 107.5,-266.859"/>
<polygon fill="none" stroke="midnightblue" points="104,-293.283 107.5,-303.283 111,-293.283 104,-293.283"/>
</g>
<!-- Node3 -->
<g id="node3" class="node"><title>Node3</title>
<g id="a_node3"><a xlink:href="../../d4/de1/class_c2_m2_1_1_simulation_1_1_surface_simulation.html" target="_top" xlink:title="Simulation of type double[] for visualizing scalar fields on mesh surfaces">
<polygon fill="white" stroke="black" points="30,-573.5 30,-729.5 185,-729.5 185,-573.5 30,-573.5"/>
<text text-anchor="middle" x="107.5" y="-717.5" font-family="Courier New" font-size="10.00">SurfaceSimulation</text>
<polyline fill="none" stroke="black" points="30,-710.5 185,-710.5 "/>
<text text-anchor="start" x="38" y="-698.5" font-family="Courier New" font-size="10.00">+ gradient</text>
<text text-anchor="start" x="38" y="-687.5" font-family="Courier New" font-size="10.00">+ extremaMethod</text>
<text text-anchor="start" x="38" y="-676.5" font-family="Courier New" font-size="10.00">+ globalMax</text>
<text text-anchor="start" x="38" y="-665.5" font-family="Courier New" font-size="10.00">+ globalMin</text>
<text text-anchor="start" x="38" y="-654.5" font-family="Courier New" font-size="10.00">+ colorLUT</text>
<text text-anchor="start" x="38" y="-643.5" font-family="Courier New" font-size="10.00">&#45; mf</text>
<text text-anchor="start" x="38" y="-632.5" font-family="Courier New" font-size="10.00">&#45; mr</text>
<polyline fill="none" stroke="black" points="30,-625.5 185,-625.5 "/>
<text text-anchor="start" x="38" y="-613.5" font-family="Courier New" font-size="10.00"># BuildMesh()</text>
<text text-anchor="start" x="38" y="-602.5" font-family="Courier New" font-size="10.00"># UpdateVisualization()</text>
<text text-anchor="start" x="38" y="-591.5" font-family="Courier New" font-size="10.00"># OnAwake()</text>
<text text-anchor="start" x="38" y="-580.5" font-family="Courier New" font-size="10.00">&#45; UpdateVisualization()</text>
</a>
</g>
</g>
<!-- Node3&#45;&gt;Node2 -->
<g id="edge2" class="edge"><title>Node3&#45;&gt;Node2</title>
<path fill="none" stroke="midnightblue" d="M107.5,-563.313C107.5,-554.585 107.5,-545.632 107.5,-536.671"/>
<polygon fill="none" stroke="midnightblue" points="104,-563.441 107.5,-573.441 111,-563.441 104,-563.441"/>
</g>
<!-- Node4 -->
<g id="node4" class="node"><title>Node4</title>
<g id="a_node4"><a xlink:href="../../db/d39/class_c2_m2_1_1_simulation_1_1_simulation.html" target="_top" xlink:title=" ">
<polygon fill="white" stroke="black" points="30,-766.5 30,-977.5 185,-977.5 185,-766.5 30,-766.5"/>
<text text-anchor="middle" x="107.5" y="-965.5" font-family="Courier New" font-size="10.00">Simulation&lt; double[]&gt;</text>
<polyline fill="none" stroke="black" points="30,-958.5 185,-958.5 "/>
<text text-anchor="start" x="38" y="-946.5" font-family="Courier New" font-size="10.00">+ startOnAwake</text>
<text text-anchor="start" x="38" y="-935.5" font-family="Courier New" font-size="10.00"># mutex</text>
<text text-anchor="start" x="38" y="-924.5" font-family="Courier New" font-size="10.00">&#45; solveThread</text>
<polyline fill="none" stroke="black" points="30,-917.5 185,-917.5 "/>
<text text-anchor="start" x="38" y="-905.5" font-family="Courier New" font-size="10.00">+ GetValues()</text>
<text text-anchor="start" x="38" y="-894.5" font-family="Courier New" font-size="10.00">+ Awake()</text>
<text text-anchor="start" x="38" y="-883.5" font-family="Courier New" font-size="10.00">+ Start()</text>
<text text-anchor="start" x="38" y="-872.5" font-family="Courier New" font-size="10.00">+ Update()</text>
<text text-anchor="start" x="38" y="-861.5" font-family="Courier New" font-size="10.00">+ StartSimulation()</text>
<text text-anchor="start" x="38" y="-850.5" font-family="Courier New" font-size="10.00">+ StopSimulation()</text>
<text text-anchor="start" x="38" y="-839.5" font-family="Courier New" font-size="10.00"># UpdateVisualization()</text>
<text text-anchor="start" x="38" y="-828.5" font-family="Courier New" font-size="10.00"># OnAwake()</text>
<text text-anchor="start" x="38" y="-817.5" font-family="Courier New" font-size="10.00"># OnStart()</text>
<text text-anchor="start" x="38" y="-806.5" font-family="Courier New" font-size="10.00"># OnUpdate()</text>
<text text-anchor="start" x="38" y="-795.5" font-family="Courier New" font-size="10.00"># Solve()</text>
<text text-anchor="start" x="38" y="-784.5" font-family="Courier New" font-size="10.00">&#45; OnApplicationPause()</text>
<text text-anchor="start" x="38" y="-773.5" font-family="Courier New" font-size="10.00">&#45; OnApplicationQuit()</text>
</a>
</g>
</g>
<!-- Node4&#45;&gt;Node3 -->
<g id="edge3" class="edge"><title>Node4&#45;&gt;Node3</title>
<path fill="none" stroke="midnightblue" d="M107.5,-756.073C107.5,-747.085 107.5,-738.148 107.5,-729.507"/>
<polygon fill="none" stroke="midnightblue" points="104,-756.23 107.5,-766.23 111,-756.23 104,-756.23"/>
</g>
</g>
</svg>
