<?xml version="1.0" encoding="UTF-8" standalone="no"?>
<!DOCTYPE svg PUBLIC "-//W3C//DTD SVG 1.1//EN"
 "http://www.w3.org/Graphics/SVG/1.1/DTD/svg11.dtd">
<!-- Generated by graphviz version 2.38.0 (20140413.2041)
 -->
<!-- Title: C2M2.NeuronalDynamics.Simulation.SparseSolverTestv1_noIO Pages: 1 -->
<svg width="912pt" height="1491pt"
 viewBox="0.00 0.00 911.50 1491.00" xmlns="http://www.w3.org/2000/svg" xmlns:xlink="http://www.w3.org/1999/xlink">
<g id="graph0" class="graph" transform="scale(1 1) rotate(0) translate(4 1487)">
<title>C2M2.NeuronalDynamics.Simulation.SparseSolverTestv1_noIO</title>
<polygon fill="white" stroke="none" points="-4,4 -4,-1487 907.5,-1487 907.5,4 -4,4"/>
<!-- Node1 -->
<g id="node1" class="node"><title>Node1</title>
<g id="a_node1"><a xlink:title=" ">
<polygon fill="#bfbfbf" stroke="black" points="573,-0.5 573,-387.5 788,-387.5 788,-0.5 573,-0.5"/>
<text text-anchor="start" x="581" y="-375.5" font-family="Courier New" font-size="10.00">C2M2.NeuronalDynamics.Simulation.</text>
<text text-anchor="middle" x="680.5" y="-364.5" font-family="Courier New" font-size="10.00">SparseSolverTestv1_noIO</text>
<polyline fill="none" stroke="black" points="573,-357.5 788,-357.5 "/>
<text text-anchor="start" x="581" y="-345.5" font-family="Courier New" font-size="10.00">+ endTime</text>
<text text-anchor="start" x="581" y="-334.5" font-family="Courier New" font-size="10.00">+ SomaOn</text>
<text text-anchor="start" x="581" y="-323.5" font-family="Courier New" font-size="10.00">&#45; vstart</text>
<text text-anchor="start" x="581" y="-312.5" font-family="Courier New" font-size="10.00">&#45; h</text>
<text text-anchor="start" x="581" y="-301.5" font-family="Courier New" font-size="10.00">&#45; k</text>
<text text-anchor="start" x="581" y="-290.5" font-family="Courier New" font-size="10.00">&#45; HK_auto</text>
<text text-anchor="start" x="581" y="-279.5" font-family="Courier New" font-size="10.00">&#45; numRuns</text>
<text text-anchor="start" x="581" y="-268.5" font-family="Courier New" font-size="10.00">&#45; randomPermute</text>
<text text-anchor="start" x="581" y="-257.5" font-family="Courier New" font-size="10.00">&#45; res</text>
<text text-anchor="start" x="581" y="-246.5" font-family="Courier New" font-size="10.00">&#45; cap</text>
<text text-anchor="start" x="581" y="-235.5" font-family="Courier New" font-size="10.00">&#45; ni</text>
<text text-anchor="start" x="581" y="-224.5" font-family="Courier New" font-size="10.00">&#45; mi</text>
<text text-anchor="start" x="581" y="-213.5" font-family="Courier New" font-size="10.00">and 15 more...</text>
<polyline fill="none" stroke="black" points="573,-206.5 788,-206.5 "/>
<text text-anchor="start" x="581" y="-194.5" font-family="Courier New" font-size="10.00">+ makeSparseStencils()</text>
<text text-anchor="start" x="581" y="-183.5" font-family="Courier New" font-size="10.00">+ setSoma()</text>
<text text-anchor="start" x="581" y="-172.5" font-family="Courier New" font-size="10.00">+ initialConditions()</text>
<text text-anchor="start" x="581" y="-161.5" font-family="Courier New" font-size="10.00">+ boundaryConditions()</text>
<text text-anchor="start" x="581" y="-150.5" font-family="Courier New" font-size="10.00"># SetNeuronCell()</text>
<text text-anchor="start" x="581" y="-139.5" font-family="Courier New" font-size="10.00"># Get1DValues()</text>
<text text-anchor="start" x="581" y="-128.5" font-family="Courier New" font-size="10.00"># Set1DValues()</text>
<text text-anchor="start" x="581" y="-117.5" font-family="Courier New" font-size="10.00"># Solve()</text>
<text text-anchor="start" x="581" y="-106.5" font-family="Courier New" font-size="10.00">&#45; reactF()</text>
<text text-anchor="start" x="581" y="-95.5" font-family="Courier New" font-size="10.00">&#45; fN()</text>
<text text-anchor="start" x="581" y="-84.5" font-family="Courier New" font-size="10.00">&#45; fM()</text>
<text text-anchor="start" x="581" y="-73.5" font-family="Courier New" font-size="10.00">&#45; fH()</text>
<text text-anchor="start" x="581" y="-62.5" font-family="Courier New" font-size="10.00">&#45; an()</text>
<text text-anchor="start" x="581" y="-51.5" font-family="Courier New" font-size="10.00">&#45; bn()</text>
<text text-anchor="start" x="581" y="-40.5" font-family="Courier New" font-size="10.00">&#45; am()</text>
<text text-anchor="start" x="581" y="-29.5" font-family="Courier New" font-size="10.00">&#45; bm()</text>
<text text-anchor="start" x="581" y="-18.5" font-family="Courier New" font-size="10.00">&#45; ah()</text>
<text text-anchor="start" x="581" y="-7.5" font-family="Courier New" font-size="10.00">&#45; bh()</text>
</a>
</g>
</g>
<!-- Node2 -->
<g id="node2" class="node"><title>Node2</title>
<g id="a_node2"><a xlink:href="../../d4/d5a/class_c2_m2_1_1_neuronal_dynamics_1_1_simulation_1_1_neuron_simulation1_d.html" target="_top" xlink:title="Provide an interface for 1D neuron&#45;surface simulations to be visualized and interacted with">
<polygon fill="white" stroke="black" points="475,-435.5 475,-767.5 624,-767.5 624,-435.5 475,-435.5"/>
<text text-anchor="middle" x="549.5" y="-755.5" font-family="Courier New" font-size="10.00">NeuronSimulation1D</text>
<polyline fill="none" stroke="black" points="475,-748.5 624,-748.5 "/>
<text text-anchor="start" x="483" y="-736.5" font-family="Courier New" font-size="10.00">+ refinementLevel</text>
<text text-anchor="start" x="483" y="-725.5" font-family="Courier New" font-size="10.00">+ cell1xPath</text>
<text text-anchor="start" x="483" y="-714.5" font-family="Courier New" font-size="10.00">+ cell2xPath</text>
<text text-anchor="start" x="483" y="-703.5" font-family="Courier New" font-size="10.00">+ cell3xPath</text>
<text text-anchor="start" x="483" y="-692.5" font-family="Courier New" font-size="10.00">+ cell4xPath</text>
<text text-anchor="start" x="483" y="-681.5" font-family="Courier New" font-size="10.00">+ cell5xPath</text>
<text text-anchor="start" x="483" y="-670.5" font-family="Courier New" font-size="10.00">+ visualize1D</text>
<text text-anchor="start" x="483" y="-659.5" font-family="Courier New" font-size="10.00">+ color1D</text>
<text text-anchor="start" x="483" y="-648.5" font-family="Courier New" font-size="10.00">+ lineWidth1D</text>
<text text-anchor="start" x="483" y="-637.5" font-family="Courier New" font-size="10.00">&#45; meshScale</text>
<text text-anchor="start" x="483" y="-626.5" font-family="Courier New" font-size="10.00">&#45; meshColScale</text>
<text text-anchor="start" x="483" y="-615.5" font-family="Courier New" font-size="10.00">&#45; map</text>
<text text-anchor="start" x="483" y="-604.5" font-family="Courier New" font-size="10.00">&#45; scaledMeshes</text>
<polyline fill="none" stroke="black" points="475,-597.5 624,-597.5 "/>
<text text-anchor="start" x="483" y="-585.5" font-family="Courier New" font-size="10.00">+ GetValues()</text>
<text text-anchor="start" x="483" y="-574.5" font-family="Courier New" font-size="10.00">+ SetValues()</text>
<text text-anchor="start" x="483" y="-563.5" font-family="Courier New" font-size="10.00">+ RescaleMesh()</text>
<text text-anchor="start" x="483" y="-552.5" font-family="Courier New" font-size="10.00">+ SwitchColliderMesh()</text>
<text text-anchor="start" x="483" y="-541.5" font-family="Courier New" font-size="10.00">+ SwitchMesh()</text>
<text text-anchor="start" x="483" y="-530.5" font-family="Courier New" font-size="10.00"># Set1DValues()</text>
<text text-anchor="start" x="483" y="-519.5" font-family="Courier New" font-size="10.00"># Get1DValues()</text>
<text text-anchor="start" x="483" y="-508.5" font-family="Courier New" font-size="10.00"># SetNeuronCell()</text>
<text text-anchor="start" x="483" y="-497.5" font-family="Courier New" font-size="10.00"># ReadData()</text>
<text text-anchor="start" x="483" y="-486.5" font-family="Courier New" font-size="10.00"># BuildVisualization()</text>
<text text-anchor="start" x="483" y="-475.5" font-family="Courier New" font-size="10.00">&#45; BuildUI()</text>
<text text-anchor="start" x="483" y="-464.5" font-family="Courier New" font-size="10.00">&#45; Clean3DCell()</text>
<text text-anchor="start" x="483" y="-453.5" font-family="Courier New" font-size="10.00">&#45; BuildMesh()</text>
<text text-anchor="start" x="483" y="-442.5" font-family="Courier New" font-size="10.00">&#45; SwitchColliderMesh()</text>
</a>
</g>
</g>
<!-- Node2&#45;&gt;Node1 -->
<g id="edge1" class="edge"><title>Node2&#45;&gt;Node1</title>
<path fill="none" stroke="midnightblue" d="M605.973,-425.693C610.035,-413.12 614.144,-400.401 618.236,-387.734"/>
<polygon fill="none" stroke="midnightblue" points="602.621,-424.683 602.877,-435.275 609.282,-426.835 602.621,-424.683"/>
</g>
<!-- Node3 -->
<g id="node3" class="node"><title>Node3</title>
<g id="a_node3"><a xlink:href="../../d6/d2d/class_c2_m2_1_1_simulation_1_1_mesh_simulation.html" target="_top" xlink:title="Simulation of type double[] for visualizing scalar fields on mesh surfaces">
<polygon fill="white" stroke="black" points="171,-837.5 171,-982.5 326,-982.5 326,-837.5 171,-837.5"/>
<text text-anchor="middle" x="248.5" y="-970.5" font-family="Courier New" font-size="10.00">MeshSimulation</text>
<polyline fill="none" stroke="black" points="171,-963.5 326,-963.5 "/>
<text text-anchor="start" x="179" y="-951.5" font-family="Courier New" font-size="10.00">+ gradient</text>
<text text-anchor="start" x="179" y="-940.5" font-family="Courier New" font-size="10.00">+ globalMax</text>
<text text-anchor="start" x="179" y="-929.5" font-family="Courier New" font-size="10.00">+ globalMin</text>
<text text-anchor="start" x="179" y="-918.5" font-family="Courier New" font-size="10.00">+ colorLUT</text>
<text text-anchor="start" x="179" y="-907.5" font-family="Courier New" font-size="10.00"># colliderMesh</text>
<text text-anchor="start" x="179" y="-896.5" font-family="Courier New" font-size="10.00">&#45; mf</text>
<text text-anchor="start" x="179" y="-885.5" font-family="Courier New" font-size="10.00">&#45; mr</text>
<polyline fill="none" stroke="black" points="171,-878.5 326,-878.5 "/>
<text text-anchor="start" x="179" y="-866.5" font-family="Courier New" font-size="10.00"># UpdateVisualization()</text>
<text text-anchor="start" x="179" y="-855.5" font-family="Courier New" font-size="10.00"># OnAwake()</text>
<text text-anchor="start" x="179" y="-844.5" font-family="Courier New" font-size="10.00">&#45; UpdateVisualization()</text>
</a>
</g>
</g>
<!-- Node3&#45;&gt;Node2 -->
<g id="edge2" class="edge"><title>Node3&#45;&gt;Node2</title>
<path fill="none" stroke="midnightblue" d="M326.314,-829.764C372.098,-783.144 429.693,-724.496 474.906,-678.457"/>
<polygon fill="none" stroke="midnightblue" points="323.581,-827.552 319.071,-837.139 328.575,-832.457 323.581,-827.552"/>
</g>
<!-- Node4 -->
<g id="node4" class="node"><title>Node4</title>
<g id="a_node4"><a xlink:href="../../db/d39/class_c2_m2_1_1_simulation_1_1_simulation.html" target="_top" xlink:title=" ">
<polygon fill="white" stroke="black" points="0,-1110.5 0,-1387.5 185,-1387.5 185,-1110.5 0,-1110.5"/>
<text text-anchor="start" x="8" y="-1375.5" font-family="Courier New" font-size="10.00">Simulation&lt; double</text>
<text text-anchor="start" x="8" y="-1364.5" font-family="Courier New" font-size="10.00">[], Mesh, VRRaycastableMesh,</text>
<text text-anchor="middle" x="92.5" y="-1353.5" font-family="Courier New" font-size="10.00"> VRGrabbableMesh &gt;</text>
<polyline fill="none" stroke="black" points="0,-1346.5 185,-1346.5 "/>
<text text-anchor="start" x="8" y="-1334.5" font-family="Courier New" font-size="10.00">+ dryRun</text>
<text text-anchor="start" x="8" y="-1323.5" font-family="Courier New" font-size="10.00">+ startOnAwake</text>
<text text-anchor="start" x="8" y="-1312.5" font-family="Courier New" font-size="10.00">+ viz</text>
<text text-anchor="start" x="8" y="-1301.5" font-family="Courier New" font-size="10.00"># mutex</text>
<text text-anchor="start" x="8" y="-1290.5" font-family="Courier New" font-size="10.00">&#45; solveThread</text>
<polyline fill="none" stroke="black" points="0,-1283.5 185,-1283.5 "/>
<text text-anchor="start" x="8" y="-1271.5" font-family="Courier New" font-size="10.00">+ GetValues()</text>
<text text-anchor="start" x="8" y="-1260.5" font-family="Courier New" font-size="10.00">+ StartSimulation()</text>
<text text-anchor="start" x="8" y="-1249.5" font-family="Courier New" font-size="10.00">+ StopSimulation()</text>
<text text-anchor="start" x="8" y="-1238.5" font-family="Courier New" font-size="10.00">+ Awake()</text>
<text text-anchor="start" x="8" y="-1227.5" font-family="Courier New" font-size="10.00">+ Start()</text>
<text text-anchor="start" x="8" y="-1216.5" font-family="Courier New" font-size="10.00">+ Update()</text>
<text text-anchor="start" x="8" y="-1205.5" font-family="Courier New" font-size="10.00"># BuildVisualization()</text>
<text text-anchor="start" x="8" y="-1194.5" font-family="Courier New" font-size="10.00"># ReadData()</text>
<text text-anchor="start" x="8" y="-1183.5" font-family="Courier New" font-size="10.00"># UpdateVisualization()</text>
<text text-anchor="start" x="8" y="-1172.5" font-family="Courier New" font-size="10.00"># Solve()</text>
<text text-anchor="start" x="8" y="-1161.5" font-family="Courier New" font-size="10.00"># OnAwake()</text>
<text text-anchor="start" x="8" y="-1150.5" font-family="Courier New" font-size="10.00"># OnStart()</text>
<text text-anchor="start" x="8" y="-1139.5" font-family="Courier New" font-size="10.00"># OnUpdate()</text>
<text text-anchor="start" x="8" y="-1128.5" font-family="Courier New" font-size="10.00">&#45; OnApplicationPause()</text>
<text text-anchor="start" x="8" y="-1117.5" font-family="Courier New" font-size="10.00">&#45; OnApplicationQuit()</text>
</a>
</g>
</g>
<!-- Node4&#45;&gt;Node3 -->
<g id="edge3" class="edge"><title>Node4&#45;&gt;Node3</title>
<path fill="none" stroke="midnightblue" d="M160.477,-1101.15C179.502,-1060.05 199.337,-1017.21 215.35,-982.612"/>
<polygon fill="none" stroke="midnightblue" points="157.201,-1099.9 156.176,-1110.44 163.553,-1102.84 157.201,-1099.9"/>
</g>
<!-- Node5 -->
<g id="node5" class="node"><title>Node5</title>
<g id="a_node5"><a xlink:href="../../da/d4f/class_c2_m2_1_1_visualization_1_1_l_u_t_gradient.html" target="_top" xlink:title="Create a fast and memory&#45;friendly color lookup table from a gradient">
<polygon fill="white" stroke="black" points="203,-1165.5 203,-1332.5 400,-1332.5 400,-1165.5 203,-1165.5"/>
<text text-anchor="middle" x="301.5" y="-1320.5" font-family="Courier New" font-size="10.00">C2M2.Visualization.LUTGradient</text>
<polyline fill="none" stroke="black" points="203,-1313.5 400,-1313.5 "/>
<text text-anchor="start" x="211" y="-1301.5" font-family="Courier New" font-size="10.00">+ extremaMethod</text>
<text text-anchor="start" x="211" y="-1290.5" font-family="Courier New" font-size="10.00">+ globalMax</text>
<text text-anchor="start" x="211" y="-1279.5" font-family="Courier New" font-size="10.00">+ globalMin</text>
<text text-anchor="start" x="211" y="-1268.5" font-family="Courier New" font-size="10.00">+ LutRes</text>
<text text-anchor="start" x="211" y="-1257.5" font-family="Courier New" font-size="10.00">+ Gradient</text>
<text text-anchor="start" x="211" y="-1246.5" font-family="Courier New" font-size="10.00">+ gradientLUT</text>
<text text-anchor="start" x="211" y="-1235.5" font-family="Courier New" font-size="10.00">&#45; lutRes</text>
<text text-anchor="start" x="211" y="-1224.5" font-family="Courier New" font-size="10.00">&#45; gradient</text>
<polyline fill="none" stroke="black" points="203,-1217.5 400,-1217.5 "/>
<text text-anchor="start" x="211" y="-1205.5" font-family="Courier New" font-size="10.00">+ Evaluate()</text>
<text text-anchor="start" x="211" y="-1194.5" font-family="Courier New" font-size="10.00">+ Evaluate()</text>
<text text-anchor="start" x="211" y="-1183.5" font-family="Courier New" font-size="10.00">&#45; BuildLUT()</text>
<text text-anchor="start" x="211" y="-1172.5" font-family="Courier New" font-size="10.00">&#45; RescaleArray()</text>
</a>
</g>
</g>
<!-- Node5&#45;&gt;Node3 -->
<g id="edge4" class="edge"><title>Node5&#45;&gt;Node3</title>
<path fill="none" stroke="#404040" d="M265.193,-1165.29C256.672,-1142.04 248.821,-1116.42 244.5,-1092 237.452,-1052.17 243.602,-1041.43 244.5,-1001 244.545,-998.957 244.597,-996.889 244.653,-994.803"/>
<polygon fill="none" stroke="#404040" points="244.656,-994.707 240.842,-988.587 245.025,-982.713 248.839,-988.834 244.656,-994.707"/>
<text text-anchor="middle" x="290" y="-1044" font-family="Courier New" font-size="10.00"> +extremaMethod</text>
</g>
<!-- Node6 -->
<g id="node6" class="node"><title>Node6</title>
<g id="a_node6"><a xlink:title=" ">
<polygon fill="white" stroke="#bfbfbf" points="343,-1425.5 343,-1482.5 438,-1482.5 438,-1425.5 343,-1425.5"/>
<text text-anchor="middle" x="390.5" y="-1470.5" font-family="Courier New" font-size="10.00">MonoBehaviour</text>
<polyline fill="none" stroke="#bfbfbf" points="343,-1463.5 438,-1463.5 "/>
<text text-anchor="middle" x="390.5" y="-1451.5" font-family="Courier New" font-size="10.00"> </text>
<polyline fill="none" stroke="#bfbfbf" points="343,-1444.5 438,-1444.5 "/>
<text text-anchor="middle" x="390.5" y="-1432.5" font-family="Courier New" font-size="10.00"> </text>
</a>
</g>
</g>
<!-- Node6&#45;&gt;Node5 -->
<g id="edge5" class="edge"><title>Node6&#45;&gt;Node5</title>
<path fill="none" stroke="midnightblue" d="M374.29,-1416.03C364.064,-1392.7 350.434,-1361.61 337.734,-1332.65"/>
<polygon fill="none" stroke="midnightblue" points="371.091,-1417.45 378.312,-1425.2 377.502,-1414.64 371.091,-1417.45"/>
</g>
<!-- Node9 -->
<g id="node9" class="node"><title>Node9</title>
<g id="a_node9"><a xlink:href="../../dc/d72/class_c2_m2_1_1_utils_1_1_mesh_utils_1_1_mesh_col_controller.html" target="_top" xlink:title="Set this.mesh to quickly look up and update a MeshCollider&#39;s mesh">
<polygon fill="white" stroke="black" points="345,-1001.5 345,-1091.5 512,-1091.5 512,-1001.5 345,-1001.5"/>
<text text-anchor="start" x="353" y="-1079.5" font-family="Courier New" font-size="10.00">C2M2.Utils.MeshUtils.Mesh</text>
<text text-anchor="middle" x="428.5" y="-1068.5" font-family="Courier New" font-size="10.00">ColController</text>
<polyline fill="none" stroke="black" points="345,-1061.5 512,-1061.5 "/>
<text text-anchor="start" x="353" y="-1049.5" font-family="Courier New" font-size="10.00">+ meshCol</text>
<text text-anchor="start" x="353" y="-1038.5" font-family="Courier New" font-size="10.00">+ Mesh</text>
<text text-anchor="start" x="353" y="-1027.5" font-family="Courier New" font-size="10.00">&#45; mesh</text>
<polyline fill="none" stroke="black" points="345,-1020.5 512,-1020.5 "/>
<text text-anchor="middle" x="428.5" y="-1008.5" font-family="Courier New" font-size="10.00"> </text>
</a>
</g>
</g>
<!-- Node6&#45;&gt;Node9 -->
<g id="edge9" class="edge"><title>Node6&#45;&gt;Node9</title>
<path fill="none" stroke="midnightblue" d="M402.294,-1415.65C404.723,-1406.68 406.996,-1397.06 408.5,-1388 425.97,-1282.7 428.754,-1156.88 428.872,-1091.64"/>
<polygon fill="none" stroke="midnightblue" points="398.876,-1414.88 399.517,-1425.45 405.611,-1416.79 398.876,-1414.88"/>
</g>
<!-- Node7 -->
<g id="node7" class="node"><title>Node7</title>
<g id="a_node7"><a xlink:title=" ">
<polygon fill="white" stroke="#bfbfbf" points="529,-881.5 529,-938.5 570,-938.5 570,-881.5 529,-881.5"/>
<text text-anchor="middle" x="549.5" y="-926.5" font-family="Courier New" font-size="10.00">C2M2</text>
<polyline fill="none" stroke="#bfbfbf" points="529,-919.5 570,-919.5 "/>
<text text-anchor="middle" x="549.5" y="-907.5" font-family="Courier New" font-size="10.00"> </text>
<polyline fill="none" stroke="#bfbfbf" points="529,-900.5 570,-900.5 "/>
<text text-anchor="middle" x="549.5" y="-888.5" font-family="Courier New" font-size="10.00"> </text>
</a>
</g>
</g>
<!-- Node7&#45;&gt;Node2 -->
<g id="edge6" class="edge"><title>Node7&#45;&gt;Node2</title>
<path fill="none" stroke="#404040" d="M549.5,-881.26C549.5,-856.969 549.5,-819.425 549.5,-779.68"/>
<polygon fill="none" stroke="#404040" points="549.5,-779.572 545.5,-773.572 549.5,-767.572 553.5,-773.572 549.5,-779.572"/>
<text text-anchor="middle" x="574" y="-800" font-family="Courier New" font-size="10.00"> #grid1D</text>
</g>
<!-- Node8 -->
<g id="node8" class="node"><title>Node8</title>
<g id="a_node8"><a xlink:href="../../dd/d2a/struct_c2_m2_1_1_neuronal_dynamics_1_1_u_g_x_1_1_mapping_info.html" target="_top" xlink:title="Encapsulates the grids and mapping data">
<polygon fill="white" stroke="black" points="588,-865 588,-955 761,-955 761,-865 588,-865"/>
<text text-anchor="start" x="596" y="-943" font-family="Courier New" font-size="10.00">C2M2.NeuronalDynamics.UGX.</text>
<text text-anchor="middle" x="674.5" y="-932" font-family="Courier New" font-size="10.00">MappingInfo</text>
<polyline fill="none" stroke="black" points="588,-925 761,-925 "/>
<text text-anchor="start" x="596" y="-913" font-family="Courier New" font-size="10.00">+ ModelGeometry</text>
<text text-anchor="start" x="596" y="-902" font-family="Courier New" font-size="10.00">+ SurfaceGeometry</text>
<text text-anchor="start" x="596" y="-891" font-family="Courier New" font-size="10.00">+ Data</text>
<polyline fill="none" stroke="black" points="588,-884 761,-884 "/>
<text text-anchor="start" x="596" y="-872" font-family="Courier New" font-size="10.00">+ MappingInfo()</text>
</a>
</g>
</g>
<!-- Node8&#45;&gt;Node2 -->
<g id="edge7" class="edge"><title>Node8&#45;&gt;Node2</title>
<path fill="none" stroke="#404040" d="M656.457,-864.76C646.902,-841.329 634.471,-810.85 621.481,-778.998"/>
<polygon fill="none" stroke="#404040" points="621.399,-778.796 615.429,-774.751 616.867,-767.684 622.837,-771.73 621.399,-778.796"/>
<text text-anchor="middle" x="666" y="-800" font-family="Courier New" font-size="10.00"> &#45;mapping</text>
</g>
<!-- Node9&#45;&gt;Node2 -->
<g id="edge8" class="edge"><title>Node9&#45;&gt;Node2</title>
<path fill="none" stroke="#404040" d="M409.279,-1001.35C407.31,-995.285 405.623,-989.057 404.5,-983 392.671,-919.198 386.761,-899.417 404.5,-837 417.563,-791.036 442.488,-745.26 468.036,-706.516"/>
<polygon fill="none" stroke="#404040" points="468.204,-706.265 468.227,-699.054 474.892,-696.302 474.869,-703.513 468.204,-706.265"/>
<text text-anchor="middle" x="462" y="-907.5" font-family="Courier New" font-size="10.00"> &#45;meshColController</text>
</g>
<!-- Node10 -->
<g id="node10" class="node"><title>Node10</title>
<g id="a_node10"><a xlink:href="../../da/df6/class_c2_m2_1_1_neuronal_dynamics_1_1_u_g_x_1_1_neuron_cell.html" target="_top" xlink:title=" ">
<polygon fill="white" stroke="black" points="680,-501.5 680,-701.5 853,-701.5 853,-501.5 680,-501.5"/>
<text text-anchor="start" x="688" y="-689.5" font-family="Courier New" font-size="10.00">C2M2.NeuronalDynamics.UGX.</text>
<text text-anchor="middle" x="766.5" y="-678.5" font-family="Courier New" font-size="10.00">NeuronCell</text>
<polyline fill="none" stroke="black" points="680,-671.5 853,-671.5 "/>
<text text-anchor="start" x="688" y="-659.5" font-family="Courier New" font-size="10.00">+ nodeData</text>
<text text-anchor="start" x="688" y="-648.5" font-family="Courier New" font-size="10.00">+ edges</text>
<text text-anchor="start" x="688" y="-637.5" font-family="Courier New" font-size="10.00">+ edgeLengths</text>
<text text-anchor="start" x="688" y="-626.5" font-family="Courier New" font-size="10.00">+ boundaryID</text>
<text text-anchor="start" x="688" y="-615.5" font-family="Courier New" font-size="10.00">+ somaID</text>
<text text-anchor="start" x="688" y="-604.5" font-family="Courier New" font-size="10.00">+ vertCount</text>
<text text-anchor="start" x="688" y="-593.5" font-family="Courier New" font-size="10.00">+ edgeCount</text>
<polyline fill="none" stroke="black" points="680,-586.5 853,-586.5 "/>
<text text-anchor="start" x="688" y="-574.5" font-family="Courier New" font-size="10.00">+ NeuronCell()</text>
<text text-anchor="start" x="688" y="-563.5" font-family="Courier New" font-size="10.00">+ ReadDataTable()</text>
<text text-anchor="start" x="688" y="-552.5" font-family="Courier New" font-size="10.00">+ NodeToString()</text>
<text text-anchor="start" x="688" y="-541.5" font-family="Courier New" font-size="10.00">+ EdgeToString()</text>
<text text-anchor="start" x="688" y="-530.5" font-family="Courier New" font-size="10.00">+ ToString()</text>
<text text-anchor="start" x="688" y="-519.5" font-family="Courier New" font-size="10.00">&#45; NodeNeighborsToString()</text>
<text text-anchor="start" x="688" y="-508.5" font-family="Courier New" font-size="10.00">&#45; GetEdgeLength()</text>
</a>
</g>
</g>
<!-- Node10&#45;&gt;Node1 -->
<g id="edge10" class="edge"><title>Node10&#45;&gt;Node1</title>
<path fill="none" stroke="#404040" d="M745.462,-501.304C738.895,-470.337 731.393,-434.966 723.876,-399.522"/>
<polygon fill="none" stroke="#404040" points="723.817,-399.244 718.659,-394.205 721.327,-387.505 726.485,-392.545 723.817,-399.244"/>
<text text-anchor="middle" x="751" y="-409" font-family="Courier New" font-size="10.00"> &#45;myCell</text>
</g>
<!-- Node11 -->
<g id="node11" class="node"><title>Node11</title>
<g id="a_node11"><a xlink:title=" ">
<polygon fill="white" stroke="#bfbfbf" points="779,-881.5 779,-938.5 832,-938.5 832,-881.5 779,-881.5"/>
<text text-anchor="middle" x="805.5" y="-926.5" font-family="Courier New" font-size="10.00">static</text>
<polyline fill="none" stroke="#bfbfbf" points="779,-919.5 832,-919.5 "/>
<text text-anchor="middle" x="805.5" y="-907.5" font-family="Courier New" font-size="10.00"> </text>
<polyline fill="none" stroke="#bfbfbf" points="779,-900.5 832,-900.5 "/>
<text text-anchor="middle" x="805.5" y="-888.5" font-family="Courier New" font-size="10.00"> </text>
</a>
</g>
</g>
<!-- Node11&#45;&gt;Node10 -->
<g id="edge11" class="edge"><title>Node11&#45;&gt;Node10</title>
<path fill="none" stroke="#404040" d="M801.97,-881.26C797.171,-843.545 788.307,-773.88 780.641,-713.631"/>
<polygon fill="none" stroke="#404040" points="780.64,-713.623 775.914,-708.176 779.125,-701.719 783.85,-707.166 780.64,-713.623"/>
<text text-anchor="middle" x="849" y="-811" font-family="Courier New" font-size="10.00"> &#45;nodeFormatString</text>
<text text-anchor="middle" x="849" y="-800" font-family="Courier New" font-size="10.00">&#45;edgeFormatString</text>
<text text-anchor="middle" x="849" y="-789" font-family="Courier New" font-size="10.00">&#45;cellFormatString</text>
</g>
</g>
</svg>
