<?xml version="1.0" encoding="UTF-8" standalone="no"?>
<!DOCTYPE svg PUBLIC "-//W3C//DTD SVG 1.1//EN"
 "http://www.w3.org/Graphics/SVG/1.1/DTD/svg11.dtd">
<!-- Generated by graphviz version 2.38.0 (20140413.2041)
 -->
<!-- Title: C2M2.Interaction.RaycastSimHeaterContinuous Pages: 1 -->
<svg width="181pt" height="353pt"
 viewBox="0.00 0.00 181.00 353.00" xmlns="http://www.w3.org/2000/svg" xmlns:xlink="http://www.w3.org/1999/xlink">
<g id="graph0" class="graph" transform="scale(1 1) rotate(0) translate(4 349)">
<title>C2M2.Interaction.RaycastSimHeaterContinuous</title>
<polygon fill="white" stroke="none" points="-4,4 -4,-349 177,-349 177,4 -4,4"/>
<!-- Node1 -->
<g id="node1" class="node"><title>Node1</title>
<g id="a_node1"><a xlink:title=" ">
<polygon fill="#bfbfbf" stroke="black" points="0,-0.5 0,-123.5 173,-123.5 173,-0.5 0,-0.5"/>
<text text-anchor="start" x="8" y="-111.5" font-family="Courier New" font-size="10.00">C2M2.Interaction.Raycast</text>
<text text-anchor="middle" x="86.5" y="-100.5" font-family="Courier New" font-size="10.00">SimHeaterContinuous</text>
<polyline fill="none" stroke="black" points="0,-93.5 173,-93.5 "/>
<text text-anchor="start" x="8" y="-81.5" font-family="Courier New" font-size="10.00">&#45; dijkstraSearch</text>
<text text-anchor="start" x="8" y="-70.5" font-family="Courier New" font-size="10.00">&#45; gaussian</text>
<text text-anchor="start" x="8" y="-59.5" font-family="Courier New" font-size="10.00">&#45; uniqueVerts</text>
<polyline fill="none" stroke="black" points="0,-52.5 173,-52.5 "/>
<text text-anchor="start" x="8" y="-40.5" font-family="Courier New" font-size="10.00">+ SetWarmCoolHands()</text>
<text text-anchor="start" x="8" y="-29.5" font-family="Courier New" font-size="10.00">+ RaycastersDefaultColor()</text>
<text text-anchor="start" x="8" y="-18.5" font-family="Courier New" font-size="10.00"># OnAwake()</text>
<text text-anchor="start" x="8" y="-7.5" font-family="Courier New" font-size="10.00"># HitMethod()</text>
</a>
</g>
</g>
<!-- Node2 -->
<g id="node2" class="node"><title>Node2</title>
<g id="a_node2"><a xlink:href="../../dc/d54/class_c2_m2_1_1_interaction_1_1_raycast_heater.html" target="_top" xlink:title=" ">
<polygon fill="white" stroke="black" points="39,-160.5 39,-250.5 134,-250.5 134,-160.5 39,-160.5"/>
<text text-anchor="middle" x="86.5" y="-238.5" font-family="Courier New" font-size="10.00">RaycastHeater</text>
<polyline fill="none" stroke="black" points="39,-231.5 134,-231.5 "/>
<text text-anchor="start" x="47" y="-219.5" font-family="Courier New" font-size="10.00"># simulation</text>
<polyline fill="none" stroke="black" points="39,-212.5 134,-212.5 "/>
<text text-anchor="start" x="47" y="-200.5" font-family="Courier New" font-size="10.00">+ Hit()</text>
<text text-anchor="start" x="47" y="-189.5" font-family="Courier New" font-size="10.00"># OnAwake()</text>
<text text-anchor="start" x="47" y="-178.5" font-family="Courier New" font-size="10.00"># HitMethod()</text>
<text text-anchor="start" x="47" y="-167.5" font-family="Courier New" font-size="10.00">&#45; Awake()</text>
</a>
</g>
</g>
<!-- Node2&#45;&gt;Node1 -->
<g id="edge1" class="edge"><title>Node2&#45;&gt;Node1</title>
<path fill="none" stroke="midnightblue" d="M86.5,-150.11C86.5,-141.421 86.5,-132.383 86.5,-123.561"/>
<polygon fill="none" stroke="midnightblue" points="83.0001,-150.117 86.5,-160.117 90.0001,-150.117 83.0001,-150.117"/>
</g>
<!-- Node3 -->
<g id="node3" class="node"><title>Node3</title>
<g id="a_node3"><a xlink:title=" ">
<polygon fill="white" stroke="#bfbfbf" points="39,-287.5 39,-344.5 134,-344.5 134,-287.5 39,-287.5"/>
<text text-anchor="middle" x="86.5" y="-332.5" font-family="Courier New" font-size="10.00">MonoBehaviour</text>
<polyline fill="none" stroke="#bfbfbf" points="39,-325.5 134,-325.5 "/>
<text text-anchor="middle" x="86.5" y="-313.5" font-family="Courier New" font-size="10.00"> </text>
<polyline fill="none" stroke="#bfbfbf" points="39,-306.5 134,-306.5 "/>
<text text-anchor="middle" x="86.5" y="-294.5" font-family="Courier New" font-size="10.00"> </text>
</a>
</g>
</g>
<!-- Node3&#45;&gt;Node2 -->
<g id="edge2" class="edge"><title>Node3&#45;&gt;Node2</title>
<path fill="none" stroke="midnightblue" d="M86.5,-277.214C86.5,-268.609 86.5,-259.394 86.5,-250.554"/>
<polygon fill="none" stroke="midnightblue" points="83.0001,-277.34 86.5,-287.34 90.0001,-277.34 83.0001,-277.34"/>
</g>
</g>
</svg>
