<?xml version="1.0" encoding="UTF-8" standalone="no"?>
<!DOCTYPE svg PUBLIC "-//W3C//DTD SVG 1.1//EN"
 "http://www.w3.org/Graphics/SVG/1.1/DTD/svg11.dtd">
<!-- Generated by graphviz version 2.38.0 (20140413.2041)
 -->
<!-- Title: C2M2.RaycastForward Pages: 1 -->
<svg width="175pt" height="468pt"
 viewBox="0.00 0.00 175.00 468.00" xmlns="http://www.w3.org/2000/svg" xmlns:xlink="http://www.w3.org/1999/xlink">
<g id="graph0" class="graph" transform="scale(1 1) rotate(0) translate(4 464)">
<title>C2M2.RaycastForward</title>
<polygon fill="white" stroke="none" points="-4,4 -4,-464 171,-464 171,4 -4,4"/>
<!-- Node1 -->
<g id="node1" class="node"><title>Node1</title>
<g id="a_node1"><a xlink:title=" ">
<polygon fill="#bfbfbf" stroke="black" points="0,-0.5 0,-365.5 167,-365.5 167,-0.5 0,-0.5"/>
<text text-anchor="middle" x="83.5" y="-353.5" font-family="Courier New" font-size="10.00">C2M2.RaycastForward</text>
<polyline fill="none" stroke="black" points="0,-346.5 167,-346.5 "/>
<text text-anchor="start" x="8" y="-334.5" font-family="Courier New" font-size="10.00">+ rightHand</text>
<text text-anchor="start" x="8" y="-323.5" font-family="Courier New" font-size="10.00">+ raycastController</text>
<text text-anchor="start" x="8" y="-312.5" font-family="Courier New" font-size="10.00">+ raycastButton</text>
<text text-anchor="start" x="8" y="-301.5" font-family="Courier New" font-size="10.00">+ triggerButton</text>
<text text-anchor="start" x="8" y="-290.5" font-family="Courier New" font-size="10.00">+ layerMask</text>
<text text-anchor="start" x="8" y="-279.5" font-family="Courier New" font-size="10.00">+ staticIndexRenderer</text>
<text text-anchor="start" x="8" y="-268.5" font-family="Courier New" font-size="10.00">+ staticHandObject</text>
<text text-anchor="start" x="8" y="-257.5" font-family="Courier New" font-size="10.00">+ defaultHandObject</text>
<text text-anchor="start" x="8" y="-246.5" font-family="Courier New" font-size="10.00">+ minHitDist</text>
<text text-anchor="start" x="8" y="-235.5" font-family="Courier New" font-size="10.00">+ hysteresisDist</text>
<text text-anchor="start" x="8" y="-224.5" font-family="Courier New" font-size="10.00">and 10 more...</text>
<text text-anchor="start" x="8" y="-213.5" font-family="Courier New" font-size="10.00">&#45; activeTriggerManager</text>
<text text-anchor="start" x="8" y="-202.5" font-family="Courier New" font-size="10.00">&#45; activeObjectID</text>
<text text-anchor="start" x="8" y="-191.5" font-family="Courier New" font-size="10.00">&#45; valid</text>
<text text-anchor="start" x="8" y="-180.5" font-family="Courier New" font-size="10.00">&#45; clicked</text>
<text text-anchor="start" x="8" y="-169.5" font-family="Courier New" font-size="10.00">&#45; touched</text>
<text text-anchor="start" x="8" y="-158.5" font-family="Courier New" font-size="10.00">&#45; hitTriggered</text>
<text text-anchor="start" x="8" y="-147.5" font-family="Courier New" font-size="10.00">&#45; holdTriggered</text>
<text text-anchor="start" x="8" y="-136.5" font-family="Courier New" font-size="10.00">&#45; endTriggered</text>
<text text-anchor="start" x="8" y="-125.5" font-family="Courier New" font-size="10.00">&#45; validHitEvent</text>
<text text-anchor="start" x="8" y="-114.5" font-family="Courier New" font-size="10.00">&#45; validHoldEvent</text>
<text text-anchor="start" x="8" y="-103.5" font-family="Courier New" font-size="10.00">&#45; validEndEvent</text>
<text text-anchor="start" x="8" y="-92.5" font-family="Courier New" font-size="10.00">&#45; relativeForward</text>
<text text-anchor="start" x="8" y="-81.5" font-family="Courier New" font-size="10.00">&#45; lineRend</text>
<text text-anchor="start" x="8" y="-70.5" font-family="Courier New" font-size="10.00">&#45; invisible</text>
<text text-anchor="start" x="8" y="-59.5" font-family="Courier New" font-size="10.00">&#45; currentState</text>
<polyline fill="none" stroke="black" points="0,-52.5 167,-52.5 "/>
<text text-anchor="start" x="8" y="-40.5" font-family="Courier New" font-size="10.00">+ ChangeStaticHandColor()</text>
<text text-anchor="start" x="8" y="-29.5" font-family="Courier New" font-size="10.00">&#45; Start()</text>
<text text-anchor="start" x="8" y="-18.5" font-family="Courier New" font-size="10.00">&#45; FixedUpdate()</text>
<text text-anchor="start" x="8" y="-7.5" font-family="Courier New" font-size="10.00">&#45; TryRaycastHit()</text>
</a>
</g>
</g>
<!-- Node2 -->
<g id="node2" class="node"><title>Node2</title>
<g id="a_node2"><a xlink:title=" ">
<polygon fill="white" stroke="#bfbfbf" points="36,-402.5 36,-459.5 131,-459.5 131,-402.5 36,-402.5"/>
<text text-anchor="middle" x="83.5" y="-447.5" font-family="Courier New" font-size="10.00">MonoBehaviour</text>
<polyline fill="none" stroke="#bfbfbf" points="36,-440.5 131,-440.5 "/>
<text text-anchor="middle" x="83.5" y="-428.5" font-family="Courier New" font-size="10.00"> </text>
<polyline fill="none" stroke="#bfbfbf" points="36,-421.5 131,-421.5 "/>
<text text-anchor="middle" x="83.5" y="-409.5" font-family="Courier New" font-size="10.00"> </text>
</a>
</g>
</g>
<!-- Node2&#45;&gt;Node1 -->
<g id="edge1" class="edge"><title>Node2&#45;&gt;Node1</title>
<path fill="none" stroke="midnightblue" d="M83.5,-392.023C83.5,-384.073 83.5,-375.195 83.5,-365.708"/>
<polygon fill="none" stroke="midnightblue" points="80.0001,-392.259 83.5,-402.259 87.0001,-392.259 80.0001,-392.259"/>
</g>
</g>
</svg>
