<?xml version="1.0" encoding="UTF-8" standalone="no"?>
<!DOCTYPE svg PUBLIC "-//W3C//DTD SVG 1.1//EN"
 "http://www.w3.org/Graphics/SVG/1.1/DTD/svg11.dtd">
<!-- Generated by graphviz version 2.38.0 (20140413.2041)
 -->
<!-- Title: C2M2.NeuronalDynamics.Simulation.CellSolver2FullAP Pages: 1 -->
<!--zoomable 1312 -->
<svg id="main" version="1.1" xmlns="http://www.w3.org/2000/svg" xmlns:xlink="http://www.w3.org/1999/xlink" xml:space="preserve" onload="init(evt)">
<style type="text/css"><![CDATA[
.edge:hover path { stroke: red; }
.edge:hover polygon { stroke: red; fill: red; }
]]></style>
<script type="text/javascript"><![CDATA[
var edges = document.getElementsByTagName('g');
if (edges && edges.length) {
  for (var i=0;i<edges.length;i++) {
    if (edges[i].id.substr(0,4)=='edge') {
      edges[i].setAttribute('class','edge');
    }
  }
}
]]></script>
        <defs>
                <circle id="rim" cx="0" cy="0" r="7"/>
                <circle id="rim2" cx="0" cy="0" r="3.5"/>
                <g id="zoomPlus">
                        <use xlink:href="#rim" fill="#404040">
                                <set attributeName="fill" to="#808080" begin="zoomplus.mouseover" end="zoomplus.mouseout"/>
                        </use>
                        <path d="M-4,0h8M0,-4v8" fill="none" stroke="white" stroke-width="1.5" pointer-events="none"/>
                </g>
                <g id="zoomMin">
                        <use xlink:href="#rim" fill="#404040">
                                <set attributeName="fill" to="#808080" begin="zoomminus.mouseover" end="zoomminus.mouseout"/>
                        </use>
                        <path d="M-4,0h8" fill="none" stroke="white" stroke-width="1.5" pointer-events="none"/>
                </g>
                <g id="dirArrow">
                        <path fill="none" stroke="white" stroke-width="1.5" d="M0,-3.0v7 M-2.5,-0.5L0,-3.0L2.5,-0.5"/>
                </g>
               <g id="resetDef">
                       <use xlink:href="#rim2" fill="#404040">
                               <set attributeName="fill" to="#808080" begin="reset.mouseover" end="reset.mouseout"/>
                       </use>
               </g>
        </defs>

<script type="text/javascript">
var viewWidth = 452;
var viewHeight = 1312;
var sectionId = 'dynsection-1';
</script>
<script xlink:href="../../svgpan.js"/>
<svg id="graph" class="graph">
<g id="viewport">
<title>C2M2.NeuronalDynamics.Simulation.CellSolver2FullAP</title>
<polygon fill="white" stroke="none" points="-4,4 -4,-1308 447.5,-1308 447.5,4 -4,4"/>
<!-- Node1 -->
<g id="node1" class="node"><title>Node1</title>
<g id="a_node1"><a xlink:title=" ">
<polygon fill="#bfbfbf" stroke="black" points="155,-0.5 155,-453.5 370,-453.5 370,-0.5 155,-0.5"/>
<text text-anchor="start" x="163" y="-441.5" font-family="Courier New" font-size="10.00">C2M2.NeuronalDynamics.Simulation.</text>
<text text-anchor="middle" x="262.5" y="-430.5" font-family="Courier New" font-size="10.00">CellSolver2FullAP</text>
<polyline fill="none" stroke="black" points="155,-423.5 370,-423.5 "/>
<text text-anchor="start" x="163" y="-411.5" font-family="Courier New" font-size="10.00">+ res</text>
<text text-anchor="start" x="163" y="-400.5" font-family="Courier New" font-size="10.00">+ gk</text>
<text text-anchor="start" x="163" y="-389.5" font-family="Courier New" font-size="10.00">+ gna</text>
<text text-anchor="start" x="163" y="-378.5" font-family="Courier New" font-size="10.00">+ gl</text>
<text text-anchor="start" x="163" y="-367.5" font-family="Courier New" font-size="10.00">+ ek</text>
<text text-anchor="start" x="163" y="-356.5" font-family="Courier New" font-size="10.00">+ ena</text>
<text text-anchor="start" x="163" y="-345.5" font-family="Courier New" font-size="10.00">+ el</text>
<text text-anchor="start" x="163" y="-334.5" font-family="Courier New" font-size="10.00">+ cap</text>
<text text-anchor="start" x="163" y="-323.5" font-family="Courier New" font-size="10.00">+ ni</text>
<text text-anchor="start" x="163" y="-312.5" font-family="Courier New" font-size="10.00">+ nT</text>
<text text-anchor="start" x="163" y="-301.5" font-family="Courier New" font-size="10.00">+ endTime</text>
<text text-anchor="start" x="163" y="-290.5" font-family="Courier New" font-size="10.00">+ vstart</text>
<text text-anchor="start" x="163" y="-279.5" font-family="Courier New" font-size="10.00">&#45; U</text>
<text text-anchor="start" x="163" y="-268.5" font-family="Courier New" font-size="10.00">&#45; M</text>
<text text-anchor="start" x="163" y="-257.5" font-family="Courier New" font-size="10.00">&#45; N</text>
<text text-anchor="start" x="163" y="-246.5" font-family="Courier New" font-size="10.00">&#45; H</text>
<text text-anchor="start" x="163" y="-235.5" font-family="Courier New" font-size="10.00">&#45; i</text>
<text text-anchor="start" x="163" y="-224.5" font-family="Courier New" font-size="10.00">&#45; mi</text>
<text text-anchor="start" x="163" y="-213.5" font-family="Courier New" font-size="10.00">&#45; hi</text>
<polyline fill="none" stroke="black" points="155,-206.5 370,-206.5 "/>
<text text-anchor="start" x="163" y="-194.5" font-family="Courier New" font-size="10.00">+ initialConditions()</text>
<text text-anchor="start" x="163" y="-183.5" font-family="Courier New" font-size="10.00">+ boundaryConditions()</text>
<text text-anchor="start" x="163" y="-172.5" font-family="Courier New" font-size="10.00">+ setBC()</text>
<text text-anchor="start" x="163" y="-161.5" font-family="Courier New" font-size="10.00">+ updateBC()</text>
<text text-anchor="start" x="163" y="-150.5" font-family="Courier New" font-size="10.00"># SetNeuronCell()</text>
<text text-anchor="start" x="163" y="-139.5" font-family="Courier New" font-size="10.00"># Get1DValues()</text>
<text text-anchor="start" x="163" y="-128.5" font-family="Courier New" font-size="10.00"># Set1DValues()</text>
<text text-anchor="start" x="163" y="-117.5" font-family="Courier New" font-size="10.00"># Solve()</text>
<text text-anchor="start" x="163" y="-106.5" font-family="Courier New" font-size="10.00">&#45; reactF()</text>
<text text-anchor="start" x="163" y="-95.5" font-family="Courier New" font-size="10.00">&#45; fN()</text>
<text text-anchor="start" x="163" y="-84.5" font-family="Courier New" font-size="10.00">&#45; fM()</text>
<text text-anchor="start" x="163" y="-73.5" font-family="Courier New" font-size="10.00">&#45; fH()</text>
<text text-anchor="start" x="163" y="-62.5" font-family="Courier New" font-size="10.00">&#45; an()</text>
<text text-anchor="start" x="163" y="-51.5" font-family="Courier New" font-size="10.00">&#45; bn()</text>
<text text-anchor="start" x="163" y="-40.5" font-family="Courier New" font-size="10.00">&#45; am()</text>
<text text-anchor="start" x="163" y="-29.5" font-family="Courier New" font-size="10.00">&#45; bm()</text>
<text text-anchor="start" x="163" y="-18.5" font-family="Courier New" font-size="10.00">&#45; ah()</text>
<text text-anchor="start" x="163" y="-7.5" font-family="Courier New" font-size="10.00">&#45; bh()</text>
</a>
</g>
</g>
<!-- Node2 -->
<g id="node2" class="node"><title>Node2</title>
<g id="a_node2"><a xlink:href="../../d4/d5a/class_c2_m2_1_1_neuronal_dynamics_1_1_simulation_1_1_neuron_simulation1_d.html" target="_top" xlink:title="Provide an interface for 1D neuron&#45;surface simulations to be visualized and interacted with">
<polygon fill="white" stroke="black" points="81,-501.5 81,-723.5 230,-723.5 230,-501.5 81,-501.5"/>
<text text-anchor="middle" x="155.5" y="-711.5" font-family="Courier New" font-size="10.00">NeuronSimulation1D</text>
<polyline fill="none" stroke="black" points="81,-704.5 230,-704.5 "/>
<text text-anchor="start" x="89" y="-692.5" font-family="Courier New" font-size="10.00">+ visualize1D</text>
<text text-anchor="start" x="89" y="-681.5" font-family="Courier New" font-size="10.00">+ color1D</text>
<text text-anchor="start" x="89" y="-670.5" font-family="Courier New" font-size="10.00">+ lineWidth1D</text>
<text text-anchor="start" x="89" y="-659.5" font-family="Courier New" font-size="10.00">&#45; map</text>
<text text-anchor="start" x="89" y="-648.5" font-family="Courier New" font-size="10.00">&#45; neuronCellFolder</text>
<text text-anchor="start" x="89" y="-637.5" font-family="Courier New" font-size="10.00">&#45; activeCellFolder</text>
<text text-anchor="start" x="89" y="-626.5" font-family="Courier New" font-size="10.00">&#45; ugxExt</text>
<text text-anchor="start" x="89" y="-615.5" font-family="Courier New" font-size="10.00">&#45; cngExt</text>
<text text-anchor="start" x="89" y="-604.5" font-family="Courier New" font-size="10.00">&#45; spec1D</text>
<text text-anchor="start" x="89" y="-593.5" font-family="Courier New" font-size="10.00">&#45; specTris</text>
<text text-anchor="start" x="89" y="-582.5" font-family="Courier New" font-size="10.00">&#45; specBlownup</text>
<polyline fill="none" stroke="black" points="81,-575.5 230,-575.5 "/>
<text text-anchor="start" x="89" y="-563.5" font-family="Courier New" font-size="10.00">+ GetValues()</text>
<text text-anchor="start" x="89" y="-552.5" font-family="Courier New" font-size="10.00">+ SetValues()</text>
<text text-anchor="start" x="89" y="-541.5" font-family="Courier New" font-size="10.00"># Set1DValues()</text>
<text text-anchor="start" x="89" y="-530.5" font-family="Courier New" font-size="10.00"># Get1DValues()</text>
<text text-anchor="start" x="89" y="-519.5" font-family="Courier New" font-size="10.00"># SetNeuronCell()</text>
<text text-anchor="start" x="89" y="-508.5" font-family="Courier New" font-size="10.00"># BuildVisualization()</text>
</a>
</g>
</g>
<!-- Node2&#45;&gt;Node1 -->
<g id="edge1" class="edge"><title>Node2&#45;&gt;Node1</title>
<path fill="none" stroke="midnightblue" d="M188.94,-491.647C192.35,-479.425 195.888,-466.746 199.484,-453.855"/>
<polygon fill="none" stroke="midnightblue" points="185.55,-490.775 186.234,-501.347 192.292,-492.656 185.55,-490.775"/>
</g>
<!-- Node3 -->
<g id="node3" class="node"><title>Node3</title>
<g id="a_node3"><a xlink:href="../../d4/de1/class_c2_m2_1_1_simulation_1_1_surface_simulation.html" target="_top" xlink:title="Simulation of type double[] for visualizing scalar fields on mesh surfaces">
<polygon fill="white" stroke="black" points="16,-793.5 16,-927.5 171,-927.5 171,-793.5 16,-793.5"/>
<text text-anchor="middle" x="93.5" y="-915.5" font-family="Courier New" font-size="10.00">SurfaceSimulation</text>
<polyline fill="none" stroke="black" points="16,-908.5 171,-908.5 "/>
<text text-anchor="start" x="24" y="-896.5" font-family="Courier New" font-size="10.00">+ gradient</text>
<text text-anchor="start" x="24" y="-885.5" font-family="Courier New" font-size="10.00">+ globalMax</text>
<text text-anchor="start" x="24" y="-874.5" font-family="Courier New" font-size="10.00">+ globalMin</text>
<text text-anchor="start" x="24" y="-863.5" font-family="Courier New" font-size="10.00">+ colorLUT</text>
<text text-anchor="start" x="24" y="-852.5" font-family="Courier New" font-size="10.00">&#45; mf</text>
<text text-anchor="start" x="24" y="-841.5" font-family="Courier New" font-size="10.00">&#45; mr</text>
<polyline fill="none" stroke="black" points="16,-834.5 171,-834.5 "/>
<text text-anchor="start" x="24" y="-822.5" font-family="Courier New" font-size="10.00"># UpdateVisualization()</text>
<text text-anchor="start" x="24" y="-811.5" font-family="Courier New" font-size="10.00"># OnAwake()</text>
<text text-anchor="start" x="24" y="-800.5" font-family="Courier New" font-size="10.00">&#45; UpdateVisualization()</text>
</a>
</g>
</g>
<!-- Node3&#45;&gt;Node2 -->
<g id="edge2" class="edge"><title>Node3&#45;&gt;Node2</title>
<path fill="none" stroke="midnightblue" d="M112.654,-783.5C117.438,-764.521 122.664,-743.784 127.771,-723.523"/>
<polygon fill="none" stroke="midnightblue" points="109.247,-782.701 110.196,-793.253 116.034,-784.412 109.247,-782.701"/>
</g>
<!-- Node4 -->
<g id="node4" class="node"><title>Node4</title>
<g id="a_node4"><a xlink:href="../../db/d39/class_c2_m2_1_1_simulation_1_1_simulation.html" target="_top" xlink:title=" ">
<polygon fill="white" stroke="black" points="0,-975.5 0,-1208.5 155,-1208.5 155,-975.5 0,-975.5"/>
<text text-anchor="start" x="8" y="-1196.5" font-family="Courier New" font-size="10.00">Simulation&lt; double</text>
<text text-anchor="middle" x="77.5" y="-1185.5" font-family="Courier New" font-size="10.00">[], Mesh &gt;</text>
<polyline fill="none" stroke="black" points="0,-1178.5 155,-1178.5 "/>
<text text-anchor="start" x="8" y="-1166.5" font-family="Courier New" font-size="10.00">+ startOnAwake</text>
<text text-anchor="start" x="8" y="-1155.5" font-family="Courier New" font-size="10.00"># mutex</text>
<text text-anchor="start" x="8" y="-1144.5" font-family="Courier New" font-size="10.00">&#45; solveThread</text>
<polyline fill="none" stroke="black" points="0,-1137.5 155,-1137.5 "/>
<text text-anchor="start" x="8" y="-1125.5" font-family="Courier New" font-size="10.00">+ GetValues()</text>
<text text-anchor="start" x="8" y="-1114.5" font-family="Courier New" font-size="10.00">+ StartSimulation()</text>
<text text-anchor="start" x="8" y="-1103.5" font-family="Courier New" font-size="10.00">+ StopSimulation()</text>
<text text-anchor="start" x="8" y="-1092.5" font-family="Courier New" font-size="10.00">+ Awake()</text>
<text text-anchor="start" x="8" y="-1081.5" font-family="Courier New" font-size="10.00">+ Start()</text>
<text text-anchor="start" x="8" y="-1070.5" font-family="Courier New" font-size="10.00">+ Update()</text>
<text text-anchor="start" x="8" y="-1059.5" font-family="Courier New" font-size="10.00"># BuildVisualization()</text>
<text text-anchor="start" x="8" y="-1048.5" font-family="Courier New" font-size="10.00"># UpdateVisualization()</text>
<text text-anchor="start" x="8" y="-1037.5" font-family="Courier New" font-size="10.00"># Solve()</text>
<text text-anchor="start" x="8" y="-1026.5" font-family="Courier New" font-size="10.00"># OnAwake()</text>
<text text-anchor="start" x="8" y="-1015.5" font-family="Courier New" font-size="10.00"># OnStart()</text>
<text text-anchor="start" x="8" y="-1004.5" font-family="Courier New" font-size="10.00"># OnUpdate()</text>
<text text-anchor="start" x="8" y="-993.5" font-family="Courier New" font-size="10.00">&#45; OnApplicationPause()</text>
<text text-anchor="start" x="8" y="-982.5" font-family="Courier New" font-size="10.00">&#45; OnApplicationQuit()</text>
</a>
</g>
</g>
<!-- Node4&#45;&gt;Node3 -->
<g id="edge3" class="edge"><title>Node4&#45;&gt;Node3</title>
<path fill="none" stroke="midnightblue" d="M86.2916,-964.895C87.1886,-952.029 88.0721,-939.356 88.8966,-927.53"/>
<polygon fill="none" stroke="midnightblue" points="82.7744,-965.022 85.5703,-975.241 89.7574,-965.509 82.7744,-965.022"/>
</g>
<!-- Node5 -->
<g id="node5" class="node"><title>Node5</title>
<g id="a_node5"><a xlink:href="../../da/d4f/class_c2_m2_1_1_visualization_1_1_l_u_t_gradient.html" target="_top" xlink:title="Create a fast and memory&#45;friendly color lookup table from a gradient">
<polygon fill="white" stroke="black" points="173,-1008.5 173,-1175.5 370,-1175.5 370,-1008.5 173,-1008.5"/>
<text text-anchor="middle" x="271.5" y="-1163.5" font-family="Courier New" font-size="10.00">C2M2.Visualization.LUTGradient</text>
<polyline fill="none" stroke="black" points="173,-1156.5 370,-1156.5 "/>
<text text-anchor="start" x="181" y="-1144.5" font-family="Courier New" font-size="10.00">+ extremaMethod</text>
<text text-anchor="start" x="181" y="-1133.5" font-family="Courier New" font-size="10.00">+ globalMax</text>
<text text-anchor="start" x="181" y="-1122.5" font-family="Courier New" font-size="10.00">+ globalMin</text>
<text text-anchor="start" x="181" y="-1111.5" font-family="Courier New" font-size="10.00">+ LutRes</text>
<text text-anchor="start" x="181" y="-1100.5" font-family="Courier New" font-size="10.00">+ Gradient</text>
<text text-anchor="start" x="181" y="-1089.5" font-family="Courier New" font-size="10.00">+ gradientLUT</text>
<text text-anchor="start" x="181" y="-1078.5" font-family="Courier New" font-size="10.00">&#45; lutRes</text>
<text text-anchor="start" x="181" y="-1067.5" font-family="Courier New" font-size="10.00">&#45; gradient</text>
<polyline fill="none" stroke="black" points="173,-1060.5 370,-1060.5 "/>
<text text-anchor="start" x="181" y="-1048.5" font-family="Courier New" font-size="10.00">+ Evaluate()</text>
<text text-anchor="start" x="181" y="-1037.5" font-family="Courier New" font-size="10.00">+ Evaluate()</text>
<text text-anchor="start" x="181" y="-1026.5" font-family="Courier New" font-size="10.00">&#45; BuildLUT()</text>
<text text-anchor="start" x="181" y="-1015.5" font-family="Courier New" font-size="10.00">&#45; RescaleArray()</text>
</a>
</g>
</g>
<!-- Node5&#45;&gt;Node3 -->
<g id="edge4" class="edge"><title>Node5&#45;&gt;Node3</title>
<path fill="none" stroke="#404040" d="M207.489,-1008.47C189.437,-985.194 169.891,-959.993 152.169,-937.143"/>
<polygon fill="none" stroke="#404040" points="152.049,-936.989 145.211,-934.699 144.694,-927.506 151.532,-929.796 152.049,-936.989"/>
<text text-anchor="middle" x="213" y="-949" font-family="Courier New" font-size="10.00"> +extremaMethod</text>
</g>
<!-- Node6 -->
<g id="node6" class="node"><title>Node6</title>
<g id="a_node6"><a xlink:title=" ">
<polygon fill="white" stroke="#bfbfbf" points="224,-1246.5 224,-1303.5 319,-1303.5 319,-1246.5 224,-1246.5"/>
<text text-anchor="middle" x="271.5" y="-1291.5" font-family="Courier New" font-size="10.00">MonoBehaviour</text>
<polyline fill="none" stroke="#bfbfbf" points="224,-1284.5 319,-1284.5 "/>
<text text-anchor="middle" x="271.5" y="-1272.5" font-family="Courier New" font-size="10.00"> </text>
<polyline fill="none" stroke="#bfbfbf" points="224,-1265.5 319,-1265.5 "/>
<text text-anchor="middle" x="271.5" y="-1253.5" font-family="Courier New" font-size="10.00"> </text>
</a>
</g>
</g>
<!-- Node6&#45;&gt;Node5 -->
<g id="edge5" class="edge"><title>Node6&#45;&gt;Node5</title>
<path fill="none" stroke="midnightblue" d="M271.5,-1235.75C271.5,-1218.22 271.5,-1196.71 271.5,-1175.75"/>
<polygon fill="none" stroke="midnightblue" points="268,-1236.12 271.5,-1246.12 275,-1236.12 268,-1236.12"/>
</g>
<!-- Node7 -->
<g id="node7" class="node"><title>Node7</title>
<g id="a_node7"><a xlink:title=" ">
<polygon fill="white" stroke="#bfbfbf" points="189,-832 189,-889 230,-889 230,-832 189,-832"/>
<text text-anchor="middle" x="209.5" y="-877" font-family="Courier New" font-size="10.00">C2M2</text>
<polyline fill="none" stroke="#bfbfbf" points="189,-870 230,-870 "/>
<text text-anchor="middle" x="209.5" y="-858" font-family="Courier New" font-size="10.00"> </text>
<polyline fill="none" stroke="#bfbfbf" points="189,-851 230,-851 "/>
<text text-anchor="middle" x="209.5" y="-839" font-family="Courier New" font-size="10.00"> </text>
</a>
</g>
</g>
<!-- Node7&#45;&gt;Node2 -->
<g id="edge6" class="edge"><title>Node7&#45;&gt;Node2</title>
<path fill="none" stroke="#404040" d="M203.41,-831.759C198.159,-807.835 190.188,-771.522 182.246,-735.343"/>
<polygon fill="none" stroke="#404040" points="182.245,-735.338 177.052,-730.335 179.672,-723.617 184.866,-728.62 182.245,-735.338"/>
<text text-anchor="middle" x="215" y="-756" font-family="Courier New" font-size="10.00"> #grid1D</text>
</g>
<!-- Node8 -->
<g id="node8" class="node"><title>Node8</title>
<g id="a_node8"><a xlink:href="../../da/df6/class_c2_m2_1_1_neuronal_dynamics_1_1_u_g_x_1_1_neuron_cell.html" target="_top" xlink:title=" ">
<polygon fill="white" stroke="black" points="248,-512.5 248,-712.5 421,-712.5 421,-512.5 248,-512.5"/>
<text text-anchor="start" x="256" y="-700.5" font-family="Courier New" font-size="10.00">C2M2.NeuronalDynamics.UGX.</text>
<text text-anchor="middle" x="334.5" y="-689.5" font-family="Courier New" font-size="10.00">NeuronCell</text>
<polyline fill="none" stroke="black" points="248,-682.5 421,-682.5 "/>
<text text-anchor="start" x="256" y="-670.5" font-family="Courier New" font-size="10.00">+ nodeData</text>
<text text-anchor="start" x="256" y="-659.5" font-family="Courier New" font-size="10.00">+ edges</text>
<text text-anchor="start" x="256" y="-648.5" font-family="Courier New" font-size="10.00">+ edgeLengths</text>
<text text-anchor="start" x="256" y="-637.5" font-family="Courier New" font-size="10.00">+ boundaryID</text>
<text text-anchor="start" x="256" y="-626.5" font-family="Courier New" font-size="10.00">+ somaID</text>
<text text-anchor="start" x="256" y="-615.5" font-family="Courier New" font-size="10.00">+ vertCount</text>
<text text-anchor="start" x="256" y="-604.5" font-family="Courier New" font-size="10.00">+ edgeCount</text>
<polyline fill="none" stroke="black" points="248,-597.5 421,-597.5 "/>
<text text-anchor="start" x="256" y="-585.5" font-family="Courier New" font-size="10.00">+ NeuronCell()</text>
<text text-anchor="start" x="256" y="-574.5" font-family="Courier New" font-size="10.00">+ ReadDataTable()</text>
<text text-anchor="start" x="256" y="-563.5" font-family="Courier New" font-size="10.00">+ NodeToString()</text>
<text text-anchor="start" x="256" y="-552.5" font-family="Courier New" font-size="10.00">+ EdgeToString()</text>
<text text-anchor="start" x="256" y="-541.5" font-family="Courier New" font-size="10.00">+ ToString()</text>
<text text-anchor="start" x="256" y="-530.5" font-family="Courier New" font-size="10.00">&#45; NodeNeighborsToString()</text>
<text text-anchor="start" x="256" y="-519.5" font-family="Courier New" font-size="10.00">&#45; GetEdgeLength()</text>
</a>
</g>
</g>
<!-- Node8&#45;&gt;Node1 -->
<g id="edge7" class="edge"><title>Node8&#45;&gt;Node1</title>
<path fill="none" stroke="#404040" d="M315.865,-512.24C313.098,-497.507 310.152,-481.816 307.12,-465.663"/>
<polygon fill="none" stroke="#404040" points="307.112,-465.62 302.073,-460.461 304.898,-453.826 309.936,-458.985 307.112,-465.62"/>
<text text-anchor="middle" x="334" y="-475" font-family="Courier New" font-size="10.00"> &#45;myCell</text>
</g>
<!-- Node9 -->
<g id="node9" class="node"><title>Node9</title>
<g id="a_node9"><a xlink:title=" ">
<polygon fill="white" stroke="#bfbfbf" points="308,-832 308,-889 361,-889 361,-832 308,-832"/>
<text text-anchor="middle" x="334.5" y="-877" font-family="Courier New" font-size="10.00">static</text>
<polyline fill="none" stroke="#bfbfbf" points="308,-870 361,-870 "/>
<text text-anchor="middle" x="334.5" y="-858" font-family="Courier New" font-size="10.00"> </text>
<polyline fill="none" stroke="#bfbfbf" points="308,-851 361,-851 "/>
<text text-anchor="middle" x="334.5" y="-839" font-family="Courier New" font-size="10.00"> </text>
</a>
</g>
</g>
<!-- Node9&#45;&gt;Node8 -->
<g id="edge8" class="edge"><title>Node9&#45;&gt;Node8</title>
<path fill="none" stroke="#404040" d="M334.5,-831.759C334.5,-805.511 334.5,-764.35 334.5,-724.815"/>
<polygon fill="none" stroke="#404040" points="334.5,-724.615 330.5,-718.615 334.5,-712.615 338.5,-718.615 334.5,-724.615"/>
<text text-anchor="middle" x="389" y="-767" font-family="Courier New" font-size="10.00"> &#45;nodeFormatString</text>
<text text-anchor="middle" x="389" y="-756" font-family="Courier New" font-size="10.00">&#45;edgeFormatString</text>
<text text-anchor="middle" x="389" y="-745" font-family="Courier New" font-size="10.00">&#45;cellFormatString</text>
</g>
</g>
</svg>
        <g id="navigator" transform="translate(0 0)" fill="#404254">
                <rect fill="#f2f5e9" fill-opacity="0.5" stroke="#606060" stroke-width=".5" x="0" y="0" width="60" height="60"/>
                <use id="zoomplus" xlink:href="#zoomPlus" x="17" y="9" onmousedown="handleZoom(evt,'in')"/>
                <use id="zoomminus" xlink:href="#zoomMin" x="42" y="9" onmousedown="handleZoom(evt,'out')"/>
                <use id="reset" xlink:href="#resetDef" x="30" y="36" onmousedown="handleReset()"/>
                <g id="arrowUp" xlink:href="#dirArrow" transform="translate(30 24)" onmousedown="handlePan(0,-1)">
                  <use xlink:href="#rim" fill="#404040">
                        <set attributeName="fill" to="#808080" begin="arrowUp.mouseover" end="arrowUp.mouseout"/>
                  </use>
                  <path fill="none" stroke="white" stroke-width="1.5" d="M0,-3.0v7 M-2.5,-0.5L0,-3.0L2.5,-0.5"/>
                </g>
                <g id="arrowRight" xlink:href="#dirArrow" transform="rotate(90) translate(36 -43)" onmousedown="handlePan(1,0)">
                  <use xlink:href="#rim" fill="#404040">
                        <set attributeName="fill" to="#808080" begin="arrowRight.mouseover" end="arrowRight.mouseout"/>
                  </use>
                  <path fill="none" stroke="white" stroke-width="1.5" d="M0,-3.0v7 M-2.5,-0.5L0,-3.0L2.5,-0.5"/>
                </g>
                <g id="arrowDown" xlink:href="#dirArrow" transform="rotate(180) translate(-30 -48)" onmousedown="handlePan(0,1)">
                  <use xlink:href="#rim" fill="#404040">
                        <set attributeName="fill" to="#808080" begin="arrowDown.mouseover" end="arrowDown.mouseout"/>
                  </use>
                  <path fill="none" stroke="white" stroke-width="1.5" d="M0,-3.0v7 M-2.5,-0.5L0,-3.0L2.5,-0.5"/>
                </g>
                <g id="arrowLeft" xlink:href="#dirArrow" transform="rotate(270) translate(-36 17)" onmousedown="handlePan(-1,0)">
                  <use xlink:href="#rim" fill="#404040">
                        <set attributeName="fill" to="#808080" begin="arrowLeft.mouseover" end="arrowLeft.mouseout"/>
                  </use>
                  <path fill="none" stroke="white" stroke-width="1.5" d="M0,-3.0v7 M-2.5,-0.5L0,-3.0L2.5,-0.5"/>
                </g>
        </g>
        <svg viewBox="0 0 15 15" width="100%" height="30px" preserveAspectRatio="xMaxYMin meet">
         <g id="arrow_out" transform="scale(0.3 0.3)">
          <a xlink:href="class_c2_m2_1_1_neuronal_dynamics_1_1_simulation_1_1_cell_solver2_full_a_p__coll__graph_org.svg" target="_base">
           <rect id="button" ry="5" rx="5" y="6" x="6" height="38" width="38"
                fill="#f2f5e9" fill-opacity="0.5" stroke="#606060" stroke-width="1.0"/>
           <path id="arrow"
             d="M 11.500037,31.436501 C 11.940474,20.09759 22.043105,11.32322 32.158766,21.979434 L 37.068811,17.246167 C 37.068811,17.246167 37.088388,32 37.088388,32 L 22.160133,31.978069 C 22.160133,31.978069 26.997745,27.140456 26.997745,27.140456 C 18.528582,18.264221 13.291696,25.230495 11.500037,31.436501 z"
             style="fill:#404040;"/>
          </a>
         </g>
        </svg>
</svg>
