<?xml version="1.0" encoding="UTF-8" standalone="no"?>
<!DOCTYPE svg PUBLIC "-//W3C//DTD SVG 1.1//EN"
 "http://www.w3.org/Graphics/SVG/1.1/DTD/svg11.dtd">
<!-- Generated by graphviz version 2.38.0 (20140413.2041)
 -->
<!-- Title: C2M2.Interaction.Signaling.RaycastEventSignaler Pages: 1 -->
<svg width="420pt" height="1018pt"
 viewBox="0.00 0.00 419.50 1018.00" xmlns="http://www.w3.org/2000/svg" xmlns:xlink="http://www.w3.org/1999/xlink">
<g id="graph0" class="graph" transform="scale(1 1) rotate(0) translate(4 1014)">
<title>C2M2.Interaction.Signaling.RaycastEventSignaler</title>
<polygon fill="white" stroke="none" points="-4,4 -4,-1014 415.5,-1014 415.5,4 -4,4"/>
<!-- Node1 -->
<g id="node1" class="node"><title>Node1</title>
<g id="a_node1"><a xlink:title=" ">
<polygon fill="#bfbfbf" stroke="black" points="28,-0.5 28,-255.5 213,-255.5 213,-0.5 28,-0.5"/>
<text text-anchor="start" x="36" y="-243.5" font-family="Courier New" font-size="10.00">C2M2.Interaction.Signaling.</text>
<text text-anchor="middle" x="120.5" y="-232.5" font-family="Courier New" font-size="10.00">RaycastEventSignaler</text>
<polyline fill="none" stroke="black" points="28,-225.5 213,-225.5 "/>
<text text-anchor="start" x="36" y="-213.5" font-family="Courier New" font-size="10.00">+ rightHand</text>
<text text-anchor="start" x="36" y="-202.5" font-family="Courier New" font-size="10.00">+ maxRaycastDistance</text>
<text text-anchor="start" x="36" y="-191.5" font-family="Courier New" font-size="10.00">&#45; layerMask</text>
<text text-anchor="start" x="36" y="-180.5" font-family="Courier New" font-size="10.00">&#45; lastHit</text>
<polyline fill="none" stroke="black" points="28,-173.5 213,-173.5 "/>
<text text-anchor="start" x="36" y="-161.5" font-family="Courier New" font-size="10.00"># OnAwake()</text>
<text text-anchor="start" x="36" y="-150.5" font-family="Courier New" font-size="10.00"># Awake()</text>
<text text-anchor="start" x="36" y="-139.5" font-family="Courier New" font-size="10.00"># OnStart()</text>
<text text-anchor="start" x="36" y="-128.5" font-family="Courier New" font-size="10.00"># OnPress()</text>
<text text-anchor="start" x="36" y="-117.5" font-family="Courier New" font-size="10.00"># OnHoldPress()</text>
<text text-anchor="start" x="36" y="-106.5" font-family="Courier New" font-size="10.00"># OnEndPress()</text>
<text text-anchor="start" x="36" y="-95.5" font-family="Courier New" font-size="10.00"># OnPressSub()</text>
<text text-anchor="start" x="36" y="-84.5" font-family="Courier New" font-size="10.00"># OnHoldPressSub()</text>
<text text-anchor="start" x="36" y="-73.5" font-family="Courier New" font-size="10.00"># OnEndPressSub()</text>
<text text-anchor="start" x="36" y="-62.5" font-family="Courier New" font-size="10.00"># RaycastingMethod()</text>
<text text-anchor="start" x="36" y="-51.5" font-family="Courier New" font-size="10.00"># BeginRaycastingCondition()</text>
<text text-anchor="start" x="36" y="-40.5" font-family="Courier New" font-size="10.00"># ChildsPressCondition()</text>
<text text-anchor="start" x="36" y="-29.5" font-family="Courier New" font-size="10.00">&#45; Start()</text>
<text text-anchor="start" x="36" y="-18.5" font-family="Courier New" font-size="10.00">&#45; FixedUpdate()</text>
<text text-anchor="start" x="36" y="-7.5" font-family="Courier New" font-size="10.00">&#45; FindRaycastTrigger()</text>
</a>
</g>
</g>
<!-- Node2 -->
<g id="node2" class="node"><title>Node2</title>
<g id="a_node2"><a xlink:href="../../d6/d4b/class_c2_m2_1_1_interaction_1_1_signaling_1_1_press_event_signaler.html" target="_top" xlink:title="Send press, holdPress, and endPress events based on set values of Pressed and RaycastTriggerManager">
<polygon fill="white" stroke="black" points="0,-555.5 0,-645.5 125,-645.5 125,-555.5 0,-555.5"/>
<text text-anchor="middle" x="62.5" y="-633.5" font-family="Courier New" font-size="10.00">PressEventSignaler</text>
<polyline fill="none" stroke="black" points="0,-626.5 125,-626.5 "/>
<text text-anchor="start" x="8" y="-614.5" font-family="Courier New" font-size="10.00">+ Pressed</text>
<text text-anchor="start" x="8" y="-603.5" font-family="Courier New" font-size="10.00">&#45; pressedPrevFrame</text>
<polyline fill="none" stroke="black" points="0,-596.5 125,-596.5 "/>
<text text-anchor="start" x="8" y="-584.5" font-family="Courier New" font-size="10.00"># OnPress()</text>
<text text-anchor="start" x="8" y="-573.5" font-family="Courier New" font-size="10.00"># OnHoldPress()</text>
<text text-anchor="start" x="8" y="-562.5" font-family="Courier New" font-size="10.00"># OnEndPress()</text>
</a>
</g>
</g>
<!-- Node2&#45;&gt;Node1 -->
<g id="edge1" class="edge"><title>Node2&#45;&gt;Node1</title>
<path fill="none" stroke="midnightblue" d="M69.1845,-545.275C77.8457,-475.015 93.2172,-350.32 104.885,-255.667"/>
<polygon fill="none" stroke="midnightblue" points="65.7064,-544.883 67.9565,-555.237 72.6538,-545.74 65.7064,-544.883"/>
</g>
<!-- Node3 -->
<g id="node3" class="node"><title>Node3</title>
<g id="a_node3"><a xlink:title=" ">
<polygon fill="white" stroke="#bfbfbf" points="81,-852 81,-909 176,-909 176,-852 81,-852"/>
<text text-anchor="middle" x="128.5" y="-897" font-family="Courier New" font-size="10.00">MonoBehaviour</text>
<polyline fill="none" stroke="#bfbfbf" points="81,-890 176,-890 "/>
<text text-anchor="middle" x="128.5" y="-878" font-family="Courier New" font-size="10.00"> </text>
<polyline fill="none" stroke="#bfbfbf" points="81,-871 176,-871 "/>
<text text-anchor="middle" x="128.5" y="-859" font-family="Courier New" font-size="10.00"> </text>
</a>
</g>
</g>
<!-- Node3&#45;&gt;Node2 -->
<g id="edge2" class="edge"><title>Node3&#45;&gt;Node2</title>
<path fill="none" stroke="midnightblue" d="M119.571,-841.889C107.474,-790.936 85.915,-700.127 73.0389,-645.891"/>
<polygon fill="none" stroke="midnightblue" points="116.215,-842.907 121.93,-851.828 123.026,-841.29 116.215,-842.907"/>
</g>
<!-- Node4 -->
<g id="node4" class="node"><title>Node4</title>
<g id="a_node4"><a xlink:href="../../d5/df9/class_c2_m2_1_1_interaction_1_1_raycast_event_manager.html" target="_top" xlink:title="Attach this script to parent gameObject, create one child with one raycast trigger per child....">
<polygon fill="white" stroke="black" points="121,-303.5 121,-536.5 282,-536.5 282,-303.5 121,-303.5"/>
<text text-anchor="start" x="129" y="-524.5" font-family="Courier New" font-size="10.00">C2M2.Interaction.Raycast</text>
<text text-anchor="middle" x="201.5" y="-513.5" font-family="Courier New" font-size="10.00">EventManager</text>
<polyline fill="none" stroke="black" points="121,-506.5 282,-506.5 "/>
<text text-anchor="middle" x="201.5" y="-494.5" font-family="Courier New" font-size="10.00"> </text>
<polyline fill="none" stroke="black" points="121,-487.5 282,-487.5 "/>
<text text-anchor="start" x="129" y="-475.5" font-family="Courier New" font-size="10.00">+ TriggerChangeRight()</text>
<text text-anchor="start" x="129" y="-464.5" font-family="Courier New" font-size="10.00">+ TriggerChangeLeft()</text>
<text text-anchor="start" x="129" y="-453.5" font-family="Courier New" font-size="10.00">+ TriggerChangeBoth()</text>
<text text-anchor="start" x="129" y="-442.5" font-family="Courier New" font-size="10.00">+ TriggerEmptyRight()</text>
<text text-anchor="start" x="129" y="-431.5" font-family="Courier New" font-size="10.00">+ TriggerEmptyLeft()</text>
<text text-anchor="start" x="129" y="-420.5" font-family="Courier New" font-size="10.00">+ TriggerEmptyBoth()</text>
<text text-anchor="start" x="129" y="-409.5" font-family="Courier New" font-size="10.00">+ PressEvent()</text>
<text text-anchor="start" x="129" y="-398.5" font-family="Courier New" font-size="10.00">+ HoldEvent()</text>
<text text-anchor="start" x="129" y="-387.5" font-family="Courier New" font-size="10.00">+ EndEvent()</text>
<text text-anchor="start" x="129" y="-376.5" font-family="Courier New" font-size="10.00">+ AllEvents()</text>
<text text-anchor="start" x="129" y="-365.5" font-family="Courier New" font-size="10.00">+ PressEventNull()</text>
<text text-anchor="start" x="129" y="-354.5" font-family="Courier New" font-size="10.00">+ HoldEventNull()</text>
<text text-anchor="start" x="129" y="-343.5" font-family="Courier New" font-size="10.00">+ EndEventNull()</text>
<text text-anchor="start" x="129" y="-332.5" font-family="Courier New" font-size="10.00">+ AllEventsNull()</text>
<text text-anchor="start" x="129" y="-321.5" font-family="Courier New" font-size="10.00">+ ToString()</text>
<text text-anchor="start" x="129" y="-310.5" font-family="Courier New" font-size="10.00">&#45; Awake()</text>
</a>
</g>
</g>
<!-- Node3&#45;&gt;Node4 -->
<g id="edge4" class="edge"><title>Node3&#45;&gt;Node4</title>
<path fill="none" stroke="midnightblue" d="M133.583,-841.885C139.475,-798.84 149.644,-726.254 159.5,-664 166.077,-622.454 173.792,-577.005 180.803,-536.769"/>
<polygon fill="none" stroke="midnightblue" points="130.099,-841.526 132.215,-851.908 137.035,-842.473 130.099,-841.526"/>
</g>
<!-- Node6 -->
<g id="node6" class="node"><title>Node6</title>
<g id="a_node6"><a xlink:href="../../d8/d68/class_c2_m2_1_1_interaction_1_1_raycast_press_events.html" target="_top" xlink:title="Store custom events that the corresponding RaycastTriggerManager will invoke">
<polygon fill="white" stroke="black" points="169,-664.5 169,-776.5 330,-776.5 330,-664.5 169,-664.5"/>
<text text-anchor="start" x="177" y="-764.5" font-family="Courier New" font-size="10.00">C2M2.Interaction.Raycast</text>
<text text-anchor="middle" x="249.5" y="-753.5" font-family="Courier New" font-size="10.00">PressEvents</text>
<polyline fill="none" stroke="black" points="169,-746.5 330,-746.5 "/>
<text text-anchor="start" x="177" y="-734.5" font-family="Courier New" font-size="10.00">+ OnPress</text>
<text text-anchor="start" x="177" y="-723.5" font-family="Courier New" font-size="10.00">+ OnHoldPress</text>
<text text-anchor="start" x="177" y="-712.5" font-family="Courier New" font-size="10.00">+ OnEndPress</text>
<polyline fill="none" stroke="black" points="169,-705.5 330,-705.5 "/>
<text text-anchor="start" x="177" y="-693.5" font-family="Courier New" font-size="10.00">+ Press()</text>
<text text-anchor="start" x="177" y="-682.5" font-family="Courier New" font-size="10.00">+ HoldPress()</text>
<text text-anchor="start" x="177" y="-671.5" font-family="Courier New" font-size="10.00">+ EndPress()</text>
</a>
</g>
</g>
<!-- Node3&#45;&gt;Node6 -->
<g id="edge7" class="edge"><title>Node3&#45;&gt;Node6</title>
<path fill="none" stroke="midnightblue" d="M155.827,-843.816C171.033,-823.961 190.286,-798.821 207.376,-776.504"/>
<polygon fill="none" stroke="midnightblue" points="152.878,-841.911 149.577,-851.979 158.435,-846.167 152.878,-841.911"/>
</g>
<!-- Node4&#45;&gt;Node1 -->
<g id="edge3" class="edge"><title>Node4&#45;&gt;Node1</title>
<path fill="none" stroke="#404040" d="M169.137,-303.134C165.866,-291.42 162.52,-279.441 159.19,-267.521"/>
<polygon fill="none" stroke="#404040" points="159.098,-267.19 153.631,-262.487 155.87,-255.632 161.336,-260.335 159.098,-267.19"/>
<text text-anchor="middle" x="203" y="-277" font-family="Courier New" font-size="10.00"> &#45;activeEvent</text>
</g>
<!-- Node5 -->
<g id="node5" class="node"><title>Node5</title>
<g id="a_node5"><a xlink:title=" ">
<polygon fill="white" stroke="#bfbfbf" points="348,-692 348,-749 401,-749 401,-692 348,-692"/>
<text text-anchor="middle" x="374.5" y="-737" font-family="Courier New" font-size="10.00">static</text>
<polyline fill="none" stroke="#bfbfbf" points="348,-730 401,-730 "/>
<text text-anchor="middle" x="374.5" y="-718" font-family="Courier New" font-size="10.00"> </text>
<polyline fill="none" stroke="#bfbfbf" points="348,-711 401,-711 "/>
<text text-anchor="middle" x="374.5" y="-699" font-family="Courier New" font-size="10.00"> </text>
</a>
</g>
</g>
<!-- Node5&#45;&gt;Node4 -->
<g id="edge5" class="edge"><title>Node5&#45;&gt;Node4</title>
<path fill="none" stroke="#404040" d="M369.065,-691.876C361.604,-657.989 346.115,-599.563 320.5,-555 311.808,-539.877 301.215,-524.952 289.972,-510.862"/>
<polygon fill="none" stroke="#404040" points="289.703,-510.534 282.807,-508.426 282.1,-501.249 288.996,-503.357 289.703,-510.534"/>
<text text-anchor="middle" x="384" y="-598" font-family="Courier New" font-size="10.00"> &#45;nullHit</text>
</g>
<!-- Node6&#45;&gt;Node4 -->
<g id="edge6" class="edge"><title>Node6&#45;&gt;Node4</title>
<path fill="none" stroke="#404040" d="M240.64,-664.403C235.401,-631.822 228.535,-589.123 222.019,-548.6"/>
<polygon fill="none" stroke="#404040" points="222.006,-548.523 217.104,-543.234 220.101,-536.675 225.003,-541.964 222.006,-548.523"/>
<text text-anchor="middle" x="277" y="-609" font-family="Courier New" font-size="10.00"> +leftTrigger</text>
<text text-anchor="middle" x="277" y="-598" font-family="Courier New" font-size="10.00">+rightTrigger</text>
<text text-anchor="middle" x="277" y="-587" font-family="Courier New" font-size="10.00">&#45;emptyTrigger</text>
</g>
<!-- Node7 -->
<g id="node7" class="node"><title>Node7</title>
<g id="a_node7"><a xlink:href="../../d2/d43/class_c2_m2_1_1_interaction_1_1_raycast_press_events_1_1_raycast_hit_event.html" target="_top" xlink:title=" ">
<polygon fill="white" stroke="black" points="194,-846.5 194,-914.5 373,-914.5 373,-846.5 194,-846.5"/>
<text text-anchor="start" x="202" y="-902.5" font-family="Courier New" font-size="10.00">C2M2.Interaction.Raycast</text>
<text text-anchor="middle" x="283.5" y="-891.5" font-family="Courier New" font-size="10.00">PressEvents.RaycastHitEvent</text>
<polyline fill="none" stroke="black" points="194,-884.5 373,-884.5 "/>
<text text-anchor="middle" x="283.5" y="-872.5" font-family="Courier New" font-size="10.00"> </text>
<polyline fill="none" stroke="black" points="194,-865.5 373,-865.5 "/>
<text text-anchor="middle" x="283.5" y="-853.5" font-family="Courier New" font-size="10.00"> </text>
</a>
</g>
</g>
<!-- Node7&#45;&gt;Node6 -->
<g id="edge8" class="edge"><title>Node7&#45;&gt;Node6</title>
<path fill="none" stroke="#404040" d="M276.372,-846.378C272.76,-829.588 268.236,-808.568 263.937,-788.588"/>
<polygon fill="none" stroke="#404040" points="263.894,-788.389 258.721,-783.365 261.369,-776.658 266.542,-781.682 263.894,-788.389"/>
<text text-anchor="middle" x="309" y="-820" font-family="Courier New" font-size="10.00"> &#45;onPress</text>
<text text-anchor="middle" x="309" y="-809" font-family="Courier New" font-size="10.00">&#45;onHoldPress</text>
<text text-anchor="middle" x="309" y="-798" font-family="Courier New" font-size="10.00">&#45;onEndPress</text>
</g>
<!-- Node8 -->
<g id="node8" class="node"><title>Node8</title>
<g id="a_node8"><a xlink:title=" ">
<polygon fill="white" stroke="#bfbfbf" points="203,-952.5 203,-1009.5 364,-1009.5 364,-952.5 203,-952.5"/>
<text text-anchor="middle" x="283.5" y="-997.5" font-family="Courier New" font-size="10.00">UnityEvent&lt; RaycastHit &gt;</text>
<polyline fill="none" stroke="#bfbfbf" points="203,-990.5 364,-990.5 "/>
<text text-anchor="middle" x="283.5" y="-978.5" font-family="Courier New" font-size="10.00"> </text>
<polyline fill="none" stroke="#bfbfbf" points="203,-971.5 364,-971.5 "/>
<text text-anchor="middle" x="283.5" y="-959.5" font-family="Courier New" font-size="10.00"> </text>
</a>
</g>
</g>
<!-- Node8&#45;&gt;Node7 -->
<g id="edge9" class="edge"><title>Node8&#45;&gt;Node7</title>
<path fill="none" stroke="midnightblue" d="M283.5,-942.007C283.5,-932.962 283.5,-923.383 283.5,-914.578"/>
<polygon fill="none" stroke="midnightblue" points="280,-942.3 283.5,-952.3 287,-942.3 280,-942.3"/>
</g>
</g>
</svg>
