<?xml version="1.0" encoding="UTF-8" standalone="no"?>
<!DOCTYPE svg PUBLIC "-//W3C//DTD SVG 1.1//EN"
 "http://www.w3.org/Graphics/SVG/1.1/DTD/svg11.dtd">
<!-- Generated by graphviz version 2.46.0 (20210118.1747)
 -->
<!-- Title: C2M2.Interaction.Signaling.RaycastEventSignaler Pages: 1 -->
<!--zoomable 1073 -->
<svg id="main" version="1.1" xmlns="http://www.w3.org/2000/svg" xmlns:xlink="http://www.w3.org/1999/xlink" xml:space="preserve" onload="init(evt)">
<style type="text/css"><![CDATA[
.edge:hover path { stroke: red; }
.edge:hover polygon { stroke: red; fill: red; }
]]></style>
<script type="text/javascript"><![CDATA[
var edges = document.getElementsByTagName('g');
if (edges && edges.length) {
  for (var i=0;i<edges.length;i++) {
    if (edges[i].id.substr(0,4)=='edge') {
      edges[i].setAttribute('class','edge');
    }
  }
}
]]></script>
        <defs>
                <circle id="rim" cx="0" cy="0" r="7"/>
                <circle id="rim2" cx="0" cy="0" r="3.5"/>
                <g id="zoomPlus">
                        <use xlink:href="#rim" fill="#404040">
                                <set attributeName="fill" to="#808080" begin="zoomplus.mouseover" end="zoomplus.mouseout"/>
                        </use>
                        <path d="M-4,0h8M0,-4v8" fill="none" stroke="white" stroke-width="1.5" pointer-events="none"/>
                </g>
                <g id="zoomMin">
                        <use xlink:href="#rim" fill="#404040">
                                <set attributeName="fill" to="#808080" begin="zoomminus.mouseover" end="zoomminus.mouseout"/>
                        </use>
                        <path d="M-4,0h8" fill="none" stroke="white" stroke-width="1.5" pointer-events="none"/>
                </g>
                <g id="dirArrow">
                        <path fill="none" stroke="white" stroke-width="1.5" d="M0,-3.0v7 M-2.5,-0.5L0,-3.0L2.5,-0.5"/>
                </g>
               <g id="resetDef">
                       <use xlink:href="#rim2" fill="#404040">
                               <set attributeName="fill" to="#808080" begin="reset.mouseover" end="reset.mouseout"/>
                       </use>
               </g>
        </defs>

<script type="text/javascript">
var viewWidth = 423;
var viewHeight = 1073;
var sectionId = 'dynsection-1';
</script>
<script xlink:href="../../svgpan.js"/>
<svg id="graph" class="graph">
<g id="viewport">
<title>C2M2.Interaction.Signaling.RaycastEventSignaler</title>
<polygon fill="white" stroke="transparent" points="-4,4 -4,-1069 418.5,-1069 418.5,4 -4,4"/>
<!-- Node1 -->
<g id="node1" class="node">
<title>Node1</title>
<g id="a_node1"><a xlink:title=" ">
<polygon fill="#bfbfbf" stroke="black" points="28,-0.5 28,-266.5 207,-266.5 207,-0.5 28,-0.5"/>
<text text-anchor="start" x="36" y="-254.5" font-family="Courier New" font-size="10.00">C2M2.Interaction.Signaling.</text>
<text text-anchor="middle" x="117.5" y="-243.5" font-family="Courier New" font-size="10.00">RaycastEventSignaler</text>
<polyline fill="none" stroke="black" points="28,-236.5 207,-236.5 "/>
<text text-anchor="start" x="36" y="-224.5" font-family="Courier New" font-size="10.00">+ rightHand</text>
<text text-anchor="start" x="36" y="-213.5" font-family="Courier New" font-size="10.00">+ layerMask</text>
<text text-anchor="start" x="36" y="-202.5" font-family="Courier New" font-size="10.00">+ maxRaycastDistance</text>
<text text-anchor="start" x="36" y="-191.5" font-family="Courier New" font-size="10.00">&#45; lastHit</text>
<text text-anchor="start" x="36" y="-180.5" font-family="Courier New" font-size="10.00">&#45; prevObj</text>
<polyline fill="none" stroke="black" points="28,-173.5 207,-173.5 "/>
<text text-anchor="start" x="36" y="-161.5" font-family="Courier New" font-size="10.00"># OnAwake()</text>
<text text-anchor="start" x="36" y="-150.5" font-family="Courier New" font-size="10.00"># Awake()</text>
<text text-anchor="start" x="36" y="-139.5" font-family="Courier New" font-size="10.00"># OnStart()</text>
<text text-anchor="start" x="36" y="-128.5" font-family="Courier New" font-size="10.00"># OnHover()</text>
<text text-anchor="start" x="36" y="-117.5" font-family="Courier New" font-size="10.00"># OnHoverEnd()</text>
<text text-anchor="start" x="36" y="-106.5" font-family="Courier New" font-size="10.00"># OnPress()</text>
<text text-anchor="start" x="36" y="-95.5" font-family="Courier New" font-size="10.00"># OnHoldPress()</text>
<text text-anchor="start" x="36" y="-84.5" font-family="Courier New" font-size="10.00"># OnEndPress()</text>
<text text-anchor="start" x="36" y="-73.5" font-family="Courier New" font-size="10.00"># OnHoverSub()</text>
<text text-anchor="start" x="36" y="-62.5" font-family="Courier New" font-size="10.00"># OnHoverEndSub()</text>
<text text-anchor="start" x="36" y="-51.5" font-family="Courier New" font-size="10.00">and 6 more...</text>
<text text-anchor="start" x="36" y="-40.5" font-family="Courier New" font-size="10.00">&#45; Start()</text>
<text text-anchor="start" x="36" y="-29.5" font-family="Courier New" font-size="10.00">&#45; FixedUpdate()</text>
<text text-anchor="start" x="36" y="-18.5" font-family="Courier New" font-size="10.00">&#45; OnObjectChange()</text>
<text text-anchor="start" x="36" y="-7.5" font-family="Courier New" font-size="10.00">&#45; FindRaycastTrigger()</text>
</a>
</g>
</g>
<!-- Node2 -->
<g id="node2" class="node">
<title>Node2</title>
<g id="a_node2"><a xlink:href="../../d6/d4b/class_c2_m2_1_1_interaction_1_1_signaling_1_1_press_event_signaler.html" target="_top" xlink:title="Send press, holdPress, and endPress events based on set values of Pressed and RaycastTriggerManager">
<polygon fill="white" stroke="black" points="0,-522.5 0,-634.5 125,-634.5 125,-522.5 0,-522.5"/>
<text text-anchor="middle" x="62.5" y="-622.5" font-family="Courier New" font-size="10.00">PressEventSignaler</text>
<polyline fill="none" stroke="black" points="0,-615.5 125,-615.5 "/>
<text text-anchor="start" x="8" y="-603.5" font-family="Courier New" font-size="10.00">+ Pressed</text>
<text text-anchor="start" x="8" y="-592.5" font-family="Courier New" font-size="10.00">&#45; pressedPrevFrame</text>
<polyline fill="none" stroke="black" points="0,-585.5 125,-585.5 "/>
<text text-anchor="start" x="8" y="-573.5" font-family="Courier New" font-size="10.00"># OnHover()</text>
<text text-anchor="start" x="8" y="-562.5" font-family="Courier New" font-size="10.00"># OnHoverEnd()</text>
<text text-anchor="start" x="8" y="-551.5" font-family="Courier New" font-size="10.00"># OnPress()</text>
<text text-anchor="start" x="8" y="-540.5" font-family="Courier New" font-size="10.00"># OnHoldPress()</text>
<text text-anchor="start" x="8" y="-529.5" font-family="Courier New" font-size="10.00"># OnEndPress()</text>
</a>
</g>
</g>
<!-- Node2&#45;&gt;Node1 -->
<g id="edge1" class="edge">
<title>Node2&#45;&gt;Node1</title>
<path fill="none" stroke="midnightblue" d="M70.6,-512.28C78.58,-447.97 91.02,-347.81 101.08,-266.78"/>
<polygon fill="none" stroke="midnightblue" points="67.11,-511.93 69.35,-522.29 74.06,-512.8 67.11,-511.93"/>
</g>
<!-- Node3 -->
<g id="node3" class="node">
<title>Node3</title>
<g id="a_node3"><a xlink:title=" ">
<polygon fill="white" stroke="#bfbfbf" points="61,-907 61,-964 156,-964 156,-907 61,-907"/>
<text text-anchor="middle" x="108.5" y="-952" font-family="Courier New" font-size="10.00">MonoBehaviour</text>
<polyline fill="none" stroke="#bfbfbf" points="61,-945 156,-945 "/>
<text text-anchor="middle" x="108.5" y="-933" font-family="Courier New" font-size="10.00"> </text>
<polyline fill="none" stroke="#bfbfbf" points="61,-926 156,-926 "/>
<text text-anchor="middle" x="108.5" y="-914" font-family="Courier New" font-size="10.00"> </text>
</a>
</g>
</g>
<!-- Node3&#45;&gt;Node2 -->
<g id="edge2" class="edge">
<title>Node3&#45;&gt;Node2</title>
<path fill="none" stroke="midnightblue" d="M103.6,-896.69C95.46,-833.83 79.09,-707.55 69.66,-634.72"/>
<polygon fill="none" stroke="midnightblue" points="100.17,-897.47 104.93,-906.94 107.11,-896.57 100.17,-897.47"/>
</g>
<!-- Node4 -->
<g id="node4" class="node">
<title>Node4</title>
<g id="a_node4"><a xlink:href="../../d5/df9/class_c2_m2_1_1_interaction_1_1_raycast_event_manager.html" target="_top" xlink:title="Attach this script to parent gameObject, create one child with one raycast trigger per child....">
<polygon fill="white" stroke="black" points="140,-314.5 140,-503.5 301,-503.5 301,-314.5 140,-314.5"/>
<text text-anchor="start" x="148" y="-491.5" font-family="Courier New" font-size="10.00">C2M2.Interaction.Raycast</text>
<text text-anchor="middle" x="220.5" y="-480.5" font-family="Courier New" font-size="10.00">EventManager</text>
<polyline fill="none" stroke="black" points="140,-473.5 301,-473.5 "/>
<text text-anchor="middle" x="220.5" y="-461.5" font-family="Courier New" font-size="10.00"> </text>
<polyline fill="none" stroke="black" points="140,-454.5 301,-454.5 "/>
<text text-anchor="start" x="148" y="-442.5" font-family="Courier New" font-size="10.00">+ TriggerChangeRight()</text>
<text text-anchor="start" x="148" y="-431.5" font-family="Courier New" font-size="10.00">+ TriggerChangeLeft()</text>
<text text-anchor="start" x="148" y="-420.5" font-family="Courier New" font-size="10.00">+ TriggerChangeBoth()</text>
<text text-anchor="start" x="148" y="-409.5" font-family="Courier New" font-size="10.00">+ TriggerEmptyRight()</text>
<text text-anchor="start" x="148" y="-398.5" font-family="Courier New" font-size="10.00">+ TriggerEmptyLeft()</text>
<text text-anchor="start" x="148" y="-387.5" font-family="Courier New" font-size="10.00">+ TriggerEmptyBoth()</text>
<text text-anchor="start" x="148" y="-376.5" font-family="Courier New" font-size="10.00">+ HoverEvent()</text>
<text text-anchor="start" x="148" y="-365.5" font-family="Courier New" font-size="10.00">+ HoverEndEvent()</text>
<text text-anchor="start" x="148" y="-354.5" font-family="Courier New" font-size="10.00">+ PressEvent()</text>
<text text-anchor="start" x="148" y="-343.5" font-family="Courier New" font-size="10.00">+ HoldEvent()</text>
<text text-anchor="start" x="148" y="-332.5" font-family="Courier New" font-size="10.00">and 7 more...</text>
<text text-anchor="start" x="148" y="-321.5" font-family="Courier New" font-size="10.00">&#45; Awake()</text>
</a>
</g>
</g>
<!-- Node3&#45;&gt;Node4 -->
<g id="edge4" class="edge">
<title>Node3&#45;&gt;Node4</title>
<path fill="none" stroke="midnightblue" d="M114.54,-896.64C123.36,-842.44 140.78,-739.71 159.5,-653 170.19,-603.47 183.78,-548.69 195.42,-503.71"/>
<polygon fill="none" stroke="midnightblue" points="111.03,-896.38 112.89,-906.81 117.94,-897.5 111.03,-896.38"/>
</g>
<!-- Node6 -->
<g id="node6" class="node">
<title>Node6</title>
<g id="a_node6"><a xlink:href="../../d8/d68/class_c2_m2_1_1_interaction_1_1_raycast_press_events.html" target="_top" xlink:title="Store custom events that the corresponding RaycastTriggerManager will invoke">
<polygon fill="white" stroke="black" points="169,-653.5 169,-809.5 330,-809.5 330,-653.5 169,-653.5"/>
<text text-anchor="start" x="177" y="-797.5" font-family="Courier New" font-size="10.00">C2M2.Interaction.Raycast</text>
<text text-anchor="middle" x="249.5" y="-786.5" font-family="Courier New" font-size="10.00">PressEvents</text>
<polyline fill="none" stroke="black" points="169,-779.5 330,-779.5 "/>
<text text-anchor="start" x="177" y="-767.5" font-family="Courier New" font-size="10.00">+ OnHover</text>
<text text-anchor="start" x="177" y="-756.5" font-family="Courier New" font-size="10.00">+ OnHoverEnd</text>
<text text-anchor="start" x="177" y="-745.5" font-family="Courier New" font-size="10.00">+ OnPress</text>
<text text-anchor="start" x="177" y="-734.5" font-family="Courier New" font-size="10.00">+ OnHoldPress</text>
<text text-anchor="start" x="177" y="-723.5" font-family="Courier New" font-size="10.00">+ OnEndPress</text>
<polyline fill="none" stroke="black" points="169,-716.5 330,-716.5 "/>
<text text-anchor="start" x="177" y="-704.5" font-family="Courier New" font-size="10.00">+ Hover()</text>
<text text-anchor="start" x="177" y="-693.5" font-family="Courier New" font-size="10.00">+ EndHover()</text>
<text text-anchor="start" x="177" y="-682.5" font-family="Courier New" font-size="10.00">+ Press()</text>
<text text-anchor="start" x="177" y="-671.5" font-family="Courier New" font-size="10.00">+ HoldPress()</text>
<text text-anchor="start" x="177" y="-660.5" font-family="Courier New" font-size="10.00">+ EndPress()</text>
</a>
</g>
</g>
<!-- Node3&#45;&gt;Node6 -->
<g id="edge7" class="edge">
<title>Node3&#45;&gt;Node6</title>
<path fill="none" stroke="midnightblue" d="M141.35,-899.25C145.91,-893.93 150.43,-888.4 154.5,-883 171.89,-859.93 189.25,-833.64 204.29,-809.55"/>
<polygon fill="none" stroke="midnightblue" points="138.63,-897.05 134.68,-906.88 143.9,-901.66 138.63,-897.05"/>
</g>
<!-- Node4&#45;&gt;Node1 -->
<g id="edge3" class="edge">
<title>Node4&#45;&gt;Node1</title>
<path fill="none" stroke="#404040" d="M185.2,-314.26C180.78,-302.54 176.19,-290.35 171.57,-278.08"/>
<polygon fill="none" stroke="#404040" points="171.56,-278.04 165.7,-273.84 167.33,-266.81 173.19,-271.02 171.56,-278.04"/>
<text text-anchor="middle" x="218" y="-288" font-family="Courier New" font-size="10.00"> &#45;activeEvent</text>
</g>
<!-- Node5 -->
<g id="node5" class="node">
<title>Node5</title>
<g id="a_node5"><a xlink:title=" ">
<polygon fill="white" stroke="#bfbfbf" points="348,-703 348,-760 401,-760 401,-703 348,-703"/>
<text text-anchor="middle" x="374.5" y="-748" font-family="Courier New" font-size="10.00">static</text>
<polyline fill="none" stroke="#bfbfbf" points="348,-741 401,-741 "/>
<text text-anchor="middle" x="374.5" y="-729" font-family="Courier New" font-size="10.00"> </text>
<polyline fill="none" stroke="#bfbfbf" points="348,-722 401,-722 "/>
<text text-anchor="middle" x="374.5" y="-710" font-family="Courier New" font-size="10.00"> </text>
</a>
</g>
</g>
<!-- Node5&#45;&gt;Node4 -->
<g id="edge5" class="edge">
<title>Node5&#45;&gt;Node4</title>
<path fill="none" stroke="#404040" d="M371.97,-702.97C367.24,-661.55 354.46,-581.69 322.5,-522 318.31,-514.18 313.46,-506.48 308.19,-499"/>
<polygon fill="none" stroke="#404040" points="308.16,-498.96 301.38,-496.5 301.04,-489.3 307.82,-491.76 308.16,-498.96"/>
<text text-anchor="middle" x="387" y="-576" font-family="Courier New" font-size="10.00"> &#45;nullHit</text>
</g>
<!-- Node6&#45;&gt;Node4 -->
<g id="edge6" class="edge">
<title>Node6&#45;&gt;Node4</title>
<path fill="none" stroke="#404040" d="M242.52,-653.32C238.79,-612.09 234.14,-560.72 230.08,-515.82"/>
<polygon fill="none" stroke="#404040" points="230.06,-515.6 225.53,-509.98 228.97,-503.65 233.5,-509.26 230.06,-515.6"/>
<text text-anchor="middle" x="279" y="-587" font-family="Courier New" font-size="10.00"> +leftTrigger</text>
<text text-anchor="middle" x="279" y="-576" font-family="Courier New" font-size="10.00">+rightTrigger</text>
<text text-anchor="middle" x="279" y="-565" font-family="Courier New" font-size="10.00">&#45;emptyTrigger</text>
</g>
<!-- Node7 -->
<g id="node7" class="node">
<title>Node7</title>
<g id="a_node7"><a xlink:href="../../d2/d43/class_c2_m2_1_1_interaction_1_1_raycast_press_events_1_1_raycast_hit_event.html" target="_top" xlink:title=" ">
<polygon fill="white" stroke="black" points="174,-901.5 174,-969.5 353,-969.5 353,-901.5 174,-901.5"/>
<text text-anchor="start" x="182" y="-957.5" font-family="Courier New" font-size="10.00">C2M2.Interaction.Raycast</text>
<text text-anchor="middle" x="263.5" y="-946.5" font-family="Courier New" font-size="10.00">PressEvents.RaycastHitEvent</text>
<polyline fill="none" stroke="black" points="174,-939.5 353,-939.5 "/>
<text text-anchor="middle" x="263.5" y="-927.5" font-family="Courier New" font-size="10.00"> </text>
<polyline fill="none" stroke="black" points="174,-920.5 353,-920.5 "/>
<text text-anchor="middle" x="263.5" y="-908.5" font-family="Courier New" font-size="10.00"> </text>
</a>
</g>
</g>
<!-- Node7&#45;&gt;Node6 -->
<g id="edge8" class="edge">
<title>Node7&#45;&gt;Node6</title>
<path fill="none" stroke="#404040" d="M261.19,-901.14C259.68,-879.38 257.63,-849.85 255.67,-821.59"/>
<polygon fill="none" stroke="#404040" points="255.67,-821.55 251.27,-815.84 254.84,-809.58 259.25,-815.29 255.67,-821.55"/>
<text text-anchor="middle" x="296" y="-875" font-family="Courier New" font-size="10.00"> &#45;onEndPress</text>
<text text-anchor="middle" x="296" y="-864" font-family="Courier New" font-size="10.00">&#45;onHoldPress</text>
<text text-anchor="middle" x="296" y="-853" font-family="Courier New" font-size="10.00">&#45;onHover</text>
<text text-anchor="middle" x="296" y="-842" font-family="Courier New" font-size="10.00">&#45;onHoverEnd</text>
<text text-anchor="middle" x="296" y="-831" font-family="Courier New" font-size="10.00">&#45;onPress</text>
</g>
<!-- Node8 -->
<g id="node8" class="node">
<title>Node8</title>
<g id="a_node8"><a xlink:title=" ">
<polygon fill="white" stroke="#bfbfbf" points="183,-1007.5 183,-1064.5 344,-1064.5 344,-1007.5 183,-1007.5"/>
<text text-anchor="middle" x="263.5" y="-1052.5" font-family="Courier New" font-size="10.00">UnityEvent&lt; RaycastHit &gt;</text>
<polyline fill="none" stroke="#bfbfbf" points="183,-1045.5 344,-1045.5 "/>
<text text-anchor="middle" x="263.5" y="-1033.5" font-family="Courier New" font-size="10.00"> </text>
<polyline fill="none" stroke="#bfbfbf" points="183,-1026.5 344,-1026.5 "/>
<text text-anchor="middle" x="263.5" y="-1014.5" font-family="Courier New" font-size="10.00"> </text>
</a>
</g>
</g>
<!-- Node8&#45;&gt;Node7 -->
<g id="edge9" class="edge">
<title>Node8&#45;&gt;Node7</title>
<path fill="none" stroke="midnightblue" d="M263.5,-997.01C263.5,-987.96 263.5,-978.38 263.5,-969.58"/>
<polygon fill="none" stroke="midnightblue" points="260,-997.3 263.5,-1007.3 267,-997.3 260,-997.3"/>
</g>
</g>
</svg>
        <g id="navigator" transform="translate(0 0)" fill="#404254">
                <rect fill="#f2f5e9" fill-opacity="0.5" stroke="#606060" stroke-width=".5" x="0" y="0" width="60" height="60"/>
                <use id="zoomplus" xlink:href="#zoomPlus" x="17" y="9" onmousedown="handleZoom(evt,'in')"/>
                <use id="zoomminus" xlink:href="#zoomMin" x="42" y="9" onmousedown="handleZoom(evt,'out')"/>
                <use id="reset" xlink:href="#resetDef" x="30" y="36" onmousedown="handleReset()"/>
                <g id="arrowUp" xlink:href="#dirArrow" transform="translate(30 24)" onmousedown="handlePan(0,-1)">
                  <use xlink:href="#rim" fill="#404040">
                        <set attributeName="fill" to="#808080" begin="arrowUp.mouseover" end="arrowUp.mouseout"/>
                  </use>
                  <path fill="none" stroke="white" stroke-width="1.5" d="M0,-3.0v7 M-2.5,-0.5L0,-3.0L2.5,-0.5"/>
                </g>
                <g id="arrowRight" xlink:href="#dirArrow" transform="rotate(90) translate(36 -43)" onmousedown="handlePan(1,0)">
                  <use xlink:href="#rim" fill="#404040">
                        <set attributeName="fill" to="#808080" begin="arrowRight.mouseover" end="arrowRight.mouseout"/>
                  </use>
                  <path fill="none" stroke="white" stroke-width="1.5" d="M0,-3.0v7 M-2.5,-0.5L0,-3.0L2.5,-0.5"/>
                </g>
                <g id="arrowDown" xlink:href="#dirArrow" transform="rotate(180) translate(-30 -48)" onmousedown="handlePan(0,1)">
                  <use xlink:href="#rim" fill="#404040">
                        <set attributeName="fill" to="#808080" begin="arrowDown.mouseover" end="arrowDown.mouseout"/>
                  </use>
                  <path fill="none" stroke="white" stroke-width="1.5" d="M0,-3.0v7 M-2.5,-0.5L0,-3.0L2.5,-0.5"/>
                </g>
                <g id="arrowLeft" xlink:href="#dirArrow" transform="rotate(270) translate(-36 17)" onmousedown="handlePan(-1,0)">
                  <use xlink:href="#rim" fill="#404040">
                        <set attributeName="fill" to="#808080" begin="arrowLeft.mouseover" end="arrowLeft.mouseout"/>
                  </use>
                  <path fill="none" stroke="white" stroke-width="1.5" d="M0,-3.0v7 M-2.5,-0.5L0,-3.0L2.5,-0.5"/>
                </g>
        </g>
        <svg viewBox="0 0 15 15" width="100%" height="30px" preserveAspectRatio="xMaxYMin meet">
         <g id="arrow_out" transform="scale(0.3 0.3)">
          <a xlink:href="class_c2_m2_1_1_interaction_1_1_signaling_1_1_raycast_event_signaler__coll__graph_org.svg" target="_base">
           <rect id="button" ry="5" rx="5" y="6" x="6" height="38" width="38"
                fill="#f2f5e9" fill-opacity="0.5" stroke="#606060" stroke-width="1.0"/>
           <path id="arrow"
             d="M 11.500037,31.436501 C 11.940474,20.09759 22.043105,11.32322 32.158766,21.979434 L 37.068811,17.246167 C 37.068811,17.246167 37.088388,32 37.088388,32 L 22.160133,31.978069 C 22.160133,31.978069 26.997745,27.140456 26.997745,27.140456 C 18.528582,18.264221 13.291696,25.230495 11.500037,31.436501 z"
             style="fill:#404040;"/>
          </a>
         </g>
        </svg>
</svg>
