<?xml version="1.0" encoding="UTF-8" standalone="no"?>
<!DOCTYPE svg PUBLIC "-//W3C//DTD SVG 1.1//EN"
 "http://www.w3.org/Graphics/SVG/1.1/DTD/svg11.dtd">
<!-- Generated by graphviz version 2.38.0 (20140413.2041)
 -->
<!-- Title: C2M2.Simulation.Samples.CombinedMeshSimulation Pages: 1 -->
<svg width="378pt" height="669pt"
 viewBox="0.00 0.00 378.00 669.00" xmlns="http://www.w3.org/2000/svg" xmlns:xlink="http://www.w3.org/1999/xlink">
<g id="graph0" class="graph" transform="scale(1 1) rotate(0) translate(4 665)">
<title>C2M2.Simulation.Samples.CombinedMeshSimulation</title>
<polygon fill="white" stroke="none" points="-4,4 -4,-665 374,-665 374,4 -4,4"/>
<!-- Node1 -->
<g id="node1" class="node"><title>Node1</title>
<g id="a_node1"><a xlink:title="Run a blank ScalarFieldSimulation using every MeshRenderer childed under this script">
<polygon fill="#bfbfbf" stroke="black" points="53,-0.5 53,-123.5 214,-123.5 214,-0.5 53,-0.5"/>
<text text-anchor="start" x="61" y="-111.5" font-family="Courier New" font-size="10.00">C2M2.Simulation.Samples.</text>
<text text-anchor="middle" x="133.5" y="-100.5" font-family="Courier New" font-size="10.00">CombinedMeshSimulation</text>
<polyline fill="none" stroke="black" points="53,-93.5 214,-93.5 "/>
<text text-anchor="start" x="61" y="-81.5" font-family="Courier New" font-size="10.00">&#45; values</text>
<polyline fill="none" stroke="black" points="53,-74.5 214,-74.5 "/>
<text text-anchor="start" x="61" y="-62.5" font-family="Courier New" font-size="10.00">+ GetValues()</text>
<text text-anchor="start" x="61" y="-51.5" font-family="Courier New" font-size="10.00">+ SetValues()</text>
<text text-anchor="start" x="61" y="-40.5" font-family="Courier New" font-size="10.00"># BuildMesh()</text>
<text text-anchor="start" x="61" y="-29.5" font-family="Courier New" font-size="10.00"># Solve()</text>
<text text-anchor="start" x="61" y="-18.5" font-family="Courier New" font-size="10.00">&#45; CombineMeshes()</text>
<text text-anchor="start" x="61" y="-7.5" font-family="Courier New" font-size="10.00">&#45; CombineMeshes()</text>
</a>
</g>
</g>
<!-- Node2 -->
<g id="node2" class="node"><title>Node2</title>
<g id="a_node2"><a xlink:href="../../d4/de1/class_c2_m2_1_1_simulation_1_1_surface_simulation.html" target="_top" xlink:title="Simulation of type double[] for visualizing scalar fields on mesh surfaces">
<polygon fill="white" stroke="black" points="56,-161.5 56,-306.5 211,-306.5 211,-161.5 56,-161.5"/>
<text text-anchor="middle" x="133.5" y="-294.5" font-family="Courier New" font-size="10.00">SurfaceSimulation</text>
<polyline fill="none" stroke="black" points="56,-287.5 211,-287.5 "/>
<text text-anchor="start" x="64" y="-275.5" font-family="Courier New" font-size="10.00">+ gradient</text>
<text text-anchor="start" x="64" y="-264.5" font-family="Courier New" font-size="10.00">+ globalMax</text>
<text text-anchor="start" x="64" y="-253.5" font-family="Courier New" font-size="10.00">+ globalMin</text>
<text text-anchor="start" x="64" y="-242.5" font-family="Courier New" font-size="10.00">+ colorLUT</text>
<text text-anchor="start" x="64" y="-231.5" font-family="Courier New" font-size="10.00">&#45; mf</text>
<text text-anchor="start" x="64" y="-220.5" font-family="Courier New" font-size="10.00">&#45; mr</text>
<polyline fill="none" stroke="black" points="56,-213.5 211,-213.5 "/>
<text text-anchor="start" x="64" y="-201.5" font-family="Courier New" font-size="10.00"># BuildMesh()</text>
<text text-anchor="start" x="64" y="-190.5" font-family="Courier New" font-size="10.00"># UpdateVisualization()</text>
<text text-anchor="start" x="64" y="-179.5" font-family="Courier New" font-size="10.00"># OnAwake()</text>
<text text-anchor="start" x="64" y="-168.5" font-family="Courier New" font-size="10.00">&#45; UpdateVisualization()</text>
</a>
</g>
</g>
<!-- Node2&#45;&gt;Node1 -->
<g id="edge1" class="edge"><title>Node2&#45;&gt;Node1</title>
<path fill="none" stroke="midnightblue" d="M133.5,-151.355C133.5,-142.062 133.5,-132.716 133.5,-123.761"/>
<polygon fill="none" stroke="midnightblue" points="130,-151.397 133.5,-161.397 137,-151.397 130,-151.397"/>
</g>
<!-- Node3 -->
<g id="node3" class="node"><title>Node3</title>
<g id="a_node3"><a xlink:href="../../db/d39/class_c2_m2_1_1_simulation_1_1_simulation.html" target="_top" xlink:title=" ">
<polygon fill="white" stroke="black" points="0,-354.5 0,-565.5 155,-565.5 155,-354.5 0,-354.5"/>
<text text-anchor="middle" x="77.5" y="-553.5" font-family="Courier New" font-size="10.00">Simulation&lt; double[]&gt;</text>
<polyline fill="none" stroke="black" points="0,-546.5 155,-546.5 "/>
<text text-anchor="start" x="8" y="-534.5" font-family="Courier New" font-size="10.00">+ startOnAwake</text>
<text text-anchor="start" x="8" y="-523.5" font-family="Courier New" font-size="10.00"># mutex</text>
<text text-anchor="start" x="8" y="-512.5" font-family="Courier New" font-size="10.00">&#45; solveThread</text>
<polyline fill="none" stroke="black" points="0,-505.5 155,-505.5 "/>
<text text-anchor="start" x="8" y="-493.5" font-family="Courier New" font-size="10.00">+ GetValues()</text>
<text text-anchor="start" x="8" y="-482.5" font-family="Courier New" font-size="10.00">+ Awake()</text>
<text text-anchor="start" x="8" y="-471.5" font-family="Courier New" font-size="10.00">+ Start()</text>
<text text-anchor="start" x="8" y="-460.5" font-family="Courier New" font-size="10.00">+ Update()</text>
<text text-anchor="start" x="8" y="-449.5" font-family="Courier New" font-size="10.00">+ StartSimulation()</text>
<text text-anchor="start" x="8" y="-438.5" font-family="Courier New" font-size="10.00">+ StopSimulation()</text>
<text text-anchor="start" x="8" y="-427.5" font-family="Courier New" font-size="10.00"># UpdateVisualization()</text>
<text text-anchor="start" x="8" y="-416.5" font-family="Courier New" font-size="10.00"># OnAwake()</text>
<text text-anchor="start" x="8" y="-405.5" font-family="Courier New" font-size="10.00"># OnStart()</text>
<text text-anchor="start" x="8" y="-394.5" font-family="Courier New" font-size="10.00"># OnUpdate()</text>
<text text-anchor="start" x="8" y="-383.5" font-family="Courier New" font-size="10.00"># Solve()</text>
<text text-anchor="start" x="8" y="-372.5" font-family="Courier New" font-size="10.00">&#45; OnApplicationPause()</text>
<text text-anchor="start" x="8" y="-361.5" font-family="Courier New" font-size="10.00">&#45; OnApplicationQuit()</text>
</a>
</g>
</g>
<!-- Node3&#45;&gt;Node2 -->
<g id="edge2" class="edge"><title>Node3&#45;&gt;Node2</title>
<path fill="none" stroke="midnightblue" d="M106.146,-344.417C109.349,-331.603 112.542,-318.834 115.555,-306.781"/>
<polygon fill="none" stroke="midnightblue" points="102.726,-343.664 103.696,-354.214 109.517,-345.362 102.726,-343.664"/>
</g>
<!-- Node4 -->
<g id="node4" class="node"><title>Node4</title>
<g id="a_node4"><a xlink:href="../../da/d4f/class_c2_m2_1_1_visualization_1_1_l_u_t_gradient.html" target="_top" xlink:title="Create a fast and memory&#45;friendly color lookup table from a gradient">
<polygon fill="white" stroke="black" points="173,-376.5 173,-543.5 370,-543.5 370,-376.5 173,-376.5"/>
<text text-anchor="middle" x="271.5" y="-531.5" font-family="Courier New" font-size="10.00">C2M2.Visualization.LUTGradient</text>
<polyline fill="none" stroke="black" points="173,-524.5 370,-524.5 "/>
<text text-anchor="start" x="181" y="-512.5" font-family="Courier New" font-size="10.00">+ extremaMethod</text>
<text text-anchor="start" x="181" y="-501.5" font-family="Courier New" font-size="10.00">+ globalMax</text>
<text text-anchor="start" x="181" y="-490.5" font-family="Courier New" font-size="10.00">+ globalMin</text>
<text text-anchor="start" x="181" y="-479.5" font-family="Courier New" font-size="10.00">+ LutRes</text>
<text text-anchor="start" x="181" y="-468.5" font-family="Courier New" font-size="10.00">+ Gradient</text>
<text text-anchor="start" x="181" y="-457.5" font-family="Courier New" font-size="10.00">+ gradientLUT</text>
<text text-anchor="start" x="181" y="-446.5" font-family="Courier New" font-size="10.00">&#45; lutRes</text>
<text text-anchor="start" x="181" y="-435.5" font-family="Courier New" font-size="10.00">&#45; gradient</text>
<polyline fill="none" stroke="black" points="173,-428.5 370,-428.5 "/>
<text text-anchor="start" x="181" y="-416.5" font-family="Courier New" font-size="10.00">+ Evaluate()</text>
<text text-anchor="start" x="181" y="-405.5" font-family="Courier New" font-size="10.00">+ Evaluate()</text>
<text text-anchor="start" x="181" y="-394.5" font-family="Courier New" font-size="10.00">&#45; BuildLUT()</text>
<text text-anchor="start" x="181" y="-383.5" font-family="Courier New" font-size="10.00">&#45; RescaleArray()</text>
</a>
</g>
</g>
<!-- Node4&#45;&gt;Node2 -->
<g id="edge3" class="edge"><title>Node4&#45;&gt;Node2</title>
<path fill="none" stroke="#404040" d="M220.506,-376.227C208.596,-356.895 195.916,-336.313 184.027,-317.014"/>
<polygon fill="none" stroke="#404040" points="183.996,-316.964 177.443,-313.954 177.702,-306.747 184.254,-309.758 183.996,-316.964"/>
<text text-anchor="middle" x="239" y="-328" font-family="Courier New" font-size="10.00"> +extremaMethod</text>
</g>
<!-- Node5 -->
<g id="node5" class="node"><title>Node5</title>
<g id="a_node5"><a xlink:title=" ">
<polygon fill="white" stroke="#bfbfbf" points="224,-603.5 224,-660.5 319,-660.5 319,-603.5 224,-603.5"/>
<text text-anchor="middle" x="271.5" y="-648.5" font-family="Courier New" font-size="10.00">MonoBehaviour</text>
<polyline fill="none" stroke="#bfbfbf" points="224,-641.5 319,-641.5 "/>
<text text-anchor="middle" x="271.5" y="-629.5" font-family="Courier New" font-size="10.00"> </text>
<polyline fill="none" stroke="#bfbfbf" points="224,-622.5 319,-622.5 "/>
<text text-anchor="middle" x="271.5" y="-610.5" font-family="Courier New" font-size="10.00"> </text>
</a>
</g>
</g>
<!-- Node5&#45;&gt;Node4 -->
<g id="edge4" class="edge"><title>Node5&#45;&gt;Node4</title>
<path fill="none" stroke="midnightblue" d="M271.5,-593.149C271.5,-578.476 271.5,-561.061 271.5,-543.769"/>
<polygon fill="none" stroke="midnightblue" points="268,-593.308 271.5,-603.308 275,-593.308 268,-593.308"/>
</g>
</g>
</svg>
