<?xml version="1.0" encoding="UTF-8" standalone="no"?>
<!DOCTYPE svg PUBLIC "-//W3C//DTD SVG 1.1//EN"
 "http://www.w3.org/Graphics/SVG/1.1/DTD/svg11.dtd">
<!-- Generated by graphviz version 2.38.0 (20140413.2041)
 -->
<!-- Title: C2M2.Simulation.Samples.CombinedMeshSimulation Pages: 1 -->
<svg width="408pt" height="812pt"
 viewBox="0.00 0.00 408.00 812.00" xmlns="http://www.w3.org/2000/svg" xmlns:xlink="http://www.w3.org/1999/xlink">
<g id="graph0" class="graph" transform="scale(1 1) rotate(0) translate(4 808)">
<title>C2M2.Simulation.Samples.CombinedMeshSimulation</title>
<polygon fill="white" stroke="none" points="-4,4 -4,-808 404,-808 404,4 -4,4"/>
<!-- Node1 -->
<g id="node1" class="node"><title>Node1</title>
<g id="a_node1"><a xlink:title="Run a blank ScalarFieldSimulation using every MeshRenderer childed under this script">
<polygon fill="#bfbfbf" stroke="black" points="72,-0.5 72,-134.5 233,-134.5 233,-0.5 72,-0.5"/>
<text text-anchor="start" x="80" y="-122.5" font-family="Courier New" font-size="10.00">C2M2.Simulation.Samples.</text>
<text text-anchor="middle" x="152.5" y="-111.5" font-family="Courier New" font-size="10.00">CombinedMeshSimulation</text>
<polyline fill="none" stroke="black" points="72,-104.5 233,-104.5 "/>
<text text-anchor="start" x="80" y="-92.5" font-family="Courier New" font-size="10.00">&#45; values</text>
<polyline fill="none" stroke="black" points="72,-85.5 233,-85.5 "/>
<text text-anchor="start" x="80" y="-73.5" font-family="Courier New" font-size="10.00">+ GetSimulationTime()</text>
<text text-anchor="start" x="80" y="-62.5" font-family="Courier New" font-size="10.00">+ GetValues()</text>
<text text-anchor="start" x="80" y="-51.5" font-family="Courier New" font-size="10.00">+ SetValues()</text>
<text text-anchor="start" x="80" y="-40.5" font-family="Courier New" font-size="10.00"># BuildVisualization()</text>
<text text-anchor="start" x="80" y="-29.5" font-family="Courier New" font-size="10.00"># Solve()</text>
<text text-anchor="start" x="80" y="-18.5" font-family="Courier New" font-size="10.00">&#45; CombineMeshes()</text>
<text text-anchor="start" x="80" y="-7.5" font-family="Courier New" font-size="10.00">&#45; CombineMeshes()</text>
</a>
</g>
</g>
<!-- Node2 -->
<g id="node2" class="node"><title>Node2</title>
<g id="a_node2"><a xlink:href="../../d6/d2d/class_c2_m2_1_1_simulation_1_1_mesh_simulation.html" target="_top" xlink:title="Simulation of type double[] for visualizing scalar fields on mesh surfaces">
<polygon fill="white" stroke="black" points="66,-172.5 66,-350.5 239,-350.5 239,-172.5 66,-172.5"/>
<text text-anchor="middle" x="152.5" y="-338.5" font-family="Courier New" font-size="10.00">Simulation::MeshSimulation</text>
<polyline fill="none" stroke="black" points="66,-331.5 239,-331.5 "/>
<text text-anchor="start" x="74" y="-319.5" font-family="Courier New" font-size="10.00">+ gradient</text>
<text text-anchor="start" x="74" y="-308.5" font-family="Courier New" font-size="10.00">+ globalMax</text>
<text text-anchor="start" x="74" y="-297.5" font-family="Courier New" font-size="10.00">+ globalMin</text>
<text text-anchor="start" x="74" y="-286.5" font-family="Courier New" font-size="10.00">+ colorLUT</text>
<text text-anchor="start" x="74" y="-275.5" font-family="Courier New" font-size="10.00">+ VisualMesh</text>
<text text-anchor="start" x="74" y="-264.5" font-family="Courier New" font-size="10.00">+ ColliderMesh</text>
<text text-anchor="start" x="74" y="-253.5" font-family="Courier New" font-size="10.00">&#45; visualMesh</text>
<text text-anchor="start" x="74" y="-242.5" font-family="Courier New" font-size="10.00">&#45; colliderMesh</text>
<text text-anchor="start" x="74" y="-231.5" font-family="Courier New" font-size="10.00">&#45; mf</text>
<text text-anchor="start" x="74" y="-220.5" font-family="Courier New" font-size="10.00">&#45; mr</text>
<polyline fill="none" stroke="black" points="66,-213.5 239,-213.5 "/>
<text text-anchor="start" x="74" y="-201.5" font-family="Courier New" font-size="10.00"># UpdateVisualization()</text>
<text text-anchor="start" x="74" y="-190.5" font-family="Courier New" font-size="10.00"># OnAwakePost()</text>
<text text-anchor="start" x="74" y="-179.5" font-family="Courier New" font-size="10.00">&#45; UpdateVisualization()</text>
</a>
</g>
</g>
<!-- Node2&#45;&gt;Node1 -->
<g id="edge1" class="edge"><title>Node2&#45;&gt;Node1</title>
<path fill="none" stroke="midnightblue" d="M152.5,-162.211C152.5,-152.846 152.5,-143.511 152.5,-134.561"/>
<polygon fill="none" stroke="midnightblue" points="149,-162.367 152.5,-172.367 156,-162.367 149,-162.367"/>
</g>
<!-- Node3 -->
<g id="node3" class="node"><title>Node3</title>
<g id="a_node3"><a xlink:href="../../db/d39/class_c2_m2_1_1_simulation_1_1_simulation.html" target="_top" xlink:title=" ">
<polygon fill="white" stroke="black" points="0,-398.5 0,-708.5 185,-708.5 185,-398.5 0,-398.5"/>
<text text-anchor="start" x="8" y="-696.5" font-family="Courier New" font-size="10.00">Simulation&lt; double</text>
<text text-anchor="start" x="8" y="-685.5" font-family="Courier New" font-size="10.00">[], Mesh, VRRaycastableMesh,</text>
<text text-anchor="middle" x="92.5" y="-674.5" font-family="Courier New" font-size="10.00"> VRGrabbableMesh &gt;</text>
<polyline fill="none" stroke="black" points="0,-667.5 185,-667.5 "/>
<text text-anchor="start" x="8" y="-655.5" font-family="Courier New" font-size="10.00">+ dryRun</text>
<text text-anchor="start" x="8" y="-644.5" font-family="Courier New" font-size="10.00">+ startOnAwake</text>
<text text-anchor="start" x="8" y="-633.5" font-family="Courier New" font-size="10.00">+ viz</text>
<text text-anchor="start" x="8" y="-622.5" font-family="Courier New" font-size="10.00"># mutex</text>
<text text-anchor="start" x="8" y="-611.5" font-family="Courier New" font-size="10.00">&#45; solveThread</text>
<polyline fill="none" stroke="black" points="0,-604.5 185,-604.5 "/>
<text text-anchor="start" x="8" y="-592.5" font-family="Courier New" font-size="10.00">+ GetValues()</text>
<text text-anchor="start" x="8" y="-581.5" font-family="Courier New" font-size="10.00">+ Awake()</text>
<text text-anchor="start" x="8" y="-570.5" font-family="Courier New" font-size="10.00">+ Start()</text>
<text text-anchor="start" x="8" y="-559.5" font-family="Courier New" font-size="10.00">+ Update()</text>
<text text-anchor="start" x="8" y="-548.5" font-family="Courier New" font-size="10.00">+ StartSimulation()</text>
<text text-anchor="start" x="8" y="-537.5" font-family="Courier New" font-size="10.00">+ StopSimulation()</text>
<text text-anchor="start" x="8" y="-526.5" font-family="Courier New" font-size="10.00"># BuildVisualization()</text>
<text text-anchor="start" x="8" y="-515.5" font-family="Courier New" font-size="10.00"># UpdateVisualization()</text>
<text text-anchor="start" x="8" y="-504.5" font-family="Courier New" font-size="10.00"># Solve()</text>
<text text-anchor="start" x="8" y="-493.5" font-family="Courier New" font-size="10.00"># PreSolve()</text>
<text text-anchor="start" x="8" y="-482.5" font-family="Courier New" font-size="10.00"># OnAwakePre()</text>
<text text-anchor="start" x="8" y="-471.5" font-family="Courier New" font-size="10.00"># OnAwakePost()</text>
<text text-anchor="start" x="8" y="-460.5" font-family="Courier New" font-size="10.00"># OnStart()</text>
<text text-anchor="start" x="8" y="-449.5" font-family="Courier New" font-size="10.00"># OnUpdate()</text>
<text text-anchor="start" x="8" y="-438.5" font-family="Courier New" font-size="10.00"># OnPause()</text>
<text text-anchor="start" x="8" y="-427.5" font-family="Courier New" font-size="10.00"># OnQuit()</text>
<text text-anchor="start" x="8" y="-416.5" font-family="Courier New" font-size="10.00">&#45; OnApplicationPause()</text>
<text text-anchor="start" x="8" y="-405.5" font-family="Courier New" font-size="10.00">&#45; OnApplicationQuit()</text>
</a>
</g>
</g>
<!-- Node3&#45;&gt;Node2 -->
<g id="edge2" class="edge"><title>Node3&#45;&gt;Node2</title>
<path fill="none" stroke="midnightblue" d="M126.473,-388.295C129.134,-375.438 131.751,-362.785 134.241,-350.752"/>
<polygon fill="none" stroke="midnightblue" points="123.031,-387.658 124.432,-398.16 129.886,-389.077 123.031,-387.658"/>
</g>
<!-- Node4 -->
<g id="node4" class="node"><title>Node4</title>
<g id="a_node4"><a xlink:href="../../da/d4f/class_c2_m2_1_1_visualization_1_1_l_u_t_gradient.html" target="_top" xlink:title="Create a fast and memory&#45;friendly color lookup table from a gradient">
<polygon fill="white" stroke="black" points="203,-437 203,-670 400,-670 400,-437 203,-437"/>
<text text-anchor="middle" x="301.5" y="-658" font-family="Courier New" font-size="10.00">C2M2.Visualization.LUTGradient</text>
<polyline fill="none" stroke="black" points="203,-651 400,-651 "/>
<text text-anchor="start" x="211" y="-639" font-family="Courier New" font-size="10.00">+ extremaMethod</text>
<text text-anchor="start" x="211" y="-628" font-family="Courier New" font-size="10.00">+ globalMax</text>
<text text-anchor="start" x="211" y="-617" font-family="Courier New" font-size="10.00">+ globalMin</text>
<text text-anchor="start" x="211" y="-606" font-family="Courier New" font-size="10.00">+ curMax</text>
<text text-anchor="start" x="211" y="-595" font-family="Courier New" font-size="10.00">+ curMix</text>
<text text-anchor="start" x="211" y="-584" font-family="Courier New" font-size="10.00">+ LutRes</text>
<text text-anchor="start" x="211" y="-573" font-family="Courier New" font-size="10.00">+ Gradient</text>
<text text-anchor="start" x="211" y="-562" font-family="Courier New" font-size="10.00">+ gradientLUT</text>
<text text-anchor="start" x="211" y="-551" font-family="Courier New" font-size="10.00">+ oldMin</text>
<text text-anchor="start" x="211" y="-540" font-family="Courier New" font-size="10.00">+ oldMax</text>
<text text-anchor="start" x="211" y="-529" font-family="Courier New" font-size="10.00">&#45; lutRes</text>
<text text-anchor="start" x="211" y="-518" font-family="Courier New" font-size="10.00">&#45; gradient</text>
<polyline fill="none" stroke="black" points="203,-511 400,-511 "/>
<text text-anchor="start" x="211" y="-499" font-family="Courier New" font-size="10.00">+ Evaluate()</text>
<text text-anchor="start" x="211" y="-488" font-family="Courier New" font-size="10.00">+ Evaluate()</text>
<text text-anchor="start" x="211" y="-477" font-family="Courier New" font-size="10.00">+ EvaluateUnscaled()</text>
<text text-anchor="start" x="211" y="-466" font-family="Courier New" font-size="10.00">+ GetMinMax()</text>
<text text-anchor="start" x="211" y="-455" font-family="Courier New" font-size="10.00">&#45; BuildLUT()</text>
<text text-anchor="start" x="211" y="-444" font-family="Courier New" font-size="10.00">&#45; RescaleArray()</text>
</a>
</g>
</g>
<!-- Node4&#45;&gt;Node2 -->
<g id="edge3" class="edge"><title>Node4&#45;&gt;Node2</title>
<path fill="none" stroke="#404040" d="M241.969,-436.634C229.246,-411.871 215.915,-385.925 203.545,-361.85"/>
<polygon fill="none" stroke="#404040" points="203.419,-361.604 197.119,-358.095 197.935,-350.93 204.235,-354.439 203.419,-361.604"/>
<text text-anchor="middle" x="254" y="-372" font-family="Courier New" font-size="10.00"> +extremaMethod</text>
</g>
<!-- Node5 -->
<g id="node5" class="node"><title>Node5</title>
<g id="a_node5"><a xlink:title=" ">
<polygon fill="white" stroke="#bfbfbf" points="254,-746.5 254,-803.5 349,-803.5 349,-746.5 254,-746.5"/>
<text text-anchor="middle" x="301.5" y="-791.5" font-family="Courier New" font-size="10.00">MonoBehaviour</text>
<polyline fill="none" stroke="#bfbfbf" points="254,-784.5 349,-784.5 "/>
<text text-anchor="middle" x="301.5" y="-772.5" font-family="Courier New" font-size="10.00"> </text>
<polyline fill="none" stroke="#bfbfbf" points="254,-765.5 349,-765.5 "/>
<text text-anchor="middle" x="301.5" y="-753.5" font-family="Courier New" font-size="10.00"> </text>
</a>
</g>
</g>
<!-- Node5&#45;&gt;Node4 -->
<g id="edge4" class="edge"><title>Node5&#45;&gt;Node4</title>
<path fill="none" stroke="midnightblue" d="M301.5,-736.122C301.5,-717.513 301.5,-693.983 301.5,-670.083"/>
<polygon fill="none" stroke="midnightblue" points="298,-736.2 301.5,-746.2 305,-736.2 298,-736.2"/>
</g>
</g>
</svg>
