<?xml version="1.0" encoding="UTF-8" standalone="no"?>
<!DOCTYPE svg PUBLIC "-//W3C//DTD SVG 1.1//EN"
 "http://www.w3.org/Graphics/SVG/1.1/DTD/svg11.dtd">
<!-- Generated by graphviz version 2.38.0 (20140413.2041)
 -->
<!-- Title: C2M2.Simulation.Samples.CombinedMeshSimulation Pages: 1 -->
<svg width="408pt" height="746pt"
 viewBox="0.00 0.00 408.00 746.00" xmlns="http://www.w3.org/2000/svg" xmlns:xlink="http://www.w3.org/1999/xlink">
<g id="graph0" class="graph" transform="scale(1 1) rotate(0) translate(4 742)">
<title>C2M2.Simulation.Samples.CombinedMeshSimulation</title>
<polygon fill="white" stroke="none" points="-4,4 -4,-742 404,-742 404,4 -4,4"/>
<!-- Node1 -->
<g id="node1" class="node"><title>Node1</title>
<g id="a_node1"><a xlink:title="Run a blank ScalarFieldSimulation using every MeshRenderer childed under this script">
<polygon fill="#bfbfbf" stroke="black" points="72,-0.5 72,-134.5 233,-134.5 233,-0.5 72,-0.5"/>
<text text-anchor="start" x="80" y="-122.5" font-family="Courier New" font-size="10.00">C2M2.Simulation.Samples.</text>
<text text-anchor="middle" x="152.5" y="-111.5" font-family="Courier New" font-size="10.00">CombinedMeshSimulation</text>
<polyline fill="none" stroke="black" points="72,-104.5 233,-104.5 "/>
<text text-anchor="start" x="80" y="-92.5" font-family="Courier New" font-size="10.00">&#45; values</text>
<polyline fill="none" stroke="black" points="72,-85.5 233,-85.5 "/>
<text text-anchor="start" x="80" y="-73.5" font-family="Courier New" font-size="10.00">+ GetValues()</text>
<text text-anchor="start" x="80" y="-62.5" font-family="Courier New" font-size="10.00">+ SetValues()</text>
<text text-anchor="start" x="80" y="-51.5" font-family="Courier New" font-size="10.00"># ReadData()</text>
<text text-anchor="start" x="80" y="-40.5" font-family="Courier New" font-size="10.00"># BuildVisualization()</text>
<text text-anchor="start" x="80" y="-29.5" font-family="Courier New" font-size="10.00"># Solve()</text>
<text text-anchor="start" x="80" y="-18.5" font-family="Courier New" font-size="10.00">&#45; CombineMeshes()</text>
<text text-anchor="start" x="80" y="-7.5" font-family="Courier New" font-size="10.00">&#45; CombineMeshes()</text>
</a>
</g>
</g>
<!-- Node2 -->
<g id="node2" class="node"><title>Node2</title>
<g id="a_node2"><a xlink:href="../../d6/d2d/class_c2_m2_1_1_simulation_1_1_mesh_simulation.html" target="_top" xlink:title="Simulation of type double[] for visualizing scalar fields on mesh surfaces">
<polygon fill="white" stroke="black" points="66,-172.5 66,-317.5 239,-317.5 239,-172.5 66,-172.5"/>
<text text-anchor="middle" x="152.5" y="-305.5" font-family="Courier New" font-size="10.00">Simulation::MeshSimulation</text>
<polyline fill="none" stroke="black" points="66,-298.5 239,-298.5 "/>
<text text-anchor="start" x="74" y="-286.5" font-family="Courier New" font-size="10.00">+ gradient</text>
<text text-anchor="start" x="74" y="-275.5" font-family="Courier New" font-size="10.00">+ globalMax</text>
<text text-anchor="start" x="74" y="-264.5" font-family="Courier New" font-size="10.00">+ globalMin</text>
<text text-anchor="start" x="74" y="-253.5" font-family="Courier New" font-size="10.00">+ colorLUT</text>
<text text-anchor="start" x="74" y="-242.5" font-family="Courier New" font-size="10.00"># colliderMesh</text>
<text text-anchor="start" x="74" y="-231.5" font-family="Courier New" font-size="10.00">&#45; mf</text>
<text text-anchor="start" x="74" y="-220.5" font-family="Courier New" font-size="10.00">&#45; mr</text>
<polyline fill="none" stroke="black" points="66,-213.5 239,-213.5 "/>
<text text-anchor="start" x="74" y="-201.5" font-family="Courier New" font-size="10.00"># UpdateVisualization()</text>
<text text-anchor="start" x="74" y="-190.5" font-family="Courier New" font-size="10.00"># OnAwake()</text>
<text text-anchor="start" x="74" y="-179.5" font-family="Courier New" font-size="10.00">&#45; UpdateVisualization()</text>
</a>
</g>
</g>
<!-- Node2&#45;&gt;Node1 -->
<g id="edge1" class="edge"><title>Node2&#45;&gt;Node1</title>
<path fill="none" stroke="midnightblue" d="M152.5,-162.319C152.5,-153.01 152.5,-143.609 152.5,-134.538"/>
<polygon fill="none" stroke="midnightblue" points="149,-162.364 152.5,-172.364 156,-162.364 149,-162.364"/>
</g>
<!-- Node3 -->
<g id="node3" class="node"><title>Node3</title>
<g id="a_node3"><a xlink:href="../../db/d39/class_c2_m2_1_1_simulation_1_1_simulation.html" target="_top" xlink:title=" ">
<polygon fill="white" stroke="black" points="0,-365.5 0,-642.5 185,-642.5 185,-365.5 0,-365.5"/>
<text text-anchor="start" x="8" y="-630.5" font-family="Courier New" font-size="10.00">Simulation&lt; double</text>
<text text-anchor="start" x="8" y="-619.5" font-family="Courier New" font-size="10.00">[], Mesh, VRRaycastableMesh,</text>
<text text-anchor="middle" x="92.5" y="-608.5" font-family="Courier New" font-size="10.00"> VRGrabbableMesh &gt;</text>
<polyline fill="none" stroke="black" points="0,-601.5 185,-601.5 "/>
<text text-anchor="start" x="8" y="-589.5" font-family="Courier New" font-size="10.00">+ dryRun</text>
<text text-anchor="start" x="8" y="-578.5" font-family="Courier New" font-size="10.00">+ startOnAwake</text>
<text text-anchor="start" x="8" y="-567.5" font-family="Courier New" font-size="10.00">+ viz</text>
<text text-anchor="start" x="8" y="-556.5" font-family="Courier New" font-size="10.00"># mutex</text>
<text text-anchor="start" x="8" y="-545.5" font-family="Courier New" font-size="10.00">&#45; solveThread</text>
<polyline fill="none" stroke="black" points="0,-538.5 185,-538.5 "/>
<text text-anchor="start" x="8" y="-526.5" font-family="Courier New" font-size="10.00">+ GetValues()</text>
<text text-anchor="start" x="8" y="-515.5" font-family="Courier New" font-size="10.00">+ StartSimulation()</text>
<text text-anchor="start" x="8" y="-504.5" font-family="Courier New" font-size="10.00">+ StopSimulation()</text>
<text text-anchor="start" x="8" y="-493.5" font-family="Courier New" font-size="10.00">+ Awake()</text>
<text text-anchor="start" x="8" y="-482.5" font-family="Courier New" font-size="10.00">+ Start()</text>
<text text-anchor="start" x="8" y="-471.5" font-family="Courier New" font-size="10.00">+ Update()</text>
<text text-anchor="start" x="8" y="-460.5" font-family="Courier New" font-size="10.00"># BuildVisualization()</text>
<text text-anchor="start" x="8" y="-449.5" font-family="Courier New" font-size="10.00"># ReadData()</text>
<text text-anchor="start" x="8" y="-438.5" font-family="Courier New" font-size="10.00"># UpdateVisualization()</text>
<text text-anchor="start" x="8" y="-427.5" font-family="Courier New" font-size="10.00"># Solve()</text>
<text text-anchor="start" x="8" y="-416.5" font-family="Courier New" font-size="10.00"># OnAwake()</text>
<text text-anchor="start" x="8" y="-405.5" font-family="Courier New" font-size="10.00"># OnStart()</text>
<text text-anchor="start" x="8" y="-394.5" font-family="Courier New" font-size="10.00"># OnUpdate()</text>
<text text-anchor="start" x="8" y="-383.5" font-family="Courier New" font-size="10.00">&#45; OnApplicationPause()</text>
<text text-anchor="start" x="8" y="-372.5" font-family="Courier New" font-size="10.00">&#45; OnApplicationQuit()</text>
</a>
</g>
</g>
<!-- Node3&#45;&gt;Node2 -->
<g id="edge2" class="edge"><title>Node3&#45;&gt;Node2</title>
<path fill="none" stroke="midnightblue" d="M126.943,-355.469C129.984,-342.445 132.962,-329.688 135.749,-317.749"/>
<polygon fill="none" stroke="midnightblue" points="123.473,-354.938 124.608,-365.471 130.29,-356.529 123.473,-354.938"/>
</g>
<!-- Node4 -->
<g id="node4" class="node"><title>Node4</title>
<g id="a_node4"><a xlink:href="../../da/d4f/class_c2_m2_1_1_visualization_1_1_l_u_t_gradient.html" target="_top" xlink:title="Create a fast and memory&#45;friendly color lookup table from a gradient">
<polygon fill="white" stroke="black" points="203,-420.5 203,-587.5 400,-587.5 400,-420.5 203,-420.5"/>
<text text-anchor="middle" x="301.5" y="-575.5" font-family="Courier New" font-size="10.00">C2M2.Visualization.LUTGradient</text>
<polyline fill="none" stroke="black" points="203,-568.5 400,-568.5 "/>
<text text-anchor="start" x="211" y="-556.5" font-family="Courier New" font-size="10.00">+ extremaMethod</text>
<text text-anchor="start" x="211" y="-545.5" font-family="Courier New" font-size="10.00">+ globalMax</text>
<text text-anchor="start" x="211" y="-534.5" font-family="Courier New" font-size="10.00">+ globalMin</text>
<text text-anchor="start" x="211" y="-523.5" font-family="Courier New" font-size="10.00">+ LutRes</text>
<text text-anchor="start" x="211" y="-512.5" font-family="Courier New" font-size="10.00">+ Gradient</text>
<text text-anchor="start" x="211" y="-501.5" font-family="Courier New" font-size="10.00">+ gradientLUT</text>
<text text-anchor="start" x="211" y="-490.5" font-family="Courier New" font-size="10.00">&#45; lutRes</text>
<text text-anchor="start" x="211" y="-479.5" font-family="Courier New" font-size="10.00">&#45; gradient</text>
<polyline fill="none" stroke="black" points="203,-472.5 400,-472.5 "/>
<text text-anchor="start" x="211" y="-460.5" font-family="Courier New" font-size="10.00">+ Evaluate()</text>
<text text-anchor="start" x="211" y="-449.5" font-family="Courier New" font-size="10.00">+ Evaluate()</text>
<text text-anchor="start" x="211" y="-438.5" font-family="Courier New" font-size="10.00">&#45; BuildLUT()</text>
<text text-anchor="start" x="211" y="-427.5" font-family="Courier New" font-size="10.00">&#45; RescaleArray()</text>
</a>
</g>
</g>
<!-- Node4&#45;&gt;Node2 -->
<g id="edge3" class="edge"><title>Node4&#45;&gt;Node2</title>
<path fill="none" stroke="#404040" d="M253.535,-420.269C236.487,-390.864 217.307,-357.782 200.275,-328.404"/>
<polygon fill="none" stroke="#404040" points="200.124,-328.144 193.654,-324.959 194.105,-317.762 200.575,-320.947 200.124,-328.144"/>
<text text-anchor="middle" x="254" y="-339" font-family="Courier New" font-size="10.00"> +extremaMethod</text>
</g>
<!-- Node5 -->
<g id="node5" class="node"><title>Node5</title>
<g id="a_node5"><a xlink:title=" ">
<polygon fill="white" stroke="#bfbfbf" points="254,-680.5 254,-737.5 349,-737.5 349,-680.5 254,-680.5"/>
<text text-anchor="middle" x="301.5" y="-725.5" font-family="Courier New" font-size="10.00">MonoBehaviour</text>
<polyline fill="none" stroke="#bfbfbf" points="254,-718.5 349,-718.5 "/>
<text text-anchor="middle" x="301.5" y="-706.5" font-family="Courier New" font-size="10.00"> </text>
<polyline fill="none" stroke="#bfbfbf" points="254,-699.5 349,-699.5 "/>
<text text-anchor="middle" x="301.5" y="-687.5" font-family="Courier New" font-size="10.00"> </text>
</a>
</g>
</g>
<!-- Node5&#45;&gt;Node4 -->
<g id="edge4" class="edge"><title>Node5&#45;&gt;Node4</title>
<path fill="none" stroke="midnightblue" d="M301.5,-670.09C301.5,-646.874 301.5,-616.226 301.5,-587.646"/>
<polygon fill="none" stroke="midnightblue" points="298,-670.199 301.5,-680.199 305,-670.199 298,-670.199"/>
</g>
</g>
</svg>
