<?xml version="1.0" encoding="UTF-8" standalone="no"?>
<!DOCTYPE svg PUBLIC "-//W3C//DTD SVG 1.1//EN"
 "http://www.w3.org/Graphics/SVG/1.1/DTD/svg11.dtd">
<!-- Generated by graphviz version 2.38.0 (20140413.2041)
 -->
<!-- Title: C2M2.NeuronalDynamics.Visualization.VRN.VrnReaderBehaviour Pages: 1 -->
<svg width="241pt" height="171pt"
 viewBox="0.00 0.00 241.00 171.00" xmlns="http://www.w3.org/2000/svg" xmlns:xlink="http://www.w3.org/1999/xlink">
<g id="graph0" class="graph" transform="scale(1 1) rotate(0) translate(4 167)">
<title>C2M2.NeuronalDynamics.Visualization.VRN.VrnReaderBehaviour</title>
<polygon fill="white" stroke="none" points="-4,4 -4,-167 237,-167 237,4 -4,4"/>
<!-- Node1 -->
<g id="node1" class="node"><title>Node1</title>
<g id="a_node1"><a xlink:title="Example behaviour to demonstrate vrnReader usage">
<polygon fill="#bfbfbf" stroke="black" points="0,-0.5 0,-68.5 233,-68.5 233,-0.5 0,-0.5"/>
<text text-anchor="start" x="8" y="-56.5" font-family="Courier New" font-size="10.00">C2M2.NeuronalDynamics.Visualization.</text>
<text text-anchor="middle" x="116.5" y="-45.5" font-family="Courier New" font-size="10.00">VRN.VrnReaderBehaviour</text>
<polyline fill="none" stroke="black" points="0,-38.5 233,-38.5 "/>
<text text-anchor="start" x="8" y="-26.5" font-family="Courier New" font-size="10.00">+ fileName</text>
<polyline fill="none" stroke="black" points="0,-19.5 233,-19.5 "/>
<text text-anchor="start" x="8" y="-7.5" font-family="Courier New" font-size="10.00">+ Start()</text>
</a>
</g>
</g>
<!-- Node2 -->
<g id="node2" class="node"><title>Node2</title>
<g id="a_node2"><a xlink:title=" ">
<polygon fill="white" stroke="#bfbfbf" points="69,-105.5 69,-162.5 164,-162.5 164,-105.5 69,-105.5"/>
<text text-anchor="middle" x="116.5" y="-150.5" font-family="Courier New" font-size="10.00">MonoBehaviour</text>
<polyline fill="none" stroke="#bfbfbf" points="69,-143.5 164,-143.5 "/>
<text text-anchor="middle" x="116.5" y="-131.5" font-family="Courier New" font-size="10.00"> </text>
<polyline fill="none" stroke="#bfbfbf" points="69,-124.5 164,-124.5 "/>
<text text-anchor="middle" x="116.5" y="-112.5" font-family="Courier New" font-size="10.00"> </text>
</a>
</g>
</g>
<!-- Node2&#45;&gt;Node1 -->
<g id="edge1" class="edge"><title>Node2&#45;&gt;Node1</title>
<path fill="none" stroke="midnightblue" d="M116.5,-95.0631C116.5,-86.3933 116.5,-77.2431 116.5,-68.7855"/>
<polygon fill="none" stroke="midnightblue" points="113,-95.3212 116.5,-105.321 120,-95.3212 113,-95.3212"/>
</g>
</g>
</svg>
