<?xml version="1.0" encoding="UTF-8" standalone="no"?>
<!DOCTYPE svg PUBLIC "-//W3C//DTD SVG 1.1//EN"
 "http://www.w3.org/Graphics/SVG/1.1/DTD/svg11.dtd">
<!-- Generated by graphviz version 2.38.0 (20140413.2041)
 -->
<!-- Title: C2M2.GameManager Pages: 1 -->
<svg width="907pt" height="1982pt"
 viewBox="0.00 0.00 907.00 1982.00" xmlns="http://www.w3.org/2000/svg" xmlns:xlink="http://www.w3.org/1999/xlink">
<g id="graph0" class="graph" transform="scale(1 1) rotate(0) translate(4 1978)">
<title>C2M2.GameManager</title>
<polygon fill="white" stroke="none" points="-4,4 -4,-1978 903,-1978 903,4 -4,4"/>
<!-- Node1 -->
<g id="node1" class="node"><title>Node1</title>
<g id="a_node1"><a xlink:title="Stores many global variables, handles pregame initializations">
<polygon fill="#bfbfbf" stroke="black" points="610,-0.5 610,-387.5 819,-387.5 819,-0.5 610,-0.5"/>
<text text-anchor="middle" x="714.5" y="-375.5" font-family="Courier New" font-size="10.00">C2M2.GameManager</text>
<polyline fill="none" stroke="black" points="610,-368.5 819,-368.5 "/>
<text text-anchor="start" x="618" y="-356.5" font-family="Courier New" font-size="10.00">+ clampInstantiator</text>
<text text-anchor="start" x="618" y="-345.5" font-family="Courier New" font-size="10.00">+ clampControllers</text>
<text text-anchor="start" x="618" y="-334.5" font-family="Courier New" font-size="10.00">+ walls</text>
<text text-anchor="start" x="618" y="-323.5" font-family="Courier New" font-size="10.00">+ wallColor</text>
<text text-anchor="start" x="618" y="-312.5" font-family="Courier New" font-size="10.00">+ defaultMaterial</text>
<text text-anchor="start" x="618" y="-301.5" font-family="Courier New" font-size="10.00">+ vertexColorationMaterial</text>
<text text-anchor="start" x="618" y="-290.5" font-family="Courier New" font-size="10.00">+ lineRendMaterial</text>
<text text-anchor="start" x="618" y="-279.5" font-family="Courier New" font-size="10.00">+ whiteboard</text>
<text text-anchor="start" x="618" y="-268.5" font-family="Courier New" font-size="10.00">+ objScaleDefault</text>
<text text-anchor="start" x="618" y="-257.5" font-family="Courier New" font-size="10.00">+ objScaleMax</text>
<text text-anchor="start" x="618" y="-246.5" font-family="Courier New" font-size="10.00">and 6 more...</text>
<text text-anchor="start" x="618" y="-235.5" font-family="Courier New" font-size="10.00">+ mainThreadId</text>
<text text-anchor="start" x="618" y="-224.5" font-family="Courier New" font-size="10.00">+ assetsPath</text>
<text text-anchor="start" x="618" y="-213.5" font-family="Courier New" font-size="10.00">+ vrIsActive</text>
<text text-anchor="start" x="618" y="-202.5" font-family="Courier New" font-size="10.00">+ ovrPlayerController</text>
<text text-anchor="start" x="618" y="-191.5" font-family="Courier New" font-size="10.00">+ nonVRCamera</text>
<text text-anchor="start" x="618" y="-180.5" font-family="Courier New" font-size="10.00">+ raycastKeyboard</text>
<text text-anchor="start" x="618" y="-169.5" font-family="Courier New" font-size="10.00">&#45; isRunning</text>
<text text-anchor="start" x="618" y="-158.5" font-family="Courier New" font-size="10.00">&#45; logQ</text>
<text text-anchor="start" x="618" y="-147.5" font-family="Courier New" font-size="10.00">&#45; logQCap</text>
<text text-anchor="start" x="618" y="-136.5" font-family="Courier New" font-size="10.00">&#45; eLogQ</text>
<text text-anchor="start" x="618" y="-125.5" font-family="Courier New" font-size="10.00">&#45; eLogQCap</text>
<polyline fill="none" stroke="black" points="610,-118.5 819,-118.5 "/>
<text text-anchor="start" x="618" y="-106.5" font-family="Courier New" font-size="10.00">+ RaycasterRightChangeColor()</text>
<text text-anchor="start" x="618" y="-95.5" font-family="Courier New" font-size="10.00">+ RaycasterLeftChangeColor()</text>
<text text-anchor="start" x="618" y="-84.5" font-family="Courier New" font-size="10.00">+ DebugLogSafe()</text>
<text text-anchor="start" x="618" y="-73.5" font-family="Courier New" font-size="10.00">+ DebugLogThreadSafe&lt; T &gt;()</text>
<text text-anchor="start" x="618" y="-62.5" font-family="Courier New" font-size="10.00">+ DebugLogErrorSafe()</text>
<text text-anchor="start" x="618" y="-51.5" font-family="Courier New" font-size="10.00">+ DebugLogErrorThreadSafe&lt; T &gt;()</text>
<text text-anchor="start" x="618" y="-40.5" font-family="Courier New" font-size="10.00">&#45; Awake()</text>
<text text-anchor="start" x="618" y="-29.5" font-family="Courier New" font-size="10.00">&#45; Update()</text>
<text text-anchor="start" x="618" y="-18.5" font-family="Courier New" font-size="10.00">&#45; OnApplicationQuit()</text>
<text text-anchor="start" x="618" y="-7.5" font-family="Courier New" font-size="10.00">&#45; OnApplicationPause()</text>
</a>
</g>
</g>
<!-- Node2 -->
<g id="node2" class="node"><title>Node2</title>
<g id="a_node2"><a xlink:title=" ">
<polygon fill="white" stroke="#bfbfbf" points="386,-1816 386,-1873 481,-1873 481,-1816 386,-1816"/>
<text text-anchor="middle" x="433.5" y="-1861" font-family="Courier New" font-size="10.00">MonoBehaviour</text>
<polyline fill="none" stroke="#bfbfbf" points="386,-1854 481,-1854 "/>
<text text-anchor="middle" x="433.5" y="-1842" font-family="Courier New" font-size="10.00"> </text>
<polyline fill="none" stroke="#bfbfbf" points="386,-1835 481,-1835 "/>
<text text-anchor="middle" x="433.5" y="-1823" font-family="Courier New" font-size="10.00"> </text>
</a>
</g>
</g>
<!-- Node2&#45;&gt;Node1 -->
<g id="edge1" class="edge"><title>Node2&#45;&gt;Node1</title>
<path fill="none" stroke="midnightblue" d="M491.368,-1838.62C574.838,-1830.93 724.401,-1814.52 773.5,-1792 839.535,-1761.72 897.5,-1758.15 897.5,-1685.5 897.5,-1685.5 897.5,-1685.5 897.5,-501.5 897.5,-429.764 860.088,-360.238 819.095,-305.59"/>
<polygon fill="none" stroke="midnightblue" points="490.923,-1835.15 481.281,-1839.54 491.556,-1842.12 490.923,-1835.15"/>
</g>
<!-- Node3 -->
<g id="node3" class="node"><title>Node3</title>
<g id="a_node3"><a xlink:href="../../d6/d37/class_c2_m2_1_1_interaction_1_1_v_r_1_1_v_r_device_manager.html" target="_top" xlink:title="Make sure that a VR device is loaded before using OVRPlayerController. If none is loaded,...">
<polygon fill="white" stroke="black" points="140,-435.5 140,-569.5 325,-569.5 325,-435.5 140,-435.5"/>
<text text-anchor="start" x="148" y="-557.5" font-family="Courier New" font-size="10.00">C2M2.Interaction.VR.VRDevice</text>
<text text-anchor="middle" x="232.5" y="-546.5" font-family="Courier New" font-size="10.00">Manager</text>
<polyline fill="none" stroke="black" points="140,-539.5 325,-539.5 "/>
<text text-anchor="start" x="148" y="-527.5" font-family="Courier New" font-size="10.00">+ informationOverlay</text>
<text text-anchor="start" x="148" y="-516.5" font-family="Courier New" font-size="10.00">+ informationDisplayTV</text>
<text text-anchor="start" x="148" y="-505.5" font-family="Courier New" font-size="10.00">+ vrIsActive</text>
<text text-anchor="start" x="148" y="-494.5" font-family="Courier New" font-size="10.00">&#45; playerController</text>
<text text-anchor="start" x="148" y="-483.5" font-family="Courier New" font-size="10.00">&#45; emulatorMove</text>
<text text-anchor="start" x="148" y="-472.5" font-family="Courier New" font-size="10.00">&#45; prev</text>
<polyline fill="none" stroke="black" points="140,-465.5 325,-465.5 "/>
<text text-anchor="start" x="148" y="-453.5" font-family="Courier New" font-size="10.00">&#45; Awake()</text>
<text text-anchor="start" x="148" y="-442.5" font-family="Courier New" font-size="10.00">&#45; Update()</text>
</a>
</g>
</g>
<!-- Node2&#45;&gt;Node3 -->
<g id="edge3" class="edge"><title>Node2&#45;&gt;Node3</title>
<path fill="none" stroke="midnightblue" d="M376.142,-1831.03C307.44,-1812.32 201.5,-1769.8 201.5,-1685.5 201.5,-1685.5 201.5,-1685.5 201.5,-716.5 201.5,-666.986 209.805,-611.667 217.817,-569.816"/>
<polygon fill="none" stroke="midnightblue" points="375.43,-1834.46 385.992,-1833.62 377.21,-1827.69 375.43,-1834.46"/>
</g>
<!-- Node6 -->
<g id="node6" class="node"><title>Node6</title>
<g id="a_node6"><a xlink:href="../../d6/d4b/class_c2_m2_1_1_interaction_1_1_signaling_1_1_press_event_signaler.html" target="_top" xlink:title="Send press, holdPress, and endPress events based on set values of Pressed and RaycastTriggerManager">
<polygon fill="white" stroke="black" points="259,-1519.5 259,-1609.5 384,-1609.5 384,-1519.5 259,-1519.5"/>
<text text-anchor="middle" x="321.5" y="-1597.5" font-family="Courier New" font-size="10.00">PressEventSignaler</text>
<polyline fill="none" stroke="black" points="259,-1590.5 384,-1590.5 "/>
<text text-anchor="start" x="267" y="-1578.5" font-family="Courier New" font-size="10.00">+ Pressed</text>
<text text-anchor="start" x="267" y="-1567.5" font-family="Courier New" font-size="10.00">&#45; pressedPrevFrame</text>
<polyline fill="none" stroke="black" points="259,-1560.5 384,-1560.5 "/>
<text text-anchor="start" x="267" y="-1548.5" font-family="Courier New" font-size="10.00"># OnPress()</text>
<text text-anchor="start" x="267" y="-1537.5" font-family="Courier New" font-size="10.00"># OnHoldPress()</text>
<text text-anchor="start" x="267" y="-1526.5" font-family="Courier New" font-size="10.00"># OnEndPress()</text>
</a>
</g>
</g>
<!-- Node2&#45;&gt;Node6 -->
<g id="edge7" class="edge"><title>Node2&#45;&gt;Node6</title>
<path fill="none" stroke="midnightblue" d="M397.496,-1808.13C393.405,-1802.99 389.6,-1797.55 386.5,-1792 353.77,-1733.43 336.299,-1656.95 327.969,-1609.54"/>
<polygon fill="none" stroke="midnightblue" points="394.969,-1810.56 404.099,-1815.93 400.313,-1806.04 394.969,-1810.56"/>
</g>
<!-- Node7 -->
<g id="node7" class="node"><title>Node7</title>
<g id="a_node7"><a xlink:href="../../d5/df9/class_c2_m2_1_1_interaction_1_1_raycast_event_manager.html" target="_top" xlink:title="Attach this script to parent gameObject, create one child with one raycast trigger per child....">
<polygon fill="white" stroke="black" points="445,-1267.5 445,-1500.5 606,-1500.5 606,-1267.5 445,-1267.5"/>
<text text-anchor="start" x="453" y="-1488.5" font-family="Courier New" font-size="10.00">C2M2.Interaction.Raycast</text>
<text text-anchor="middle" x="525.5" y="-1477.5" font-family="Courier New" font-size="10.00">EventManager</text>
<polyline fill="none" stroke="black" points="445,-1470.5 606,-1470.5 "/>
<text text-anchor="middle" x="525.5" y="-1458.5" font-family="Courier New" font-size="10.00"> </text>
<polyline fill="none" stroke="black" points="445,-1451.5 606,-1451.5 "/>
<text text-anchor="start" x="453" y="-1439.5" font-family="Courier New" font-size="10.00">+ TriggerChangeRight()</text>
<text text-anchor="start" x="453" y="-1428.5" font-family="Courier New" font-size="10.00">+ TriggerChangeLeft()</text>
<text text-anchor="start" x="453" y="-1417.5" font-family="Courier New" font-size="10.00">+ TriggerChangeBoth()</text>
<text text-anchor="start" x="453" y="-1406.5" font-family="Courier New" font-size="10.00">+ TriggerEmptyRight()</text>
<text text-anchor="start" x="453" y="-1395.5" font-family="Courier New" font-size="10.00">+ TriggerEmptyLeft()</text>
<text text-anchor="start" x="453" y="-1384.5" font-family="Courier New" font-size="10.00">+ TriggerEmptyBoth()</text>
<text text-anchor="start" x="453" y="-1373.5" font-family="Courier New" font-size="10.00">+ PressEvent()</text>
<text text-anchor="start" x="453" y="-1362.5" font-family="Courier New" font-size="10.00">+ HoldEvent()</text>
<text text-anchor="start" x="453" y="-1351.5" font-family="Courier New" font-size="10.00">+ EndEvent()</text>
<text text-anchor="start" x="453" y="-1340.5" font-family="Courier New" font-size="10.00">+ AllEvents()</text>
<text text-anchor="start" x="453" y="-1329.5" font-family="Courier New" font-size="10.00">+ PressEventNull()</text>
<text text-anchor="start" x="453" y="-1318.5" font-family="Courier New" font-size="10.00">+ HoldEventNull()</text>
<text text-anchor="start" x="453" y="-1307.5" font-family="Courier New" font-size="10.00">+ EndEventNull()</text>
<text text-anchor="start" x="453" y="-1296.5" font-family="Courier New" font-size="10.00">+ AllEventsNull()</text>
<text text-anchor="start" x="453" y="-1285.5" font-family="Courier New" font-size="10.00">+ ToString()</text>
<text text-anchor="start" x="453" y="-1274.5" font-family="Courier New" font-size="10.00">&#45; Awake()</text>
</a>
</g>
</g>
<!-- Node2&#45;&gt;Node7 -->
<g id="edge9" class="edge"><title>Node2&#45;&gt;Node7</title>
<path fill="none" stroke="midnightblue" d="M427.109,-1805.83C424.149,-1786.51 420.966,-1762.57 419.5,-1741 412.735,-1641.48 413.986,-1611.02 452.5,-1519 455.006,-1513.01 457.701,-1506.94 460.526,-1500.86"/>
<polygon fill="none" stroke="midnightblue" points="423.66,-1806.43 428.673,-1815.76 430.574,-1805.34 423.66,-1806.43"/>
</g>
<!-- Node9 -->
<g id="node9" class="node"><title>Node9</title>
<g id="a_node9"><a xlink:href="../../d8/d68/class_c2_m2_1_1_interaction_1_1_raycast_press_events.html" target="_top" xlink:title="Store custom events that the corresponding RaycastTriggerManager will invoke">
<polygon fill="white" stroke="black" points="429,-1628.5 429,-1740.5 590,-1740.5 590,-1628.5 429,-1628.5"/>
<text text-anchor="start" x="437" y="-1728.5" font-family="Courier New" font-size="10.00">C2M2.Interaction.Raycast</text>
<text text-anchor="middle" x="509.5" y="-1717.5" font-family="Courier New" font-size="10.00">PressEvents</text>
<polyline fill="none" stroke="black" points="429,-1710.5 590,-1710.5 "/>
<text text-anchor="start" x="437" y="-1698.5" font-family="Courier New" font-size="10.00">+ OnPress</text>
<text text-anchor="start" x="437" y="-1687.5" font-family="Courier New" font-size="10.00">+ OnHoldPress</text>
<text text-anchor="start" x="437" y="-1676.5" font-family="Courier New" font-size="10.00">+ OnEndPress</text>
<polyline fill="none" stroke="black" points="429,-1669.5 590,-1669.5 "/>
<text text-anchor="start" x="437" y="-1657.5" font-family="Courier New" font-size="10.00">+ Press()</text>
<text text-anchor="start" x="437" y="-1646.5" font-family="Courier New" font-size="10.00">+ HoldPress()</text>
<text text-anchor="start" x="437" y="-1635.5" font-family="Courier New" font-size="10.00">+ EndPress()</text>
</a>
</g>
</g>
<!-- Node2&#45;&gt;Node9 -->
<g id="edge12" class="edge"><title>Node2&#45;&gt;Node9</title>
<path fill="none" stroke="midnightblue" d="M451.178,-1806.75C460.646,-1787.06 472.499,-1762.42 483.042,-1740.5"/>
<polygon fill="none" stroke="midnightblue" points="447.919,-1805.45 446.738,-1815.98 454.227,-1808.48 447.919,-1805.45"/>
</g>
<!-- Node17 -->
<g id="node17" class="node"><title>Node17</title>
<g id="a_node17"><a xlink:href="../../dd/dfe/class_c2_m2_1_1_interaction_1_1_raycast_forward.html" target="_top" xlink:title=" ">
<polygon fill="white" stroke="black" points="663,-854.5 663,-1219.5 830,-1219.5 830,-854.5 663,-854.5"/>
<text text-anchor="start" x="671" y="-1207.5" font-family="Courier New" font-size="10.00">C2M2.Interaction.Raycast</text>
<text text-anchor="middle" x="746.5" y="-1196.5" font-family="Courier New" font-size="10.00">Forward</text>
<polyline fill="none" stroke="black" points="663,-1189.5 830,-1189.5 "/>
<text text-anchor="start" x="671" y="-1177.5" font-family="Courier New" font-size="10.00">+ rightHand</text>
<text text-anchor="start" x="671" y="-1166.5" font-family="Courier New" font-size="10.00">+ raycastController</text>
<text text-anchor="start" x="671" y="-1155.5" font-family="Courier New" font-size="10.00">+ raycastButton</text>
<text text-anchor="start" x="671" y="-1144.5" font-family="Courier New" font-size="10.00">+ triggerButton</text>
<text text-anchor="start" x="671" y="-1133.5" font-family="Courier New" font-size="10.00">+ layerMask</text>
<text text-anchor="start" x="671" y="-1122.5" font-family="Courier New" font-size="10.00">+ staticIndexRenderer</text>
<text text-anchor="start" x="671" y="-1111.5" font-family="Courier New" font-size="10.00">+ staticHandObject</text>
<text text-anchor="start" x="671" y="-1100.5" font-family="Courier New" font-size="10.00">+ defaultHandObject</text>
<text text-anchor="start" x="671" y="-1089.5" font-family="Courier New" font-size="10.00">+ minHitDist</text>
<text text-anchor="start" x="671" y="-1078.5" font-family="Courier New" font-size="10.00">+ hysteresisDist</text>
<text text-anchor="start" x="671" y="-1067.5" font-family="Courier New" font-size="10.00">and 10 more...</text>
<text text-anchor="start" x="671" y="-1056.5" font-family="Courier New" font-size="10.00">&#45; activeObjectID</text>
<text text-anchor="start" x="671" y="-1045.5" font-family="Courier New" font-size="10.00">&#45; valid</text>
<text text-anchor="start" x="671" y="-1034.5" font-family="Courier New" font-size="10.00">&#45; clicked</text>
<text text-anchor="start" x="671" y="-1023.5" font-family="Courier New" font-size="10.00">&#45; touched</text>
<text text-anchor="start" x="671" y="-1012.5" font-family="Courier New" font-size="10.00">&#45; hitTriggered</text>
<text text-anchor="start" x="671" y="-1001.5" font-family="Courier New" font-size="10.00">&#45; holdTriggered</text>
<text text-anchor="start" x="671" y="-990.5" font-family="Courier New" font-size="10.00">&#45; endTriggered</text>
<text text-anchor="start" x="671" y="-979.5" font-family="Courier New" font-size="10.00">&#45; validHitEvent</text>
<text text-anchor="start" x="671" y="-968.5" font-family="Courier New" font-size="10.00">&#45; validHoldEvent</text>
<text text-anchor="start" x="671" y="-957.5" font-family="Courier New" font-size="10.00">&#45; validEndEvent</text>
<text text-anchor="start" x="671" y="-946.5" font-family="Courier New" font-size="10.00">&#45; relativeForward</text>
<text text-anchor="start" x="671" y="-935.5" font-family="Courier New" font-size="10.00">&#45; lineRend</text>
<text text-anchor="start" x="671" y="-924.5" font-family="Courier New" font-size="10.00">&#45; invisible</text>
<text text-anchor="start" x="671" y="-913.5" font-family="Courier New" font-size="10.00">&#45; currentState</text>
<polyline fill="none" stroke="black" points="663,-906.5 830,-906.5 "/>
<text text-anchor="start" x="671" y="-894.5" font-family="Courier New" font-size="10.00">+ ChangeStaticHandColor()</text>
<text text-anchor="start" x="671" y="-883.5" font-family="Courier New" font-size="10.00">&#45; Start()</text>
<text text-anchor="start" x="671" y="-872.5" font-family="Courier New" font-size="10.00">&#45; FixedUpdate()</text>
<text text-anchor="start" x="671" y="-861.5" font-family="Courier New" font-size="10.00">&#45; TryRaycastHit()</text>
</a>
</g>
</g>
<!-- Node2&#45;&gt;Node17 -->
<g id="edge22" class="edge"><title>Node2&#45;&gt;Node17</title>
<path fill="none" stroke="midnightblue" d="M490.978,-1834.49C545.623,-1822.77 625.772,-1796.76 669.5,-1741 784.48,-1594.39 790.202,-1374.58 775.795,-1219.86"/>
<polygon fill="none" stroke="midnightblue" points="490.18,-1831.08 481.085,-1836.52 491.584,-1837.94 490.18,-1831.08"/>
</g>
<!-- Node3&#45;&gt;Node1 -->
<g id="edge2" class="edge"><title>Node3&#45;&gt;Node1</title>
<path fill="none" stroke="#404040" d="M325.149,-442.585C403.246,-392.924 515.358,-321.633 599.24,-268.293"/>
<polygon fill="none" stroke="#404040" points="599.458,-268.154 602.375,-261.559 609.584,-261.715 606.668,-268.31 599.458,-268.154"/>
<text text-anchor="middle" x="427" y="-409" font-family="Courier New" font-size="10.00"> +vrDeviceManager</text>
</g>
<!-- Node4 -->
<g id="node4" class="node"><title>Node4</title>
<g id="a_node4"><a xlink:href="../../d3/da8/class_c2_m2_1_1_interaction_1_1_signaling_1_1_mouse_event_signaler.html" target="_top" xlink:title=" ">
<polygon fill="white" stroke="black" points="230,-634 230,-801 415,-801 415,-634 230,-634"/>
<text text-anchor="start" x="238" y="-789" font-family="Courier New" font-size="10.00">C2M2.Interaction.Signaling.</text>
<text text-anchor="middle" x="322.5" y="-778" font-family="Courier New" font-size="10.00">MouseEventSignaler</text>
<polyline fill="none" stroke="black" points="230,-771 415,-771 "/>
<text text-anchor="start" x="238" y="-759" font-family="Courier New" font-size="10.00">+ grabKeys</text>
<text text-anchor="start" x="238" y="-748" font-family="Courier New" font-size="10.00">&#45; grabTransform</text>
<text text-anchor="start" x="238" y="-737" font-family="Courier New" font-size="10.00">&#45; grabVolume</text>
<polyline fill="none" stroke="black" points="230,-730 415,-730 "/>
<text text-anchor="start" x="238" y="-718" font-family="Courier New" font-size="10.00"># OnAwake()</text>
<text text-anchor="start" x="238" y="-707" font-family="Courier New" font-size="10.00"># OnStart()</text>
<text text-anchor="start" x="238" y="-696" font-family="Courier New" font-size="10.00"># BeginRaycastingCondition()</text>
<text text-anchor="start" x="238" y="-685" font-family="Courier New" font-size="10.00"># RaycastingMethod()</text>
<text text-anchor="start" x="238" y="-674" font-family="Courier New" font-size="10.00"># ChildsPressCondition()</text>
<text text-anchor="start" x="238" y="-663" font-family="Courier New" font-size="10.00"># OnPressSub()</text>
<text text-anchor="start" x="238" y="-652" font-family="Courier New" font-size="10.00"># OnHoldPressSub()</text>
<text text-anchor="start" x="238" y="-641" font-family="Courier New" font-size="10.00"># OnEndPressSub()</text>
</a>
</g>
</g>
<!-- Node4&#45;&gt;Node3 -->
<g id="edge4" class="edge"><title>Node4&#45;&gt;Node3</title>
<path fill="none" stroke="#404040" d="M287.575,-633.844C280.198,-616.385 272.44,-598.025 265.151,-580.774"/>
<polygon fill="none" stroke="#404040" points="265.108,-580.673 259.088,-576.703 260.438,-569.619 266.457,-573.589 265.108,-580.673"/>
<text text-anchor="middle" x="323" y="-596.5" font-family="Courier New" font-size="10.00"> &#45;mouseSignaler</text>
</g>
<!-- Node5 -->
<g id="node5" class="node"><title>Node5</title>
<g id="a_node5"><a xlink:href="../../d6/d2d/class_c2_m2_1_1_interaction_1_1_signaling_1_1_raycast_event_signaler.html" target="_top" xlink:title=" ">
<polygon fill="white" stroke="black" points="230,-915 230,-1159 415,-1159 415,-915 230,-915"/>
<text text-anchor="middle" x="322.5" y="-1147" font-family="Courier New" font-size="10.00">RaycastEventSignaler</text>
<polyline fill="none" stroke="black" points="230,-1140 415,-1140 "/>
<text text-anchor="start" x="238" y="-1128" font-family="Courier New" font-size="10.00">+ rightHand</text>
<text text-anchor="start" x="238" y="-1117" font-family="Courier New" font-size="10.00">+ layerMask</text>
<text text-anchor="start" x="238" y="-1106" font-family="Courier New" font-size="10.00">+ maxRaycastDistance</text>
<text text-anchor="start" x="238" y="-1095" font-family="Courier New" font-size="10.00">&#45; lastHit</text>
<polyline fill="none" stroke="black" points="230,-1088 415,-1088 "/>
<text text-anchor="start" x="238" y="-1076" font-family="Courier New" font-size="10.00"># OnAwake()</text>
<text text-anchor="start" x="238" y="-1065" font-family="Courier New" font-size="10.00"># Awake()</text>
<text text-anchor="start" x="238" y="-1054" font-family="Courier New" font-size="10.00"># OnStart()</text>
<text text-anchor="start" x="238" y="-1043" font-family="Courier New" font-size="10.00"># OnPress()</text>
<text text-anchor="start" x="238" y="-1032" font-family="Courier New" font-size="10.00"># OnHoldPress()</text>
<text text-anchor="start" x="238" y="-1021" font-family="Courier New" font-size="10.00"># OnEndPress()</text>
<text text-anchor="start" x="238" y="-1010" font-family="Courier New" font-size="10.00"># OnPressSub()</text>
<text text-anchor="start" x="238" y="-999" font-family="Courier New" font-size="10.00"># OnHoldPressSub()</text>
<text text-anchor="start" x="238" y="-988" font-family="Courier New" font-size="10.00"># OnEndPressSub()</text>
<text text-anchor="start" x="238" y="-977" font-family="Courier New" font-size="10.00"># RaycastingMethod()</text>
<text text-anchor="start" x="238" y="-966" font-family="Courier New" font-size="10.00"># BeginRaycastingCondition()</text>
<text text-anchor="start" x="238" y="-955" font-family="Courier New" font-size="10.00"># ChildsPressCondition()</text>
<text text-anchor="start" x="238" y="-944" font-family="Courier New" font-size="10.00">&#45; Start()</text>
<text text-anchor="start" x="238" y="-933" font-family="Courier New" font-size="10.00">&#45; FixedUpdate()</text>
<text text-anchor="start" x="238" y="-922" font-family="Courier New" font-size="10.00">&#45; FindRaycastTrigger()</text>
</a>
</g>
</g>
<!-- Node5&#45;&gt;Node4 -->
<g id="edge5" class="edge"><title>Node5&#45;&gt;Node4</title>
<path fill="none" stroke="midnightblue" d="M322.5,-904.35C322.5,-869.512 322.5,-832.879 322.5,-801.433"/>
<polygon fill="none" stroke="midnightblue" points="319,-904.608 322.5,-914.608 326,-904.608 319,-904.608"/>
</g>
<!-- Node6&#45;&gt;Node5 -->
<g id="edge6" class="edge"><title>Node6&#45;&gt;Node5</title>
<path fill="none" stroke="midnightblue" d="M321.604,-1509.04C321.76,-1426.96 322.06,-1269.46 322.269,-1159.27"/>
<polygon fill="none" stroke="midnightblue" points="318.104,-1509.14 321.584,-1519.15 325.104,-1509.16 318.104,-1509.14"/>
</g>
<!-- Node7&#45;&gt;Node5 -->
<g id="edge8" class="edge"><title>Node7&#45;&gt;Node5</title>
<path fill="none" stroke="#404040" d="M452.034,-1267.26C442.309,-1251.46 432.573,-1235.38 423.5,-1220 413.998,-1203.89 404.21,-1186.85 394.64,-1169.93"/>
<polygon fill="none" stroke="#404040" points="394.604,-1169.86 388.174,-1166.6 388.713,-1159.41 395.144,-1162.67 394.604,-1169.86"/>
<text text-anchor="middle" x="480" y="-1241" font-family="Courier New" font-size="10.00"> &#45;activeEvent</text>
</g>
<!-- Node7&#45;&gt;Node17 -->
<g id="edge23" class="edge"><title>Node7&#45;&gt;Node17</title>
<path fill="none" stroke="#404040" d="M599.705,-1267.16C617.876,-1238.79 637.521,-1208.13 656.35,-1178.73"/>
<polygon fill="none" stroke="#404040" points="656.499,-1178.5 656.367,-1171.29 662.972,-1168.4 663.103,-1175.61 656.499,-1178.5"/>
<text text-anchor="middle" x="683" y="-1241" font-family="Courier New" font-size="10.00"> &#45;activeTriggerManager</text>
</g>
<!-- Node8 -->
<g id="node8" class="node"><title>Node8</title>
<g id="a_node8"><a xlink:title=" ">
<polygon fill="white" stroke="#bfbfbf" points="608,-1656 608,-1713 661,-1713 661,-1656 608,-1656"/>
<text text-anchor="middle" x="634.5" y="-1701" font-family="Courier New" font-size="10.00">static</text>
<polyline fill="none" stroke="#bfbfbf" points="608,-1694 661,-1694 "/>
<text text-anchor="middle" x="634.5" y="-1682" font-family="Courier New" font-size="10.00"> </text>
<polyline fill="none" stroke="#bfbfbf" points="608,-1675 661,-1675 "/>
<text text-anchor="middle" x="634.5" y="-1663" font-family="Courier New" font-size="10.00"> </text>
</a>
</g>
</g>
<!-- Node8&#45;&gt;Node1 -->
<g id="edge20" class="edge"><title>Node8&#45;&gt;Node1</title>
<path fill="none" stroke="#404040" d="M634.5,-1655.93C634.5,-1603.27 634.5,-1484.76 634.5,-1385 634.5,-1385 634.5,-1385 634.5,-501.5 634.5,-468.048 639.017,-433.188 645.904,-399.479"/>
<polygon fill="none" stroke="#404040" points="645.932,-399.344 643.272,-392.641 648.435,-387.608 651.096,-394.31 645.932,-399.344"/>
<text text-anchor="middle" x="665" y="-828" font-family="Courier New" font-size="10.00"> +instance</text>
</g>
<!-- Node8&#45;&gt;Node7 -->
<g id="edge10" class="edge"><title>Node8&#45;&gt;Node7</title>
<path fill="none" stroke="#404040" d="M620.246,-1655.77C614.407,-1646.19 607.008,-1635.88 598.5,-1628 586.246,-1616.64 575.257,-1623.56 565.5,-1610 559.145,-1601.17 550.891,-1558.59 543.533,-1512.81"/>
<polygon fill="none" stroke="#404040" points="543.509,-1512.65 538.621,-1507.35 541.634,-1500.8 546.522,-1506.1 543.509,-1512.65"/>
<text text-anchor="middle" x="593" y="-1562" font-family="Courier New" font-size="10.00"> &#45;nullHit</text>
</g>
<!-- Node9&#45;&gt;Node7 -->
<g id="edge11" class="edge"><title>Node9&#45;&gt;Node7</title>
<path fill="none" stroke="#404040" d="M470.667,-1628.45C467.77,-1622.43 465.286,-1616.22 463.5,-1610 452.338,-1571.13 454.805,-1558.5 463.5,-1519 464.006,-1516.7 464.556,-1514.39 465.146,-1512.08"/>
<polygon fill="none" stroke="#404040" points="465.152,-1512.06 462.93,-1505.2 468.407,-1500.51 470.63,-1507.37 465.152,-1512.06"/>
<text text-anchor="middle" x="503" y="-1573" font-family="Courier New" font-size="10.00"> +leftTrigger</text>
<text text-anchor="middle" x="503" y="-1562" font-family="Courier New" font-size="10.00">+rightTrigger</text>
<text text-anchor="middle" x="503" y="-1551" font-family="Courier New" font-size="10.00">&#45;emptyTrigger</text>
</g>
<!-- Node10 -->
<g id="node10" class="node"><title>Node10</title>
<g id="a_node10"><a xlink:href="../../d2/d43/class_c2_m2_1_1_interaction_1_1_raycast_press_events_1_1_raycast_hit_event.html" target="_top" xlink:title=" ">
<polygon fill="white" stroke="black" points="720,-1810.5 720,-1878.5 899,-1878.5 899,-1810.5 720,-1810.5"/>
<text text-anchor="start" x="728" y="-1866.5" font-family="Courier New" font-size="10.00">C2M2.Interaction.Raycast</text>
<text text-anchor="middle" x="809.5" y="-1855.5" font-family="Courier New" font-size="10.00">PressEvents.RaycastHitEvent</text>
<polyline fill="none" stroke="black" points="720,-1848.5 899,-1848.5 "/>
<text text-anchor="middle" x="809.5" y="-1836.5" font-family="Courier New" font-size="10.00"> </text>
<polyline fill="none" stroke="black" points="720,-1829.5 899,-1829.5 "/>
<text text-anchor="middle" x="809.5" y="-1817.5" font-family="Courier New" font-size="10.00"> </text>
</a>
</g>
</g>
<!-- Node10&#45;&gt;Node9 -->
<g id="edge13" class="edge"><title>Node10&#45;&gt;Node9</title>
<path fill="none" stroke="#404040" d="M736.76,-1810.48C698.37,-1792.52 650.454,-1769.26 600.889,-1742.21"/>
<polygon fill="none" stroke="#404040" points="600.805,-1742.16 593.621,-1742.78 590.29,-1736.38 597.475,-1735.77 600.805,-1742.16"/>
<text text-anchor="middle" x="733" y="-1784" font-family="Courier New" font-size="10.00"> &#45;onPress</text>
<text text-anchor="middle" x="733" y="-1773" font-family="Courier New" font-size="10.00">&#45;onHoldPress</text>
<text text-anchor="middle" x="733" y="-1762" font-family="Courier New" font-size="10.00">&#45;onEndPress</text>
</g>
<!-- Node11 -->
<g id="node11" class="node"><title>Node11</title>
<g id="a_node11"><a xlink:title=" ">
<polygon fill="white" stroke="#bfbfbf" points="729,-1916.5 729,-1973.5 890,-1973.5 890,-1916.5 729,-1916.5"/>
<text text-anchor="middle" x="809.5" y="-1961.5" font-family="Courier New" font-size="10.00">UnityEvent&lt; RaycastHit &gt;</text>
<polyline fill="none" stroke="#bfbfbf" points="729,-1954.5 890,-1954.5 "/>
<text text-anchor="middle" x="809.5" y="-1942.5" font-family="Courier New" font-size="10.00"> </text>
<polyline fill="none" stroke="#bfbfbf" points="729,-1935.5 890,-1935.5 "/>
<text text-anchor="middle" x="809.5" y="-1923.5" font-family="Courier New" font-size="10.00"> </text>
</a>
</g>
</g>
<!-- Node11&#45;&gt;Node10 -->
<g id="edge14" class="edge"><title>Node11&#45;&gt;Node10</title>
<path fill="none" stroke="midnightblue" d="M809.5,-1906.01C809.5,-1896.96 809.5,-1887.38 809.5,-1878.58"/>
<polygon fill="none" stroke="midnightblue" points="806,-1906.3 809.5,-1916.3 813,-1906.3 806,-1906.3"/>
</g>
<!-- Node12 -->
<g id="node12" class="node"><title>Node12</title>
<g id="a_node12"><a xlink:href="../../dd/d45/class_c2_m2_1_1_interaction_1_1_v_r_1_1_public_o_v_r_grabber.html" target="_top" xlink:title="Offers a public interface for other scripts to change OVRGrabber&#39;s grab volume.">
<polygon fill="white" stroke="black" points="433,-1003 433,-1071 606,-1071 606,-1003 433,-1003"/>
<text text-anchor="start" x="441" y="-1059" font-family="Courier New" font-size="10.00">C2M2.Interaction.VR.Public</text>
<text text-anchor="middle" x="519.5" y="-1048" font-family="Courier New" font-size="10.00">OVRGrabber</text>
<polyline fill="none" stroke="black" points="433,-1041 606,-1041 "/>
<text text-anchor="start" x="441" y="-1029" font-family="Courier New" font-size="10.00">+ M_GrabVolumes</text>
<polyline fill="none" stroke="black" points="433,-1022 606,-1022 "/>
<text text-anchor="middle" x="519.5" y="-1010" font-family="Courier New" font-size="10.00"> </text>
</a>
</g>
</g>
<!-- Node12&#45;&gt;Node4 -->
<g id="edge15" class="edge"><title>Node12&#45;&gt;Node4</title>
<path fill="none" stroke="#404040" d="M503.982,-1002.93C486.118,-965.787 455.149,-904.149 423.5,-854 414.617,-839.924 404.711,-825.432 394.671,-811.4"/>
<polygon fill="none" stroke="#404040" points="394.382,-811.001 387.625,-808.483 387.35,-801.277 394.108,-803.795 394.382,-811.001"/>
<text text-anchor="middle" x="439" y="-828" font-family="Courier New" font-size="10.00"> &#45;grabber</text>
</g>
<!-- Node13 -->
<g id="node13" class="node"><title>Node13</title>
<g id="a_node13"><a xlink:title=" ">
<polygon fill="white" stroke="#bfbfbf" points="350,-1355.5 350,-1412.5 427,-1412.5 427,-1355.5 350,-1355.5"/>
<text text-anchor="middle" x="388.5" y="-1400.5" font-family="Courier New" font-size="10.00">OVRGrabber</text>
<polyline fill="none" stroke="#bfbfbf" points="350,-1393.5 427,-1393.5 "/>
<text text-anchor="middle" x="388.5" y="-1381.5" font-family="Courier New" font-size="10.00"> </text>
<polyline fill="none" stroke="#bfbfbf" points="350,-1374.5 427,-1374.5 "/>
<text text-anchor="middle" x="388.5" y="-1362.5" font-family="Courier New" font-size="10.00"> </text>
</a>
</g>
</g>
<!-- Node13&#45;&gt;Node12 -->
<g id="edge16" class="edge"><title>Node13&#45;&gt;Node12</title>
<path fill="none" stroke="midnightblue" d="M402.579,-1345.92C428.288,-1278.21 482.441,-1135.6 506.963,-1071.02"/>
<polygon fill="none" stroke="midnightblue" points="399.277,-1344.76 398.999,-1355.35 405.821,-1347.24 399.277,-1344.76"/>
</g>
<!-- Node14 -->
<g id="node14" class="node"><title>Node14</title>
<g id="a_node14"><a xlink:href="../../d5/d45/class_c2_m2_1_1_interaction_1_1_v_r_1_1_moving_o_v_r_headset_emulator.html" target="_top" xlink:title="Add movement functionality to Oculus HMD headset emulator, add some additional small functionality li...">
<polygon fill="white" stroke="black" points="0,-628.5 0,-806.5 173,-806.5 173,-628.5 0,-628.5"/>
<text text-anchor="start" x="8" y="-794.5" font-family="Courier New" font-size="10.00">C2M2.Interaction.VR.Moving</text>
<text text-anchor="middle" x="86.5" y="-783.5" font-family="Courier New" font-size="10.00">OVRHeadsetEmulator</text>
<polyline fill="none" stroke="black" points="0,-776.5 173,-776.5 "/>
<text text-anchor="start" x="8" y="-764.5" font-family="Courier New" font-size="10.00">+ slowMoveKeys</text>
<text text-anchor="start" x="8" y="-753.5" font-family="Courier New" font-size="10.00">+ speed</text>
<text text-anchor="start" x="8" y="-742.5" font-family="Courier New" font-size="10.00">+ slowSpeed</text>
<text text-anchor="start" x="8" y="-731.5" font-family="Courier New" font-size="10.00">+ SlowMoving</text>
<text text-anchor="start" x="8" y="-720.5" font-family="Courier New" font-size="10.00">&#45; controller</text>
<polyline fill="none" stroke="black" points="0,-713.5 173,-713.5 "/>
<text text-anchor="start" x="8" y="-701.5" font-family="Courier New" font-size="10.00">&#45; Awake()</text>
<text text-anchor="start" x="8" y="-690.5" font-family="Courier New" font-size="10.00">&#45; Start()</text>
<text text-anchor="start" x="8" y="-679.5" font-family="Courier New" font-size="10.00">&#45; CheckSpeed()</text>
<text text-anchor="start" x="8" y="-668.5" font-family="Courier New" font-size="10.00">&#45; DisableAvatar()</text>
<text text-anchor="start" x="8" y="-657.5" font-family="Courier New" font-size="10.00">&#45; InitUI()</text>
<text text-anchor="start" x="8" y="-646.5" font-family="Courier New" font-size="10.00">&#45; OnEnable()</text>
<text text-anchor="start" x="8" y="-635.5" font-family="Courier New" font-size="10.00">&#45; OnDisable()</text>
</a>
</g>
</g>
<!-- Node14&#45;&gt;Node3 -->
<g id="edge17" class="edge"><title>Node14&#45;&gt;Node3</title>
<path fill="none" stroke="#404040" d="M106.257,-628.235C111.549,-614.103 118.191,-600.151 126.5,-588 128.623,-584.895 130.895,-581.848 133.288,-578.864"/>
<polygon fill="none" stroke="#404040" points="133.476,-578.646 134.362,-571.49 141.309,-569.556 140.423,-576.712 133.476,-578.646"/>
<text text-anchor="middle" x="157" y="-596.5" font-family="Courier New" font-size="10.00"> &#45;emulator</text>
</g>
<!-- Node15 -->
<g id="node15" class="node"><title>Node15</title>
<g id="a_node15"><a xlink:title=" ">
<polygon fill="white" stroke="#bfbfbf" points="24,-1008.5 24,-1065.5 149,-1065.5 149,-1008.5 24,-1008.5"/>
<text text-anchor="middle" x="86.5" y="-1053.5" font-family="Courier New" font-size="10.00">OVRHeadsetEmulator</text>
<polyline fill="none" stroke="#bfbfbf" points="24,-1046.5 149,-1046.5 "/>
<text text-anchor="middle" x="86.5" y="-1034.5" font-family="Courier New" font-size="10.00"> </text>
<polyline fill="none" stroke="#bfbfbf" points="24,-1027.5 149,-1027.5 "/>
<text text-anchor="middle" x="86.5" y="-1015.5" font-family="Courier New" font-size="10.00"> </text>
</a>
</g>
</g>
<!-- Node15&#45;&gt;Node14 -->
<g id="edge18" class="edge"><title>Node15&#45;&gt;Node14</title>
<path fill="none" stroke="midnightblue" d="M86.5,-998.348C86.5,-951.4 86.5,-869.651 86.5,-806.591"/>
<polygon fill="none" stroke="midnightblue" points="83.0001,-998.379 86.5,-1008.38 90.0001,-998.379 83.0001,-998.379"/>
</g>
<!-- Node16 -->
<g id="node16" class="node"><title>Node16</title>
<g id="a_node16"><a xlink:title=" ">
<polygon fill="white" stroke="#bfbfbf" points="743,-474 743,-531 790,-531 790,-474 743,-474"/>
<text text-anchor="middle" x="766.5" y="-519" font-family="Courier New" font-size="10.00">Utils</text>
<polyline fill="none" stroke="#bfbfbf" points="743,-512 790,-512 "/>
<text text-anchor="middle" x="766.5" y="-500" font-family="Courier New" font-size="10.00"> </text>
<polyline fill="none" stroke="#bfbfbf" points="743,-493 790,-493 "/>
<text text-anchor="middle" x="766.5" y="-481" font-family="Courier New" font-size="10.00"> </text>
</a>
</g>
</g>
<!-- Node16&#45;&gt;Node1 -->
<g id="edge19" class="edge"><title>Node16&#45;&gt;Node1</title>
<path fill="none" stroke="#404040" d="M761.794,-473.76C758.651,-455.239 754.202,-429.014 749.277,-399.982"/>
<polygon fill="none" stroke="#404040" points="749.223,-399.666 744.276,-394.42 747.216,-387.835 752.163,-393.082 749.223,-399.666"/>
<text text-anchor="middle" x="788" y="-409" font-family="Courier New" font-size="10.00"> +fpsCounter</text>
</g>
<!-- Node17&#45;&gt;Node1 -->
<g id="edge21" class="edge"><title>Node17&#45;&gt;Node1</title>
<path fill="none" stroke="#404040" d="M739.586,-854.292C734.497,-720.555 727.575,-538.615 722.29,-399.739"/>
<polygon fill="none" stroke="#404040" points="722.289,-399.699 718.064,-393.856 721.833,-387.708 726.058,-393.552 722.289,-399.699"/>
<text text-anchor="middle" x="776" y="-602" font-family="Courier New" font-size="10.00"> +leftRaycaster</text>
<text text-anchor="middle" x="776" y="-591" font-family="Courier New" font-size="10.00">+rightRaycaster</text>
</g>
</g>
</svg>
