<?xml version="1.0" encoding="UTF-8" standalone="no"?>
<!DOCTYPE svg PUBLIC "-//W3C//DTD SVG 1.1//EN"
 "http://www.w3.org/Graphics/SVG/1.1/DTD/svg11.dtd">
<!-- Generated by graphviz version 2.38.0 (20140413.2041)
 -->
<!-- Title: C2M2.GameManager Pages: 1 -->
<svg width="420pt" height="1450pt"
 viewBox="0.00 0.00 419.50 1450.00" xmlns="http://www.w3.org/2000/svg" xmlns:xlink="http://www.w3.org/1999/xlink">
<g id="graph0" class="graph" transform="scale(1 1) rotate(0) translate(4 1446)">
<title>C2M2.GameManager</title>
<polygon fill="white" stroke="none" points="-4,4 -4,-1446 415.5,-1446 415.5,4 -4,4"/>
<!-- Node1 -->
<g id="node1" class="node"><title>Node1</title>
<g id="a_node1"><a xlink:title="Stores many global variables, handles pregame initializations">
<polygon fill="#bfbfbf" stroke="black" points="170,-0.5 170,-321.5 361,-321.5 361,-0.5 170,-0.5"/>
<text text-anchor="middle" x="265.5" y="-309.5" font-family="Courier New" font-size="10.00">C2M2.GameManager</text>
<polyline fill="none" stroke="black" points="170,-302.5 361,-302.5 "/>
<text text-anchor="start" x="178" y="-290.5" font-family="Courier New" font-size="10.00">+ defaultMaterial</text>
<text text-anchor="start" x="178" y="-279.5" font-family="Courier New" font-size="10.00">+ vertexColorationMaterial</text>
<text text-anchor="start" x="178" y="-268.5" font-family="Courier New" font-size="10.00">+ lineRendMaterial</text>
<text text-anchor="start" x="178" y="-257.5" font-family="Courier New" font-size="10.00">+ whiteboard</text>
<text text-anchor="start" x="178" y="-246.5" font-family="Courier New" font-size="10.00">+ objectScaleDefault</text>
<text text-anchor="start" x="178" y="-235.5" font-family="Courier New" font-size="10.00">+ ovrRightHandAnchor</text>
<text text-anchor="start" x="178" y="-224.5" font-family="Courier New" font-size="10.00">+ ovrLeftHandAnchor</text>
<text text-anchor="start" x="178" y="-213.5" font-family="Courier New" font-size="10.00">+ menu</text>
<text text-anchor="start" x="178" y="-202.5" font-family="Courier New" font-size="10.00">+ raycastKeyboardPrefab</text>
<text text-anchor="start" x="178" y="-191.5" font-family="Courier New" font-size="10.00">+ menuSnapPosition</text>
<text text-anchor="start" x="178" y="-180.5" font-family="Courier New" font-size="10.00">+ mainThreadId</text>
<text text-anchor="start" x="178" y="-169.5" font-family="Courier New" font-size="10.00">+ assetsPath</text>
<text text-anchor="start" x="178" y="-158.5" font-family="Courier New" font-size="10.00">+ ovrPlayerController</text>
<text text-anchor="start" x="178" y="-147.5" font-family="Courier New" font-size="10.00">+ nonVRCamera</text>
<text text-anchor="start" x="178" y="-136.5" font-family="Courier New" font-size="10.00">+ raycastKeyboard</text>
<text text-anchor="start" x="178" y="-125.5" font-family="Courier New" font-size="10.00">&#45; isRunning</text>
<text text-anchor="start" x="178" y="-114.5" font-family="Courier New" font-size="10.00">&#45; logQ</text>
<text text-anchor="start" x="178" y="-103.5" font-family="Courier New" font-size="10.00">&#45; logQCap</text>
<polyline fill="none" stroke="black" points="170,-96.5 361,-96.5 "/>
<text text-anchor="start" x="178" y="-84.5" font-family="Courier New" font-size="10.00">+ RaycasterRightChangeColor()</text>
<text text-anchor="start" x="178" y="-73.5" font-family="Courier New" font-size="10.00">+ RaycasterLeftChangeColor()</text>
<text text-anchor="start" x="178" y="-62.5" font-family="Courier New" font-size="10.00">+ DebugLogSafe()</text>
<text text-anchor="start" x="178" y="-51.5" font-family="Courier New" font-size="10.00">+ DebugLogSafe&lt; T &gt;()</text>
<text text-anchor="start" x="178" y="-40.5" font-family="Courier New" font-size="10.00">&#45; Awake()</text>
<text text-anchor="start" x="178" y="-29.5" font-family="Courier New" font-size="10.00">&#45; Update()</text>
<text text-anchor="start" x="178" y="-18.5" font-family="Courier New" font-size="10.00">&#45; OnApplicationQuit()</text>
<text text-anchor="start" x="178" y="-7.5" font-family="Courier New" font-size="10.00">&#45; OnApplicationPause()</text>
</a>
</g>
</g>
<!-- Node2 -->
<g id="node2" class="node"><title>Node2</title>
<g id="a_node2"><a xlink:title=" ">
<polygon fill="white" stroke="#bfbfbf" points="0,-1284 0,-1341 95,-1341 95,-1284 0,-1284"/>
<text text-anchor="middle" x="47.5" y="-1329" font-family="Courier New" font-size="10.00">MonoBehaviour</text>
<polyline fill="none" stroke="#bfbfbf" points="0,-1322 95,-1322 "/>
<text text-anchor="middle" x="47.5" y="-1310" font-family="Courier New" font-size="10.00"> </text>
<polyline fill="none" stroke="#bfbfbf" points="0,-1303 95,-1303 "/>
<text text-anchor="middle" x="47.5" y="-1291" font-family="Courier New" font-size="10.00"> </text>
</a>
</g>
</g>
<!-- Node2&#45;&gt;Node1 -->
<g id="edge1" class="edge"><title>Node2&#45;&gt;Node1</title>
<path fill="none" stroke="midnightblue" d="M33.207,-1274.01C22.4313,-1242.38 9.5,-1195.63 9.5,-1153.5 9.5,-1153.5 9.5,-1153.5 9.5,-562 9.5,-477.626 21.7318,-453.31 63.5,-380 91.4051,-331.022 132.282,-284.144 169.976,-246.495"/>
<polygon fill="none" stroke="midnightblue" points="30.0013,-1275.45 36.6107,-1283.73 36.6077,-1273.13 30.0013,-1275.45"/>
</g>
<!-- Node5 -->
<g id="node5" class="node"><title>Node5</title>
<g id="a_node5"><a xlink:href="../../dd/dfe/class_c2_m2_1_1_interaction_1_1_raycast_forward.html" target="_top" xlink:title=" ">
<polygon fill="white" stroke="black" points="73,-380.5 73,-745.5 240,-745.5 240,-380.5 73,-380.5"/>
<text text-anchor="start" x="81" y="-733.5" font-family="Courier New" font-size="10.00">C2M2.Interaction.Raycast</text>
<text text-anchor="middle" x="156.5" y="-722.5" font-family="Courier New" font-size="10.00">Forward</text>
<polyline fill="none" stroke="black" points="73,-715.5 240,-715.5 "/>
<text text-anchor="start" x="81" y="-703.5" font-family="Courier New" font-size="10.00">+ rightHand</text>
<text text-anchor="start" x="81" y="-692.5" font-family="Courier New" font-size="10.00">+ raycastController</text>
<text text-anchor="start" x="81" y="-681.5" font-family="Courier New" font-size="10.00">+ raycastButton</text>
<text text-anchor="start" x="81" y="-670.5" font-family="Courier New" font-size="10.00">+ triggerButton</text>
<text text-anchor="start" x="81" y="-659.5" font-family="Courier New" font-size="10.00">+ layerMask</text>
<text text-anchor="start" x="81" y="-648.5" font-family="Courier New" font-size="10.00">+ staticIndexRenderer</text>
<text text-anchor="start" x="81" y="-637.5" font-family="Courier New" font-size="10.00">+ staticHandObject</text>
<text text-anchor="start" x="81" y="-626.5" font-family="Courier New" font-size="10.00">+ defaultHandObject</text>
<text text-anchor="start" x="81" y="-615.5" font-family="Courier New" font-size="10.00">+ minHitDist</text>
<text text-anchor="start" x="81" y="-604.5" font-family="Courier New" font-size="10.00">+ hysteresisDist</text>
<text text-anchor="start" x="81" y="-593.5" font-family="Courier New" font-size="10.00">and 10 more...</text>
<text text-anchor="start" x="81" y="-582.5" font-family="Courier New" font-size="10.00">&#45; activeObjectID</text>
<text text-anchor="start" x="81" y="-571.5" font-family="Courier New" font-size="10.00">&#45; valid</text>
<text text-anchor="start" x="81" y="-560.5" font-family="Courier New" font-size="10.00">&#45; clicked</text>
<text text-anchor="start" x="81" y="-549.5" font-family="Courier New" font-size="10.00">&#45; touched</text>
<text text-anchor="start" x="81" y="-538.5" font-family="Courier New" font-size="10.00">&#45; hitTriggered</text>
<text text-anchor="start" x="81" y="-527.5" font-family="Courier New" font-size="10.00">&#45; holdTriggered</text>
<text text-anchor="start" x="81" y="-516.5" font-family="Courier New" font-size="10.00">&#45; endTriggered</text>
<text text-anchor="start" x="81" y="-505.5" font-family="Courier New" font-size="10.00">&#45; validHitEvent</text>
<text text-anchor="start" x="81" y="-494.5" font-family="Courier New" font-size="10.00">&#45; validHoldEvent</text>
<text text-anchor="start" x="81" y="-483.5" font-family="Courier New" font-size="10.00">&#45; validEndEvent</text>
<text text-anchor="start" x="81" y="-472.5" font-family="Courier New" font-size="10.00">&#45; relativeForward</text>
<text text-anchor="start" x="81" y="-461.5" font-family="Courier New" font-size="10.00">&#45; lineRend</text>
<text text-anchor="start" x="81" y="-450.5" font-family="Courier New" font-size="10.00">&#45; invisible</text>
<text text-anchor="start" x="81" y="-439.5" font-family="Courier New" font-size="10.00">&#45; currentState</text>
<polyline fill="none" stroke="black" points="73,-432.5 240,-432.5 "/>
<text text-anchor="start" x="81" y="-420.5" font-family="Courier New" font-size="10.00">+ ChangeStaticHandColor()</text>
<text text-anchor="start" x="81" y="-409.5" font-family="Courier New" font-size="10.00">&#45; Start()</text>
<text text-anchor="start" x="81" y="-398.5" font-family="Courier New" font-size="10.00">&#45; FixedUpdate()</text>
<text text-anchor="start" x="81" y="-387.5" font-family="Courier New" font-size="10.00">&#45; TryRaycastHit()</text>
</a>
</g>
</g>
<!-- Node2&#45;&gt;Node5 -->
<g id="edge5" class="edge"><title>Node2&#45;&gt;Node5</title>
<path fill="none" stroke="midnightblue" d="M44.5849,-1273.75C38.852,-1187.48 29.6575,-969.709 66.5,-793 69.7477,-777.423 73.9558,-761.53 78.7761,-745.744"/>
<polygon fill="none" stroke="midnightblue" points="41.1013,-1274.11 45.2805,-1283.84 48.0847,-1273.63 41.1013,-1274.11"/>
</g>
<!-- Node6 -->
<g id="node6" class="node"><title>Node6</title>
<g id="a_node6"><a xlink:href="../../d5/df9/class_c2_m2_1_1_interaction_1_1_raycast_event_manager.html" target="_top" xlink:title="Attach this script to parent gameObject, create one child with one raycast trigger per child....">
<polygon fill="white" stroke="black" points="76,-793.5 76,-1026.5 237,-1026.5 237,-793.5 76,-793.5"/>
<text text-anchor="start" x="84" y="-1014.5" font-family="Courier New" font-size="10.00">C2M2.Interaction.Raycast</text>
<text text-anchor="middle" x="156.5" y="-1003.5" font-family="Courier New" font-size="10.00">EventManager</text>
<polyline fill="none" stroke="black" points="76,-996.5 237,-996.5 "/>
<text text-anchor="middle" x="156.5" y="-984.5" font-family="Courier New" font-size="10.00"> </text>
<polyline fill="none" stroke="black" points="76,-977.5 237,-977.5 "/>
<text text-anchor="start" x="84" y="-965.5" font-family="Courier New" font-size="10.00">+ TriggerChangeRight()</text>
<text text-anchor="start" x="84" y="-954.5" font-family="Courier New" font-size="10.00">+ TriggerChangeLeft()</text>
<text text-anchor="start" x="84" y="-943.5" font-family="Courier New" font-size="10.00">+ TriggerChangeBoth()</text>
<text text-anchor="start" x="84" y="-932.5" font-family="Courier New" font-size="10.00">+ TriggerEmptyRight()</text>
<text text-anchor="start" x="84" y="-921.5" font-family="Courier New" font-size="10.00">+ TriggerEmptyLeft()</text>
<text text-anchor="start" x="84" y="-910.5" font-family="Courier New" font-size="10.00">+ TriggerEmptyBoth()</text>
<text text-anchor="start" x="84" y="-899.5" font-family="Courier New" font-size="10.00">+ PressEvent()</text>
<text text-anchor="start" x="84" y="-888.5" font-family="Courier New" font-size="10.00">+ HoldEvent()</text>
<text text-anchor="start" x="84" y="-877.5" font-family="Courier New" font-size="10.00">+ EndEvent()</text>
<text text-anchor="start" x="84" y="-866.5" font-family="Courier New" font-size="10.00">+ AllEvents()</text>
<text text-anchor="start" x="84" y="-855.5" font-family="Courier New" font-size="10.00">+ PressEventNull()</text>
<text text-anchor="start" x="84" y="-844.5" font-family="Courier New" font-size="10.00">+ HoldEventNull()</text>
<text text-anchor="start" x="84" y="-833.5" font-family="Courier New" font-size="10.00">+ EndEventNull()</text>
<text text-anchor="start" x="84" y="-822.5" font-family="Courier New" font-size="10.00">+ AllEventsNull()</text>
<text text-anchor="start" x="84" y="-811.5" font-family="Courier New" font-size="10.00">+ ToString()</text>
<text text-anchor="start" x="84" y="-800.5" font-family="Courier New" font-size="10.00">&#45; Awake()</text>
</a>
</g>
</g>
<!-- Node2&#45;&gt;Node6 -->
<g id="edge7" class="edge"><title>Node2&#45;&gt;Node6</title>
<path fill="none" stroke="midnightblue" d="M57.6599,-1274.28C58.9588,-1269.48 60.2653,-1264.62 61.5,-1260 80.9392,-1187.2 84.7487,-1168.72 104.5,-1096 110.578,-1073.62 117.188,-1049.76 123.594,-1026.87"/>
<polygon fill="none" stroke="midnightblue" points="54.2687,-1273.42 55.0294,-1283.98 61.0247,-1275.25 54.2687,-1273.42"/>
</g>
<!-- Node7 -->
<g id="node7" class="node"><title>Node7</title>
<g id="a_node7"><a xlink:href="../../d8/d68/class_c2_m2_1_1_interaction_1_1_raycast_press_events.html" target="_top" xlink:title="Store custom events that the corresponding RaycastTriggerManager will invoke">
<polygon fill="white" stroke="black" points="114,-1096.5 114,-1208.5 275,-1208.5 275,-1096.5 114,-1096.5"/>
<text text-anchor="start" x="122" y="-1196.5" font-family="Courier New" font-size="10.00">C2M2.Interaction.Raycast</text>
<text text-anchor="middle" x="194.5" y="-1185.5" font-family="Courier New" font-size="10.00">PressEvents</text>
<polyline fill="none" stroke="black" points="114,-1178.5 275,-1178.5 "/>
<text text-anchor="start" x="122" y="-1166.5" font-family="Courier New" font-size="10.00">+ OnPress</text>
<text text-anchor="start" x="122" y="-1155.5" font-family="Courier New" font-size="10.00">+ OnHoldPress</text>
<text text-anchor="start" x="122" y="-1144.5" font-family="Courier New" font-size="10.00">+ OnEndPress</text>
<polyline fill="none" stroke="black" points="114,-1137.5 275,-1137.5 "/>
<text text-anchor="start" x="122" y="-1125.5" font-family="Courier New" font-size="10.00">+ Press()</text>
<text text-anchor="start" x="122" y="-1114.5" font-family="Courier New" font-size="10.00">+ HoldPress()</text>
<text text-anchor="start" x="122" y="-1103.5" font-family="Courier New" font-size="10.00">+ EndPress()</text>
</a>
</g>
</g>
<!-- Node2&#45;&gt;Node7 -->
<g id="edge10" class="edge"><title>Node2&#45;&gt;Node7</title>
<path fill="none" stroke="midnightblue" d="M83.4754,-1276.45C88.9009,-1271 94.3884,-1265.39 99.5,-1260 115.107,-1243.56 131.694,-1225.26 146.566,-1208.54"/>
<polygon fill="none" stroke="midnightblue" points="80.765,-1274.21 76.1566,-1283.75 85.7084,-1279.16 80.765,-1274.21"/>
</g>
<!-- Node3 -->
<g id="node3" class="node"><title>Node3</title>
<g id="a_node3"><a xlink:title=" ">
<polygon fill="white" stroke="#bfbfbf" points="348,-534.5 348,-591.5 395,-591.5 395,-534.5 348,-534.5"/>
<text text-anchor="middle" x="371.5" y="-579.5" font-family="Courier New" font-size="10.00">Utils</text>
<polyline fill="none" stroke="#bfbfbf" points="348,-572.5 395,-572.5 "/>
<text text-anchor="middle" x="371.5" y="-560.5" font-family="Courier New" font-size="10.00"> </text>
<polyline fill="none" stroke="#bfbfbf" points="348,-553.5 395,-553.5 "/>
<text text-anchor="middle" x="371.5" y="-541.5" font-family="Courier New" font-size="10.00"> </text>
</a>
</g>
</g>
<!-- Node3&#45;&gt;Node1 -->
<g id="edge2" class="edge"><title>Node3&#45;&gt;Node1</title>
<path fill="none" stroke="#404040" d="M368.521,-534.281C363.57,-491.889 352.292,-408.64 333.5,-340 332.878,-337.727 332.237,-335.442 331.58,-333.148"/>
<polygon fill="none" stroke="#404040" points="331.573,-333.122 326.033,-328.506 328.165,-321.617 333.704,-326.233 331.573,-333.122"/>
<text text-anchor="middle" x="375" y="-348.5" font-family="Courier New" font-size="10.00"> +fpsCounter</text>
</g>
<!-- Node4 -->
<g id="node4" class="node"><title>Node4</title>
<g id="a_node4"><a xlink:title=" ">
<polygon fill="white" stroke="#bfbfbf" points="293,-1124 293,-1181 346,-1181 346,-1124 293,-1124"/>
<text text-anchor="middle" x="319.5" y="-1169" font-family="Courier New" font-size="10.00">static</text>
<polyline fill="none" stroke="#bfbfbf" points="293,-1162 346,-1162 "/>
<text text-anchor="middle" x="319.5" y="-1150" font-family="Courier New" font-size="10.00"> </text>
<polyline fill="none" stroke="#bfbfbf" points="293,-1143 346,-1143 "/>
<text text-anchor="middle" x="319.5" y="-1131" font-family="Courier New" font-size="10.00"> </text>
</a>
</g>
</g>
<!-- Node4&#45;&gt;Node1 -->
<g id="edge3" class="edge"><title>Node4&#45;&gt;Node1</title>
<path fill="none" stroke="#404040" d="M321.061,-1123.69C326.456,-1019.87 342.055,-645.348 305.5,-340 305.254,-337.946 304.995,-335.881 304.723,-333.807"/>
<polygon fill="none" stroke="#404040" points="304.711,-333.722 299.911,-328.341 303.032,-321.84 307.832,-327.222 304.711,-333.722"/>
<text text-anchor="middle" x="360" y="-767" font-family="Courier New" font-size="10.00"> +instance</text>
</g>
<!-- Node4&#45;&gt;Node6 -->
<g id="edge8" class="edge"><title>Node4&#45;&gt;Node6</title>
<path fill="none" stroke="#404040" d="M305.246,-1123.77C299.407,-1114.19 292.008,-1103.88 283.5,-1096 271.246,-1084.64 262.392,-1089.73 250.5,-1078 246.094,-1073.65 236.304,-1057.72 224.634,-1037.3"/>
<polygon fill="none" stroke="#404040" points="224.489,-1037.04 218.052,-1033.79 218.575,-1026.6 225.013,-1029.85 224.489,-1037.04"/>
<text text-anchor="middle" x="278" y="-1059" font-family="Courier New" font-size="10.00"> &#45;nullHit</text>
</g>
<!-- Node5&#45;&gt;Node1 -->
<g id="edge4" class="edge"><title>Node5&#45;&gt;Node1</title>
<path fill="none" stroke="#404040" d="M203.552,-380.478C207.219,-366.771 210.896,-353.159 214.5,-340 215.121,-337.733 215.748,-335.45 216.38,-333.154"/>
<polygon fill="none" stroke="#404040" points="216.383,-333.145 214.127,-326.296 219.582,-321.579 221.837,-328.428 216.383,-333.145"/>
<text text-anchor="middle" x="260" y="-354" font-family="Courier New" font-size="10.00"> +leftRaycaster</text>
<text text-anchor="middle" x="260" y="-343" font-family="Courier New" font-size="10.00">+rightRaycaster</text>
</g>
<!-- Node6&#45;&gt;Node5 -->
<g id="edge6" class="edge"><title>Node6&#45;&gt;Node5</title>
<path fill="none" stroke="#404040" d="M156.5,-793.16C156.5,-781.635 156.5,-769.731 156.5,-757.686"/>
<polygon fill="none" stroke="#404040" points="156.5,-757.604 152.5,-751.604 156.5,-745.604 160.5,-751.604 156.5,-757.604"/>
<text text-anchor="middle" x="223" y="-767" font-family="Courier New" font-size="10.00"> &#45;activeTriggerManager</text>
</g>
<!-- Node7&#45;&gt;Node6 -->
<g id="edge9" class="edge"><title>Node7&#45;&gt;Node6</title>
<path fill="none" stroke="#404040" d="M155.667,-1096.45C152.77,-1090.43 150.286,-1084.22 148.5,-1078 144.912,-1065.5 142.825,-1052.27 141.822,-1038.94"/>
<polygon fill="none" stroke="#404040" points="141.809,-1038.67 137.507,-1032.88 141.195,-1026.68 145.496,-1032.47 141.809,-1038.67"/>
<text text-anchor="middle" x="188" y="-1070" font-family="Courier New" font-size="10.00"> +leftTrigger</text>
<text text-anchor="middle" x="188" y="-1059" font-family="Courier New" font-size="10.00">+rightTrigger</text>
<text text-anchor="middle" x="188" y="-1048" font-family="Courier New" font-size="10.00">&#45;emptyTrigger</text>
</g>
<!-- Node8 -->
<g id="node8" class="node"><title>Node8</title>
<g id="a_node8"><a xlink:href="../../d2/d43/class_c2_m2_1_1_interaction_1_1_raycast_press_events_1_1_raycast_hit_event.html" target="_top" xlink:title=" ">
<polygon fill="white" stroke="black" points="113,-1278.5 113,-1346.5 292,-1346.5 292,-1278.5 113,-1278.5"/>
<text text-anchor="start" x="121" y="-1334.5" font-family="Courier New" font-size="10.00">C2M2.Interaction.Raycast</text>
<text text-anchor="middle" x="202.5" y="-1323.5" font-family="Courier New" font-size="10.00">PressEvents.RaycastHitEvent</text>
<polyline fill="none" stroke="black" points="113,-1316.5 292,-1316.5 "/>
<text text-anchor="middle" x="202.5" y="-1304.5" font-family="Courier New" font-size="10.00"> </text>
<polyline fill="none" stroke="black" points="113,-1297.5 292,-1297.5 "/>
<text text-anchor="middle" x="202.5" y="-1285.5" font-family="Courier New" font-size="10.00"> </text>
</a>
</g>
</g>
<!-- Node8&#45;&gt;Node7 -->
<g id="edge11" class="edge"><title>Node8&#45;&gt;Node7</title>
<path fill="none" stroke="#404040" d="M200.823,-1278.38C199.977,-1261.67 198.918,-1240.77 197.911,-1220.87"/>
<polygon fill="none" stroke="#404040" points="197.9,-1220.64 193.601,-1214.85 197.293,-1208.66 201.591,-1214.45 197.9,-1220.64"/>
<text text-anchor="middle" x="237" y="-1252" font-family="Courier New" font-size="10.00"> &#45;onPress</text>
<text text-anchor="middle" x="237" y="-1241" font-family="Courier New" font-size="10.00">&#45;onHoldPress</text>
<text text-anchor="middle" x="237" y="-1230" font-family="Courier New" font-size="10.00">&#45;onEndPress</text>
</g>
<!-- Node9 -->
<g id="node9" class="node"><title>Node9</title>
<g id="a_node9"><a xlink:title=" ">
<polygon fill="white" stroke="#bfbfbf" points="122,-1384.5 122,-1441.5 283,-1441.5 283,-1384.5 122,-1384.5"/>
<text text-anchor="middle" x="202.5" y="-1429.5" font-family="Courier New" font-size="10.00">UnityEvent&lt; RaycastHit &gt;</text>
<polyline fill="none" stroke="#bfbfbf" points="122,-1422.5 283,-1422.5 "/>
<text text-anchor="middle" x="202.5" y="-1410.5" font-family="Courier New" font-size="10.00"> </text>
<polyline fill="none" stroke="#bfbfbf" points="122,-1403.5 283,-1403.5 "/>
<text text-anchor="middle" x="202.5" y="-1391.5" font-family="Courier New" font-size="10.00"> </text>
</a>
</g>
</g>
<!-- Node9&#45;&gt;Node8 -->
<g id="edge12" class="edge"><title>Node9&#45;&gt;Node8</title>
<path fill="none" stroke="midnightblue" d="M202.5,-1374.01C202.5,-1364.96 202.5,-1355.38 202.5,-1346.58"/>
<polygon fill="none" stroke="midnightblue" points="199,-1374.3 202.5,-1384.3 206,-1374.3 199,-1374.3"/>
</g>
</g>
</svg>
