<?xml version="1.0" encoding="UTF-8" standalone="no"?>
<!DOCTYPE svg PUBLIC "-//W3C//DTD SVG 1.1//EN"
 "http://www.w3.org/Graphics/SVG/1.1/DTD/svg11.dtd">
<!-- Generated by graphviz version 2.38.0 (20140413.2041)
 -->
<!-- Title: C2M2.GameManager Pages: 1 -->
<!--zoomable 1439 -->
<svg id="main" version="1.1" xmlns="http://www.w3.org/2000/svg" xmlns:xlink="http://www.w3.org/1999/xlink" xml:space="preserve" onload="init(evt)">
<style type="text/css"><![CDATA[
.edge:hover path { stroke: red; }
.edge:hover polygon { stroke: red; fill: red; }
]]></style>
<script type="text/javascript"><![CDATA[
var edges = document.getElementsByTagName('g');
if (edges && edges.length) {
  for (var i=0;i<edges.length;i++) {
    if (edges[i].id.substr(0,4)=='edge') {
      edges[i].setAttribute('class','edge');
    }
  }
}
]]></script>
        <defs>
                <circle id="rim" cx="0" cy="0" r="7"/>
                <circle id="rim2" cx="0" cy="0" r="3.5"/>
                <g id="zoomPlus">
                        <use xlink:href="#rim" fill="#404040">
                                <set attributeName="fill" to="#808080" begin="zoomplus.mouseover" end="zoomplus.mouseout"/>
                        </use>
                        <path d="M-4,0h8M0,-4v8" fill="none" stroke="white" stroke-width="1.5" pointer-events="none"/>
                </g>
                <g id="zoomMin">
                        <use xlink:href="#rim" fill="#404040">
                                <set attributeName="fill" to="#808080" begin="zoomminus.mouseover" end="zoomminus.mouseout"/>
                        </use>
                        <path d="M-4,0h8" fill="none" stroke="white" stroke-width="1.5" pointer-events="none"/>
                </g>
                <g id="dirArrow">
                        <path fill="none" stroke="white" stroke-width="1.5" d="M0,-3.0v7 M-2.5,-0.5L0,-3.0L2.5,-0.5"/>
                </g>
               <g id="resetDef">
                       <use xlink:href="#rim2" fill="#404040">
                               <set attributeName="fill" to="#808080" begin="reset.mouseover" end="reset.mouseout"/>
                       </use>
               </g>
        </defs>

<script type="text/javascript">
var viewWidth = 420;
var viewHeight = 1439;
var sectionId = 'dynsection-1';
</script>
<script xlink:href="../../svgpan.js"/>
<svg id="graph" class="graph">
<g id="viewport">
<title>C2M2.GameManager</title>
<polygon fill="white" stroke="none" points="-4,4 -4,-1435 415.5,-1435 415.5,4 -4,4"/>
<!-- Node1 -->
<g id="node1" class="node"><title>Node1</title>
<g id="a_node1"><a xlink:title=" ">
<polygon fill="#bfbfbf" stroke="black" points="170,-0.5 170,-310.5 361,-310.5 361,-0.5 170,-0.5"/>
<text text-anchor="middle" x="265.5" y="-298.5" font-family="Courier New" font-size="10.00">C2M2.GameManager</text>
<polyline fill="none" stroke="black" points="170,-291.5 361,-291.5 "/>
<text text-anchor="start" x="178" y="-279.5" font-family="Courier New" font-size="10.00">+ mainThreadId</text>
<text text-anchor="start" x="178" y="-268.5" font-family="Courier New" font-size="10.00">+ assetsPath</text>
<text text-anchor="start" x="178" y="-257.5" font-family="Courier New" font-size="10.00">+ useVirtualReality</text>
<text text-anchor="start" x="178" y="-246.5" font-family="Courier New" font-size="10.00">+ defaultMaterial</text>
<text text-anchor="start" x="178" y="-235.5" font-family="Courier New" font-size="10.00">+ vertexColorationMaterial</text>
<text text-anchor="start" x="178" y="-224.5" font-family="Courier New" font-size="10.00">+ objectScaleDefault</text>
<text text-anchor="start" x="178" y="-213.5" font-family="Courier New" font-size="10.00">+ ovrRightHandAnchor</text>
<text text-anchor="start" x="178" y="-202.5" font-family="Courier New" font-size="10.00">+ ovrLeftHandAnchor</text>
<text text-anchor="start" x="178" y="-191.5" font-family="Courier New" font-size="10.00">+ menu</text>
<text text-anchor="start" x="178" y="-180.5" font-family="Courier New" font-size="10.00">+ raycastKeyboardPrefab</text>
<text text-anchor="start" x="178" y="-169.5" font-family="Courier New" font-size="10.00">+ menuSnapPosition</text>
<text text-anchor="start" x="178" y="-158.5" font-family="Courier New" font-size="10.00">+ ovrPlayerController</text>
<text text-anchor="start" x="178" y="-147.5" font-family="Courier New" font-size="10.00">+ nonVRCamera</text>
<text text-anchor="start" x="178" y="-136.5" font-family="Courier New" font-size="10.00">+ raycastKeyboard</text>
<text text-anchor="start" x="178" y="-125.5" font-family="Courier New" font-size="10.00">&#45; isRunning</text>
<text text-anchor="start" x="178" y="-114.5" font-family="Courier New" font-size="10.00">&#45; logQ</text>
<text text-anchor="start" x="178" y="-103.5" font-family="Courier New" font-size="10.00">&#45; logQCap</text>
<polyline fill="none" stroke="black" points="170,-96.5 361,-96.5 "/>
<text text-anchor="start" x="178" y="-84.5" font-family="Courier New" font-size="10.00">+ RaycasterRightChangeColor()</text>
<text text-anchor="start" x="178" y="-73.5" font-family="Courier New" font-size="10.00">+ RaycasterLeftChangeColor()</text>
<text text-anchor="start" x="178" y="-62.5" font-family="Courier New" font-size="10.00">+ DebugLogSafe()</text>
<text text-anchor="start" x="178" y="-51.5" font-family="Courier New" font-size="10.00">+ DebugLogSafe&lt; T &gt;()</text>
<text text-anchor="start" x="178" y="-40.5" font-family="Courier New" font-size="10.00">&#45; Awake()</text>
<text text-anchor="start" x="178" y="-29.5" font-family="Courier New" font-size="10.00">&#45; Update()</text>
<text text-anchor="start" x="178" y="-18.5" font-family="Courier New" font-size="10.00">&#45; OnApplicationQuit()</text>
<text text-anchor="start" x="178" y="-7.5" font-family="Courier New" font-size="10.00">&#45; OnApplicationPause()</text>
</a>
</g>
</g>
<!-- Node2 -->
<g id="node2" class="node"><title>Node2</title>
<g id="a_node2"><a xlink:title=" ">
<polygon fill="white" stroke="#bfbfbf" points="0,-1273 0,-1330 95,-1330 95,-1273 0,-1273"/>
<text text-anchor="middle" x="47.5" y="-1318" font-family="Courier New" font-size="10.00">MonoBehaviour</text>
<polyline fill="none" stroke="#bfbfbf" points="0,-1311 95,-1311 "/>
<text text-anchor="middle" x="47.5" y="-1299" font-family="Courier New" font-size="10.00"> </text>
<polyline fill="none" stroke="#bfbfbf" points="0,-1292 95,-1292 "/>
<text text-anchor="middle" x="47.5" y="-1280" font-family="Courier New" font-size="10.00"> </text>
</a>
</g>
</g>
<!-- Node2&#45;&gt;Node1 -->
<g id="edge1" class="edge"><title>Node2&#45;&gt;Node1</title>
<path fill="none" stroke="midnightblue" d="M33.207,-1263.01C22.4313,-1231.38 9.5,-1184.63 9.5,-1142.5 9.5,-1142.5 9.5,-1142.5 9.5,-551 9.5,-466.626 21.2653,-442.043 63.5,-369 91.3361,-320.859 132.202,-275.106 169.908,-238.471"/>
<polygon fill="none" stroke="midnightblue" points="30.0013,-1264.45 36.6107,-1272.73 36.6077,-1262.13 30.0013,-1264.45"/>
</g>
<!-- Node5 -->
<g id="node5" class="node"><title>Node5</title>
<g id="a_node5"><a xlink:href="../../dd/dfe/class_c2_m2_1_1_interaction_1_1_raycast_forward.html" target="_top" xlink:title=" ">
<polygon fill="white" stroke="black" points="73,-369.5 73,-734.5 240,-734.5 240,-369.5 73,-369.5"/>
<text text-anchor="start" x="81" y="-722.5" font-family="Courier New" font-size="10.00">C2M2.Interaction.Raycast</text>
<text text-anchor="middle" x="156.5" y="-711.5" font-family="Courier New" font-size="10.00">Forward</text>
<polyline fill="none" stroke="black" points="73,-704.5 240,-704.5 "/>
<text text-anchor="start" x="81" y="-692.5" font-family="Courier New" font-size="10.00">+ rightHand</text>
<text text-anchor="start" x="81" y="-681.5" font-family="Courier New" font-size="10.00">+ raycastController</text>
<text text-anchor="start" x="81" y="-670.5" font-family="Courier New" font-size="10.00">+ raycastButton</text>
<text text-anchor="start" x="81" y="-659.5" font-family="Courier New" font-size="10.00">+ triggerButton</text>
<text text-anchor="start" x="81" y="-648.5" font-family="Courier New" font-size="10.00">+ layerMask</text>
<text text-anchor="start" x="81" y="-637.5" font-family="Courier New" font-size="10.00">+ staticIndexRenderer</text>
<text text-anchor="start" x="81" y="-626.5" font-family="Courier New" font-size="10.00">+ staticHandObject</text>
<text text-anchor="start" x="81" y="-615.5" font-family="Courier New" font-size="10.00">+ defaultHandObject</text>
<text text-anchor="start" x="81" y="-604.5" font-family="Courier New" font-size="10.00">+ minHitDist</text>
<text text-anchor="start" x="81" y="-593.5" font-family="Courier New" font-size="10.00">+ hysteresisDist</text>
<text text-anchor="start" x="81" y="-582.5" font-family="Courier New" font-size="10.00">and 10 more...</text>
<text text-anchor="start" x="81" y="-571.5" font-family="Courier New" font-size="10.00">&#45; activeObjectID</text>
<text text-anchor="start" x="81" y="-560.5" font-family="Courier New" font-size="10.00">&#45; valid</text>
<text text-anchor="start" x="81" y="-549.5" font-family="Courier New" font-size="10.00">&#45; clicked</text>
<text text-anchor="start" x="81" y="-538.5" font-family="Courier New" font-size="10.00">&#45; touched</text>
<text text-anchor="start" x="81" y="-527.5" font-family="Courier New" font-size="10.00">&#45; hitTriggered</text>
<text text-anchor="start" x="81" y="-516.5" font-family="Courier New" font-size="10.00">&#45; holdTriggered</text>
<text text-anchor="start" x="81" y="-505.5" font-family="Courier New" font-size="10.00">&#45; endTriggered</text>
<text text-anchor="start" x="81" y="-494.5" font-family="Courier New" font-size="10.00">&#45; validHitEvent</text>
<text text-anchor="start" x="81" y="-483.5" font-family="Courier New" font-size="10.00">&#45; validHoldEvent</text>
<text text-anchor="start" x="81" y="-472.5" font-family="Courier New" font-size="10.00">&#45; validEndEvent</text>
<text text-anchor="start" x="81" y="-461.5" font-family="Courier New" font-size="10.00">&#45; relativeForward</text>
<text text-anchor="start" x="81" y="-450.5" font-family="Courier New" font-size="10.00">&#45; lineRend</text>
<text text-anchor="start" x="81" y="-439.5" font-family="Courier New" font-size="10.00">&#45; invisible</text>
<text text-anchor="start" x="81" y="-428.5" font-family="Courier New" font-size="10.00">&#45; currentState</text>
<polyline fill="none" stroke="black" points="73,-421.5 240,-421.5 "/>
<text text-anchor="start" x="81" y="-409.5" font-family="Courier New" font-size="10.00">+ ChangeStaticHandColor()</text>
<text text-anchor="start" x="81" y="-398.5" font-family="Courier New" font-size="10.00">&#45; Start()</text>
<text text-anchor="start" x="81" y="-387.5" font-family="Courier New" font-size="10.00">&#45; FixedUpdate()</text>
<text text-anchor="start" x="81" y="-376.5" font-family="Courier New" font-size="10.00">&#45; TryRaycastHit()</text>
</a>
</g>
</g>
<!-- Node2&#45;&gt;Node5 -->
<g id="edge5" class="edge"><title>Node2&#45;&gt;Node5</title>
<path fill="none" stroke="midnightblue" d="M44.5849,-1262.75C38.852,-1176.48 29.6575,-958.709 66.5,-782 69.7477,-766.423 73.9558,-750.53 78.7761,-734.744"/>
<polygon fill="none" stroke="midnightblue" points="41.1013,-1263.11 45.2805,-1272.84 48.0847,-1262.63 41.1013,-1263.11"/>
</g>
<!-- Node6 -->
<g id="node6" class="node"><title>Node6</title>
<g id="a_node6"><a xlink:href="../../d5/df9/class_c2_m2_1_1_interaction_1_1_raycast_event_manager.html" target="_top" xlink:title="Attach this script to parent gameObject, create one child with one raycast trigger per child....">
<polygon fill="white" stroke="black" points="76,-782.5 76,-1015.5 237,-1015.5 237,-782.5 76,-782.5"/>
<text text-anchor="start" x="84" y="-1003.5" font-family="Courier New" font-size="10.00">C2M2.Interaction.Raycast</text>
<text text-anchor="middle" x="156.5" y="-992.5" font-family="Courier New" font-size="10.00">EventManager</text>
<polyline fill="none" stroke="black" points="76,-985.5 237,-985.5 "/>
<text text-anchor="middle" x="156.5" y="-973.5" font-family="Courier New" font-size="10.00"> </text>
<polyline fill="none" stroke="black" points="76,-966.5 237,-966.5 "/>
<text text-anchor="start" x="84" y="-954.5" font-family="Courier New" font-size="10.00">+ TriggerChangeRight()</text>
<text text-anchor="start" x="84" y="-943.5" font-family="Courier New" font-size="10.00">+ TriggerChangeLeft()</text>
<text text-anchor="start" x="84" y="-932.5" font-family="Courier New" font-size="10.00">+ TriggerChangeBoth()</text>
<text text-anchor="start" x="84" y="-921.5" font-family="Courier New" font-size="10.00">+ TriggerEmptyRight()</text>
<text text-anchor="start" x="84" y="-910.5" font-family="Courier New" font-size="10.00">+ TriggerEmptyLeft()</text>
<text text-anchor="start" x="84" y="-899.5" font-family="Courier New" font-size="10.00">+ TriggerEmptyBoth()</text>
<text text-anchor="start" x="84" y="-888.5" font-family="Courier New" font-size="10.00">+ PressEvent()</text>
<text text-anchor="start" x="84" y="-877.5" font-family="Courier New" font-size="10.00">+ HoldEvent()</text>
<text text-anchor="start" x="84" y="-866.5" font-family="Courier New" font-size="10.00">+ EndEvent()</text>
<text text-anchor="start" x="84" y="-855.5" font-family="Courier New" font-size="10.00">+ AllEvents()</text>
<text text-anchor="start" x="84" y="-844.5" font-family="Courier New" font-size="10.00">+ PressEventNull()</text>
<text text-anchor="start" x="84" y="-833.5" font-family="Courier New" font-size="10.00">+ HoldEventNull()</text>
<text text-anchor="start" x="84" y="-822.5" font-family="Courier New" font-size="10.00">+ EndEventNull()</text>
<text text-anchor="start" x="84" y="-811.5" font-family="Courier New" font-size="10.00">+ AllEventsNull()</text>
<text text-anchor="start" x="84" y="-800.5" font-family="Courier New" font-size="10.00">+ ToString()</text>
<text text-anchor="start" x="84" y="-789.5" font-family="Courier New" font-size="10.00">&#45; Awake()</text>
</a>
</g>
</g>
<!-- Node2&#45;&gt;Node6 -->
<g id="edge7" class="edge"><title>Node2&#45;&gt;Node6</title>
<path fill="none" stroke="midnightblue" d="M57.6599,-1263.28C58.9588,-1258.48 60.2653,-1253.62 61.5,-1249 80.9392,-1176.2 84.7487,-1157.72 104.5,-1085 110.578,-1062.62 117.188,-1038.76 123.594,-1015.87"/>
<polygon fill="none" stroke="midnightblue" points="54.2687,-1262.42 55.0294,-1272.98 61.0247,-1264.25 54.2687,-1262.42"/>
</g>
<!-- Node7 -->
<g id="node7" class="node"><title>Node7</title>
<g id="a_node7"><a xlink:href="../../d8/d68/class_c2_m2_1_1_interaction_1_1_raycast_press_events.html" target="_top" xlink:title="Store custom events that the corresponding RaycastTriggerManager will invoke">
<polygon fill="white" stroke="black" points="114,-1085.5 114,-1197.5 275,-1197.5 275,-1085.5 114,-1085.5"/>
<text text-anchor="start" x="122" y="-1185.5" font-family="Courier New" font-size="10.00">C2M2.Interaction.Raycast</text>
<text text-anchor="middle" x="194.5" y="-1174.5" font-family="Courier New" font-size="10.00">PressEvents</text>
<polyline fill="none" stroke="black" points="114,-1167.5 275,-1167.5 "/>
<text text-anchor="start" x="122" y="-1155.5" font-family="Courier New" font-size="10.00">+ OnPress</text>
<text text-anchor="start" x="122" y="-1144.5" font-family="Courier New" font-size="10.00">+ OnHoldPress</text>
<text text-anchor="start" x="122" y="-1133.5" font-family="Courier New" font-size="10.00">+ OnEndPress</text>
<polyline fill="none" stroke="black" points="114,-1126.5 275,-1126.5 "/>
<text text-anchor="start" x="122" y="-1114.5" font-family="Courier New" font-size="10.00">+ Press()</text>
<text text-anchor="start" x="122" y="-1103.5" font-family="Courier New" font-size="10.00">+ HoldPress()</text>
<text text-anchor="start" x="122" y="-1092.5" font-family="Courier New" font-size="10.00">+ EndPress()</text>
</a>
</g>
</g>
<!-- Node2&#45;&gt;Node7 -->
<g id="edge10" class="edge"><title>Node2&#45;&gt;Node7</title>
<path fill="none" stroke="midnightblue" d="M83.4754,-1265.45C88.9009,-1260 94.3884,-1254.39 99.5,-1249 115.107,-1232.56 131.694,-1214.26 146.566,-1197.54"/>
<polygon fill="none" stroke="midnightblue" points="80.765,-1263.21 76.1566,-1272.75 85.7084,-1268.16 80.765,-1263.21"/>
</g>
<!-- Node3 -->
<g id="node3" class="node"><title>Node3</title>
<g id="a_node3"><a xlink:title=" ">
<polygon fill="white" stroke="#bfbfbf" points="348,-523.5 348,-580.5 395,-580.5 395,-523.5 348,-523.5"/>
<text text-anchor="middle" x="371.5" y="-568.5" font-family="Courier New" font-size="10.00">Utils</text>
<polyline fill="none" stroke="#bfbfbf" points="348,-561.5 395,-561.5 "/>
<text text-anchor="middle" x="371.5" y="-549.5" font-family="Courier New" font-size="10.00"> </text>
<polyline fill="none" stroke="#bfbfbf" points="348,-542.5 395,-542.5 "/>
<text text-anchor="middle" x="371.5" y="-530.5" font-family="Courier New" font-size="10.00"> </text>
</a>
</g>
</g>
<!-- Node3&#45;&gt;Node1 -->
<g id="edge2" class="edge"><title>Node3&#45;&gt;Node1</title>
<path fill="none" stroke="#404040" d="M368.612,-523.256C363.78,-480.831 352.655,-397.54 333.5,-329 332.866,-326.733 332.214,-324.455 331.543,-322.168"/>
<polygon fill="none" stroke="#404040" points="331.539,-322.153 325.967,-317.575 328.051,-310.671 333.622,-315.249 331.539,-322.153"/>
<text text-anchor="middle" x="375" y="-337.5" font-family="Courier New" font-size="10.00"> +fpsCounter</text>
</g>
<!-- Node4 -->
<g id="node4" class="node"><title>Node4</title>
<g id="a_node4"><a xlink:title=" ">
<polygon fill="white" stroke="#bfbfbf" points="293,-1113 293,-1170 346,-1170 346,-1113 293,-1113"/>
<text text-anchor="middle" x="319.5" y="-1158" font-family="Courier New" font-size="10.00">static</text>
<polyline fill="none" stroke="#bfbfbf" points="293,-1151 346,-1151 "/>
<text text-anchor="middle" x="319.5" y="-1139" font-family="Courier New" font-size="10.00"> </text>
<polyline fill="none" stroke="#bfbfbf" points="293,-1132 346,-1132 "/>
<text text-anchor="middle" x="319.5" y="-1120" font-family="Courier New" font-size="10.00"> </text>
</a>
</g>
</g>
<!-- Node4&#45;&gt;Node1 -->
<g id="edge3" class="edge"><title>Node4&#45;&gt;Node1</title>
<path fill="none" stroke="#404040" d="M321.129,-1112.68C326.763,-1008.83 343.094,-634.222 305.5,-329 305.248,-326.955 304.982,-324.898 304.702,-322.833"/>
<polygon fill="none" stroke="#404040" points="304.696,-322.79 299.871,-317.431 302.963,-310.916 307.788,-316.275 304.696,-322.79"/>
<text text-anchor="middle" x="360" y="-756" font-family="Courier New" font-size="10.00"> +instance</text>
</g>
<!-- Node4&#45;&gt;Node6 -->
<g id="edge8" class="edge"><title>Node4&#45;&gt;Node6</title>
<path fill="none" stroke="#404040" d="M305.246,-1112.77C299.407,-1103.19 292.008,-1092.88 283.5,-1085 271.246,-1073.64 262.392,-1078.73 250.5,-1067 246.094,-1062.65 236.304,-1046.72 224.634,-1026.3"/>
<polygon fill="none" stroke="#404040" points="224.489,-1026.04 218.052,-1022.79 218.575,-1015.6 225.013,-1018.85 224.489,-1026.04"/>
<text text-anchor="middle" x="278" y="-1048" font-family="Courier New" font-size="10.00"> &#45;nullHit</text>
</g>
<!-- Node5&#45;&gt;Node1 -->
<g id="edge4" class="edge"><title>Node5&#45;&gt;Node1</title>
<path fill="none" stroke="#404040" d="M203.427,-369.444C207.123,-355.744 210.841,-342.144 214.5,-329 215.102,-326.838 215.71,-324.661 216.324,-322.472"/>
<polygon fill="none" stroke="#404040" points="216.397,-322.214 214.177,-315.353 219.656,-310.665 221.876,-317.526 216.397,-322.214"/>
<text text-anchor="middle" x="260" y="-343" font-family="Courier New" font-size="10.00"> +leftRaycaster</text>
<text text-anchor="middle" x="260" y="-332" font-family="Courier New" font-size="10.00">+rightRaycaster</text>
</g>
<!-- Node6&#45;&gt;Node5 -->
<g id="edge6" class="edge"><title>Node6&#45;&gt;Node5</title>
<path fill="none" stroke="#404040" d="M156.5,-782.16C156.5,-770.635 156.5,-758.731 156.5,-746.686"/>
<polygon fill="none" stroke="#404040" points="156.5,-746.604 152.5,-740.604 156.5,-734.604 160.5,-740.604 156.5,-746.604"/>
<text text-anchor="middle" x="223" y="-756" font-family="Courier New" font-size="10.00"> &#45;activeTriggerManager</text>
</g>
<!-- Node7&#45;&gt;Node6 -->
<g id="edge9" class="edge"><title>Node7&#45;&gt;Node6</title>
<path fill="none" stroke="#404040" d="M155.667,-1085.45C152.77,-1079.43 150.286,-1073.22 148.5,-1067 144.912,-1054.5 142.825,-1041.27 141.822,-1027.94"/>
<polygon fill="none" stroke="#404040" points="141.809,-1027.67 137.507,-1021.88 141.195,-1015.68 145.496,-1021.47 141.809,-1027.67"/>
<text text-anchor="middle" x="188" y="-1059" font-family="Courier New" font-size="10.00"> +leftTrigger</text>
<text text-anchor="middle" x="188" y="-1048" font-family="Courier New" font-size="10.00">+rightTrigger</text>
<text text-anchor="middle" x="188" y="-1037" font-family="Courier New" font-size="10.00">&#45;emptyTrigger</text>
</g>
<!-- Node8 -->
<g id="node8" class="node"><title>Node8</title>
<g id="a_node8"><a xlink:href="../../d2/d43/class_c2_m2_1_1_interaction_1_1_raycast_press_events_1_1_raycast_hit_event.html" target="_top" xlink:title=" ">
<polygon fill="white" stroke="black" points="113,-1267.5 113,-1335.5 292,-1335.5 292,-1267.5 113,-1267.5"/>
<text text-anchor="start" x="121" y="-1323.5" font-family="Courier New" font-size="10.00">C2M2.Interaction.Raycast</text>
<text text-anchor="middle" x="202.5" y="-1312.5" font-family="Courier New" font-size="10.00">PressEvents.RaycastHitEvent</text>
<polyline fill="none" stroke="black" points="113,-1305.5 292,-1305.5 "/>
<text text-anchor="middle" x="202.5" y="-1293.5" font-family="Courier New" font-size="10.00"> </text>
<polyline fill="none" stroke="black" points="113,-1286.5 292,-1286.5 "/>
<text text-anchor="middle" x="202.5" y="-1274.5" font-family="Courier New" font-size="10.00"> </text>
</a>
</g>
</g>
<!-- Node8&#45;&gt;Node7 -->
<g id="edge11" class="edge"><title>Node8&#45;&gt;Node7</title>
<path fill="none" stroke="#404040" d="M200.823,-1267.38C199.977,-1250.67 198.918,-1229.77 197.911,-1209.87"/>
<polygon fill="none" stroke="#404040" points="197.9,-1209.64 193.601,-1203.85 197.293,-1197.66 201.591,-1203.45 197.9,-1209.64"/>
<text text-anchor="middle" x="237" y="-1241" font-family="Courier New" font-size="10.00"> &#45;onPress</text>
<text text-anchor="middle" x="237" y="-1230" font-family="Courier New" font-size="10.00">&#45;onHoldPress</text>
<text text-anchor="middle" x="237" y="-1219" font-family="Courier New" font-size="10.00">&#45;onEndPress</text>
</g>
<!-- Node9 -->
<g id="node9" class="node"><title>Node9</title>
<g id="a_node9"><a xlink:title=" ">
<polygon fill="white" stroke="#bfbfbf" points="122,-1373.5 122,-1430.5 283,-1430.5 283,-1373.5 122,-1373.5"/>
<text text-anchor="middle" x="202.5" y="-1418.5" font-family="Courier New" font-size="10.00">UnityEvent&lt; RaycastHit &gt;</text>
<polyline fill="none" stroke="#bfbfbf" points="122,-1411.5 283,-1411.5 "/>
<text text-anchor="middle" x="202.5" y="-1399.5" font-family="Courier New" font-size="10.00"> </text>
<polyline fill="none" stroke="#bfbfbf" points="122,-1392.5 283,-1392.5 "/>
<text text-anchor="middle" x="202.5" y="-1380.5" font-family="Courier New" font-size="10.00"> </text>
</a>
</g>
</g>
<!-- Node9&#45;&gt;Node8 -->
<g id="edge12" class="edge"><title>Node9&#45;&gt;Node8</title>
<path fill="none" stroke="midnightblue" d="M202.5,-1363.01C202.5,-1353.96 202.5,-1344.38 202.5,-1335.58"/>
<polygon fill="none" stroke="midnightblue" points="199,-1363.3 202.5,-1373.3 206,-1363.3 199,-1363.3"/>
</g>
</g>
</svg>
        <g id="navigator" transform="translate(0 0)" fill="#404254">
                <rect fill="#f2f5e9" fill-opacity="0.5" stroke="#606060" stroke-width=".5" x="0" y="0" width="60" height="60"/>
                <use id="zoomplus" xlink:href="#zoomPlus" x="17" y="9" onmousedown="handleZoom(evt,'in')"/>
                <use id="zoomminus" xlink:href="#zoomMin" x="42" y="9" onmousedown="handleZoom(evt,'out')"/>
                <use id="reset" xlink:href="#resetDef" x="30" y="36" onmousedown="handleReset()"/>
                <g id="arrowUp" xlink:href="#dirArrow" transform="translate(30 24)" onmousedown="handlePan(0,-1)">
                  <use xlink:href="#rim" fill="#404040">
                        <set attributeName="fill" to="#808080" begin="arrowUp.mouseover" end="arrowUp.mouseout"/>
                  </use>
                  <path fill="none" stroke="white" stroke-width="1.5" d="M0,-3.0v7 M-2.5,-0.5L0,-3.0L2.5,-0.5"/>
                </g>
                <g id="arrowRight" xlink:href="#dirArrow" transform="rotate(90) translate(36 -43)" onmousedown="handlePan(1,0)">
                  <use xlink:href="#rim" fill="#404040">
                        <set attributeName="fill" to="#808080" begin="arrowRight.mouseover" end="arrowRight.mouseout"/>
                  </use>
                  <path fill="none" stroke="white" stroke-width="1.5" d="M0,-3.0v7 M-2.5,-0.5L0,-3.0L2.5,-0.5"/>
                </g>
                <g id="arrowDown" xlink:href="#dirArrow" transform="rotate(180) translate(-30 -48)" onmousedown="handlePan(0,1)">
                  <use xlink:href="#rim" fill="#404040">
                        <set attributeName="fill" to="#808080" begin="arrowDown.mouseover" end="arrowDown.mouseout"/>
                  </use>
                  <path fill="none" stroke="white" stroke-width="1.5" d="M0,-3.0v7 M-2.5,-0.5L0,-3.0L2.5,-0.5"/>
                </g>
                <g id="arrowLeft" xlink:href="#dirArrow" transform="rotate(270) translate(-36 17)" onmousedown="handlePan(-1,0)">
                  <use xlink:href="#rim" fill="#404040">
                        <set attributeName="fill" to="#808080" begin="arrowLeft.mouseover" end="arrowLeft.mouseout"/>
                  </use>
                  <path fill="none" stroke="white" stroke-width="1.5" d="M0,-3.0v7 M-2.5,-0.5L0,-3.0L2.5,-0.5"/>
                </g>
        </g>
        <svg viewBox="0 0 15 15" width="100%" height="30px" preserveAspectRatio="xMaxYMin meet">
         <g id="arrow_out" transform="scale(0.3 0.3)">
          <a xlink:href="class_c2_m2_1_1_game_manager__coll__graph_org.svg" target="_base">
           <rect id="button" ry="5" rx="5" y="6" x="6" height="38" width="38"
                fill="#f2f5e9" fill-opacity="0.5" stroke="#606060" stroke-width="1.0"/>
           <path id="arrow"
             d="M 11.500037,31.436501 C 11.940474,20.09759 22.043105,11.32322 32.158766,21.979434 L 37.068811,17.246167 C 37.068811,17.246167 37.088388,32 37.088388,32 L 22.160133,31.978069 C 22.160133,31.978069 26.997745,27.140456 26.997745,27.140456 C 18.528582,18.264221 13.291696,25.230495 11.500037,31.436501 z"
             style="fill:#404040;"/>
          </a>
         </g>
        </svg>
</svg>
