<?xml version="1.0" encoding="UTF-8" standalone="no"?>
<!DOCTYPE svg PUBLIC "-//W3C//DTD SVG 1.1//EN"
 "http://www.w3.org/Graphics/SVG/1.1/DTD/svg11.dtd">
<!-- Generated by graphviz version 2.38.0 (20140413.2041)
 -->
<!-- Title: C2M2.NeuronalDynamics.Simulation.sparseNoArray_cholesky_time Pages: 1 -->
<svg width="912pt" height="1557pt"
 viewBox="0.00 0.00 911.50 1557.00" xmlns="http://www.w3.org/2000/svg" xmlns:xlink="http://www.w3.org/1999/xlink">
<g id="graph0" class="graph" transform="scale(1 1) rotate(0) translate(4 1553)">
<title>C2M2.NeuronalDynamics.Simulation.sparseNoArray_cholesky_time</title>
<polygon fill="white" stroke="none" points="-4,4 -4,-1553 907.5,-1553 907.5,4 -4,4"/>
<!-- Node1 -->
<g id="node1" class="node"><title>Node1</title>
<g id="a_node1"><a xlink:title=" ">
<polygon fill="#bfbfbf" stroke="black" points="555,-0.5 555,-453.5 806,-453.5 806,-0.5 555,-0.5"/>
<text text-anchor="start" x="563" y="-441.5" font-family="Courier New" font-size="10.00">C2M2.NeuronalDynamics.Simulation.sparse</text>
<text text-anchor="middle" x="680.5" y="-430.5" font-family="Courier New" font-size="10.00">NoArray_cholesky_time</text>
<polyline fill="none" stroke="black" points="555,-423.5 806,-423.5 "/>
<text text-anchor="start" x="563" y="-411.5" font-family="Courier New" font-size="10.00">+ vstart</text>
<text text-anchor="start" x="563" y="-400.5" font-family="Courier New" font-size="10.00">+ endTime</text>
<text text-anchor="start" x="563" y="-389.5" font-family="Courier New" font-size="10.00">+ h</text>
<text text-anchor="start" x="563" y="-378.5" font-family="Courier New" font-size="10.00">+ k</text>
<text text-anchor="start" x="563" y="-367.5" font-family="Courier New" font-size="10.00">+ HK_auto</text>
<text text-anchor="start" x="563" y="-356.5" font-family="Courier New" font-size="10.00">+ SomaOn</text>
<text text-anchor="start" x="563" y="-345.5" font-family="Courier New" font-size="10.00">+ res</text>
<text text-anchor="start" x="563" y="-334.5" font-family="Courier New" font-size="10.00">+ cap</text>
<text text-anchor="start" x="563" y="-323.5" font-family="Courier New" font-size="10.00">+ ni</text>
<text text-anchor="start" x="563" y="-312.5" font-family="Courier New" font-size="10.00">+ k_ONOFF</text>
<text text-anchor="start" x="563" y="-301.5" font-family="Courier New" font-size="10.00">and 8 more...</text>
<text text-anchor="start" x="563" y="-290.5" font-family="Courier New" font-size="10.00">&#45; mi</text>
<text text-anchor="start" x="563" y="-279.5" font-family="Courier New" font-size="10.00">&#45; hi</text>
<text text-anchor="start" x="563" y="-268.5" font-family="Courier New" font-size="10.00">&#45; U</text>
<text text-anchor="start" x="563" y="-257.5" font-family="Courier New" font-size="10.00">&#45; M</text>
<text text-anchor="start" x="563" y="-246.5" font-family="Courier New" font-size="10.00">&#45; N</text>
<text text-anchor="start" x="563" y="-235.5" font-family="Courier New" font-size="10.00">&#45; H</text>
<text text-anchor="start" x="563" y="-224.5" font-family="Courier New" font-size="10.00">&#45; i</text>
<polyline fill="none" stroke="black" points="555,-217.5 806,-217.5 "/>
<text text-anchor="start" x="563" y="-205.5" font-family="Courier New" font-size="10.00">+ thomas_algorithm()</text>
<text text-anchor="start" x="563" y="-194.5" font-family="Courier New" font-size="10.00">+ makeSparseStencils()</text>
<text text-anchor="start" x="563" y="-183.5" font-family="Courier New" font-size="10.00">+ setSoma()</text>
<text text-anchor="start" x="563" y="-172.5" font-family="Courier New" font-size="10.00">+ initialConditions()</text>
<text text-anchor="start" x="563" y="-161.5" font-family="Courier New" font-size="10.00">+ boundaryConditions()</text>
<text text-anchor="start" x="563" y="-150.5" font-family="Courier New" font-size="10.00"># SetNeuronCell()</text>
<text text-anchor="start" x="563" y="-139.5" font-family="Courier New" font-size="10.00"># Get1DValues()</text>
<text text-anchor="start" x="563" y="-128.5" font-family="Courier New" font-size="10.00"># Set1DValues()</text>
<text text-anchor="start" x="563" y="-117.5" font-family="Courier New" font-size="10.00"># Solve()</text>
<text text-anchor="start" x="563" y="-106.5" font-family="Courier New" font-size="10.00">&#45; reactF()</text>
<text text-anchor="start" x="563" y="-95.5" font-family="Courier New" font-size="10.00">&#45; fN()</text>
<text text-anchor="start" x="563" y="-84.5" font-family="Courier New" font-size="10.00">&#45; fM()</text>
<text text-anchor="start" x="563" y="-73.5" font-family="Courier New" font-size="10.00">&#45; fH()</text>
<text text-anchor="start" x="563" y="-62.5" font-family="Courier New" font-size="10.00">&#45; an()</text>
<text text-anchor="start" x="563" y="-51.5" font-family="Courier New" font-size="10.00">&#45; bn()</text>
<text text-anchor="start" x="563" y="-40.5" font-family="Courier New" font-size="10.00">&#45; am()</text>
<text text-anchor="start" x="563" y="-29.5" font-family="Courier New" font-size="10.00">&#45; bm()</text>
<text text-anchor="start" x="563" y="-18.5" font-family="Courier New" font-size="10.00">&#45; ah()</text>
<text text-anchor="start" x="563" y="-7.5" font-family="Courier New" font-size="10.00">&#45; bh()</text>
</a>
</g>
</g>
<!-- Node2 -->
<g id="node2" class="node"><title>Node2</title>
<g id="a_node2"><a xlink:href="../../d4/d5a/class_c2_m2_1_1_neuronal_dynamics_1_1_simulation_1_1_neuron_simulation1_d.html" target="_top" xlink:title="Provide an interface for 1D neuron&#45;surface simulations to be visualized and interacted with">
<polygon fill="white" stroke="black" points="475,-501.5 475,-833.5 624,-833.5 624,-501.5 475,-501.5"/>
<text text-anchor="middle" x="549.5" y="-821.5" font-family="Courier New" font-size="10.00">NeuronSimulation1D</text>
<polyline fill="none" stroke="black" points="475,-814.5 624,-814.5 "/>
<text text-anchor="start" x="483" y="-802.5" font-family="Courier New" font-size="10.00">+ refinementLevel</text>
<text text-anchor="start" x="483" y="-791.5" font-family="Courier New" font-size="10.00">+ cell1xPath</text>
<text text-anchor="start" x="483" y="-780.5" font-family="Courier New" font-size="10.00">+ cell2xPath</text>
<text text-anchor="start" x="483" y="-769.5" font-family="Courier New" font-size="10.00">+ cell3xPath</text>
<text text-anchor="start" x="483" y="-758.5" font-family="Courier New" font-size="10.00">+ cell4xPath</text>
<text text-anchor="start" x="483" y="-747.5" font-family="Courier New" font-size="10.00">+ cell5xPath</text>
<text text-anchor="start" x="483" y="-736.5" font-family="Courier New" font-size="10.00">+ visualize1D</text>
<text text-anchor="start" x="483" y="-725.5" font-family="Courier New" font-size="10.00">+ color1D</text>
<text text-anchor="start" x="483" y="-714.5" font-family="Courier New" font-size="10.00">+ lineWidth1D</text>
<text text-anchor="start" x="483" y="-703.5" font-family="Courier New" font-size="10.00">&#45; meshScale</text>
<text text-anchor="start" x="483" y="-692.5" font-family="Courier New" font-size="10.00">&#45; meshColScale</text>
<text text-anchor="start" x="483" y="-681.5" font-family="Courier New" font-size="10.00">&#45; map</text>
<text text-anchor="start" x="483" y="-670.5" font-family="Courier New" font-size="10.00">&#45; scaledMeshes</text>
<polyline fill="none" stroke="black" points="475,-663.5 624,-663.5 "/>
<text text-anchor="start" x="483" y="-651.5" font-family="Courier New" font-size="10.00">+ GetValues()</text>
<text text-anchor="start" x="483" y="-640.5" font-family="Courier New" font-size="10.00">+ SetValues()</text>
<text text-anchor="start" x="483" y="-629.5" font-family="Courier New" font-size="10.00">+ RescaleMesh()</text>
<text text-anchor="start" x="483" y="-618.5" font-family="Courier New" font-size="10.00">+ SwitchColliderMesh()</text>
<text text-anchor="start" x="483" y="-607.5" font-family="Courier New" font-size="10.00">+ SwitchMesh()</text>
<text text-anchor="start" x="483" y="-596.5" font-family="Courier New" font-size="10.00"># Set1DValues()</text>
<text text-anchor="start" x="483" y="-585.5" font-family="Courier New" font-size="10.00"># Get1DValues()</text>
<text text-anchor="start" x="483" y="-574.5" font-family="Courier New" font-size="10.00"># SetNeuronCell()</text>
<text text-anchor="start" x="483" y="-563.5" font-family="Courier New" font-size="10.00"># ReadData()</text>
<text text-anchor="start" x="483" y="-552.5" font-family="Courier New" font-size="10.00"># BuildVisualization()</text>
<text text-anchor="start" x="483" y="-541.5" font-family="Courier New" font-size="10.00">&#45; BuildUI()</text>
<text text-anchor="start" x="483" y="-530.5" font-family="Courier New" font-size="10.00">&#45; Clean3DCell()</text>
<text text-anchor="start" x="483" y="-519.5" font-family="Courier New" font-size="10.00">&#45; BuildMesh()</text>
<text text-anchor="start" x="483" y="-508.5" font-family="Courier New" font-size="10.00">&#45; SwitchColliderMesh()</text>
</a>
</g>
</g>
<!-- Node2&#45;&gt;Node1 -->
<g id="edge1" class="edge"><title>Node2&#45;&gt;Node1</title>
<path fill="none" stroke="midnightblue" d="M601.703,-491.759C605.466,-479.165 609.289,-466.366 613.121,-453.539"/>
<polygon fill="none" stroke="midnightblue" points="598.348,-490.763 598.839,-501.347 605.055,-492.767 598.348,-490.763"/>
</g>
<!-- Node3 -->
<g id="node3" class="node"><title>Node3</title>
<g id="a_node3"><a xlink:href="../../d6/d2d/class_c2_m2_1_1_simulation_1_1_mesh_simulation.html" target="_top" xlink:title="Simulation of type double[] for visualizing scalar fields on mesh surfaces">
<polygon fill="white" stroke="black" points="171,-903.5 171,-1048.5 326,-1048.5 326,-903.5 171,-903.5"/>
<text text-anchor="middle" x="248.5" y="-1036.5" font-family="Courier New" font-size="10.00">MeshSimulation</text>
<polyline fill="none" stroke="black" points="171,-1029.5 326,-1029.5 "/>
<text text-anchor="start" x="179" y="-1017.5" font-family="Courier New" font-size="10.00">+ gradient</text>
<text text-anchor="start" x="179" y="-1006.5" font-family="Courier New" font-size="10.00">+ globalMax</text>
<text text-anchor="start" x="179" y="-995.5" font-family="Courier New" font-size="10.00">+ globalMin</text>
<text text-anchor="start" x="179" y="-984.5" font-family="Courier New" font-size="10.00">+ colorLUT</text>
<text text-anchor="start" x="179" y="-973.5" font-family="Courier New" font-size="10.00"># colliderMesh</text>
<text text-anchor="start" x="179" y="-962.5" font-family="Courier New" font-size="10.00">&#45; mf</text>
<text text-anchor="start" x="179" y="-951.5" font-family="Courier New" font-size="10.00">&#45; mr</text>
<polyline fill="none" stroke="black" points="171,-944.5 326,-944.5 "/>
<text text-anchor="start" x="179" y="-932.5" font-family="Courier New" font-size="10.00"># UpdateVisualization()</text>
<text text-anchor="start" x="179" y="-921.5" font-family="Courier New" font-size="10.00"># OnAwake()</text>
<text text-anchor="start" x="179" y="-910.5" font-family="Courier New" font-size="10.00">&#45; UpdateVisualization()</text>
</a>
</g>
</g>
<!-- Node3&#45;&gt;Node2 -->
<g id="edge2" class="edge"><title>Node3&#45;&gt;Node2</title>
<path fill="none" stroke="midnightblue" d="M326.314,-895.764C372.098,-849.144 429.693,-790.496 474.906,-744.457"/>
<polygon fill="none" stroke="midnightblue" points="323.581,-893.552 319.071,-903.139 328.575,-898.457 323.581,-893.552"/>
</g>
<!-- Node4 -->
<g id="node4" class="node"><title>Node4</title>
<g id="a_node4"><a xlink:href="../../db/d39/class_c2_m2_1_1_simulation_1_1_simulation.html" target="_top" xlink:title=" ">
<polygon fill="white" stroke="black" points="0,-1176.5 0,-1453.5 185,-1453.5 185,-1176.5 0,-1176.5"/>
<text text-anchor="start" x="8" y="-1441.5" font-family="Courier New" font-size="10.00">Simulation&lt; double</text>
<text text-anchor="start" x="8" y="-1430.5" font-family="Courier New" font-size="10.00">[], Mesh, VRRaycastableMesh,</text>
<text text-anchor="middle" x="92.5" y="-1419.5" font-family="Courier New" font-size="10.00"> VRGrabbableMesh &gt;</text>
<polyline fill="none" stroke="black" points="0,-1412.5 185,-1412.5 "/>
<text text-anchor="start" x="8" y="-1400.5" font-family="Courier New" font-size="10.00">+ dryRun</text>
<text text-anchor="start" x="8" y="-1389.5" font-family="Courier New" font-size="10.00">+ startOnAwake</text>
<text text-anchor="start" x="8" y="-1378.5" font-family="Courier New" font-size="10.00">+ viz</text>
<text text-anchor="start" x="8" y="-1367.5" font-family="Courier New" font-size="10.00"># mutex</text>
<text text-anchor="start" x="8" y="-1356.5" font-family="Courier New" font-size="10.00">&#45; solveThread</text>
<polyline fill="none" stroke="black" points="0,-1349.5 185,-1349.5 "/>
<text text-anchor="start" x="8" y="-1337.5" font-family="Courier New" font-size="10.00">+ GetValues()</text>
<text text-anchor="start" x="8" y="-1326.5" font-family="Courier New" font-size="10.00">+ StartSimulation()</text>
<text text-anchor="start" x="8" y="-1315.5" font-family="Courier New" font-size="10.00">+ StopSimulation()</text>
<text text-anchor="start" x="8" y="-1304.5" font-family="Courier New" font-size="10.00">+ Awake()</text>
<text text-anchor="start" x="8" y="-1293.5" font-family="Courier New" font-size="10.00">+ Start()</text>
<text text-anchor="start" x="8" y="-1282.5" font-family="Courier New" font-size="10.00">+ Update()</text>
<text text-anchor="start" x="8" y="-1271.5" font-family="Courier New" font-size="10.00"># BuildVisualization()</text>
<text text-anchor="start" x="8" y="-1260.5" font-family="Courier New" font-size="10.00"># ReadData()</text>
<text text-anchor="start" x="8" y="-1249.5" font-family="Courier New" font-size="10.00"># UpdateVisualization()</text>
<text text-anchor="start" x="8" y="-1238.5" font-family="Courier New" font-size="10.00"># Solve()</text>
<text text-anchor="start" x="8" y="-1227.5" font-family="Courier New" font-size="10.00"># OnAwake()</text>
<text text-anchor="start" x="8" y="-1216.5" font-family="Courier New" font-size="10.00"># OnStart()</text>
<text text-anchor="start" x="8" y="-1205.5" font-family="Courier New" font-size="10.00"># OnUpdate()</text>
<text text-anchor="start" x="8" y="-1194.5" font-family="Courier New" font-size="10.00">&#45; OnApplicationPause()</text>
<text text-anchor="start" x="8" y="-1183.5" font-family="Courier New" font-size="10.00">&#45; OnApplicationQuit()</text>
</a>
</g>
</g>
<!-- Node4&#45;&gt;Node3 -->
<g id="edge3" class="edge"><title>Node4&#45;&gt;Node3</title>
<path fill="none" stroke="midnightblue" d="M160.477,-1167.15C179.502,-1126.05 199.337,-1083.21 215.35,-1048.61"/>
<polygon fill="none" stroke="midnightblue" points="157.201,-1165.9 156.176,-1176.44 163.553,-1168.84 157.201,-1165.9"/>
</g>
<!-- Node5 -->
<g id="node5" class="node"><title>Node5</title>
<g id="a_node5"><a xlink:href="../../da/d4f/class_c2_m2_1_1_visualization_1_1_l_u_t_gradient.html" target="_top" xlink:title="Create a fast and memory&#45;friendly color lookup table from a gradient">
<polygon fill="white" stroke="black" points="203,-1231.5 203,-1398.5 400,-1398.5 400,-1231.5 203,-1231.5"/>
<text text-anchor="middle" x="301.5" y="-1386.5" font-family="Courier New" font-size="10.00">C2M2.Visualization.LUTGradient</text>
<polyline fill="none" stroke="black" points="203,-1379.5 400,-1379.5 "/>
<text text-anchor="start" x="211" y="-1367.5" font-family="Courier New" font-size="10.00">+ extremaMethod</text>
<text text-anchor="start" x="211" y="-1356.5" font-family="Courier New" font-size="10.00">+ globalMax</text>
<text text-anchor="start" x="211" y="-1345.5" font-family="Courier New" font-size="10.00">+ globalMin</text>
<text text-anchor="start" x="211" y="-1334.5" font-family="Courier New" font-size="10.00">+ LutRes</text>
<text text-anchor="start" x="211" y="-1323.5" font-family="Courier New" font-size="10.00">+ Gradient</text>
<text text-anchor="start" x="211" y="-1312.5" font-family="Courier New" font-size="10.00">+ gradientLUT</text>
<text text-anchor="start" x="211" y="-1301.5" font-family="Courier New" font-size="10.00">&#45; lutRes</text>
<text text-anchor="start" x="211" y="-1290.5" font-family="Courier New" font-size="10.00">&#45; gradient</text>
<polyline fill="none" stroke="black" points="203,-1283.5 400,-1283.5 "/>
<text text-anchor="start" x="211" y="-1271.5" font-family="Courier New" font-size="10.00">+ Evaluate()</text>
<text text-anchor="start" x="211" y="-1260.5" font-family="Courier New" font-size="10.00">+ Evaluate()</text>
<text text-anchor="start" x="211" y="-1249.5" font-family="Courier New" font-size="10.00">&#45; BuildLUT()</text>
<text text-anchor="start" x="211" y="-1238.5" font-family="Courier New" font-size="10.00">&#45; RescaleArray()</text>
</a>
</g>
</g>
<!-- Node5&#45;&gt;Node3 -->
<g id="edge4" class="edge"><title>Node5&#45;&gt;Node3</title>
<path fill="none" stroke="#404040" d="M265.193,-1231.29C256.672,-1208.04 248.821,-1182.42 244.5,-1158 237.452,-1118.17 243.602,-1107.43 244.5,-1067 244.545,-1064.96 244.597,-1062.89 244.653,-1060.8"/>
<polygon fill="none" stroke="#404040" points="244.656,-1060.71 240.842,-1054.59 245.025,-1048.71 248.839,-1054.83 244.656,-1060.71"/>
<text text-anchor="middle" x="290" y="-1110" font-family="Courier New" font-size="10.00"> +extremaMethod</text>
</g>
<!-- Node6 -->
<g id="node6" class="node"><title>Node6</title>
<g id="a_node6"><a xlink:title=" ">
<polygon fill="white" stroke="#bfbfbf" points="343,-1491.5 343,-1548.5 438,-1548.5 438,-1491.5 343,-1491.5"/>
<text text-anchor="middle" x="390.5" y="-1536.5" font-family="Courier New" font-size="10.00">MonoBehaviour</text>
<polyline fill="none" stroke="#bfbfbf" points="343,-1529.5 438,-1529.5 "/>
<text text-anchor="middle" x="390.5" y="-1517.5" font-family="Courier New" font-size="10.00"> </text>
<polyline fill="none" stroke="#bfbfbf" points="343,-1510.5 438,-1510.5 "/>
<text text-anchor="middle" x="390.5" y="-1498.5" font-family="Courier New" font-size="10.00"> </text>
</a>
</g>
</g>
<!-- Node6&#45;&gt;Node5 -->
<g id="edge5" class="edge"><title>Node6&#45;&gt;Node5</title>
<path fill="none" stroke="midnightblue" d="M374.29,-1482.03C364.064,-1458.7 350.434,-1427.61 337.734,-1398.65"/>
<polygon fill="none" stroke="midnightblue" points="371.091,-1483.45 378.312,-1491.2 377.502,-1480.64 371.091,-1483.45"/>
</g>
<!-- Node9 -->
<g id="node9" class="node"><title>Node9</title>
<g id="a_node9"><a xlink:href="../../dc/d72/class_c2_m2_1_1_utils_1_1_mesh_utils_1_1_mesh_col_controller.html" target="_top" xlink:title="Set this.mesh to quickly look up and update a MeshCollider&#39;s mesh">
<polygon fill="white" stroke="black" points="345,-1067.5 345,-1157.5 512,-1157.5 512,-1067.5 345,-1067.5"/>
<text text-anchor="start" x="353" y="-1145.5" font-family="Courier New" font-size="10.00">C2M2.Utils.MeshUtils.Mesh</text>
<text text-anchor="middle" x="428.5" y="-1134.5" font-family="Courier New" font-size="10.00">ColController</text>
<polyline fill="none" stroke="black" points="345,-1127.5 512,-1127.5 "/>
<text text-anchor="start" x="353" y="-1115.5" font-family="Courier New" font-size="10.00">+ meshCol</text>
<text text-anchor="start" x="353" y="-1104.5" font-family="Courier New" font-size="10.00">+ Mesh</text>
<text text-anchor="start" x="353" y="-1093.5" font-family="Courier New" font-size="10.00">&#45; mesh</text>
<polyline fill="none" stroke="black" points="345,-1086.5 512,-1086.5 "/>
<text text-anchor="middle" x="428.5" y="-1074.5" font-family="Courier New" font-size="10.00"> </text>
</a>
</g>
</g>
<!-- Node6&#45;&gt;Node9 -->
<g id="edge9" class="edge"><title>Node6&#45;&gt;Node9</title>
<path fill="none" stroke="midnightblue" d="M402.294,-1481.65C404.723,-1472.68 406.996,-1463.06 408.5,-1454 425.97,-1348.7 428.754,-1222.88 428.872,-1157.64"/>
<polygon fill="none" stroke="midnightblue" points="398.876,-1480.88 399.517,-1491.45 405.611,-1482.79 398.876,-1480.88"/>
</g>
<!-- Node7 -->
<g id="node7" class="node"><title>Node7</title>
<g id="a_node7"><a xlink:title=" ">
<polygon fill="white" stroke="#bfbfbf" points="529,-947.5 529,-1004.5 570,-1004.5 570,-947.5 529,-947.5"/>
<text text-anchor="middle" x="549.5" y="-992.5" font-family="Courier New" font-size="10.00">C2M2</text>
<polyline fill="none" stroke="#bfbfbf" points="529,-985.5 570,-985.5 "/>
<text text-anchor="middle" x="549.5" y="-973.5" font-family="Courier New" font-size="10.00"> </text>
<polyline fill="none" stroke="#bfbfbf" points="529,-966.5 570,-966.5 "/>
<text text-anchor="middle" x="549.5" y="-954.5" font-family="Courier New" font-size="10.00"> </text>
</a>
</g>
</g>
<!-- Node7&#45;&gt;Node2 -->
<g id="edge6" class="edge"><title>Node7&#45;&gt;Node2</title>
<path fill="none" stroke="#404040" d="M549.5,-947.26C549.5,-922.969 549.5,-885.425 549.5,-845.68"/>
<polygon fill="none" stroke="#404040" points="549.5,-845.572 545.5,-839.572 549.5,-833.572 553.5,-839.572 549.5,-845.572"/>
<text text-anchor="middle" x="574" y="-866" font-family="Courier New" font-size="10.00"> #grid1D</text>
</g>
<!-- Node8 -->
<g id="node8" class="node"><title>Node8</title>
<g id="a_node8"><a xlink:href="../../dd/d2a/struct_c2_m2_1_1_neuronal_dynamics_1_1_u_g_x_1_1_mapping_info.html" target="_top" xlink:title="Encapsulates the grids and mapping data">
<polygon fill="white" stroke="black" points="588,-931 588,-1021 761,-1021 761,-931 588,-931"/>
<text text-anchor="start" x="596" y="-1009" font-family="Courier New" font-size="10.00">C2M2.NeuronalDynamics.UGX.</text>
<text text-anchor="middle" x="674.5" y="-998" font-family="Courier New" font-size="10.00">MappingInfo</text>
<polyline fill="none" stroke="black" points="588,-991 761,-991 "/>
<text text-anchor="start" x="596" y="-979" font-family="Courier New" font-size="10.00">+ ModelGeometry</text>
<text text-anchor="start" x="596" y="-968" font-family="Courier New" font-size="10.00">+ SurfaceGeometry</text>
<text text-anchor="start" x="596" y="-957" font-family="Courier New" font-size="10.00">+ Data</text>
<polyline fill="none" stroke="black" points="588,-950 761,-950 "/>
<text text-anchor="start" x="596" y="-938" font-family="Courier New" font-size="10.00">+ MappingInfo()</text>
</a>
</g>
</g>
<!-- Node8&#45;&gt;Node2 -->
<g id="edge7" class="edge"><title>Node8&#45;&gt;Node2</title>
<path fill="none" stroke="#404040" d="M656.457,-930.76C646.902,-907.329 634.471,-876.85 621.481,-844.998"/>
<polygon fill="none" stroke="#404040" points="621.399,-844.796 615.429,-840.751 616.867,-833.684 622.837,-837.73 621.399,-844.796"/>
<text text-anchor="middle" x="666" y="-866" font-family="Courier New" font-size="10.00"> &#45;mapping</text>
</g>
<!-- Node9&#45;&gt;Node2 -->
<g id="edge8" class="edge"><title>Node9&#45;&gt;Node2</title>
<path fill="none" stroke="#404040" d="M409.279,-1067.35C407.31,-1061.29 405.623,-1055.06 404.5,-1049 392.671,-985.198 386.761,-965.417 404.5,-903 417.563,-857.036 442.488,-811.26 468.036,-772.516"/>
<polygon fill="none" stroke="#404040" points="468.204,-772.265 468.227,-765.054 474.892,-762.302 474.869,-769.513 468.204,-772.265"/>
<text text-anchor="middle" x="462" y="-973.5" font-family="Courier New" font-size="10.00"> &#45;meshColController</text>
</g>
<!-- Node10 -->
<g id="node10" class="node"><title>Node10</title>
<g id="a_node10"><a xlink:href="../../da/df6/class_c2_m2_1_1_neuronal_dynamics_1_1_u_g_x_1_1_neuron_cell.html" target="_top" xlink:title=" ">
<polygon fill="white" stroke="black" points="680,-567.5 680,-767.5 853,-767.5 853,-567.5 680,-567.5"/>
<text text-anchor="start" x="688" y="-755.5" font-family="Courier New" font-size="10.00">C2M2.NeuronalDynamics.UGX.</text>
<text text-anchor="middle" x="766.5" y="-744.5" font-family="Courier New" font-size="10.00">NeuronCell</text>
<polyline fill="none" stroke="black" points="680,-737.5 853,-737.5 "/>
<text text-anchor="start" x="688" y="-725.5" font-family="Courier New" font-size="10.00">+ nodeData</text>
<text text-anchor="start" x="688" y="-714.5" font-family="Courier New" font-size="10.00">+ edges</text>
<text text-anchor="start" x="688" y="-703.5" font-family="Courier New" font-size="10.00">+ edgeLengths</text>
<text text-anchor="start" x="688" y="-692.5" font-family="Courier New" font-size="10.00">+ boundaryID</text>
<text text-anchor="start" x="688" y="-681.5" font-family="Courier New" font-size="10.00">+ somaID</text>
<text text-anchor="start" x="688" y="-670.5" font-family="Courier New" font-size="10.00">+ vertCount</text>
<text text-anchor="start" x="688" y="-659.5" font-family="Courier New" font-size="10.00">+ edgeCount</text>
<polyline fill="none" stroke="black" points="680,-652.5 853,-652.5 "/>
<text text-anchor="start" x="688" y="-640.5" font-family="Courier New" font-size="10.00">+ NeuronCell()</text>
<text text-anchor="start" x="688" y="-629.5" font-family="Courier New" font-size="10.00">+ ReadDataTable()</text>
<text text-anchor="start" x="688" y="-618.5" font-family="Courier New" font-size="10.00">+ NodeToString()</text>
<text text-anchor="start" x="688" y="-607.5" font-family="Courier New" font-size="10.00">+ EdgeToString()</text>
<text text-anchor="start" x="688" y="-596.5" font-family="Courier New" font-size="10.00">+ ToString()</text>
<text text-anchor="start" x="688" y="-585.5" font-family="Courier New" font-size="10.00">&#45; NodeNeighborsToString()</text>
<text text-anchor="start" x="688" y="-574.5" font-family="Courier New" font-size="10.00">&#45; GetEdgeLength()</text>
</a>
</g>
</g>
<!-- Node10&#45;&gt;Node1 -->
<g id="edge10" class="edge"><title>Node10&#45;&gt;Node1</title>
<path fill="none" stroke="#404040" d="M747.039,-567.272C741.051,-536.742 734.184,-501.725 727.185,-466.039"/>
<polygon fill="none" stroke="#404040" points="727.117,-465.692 722.037,-460.574 724.808,-453.917 729.888,-459.035 727.117,-465.692"/>
<text text-anchor="middle" x="754" y="-475" font-family="Courier New" font-size="10.00"> &#45;myCell</text>
</g>
<!-- Node11 -->
<g id="node11" class="node"><title>Node11</title>
<g id="a_node11"><a xlink:title=" ">
<polygon fill="white" stroke="#bfbfbf" points="779,-947.5 779,-1004.5 832,-1004.5 832,-947.5 779,-947.5"/>
<text text-anchor="middle" x="805.5" y="-992.5" font-family="Courier New" font-size="10.00">static</text>
<polyline fill="none" stroke="#bfbfbf" points="779,-985.5 832,-985.5 "/>
<text text-anchor="middle" x="805.5" y="-973.5" font-family="Courier New" font-size="10.00"> </text>
<polyline fill="none" stroke="#bfbfbf" points="779,-966.5 832,-966.5 "/>
<text text-anchor="middle" x="805.5" y="-954.5" font-family="Courier New" font-size="10.00"> </text>
</a>
</g>
</g>
<!-- Node11&#45;&gt;Node10 -->
<g id="edge11" class="edge"><title>Node11&#45;&gt;Node10</title>
<path fill="none" stroke="#404040" d="M801.97,-947.26C797.171,-909.545 788.307,-839.88 780.641,-779.631"/>
<polygon fill="none" stroke="#404040" points="780.64,-779.623 775.914,-774.176 779.125,-767.719 783.85,-773.166 780.64,-779.623"/>
<text text-anchor="middle" x="849" y="-877" font-family="Courier New" font-size="10.00"> &#45;nodeFormatString</text>
<text text-anchor="middle" x="849" y="-866" font-family="Courier New" font-size="10.00">&#45;edgeFormatString</text>
<text text-anchor="middle" x="849" y="-855" font-family="Courier New" font-size="10.00">&#45;cellFormatString</text>
</g>
</g>
</svg>
