<?xml version="1.0" encoding="UTF-8" standalone="no"?>
<!DOCTYPE svg PUBLIC "-//W3C//DTD SVG 1.1//EN"
 "http://www.w3.org/Graphics/SVG/1.1/DTD/svg11.dtd">
<!-- Generated by graphviz version 2.38.0 (20140413.2041)
 -->
<!-- Title: C2M2.Simulation.SimulationNotFoundException Pages: 1 -->
<svg width="211pt" height="193pt"
 viewBox="0.00 0.00 211.00 193.00" xmlns="http://www.w3.org/2000/svg" xmlns:xlink="http://www.w3.org/1999/xlink">
<g id="graph0" class="graph" transform="scale(1 1) rotate(0) translate(4 189)">
<title>C2M2.Simulation.SimulationNotFoundException</title>
<polygon fill="white" stroke="none" points="-4,4 -4,-189 207,-189 207,4 -4,4"/>
<!-- Node1 -->
<g id="node1" class="node"><title>Node1</title>
<g id="a_node1"><a xlink:title=" ">
<polygon fill="#bfbfbf" stroke="black" points="0,-0.5 0,-90.5 203,-90.5 203,-0.5 0,-0.5"/>
<text text-anchor="start" x="8" y="-78.5" font-family="Courier New" font-size="10.00">C2M2.Simulation.Simulation</text>
<text text-anchor="middle" x="101.5" y="-67.5" font-family="Courier New" font-size="10.00">NotFoundException</text>
<polyline fill="none" stroke="black" points="0,-60.5 203,-60.5 "/>
<text text-anchor="middle" x="101.5" y="-48.5" font-family="Courier New" font-size="10.00"> </text>
<polyline fill="none" stroke="black" points="0,-41.5 203,-41.5 "/>
<text text-anchor="start" x="8" y="-29.5" font-family="Courier New" font-size="10.00">+ SimulationNotFoundException()</text>
<text text-anchor="start" x="8" y="-18.5" font-family="Courier New" font-size="10.00">+ SimulationNotFoundException()</text>
<text text-anchor="start" x="8" y="-7.5" font-family="Courier New" font-size="10.00">+ SimulationNotFoundException()</text>
</a>
</g>
</g>
<!-- Node2 -->
<g id="node2" class="node"><title>Node2</title>
<g id="a_node2"><a xlink:title=" ">
<polygon fill="white" stroke="#bfbfbf" points="66,-127.5 66,-184.5 137,-184.5 137,-127.5 66,-127.5"/>
<text text-anchor="middle" x="101.5" y="-172.5" font-family="Courier New" font-size="10.00">Exception</text>
<polyline fill="none" stroke="#bfbfbf" points="66,-165.5 137,-165.5 "/>
<text text-anchor="middle" x="101.5" y="-153.5" font-family="Courier New" font-size="10.00"> </text>
<polyline fill="none" stroke="#bfbfbf" points="66,-146.5 137,-146.5 "/>
<text text-anchor="middle" x="101.5" y="-134.5" font-family="Courier New" font-size="10.00"> </text>
</a>
</g>
</g>
<!-- Node2&#45;&gt;Node1 -->
<g id="edge1" class="edge"><title>Node2&#45;&gt;Node1</title>
<path fill="none" stroke="midnightblue" d="M101.5,-117.214C101.5,-108.609 101.5,-99.3943 101.5,-90.5541"/>
<polygon fill="none" stroke="midnightblue" points="98.0001,-117.34 101.5,-127.34 105,-117.34 98.0001,-117.34"/>
</g>
</g>
</svg>
