<?xml version="1.0" encoding="UTF-8" standalone="no"?>
<!DOCTYPE svg PUBLIC "-//W3C//DTD SVG 1.1//EN"
 "http://www.w3.org/Graphics/SVG/1.1/DTD/svg11.dtd">
<!-- Generated by graphviz version 2.46.0 (20210118.1747)
 -->
<!-- Title: C2M2.Simulation.ObjectManager Pages: 1 -->
<svg width="199pt" height="193pt"
 viewBox="0.00 0.00 199.00 193.00" xmlns="http://www.w3.org/2000/svg" xmlns:xlink="http://www.w3.org/1999/xlink">
<g id="graph0" class="graph" transform="scale(1 1) rotate(0) translate(4 189)">
<title>C2M2.Simulation.ObjectManager</title>
<polygon fill="white" stroke="transparent" points="-4,4 -4,-189 195,-189 195,4 -4,4"/>
<!-- Node1 -->
<g id="node1" class="node">
<title>Node1</title>
<g id="a_node1"><a xlink:title=" ">
<polygon fill="#bfbfbf" stroke="black" points="0,-0.5 0,-90.5 191,-90.5 191,-0.5 0,-0.5"/>
<text text-anchor="middle" x="95.5" y="-78.5" font-family="Courier New" font-size="10.00">C2M2.Simulation.ObjectManager</text>
<polyline fill="none" stroke="black" points="0,-71.5 191,-71.5 "/>
<text text-anchor="start" x="8" y="-59.5" font-family="Courier New" font-size="10.00">+ gradient</text>
<text text-anchor="start" x="8" y="-48.5" font-family="Courier New" font-size="10.00">+ vtuManager</text>
<text text-anchor="start" x="8" y="-37.5" font-family="Courier New" font-size="10.00">+ meshInfo</text>
<text text-anchor="start" x="8" y="-26.5" font-family="Courier New" font-size="10.00">+ diffusionManager</text>
<polyline fill="none" stroke="black" points="0,-19.5 191,-19.5 "/>
<text text-anchor="start" x="8" y="-7.5" font-family="Courier New" font-size="10.00">&#45; Awake()</text>
</a>
</g>
</g>
<!-- Node2 -->
<g id="node2" class="node">
<title>Node2</title>
<g id="a_node2"><a xlink:title=" ">
<polygon fill="white" stroke="#bfbfbf" points="48,-127.5 48,-184.5 143,-184.5 143,-127.5 48,-127.5"/>
<text text-anchor="middle" x="95.5" y="-172.5" font-family="Courier New" font-size="10.00">MonoBehaviour</text>
<polyline fill="none" stroke="#bfbfbf" points="48,-165.5 143,-165.5 "/>
<text text-anchor="middle" x="95.5" y="-153.5" font-family="Courier New" font-size="10.00"> </text>
<polyline fill="none" stroke="#bfbfbf" points="48,-146.5 143,-146.5 "/>
<text text-anchor="middle" x="95.5" y="-134.5" font-family="Courier New" font-size="10.00"> </text>
</a>
</g>
</g>
<!-- Node2&#45;&gt;Node1 -->
<g id="edge1" class="edge">
<title>Node2&#45;&gt;Node1</title>
<path fill="none" stroke="midnightblue" d="M95.5,-117.21C95.5,-108.61 95.5,-99.39 95.5,-90.55"/>
<polygon fill="none" stroke="midnightblue" points="92,-117.34 95.5,-127.34 99,-117.34 92,-117.34"/>
</g>
</g>
</svg>
