<?xml version="1.0" encoding="UTF-8" standalone="no"?>
<!DOCTYPE svg PUBLIC "-//W3C//DTD SVG 1.1//EN"
 "http://www.w3.org/Graphics/SVG/1.1/DTD/svg11.dtd">
<!-- Generated by graphviz version 2.38.0 (20140413.2041)
 -->
<!-- Title: C2M2.NeuronalDynamics.Simulation.NDSimulationEditor Pages: 1 -->
<svg width="1383pt" height="1592pt"
 viewBox="0.00 0.00 1382.50 1592.00" xmlns="http://www.w3.org/2000/svg" xmlns:xlink="http://www.w3.org/1999/xlink">
<g id="graph0" class="graph" transform="scale(1 1) rotate(0) translate(4 1588)">
<title>C2M2.NeuronalDynamics.Simulation.NDSimulationEditor</title>
<polygon fill="white" stroke="none" points="-4,4 -4,-1588 1378.5,-1588 1378.5,4 -4,4"/>
<!-- Node1 -->
<g id="node1" class="node"><title>Node1</title>
<g id="a_node1"><a xlink:title=" ">
<polygon fill="#bfbfbf" stroke="black" points="531,-0.5 531,-79.5 746,-79.5 746,-0.5 531,-0.5"/>
<text text-anchor="start" x="539" y="-67.5" font-family="Courier New" font-size="10.00">C2M2.NeuronalDynamics.Simulation.</text>
<text text-anchor="middle" x="638.5" y="-56.5" font-family="Courier New" font-size="10.00">NDSimulationEditor</text>
<polyline fill="none" stroke="black" points="531,-49.5 746,-49.5 "/>
<text text-anchor="middle" x="638.5" y="-37.5" font-family="Courier New" font-size="10.00"> </text>
<polyline fill="none" stroke="black" points="531,-30.5 746,-30.5 "/>
<text text-anchor="start" x="539" y="-18.5" font-family="Courier New" font-size="10.00">+ Awake()</text>
<text text-anchor="start" x="539" y="-7.5" font-family="Courier New" font-size="10.00">+ OnInspectorGUI()</text>
</a>
</g>
</g>
<!-- Node2 -->
<g id="node2" class="node"><title>Node2</title>
<g id="a_node2"><a xlink:title=" ">
<polygon fill="white" stroke="#bfbfbf" points="454,-342 454,-399 507,-399 507,-342 454,-342"/>
<text text-anchor="middle" x="480.5" y="-387" font-family="Courier New" font-size="10.00">Editor</text>
<polyline fill="none" stroke="#bfbfbf" points="454,-380 507,-380 "/>
<text text-anchor="middle" x="480.5" y="-368" font-family="Courier New" font-size="10.00"> </text>
<polyline fill="none" stroke="#bfbfbf" points="454,-361 507,-361 "/>
<text text-anchor="middle" x="480.5" y="-349" font-family="Courier New" font-size="10.00"> </text>
</a>
</g>
</g>
<!-- Node2&#45;&gt;Node1 -->
<g id="edge1" class="edge"><title>Node2&#45;&gt;Node1</title>
<path fill="none" stroke="midnightblue" d="M477.094,-331.514C474.432,-280.962 476.351,-190.571 515.5,-127 527.114,-108.141 544.575,-92.3251 562.721,-79.6098"/>
<polygon fill="none" stroke="midnightblue" points="473.612,-331.907 477.72,-341.673 480.599,-331.477 473.612,-331.907"/>
</g>
<!-- Node3 -->
<g id="node3" class="node"><title>Node3</title>
<g id="a_node3"><a xlink:href="../../d7/d92/class_c2_m2_1_1_neuronal_dynamics_1_1_simulation_1_1_n_d_simulation.html" target="_top" xlink:title="Provide an interface for 1D neuron&#45;surface simulations to be visualized and interacted with">
<polygon fill="white" stroke="black" points="525,-127.5 525,-613.5 752,-613.5 752,-127.5 525,-127.5"/>
<text text-anchor="start" x="533" y="-601.5" font-family="Courier New" font-size="10.00">C2M2.NeuronalDynamics.Simulation.</text>
<text text-anchor="middle" x="638.5" y="-590.5" font-family="Courier New" font-size="10.00">NDSimulation</text>
<polyline fill="none" stroke="black" points="525,-583.5 752,-583.5 "/>
<text text-anchor="start" x="533" y="-571.5" font-family="Courier New" font-size="10.00">+ visualize1D</text>
<text text-anchor="start" x="533" y="-560.5" font-family="Courier New" font-size="10.00">+ color1D</text>
<text text-anchor="start" x="533" y="-549.5" font-family="Courier New" font-size="10.00">+ lineWidth1D</text>
<text text-anchor="start" x="533" y="-538.5" font-family="Courier New" font-size="10.00">+ vrnFileName</text>
<text text-anchor="start" x="533" y="-527.5" font-family="Courier New" font-size="10.00">+ hitValue</text>
<text text-anchor="start" x="533" y="-516.5" font-family="Courier New" font-size="10.00">+ clamps</text>
<text text-anchor="start" x="533" y="-505.5" font-family="Courier New" font-size="10.00">+ VisualInflation</text>
<text text-anchor="start" x="533" y="-494.5" font-family="Courier New" font-size="10.00">+ ColliderInflation</text>
<text text-anchor="start" x="533" y="-483.5" font-family="Courier New" font-size="10.00">+ RefinementLevel</text>
<text text-anchor="start" x="533" y="-472.5" font-family="Courier New" font-size="10.00">+ ClampMode</text>
<text text-anchor="start" x="533" y="-461.5" font-family="Courier New" font-size="10.00">+ VrnReader</text>
<text text-anchor="start" x="533" y="-450.5" font-family="Courier New" font-size="10.00">+ Grid1D</text>
<text text-anchor="start" x="533" y="-439.5" font-family="Courier New" font-size="10.00">+ Verts1D</text>
<text text-anchor="start" x="533" y="-428.5" font-family="Courier New" font-size="10.00">+ Grid2D</text>
<text text-anchor="start" x="533" y="-417.5" font-family="Courier New" font-size="10.00">+ NeuronCell</text>
<text text-anchor="start" x="533" y="-406.5" font-family="Courier New" font-size="10.00">+ AverageDendriteRadius</text>
<text text-anchor="start" x="533" y="-395.5" font-family="Courier New" font-size="10.00">+ Map</text>
<text text-anchor="start" x="533" y="-384.5" font-family="Courier New" font-size="10.00">+ Mapping</text>
<text text-anchor="start" x="533" y="-373.5" font-family="Courier New" font-size="10.00">+ Scalars3D</text>
<text text-anchor="start" x="533" y="-362.5" font-family="Courier New" font-size="10.00">&#45; visualInflation</text>
<text text-anchor="start" x="533" y="-351.5" font-family="Courier New" font-size="10.00">&#45; colliderInflation</text>
<text text-anchor="start" x="533" y="-340.5" font-family="Courier New" font-size="10.00">&#45; refinementLevel</text>
<text text-anchor="start" x="533" y="-329.5" font-family="Courier New" font-size="10.00">&#45; meshCache</text>
<text text-anchor="start" x="533" y="-318.5" font-family="Courier New" font-size="10.00">&#45; clampMode</text>
<text text-anchor="start" x="533" y="-307.5" font-family="Courier New" font-size="10.00">&#45; averageDendriteRadius</text>
<text text-anchor="start" x="533" y="-296.5" font-family="Courier New" font-size="10.00">&#45; scalars3D</text>
<polyline fill="none" stroke="black" points="525,-289.5 752,-289.5 "/>
<text text-anchor="start" x="533" y="-277.5" font-family="Courier New" font-size="10.00">+ OnVisualInflationChangeDelegate()</text>
<text text-anchor="start" x="533" y="-266.5" font-family="Courier New" font-size="10.00">+ GetValues()</text>
<text text-anchor="start" x="533" y="-255.5" font-family="Courier New" font-size="10.00">+ SetValues()</text>
<text text-anchor="start" x="533" y="-244.5" font-family="Courier New" font-size="10.00">+ SetValues()</text>
<text text-anchor="start" x="533" y="-233.5" font-family="Courier New" font-size="10.00">+ Set1DValues()</text>
<text text-anchor="start" x="533" y="-222.5" font-family="Courier New" font-size="10.00">+ Get1DValues()</text>
<text text-anchor="start" x="533" y="-211.5" font-family="Courier New" font-size="10.00">+ SwitchColliderMesh()</text>
<text text-anchor="start" x="533" y="-200.5" font-family="Courier New" font-size="10.00">+ SwitchMesh()</text>
<text text-anchor="start" x="533" y="-189.5" font-family="Courier New" font-size="10.00"># OnAwakePre()</text>
<text text-anchor="start" x="533" y="-178.5" font-family="Courier New" font-size="10.00"># OnStart()</text>
<text text-anchor="start" x="533" y="-167.5" font-family="Courier New" font-size="10.00"># BuildVisualization()</text>
<text text-anchor="start" x="533" y="-156.5" font-family="Courier New" font-size="10.00">&#45; CheckMeshCache()</text>
<text text-anchor="start" x="533" y="-145.5" font-family="Courier New" font-size="10.00">&#45; UpdateGrid1D()</text>
<text text-anchor="start" x="533" y="-134.5" font-family="Courier New" font-size="10.00">&#45; Update2DGrid()</text>
</a>
</g>
</g>
<!-- Node3&#45;&gt;Node1 -->
<g id="edge2" class="edge"><title>Node3&#45;&gt;Node1</title>
<path fill="none" stroke="#404040" d="M638.5,-127.31C638.5,-114.453 638.5,-102.426 638.5,-91.6724"/>
<polygon fill="none" stroke="#404040" points="638.5,-91.6592 634.5,-85.6593 638.5,-79.6592 642.5,-85.6592 638.5,-91.6592"/>
<text text-anchor="middle" x="654" y="-101" font-family="Courier New" font-size="10.00"> &#45;sim</text>
</g>
<!-- Node4 -->
<g id="node4" class="node"><title>Node4</title>
<g id="a_node4"><a xlink:href="../../d6/d2d/class_c2_m2_1_1_simulation_1_1_mesh_simulation.html" target="_top" xlink:title="Simulation of type double[] for visualizing scalar fields on mesh surfaces">
<polygon fill="white" stroke="black" points="21,-700 21,-878 176,-878 176,-700 21,-700"/>
<text text-anchor="middle" x="98.5" y="-866" font-family="Courier New" font-size="10.00">MeshSimulation</text>
<polyline fill="none" stroke="black" points="21,-859 176,-859 "/>
<text text-anchor="start" x="29" y="-847" font-family="Courier New" font-size="10.00">+ gradient</text>
<text text-anchor="start" x="29" y="-836" font-family="Courier New" font-size="10.00">+ globalMax</text>
<text text-anchor="start" x="29" y="-825" font-family="Courier New" font-size="10.00">+ globalMin</text>
<text text-anchor="start" x="29" y="-814" font-family="Courier New" font-size="10.00">+ colorLUT</text>
<text text-anchor="start" x="29" y="-803" font-family="Courier New" font-size="10.00">+ VisualMesh</text>
<text text-anchor="start" x="29" y="-792" font-family="Courier New" font-size="10.00">+ ColliderMesh</text>
<text text-anchor="start" x="29" y="-781" font-family="Courier New" font-size="10.00">&#45; visualMesh</text>
<text text-anchor="start" x="29" y="-770" font-family="Courier New" font-size="10.00">&#45; colliderMesh</text>
<text text-anchor="start" x="29" y="-759" font-family="Courier New" font-size="10.00">&#45; mf</text>
<text text-anchor="start" x="29" y="-748" font-family="Courier New" font-size="10.00">&#45; mr</text>
<polyline fill="none" stroke="black" points="21,-741 176,-741 "/>
<text text-anchor="start" x="29" y="-729" font-family="Courier New" font-size="10.00"># UpdateVisualization()</text>
<text text-anchor="start" x="29" y="-718" font-family="Courier New" font-size="10.00"># OnAwakePost()</text>
<text text-anchor="start" x="29" y="-707" font-family="Courier New" font-size="10.00">&#45; UpdateVisualization()</text>
</a>
</g>
</g>
<!-- Node4&#45;&gt;Node3 -->
<g id="edge3" class="edge"><title>Node4&#45;&gt;Node3</title>
<path fill="none" stroke="midnightblue" d="M159.055,-692.413C166.86,-684.656 175.354,-677.647 184.5,-672 192.443,-667.096 507.999,-619.555 515.5,-614 518.725,-611.612 521.871,-609.115 524.94,-606.52"/>
<polygon fill="none" stroke="midnightblue" points="156.447,-690.076 152.082,-699.729 161.515,-694.905 156.447,-690.076"/>
</g>
<!-- Node5 -->
<g id="node5" class="node"><title>Node5</title>
<g id="a_node5"><a xlink:href="../../db/d39/class_c2_m2_1_1_simulation_1_1_simulation.html" target="_top" xlink:title=" ">
<polygon fill="white" stroke="black" points="215,-975.5 215,-1285.5 400,-1285.5 400,-975.5 215,-975.5"/>
<text text-anchor="start" x="223" y="-1273.5" font-family="Courier New" font-size="10.00">Simulation&lt; double</text>
<text text-anchor="start" x="223" y="-1262.5" font-family="Courier New" font-size="10.00">[], Mesh, VRRaycastableMesh,</text>
<text text-anchor="middle" x="307.5" y="-1251.5" font-family="Courier New" font-size="10.00"> VRGrabbableMesh &gt;</text>
<polyline fill="none" stroke="black" points="215,-1244.5 400,-1244.5 "/>
<text text-anchor="start" x="223" y="-1232.5" font-family="Courier New" font-size="10.00">+ dryRun</text>
<text text-anchor="start" x="223" y="-1221.5" font-family="Courier New" font-size="10.00">+ startOnAwake</text>
<text text-anchor="start" x="223" y="-1210.5" font-family="Courier New" font-size="10.00">+ viz</text>
<text text-anchor="start" x="223" y="-1199.5" font-family="Courier New" font-size="10.00"># mutex</text>
<text text-anchor="start" x="223" y="-1188.5" font-family="Courier New" font-size="10.00">&#45; solveThread</text>
<polyline fill="none" stroke="black" points="215,-1181.5 400,-1181.5 "/>
<text text-anchor="start" x="223" y="-1169.5" font-family="Courier New" font-size="10.00">+ GetValues()</text>
<text text-anchor="start" x="223" y="-1158.5" font-family="Courier New" font-size="10.00">+ Awake()</text>
<text text-anchor="start" x="223" y="-1147.5" font-family="Courier New" font-size="10.00">+ Start()</text>
<text text-anchor="start" x="223" y="-1136.5" font-family="Courier New" font-size="10.00">+ Update()</text>
<text text-anchor="start" x="223" y="-1125.5" font-family="Courier New" font-size="10.00">+ StartSimulation()</text>
<text text-anchor="start" x="223" y="-1114.5" font-family="Courier New" font-size="10.00">+ StopSimulation()</text>
<text text-anchor="start" x="223" y="-1103.5" font-family="Courier New" font-size="10.00"># BuildVisualization()</text>
<text text-anchor="start" x="223" y="-1092.5" font-family="Courier New" font-size="10.00"># UpdateVisualization()</text>
<text text-anchor="start" x="223" y="-1081.5" font-family="Courier New" font-size="10.00"># Solve()</text>
<text text-anchor="start" x="223" y="-1070.5" font-family="Courier New" font-size="10.00"># PreSolve()</text>
<text text-anchor="start" x="223" y="-1059.5" font-family="Courier New" font-size="10.00"># OnAwakePre()</text>
<text text-anchor="start" x="223" y="-1048.5" font-family="Courier New" font-size="10.00"># OnAwakePost()</text>
<text text-anchor="start" x="223" y="-1037.5" font-family="Courier New" font-size="10.00"># OnStart()</text>
<text text-anchor="start" x="223" y="-1026.5" font-family="Courier New" font-size="10.00"># OnUpdate()</text>
<text text-anchor="start" x="223" y="-1015.5" font-family="Courier New" font-size="10.00"># OnPause()</text>
<text text-anchor="start" x="223" y="-1004.5" font-family="Courier New" font-size="10.00"># OnQuit()</text>
<text text-anchor="start" x="223" y="-993.5" font-family="Courier New" font-size="10.00">&#45; OnApplicationPause()</text>
<text text-anchor="start" x="223" y="-982.5" font-family="Courier New" font-size="10.00">&#45; OnApplicationQuit()</text>
</a>
</g>
</g>
<!-- Node5&#45;&gt;Node4 -->
<g id="edge4" class="edge"><title>Node5&#45;&gt;Node4</title>
<path fill="none" stroke="midnightblue" d="M219.113,-966.255C210.658,-951.845 202.047,-937.584 193.5,-924 184.008,-908.914 173.489,-893.208 163.009,-878.082"/>
<polygon fill="none" stroke="midnightblue" points="216.293,-968.367 224.355,-975.241 222.34,-964.84 216.293,-968.367"/>
</g>
<!-- Node6 -->
<g id="node6" class="node"><title>Node6</title>
<g id="a_node6"><a xlink:href="../../da/d4f/class_c2_m2_1_1_visualization_1_1_l_u_t_gradient.html" target="_top" xlink:title="Create a fast and memory&#45;friendly color lookup table from a gradient">
<polygon fill="white" stroke="black" points="0,-1014 0,-1247 197,-1247 197,-1014 0,-1014"/>
<text text-anchor="middle" x="98.5" y="-1235" font-family="Courier New" font-size="10.00">C2M2.Visualization.LUTGradient</text>
<polyline fill="none" stroke="black" points="0,-1228 197,-1228 "/>
<text text-anchor="start" x="8" y="-1216" font-family="Courier New" font-size="10.00">+ extremaMethod</text>
<text text-anchor="start" x="8" y="-1205" font-family="Courier New" font-size="10.00">+ globalMax</text>
<text text-anchor="start" x="8" y="-1194" font-family="Courier New" font-size="10.00">+ globalMin</text>
<text text-anchor="start" x="8" y="-1183" font-family="Courier New" font-size="10.00">+ curMax</text>
<text text-anchor="start" x="8" y="-1172" font-family="Courier New" font-size="10.00">+ curMix</text>
<text text-anchor="start" x="8" y="-1161" font-family="Courier New" font-size="10.00">+ LutRes</text>
<text text-anchor="start" x="8" y="-1150" font-family="Courier New" font-size="10.00">+ Gradient</text>
<text text-anchor="start" x="8" y="-1139" font-family="Courier New" font-size="10.00">+ gradientLUT</text>
<text text-anchor="start" x="8" y="-1128" font-family="Courier New" font-size="10.00">+ oldMin</text>
<text text-anchor="start" x="8" y="-1117" font-family="Courier New" font-size="10.00">+ oldMax</text>
<text text-anchor="start" x="8" y="-1106" font-family="Courier New" font-size="10.00">&#45; lutRes</text>
<text text-anchor="start" x="8" y="-1095" font-family="Courier New" font-size="10.00">&#45; gradient</text>
<polyline fill="none" stroke="black" points="0,-1088 197,-1088 "/>
<text text-anchor="start" x="8" y="-1076" font-family="Courier New" font-size="10.00">+ Evaluate()</text>
<text text-anchor="start" x="8" y="-1065" font-family="Courier New" font-size="10.00">+ Evaluate()</text>
<text text-anchor="start" x="8" y="-1054" font-family="Courier New" font-size="10.00">+ EvaluateUnscaled()</text>
<text text-anchor="start" x="8" y="-1043" font-family="Courier New" font-size="10.00">+ GetMinMax()</text>
<text text-anchor="start" x="8" y="-1032" font-family="Courier New" font-size="10.00">&#45; BuildLUT()</text>
<text text-anchor="start" x="8" y="-1021" font-family="Courier New" font-size="10.00">&#45; RescaleArray()</text>
</a>
</g>
</g>
<!-- Node6&#45;&gt;Node4 -->
<g id="edge5" class="edge"><title>Node6&#45;&gt;Node4</title>
<path fill="none" stroke="#404040" d="M98.5,-1013.61C98.5,-973.487 98.5,-928.88 98.5,-890.129"/>
<polygon fill="none" stroke="#404040" points="98.5001,-890.035 94.5,-884.035 98.5,-878.035 102.5,-884.035 98.5001,-890.035"/>
<text text-anchor="middle" x="144" y="-938" font-family="Courier New" font-size="10.00"> +extremaMethod</text>
</g>
<!-- Node7 -->
<g id="node7" class="node"><title>Node7</title>
<g id="a_node7"><a xlink:title=" ">
<polygon fill="white" stroke="#bfbfbf" points="553,-1372 553,-1429 648,-1429 648,-1372 553,-1372"/>
<text text-anchor="middle" x="600.5" y="-1417" font-family="Courier New" font-size="10.00">MonoBehaviour</text>
<polyline fill="none" stroke="#bfbfbf" points="553,-1410 648,-1410 "/>
<text text-anchor="middle" x="600.5" y="-1398" font-family="Courier New" font-size="10.00"> </text>
<polyline fill="none" stroke="#bfbfbf" points="553,-1391 648,-1391 "/>
<text text-anchor="middle" x="600.5" y="-1379" font-family="Courier New" font-size="10.00"> </text>
</a>
</g>
</g>
<!-- Node7&#45;&gt;Node6 -->
<g id="edge6" class="edge"><title>Node7&#45;&gt;Node6</title>
<path fill="none" stroke="midnightblue" d="M542.749,-1395.06C460.787,-1386.24 309.179,-1360.4 205.5,-1286 190.523,-1275.25 176.945,-1261.72 164.878,-1247.16"/>
<polygon fill="none" stroke="midnightblue" points="542.568,-1398.56 552.874,-1396.1 543.284,-1391.6 542.568,-1398.56"/>
</g>
<!-- Node17 -->
<g id="node17" class="node"><title>Node17</title>
<g id="a_node17"><a xlink:href="../../d5/df9/class_c2_m2_1_1_interaction_1_1_raycast_event_manager.html" target="_top" xlink:title="Attach this script to parent gameObject, create one child with one raycast trigger per child....">
<polygon fill="white" stroke="black" points="677,-672.5 677,-905.5 838,-905.5 838,-672.5 677,-672.5"/>
<text text-anchor="start" x="685" y="-893.5" font-family="Courier New" font-size="10.00">C2M2.Interaction.Raycast</text>
<text text-anchor="middle" x="757.5" y="-882.5" font-family="Courier New" font-size="10.00">EventManager</text>
<polyline fill="none" stroke="black" points="677,-875.5 838,-875.5 "/>
<text text-anchor="middle" x="757.5" y="-863.5" font-family="Courier New" font-size="10.00"> </text>
<polyline fill="none" stroke="black" points="677,-856.5 838,-856.5 "/>
<text text-anchor="start" x="685" y="-844.5" font-family="Courier New" font-size="10.00">+ TriggerChangeRight()</text>
<text text-anchor="start" x="685" y="-833.5" font-family="Courier New" font-size="10.00">+ TriggerChangeLeft()</text>
<text text-anchor="start" x="685" y="-822.5" font-family="Courier New" font-size="10.00">+ TriggerChangeBoth()</text>
<text text-anchor="start" x="685" y="-811.5" font-family="Courier New" font-size="10.00">+ TriggerEmptyRight()</text>
<text text-anchor="start" x="685" y="-800.5" font-family="Courier New" font-size="10.00">+ TriggerEmptyLeft()</text>
<text text-anchor="start" x="685" y="-789.5" font-family="Courier New" font-size="10.00">+ TriggerEmptyBoth()</text>
<text text-anchor="start" x="685" y="-778.5" font-family="Courier New" font-size="10.00">+ PressEvent()</text>
<text text-anchor="start" x="685" y="-767.5" font-family="Courier New" font-size="10.00">+ HoldEvent()</text>
<text text-anchor="start" x="685" y="-756.5" font-family="Courier New" font-size="10.00">+ EndEvent()</text>
<text text-anchor="start" x="685" y="-745.5" font-family="Courier New" font-size="10.00">+ AllEvents()</text>
<text text-anchor="start" x="685" y="-734.5" font-family="Courier New" font-size="10.00">+ PressEventNull()</text>
<text text-anchor="start" x="685" y="-723.5" font-family="Courier New" font-size="10.00">+ HoldEventNull()</text>
<text text-anchor="start" x="685" y="-712.5" font-family="Courier New" font-size="10.00">+ EndEventNull()</text>
<text text-anchor="start" x="685" y="-701.5" font-family="Courier New" font-size="10.00">+ AllEventsNull()</text>
<text text-anchor="start" x="685" y="-690.5" font-family="Courier New" font-size="10.00">+ ToString()</text>
<text text-anchor="start" x="685" y="-679.5" font-family="Courier New" font-size="10.00">&#45; Awake()</text>
</a>
</g>
</g>
<!-- Node7&#45;&gt;Node17 -->
<g id="edge17" class="edge"><title>Node7&#45;&gt;Node17</title>
<path fill="none" stroke="midnightblue" d="M602.392,-1361.36C606.988,-1285.93 621.784,-1113.03 665.5,-975 672.81,-951.917 682.662,-928.146 693.206,-905.653"/>
<polygon fill="none" stroke="midnightblue" points="598.874,-1361.58 601.786,-1371.77 605.862,-1361.99 598.874,-1361.58"/>
</g>
<!-- Node18 -->
<g id="node18" class="node"><title>Node18</title>
<g id="a_node18"><a xlink:href="../../d8/d68/class_c2_m2_1_1_interaction_1_1_raycast_press_events.html" target="_top" xlink:title="Store custom events that the corresponding RaycastTriggerManager will invoke">
<polygon fill="white" stroke="black" points="675,-1074.5 675,-1186.5 836,-1186.5 836,-1074.5 675,-1074.5"/>
<text text-anchor="start" x="683" y="-1174.5" font-family="Courier New" font-size="10.00">C2M2.Interaction.Raycast</text>
<text text-anchor="middle" x="755.5" y="-1163.5" font-family="Courier New" font-size="10.00">PressEvents</text>
<polyline fill="none" stroke="black" points="675,-1156.5 836,-1156.5 "/>
<text text-anchor="start" x="683" y="-1144.5" font-family="Courier New" font-size="10.00">+ OnPress</text>
<text text-anchor="start" x="683" y="-1133.5" font-family="Courier New" font-size="10.00">+ OnHoldPress</text>
<text text-anchor="start" x="683" y="-1122.5" font-family="Courier New" font-size="10.00">+ OnEndPress</text>
<polyline fill="none" stroke="black" points="675,-1115.5 836,-1115.5 "/>
<text text-anchor="start" x="683" y="-1103.5" font-family="Courier New" font-size="10.00">+ Press()</text>
<text text-anchor="start" x="683" y="-1092.5" font-family="Courier New" font-size="10.00">+ HoldPress()</text>
<text text-anchor="start" x="683" y="-1081.5" font-family="Courier New" font-size="10.00">+ EndPress()</text>
</a>
</g>
</g>
<!-- Node7&#45;&gt;Node18 -->
<g id="edge20" class="edge"><title>Node7&#45;&gt;Node18</title>
<path fill="none" stroke="midnightblue" d="M622.117,-1363.17C627.185,-1354.6 632.55,-1345.49 637.5,-1337 667.133,-1286.18 700.48,-1228.01 724.145,-1186.56"/>
<polygon fill="none" stroke="midnightblue" points="619.057,-1361.47 616.972,-1371.86 625.08,-1365.04 619.057,-1361.47"/>
</g>
<!-- Node8 -->
<g id="node8" class="node"><title>Node8</title>
<g id="a_node8"><a xlink:href="../../da/df6/class_c2_m2_1_1_neuronal_dynamics_1_1_u_g_x_1_1_neuron_cell.html" target="_top" xlink:title=" ">
<polygon fill="white" stroke="black" points="1107,-694.5 1107,-883.5 1280,-883.5 1280,-694.5 1107,-694.5"/>
<text text-anchor="start" x="1115" y="-871.5" font-family="Courier New" font-size="10.00">C2M2.NeuronalDynamics.UGX.</text>
<text text-anchor="middle" x="1193.5" y="-860.5" font-family="Courier New" font-size="10.00">NeuronCell</text>
<polyline fill="none" stroke="black" points="1107,-853.5 1280,-853.5 "/>
<text text-anchor="start" x="1115" y="-841.5" font-family="Courier New" font-size="10.00">+ nodeData</text>
<text text-anchor="start" x="1115" y="-830.5" font-family="Courier New" font-size="10.00">+ edges</text>
<text text-anchor="start" x="1115" y="-819.5" font-family="Courier New" font-size="10.00">+ edgeLengths</text>
<text text-anchor="start" x="1115" y="-808.5" font-family="Courier New" font-size="10.00">+ boundaryID</text>
<text text-anchor="start" x="1115" y="-797.5" font-family="Courier New" font-size="10.00">+ somaID</text>
<text text-anchor="start" x="1115" y="-786.5" font-family="Courier New" font-size="10.00">+ vertCount</text>
<text text-anchor="start" x="1115" y="-775.5" font-family="Courier New" font-size="10.00">+ edgeCount</text>
<polyline fill="none" stroke="black" points="1107,-768.5 1280,-768.5 "/>
<text text-anchor="start" x="1115" y="-756.5" font-family="Courier New" font-size="10.00">+ NeuronCell()</text>
<text text-anchor="start" x="1115" y="-745.5" font-family="Courier New" font-size="10.00">+ NodeToString()</text>
<text text-anchor="start" x="1115" y="-734.5" font-family="Courier New" font-size="10.00">+ EdgeToString()</text>
<text text-anchor="start" x="1115" y="-723.5" font-family="Courier New" font-size="10.00">+ ToString()</text>
<text text-anchor="start" x="1115" y="-712.5" font-family="Courier New" font-size="10.00">&#45; NodeNeighborsToString()</text>
<text text-anchor="start" x="1115" y="-701.5" font-family="Courier New" font-size="10.00">&#45; GetEdgeLength()</text>
</a>
</g>
</g>
<!-- Node8&#45;&gt;Node3 -->
<g id="edge7" class="edge"><title>Node8&#45;&gt;Node3</title>
<path fill="none" stroke="#404040" d="M1120.45,-694.496C1113,-686.593 1105.29,-678.97 1097.5,-672 993.989,-579.448 859.518,-494.856 762.917,-439.172"/>
<polygon fill="none" stroke="#404040" points="762.625,-439.005 755.43,-439.488 752.217,-433.033 759.412,-432.549 762.625,-439.005"/>
<text text-anchor="middle" x="1112" y="-640.5" font-family="Courier New" font-size="10.00"> &#45;neuronCell</text>
</g>
<!-- Node9 -->
<g id="node9" class="node"><title>Node9</title>
<g id="a_node9"><a xlink:title=" ">
<polygon fill="white" stroke="#bfbfbf" points="1158,-1102 1158,-1159 1211,-1159 1211,-1102 1158,-1102"/>
<text text-anchor="middle" x="1184.5" y="-1147" font-family="Courier New" font-size="10.00">static</text>
<polyline fill="none" stroke="#bfbfbf" points="1158,-1140 1211,-1140 "/>
<text text-anchor="middle" x="1184.5" y="-1128" font-family="Courier New" font-size="10.00"> </text>
<polyline fill="none" stroke="#bfbfbf" points="1158,-1121 1211,-1121 "/>
<text text-anchor="middle" x="1184.5" y="-1109" font-family="Courier New" font-size="10.00"> </text>
</a>
</g>
</g>
<!-- Node9&#45;&gt;Node1 -->
<g id="edge23" class="edge"><title>Node9&#45;&gt;Node1</title>
<path fill="none" stroke="#404040" d="M1209.36,-1101.81C1236.39,-1069.67 1277.94,-1013.77 1294.5,-957 1313.78,-890.919 1429.77,-1008.3 1289.5,-672 1172.6,-391.744 862.18,-175.536 716.302,-86.0045"/>
<polygon fill="none" stroke="#404040" points="715.912,-85.7668 708.707,-86.06 705.665,-79.5218 712.87,-79.2286 715.912,-85.7668"/>
<text text-anchor="middle" x="1326" y="-646" font-family="Courier New" font-size="10.00"> &#45;inflationLevel</text>
<text text-anchor="middle" x="1326" y="-635" font-family="Courier New" font-size="10.00">&#45;refinementLevel</text>
</g>
<!-- Node9&#45;&gt;Node8 -->
<g id="edge8" class="edge"><title>Node9&#45;&gt;Node8</title>
<path fill="none" stroke="#404040" d="M1184.15,-1101.9C1183.77,-1062.45 1183.45,-987.651 1185.5,-924 1185.8,-914.828 1186.19,-905.308 1186.65,-895.763"/>
<polygon fill="none" stroke="#404040" points="1186.65,-895.669 1182.96,-889.476 1187.25,-883.684 1190.95,-889.877 1186.65,-895.669"/>
<text text-anchor="middle" x="1240" y="-949" font-family="Courier New" font-size="10.00"> &#45;nodeFormatString</text>
<text text-anchor="middle" x="1240" y="-938" font-family="Courier New" font-size="10.00">&#45;edgeFormatString</text>
<text text-anchor="middle" x="1240" y="-927" font-family="Courier New" font-size="10.00">&#45;cellFormatString</text>
</g>
<!-- Node9&#45;&gt;Node17 -->
<g id="edge18" class="edge"><title>Node9&#45;&gt;Node17</title>
<path fill="none" stroke="#404040" d="M1173.11,-1101.94C1158.89,-1069.48 1132.38,-1014.95 1099.5,-975 1077.04,-947.716 1071.12,-937.596 1038.5,-924 962.943,-892.507 924.999,-942.57 849.011,-906.497"/>
<polygon fill="none" stroke="#404040" points="848.687,-906.33 841.52,-907.127 838.028,-900.818 845.195,-900.021 848.687,-906.33"/>
<text text-anchor="middle" x="1113" y="-938" font-family="Courier New" font-size="10.00"> &#45;nullHit</text>
</g>
<!-- Node10 -->
<g id="node10" class="node"><title>Node10</title>
<g id="a_node10"><a xlink:href="../../db/dbd/struct_c2_m2_1_1_neuronal_dynamics_1_1_simulation_1_1_vert3_d1_d_pair.html" target="_top" xlink:title="Stores two 1D indices and a lambda value for a 3D vertex">
<polygon fill="white" stroke="black" points="194,-738.5 194,-839.5 409,-839.5 409,-738.5 194,-738.5"/>
<text text-anchor="start" x="202" y="-827.5" font-family="Courier New" font-size="10.00">C2M2.NeuronalDynamics.Simulation.</text>
<text text-anchor="middle" x="301.5" y="-816.5" font-family="Courier New" font-size="10.00">Vert3D1DPair</text>
<polyline fill="none" stroke="black" points="194,-809.5 409,-809.5 "/>
<text text-anchor="start" x="202" y="-797.5" font-family="Courier New" font-size="10.00">+ v1</text>
<text text-anchor="start" x="202" y="-786.5" font-family="Courier New" font-size="10.00">+ v2</text>
<text text-anchor="start" x="202" y="-775.5" font-family="Courier New" font-size="10.00">+ lambda</text>
<polyline fill="none" stroke="black" points="194,-768.5 409,-768.5 "/>
<text text-anchor="start" x="202" y="-756.5" font-family="Courier New" font-size="10.00">+ Vert3D1DPair()</text>
<text text-anchor="start" x="202" y="-745.5" font-family="Courier New" font-size="10.00">+ ToString()</text>
</a>
</g>
</g>
<!-- Node10&#45;&gt;Node3 -->
<g id="edge9" class="edge"><title>Node10&#45;&gt;Node3</title>
<path fill="none" stroke="#404040" d="M337.941,-738.384C365.738,-703.873 406.915,-659.324 452.5,-632 477.477,-617.028 493.038,-632.533 515.5,-614 515.6,-613.918 515.699,-613.836 515.798,-613.753"/>
<polygon fill="none" stroke="#404040" points="515.822,-613.733 517.69,-606.768 524.837,-605.813 522.969,-612.778 515.822,-613.733"/>
<text text-anchor="middle" x="468" y="-640.5" font-family="Courier New" font-size="10.00"> &#45;map</text>
</g>
<!-- Node11 -->
<g id="node11" class="node"><title>Node11</title>
<g id="a_node11"><a xlink:title=" ">
<polygon fill="white" stroke="#bfbfbf" points="427,-760.5 427,-817.5 468,-817.5 468,-760.5 427,-760.5"/>
<text text-anchor="middle" x="447.5" y="-805.5" font-family="Courier New" font-size="10.00">C2M2</text>
<polyline fill="none" stroke="#bfbfbf" points="427,-798.5 468,-798.5 "/>
<text text-anchor="middle" x="447.5" y="-786.5" font-family="Courier New" font-size="10.00"> </text>
<polyline fill="none" stroke="#bfbfbf" points="427,-779.5 468,-779.5 "/>
<text text-anchor="middle" x="447.5" y="-767.5" font-family="Courier New" font-size="10.00"> </text>
</a>
</g>
</g>
<!-- Node11&#45;&gt;Node3 -->
<g id="edge10" class="edge"><title>Node11&#45;&gt;Node3</title>
<path fill="none" stroke="#404040" d="M451.621,-760.396C455.858,-736.319 463.678,-700.83 476.5,-672 489.123,-643.617 499.778,-640.791 515.5,-614 516.638,-612.061 517.776,-610.111 518.913,-608.15"/>
<polygon fill="none" stroke="#404040" points="519.016,-607.971 518.537,-600.776 524.994,-597.567 525.473,-604.762 519.016,-607.971"/>
<text text-anchor="middle" x="528" y="-646" font-family="Courier New" font-size="10.00"> &#45;grid1D</text>
<text text-anchor="middle" x="528" y="-635" font-family="Courier New" font-size="10.00">&#45;grid2D</text>
</g>
<!-- Node12 -->
<g id="node12" class="node"><title>Node12</title>
<g id="a_node12"><a xlink:href="../../dd/d2a/struct_c2_m2_1_1_neuronal_dynamics_1_1_u_g_x_1_1_mapping_info.html" target="_top" xlink:title="Encapsulates the grids and mapping data">
<polygon fill="white" stroke="black" points="486,-744 486,-834 659,-834 659,-744 486,-744"/>
<text text-anchor="start" x="494" y="-822" font-family="Courier New" font-size="10.00">C2M2.NeuronalDynamics.UGX.</text>
<text text-anchor="middle" x="572.5" y="-811" font-family="Courier New" font-size="10.00">MappingInfo</text>
<polyline fill="none" stroke="black" points="486,-804 659,-804 "/>
<text text-anchor="start" x="494" y="-792" font-family="Courier New" font-size="10.00">+ ModelGeometry</text>
<text text-anchor="start" x="494" y="-781" font-family="Courier New" font-size="10.00">+ SurfaceGeometry</text>
<text text-anchor="start" x="494" y="-770" font-family="Courier New" font-size="10.00">+ Data</text>
<polyline fill="none" stroke="black" points="486,-763 659,-763 "/>
<text text-anchor="start" x="494" y="-751" font-family="Courier New" font-size="10.00">+ MappingInfo()</text>
</a>
</g>
</g>
<!-- Node12&#45;&gt;Node3 -->
<g id="edge11" class="edge"><title>Node12&#45;&gt;Node3</title>
<path fill="none" stroke="#404040" d="M579.501,-743.822C584.262,-713.777 590.989,-671.325 598.206,-625.78"/>
<polygon fill="none" stroke="#404040" points="598.223,-625.674 595.211,-619.122 600.101,-613.822 603.112,-620.374 598.223,-625.674"/>
<text text-anchor="middle" x="624" y="-640.5" font-family="Courier New" font-size="10.00"> &#45;mapping</text>
</g>
<!-- Node13 -->
<g id="node13" class="node"><title>Node13</title>
<g id="a_node13"><a xlink:href="../../d1/d08/class_c2_m2_1_1_neuronal_dynamics_1_1_visualization_1_1_v_r_n_1_1_vrn_reader.html" target="_top" xlink:title=" ">
<polygon fill="white" stroke="black" points="856,-727.5 856,-850.5 1089,-850.5 1089,-727.5 856,-727.5"/>
<text text-anchor="start" x="864" y="-838.5" font-family="Courier New" font-size="10.00">C2M2.NeuronalDynamics.Visualization.</text>
<text text-anchor="middle" x="972.5" y="-827.5" font-family="Courier New" font-size="10.00">VRN.VrnReader</text>
<polyline fill="none" stroke="black" points="856,-820.5 1089,-820.5 "/>
<text text-anchor="start" x="864" y="-808.5" font-family="Courier New" font-size="10.00">&#45; fileName</text>
<text text-anchor="start" x="864" y="-797.5" font-family="Courier New" font-size="10.00">&#45; loaded</text>
<polyline fill="none" stroke="black" points="856,-790.5 1089,-790.5 "/>
<text text-anchor="start" x="864" y="-778.5" font-family="Courier New" font-size="10.00">+ List()</text>
<text text-anchor="start" x="864" y="-767.5" font-family="Courier New" font-size="10.00">+ ReadUGX()</text>
<text text-anchor="start" x="864" y="-756.5" font-family="Courier New" font-size="10.00">+ Retrieve1DMeshName()</text>
<text text-anchor="start" x="864" y="-745.5" font-family="Courier New" font-size="10.00">+ Retrieve2DMeshName()</text>
<text text-anchor="start" x="864" y="-734.5" font-family="Courier New" font-size="10.00">+ VrnReader()</text>
</a>
</g>
</g>
<!-- Node13&#45;&gt;Node3 -->
<g id="edge12" class="edge"><title>Node13&#45;&gt;Node3</title>
<path fill="none" stroke="#404040" d="M923.934,-727.437C880.992,-673.889 816.526,-593.499 759.719,-522.66"/>
<polygon fill="none" stroke="#404040" points="759.623,-522.542 752.749,-520.363 752.116,-513.18 758.99,-515.358 759.623,-522.542"/>
<text text-anchor="middle" x="898" y="-640.5" font-family="Courier New" font-size="10.00"> &#45;vrnReader</text>
</g>
<!-- Node14 -->
<g id="node14" class="node"><title>Node14</title>
<g id="a_node14"><a xlink:href="../../d9/d5c/class_c2_m2_1_1_neuronal_dynamics_1_1_visualization_1_1_v_r_n_1_1_vrn_reader_1_1_geometry.html" target="_top" xlink:title="Stores 1D and associated 2D geometries in the member geom1d">
<polygon fill="white" stroke="black" points="858,-1096.5 858,-1164.5 1091,-1164.5 1091,-1096.5 858,-1096.5"/>
<text text-anchor="start" x="866" y="-1152.5" font-family="Courier New" font-size="10.00">C2M2.NeuronalDynamics.Visualization.</text>
<text text-anchor="middle" x="974.5" y="-1141.5" font-family="Courier New" font-size="10.00">VRN.VrnReader.Geometry</text>
<polyline fill="none" stroke="black" points="858,-1134.5 1091,-1134.5 "/>
<text text-anchor="middle" x="974.5" y="-1122.5" font-family="Courier New" font-size="10.00"> </text>
<polyline fill="none" stroke="black" points="858,-1115.5 1091,-1115.5 "/>
<text text-anchor="start" x="866" y="-1103.5" font-family="Courier New" font-size="10.00">+ Geometry()</text>
</a>
</g>
</g>
<!-- Node14&#45;&gt;Node13 -->
<g id="edge13" class="edge"><title>Node14&#45;&gt;Node13</title>
<path fill="none" stroke="#404040" d="M974.305,-1096.33C973.988,-1042.54 973.355,-935.06 972.929,-862.813"/>
<polygon fill="none" stroke="#404040" points="972.928,-862.645 968.893,-856.669 972.857,-850.645 976.893,-856.622 972.928,-862.645"/>
<text text-anchor="middle" x="1004" y="-938" font-family="Courier New" font-size="10.00"> &#45;geometry</text>
</g>
<!-- Node15 -->
<g id="node15" class="node"><title>Node15</title>
<g id="a_node15"><a xlink:href="../../dd/df0/struct_c2_m2_1_1_neuronal_dynamics_1_1_visualization_1_1_v_r_n_1_1_vrn_reader_1_1_geom1d.html" target="_top" xlink:title="Stores the 1D geometries by name, refinement and a description Inflations are attached to the 1D geom...">
<polygon fill="white" stroke="black" points="863,-1355.5 863,-1445.5 1096,-1445.5 1096,-1355.5 863,-1355.5"/>
<text text-anchor="start" x="871" y="-1433.5" font-family="Courier New" font-size="10.00">C2M2.NeuronalDynamics.Visualization.</text>
<text text-anchor="middle" x="979.5" y="-1422.5" font-family="Courier New" font-size="10.00">VRN.VrnReader.Geom1d</text>
<polyline fill="none" stroke="black" points="863,-1415.5 1096,-1415.5 "/>
<text text-anchor="start" x="871" y="-1403.5" font-family="Courier New" font-size="10.00">+ name</text>
<text text-anchor="start" x="871" y="-1392.5" font-family="Courier New" font-size="10.00">+ refinement</text>
<text text-anchor="start" x="871" y="-1381.5" font-family="Courier New" font-size="10.00">+ description</text>
<polyline fill="none" stroke="black" points="863,-1374.5 1096,-1374.5 "/>
<text text-anchor="start" x="871" y="-1362.5" font-family="Courier New" font-size="10.00">+ Geom1d()</text>
</a>
</g>
</g>
<!-- Node15&#45;&gt;Node14 -->
<g id="edge14" class="edge"><title>Node15&#45;&gt;Node14</title>
<path fill="none" stroke="#404040" d="M978.674,-1355.25C977.756,-1306.01 976.279,-1226.86 975.351,-1177.09"/>
<polygon fill="none" stroke="#404040" points="975.345,-1176.8 971.234,-1170.87 975.121,-1164.8 979.233,-1170.72 975.345,-1176.8"/>
<text text-anchor="middle" x="1003" y="-1318" font-family="Courier New" font-size="10.00"> +geom1d</text>
</g>
<!-- Node16 -->
<g id="node16" class="node"><title>Node16</title>
<g id="a_node16"><a xlink:href="../../d8/daf/struct_c2_m2_1_1_neuronal_dynamics_1_1_visualization_1_1_v_r_n_1_1_vrn_reader_1_1_geom2d.html" target="_top" xlink:title="Stores the 2d geometries by name, inflation (factor), and description">
<polygon fill="white" stroke="black" points="863,-1493.5 863,-1583.5 1096,-1583.5 1096,-1493.5 863,-1493.5"/>
<text text-anchor="start" x="871" y="-1571.5" font-family="Courier New" font-size="10.00">C2M2.NeuronalDynamics.Visualization.</text>
<text text-anchor="middle" x="979.5" y="-1560.5" font-family="Courier New" font-size="10.00">VRN.VrnReader.Geom2d</text>
<polyline fill="none" stroke="black" points="863,-1553.5 1096,-1553.5 "/>
<text text-anchor="start" x="871" y="-1541.5" font-family="Courier New" font-size="10.00">+ inflation</text>
<text text-anchor="start" x="871" y="-1530.5" font-family="Courier New" font-size="10.00">+ name</text>
<text text-anchor="start" x="871" y="-1519.5" font-family="Courier New" font-size="10.00">+ description</text>
<polyline fill="none" stroke="black" points="863,-1512.5 1096,-1512.5 "/>
<text text-anchor="start" x="871" y="-1500.5" font-family="Courier New" font-size="10.00">+ Geom2d()</text>
</a>
</g>
</g>
<!-- Node16&#45;&gt;Node15 -->
<g id="edge15" class="edge"><title>Node16&#45;&gt;Node15</title>
<path fill="none" stroke="#404040" d="M979.5,-1493.34C979.5,-1482.06 979.5,-1469.78 979.5,-1457.97"/>
<polygon fill="none" stroke="#404040" points="979.5,-1457.9 975.5,-1451.9 979.5,-1445.9 983.5,-1451.9 979.5,-1457.9"/>
<text text-anchor="middle" x="1016" y="-1467" font-family="Courier New" font-size="10.00"> +inflations</text>
</g>
<!-- Node17&#45;&gt;Node3 -->
<g id="edge16" class="edge"><title>Node17&#45;&gt;Node3</title>
<path fill="none" stroke="#404040" d="M724.431,-672.258C720.169,-657.343 715.681,-641.633 711.083,-625.539"/>
<polygon fill="none" stroke="#404040" points="711.013,-625.296 705.519,-620.626 707.717,-613.758 713.211,-618.428 711.013,-625.296"/>
<text text-anchor="middle" x="768" y="-640.5" font-family="Courier New" font-size="10.00"> &#45;raycastManager</text>
</g>
<!-- Node18&#45;&gt;Node17 -->
<g id="edge19" class="edge"><title>Node18&#45;&gt;Node17</title>
<path fill="none" stroke="#404040" d="M755.826,-1074.2C756.075,-1031.92 756.428,-971.927 756.746,-917.944"/>
<polygon fill="none" stroke="#404040" points="756.747,-917.809 752.782,-911.786 756.818,-905.809 760.782,-911.833 756.747,-917.809"/>
<text text-anchor="middle" x="797" y="-949" font-family="Courier New" font-size="10.00"> +leftTrigger</text>
<text text-anchor="middle" x="797" y="-938" font-family="Courier New" font-size="10.00">+rightTrigger</text>
<text text-anchor="middle" x="797" y="-927" font-family="Courier New" font-size="10.00">&#45;emptyTrigger</text>
</g>
<!-- Node19 -->
<g id="node19" class="node"><title>Node19</title>
<g id="a_node19"><a xlink:href="../../d2/d43/class_c2_m2_1_1_interaction_1_1_raycast_press_events_1_1_raycast_hit_event.html" target="_top" xlink:title=" ">
<polygon fill="white" stroke="black" points="666,-1366.5 666,-1434.5 845,-1434.5 845,-1366.5 666,-1366.5"/>
<text text-anchor="start" x="674" y="-1422.5" font-family="Courier New" font-size="10.00">C2M2.Interaction.Raycast</text>
<text text-anchor="middle" x="755.5" y="-1411.5" font-family="Courier New" font-size="10.00">PressEvents.RaycastHitEvent</text>
<polyline fill="none" stroke="black" points="666,-1404.5 845,-1404.5 "/>
<text text-anchor="middle" x="755.5" y="-1392.5" font-family="Courier New" font-size="10.00"> </text>
<polyline fill="none" stroke="black" points="666,-1385.5 845,-1385.5 "/>
<text text-anchor="middle" x="755.5" y="-1373.5" font-family="Courier New" font-size="10.00"> </text>
</a>
</g>
</g>
<!-- Node19&#45;&gt;Node18 -->
<g id="edge21" class="edge"><title>Node19&#45;&gt;Node18</title>
<path fill="none" stroke="#404040" d="M755.5,-1366.37C755.5,-1324.73 755.5,-1252.24 755.5,-1198.78"/>
<polygon fill="none" stroke="#404040" points="755.5,-1198.65 751.5,-1192.65 755.5,-1186.65 759.5,-1192.65 755.5,-1198.65"/>
<text text-anchor="middle" x="792" y="-1329" font-family="Courier New" font-size="10.00"> &#45;onPress</text>
<text text-anchor="middle" x="792" y="-1318" font-family="Courier New" font-size="10.00">&#45;onHoldPress</text>
<text text-anchor="middle" x="792" y="-1307" font-family="Courier New" font-size="10.00">&#45;onEndPress</text>
</g>
<!-- Node20 -->
<g id="node20" class="node"><title>Node20</title>
<g id="a_node20"><a xlink:title=" ">
<polygon fill="white" stroke="#bfbfbf" points="675,-1510 675,-1567 836,-1567 836,-1510 675,-1510"/>
<text text-anchor="middle" x="755.5" y="-1555" font-family="Courier New" font-size="10.00">UnityEvent&lt; RaycastHit &gt;</text>
<polyline fill="none" stroke="#bfbfbf" points="675,-1548 836,-1548 "/>
<text text-anchor="middle" x="755.5" y="-1536" font-family="Courier New" font-size="10.00"> </text>
<polyline fill="none" stroke="#bfbfbf" points="675,-1529 836,-1529 "/>
<text text-anchor="middle" x="755.5" y="-1517" font-family="Courier New" font-size="10.00"> </text>
</a>
</g>
</g>
<!-- Node20&#45;&gt;Node19 -->
<g id="edge22" class="edge"><title>Node20&#45;&gt;Node19</title>
<path fill="none" stroke="midnightblue" d="M755.5,-1499.78C755.5,-1479.38 755.5,-1454.41 755.5,-1434.75"/>
<polygon fill="none" stroke="midnightblue" points="752,-1499.98 755.5,-1509.98 759,-1499.98 752,-1499.98"/>
</g>
</g>
</svg>
