<?xml version="1.0" encoding="UTF-8" standalone="no"?>
<!DOCTYPE svg PUBLIC "-//W3C//DTD SVG 1.1//EN"
 "http://www.w3.org/Graphics/SVG/1.1/DTD/svg11.dtd">
<!-- Generated by graphviz version 2.46.0 (20210118.1747)
 -->
<!-- Title: C2M2.NeuronalDynamics.Visualization.VTK.VTUManager Pages: 1 -->
<svg width="551pt" height="712pt"
 viewBox="0.00 0.00 551.00 712.00" xmlns="http://www.w3.org/2000/svg" xmlns:xlink="http://www.w3.org/1999/xlink">
<g id="graph0" class="graph" transform="scale(1 1) rotate(0) translate(4 708)">
<title>C2M2.NeuronalDynamics.Visualization.VTK.VTUManager</title>
<polygon fill="white" stroke="transparent" points="-4,4 -4,-708 547,-708 547,4 -4,4"/>
<!-- Node1 -->
<g id="node1" class="node">
<title>Node1</title>
<g id="a_node1"><a xlink:title=" ">
<polygon fill="#bfbfbf" stroke="black" points="273,-259.5 273,-437.5 506,-437.5 506,-259.5 273,-259.5"/>
<text text-anchor="start" x="281" y="-425.5" font-family="Courier New" font-size="10.00">C2M2.NeuronalDynamics.Visualization.</text>
<text text-anchor="middle" x="389.5" y="-414.5" font-family="Courier New" font-size="10.00">VTK.VTUManager</text>
<polyline fill="none" stroke="black" points="273,-407.5 506,-407.5 "/>
<text text-anchor="start" x="281" y="-395.5" font-family="Courier New" font-size="10.00">+ dataExtension</text>
<text text-anchor="start" x="281" y="-384.5" font-family="Courier New" font-size="10.00">+ dataPath</text>
<text text-anchor="start" x="281" y="-373.5" font-family="Courier New" font-size="10.00">+ fileProcessCount</text>
<text text-anchor="start" x="281" y="-362.5" font-family="Courier New" font-size="10.00">+ initialPosition</text>
<text text-anchor="start" x="281" y="-351.5" font-family="Courier New" font-size="10.00">+ initialRotation</text>
<text text-anchor="start" x="281" y="-340.5" font-family="Courier New" font-size="10.00">+ compoundColliderResolution</text>
<text text-anchor="start" x="281" y="-329.5" font-family="Courier New" font-size="10.00">+ adjacencyListSubdivisions</text>
<text text-anchor="start" x="281" y="-318.5" font-family="Courier New" font-size="10.00">+ vtuList</text>
<text text-anchor="start" x="281" y="-307.5" font-family="Courier New" font-size="10.00">+ gradient</text>
<text text-anchor="start" x="281" y="-296.5" font-family="Courier New" font-size="10.00">&#45; meshf</text>
<polyline fill="none" stroke="black" points="273,-289.5 506,-289.5 "/>
<text text-anchor="start" x="281" y="-277.5" font-family="Courier New" font-size="10.00">+ Initialize()</text>
<text text-anchor="start" x="281" y="-266.5" font-family="Courier New" font-size="10.00">&#45; BuildVTUList()</text>
</a>
</g>
</g>
<!-- Node3 -->
<g id="node3" class="node">
<title>Node3</title>
<g id="a_node3"><a xlink:href="../../dc/d1d/class_c2_m2_1_1_neuronal_dynamics_1_1_visualization_1_1_v_t_k_1_1_v_t_u_player.html" target="_top" xlink:title=" ">
<polygon fill="white" stroke="black" points="144,-0.5 144,-211.5 377,-211.5 377,-0.5 144,-0.5"/>
<text text-anchor="start" x="152" y="-199.5" font-family="Courier New" font-size="10.00">C2M2.NeuronalDynamics.Visualization.</text>
<text text-anchor="middle" x="260.5" y="-188.5" font-family="Courier New" font-size="10.00">VTK.VTUPlayer</text>
<polyline fill="none" stroke="black" points="144,-181.5 377,-181.5 "/>
<text text-anchor="start" x="152" y="-169.5" font-family="Courier New" font-size="10.00">+ frameCountDisplay</text>
<text text-anchor="start" x="152" y="-158.5" font-family="Courier New" font-size="10.00">&#45; mf</text>
<text text-anchor="start" x="152" y="-147.5" font-family="Courier New" font-size="10.00">&#45; maxFrame</text>
<text text-anchor="start" x="152" y="-136.5" font-family="Courier New" font-size="10.00">&#45; slider</text>
<text text-anchor="start" x="152" y="-125.5" font-family="Courier New" font-size="10.00">&#45; formatString</text>
<text text-anchor="start" x="152" y="-114.5" font-family="Courier New" font-size="10.00">&#45; currentFrame</text>
<polyline fill="none" stroke="black" points="144,-107.5 377,-107.5 "/>
<text text-anchor="start" x="152" y="-95.5" font-family="Courier New" font-size="10.00">+ Initialize()</text>
<text text-anchor="start" x="152" y="-84.5" font-family="Courier New" font-size="10.00">+ Play()</text>
<text text-anchor="start" x="152" y="-73.5" font-family="Courier New" font-size="10.00">+ Pause()</text>
<text text-anchor="start" x="152" y="-62.5" font-family="Courier New" font-size="10.00">+ Rewind()</text>
<text text-anchor="start" x="152" y="-51.5" font-family="Courier New" font-size="10.00">+ NextFrame()</text>
<text text-anchor="start" x="152" y="-40.5" font-family="Courier New" font-size="10.00">+ PreviousFrame()</text>
<text text-anchor="start" x="152" y="-29.5" font-family="Courier New" font-size="10.00">&#45; NextFrameRepeating()</text>
<text text-anchor="start" x="152" y="-18.5" font-family="Courier New" font-size="10.00">&#45; PreviousFramePrevious()</text>
<text text-anchor="start" x="152" y="-7.5" font-family="Courier New" font-size="10.00">&#45; UpdateMesh()</text>
</a>
</g>
</g>
<!-- Node1&#45;&gt;Node3 -->
<g id="edge4" class="edge">
<title>Node1&#45;&gt;Node3</title>
<path fill="none" stroke="#404040" d="M296.67,-259.5C292.55,-253.49 288.78,-247.31 285.5,-241 282.61,-235.43 280.05,-229.58 277.78,-223.57"/>
<polygon fill="none" stroke="#404040" points="277.65,-223.18 271.93,-218.79 273.77,-211.82 279.5,-216.21 277.65,-223.18"/>
<text text-anchor="middle" x="322" y="-233" font-family="Courier New" font-size="10.00"> +vtuManager</text>
</g>
<!-- Node2 -->
<g id="node2" class="node">
<title>Node2</title>
<g id="a_node2"><a xlink:title=" ">
<polygon fill="white" stroke="#bfbfbf" points="197,-540.5 197,-597.5 292,-597.5 292,-540.5 197,-540.5"/>
<text text-anchor="middle" x="244.5" y="-585.5" font-family="Courier New" font-size="10.00">MonoBehaviour</text>
<polyline fill="none" stroke="#bfbfbf" points="197,-578.5 292,-578.5 "/>
<text text-anchor="middle" x="244.5" y="-566.5" font-family="Courier New" font-size="10.00"> </text>
<polyline fill="none" stroke="#bfbfbf" points="197,-559.5 292,-559.5 "/>
<text text-anchor="middle" x="244.5" y="-547.5" font-family="Courier New" font-size="10.00"> </text>
</a>
</g>
</g>
<!-- Node2&#45;&gt;Node1 -->
<g id="edge1" class="edge">
<title>Node2&#45;&gt;Node1</title>
<path fill="none" stroke="midnightblue" d="M268.59,-531.7C285.58,-506.09 309.11,-470.64 330.9,-437.8"/>
<polygon fill="none" stroke="midnightblue" points="265.48,-530.06 262.86,-540.33 271.31,-533.93 265.48,-530.06"/>
</g>
<!-- Node2&#45;&gt;Node3 -->
<g id="edge3" class="edge">
<title>Node2&#45;&gt;Node3</title>
<path fill="none" stroke="midnightblue" d="M245.83,-529.82C248.22,-460.8 253.35,-313.05 256.86,-211.85"/>
<polygon fill="none" stroke="midnightblue" points="242.31,-530.09 245.46,-540.2 249.31,-530.33 242.31,-530.09"/>
</g>
<!-- Node4 -->
<g id="node4" class="node">
<title>Node4</title>
<g id="a_node4"><a xlink:href="../../d8/d68/class_c2_m2_1_1_interaction_1_1_raycast_press_events.html" target="_top" xlink:title="Store custom events that the corresponding RaycastTriggerManager will invoke">
<polygon fill="white" stroke="black" points="55,-270.5 55,-426.5 216,-426.5 216,-270.5 55,-270.5"/>
<text text-anchor="start" x="63" y="-414.5" font-family="Courier New" font-size="10.00">C2M2.Interaction.Raycast</text>
<text text-anchor="middle" x="135.5" y="-403.5" font-family="Courier New" font-size="10.00">PressEvents</text>
<polyline fill="none" stroke="black" points="55,-396.5 216,-396.5 "/>
<text text-anchor="start" x="63" y="-384.5" font-family="Courier New" font-size="10.00">+ OnHover</text>
<text text-anchor="start" x="63" y="-373.5" font-family="Courier New" font-size="10.00">+ OnHoverEnd</text>
<text text-anchor="start" x="63" y="-362.5" font-family="Courier New" font-size="10.00">+ OnPress</text>
<text text-anchor="start" x="63" y="-351.5" font-family="Courier New" font-size="10.00">+ OnHoldPress</text>
<text text-anchor="start" x="63" y="-340.5" font-family="Courier New" font-size="10.00">+ OnEndPress</text>
<polyline fill="none" stroke="black" points="55,-333.5 216,-333.5 "/>
<text text-anchor="start" x="63" y="-321.5" font-family="Courier New" font-size="10.00">+ Hover()</text>
<text text-anchor="start" x="63" y="-310.5" font-family="Courier New" font-size="10.00">+ EndHover()</text>
<text text-anchor="start" x="63" y="-299.5" font-family="Courier New" font-size="10.00">+ Press()</text>
<text text-anchor="start" x="63" y="-288.5" font-family="Courier New" font-size="10.00">+ HoldPress()</text>
<text text-anchor="start" x="63" y="-277.5" font-family="Courier New" font-size="10.00">+ EndPress()</text>
</a>
</g>
</g>
<!-- Node2&#45;&gt;Node4 -->
<g id="edge6" class="edge">
<title>Node2&#45;&gt;Node4</title>
<path fill="none" stroke="midnightblue" d="M226.52,-531.08C215.83,-509.21 201.97,-480.99 189.5,-456 184.73,-446.45 179.7,-436.43 174.7,-426.52"/>
<polygon fill="none" stroke="midnightblue" points="223.5,-532.89 231.04,-540.34 229.79,-529.81 223.5,-532.89"/>
</g>
<!-- Node3&#45;&gt;Node1 -->
<g id="edge2" class="edge">
<title>Node3&#45;&gt;Node1</title>
<path fill="none" stroke="#404040" d="M352.26,-211.52C355.98,-217.61 359.43,-223.78 362.5,-230 365.27,-235.6 367.76,-241.5 370,-247.54"/>
<polygon fill="none" stroke="#404040" points="370.14,-247.94 375.86,-252.33 374,-259.3 368.28,-254.91 370.14,-247.94"/>
<text text-anchor="middle" x="401" y="-233" font-family="Courier New" font-size="10.00"> +VTUPlayer</text>
</g>
<!-- Node4&#45;&gt;Node3 -->
<g id="edge5" class="edge">
<title>Node4&#45;&gt;Node3</title>
<path fill="none" stroke="#404040" d="M148.82,-270.3C152.61,-256.51 157.42,-242.55 163.5,-230 164.75,-227.42 166.06,-224.84 167.43,-222.27"/>
<polygon fill="none" stroke="#404040" points="167.45,-222.22 166.9,-215.03 173.33,-211.76 173.88,-218.95 167.45,-222.22"/>
<text text-anchor="middle" x="197" y="-233" font-family="Courier New" font-size="10.00"> +fullPause</text>
</g>
<!-- Node5 -->
<g id="node5" class="node">
<title>Node5</title>
<g id="a_node5"><a xlink:href="../../d2/d43/class_c2_m2_1_1_interaction_1_1_raycast_press_events_1_1_raycast_hit_event.html" target="_top" xlink:title=" ">
<polygon fill="white" stroke="black" points="0,-535 0,-603 179,-603 179,-535 0,-535"/>
<text text-anchor="start" x="8" y="-591" font-family="Courier New" font-size="10.00">C2M2.Interaction.Raycast</text>
<text text-anchor="middle" x="89.5" y="-580" font-family="Courier New" font-size="10.00">PressEvents.RaycastHitEvent</text>
<polyline fill="none" stroke="black" points="0,-573 179,-573 "/>
<text text-anchor="middle" x="89.5" y="-561" font-family="Courier New" font-size="10.00"> </text>
<polyline fill="none" stroke="black" points="0,-554 179,-554 "/>
<text text-anchor="middle" x="89.5" y="-542" font-family="Courier New" font-size="10.00"> </text>
</a>
</g>
</g>
<!-- Node5&#45;&gt;Node4 -->
<g id="edge7" class="edge">
<title>Node5&#45;&gt;Node4</title>
<path fill="none" stroke="#404040" d="M96.49,-534.81C101.88,-509.18 109.61,-472.47 116.77,-438.46"/>
<polygon fill="none" stroke="#404040" points="116.8,-438.32 114.12,-431.62 119.27,-426.57 121.95,-433.27 116.8,-438.32"/>
<text text-anchor="middle" x="149" y="-503" font-family="Courier New" font-size="10.00"> &#45;onEndPress</text>
<text text-anchor="middle" x="149" y="-492" font-family="Courier New" font-size="10.00">&#45;onHoldPress</text>
<text text-anchor="middle" x="149" y="-481" font-family="Courier New" font-size="10.00">&#45;onHover</text>
<text text-anchor="middle" x="149" y="-470" font-family="Courier New" font-size="10.00">&#45;onHoverEnd</text>
<text text-anchor="middle" x="149" y="-459" font-family="Courier New" font-size="10.00">&#45;onPress</text>
</g>
<!-- Node6 -->
<g id="node6" class="node">
<title>Node6</title>
<g id="a_node6"><a xlink:title=" ">
<polygon fill="white" stroke="#bfbfbf" points="9,-646.5 9,-703.5 170,-703.5 170,-646.5 9,-646.5"/>
<text text-anchor="middle" x="89.5" y="-691.5" font-family="Courier New" font-size="10.00">UnityEvent&lt; RaycastHit &gt;</text>
<polyline fill="none" stroke="#bfbfbf" points="9,-684.5 170,-684.5 "/>
<text text-anchor="middle" x="89.5" y="-672.5" font-family="Courier New" font-size="10.00"> </text>
<polyline fill="none" stroke="#bfbfbf" points="9,-665.5 170,-665.5 "/>
<text text-anchor="middle" x="89.5" y="-653.5" font-family="Courier New" font-size="10.00"> </text>
</a>
</g>
</g>
<!-- Node6&#45;&gt;Node5 -->
<g id="edge8" class="edge">
<title>Node6&#45;&gt;Node5</title>
<path fill="none" stroke="midnightblue" d="M89.5,-636.37C89.5,-625.55 89.5,-613.83 89.5,-603.29"/>
<polygon fill="none" stroke="midnightblue" points="86,-636.4 89.5,-646.4 93,-636.4 86,-636.4"/>
</g>
<!-- Node7 -->
<g id="node7" class="node">
<title>Node7</title>
<g id="a_node7"><a xlink:href="../../da/da3/class_c2_m2_1_1_neuronal_dynamics_1_1_visualization_1_1_v_t_k_1_1_v_t_u_object_builder.html" target="_top" xlink:title="Overarching manager to control order of events for reading in VTK data, positioning it,...">
<polygon fill="white" stroke="black" points="310,-529.5 310,-608.5 543,-608.5 543,-529.5 310,-529.5"/>
<text text-anchor="start" x="318" y="-596.5" font-family="Courier New" font-size="10.00">C2M2.NeuronalDynamics.Visualization.</text>
<text text-anchor="middle" x="426.5" y="-585.5" font-family="Courier New" font-size="10.00">VTK.VTUObjectBuilder</text>
<polyline fill="none" stroke="black" points="310,-578.5 543,-578.5 "/>
<text text-anchor="middle" x="426.5" y="-566.5" font-family="Courier New" font-size="10.00"> </text>
<polyline fill="none" stroke="black" points="310,-559.5 543,-559.5 "/>
<text text-anchor="start" x="318" y="-547.5" font-family="Courier New" font-size="10.00">+ BuildVTUObjects()</text>
<text text-anchor="start" x="318" y="-536.5" font-family="Courier New" font-size="10.00">+ BuildVTUObjects()</text>
</a>
</g>
</g>
<!-- Node7&#45;&gt;Node1 -->
<g id="edge9" class="edge">
<title>Node7&#45;&gt;Node1</title>
<path fill="none" stroke="#404040" d="M419.97,-529.44C416.19,-507.14 411.25,-477.96 406.45,-449.61"/>
<polygon fill="none" stroke="#404040" points="406.41,-449.36 401.46,-444.11 404.41,-437.53 409.35,-442.77 406.41,-449.36"/>
<text text-anchor="middle" x="472" y="-481" font-family="Courier New" font-size="10.00"> &#45;vtuObjectBuilder</text>
</g>
</g>
</svg>
