<?xml version="1.0" encoding="UTF-8" standalone="no"?>
<!DOCTYPE svg PUBLIC "-//W3C//DTD SVG 1.1//EN"
 "http://www.w3.org/Graphics/SVG/1.1/DTD/svg11.dtd">
<!-- Generated by graphviz version 2.38.0 (20140413.2041)
 -->
<!-- Title: C2M2.NeuronalDynamics.Visualization.VTK.VTUManager Pages: 1 -->
<!--zoomable 701 -->
<svg id="main" version="1.1" xmlns="http://www.w3.org/2000/svg" xmlns:xlink="http://www.w3.org/1999/xlink" xml:space="preserve" onload="init(evt)">
<style type="text/css"><![CDATA[
.edge:hover path { stroke: red; }
.edge:hover polygon { stroke: red; fill: red; }
]]></style>
<script type="text/javascript"><![CDATA[
var edges = document.getElementsByTagName('g');
if (edges && edges.length) {
  for (var i=0;i<edges.length;i++) {
    if (edges[i].id.substr(0,4)=='edge') {
      edges[i].setAttribute('class','edge');
    }
  }
}
]]></script>
        <defs>
                <circle id="rim" cx="0" cy="0" r="7"/>
                <circle id="rim2" cx="0" cy="0" r="3.5"/>
                <g id="zoomPlus">
                        <use xlink:href="#rim" fill="#404040">
                                <set attributeName="fill" to="#808080" begin="zoomplus.mouseover" end="zoomplus.mouseout"/>
                        </use>
                        <path d="M-4,0h8M0,-4v8" fill="none" stroke="white" stroke-width="1.5" pointer-events="none"/>
                </g>
                <g id="zoomMin">
                        <use xlink:href="#rim" fill="#404040">
                                <set attributeName="fill" to="#808080" begin="zoomminus.mouseover" end="zoomminus.mouseout"/>
                        </use>
                        <path d="M-4,0h8" fill="none" stroke="white" stroke-width="1.5" pointer-events="none"/>
                </g>
                <g id="dirArrow">
                        <path fill="none" stroke="white" stroke-width="1.5" d="M0,-3.0v7 M-2.5,-0.5L0,-3.0L2.5,-0.5"/>
                </g>
               <g id="resetDef">
                       <use xlink:href="#rim2" fill="#404040">
                               <set attributeName="fill" to="#808080" begin="reset.mouseover" end="reset.mouseout"/>
                       </use>
               </g>
        </defs>

<script type="text/javascript">
var viewWidth = 551;
var viewHeight = 701;
var sectionId = 'dynsection-1';
</script>
<script xlink:href="../../svgpan.js"/>
<svg id="graph" class="graph">
<g id="viewport">
<title>C2M2.NeuronalDynamics.Visualization.VTK.VTUManager</title>
<polygon fill="white" stroke="none" points="-4,4 -4,-697 547,-697 547,4 -4,4"/>
<!-- Node1 -->
<g id="node1" class="node"><title>Node1</title>
<g id="a_node1"><a xlink:title=" ">
<polygon fill="#bfbfbf" stroke="black" points="273,-259.5 273,-448.5 506,-448.5 506,-259.5 273,-259.5"/>
<text text-anchor="start" x="281" y="-436.5" font-family="Courier New" font-size="10.00">C2M2.NeuronalDynamics.Visualization.</text>
<text text-anchor="middle" x="389.5" y="-425.5" font-family="Courier New" font-size="10.00">VTK.VTUManager</text>
<polyline fill="none" stroke="black" points="273,-418.5 506,-418.5 "/>
<text text-anchor="start" x="281" y="-406.5" font-family="Courier New" font-size="10.00">+ dataExtension</text>
<text text-anchor="start" x="281" y="-395.5" font-family="Courier New" font-size="10.00">+ dataPath</text>
<text text-anchor="start" x="281" y="-384.5" font-family="Courier New" font-size="10.00">+ fileProcessCount</text>
<text text-anchor="start" x="281" y="-373.5" font-family="Courier New" font-size="10.00">+ initialPosition</text>
<text text-anchor="start" x="281" y="-362.5" font-family="Courier New" font-size="10.00">+ initialRotation</text>
<text text-anchor="start" x="281" y="-351.5" font-family="Courier New" font-size="10.00">+ compoundColliderResolution</text>
<text text-anchor="start" x="281" y="-340.5" font-family="Courier New" font-size="10.00">+ adjacencyListSubdivisions</text>
<text text-anchor="start" x="281" y="-329.5" font-family="Courier New" font-size="10.00">+ vtuList</text>
<text text-anchor="start" x="281" y="-318.5" font-family="Courier New" font-size="10.00">+ gradient</text>
<text text-anchor="start" x="281" y="-307.5" font-family="Courier New" font-size="10.00">&#45; objectManager</text>
<text text-anchor="start" x="281" y="-296.5" font-family="Courier New" font-size="10.00">&#45; meshf</text>
<polyline fill="none" stroke="black" points="273,-289.5 506,-289.5 "/>
<text text-anchor="start" x="281" y="-277.5" font-family="Courier New" font-size="10.00">+ Initialize()</text>
<text text-anchor="start" x="281" y="-266.5" font-family="Courier New" font-size="10.00">&#45; BuildVTUList()</text>
</a>
</g>
</g>
<!-- Node3 -->
<g id="node3" class="node"><title>Node3</title>
<g id="a_node3"><a xlink:href="../../dc/d1d/class_c2_m2_1_1_neuronal_dynamics_1_1_visualization_1_1_v_t_k_1_1_v_t_u_player.html" target="_top" xlink:title=" ">
<polygon fill="white" stroke="black" points="148,-0.5 148,-211.5 381,-211.5 381,-0.5 148,-0.5"/>
<text text-anchor="start" x="156" y="-199.5" font-family="Courier New" font-size="10.00">C2M2.NeuronalDynamics.Visualization.</text>
<text text-anchor="middle" x="264.5" y="-188.5" font-family="Courier New" font-size="10.00">VTK.VTUPlayer</text>
<polyline fill="none" stroke="black" points="148,-181.5 381,-181.5 "/>
<text text-anchor="start" x="156" y="-169.5" font-family="Courier New" font-size="10.00">+ frameCountDisplay</text>
<text text-anchor="start" x="156" y="-158.5" font-family="Courier New" font-size="10.00">&#45; mf</text>
<text text-anchor="start" x="156" y="-147.5" font-family="Courier New" font-size="10.00">&#45; maxFrame</text>
<text text-anchor="start" x="156" y="-136.5" font-family="Courier New" font-size="10.00">&#45; slider</text>
<text text-anchor="start" x="156" y="-125.5" font-family="Courier New" font-size="10.00">&#45; formatString</text>
<text text-anchor="start" x="156" y="-114.5" font-family="Courier New" font-size="10.00">&#45; currentFrame</text>
<polyline fill="none" stroke="black" points="148,-107.5 381,-107.5 "/>
<text text-anchor="start" x="156" y="-95.5" font-family="Courier New" font-size="10.00">+ Initialize()</text>
<text text-anchor="start" x="156" y="-84.5" font-family="Courier New" font-size="10.00">+ Play()</text>
<text text-anchor="start" x="156" y="-73.5" font-family="Courier New" font-size="10.00">+ Pause()</text>
<text text-anchor="start" x="156" y="-62.5" font-family="Courier New" font-size="10.00">+ Rewind()</text>
<text text-anchor="start" x="156" y="-51.5" font-family="Courier New" font-size="10.00">+ NextFrame()</text>
<text text-anchor="start" x="156" y="-40.5" font-family="Courier New" font-size="10.00">+ PreviousFrame()</text>
<text text-anchor="start" x="156" y="-29.5" font-family="Courier New" font-size="10.00">&#45; NextFrameRepeating()</text>
<text text-anchor="start" x="156" y="-18.5" font-family="Courier New" font-size="10.00">&#45; PreviousFramePrevious()</text>
<text text-anchor="start" x="156" y="-7.5" font-family="Courier New" font-size="10.00">&#45; UpdateMesh()</text>
</a>
</g>
</g>
<!-- Node1&#45;&gt;Node3 -->
<g id="edge4" class="edge"><title>Node1&#45;&gt;Node3</title>
<path fill="none" stroke="#404040" d="M295.796,-259.26C291.986,-253.307 288.513,-247.206 285.5,-241 282.774,-235.385 280.388,-229.495 278.3,-223.449"/>
<polygon fill="none" stroke="#404040" points="278.197,-223.12 272.599,-218.576 274.641,-211.66 280.239,-216.204 278.197,-223.12"/>
<text text-anchor="middle" x="322" y="-233" font-family="Courier New" font-size="10.00"> +vtuManager</text>
</g>
<!-- Node2 -->
<g id="node2" class="node"><title>Node2</title>
<g id="a_node2"><a xlink:title=" ">
<polygon fill="white" stroke="#bfbfbf" points="197,-529.5 197,-586.5 292,-586.5 292,-529.5 197,-529.5"/>
<text text-anchor="middle" x="244.5" y="-574.5" font-family="Courier New" font-size="10.00">MonoBehaviour</text>
<polyline fill="none" stroke="#bfbfbf" points="197,-567.5 292,-567.5 "/>
<text text-anchor="middle" x="244.5" y="-555.5" font-family="Courier New" font-size="10.00"> </text>
<polyline fill="none" stroke="#bfbfbf" points="197,-548.5 292,-548.5 "/>
<text text-anchor="middle" x="244.5" y="-536.5" font-family="Courier New" font-size="10.00"> </text>
</a>
</g>
</g>
<!-- Node2&#45;&gt;Node1 -->
<g id="edge1" class="edge"><title>Node2&#45;&gt;Node1</title>
<path fill="none" stroke="midnightblue" d="M270.326,-521.022C284.912,-500.702 303.881,-474.276 322.381,-448.503"/>
<polygon fill="none" stroke="midnightblue" points="267.346,-519.172 264.358,-529.336 273.032,-523.254 267.346,-519.172"/>
</g>
<!-- Node2&#45;&gt;Node3 -->
<g id="edge3" class="edge"><title>Node2&#45;&gt;Node3</title>
<path fill="none" stroke="midnightblue" d="M246.185,-519.083C249.167,-452.001 255.469,-310.207 259.842,-211.814"/>
<polygon fill="none" stroke="midnightblue" points="242.684,-519.045 245.736,-529.19 249.677,-519.355 242.684,-519.045"/>
</g>
<!-- Node4 -->
<g id="node4" class="node"><title>Node4</title>
<g id="a_node4"><a xlink:href="../../d8/d68/class_c2_m2_1_1_interaction_1_1_raycast_press_events.html" target="_top" xlink:title="Store custom events that the corresponding RaycastTriggerManager will invoke">
<polygon fill="white" stroke="black" points="55,-298 55,-410 216,-410 216,-298 55,-298"/>
<text text-anchor="start" x="63" y="-398" font-family="Courier New" font-size="10.00">C2M2.Interaction.Raycast</text>
<text text-anchor="middle" x="135.5" y="-387" font-family="Courier New" font-size="10.00">PressEvents</text>
<polyline fill="none" stroke="black" points="55,-380 216,-380 "/>
<text text-anchor="start" x="63" y="-368" font-family="Courier New" font-size="10.00">+ OnPress</text>
<text text-anchor="start" x="63" y="-357" font-family="Courier New" font-size="10.00">+ OnHoldPress</text>
<text text-anchor="start" x="63" y="-346" font-family="Courier New" font-size="10.00">+ OnEndPress</text>
<polyline fill="none" stroke="black" points="55,-339 216,-339 "/>
<text text-anchor="start" x="63" y="-327" font-family="Courier New" font-size="10.00">+ Press()</text>
<text text-anchor="start" x="63" y="-316" font-family="Courier New" font-size="10.00">+ HoldPress()</text>
<text text-anchor="start" x="63" y="-305" font-family="Courier New" font-size="10.00">+ EndPress()</text>
</a>
</g>
</g>
<!-- Node2&#45;&gt;Node4 -->
<g id="edge6" class="edge"><title>Node2&#45;&gt;Node4</title>
<path fill="none" stroke="midnightblue" d="M224.669,-520.248C208.064,-489.476 184.117,-445.097 165.22,-410.077"/>
<polygon fill="none" stroke="midnightblue" points="221.744,-522.198 229.573,-529.336 227.904,-518.874 221.744,-522.198"/>
</g>
<!-- Node3&#45;&gt;Node1 -->
<g id="edge2" class="edge"><title>Node3&#45;&gt;Node1</title>
<path fill="none" stroke="#404040" d="M352.71,-211.656C356.269,-217.705 359.565,-223.837 362.5,-230 365.192,-235.653 367.62,-241.581 369.808,-247.652"/>
<polygon fill="none" stroke="#404040" points="369.95,-248.077 375.636,-252.511 373.73,-259.466 368.043,-255.031 369.95,-248.077"/>
<text text-anchor="middle" x="401" y="-233" font-family="Courier New" font-size="10.00"> +VTUPlayer</text>
</g>
<!-- Node4&#45;&gt;Node3 -->
<g id="edge5" class="edge"><title>Node4&#45;&gt;Node3</title>
<path fill="none" stroke="#404040" d="M142.434,-297.886C146.605,-275.983 153.188,-251.043 163.5,-230 164.782,-227.383 166.131,-224.773 167.537,-222.174"/>
<polygon fill="none" stroke="#404040" points="167.655,-221.967 167.171,-214.772 173.627,-211.558 174.111,-218.753 167.655,-221.967"/>
<text text-anchor="middle" x="197" y="-233" font-family="Courier New" font-size="10.00"> +fullPause</text>
</g>
<!-- Node5 -->
<g id="node5" class="node"><title>Node5</title>
<g id="a_node5"><a xlink:href="../../d2/d43/class_c2_m2_1_1_interaction_1_1_raycast_press_events_1_1_raycast_hit_event.html" target="_top" xlink:title=" ">
<polygon fill="white" stroke="black" points="0,-524 0,-592 179,-592 179,-524 0,-524"/>
<text text-anchor="start" x="8" y="-580" font-family="Courier New" font-size="10.00">C2M2.Interaction.Raycast</text>
<text text-anchor="middle" x="89.5" y="-569" font-family="Courier New" font-size="10.00">PressEvents.RaycastHitEvent</text>
<polyline fill="none" stroke="black" points="0,-562 179,-562 "/>
<text text-anchor="middle" x="89.5" y="-550" font-family="Courier New" font-size="10.00"> </text>
<polyline fill="none" stroke="black" points="0,-543 179,-543 "/>
<text text-anchor="middle" x="89.5" y="-531" font-family="Courier New" font-size="10.00"> </text>
</a>
</g>
</g>
<!-- Node5&#45;&gt;Node4 -->
<g id="edge7" class="edge"><title>Node5&#45;&gt;Node4</title>
<path fill="none" stroke="#404040" d="M97.096,-523.644C103.373,-496.078 112.484,-456.071 120.256,-421.94"/>
<polygon fill="none" stroke="#404040" points="120.278,-421.844 117.71,-415.105 122.943,-410.143 125.511,-416.882 120.278,-421.844"/>
<text text-anchor="middle" x="147" y="-492" font-family="Courier New" font-size="10.00"> &#45;onPress</text>
<text text-anchor="middle" x="147" y="-481" font-family="Courier New" font-size="10.00">&#45;onHoldPress</text>
<text text-anchor="middle" x="147" y="-470" font-family="Courier New" font-size="10.00">&#45;onEndPress</text>
</g>
<!-- Node6 -->
<g id="node6" class="node"><title>Node6</title>
<g id="a_node6"><a xlink:title=" ">
<polygon fill="white" stroke="#bfbfbf" points="9,-635.5 9,-692.5 170,-692.5 170,-635.5 9,-635.5"/>
<text text-anchor="middle" x="89.5" y="-680.5" font-family="Courier New" font-size="10.00">UnityEvent&lt; RaycastHit &gt;</text>
<polyline fill="none" stroke="#bfbfbf" points="9,-673.5 170,-673.5 "/>
<text text-anchor="middle" x="89.5" y="-661.5" font-family="Courier New" font-size="10.00"> </text>
<polyline fill="none" stroke="#bfbfbf" points="9,-654.5 170,-654.5 "/>
<text text-anchor="middle" x="89.5" y="-642.5" font-family="Courier New" font-size="10.00"> </text>
</a>
</g>
</g>
<!-- Node6&#45;&gt;Node5 -->
<g id="edge8" class="edge"><title>Node6&#45;&gt;Node5</title>
<path fill="none" stroke="midnightblue" d="M89.5,-625.372C89.5,-614.55 89.5,-602.828 89.5,-592.288"/>
<polygon fill="none" stroke="midnightblue" points="86.0001,-625.403 89.5,-635.403 93.0001,-625.403 86.0001,-625.403"/>
</g>
<!-- Node7 -->
<g id="node7" class="node"><title>Node7</title>
<g id="a_node7"><a xlink:href="../../da/da3/class_c2_m2_1_1_neuronal_dynamics_1_1_visualization_1_1_v_t_k_1_1_v_t_u_object_builder.html" target="_top" xlink:title="Overarching manager to control order of events for reading in VTK data, positioning it,...">
<polygon fill="white" stroke="black" points="310,-518.5 310,-597.5 543,-597.5 543,-518.5 310,-518.5"/>
<text text-anchor="start" x="318" y="-585.5" font-family="Courier New" font-size="10.00">C2M2.NeuronalDynamics.Visualization.</text>
<text text-anchor="middle" x="426.5" y="-574.5" font-family="Courier New" font-size="10.00">VTK.VTUObjectBuilder</text>
<polyline fill="none" stroke="black" points="310,-567.5 543,-567.5 "/>
<text text-anchor="middle" x="426.5" y="-555.5" font-family="Courier New" font-size="10.00"> </text>
<polyline fill="none" stroke="black" points="310,-548.5 543,-548.5 "/>
<text text-anchor="start" x="318" y="-536.5" font-family="Courier New" font-size="10.00">+ BuildVTUObjects()</text>
<text text-anchor="start" x="318" y="-525.5" font-family="Courier New" font-size="10.00">+ BuildVTUObjects()</text>
</a>
</g>
</g>
<!-- Node7&#45;&gt;Node1 -->
<g id="edge9" class="edge"><title>Node7&#45;&gt;Node1</title>
<path fill="none" stroke="#404040" d="M419.366,-518.052C416.329,-501.473 412.625,-481.25 408.873,-460.766"/>
<polygon fill="none" stroke="#404040" points="408.825,-460.504 403.81,-455.323 406.663,-448.701 411.679,-453.882 408.825,-460.504"/>
<text text-anchor="middle" x="471" y="-481" font-family="Courier New" font-size="10.00"> &#45;vtuObjectBuilder</text>
</g>
</g>
</svg>
        <g id="navigator" transform="translate(0 0)" fill="#404254">
                <rect fill="#f2f5e9" fill-opacity="0.5" stroke="#606060" stroke-width=".5" x="0" y="0" width="60" height="60"/>
                <use id="zoomplus" xlink:href="#zoomPlus" x="17" y="9" onmousedown="handleZoom(evt,'in')"/>
                <use id="zoomminus" xlink:href="#zoomMin" x="42" y="9" onmousedown="handleZoom(evt,'out')"/>
                <use id="reset" xlink:href="#resetDef" x="30" y="36" onmousedown="handleReset()"/>
                <g id="arrowUp" xlink:href="#dirArrow" transform="translate(30 24)" onmousedown="handlePan(0,-1)">
                  <use xlink:href="#rim" fill="#404040">
                        <set attributeName="fill" to="#808080" begin="arrowUp.mouseover" end="arrowUp.mouseout"/>
                  </use>
                  <path fill="none" stroke="white" stroke-width="1.5" d="M0,-3.0v7 M-2.5,-0.5L0,-3.0L2.5,-0.5"/>
                </g>
                <g id="arrowRight" xlink:href="#dirArrow" transform="rotate(90) translate(36 -43)" onmousedown="handlePan(1,0)">
                  <use xlink:href="#rim" fill="#404040">
                        <set attributeName="fill" to="#808080" begin="arrowRight.mouseover" end="arrowRight.mouseout"/>
                  </use>
                  <path fill="none" stroke="white" stroke-width="1.5" d="M0,-3.0v7 M-2.5,-0.5L0,-3.0L2.5,-0.5"/>
                </g>
                <g id="arrowDown" xlink:href="#dirArrow" transform="rotate(180) translate(-30 -48)" onmousedown="handlePan(0,1)">
                  <use xlink:href="#rim" fill="#404040">
                        <set attributeName="fill" to="#808080" begin="arrowDown.mouseover" end="arrowDown.mouseout"/>
                  </use>
                  <path fill="none" stroke="white" stroke-width="1.5" d="M0,-3.0v7 M-2.5,-0.5L0,-3.0L2.5,-0.5"/>
                </g>
                <g id="arrowLeft" xlink:href="#dirArrow" transform="rotate(270) translate(-36 17)" onmousedown="handlePan(-1,0)">
                  <use xlink:href="#rim" fill="#404040">
                        <set attributeName="fill" to="#808080" begin="arrowLeft.mouseover" end="arrowLeft.mouseout"/>
                  </use>
                  <path fill="none" stroke="white" stroke-width="1.5" d="M0,-3.0v7 M-2.5,-0.5L0,-3.0L2.5,-0.5"/>
                </g>
        </g>
        <svg viewBox="0 0 15 15" width="100%" height="30px" preserveAspectRatio="xMaxYMin meet">
         <g id="arrow_out" transform="scale(0.3 0.3)">
          <a xlink:href="class_c2_m2_1_1_neuronal_dynamics_1_1_visualization_1_1_v_t_k_1_1_v_t_u_manager__coll__graph_org.svg" target="_base">
           <rect id="button" ry="5" rx="5" y="6" x="6" height="38" width="38"
                fill="#f2f5e9" fill-opacity="0.5" stroke="#606060" stroke-width="1.0"/>
           <path id="arrow"
             d="M 11.500037,31.436501 C 11.940474,20.09759 22.043105,11.32322 32.158766,21.979434 L 37.068811,17.246167 C 37.068811,17.246167 37.088388,32 37.088388,32 L 22.160133,31.978069 C 22.160133,31.978069 26.997745,27.140456 26.997745,27.140456 C 18.528582,18.264221 13.291696,25.230495 11.500037,31.436501 z"
             style="fill:#404040;"/>
          </a>
         </g>
        </svg>
</svg>
