<?xml version="1.0" encoding="UTF-8" standalone="no"?>
<!DOCTYPE svg PUBLIC "-//W3C//DTD SVG 1.1//EN"
 "http://www.w3.org/Graphics/SVG/1.1/DTD/svg11.dtd">
<!-- Generated by graphviz version 2.38.0 (20140413.2041)
 -->
<!-- Title: C2M2.NeuronalDynamics.Simulation.CellSolver2 Pages: 1 -->
<svg width="452pt" height="1213pt"
 viewBox="0.00 0.00 451.50 1213.00" xmlns="http://www.w3.org/2000/svg" xmlns:xlink="http://www.w3.org/1999/xlink">
<g id="graph0" class="graph" transform="scale(1 1) rotate(0) translate(4 1209)">
<title>C2M2.NeuronalDynamics.Simulation.CellSolver2</title>
<polygon fill="white" stroke="none" points="-4,4 -4,-1209 447.5,-1209 447.5,4 -4,4"/>
<!-- Node1 -->
<g id="node1" class="node"><title>Node1</title>
<g id="a_node1"><a xlink:title=" ">
<polygon fill="#bfbfbf" stroke="black" points="155,-0.5 155,-354.5 370,-354.5 370,-0.5 155,-0.5"/>
<text text-anchor="start" x="163" y="-342.5" font-family="Courier New" font-size="10.00">C2M2.NeuronalDynamics.Simulation.</text>
<text text-anchor="middle" x="262.5" y="-331.5" font-family="Courier New" font-size="10.00">CellSolver2</text>
<polyline fill="none" stroke="black" points="155,-324.5 370,-324.5 "/>
<text text-anchor="start" x="163" y="-312.5" font-family="Courier New" font-size="10.00">+ res</text>
<text text-anchor="start" x="163" y="-301.5" font-family="Courier New" font-size="10.00">+ gk</text>
<text text-anchor="start" x="163" y="-290.5" font-family="Courier New" font-size="10.00">+ gna</text>
<text text-anchor="start" x="163" y="-279.5" font-family="Courier New" font-size="10.00">+ gl</text>
<text text-anchor="start" x="163" y="-268.5" font-family="Courier New" font-size="10.00">+ ek</text>
<text text-anchor="start" x="163" y="-257.5" font-family="Courier New" font-size="10.00">+ ena</text>
<text text-anchor="start" x="163" y="-246.5" font-family="Courier New" font-size="10.00">+ el</text>
<text text-anchor="start" x="163" y="-235.5" font-family="Courier New" font-size="10.00">+ cap</text>
<text text-anchor="start" x="163" y="-224.5" font-family="Courier New" font-size="10.00">+ ni</text>
<text text-anchor="start" x="163" y="-213.5" font-family="Courier New" font-size="10.00">+ vstart</text>
<text text-anchor="start" x="163" y="-202.5" font-family="Courier New" font-size="10.00">&#45; U</text>
<text text-anchor="start" x="163" y="-191.5" font-family="Courier New" font-size="10.00">&#45; i</text>
<text text-anchor="start" x="163" y="-180.5" font-family="Courier New" font-size="10.00">&#45; mi</text>
<text text-anchor="start" x="163" y="-169.5" font-family="Courier New" font-size="10.00">&#45; hi</text>
<polyline fill="none" stroke="black" points="155,-162.5 370,-162.5 "/>
<text text-anchor="start" x="163" y="-150.5" font-family="Courier New" font-size="10.00">+ initialConditions()</text>
<text text-anchor="start" x="163" y="-139.5" font-family="Courier New" font-size="10.00"># SetNeuronCell()</text>
<text text-anchor="start" x="163" y="-128.5" font-family="Courier New" font-size="10.00"># Get1DValues()</text>
<text text-anchor="start" x="163" y="-117.5" font-family="Courier New" font-size="10.00"># Set1DValues()</text>
<text text-anchor="start" x="163" y="-106.5" font-family="Courier New" font-size="10.00"># Solve()</text>
<text text-anchor="start" x="163" y="-95.5" font-family="Courier New" font-size="10.00">&#45; GetColumn()</text>
<text text-anchor="start" x="163" y="-84.5" font-family="Courier New" font-size="10.00">&#45; SetBoundaryConditions()</text>
<text text-anchor="start" x="163" y="-73.5" font-family="Courier New" font-size="10.00">&#45; ReactF()</text>
<text text-anchor="start" x="163" y="-62.5" font-family="Courier New" font-size="10.00">&#45; an()</text>
<text text-anchor="start" x="163" y="-51.5" font-family="Courier New" font-size="10.00">&#45; bn()</text>
<text text-anchor="start" x="163" y="-40.5" font-family="Courier New" font-size="10.00">&#45; am()</text>
<text text-anchor="start" x="163" y="-29.5" font-family="Courier New" font-size="10.00">&#45; bm()</text>
<text text-anchor="start" x="163" y="-18.5" font-family="Courier New" font-size="10.00">&#45; ah()</text>
<text text-anchor="start" x="163" y="-7.5" font-family="Courier New" font-size="10.00">&#45; bh()</text>
</a>
</g>
</g>
<!-- Node2 -->
<g id="node2" class="node"><title>Node2</title>
<g id="a_node2"><a xlink:href="../../d4/d5a/class_c2_m2_1_1_neuronal_dynamics_1_1_simulation_1_1_neuron_simulation1_d.html" target="_top" xlink:title="Provide an interface for 1D neuron&#45;surface simulations to be visualized and interacted with">
<polygon fill="white" stroke="black" points="81,-402.5 81,-624.5 230,-624.5 230,-402.5 81,-402.5"/>
<text text-anchor="middle" x="155.5" y="-612.5" font-family="Courier New" font-size="10.00">NeuronSimulation1D</text>
<polyline fill="none" stroke="black" points="81,-605.5 230,-605.5 "/>
<text text-anchor="start" x="89" y="-593.5" font-family="Courier New" font-size="10.00">+ visualize1D</text>
<text text-anchor="start" x="89" y="-582.5" font-family="Courier New" font-size="10.00">+ color1D</text>
<text text-anchor="start" x="89" y="-571.5" font-family="Courier New" font-size="10.00">+ lineWidth1D</text>
<text text-anchor="start" x="89" y="-560.5" font-family="Courier New" font-size="10.00">&#45; map</text>
<text text-anchor="start" x="89" y="-549.5" font-family="Courier New" font-size="10.00">&#45; neuronCellFolder</text>
<text text-anchor="start" x="89" y="-538.5" font-family="Courier New" font-size="10.00">&#45; activeCellFolder</text>
<text text-anchor="start" x="89" y="-527.5" font-family="Courier New" font-size="10.00">&#45; ugxExt</text>
<text text-anchor="start" x="89" y="-516.5" font-family="Courier New" font-size="10.00">&#45; cngExt</text>
<text text-anchor="start" x="89" y="-505.5" font-family="Courier New" font-size="10.00">&#45; spec1D</text>
<text text-anchor="start" x="89" y="-494.5" font-family="Courier New" font-size="10.00">&#45; specTris</text>
<text text-anchor="start" x="89" y="-483.5" font-family="Courier New" font-size="10.00">&#45; specBlownup</text>
<polyline fill="none" stroke="black" points="81,-476.5 230,-476.5 "/>
<text text-anchor="start" x="89" y="-464.5" font-family="Courier New" font-size="10.00">+ GetValues()</text>
<text text-anchor="start" x="89" y="-453.5" font-family="Courier New" font-size="10.00">+ SetValues()</text>
<text text-anchor="start" x="89" y="-442.5" font-family="Courier New" font-size="10.00"># Set1DValues()</text>
<text text-anchor="start" x="89" y="-431.5" font-family="Courier New" font-size="10.00"># Get1DValues()</text>
<text text-anchor="start" x="89" y="-420.5" font-family="Courier New" font-size="10.00"># SetNeuronCell()</text>
<text text-anchor="start" x="89" y="-409.5" font-family="Courier New" font-size="10.00"># BuildVisualization()</text>
</a>
</g>
</g>
<!-- Node2&#45;&gt;Node1 -->
<g id="edge1" class="edge"><title>Node2&#45;&gt;Node1</title>
<path fill="none" stroke="midnightblue" d="M193.962,-392.44C197.899,-380.152 201.954,-367.495 206.032,-354.766"/>
<polygon fill="none" stroke="midnightblue" points="190.55,-391.619 190.832,-402.21 197.216,-393.755 190.55,-391.619"/>
</g>
<!-- Node3 -->
<g id="node3" class="node"><title>Node3</title>
<g id="a_node3"><a xlink:href="../../d4/de1/class_c2_m2_1_1_simulation_1_1_surface_simulation.html" target="_top" xlink:title="Simulation of type double[] for visualizing scalar fields on mesh surfaces">
<polygon fill="white" stroke="black" points="16,-694.5 16,-828.5 171,-828.5 171,-694.5 16,-694.5"/>
<text text-anchor="middle" x="93.5" y="-816.5" font-family="Courier New" font-size="10.00">SurfaceSimulation</text>
<polyline fill="none" stroke="black" points="16,-809.5 171,-809.5 "/>
<text text-anchor="start" x="24" y="-797.5" font-family="Courier New" font-size="10.00">+ gradient</text>
<text text-anchor="start" x="24" y="-786.5" font-family="Courier New" font-size="10.00">+ globalMax</text>
<text text-anchor="start" x="24" y="-775.5" font-family="Courier New" font-size="10.00">+ globalMin</text>
<text text-anchor="start" x="24" y="-764.5" font-family="Courier New" font-size="10.00">+ colorLUT</text>
<text text-anchor="start" x="24" y="-753.5" font-family="Courier New" font-size="10.00">&#45; mf</text>
<text text-anchor="start" x="24" y="-742.5" font-family="Courier New" font-size="10.00">&#45; mr</text>
<polyline fill="none" stroke="black" points="16,-735.5 171,-735.5 "/>
<text text-anchor="start" x="24" y="-723.5" font-family="Courier New" font-size="10.00"># UpdateVisualization()</text>
<text text-anchor="start" x="24" y="-712.5" font-family="Courier New" font-size="10.00"># OnAwake()</text>
<text text-anchor="start" x="24" y="-701.5" font-family="Courier New" font-size="10.00">&#45; UpdateVisualization()</text>
</a>
</g>
</g>
<!-- Node3&#45;&gt;Node2 -->
<g id="edge2" class="edge"><title>Node3&#45;&gt;Node2</title>
<path fill="none" stroke="midnightblue" d="M112.654,-684.5C117.438,-665.521 122.664,-644.784 127.771,-624.523"/>
<polygon fill="none" stroke="midnightblue" points="109.247,-683.701 110.196,-694.253 116.034,-685.412 109.247,-683.701"/>
</g>
<!-- Node4 -->
<g id="node4" class="node"><title>Node4</title>
<g id="a_node4"><a xlink:href="../../db/d39/class_c2_m2_1_1_simulation_1_1_simulation.html" target="_top" xlink:title=" ">
<polygon fill="white" stroke="black" points="0,-876.5 0,-1109.5 155,-1109.5 155,-876.5 0,-876.5"/>
<text text-anchor="start" x="8" y="-1097.5" font-family="Courier New" font-size="10.00">Simulation&lt; double</text>
<text text-anchor="middle" x="77.5" y="-1086.5" font-family="Courier New" font-size="10.00">[], Mesh &gt;</text>
<polyline fill="none" stroke="black" points="0,-1079.5 155,-1079.5 "/>
<text text-anchor="start" x="8" y="-1067.5" font-family="Courier New" font-size="10.00">+ startOnAwake</text>
<text text-anchor="start" x="8" y="-1056.5" font-family="Courier New" font-size="10.00"># mutex</text>
<text text-anchor="start" x="8" y="-1045.5" font-family="Courier New" font-size="10.00">&#45; solveThread</text>
<polyline fill="none" stroke="black" points="0,-1038.5 155,-1038.5 "/>
<text text-anchor="start" x="8" y="-1026.5" font-family="Courier New" font-size="10.00">+ GetValues()</text>
<text text-anchor="start" x="8" y="-1015.5" font-family="Courier New" font-size="10.00">+ StartSimulation()</text>
<text text-anchor="start" x="8" y="-1004.5" font-family="Courier New" font-size="10.00">+ StopSimulation()</text>
<text text-anchor="start" x="8" y="-993.5" font-family="Courier New" font-size="10.00">+ Awake()</text>
<text text-anchor="start" x="8" y="-982.5" font-family="Courier New" font-size="10.00">+ Start()</text>
<text text-anchor="start" x="8" y="-971.5" font-family="Courier New" font-size="10.00">+ Update()</text>
<text text-anchor="start" x="8" y="-960.5" font-family="Courier New" font-size="10.00"># BuildVisualization()</text>
<text text-anchor="start" x="8" y="-949.5" font-family="Courier New" font-size="10.00"># UpdateVisualization()</text>
<text text-anchor="start" x="8" y="-938.5" font-family="Courier New" font-size="10.00"># Solve()</text>
<text text-anchor="start" x="8" y="-927.5" font-family="Courier New" font-size="10.00"># OnAwake()</text>
<text text-anchor="start" x="8" y="-916.5" font-family="Courier New" font-size="10.00"># OnStart()</text>
<text text-anchor="start" x="8" y="-905.5" font-family="Courier New" font-size="10.00"># OnUpdate()</text>
<text text-anchor="start" x="8" y="-894.5" font-family="Courier New" font-size="10.00">&#45; OnApplicationPause()</text>
<text text-anchor="start" x="8" y="-883.5" font-family="Courier New" font-size="10.00">&#45; OnApplicationQuit()</text>
</a>
</g>
</g>
<!-- Node4&#45;&gt;Node3 -->
<g id="edge3" class="edge"><title>Node4&#45;&gt;Node3</title>
<path fill="none" stroke="midnightblue" d="M86.2916,-865.895C87.1886,-853.029 88.0721,-840.356 88.8966,-828.53"/>
<polygon fill="none" stroke="midnightblue" points="82.7744,-866.022 85.5703,-876.241 89.7574,-866.509 82.7744,-866.022"/>
</g>
<!-- Node5 -->
<g id="node5" class="node"><title>Node5</title>
<g id="a_node5"><a xlink:href="../../da/d4f/class_c2_m2_1_1_visualization_1_1_l_u_t_gradient.html" target="_top" xlink:title="Create a fast and memory&#45;friendly color lookup table from a gradient">
<polygon fill="white" stroke="black" points="173,-909.5 173,-1076.5 370,-1076.5 370,-909.5 173,-909.5"/>
<text text-anchor="middle" x="271.5" y="-1064.5" font-family="Courier New" font-size="10.00">C2M2.Visualization.LUTGradient</text>
<polyline fill="none" stroke="black" points="173,-1057.5 370,-1057.5 "/>
<text text-anchor="start" x="181" y="-1045.5" font-family="Courier New" font-size="10.00">+ extremaMethod</text>
<text text-anchor="start" x="181" y="-1034.5" font-family="Courier New" font-size="10.00">+ globalMax</text>
<text text-anchor="start" x="181" y="-1023.5" font-family="Courier New" font-size="10.00">+ globalMin</text>
<text text-anchor="start" x="181" y="-1012.5" font-family="Courier New" font-size="10.00">+ LutRes</text>
<text text-anchor="start" x="181" y="-1001.5" font-family="Courier New" font-size="10.00">+ Gradient</text>
<text text-anchor="start" x="181" y="-990.5" font-family="Courier New" font-size="10.00">+ gradientLUT</text>
<text text-anchor="start" x="181" y="-979.5" font-family="Courier New" font-size="10.00">&#45; lutRes</text>
<text text-anchor="start" x="181" y="-968.5" font-family="Courier New" font-size="10.00">&#45; gradient</text>
<polyline fill="none" stroke="black" points="173,-961.5 370,-961.5 "/>
<text text-anchor="start" x="181" y="-949.5" font-family="Courier New" font-size="10.00">+ Evaluate()</text>
<text text-anchor="start" x="181" y="-938.5" font-family="Courier New" font-size="10.00">+ Evaluate()</text>
<text text-anchor="start" x="181" y="-927.5" font-family="Courier New" font-size="10.00">&#45; BuildLUT()</text>
<text text-anchor="start" x="181" y="-916.5" font-family="Courier New" font-size="10.00">&#45; RescaleArray()</text>
</a>
</g>
</g>
<!-- Node5&#45;&gt;Node3 -->
<g id="edge4" class="edge"><title>Node5&#45;&gt;Node3</title>
<path fill="none" stroke="#404040" d="M207.489,-909.469C189.437,-886.194 169.891,-860.993 152.169,-838.143"/>
<polygon fill="none" stroke="#404040" points="152.049,-837.989 145.211,-835.699 144.694,-828.506 151.532,-830.796 152.049,-837.989"/>
<text text-anchor="middle" x="213" y="-850" font-family="Courier New" font-size="10.00"> +extremaMethod</text>
</g>
<!-- Node6 -->
<g id="node6" class="node"><title>Node6</title>
<g id="a_node6"><a xlink:title=" ">
<polygon fill="white" stroke="#bfbfbf" points="224,-1147.5 224,-1204.5 319,-1204.5 319,-1147.5 224,-1147.5"/>
<text text-anchor="middle" x="271.5" y="-1192.5" font-family="Courier New" font-size="10.00">MonoBehaviour</text>
<polyline fill="none" stroke="#bfbfbf" points="224,-1185.5 319,-1185.5 "/>
<text text-anchor="middle" x="271.5" y="-1173.5" font-family="Courier New" font-size="10.00"> </text>
<polyline fill="none" stroke="#bfbfbf" points="224,-1166.5 319,-1166.5 "/>
<text text-anchor="middle" x="271.5" y="-1154.5" font-family="Courier New" font-size="10.00"> </text>
</a>
</g>
</g>
<!-- Node6&#45;&gt;Node5 -->
<g id="edge5" class="edge"><title>Node6&#45;&gt;Node5</title>
<path fill="none" stroke="midnightblue" d="M271.5,-1136.75C271.5,-1119.22 271.5,-1097.71 271.5,-1076.75"/>
<polygon fill="none" stroke="midnightblue" points="268,-1137.12 271.5,-1147.12 275,-1137.12 268,-1137.12"/>
</g>
<!-- Node7 -->
<g id="node7" class="node"><title>Node7</title>
<g id="a_node7"><a xlink:title=" ">
<polygon fill="white" stroke="#bfbfbf" points="189,-733 189,-790 230,-790 230,-733 189,-733"/>
<text text-anchor="middle" x="209.5" y="-778" font-family="Courier New" font-size="10.00">C2M2</text>
<polyline fill="none" stroke="#bfbfbf" points="189,-771 230,-771 "/>
<text text-anchor="middle" x="209.5" y="-759" font-family="Courier New" font-size="10.00"> </text>
<polyline fill="none" stroke="#bfbfbf" points="189,-752 230,-752 "/>
<text text-anchor="middle" x="209.5" y="-740" font-family="Courier New" font-size="10.00"> </text>
</a>
</g>
</g>
<!-- Node7&#45;&gt;Node2 -->
<g id="edge6" class="edge"><title>Node7&#45;&gt;Node2</title>
<path fill="none" stroke="#404040" d="M203.41,-732.759C198.159,-708.835 190.188,-672.522 182.246,-636.343"/>
<polygon fill="none" stroke="#404040" points="182.245,-636.338 177.052,-631.335 179.672,-624.617 184.866,-629.62 182.245,-636.338"/>
<text text-anchor="middle" x="215" y="-657" font-family="Courier New" font-size="10.00"> #grid1D</text>
</g>
<!-- Node8 -->
<g id="node8" class="node"><title>Node8</title>
<g id="a_node8"><a xlink:href="../../da/df6/class_c2_m2_1_1_neuronal_dynamics_1_1_u_g_x_1_1_neuron_cell.html" target="_top" xlink:title=" ">
<polygon fill="white" stroke="black" points="248,-413.5 248,-613.5 421,-613.5 421,-413.5 248,-413.5"/>
<text text-anchor="start" x="256" y="-601.5" font-family="Courier New" font-size="10.00">C2M2.NeuronalDynamics.UGX.</text>
<text text-anchor="middle" x="334.5" y="-590.5" font-family="Courier New" font-size="10.00">NeuronCell</text>
<polyline fill="none" stroke="black" points="248,-583.5 421,-583.5 "/>
<text text-anchor="start" x="256" y="-571.5" font-family="Courier New" font-size="10.00">+ nodeData</text>
<text text-anchor="start" x="256" y="-560.5" font-family="Courier New" font-size="10.00">+ edges</text>
<text text-anchor="start" x="256" y="-549.5" font-family="Courier New" font-size="10.00">+ edgeLengths</text>
<text text-anchor="start" x="256" y="-538.5" font-family="Courier New" font-size="10.00">+ boundaryID</text>
<text text-anchor="start" x="256" y="-527.5" font-family="Courier New" font-size="10.00">+ somaID</text>
<text text-anchor="start" x="256" y="-516.5" font-family="Courier New" font-size="10.00">+ vertCount</text>
<text text-anchor="start" x="256" y="-505.5" font-family="Courier New" font-size="10.00">+ edgeCount</text>
<polyline fill="none" stroke="black" points="248,-498.5 421,-498.5 "/>
<text text-anchor="start" x="256" y="-486.5" font-family="Courier New" font-size="10.00">+ NeuronCell()</text>
<text text-anchor="start" x="256" y="-475.5" font-family="Courier New" font-size="10.00">+ ReadDataTable()</text>
<text text-anchor="start" x="256" y="-464.5" font-family="Courier New" font-size="10.00">+ NodeToString()</text>
<text text-anchor="start" x="256" y="-453.5" font-family="Courier New" font-size="10.00">+ EdgeToString()</text>
<text text-anchor="start" x="256" y="-442.5" font-family="Courier New" font-size="10.00">+ ToString()</text>
<text text-anchor="start" x="256" y="-431.5" font-family="Courier New" font-size="10.00">&#45; NodeNeighborsToString()</text>
<text text-anchor="start" x="256" y="-420.5" font-family="Courier New" font-size="10.00">&#45; GetEdgeLength()</text>
</a>
</g>
</g>
<!-- Node8&#45;&gt;Node1 -->
<g id="edge7" class="edge"><title>Node8&#45;&gt;Node1</title>
<path fill="none" stroke="#404040" d="M313.093,-413.193C309.874,-398.261 306.467,-382.46 303.005,-366.397"/>
<polygon fill="none" stroke="#404040" points="303.004,-366.393 297.829,-361.371 300.475,-354.663 305.65,-359.685 303.004,-366.393"/>
<text text-anchor="middle" x="330" y="-376" font-family="Courier New" font-size="10.00"> &#45;myCell</text>
</g>
<!-- Node9 -->
<g id="node9" class="node"><title>Node9</title>
<g id="a_node9"><a xlink:title=" ">
<polygon fill="white" stroke="#bfbfbf" points="308,-733 308,-790 361,-790 361,-733 308,-733"/>
<text text-anchor="middle" x="334.5" y="-778" font-family="Courier New" font-size="10.00">static</text>
<polyline fill="none" stroke="#bfbfbf" points="308,-771 361,-771 "/>
<text text-anchor="middle" x="334.5" y="-759" font-family="Courier New" font-size="10.00"> </text>
<polyline fill="none" stroke="#bfbfbf" points="308,-752 361,-752 "/>
<text text-anchor="middle" x="334.5" y="-740" font-family="Courier New" font-size="10.00"> </text>
</a>
</g>
</g>
<!-- Node9&#45;&gt;Node8 -->
<g id="edge8" class="edge"><title>Node9&#45;&gt;Node8</title>
<path fill="none" stroke="#404040" d="M334.5,-732.759C334.5,-706.511 334.5,-665.35 334.5,-625.815"/>
<polygon fill="none" stroke="#404040" points="334.5,-625.615 330.5,-619.615 334.5,-613.615 338.5,-619.615 334.5,-625.615"/>
<text text-anchor="middle" x="389" y="-668" font-family="Courier New" font-size="10.00"> &#45;nodeFormatString</text>
<text text-anchor="middle" x="389" y="-657" font-family="Courier New" font-size="10.00">&#45;edgeFormatString</text>
<text text-anchor="middle" x="389" y="-646" font-family="Courier New" font-size="10.00">&#45;cellFormatString</text>
</g>
</g>
</svg>
