<?xml version="1.0" encoding="UTF-8" standalone="no"?>
<!DOCTYPE svg PUBLIC "-//W3C//DTD SVG 1.1//EN"
 "http://www.w3.org/Graphics/SVG/1.1/DTD/svg11.dtd">
<!-- Generated by graphviz version 2.46.0 (20210118.1747)
 -->
<!-- Title: MovementController Pages: 1 -->
<svg width="139pt" height="336pt"
 viewBox="0.00 0.00 139.00 336.00" xmlns="http://www.w3.org/2000/svg" xmlns:xlink="http://www.w3.org/1999/xlink">
<g id="graph0" class="graph" transform="scale(1 1) rotate(0) translate(4 332)">
<title>MovementController</title>
<polygon fill="white" stroke="transparent" points="-4,4 -4,-332 135,-332 135,4 -4,4"/>
<!-- Node1 -->
<g id="node1" class="node">
<title>Node1</title>
<g id="a_node1"><a xlink:title=" ">
<polygon fill="#bfbfbf" stroke="black" points="0,-0.5 0,-233.5 131,-233.5 131,-0.5 0,-0.5"/>
<text text-anchor="middle" x="65.5" y="-221.5" font-family="Courier New" font-size="10.00">MovementController</text>
<polyline fill="none" stroke="black" points="0,-214.5 131,-214.5 "/>
<text text-anchor="start" x="8" y="-202.5" font-family="Courier New" font-size="10.00">+ forward</text>
<text text-anchor="start" x="8" y="-191.5" font-family="Courier New" font-size="10.00">+ backward</text>
<text text-anchor="start" x="8" y="-180.5" font-family="Courier New" font-size="10.00">+ left</text>
<text text-anchor="start" x="8" y="-169.5" font-family="Courier New" font-size="10.00">+ right</text>
<text text-anchor="start" x="8" y="-158.5" font-family="Courier New" font-size="10.00">+ upDown</text>
<text text-anchor="start" x="8" y="-147.5" font-family="Courier New" font-size="10.00">+ speed</text>
<text text-anchor="start" x="8" y="-136.5" font-family="Courier New" font-size="10.00">+ relativeTo</text>
<text text-anchor="start" x="8" y="-125.5" font-family="Courier New" font-size="10.00">+ ForwardPress</text>
<text text-anchor="start" x="8" y="-114.5" font-family="Courier New" font-size="10.00">+ BackwardPress</text>
<text text-anchor="start" x="8" y="-103.5" font-family="Courier New" font-size="10.00">+ LeftPress</text>
<text text-anchor="start" x="8" y="-92.5" font-family="Courier New" font-size="10.00">+ RightPress</text>
<text text-anchor="start" x="8" y="-81.5" font-family="Courier New" font-size="10.00">+ UpDownPress</text>
<text text-anchor="start" x="8" y="-70.5" font-family="Courier New" font-size="10.00">+ isMoving</text>
<text text-anchor="start" x="8" y="-59.5" font-family="Courier New" font-size="10.00">&#45; moveRoutine</text>
<polyline fill="none" stroke="black" points="0,-52.5 131,-52.5 "/>
<text text-anchor="start" x="8" y="-40.5" font-family="Courier New" font-size="10.00">+ EnableMovement()</text>
<text text-anchor="start" x="8" y="-29.5" font-family="Courier New" font-size="10.00">+ DisableMovement()</text>
<text text-anchor="start" x="8" y="-18.5" font-family="Courier New" font-size="10.00">&#45; Start()</text>
<text text-anchor="start" x="8" y="-7.5" font-family="Courier New" font-size="10.00">&#45; Movement()</text>
</a>
</g>
</g>
<!-- Node2 -->
<g id="node2" class="node">
<title>Node2</title>
<g id="a_node2"><a xlink:title=" ">
<polygon fill="white" stroke="#bfbfbf" points="18,-270.5 18,-327.5 113,-327.5 113,-270.5 18,-270.5"/>
<text text-anchor="middle" x="65.5" y="-315.5" font-family="Courier New" font-size="10.00">MonoBehaviour</text>
<polyline fill="none" stroke="#bfbfbf" points="18,-308.5 113,-308.5 "/>
<text text-anchor="middle" x="65.5" y="-296.5" font-family="Courier New" font-size="10.00"> </text>
<polyline fill="none" stroke="#bfbfbf" points="18,-289.5 113,-289.5 "/>
<text text-anchor="middle" x="65.5" y="-277.5" font-family="Courier New" font-size="10.00"> </text>
</a>
</g>
</g>
<!-- Node2&#45;&gt;Node1 -->
<g id="edge1" class="edge">
<title>Node2&#45;&gt;Node1</title>
<path fill="none" stroke="midnightblue" d="M65.5,-260.14C65.5,-252.03 65.5,-243.05 65.5,-233.67"/>
<polygon fill="none" stroke="midnightblue" points="62,-260.27 65.5,-270.27 69,-260.27 62,-260.27"/>
</g>
</g>
</svg>
