<?xml version="1.0" encoding="UTF-8" standalone="no"?>
<!DOCTYPE svg PUBLIC "-//W3C//DTD SVG 1.1//EN"
 "http://www.w3.org/Graphics/SVG/1.1/DTD/svg11.dtd">
<!-- Generated by graphviz version 2.38.0 (20140413.2041)
 -->
<!-- Title: C2M2.Simulation.SurfaceSimulation Pages: 1 -->
<svg width="378pt" height="508pt"
 viewBox="0.00 0.00 378.00 508.00" xmlns="http://www.w3.org/2000/svg" xmlns:xlink="http://www.w3.org/1999/xlink">
<g id="graph0" class="graph" transform="scale(1 1) rotate(0) translate(4 504)">
<title>C2M2.Simulation.SurfaceSimulation</title>
<polygon fill="white" stroke="none" points="-4,4 -4,-504 374,-504 374,4 -4,4"/>
<!-- Node1 -->
<g id="node1" class="node"><title>Node1</title>
<g id="a_node1"><a xlink:title="Simulation of type double[] for visualizing scalar fields on mesh surfaces">
<polygon fill="#bfbfbf" stroke="black" points="26,-0.5 26,-145.5 241,-145.5 241,-0.5 26,-0.5"/>
<text text-anchor="middle" x="133.5" y="-133.5" font-family="Courier New" font-size="10.00">C2M2.Simulation.SurfaceSimulation</text>
<polyline fill="none" stroke="black" points="26,-126.5 241,-126.5 "/>
<text text-anchor="start" x="34" y="-114.5" font-family="Courier New" font-size="10.00">+ gradient</text>
<text text-anchor="start" x="34" y="-103.5" font-family="Courier New" font-size="10.00">+ globalMax</text>
<text text-anchor="start" x="34" y="-92.5" font-family="Courier New" font-size="10.00">+ globalMin</text>
<text text-anchor="start" x="34" y="-81.5" font-family="Courier New" font-size="10.00">+ colorLUT</text>
<text text-anchor="start" x="34" y="-70.5" font-family="Courier New" font-size="10.00">&#45; mf</text>
<text text-anchor="start" x="34" y="-59.5" font-family="Courier New" font-size="10.00">&#45; mr</text>
<polyline fill="none" stroke="black" points="26,-52.5 241,-52.5 "/>
<text text-anchor="start" x="34" y="-40.5" font-family="Courier New" font-size="10.00"># BuildMesh()</text>
<text text-anchor="start" x="34" y="-29.5" font-family="Courier New" font-size="10.00"># UpdateVisualization()</text>
<text text-anchor="start" x="34" y="-18.5" font-family="Courier New" font-size="10.00"># OnAwake()</text>
<text text-anchor="start" x="34" y="-7.5" font-family="Courier New" font-size="10.00">&#45; UpdateVisualization()</text>
</a>
</g>
</g>
<!-- Node2 -->
<g id="node2" class="node"><title>Node2</title>
<g id="a_node2"><a xlink:href="../../db/d39/class_c2_m2_1_1_simulation_1_1_simulation.html" target="_top" xlink:title=" ">
<polygon fill="white" stroke="black" points="0,-193.5 0,-404.5 155,-404.5 155,-193.5 0,-193.5"/>
<text text-anchor="middle" x="77.5" y="-392.5" font-family="Courier New" font-size="10.00">Simulation&lt; double[]&gt;</text>
<polyline fill="none" stroke="black" points="0,-385.5 155,-385.5 "/>
<text text-anchor="start" x="8" y="-373.5" font-family="Courier New" font-size="10.00">+ startOnAwake</text>
<text text-anchor="start" x="8" y="-362.5" font-family="Courier New" font-size="10.00"># mutex</text>
<text text-anchor="start" x="8" y="-351.5" font-family="Courier New" font-size="10.00">&#45; solveThread</text>
<polyline fill="none" stroke="black" points="0,-344.5 155,-344.5 "/>
<text text-anchor="start" x="8" y="-332.5" font-family="Courier New" font-size="10.00">+ GetValues()</text>
<text text-anchor="start" x="8" y="-321.5" font-family="Courier New" font-size="10.00">+ Awake()</text>
<text text-anchor="start" x="8" y="-310.5" font-family="Courier New" font-size="10.00">+ Start()</text>
<text text-anchor="start" x="8" y="-299.5" font-family="Courier New" font-size="10.00">+ Update()</text>
<text text-anchor="start" x="8" y="-288.5" font-family="Courier New" font-size="10.00">+ StartSimulation()</text>
<text text-anchor="start" x="8" y="-277.5" font-family="Courier New" font-size="10.00">+ StopSimulation()</text>
<text text-anchor="start" x="8" y="-266.5" font-family="Courier New" font-size="10.00"># UpdateVisualization()</text>
<text text-anchor="start" x="8" y="-255.5" font-family="Courier New" font-size="10.00"># OnAwake()</text>
<text text-anchor="start" x="8" y="-244.5" font-family="Courier New" font-size="10.00"># OnStart()</text>
<text text-anchor="start" x="8" y="-233.5" font-family="Courier New" font-size="10.00"># OnUpdate()</text>
<text text-anchor="start" x="8" y="-222.5" font-family="Courier New" font-size="10.00"># Solve()</text>
<text text-anchor="start" x="8" y="-211.5" font-family="Courier New" font-size="10.00">&#45; OnApplicationPause()</text>
<text text-anchor="start" x="8" y="-200.5" font-family="Courier New" font-size="10.00">&#45; OnApplicationQuit()</text>
</a>
</g>
</g>
<!-- Node2&#45;&gt;Node1 -->
<g id="edge1" class="edge"><title>Node2&#45;&gt;Node1</title>
<path fill="none" stroke="midnightblue" d="M106.146,-183.417C109.349,-170.603 112.542,-157.834 115.555,-145.781"/>
<polygon fill="none" stroke="midnightblue" points="102.726,-182.664 103.696,-193.214 109.517,-184.362 102.726,-182.664"/>
</g>
<!-- Node3 -->
<g id="node3" class="node"><title>Node3</title>
<g id="a_node3"><a xlink:href="../../da/d4f/class_c2_m2_1_1_visualization_1_1_l_u_t_gradient.html" target="_top" xlink:title="Create a fast and memory&#45;friendly color lookup table from a gradient">
<polygon fill="white" stroke="black" points="173,-215.5 173,-382.5 370,-382.5 370,-215.5 173,-215.5"/>
<text text-anchor="middle" x="271.5" y="-370.5" font-family="Courier New" font-size="10.00">C2M2.Visualization.LUTGradient</text>
<polyline fill="none" stroke="black" points="173,-363.5 370,-363.5 "/>
<text text-anchor="start" x="181" y="-351.5" font-family="Courier New" font-size="10.00">+ extremaMethod</text>
<text text-anchor="start" x="181" y="-340.5" font-family="Courier New" font-size="10.00">+ globalMax</text>
<text text-anchor="start" x="181" y="-329.5" font-family="Courier New" font-size="10.00">+ globalMin</text>
<text text-anchor="start" x="181" y="-318.5" font-family="Courier New" font-size="10.00">+ LutRes</text>
<text text-anchor="start" x="181" y="-307.5" font-family="Courier New" font-size="10.00">+ Gradient</text>
<text text-anchor="start" x="181" y="-296.5" font-family="Courier New" font-size="10.00">+ gradientLUT</text>
<text text-anchor="start" x="181" y="-285.5" font-family="Courier New" font-size="10.00">&#45; lutRes</text>
<text text-anchor="start" x="181" y="-274.5" font-family="Courier New" font-size="10.00">&#45; gradient</text>
<polyline fill="none" stroke="black" points="173,-267.5 370,-267.5 "/>
<text text-anchor="start" x="181" y="-255.5" font-family="Courier New" font-size="10.00">+ Evaluate()</text>
<text text-anchor="start" x="181" y="-244.5" font-family="Courier New" font-size="10.00">+ Evaluate()</text>
<text text-anchor="start" x="181" y="-233.5" font-family="Courier New" font-size="10.00">&#45; BuildLUT()</text>
<text text-anchor="start" x="181" y="-222.5" font-family="Courier New" font-size="10.00">&#45; RescaleArray()</text>
</a>
</g>
</g>
<!-- Node3&#45;&gt;Node1 -->
<g id="edge2" class="edge"><title>Node3&#45;&gt;Node1</title>
<path fill="none" stroke="#404040" d="M220.506,-215.227C208.596,-195.895 195.916,-175.313 184.027,-156.014"/>
<polygon fill="none" stroke="#404040" points="183.996,-155.964 177.443,-152.954 177.702,-145.747 184.254,-148.758 183.996,-155.964"/>
<text text-anchor="middle" x="239" y="-167" font-family="Courier New" font-size="10.00"> +extremaMethod</text>
</g>
<!-- Node4 -->
<g id="node4" class="node"><title>Node4</title>
<g id="a_node4"><a xlink:title=" ">
<polygon fill="white" stroke="#bfbfbf" points="224,-442.5 224,-499.5 319,-499.5 319,-442.5 224,-442.5"/>
<text text-anchor="middle" x="271.5" y="-487.5" font-family="Courier New" font-size="10.00">MonoBehaviour</text>
<polyline fill="none" stroke="#bfbfbf" points="224,-480.5 319,-480.5 "/>
<text text-anchor="middle" x="271.5" y="-468.5" font-family="Courier New" font-size="10.00"> </text>
<polyline fill="none" stroke="#bfbfbf" points="224,-461.5 319,-461.5 "/>
<text text-anchor="middle" x="271.5" y="-449.5" font-family="Courier New" font-size="10.00"> </text>
</a>
</g>
</g>
<!-- Node4&#45;&gt;Node3 -->
<g id="edge3" class="edge"><title>Node4&#45;&gt;Node3</title>
<path fill="none" stroke="midnightblue" d="M271.5,-432.149C271.5,-417.476 271.5,-400.061 271.5,-382.769"/>
<polygon fill="none" stroke="midnightblue" points="268,-432.308 271.5,-442.308 275,-432.308 268,-432.308"/>
</g>
</g>
</svg>
