<?xml version="1.0" encoding="UTF-8" standalone="no"?>
<!DOCTYPE svg PUBLIC "-//W3C//DTD SVG 1.1//EN"
 "http://www.w3.org/Graphics/SVG/1.1/DTD/svg11.dtd">
<!-- Generated by graphviz version 2.38.0 (20140413.2041)
 -->
<!-- Title: C2M2.Interaction.Signaling.MouseEventSignaler Pages: 1 -->
<svg width="193pt" height="667pt"
 viewBox="0.00 0.00 193.00 667.00" xmlns="http://www.w3.org/2000/svg" xmlns:xlink="http://www.w3.org/1999/xlink">
<g id="graph0" class="graph" transform="scale(1 1) rotate(0) translate(4 663)">
<title>C2M2.Interaction.Signaling.MouseEventSignaler</title>
<polygon fill="white" stroke="none" points="-4,4 -4,-663 189,-663 189,4 -4,4"/>
<!-- Node1 -->
<g id="node1" class="node"><title>Node1</title>
<g id="a_node1"><a xlink:title=" ">
<polygon fill="#bfbfbf" stroke="black" points="0,-0.5 0,-145.5 185,-145.5 185,-0.5 0,-0.5"/>
<text text-anchor="start" x="8" y="-133.5" font-family="Courier New" font-size="10.00">C2M2.Interaction.Signaling.</text>
<text text-anchor="middle" x="92.5" y="-122.5" font-family="Courier New" font-size="10.00">MouseEventSignaler</text>
<polyline fill="none" stroke="black" points="0,-115.5 185,-115.5 "/>
<text text-anchor="middle" x="92.5" y="-103.5" font-family="Courier New" font-size="10.00"> </text>
<polyline fill="none" stroke="black" points="0,-96.5 185,-96.5 "/>
<text text-anchor="start" x="8" y="-84.5" font-family="Courier New" font-size="10.00"># OnAwake()</text>
<text text-anchor="start" x="8" y="-73.5" font-family="Courier New" font-size="10.00"># OnStart()</text>
<text text-anchor="start" x="8" y="-62.5" font-family="Courier New" font-size="10.00"># BeginRaycastingCondition()</text>
<text text-anchor="start" x="8" y="-51.5" font-family="Courier New" font-size="10.00"># RaycastingMethod()</text>
<text text-anchor="start" x="8" y="-40.5" font-family="Courier New" font-size="10.00"># ChildsPressCondition()</text>
<text text-anchor="start" x="8" y="-29.5" font-family="Courier New" font-size="10.00"># OnPressSub()</text>
<text text-anchor="start" x="8" y="-18.5" font-family="Courier New" font-size="10.00"># OnHoldPressSub()</text>
<text text-anchor="start" x="8" y="-7.5" font-family="Courier New" font-size="10.00"># OnEndPressSub()</text>
</a>
</g>
</g>
<!-- Node2 -->
<g id="node2" class="node"><title>Node2</title>
<g id="a_node2"><a xlink:href="../../d6/d2d/class_c2_m2_1_1_interaction_1_1_signaling_1_1_raycast_event_signaler.html" target="_top" xlink:title=" ">
<polygon fill="white" stroke="black" points="0,-182.5 0,-437.5 185,-437.5 185,-182.5 0,-182.5"/>
<text text-anchor="middle" x="92.5" y="-425.5" font-family="Courier New" font-size="10.00">RaycastEventSignaler</text>
<polyline fill="none" stroke="black" points="0,-418.5 185,-418.5 "/>
<text text-anchor="start" x="8" y="-406.5" font-family="Courier New" font-size="10.00">+ rightHand</text>
<text text-anchor="start" x="8" y="-395.5" font-family="Courier New" font-size="10.00">+ maxRaycastDistance</text>
<text text-anchor="start" x="8" y="-384.5" font-family="Courier New" font-size="10.00">&#45; layerMask</text>
<text text-anchor="start" x="8" y="-373.5" font-family="Courier New" font-size="10.00">&#45; activeEvent</text>
<text text-anchor="start" x="8" y="-362.5" font-family="Courier New" font-size="10.00">&#45; lastHit</text>
<polyline fill="none" stroke="black" points="0,-355.5 185,-355.5 "/>
<text text-anchor="start" x="8" y="-343.5" font-family="Courier New" font-size="10.00"># OnAwake()</text>
<text text-anchor="start" x="8" y="-332.5" font-family="Courier New" font-size="10.00"># Awake()</text>
<text text-anchor="start" x="8" y="-321.5" font-family="Courier New" font-size="10.00"># OnStart()</text>
<text text-anchor="start" x="8" y="-310.5" font-family="Courier New" font-size="10.00"># OnPress()</text>
<text text-anchor="start" x="8" y="-299.5" font-family="Courier New" font-size="10.00"># OnHoldPress()</text>
<text text-anchor="start" x="8" y="-288.5" font-family="Courier New" font-size="10.00"># OnEndPress()</text>
<text text-anchor="start" x="8" y="-277.5" font-family="Courier New" font-size="10.00"># OnPressSub()</text>
<text text-anchor="start" x="8" y="-266.5" font-family="Courier New" font-size="10.00"># OnHoldPressSub()</text>
<text text-anchor="start" x="8" y="-255.5" font-family="Courier New" font-size="10.00"># OnEndPressSub()</text>
<text text-anchor="start" x="8" y="-244.5" font-family="Courier New" font-size="10.00"># RaycastingMethod()</text>
<text text-anchor="start" x="8" y="-233.5" font-family="Courier New" font-size="10.00"># BeginRaycastingCondition()</text>
<text text-anchor="start" x="8" y="-222.5" font-family="Courier New" font-size="10.00"># ChildsPressCondition()</text>
<text text-anchor="start" x="8" y="-211.5" font-family="Courier New" font-size="10.00">&#45; Start()</text>
<text text-anchor="start" x="8" y="-200.5" font-family="Courier New" font-size="10.00">&#45; FixedUpdate()</text>
<text text-anchor="start" x="8" y="-189.5" font-family="Courier New" font-size="10.00">&#45; FindRaycastTrigger()</text>
</a>
</g>
</g>
<!-- Node2&#45;&gt;Node1 -->
<g id="edge1" class="edge"><title>Node2&#45;&gt;Node1</title>
<path fill="none" stroke="midnightblue" d="M92.5,-171.944C92.5,-162.897 92.5,-154.009 92.5,-145.502"/>
<polygon fill="none" stroke="midnightblue" points="89.0001,-172.214 92.5,-182.214 96.0001,-172.214 89.0001,-172.214"/>
</g>
<!-- Node3 -->
<g id="node3" class="node"><title>Node3</title>
<g id="a_node3"><a xlink:href="../../d6/d4b/class_c2_m2_1_1_interaction_1_1_signaling_1_1_press_event_signaler.html" target="_top" xlink:title="Send press, holdPress, and endPress events based on set values of Pressed and RaycastTriggerManager">
<polygon fill="white" stroke="black" points="30,-474.5 30,-564.5 155,-564.5 155,-474.5 30,-474.5"/>
<text text-anchor="middle" x="92.5" y="-552.5" font-family="Courier New" font-size="10.00">PressEventSignaler</text>
<polyline fill="none" stroke="black" points="30,-545.5 155,-545.5 "/>
<text text-anchor="start" x="38" y="-533.5" font-family="Courier New" font-size="10.00">+ Pressed</text>
<text text-anchor="start" x="38" y="-522.5" font-family="Courier New" font-size="10.00">&#45; pressedPrevFrame</text>
<polyline fill="none" stroke="black" points="30,-515.5 155,-515.5 "/>
<text text-anchor="start" x="38" y="-503.5" font-family="Courier New" font-size="10.00"># OnPress()</text>
<text text-anchor="start" x="38" y="-492.5" font-family="Courier New" font-size="10.00"># OnHoldPress()</text>
<text text-anchor="start" x="38" y="-481.5" font-family="Courier New" font-size="10.00"># OnEndPress()</text>
</a>
</g>
</g>
<!-- Node3&#45;&gt;Node2 -->
<g id="edge2" class="edge"><title>Node3&#45;&gt;Node2</title>
<path fill="none" stroke="midnightblue" d="M92.5,-464.467C92.5,-455.992 92.5,-446.938 92.5,-437.625"/>
<polygon fill="none" stroke="midnightblue" points="89.0001,-464.495 92.5,-474.495 96.0001,-464.495 89.0001,-464.495"/>
</g>
<!-- Node4 -->
<g id="node4" class="node"><title>Node4</title>
<g id="a_node4"><a xlink:title=" ">
<polygon fill="white" stroke="#bfbfbf" points="45,-601.5 45,-658.5 140,-658.5 140,-601.5 45,-601.5"/>
<text text-anchor="middle" x="92.5" y="-646.5" font-family="Courier New" font-size="10.00">MonoBehaviour</text>
<polyline fill="none" stroke="#bfbfbf" points="45,-639.5 140,-639.5 "/>
<text text-anchor="middle" x="92.5" y="-627.5" font-family="Courier New" font-size="10.00"> </text>
<polyline fill="none" stroke="#bfbfbf" points="45,-620.5 140,-620.5 "/>
<text text-anchor="middle" x="92.5" y="-608.5" font-family="Courier New" font-size="10.00"> </text>
</a>
</g>
</g>
<!-- Node4&#45;&gt;Node3 -->
<g id="edge3" class="edge"><title>Node4&#45;&gt;Node3</title>
<path fill="none" stroke="midnightblue" d="M92.5,-591.214C92.5,-582.609 92.5,-573.394 92.5,-564.554"/>
<polygon fill="none" stroke="midnightblue" points="89.0001,-591.34 92.5,-601.34 96.0001,-591.34 89.0001,-591.34"/>
</g>
</g>
</svg>
