<?xml version="1.0" encoding="UTF-8" standalone="no"?>
<!DOCTYPE svg PUBLIC "-//W3C//DTD SVG 1.1//EN"
 "http://www.w3.org/Graphics/SVG/1.1/DTD/svg11.dtd">
<!-- Generated by graphviz version 2.38.0 (20140413.2041)
 -->
<!-- Title: C2M2.GameManager Pages: 1 -->
<svg width="199pt" height="424pt"
 viewBox="0.00 0.00 199.00 424.00" xmlns="http://www.w3.org/2000/svg" xmlns:xlink="http://www.w3.org/1999/xlink">
<g id="graph0" class="graph" transform="scale(1 1) rotate(0) translate(4 420)">
<title>C2M2.GameManager</title>
<polygon fill="white" stroke="none" points="-4,4 -4,-420 195,-420 195,4 -4,4"/>
<!-- Node1 -->
<g id="node1" class="node"><title>Node1</title>
<g id="a_node1"><a xlink:title=" ">
<polygon fill="#bfbfbf" stroke="black" points="0,-0.5 0,-321.5 191,-321.5 191,-0.5 0,-0.5"/>
<text text-anchor="middle" x="95.5" y="-309.5" font-family="Courier New" font-size="10.00">C2M2.GameManager</text>
<polyline fill="none" stroke="black" points="0,-302.5 191,-302.5 "/>
<text text-anchor="start" x="8" y="-290.5" font-family="Courier New" font-size="10.00">+ mainThreadId</text>
<text text-anchor="start" x="8" y="-279.5" font-family="Courier New" font-size="10.00">+ assetsPath</text>
<text text-anchor="start" x="8" y="-268.5" font-family="Courier New" font-size="10.00">+ useVirtualReality</text>
<text text-anchor="start" x="8" y="-257.5" font-family="Courier New" font-size="10.00">+ defaultMaterial</text>
<text text-anchor="start" x="8" y="-246.5" font-family="Courier New" font-size="10.00">+ vertexColorationMaterial</text>
<text text-anchor="start" x="8" y="-235.5" font-family="Courier New" font-size="10.00">+ objectScaleDefault</text>
<text text-anchor="start" x="8" y="-224.5" font-family="Courier New" font-size="10.00">+ rightRaycaster</text>
<text text-anchor="start" x="8" y="-213.5" font-family="Courier New" font-size="10.00">+ leftRaycaster</text>
<text text-anchor="start" x="8" y="-202.5" font-family="Courier New" font-size="10.00">+ ovrRightHandAnchor</text>
<text text-anchor="start" x="8" y="-191.5" font-family="Courier New" font-size="10.00">+ ovrLeftHandAnchor</text>
<text text-anchor="start" x="8" y="-180.5" font-family="Courier New" font-size="10.00">+ menu</text>
<text text-anchor="start" x="8" y="-169.5" font-family="Courier New" font-size="10.00">+ raycastKeyboardPrefab</text>
<text text-anchor="start" x="8" y="-158.5" font-family="Courier New" font-size="10.00">+ menuSnapPosition</text>
<text text-anchor="start" x="8" y="-147.5" font-family="Courier New" font-size="10.00">+ fpsCounter</text>
<text text-anchor="start" x="8" y="-136.5" font-family="Courier New" font-size="10.00">+ instance</text>
<text text-anchor="start" x="8" y="-125.5" font-family="Courier New" font-size="10.00">+ ovrPlayerController</text>
<text text-anchor="start" x="8" y="-114.5" font-family="Courier New" font-size="10.00">+ nonVRCamera</text>
<text text-anchor="start" x="8" y="-103.5" font-family="Courier New" font-size="10.00">+ raycastKeyboard</text>
<text text-anchor="start" x="8" y="-92.5" font-family="Courier New" font-size="10.00">&#45; logQ</text>
<text text-anchor="start" x="8" y="-81.5" font-family="Courier New" font-size="10.00">&#45; logQCap</text>
<polyline fill="none" stroke="black" points="0,-74.5 191,-74.5 "/>
<text text-anchor="start" x="8" y="-62.5" font-family="Courier New" font-size="10.00">+ RaycasterRightChangeColor()</text>
<text text-anchor="start" x="8" y="-51.5" font-family="Courier New" font-size="10.00">+ RaycasterLeftChangeColor()</text>
<text text-anchor="start" x="8" y="-40.5" font-family="Courier New" font-size="10.00">+ DebugLogSafe()</text>
<text text-anchor="start" x="8" y="-29.5" font-family="Courier New" font-size="10.00">+ DebugLogSafe&lt; T &gt;()</text>
<text text-anchor="start" x="8" y="-18.5" font-family="Courier New" font-size="10.00">&#45; Awake()</text>
<text text-anchor="start" x="8" y="-7.5" font-family="Courier New" font-size="10.00">&#45; Update()</text>
</a>
</g>
</g>
<!-- Node2 -->
<g id="node2" class="node"><title>Node2</title>
<g id="a_node2"><a xlink:title=" ">
<polygon fill="white" stroke="#bfbfbf" points="48,-358.5 48,-415.5 143,-415.5 143,-358.5 48,-358.5"/>
<text text-anchor="middle" x="95.5" y="-403.5" font-family="Courier New" font-size="10.00">MonoBehaviour</text>
<polyline fill="none" stroke="#bfbfbf" points="48,-396.5 143,-396.5 "/>
<text text-anchor="middle" x="95.5" y="-384.5" font-family="Courier New" font-size="10.00"> </text>
<polyline fill="none" stroke="#bfbfbf" points="48,-377.5 143,-377.5 "/>
<text text-anchor="middle" x="95.5" y="-365.5" font-family="Courier New" font-size="10.00"> </text>
</a>
</g>
</g>
<!-- Node2&#45;&gt;Node1 -->
<g id="edge1" class="edge"><title>Node2&#45;&gt;Node1</title>
<path fill="none" stroke="midnightblue" d="M95.5,-347.906C95.5,-340.019 95.5,-331.248 95.5,-321.931"/>
<polygon fill="none" stroke="midnightblue" points="92.0001,-348.083 95.5,-358.083 99.0001,-348.083 92.0001,-348.083"/>
</g>
</g>
</svg>
