<?xml version="1.0" encoding="UTF-8" standalone="no"?>
<!DOCTYPE svg PUBLIC "-//W3C//DTD SVG 1.1//EN"
 "http://www.w3.org/Graphics/SVG/1.1/DTD/svg11.dtd">
<!-- Generated by graphviz version 2.38.0 (20140413.2041)
 -->
<!-- Title: C2M2.RaycastKeyboard Pages: 1 -->
<svg width="231pt" height="468pt"
 viewBox="0.00 0.00 230.50 468.00" xmlns="http://www.w3.org/2000/svg" xmlns:xlink="http://www.w3.org/1999/xlink">
<g id="graph0" class="graph" transform="scale(1 1) rotate(0) translate(4 464)">
<title>C2M2.RaycastKeyboard</title>
<polygon fill="white" stroke="none" points="-4,4 -4,-464 226.5,-464 226.5,4 -4,4"/>
<!-- Node1 -->
<g id="node1" class="node"><title>Node1</title>
<g id="a_node1"><a xlink:title=" ">
<polygon fill="#bfbfbf" stroke="black" points="19,-0.5 19,-244.5 168,-244.5 168,-0.5 19,-0.5"/>
<text text-anchor="middle" x="93.5" y="-232.5" font-family="Courier New" font-size="10.00">C2M2.RaycastKeyboard</text>
<polyline fill="none" stroke="black" points="19,-225.5 168,-225.5 "/>
<text text-anchor="start" x="27" y="-213.5" font-family="Courier New" font-size="10.00">+ keyPrefab</text>
<text text-anchor="start" x="27" y="-202.5" font-family="Courier New" font-size="10.00">+ specialKeyContainer</text>
<text text-anchor="start" x="27" y="-191.5" font-family="Courier New" font-size="10.00">+ lowerKeyContainer</text>
<text text-anchor="start" x="27" y="-180.5" font-family="Courier New" font-size="10.00">+ upperKeyContainer</text>
<text text-anchor="start" x="27" y="-169.5" font-family="Courier New" font-size="10.00">+ menuAnchor</text>
<text text-anchor="start" x="27" y="-158.5" font-family="Courier New" font-size="10.00">+ activeField</text>
<text text-anchor="start" x="27" y="-147.5" font-family="Courier New" font-size="10.00">&#45; hasActiveField</text>
<text text-anchor="start" x="27" y="-136.5" font-family="Courier New" font-size="10.00">&#45; lastHit</text>
<text text-anchor="start" x="27" y="-125.5" font-family="Courier New" font-size="10.00">&#45; keyPositions</text>
<text text-anchor="start" x="27" y="-114.5" font-family="Courier New" font-size="10.00">&#45; specialKeys</text>
<text text-anchor="start" x="27" y="-103.5" font-family="Courier New" font-size="10.00">&#45; specialKeyLocations</text>
<text text-anchor="start" x="27" y="-92.5" font-family="Courier New" font-size="10.00">&#45; upperCharRow1</text>
<text text-anchor="start" x="27" y="-81.5" font-family="Courier New" font-size="10.00">&#45; upperCharRow2</text>
<text text-anchor="start" x="27" y="-70.5" font-family="Courier New" font-size="10.00">&#45; upperCharRow3</text>
<polyline fill="none" stroke="black" points="19,-63.5 168,-63.5 "/>
<text text-anchor="start" x="27" y="-51.5" font-family="Courier New" font-size="10.00">+ PassChar()</text>
<text text-anchor="start" x="27" y="-40.5" font-family="Courier New" font-size="10.00">+ InputFieldActivate()</text>
<text text-anchor="start" x="27" y="-29.5" font-family="Courier New" font-size="10.00">&#45; Awake()</text>
<text text-anchor="start" x="27" y="-18.5" font-family="Courier New" font-size="10.00">&#45; OnEnable()</text>
<text text-anchor="start" x="27" y="-7.5" font-family="Courier New" font-size="10.00">&#45; BuildKeyboard()</text>
</a>
</g>
</g>
<!-- Node2 -->
<g id="node2" class="node"><title>Node2</title>
<g id="a_node2"><a xlink:title=" ">
<polygon fill="white" stroke="#bfbfbf" points="0,-402.5 0,-459.5 95,-459.5 95,-402.5 0,-402.5"/>
<text text-anchor="middle" x="47.5" y="-447.5" font-family="Courier New" font-size="10.00">MonoBehaviour</text>
<polyline fill="none" stroke="#bfbfbf" points="0,-440.5 95,-440.5 "/>
<text text-anchor="middle" x="47.5" y="-428.5" font-family="Courier New" font-size="10.00"> </text>
<polyline fill="none" stroke="#bfbfbf" points="0,-421.5 95,-421.5 "/>
<text text-anchor="middle" x="47.5" y="-409.5" font-family="Courier New" font-size="10.00"> </text>
</a>
</g>
</g>
<!-- Node2&#45;&gt;Node1 -->
<g id="edge1" class="edge"><title>Node2&#45;&gt;Node1</title>
<path fill="none" stroke="midnightblue" d="M53.2059,-391.982C58.7396,-355.11 67.4342,-297.178 75.3325,-244.551"/>
<polygon fill="none" stroke="midnightblue" points="49.6864,-391.851 51.6633,-402.26 56.6088,-392.89 49.6864,-391.851"/>
</g>
<!-- Node3 -->
<g id="node3" class="node"><title>Node3</title>
<g id="a_node3"><a xlink:title=" ">
<polygon fill="white" stroke="#bfbfbf" points="113,-402.5 113,-459.5 166,-459.5 166,-402.5 113,-402.5"/>
<text text-anchor="middle" x="139.5" y="-447.5" font-family="Courier New" font-size="10.00">static</text>
<polyline fill="none" stroke="#bfbfbf" points="113,-440.5 166,-440.5 "/>
<text text-anchor="middle" x="139.5" y="-428.5" font-family="Courier New" font-size="10.00"> </text>
<polyline fill="none" stroke="#bfbfbf" points="113,-421.5 166,-421.5 "/>
<text text-anchor="middle" x="139.5" y="-409.5" font-family="Courier New" font-size="10.00"> </text>
</a>
</g>
</g>
<!-- Node3&#45;&gt;Node1 -->
<g id="edge2" class="edge"><title>Node3&#45;&gt;Node1</title>
<path fill="none" stroke="#404040" d="M135.337,-402.26C130.351,-369.036 121.643,-311.02 113.459,-256.488"/>
<polygon fill="none" stroke="#404040" points="113.449,-256.418 108.602,-251.078 111.668,-244.551 116.514,-249.891 113.449,-256.418"/>
<text text-anchor="middle" x="177" y="-376" font-family="Courier New" font-size="10.00"> &#45;lowerCharRow0</text>
<text text-anchor="middle" x="177" y="-365" font-family="Courier New" font-size="10.00">&#45;positionj</text>
<text text-anchor="middle" x="177" y="-354" font-family="Courier New" font-size="10.00">&#45;lowerCharRow1</text>
<text text-anchor="middle" x="177" y="-343" font-family="Courier New" font-size="10.00">&#45;lowerCharRow2</text>
<text text-anchor="middle" x="177" y="-332" font-family="Courier New" font-size="10.00">&#45;position1i</text>
<text text-anchor="middle" x="177" y="-321" font-family="Courier New" font-size="10.00">&#45;lowerCharRow3</text>
<text text-anchor="middle" x="177" y="-310" font-family="Courier New" font-size="10.00">&#45;position0i</text>
<text text-anchor="middle" x="177" y="-299" font-family="Courier New" font-size="10.00">&#45;position3i</text>
<text text-anchor="middle" x="177" y="-288" font-family="Courier New" font-size="10.00">&#45;upperCharRow0</text>
<text text-anchor="middle" x="177" y="-277" font-family="Courier New" font-size="10.00">&#45;position2i</text>
<text text-anchor="middle" x="177" y="-266" font-family="Courier New" font-size="10.00">...</text>
</g>
</g>
</svg>
