<?xml version="1.0" encoding="UTF-8" standalone="no"?>
<!DOCTYPE svg PUBLIC "-//W3C//DTD SVG 1.1//EN"
 "http://www.w3.org/Graphics/SVG/1.1/DTD/svg11.dtd">
<!-- Generated by graphviz version 2.38.0 (20140413.2041)
 -->
<!-- Title: C2M2.NeuronalDynamics.Simulation.NeuronSimulation1D Pages: 1 -->
<svg width="378pt" height="800pt"
 viewBox="0.00 0.00 378.00 800.00" xmlns="http://www.w3.org/2000/svg" xmlns:xlink="http://www.w3.org/1999/xlink">
<g id="graph0" class="graph" transform="scale(1 1) rotate(0) translate(4 796)">
<title>C2M2.NeuronalDynamics.Simulation.NeuronSimulation1D</title>
<polygon fill="white" stroke="none" points="-4,4 -4,-796 374,-796 374,4 -4,4"/>
<!-- Node1 -->
<g id="node1" class="node"><title>Node1</title>
<g id="a_node1"><a xlink:title="Provide an interface for 1D neuron&#45;surface simulations to be visualized and interacted with">
<polygon fill="#bfbfbf" stroke="black" points="73,-0.5 73,-233.5 288,-233.5 288,-0.5 73,-0.5"/>
<text text-anchor="start" x="81" y="-221.5" font-family="Courier New" font-size="10.00">C2M2.NeuronalDynamics.Simulation.</text>
<text text-anchor="middle" x="180.5" y="-210.5" font-family="Courier New" font-size="10.00">NeuronSimulation1D</text>
<polyline fill="none" stroke="black" points="73,-203.5 288,-203.5 "/>
<text text-anchor="start" x="81" y="-191.5" font-family="Courier New" font-size="10.00">+ visualize1D</text>
<text text-anchor="start" x="81" y="-180.5" font-family="Courier New" font-size="10.00">+ color1D</text>
<text text-anchor="start" x="81" y="-169.5" font-family="Courier New" font-size="10.00">+ lineWidth1D</text>
<text text-anchor="start" x="81" y="-158.5" font-family="Courier New" font-size="10.00">&#45; map</text>
<text text-anchor="start" x="81" y="-147.5" font-family="Courier New" font-size="10.00">&#45; neuronCellFolder</text>
<text text-anchor="start" x="81" y="-136.5" font-family="Courier New" font-size="10.00">&#45; activeCellFolder</text>
<text text-anchor="start" x="81" y="-125.5" font-family="Courier New" font-size="10.00">&#45; ugxExt</text>
<text text-anchor="start" x="81" y="-114.5" font-family="Courier New" font-size="10.00">&#45; cngExt</text>
<text text-anchor="start" x="81" y="-103.5" font-family="Courier New" font-size="10.00">&#45; spec1D</text>
<text text-anchor="start" x="81" y="-92.5" font-family="Courier New" font-size="10.00">&#45; specTris</text>
<text text-anchor="start" x="81" y="-81.5" font-family="Courier New" font-size="10.00">&#45; specBlownup</text>
<polyline fill="none" stroke="black" points="73,-74.5 288,-74.5 "/>
<text text-anchor="start" x="81" y="-62.5" font-family="Courier New" font-size="10.00">+ GetValues()</text>
<text text-anchor="start" x="81" y="-51.5" font-family="Courier New" font-size="10.00">+ SetValues()</text>
<text text-anchor="start" x="81" y="-40.5" font-family="Courier New" font-size="10.00"># Set1DValues()</text>
<text text-anchor="start" x="81" y="-29.5" font-family="Courier New" font-size="10.00"># Get1DValues()</text>
<text text-anchor="start" x="81" y="-18.5" font-family="Courier New" font-size="10.00"># SetNeuronCell()</text>
<text text-anchor="start" x="81" y="-7.5" font-family="Courier New" font-size="10.00"># BuildVisualization()</text>
</a>
</g>
</g>
<!-- Node2 -->
<g id="node2" class="node"><title>Node2</title>
<g id="a_node2"><a xlink:href="../../d4/de1/class_c2_m2_1_1_simulation_1_1_surface_simulation.html" target="_top" xlink:title="Simulation of type double[] for visualizing scalar fields on mesh surfaces">
<polygon fill="white" stroke="black" points="16,-281.5 16,-415.5 171,-415.5 171,-281.5 16,-281.5"/>
<text text-anchor="middle" x="93.5" y="-403.5" font-family="Courier New" font-size="10.00">SurfaceSimulation</text>
<polyline fill="none" stroke="black" points="16,-396.5 171,-396.5 "/>
<text text-anchor="start" x="24" y="-384.5" font-family="Courier New" font-size="10.00">+ gradient</text>
<text text-anchor="start" x="24" y="-373.5" font-family="Courier New" font-size="10.00">+ globalMax</text>
<text text-anchor="start" x="24" y="-362.5" font-family="Courier New" font-size="10.00">+ globalMin</text>
<text text-anchor="start" x="24" y="-351.5" font-family="Courier New" font-size="10.00">+ colorLUT</text>
<text text-anchor="start" x="24" y="-340.5" font-family="Courier New" font-size="10.00">&#45; mf</text>
<text text-anchor="start" x="24" y="-329.5" font-family="Courier New" font-size="10.00">&#45; mr</text>
<polyline fill="none" stroke="black" points="16,-322.5 171,-322.5 "/>
<text text-anchor="start" x="24" y="-310.5" font-family="Courier New" font-size="10.00"># UpdateVisualization()</text>
<text text-anchor="start" x="24" y="-299.5" font-family="Courier New" font-size="10.00"># OnAwake()</text>
<text text-anchor="start" x="24" y="-288.5" font-family="Courier New" font-size="10.00">&#45; UpdateVisualization()</text>
</a>
</g>
</g>
<!-- Node2&#45;&gt;Node1 -->
<g id="edge1" class="edge"><title>Node2&#45;&gt;Node1</title>
<path fill="none" stroke="midnightblue" d="M122.201,-271.789C126.83,-259.578 131.713,-246.696 136.603,-233.797"/>
<polygon fill="none" stroke="midnightblue" points="118.819,-270.836 118.547,-281.427 125.365,-273.317 118.819,-270.836"/>
</g>
<!-- Node3 -->
<g id="node3" class="node"><title>Node3</title>
<g id="a_node3"><a xlink:href="../../db/d39/class_c2_m2_1_1_simulation_1_1_simulation.html" target="_top" xlink:title=" ">
<polygon fill="white" stroke="black" points="0,-463.5 0,-696.5 155,-696.5 155,-463.5 0,-463.5"/>
<text text-anchor="start" x="8" y="-684.5" font-family="Courier New" font-size="10.00">Simulation&lt; double</text>
<text text-anchor="middle" x="77.5" y="-673.5" font-family="Courier New" font-size="10.00">[], Mesh &gt;</text>
<polyline fill="none" stroke="black" points="0,-666.5 155,-666.5 "/>
<text text-anchor="start" x="8" y="-654.5" font-family="Courier New" font-size="10.00">+ startOnAwake</text>
<text text-anchor="start" x="8" y="-643.5" font-family="Courier New" font-size="10.00"># mutex</text>
<text text-anchor="start" x="8" y="-632.5" font-family="Courier New" font-size="10.00">&#45; solveThread</text>
<polyline fill="none" stroke="black" points="0,-625.5 155,-625.5 "/>
<text text-anchor="start" x="8" y="-613.5" font-family="Courier New" font-size="10.00">+ GetValues()</text>
<text text-anchor="start" x="8" y="-602.5" font-family="Courier New" font-size="10.00">+ StartSimulation()</text>
<text text-anchor="start" x="8" y="-591.5" font-family="Courier New" font-size="10.00">+ StopSimulation()</text>
<text text-anchor="start" x="8" y="-580.5" font-family="Courier New" font-size="10.00">+ Awake()</text>
<text text-anchor="start" x="8" y="-569.5" font-family="Courier New" font-size="10.00">+ Start()</text>
<text text-anchor="start" x="8" y="-558.5" font-family="Courier New" font-size="10.00">+ Update()</text>
<text text-anchor="start" x="8" y="-547.5" font-family="Courier New" font-size="10.00"># BuildVisualization()</text>
<text text-anchor="start" x="8" y="-536.5" font-family="Courier New" font-size="10.00"># UpdateVisualization()</text>
<text text-anchor="start" x="8" y="-525.5" font-family="Courier New" font-size="10.00"># Solve()</text>
<text text-anchor="start" x="8" y="-514.5" font-family="Courier New" font-size="10.00"># OnAwake()</text>
<text text-anchor="start" x="8" y="-503.5" font-family="Courier New" font-size="10.00"># OnStart()</text>
<text text-anchor="start" x="8" y="-492.5" font-family="Courier New" font-size="10.00"># OnUpdate()</text>
<text text-anchor="start" x="8" y="-481.5" font-family="Courier New" font-size="10.00">&#45; OnApplicationPause()</text>
<text text-anchor="start" x="8" y="-470.5" font-family="Courier New" font-size="10.00">&#45; OnApplicationQuit()</text>
</a>
</g>
</g>
<!-- Node3&#45;&gt;Node2 -->
<g id="edge2" class="edge"><title>Node3&#45;&gt;Node2</title>
<path fill="none" stroke="midnightblue" d="M86.2916,-452.895C87.1886,-440.029 88.0721,-427.356 88.8966,-415.53"/>
<polygon fill="none" stroke="midnightblue" points="82.7744,-453.022 85.5703,-463.241 89.7574,-453.509 82.7744,-453.022"/>
</g>
<!-- Node4 -->
<g id="node4" class="node"><title>Node4</title>
<g id="a_node4"><a xlink:href="../../da/d4f/class_c2_m2_1_1_visualization_1_1_l_u_t_gradient.html" target="_top" xlink:title="Create a fast and memory&#45;friendly color lookup table from a gradient">
<polygon fill="white" stroke="black" points="173,-496.5 173,-663.5 370,-663.5 370,-496.5 173,-496.5"/>
<text text-anchor="middle" x="271.5" y="-651.5" font-family="Courier New" font-size="10.00">C2M2.Visualization.LUTGradient</text>
<polyline fill="none" stroke="black" points="173,-644.5 370,-644.5 "/>
<text text-anchor="start" x="181" y="-632.5" font-family="Courier New" font-size="10.00">+ extremaMethod</text>
<text text-anchor="start" x="181" y="-621.5" font-family="Courier New" font-size="10.00">+ globalMax</text>
<text text-anchor="start" x="181" y="-610.5" font-family="Courier New" font-size="10.00">+ globalMin</text>
<text text-anchor="start" x="181" y="-599.5" font-family="Courier New" font-size="10.00">+ LutRes</text>
<text text-anchor="start" x="181" y="-588.5" font-family="Courier New" font-size="10.00">+ Gradient</text>
<text text-anchor="start" x="181" y="-577.5" font-family="Courier New" font-size="10.00">+ gradientLUT</text>
<text text-anchor="start" x="181" y="-566.5" font-family="Courier New" font-size="10.00">&#45; lutRes</text>
<text text-anchor="start" x="181" y="-555.5" font-family="Courier New" font-size="10.00">&#45; gradient</text>
<polyline fill="none" stroke="black" points="173,-548.5 370,-548.5 "/>
<text text-anchor="start" x="181" y="-536.5" font-family="Courier New" font-size="10.00">+ Evaluate()</text>
<text text-anchor="start" x="181" y="-525.5" font-family="Courier New" font-size="10.00">+ Evaluate()</text>
<text text-anchor="start" x="181" y="-514.5" font-family="Courier New" font-size="10.00">&#45; BuildLUT()</text>
<text text-anchor="start" x="181" y="-503.5" font-family="Courier New" font-size="10.00">&#45; RescaleArray()</text>
</a>
</g>
</g>
<!-- Node4&#45;&gt;Node2 -->
<g id="edge3" class="edge"><title>Node4&#45;&gt;Node2</title>
<path fill="none" stroke="#404040" d="M207.489,-496.469C189.437,-473.194 169.891,-447.993 152.169,-425.143"/>
<polygon fill="none" stroke="#404040" points="152.049,-424.989 145.211,-422.699 144.694,-415.506 151.532,-417.796 152.049,-424.989"/>
<text text-anchor="middle" x="213" y="-437" font-family="Courier New" font-size="10.00"> +extremaMethod</text>
</g>
<!-- Node5 -->
<g id="node5" class="node"><title>Node5</title>
<g id="a_node5"><a xlink:title=" ">
<polygon fill="white" stroke="#bfbfbf" points="224,-734.5 224,-791.5 319,-791.5 319,-734.5 224,-734.5"/>
<text text-anchor="middle" x="271.5" y="-779.5" font-family="Courier New" font-size="10.00">MonoBehaviour</text>
<polyline fill="none" stroke="#bfbfbf" points="224,-772.5 319,-772.5 "/>
<text text-anchor="middle" x="271.5" y="-760.5" font-family="Courier New" font-size="10.00"> </text>
<polyline fill="none" stroke="#bfbfbf" points="224,-753.5 319,-753.5 "/>
<text text-anchor="middle" x="271.5" y="-741.5" font-family="Courier New" font-size="10.00"> </text>
</a>
</g>
</g>
<!-- Node5&#45;&gt;Node4 -->
<g id="edge4" class="edge"><title>Node5&#45;&gt;Node4</title>
<path fill="none" stroke="midnightblue" d="M271.5,-723.754C271.5,-706.221 271.5,-684.709 271.5,-663.754"/>
<polygon fill="none" stroke="midnightblue" points="268,-724.115 271.5,-734.115 275,-724.115 268,-724.115"/>
</g>
<!-- Node6 -->
<g id="node6" class="node"><title>Node6</title>
<g id="a_node6"><a xlink:title=" ">
<polygon fill="white" stroke="#bfbfbf" points="189,-320 189,-377 230,-377 230,-320 189,-320"/>
<text text-anchor="middle" x="209.5" y="-365" font-family="Courier New" font-size="10.00">C2M2</text>
<polyline fill="none" stroke="#bfbfbf" points="189,-358 230,-358 "/>
<text text-anchor="middle" x="209.5" y="-346" font-family="Courier New" font-size="10.00"> </text>
<polyline fill="none" stroke="#bfbfbf" points="189,-339 230,-339 "/>
<text text-anchor="middle" x="209.5" y="-327" font-family="Courier New" font-size="10.00"> </text>
</a>
</g>
</g>
<!-- Node6&#45;&gt;Node1 -->
<g id="edge5" class="edge"><title>Node6&#45;&gt;Node1</title>
<path fill="none" stroke="#404040" d="M206.002,-319.817C203.583,-300.675 200.173,-273.691 196.632,-245.667"/>
<polygon fill="none" stroke="#404040" points="196.613,-245.517 191.893,-240.066 195.109,-233.612 199.83,-239.063 196.613,-245.517"/>
<text text-anchor="middle" x="223" y="-255" font-family="Courier New" font-size="10.00"> #grid1D</text>
</g>
</g>
</svg>
