<?xml version="1.0" encoding="UTF-8" standalone="no"?>
<!DOCTYPE svg PUBLIC "-//W3C//DTD SVG 1.1//EN"
 "http://www.w3.org/Graphics/SVG/1.1/DTD/svg11.dtd">
<!-- Generated by graphviz version 2.38.0 (20140413.2041)
 -->
<!-- Title: C2M2.NeuronalDynamics.Simulation.NeuronSimulation1D Pages: 1 -->
<svg width="769pt" height="1045pt"
 viewBox="0.00 0.00 769.00 1045.00" xmlns="http://www.w3.org/2000/svg" xmlns:xlink="http://www.w3.org/1999/xlink">
<g id="graph0" class="graph" transform="scale(1 1) rotate(0) translate(4 1041)">
<title>C2M2.NeuronalDynamics.Simulation.NeuronSimulation1D</title>
<polygon fill="white" stroke="none" points="-4,4 -4,-1041 765,-1041 765,4 -4,4"/>
<!-- Node1 -->
<g id="node1" class="node"><title>Node1</title>
<g id="a_node1"><a xlink:title="Provide an interface for 1D neuron&#45;surface simulations to be visualized and interacted with">
<polygon fill="#bfbfbf" stroke="black" points="365,-0.5 365,-343.5 580,-343.5 580,-0.5 365,-0.5"/>
<text text-anchor="start" x="373" y="-331.5" font-family="Courier New" font-size="10.00">C2M2.NeuronalDynamics.Simulation.</text>
<text text-anchor="middle" x="472.5" y="-320.5" font-family="Courier New" font-size="10.00">NeuronSimulation1D</text>
<polyline fill="none" stroke="black" points="365,-313.5 580,-313.5 "/>
<text text-anchor="start" x="373" y="-301.5" font-family="Courier New" font-size="10.00">+ refinementLevel</text>
<text text-anchor="start" x="373" y="-290.5" font-family="Courier New" font-size="10.00">+ cell1xPath</text>
<text text-anchor="start" x="373" y="-279.5" font-family="Courier New" font-size="10.00">+ cell2xPath</text>
<text text-anchor="start" x="373" y="-268.5" font-family="Courier New" font-size="10.00">+ cell3xPath</text>
<text text-anchor="start" x="373" y="-257.5" font-family="Courier New" font-size="10.00">+ cell4xPath</text>
<text text-anchor="start" x="373" y="-246.5" font-family="Courier New" font-size="10.00">+ cell5xPath</text>
<text text-anchor="start" x="373" y="-235.5" font-family="Courier New" font-size="10.00">+ visualize1D</text>
<text text-anchor="start" x="373" y="-224.5" font-family="Courier New" font-size="10.00">+ color1D</text>
<text text-anchor="start" x="373" y="-213.5" font-family="Courier New" font-size="10.00">+ lineWidth1D</text>
<text text-anchor="start" x="373" y="-202.5" font-family="Courier New" font-size="10.00">&#45; meshScale</text>
<text text-anchor="start" x="373" y="-191.5" font-family="Courier New" font-size="10.00">&#45; meshColScale</text>
<text text-anchor="start" x="373" y="-180.5" font-family="Courier New" font-size="10.00">&#45; map</text>
<text text-anchor="start" x="373" y="-169.5" font-family="Courier New" font-size="10.00">&#45; scaledMeshes</text>
<polyline fill="none" stroke="black" points="365,-162.5 580,-162.5 "/>
<text text-anchor="start" x="373" y="-150.5" font-family="Courier New" font-size="10.00">+ GetValues()</text>
<text text-anchor="start" x="373" y="-139.5" font-family="Courier New" font-size="10.00">+ SetValues()</text>
<text text-anchor="start" x="373" y="-128.5" font-family="Courier New" font-size="10.00">+ RescaleMesh()</text>
<text text-anchor="start" x="373" y="-117.5" font-family="Courier New" font-size="10.00">+ SwitchColliderMesh()</text>
<text text-anchor="start" x="373" y="-106.5" font-family="Courier New" font-size="10.00">+ SwitchMesh()</text>
<text text-anchor="start" x="373" y="-95.5" font-family="Courier New" font-size="10.00"># Set1DValues()</text>
<text text-anchor="start" x="373" y="-84.5" font-family="Courier New" font-size="10.00"># Get1DValues()</text>
<text text-anchor="start" x="373" y="-73.5" font-family="Courier New" font-size="10.00"># SetNeuronCell()</text>
<text text-anchor="start" x="373" y="-62.5" font-family="Courier New" font-size="10.00"># ReadData()</text>
<text text-anchor="start" x="373" y="-51.5" font-family="Courier New" font-size="10.00"># BuildVisualization()</text>
<text text-anchor="start" x="373" y="-40.5" font-family="Courier New" font-size="10.00">&#45; BuildUI()</text>
<text text-anchor="start" x="373" y="-29.5" font-family="Courier New" font-size="10.00">&#45; Clean3DCell()</text>
<text text-anchor="start" x="373" y="-18.5" font-family="Courier New" font-size="10.00">&#45; BuildMesh()</text>
<text text-anchor="start" x="373" y="-7.5" font-family="Courier New" font-size="10.00">&#45; SwitchColliderMesh()</text>
</a>
</g>
</g>
<!-- Node2 -->
<g id="node2" class="node"><title>Node2</title>
<g id="a_node2"><a xlink:href="../../d6/d2d/class_c2_m2_1_1_simulation_1_1_mesh_simulation.html" target="_top" xlink:title="Simulation of type double[] for visualizing scalar fields on mesh surfaces">
<polygon fill="white" stroke="black" points="171,-391.5 171,-536.5 326,-536.5 326,-391.5 171,-391.5"/>
<text text-anchor="middle" x="248.5" y="-524.5" font-family="Courier New" font-size="10.00">MeshSimulation</text>
<polyline fill="none" stroke="black" points="171,-517.5 326,-517.5 "/>
<text text-anchor="start" x="179" y="-505.5" font-family="Courier New" font-size="10.00">+ gradient</text>
<text text-anchor="start" x="179" y="-494.5" font-family="Courier New" font-size="10.00">+ globalMax</text>
<text text-anchor="start" x="179" y="-483.5" font-family="Courier New" font-size="10.00">+ globalMin</text>
<text text-anchor="start" x="179" y="-472.5" font-family="Courier New" font-size="10.00">+ colorLUT</text>
<text text-anchor="start" x="179" y="-461.5" font-family="Courier New" font-size="10.00"># colliderMesh</text>
<text text-anchor="start" x="179" y="-450.5" font-family="Courier New" font-size="10.00">&#45; mf</text>
<text text-anchor="start" x="179" y="-439.5" font-family="Courier New" font-size="10.00">&#45; mr</text>
<polyline fill="none" stroke="black" points="171,-432.5 326,-432.5 "/>
<text text-anchor="start" x="179" y="-420.5" font-family="Courier New" font-size="10.00"># UpdateVisualization()</text>
<text text-anchor="start" x="179" y="-409.5" font-family="Courier New" font-size="10.00"># OnAwake()</text>
<text text-anchor="start" x="179" y="-398.5" font-family="Courier New" font-size="10.00">&#45; UpdateVisualization()</text>
</a>
</g>
</g>
<!-- Node2&#45;&gt;Node1 -->
<g id="edge1" class="edge"><title>Node2&#45;&gt;Node1</title>
<path fill="none" stroke="midnightblue" d="M310.047,-383.319C327.061,-361.291 346.04,-336.721 364.854,-312.363"/>
<polygon fill="none" stroke="midnightblue" points="307.214,-381.261 303.871,-391.315 312.754,-385.54 307.214,-381.261"/>
</g>
<!-- Node3 -->
<g id="node3" class="node"><title>Node3</title>
<g id="a_node3"><a xlink:href="../../db/d39/class_c2_m2_1_1_simulation_1_1_simulation.html" target="_top" xlink:title=" ">
<polygon fill="white" stroke="black" points="0,-664.5 0,-941.5 185,-941.5 185,-664.5 0,-664.5"/>
<text text-anchor="start" x="8" y="-929.5" font-family="Courier New" font-size="10.00">Simulation&lt; double</text>
<text text-anchor="start" x="8" y="-918.5" font-family="Courier New" font-size="10.00">[], Mesh, VRRaycastableMesh,</text>
<text text-anchor="middle" x="92.5" y="-907.5" font-family="Courier New" font-size="10.00"> VRGrabbableMesh &gt;</text>
<polyline fill="none" stroke="black" points="0,-900.5 185,-900.5 "/>
<text text-anchor="start" x="8" y="-888.5" font-family="Courier New" font-size="10.00">+ dryRun</text>
<text text-anchor="start" x="8" y="-877.5" font-family="Courier New" font-size="10.00">+ startOnAwake</text>
<text text-anchor="start" x="8" y="-866.5" font-family="Courier New" font-size="10.00">+ viz</text>
<text text-anchor="start" x="8" y="-855.5" font-family="Courier New" font-size="10.00"># mutex</text>
<text text-anchor="start" x="8" y="-844.5" font-family="Courier New" font-size="10.00">&#45; solveThread</text>
<polyline fill="none" stroke="black" points="0,-837.5 185,-837.5 "/>
<text text-anchor="start" x="8" y="-825.5" font-family="Courier New" font-size="10.00">+ GetValues()</text>
<text text-anchor="start" x="8" y="-814.5" font-family="Courier New" font-size="10.00">+ StartSimulation()</text>
<text text-anchor="start" x="8" y="-803.5" font-family="Courier New" font-size="10.00">+ StopSimulation()</text>
<text text-anchor="start" x="8" y="-792.5" font-family="Courier New" font-size="10.00">+ Awake()</text>
<text text-anchor="start" x="8" y="-781.5" font-family="Courier New" font-size="10.00">+ Start()</text>
<text text-anchor="start" x="8" y="-770.5" font-family="Courier New" font-size="10.00">+ Update()</text>
<text text-anchor="start" x="8" y="-759.5" font-family="Courier New" font-size="10.00"># BuildVisualization()</text>
<text text-anchor="start" x="8" y="-748.5" font-family="Courier New" font-size="10.00"># ReadData()</text>
<text text-anchor="start" x="8" y="-737.5" font-family="Courier New" font-size="10.00"># UpdateVisualization()</text>
<text text-anchor="start" x="8" y="-726.5" font-family="Courier New" font-size="10.00"># Solve()</text>
<text text-anchor="start" x="8" y="-715.5" font-family="Courier New" font-size="10.00"># OnAwake()</text>
<text text-anchor="start" x="8" y="-704.5" font-family="Courier New" font-size="10.00"># OnStart()</text>
<text text-anchor="start" x="8" y="-693.5" font-family="Courier New" font-size="10.00"># OnUpdate()</text>
<text text-anchor="start" x="8" y="-682.5" font-family="Courier New" font-size="10.00">&#45; OnApplicationPause()</text>
<text text-anchor="start" x="8" y="-671.5" font-family="Courier New" font-size="10.00">&#45; OnApplicationQuit()</text>
</a>
</g>
</g>
<!-- Node3&#45;&gt;Node2 -->
<g id="edge2" class="edge"><title>Node3&#45;&gt;Node2</title>
<path fill="none" stroke="midnightblue" d="M160.477,-655.152C179.502,-614.053 199.337,-571.206 215.35,-536.612"/>
<polygon fill="none" stroke="midnightblue" points="157.201,-653.898 156.176,-664.443 163.553,-656.839 157.201,-653.898"/>
</g>
<!-- Node4 -->
<g id="node4" class="node"><title>Node4</title>
<g id="a_node4"><a xlink:href="../../da/d4f/class_c2_m2_1_1_visualization_1_1_l_u_t_gradient.html" target="_top" xlink:title="Create a fast and memory&#45;friendly color lookup table from a gradient">
<polygon fill="white" stroke="black" points="203,-719.5 203,-886.5 400,-886.5 400,-719.5 203,-719.5"/>
<text text-anchor="middle" x="301.5" y="-874.5" font-family="Courier New" font-size="10.00">C2M2.Visualization.LUTGradient</text>
<polyline fill="none" stroke="black" points="203,-867.5 400,-867.5 "/>
<text text-anchor="start" x="211" y="-855.5" font-family="Courier New" font-size="10.00">+ extremaMethod</text>
<text text-anchor="start" x="211" y="-844.5" font-family="Courier New" font-size="10.00">+ globalMax</text>
<text text-anchor="start" x="211" y="-833.5" font-family="Courier New" font-size="10.00">+ globalMin</text>
<text text-anchor="start" x="211" y="-822.5" font-family="Courier New" font-size="10.00">+ LutRes</text>
<text text-anchor="start" x="211" y="-811.5" font-family="Courier New" font-size="10.00">+ Gradient</text>
<text text-anchor="start" x="211" y="-800.5" font-family="Courier New" font-size="10.00">+ gradientLUT</text>
<text text-anchor="start" x="211" y="-789.5" font-family="Courier New" font-size="10.00">&#45; lutRes</text>
<text text-anchor="start" x="211" y="-778.5" font-family="Courier New" font-size="10.00">&#45; gradient</text>
<polyline fill="none" stroke="black" points="203,-771.5 400,-771.5 "/>
<text text-anchor="start" x="211" y="-759.5" font-family="Courier New" font-size="10.00">+ Evaluate()</text>
<text text-anchor="start" x="211" y="-748.5" font-family="Courier New" font-size="10.00">+ Evaluate()</text>
<text text-anchor="start" x="211" y="-737.5" font-family="Courier New" font-size="10.00">&#45; BuildLUT()</text>
<text text-anchor="start" x="211" y="-726.5" font-family="Courier New" font-size="10.00">&#45; RescaleArray()</text>
</a>
</g>
</g>
<!-- Node4&#45;&gt;Node2 -->
<g id="edge3" class="edge"><title>Node4&#45;&gt;Node2</title>
<path fill="none" stroke="#404040" d="M265.193,-719.291C256.672,-696.036 248.821,-670.418 244.5,-646 237.452,-606.174 243.602,-595.434 244.5,-555 244.545,-552.957 244.597,-550.889 244.653,-548.803"/>
<polygon fill="none" stroke="#404040" points="244.656,-548.707 240.842,-542.587 245.025,-536.713 248.839,-542.834 244.656,-548.707"/>
<text text-anchor="middle" x="290" y="-598" font-family="Courier New" font-size="10.00"> +extremaMethod</text>
</g>
<!-- Node5 -->
<g id="node5" class="node"><title>Node5</title>
<g id="a_node5"><a xlink:title=" ">
<polygon fill="white" stroke="#bfbfbf" points="343,-979.5 343,-1036.5 438,-1036.5 438,-979.5 343,-979.5"/>
<text text-anchor="middle" x="390.5" y="-1024.5" font-family="Courier New" font-size="10.00">MonoBehaviour</text>
<polyline fill="none" stroke="#bfbfbf" points="343,-1017.5 438,-1017.5 "/>
<text text-anchor="middle" x="390.5" y="-1005.5" font-family="Courier New" font-size="10.00"> </text>
<polyline fill="none" stroke="#bfbfbf" points="343,-998.5 438,-998.5 "/>
<text text-anchor="middle" x="390.5" y="-986.5" font-family="Courier New" font-size="10.00"> </text>
</a>
</g>
</g>
<!-- Node5&#45;&gt;Node4 -->
<g id="edge4" class="edge"><title>Node5&#45;&gt;Node4</title>
<path fill="none" stroke="midnightblue" d="M374.29,-970.027C364.064,-946.703 350.434,-915.612 337.734,-886.646"/>
<polygon fill="none" stroke="midnightblue" points="371.091,-971.446 378.312,-979.199 377.502,-968.636 371.091,-971.446"/>
</g>
<!-- Node8 -->
<g id="node8" class="node"><title>Node8</title>
<g id="a_node8"><a xlink:href="../../dc/d72/class_c2_m2_1_1_utils_1_1_mesh_utils_1_1_mesh_col_controller.html" target="_top" xlink:title="Set this.mesh to quickly look up and update a MeshCollider&#39;s mesh">
<polygon fill="white" stroke="black" points="345,-555.5 345,-645.5 512,-645.5 512,-555.5 345,-555.5"/>
<text text-anchor="start" x="353" y="-633.5" font-family="Courier New" font-size="10.00">C2M2.Utils.MeshUtils.Mesh</text>
<text text-anchor="middle" x="428.5" y="-622.5" font-family="Courier New" font-size="10.00">ColController</text>
<polyline fill="none" stroke="black" points="345,-615.5 512,-615.5 "/>
<text text-anchor="start" x="353" y="-603.5" font-family="Courier New" font-size="10.00">+ meshCol</text>
<text text-anchor="start" x="353" y="-592.5" font-family="Courier New" font-size="10.00">+ Mesh</text>
<text text-anchor="start" x="353" y="-581.5" font-family="Courier New" font-size="10.00">&#45; mesh</text>
<polyline fill="none" stroke="black" points="345,-574.5 512,-574.5 "/>
<text text-anchor="middle" x="428.5" y="-562.5" font-family="Courier New" font-size="10.00"> </text>
</a>
</g>
</g>
<!-- Node5&#45;&gt;Node8 -->
<g id="edge8" class="edge"><title>Node5&#45;&gt;Node8</title>
<path fill="none" stroke="midnightblue" d="M402.294,-969.655C404.723,-960.679 406.996,-951.064 408.5,-942 425.97,-836.702 428.754,-710.879 428.872,-645.637"/>
<polygon fill="none" stroke="midnightblue" points="398.876,-968.879 399.517,-979.454 405.611,-970.787 398.876,-968.879"/>
</g>
<!-- Node6 -->
<g id="node6" class="node"><title>Node6</title>
<g id="a_node6"><a xlink:title=" ">
<polygon fill="white" stroke="#bfbfbf" points="529,-435.5 529,-492.5 570,-492.5 570,-435.5 529,-435.5"/>
<text text-anchor="middle" x="549.5" y="-480.5" font-family="Courier New" font-size="10.00">C2M2</text>
<polyline fill="none" stroke="#bfbfbf" points="529,-473.5 570,-473.5 "/>
<text text-anchor="middle" x="549.5" y="-461.5" font-family="Courier New" font-size="10.00"> </text>
<polyline fill="none" stroke="#bfbfbf" points="529,-454.5 570,-454.5 "/>
<text text-anchor="middle" x="549.5" y="-442.5" font-family="Courier New" font-size="10.00"> </text>
</a>
</g>
</g>
<!-- Node6&#45;&gt;Node1 -->
<g id="edge5" class="edge"><title>Node6&#45;&gt;Node1</title>
<path fill="none" stroke="#404040" d="M542.187,-435.456C536.887,-415.498 529.213,-386.594 520.876,-355.194"/>
<polygon fill="none" stroke="#404040" points="520.857,-355.123 515.451,-350.351 517.777,-343.525 523.183,-348.298 520.857,-355.123"/>
<text text-anchor="middle" x="550" y="-365" font-family="Courier New" font-size="10.00"> #grid1D</text>
</g>
<!-- Node7 -->
<g id="node7" class="node"><title>Node7</title>
<g id="a_node7"><a xlink:href="../../dd/d2a/struct_c2_m2_1_1_neuronal_dynamics_1_1_u_g_x_1_1_mapping_info.html" target="_top" xlink:title="Encapsulates the grids and mapping data">
<polygon fill="white" stroke="black" points="588,-419 588,-509 761,-509 761,-419 588,-419"/>
<text text-anchor="start" x="596" y="-497" font-family="Courier New" font-size="10.00">C2M2.NeuronalDynamics.UGX.</text>
<text text-anchor="middle" x="674.5" y="-486" font-family="Courier New" font-size="10.00">MappingInfo</text>
<polyline fill="none" stroke="black" points="588,-479 761,-479 "/>
<text text-anchor="start" x="596" y="-467" font-family="Courier New" font-size="10.00">+ ModelGeometry</text>
<text text-anchor="start" x="596" y="-456" font-family="Courier New" font-size="10.00">+ SurfaceGeometry</text>
<text text-anchor="start" x="596" y="-445" font-family="Courier New" font-size="10.00">+ Data</text>
<polyline fill="none" stroke="black" points="588,-438 761,-438 "/>
<text text-anchor="start" x="596" y="-426" font-family="Courier New" font-size="10.00">+ MappingInfo()</text>
</a>
</g>
</g>
<!-- Node7&#45;&gt;Node1 -->
<g id="edge6" class="edge"><title>Node7&#45;&gt;Node1</title>
<path fill="none" stroke="#404040" d="M643.821,-418.955C628.203,-396.534 608.132,-367.719 587.262,-337.758"/>
<polygon fill="none" stroke="#404040" points="587.018,-337.407 580.306,-334.77 580.159,-327.56 586.871,-330.197 587.018,-337.407"/>
<text text-anchor="middle" x="637" y="-365" font-family="Courier New" font-size="10.00"> &#45;mapping</text>
</g>
<!-- Node8&#45;&gt;Node1 -->
<g id="edge7" class="edge"><title>Node8&#45;&gt;Node1</title>
<path fill="none" stroke="#404040" d="M409.279,-555.353C407.31,-549.285 405.623,-543.057 404.5,-537 392.671,-473.198 394.727,-455.149 404.5,-391 406.28,-379.315 408.568,-367.396 411.221,-355.454"/>
<polygon fill="none" stroke="#404040" points="411.279,-355.203 408.738,-348.455 413.99,-343.514 416.531,-350.262 411.279,-355.203"/>
<text text-anchor="middle" x="462" y="-461.5" font-family="Courier New" font-size="10.00"> &#45;meshColController</text>
</g>
</g>
</svg>
