<?xml version="1.0" encoding="UTF-8" standalone="no"?>
<!DOCTYPE svg PUBLIC "-//W3C//DTD SVG 1.1//EN"
 "http://www.w3.org/Graphics/SVG/1.1/DTD/svg11.dtd">
<!-- Generated by graphviz version 2.38.0 (20140413.2041)
 -->
<!-- Title: C2M2.Interaction.VR.VRRaycastableColliders Pages: 1 -->
<svg width="223pt" height="259pt"
 viewBox="0.00 0.00 223.00 259.00" xmlns="http://www.w3.org/2000/svg" xmlns:xlink="http://www.w3.org/1999/xlink">
<g id="graph0" class="graph" transform="scale(1 1) rotate(0) translate(4 255)">
<title>C2M2.Interaction.VR.VRRaycastableColliders</title>
<polygon fill="white" stroke="none" points="-4,4 -4,-255 219,-255 219,4 -4,4"/>
<!-- Node1 -->
<g id="node1" class="node"><title>Node1</title>
<g id="a_node1"><a xlink:title=" ">
<polygon fill="#bfbfbf" stroke="black" points="0,-0.5 0,-101.5 215,-101.5 215,-0.5 0,-0.5"/>
<text text-anchor="start" x="8" y="-89.5" font-family="Courier New" font-size="10.00">C2M2.Interaction.VR.VRRaycastable</text>
<text text-anchor="middle" x="107.5" y="-78.5" font-family="Courier New" font-size="10.00">Colliders</text>
<polyline fill="none" stroke="black" points="0,-71.5 215,-71.5 "/>
<text text-anchor="middle" x="107.5" y="-59.5" font-family="Courier New" font-size="10.00"> </text>
<polyline fill="none" stroke="black" points="0,-52.5 215,-52.5 "/>
<text text-anchor="start" x="8" y="-40.5" font-family="Courier New" font-size="10.00">+ GetSource()</text>
<text text-anchor="start" x="8" y="-29.5" font-family="Courier New" font-size="10.00">+ SetSource()</text>
<text text-anchor="start" x="8" y="-18.5" font-family="Courier New" font-size="10.00"># OnAwake()</text>
<text text-anchor="start" x="8" y="-7.5" font-family="Courier New" font-size="10.00">&#45; CopyComponent()</text>
</a>
</g>
</g>
<!-- Node2 -->
<g id="node2" class="node"><title>Node2</title>
<g id="a_node2"><a xlink:href="../../d5/d84/class_c2_m2_1_1_interaction_1_1_v_r_1_1_v_r_raycastable.html" target="_top" xlink:title=" ">
<polygon fill="white" stroke="black" points="21,-138.5 21,-250.5 194,-250.5 194,-138.5 21,-138.5"/>
<text text-anchor="middle" x="107.5" y="-238.5" font-family="Courier New" font-size="10.00">VRRaycastable&lt; Collider[]&gt;</text>
<polyline fill="none" stroke="black" points="21,-231.5 194,-231.5 "/>
<text text-anchor="start" x="29" y="-219.5" font-family="Courier New" font-size="10.00"># source</text>
<polyline fill="none" stroke="black" points="21,-212.5 194,-212.5 "/>
<text text-anchor="start" x="29" y="-200.5" font-family="Courier New" font-size="10.00">+ GetSource()</text>
<text text-anchor="start" x="29" y="-189.5" font-family="Courier New" font-size="10.00">+ SetSource()</text>
<text text-anchor="start" x="29" y="-178.5" font-family="Courier New" font-size="10.00"># OnAwake()</text>
<text text-anchor="start" x="29" y="-167.5" font-family="Courier New" font-size="10.00"># BuildChildObject()</text>
<text text-anchor="start" x="29" y="-156.5" font-family="Courier New" font-size="10.00"># BuildRigidBody()</text>
<text text-anchor="start" x="29" y="-145.5" font-family="Courier New" font-size="10.00">&#45; Awake()</text>
</a>
</g>
</g>
<!-- Node2&#45;&gt;Node1 -->
<g id="edge1" class="edge"><title>Node2&#45;&gt;Node1</title>
<path fill="none" stroke="midnightblue" d="M107.5,-128.344C107.5,-119.375 107.5,-110.286 107.5,-101.658"/>
<polygon fill="none" stroke="midnightblue" points="104,-128.387 107.5,-138.387 111,-128.387 104,-128.387"/>
</g>
</g>
</svg>
