<?xml version="1.0" encoding="UTF-8" standalone="no"?>
<!DOCTYPE svg PUBLIC "-//W3C//DTD SVG 1.1//EN"
 "http://www.w3.org/Graphics/SVG/1.1/DTD/svg11.dtd">
<!-- Generated by graphviz version 2.38.0 (20140413.2041)
 -->
<!-- Title: C2M2.Interaction.UI.MultiframeFade_LowpassCutoff Pages: 1 -->
<svg width="205pt" height="259pt"
 viewBox="0.00 0.00 205.00 259.00" xmlns="http://www.w3.org/2000/svg" xmlns:xlink="http://www.w3.org/1999/xlink">
<g id="graph0" class="graph" transform="scale(1 1) rotate(0) translate(4 255)">
<title>C2M2.Interaction.UI.MultiframeFade_LowpassCutoff</title>
<polygon fill="white" stroke="none" points="-4,4 -4,-255 201,-255 201,4 -4,4"/>
<!-- Node1 -->
<g id="node1" class="node"><title>Node1</title>
<g id="a_node1"><a xlink:title=" ">
<polygon fill="#bfbfbf" stroke="black" points="0,-0.5 0,-156.5 197,-156.5 197,-0.5 0,-0.5"/>
<text text-anchor="start" x="8" y="-144.5" font-family="Courier New" font-size="10.00">C2M2.Interaction.UI.Multiframe</text>
<text text-anchor="middle" x="98.5" y="-133.5" font-family="Courier New" font-size="10.00">Fade_LowpassCutoff</text>
<polyline fill="none" stroke="black" points="0,-126.5 197,-126.5 "/>
<text text-anchor="start" x="8" y="-114.5" font-family="Courier New" font-size="10.00">+ lowPass</text>
<text text-anchor="start" x="8" y="-103.5" font-family="Courier New" font-size="10.00">+ frameDuration</text>
<text text-anchor="start" x="8" y="-92.5" font-family="Courier New" font-size="10.00">+ decrease</text>
<text text-anchor="start" x="8" y="-81.5" font-family="Courier New" font-size="10.00">+ frequencyTarget</text>
<text text-anchor="start" x="8" y="-70.5" font-family="Courier New" font-size="10.00">+ resonanceTarget</text>
<text text-anchor="start" x="8" y="-59.5" font-family="Courier New" font-size="10.00">&#45; frequencyIncrement</text>
<text text-anchor="start" x="8" y="-48.5" font-family="Courier New" font-size="10.00">&#45; resonanceIncrement</text>
<text text-anchor="start" x="8" y="-37.5" font-family="Courier New" font-size="10.00">&#45; frameCounter</text>
<polyline fill="none" stroke="black" points="0,-30.5 197,-30.5 "/>
<text text-anchor="start" x="8" y="-18.5" font-family="Courier New" font-size="10.00">&#45; Start()</text>
<text text-anchor="start" x="8" y="-7.5" font-family="Courier New" font-size="10.00">&#45; Update()</text>
</a>
</g>
</g>
<!-- Node2 -->
<g id="node2" class="node"><title>Node2</title>
<g id="a_node2"><a xlink:title=" ">
<polygon fill="white" stroke="#bfbfbf" points="51,-193.5 51,-250.5 146,-250.5 146,-193.5 51,-193.5"/>
<text text-anchor="middle" x="98.5" y="-238.5" font-family="Courier New" font-size="10.00">MonoBehaviour</text>
<polyline fill="none" stroke="#bfbfbf" points="51,-231.5 146,-231.5 "/>
<text text-anchor="middle" x="98.5" y="-219.5" font-family="Courier New" font-size="10.00"> </text>
<polyline fill="none" stroke="#bfbfbf" points="51,-212.5 146,-212.5 "/>
<text text-anchor="middle" x="98.5" y="-200.5" font-family="Courier New" font-size="10.00"> </text>
</a>
</g>
</g>
<!-- Node2&#45;&gt;Node1 -->
<g id="edge1" class="edge"><title>Node2&#45;&gt;Node1</title>
<path fill="none" stroke="midnightblue" d="M98.5,-183.34C98.5,-175.044 98.5,-165.964 98.5,-156.736"/>
<polygon fill="none" stroke="midnightblue" points="95.0001,-183.381 98.5,-193.381 102,-183.382 95.0001,-183.381"/>
</g>
</g>
</svg>
