<?xml version="1.0" encoding="UTF-8" standalone="no"?>
<!DOCTYPE svg PUBLIC "-//W3C//DTD SVG 1.1//EN"
 "http://www.w3.org/Graphics/SVG/1.1/DTD/svg11.dtd">
<!-- Generated by graphviz version 2.38.0 (20140413.2041)
 -->
<!-- Title: C2M2.Interaction.RaycastHeater Pages: 1 -->
<svg width="211pt" height="332pt"
 viewBox="0.00 0.00 211.00 332.00" xmlns="http://www.w3.org/2000/svg" xmlns:xlink="http://www.w3.org/1999/xlink">
<g id="graph0" class="graph" transform="scale(1 1) rotate(0) translate(4 328)">
<title>C2M2.Interaction.RaycastHeater</title>
<polygon fill="white" stroke="none" points="-4,4 -4,-328 207,-328 207,4 -4,4"/>
<!-- Node1 -->
<g id="node1" class="node"><title>Node1</title>
<g id="a_node1"><a xlink:title=" ">
<polygon fill="#bfbfbf" stroke="black" points="0,-127.5 0,-228.5 161,-228.5 161,-127.5 0,-127.5"/>
<text text-anchor="start" x="8" y="-216.5" font-family="Courier New" font-size="10.00">C2M2.Interaction.Raycast</text>
<text text-anchor="middle" x="80.5" y="-205.5" font-family="Courier New" font-size="10.00">Heater</text>
<polyline fill="none" stroke="black" points="0,-198.5 161,-198.5 "/>
<text text-anchor="middle" x="80.5" y="-186.5" font-family="Courier New" font-size="10.00"> </text>
<polyline fill="none" stroke="black" points="0,-179.5 161,-179.5 "/>
<text text-anchor="start" x="8" y="-167.5" font-family="Courier New" font-size="10.00">+ Hit()</text>
<text text-anchor="start" x="8" y="-156.5" font-family="Courier New" font-size="10.00"># OnAwake()</text>
<text text-anchor="start" x="8" y="-145.5" font-family="Courier New" font-size="10.00"># HitMethod()</text>
<text text-anchor="start" x="8" y="-134.5" font-family="Courier New" font-size="10.00">&#45; Awake()</text>
</a>
</g>
</g>
<!-- Node3 -->
<g id="node3" class="node"><title>Node3</title>
<g id="a_node3"><a xlink:href="../../dc/daa/class_c2_m2_1_1_simulation_1_1_interactable.html" target="_top" xlink:title="Interface for interaction scripts">
<polygon fill="white" stroke="black" points="9,-0.5 9,-79.5 194,-79.5 194,-0.5 9,-0.5"/>
<text text-anchor="middle" x="101.5" y="-67.5" font-family="Courier New" font-size="10.00">C2M2.Simulation.Interactable</text>
<polyline fill="none" stroke="black" points="9,-60.5 194,-60.5 "/>
<text text-anchor="start" x="17" y="-48.5" font-family="Courier New" font-size="10.00">+ Heater</text>
<text text-anchor="start" x="17" y="-37.5" font-family="Courier New" font-size="10.00"># interactionType</text>
<polyline fill="none" stroke="black" points="9,-30.5 194,-30.5 "/>
<text text-anchor="start" x="17" y="-18.5" font-family="Courier New" font-size="10.00">+ SetValues()</text>
<text text-anchor="start" x="17" y="-7.5" font-family="Courier New" font-size="10.00">+ GetSimulationTime()</text>
</a>
</g>
</g>
<!-- Node1&#45;&gt;Node3 -->
<g id="edge4" class="edge"><title>Node1&#45;&gt;Node3</title>
<path fill="none" stroke="#404040" d="M38.8838,-127.381C35.1704,-117.754 34.2154,-107.654 38.5,-98 39.8284,-95.0066 41.4003,-92.1037 43.1635,-89.2981"/>
<polygon fill="none" stroke="#404040" points="43.1955,-89.2544 43.5175,-82.0504 50.2912,-79.577 49.9692,-86.7809 43.1955,-89.2544"/>
<text text-anchor="middle" x="63" y="-101" font-family="Courier New" font-size="10.00"> &#45;heater</text>
</g>
<!-- Node2 -->
<g id="node2" class="node"><title>Node2</title>
<g id="a_node2"><a xlink:title=" ">
<polygon fill="white" stroke="#bfbfbf" points="108,-266.5 108,-323.5 203,-323.5 203,-266.5 108,-266.5"/>
<text text-anchor="middle" x="155.5" y="-311.5" font-family="Courier New" font-size="10.00">MonoBehaviour</text>
<polyline fill="none" stroke="#bfbfbf" points="108,-304.5 203,-304.5 "/>
<text text-anchor="middle" x="155.5" y="-292.5" font-family="Courier New" font-size="10.00"> </text>
<polyline fill="none" stroke="#bfbfbf" points="108,-285.5 203,-285.5 "/>
<text text-anchor="middle" x="155.5" y="-273.5" font-family="Courier New" font-size="10.00"> </text>
</a>
</g>
</g>
<!-- Node2&#45;&gt;Node1 -->
<g id="edge1" class="edge"><title>Node2&#45;&gt;Node1</title>
<path fill="none" stroke="midnightblue" d="M131.962,-257.909C125.944,-248.681 119.367,-238.596 112.986,-228.812"/>
<polygon fill="none" stroke="midnightblue" points="129.141,-259.99 137.536,-266.455 135.005,-256.167 129.141,-259.99"/>
</g>
<!-- Node2&#45;&gt;Node3 -->
<g id="edge3" class="edge"><title>Node2&#45;&gt;Node3</title>
<path fill="none" stroke="midnightblue" d="M168.492,-256.916C180.549,-215.982 193.354,-149.122 169.5,-98 166.439,-91.439 162.209,-85.3658 157.344,-79.8225"/>
<polygon fill="none" stroke="midnightblue" points="165.142,-255.903 165.546,-266.49 171.832,-257.962 165.142,-255.903"/>
</g>
<!-- Node3&#45;&gt;Node1 -->
<g id="edge2" class="edge"><title>Node3&#45;&gt;Node1</title>
<path fill="none" stroke="#404040" d="M95.5108,-79.7873C93.8045,-90.8377 91.9019,-103.159 90.04,-115.217"/>
<polygon fill="none" stroke="#404040" points="90.0317,-115.271 93.0692,-121.812 88.2004,-127.131 85.1629,-120.591 90.0317,-115.271"/>
<text text-anchor="middle" x="129" y="-101" font-family="Courier New" font-size="10.00"> #simulation</text>
</g>
</g>
</svg>
