<?xml version="1.0" encoding="UTF-8" standalone="no"?>
<!DOCTYPE svg PUBLIC "-//W3C//DTD SVG 1.1//EN"
 "http://www.w3.org/Graphics/SVG/1.1/DTD/svg11.dtd">
<!-- Generated by graphviz version 2.38.0 (20140413.2041)
 -->
<!-- Title: C2M2.Interaction.RaycastHeater Pages: 1 -->
<svg width="211pt" height="321pt"
 viewBox="0.00 0.00 211.00 321.00" xmlns="http://www.w3.org/2000/svg" xmlns:xlink="http://www.w3.org/1999/xlink">
<g id="graph0" class="graph" transform="scale(1 1) rotate(0) translate(4 317)">
<title>C2M2.Interaction.RaycastHeater</title>
<polygon fill="white" stroke="none" points="-4,4 -4,-317 207,-317 207,4 -4,4"/>
<!-- Node1 -->
<g id="node1" class="node"><title>Node1</title>
<g id="a_node1"><a xlink:title=" ">
<polygon fill="#bfbfbf" stroke="black" points="0,-116.5 0,-217.5 161,-217.5 161,-116.5 0,-116.5"/>
<text text-anchor="start" x="8" y="-205.5" font-family="Courier New" font-size="10.00">C2M2.Interaction.Raycast</text>
<text text-anchor="middle" x="80.5" y="-194.5" font-family="Courier New" font-size="10.00">Heater</text>
<polyline fill="none" stroke="black" points="0,-187.5 161,-187.5 "/>
<text text-anchor="middle" x="80.5" y="-175.5" font-family="Courier New" font-size="10.00"> </text>
<polyline fill="none" stroke="black" points="0,-168.5 161,-168.5 "/>
<text text-anchor="start" x="8" y="-156.5" font-family="Courier New" font-size="10.00">+ Hit()</text>
<text text-anchor="start" x="8" y="-145.5" font-family="Courier New" font-size="10.00"># OnAwake()</text>
<text text-anchor="start" x="8" y="-134.5" font-family="Courier New" font-size="10.00"># HitMethod()</text>
<text text-anchor="start" x="8" y="-123.5" font-family="Courier New" font-size="10.00">&#45; Awake()</text>
</a>
</g>
</g>
<!-- Node3 -->
<g id="node3" class="node"><title>Node3</title>
<g id="a_node3"><a xlink:href="../../dc/daa/class_c2_m2_1_1_simulation_1_1_interactable.html" target="_top" xlink:title="Interface for interaction scripts">
<polygon fill="white" stroke="black" points="9,-0.5 9,-68.5 194,-68.5 194,-0.5 9,-0.5"/>
<text text-anchor="middle" x="101.5" y="-56.5" font-family="Courier New" font-size="10.00">C2M2.Simulation.Interactable</text>
<polyline fill="none" stroke="black" points="9,-49.5 194,-49.5 "/>
<text text-anchor="start" x="17" y="-37.5" font-family="Courier New" font-size="10.00">+ Heater</text>
<text text-anchor="start" x="17" y="-26.5" font-family="Courier New" font-size="10.00"># interactionType</text>
<polyline fill="none" stroke="black" points="9,-19.5 194,-19.5 "/>
<text text-anchor="start" x="17" y="-7.5" font-family="Courier New" font-size="10.00">+ SetValues()</text>
</a>
</g>
</g>
<!-- Node1&#45;&gt;Node3 -->
<g id="edge4" class="edge"><title>Node1&#45;&gt;Node3</title>
<path fill="none" stroke="#404040" d="M39.4186,-116.15C35.8357,-106.545 35.0356,-96.512 39.5,-87 40.9278,-83.9579 42.6333,-81.0334 44.5519,-78.2311"/>
<polygon fill="none" stroke="#404040" points="44.7717,-77.9592 45.4332,-70.7785 52.316,-68.6273 51.6544,-75.8081 44.7717,-77.9592"/>
<text text-anchor="middle" x="64" y="-90" font-family="Courier New" font-size="10.00"> &#45;heater</text>
</g>
<!-- Node2 -->
<g id="node2" class="node"><title>Node2</title>
<g id="a_node2"><a xlink:title=" ">
<polygon fill="white" stroke="#bfbfbf" points="108,-255.5 108,-312.5 203,-312.5 203,-255.5 108,-255.5"/>
<text text-anchor="middle" x="155.5" y="-300.5" font-family="Courier New" font-size="10.00">MonoBehaviour</text>
<polyline fill="none" stroke="#bfbfbf" points="108,-293.5 203,-293.5 "/>
<text text-anchor="middle" x="155.5" y="-281.5" font-family="Courier New" font-size="10.00"> </text>
<polyline fill="none" stroke="#bfbfbf" points="108,-274.5 203,-274.5 "/>
<text text-anchor="middle" x="155.5" y="-262.5" font-family="Courier New" font-size="10.00"> </text>
</a>
</g>
</g>
<!-- Node2&#45;&gt;Node1 -->
<g id="edge1" class="edge"><title>Node2&#45;&gt;Node1</title>
<path fill="none" stroke="midnightblue" d="M131.962,-246.909C125.944,-237.681 119.367,-227.596 112.986,-217.812"/>
<polygon fill="none" stroke="midnightblue" points="129.141,-248.99 137.536,-255.455 135.005,-245.167 129.141,-248.99"/>
</g>
<!-- Node2&#45;&gt;Node3 -->
<g id="edge3" class="edge"><title>Node2&#45;&gt;Node3</title>
<path fill="none" stroke="midnightblue" d="M169.322,-245.663C182.153,-204.504 195.797,-137.447 170.5,-87 167.083,-80.1853 162.289,-74.042 156.802,-68.5728"/>
<polygon fill="none" stroke="midnightblue" points="165.955,-244.699 166.187,-255.292 172.611,-246.867 165.955,-244.699"/>
</g>
<!-- Node3&#45;&gt;Node1 -->
<g id="edge2" class="edge"><title>Node3&#45;&gt;Node1</title>
<path fill="none" stroke="#404040" d="M96.1887,-68.5058C94.4409,-79.3673 92.4368,-91.8212 90.4585,-104.115"/>
<polygon fill="none" stroke="#404040" points="90.4057,-104.444 93.4016,-111.003 88.4991,-116.291 85.5032,-109.732 90.4057,-104.444"/>
<text text-anchor="middle" x="130" y="-90" font-family="Courier New" font-size="10.00"> #simulation</text>
</g>
</g>
</svg>
