<?xml version="1.0" encoding="UTF-8" standalone="no"?>
<!DOCTYPE svg PUBLIC "-//W3C//DTD SVG 1.1//EN"
 "http://www.w3.org/Graphics/SVG/1.1/DTD/svg11.dtd">
<!-- Generated by graphviz version 2.38.0 (20140413.2041)
 -->
<!-- Title: C2M2.NeuronalDynamics.Visualization.VTK.VTUManager Pages: 1 -->
<svg width="241pt" height="314pt"
 viewBox="0.00 0.00 241.00 314.00" xmlns="http://www.w3.org/2000/svg" xmlns:xlink="http://www.w3.org/1999/xlink">
<g id="graph0" class="graph" transform="scale(1 1) rotate(0) translate(4 310)">
<title>C2M2.NeuronalDynamics.Visualization.VTK.VTUManager</title>
<polygon fill="white" stroke="none" points="-4,4 -4,-310 237,-310 237,4 -4,4"/>
<!-- Node1 -->
<g id="node1" class="node"><title>Node1</title>
<g id="a_node1"><a xlink:title=" ">
<polygon fill="#bfbfbf" stroke="black" points="0,-0.5 0,-211.5 233,-211.5 233,-0.5 0,-0.5"/>
<text text-anchor="start" x="8" y="-199.5" font-family="Courier New" font-size="10.00">C2M2.NeuronalDynamics.Visualization.</text>
<text text-anchor="middle" x="116.5" y="-188.5" font-family="Courier New" font-size="10.00">VTK.VTUManager</text>
<polyline fill="none" stroke="black" points="0,-181.5 233,-181.5 "/>
<text text-anchor="start" x="8" y="-169.5" font-family="Courier New" font-size="10.00">+ dataExtension</text>
<text text-anchor="start" x="8" y="-158.5" font-family="Courier New" font-size="10.00">+ dataPath</text>
<text text-anchor="start" x="8" y="-147.5" font-family="Courier New" font-size="10.00">+ fileProcessCount</text>
<text text-anchor="start" x="8" y="-136.5" font-family="Courier New" font-size="10.00">+ initialPosition</text>
<text text-anchor="start" x="8" y="-125.5" font-family="Courier New" font-size="10.00">+ initialRotation</text>
<text text-anchor="start" x="8" y="-114.5" font-family="Courier New" font-size="10.00">+ compoundColliderResolution</text>
<text text-anchor="start" x="8" y="-103.5" font-family="Courier New" font-size="10.00">+ adjacencyListSubdivisions</text>
<text text-anchor="start" x="8" y="-92.5" font-family="Courier New" font-size="10.00">+ VTUPlayer</text>
<text text-anchor="start" x="8" y="-81.5" font-family="Courier New" font-size="10.00">+ vtuList</text>
<text text-anchor="start" x="8" y="-70.5" font-family="Courier New" font-size="10.00">+ gradient</text>
<text text-anchor="start" x="8" y="-59.5" font-family="Courier New" font-size="10.00">&#45; objectManager</text>
<text text-anchor="start" x="8" y="-48.5" font-family="Courier New" font-size="10.00">&#45; vtuObjectBuilder</text>
<text text-anchor="start" x="8" y="-37.5" font-family="Courier New" font-size="10.00">&#45; meshf</text>
<polyline fill="none" stroke="black" points="0,-30.5 233,-30.5 "/>
<text text-anchor="start" x="8" y="-18.5" font-family="Courier New" font-size="10.00">+ Initialize()</text>
<text text-anchor="start" x="8" y="-7.5" font-family="Courier New" font-size="10.00">&#45; BuildVTUList()</text>
</a>
</g>
</g>
<!-- Node2 -->
<g id="node2" class="node"><title>Node2</title>
<g id="a_node2"><a xlink:title=" ">
<polygon fill="white" stroke="#bfbfbf" points="69,-248.5 69,-305.5 164,-305.5 164,-248.5 69,-248.5"/>
<text text-anchor="middle" x="116.5" y="-293.5" font-family="Courier New" font-size="10.00">MonoBehaviour</text>
<polyline fill="none" stroke="#bfbfbf" points="69,-286.5 164,-286.5 "/>
<text text-anchor="middle" x="116.5" y="-274.5" font-family="Courier New" font-size="10.00"> </text>
<polyline fill="none" stroke="#bfbfbf" points="69,-267.5 164,-267.5 "/>
<text text-anchor="middle" x="116.5" y="-255.5" font-family="Courier New" font-size="10.00"> </text>
</a>
</g>
</g>
<!-- Node2&#45;&gt;Node1 -->
<g id="edge1" class="edge"><title>Node2&#45;&gt;Node1</title>
<path fill="none" stroke="midnightblue" d="M116.5,-238.233C116.5,-230.038 116.5,-220.987 116.5,-211.584"/>
<polygon fill="none" stroke="midnightblue" points="113,-238.471 116.5,-248.471 120,-238.471 113,-238.471"/>
</g>
</g>
</svg>
