<?xml version="1.0" encoding="UTF-8" standalone="no"?>
<!DOCTYPE svg PUBLIC "-//W3C//DTD SVG 1.1//EN"
 "http://www.w3.org/Graphics/SVG/1.1/DTD/svg11.dtd">
<!-- Generated by graphviz version 2.38.0 (20140413.2041)
 -->
<!-- Title: C2M2.RaycastForward Pages: 1 -->
<!--zoomable 1037 -->
<svg id="main" version="1.1" xmlns="http://www.w3.org/2000/svg" xmlns:xlink="http://www.w3.org/1999/xlink" xml:space="preserve" onload="init(evt)">
<style type="text/css"><![CDATA[
.edge:hover path { stroke: red; }
.edge:hover polygon { stroke: red; fill: red; }
]]></style>
<script type="text/javascript"><![CDATA[
var edges = document.getElementsByTagName('g');
if (edges && edges.length) {
  for (var i=0;i<edges.length;i++) {
    if (edges[i].id.substr(0,4)=='edge') {
      edges[i].setAttribute('class','edge');
    }
  }
}
]]></script>
        <defs>
                <circle id="rim" cx="0" cy="0" r="7"/>
                <circle id="rim2" cx="0" cy="0" r="3.5"/>
                <g id="zoomPlus">
                        <use xlink:href="#rim" fill="#404040">
                                <set attributeName="fill" to="#808080" begin="zoomplus.mouseover" end="zoomplus.mouseout"/>
                        </use>
                        <path d="M-4,0h8M0,-4v8" fill="none" stroke="white" stroke-width="1.5" pointer-events="none"/>
                </g>
                <g id="zoomMin">
                        <use xlink:href="#rim" fill="#404040">
                                <set attributeName="fill" to="#808080" begin="zoomminus.mouseover" end="zoomminus.mouseout"/>
                        </use>
                        <path d="M-4,0h8" fill="none" stroke="white" stroke-width="1.5" pointer-events="none"/>
                </g>
                <g id="dirArrow">
                        <path fill="none" stroke="white" stroke-width="1.5" d="M0,-3.0v7 M-2.5,-0.5L0,-3.0L2.5,-0.5"/>
                </g>
               <g id="resetDef">
                       <use xlink:href="#rim2" fill="#404040">
                               <set attributeName="fill" to="#808080" begin="reset.mouseover" end="reset.mouseout"/>
                       </use>
               </g>
        </defs>

<script type="text/javascript">
var viewWidth = 347;
var viewHeight = 1037;
var sectionId = 'dynsection-1';
</script>
<script xlink:href="../../svgpan.js"/>
<svg id="graph" class="graph">
<g id="viewport">
<title>C2M2.RaycastForward</title>
<polygon fill="white" stroke="none" points="-4,4 -4,-1033 342.5,-1033 342.5,4 -4,4"/>
<!-- Node1 -->
<g id="node1" class="node"><title>Node1</title>
<g id="a_node1"><a xlink:title=" ">
<polygon fill="#bfbfbf" stroke="black" points="0,-0.5 0,-354.5 167,-354.5 167,-0.5 0,-0.5"/>
<text text-anchor="middle" x="83.5" y="-342.5" font-family="Courier New" font-size="10.00">C2M2.RaycastForward</text>
<polyline fill="none" stroke="black" points="0,-335.5 167,-335.5 "/>
<text text-anchor="start" x="8" y="-323.5" font-family="Courier New" font-size="10.00">+ rightHand</text>
<text text-anchor="start" x="8" y="-312.5" font-family="Courier New" font-size="10.00">+ raycastController</text>
<text text-anchor="start" x="8" y="-301.5" font-family="Courier New" font-size="10.00">+ raycastButton</text>
<text text-anchor="start" x="8" y="-290.5" font-family="Courier New" font-size="10.00">+ triggerButton</text>
<text text-anchor="start" x="8" y="-279.5" font-family="Courier New" font-size="10.00">+ layerMask</text>
<text text-anchor="start" x="8" y="-268.5" font-family="Courier New" font-size="10.00">+ staticIndexRenderer</text>
<text text-anchor="start" x="8" y="-257.5" font-family="Courier New" font-size="10.00">+ staticHandObject</text>
<text text-anchor="start" x="8" y="-246.5" font-family="Courier New" font-size="10.00">+ defaultHandObject</text>
<text text-anchor="start" x="8" y="-235.5" font-family="Courier New" font-size="10.00">+ minHitDist</text>
<text text-anchor="start" x="8" y="-224.5" font-family="Courier New" font-size="10.00">+ hysteresisDist</text>
<text text-anchor="start" x="8" y="-213.5" font-family="Courier New" font-size="10.00">and 10 more...</text>
<text text-anchor="start" x="8" y="-202.5" font-family="Courier New" font-size="10.00">&#45; activeObjectID</text>
<text text-anchor="start" x="8" y="-191.5" font-family="Courier New" font-size="10.00">&#45; valid</text>
<text text-anchor="start" x="8" y="-180.5" font-family="Courier New" font-size="10.00">&#45; clicked</text>
<text text-anchor="start" x="8" y="-169.5" font-family="Courier New" font-size="10.00">&#45; touched</text>
<text text-anchor="start" x="8" y="-158.5" font-family="Courier New" font-size="10.00">&#45; hitTriggered</text>
<text text-anchor="start" x="8" y="-147.5" font-family="Courier New" font-size="10.00">&#45; holdTriggered</text>
<text text-anchor="start" x="8" y="-136.5" font-family="Courier New" font-size="10.00">&#45; endTriggered</text>
<text text-anchor="start" x="8" y="-125.5" font-family="Courier New" font-size="10.00">&#45; validHitEvent</text>
<text text-anchor="start" x="8" y="-114.5" font-family="Courier New" font-size="10.00">&#45; validHoldEvent</text>
<text text-anchor="start" x="8" y="-103.5" font-family="Courier New" font-size="10.00">&#45; validEndEvent</text>
<text text-anchor="start" x="8" y="-92.5" font-family="Courier New" font-size="10.00">&#45; relativeForward</text>
<text text-anchor="start" x="8" y="-81.5" font-family="Courier New" font-size="10.00">&#45; lineRend</text>
<text text-anchor="start" x="8" y="-70.5" font-family="Courier New" font-size="10.00">&#45; invisible</text>
<text text-anchor="start" x="8" y="-59.5" font-family="Courier New" font-size="10.00">&#45; currentState</text>
<polyline fill="none" stroke="black" points="0,-52.5 167,-52.5 "/>
<text text-anchor="start" x="8" y="-40.5" font-family="Courier New" font-size="10.00">+ ChangeStaticHandColor()</text>
<text text-anchor="start" x="8" y="-29.5" font-family="Courier New" font-size="10.00">&#45; Start()</text>
<text text-anchor="start" x="8" y="-18.5" font-family="Courier New" font-size="10.00">&#45; FixedUpdate()</text>
<text text-anchor="start" x="8" y="-7.5" font-family="Courier New" font-size="10.00">&#45; TryRaycastHit()</text>
</a>
</g>
</g>
<!-- Node2 -->
<g id="node2" class="node"><title>Node2</title>
<g id="a_node2"><a xlink:title=" ">
<polygon fill="white" stroke="#bfbfbf" points="16,-871 16,-928 111,-928 111,-871 16,-871"/>
<text text-anchor="middle" x="63.5" y="-916" font-family="Courier New" font-size="10.00">MonoBehaviour</text>
<polyline fill="none" stroke="#bfbfbf" points="16,-909 111,-909 "/>
<text text-anchor="middle" x="63.5" y="-897" font-family="Courier New" font-size="10.00"> </text>
<polyline fill="none" stroke="#bfbfbf" points="16,-890 111,-890 "/>
<text text-anchor="middle" x="63.5" y="-878" font-family="Courier New" font-size="10.00"> </text>
</a>
</g>
</g>
<!-- Node2&#45;&gt;Node1 -->
<g id="edge1" class="edge"><title>Node2&#45;&gt;Node1</title>
<path fill="none" stroke="midnightblue" d="M64.5507,-860.675C67.1277,-767.903 73.8941,-524.314 78.6011,-354.86"/>
<polygon fill="none" stroke="midnightblue" points="61.0509,-860.623 64.2718,-870.716 68.0482,-860.817 61.0509,-860.623"/>
</g>
<!-- Node3 -->
<g id="node3" class="node"><title>Node3</title>
<g id="a_node3"><a xlink:href="../../d7/dcb/class_c2_m2_1_1_raycast_event_manager.html" target="_top" xlink:title="Attach this script to parent gameObject, create one child with one raycast trigger per child....">
<polygon fill="white" stroke="black" points="90,-402.5 90,-624.5 251,-624.5 251,-402.5 90,-402.5"/>
<text text-anchor="middle" x="170.5" y="-612.5" font-family="Courier New" font-size="10.00">C2M2.RaycastEventManager</text>
<polyline fill="none" stroke="black" points="90,-605.5 251,-605.5 "/>
<text text-anchor="middle" x="170.5" y="-593.5" font-family="Courier New" font-size="10.00"> </text>
<polyline fill="none" stroke="black" points="90,-586.5 251,-586.5 "/>
<text text-anchor="start" x="98" y="-574.5" font-family="Courier New" font-size="10.00">+ TriggerChangeRight()</text>
<text text-anchor="start" x="98" y="-563.5" font-family="Courier New" font-size="10.00">+ TriggerChangeLeft()</text>
<text text-anchor="start" x="98" y="-552.5" font-family="Courier New" font-size="10.00">+ TriggerChangeBoth()</text>
<text text-anchor="start" x="98" y="-541.5" font-family="Courier New" font-size="10.00">+ TriggerEmptyRight()</text>
<text text-anchor="start" x="98" y="-530.5" font-family="Courier New" font-size="10.00">+ TriggerEmptyLeft()</text>
<text text-anchor="start" x="98" y="-519.5" font-family="Courier New" font-size="10.00">+ TriggerEmptyBoth()</text>
<text text-anchor="start" x="98" y="-508.5" font-family="Courier New" font-size="10.00">+ PressEvent()</text>
<text text-anchor="start" x="98" y="-497.5" font-family="Courier New" font-size="10.00">+ HoldEvent()</text>
<text text-anchor="start" x="98" y="-486.5" font-family="Courier New" font-size="10.00">+ EndEvent()</text>
<text text-anchor="start" x="98" y="-475.5" font-family="Courier New" font-size="10.00">+ AllEvents()</text>
<text text-anchor="start" x="98" y="-464.5" font-family="Courier New" font-size="10.00">+ PressEventNull()</text>
<text text-anchor="start" x="98" y="-453.5" font-family="Courier New" font-size="10.00">+ HoldEventNull()</text>
<text text-anchor="start" x="98" y="-442.5" font-family="Courier New" font-size="10.00">+ EndEventNull()</text>
<text text-anchor="start" x="98" y="-431.5" font-family="Courier New" font-size="10.00">+ AllEventsNull()</text>
<text text-anchor="start" x="98" y="-420.5" font-family="Courier New" font-size="10.00">+ ToString()</text>
<text text-anchor="start" x="98" y="-409.5" font-family="Courier New" font-size="10.00">&#45; Awake()</text>
</a>
</g>
</g>
<!-- Node2&#45;&gt;Node3 -->
<g id="edge3" class="edge"><title>Node2&#45;&gt;Node3</title>
<path fill="none" stroke="midnightblue" d="M68.3976,-860.75C74.2567,-819.349 85.3436,-751.184 101.5,-694 107.9,-671.349 116.007,-647.561 124.397,-624.979"/>
<polygon fill="none" stroke="midnightblue" points="64.928,-860.29 67.0207,-870.676 71.8616,-861.252 64.928,-860.29"/>
</g>
<!-- Node4 -->
<g id="node4" class="node"><title>Node4</title>
<g id="a_node4"><a xlink:href="../../dd/dab/class_c2_m2_1_1_raycast_press_events.html" target="_top" xlink:title="Store custom events that the corresponding RaycastTriggerManager will invoke">
<polygon fill="white" stroke="black" points="111,-694.5 111,-795.5 266,-795.5 266,-694.5 111,-694.5"/>
<text text-anchor="middle" x="188.5" y="-783.5" font-family="Courier New" font-size="10.00">C2M2.RaycastPressEvents</text>
<polyline fill="none" stroke="black" points="111,-776.5 266,-776.5 "/>
<text text-anchor="start" x="119" y="-764.5" font-family="Courier New" font-size="10.00">+ OnPress</text>
<text text-anchor="start" x="119" y="-753.5" font-family="Courier New" font-size="10.00">+ OnHoldPress</text>
<text text-anchor="start" x="119" y="-742.5" font-family="Courier New" font-size="10.00">+ OnEndPress</text>
<polyline fill="none" stroke="black" points="111,-735.5 266,-735.5 "/>
<text text-anchor="start" x="119" y="-723.5" font-family="Courier New" font-size="10.00">+ Press()</text>
<text text-anchor="start" x="119" y="-712.5" font-family="Courier New" font-size="10.00">+ HoldPress()</text>
<text text-anchor="start" x="119" y="-701.5" font-family="Courier New" font-size="10.00">+ EndPress()</text>
</a>
</g>
</g>
<!-- Node2&#45;&gt;Node4 -->
<g id="edge5" class="edge"><title>Node2&#45;&gt;Node4</title>
<path fill="none" stroke="midnightblue" d="M92.6572,-862.928C109.076,-842.897 129.835,-817.571 147.832,-795.614"/>
<polygon fill="none" stroke="midnightblue" points="89.769,-860.931 86.1366,-870.883 95.1828,-865.368 89.769,-860.931"/>
</g>
<!-- Node3&#45;&gt;Node1 -->
<g id="edge2" class="edge"><title>Node3&#45;&gt;Node1</title>
<path fill="none" stroke="#404040" d="M141.772,-402.21C138.752,-390.619 135.625,-378.614 132.459,-366.458"/>
<polygon fill="none" stroke="#404040" points="132.438,-366.378 127.055,-361.58 129.414,-354.766 134.797,-359.564 132.438,-366.378"/>
<text text-anchor="middle" x="202" y="-376" font-family="Courier New" font-size="10.00"> &#45;activeTriggerManager</text>
</g>
<!-- Node4&#45;&gt;Node3 -->
<g id="edge4" class="edge"><title>Node4&#45;&gt;Node3</title>
<path fill="none" stroke="#404040" d="M184.616,-694.484C183.269,-677.301 181.692,-657.194 180.09,-636.769"/>
<polygon fill="none" stroke="#404040" points="180.084,-636.689 175.627,-631.02 179.145,-624.726 183.602,-630.395 180.084,-636.689"/>
<text text-anchor="middle" x="223" y="-668" font-family="Courier New" font-size="10.00"> +leftTrigger</text>
<text text-anchor="middle" x="223" y="-657" font-family="Courier New" font-size="10.00">+rightTrigger</text>
<text text-anchor="middle" x="223" y="-646" font-family="Courier New" font-size="10.00">&#45;emptyTrigger</text>
</g>
<!-- Node5 -->
<g id="node5" class="node"><title>Node5</title>
<g id="a_node5"><a xlink:href="../../db/d79/class_c2_m2_1_1_raycast_press_events_1_1_raycast_hit_event.html" target="_top" xlink:title=" ">
<polygon fill="white" stroke="black" points="129,-865.5 129,-933.5 290,-933.5 290,-865.5 129,-865.5"/>
<text text-anchor="start" x="137" y="-921.5" font-family="Courier New" font-size="10.00">C2M2.RaycastPressEvents.</text>
<text text-anchor="middle" x="209.5" y="-910.5" font-family="Courier New" font-size="10.00">RaycastHitEvent</text>
<polyline fill="none" stroke="black" points="129,-903.5 290,-903.5 "/>
<text text-anchor="middle" x="209.5" y="-891.5" font-family="Courier New" font-size="10.00"> </text>
<polyline fill="none" stroke="black" points="129,-884.5 290,-884.5 "/>
<text text-anchor="middle" x="209.5" y="-872.5" font-family="Courier New" font-size="10.00"> </text>
</a>
</g>
</g>
<!-- Node5&#45;&gt;Node4 -->
<g id="edge6" class="edge"><title>Node5&#45;&gt;Node4</title>
<path fill="none" stroke="#404040" d="M204.943,-865.41C202.616,-848.507 199.707,-827.385 196.986,-807.625"/>
<polygon fill="none" stroke="#404040" points="196.96,-807.435 192.179,-802.037 195.323,-795.547 200.104,-800.945 196.96,-807.435"/>
<text text-anchor="middle" x="239" y="-839" font-family="Courier New" font-size="10.00"> &#45;onPress</text>
<text text-anchor="middle" x="239" y="-828" font-family="Courier New" font-size="10.00">&#45;onHoldPress</text>
<text text-anchor="middle" x="239" y="-817" font-family="Courier New" font-size="10.00">&#45;onEndPress</text>
</g>
<!-- Node6 -->
<g id="node6" class="node"><title>Node6</title>
<g id="a_node6"><a xlink:title=" ">
<polygon fill="white" stroke="#bfbfbf" points="129,-971.5 129,-1028.5 290,-1028.5 290,-971.5 129,-971.5"/>
<text text-anchor="middle" x="209.5" y="-1016.5" font-family="Courier New" font-size="10.00">UnityEvent&lt; RaycastHit &gt;</text>
<polyline fill="none" stroke="#bfbfbf" points="129,-1009.5 290,-1009.5 "/>
<text text-anchor="middle" x="209.5" y="-997.5" font-family="Courier New" font-size="10.00"> </text>
<polyline fill="none" stroke="#bfbfbf" points="129,-990.5 290,-990.5 "/>
<text text-anchor="middle" x="209.5" y="-978.5" font-family="Courier New" font-size="10.00"> </text>
</a>
</g>
</g>
<!-- Node6&#45;&gt;Node5 -->
<g id="edge7" class="edge"><title>Node6&#45;&gt;Node5</title>
<path fill="none" stroke="midnightblue" d="M209.5,-961.007C209.5,-951.962 209.5,-942.383 209.5,-933.578"/>
<polygon fill="none" stroke="midnightblue" points="206,-961.3 209.5,-971.3 213,-961.3 206,-961.3"/>
</g>
<!-- Node7 -->
<g id="node7" class="node"><title>Node7</title>
<g id="a_node7"><a xlink:title=" ">
<polygon fill="white" stroke="#bfbfbf" points="284,-716.5 284,-773.5 337,-773.5 337,-716.5 284,-716.5"/>
<text text-anchor="middle" x="310.5" y="-761.5" font-family="Courier New" font-size="10.00">static</text>
<polyline fill="none" stroke="#bfbfbf" points="284,-754.5 337,-754.5 "/>
<text text-anchor="middle" x="310.5" y="-742.5" font-family="Courier New" font-size="10.00"> </text>
<polyline fill="none" stroke="#bfbfbf" points="284,-735.5 337,-735.5 "/>
<text text-anchor="middle" x="310.5" y="-723.5" font-family="Courier New" font-size="10.00"> </text>
</a>
</g>
</g>
<!-- Node7&#45;&gt;Node3 -->
<g id="edge8" class="edge"><title>Node7&#45;&gt;Node3</title>
<path fill="none" stroke="#404040" d="M300.38,-716.16C292.357,-695.393 280.238,-666.65 266.5,-643 263.751,-638.267 260.857,-633.503 257.859,-628.741"/>
<polygon fill="none" stroke="#404040" points="257.648,-628.414 251.034,-625.542 251.141,-618.332 257.755,-621.204 257.648,-628.414"/>
<text text-anchor="middle" x="311" y="-657" font-family="Courier New" font-size="10.00"> &#45;nullHit</text>
</g>
</g>
</svg>
        <g id="navigator" transform="translate(0 0)" fill="#404254">
                <rect fill="#f2f5e9" fill-opacity="0.5" stroke="#606060" stroke-width=".5" x="0" y="0" width="60" height="60"/>
                <use id="zoomplus" xlink:href="#zoomPlus" x="17" y="9" onmousedown="handleZoom(evt,'in')"/>
                <use id="zoomminus" xlink:href="#zoomMin" x="42" y="9" onmousedown="handleZoom(evt,'out')"/>
                <use id="reset" xlink:href="#resetDef" x="30" y="36" onmousedown="handleReset()"/>
                <g id="arrowUp" xlink:href="#dirArrow" transform="translate(30 24)" onmousedown="handlePan(0,-1)">
                  <use xlink:href="#rim" fill="#404040">
                        <set attributeName="fill" to="#808080" begin="arrowUp.mouseover" end="arrowUp.mouseout"/>
                  </use>
                  <path fill="none" stroke="white" stroke-width="1.5" d="M0,-3.0v7 M-2.5,-0.5L0,-3.0L2.5,-0.5"/>
                </g>
                <g id="arrowRight" xlink:href="#dirArrow" transform="rotate(90) translate(36 -43)" onmousedown="handlePan(1,0)">
                  <use xlink:href="#rim" fill="#404040">
                        <set attributeName="fill" to="#808080" begin="arrowRight.mouseover" end="arrowRight.mouseout"/>
                  </use>
                  <path fill="none" stroke="white" stroke-width="1.5" d="M0,-3.0v7 M-2.5,-0.5L0,-3.0L2.5,-0.5"/>
                </g>
                <g id="arrowDown" xlink:href="#dirArrow" transform="rotate(180) translate(-30 -48)" onmousedown="handlePan(0,1)">
                  <use xlink:href="#rim" fill="#404040">
                        <set attributeName="fill" to="#808080" begin="arrowDown.mouseover" end="arrowDown.mouseout"/>
                  </use>
                  <path fill="none" stroke="white" stroke-width="1.5" d="M0,-3.0v7 M-2.5,-0.5L0,-3.0L2.5,-0.5"/>
                </g>
                <g id="arrowLeft" xlink:href="#dirArrow" transform="rotate(270) translate(-36 17)" onmousedown="handlePan(-1,0)">
                  <use xlink:href="#rim" fill="#404040">
                        <set attributeName="fill" to="#808080" begin="arrowLeft.mouseover" end="arrowLeft.mouseout"/>
                  </use>
                  <path fill="none" stroke="white" stroke-width="1.5" d="M0,-3.0v7 M-2.5,-0.5L0,-3.0L2.5,-0.5"/>
                </g>
        </g>
        <svg viewBox="0 0 15 15" width="100%" height="30px" preserveAspectRatio="xMaxYMin meet">
         <g id="arrow_out" transform="scale(0.3 0.3)">
          <a xlink:href="class_c2_m2_1_1_raycast_forward__coll__graph_org.svg" target="_base">
           <rect id="button" ry="5" rx="5" y="6" x="6" height="38" width="38"
                fill="#f2f5e9" fill-opacity="0.5" stroke="#606060" stroke-width="1.0"/>
           <path id="arrow"
             d="M 11.500037,31.436501 C 11.940474,20.09759 22.043105,11.32322 32.158766,21.979434 L 37.068811,17.246167 C 37.068811,17.246167 37.088388,32 37.088388,32 L 22.160133,31.978069 C 22.160133,31.978069 26.997745,27.140456 26.997745,27.140456 C 18.528582,18.264221 13.291696,25.230495 11.500037,31.436501 z"
             style="fill:#404040;"/>
          </a>
         </g>
        </svg>
</svg>
