<?xml version="1.0" encoding="UTF-8" standalone="no"?>
<!DOCTYPE svg PUBLIC "-//W3C//DTD SVG 1.1//EN"
 "http://www.w3.org/Graphics/SVG/1.1/DTD/svg11.dtd">
<!-- Generated by graphviz version 2.38.0 (20140413.2041)
 -->
<!-- Title: C2M2.Simulation.Samples.MeshSimulation Pages: 1 -->
<svg width="408pt" height="724pt"
 viewBox="0.00 0.00 408.00 724.00" xmlns="http://www.w3.org/2000/svg" xmlns:xlink="http://www.w3.org/1999/xlink">
<g id="graph0" class="graph" transform="scale(1 1) rotate(0) translate(4 720)">
<title>C2M2.Simulation.Samples.MeshSimulation</title>
<polygon fill="white" stroke="none" points="-4,4 -4,-720 404,-720 404,4 -4,4"/>
<!-- Node1 -->
<g id="node1" class="node"><title>Node1</title>
<g id="a_node1"><a xlink:title="Store a scalar for each vertex on an existing MeshFilter.mesh">
<polygon fill="#bfbfbf" stroke="black" points="72,-0.5 72,-112.5 233,-112.5 233,-0.5 72,-0.5"/>
<text text-anchor="start" x="80" y="-100.5" font-family="Courier New" font-size="10.00">C2M2.Simulation.Samples.</text>
<text text-anchor="middle" x="152.5" y="-89.5" font-family="Courier New" font-size="10.00">MeshSimulation</text>
<polyline fill="none" stroke="black" points="72,-82.5 233,-82.5 "/>
<text text-anchor="start" x="80" y="-70.5" font-family="Courier New" font-size="10.00">&#45; scalars</text>
<polyline fill="none" stroke="black" points="72,-63.5 233,-63.5 "/>
<text text-anchor="start" x="80" y="-51.5" font-family="Courier New" font-size="10.00">+ GetValues()</text>
<text text-anchor="start" x="80" y="-40.5" font-family="Courier New" font-size="10.00">+ SetValues()</text>
<text text-anchor="start" x="80" y="-29.5" font-family="Courier New" font-size="10.00"># Solve()</text>
<text text-anchor="start" x="80" y="-18.5" font-family="Courier New" font-size="10.00"># ReadData()</text>
<text text-anchor="start" x="80" y="-7.5" font-family="Courier New" font-size="10.00"># BuildVisualization()</text>
</a>
</g>
</g>
<!-- Node2 -->
<g id="node2" class="node"><title>Node2</title>
<g id="a_node2"><a xlink:href="../../d6/d2d/class_c2_m2_1_1_simulation_1_1_mesh_simulation.html" target="_top" xlink:title="Simulation of type double[] for visualizing scalar fields on mesh surfaces">
<polygon fill="white" stroke="black" points="66,-150.5 66,-295.5 239,-295.5 239,-150.5 66,-150.5"/>
<text text-anchor="middle" x="152.5" y="-283.5" font-family="Courier New" font-size="10.00">Simulation::MeshSimulation</text>
<polyline fill="none" stroke="black" points="66,-276.5 239,-276.5 "/>
<text text-anchor="start" x="74" y="-264.5" font-family="Courier New" font-size="10.00">+ gradient</text>
<text text-anchor="start" x="74" y="-253.5" font-family="Courier New" font-size="10.00">+ globalMax</text>
<text text-anchor="start" x="74" y="-242.5" font-family="Courier New" font-size="10.00">+ globalMin</text>
<text text-anchor="start" x="74" y="-231.5" font-family="Courier New" font-size="10.00">+ colorLUT</text>
<text text-anchor="start" x="74" y="-220.5" font-family="Courier New" font-size="10.00"># colliderMesh</text>
<text text-anchor="start" x="74" y="-209.5" font-family="Courier New" font-size="10.00">&#45; mf</text>
<text text-anchor="start" x="74" y="-198.5" font-family="Courier New" font-size="10.00">&#45; mr</text>
<polyline fill="none" stroke="black" points="66,-191.5 239,-191.5 "/>
<text text-anchor="start" x="74" y="-179.5" font-family="Courier New" font-size="10.00"># UpdateVisualization()</text>
<text text-anchor="start" x="74" y="-168.5" font-family="Courier New" font-size="10.00"># OnAwake()</text>
<text text-anchor="start" x="74" y="-157.5" font-family="Courier New" font-size="10.00">&#45; UpdateVisualization()</text>
</a>
</g>
</g>
<!-- Node2&#45;&gt;Node1 -->
<g id="edge1" class="edge"><title>Node2&#45;&gt;Node1</title>
<path fill="none" stroke="midnightblue" d="M152.5,-140.204C152.5,-130.852 152.5,-121.493 152.5,-112.609"/>
<polygon fill="none" stroke="midnightblue" points="149,-140.326 152.5,-150.326 156,-140.326 149,-140.326"/>
</g>
<!-- Node3 -->
<g id="node3" class="node"><title>Node3</title>
<g id="a_node3"><a xlink:href="../../db/d39/class_c2_m2_1_1_simulation_1_1_simulation.html" target="_top" xlink:title=" ">
<polygon fill="white" stroke="black" points="0,-343.5 0,-620.5 185,-620.5 185,-343.5 0,-343.5"/>
<text text-anchor="start" x="8" y="-608.5" font-family="Courier New" font-size="10.00">Simulation&lt; double</text>
<text text-anchor="start" x="8" y="-597.5" font-family="Courier New" font-size="10.00">[], Mesh, VRRaycastableMesh,</text>
<text text-anchor="middle" x="92.5" y="-586.5" font-family="Courier New" font-size="10.00"> VRGrabbableMesh &gt;</text>
<polyline fill="none" stroke="black" points="0,-579.5 185,-579.5 "/>
<text text-anchor="start" x="8" y="-567.5" font-family="Courier New" font-size="10.00">+ dryRun</text>
<text text-anchor="start" x="8" y="-556.5" font-family="Courier New" font-size="10.00">+ startOnAwake</text>
<text text-anchor="start" x="8" y="-545.5" font-family="Courier New" font-size="10.00">+ viz</text>
<text text-anchor="start" x="8" y="-534.5" font-family="Courier New" font-size="10.00"># mutex</text>
<text text-anchor="start" x="8" y="-523.5" font-family="Courier New" font-size="10.00">&#45; solveThread</text>
<polyline fill="none" stroke="black" points="0,-516.5 185,-516.5 "/>
<text text-anchor="start" x="8" y="-504.5" font-family="Courier New" font-size="10.00">+ GetValues()</text>
<text text-anchor="start" x="8" y="-493.5" font-family="Courier New" font-size="10.00">+ StartSimulation()</text>
<text text-anchor="start" x="8" y="-482.5" font-family="Courier New" font-size="10.00">+ StopSimulation()</text>
<text text-anchor="start" x="8" y="-471.5" font-family="Courier New" font-size="10.00">+ Awake()</text>
<text text-anchor="start" x="8" y="-460.5" font-family="Courier New" font-size="10.00">+ Start()</text>
<text text-anchor="start" x="8" y="-449.5" font-family="Courier New" font-size="10.00">+ Update()</text>
<text text-anchor="start" x="8" y="-438.5" font-family="Courier New" font-size="10.00"># BuildVisualization()</text>
<text text-anchor="start" x="8" y="-427.5" font-family="Courier New" font-size="10.00"># ReadData()</text>
<text text-anchor="start" x="8" y="-416.5" font-family="Courier New" font-size="10.00"># UpdateVisualization()</text>
<text text-anchor="start" x="8" y="-405.5" font-family="Courier New" font-size="10.00"># Solve()</text>
<text text-anchor="start" x="8" y="-394.5" font-family="Courier New" font-size="10.00"># OnAwake()</text>
<text text-anchor="start" x="8" y="-383.5" font-family="Courier New" font-size="10.00"># OnStart()</text>
<text text-anchor="start" x="8" y="-372.5" font-family="Courier New" font-size="10.00"># OnUpdate()</text>
<text text-anchor="start" x="8" y="-361.5" font-family="Courier New" font-size="10.00">&#45; OnApplicationPause()</text>
<text text-anchor="start" x="8" y="-350.5" font-family="Courier New" font-size="10.00">&#45; OnApplicationQuit()</text>
</a>
</g>
</g>
<!-- Node3&#45;&gt;Node2 -->
<g id="edge2" class="edge"><title>Node3&#45;&gt;Node2</title>
<path fill="none" stroke="midnightblue" d="M126.943,-333.469C129.984,-320.445 132.962,-307.688 135.749,-295.749"/>
<polygon fill="none" stroke="midnightblue" points="123.473,-332.938 124.608,-343.471 130.29,-334.529 123.473,-332.938"/>
</g>
<!-- Node4 -->
<g id="node4" class="node"><title>Node4</title>
<g id="a_node4"><a xlink:href="../../da/d4f/class_c2_m2_1_1_visualization_1_1_l_u_t_gradient.html" target="_top" xlink:title="Create a fast and memory&#45;friendly color lookup table from a gradient">
<polygon fill="white" stroke="black" points="203,-398.5 203,-565.5 400,-565.5 400,-398.5 203,-398.5"/>
<text text-anchor="middle" x="301.5" y="-553.5" font-family="Courier New" font-size="10.00">C2M2.Visualization.LUTGradient</text>
<polyline fill="none" stroke="black" points="203,-546.5 400,-546.5 "/>
<text text-anchor="start" x="211" y="-534.5" font-family="Courier New" font-size="10.00">+ extremaMethod</text>
<text text-anchor="start" x="211" y="-523.5" font-family="Courier New" font-size="10.00">+ globalMax</text>
<text text-anchor="start" x="211" y="-512.5" font-family="Courier New" font-size="10.00">+ globalMin</text>
<text text-anchor="start" x="211" y="-501.5" font-family="Courier New" font-size="10.00">+ LutRes</text>
<text text-anchor="start" x="211" y="-490.5" font-family="Courier New" font-size="10.00">+ Gradient</text>
<text text-anchor="start" x="211" y="-479.5" font-family="Courier New" font-size="10.00">+ gradientLUT</text>
<text text-anchor="start" x="211" y="-468.5" font-family="Courier New" font-size="10.00">&#45; lutRes</text>
<text text-anchor="start" x="211" y="-457.5" font-family="Courier New" font-size="10.00">&#45; gradient</text>
<polyline fill="none" stroke="black" points="203,-450.5 400,-450.5 "/>
<text text-anchor="start" x="211" y="-438.5" font-family="Courier New" font-size="10.00">+ Evaluate()</text>
<text text-anchor="start" x="211" y="-427.5" font-family="Courier New" font-size="10.00">+ Evaluate()</text>
<text text-anchor="start" x="211" y="-416.5" font-family="Courier New" font-size="10.00">&#45; BuildLUT()</text>
<text text-anchor="start" x="211" y="-405.5" font-family="Courier New" font-size="10.00">&#45; RescaleArray()</text>
</a>
</g>
</g>
<!-- Node4&#45;&gt;Node2 -->
<g id="edge3" class="edge"><title>Node4&#45;&gt;Node2</title>
<path fill="none" stroke="#404040" d="M253.535,-398.269C236.487,-368.864 217.307,-335.782 200.275,-306.404"/>
<polygon fill="none" stroke="#404040" points="200.124,-306.144 193.654,-302.959 194.105,-295.762 200.575,-298.947 200.124,-306.144"/>
<text text-anchor="middle" x="254" y="-317" font-family="Courier New" font-size="10.00"> +extremaMethod</text>
</g>
<!-- Node5 -->
<g id="node5" class="node"><title>Node5</title>
<g id="a_node5"><a xlink:title=" ">
<polygon fill="white" stroke="#bfbfbf" points="254,-658.5 254,-715.5 349,-715.5 349,-658.5 254,-658.5"/>
<text text-anchor="middle" x="301.5" y="-703.5" font-family="Courier New" font-size="10.00">MonoBehaviour</text>
<polyline fill="none" stroke="#bfbfbf" points="254,-696.5 349,-696.5 "/>
<text text-anchor="middle" x="301.5" y="-684.5" font-family="Courier New" font-size="10.00"> </text>
<polyline fill="none" stroke="#bfbfbf" points="254,-677.5 349,-677.5 "/>
<text text-anchor="middle" x="301.5" y="-665.5" font-family="Courier New" font-size="10.00"> </text>
</a>
</g>
</g>
<!-- Node5&#45;&gt;Node4 -->
<g id="edge4" class="edge"><title>Node5&#45;&gt;Node4</title>
<path fill="none" stroke="midnightblue" d="M301.5,-648.09C301.5,-624.874 301.5,-594.226 301.5,-565.646"/>
<polygon fill="none" stroke="midnightblue" points="298,-648.199 301.5,-658.199 305,-648.199 298,-648.199"/>
</g>
</g>
</svg>
