<?xml version="1.0" encoding="UTF-8" standalone="no"?>
<!DOCTYPE svg PUBLIC "-//W3C//DTD SVG 1.1//EN"
 "http://www.w3.org/Graphics/SVG/1.1/DTD/svg11.dtd">
<!-- Generated by graphviz version 2.38.0 (20140413.2041)
 -->
<!-- Title: C2M2.Simulation.Interactable Pages: 1 -->
<svg width="193pt" height="441pt"
 viewBox="0.00 0.00 193.00 441.00" xmlns="http://www.w3.org/2000/svg" xmlns:xlink="http://www.w3.org/1999/xlink">
<g id="graph0" class="graph" transform="scale(1 1) rotate(0) translate(4 437)">
<title>C2M2.Simulation.Interactable</title>
<polygon fill="white" stroke="none" points="-4,4 -4,-437 189,-437 189,4 -4,4"/>
<!-- Node1 -->
<g id="node1" class="node"><title>Node1</title>
<g id="a_node1"><a xlink:title="Manages interaction input to simulations">
<polygon fill="#bfbfbf" stroke="black" points="0,-259.5 0,-338.5 185,-338.5 185,-259.5 0,-259.5"/>
<text text-anchor="middle" x="92.5" y="-326.5" font-family="Courier New" font-size="10.00">C2M2.Simulation.Interactable</text>
<polyline fill="none" stroke="black" points="0,-319.5 185,-319.5 "/>
<text text-anchor="start" x="8" y="-307.5" font-family="Courier New" font-size="10.00">+ interactionType</text>
<text text-anchor="start" x="8" y="-296.5" font-family="Courier New" font-size="10.00">+ SimHeater</text>
<text text-anchor="start" x="8" y="-285.5" font-family="Courier New" font-size="10.00"># simHeater</text>
<polyline fill="none" stroke="black" points="0,-278.5 185,-278.5 "/>
<text text-anchor="start" x="8" y="-266.5" font-family="Courier New" font-size="10.00">+ SetValues()</text>
</a>
</g>
</g>
<!-- Node3 -->
<g id="node3" class="node"><title>Node3</title>
<g id="a_node3"><a xlink:href="../../db/d39/class_c2_m2_1_1_simulation_1_1_simulation.html" target="_top" xlink:title="Provides an interface for simulations using a general data type T">
<polygon fill="white" stroke="black" points="6,-0.5 6,-222.5 179,-222.5 179,-0.5 6,-0.5"/>
<text text-anchor="start" x="14" y="-210.5" font-family="Courier New" font-size="10.00">C2M2.Simulation.Simulation</text>
<text text-anchor="middle" x="92.5" y="-199.5" font-family="Courier New" font-size="10.00">&lt; ValueType &gt;</text>
<polyline fill="none" stroke="black" points="6,-192.5 179,-192.5 "/>
<text text-anchor="start" x="14" y="-180.5" font-family="Courier New" font-size="10.00">+ startOnAwake</text>
<text text-anchor="start" x="14" y="-169.5" font-family="Courier New" font-size="10.00"># mutex</text>
<text text-anchor="start" x="14" y="-158.5" font-family="Courier New" font-size="10.00">&#45; solveThread</text>
<polyline fill="none" stroke="black" points="6,-151.5 179,-151.5 "/>
<text text-anchor="start" x="14" y="-139.5" font-family="Courier New" font-size="10.00">+ GetValues()</text>
<text text-anchor="start" x="14" y="-128.5" font-family="Courier New" font-size="10.00">+ Awake()</text>
<text text-anchor="start" x="14" y="-117.5" font-family="Courier New" font-size="10.00">+ Start()</text>
<text text-anchor="start" x="14" y="-106.5" font-family="Courier New" font-size="10.00">+ Update()</text>
<text text-anchor="start" x="14" y="-95.5" font-family="Courier New" font-size="10.00">+ StartSimulation()</text>
<text text-anchor="start" x="14" y="-84.5" font-family="Courier New" font-size="10.00">+ StopSimulation()</text>
<text text-anchor="start" x="14" y="-73.5" font-family="Courier New" font-size="10.00"># UpdateVisualization()</text>
<text text-anchor="start" x="14" y="-62.5" font-family="Courier New" font-size="10.00"># OnAwake()</text>
<text text-anchor="start" x="14" y="-51.5" font-family="Courier New" font-size="10.00"># OnStart()</text>
<text text-anchor="start" x="14" y="-40.5" font-family="Courier New" font-size="10.00"># OnUpdate()</text>
<text text-anchor="start" x="14" y="-29.5" font-family="Courier New" font-size="10.00"># Solve()</text>
<text text-anchor="start" x="14" y="-18.5" font-family="Courier New" font-size="10.00">&#45; OnApplicationPause()</text>
<text text-anchor="start" x="14" y="-7.5" font-family="Courier New" font-size="10.00">&#45; OnApplicationQuit()</text>
</a>
</g>
</g>
<!-- Node1&#45;&gt;Node3 -->
<g id="edge2" class="edge"><title>Node1&#45;&gt;Node3</title>
<path fill="none" stroke="midnightblue" d="M92.5,-248.99C92.5,-240.723 92.5,-231.854 92.5,-222.752"/>
<polygon fill="none" stroke="midnightblue" points="89.0001,-249.113 92.5,-259.113 96.0001,-249.113 89.0001,-249.113"/>
</g>
<!-- Node2 -->
<g id="node2" class="node"><title>Node2</title>
<g id="a_node2"><a xlink:title=" ">
<polygon fill="white" stroke="#bfbfbf" points="45,-375.5 45,-432.5 140,-432.5 140,-375.5 45,-375.5"/>
<text text-anchor="middle" x="92.5" y="-420.5" font-family="Courier New" font-size="10.00">MonoBehaviour</text>
<polyline fill="none" stroke="#bfbfbf" points="45,-413.5 140,-413.5 "/>
<text text-anchor="middle" x="92.5" y="-401.5" font-family="Courier New" font-size="10.00"> </text>
<polyline fill="none" stroke="#bfbfbf" points="45,-394.5 140,-394.5 "/>
<text text-anchor="middle" x="92.5" y="-382.5" font-family="Courier New" font-size="10.00"> </text>
</a>
</g>
</g>
<!-- Node2&#45;&gt;Node1 -->
<g id="edge1" class="edge"><title>Node2&#45;&gt;Node1</title>
<path fill="none" stroke="midnightblue" d="M92.5,-365.156C92.5,-356.473 92.5,-347.232 92.5,-338.52"/>
<polygon fill="none" stroke="midnightblue" points="89.0001,-365.398 92.5,-375.398 96.0001,-365.398 89.0001,-365.398"/>
</g>
</g>
</svg>
