<?xml version="1.0" encoding="UTF-8" standalone="no"?>
<!DOCTYPE svg PUBLIC "-//W3C//DTD SVG 1.1//EN"
 "http://www.w3.org/Graphics/SVG/1.1/DTD/svg11.dtd">
<!-- Generated by graphviz version 2.38.0 (20140413.2041)
 -->
<!-- Title: C2M2.Utils.DebugUtils.FPSCounter Pages: 1 -->
<svg width="217pt" height="325pt"
 viewBox="0.00 0.00 217.00 325.00" xmlns="http://www.w3.org/2000/svg" xmlns:xlink="http://www.w3.org/1999/xlink">
<g id="graph0" class="graph" transform="scale(1 1) rotate(0) translate(4 321)">
<title>C2M2.Utils.DebugUtils.FPSCounter</title>
<polygon fill="white" stroke="none" points="-4,4 -4,-321 213,-321 213,4 -4,4"/>
<!-- Node1 -->
<g id="node1" class="node"><title>Node1</title>
<g id="a_node1"><a xlink:title="Records and stores frame rendering time data over multiple seconds">
<polygon fill="#bfbfbf" stroke="black" points="0,-0.5 0,-222.5 209,-222.5 209,-0.5 0,-0.5"/>
<text text-anchor="middle" x="104.5" y="-210.5" font-family="Courier New" font-size="10.00">C2M2.Utils.DebugUtils.FPSCounter</text>
<polyline fill="none" stroke="black" points="0,-203.5 209,-203.5 "/>
<text text-anchor="start" x="8" y="-191.5" font-family="Courier New" font-size="10.00">+ sampleSize</text>
<text text-anchor="start" x="8" y="-180.5" font-family="Courier New" font-size="10.00">+ avg</text>
<text text-anchor="start" x="8" y="-169.5" font-family="Courier New" font-size="10.00">+ high</text>
<text text-anchor="start" x="8" y="-158.5" font-family="Courier New" font-size="10.00">+ low</text>
<text text-anchor="start" x="8" y="-147.5" font-family="Courier New" font-size="10.00">+ highStr</text>
<text text-anchor="start" x="8" y="-136.5" font-family="Courier New" font-size="10.00">+ avgStr</text>
<text text-anchor="start" x="8" y="-125.5" font-family="Courier New" font-size="10.00">+ lowStr</text>
<text text-anchor="start" x="8" y="-114.5" font-family="Courier New" font-size="10.00">&#45; fpsBuffer</text>
<text text-anchor="start" x="8" y="-103.5" font-family="Courier New" font-size="10.00">&#45; fpsBufferIndex</text>
<text text-anchor="start" x="8" y="-92.5" font-family="Courier New" font-size="10.00">&#45; formatString</text>
<text text-anchor="start" x="8" y="-81.5" font-family="Courier New" font-size="10.00">&#45; staticNumStrings</text>
<polyline fill="none" stroke="black" points="0,-74.5 209,-74.5 "/>
<text text-anchor="start" x="8" y="-62.5" font-family="Courier New" font-size="10.00">+ ToString()</text>
<text text-anchor="start" x="8" y="-51.5" font-family="Courier New" font-size="10.00">&#45; Update()</text>
<text text-anchor="start" x="8" y="-40.5" font-family="Courier New" font-size="10.00">&#45; InitializeBuffer()</text>
<text text-anchor="start" x="8" y="-29.5" font-family="Courier New" font-size="10.00">&#45; UpdateBuffer()</text>
<text text-anchor="start" x="8" y="-18.5" font-family="Courier New" font-size="10.00">&#45; CalculateFPS()</text>
<text text-anchor="start" x="8" y="-7.5" font-family="Courier New" font-size="10.00">&#45; UpdateTexts()</text>
</a>
</g>
</g>
<!-- Node2 -->
<g id="node2" class="node"><title>Node2</title>
<g id="a_node2"><a xlink:title=" ">
<polygon fill="white" stroke="#bfbfbf" points="57,-259.5 57,-316.5 152,-316.5 152,-259.5 57,-259.5"/>
<text text-anchor="middle" x="104.5" y="-304.5" font-family="Courier New" font-size="10.00">MonoBehaviour</text>
<polyline fill="none" stroke="#bfbfbf" points="57,-297.5 152,-297.5 "/>
<text text-anchor="middle" x="104.5" y="-285.5" font-family="Courier New" font-size="10.00"> </text>
<polyline fill="none" stroke="#bfbfbf" points="57,-278.5 152,-278.5 "/>
<text text-anchor="middle" x="104.5" y="-266.5" font-family="Courier New" font-size="10.00"> </text>
</a>
</g>
</g>
<!-- Node2&#45;&gt;Node1 -->
<g id="edge1" class="edge"><title>Node2&#45;&gt;Node1</title>
<path fill="none" stroke="midnightblue" d="M104.5,-249.203C104.5,-241.081 104.5,-232.104 104.5,-222.748"/>
<polygon fill="none" stroke="midnightblue" points="101,-249.35 104.5,-259.35 108,-249.35 101,-249.35"/>
</g>
</g>
</svg>
