<?xml version="1.0" encoding="UTF-8" standalone="no"?>
<!DOCTYPE svg PUBLIC "-//W3C//DTD SVG 1.1//EN"
 "http://www.w3.org/Graphics/SVG/1.1/DTD/svg11.dtd">
<!-- Generated by graphviz version 2.46.0 (20210118.1747)
 -->
<!-- Title: RulerMeasure Pages: 1 -->
<!--zoomable 888 -->
<svg id="main" version="1.1" xmlns="http://www.w3.org/2000/svg" xmlns:xlink="http://www.w3.org/1999/xlink" xml:space="preserve" onload="init(evt)">
<style type="text/css"><![CDATA[
.edge:hover path { stroke: red; }
.edge:hover polygon { stroke: red; fill: red; }
]]></style>
<script type="text/javascript"><![CDATA[
var edges = document.getElementsByTagName('g');
if (edges && edges.length) {
  for (var i=0;i<edges.length;i++) {
    if (edges[i].id.substr(0,4)=='edge') {
      edges[i].setAttribute('class','edge');
    }
  }
}
]]></script>
        <defs>
                <circle id="rim" cx="0" cy="0" r="7"/>
                <circle id="rim2" cx="0" cy="0" r="3.5"/>
                <g id="zoomPlus">
                        <use xlink:href="#rim" fill="#404040">
                                <set attributeName="fill" to="#808080" begin="zoomplus.mouseover" end="zoomplus.mouseout"/>
                        </use>
                        <path d="M-4,0h8M0,-4v8" fill="none" stroke="white" stroke-width="1.5" pointer-events="none"/>
                </g>
                <g id="zoomMin">
                        <use xlink:href="#rim" fill="#404040">
                                <set attributeName="fill" to="#808080" begin="zoomminus.mouseover" end="zoomminus.mouseout"/>
                        </use>
                        <path d="M-4,0h8" fill="none" stroke="white" stroke-width="1.5" pointer-events="none"/>
                </g>
                <g id="dirArrow">
                        <path fill="none" stroke="white" stroke-width="1.5" d="M0,-3.0v7 M-2.5,-0.5L0,-3.0L2.5,-0.5"/>
                </g>
               <g id="resetDef">
                       <use xlink:href="#rim2" fill="#404040">
                               <set attributeName="fill" to="#808080" begin="reset.mouseover" end="reset.mouseout"/>
                       </use>
               </g>
        </defs>

<script type="text/javascript">
var viewWidth = 495;
var viewHeight = 888;
var sectionId = 'dynsection-1';
</script>
<script xlink:href="../../svgpan.js"/>
<svg id="graph" class="graph">
<g id="viewport">
<title>RulerMeasure</title>
<polygon fill="white" stroke="transparent" points="-4,4 -4,-884 491,-884 491,4 -4,4"/>
<!-- Node1 -->
<g id="node1" class="node">
<title>Node1</title>
<g id="a_node1"><a xlink:title=" ">
<polygon fill="#bfbfbf" stroke="black" points="0,-0.5 0,-189.5 149,-189.5 149,-0.5 0,-0.5"/>
<text text-anchor="middle" x="74.5" y="-177.5" font-family="Courier New" font-size="10.00">RulerMeasure</text>
<polyline fill="none" stroke="black" points="0,-170.5 149,-170.5 "/>
<text text-anchor="start" x="8" y="-158.5" font-family="Courier New" font-size="10.00">+ measurementDisplays</text>
<text text-anchor="start" x="8" y="-147.5" font-family="Courier New" font-size="10.00">+ numbers</text>
<text text-anchor="start" x="8" y="-136.5" font-family="Courier New" font-size="10.00">&#45; markedDisplays</text>
<text text-anchor="start" x="8" y="-125.5" font-family="Courier New" font-size="10.00">&#45; markerCount</text>
<text text-anchor="start" x="8" y="-114.5" font-family="Courier New" font-size="10.00">&#45; initialRulerLength</text>
<text text-anchor="start" x="8" y="-103.5" font-family="Courier New" font-size="10.00">&#45; scaledRulerLength</text>
<text text-anchor="start" x="8" y="-92.5" font-family="Courier New" font-size="10.00">&#45; units</text>
<text text-anchor="start" x="8" y="-81.5" font-family="Courier New" font-size="10.00">&#45; markerSpacingPercent</text>
<polyline fill="none" stroke="black" points="0,-74.5 149,-74.5 "/>
<text text-anchor="start" x="8" y="-62.5" font-family="Courier New" font-size="10.00">&#45; Start()</text>
<text text-anchor="start" x="8" y="-51.5" font-family="Courier New" font-size="10.00">&#45; Update()</text>
<text text-anchor="start" x="8" y="-40.5" font-family="Courier New" font-size="10.00">&#45; GetMagnitude()</text>
<text text-anchor="start" x="8" y="-29.5" font-family="Courier New" font-size="10.00">&#45; GetUnit()</text>
<text text-anchor="start" x="8" y="-18.5" font-family="Courier New" font-size="10.00">&#45; CreateMarkers()</text>
<text text-anchor="start" x="8" y="-7.5" font-family="Courier New" font-size="10.00">&#45; UpdateMarkers()</text>
</a>
</g>
</g>
<!-- Node2 -->
<g id="node2" class="node">
<title>Node2</title>
<g id="a_node2"><a xlink:title=" ">
<polygon fill="white" stroke="#bfbfbf" points="23,-822.5 23,-879.5 118,-879.5 118,-822.5 23,-822.5"/>
<text text-anchor="middle" x="70.5" y="-867.5" font-family="Courier New" font-size="10.00">MonoBehaviour</text>
<polyline fill="none" stroke="#bfbfbf" points="23,-860.5 118,-860.5 "/>
<text text-anchor="middle" x="70.5" y="-848.5" font-family="Courier New" font-size="10.00"> </text>
<polyline fill="none" stroke="#bfbfbf" points="23,-841.5 118,-841.5 "/>
<text text-anchor="middle" x="70.5" y="-829.5" font-family="Courier New" font-size="10.00"> </text>
</a>
</g>
</g>
<!-- Node2&#45;&gt;Node1 -->
<g id="edge1" class="edge">
<title>Node2&#45;&gt;Node1</title>
<path fill="none" stroke="midnightblue" d="M70.7,-811.96C71.31,-697.9 73.12,-356.42 74,-189.68"/>
<polygon fill="none" stroke="midnightblue" points="67.2,-812.25 70.65,-822.27 74.2,-812.29 67.2,-812.25"/>
</g>
<!-- Node5 -->
<g id="node5" class="node">
<title>Node5</title>
<g id="a_node5"><a xlink:href="../../da/d4f/class_c2_m2_1_1_visualization_1_1_l_u_t_gradient.html" target="_top" xlink:title="Create a fast and memory&#45;friendly color lookup table from a gradient">
<polygon fill="white" stroke="black" points="87,-518.5 87,-751.5 284,-751.5 284,-518.5 87,-518.5"/>
<text text-anchor="middle" x="185.5" y="-739.5" font-family="Courier New" font-size="10.00">C2M2.Visualization.LUTGradient</text>
<polyline fill="none" stroke="black" points="87,-732.5 284,-732.5 "/>
<text text-anchor="start" x="95" y="-720.5" font-family="Courier New" font-size="10.00">+ extremaMethod</text>
<text text-anchor="start" x="95" y="-709.5" font-family="Courier New" font-size="10.00">+ globalMax</text>
<text text-anchor="start" x="95" y="-698.5" font-family="Courier New" font-size="10.00">+ globalMin</text>
<text text-anchor="start" x="95" y="-687.5" font-family="Courier New" font-size="10.00">+ curMax</text>
<text text-anchor="start" x="95" y="-676.5" font-family="Courier New" font-size="10.00">+ curMix</text>
<text text-anchor="start" x="95" y="-665.5" font-family="Courier New" font-size="10.00">+ LutRes</text>
<text text-anchor="start" x="95" y="-654.5" font-family="Courier New" font-size="10.00">+ Gradient</text>
<text text-anchor="start" x="95" y="-643.5" font-family="Courier New" font-size="10.00">+ gradientLUT</text>
<text text-anchor="start" x="95" y="-632.5" font-family="Courier New" font-size="10.00">+ oldMin</text>
<text text-anchor="start" x="95" y="-621.5" font-family="Courier New" font-size="10.00">+ oldMax</text>
<text text-anchor="start" x="95" y="-610.5" font-family="Courier New" font-size="10.00">&#45; lutRes</text>
<text text-anchor="start" x="95" y="-599.5" font-family="Courier New" font-size="10.00">&#45; gradient</text>
<polyline fill="none" stroke="black" points="87,-592.5 284,-592.5 "/>
<text text-anchor="start" x="95" y="-580.5" font-family="Courier New" font-size="10.00">+ Evaluate()</text>
<text text-anchor="start" x="95" y="-569.5" font-family="Courier New" font-size="10.00">+ Evaluate()</text>
<text text-anchor="start" x="95" y="-558.5" font-family="Courier New" font-size="10.00">+ EvaluateUnscaled()</text>
<text text-anchor="start" x="95" y="-547.5" font-family="Courier New" font-size="10.00">+ GetMinMax()</text>
<text text-anchor="start" x="95" y="-536.5" font-family="Courier New" font-size="10.00">&#45; BuildLUT()</text>
<text text-anchor="start" x="95" y="-525.5" font-family="Courier New" font-size="10.00">&#45; RescaleArray()</text>
</a>
</g>
</g>
<!-- Node2&#45;&gt;Node5 -->
<g id="edge5" class="edge">
<title>Node2&#45;&gt;Node5</title>
<path fill="none" stroke="midnightblue" d="M90.24,-813.28C99.59,-795.87 111.33,-774.02 123.34,-751.67"/>
<polygon fill="none" stroke="midnightblue" points="86.95,-812 85.3,-822.46 93.12,-815.31 86.95,-812"/>
</g>
<!-- Node3 -->
<g id="node3" class="node">
<title>Node3</title>
<g id="a_node3"><a xlink:href="../../d6/d2d/class_c2_m2_1_1_simulation_1_1_mesh_simulation.html" target="_top" xlink:title="Simulation of type double[] for visualizing scalar fields on mesh surfaces">
<polygon fill="white" stroke="black" points="87,-237.5 87,-437.5 284,-437.5 284,-237.5 87,-237.5"/>
<text text-anchor="middle" x="185.5" y="-425.5" font-family="Courier New" font-size="10.00">C2M2.Simulation.MeshSimulation</text>
<polyline fill="none" stroke="black" points="87,-418.5 284,-418.5 "/>
<text text-anchor="start" x="95" y="-406.5" font-family="Courier New" font-size="10.00">+ gradient</text>
<text text-anchor="start" x="95" y="-395.5" font-family="Courier New" font-size="10.00">+ globalMax</text>
<text text-anchor="start" x="95" y="-384.5" font-family="Courier New" font-size="10.00">+ globalMin</text>
<text text-anchor="start" x="95" y="-373.5" font-family="Courier New" font-size="10.00">+ rulerInitPos</text>
<text text-anchor="start" x="95" y="-362.5" font-family="Courier New" font-size="10.00">+ rulerInitRot</text>
<text text-anchor="start" x="95" y="-351.5" font-family="Courier New" font-size="10.00">+ colorLUT</text>
<text text-anchor="start" x="95" y="-340.5" font-family="Courier New" font-size="10.00">+ VisualMesh</text>
<text text-anchor="start" x="95" y="-329.5" font-family="Courier New" font-size="10.00">+ ColliderMesh</text>
<text text-anchor="start" x="95" y="-318.5" font-family="Courier New" font-size="10.00">&#45; visualMesh</text>
<text text-anchor="start" x="95" y="-307.5" font-family="Courier New" font-size="10.00">&#45; colliderMesh</text>
<text text-anchor="start" x="95" y="-296.5" font-family="Courier New" font-size="10.00">&#45; mf</text>
<text text-anchor="start" x="95" y="-285.5" font-family="Courier New" font-size="10.00">&#45; mr</text>
<polyline fill="none" stroke="black" points="87,-278.5 284,-278.5 "/>
<text text-anchor="start" x="95" y="-266.5" font-family="Courier New" font-size="10.00"># UpdateVisualization()</text>
<text text-anchor="start" x="95" y="-255.5" font-family="Courier New" font-size="10.00"># OnAwakePost()</text>
<text text-anchor="start" x="95" y="-244.5" font-family="Courier New" font-size="10.00">&#45; UpdateVisualization()</text>
</a>
</g>
</g>
<!-- Node3&#45;&gt;Node1 -->
<g id="edge2" class="edge">
<title>Node3&#45;&gt;Node1</title>
<path fill="none" stroke="#404040" d="M139.71,-237.29C134.13,-225.2 128.42,-212.83 122.81,-200.66"/>
<polygon fill="none" stroke="#404040" points="122.71,-200.47 116.57,-196.69 117.69,-189.57 123.83,-193.34 122.71,-200.47"/>
<text text-anchor="middle" x="146" y="-211" font-family="Courier New" font-size="10.00"> +sim</text>
</g>
<!-- Node4 -->
<g id="node4" class="node">
<title>Node4</title>
<g id="a_node4"><a xlink:href="../../db/d39/class_c2_m2_1_1_simulation_1_1_simulation.html" target="_top" xlink:title=" ">
<polygon fill="white" stroke="black" points="302,-485.5 302,-784.5 487,-784.5 487,-485.5 302,-485.5"/>
<text text-anchor="start" x="310" y="-772.5" font-family="Courier New" font-size="10.00">Simulation&lt; double</text>
<text text-anchor="start" x="310" y="-761.5" font-family="Courier New" font-size="10.00">[], Mesh, VRRaycastableMesh,</text>
<text text-anchor="middle" x="394.5" y="-750.5" font-family="Courier New" font-size="10.00"> VRGrabbableMesh &gt;</text>
<polyline fill="none" stroke="black" points="302,-743.5 487,-743.5 "/>
<text text-anchor="start" x="310" y="-731.5" font-family="Courier New" font-size="10.00">+ dryRun</text>
<text text-anchor="start" x="310" y="-720.5" font-family="Courier New" font-size="10.00">+ startOnAwake</text>
<text text-anchor="start" x="310" y="-709.5" font-family="Courier New" font-size="10.00">+ viz</text>
<text text-anchor="start" x="310" y="-698.5" font-family="Courier New" font-size="10.00"># mutex</text>
<text text-anchor="start" x="310" y="-687.5" font-family="Courier New" font-size="10.00">&#45; solveThread</text>
<polyline fill="none" stroke="black" points="302,-680.5 487,-680.5 "/>
<text text-anchor="start" x="310" y="-668.5" font-family="Courier New" font-size="10.00">+ GetValues()</text>
<text text-anchor="start" x="310" y="-657.5" font-family="Courier New" font-size="10.00">+ Initialize()</text>
<text text-anchor="start" x="310" y="-646.5" font-family="Courier New" font-size="10.00">+ Update()</text>
<text text-anchor="start" x="310" y="-635.5" font-family="Courier New" font-size="10.00">+ StartSimulation()</text>
<text text-anchor="start" x="310" y="-624.5" font-family="Courier New" font-size="10.00">+ StopSimulation()</text>
<text text-anchor="start" x="310" y="-613.5" font-family="Courier New" font-size="10.00"># BuildVisualization()</text>
<text text-anchor="start" x="310" y="-602.5" font-family="Courier New" font-size="10.00"># UpdateVisualization()</text>
<text text-anchor="start" x="310" y="-591.5" font-family="Courier New" font-size="10.00"># Solve()</text>
<text text-anchor="start" x="310" y="-580.5" font-family="Courier New" font-size="10.00"># PreSolve()</text>
<text text-anchor="start" x="310" y="-569.5" font-family="Courier New" font-size="10.00"># OnAwakePre()</text>
<text text-anchor="start" x="310" y="-558.5" font-family="Courier New" font-size="10.00"># OnAwakePost()</text>
<text text-anchor="start" x="310" y="-547.5" font-family="Courier New" font-size="10.00"># OnStart()</text>
<text text-anchor="start" x="310" y="-536.5" font-family="Courier New" font-size="10.00"># OnUpdate()</text>
<text text-anchor="start" x="310" y="-525.5" font-family="Courier New" font-size="10.00"># OnPause()</text>
<text text-anchor="start" x="310" y="-514.5" font-family="Courier New" font-size="10.00"># OnQuit()</text>
<text text-anchor="start" x="310" y="-503.5" font-family="Courier New" font-size="10.00">&#45; OnApplicationPause()</text>
<text text-anchor="start" x="310" y="-492.5" font-family="Courier New" font-size="10.00">&#45; OnApplicationQuit()</text>
</a>
</g>
</g>
<!-- Node4&#45;&gt;Node3 -->
<g id="edge3" class="edge">
<title>Node4&#45;&gt;Node3</title>
<path fill="none" stroke="midnightblue" d="M296.16,-478.22C290.94,-470.66 285.7,-463.21 280.5,-456 276.13,-449.94 271.55,-443.77 266.87,-437.59"/>
<polygon fill="none" stroke="midnightblue" points="293.28,-480.2 301.82,-486.47 299.05,-476.24 293.28,-480.2"/>
</g>
<!-- Node5&#45;&gt;Node3 -->
<g id="edge4" class="edge">
<title>Node5&#45;&gt;Node3</title>
<path fill="none" stroke="#404040" d="M185.5,-518.48C185.5,-495.95 185.5,-472.36 185.5,-449.96"/>
<polygon fill="none" stroke="#404040" points="185.5,-449.65 181.5,-443.65 185.5,-437.65 189.5,-443.65 185.5,-449.65"/>
<text text-anchor="middle" x="231" y="-459" font-family="Courier New" font-size="10.00"> +extremaMethod</text>
</g>
</g>
</svg>
        <g id="navigator" transform="translate(0 0)" fill="#404254">
                <rect fill="#f2f5e9" fill-opacity="0.5" stroke="#606060" stroke-width=".5" x="0" y="0" width="60" height="60"/>
                <use id="zoomplus" xlink:href="#zoomPlus" x="17" y="9" onmousedown="handleZoom(evt,'in')"/>
                <use id="zoomminus" xlink:href="#zoomMin" x="42" y="9" onmousedown="handleZoom(evt,'out')"/>
                <use id="reset" xlink:href="#resetDef" x="30" y="36" onmousedown="handleReset()"/>
                <g id="arrowUp" xlink:href="#dirArrow" transform="translate(30 24)" onmousedown="handlePan(0,-1)">
                  <use xlink:href="#rim" fill="#404040">
                        <set attributeName="fill" to="#808080" begin="arrowUp.mouseover" end="arrowUp.mouseout"/>
                  </use>
                  <path fill="none" stroke="white" stroke-width="1.5" d="M0,-3.0v7 M-2.5,-0.5L0,-3.0L2.5,-0.5"/>
                </g>
                <g id="arrowRight" xlink:href="#dirArrow" transform="rotate(90) translate(36 -43)" onmousedown="handlePan(1,0)">
                  <use xlink:href="#rim" fill="#404040">
                        <set attributeName="fill" to="#808080" begin="arrowRight.mouseover" end="arrowRight.mouseout"/>
                  </use>
                  <path fill="none" stroke="white" stroke-width="1.5" d="M0,-3.0v7 M-2.5,-0.5L0,-3.0L2.5,-0.5"/>
                </g>
                <g id="arrowDown" xlink:href="#dirArrow" transform="rotate(180) translate(-30 -48)" onmousedown="handlePan(0,1)">
                  <use xlink:href="#rim" fill="#404040">
                        <set attributeName="fill" to="#808080" begin="arrowDown.mouseover" end="arrowDown.mouseout"/>
                  </use>
                  <path fill="none" stroke="white" stroke-width="1.5" d="M0,-3.0v7 M-2.5,-0.5L0,-3.0L2.5,-0.5"/>
                </g>
                <g id="arrowLeft" xlink:href="#dirArrow" transform="rotate(270) translate(-36 17)" onmousedown="handlePan(-1,0)">
                  <use xlink:href="#rim" fill="#404040">
                        <set attributeName="fill" to="#808080" begin="arrowLeft.mouseover" end="arrowLeft.mouseout"/>
                  </use>
                  <path fill="none" stroke="white" stroke-width="1.5" d="M0,-3.0v7 M-2.5,-0.5L0,-3.0L2.5,-0.5"/>
                </g>
        </g>
        <svg viewBox="0 0 15 15" width="100%" height="30px" preserveAspectRatio="xMaxYMin meet">
         <g id="arrow_out" transform="scale(0.3 0.3)">
          <a xlink:href="class_ruler_measure__coll__graph_org.svg" target="_base">
           <rect id="button" ry="5" rx="5" y="6" x="6" height="38" width="38"
                fill="#f2f5e9" fill-opacity="0.5" stroke="#606060" stroke-width="1.0"/>
           <path id="arrow"
             d="M 11.500037,31.436501 C 11.940474,20.09759 22.043105,11.32322 32.158766,21.979434 L 37.068811,17.246167 C 37.068811,17.246167 37.088388,32 37.088388,32 L 22.160133,31.978069 C 22.160133,31.978069 26.997745,27.140456 26.997745,27.140456 C 18.528582,18.264221 13.291696,25.230495 11.500037,31.436501 z"
             style="fill:#404040;"/>
          </a>
         </g>
        </svg>
</svg>
