<?xml version="1.0" encoding="UTF-8" standalone="no"?>
<!DOCTYPE svg PUBLIC "-//W3C//DTD SVG 1.1//EN"
 "http://www.w3.org/Graphics/SVG/1.1/DTD/svg11.dtd">
<!-- Generated by graphviz version 2.38.0 (20140413.2041)
 -->
<!-- Title: C2M2.Utils.Animation.Rotate Pages: 1 -->
<svg width="187pt" height="314pt"
 viewBox="0.00 0.00 187.00 314.00" xmlns="http://www.w3.org/2000/svg" xmlns:xlink="http://www.w3.org/1999/xlink">
<g id="graph0" class="graph" transform="scale(1 1) rotate(0) translate(4 310)">
<title>C2M2.Utils.Animation.Rotate</title>
<polygon fill="white" stroke="none" points="-4,4 -4,-310 183,-310 183,4 -4,4"/>
<!-- Node1 -->
<g id="node1" class="node"><title>Node1</title>
<g id="a_node1"><a xlink:title=" ">
<polygon fill="#bfbfbf" stroke="black" points="0,-0.5 0,-211.5 179,-211.5 179,-0.5 0,-0.5"/>
<text text-anchor="middle" x="89.5" y="-199.5" font-family="Courier New" font-size="10.00">C2M2.Utils.Animation.Rotate</text>
<polyline fill="none" stroke="black" points="0,-192.5 179,-192.5 "/>
<text text-anchor="start" x="8" y="-180.5" font-family="Courier New" font-size="10.00">+ rigidbodyRotate</text>
<text text-anchor="start" x="8" y="-169.5" font-family="Courier New" font-size="10.00">+ rotateX</text>
<text text-anchor="start" x="8" y="-158.5" font-family="Courier New" font-size="10.00">+ XSpeed</text>
<text text-anchor="start" x="8" y="-147.5" font-family="Courier New" font-size="10.00">+ randomX</text>
<text text-anchor="start" x="8" y="-136.5" font-family="Courier New" font-size="10.00">+ rotateY</text>
<text text-anchor="start" x="8" y="-125.5" font-family="Courier New" font-size="10.00">+ YSpeed</text>
<text text-anchor="start" x="8" y="-114.5" font-family="Courier New" font-size="10.00">+ randomY</text>
<text text-anchor="start" x="8" y="-103.5" font-family="Courier New" font-size="10.00">+ rotateZ</text>
<text text-anchor="start" x="8" y="-92.5" font-family="Courier New" font-size="10.00">+ ZSpeed</text>
<text text-anchor="start" x="8" y="-81.5" font-family="Courier New" font-size="10.00">+ randomZ</text>
<text text-anchor="start" x="8" y="-70.5" font-family="Courier New" font-size="10.00">+ rb</text>
<text text-anchor="start" x="8" y="-59.5" font-family="Courier New" font-size="10.00">&#45; rotationVector</text>
<text text-anchor="start" x="8" y="-48.5" font-family="Courier New" font-size="10.00">&#45; rotationQuat</text>
<polyline fill="none" stroke="black" points="0,-41.5 179,-41.5 "/>
<text text-anchor="start" x="8" y="-29.5" font-family="Courier New" font-size="10.00">&#45; Awake()</text>
<text text-anchor="start" x="8" y="-18.5" font-family="Courier New" font-size="10.00">&#45; Start()</text>
<text text-anchor="start" x="8" y="-7.5" font-family="Courier New" font-size="10.00">&#45; FixedUpdate()</text>
</a>
</g>
</g>
<!-- Node2 -->
<g id="node2" class="node"><title>Node2</title>
<g id="a_node2"><a xlink:title=" ">
<polygon fill="white" stroke="#bfbfbf" points="42,-248.5 42,-305.5 137,-305.5 137,-248.5 42,-248.5"/>
<text text-anchor="middle" x="89.5" y="-293.5" font-family="Courier New" font-size="10.00">MonoBehaviour</text>
<polyline fill="none" stroke="#bfbfbf" points="42,-286.5 137,-286.5 "/>
<text text-anchor="middle" x="89.5" y="-274.5" font-family="Courier New" font-size="10.00"> </text>
<polyline fill="none" stroke="#bfbfbf" points="42,-267.5 137,-267.5 "/>
<text text-anchor="middle" x="89.5" y="-255.5" font-family="Courier New" font-size="10.00"> </text>
</a>
</g>
</g>
<!-- Node2&#45;&gt;Node1 -->
<g id="edge1" class="edge"><title>Node2&#45;&gt;Node1</title>
<path fill="none" stroke="midnightblue" d="M89.5,-238.233C89.5,-230.038 89.5,-220.987 89.5,-211.584"/>
<polygon fill="none" stroke="midnightblue" points="86.0001,-238.471 89.5,-248.471 93.0001,-238.471 86.0001,-238.471"/>
</g>
</g>
</svg>
