<?xml version="1.0" encoding="UTF-8" standalone="no"?>
<!DOCTYPE svg PUBLIC "-//W3C//DTD SVG 1.1//EN"
 "http://www.w3.org/Graphics/SVG/1.1/DTD/svg11.dtd">
<!-- Generated by graphviz version 2.46.0 (20210118.1747)
 -->
<!-- Title: C2M2.Interaction.VR.MovingOVRHeadsetEmulator Pages: 1 -->
<!--zoomable 552 -->
<svg id="main" version="1.1" xmlns="http://www.w3.org/2000/svg" xmlns:xlink="http://www.w3.org/1999/xlink" xml:space="preserve" onload="init(evt)">
<style type="text/css"><![CDATA[
.edge:hover path { stroke: red; }
.edge:hover polygon { stroke: red; fill: red; }
]]></style>
<script type="text/javascript"><![CDATA[
var edges = document.getElementsByTagName('g');
if (edges && edges.length) {
  for (var i=0;i<edges.length;i++) {
    if (edges[i].id.substr(0,4)=='edge') {
      edges[i].setAttribute('class','edge');
    }
  }
}
]]></script>
        <defs>
                <circle id="rim" cx="0" cy="0" r="7"/>
                <circle id="rim2" cx="0" cy="0" r="3.5"/>
                <g id="zoomPlus">
                        <use xlink:href="#rim" fill="#404040">
                                <set attributeName="fill" to="#808080" begin="zoomplus.mouseover" end="zoomplus.mouseout"/>
                        </use>
                        <path d="M-4,0h8M0,-4v8" fill="none" stroke="white" stroke-width="1.5" pointer-events="none"/>
                </g>
                <g id="zoomMin">
                        <use xlink:href="#rim" fill="#404040">
                                <set attributeName="fill" to="#808080" begin="zoomminus.mouseover" end="zoomminus.mouseout"/>
                        </use>
                        <path d="M-4,0h8" fill="none" stroke="white" stroke-width="1.5" pointer-events="none"/>
                </g>
                <g id="dirArrow">
                        <path fill="none" stroke="white" stroke-width="1.5" d="M0,-3.0v7 M-2.5,-0.5L0,-3.0L2.5,-0.5"/>
                </g>
               <g id="resetDef">
                       <use xlink:href="#rim2" fill="#404040">
                               <set attributeName="fill" to="#808080" begin="reset.mouseover" end="reset.mouseout"/>
                       </use>
               </g>
        </defs>

<script type="text/javascript">
var viewWidth = 282;
var viewHeight = 552;
var sectionId = 'dynsection-1';
</script>
<script xlink:href="../../svgpan.js"/>
<svg id="graph" class="graph">
<g id="viewport">
<title>C2M2.Interaction.VR.MovingOVRHeadsetEmulator</title>
<polygon fill="white" stroke="transparent" points="-4,4 -4,-548 278,-548 278,4 -4,4"/>
<!-- Node1 -->
<g id="node1" class="node">
<title>Node1</title>
<g id="a_node1"><a xlink:title="Add movement functionality to Oculus HMD headset emulator, add some additional small functionality li...">
<polygon fill="#bfbfbf" stroke="black" points="20,-0.5 20,-167.5 193,-167.5 193,-0.5 20,-0.5"/>
<text text-anchor="start" x="28" y="-155.5" font-family="Courier New" font-size="10.00">C2M2.Interaction.VR.Moving</text>
<text text-anchor="middle" x="106.5" y="-144.5" font-family="Courier New" font-size="10.00">OVRHeadsetEmulator</text>
<polyline fill="none" stroke="black" points="20,-137.5 193,-137.5 "/>
<text text-anchor="start" x="28" y="-125.5" font-family="Courier New" font-size="10.00">+ slowMoveKeys</text>
<text text-anchor="start" x="28" y="-114.5" font-family="Courier New" font-size="10.00">+ speed</text>
<text text-anchor="start" x="28" y="-103.5" font-family="Courier New" font-size="10.00">+ slowSpeed</text>
<text text-anchor="start" x="28" y="-92.5" font-family="Courier New" font-size="10.00">+ SlowMoving</text>
<polyline fill="none" stroke="black" points="20,-85.5 193,-85.5 "/>
<text text-anchor="start" x="28" y="-73.5" font-family="Courier New" font-size="10.00">&#45; Awake()</text>
<text text-anchor="start" x="28" y="-62.5" font-family="Courier New" font-size="10.00">&#45; Start()</text>
<text text-anchor="start" x="28" y="-51.5" font-family="Courier New" font-size="10.00">&#45; CheckSpeed()</text>
<text text-anchor="start" x="28" y="-40.5" font-family="Courier New" font-size="10.00">&#45; DisableAvatar()</text>
<text text-anchor="start" x="28" y="-29.5" font-family="Courier New" font-size="10.00">&#45; InitUI()</text>
<text text-anchor="start" x="28" y="-18.5" font-family="Courier New" font-size="10.00">&#45; OnEnable()</text>
<text text-anchor="start" x="28" y="-7.5" font-family="Courier New" font-size="10.00">&#45; OnDisable()</text>
</a>
</g>
</g>
<!-- Node2 -->
<g id="node2" class="node">
<title>Node2</title>
<g id="a_node2"><a xlink:title=" ">
<polygon fill="white" stroke="#bfbfbf" points="0,-303.5 0,-360.5 125,-360.5 125,-303.5 0,-303.5"/>
<text text-anchor="middle" x="62.5" y="-348.5" font-family="Courier New" font-size="10.00">OVRHeadsetEmulator</text>
<polyline fill="none" stroke="#bfbfbf" points="0,-341.5 125,-341.5 "/>
<text text-anchor="middle" x="62.5" y="-329.5" font-family="Courier New" font-size="10.00"> </text>
<polyline fill="none" stroke="#bfbfbf" points="0,-322.5 125,-322.5 "/>
<text text-anchor="middle" x="62.5" y="-310.5" font-family="Courier New" font-size="10.00"> </text>
</a>
</g>
</g>
<!-- Node2&#45;&gt;Node1 -->
<g id="edge1" class="edge">
<title>Node2&#45;&gt;Node1</title>
<path fill="none" stroke="midnightblue" d="M69.29,-293.04C75.26,-259.69 84.14,-210.01 91.73,-167.56"/>
<polygon fill="none" stroke="midnightblue" points="65.78,-292.8 67.46,-303.26 72.67,-294.03 65.78,-292.8"/>
</g>
<!-- Node3 -->
<g id="node3" class="node">
<title>Node3</title>
<g id="a_node3"><a xlink:href="../../d7/d46/class_movement_controller.html" target="_top" xlink:title=" ">
<polygon fill="white" stroke="black" points="143,-215.5 143,-448.5 274,-448.5 274,-215.5 143,-215.5"/>
<text text-anchor="middle" x="208.5" y="-436.5" font-family="Courier New" font-size="10.00">MovementController</text>
<polyline fill="none" stroke="black" points="143,-429.5 274,-429.5 "/>
<text text-anchor="start" x="151" y="-417.5" font-family="Courier New" font-size="10.00">+ forward</text>
<text text-anchor="start" x="151" y="-406.5" font-family="Courier New" font-size="10.00">+ backward</text>
<text text-anchor="start" x="151" y="-395.5" font-family="Courier New" font-size="10.00">+ left</text>
<text text-anchor="start" x="151" y="-384.5" font-family="Courier New" font-size="10.00">+ right</text>
<text text-anchor="start" x="151" y="-373.5" font-family="Courier New" font-size="10.00">+ upDown</text>
<text text-anchor="start" x="151" y="-362.5" font-family="Courier New" font-size="10.00">+ speed</text>
<text text-anchor="start" x="151" y="-351.5" font-family="Courier New" font-size="10.00">+ relativeTo</text>
<text text-anchor="start" x="151" y="-340.5" font-family="Courier New" font-size="10.00">+ ForwardPress</text>
<text text-anchor="start" x="151" y="-329.5" font-family="Courier New" font-size="10.00">+ BackwardPress</text>
<text text-anchor="start" x="151" y="-318.5" font-family="Courier New" font-size="10.00">+ LeftPress</text>
<text text-anchor="start" x="151" y="-307.5" font-family="Courier New" font-size="10.00">+ RightPress</text>
<text text-anchor="start" x="151" y="-296.5" font-family="Courier New" font-size="10.00">+ UpDownPress</text>
<text text-anchor="start" x="151" y="-285.5" font-family="Courier New" font-size="10.00">+ isMoving</text>
<text text-anchor="start" x="151" y="-274.5" font-family="Courier New" font-size="10.00">&#45; moveRoutine</text>
<polyline fill="none" stroke="black" points="143,-267.5 274,-267.5 "/>
<text text-anchor="start" x="151" y="-255.5" font-family="Courier New" font-size="10.00">+ EnableMovement()</text>
<text text-anchor="start" x="151" y="-244.5" font-family="Courier New" font-size="10.00">+ DisableMovement()</text>
<text text-anchor="start" x="151" y="-233.5" font-family="Courier New" font-size="10.00">&#45; Start()</text>
<text text-anchor="start" x="151" y="-222.5" font-family="Courier New" font-size="10.00">&#45; Movement()</text>
</a>
</g>
</g>
<!-- Node3&#45;&gt;Node1 -->
<g id="edge2" class="edge">
<title>Node3&#45;&gt;Node1</title>
<path fill="none" stroke="#404040" d="M160.49,-215.2C155.44,-203.02 150.35,-190.74 145.41,-178.85"/>
<polygon fill="none" stroke="#404040" points="145.34,-178.67 139.35,-174.66 140.74,-167.59 146.74,-171.6 145.34,-178.67"/>
<text text-anchor="middle" x="187" y="-189" font-family="Courier New" font-size="10.00"> &#45;controller</text>
</g>
<!-- Node4 -->
<g id="node4" class="node">
<title>Node4</title>
<g id="a_node4"><a xlink:title=" ">
<polygon fill="white" stroke="#bfbfbf" points="161,-486.5 161,-543.5 256,-543.5 256,-486.5 161,-486.5"/>
<text text-anchor="middle" x="208.5" y="-531.5" font-family="Courier New" font-size="10.00">MonoBehaviour</text>
<polyline fill="none" stroke="#bfbfbf" points="161,-524.5 256,-524.5 "/>
<text text-anchor="middle" x="208.5" y="-512.5" font-family="Courier New" font-size="10.00"> </text>
<polyline fill="none" stroke="#bfbfbf" points="161,-505.5 256,-505.5 "/>
<text text-anchor="middle" x="208.5" y="-493.5" font-family="Courier New" font-size="10.00"> </text>
</a>
</g>
</g>
<!-- Node4&#45;&gt;Node3 -->
<g id="edge3" class="edge">
<title>Node4&#45;&gt;Node3</title>
<path fill="none" stroke="midnightblue" d="M208.5,-476.01C208.5,-467.61 208.5,-458.29 208.5,-448.55"/>
<polygon fill="none" stroke="midnightblue" points="205,-476.12 208.5,-486.12 212,-476.12 205,-476.12"/>
</g>
</g>
</svg>
        <g id="navigator" transform="translate(0 0)" fill="#404254">
                <rect fill="#f2f5e9" fill-opacity="0.5" stroke="#606060" stroke-width=".5" x="0" y="0" width="60" height="60"/>
                <use id="zoomplus" xlink:href="#zoomPlus" x="17" y="9" onmousedown="handleZoom(evt,'in')"/>
                <use id="zoomminus" xlink:href="#zoomMin" x="42" y="9" onmousedown="handleZoom(evt,'out')"/>
                <use id="reset" xlink:href="#resetDef" x="30" y="36" onmousedown="handleReset()"/>
                <g id="arrowUp" xlink:href="#dirArrow" transform="translate(30 24)" onmousedown="handlePan(0,-1)">
                  <use xlink:href="#rim" fill="#404040">
                        <set attributeName="fill" to="#808080" begin="arrowUp.mouseover" end="arrowUp.mouseout"/>
                  </use>
                  <path fill="none" stroke="white" stroke-width="1.5" d="M0,-3.0v7 M-2.5,-0.5L0,-3.0L2.5,-0.5"/>
                </g>
                <g id="arrowRight" xlink:href="#dirArrow" transform="rotate(90) translate(36 -43)" onmousedown="handlePan(1,0)">
                  <use xlink:href="#rim" fill="#404040">
                        <set attributeName="fill" to="#808080" begin="arrowRight.mouseover" end="arrowRight.mouseout"/>
                  </use>
                  <path fill="none" stroke="white" stroke-width="1.5" d="M0,-3.0v7 M-2.5,-0.5L0,-3.0L2.5,-0.5"/>
                </g>
                <g id="arrowDown" xlink:href="#dirArrow" transform="rotate(180) translate(-30 -48)" onmousedown="handlePan(0,1)">
                  <use xlink:href="#rim" fill="#404040">
                        <set attributeName="fill" to="#808080" begin="arrowDown.mouseover" end="arrowDown.mouseout"/>
                  </use>
                  <path fill="none" stroke="white" stroke-width="1.5" d="M0,-3.0v7 M-2.5,-0.5L0,-3.0L2.5,-0.5"/>
                </g>
                <g id="arrowLeft" xlink:href="#dirArrow" transform="rotate(270) translate(-36 17)" onmousedown="handlePan(-1,0)">
                  <use xlink:href="#rim" fill="#404040">
                        <set attributeName="fill" to="#808080" begin="arrowLeft.mouseover" end="arrowLeft.mouseout"/>
                  </use>
                  <path fill="none" stroke="white" stroke-width="1.5" d="M0,-3.0v7 M-2.5,-0.5L0,-3.0L2.5,-0.5"/>
                </g>
        </g>
        <svg viewBox="0 0 15 15" width="100%" height="30px" preserveAspectRatio="xMaxYMin meet">
         <g id="arrow_out" transform="scale(0.3 0.3)">
          <a xlink:href="class_c2_m2_1_1_interaction_1_1_v_r_1_1_moving_o_v_r_headset_emulator__coll__graph_org.svg" target="_base">
           <rect id="button" ry="5" rx="5" y="6" x="6" height="38" width="38"
                fill="#f2f5e9" fill-opacity="0.5" stroke="#606060" stroke-width="1.0"/>
           <path id="arrow"
             d="M 11.500037,31.436501 C 11.940474,20.09759 22.043105,11.32322 32.158766,21.979434 L 37.068811,17.246167 C 37.068811,17.246167 37.088388,32 37.088388,32 L 22.160133,31.978069 C 22.160133,31.978069 26.997745,27.140456 26.997745,27.140456 C 18.528582,18.264221 13.291696,25.230495 11.500037,31.436501 z"
             style="fill:#404040;"/>
          </a>
         </g>
        </svg>
</svg>
