<?xml version="1.0" encoding="UTF-8" standalone="no"?>
<!DOCTYPE svg PUBLIC "-//W3C//DTD SVG 1.1//EN"
 "http://www.w3.org/Graphics/SVG/1.1/DTD/svg11.dtd">
<!-- Generated by graphviz version 2.38.0 (20140413.2041)
 -->
<!-- Title: C2M2.NeuronalDynamics.UGX.SineWaveColorizer Pages: 1 -->
<svg width="181pt" height="270pt"
 viewBox="0.00 0.00 181.00 270.00" xmlns="http://www.w3.org/2000/svg" xmlns:xlink="http://www.w3.org/1999/xlink">
<g id="graph0" class="graph" transform="scale(1 1) rotate(0) translate(4 266)">
<title>C2M2.NeuronalDynamics.UGX.SineWaveColorizer</title>
<polygon fill="white" stroke="none" points="-4,4 -4,-266 177,-266 177,4 -4,4"/>
<!-- Node1 -->
<g id="node1" class="node"><title>Node1</title>
<g id="a_node1"><a xlink:title="A simple sine wave colorizer">
<polygon fill="#bfbfbf" stroke="black" points="0,-0.5 0,-167.5 173,-167.5 173,-0.5 0,-0.5"/>
<text text-anchor="start" x="8" y="-155.5" font-family="Courier New" font-size="10.00">C2M2.NeuronalDynamics.UGX.</text>
<text text-anchor="middle" x="86.5" y="-144.5" font-family="Courier New" font-size="10.00">SineWaveColorizer</text>
<polyline fill="none" stroke="black" points="0,-137.5 173,-137.5 "/>
<text text-anchor="start" x="8" y="-125.5" font-family="Courier New" font-size="10.00">+ cylinder</text>
<text text-anchor="start" x="8" y="-114.5" font-family="Courier New" font-size="10.00">+ wave</text>
<text text-anchor="start" x="8" y="-103.5" font-family="Courier New" font-size="10.00">+ color</text>
<text text-anchor="start" x="8" y="-92.5" font-family="Courier New" font-size="10.00">+ alpha</text>
<text text-anchor="start" x="8" y="-81.5" font-family="Courier New" font-size="10.00">&#45; functions</text>
<polyline fill="none" stroke="black" points="0,-74.5 173,-74.5 "/>
<text text-anchor="start" x="8" y="-62.5" font-family="Courier New" font-size="10.00">+ Wave()</text>
<text text-anchor="start" x="8" y="-51.5" font-family="Courier New" font-size="10.00">+ SimpleWave()</text>
<text text-anchor="start" x="8" y="-40.5" font-family="Courier New" font-size="10.00">&#45; Awake()</text>
<text text-anchor="start" x="8" y="-29.5" font-family="Courier New" font-size="10.00">&#45; Start()</text>
<text text-anchor="start" x="8" y="-18.5" font-family="Courier New" font-size="10.00">&#45; Colorize()</text>
<text text-anchor="start" x="8" y="-7.5" font-family="Courier New" font-size="10.00">&#45; GetColor()</text>
</a>
</g>
</g>
<!-- Node2 -->
<g id="node2" class="node"><title>Node2</title>
<g id="a_node2"><a xlink:title=" ">
<polygon fill="white" stroke="#bfbfbf" points="39,-204.5 39,-261.5 134,-261.5 134,-204.5 39,-204.5"/>
<text text-anchor="middle" x="86.5" y="-249.5" font-family="Courier New" font-size="10.00">MonoBehaviour</text>
<polyline fill="none" stroke="#bfbfbf" points="39,-242.5 134,-242.5 "/>
<text text-anchor="middle" x="86.5" y="-230.5" font-family="Courier New" font-size="10.00"> </text>
<polyline fill="none" stroke="#bfbfbf" points="39,-223.5 134,-223.5 "/>
<text text-anchor="middle" x="86.5" y="-211.5" font-family="Courier New" font-size="10.00"> </text>
</a>
</g>
</g>
<!-- Node2&#45;&gt;Node1 -->
<g id="edge1" class="edge"><title>Node2&#45;&gt;Node1</title>
<path fill="none" stroke="midnightblue" d="M86.5,-194.35C86.5,-186.08 86.5,-177.008 86.5,-167.738"/>
<polygon fill="none" stroke="midnightblue" points="83.0001,-194.35 86.5,-204.35 90.0001,-194.35 83.0001,-194.35"/>
</g>
</g>
</svg>
