<?xml version="1.0" encoding="UTF-8" standalone="no"?>
<!DOCTYPE svg PUBLIC "-//W3C//DTD SVG 1.1//EN"
 "http://www.w3.org/Graphics/SVG/1.1/DTD/svg11.dtd">
<!-- Generated by graphviz version 2.38.0 (20140413.2041)
 -->
<!-- Title: C2M2.NeuronalDynamics.Simulation.CellSolver2SimpleDiffusion Pages: 1 -->
<!--zoomable 1180 -->
<svg id="main" version="1.1" xmlns="http://www.w3.org/2000/svg" xmlns:xlink="http://www.w3.org/1999/xlink" xml:space="preserve" onload="init(evt)">
<style type="text/css"><![CDATA[
.edge:hover path { stroke: red; }
.edge:hover polygon { stroke: red; fill: red; }
]]></style>
<script type="text/javascript"><![CDATA[
var edges = document.getElementsByTagName('g');
if (edges && edges.length) {
  for (var i=0;i<edges.length;i++) {
    if (edges[i].id.substr(0,4)=='edge') {
      edges[i].setAttribute('class','edge');
    }
  }
}
]]></script>
        <defs>
                <circle id="rim" cx="0" cy="0" r="7"/>
                <circle id="rim2" cx="0" cy="0" r="3.5"/>
                <g id="zoomPlus">
                        <use xlink:href="#rim" fill="#404040">
                                <set attributeName="fill" to="#808080" begin="zoomplus.mouseover" end="zoomplus.mouseout"/>
                        </use>
                        <path d="M-4,0h8M0,-4v8" fill="none" stroke="white" stroke-width="1.5" pointer-events="none"/>
                </g>
                <g id="zoomMin">
                        <use xlink:href="#rim" fill="#404040">
                                <set attributeName="fill" to="#808080" begin="zoomminus.mouseover" end="zoomminus.mouseout"/>
                        </use>
                        <path d="M-4,0h8" fill="none" stroke="white" stroke-width="1.5" pointer-events="none"/>
                </g>
                <g id="dirArrow">
                        <path fill="none" stroke="white" stroke-width="1.5" d="M0,-3.0v7 M-2.5,-0.5L0,-3.0L2.5,-0.5"/>
                </g>
               <g id="resetDef">
                       <use xlink:href="#rim2" fill="#404040">
                               <set attributeName="fill" to="#808080" begin="reset.mouseover" end="reset.mouseout"/>
                       </use>
               </g>
        </defs>

<script type="text/javascript">
var viewWidth = 515;
var viewHeight = 1180;
var sectionId = 'dynsection-1';
</script>
<script xlink:href="../../svgpan.js"/>
<svg id="graph" class="graph">
<g id="viewport">
<title>C2M2.NeuronalDynamics.Simulation.CellSolver2SimpleDiffusion</title>
<polygon fill="white" stroke="none" points="-4,4 -4,-1176 510.5,-1176 510.5,4 -4,4"/>
<!-- Node1 -->
<g id="node1" class="node"><title>Node1</title>
<g id="a_node1"><a xlink:title=" ">
<polygon fill="#bfbfbf" stroke="black" points="159,-0.5 159,-310.5 374,-310.5 374,-0.5 159,-0.5"/>
<text text-anchor="start" x="167" y="-298.5" font-family="Courier New" font-size="10.00">C2M2.NeuronalDynamics.Simulation.</text>
<text text-anchor="middle" x="266.5" y="-287.5" font-family="Courier New" font-size="10.00">CellSolver2SimpleDiffusion</text>
<polyline fill="none" stroke="black" points="159,-280.5 374,-280.5 "/>
<text text-anchor="start" x="167" y="-268.5" font-family="Courier New" font-size="10.00">+ res</text>
<text text-anchor="start" x="167" y="-257.5" font-family="Courier New" font-size="10.00">+ gk</text>
<text text-anchor="start" x="167" y="-246.5" font-family="Courier New" font-size="10.00">+ gna</text>
<text text-anchor="start" x="167" y="-235.5" font-family="Courier New" font-size="10.00">+ gl</text>
<text text-anchor="start" x="167" y="-224.5" font-family="Courier New" font-size="10.00">+ ek</text>
<text text-anchor="start" x="167" y="-213.5" font-family="Courier New" font-size="10.00">+ ena</text>
<text text-anchor="start" x="167" y="-202.5" font-family="Courier New" font-size="10.00">+ el</text>
<text text-anchor="start" x="167" y="-191.5" font-family="Courier New" font-size="10.00">+ cap</text>
<text text-anchor="start" x="167" y="-180.5" font-family="Courier New" font-size="10.00">+ ni</text>
<text text-anchor="start" x="167" y="-169.5" font-family="Courier New" font-size="10.00">+ nT</text>
<text text-anchor="start" x="167" y="-158.5" font-family="Courier New" font-size="10.00">+ endTime</text>
<text text-anchor="start" x="167" y="-147.5" font-family="Courier New" font-size="10.00">+ vstart</text>
<text text-anchor="start" x="167" y="-136.5" font-family="Courier New" font-size="10.00">&#45; U</text>
<text text-anchor="start" x="167" y="-125.5" font-family="Courier New" font-size="10.00">&#45; i</text>
<text text-anchor="start" x="167" y="-114.5" font-family="Courier New" font-size="10.00">&#45; mi</text>
<text text-anchor="start" x="167" y="-103.5" font-family="Courier New" font-size="10.00">&#45; hi</text>
<polyline fill="none" stroke="black" points="159,-96.5 374,-96.5 "/>
<text text-anchor="start" x="167" y="-84.5" font-family="Courier New" font-size="10.00">+ initialConditions()</text>
<text text-anchor="start" x="167" y="-73.5" font-family="Courier New" font-size="10.00">+ boundaryConditions()</text>
<text text-anchor="start" x="167" y="-62.5" font-family="Courier New" font-size="10.00">+ setBC()</text>
<text text-anchor="start" x="167" y="-51.5" font-family="Courier New" font-size="10.00">+ updateBC()</text>
<text text-anchor="start" x="167" y="-40.5" font-family="Courier New" font-size="10.00"># SetNeuronCell()</text>
<text text-anchor="start" x="167" y="-29.5" font-family="Courier New" font-size="10.00"># Get1DValues()</text>
<text text-anchor="start" x="167" y="-18.5" font-family="Courier New" font-size="10.00"># Set1DValues()</text>
<text text-anchor="start" x="167" y="-7.5" font-family="Courier New" font-size="10.00"># Solve()</text>
</a>
</g>
</g>
<!-- Node2 -->
<g id="node2" class="node"><title>Node2</title>
<g id="a_node2"><a xlink:href="../../d1/de3/class_c2_m2_1_1_neuronal_dynamics_1_1_simulation_1_1_neuron_simulation.html" target="_top" xlink:title="Provides base functionality for Neuron simulations">
<polygon fill="white" stroke="black" points="158,-386 158,-531 277,-531 277,-386 158,-386"/>
<text text-anchor="middle" x="217.5" y="-519" font-family="Courier New" font-size="10.00">NeuronSimulation</text>
<polyline fill="none" stroke="black" points="158,-512 277,-512 "/>
<text text-anchor="start" x="166" y="-500" font-family="Courier New" font-size="10.00">+ visualize1D</text>
<text text-anchor="start" x="166" y="-489" font-family="Courier New" font-size="10.00">+ color1D</text>
<text text-anchor="start" x="166" y="-478" font-family="Courier New" font-size="10.00">+ lineWidth1D</text>
<text text-anchor="start" x="166" y="-467" font-family="Courier New" font-size="10.00">&#45; map</text>
<polyline fill="none" stroke="black" points="158,-460 277,-460 "/>
<text text-anchor="start" x="166" y="-448" font-family="Courier New" font-size="10.00">+ GetValues()</text>
<text text-anchor="start" x="166" y="-437" font-family="Courier New" font-size="10.00">+ SetValues()</text>
<text text-anchor="start" x="166" y="-426" font-family="Courier New" font-size="10.00"># Set1DValues()</text>
<text text-anchor="start" x="166" y="-415" font-family="Courier New" font-size="10.00"># Get1DValues()</text>
<text text-anchor="start" x="166" y="-404" font-family="Courier New" font-size="10.00"># SetNeuronCell()</text>
<text text-anchor="start" x="166" y="-393" font-family="Courier New" font-size="10.00"># BuildMesh()</text>
</a>
</g>
</g>
<!-- Node2&#45;&gt;Node1 -->
<g id="edge1" class="edge"><title>Node2&#45;&gt;Node1</title>
<path fill="none" stroke="midnightblue" d="M230.815,-375.708C234.113,-355.449 237.755,-333.076 241.415,-310.595"/>
<polygon fill="none" stroke="midnightblue" points="227.327,-375.353 229.174,-385.785 234.236,-376.478 227.327,-375.353"/>
</g>
<!-- Node3 -->
<g id="node3" class="node"><title>Node3</title>
<g id="a_node3"><a xlink:href="../../d4/de1/class_c2_m2_1_1_simulation_1_1_surface_simulation.html" target="_top" xlink:title="Simulation of type double[] for visualizing scalar fields on mesh surfaces">
<polygon fill="white" stroke="black" points="16,-672.5 16,-817.5 171,-817.5 171,-672.5 16,-672.5"/>
<text text-anchor="middle" x="93.5" y="-805.5" font-family="Courier New" font-size="10.00">SurfaceSimulation</text>
<polyline fill="none" stroke="black" points="16,-798.5 171,-798.5 "/>
<text text-anchor="start" x="24" y="-786.5" font-family="Courier New" font-size="10.00">+ gradient</text>
<text text-anchor="start" x="24" y="-775.5" font-family="Courier New" font-size="10.00">+ globalMax</text>
<text text-anchor="start" x="24" y="-764.5" font-family="Courier New" font-size="10.00">+ globalMin</text>
<text text-anchor="start" x="24" y="-753.5" font-family="Courier New" font-size="10.00">+ colorLUT</text>
<text text-anchor="start" x="24" y="-742.5" font-family="Courier New" font-size="10.00">&#45; mf</text>
<text text-anchor="start" x="24" y="-731.5" font-family="Courier New" font-size="10.00">&#45; mr</text>
<polyline fill="none" stroke="black" points="16,-724.5 171,-724.5 "/>
<text text-anchor="start" x="24" y="-712.5" font-family="Courier New" font-size="10.00"># BuildMesh()</text>
<text text-anchor="start" x="24" y="-701.5" font-family="Courier New" font-size="10.00"># UpdateVisualization()</text>
<text text-anchor="start" x="24" y="-690.5" font-family="Courier New" font-size="10.00"># OnAwake()</text>
<text text-anchor="start" x="24" y="-679.5" font-family="Courier New" font-size="10.00">&#45; UpdateVisualization()</text>
</a>
</g>
</g>
<!-- Node3&#45;&gt;Node2 -->
<g id="edge2" class="edge"><title>Node3&#45;&gt;Node2</title>
<path fill="none" stroke="midnightblue" d="M128.827,-662.948C146.915,-621.447 168.745,-571.36 186.22,-531.268"/>
<polygon fill="none" stroke="midnightblue" points="125.578,-661.643 124.79,-672.209 131.994,-664.44 125.578,-661.643"/>
</g>
<!-- Node4 -->
<g id="node4" class="node"><title>Node4</title>
<g id="a_node4"><a xlink:href="../../db/d39/class_c2_m2_1_1_simulation_1_1_simulation.html" target="_top" xlink:title=" ">
<polygon fill="white" stroke="black" points="0,-865.5 0,-1076.5 155,-1076.5 155,-865.5 0,-865.5"/>
<text text-anchor="middle" x="77.5" y="-1064.5" font-family="Courier New" font-size="10.00">Simulation&lt; double[]&gt;</text>
<polyline fill="none" stroke="black" points="0,-1057.5 155,-1057.5 "/>
<text text-anchor="start" x="8" y="-1045.5" font-family="Courier New" font-size="10.00">+ startOnAwake</text>
<text text-anchor="start" x="8" y="-1034.5" font-family="Courier New" font-size="10.00"># mutex</text>
<text text-anchor="start" x="8" y="-1023.5" font-family="Courier New" font-size="10.00">&#45; solveThread</text>
<polyline fill="none" stroke="black" points="0,-1016.5 155,-1016.5 "/>
<text text-anchor="start" x="8" y="-1004.5" font-family="Courier New" font-size="10.00">+ GetValues()</text>
<text text-anchor="start" x="8" y="-993.5" font-family="Courier New" font-size="10.00">+ Awake()</text>
<text text-anchor="start" x="8" y="-982.5" font-family="Courier New" font-size="10.00">+ Start()</text>
<text text-anchor="start" x="8" y="-971.5" font-family="Courier New" font-size="10.00">+ Update()</text>
<text text-anchor="start" x="8" y="-960.5" font-family="Courier New" font-size="10.00">+ StartSimulation()</text>
<text text-anchor="start" x="8" y="-949.5" font-family="Courier New" font-size="10.00">+ StopSimulation()</text>
<text text-anchor="start" x="8" y="-938.5" font-family="Courier New" font-size="10.00"># UpdateVisualization()</text>
<text text-anchor="start" x="8" y="-927.5" font-family="Courier New" font-size="10.00"># OnAwake()</text>
<text text-anchor="start" x="8" y="-916.5" font-family="Courier New" font-size="10.00"># OnStart()</text>
<text text-anchor="start" x="8" y="-905.5" font-family="Courier New" font-size="10.00"># OnUpdate()</text>
<text text-anchor="start" x="8" y="-894.5" font-family="Courier New" font-size="10.00"># Solve()</text>
<text text-anchor="start" x="8" y="-883.5" font-family="Courier New" font-size="10.00">&#45; OnApplicationPause()</text>
<text text-anchor="start" x="8" y="-872.5" font-family="Courier New" font-size="10.00">&#45; OnApplicationQuit()</text>
</a>
</g>
</g>
<!-- Node4&#45;&gt;Node3 -->
<g id="edge3" class="edge"><title>Node4&#45;&gt;Node3</title>
<path fill="none" stroke="midnightblue" d="M85.7114,-855.041C86.6177,-842.353 87.5203,-829.716 88.3728,-817.781"/>
<polygon fill="none" stroke="midnightblue" points="82.2061,-854.99 84.9847,-865.214 89.1884,-855.489 82.2061,-854.99"/>
</g>
<!-- Node5 -->
<g id="node5" class="node"><title>Node5</title>
<g id="a_node5"><a xlink:href="../../da/d4f/class_c2_m2_1_1_visualization_1_1_l_u_t_gradient.html" target="_top" xlink:title="Create a fast and memory&#45;friendly color lookup table from a gradient">
<polygon fill="white" stroke="black" points="173,-887.5 173,-1054.5 370,-1054.5 370,-887.5 173,-887.5"/>
<text text-anchor="middle" x="271.5" y="-1042.5" font-family="Courier New" font-size="10.00">C2M2.Visualization.LUTGradient</text>
<polyline fill="none" stroke="black" points="173,-1035.5 370,-1035.5 "/>
<text text-anchor="start" x="181" y="-1023.5" font-family="Courier New" font-size="10.00">+ extremaMethod</text>
<text text-anchor="start" x="181" y="-1012.5" font-family="Courier New" font-size="10.00">+ globalMax</text>
<text text-anchor="start" x="181" y="-1001.5" font-family="Courier New" font-size="10.00">+ globalMin</text>
<text text-anchor="start" x="181" y="-990.5" font-family="Courier New" font-size="10.00">+ LutRes</text>
<text text-anchor="start" x="181" y="-979.5" font-family="Courier New" font-size="10.00">+ Gradient</text>
<text text-anchor="start" x="181" y="-968.5" font-family="Courier New" font-size="10.00">+ gradientLUT</text>
<text text-anchor="start" x="181" y="-957.5" font-family="Courier New" font-size="10.00">&#45; lutRes</text>
<text text-anchor="start" x="181" y="-946.5" font-family="Courier New" font-size="10.00">&#45; gradient</text>
<polyline fill="none" stroke="black" points="173,-939.5 370,-939.5 "/>
<text text-anchor="start" x="181" y="-927.5" font-family="Courier New" font-size="10.00">+ Evaluate()</text>
<text text-anchor="start" x="181" y="-916.5" font-family="Courier New" font-size="10.00">+ Evaluate()</text>
<text text-anchor="start" x="181" y="-905.5" font-family="Courier New" font-size="10.00">&#45; BuildLUT()</text>
<text text-anchor="start" x="181" y="-894.5" font-family="Courier New" font-size="10.00">&#45; RescaleArray()</text>
</a>
</g>
</g>
<!-- Node5&#45;&gt;Node3 -->
<g id="edge4" class="edge"><title>Node5&#45;&gt;Node3</title>
<path fill="none" stroke="#404040" d="M205.725,-887.227C190.15,-867.627 173.555,-846.744 158.036,-827.214"/>
<polygon fill="none" stroke="#404040" points="157.979,-827.142 151.115,-824.933 150.514,-817.747 157.378,-819.956 157.979,-827.142"/>
<text text-anchor="middle" x="218" y="-839" font-family="Courier New" font-size="10.00"> +extremaMethod</text>
</g>
<!-- Node6 -->
<g id="node6" class="node"><title>Node6</title>
<g id="a_node6"><a xlink:title=" ">
<polygon fill="white" stroke="#bfbfbf" points="224,-1114.5 224,-1171.5 319,-1171.5 319,-1114.5 224,-1114.5"/>
<text text-anchor="middle" x="271.5" y="-1159.5" font-family="Courier New" font-size="10.00">MonoBehaviour</text>
<polyline fill="none" stroke="#bfbfbf" points="224,-1152.5 319,-1152.5 "/>
<text text-anchor="middle" x="271.5" y="-1140.5" font-family="Courier New" font-size="10.00"> </text>
<polyline fill="none" stroke="#bfbfbf" points="224,-1133.5 319,-1133.5 "/>
<text text-anchor="middle" x="271.5" y="-1121.5" font-family="Courier New" font-size="10.00"> </text>
</a>
</g>
</g>
<!-- Node6&#45;&gt;Node5 -->
<g id="edge5" class="edge"><title>Node6&#45;&gt;Node5</title>
<path fill="none" stroke="midnightblue" d="M271.5,-1104.15C271.5,-1089.48 271.5,-1072.06 271.5,-1054.77"/>
<polygon fill="none" stroke="midnightblue" points="268,-1104.31 271.5,-1114.31 275,-1104.31 268,-1104.31"/>
</g>
<!-- Node7 -->
<g id="node7" class="node"><title>Node7</title>
<g id="a_node7"><a xlink:title=" ">
<polygon fill="white" stroke="#bfbfbf" points="189,-716.5 189,-773.5 230,-773.5 230,-716.5 189,-716.5"/>
<text text-anchor="middle" x="209.5" y="-761.5" font-family="Courier New" font-size="10.00">C2M2</text>
<polyline fill="none" stroke="#bfbfbf" points="189,-754.5 230,-754.5 "/>
<text text-anchor="middle" x="209.5" y="-742.5" font-family="Courier New" font-size="10.00"> </text>
<polyline fill="none" stroke="#bfbfbf" points="189,-735.5 230,-735.5 "/>
<text text-anchor="middle" x="209.5" y="-723.5" font-family="Courier New" font-size="10.00"> </text>
</a>
</g>
</g>
<!-- Node7&#45;&gt;Node2 -->
<g id="edge6" class="edge"><title>Node7&#45;&gt;Node2</title>
<path fill="none" stroke="#404040" d="M209.212,-716.215C208.974,-683.066 208.896,-625.973 210.5,-577 210.856,-566.126 211.367,-554.692 211.953,-543.402"/>
<polygon fill="none" stroke="#404040" points="211.962,-543.224 208.294,-537.015 212.614,-531.241 216.282,-537.45 211.962,-543.224"/>
<text text-anchor="middle" x="235" y="-613" font-family="Courier New" font-size="10.00"> #grid1D</text>
</g>
<!-- Node8 -->
<g id="node8" class="node"><title>Node8</title>
<g id="a_node8"><a xlink:title=" ">
<polygon fill="white" stroke="#bfbfbf" points="318,-716.5 318,-773.5 371,-773.5 371,-716.5 318,-716.5"/>
<text text-anchor="middle" x="344.5" y="-761.5" font-family="Courier New" font-size="10.00">static</text>
<polyline fill="none" stroke="#bfbfbf" points="318,-754.5 371,-754.5 "/>
<text text-anchor="middle" x="344.5" y="-742.5" font-family="Courier New" font-size="10.00"> </text>
<polyline fill="none" stroke="#bfbfbf" points="318,-735.5 371,-735.5 "/>
<text text-anchor="middle" x="344.5" y="-723.5" font-family="Courier New" font-size="10.00"> </text>
</a>
</g>
</g>
<!-- Node8&#45;&gt;Node2 -->
<g id="edge7" class="edge"><title>Node8&#45;&gt;Node2</title>
<path fill="none" stroke="#404040" d="M319.703,-716.245C305.762,-699.319 289.086,-676.643 278.5,-654 263.571,-622.069 269.667,-610.75 259.5,-577 256.126,-565.799 252.306,-554.095 248.379,-542.599"/>
<polygon fill="none" stroke="#404040" points="248.358,-542.538 242.614,-538.178 244.429,-531.199 250.173,-535.559 248.358,-542.538"/>
<text text-anchor="middle" x="330" y="-646" font-family="Courier New" font-size="10.00"> &#45;specTris</text>
<text text-anchor="middle" x="330" y="-635" font-family="Courier New" font-size="10.00">&#45;activeCellFolder</text>
<text text-anchor="middle" x="330" y="-624" font-family="Courier New" font-size="10.00">&#45;neuronCellFolder</text>
<text text-anchor="middle" x="330" y="-613" font-family="Courier New" font-size="10.00">&#45;cngExt</text>
<text text-anchor="middle" x="330" y="-602" font-family="Courier New" font-size="10.00">&#45;specBlownup</text>
<text text-anchor="middle" x="330" y="-591" font-family="Courier New" font-size="10.00">&#45;spec1D</text>
<text text-anchor="middle" x="330" y="-580" font-family="Courier New" font-size="10.00">&#45;ugxExt</text>
</g>
<!-- Node9 -->
<g id="node9" class="node"><title>Node9</title>
<g id="a_node9"><a xlink:href="../../da/df6/class_c2_m2_1_1_neuronal_dynamics_1_1_u_g_x_1_1_neuron_cell.html" target="_top" xlink:title=" ">
<polygon fill="white" stroke="black" points="312,-358.5 312,-558.5 485,-558.5 485,-358.5 312,-358.5"/>
<text text-anchor="start" x="320" y="-546.5" font-family="Courier New" font-size="10.00">C2M2.NeuronalDynamics.UGX.</text>
<text text-anchor="middle" x="398.5" y="-535.5" font-family="Courier New" font-size="10.00">NeuronCell</text>
<polyline fill="none" stroke="black" points="312,-528.5 485,-528.5 "/>
<text text-anchor="start" x="320" y="-516.5" font-family="Courier New" font-size="10.00">+ nodeData</text>
<text text-anchor="start" x="320" y="-505.5" font-family="Courier New" font-size="10.00">+ edges</text>
<text text-anchor="start" x="320" y="-494.5" font-family="Courier New" font-size="10.00">+ edgeLengths</text>
<text text-anchor="start" x="320" y="-483.5" font-family="Courier New" font-size="10.00">+ boundaryID</text>
<text text-anchor="start" x="320" y="-472.5" font-family="Courier New" font-size="10.00">+ somaID</text>
<text text-anchor="start" x="320" y="-461.5" font-family="Courier New" font-size="10.00">+ vertCount</text>
<text text-anchor="start" x="320" y="-450.5" font-family="Courier New" font-size="10.00">+ edgeCount</text>
<polyline fill="none" stroke="black" points="312,-443.5 485,-443.5 "/>
<text text-anchor="start" x="320" y="-431.5" font-family="Courier New" font-size="10.00">+ NeuronCell()</text>
<text text-anchor="start" x="320" y="-420.5" font-family="Courier New" font-size="10.00">+ ReadDataTable()</text>
<text text-anchor="start" x="320" y="-409.5" font-family="Courier New" font-size="10.00">+ NodeToString()</text>
<text text-anchor="start" x="320" y="-398.5" font-family="Courier New" font-size="10.00">+ EdgeToString()</text>
<text text-anchor="start" x="320" y="-387.5" font-family="Courier New" font-size="10.00">+ ToString()</text>
<text text-anchor="start" x="320" y="-376.5" font-family="Courier New" font-size="10.00">&#45; NodeNeighborsToString()</text>
<text text-anchor="start" x="320" y="-365.5" font-family="Courier New" font-size="10.00">&#45; GetEdgeLength()</text>
</a>
</g>
</g>
<!-- Node8&#45;&gt;Node9 -->
<g id="edge9" class="edge"><title>Node8&#45;&gt;Node9</title>
<path fill="none" stroke="#404040" d="M360.344,-716.181C369.391,-698.865 379.998,-675.809 385.5,-654 392.206,-627.416 395.97,-598.18 397.981,-570.632"/>
<polygon fill="none" stroke="#404040" points="397.99,-570.502 394.385,-564.257 398.763,-558.527 402.368,-564.772 397.99,-570.502"/>
<text text-anchor="middle" x="452" y="-624" font-family="Courier New" font-size="10.00"> &#45;nodeFormatString</text>
<text text-anchor="middle" x="452" y="-613" font-family="Courier New" font-size="10.00">&#45;edgeFormatString</text>
<text text-anchor="middle" x="452" y="-602" font-family="Courier New" font-size="10.00">&#45;cellFormatString</text>
</g>
<!-- Node9&#45;&gt;Node1 -->
<g id="edge8" class="edge"><title>Node9&#45;&gt;Node1</title>
<path fill="none" stroke="#404040" d="M354.912,-358.107C349.795,-346.439 344.474,-334.305 339.094,-322.037"/>
<polygon fill="none" stroke="#404040" points="338.961,-321.732 332.888,-317.844 334.141,-310.742 340.214,-314.631 338.961,-321.732"/>
<text text-anchor="middle" x="369" y="-332" font-family="Courier New" font-size="10.00"> &#45;myCell</text>
</g>
</g>
</svg>
        <g id="navigator" transform="translate(0 0)" fill="#404254">
                <rect fill="#f2f5e9" fill-opacity="0.5" stroke="#606060" stroke-width=".5" x="0" y="0" width="60" height="60"/>
                <use id="zoomplus" xlink:href="#zoomPlus" x="17" y="9" onmousedown="handleZoom(evt,'in')"/>
                <use id="zoomminus" xlink:href="#zoomMin" x="42" y="9" onmousedown="handleZoom(evt,'out')"/>
                <use id="reset" xlink:href="#resetDef" x="30" y="36" onmousedown="handleReset()"/>
                <g id="arrowUp" xlink:href="#dirArrow" transform="translate(30 24)" onmousedown="handlePan(0,-1)">
                  <use xlink:href="#rim" fill="#404040">
                        <set attributeName="fill" to="#808080" begin="arrowUp.mouseover" end="arrowUp.mouseout"/>
                  </use>
                  <path fill="none" stroke="white" stroke-width="1.5" d="M0,-3.0v7 M-2.5,-0.5L0,-3.0L2.5,-0.5"/>
                </g>
                <g id="arrowRight" xlink:href="#dirArrow" transform="rotate(90) translate(36 -43)" onmousedown="handlePan(1,0)">
                  <use xlink:href="#rim" fill="#404040">
                        <set attributeName="fill" to="#808080" begin="arrowRight.mouseover" end="arrowRight.mouseout"/>
                  </use>
                  <path fill="none" stroke="white" stroke-width="1.5" d="M0,-3.0v7 M-2.5,-0.5L0,-3.0L2.5,-0.5"/>
                </g>
                <g id="arrowDown" xlink:href="#dirArrow" transform="rotate(180) translate(-30 -48)" onmousedown="handlePan(0,1)">
                  <use xlink:href="#rim" fill="#404040">
                        <set attributeName="fill" to="#808080" begin="arrowDown.mouseover" end="arrowDown.mouseout"/>
                  </use>
                  <path fill="none" stroke="white" stroke-width="1.5" d="M0,-3.0v7 M-2.5,-0.5L0,-3.0L2.5,-0.5"/>
                </g>
                <g id="arrowLeft" xlink:href="#dirArrow" transform="rotate(270) translate(-36 17)" onmousedown="handlePan(-1,0)">
                  <use xlink:href="#rim" fill="#404040">
                        <set attributeName="fill" to="#808080" begin="arrowLeft.mouseover" end="arrowLeft.mouseout"/>
                  </use>
                  <path fill="none" stroke="white" stroke-width="1.5" d="M0,-3.0v7 M-2.5,-0.5L0,-3.0L2.5,-0.5"/>
                </g>
        </g>
        <svg viewBox="0 0 15 15" width="100%" height="30px" preserveAspectRatio="xMaxYMin meet">
         <g id="arrow_out" transform="scale(0.3 0.3)">
          <a xlink:href="class_c2_m2_1_1_neuronal_dynamics_1_1_simulation_1_1_cell_solver2_simple_diffusion__coll__graph_org.svg" target="_base">
           <rect id="button" ry="5" rx="5" y="6" x="6" height="38" width="38"
                fill="#f2f5e9" fill-opacity="0.5" stroke="#606060" stroke-width="1.0"/>
           <path id="arrow"
             d="M 11.500037,31.436501 C 11.940474,20.09759 22.043105,11.32322 32.158766,21.979434 L 37.068811,17.246167 C 37.068811,17.246167 37.088388,32 37.088388,32 L 22.160133,31.978069 C 22.160133,31.978069 26.997745,27.140456 26.997745,27.140456 C 18.528582,18.264221 13.291696,25.230495 11.500037,31.436501 z"
             style="fill:#404040;"/>
          </a>
         </g>
        </svg>
</svg>
