<?xml version="1.0" encoding="UTF-8" standalone="no"?>
<!DOCTYPE svg PUBLIC "-//W3C//DTD SVG 1.1//EN"
 "http://www.w3.org/Graphics/SVG/1.1/DTD/svg11.dtd">
<!-- Generated by graphviz version 2.38.0 (20140413.2041)
 -->
<!-- Title: C2M2.NeuronalDynamics.Simulation.NDSimulationEditor Pages: 1 -->
<svg width="223pt" height="204pt"
 viewBox="0.00 0.00 223.00 204.00" xmlns="http://www.w3.org/2000/svg" xmlns:xlink="http://www.w3.org/1999/xlink">
<g id="graph0" class="graph" transform="scale(1 1) rotate(0) translate(4 200)">
<title>C2M2.NeuronalDynamics.Simulation.NDSimulationEditor</title>
<polygon fill="white" stroke="none" points="-4,4 -4,-200 219,-200 219,4 -4,4"/>
<!-- Node1 -->
<g id="node1" class="node"><title>Node1</title>
<g id="a_node1"><a xlink:title=" ">
<polygon fill="#bfbfbf" stroke="black" points="0,-0.5 0,-101.5 215,-101.5 215,-0.5 0,-0.5"/>
<text text-anchor="start" x="8" y="-89.5" font-family="Courier New" font-size="10.00">C2M2.NeuronalDynamics.Simulation.</text>
<text text-anchor="middle" x="107.5" y="-78.5" font-family="Courier New" font-size="10.00">NDSimulationEditor</text>
<polyline fill="none" stroke="black" points="0,-71.5 215,-71.5 "/>
<text text-anchor="start" x="8" y="-59.5" font-family="Courier New" font-size="10.00">&#45; sim</text>
<text text-anchor="start" x="8" y="-48.5" font-family="Courier New" font-size="10.00">&#45; refinementLevel</text>
<text text-anchor="start" x="8" y="-37.5" font-family="Courier New" font-size="10.00">&#45; inflationLevel</text>
<polyline fill="none" stroke="black" points="0,-30.5 215,-30.5 "/>
<text text-anchor="start" x="8" y="-18.5" font-family="Courier New" font-size="10.00">+ Awake()</text>
<text text-anchor="start" x="8" y="-7.5" font-family="Courier New" font-size="10.00">+ OnInspectorGUI()</text>
</a>
</g>
</g>
<!-- Node2 -->
<g id="node2" class="node"><title>Node2</title>
<g id="a_node2"><a xlink:title=" ">
<polygon fill="white" stroke="#bfbfbf" points="81,-138.5 81,-195.5 134,-195.5 134,-138.5 81,-138.5"/>
<text text-anchor="middle" x="107.5" y="-183.5" font-family="Courier New" font-size="10.00">Editor</text>
<polyline fill="none" stroke="#bfbfbf" points="81,-176.5 134,-176.5 "/>
<text text-anchor="middle" x="107.5" y="-164.5" font-family="Courier New" font-size="10.00"> </text>
<polyline fill="none" stroke="#bfbfbf" points="81,-157.5 134,-157.5 "/>
<text text-anchor="middle" x="107.5" y="-145.5" font-family="Courier New" font-size="10.00"> </text>
</a>
</g>
</g>
<!-- Node2&#45;&gt;Node1 -->
<g id="edge1" class="edge"><title>Node2&#45;&gt;Node1</title>
<path fill="none" stroke="midnightblue" d="M107.5,-128.354C107.5,-119.796 107.5,-110.578 107.5,-101.608"/>
<polygon fill="none" stroke="midnightblue" points="104,-128.404 107.5,-138.404 111,-128.404 104,-128.404"/>
</g>
</g>
</svg>
