<?xml version="1.0" encoding="UTF-8" standalone="no"?>
<!DOCTYPE svg PUBLIC "-//W3C//DTD SVG 1.1//EN"
 "http://www.w3.org/Graphics/SVG/1.1/DTD/svg11.dtd">
<!-- Generated by graphviz version 2.38.0 (20140413.2041)
 -->
<!-- Title: C2M2.NeuronalDynamics.Simulation.CellSolver2DiffusionReaction Pages: 1 -->
<svg width="446pt" height="1301pt"
 viewBox="0.00 0.00 445.50 1301.00" xmlns="http://www.w3.org/2000/svg" xmlns:xlink="http://www.w3.org/1999/xlink">
<g id="graph0" class="graph" transform="scale(1 1) rotate(0) translate(4 1297)">
<title>C2M2.NeuronalDynamics.Simulation.CellSolver2DiffusionReaction</title>
<polygon fill="white" stroke="none" points="-4,4 -4,-1297 441.5,-1297 441.5,4 -4,4"/>
<!-- Node1 -->
<g id="node1" class="node"><title>Node1</title>
<g id="a_node1"><a xlink:title=" ">
<polygon fill="#bfbfbf" stroke="black" points="154,-0.5 154,-453.5 369,-453.5 369,-0.5 154,-0.5"/>
<text text-anchor="start" x="162" y="-441.5" font-family="Courier New" font-size="10.00">C2M2.NeuronalDynamics.Simulation.</text>
<text text-anchor="middle" x="261.5" y="-430.5" font-family="Courier New" font-size="10.00">CellSolver2DiffusionReaction</text>
<polyline fill="none" stroke="black" points="154,-423.5 369,-423.5 "/>
<text text-anchor="start" x="162" y="-411.5" font-family="Courier New" font-size="10.00">+ res</text>
<text text-anchor="start" x="162" y="-400.5" font-family="Courier New" font-size="10.00">+ gk</text>
<text text-anchor="start" x="162" y="-389.5" font-family="Courier New" font-size="10.00">+ gna</text>
<text text-anchor="start" x="162" y="-378.5" font-family="Courier New" font-size="10.00">+ gl</text>
<text text-anchor="start" x="162" y="-367.5" font-family="Courier New" font-size="10.00">+ ek</text>
<text text-anchor="start" x="162" y="-356.5" font-family="Courier New" font-size="10.00">+ ena</text>
<text text-anchor="start" x="162" y="-345.5" font-family="Courier New" font-size="10.00">+ el</text>
<text text-anchor="start" x="162" y="-334.5" font-family="Courier New" font-size="10.00">+ cap</text>
<text text-anchor="start" x="162" y="-323.5" font-family="Courier New" font-size="10.00">+ ni</text>
<text text-anchor="start" x="162" y="-312.5" font-family="Courier New" font-size="10.00">+ nT</text>
<text text-anchor="start" x="162" y="-301.5" font-family="Courier New" font-size="10.00">+ endTime</text>
<text text-anchor="start" x="162" y="-290.5" font-family="Courier New" font-size="10.00">+ vstart</text>
<text text-anchor="start" x="162" y="-279.5" font-family="Courier New" font-size="10.00">&#45; U</text>
<text text-anchor="start" x="162" y="-268.5" font-family="Courier New" font-size="10.00">&#45; M</text>
<text text-anchor="start" x="162" y="-257.5" font-family="Courier New" font-size="10.00">&#45; N</text>
<text text-anchor="start" x="162" y="-246.5" font-family="Courier New" font-size="10.00">&#45; H</text>
<text text-anchor="start" x="162" y="-235.5" font-family="Courier New" font-size="10.00">&#45; i</text>
<text text-anchor="start" x="162" y="-224.5" font-family="Courier New" font-size="10.00">&#45; mi</text>
<text text-anchor="start" x="162" y="-213.5" font-family="Courier New" font-size="10.00">&#45; hi</text>
<polyline fill="none" stroke="black" points="154,-206.5 369,-206.5 "/>
<text text-anchor="start" x="162" y="-194.5" font-family="Courier New" font-size="10.00">+ initialConditions()</text>
<text text-anchor="start" x="162" y="-183.5" font-family="Courier New" font-size="10.00">+ boundaryConditions()</text>
<text text-anchor="start" x="162" y="-172.5" font-family="Courier New" font-size="10.00">+ setBC()</text>
<text text-anchor="start" x="162" y="-161.5" font-family="Courier New" font-size="10.00">+ updateBC()</text>
<text text-anchor="start" x="162" y="-150.5" font-family="Courier New" font-size="10.00"># SetNeuronCell()</text>
<text text-anchor="start" x="162" y="-139.5" font-family="Courier New" font-size="10.00"># Get1DValues()</text>
<text text-anchor="start" x="162" y="-128.5" font-family="Courier New" font-size="10.00"># Set1DValues()</text>
<text text-anchor="start" x="162" y="-117.5" font-family="Courier New" font-size="10.00"># Solve()</text>
<text text-anchor="start" x="162" y="-106.5" font-family="Courier New" font-size="10.00">&#45; reactF()</text>
<text text-anchor="start" x="162" y="-95.5" font-family="Courier New" font-size="10.00">&#45; fN()</text>
<text text-anchor="start" x="162" y="-84.5" font-family="Courier New" font-size="10.00">&#45; fM()</text>
<text text-anchor="start" x="162" y="-73.5" font-family="Courier New" font-size="10.00">&#45; fH()</text>
<text text-anchor="start" x="162" y="-62.5" font-family="Courier New" font-size="10.00">&#45; an()</text>
<text text-anchor="start" x="162" y="-51.5" font-family="Courier New" font-size="10.00">&#45; bn()</text>
<text text-anchor="start" x="162" y="-40.5" font-family="Courier New" font-size="10.00">&#45; am()</text>
<text text-anchor="start" x="162" y="-29.5" font-family="Courier New" font-size="10.00">&#45; bm()</text>
<text text-anchor="start" x="162" y="-18.5" font-family="Courier New" font-size="10.00">&#45; ah()</text>
<text text-anchor="start" x="162" y="-7.5" font-family="Courier New" font-size="10.00">&#45; bh()</text>
</a>
</g>
</g>
<!-- Node2 -->
<g id="node2" class="node"><title>Node2</title>
<g id="a_node2"><a xlink:href="../../d4/d5a/class_c2_m2_1_1_neuronal_dynamics_1_1_simulation_1_1_neuron_simulation1_d.html" target="_top" xlink:title="Provide an interface for 1D neuron&#45;surface simulations to be visualized and interacted with">
<polygon fill="white" stroke="black" points="99,-501.5 99,-723.5 224,-723.5 224,-501.5 99,-501.5"/>
<text text-anchor="middle" x="161.5" y="-711.5" font-family="Courier New" font-size="10.00">NeuronSimulation1D</text>
<polyline fill="none" stroke="black" points="99,-704.5 224,-704.5 "/>
<text text-anchor="start" x="107" y="-692.5" font-family="Courier New" font-size="10.00">+ visualize1D</text>
<text text-anchor="start" x="107" y="-681.5" font-family="Courier New" font-size="10.00">+ color1D</text>
<text text-anchor="start" x="107" y="-670.5" font-family="Courier New" font-size="10.00">+ lineWidth1D</text>
<text text-anchor="start" x="107" y="-659.5" font-family="Courier New" font-size="10.00">&#45; map</text>
<text text-anchor="start" x="107" y="-648.5" font-family="Courier New" font-size="10.00">&#45; neuronCellFolder</text>
<text text-anchor="start" x="107" y="-637.5" font-family="Courier New" font-size="10.00">&#45; activeCellFolder</text>
<text text-anchor="start" x="107" y="-626.5" font-family="Courier New" font-size="10.00">&#45; ugxExt</text>
<text text-anchor="start" x="107" y="-615.5" font-family="Courier New" font-size="10.00">&#45; cngExt</text>
<text text-anchor="start" x="107" y="-604.5" font-family="Courier New" font-size="10.00">&#45; spec1D</text>
<text text-anchor="start" x="107" y="-593.5" font-family="Courier New" font-size="10.00">&#45; specTris</text>
<text text-anchor="start" x="107" y="-582.5" font-family="Courier New" font-size="10.00">&#45; specBlownup</text>
<polyline fill="none" stroke="black" points="99,-575.5 224,-575.5 "/>
<text text-anchor="start" x="107" y="-563.5" font-family="Courier New" font-size="10.00">+ GetValues()</text>
<text text-anchor="start" x="107" y="-552.5" font-family="Courier New" font-size="10.00">+ SetValues()</text>
<text text-anchor="start" x="107" y="-541.5" font-family="Courier New" font-size="10.00"># Set1DValues()</text>
<text text-anchor="start" x="107" y="-530.5" font-family="Courier New" font-size="10.00"># Get1DValues()</text>
<text text-anchor="start" x="107" y="-519.5" font-family="Courier New" font-size="10.00"># SetNeuronCell()</text>
<text text-anchor="start" x="107" y="-508.5" font-family="Courier New" font-size="10.00"># BuildMesh()</text>
</a>
</g>
</g>
<!-- Node2&#45;&gt;Node1 -->
<g id="edge1" class="edge"><title>Node2&#45;&gt;Node1</title>
<path fill="none" stroke="midnightblue" d="M192.752,-491.647C195.94,-479.425 199.246,-466.746 202.607,-453.855"/>
<polygon fill="none" stroke="midnightblue" points="189.359,-490.788 190.223,-501.347 196.133,-492.554 189.359,-490.788"/>
</g>
<!-- Node3 -->
<g id="node3" class="node"><title>Node3</title>
<g id="a_node3"><a xlink:href="../../d4/de1/class_c2_m2_1_1_simulation_1_1_surface_simulation.html" target="_top" xlink:title="Simulation of type double[] for visualizing scalar fields on mesh surfaces">
<polygon fill="white" stroke="black" points="16,-793.5 16,-938.5 171,-938.5 171,-793.5 16,-793.5"/>
<text text-anchor="middle" x="93.5" y="-926.5" font-family="Courier New" font-size="10.00">SurfaceSimulation</text>
<polyline fill="none" stroke="black" points="16,-919.5 171,-919.5 "/>
<text text-anchor="start" x="24" y="-907.5" font-family="Courier New" font-size="10.00">+ gradient</text>
<text text-anchor="start" x="24" y="-896.5" font-family="Courier New" font-size="10.00">+ globalMax</text>
<text text-anchor="start" x="24" y="-885.5" font-family="Courier New" font-size="10.00">+ globalMin</text>
<text text-anchor="start" x="24" y="-874.5" font-family="Courier New" font-size="10.00">+ colorLUT</text>
<text text-anchor="start" x="24" y="-863.5" font-family="Courier New" font-size="10.00">&#45; mf</text>
<text text-anchor="start" x="24" y="-852.5" font-family="Courier New" font-size="10.00">&#45; mr</text>
<polyline fill="none" stroke="black" points="16,-845.5 171,-845.5 "/>
<text text-anchor="start" x="24" y="-833.5" font-family="Courier New" font-size="10.00"># BuildMesh()</text>
<text text-anchor="start" x="24" y="-822.5" font-family="Courier New" font-size="10.00"># UpdateVisualization()</text>
<text text-anchor="start" x="24" y="-811.5" font-family="Courier New" font-size="10.00"># OnAwake()</text>
<text text-anchor="start" x="24" y="-800.5" font-family="Courier New" font-size="10.00">&#45; UpdateVisualization()</text>
</a>
</g>
</g>
<!-- Node3&#45;&gt;Node2 -->
<g id="edge2" class="edge"><title>Node3&#45;&gt;Node2</title>
<path fill="none" stroke="midnightblue" d="M115.544,-783.47C120.688,-764.446 126.25,-743.874 131.669,-723.832"/>
<polygon fill="none" stroke="midnightblue" points="112.127,-782.7 112.895,-793.267 118.884,-784.527 112.127,-782.7"/>
</g>
<!-- Node4 -->
<g id="node4" class="node"><title>Node4</title>
<g id="a_node4"><a xlink:href="../../db/d39/class_c2_m2_1_1_simulation_1_1_simulation.html" target="_top" xlink:title=" ">
<polygon fill="white" stroke="black" points="0,-986.5 0,-1197.5 155,-1197.5 155,-986.5 0,-986.5"/>
<text text-anchor="middle" x="77.5" y="-1185.5" font-family="Courier New" font-size="10.00">Simulation&lt; double[]&gt;</text>
<polyline fill="none" stroke="black" points="0,-1178.5 155,-1178.5 "/>
<text text-anchor="start" x="8" y="-1166.5" font-family="Courier New" font-size="10.00">+ startOnAwake</text>
<text text-anchor="start" x="8" y="-1155.5" font-family="Courier New" font-size="10.00"># mutex</text>
<text text-anchor="start" x="8" y="-1144.5" font-family="Courier New" font-size="10.00">&#45; solveThread</text>
<polyline fill="none" stroke="black" points="0,-1137.5 155,-1137.5 "/>
<text text-anchor="start" x="8" y="-1125.5" font-family="Courier New" font-size="10.00">+ GetValues()</text>
<text text-anchor="start" x="8" y="-1114.5" font-family="Courier New" font-size="10.00">+ StartSimulation()</text>
<text text-anchor="start" x="8" y="-1103.5" font-family="Courier New" font-size="10.00">+ StopSimulation()</text>
<text text-anchor="start" x="8" y="-1092.5" font-family="Courier New" font-size="10.00">+ Awake()</text>
<text text-anchor="start" x="8" y="-1081.5" font-family="Courier New" font-size="10.00">+ Start()</text>
<text text-anchor="start" x="8" y="-1070.5" font-family="Courier New" font-size="10.00">+ Update()</text>
<text text-anchor="start" x="8" y="-1059.5" font-family="Courier New" font-size="10.00"># UpdateVisualization()</text>
<text text-anchor="start" x="8" y="-1048.5" font-family="Courier New" font-size="10.00"># Solve()</text>
<text text-anchor="start" x="8" y="-1037.5" font-family="Courier New" font-size="10.00"># OnAwake()</text>
<text text-anchor="start" x="8" y="-1026.5" font-family="Courier New" font-size="10.00"># OnStart()</text>
<text text-anchor="start" x="8" y="-1015.5" font-family="Courier New" font-size="10.00"># OnUpdate()</text>
<text text-anchor="start" x="8" y="-1004.5" font-family="Courier New" font-size="10.00">&#45; OnApplicationPause()</text>
<text text-anchor="start" x="8" y="-993.5" font-family="Courier New" font-size="10.00">&#45; OnApplicationQuit()</text>
</a>
</g>
</g>
<!-- Node4&#45;&gt;Node3 -->
<g id="edge3" class="edge"><title>Node4&#45;&gt;Node3</title>
<path fill="none" stroke="midnightblue" d="M85.7114,-976.041C86.6177,-963.353 87.5203,-950.716 88.3728,-938.781"/>
<polygon fill="none" stroke="midnightblue" points="82.2061,-975.99 84.9847,-986.214 89.1884,-976.489 82.2061,-975.99"/>
</g>
<!-- Node5 -->
<g id="node5" class="node"><title>Node5</title>
<g id="a_node5"><a xlink:href="../../da/d4f/class_c2_m2_1_1_visualization_1_1_l_u_t_gradient.html" target="_top" xlink:title="Create a fast and memory&#45;friendly color lookup table from a gradient">
<polygon fill="white" stroke="black" points="173,-1008.5 173,-1175.5 370,-1175.5 370,-1008.5 173,-1008.5"/>
<text text-anchor="middle" x="271.5" y="-1163.5" font-family="Courier New" font-size="10.00">C2M2.Visualization.LUTGradient</text>
<polyline fill="none" stroke="black" points="173,-1156.5 370,-1156.5 "/>
<text text-anchor="start" x="181" y="-1144.5" font-family="Courier New" font-size="10.00">+ extremaMethod</text>
<text text-anchor="start" x="181" y="-1133.5" font-family="Courier New" font-size="10.00">+ globalMax</text>
<text text-anchor="start" x="181" y="-1122.5" font-family="Courier New" font-size="10.00">+ globalMin</text>
<text text-anchor="start" x="181" y="-1111.5" font-family="Courier New" font-size="10.00">+ LutRes</text>
<text text-anchor="start" x="181" y="-1100.5" font-family="Courier New" font-size="10.00">+ Gradient</text>
<text text-anchor="start" x="181" y="-1089.5" font-family="Courier New" font-size="10.00">+ gradientLUT</text>
<text text-anchor="start" x="181" y="-1078.5" font-family="Courier New" font-size="10.00">&#45; lutRes</text>
<text text-anchor="start" x="181" y="-1067.5" font-family="Courier New" font-size="10.00">&#45; gradient</text>
<polyline fill="none" stroke="black" points="173,-1060.5 370,-1060.5 "/>
<text text-anchor="start" x="181" y="-1048.5" font-family="Courier New" font-size="10.00">+ Evaluate()</text>
<text text-anchor="start" x="181" y="-1037.5" font-family="Courier New" font-size="10.00">+ Evaluate()</text>
<text text-anchor="start" x="181" y="-1026.5" font-family="Courier New" font-size="10.00">&#45; BuildLUT()</text>
<text text-anchor="start" x="181" y="-1015.5" font-family="Courier New" font-size="10.00">&#45; RescaleArray()</text>
</a>
</g>
</g>
<!-- Node5&#45;&gt;Node3 -->
<g id="edge4" class="edge"><title>Node5&#45;&gt;Node3</title>
<path fill="none" stroke="#404040" d="M205.725,-1008.23C190.15,-988.627 173.555,-967.744 158.036,-948.214"/>
<polygon fill="none" stroke="#404040" points="157.979,-948.142 151.115,-945.933 150.514,-938.747 157.378,-940.956 157.979,-948.142"/>
<text text-anchor="middle" x="218" y="-960" font-family="Courier New" font-size="10.00"> +extremaMethod</text>
</g>
<!-- Node6 -->
<g id="node6" class="node"><title>Node6</title>
<g id="a_node6"><a xlink:title=" ">
<polygon fill="white" stroke="#bfbfbf" points="224,-1235.5 224,-1292.5 319,-1292.5 319,-1235.5 224,-1235.5"/>
<text text-anchor="middle" x="271.5" y="-1280.5" font-family="Courier New" font-size="10.00">MonoBehaviour</text>
<polyline fill="none" stroke="#bfbfbf" points="224,-1273.5 319,-1273.5 "/>
<text text-anchor="middle" x="271.5" y="-1261.5" font-family="Courier New" font-size="10.00"> </text>
<polyline fill="none" stroke="#bfbfbf" points="224,-1254.5 319,-1254.5 "/>
<text text-anchor="middle" x="271.5" y="-1242.5" font-family="Courier New" font-size="10.00"> </text>
</a>
</g>
</g>
<!-- Node6&#45;&gt;Node5 -->
<g id="edge5" class="edge"><title>Node6&#45;&gt;Node5</title>
<path fill="none" stroke="midnightblue" d="M271.5,-1225.15C271.5,-1210.48 271.5,-1193.06 271.5,-1175.77"/>
<polygon fill="none" stroke="midnightblue" points="268,-1225.31 271.5,-1235.31 275,-1225.31 268,-1225.31"/>
</g>
<!-- Node7 -->
<g id="node7" class="node"><title>Node7</title>
<g id="a_node7"><a xlink:title=" ">
<polygon fill="white" stroke="#bfbfbf" points="189,-837.5 189,-894.5 230,-894.5 230,-837.5 189,-837.5"/>
<text text-anchor="middle" x="209.5" y="-882.5" font-family="Courier New" font-size="10.00">C2M2</text>
<polyline fill="none" stroke="#bfbfbf" points="189,-875.5 230,-875.5 "/>
<text text-anchor="middle" x="209.5" y="-863.5" font-family="Courier New" font-size="10.00"> </text>
<polyline fill="none" stroke="#bfbfbf" points="189,-856.5 230,-856.5 "/>
<text text-anchor="middle" x="209.5" y="-844.5" font-family="Courier New" font-size="10.00"> </text>
</a>
</g>
</g>
<!-- Node7&#45;&gt;Node2 -->
<g id="edge6" class="edge"><title>Node7&#45;&gt;Node2</title>
<path fill="none" stroke="#404040" d="M204.18,-837.124C199.402,-812.089 192.039,-773.51 184.766,-735.402"/>
<polygon fill="none" stroke="#404040" points="184.764,-735.393 179.71,-730.249 182.514,-723.606 187.568,-728.749 184.764,-735.393"/>
<text text-anchor="middle" x="216" y="-756" font-family="Courier New" font-size="10.00"> #grid1D</text>
</g>
<!-- Node8 -->
<g id="node8" class="node"><title>Node8</title>
<g id="a_node8"><a xlink:href="../../da/df6/class_c2_m2_1_1_neuronal_dynamics_1_1_u_g_x_1_1_neuron_cell.html" target="_top" xlink:title=" ">
<polygon fill="white" stroke="black" points="242,-512.5 242,-712.5 415,-712.5 415,-512.5 242,-512.5"/>
<text text-anchor="start" x="250" y="-700.5" font-family="Courier New" font-size="10.00">C2M2.NeuronalDynamics.UGX.</text>
<text text-anchor="middle" x="328.5" y="-689.5" font-family="Courier New" font-size="10.00">NeuronCell</text>
<polyline fill="none" stroke="black" points="242,-682.5 415,-682.5 "/>
<text text-anchor="start" x="250" y="-670.5" font-family="Courier New" font-size="10.00">+ nodeData</text>
<text text-anchor="start" x="250" y="-659.5" font-family="Courier New" font-size="10.00">+ edges</text>
<text text-anchor="start" x="250" y="-648.5" font-family="Courier New" font-size="10.00">+ edgeLengths</text>
<text text-anchor="start" x="250" y="-637.5" font-family="Courier New" font-size="10.00">+ boundaryID</text>
<text text-anchor="start" x="250" y="-626.5" font-family="Courier New" font-size="10.00">+ somaID</text>
<text text-anchor="start" x="250" y="-615.5" font-family="Courier New" font-size="10.00">+ vertCount</text>
<text text-anchor="start" x="250" y="-604.5" font-family="Courier New" font-size="10.00">+ edgeCount</text>
<polyline fill="none" stroke="black" points="242,-597.5 415,-597.5 "/>
<text text-anchor="start" x="250" y="-585.5" font-family="Courier New" font-size="10.00">+ NeuronCell()</text>
<text text-anchor="start" x="250" y="-574.5" font-family="Courier New" font-size="10.00">+ ReadDataTable()</text>
<text text-anchor="start" x="250" y="-563.5" font-family="Courier New" font-size="10.00">+ NodeToString()</text>
<text text-anchor="start" x="250" y="-552.5" font-family="Courier New" font-size="10.00">+ EdgeToString()</text>
<text text-anchor="start" x="250" y="-541.5" font-family="Courier New" font-size="10.00">+ ToString()</text>
<text text-anchor="start" x="250" y="-530.5" font-family="Courier New" font-size="10.00">&#45; NodeNeighborsToString()</text>
<text text-anchor="start" x="250" y="-519.5" font-family="Courier New" font-size="10.00">&#45; GetEdgeLength()</text>
</a>
</g>
</g>
<!-- Node8&#45;&gt;Node1 -->
<g id="edge7" class="edge"><title>Node8&#45;&gt;Node1</title>
<path fill="none" stroke="#404040" d="M311.159,-512.24C308.585,-497.507 305.843,-481.816 303.021,-465.663"/>
<polygon fill="none" stroke="#404040" points="303.019,-465.647 298.046,-460.425 300.953,-453.826 305.926,-459.048 303.019,-465.647"/>
<text text-anchor="middle" x="330" y="-475" font-family="Courier New" font-size="10.00"> &#45;myCell</text>
</g>
<!-- Node9 -->
<g id="node9" class="node"><title>Node9</title>
<g id="a_node9"><a xlink:title=" ">
<polygon fill="white" stroke="#bfbfbf" points="302,-837.5 302,-894.5 355,-894.5 355,-837.5 302,-837.5"/>
<text text-anchor="middle" x="328.5" y="-882.5" font-family="Courier New" font-size="10.00">static</text>
<polyline fill="none" stroke="#bfbfbf" points="302,-875.5 355,-875.5 "/>
<text text-anchor="middle" x="328.5" y="-863.5" font-family="Courier New" font-size="10.00"> </text>
<polyline fill="none" stroke="#bfbfbf" points="302,-856.5 355,-856.5 "/>
<text text-anchor="middle" x="328.5" y="-844.5" font-family="Courier New" font-size="10.00"> </text>
</a>
</g>
</g>
<!-- Node9&#45;&gt;Node8 -->
<g id="edge8" class="edge"><title>Node9&#45;&gt;Node8</title>
<path fill="none" stroke="#404040" d="M328.5,-837.124C328.5,-809.77 328.5,-766.244 328.5,-724.833"/>
<polygon fill="none" stroke="#404040" points="328.5,-724.648 324.5,-718.648 328.5,-712.648 332.5,-718.648 328.5,-724.648"/>
<text text-anchor="middle" x="383" y="-767" font-family="Courier New" font-size="10.00"> &#45;nodeFormatString</text>
<text text-anchor="middle" x="383" y="-756" font-family="Courier New" font-size="10.00">&#45;edgeFormatString</text>
<text text-anchor="middle" x="383" y="-745" font-family="Courier New" font-size="10.00">&#45;cellFormatString</text>
</g>
</g>
</svg>
