<?xml version="1.0" encoding="UTF-8" standalone="no"?>
<!DOCTYPE svg PUBLIC "-//W3C//DTD SVG 1.1//EN"
 "http://www.w3.org/Graphics/SVG/1.1/DTD/svg11.dtd">
<!-- Generated by graphviz version 2.38.0 (20140413.2041)
 -->
<!-- Title: C2M2.NeuronalDynamics.Simulation.CellSolver2DiffusionReaction Pages: 1 -->
<svg width="1491pt" height="1967pt"
 viewBox="0.00 0.00 1491.00 1967.00" xmlns="http://www.w3.org/2000/svg" xmlns:xlink="http://www.w3.org/1999/xlink">
<g id="graph0" class="graph" transform="scale(1 1) rotate(0) translate(4 1963)">
<title>C2M2.NeuronalDynamics.Simulation.CellSolver2DiffusionReaction</title>
<polygon fill="white" stroke="none" points="-4,4 -4,-1963 1487,-1963 1487,4 -4,4"/>
<!-- Node1 -->
<g id="node1" class="node"><title>Node1</title>
<g id="a_node1"><a xlink:title=" ">
<polygon fill="#bfbfbf" stroke="black" points="767,-0.5 767,-475.5 982,-475.5 982,-0.5 767,-0.5"/>
<text text-anchor="start" x="775" y="-463.5" font-family="Courier New" font-size="10.00">C2M2.NeuronalDynamics.Simulation.</text>
<text text-anchor="middle" x="874.5" y="-452.5" font-family="Courier New" font-size="10.00">CellSolver2DiffusionReaction</text>
<polyline fill="none" stroke="black" points="767,-445.5 982,-445.5 "/>
<text text-anchor="start" x="775" y="-433.5" font-family="Courier New" font-size="10.00">+ res</text>
<text text-anchor="start" x="775" y="-422.5" font-family="Courier New" font-size="10.00">+ gk</text>
<text text-anchor="start" x="775" y="-411.5" font-family="Courier New" font-size="10.00">+ gna</text>
<text text-anchor="start" x="775" y="-400.5" font-family="Courier New" font-size="10.00">+ gl</text>
<text text-anchor="start" x="775" y="-389.5" font-family="Courier New" font-size="10.00">+ ek</text>
<text text-anchor="start" x="775" y="-378.5" font-family="Courier New" font-size="10.00">+ ena</text>
<text text-anchor="start" x="775" y="-367.5" font-family="Courier New" font-size="10.00">+ el</text>
<text text-anchor="start" x="775" y="-356.5" font-family="Courier New" font-size="10.00">+ cap</text>
<text text-anchor="start" x="775" y="-345.5" font-family="Courier New" font-size="10.00">+ ni</text>
<text text-anchor="start" x="775" y="-334.5" font-family="Courier New" font-size="10.00">+ nT</text>
<text text-anchor="start" x="775" y="-323.5" font-family="Courier New" font-size="10.00">+ endTime</text>
<text text-anchor="start" x="775" y="-312.5" font-family="Courier New" font-size="10.00">+ vstart</text>
<text text-anchor="start" x="775" y="-301.5" font-family="Courier New" font-size="10.00">&#45; U</text>
<text text-anchor="start" x="775" y="-290.5" font-family="Courier New" font-size="10.00">&#45; M</text>
<text text-anchor="start" x="775" y="-279.5" font-family="Courier New" font-size="10.00">&#45; N</text>
<text text-anchor="start" x="775" y="-268.5" font-family="Courier New" font-size="10.00">&#45; H</text>
<text text-anchor="start" x="775" y="-257.5" font-family="Courier New" font-size="10.00">&#45; i</text>
<text text-anchor="start" x="775" y="-246.5" font-family="Courier New" font-size="10.00">&#45; k</text>
<text text-anchor="start" x="775" y="-235.5" font-family="Courier New" font-size="10.00">&#45; mi</text>
<text text-anchor="start" x="775" y="-224.5" font-family="Courier New" font-size="10.00">&#45; hi</text>
<polyline fill="none" stroke="black" points="767,-217.5 982,-217.5 "/>
<text text-anchor="start" x="775" y="-205.5" font-family="Courier New" font-size="10.00">+ GetSimulationTime()</text>
<text text-anchor="start" x="775" y="-194.5" font-family="Courier New" font-size="10.00">+ Get1DValues()</text>
<text text-anchor="start" x="775" y="-183.5" font-family="Courier New" font-size="10.00">+ Set1DValues()</text>
<text text-anchor="start" x="775" y="-172.5" font-family="Courier New" font-size="10.00">+ initialConditions()</text>
<text text-anchor="start" x="775" y="-161.5" font-family="Courier New" font-size="10.00">+ boundaryConditions()</text>
<text text-anchor="start" x="775" y="-150.5" font-family="Courier New" font-size="10.00">+ setBC()</text>
<text text-anchor="start" x="775" y="-139.5" font-family="Courier New" font-size="10.00">+ updateBC()</text>
<text text-anchor="start" x="775" y="-128.5" font-family="Courier New" font-size="10.00"># Solve()</text>
<text text-anchor="start" x="775" y="-117.5" font-family="Courier New" font-size="10.00">&#45; InitializeNeuronCell()</text>
<text text-anchor="start" x="775" y="-106.5" font-family="Courier New" font-size="10.00">&#45; reactF()</text>
<text text-anchor="start" x="775" y="-95.5" font-family="Courier New" font-size="10.00">&#45; fN()</text>
<text text-anchor="start" x="775" y="-84.5" font-family="Courier New" font-size="10.00">&#45; fM()</text>
<text text-anchor="start" x="775" y="-73.5" font-family="Courier New" font-size="10.00">&#45; fH()</text>
<text text-anchor="start" x="775" y="-62.5" font-family="Courier New" font-size="10.00">&#45; an()</text>
<text text-anchor="start" x="775" y="-51.5" font-family="Courier New" font-size="10.00">&#45; bn()</text>
<text text-anchor="start" x="775" y="-40.5" font-family="Courier New" font-size="10.00">&#45; am()</text>
<text text-anchor="start" x="775" y="-29.5" font-family="Courier New" font-size="10.00">&#45; bm()</text>
<text text-anchor="start" x="775" y="-18.5" font-family="Courier New" font-size="10.00">&#45; ah()</text>
<text text-anchor="start" x="775" y="-7.5" font-family="Courier New" font-size="10.00">&#45; bh()</text>
</a>
</g>
</g>
<!-- Node2 -->
<g id="node2" class="node"><title>Node2</title>
<g id="a_node2"><a xlink:href="../../d7/d92/class_c2_m2_1_1_neuronal_dynamics_1_1_simulation_1_1_n_d_simulation.html" target="_top" xlink:title="Provide an interface for 1D neuron&#45;surface simulations to be visualized and interacted with">
<polygon fill="white" stroke="black" points="761,-513.5 761,-988.5 988,-988.5 988,-513.5 761,-513.5"/>
<text text-anchor="middle" x="874.5" y="-976.5" font-family="Courier New" font-size="10.00">NDSimulation</text>
<polyline fill="none" stroke="black" points="761,-969.5 988,-969.5 "/>
<text text-anchor="start" x="769" y="-957.5" font-family="Courier New" font-size="10.00">+ visualize1D</text>
<text text-anchor="start" x="769" y="-946.5" font-family="Courier New" font-size="10.00">+ color1D</text>
<text text-anchor="start" x="769" y="-935.5" font-family="Courier New" font-size="10.00">+ lineWidth1D</text>
<text text-anchor="start" x="769" y="-924.5" font-family="Courier New" font-size="10.00">+ vrnFileName</text>
<text text-anchor="start" x="769" y="-913.5" font-family="Courier New" font-size="10.00">+ hitValue</text>
<text text-anchor="start" x="769" y="-902.5" font-family="Courier New" font-size="10.00">+ clamps</text>
<text text-anchor="start" x="769" y="-891.5" font-family="Courier New" font-size="10.00">+ VisualInflation</text>
<text text-anchor="start" x="769" y="-880.5" font-family="Courier New" font-size="10.00">+ ColliderInflation</text>
<text text-anchor="start" x="769" y="-869.5" font-family="Courier New" font-size="10.00">+ RefinementLevel</text>
<text text-anchor="start" x="769" y="-858.5" font-family="Courier New" font-size="10.00">+ ClampMode</text>
<text text-anchor="start" x="769" y="-847.5" font-family="Courier New" font-size="10.00">+ VrnReader</text>
<text text-anchor="start" x="769" y="-836.5" font-family="Courier New" font-size="10.00">+ Grid1D</text>
<text text-anchor="start" x="769" y="-825.5" font-family="Courier New" font-size="10.00">+ Verts1D</text>
<text text-anchor="start" x="769" y="-814.5" font-family="Courier New" font-size="10.00">+ Grid2D</text>
<text text-anchor="start" x="769" y="-803.5" font-family="Courier New" font-size="10.00">+ NeuronCell</text>
<text text-anchor="start" x="769" y="-792.5" font-family="Courier New" font-size="10.00">+ AverageDendriteRadius</text>
<text text-anchor="start" x="769" y="-781.5" font-family="Courier New" font-size="10.00">+ Map</text>
<text text-anchor="start" x="769" y="-770.5" font-family="Courier New" font-size="10.00">+ Mapping</text>
<text text-anchor="start" x="769" y="-759.5" font-family="Courier New" font-size="10.00">+ Scalars3D</text>
<text text-anchor="start" x="769" y="-748.5" font-family="Courier New" font-size="10.00">&#45; visualInflation</text>
<text text-anchor="start" x="769" y="-737.5" font-family="Courier New" font-size="10.00">&#45; colliderInflation</text>
<text text-anchor="start" x="769" y="-726.5" font-family="Courier New" font-size="10.00">&#45; refinementLevel</text>
<text text-anchor="start" x="769" y="-715.5" font-family="Courier New" font-size="10.00">&#45; meshCache</text>
<text text-anchor="start" x="769" y="-704.5" font-family="Courier New" font-size="10.00">&#45; clampMode</text>
<text text-anchor="start" x="769" y="-693.5" font-family="Courier New" font-size="10.00">&#45; averageDendriteRadius</text>
<text text-anchor="start" x="769" y="-682.5" font-family="Courier New" font-size="10.00">&#45; scalars3D</text>
<polyline fill="none" stroke="black" points="761,-675.5 988,-675.5 "/>
<text text-anchor="start" x="769" y="-663.5" font-family="Courier New" font-size="10.00">+ OnVisualInflationChangeDelegate()</text>
<text text-anchor="start" x="769" y="-652.5" font-family="Courier New" font-size="10.00">+ GetValues()</text>
<text text-anchor="start" x="769" y="-641.5" font-family="Courier New" font-size="10.00">+ SetValues()</text>
<text text-anchor="start" x="769" y="-630.5" font-family="Courier New" font-size="10.00">+ SetValues()</text>
<text text-anchor="start" x="769" y="-619.5" font-family="Courier New" font-size="10.00">+ Set1DValues()</text>
<text text-anchor="start" x="769" y="-608.5" font-family="Courier New" font-size="10.00">+ Get1DValues()</text>
<text text-anchor="start" x="769" y="-597.5" font-family="Courier New" font-size="10.00">+ SwitchColliderMesh()</text>
<text text-anchor="start" x="769" y="-586.5" font-family="Courier New" font-size="10.00">+ SwitchMesh()</text>
<text text-anchor="start" x="769" y="-575.5" font-family="Courier New" font-size="10.00"># OnAwakePre()</text>
<text text-anchor="start" x="769" y="-564.5" font-family="Courier New" font-size="10.00"># OnStart()</text>
<text text-anchor="start" x="769" y="-553.5" font-family="Courier New" font-size="10.00"># BuildVisualization()</text>
<text text-anchor="start" x="769" y="-542.5" font-family="Courier New" font-size="10.00">&#45; CheckMeshCache()</text>
<text text-anchor="start" x="769" y="-531.5" font-family="Courier New" font-size="10.00">&#45; UpdateGrid1D()</text>
<text text-anchor="start" x="769" y="-520.5" font-family="Courier New" font-size="10.00">&#45; Update2DGrid()</text>
</a>
</g>
</g>
<!-- Node2&#45;&gt;Node1 -->
<g id="edge1" class="edge"><title>Node2&#45;&gt;Node1</title>
<path fill="none" stroke="midnightblue" d="M874.5,-502.908C874.5,-493.786 874.5,-484.649 874.5,-475.545"/>
<polygon fill="none" stroke="midnightblue" points="871,-503.198 874.5,-513.199 878,-503.199 871,-503.198"/>
</g>
<!-- Node3 -->
<g id="node3" class="node"><title>Node3</title>
<g id="a_node3"><a xlink:href="../../d6/d2d/class_c2_m2_1_1_simulation_1_1_mesh_simulation.html" target="_top" xlink:title="Simulation of type double[] for visualizing scalar fields on mesh surfaces">
<polygon fill="white" stroke="black" points="224,-1075 224,-1253 379,-1253 379,-1075 224,-1075"/>
<text text-anchor="middle" x="301.5" y="-1241" font-family="Courier New" font-size="10.00">MeshSimulation</text>
<polyline fill="none" stroke="black" points="224,-1234 379,-1234 "/>
<text text-anchor="start" x="232" y="-1222" font-family="Courier New" font-size="10.00">+ gradient</text>
<text text-anchor="start" x="232" y="-1211" font-family="Courier New" font-size="10.00">+ globalMax</text>
<text text-anchor="start" x="232" y="-1200" font-family="Courier New" font-size="10.00">+ globalMin</text>
<text text-anchor="start" x="232" y="-1189" font-family="Courier New" font-size="10.00">+ colorLUT</text>
<text text-anchor="start" x="232" y="-1178" font-family="Courier New" font-size="10.00">+ VisualMesh</text>
<text text-anchor="start" x="232" y="-1167" font-family="Courier New" font-size="10.00">+ ColliderMesh</text>
<text text-anchor="start" x="232" y="-1156" font-family="Courier New" font-size="10.00">&#45; visualMesh</text>
<text text-anchor="start" x="232" y="-1145" font-family="Courier New" font-size="10.00">&#45; colliderMesh</text>
<text text-anchor="start" x="232" y="-1134" font-family="Courier New" font-size="10.00">&#45; mf</text>
<text text-anchor="start" x="232" y="-1123" font-family="Courier New" font-size="10.00">&#45; mr</text>
<polyline fill="none" stroke="black" points="224,-1116 379,-1116 "/>
<text text-anchor="start" x="232" y="-1104" font-family="Courier New" font-size="10.00"># UpdateVisualization()</text>
<text text-anchor="start" x="232" y="-1093" font-family="Courier New" font-size="10.00"># OnAwakePost()</text>
<text text-anchor="start" x="232" y="-1082" font-family="Courier New" font-size="10.00">&#45; UpdateVisualization()</text>
</a>
</g>
</g>
<!-- Node3&#45;&gt;Node2 -->
<g id="edge2" class="edge"><title>Node3&#45;&gt;Node2</title>
<path fill="none" stroke="midnightblue" d="M367.72,-1067.12C374.072,-1060.01 380.694,-1053.2 387.5,-1047 501.143,-943.497 656.412,-856.89 760.808,-804.842"/>
<polygon fill="none" stroke="midnightblue" points="364.843,-1065.09 360.937,-1074.94 370.132,-1069.68 364.843,-1065.09"/>
</g>
<!-- Node4 -->
<g id="node4" class="node"><title>Node4</title>
<g id="a_node4"><a xlink:href="../../db/d39/class_c2_m2_1_1_simulation_1_1_simulation.html" target="_top" xlink:title=" ">
<polygon fill="white" stroke="black" points="0,-1350.5 0,-1660.5 185,-1660.5 185,-1350.5 0,-1350.5"/>
<text text-anchor="start" x="8" y="-1648.5" font-family="Courier New" font-size="10.00">Simulation&lt; double</text>
<text text-anchor="start" x="8" y="-1637.5" font-family="Courier New" font-size="10.00">[], Mesh, VRRaycastableMesh,</text>
<text text-anchor="middle" x="92.5" y="-1626.5" font-family="Courier New" font-size="10.00"> VRGrabbableMesh &gt;</text>
<polyline fill="none" stroke="black" points="0,-1619.5 185,-1619.5 "/>
<text text-anchor="start" x="8" y="-1607.5" font-family="Courier New" font-size="10.00">+ dryRun</text>
<text text-anchor="start" x="8" y="-1596.5" font-family="Courier New" font-size="10.00">+ startOnAwake</text>
<text text-anchor="start" x="8" y="-1585.5" font-family="Courier New" font-size="10.00">+ viz</text>
<text text-anchor="start" x="8" y="-1574.5" font-family="Courier New" font-size="10.00"># mutex</text>
<text text-anchor="start" x="8" y="-1563.5" font-family="Courier New" font-size="10.00">&#45; solveThread</text>
<polyline fill="none" stroke="black" points="0,-1556.5 185,-1556.5 "/>
<text text-anchor="start" x="8" y="-1544.5" font-family="Courier New" font-size="10.00">+ GetValues()</text>
<text text-anchor="start" x="8" y="-1533.5" font-family="Courier New" font-size="10.00">+ Awake()</text>
<text text-anchor="start" x="8" y="-1522.5" font-family="Courier New" font-size="10.00">+ Start()</text>
<text text-anchor="start" x="8" y="-1511.5" font-family="Courier New" font-size="10.00">+ Update()</text>
<text text-anchor="start" x="8" y="-1500.5" font-family="Courier New" font-size="10.00">+ StartSimulation()</text>
<text text-anchor="start" x="8" y="-1489.5" font-family="Courier New" font-size="10.00">+ StopSimulation()</text>
<text text-anchor="start" x="8" y="-1478.5" font-family="Courier New" font-size="10.00"># BuildVisualization()</text>
<text text-anchor="start" x="8" y="-1467.5" font-family="Courier New" font-size="10.00"># UpdateVisualization()</text>
<text text-anchor="start" x="8" y="-1456.5" font-family="Courier New" font-size="10.00"># Solve()</text>
<text text-anchor="start" x="8" y="-1445.5" font-family="Courier New" font-size="10.00"># PreSolve()</text>
<text text-anchor="start" x="8" y="-1434.5" font-family="Courier New" font-size="10.00"># OnAwakePre()</text>
<text text-anchor="start" x="8" y="-1423.5" font-family="Courier New" font-size="10.00"># OnAwakePost()</text>
<text text-anchor="start" x="8" y="-1412.5" font-family="Courier New" font-size="10.00"># OnStart()</text>
<text text-anchor="start" x="8" y="-1401.5" font-family="Courier New" font-size="10.00"># OnUpdate()</text>
<text text-anchor="start" x="8" y="-1390.5" font-family="Courier New" font-size="10.00"># OnPause()</text>
<text text-anchor="start" x="8" y="-1379.5" font-family="Courier New" font-size="10.00"># OnQuit()</text>
<text text-anchor="start" x="8" y="-1368.5" font-family="Courier New" font-size="10.00">&#45; OnApplicationPause()</text>
<text text-anchor="start" x="8" y="-1357.5" font-family="Courier New" font-size="10.00">&#45; OnApplicationQuit()</text>
</a>
</g>
</g>
<!-- Node4&#45;&gt;Node3 -->
<g id="edge3" class="edge"><title>Node4&#45;&gt;Node3</title>
<path fill="none" stroke="midnightblue" d="M190.557,-1345.22C209.999,-1313.64 229.739,-1281.57 247.073,-1253.41"/>
<polygon fill="none" stroke="midnightblue" points="187.345,-1343.76 185.083,-1354.11 193.306,-1347.43 187.345,-1343.76"/>
</g>
<!-- Node5 -->
<g id="node5" class="node"><title>Node5</title>
<g id="a_node5"><a xlink:href="../../da/d4f/class_c2_m2_1_1_visualization_1_1_l_u_t_gradient.html" target="_top" xlink:title="Create a fast and memory&#45;friendly color lookup table from a gradient">
<polygon fill="white" stroke="black" points="203,-1389 203,-1622 400,-1622 400,-1389 203,-1389"/>
<text text-anchor="middle" x="301.5" y="-1610" font-family="Courier New" font-size="10.00">C2M2.Visualization.LUTGradient</text>
<polyline fill="none" stroke="black" points="203,-1603 400,-1603 "/>
<text text-anchor="start" x="211" y="-1591" font-family="Courier New" font-size="10.00">+ extremaMethod</text>
<text text-anchor="start" x="211" y="-1580" font-family="Courier New" font-size="10.00">+ globalMax</text>
<text text-anchor="start" x="211" y="-1569" font-family="Courier New" font-size="10.00">+ globalMin</text>
<text text-anchor="start" x="211" y="-1558" font-family="Courier New" font-size="10.00">+ curMax</text>
<text text-anchor="start" x="211" y="-1547" font-family="Courier New" font-size="10.00">+ curMix</text>
<text text-anchor="start" x="211" y="-1536" font-family="Courier New" font-size="10.00">+ LutRes</text>
<text text-anchor="start" x="211" y="-1525" font-family="Courier New" font-size="10.00">+ Gradient</text>
<text text-anchor="start" x="211" y="-1514" font-family="Courier New" font-size="10.00">+ gradientLUT</text>
<text text-anchor="start" x="211" y="-1503" font-family="Courier New" font-size="10.00">+ oldMin</text>
<text text-anchor="start" x="211" y="-1492" font-family="Courier New" font-size="10.00">+ oldMax</text>
<text text-anchor="start" x="211" y="-1481" font-family="Courier New" font-size="10.00">&#45; lutRes</text>
<text text-anchor="start" x="211" y="-1470" font-family="Courier New" font-size="10.00">&#45; gradient</text>
<polyline fill="none" stroke="black" points="203,-1463 400,-1463 "/>
<text text-anchor="start" x="211" y="-1451" font-family="Courier New" font-size="10.00">+ Evaluate()</text>
<text text-anchor="start" x="211" y="-1440" font-family="Courier New" font-size="10.00">+ Evaluate()</text>
<text text-anchor="start" x="211" y="-1429" font-family="Courier New" font-size="10.00">+ EvaluateUnscaled()</text>
<text text-anchor="start" x="211" y="-1418" font-family="Courier New" font-size="10.00">+ GetMinMax()</text>
<text text-anchor="start" x="211" y="-1407" font-family="Courier New" font-size="10.00">&#45; BuildLUT()</text>
<text text-anchor="start" x="211" y="-1396" font-family="Courier New" font-size="10.00">&#45; RescaleArray()</text>
</a>
</g>
</g>
<!-- Node5&#45;&gt;Node3 -->
<g id="edge4" class="edge"><title>Node5&#45;&gt;Node3</title>
<path fill="none" stroke="#404040" d="M301.5,-1388.61C301.5,-1348.49 301.5,-1303.88 301.5,-1265.13"/>
<polygon fill="none" stroke="#404040" points="301.5,-1265.04 297.5,-1259.04 301.5,-1253.04 305.5,-1259.04 301.5,-1265.04"/>
<text text-anchor="middle" x="347" y="-1313" font-family="Courier New" font-size="10.00"> +extremaMethod</text>
</g>
<!-- Node6 -->
<g id="node6" class="node"><title>Node6</title>
<g id="a_node6"><a xlink:title=" ">
<polygon fill="white" stroke="#bfbfbf" points="358,-1747 358,-1804 453,-1804 453,-1747 358,-1747"/>
<text text-anchor="middle" x="405.5" y="-1792" font-family="Courier New" font-size="10.00">MonoBehaviour</text>
<polyline fill="none" stroke="#bfbfbf" points="358,-1785 453,-1785 "/>
<text text-anchor="middle" x="405.5" y="-1773" font-family="Courier New" font-size="10.00"> </text>
<polyline fill="none" stroke="#bfbfbf" points="358,-1766 453,-1766 "/>
<text text-anchor="middle" x="405.5" y="-1754" font-family="Courier New" font-size="10.00"> </text>
</a>
</g>
</g>
<!-- Node6&#45;&gt;Node5 -->
<g id="edge5" class="edge"><title>Node6&#45;&gt;Node5</title>
<path fill="none" stroke="midnightblue" d="M391.036,-1737.23C379.418,-1707.29 362.448,-1663.56 346.398,-1622.2"/>
<polygon fill="none" stroke="midnightblue" points="387.881,-1738.77 394.762,-1746.83 394.407,-1736.24 387.881,-1738.77"/>
</g>
<!-- Node16 -->
<g id="node16" class="node"><title>Node16</title>
<g id="a_node16"><a xlink:href="../../d5/df9/class_c2_m2_1_1_interaction_1_1_raycast_event_manager.html" target="_top" xlink:title="Attach this script to parent gameObject, create one child with one raycast trigger per child....">
<polygon fill="white" stroke="black" points="397,-1047.5 397,-1280.5 558,-1280.5 558,-1047.5 397,-1047.5"/>
<text text-anchor="start" x="405" y="-1268.5" font-family="Courier New" font-size="10.00">C2M2.Interaction.Raycast</text>
<text text-anchor="middle" x="477.5" y="-1257.5" font-family="Courier New" font-size="10.00">EventManager</text>
<polyline fill="none" stroke="black" points="397,-1250.5 558,-1250.5 "/>
<text text-anchor="middle" x="477.5" y="-1238.5" font-family="Courier New" font-size="10.00"> </text>
<polyline fill="none" stroke="black" points="397,-1231.5 558,-1231.5 "/>
<text text-anchor="start" x="405" y="-1219.5" font-family="Courier New" font-size="10.00">+ TriggerChangeRight()</text>
<text text-anchor="start" x="405" y="-1208.5" font-family="Courier New" font-size="10.00">+ TriggerChangeLeft()</text>
<text text-anchor="start" x="405" y="-1197.5" font-family="Courier New" font-size="10.00">+ TriggerChangeBoth()</text>
<text text-anchor="start" x="405" y="-1186.5" font-family="Courier New" font-size="10.00">+ TriggerEmptyRight()</text>
<text text-anchor="start" x="405" y="-1175.5" font-family="Courier New" font-size="10.00">+ TriggerEmptyLeft()</text>
<text text-anchor="start" x="405" y="-1164.5" font-family="Courier New" font-size="10.00">+ TriggerEmptyBoth()</text>
<text text-anchor="start" x="405" y="-1153.5" font-family="Courier New" font-size="10.00">+ PressEvent()</text>
<text text-anchor="start" x="405" y="-1142.5" font-family="Courier New" font-size="10.00">+ HoldEvent()</text>
<text text-anchor="start" x="405" y="-1131.5" font-family="Courier New" font-size="10.00">+ EndEvent()</text>
<text text-anchor="start" x="405" y="-1120.5" font-family="Courier New" font-size="10.00">+ AllEvents()</text>
<text text-anchor="start" x="405" y="-1109.5" font-family="Courier New" font-size="10.00">+ PressEventNull()</text>
<text text-anchor="start" x="405" y="-1098.5" font-family="Courier New" font-size="10.00">+ HoldEventNull()</text>
<text text-anchor="start" x="405" y="-1087.5" font-family="Courier New" font-size="10.00">+ EndEventNull()</text>
<text text-anchor="start" x="405" y="-1076.5" font-family="Courier New" font-size="10.00">+ AllEventsNull()</text>
<text text-anchor="start" x="405" y="-1065.5" font-family="Courier New" font-size="10.00">+ ToString()</text>
<text text-anchor="start" x="405" y="-1054.5" font-family="Courier New" font-size="10.00">&#45; Awake()</text>
</a>
</g>
</g>
<!-- Node6&#45;&gt;Node16 -->
<g id="edge16" class="edge"><title>Node6&#45;&gt;Node16</title>
<path fill="none" stroke="midnightblue" d="M408.453,-1736.61C414.422,-1662.3 428.946,-1492.26 447.5,-1350 450.425,-1327.58 453.972,-1303.69 457.589,-1280.79"/>
<polygon fill="none" stroke="midnightblue" points="404.942,-1736.62 407.635,-1746.87 411.919,-1737.18 404.942,-1736.62"/>
</g>
<!-- Node17 -->
<g id="node17" class="node"><title>Node17</title>
<g id="a_node17"><a xlink:href="../../d8/d68/class_c2_m2_1_1_interaction_1_1_raycast_press_events.html" target="_top" xlink:title="Store custom events that the corresponding RaycastTriggerManager will invoke">
<polygon fill="white" stroke="black" points="457,-1449.5 457,-1561.5 618,-1561.5 618,-1449.5 457,-1449.5"/>
<text text-anchor="start" x="465" y="-1549.5" font-family="Courier New" font-size="10.00">C2M2.Interaction.Raycast</text>
<text text-anchor="middle" x="537.5" y="-1538.5" font-family="Courier New" font-size="10.00">PressEvents</text>
<polyline fill="none" stroke="black" points="457,-1531.5 618,-1531.5 "/>
<text text-anchor="start" x="465" y="-1519.5" font-family="Courier New" font-size="10.00">+ OnPress</text>
<text text-anchor="start" x="465" y="-1508.5" font-family="Courier New" font-size="10.00">+ OnHoldPress</text>
<text text-anchor="start" x="465" y="-1497.5" font-family="Courier New" font-size="10.00">+ OnEndPress</text>
<polyline fill="none" stroke="black" points="457,-1490.5 618,-1490.5 "/>
<text text-anchor="start" x="465" y="-1478.5" font-family="Courier New" font-size="10.00">+ Press()</text>
<text text-anchor="start" x="465" y="-1467.5" font-family="Courier New" font-size="10.00">+ HoldPress()</text>
<text text-anchor="start" x="465" y="-1456.5" font-family="Courier New" font-size="10.00">+ EndPress()</text>
</a>
</g>
</g>
<!-- Node6&#45;&gt;Node17 -->
<g id="edge19" class="edge"><title>Node6&#45;&gt;Node17</title>
<path fill="none" stroke="midnightblue" d="M427.811,-1738.23C432.812,-1729.72 437.973,-1720.62 442.5,-1712 468.734,-1662.07 495.407,-1603.55 513.785,-1561.75"/>
<polygon fill="none" stroke="midnightblue" points="424.793,-1736.46 422.691,-1746.84 430.81,-1740.04 424.793,-1736.46"/>
</g>
<!-- Node7 -->
<g id="node7" class="node"><title>Node7</title>
<g id="a_node7"><a xlink:href="../../da/df6/class_c2_m2_1_1_neuronal_dynamics_1_1_u_g_x_1_1_neuron_cell.html" target="_top" xlink:title=" ">
<polygon fill="white" stroke="black" points="576,-1069.5 576,-1258.5 749,-1258.5 749,-1069.5 576,-1069.5"/>
<text text-anchor="start" x="584" y="-1246.5" font-family="Courier New" font-size="10.00">C2M2.NeuronalDynamics.UGX.</text>
<text text-anchor="middle" x="662.5" y="-1235.5" font-family="Courier New" font-size="10.00">NeuronCell</text>
<polyline fill="none" stroke="black" points="576,-1228.5 749,-1228.5 "/>
<text text-anchor="start" x="584" y="-1216.5" font-family="Courier New" font-size="10.00">+ nodeData</text>
<text text-anchor="start" x="584" y="-1205.5" font-family="Courier New" font-size="10.00">+ edges</text>
<text text-anchor="start" x="584" y="-1194.5" font-family="Courier New" font-size="10.00">+ edgeLengths</text>
<text text-anchor="start" x="584" y="-1183.5" font-family="Courier New" font-size="10.00">+ boundaryID</text>
<text text-anchor="start" x="584" y="-1172.5" font-family="Courier New" font-size="10.00">+ somaID</text>
<text text-anchor="start" x="584" y="-1161.5" font-family="Courier New" font-size="10.00">+ vertCount</text>
<text text-anchor="start" x="584" y="-1150.5" font-family="Courier New" font-size="10.00">+ edgeCount</text>
<polyline fill="none" stroke="black" points="576,-1143.5 749,-1143.5 "/>
<text text-anchor="start" x="584" y="-1131.5" font-family="Courier New" font-size="10.00">+ NeuronCell()</text>
<text text-anchor="start" x="584" y="-1120.5" font-family="Courier New" font-size="10.00">+ NodeToString()</text>
<text text-anchor="start" x="584" y="-1109.5" font-family="Courier New" font-size="10.00">+ EdgeToString()</text>
<text text-anchor="start" x="584" y="-1098.5" font-family="Courier New" font-size="10.00">+ ToString()</text>
<text text-anchor="start" x="584" y="-1087.5" font-family="Courier New" font-size="10.00">&#45; NodeNeighborsToString()</text>
<text text-anchor="start" x="584" y="-1076.5" font-family="Courier New" font-size="10.00">&#45; GetEdgeLength()</text>
</a>
</g>
</g>
<!-- Node7&#45;&gt;Node2 -->
<g id="edge6" class="edge"><title>Node7&#45;&gt;Node2</title>
<path fill="none" stroke="#404040" d="M710.739,-1069.48C724.237,-1043.31 739.535,-1013.65 755.227,-983.233"/>
<polygon fill="none" stroke="#404040" points="755.29,-983.11 754.486,-975.944 760.791,-972.445 761.595,-979.611 755.29,-983.11"/>
<text text-anchor="middle" x="774" y="-1015.5" font-family="Courier New" font-size="10.00"> &#45;neuronCell</text>
</g>
<!-- Node8 -->
<g id="node8" class="node"><title>Node8</title>
<g id="a_node8"><a xlink:title=" ">
<polygon fill="white" stroke="#bfbfbf" points="636,-1477 636,-1534 689,-1534 689,-1477 636,-1477"/>
<text text-anchor="middle" x="662.5" y="-1522" font-family="Courier New" font-size="10.00">static</text>
<polyline fill="none" stroke="#bfbfbf" points="636,-1515 689,-1515 "/>
<text text-anchor="middle" x="662.5" y="-1503" font-family="Courier New" font-size="10.00"> </text>
<polyline fill="none" stroke="#bfbfbf" points="636,-1496 689,-1496 "/>
<text text-anchor="middle" x="662.5" y="-1484" font-family="Courier New" font-size="10.00"> </text>
</a>
</g>
</g>
<!-- Node8&#45;&gt;Node7 -->
<g id="edge7" class="edge"><title>Node8&#45;&gt;Node7</title>
<path fill="none" stroke="#404040" d="M662.5,-1476.72C662.5,-1432.26 662.5,-1342.82 662.5,-1271.11"/>
<polygon fill="none" stroke="#404040" points="662.5,-1270.85 658.5,-1264.85 662.5,-1258.85 666.5,-1264.85 662.5,-1270.85"/>
<text text-anchor="middle" x="717" y="-1324" font-family="Courier New" font-size="10.00"> &#45;nodeFormatString</text>
<text text-anchor="middle" x="717" y="-1313" font-family="Courier New" font-size="10.00">&#45;edgeFormatString</text>
<text text-anchor="middle" x="717" y="-1302" font-family="Courier New" font-size="10.00">&#45;cellFormatString</text>
</g>
<!-- Node8&#45;&gt;Node16 -->
<g id="edge17" class="edge"><title>Node8&#45;&gt;Node16</title>
<path fill="none" stroke="#404040" d="M661.546,-1476.98C659.248,-1444.33 651.606,-1389.36 626.5,-1350 619.519,-1339.06 612.597,-1341.26 603.5,-1332 590.659,-1318.93 577.985,-1304.53 565.912,-1289.82"/>
<polygon fill="none" stroke="#404040" points="565.617,-1289.45 558.733,-1287.31 558.07,-1280.12 564.953,-1282.27 565.617,-1289.45"/>
<text text-anchor="middle" x="631" y="-1313" font-family="Courier New" font-size="10.00"> &#45;nullHit</text>
</g>
<!-- Node9 -->
<g id="node9" class="node"><title>Node9</title>
<g id="a_node9"><a xlink:href="../../db/dbd/struct_c2_m2_1_1_neuronal_dynamics_1_1_simulation_1_1_vert3_d1_d_pair.html" target="_top" xlink:title="Stores two 1D indices and a lambda value for a 3D vertex">
<polygon fill="white" stroke="black" points="767,-1113.5 767,-1214.5 982,-1214.5 982,-1113.5 767,-1113.5"/>
<text text-anchor="start" x="775" y="-1202.5" font-family="Courier New" font-size="10.00">C2M2.NeuronalDynamics.Simulation.</text>
<text text-anchor="middle" x="874.5" y="-1191.5" font-family="Courier New" font-size="10.00">Vert3D1DPair</text>
<polyline fill="none" stroke="black" points="767,-1184.5 982,-1184.5 "/>
<text text-anchor="start" x="775" y="-1172.5" font-family="Courier New" font-size="10.00">+ v1</text>
<text text-anchor="start" x="775" y="-1161.5" font-family="Courier New" font-size="10.00">+ v2</text>
<text text-anchor="start" x="775" y="-1150.5" font-family="Courier New" font-size="10.00">+ lambda</text>
<polyline fill="none" stroke="black" points="767,-1143.5 982,-1143.5 "/>
<text text-anchor="start" x="775" y="-1131.5" font-family="Courier New" font-size="10.00">+ Vert3D1DPair()</text>
<text text-anchor="start" x="775" y="-1120.5" font-family="Courier New" font-size="10.00">+ ToString()</text>
</a>
</g>
</g>
<!-- Node9&#45;&gt;Node2 -->
<g id="edge8" class="edge"><title>Node9&#45;&gt;Node2</title>
<path fill="none" stroke="#404040" d="M874.5,-1113.42C874.5,-1083.76 874.5,-1043.58 874.5,-1000.78"/>
<polygon fill="none" stroke="#404040" points="874.5,-1000.64 870.5,-994.643 874.5,-988.643 878.5,-994.643 874.5,-1000.64"/>
<text text-anchor="middle" x="890" y="-1015.5" font-family="Courier New" font-size="10.00"> &#45;map</text>
</g>
<!-- Node10 -->
<g id="node10" class="node"><title>Node10</title>
<g id="a_node10"><a xlink:title=" ">
<polygon fill="white" stroke="#bfbfbf" points="1000,-1135.5 1000,-1192.5 1041,-1192.5 1041,-1135.5 1000,-1135.5"/>
<text text-anchor="middle" x="1020.5" y="-1180.5" font-family="Courier New" font-size="10.00">C2M2</text>
<polyline fill="none" stroke="#bfbfbf" points="1000,-1173.5 1041,-1173.5 "/>
<text text-anchor="middle" x="1020.5" y="-1161.5" font-family="Courier New" font-size="10.00"> </text>
<polyline fill="none" stroke="#bfbfbf" points="1000,-1154.5 1041,-1154.5 "/>
<text text-anchor="middle" x="1020.5" y="-1142.5" font-family="Courier New" font-size="10.00"> </text>
</a>
</g>
</g>
<!-- Node10&#45;&gt;Node2 -->
<g id="edge9" class="edge"><title>Node10&#45;&gt;Node2</title>
<path fill="none" stroke="#404040" d="M1014.28,-1135.07C1008.78,-1111.4 1000.13,-1076.68 990.5,-1047 985.51,-1031.63 980.138,-1015.9 974.537,-1000.1"/>
<polygon fill="none" stroke="#404040" points="974.46,-999.881 968.674,-995.578 970.421,-988.582 976.207,-992.885 974.46,-999.881"/>
<text text-anchor="middle" x="1007" y="-1021" font-family="Courier New" font-size="10.00"> &#45;grid1D</text>
<text text-anchor="middle" x="1007" y="-1010" font-family="Courier New" font-size="10.00">&#45;grid2D</text>
</g>
<!-- Node11 -->
<g id="node11" class="node"><title>Node11</title>
<g id="a_node11"><a xlink:href="../../dd/d2a/struct_c2_m2_1_1_neuronal_dynamics_1_1_u_g_x_1_1_mapping_info.html" target="_top" xlink:title="Encapsulates the grids and mapping data">
<polygon fill="white" stroke="black" points="1059,-1119 1059,-1209 1232,-1209 1232,-1119 1059,-1119"/>
<text text-anchor="start" x="1067" y="-1197" font-family="Courier New" font-size="10.00">C2M2.NeuronalDynamics.UGX.</text>
<text text-anchor="middle" x="1145.5" y="-1186" font-family="Courier New" font-size="10.00">MappingInfo</text>
<polyline fill="none" stroke="black" points="1059,-1179 1232,-1179 "/>
<text text-anchor="start" x="1067" y="-1167" font-family="Courier New" font-size="10.00">+ ModelGeometry</text>
<text text-anchor="start" x="1067" y="-1156" font-family="Courier New" font-size="10.00">+ SurfaceGeometry</text>
<text text-anchor="start" x="1067" y="-1145" font-family="Courier New" font-size="10.00">+ Data</text>
<polyline fill="none" stroke="black" points="1059,-1138 1232,-1138 "/>
<text text-anchor="start" x="1067" y="-1126" font-family="Courier New" font-size="10.00">+ MappingInfo()</text>
</a>
</g>
</g>
<!-- Node11&#45;&gt;Node2 -->
<g id="edge10" class="edge"><title>Node11&#45;&gt;Node2</title>
<path fill="none" stroke="#404040" d="M1116.24,-1118.63C1086.89,-1074.11 1039.72,-1002.57 994.798,-934.445"/>
<polygon fill="none" stroke="#404040" points="994.796,-934.441 988.153,-931.634 988.19,-924.423 994.832,-927.23 994.796,-934.441"/>
<text text-anchor="middle" x="1078" y="-1015.5" font-family="Courier New" font-size="10.00"> &#45;mapping</text>
</g>
<!-- Node12 -->
<g id="node12" class="node"><title>Node12</title>
<g id="a_node12"><a xlink:href="../../d1/d08/class_c2_m2_1_1_neuronal_dynamics_1_1_visualization_1_1_v_r_n_1_1_vrn_reader.html" target="_top" xlink:title=" ">
<polygon fill="white" stroke="black" points="1250,-1102.5 1250,-1225.5 1483,-1225.5 1483,-1102.5 1250,-1102.5"/>
<text text-anchor="start" x="1258" y="-1213.5" font-family="Courier New" font-size="10.00">C2M2.NeuronalDynamics.Visualization.</text>
<text text-anchor="middle" x="1366.5" y="-1202.5" font-family="Courier New" font-size="10.00">VRN.VrnReader</text>
<polyline fill="none" stroke="black" points="1250,-1195.5 1483,-1195.5 "/>
<text text-anchor="start" x="1258" y="-1183.5" font-family="Courier New" font-size="10.00">&#45; fileName</text>
<text text-anchor="start" x="1258" y="-1172.5" font-family="Courier New" font-size="10.00">&#45; loaded</text>
<polyline fill="none" stroke="black" points="1250,-1165.5 1483,-1165.5 "/>
<text text-anchor="start" x="1258" y="-1153.5" font-family="Courier New" font-size="10.00">+ List()</text>
<text text-anchor="start" x="1258" y="-1142.5" font-family="Courier New" font-size="10.00">+ ReadUGX()</text>
<text text-anchor="start" x="1258" y="-1131.5" font-family="Courier New" font-size="10.00">+ Retrieve1DMeshName()</text>
<text text-anchor="start" x="1258" y="-1120.5" font-family="Courier New" font-size="10.00">+ Retrieve2DMeshName()</text>
<text text-anchor="start" x="1258" y="-1109.5" font-family="Courier New" font-size="10.00">+ VrnReader()</text>
</a>
</g>
</g>
<!-- Node12&#45;&gt;Node2 -->
<g id="edge11" class="edge"><title>Node12&#45;&gt;Node2</title>
<path fill="none" stroke="#404040" d="M1302.17,-1102.27C1282.6,-1084.21 1260.88,-1064.57 1240.5,-1047 1161.21,-978.679 1069.52,-904.779 997.741,-848.035"/>
<polygon fill="none" stroke="#404040" points="997.614,-847.934 990.426,-847.355 988.197,-840.497 995.384,-841.077 997.614,-847.934"/>
<text text-anchor="middle" x="1246" y="-1015.5" font-family="Courier New" font-size="10.00"> &#45;vrnReader</text>
</g>
<!-- Node13 -->
<g id="node13" class="node"><title>Node13</title>
<g id="a_node13"><a xlink:href="../../d9/d5c/class_c2_m2_1_1_neuronal_dynamics_1_1_visualization_1_1_v_r_n_1_1_vrn_reader_1_1_geometry.html" target="_top" xlink:title="Stores 1D and associated 2D geometries in the member geom1d">
<polygon fill="white" stroke="black" points="1250,-1471.5 1250,-1539.5 1483,-1539.5 1483,-1471.5 1250,-1471.5"/>
<text text-anchor="start" x="1258" y="-1527.5" font-family="Courier New" font-size="10.00">C2M2.NeuronalDynamics.Visualization.</text>
<text text-anchor="middle" x="1366.5" y="-1516.5" font-family="Courier New" font-size="10.00">VRN.VrnReader.Geometry</text>
<polyline fill="none" stroke="black" points="1250,-1509.5 1483,-1509.5 "/>
<text text-anchor="middle" x="1366.5" y="-1497.5" font-family="Courier New" font-size="10.00"> </text>
<polyline fill="none" stroke="black" points="1250,-1490.5 1483,-1490.5 "/>
<text text-anchor="start" x="1258" y="-1478.5" font-family="Courier New" font-size="10.00">+ Geometry()</text>
</a>
</g>
</g>
<!-- Node13&#45;&gt;Node12 -->
<g id="edge12" class="edge"><title>Node13&#45;&gt;Node12</title>
<path fill="none" stroke="#404040" d="M1366.5,-1471.33C1366.5,-1417.54 1366.5,-1310.06 1366.5,-1237.81"/>
<polygon fill="none" stroke="#404040" points="1366.5,-1237.65 1362.5,-1231.65 1366.5,-1225.65 1370.5,-1231.65 1366.5,-1237.65"/>
<text text-anchor="middle" x="1397" y="-1313" font-family="Courier New" font-size="10.00"> &#45;geometry</text>
</g>
<!-- Node14 -->
<g id="node14" class="node"><title>Node14</title>
<g id="a_node14"><a xlink:href="../../dd/df0/struct_c2_m2_1_1_neuronal_dynamics_1_1_visualization_1_1_v_r_n_1_1_vrn_reader_1_1_geom1d.html" target="_top" xlink:title="Stores the 1D geometries by name, refinement and a description Inflations are attached to the 1D geom...">
<polygon fill="white" stroke="black" points="1250,-1730.5 1250,-1820.5 1483,-1820.5 1483,-1730.5 1250,-1730.5"/>
<text text-anchor="start" x="1258" y="-1808.5" font-family="Courier New" font-size="10.00">C2M2.NeuronalDynamics.Visualization.</text>
<text text-anchor="middle" x="1366.5" y="-1797.5" font-family="Courier New" font-size="10.00">VRN.VrnReader.Geom1d</text>
<polyline fill="none" stroke="black" points="1250,-1790.5 1483,-1790.5 "/>
<text text-anchor="start" x="1258" y="-1778.5" font-family="Courier New" font-size="10.00">+ name</text>
<text text-anchor="start" x="1258" y="-1767.5" font-family="Courier New" font-size="10.00">+ refinement</text>
<text text-anchor="start" x="1258" y="-1756.5" font-family="Courier New" font-size="10.00">+ description</text>
<polyline fill="none" stroke="black" points="1250,-1749.5 1483,-1749.5 "/>
<text text-anchor="start" x="1258" y="-1737.5" font-family="Courier New" font-size="10.00">+ Geom1d()</text>
</a>
</g>
</g>
<!-- Node14&#45;&gt;Node13 -->
<g id="edge13" class="edge"><title>Node14&#45;&gt;Node13</title>
<path fill="none" stroke="#404040" d="M1366.5,-1730.25C1366.5,-1681.01 1366.5,-1601.86 1366.5,-1552.09"/>
<polygon fill="none" stroke="#404040" points="1366.5,-1551.8 1362.5,-1545.8 1366.5,-1539.8 1370.5,-1545.8 1366.5,-1551.8"/>
<text text-anchor="middle" x="1391" y="-1693" font-family="Courier New" font-size="10.00"> +geom1d</text>
</g>
<!-- Node15 -->
<g id="node15" class="node"><title>Node15</title>
<g id="a_node15"><a xlink:href="../../d8/daf/struct_c2_m2_1_1_neuronal_dynamics_1_1_visualization_1_1_v_r_n_1_1_vrn_reader_1_1_geom2d.html" target="_top" xlink:title="Stores the 2d geometries by name, inflation (factor), and description">
<polygon fill="white" stroke="black" points="1250,-1868.5 1250,-1958.5 1483,-1958.5 1483,-1868.5 1250,-1868.5"/>
<text text-anchor="start" x="1258" y="-1946.5" font-family="Courier New" font-size="10.00">C2M2.NeuronalDynamics.Visualization.</text>
<text text-anchor="middle" x="1366.5" y="-1935.5" font-family="Courier New" font-size="10.00">VRN.VrnReader.Geom2d</text>
<polyline fill="none" stroke="black" points="1250,-1928.5 1483,-1928.5 "/>
<text text-anchor="start" x="1258" y="-1916.5" font-family="Courier New" font-size="10.00">+ inflation</text>
<text text-anchor="start" x="1258" y="-1905.5" font-family="Courier New" font-size="10.00">+ name</text>
<text text-anchor="start" x="1258" y="-1894.5" font-family="Courier New" font-size="10.00">+ description</text>
<polyline fill="none" stroke="black" points="1250,-1887.5 1483,-1887.5 "/>
<text text-anchor="start" x="1258" y="-1875.5" font-family="Courier New" font-size="10.00">+ Geom2d()</text>
</a>
</g>
</g>
<!-- Node15&#45;&gt;Node14 -->
<g id="edge14" class="edge"><title>Node15&#45;&gt;Node14</title>
<path fill="none" stroke="#404040" d="M1366.5,-1868.34C1366.5,-1857.06 1366.5,-1844.78 1366.5,-1832.97"/>
<polygon fill="none" stroke="#404040" points="1366.5,-1832.9 1362.5,-1826.9 1366.5,-1820.9 1370.5,-1826.9 1366.5,-1832.9"/>
<text text-anchor="middle" x="1403" y="-1842" font-family="Courier New" font-size="10.00"> +inflations</text>
</g>
<!-- Node16&#45;&gt;Node2 -->
<g id="edge15" class="edge"><title>Node16&#45;&gt;Node2</title>
<path fill="none" stroke="#404040" d="M558.099,-1056.57C560.9,-1053.32 563.705,-1050.12 566.5,-1047 624.313,-982.489 693.612,-915.33 751.823,-861.416"/>
<polygon fill="none" stroke="#404040" points="751.882,-861.362 753.576,-854.352 760.698,-853.22 759.004,-860.229 751.882,-861.362"/>
<text text-anchor="middle" x="647" y="-1015.5" font-family="Courier New" font-size="10.00"> &#45;raycastManager</text>
</g>
<!-- Node17&#45;&gt;Node16 -->
<g id="edge18" class="edge"><title>Node17&#45;&gt;Node16</title>
<path fill="none" stroke="#404040" d="M515.507,-1449.16C503.352,-1415.8 489.358,-1372.12 482.5,-1332 480.349,-1319.41 478.789,-1306.22 477.682,-1292.99"/>
<polygon fill="none" stroke="#404040" points="477.67,-1292.82 473.24,-1287.13 476.788,-1280.86 481.218,-1286.55 477.67,-1292.82"/>
<text text-anchor="middle" x="522" y="-1324" font-family="Courier New" font-size="10.00"> +leftTrigger</text>
<text text-anchor="middle" x="522" y="-1313" font-family="Courier New" font-size="10.00">+rightTrigger</text>
<text text-anchor="middle" x="522" y="-1302" font-family="Courier New" font-size="10.00">&#45;emptyTrigger</text>
</g>
<!-- Node18 -->
<g id="node18" class="node"><title>Node18</title>
<g id="a_node18"><a xlink:href="../../d2/d43/class_c2_m2_1_1_interaction_1_1_raycast_press_events_1_1_raycast_hit_event.html" target="_top" xlink:title=" ">
<polygon fill="white" stroke="black" points="471,-1741.5 471,-1809.5 650,-1809.5 650,-1741.5 471,-1741.5"/>
<text text-anchor="start" x="479" y="-1797.5" font-family="Courier New" font-size="10.00">C2M2.Interaction.Raycast</text>
<text text-anchor="middle" x="560.5" y="-1786.5" font-family="Courier New" font-size="10.00">PressEvents.RaycastHitEvent</text>
<polyline fill="none" stroke="black" points="471,-1779.5 650,-1779.5 "/>
<text text-anchor="middle" x="560.5" y="-1767.5" font-family="Courier New" font-size="10.00"> </text>
<polyline fill="none" stroke="black" points="471,-1760.5 650,-1760.5 "/>
<text text-anchor="middle" x="560.5" y="-1748.5" font-family="Courier New" font-size="10.00"> </text>
</a>
</g>
</g>
<!-- Node18&#45;&gt;Node17 -->
<g id="edge20" class="edge"><title>Node18&#45;&gt;Node17</title>
<path fill="none" stroke="#404040" d="M557.657,-1741.37C554.083,-1699.73 547.862,-1627.24 543.274,-1573.78"/>
<polygon fill="none" stroke="#404040" points="543.26,-1573.61 538.761,-1567.97 542.233,-1561.65 546.732,-1567.29 543.26,-1573.61"/>
<text text-anchor="middle" x="592" y="-1704" font-family="Courier New" font-size="10.00"> &#45;onPress</text>
<text text-anchor="middle" x="592" y="-1693" font-family="Courier New" font-size="10.00">&#45;onHoldPress</text>
<text text-anchor="middle" x="592" y="-1682" font-family="Courier New" font-size="10.00">&#45;onEndPress</text>
</g>
<!-- Node19 -->
<g id="node19" class="node"><title>Node19</title>
<g id="a_node19"><a xlink:title=" ">
<polygon fill="white" stroke="#bfbfbf" points="480,-1885 480,-1942 641,-1942 641,-1885 480,-1885"/>
<text text-anchor="middle" x="560.5" y="-1930" font-family="Courier New" font-size="10.00">UnityEvent&lt; RaycastHit &gt;</text>
<polyline fill="none" stroke="#bfbfbf" points="480,-1923 641,-1923 "/>
<text text-anchor="middle" x="560.5" y="-1911" font-family="Courier New" font-size="10.00"> </text>
<polyline fill="none" stroke="#bfbfbf" points="480,-1904 641,-1904 "/>
<text text-anchor="middle" x="560.5" y="-1892" font-family="Courier New" font-size="10.00"> </text>
</a>
</g>
</g>
<!-- Node19&#45;&gt;Node18 -->
<g id="edge21" class="edge"><title>Node19&#45;&gt;Node18</title>
<path fill="none" stroke="midnightblue" d="M560.5,-1874.78C560.5,-1854.38 560.5,-1829.41 560.5,-1809.75"/>
<polygon fill="none" stroke="midnightblue" points="557,-1874.98 560.5,-1884.98 564,-1874.98 557,-1874.98"/>
</g>
</g>
</svg>
