<?xml version="1.0" encoding="UTF-8" standalone="no"?>
<!DOCTYPE svg PUBLIC "-//W3C//DTD SVG 1.1//EN"
 "http://www.w3.org/Graphics/SVG/1.1/DTD/svg11.dtd">
<!-- Generated by graphviz version 2.38.0 (20140413.2041)
 -->
<!-- Title: C2M2.NeuronalDynamics.Simulation.CellSolver2SimpleFE Pages: 1 -->
<svg width="1491pt" height="1791pt"
 viewBox="0.00 0.00 1491.00 1791.00" xmlns="http://www.w3.org/2000/svg" xmlns:xlink="http://www.w3.org/1999/xlink">
<g id="graph0" class="graph" transform="scale(1 1) rotate(0) translate(4 1787)">
<title>C2M2.NeuronalDynamics.Simulation.CellSolver2SimpleFE</title>
<polygon fill="white" stroke="none" points="-4,4 -4,-1787 1487,-1787 1487,4 -4,4"/>
<!-- Node1 -->
<g id="node1" class="node"><title>Node1</title>
<g id="a_node1"><a xlink:title=" ">
<polygon fill="#bfbfbf" stroke="black" points="767,-0.5 767,-299.5 982,-299.5 982,-0.5 767,-0.5"/>
<text text-anchor="start" x="775" y="-287.5" font-family="Courier New" font-size="10.00">C2M2.NeuronalDynamics.Simulation.</text>
<text text-anchor="middle" x="874.5" y="-276.5" font-family="Courier New" font-size="10.00">CellSolver2SimpleFE</text>
<polyline fill="none" stroke="black" points="767,-269.5 982,-269.5 "/>
<text text-anchor="start" x="775" y="-257.5" font-family="Courier New" font-size="10.00">+ res</text>
<text text-anchor="start" x="775" y="-246.5" font-family="Courier New" font-size="10.00">+ gk</text>
<text text-anchor="start" x="775" y="-235.5" font-family="Courier New" font-size="10.00">+ gna</text>
<text text-anchor="start" x="775" y="-224.5" font-family="Courier New" font-size="10.00">+ gl</text>
<text text-anchor="start" x="775" y="-213.5" font-family="Courier New" font-size="10.00">+ ek</text>
<text text-anchor="start" x="775" y="-202.5" font-family="Courier New" font-size="10.00">+ ena</text>
<text text-anchor="start" x="775" y="-191.5" font-family="Courier New" font-size="10.00">+ el</text>
<text text-anchor="start" x="775" y="-180.5" font-family="Courier New" font-size="10.00">+ cap</text>
<text text-anchor="start" x="775" y="-169.5" font-family="Courier New" font-size="10.00">+ ni</text>
<text text-anchor="start" x="775" y="-158.5" font-family="Courier New" font-size="10.00">+ nT</text>
<text text-anchor="start" x="775" y="-147.5" font-family="Courier New" font-size="10.00">+ endTime</text>
<text text-anchor="start" x="775" y="-136.5" font-family="Courier New" font-size="10.00">+ vstart</text>
<text text-anchor="start" x="775" y="-125.5" font-family="Courier New" font-size="10.00">&#45; U</text>
<text text-anchor="start" x="775" y="-114.5" font-family="Courier New" font-size="10.00">&#45; k</text>
<text text-anchor="start" x="775" y="-103.5" font-family="Courier New" font-size="10.00">&#45; i</text>
<text text-anchor="start" x="775" y="-92.5" font-family="Courier New" font-size="10.00">&#45; mi</text>
<text text-anchor="start" x="775" y="-81.5" font-family="Courier New" font-size="10.00">&#45; hi</text>
<polyline fill="none" stroke="black" points="767,-74.5 982,-74.5 "/>
<text text-anchor="start" x="775" y="-62.5" font-family="Courier New" font-size="10.00">+ GetSimulationTime()</text>
<text text-anchor="start" x="775" y="-51.5" font-family="Courier New" font-size="10.00">+ Get1DValues()</text>
<text text-anchor="start" x="775" y="-40.5" font-family="Courier New" font-size="10.00">+ Set1DValues()</text>
<text text-anchor="start" x="775" y="-29.5" font-family="Courier New" font-size="10.00">+ initialConditions()</text>
<text text-anchor="start" x="775" y="-18.5" font-family="Courier New" font-size="10.00"># Solve()</text>
<text text-anchor="start" x="775" y="-7.5" font-family="Courier New" font-size="10.00">&#45; InitializeNeuronCell()</text>
</a>
</g>
</g>
<!-- Node2 -->
<g id="node2" class="node"><title>Node2</title>
<g id="a_node2"><a xlink:href="../../d7/d92/class_c2_m2_1_1_neuronal_dynamics_1_1_simulation_1_1_n_d_simulation.html" target="_top" xlink:title="Provide an interface for 1D neuron&#45;surface simulations to be visualized and interacted with">
<polygon fill="white" stroke="black" points="761,-337.5 761,-812.5 988,-812.5 988,-337.5 761,-337.5"/>
<text text-anchor="middle" x="874.5" y="-800.5" font-family="Courier New" font-size="10.00">NDSimulation</text>
<polyline fill="none" stroke="black" points="761,-793.5 988,-793.5 "/>
<text text-anchor="start" x="769" y="-781.5" font-family="Courier New" font-size="10.00">+ visualize1D</text>
<text text-anchor="start" x="769" y="-770.5" font-family="Courier New" font-size="10.00">+ color1D</text>
<text text-anchor="start" x="769" y="-759.5" font-family="Courier New" font-size="10.00">+ lineWidth1D</text>
<text text-anchor="start" x="769" y="-748.5" font-family="Courier New" font-size="10.00">+ vrnFileName</text>
<text text-anchor="start" x="769" y="-737.5" font-family="Courier New" font-size="10.00">+ hitValue</text>
<text text-anchor="start" x="769" y="-726.5" font-family="Courier New" font-size="10.00">+ clamps</text>
<text text-anchor="start" x="769" y="-715.5" font-family="Courier New" font-size="10.00">+ VisualInflation</text>
<text text-anchor="start" x="769" y="-704.5" font-family="Courier New" font-size="10.00">+ ColliderInflation</text>
<text text-anchor="start" x="769" y="-693.5" font-family="Courier New" font-size="10.00">+ RefinementLevel</text>
<text text-anchor="start" x="769" y="-682.5" font-family="Courier New" font-size="10.00">+ ClampMode</text>
<text text-anchor="start" x="769" y="-671.5" font-family="Courier New" font-size="10.00">+ VrnReader</text>
<text text-anchor="start" x="769" y="-660.5" font-family="Courier New" font-size="10.00">+ Grid1D</text>
<text text-anchor="start" x="769" y="-649.5" font-family="Courier New" font-size="10.00">+ Verts1D</text>
<text text-anchor="start" x="769" y="-638.5" font-family="Courier New" font-size="10.00">+ Grid2D</text>
<text text-anchor="start" x="769" y="-627.5" font-family="Courier New" font-size="10.00">+ NeuronCell</text>
<text text-anchor="start" x="769" y="-616.5" font-family="Courier New" font-size="10.00">+ AverageDendriteRadius</text>
<text text-anchor="start" x="769" y="-605.5" font-family="Courier New" font-size="10.00">+ Map</text>
<text text-anchor="start" x="769" y="-594.5" font-family="Courier New" font-size="10.00">+ Mapping</text>
<text text-anchor="start" x="769" y="-583.5" font-family="Courier New" font-size="10.00">+ Scalars3D</text>
<text text-anchor="start" x="769" y="-572.5" font-family="Courier New" font-size="10.00">&#45; visualInflation</text>
<text text-anchor="start" x="769" y="-561.5" font-family="Courier New" font-size="10.00">&#45; colliderInflation</text>
<text text-anchor="start" x="769" y="-550.5" font-family="Courier New" font-size="10.00">&#45; refinementLevel</text>
<text text-anchor="start" x="769" y="-539.5" font-family="Courier New" font-size="10.00">&#45; meshCache</text>
<text text-anchor="start" x="769" y="-528.5" font-family="Courier New" font-size="10.00">&#45; clampMode</text>
<text text-anchor="start" x="769" y="-517.5" font-family="Courier New" font-size="10.00">&#45; averageDendriteRadius</text>
<text text-anchor="start" x="769" y="-506.5" font-family="Courier New" font-size="10.00">&#45; scalars3D</text>
<polyline fill="none" stroke="black" points="761,-499.5 988,-499.5 "/>
<text text-anchor="start" x="769" y="-487.5" font-family="Courier New" font-size="10.00">+ OnVisualInflationChangeDelegate()</text>
<text text-anchor="start" x="769" y="-476.5" font-family="Courier New" font-size="10.00">+ GetValues()</text>
<text text-anchor="start" x="769" y="-465.5" font-family="Courier New" font-size="10.00">+ SetValues()</text>
<text text-anchor="start" x="769" y="-454.5" font-family="Courier New" font-size="10.00">+ SetValues()</text>
<text text-anchor="start" x="769" y="-443.5" font-family="Courier New" font-size="10.00">+ Set1DValues()</text>
<text text-anchor="start" x="769" y="-432.5" font-family="Courier New" font-size="10.00">+ Get1DValues()</text>
<text text-anchor="start" x="769" y="-421.5" font-family="Courier New" font-size="10.00">+ SwitchColliderMesh()</text>
<text text-anchor="start" x="769" y="-410.5" font-family="Courier New" font-size="10.00">+ SwitchMesh()</text>
<text text-anchor="start" x="769" y="-399.5" font-family="Courier New" font-size="10.00"># OnAwakePre()</text>
<text text-anchor="start" x="769" y="-388.5" font-family="Courier New" font-size="10.00"># OnStart()</text>
<text text-anchor="start" x="769" y="-377.5" font-family="Courier New" font-size="10.00"># BuildVisualization()</text>
<text text-anchor="start" x="769" y="-366.5" font-family="Courier New" font-size="10.00">&#45; CheckMeshCache()</text>
<text text-anchor="start" x="769" y="-355.5" font-family="Courier New" font-size="10.00">&#45; UpdateGrid1D()</text>
<text text-anchor="start" x="769" y="-344.5" font-family="Courier New" font-size="10.00">&#45; Update2DGrid()</text>
</a>
</g>
</g>
<!-- Node2&#45;&gt;Node1 -->
<g id="edge1" class="edge"><title>Node2&#45;&gt;Node1</title>
<path fill="none" stroke="midnightblue" d="M874.5,-327.32C874.5,-318.008 874.5,-308.79 874.5,-299.741"/>
<polygon fill="none" stroke="midnightblue" points="871,-327.457 874.5,-337.457 878,-327.457 871,-327.457"/>
</g>
<!-- Node3 -->
<g id="node3" class="node"><title>Node3</title>
<g id="a_node3"><a xlink:href="../../d6/d2d/class_c2_m2_1_1_simulation_1_1_mesh_simulation.html" target="_top" xlink:title="Simulation of type double[] for visualizing scalar fields on mesh surfaces">
<polygon fill="white" stroke="black" points="224,-899 224,-1077 379,-1077 379,-899 224,-899"/>
<text text-anchor="middle" x="301.5" y="-1065" font-family="Courier New" font-size="10.00">MeshSimulation</text>
<polyline fill="none" stroke="black" points="224,-1058 379,-1058 "/>
<text text-anchor="start" x="232" y="-1046" font-family="Courier New" font-size="10.00">+ gradient</text>
<text text-anchor="start" x="232" y="-1035" font-family="Courier New" font-size="10.00">+ globalMax</text>
<text text-anchor="start" x="232" y="-1024" font-family="Courier New" font-size="10.00">+ globalMin</text>
<text text-anchor="start" x="232" y="-1013" font-family="Courier New" font-size="10.00">+ colorLUT</text>
<text text-anchor="start" x="232" y="-1002" font-family="Courier New" font-size="10.00">+ VisualMesh</text>
<text text-anchor="start" x="232" y="-991" font-family="Courier New" font-size="10.00">+ ColliderMesh</text>
<text text-anchor="start" x="232" y="-980" font-family="Courier New" font-size="10.00">&#45; visualMesh</text>
<text text-anchor="start" x="232" y="-969" font-family="Courier New" font-size="10.00">&#45; colliderMesh</text>
<text text-anchor="start" x="232" y="-958" font-family="Courier New" font-size="10.00">&#45; mf</text>
<text text-anchor="start" x="232" y="-947" font-family="Courier New" font-size="10.00">&#45; mr</text>
<polyline fill="none" stroke="black" points="224,-940 379,-940 "/>
<text text-anchor="start" x="232" y="-928" font-family="Courier New" font-size="10.00"># UpdateVisualization()</text>
<text text-anchor="start" x="232" y="-917" font-family="Courier New" font-size="10.00"># OnAwakePost()</text>
<text text-anchor="start" x="232" y="-906" font-family="Courier New" font-size="10.00">&#45; UpdateVisualization()</text>
</a>
</g>
</g>
<!-- Node3&#45;&gt;Node2 -->
<g id="edge2" class="edge"><title>Node3&#45;&gt;Node2</title>
<path fill="none" stroke="midnightblue" d="M367.72,-891.118C374.072,-884.005 380.694,-877.198 387.5,-871 501.143,-767.497 656.412,-680.89 760.808,-628.842"/>
<polygon fill="none" stroke="midnightblue" points="364.843,-889.094 360.937,-898.943 370.132,-893.679 364.843,-889.094"/>
</g>
<!-- Node4 -->
<g id="node4" class="node"><title>Node4</title>
<g id="a_node4"><a xlink:href="../../db/d39/class_c2_m2_1_1_simulation_1_1_simulation.html" target="_top" xlink:title=" ">
<polygon fill="white" stroke="black" points="0,-1174.5 0,-1484.5 185,-1484.5 185,-1174.5 0,-1174.5"/>
<text text-anchor="start" x="8" y="-1472.5" font-family="Courier New" font-size="10.00">Simulation&lt; double</text>
<text text-anchor="start" x="8" y="-1461.5" font-family="Courier New" font-size="10.00">[], Mesh, VRRaycastableMesh,</text>
<text text-anchor="middle" x="92.5" y="-1450.5" font-family="Courier New" font-size="10.00"> VRGrabbableMesh &gt;</text>
<polyline fill="none" stroke="black" points="0,-1443.5 185,-1443.5 "/>
<text text-anchor="start" x="8" y="-1431.5" font-family="Courier New" font-size="10.00">+ dryRun</text>
<text text-anchor="start" x="8" y="-1420.5" font-family="Courier New" font-size="10.00">+ startOnAwake</text>
<text text-anchor="start" x="8" y="-1409.5" font-family="Courier New" font-size="10.00">+ viz</text>
<text text-anchor="start" x="8" y="-1398.5" font-family="Courier New" font-size="10.00"># mutex</text>
<text text-anchor="start" x="8" y="-1387.5" font-family="Courier New" font-size="10.00">&#45; solveThread</text>
<polyline fill="none" stroke="black" points="0,-1380.5 185,-1380.5 "/>
<text text-anchor="start" x="8" y="-1368.5" font-family="Courier New" font-size="10.00">+ GetValues()</text>
<text text-anchor="start" x="8" y="-1357.5" font-family="Courier New" font-size="10.00">+ Awake()</text>
<text text-anchor="start" x="8" y="-1346.5" font-family="Courier New" font-size="10.00">+ Start()</text>
<text text-anchor="start" x="8" y="-1335.5" font-family="Courier New" font-size="10.00">+ Update()</text>
<text text-anchor="start" x="8" y="-1324.5" font-family="Courier New" font-size="10.00">+ StartSimulation()</text>
<text text-anchor="start" x="8" y="-1313.5" font-family="Courier New" font-size="10.00">+ StopSimulation()</text>
<text text-anchor="start" x="8" y="-1302.5" font-family="Courier New" font-size="10.00"># BuildVisualization()</text>
<text text-anchor="start" x="8" y="-1291.5" font-family="Courier New" font-size="10.00"># UpdateVisualization()</text>
<text text-anchor="start" x="8" y="-1280.5" font-family="Courier New" font-size="10.00"># Solve()</text>
<text text-anchor="start" x="8" y="-1269.5" font-family="Courier New" font-size="10.00"># PreSolve()</text>
<text text-anchor="start" x="8" y="-1258.5" font-family="Courier New" font-size="10.00"># OnAwakePre()</text>
<text text-anchor="start" x="8" y="-1247.5" font-family="Courier New" font-size="10.00"># OnAwakePost()</text>
<text text-anchor="start" x="8" y="-1236.5" font-family="Courier New" font-size="10.00"># OnStart()</text>
<text text-anchor="start" x="8" y="-1225.5" font-family="Courier New" font-size="10.00"># OnUpdate()</text>
<text text-anchor="start" x="8" y="-1214.5" font-family="Courier New" font-size="10.00"># OnPause()</text>
<text text-anchor="start" x="8" y="-1203.5" font-family="Courier New" font-size="10.00"># OnQuit()</text>
<text text-anchor="start" x="8" y="-1192.5" font-family="Courier New" font-size="10.00">&#45; OnApplicationPause()</text>
<text text-anchor="start" x="8" y="-1181.5" font-family="Courier New" font-size="10.00">&#45; OnApplicationQuit()</text>
</a>
</g>
</g>
<!-- Node4&#45;&gt;Node3 -->
<g id="edge3" class="edge"><title>Node4&#45;&gt;Node3</title>
<path fill="none" stroke="midnightblue" d="M190.557,-1169.22C209.999,-1137.64 229.739,-1105.57 247.073,-1077.41"/>
<polygon fill="none" stroke="midnightblue" points="187.345,-1167.76 185.083,-1178.11 193.306,-1171.43 187.345,-1167.76"/>
</g>
<!-- Node5 -->
<g id="node5" class="node"><title>Node5</title>
<g id="a_node5"><a xlink:href="../../da/d4f/class_c2_m2_1_1_visualization_1_1_l_u_t_gradient.html" target="_top" xlink:title="Create a fast and memory&#45;friendly color lookup table from a gradient">
<polygon fill="white" stroke="black" points="203,-1213 203,-1446 400,-1446 400,-1213 203,-1213"/>
<text text-anchor="middle" x="301.5" y="-1434" font-family="Courier New" font-size="10.00">C2M2.Visualization.LUTGradient</text>
<polyline fill="none" stroke="black" points="203,-1427 400,-1427 "/>
<text text-anchor="start" x="211" y="-1415" font-family="Courier New" font-size="10.00">+ extremaMethod</text>
<text text-anchor="start" x="211" y="-1404" font-family="Courier New" font-size="10.00">+ globalMax</text>
<text text-anchor="start" x="211" y="-1393" font-family="Courier New" font-size="10.00">+ globalMin</text>
<text text-anchor="start" x="211" y="-1382" font-family="Courier New" font-size="10.00">+ curMax</text>
<text text-anchor="start" x="211" y="-1371" font-family="Courier New" font-size="10.00">+ curMix</text>
<text text-anchor="start" x="211" y="-1360" font-family="Courier New" font-size="10.00">+ LutRes</text>
<text text-anchor="start" x="211" y="-1349" font-family="Courier New" font-size="10.00">+ Gradient</text>
<text text-anchor="start" x="211" y="-1338" font-family="Courier New" font-size="10.00">+ gradientLUT</text>
<text text-anchor="start" x="211" y="-1327" font-family="Courier New" font-size="10.00">+ oldMin</text>
<text text-anchor="start" x="211" y="-1316" font-family="Courier New" font-size="10.00">+ oldMax</text>
<text text-anchor="start" x="211" y="-1305" font-family="Courier New" font-size="10.00">&#45; lutRes</text>
<text text-anchor="start" x="211" y="-1294" font-family="Courier New" font-size="10.00">&#45; gradient</text>
<polyline fill="none" stroke="black" points="203,-1287 400,-1287 "/>
<text text-anchor="start" x="211" y="-1275" font-family="Courier New" font-size="10.00">+ Evaluate()</text>
<text text-anchor="start" x="211" y="-1264" font-family="Courier New" font-size="10.00">+ Evaluate()</text>
<text text-anchor="start" x="211" y="-1253" font-family="Courier New" font-size="10.00">+ EvaluateUnscaled()</text>
<text text-anchor="start" x="211" y="-1242" font-family="Courier New" font-size="10.00">+ GetMinMax()</text>
<text text-anchor="start" x="211" y="-1231" font-family="Courier New" font-size="10.00">&#45; BuildLUT()</text>
<text text-anchor="start" x="211" y="-1220" font-family="Courier New" font-size="10.00">&#45; RescaleArray()</text>
</a>
</g>
</g>
<!-- Node5&#45;&gt;Node3 -->
<g id="edge4" class="edge"><title>Node5&#45;&gt;Node3</title>
<path fill="none" stroke="#404040" d="M301.5,-1212.61C301.5,-1172.49 301.5,-1127.88 301.5,-1089.13"/>
<polygon fill="none" stroke="#404040" points="301.5,-1089.04 297.5,-1083.04 301.5,-1077.04 305.5,-1083.04 301.5,-1089.04"/>
<text text-anchor="middle" x="347" y="-1137" font-family="Courier New" font-size="10.00"> +extremaMethod</text>
</g>
<!-- Node6 -->
<g id="node6" class="node"><title>Node6</title>
<g id="a_node6"><a xlink:title=" ">
<polygon fill="white" stroke="#bfbfbf" points="358,-1571 358,-1628 453,-1628 453,-1571 358,-1571"/>
<text text-anchor="middle" x="405.5" y="-1616" font-family="Courier New" font-size="10.00">MonoBehaviour</text>
<polyline fill="none" stroke="#bfbfbf" points="358,-1609 453,-1609 "/>
<text text-anchor="middle" x="405.5" y="-1597" font-family="Courier New" font-size="10.00"> </text>
<polyline fill="none" stroke="#bfbfbf" points="358,-1590 453,-1590 "/>
<text text-anchor="middle" x="405.5" y="-1578" font-family="Courier New" font-size="10.00"> </text>
</a>
</g>
</g>
<!-- Node6&#45;&gt;Node5 -->
<g id="edge5" class="edge"><title>Node6&#45;&gt;Node5</title>
<path fill="none" stroke="midnightblue" d="M391.036,-1561.23C379.418,-1531.29 362.448,-1487.56 346.398,-1446.2"/>
<polygon fill="none" stroke="midnightblue" points="387.881,-1562.77 394.762,-1570.83 394.407,-1560.24 387.881,-1562.77"/>
</g>
<!-- Node16 -->
<g id="node16" class="node"><title>Node16</title>
<g id="a_node16"><a xlink:href="../../d5/df9/class_c2_m2_1_1_interaction_1_1_raycast_event_manager.html" target="_top" xlink:title="Attach this script to parent gameObject, create one child with one raycast trigger per child....">
<polygon fill="white" stroke="black" points="397,-871.5 397,-1104.5 558,-1104.5 558,-871.5 397,-871.5"/>
<text text-anchor="start" x="405" y="-1092.5" font-family="Courier New" font-size="10.00">C2M2.Interaction.Raycast</text>
<text text-anchor="middle" x="477.5" y="-1081.5" font-family="Courier New" font-size="10.00">EventManager</text>
<polyline fill="none" stroke="black" points="397,-1074.5 558,-1074.5 "/>
<text text-anchor="middle" x="477.5" y="-1062.5" font-family="Courier New" font-size="10.00"> </text>
<polyline fill="none" stroke="black" points="397,-1055.5 558,-1055.5 "/>
<text text-anchor="start" x="405" y="-1043.5" font-family="Courier New" font-size="10.00">+ TriggerChangeRight()</text>
<text text-anchor="start" x="405" y="-1032.5" font-family="Courier New" font-size="10.00">+ TriggerChangeLeft()</text>
<text text-anchor="start" x="405" y="-1021.5" font-family="Courier New" font-size="10.00">+ TriggerChangeBoth()</text>
<text text-anchor="start" x="405" y="-1010.5" font-family="Courier New" font-size="10.00">+ TriggerEmptyRight()</text>
<text text-anchor="start" x="405" y="-999.5" font-family="Courier New" font-size="10.00">+ TriggerEmptyLeft()</text>
<text text-anchor="start" x="405" y="-988.5" font-family="Courier New" font-size="10.00">+ TriggerEmptyBoth()</text>
<text text-anchor="start" x="405" y="-977.5" font-family="Courier New" font-size="10.00">+ PressEvent()</text>
<text text-anchor="start" x="405" y="-966.5" font-family="Courier New" font-size="10.00">+ HoldEvent()</text>
<text text-anchor="start" x="405" y="-955.5" font-family="Courier New" font-size="10.00">+ EndEvent()</text>
<text text-anchor="start" x="405" y="-944.5" font-family="Courier New" font-size="10.00">+ AllEvents()</text>
<text text-anchor="start" x="405" y="-933.5" font-family="Courier New" font-size="10.00">+ PressEventNull()</text>
<text text-anchor="start" x="405" y="-922.5" font-family="Courier New" font-size="10.00">+ HoldEventNull()</text>
<text text-anchor="start" x="405" y="-911.5" font-family="Courier New" font-size="10.00">+ EndEventNull()</text>
<text text-anchor="start" x="405" y="-900.5" font-family="Courier New" font-size="10.00">+ AllEventsNull()</text>
<text text-anchor="start" x="405" y="-889.5" font-family="Courier New" font-size="10.00">+ ToString()</text>
<text text-anchor="start" x="405" y="-878.5" font-family="Courier New" font-size="10.00">&#45; Awake()</text>
</a>
</g>
</g>
<!-- Node6&#45;&gt;Node16 -->
<g id="edge16" class="edge"><title>Node6&#45;&gt;Node16</title>
<path fill="none" stroke="midnightblue" d="M408.453,-1560.61C414.422,-1486.3 428.946,-1316.26 447.5,-1174 450.425,-1151.58 453.972,-1127.69 457.589,-1104.79"/>
<polygon fill="none" stroke="midnightblue" points="404.942,-1560.62 407.635,-1570.87 411.919,-1561.18 404.942,-1560.62"/>
</g>
<!-- Node17 -->
<g id="node17" class="node"><title>Node17</title>
<g id="a_node17"><a xlink:href="../../d8/d68/class_c2_m2_1_1_interaction_1_1_raycast_press_events.html" target="_top" xlink:title="Store custom events that the corresponding RaycastTriggerManager will invoke">
<polygon fill="white" stroke="black" points="457,-1273.5 457,-1385.5 618,-1385.5 618,-1273.5 457,-1273.5"/>
<text text-anchor="start" x="465" y="-1373.5" font-family="Courier New" font-size="10.00">C2M2.Interaction.Raycast</text>
<text text-anchor="middle" x="537.5" y="-1362.5" font-family="Courier New" font-size="10.00">PressEvents</text>
<polyline fill="none" stroke="black" points="457,-1355.5 618,-1355.5 "/>
<text text-anchor="start" x="465" y="-1343.5" font-family="Courier New" font-size="10.00">+ OnPress</text>
<text text-anchor="start" x="465" y="-1332.5" font-family="Courier New" font-size="10.00">+ OnHoldPress</text>
<text text-anchor="start" x="465" y="-1321.5" font-family="Courier New" font-size="10.00">+ OnEndPress</text>
<polyline fill="none" stroke="black" points="457,-1314.5 618,-1314.5 "/>
<text text-anchor="start" x="465" y="-1302.5" font-family="Courier New" font-size="10.00">+ Press()</text>
<text text-anchor="start" x="465" y="-1291.5" font-family="Courier New" font-size="10.00">+ HoldPress()</text>
<text text-anchor="start" x="465" y="-1280.5" font-family="Courier New" font-size="10.00">+ EndPress()</text>
</a>
</g>
</g>
<!-- Node6&#45;&gt;Node17 -->
<g id="edge19" class="edge"><title>Node6&#45;&gt;Node17</title>
<path fill="none" stroke="midnightblue" d="M427.811,-1562.23C432.812,-1553.72 437.973,-1544.62 442.5,-1536 468.734,-1486.07 495.407,-1427.55 513.785,-1385.75"/>
<polygon fill="none" stroke="midnightblue" points="424.793,-1560.46 422.691,-1570.84 430.81,-1564.04 424.793,-1560.46"/>
</g>
<!-- Node7 -->
<g id="node7" class="node"><title>Node7</title>
<g id="a_node7"><a xlink:href="../../da/df6/class_c2_m2_1_1_neuronal_dynamics_1_1_u_g_x_1_1_neuron_cell.html" target="_top" xlink:title=" ">
<polygon fill="white" stroke="black" points="576,-893.5 576,-1082.5 749,-1082.5 749,-893.5 576,-893.5"/>
<text text-anchor="start" x="584" y="-1070.5" font-family="Courier New" font-size="10.00">C2M2.NeuronalDynamics.UGX.</text>
<text text-anchor="middle" x="662.5" y="-1059.5" font-family="Courier New" font-size="10.00">NeuronCell</text>
<polyline fill="none" stroke="black" points="576,-1052.5 749,-1052.5 "/>
<text text-anchor="start" x="584" y="-1040.5" font-family="Courier New" font-size="10.00">+ nodeData</text>
<text text-anchor="start" x="584" y="-1029.5" font-family="Courier New" font-size="10.00">+ edges</text>
<text text-anchor="start" x="584" y="-1018.5" font-family="Courier New" font-size="10.00">+ edgeLengths</text>
<text text-anchor="start" x="584" y="-1007.5" font-family="Courier New" font-size="10.00">+ boundaryID</text>
<text text-anchor="start" x="584" y="-996.5" font-family="Courier New" font-size="10.00">+ somaID</text>
<text text-anchor="start" x="584" y="-985.5" font-family="Courier New" font-size="10.00">+ vertCount</text>
<text text-anchor="start" x="584" y="-974.5" font-family="Courier New" font-size="10.00">+ edgeCount</text>
<polyline fill="none" stroke="black" points="576,-967.5 749,-967.5 "/>
<text text-anchor="start" x="584" y="-955.5" font-family="Courier New" font-size="10.00">+ NeuronCell()</text>
<text text-anchor="start" x="584" y="-944.5" font-family="Courier New" font-size="10.00">+ NodeToString()</text>
<text text-anchor="start" x="584" y="-933.5" font-family="Courier New" font-size="10.00">+ EdgeToString()</text>
<text text-anchor="start" x="584" y="-922.5" font-family="Courier New" font-size="10.00">+ ToString()</text>
<text text-anchor="start" x="584" y="-911.5" font-family="Courier New" font-size="10.00">&#45; NodeNeighborsToString()</text>
<text text-anchor="start" x="584" y="-900.5" font-family="Courier New" font-size="10.00">&#45; GetEdgeLength()</text>
</a>
</g>
</g>
<!-- Node7&#45;&gt;Node2 -->
<g id="edge6" class="edge"><title>Node7&#45;&gt;Node2</title>
<path fill="none" stroke="#404040" d="M710.739,-893.481C724.237,-867.311 739.535,-837.654 755.227,-807.233"/>
<polygon fill="none" stroke="#404040" points="755.29,-807.11 754.486,-799.944 760.791,-796.445 761.595,-803.611 755.29,-807.11"/>
<text text-anchor="middle" x="774" y="-839.5" font-family="Courier New" font-size="10.00"> &#45;neuronCell</text>
</g>
<!-- Node8 -->
<g id="node8" class="node"><title>Node8</title>
<g id="a_node8"><a xlink:title=" ">
<polygon fill="white" stroke="#bfbfbf" points="636,-1301 636,-1358 689,-1358 689,-1301 636,-1301"/>
<text text-anchor="middle" x="662.5" y="-1346" font-family="Courier New" font-size="10.00">static</text>
<polyline fill="none" stroke="#bfbfbf" points="636,-1339 689,-1339 "/>
<text text-anchor="middle" x="662.5" y="-1327" font-family="Courier New" font-size="10.00"> </text>
<polyline fill="none" stroke="#bfbfbf" points="636,-1320 689,-1320 "/>
<text text-anchor="middle" x="662.5" y="-1308" font-family="Courier New" font-size="10.00"> </text>
</a>
</g>
</g>
<!-- Node8&#45;&gt;Node7 -->
<g id="edge7" class="edge"><title>Node8&#45;&gt;Node7</title>
<path fill="none" stroke="#404040" d="M662.5,-1300.72C662.5,-1256.26 662.5,-1166.82 662.5,-1095.11"/>
<polygon fill="none" stroke="#404040" points="662.5,-1094.85 658.5,-1088.85 662.5,-1082.85 666.5,-1088.85 662.5,-1094.85"/>
<text text-anchor="middle" x="717" y="-1148" font-family="Courier New" font-size="10.00"> &#45;nodeFormatString</text>
<text text-anchor="middle" x="717" y="-1137" font-family="Courier New" font-size="10.00">&#45;edgeFormatString</text>
<text text-anchor="middle" x="717" y="-1126" font-family="Courier New" font-size="10.00">&#45;cellFormatString</text>
</g>
<!-- Node8&#45;&gt;Node16 -->
<g id="edge17" class="edge"><title>Node8&#45;&gt;Node16</title>
<path fill="none" stroke="#404040" d="M661.546,-1300.98C659.248,-1268.33 651.606,-1213.36 626.5,-1174 619.519,-1163.06 612.597,-1165.26 603.5,-1156 590.659,-1142.93 577.985,-1128.53 565.912,-1113.82"/>
<polygon fill="none" stroke="#404040" points="565.617,-1113.45 558.733,-1111.31 558.07,-1104.12 564.953,-1106.27 565.617,-1113.45"/>
<text text-anchor="middle" x="631" y="-1137" font-family="Courier New" font-size="10.00"> &#45;nullHit</text>
</g>
<!-- Node9 -->
<g id="node9" class="node"><title>Node9</title>
<g id="a_node9"><a xlink:href="../../db/dbd/struct_c2_m2_1_1_neuronal_dynamics_1_1_simulation_1_1_vert3_d1_d_pair.html" target="_top" xlink:title="Stores two 1D indices and a lambda value for a 3D vertex">
<polygon fill="white" stroke="black" points="767,-937.5 767,-1038.5 982,-1038.5 982,-937.5 767,-937.5"/>
<text text-anchor="start" x="775" y="-1026.5" font-family="Courier New" font-size="10.00">C2M2.NeuronalDynamics.Simulation.</text>
<text text-anchor="middle" x="874.5" y="-1015.5" font-family="Courier New" font-size="10.00">Vert3D1DPair</text>
<polyline fill="none" stroke="black" points="767,-1008.5 982,-1008.5 "/>
<text text-anchor="start" x="775" y="-996.5" font-family="Courier New" font-size="10.00">+ v1</text>
<text text-anchor="start" x="775" y="-985.5" font-family="Courier New" font-size="10.00">+ v2</text>
<text text-anchor="start" x="775" y="-974.5" font-family="Courier New" font-size="10.00">+ lambda</text>
<polyline fill="none" stroke="black" points="767,-967.5 982,-967.5 "/>
<text text-anchor="start" x="775" y="-955.5" font-family="Courier New" font-size="10.00">+ Vert3D1DPair()</text>
<text text-anchor="start" x="775" y="-944.5" font-family="Courier New" font-size="10.00">+ ToString()</text>
</a>
</g>
</g>
<!-- Node9&#45;&gt;Node2 -->
<g id="edge8" class="edge"><title>Node9&#45;&gt;Node2</title>
<path fill="none" stroke="#404040" d="M874.5,-937.424C874.5,-907.76 874.5,-867.581 874.5,-824.779"/>
<polygon fill="none" stroke="#404040" points="874.5,-824.643 870.5,-818.643 874.5,-812.643 878.5,-818.643 874.5,-824.643"/>
<text text-anchor="middle" x="890" y="-839.5" font-family="Courier New" font-size="10.00"> &#45;map</text>
</g>
<!-- Node10 -->
<g id="node10" class="node"><title>Node10</title>
<g id="a_node10"><a xlink:title=" ">
<polygon fill="white" stroke="#bfbfbf" points="1000,-959.5 1000,-1016.5 1041,-1016.5 1041,-959.5 1000,-959.5"/>
<text text-anchor="middle" x="1020.5" y="-1004.5" font-family="Courier New" font-size="10.00">C2M2</text>
<polyline fill="none" stroke="#bfbfbf" points="1000,-997.5 1041,-997.5 "/>
<text text-anchor="middle" x="1020.5" y="-985.5" font-family="Courier New" font-size="10.00"> </text>
<polyline fill="none" stroke="#bfbfbf" points="1000,-978.5 1041,-978.5 "/>
<text text-anchor="middle" x="1020.5" y="-966.5" font-family="Courier New" font-size="10.00"> </text>
</a>
</g>
</g>
<!-- Node10&#45;&gt;Node2 -->
<g id="edge9" class="edge"><title>Node10&#45;&gt;Node2</title>
<path fill="none" stroke="#404040" d="M1014.28,-959.071C1008.78,-935.402 1000.13,-900.678 990.5,-871 985.51,-855.626 980.138,-839.897 974.537,-824.096"/>
<polygon fill="none" stroke="#404040" points="974.46,-823.881 968.674,-819.578 970.421,-812.582 976.207,-816.885 974.46,-823.881"/>
<text text-anchor="middle" x="1007" y="-845" font-family="Courier New" font-size="10.00"> &#45;grid1D</text>
<text text-anchor="middle" x="1007" y="-834" font-family="Courier New" font-size="10.00">&#45;grid2D</text>
</g>
<!-- Node11 -->
<g id="node11" class="node"><title>Node11</title>
<g id="a_node11"><a xlink:href="../../dd/d2a/struct_c2_m2_1_1_neuronal_dynamics_1_1_u_g_x_1_1_mapping_info.html" target="_top" xlink:title="Encapsulates the grids and mapping data">
<polygon fill="white" stroke="black" points="1059,-943 1059,-1033 1232,-1033 1232,-943 1059,-943"/>
<text text-anchor="start" x="1067" y="-1021" font-family="Courier New" font-size="10.00">C2M2.NeuronalDynamics.UGX.</text>
<text text-anchor="middle" x="1145.5" y="-1010" font-family="Courier New" font-size="10.00">MappingInfo</text>
<polyline fill="none" stroke="black" points="1059,-1003 1232,-1003 "/>
<text text-anchor="start" x="1067" y="-991" font-family="Courier New" font-size="10.00">+ ModelGeometry</text>
<text text-anchor="start" x="1067" y="-980" font-family="Courier New" font-size="10.00">+ SurfaceGeometry</text>
<text text-anchor="start" x="1067" y="-969" font-family="Courier New" font-size="10.00">+ Data</text>
<polyline fill="none" stroke="black" points="1059,-962 1232,-962 "/>
<text text-anchor="start" x="1067" y="-950" font-family="Courier New" font-size="10.00">+ MappingInfo()</text>
</a>
</g>
</g>
<!-- Node11&#45;&gt;Node2 -->
<g id="edge10" class="edge"><title>Node11&#45;&gt;Node2</title>
<path fill="none" stroke="#404040" d="M1116.24,-942.625C1086.89,-898.111 1039.72,-826.567 994.798,-758.445"/>
<polygon fill="none" stroke="#404040" points="994.796,-758.441 988.153,-755.634 988.19,-748.423 994.832,-751.23 994.796,-758.441"/>
<text text-anchor="middle" x="1078" y="-839.5" font-family="Courier New" font-size="10.00"> &#45;mapping</text>
</g>
<!-- Node12 -->
<g id="node12" class="node"><title>Node12</title>
<g id="a_node12"><a xlink:href="../../d1/d08/class_c2_m2_1_1_neuronal_dynamics_1_1_visualization_1_1_v_r_n_1_1_vrn_reader.html" target="_top" xlink:title=" ">
<polygon fill="white" stroke="black" points="1250,-926.5 1250,-1049.5 1483,-1049.5 1483,-926.5 1250,-926.5"/>
<text text-anchor="start" x="1258" y="-1037.5" font-family="Courier New" font-size="10.00">C2M2.NeuronalDynamics.Visualization.</text>
<text text-anchor="middle" x="1366.5" y="-1026.5" font-family="Courier New" font-size="10.00">VRN.VrnReader</text>
<polyline fill="none" stroke="black" points="1250,-1019.5 1483,-1019.5 "/>
<text text-anchor="start" x="1258" y="-1007.5" font-family="Courier New" font-size="10.00">&#45; fileName</text>
<text text-anchor="start" x="1258" y="-996.5" font-family="Courier New" font-size="10.00">&#45; loaded</text>
<polyline fill="none" stroke="black" points="1250,-989.5 1483,-989.5 "/>
<text text-anchor="start" x="1258" y="-977.5" font-family="Courier New" font-size="10.00">+ List()</text>
<text text-anchor="start" x="1258" y="-966.5" font-family="Courier New" font-size="10.00">+ ReadUGX()</text>
<text text-anchor="start" x="1258" y="-955.5" font-family="Courier New" font-size="10.00">+ Retrieve1DMeshName()</text>
<text text-anchor="start" x="1258" y="-944.5" font-family="Courier New" font-size="10.00">+ Retrieve2DMeshName()</text>
<text text-anchor="start" x="1258" y="-933.5" font-family="Courier New" font-size="10.00">+ VrnReader()</text>
</a>
</g>
</g>
<!-- Node12&#45;&gt;Node2 -->
<g id="edge11" class="edge"><title>Node12&#45;&gt;Node2</title>
<path fill="none" stroke="#404040" d="M1302.17,-926.265C1282.6,-908.209 1260.88,-888.566 1240.5,-871 1161.21,-802.679 1069.52,-728.779 997.741,-672.035"/>
<polygon fill="none" stroke="#404040" points="997.614,-671.934 990.426,-671.355 988.197,-664.497 995.384,-665.077 997.614,-671.934"/>
<text text-anchor="middle" x="1246" y="-839.5" font-family="Courier New" font-size="10.00"> &#45;vrnReader</text>
</g>
<!-- Node13 -->
<g id="node13" class="node"><title>Node13</title>
<g id="a_node13"><a xlink:href="../../d9/d5c/class_c2_m2_1_1_neuronal_dynamics_1_1_visualization_1_1_v_r_n_1_1_vrn_reader_1_1_geometry.html" target="_top" xlink:title="Stores 1D and associated 2D geometries in the member geom1d">
<polygon fill="white" stroke="black" points="1250,-1295.5 1250,-1363.5 1483,-1363.5 1483,-1295.5 1250,-1295.5"/>
<text text-anchor="start" x="1258" y="-1351.5" font-family="Courier New" font-size="10.00">C2M2.NeuronalDynamics.Visualization.</text>
<text text-anchor="middle" x="1366.5" y="-1340.5" font-family="Courier New" font-size="10.00">VRN.VrnReader.Geometry</text>
<polyline fill="none" stroke="black" points="1250,-1333.5 1483,-1333.5 "/>
<text text-anchor="middle" x="1366.5" y="-1321.5" font-family="Courier New" font-size="10.00"> </text>
<polyline fill="none" stroke="black" points="1250,-1314.5 1483,-1314.5 "/>
<text text-anchor="start" x="1258" y="-1302.5" font-family="Courier New" font-size="10.00">+ Geometry()</text>
</a>
</g>
</g>
<!-- Node13&#45;&gt;Node12 -->
<g id="edge12" class="edge"><title>Node13&#45;&gt;Node12</title>
<path fill="none" stroke="#404040" d="M1366.5,-1295.33C1366.5,-1241.54 1366.5,-1134.06 1366.5,-1061.81"/>
<polygon fill="none" stroke="#404040" points="1366.5,-1061.65 1362.5,-1055.65 1366.5,-1049.65 1370.5,-1055.65 1366.5,-1061.65"/>
<text text-anchor="middle" x="1397" y="-1137" font-family="Courier New" font-size="10.00"> &#45;geometry</text>
</g>
<!-- Node14 -->
<g id="node14" class="node"><title>Node14</title>
<g id="a_node14"><a xlink:href="../../dd/df0/struct_c2_m2_1_1_neuronal_dynamics_1_1_visualization_1_1_v_r_n_1_1_vrn_reader_1_1_geom1d.html" target="_top" xlink:title="Stores the 1D geometries by name, refinement and a description Inflations are attached to the 1D geom...">
<polygon fill="white" stroke="black" points="1250,-1554.5 1250,-1644.5 1483,-1644.5 1483,-1554.5 1250,-1554.5"/>
<text text-anchor="start" x="1258" y="-1632.5" font-family="Courier New" font-size="10.00">C2M2.NeuronalDynamics.Visualization.</text>
<text text-anchor="middle" x="1366.5" y="-1621.5" font-family="Courier New" font-size="10.00">VRN.VrnReader.Geom1d</text>
<polyline fill="none" stroke="black" points="1250,-1614.5 1483,-1614.5 "/>
<text text-anchor="start" x="1258" y="-1602.5" font-family="Courier New" font-size="10.00">+ name</text>
<text text-anchor="start" x="1258" y="-1591.5" font-family="Courier New" font-size="10.00">+ refinement</text>
<text text-anchor="start" x="1258" y="-1580.5" font-family="Courier New" font-size="10.00">+ description</text>
<polyline fill="none" stroke="black" points="1250,-1573.5 1483,-1573.5 "/>
<text text-anchor="start" x="1258" y="-1561.5" font-family="Courier New" font-size="10.00">+ Geom1d()</text>
</a>
</g>
</g>
<!-- Node14&#45;&gt;Node13 -->
<g id="edge13" class="edge"><title>Node14&#45;&gt;Node13</title>
<path fill="none" stroke="#404040" d="M1366.5,-1554.25C1366.5,-1505.01 1366.5,-1425.86 1366.5,-1376.09"/>
<polygon fill="none" stroke="#404040" points="1366.5,-1375.8 1362.5,-1369.8 1366.5,-1363.8 1370.5,-1369.8 1366.5,-1375.8"/>
<text text-anchor="middle" x="1391" y="-1517" font-family="Courier New" font-size="10.00"> +geom1d</text>
</g>
<!-- Node15 -->
<g id="node15" class="node"><title>Node15</title>
<g id="a_node15"><a xlink:href="../../d8/daf/struct_c2_m2_1_1_neuronal_dynamics_1_1_visualization_1_1_v_r_n_1_1_vrn_reader_1_1_geom2d.html" target="_top" xlink:title="Stores the 2d geometries by name, inflation (factor), and description">
<polygon fill="white" stroke="black" points="1250,-1692.5 1250,-1782.5 1483,-1782.5 1483,-1692.5 1250,-1692.5"/>
<text text-anchor="start" x="1258" y="-1770.5" font-family="Courier New" font-size="10.00">C2M2.NeuronalDynamics.Visualization.</text>
<text text-anchor="middle" x="1366.5" y="-1759.5" font-family="Courier New" font-size="10.00">VRN.VrnReader.Geom2d</text>
<polyline fill="none" stroke="black" points="1250,-1752.5 1483,-1752.5 "/>
<text text-anchor="start" x="1258" y="-1740.5" font-family="Courier New" font-size="10.00">+ inflation</text>
<text text-anchor="start" x="1258" y="-1729.5" font-family="Courier New" font-size="10.00">+ name</text>
<text text-anchor="start" x="1258" y="-1718.5" font-family="Courier New" font-size="10.00">+ description</text>
<polyline fill="none" stroke="black" points="1250,-1711.5 1483,-1711.5 "/>
<text text-anchor="start" x="1258" y="-1699.5" font-family="Courier New" font-size="10.00">+ Geom2d()</text>
</a>
</g>
</g>
<!-- Node15&#45;&gt;Node14 -->
<g id="edge14" class="edge"><title>Node15&#45;&gt;Node14</title>
<path fill="none" stroke="#404040" d="M1366.5,-1692.34C1366.5,-1681.06 1366.5,-1668.78 1366.5,-1656.97"/>
<polygon fill="none" stroke="#404040" points="1366.5,-1656.9 1362.5,-1650.9 1366.5,-1644.9 1370.5,-1650.9 1366.5,-1656.9"/>
<text text-anchor="middle" x="1403" y="-1666" font-family="Courier New" font-size="10.00"> +inflations</text>
</g>
<!-- Node16&#45;&gt;Node2 -->
<g id="edge15" class="edge"><title>Node16&#45;&gt;Node2</title>
<path fill="none" stroke="#404040" d="M558.099,-880.573C560.9,-877.318 563.705,-874.119 566.5,-871 624.313,-806.489 693.612,-739.33 751.823,-685.416"/>
<polygon fill="none" stroke="#404040" points="751.882,-685.362 753.576,-678.352 760.698,-677.22 759.004,-684.229 751.882,-685.362"/>
<text text-anchor="middle" x="647" y="-839.5" font-family="Courier New" font-size="10.00"> &#45;raycastManager</text>
</g>
<!-- Node17&#45;&gt;Node16 -->
<g id="edge18" class="edge"><title>Node17&#45;&gt;Node16</title>
<path fill="none" stroke="#404040" d="M515.507,-1273.16C503.352,-1239.8 489.358,-1196.12 482.5,-1156 480.349,-1143.41 478.789,-1130.22 477.682,-1116.99"/>
<polygon fill="none" stroke="#404040" points="477.67,-1116.82 473.24,-1111.13 476.788,-1104.86 481.218,-1110.55 477.67,-1116.82"/>
<text text-anchor="middle" x="522" y="-1148" font-family="Courier New" font-size="10.00"> +leftTrigger</text>
<text text-anchor="middle" x="522" y="-1137" font-family="Courier New" font-size="10.00">+rightTrigger</text>
<text text-anchor="middle" x="522" y="-1126" font-family="Courier New" font-size="10.00">&#45;emptyTrigger</text>
</g>
<!-- Node18 -->
<g id="node18" class="node"><title>Node18</title>
<g id="a_node18"><a xlink:href="../../d2/d43/class_c2_m2_1_1_interaction_1_1_raycast_press_events_1_1_raycast_hit_event.html" target="_top" xlink:title=" ">
<polygon fill="white" stroke="black" points="471,-1565.5 471,-1633.5 650,-1633.5 650,-1565.5 471,-1565.5"/>
<text text-anchor="start" x="479" y="-1621.5" font-family="Courier New" font-size="10.00">C2M2.Interaction.Raycast</text>
<text text-anchor="middle" x="560.5" y="-1610.5" font-family="Courier New" font-size="10.00">PressEvents.RaycastHitEvent</text>
<polyline fill="none" stroke="black" points="471,-1603.5 650,-1603.5 "/>
<text text-anchor="middle" x="560.5" y="-1591.5" font-family="Courier New" font-size="10.00"> </text>
<polyline fill="none" stroke="black" points="471,-1584.5 650,-1584.5 "/>
<text text-anchor="middle" x="560.5" y="-1572.5" font-family="Courier New" font-size="10.00"> </text>
</a>
</g>
</g>
<!-- Node18&#45;&gt;Node17 -->
<g id="edge20" class="edge"><title>Node18&#45;&gt;Node17</title>
<path fill="none" stroke="#404040" d="M557.657,-1565.37C554.083,-1523.73 547.862,-1451.24 543.274,-1397.78"/>
<polygon fill="none" stroke="#404040" points="543.26,-1397.61 538.761,-1391.97 542.233,-1385.65 546.732,-1391.29 543.26,-1397.61"/>
<text text-anchor="middle" x="592" y="-1528" font-family="Courier New" font-size="10.00"> &#45;onPress</text>
<text text-anchor="middle" x="592" y="-1517" font-family="Courier New" font-size="10.00">&#45;onHoldPress</text>
<text text-anchor="middle" x="592" y="-1506" font-family="Courier New" font-size="10.00">&#45;onEndPress</text>
</g>
<!-- Node19 -->
<g id="node19" class="node"><title>Node19</title>
<g id="a_node19"><a xlink:title=" ">
<polygon fill="white" stroke="#bfbfbf" points="480,-1709 480,-1766 641,-1766 641,-1709 480,-1709"/>
<text text-anchor="middle" x="560.5" y="-1754" font-family="Courier New" font-size="10.00">UnityEvent&lt; RaycastHit &gt;</text>
<polyline fill="none" stroke="#bfbfbf" points="480,-1747 641,-1747 "/>
<text text-anchor="middle" x="560.5" y="-1735" font-family="Courier New" font-size="10.00"> </text>
<polyline fill="none" stroke="#bfbfbf" points="480,-1728 641,-1728 "/>
<text text-anchor="middle" x="560.5" y="-1716" font-family="Courier New" font-size="10.00"> </text>
</a>
</g>
</g>
<!-- Node19&#45;&gt;Node18 -->
<g id="edge21" class="edge"><title>Node19&#45;&gt;Node18</title>
<path fill="none" stroke="midnightblue" d="M560.5,-1698.78C560.5,-1678.38 560.5,-1653.41 560.5,-1633.75"/>
<polygon fill="none" stroke="midnightblue" points="557,-1698.98 560.5,-1708.98 564,-1698.98 557,-1698.98"/>
</g>
</g>
</svg>
