<?xml version="1.0" encoding="UTF-8" standalone="no"?>
<!DOCTYPE svg PUBLIC "-//W3C//DTD SVG 1.1//EN"
 "http://www.w3.org/Graphics/SVG/1.1/DTD/svg11.dtd">
<!-- Generated by graphviz version 2.38.0 (20140413.2041)
 -->
<!-- Title: C2M2.NeuronalDynamics.Simulation.CellSolver2SimpleFE Pages: 1 -->
<!--zoomable 1381 -->
<svg id="main" version="1.1" xmlns="http://www.w3.org/2000/svg" xmlns:xlink="http://www.w3.org/1999/xlink" xml:space="preserve" onload="init(evt)">
<style type="text/css"><![CDATA[
.edge:hover path { stroke: red; }
.edge:hover polygon { stroke: red; fill: red; }
]]></style>
<script type="text/javascript"><![CDATA[
var edges = document.getElementsByTagName('g');
if (edges && edges.length) {
  for (var i=0;i<edges.length;i++) {
    if (edges[i].id.substr(0,4)=='edge') {
      edges[i].setAttribute('class','edge');
    }
  }
}
]]></script>
        <defs>
                <circle id="rim" cx="0" cy="0" r="7"/>
                <circle id="rim2" cx="0" cy="0" r="3.5"/>
                <g id="zoomPlus">
                        <use xlink:href="#rim" fill="#404040">
                                <set attributeName="fill" to="#808080" begin="zoomplus.mouseover" end="zoomplus.mouseout"/>
                        </use>
                        <path d="M-4,0h8M0,-4v8" fill="none" stroke="white" stroke-width="1.5" pointer-events="none"/>
                </g>
                <g id="zoomMin">
                        <use xlink:href="#rim" fill="#404040">
                                <set attributeName="fill" to="#808080" begin="zoomminus.mouseover" end="zoomminus.mouseout"/>
                        </use>
                        <path d="M-4,0h8" fill="none" stroke="white" stroke-width="1.5" pointer-events="none"/>
                </g>
                <g id="dirArrow">
                        <path fill="none" stroke="white" stroke-width="1.5" d="M0,-3.0v7 M-2.5,-0.5L0,-3.0L2.5,-0.5"/>
                </g>
               <g id="resetDef">
                       <use xlink:href="#rim2" fill="#404040">
                               <set attributeName="fill" to="#808080" begin="reset.mouseover" end="reset.mouseout"/>
                       </use>
               </g>
        </defs>

<script type="text/javascript">
var viewWidth = 912;
var viewHeight = 1381;
var sectionId = 'dynsection-1';
</script>
<script xlink:href="../../svgpan.js"/>
<svg id="graph" class="graph">
<g id="viewport">
<title>C2M2.NeuronalDynamics.Simulation.CellSolver2SimpleFE</title>
<polygon fill="white" stroke="none" points="-4,4 -4,-1377 907.5,-1377 907.5,4 -4,4"/>
<!-- Node1 -->
<g id="node1" class="node"><title>Node1</title>
<g id="a_node1"><a xlink:title=" ">
<polygon fill="#bfbfbf" stroke="black" points="573,-0.5 573,-277.5 788,-277.5 788,-0.5 573,-0.5"/>
<text text-anchor="start" x="581" y="-265.5" font-family="Courier New" font-size="10.00">C2M2.NeuronalDynamics.Simulation.</text>
<text text-anchor="middle" x="680.5" y="-254.5" font-family="Courier New" font-size="10.00">CellSolver2SimpleFE</text>
<polyline fill="none" stroke="black" points="573,-247.5 788,-247.5 "/>
<text text-anchor="start" x="581" y="-235.5" font-family="Courier New" font-size="10.00">+ res</text>
<text text-anchor="start" x="581" y="-224.5" font-family="Courier New" font-size="10.00">+ gk</text>
<text text-anchor="start" x="581" y="-213.5" font-family="Courier New" font-size="10.00">+ gna</text>
<text text-anchor="start" x="581" y="-202.5" font-family="Courier New" font-size="10.00">+ gl</text>
<text text-anchor="start" x="581" y="-191.5" font-family="Courier New" font-size="10.00">+ ek</text>
<text text-anchor="start" x="581" y="-180.5" font-family="Courier New" font-size="10.00">+ ena</text>
<text text-anchor="start" x="581" y="-169.5" font-family="Courier New" font-size="10.00">+ el</text>
<text text-anchor="start" x="581" y="-158.5" font-family="Courier New" font-size="10.00">+ cap</text>
<text text-anchor="start" x="581" y="-147.5" font-family="Courier New" font-size="10.00">+ ni</text>
<text text-anchor="start" x="581" y="-136.5" font-family="Courier New" font-size="10.00">+ nT</text>
<text text-anchor="start" x="581" y="-125.5" font-family="Courier New" font-size="10.00">+ endTime</text>
<text text-anchor="start" x="581" y="-114.5" font-family="Courier New" font-size="10.00">+ vstart</text>
<text text-anchor="start" x="581" y="-103.5" font-family="Courier New" font-size="10.00">&#45; U</text>
<text text-anchor="start" x="581" y="-92.5" font-family="Courier New" font-size="10.00">&#45; i</text>
<text text-anchor="start" x="581" y="-81.5" font-family="Courier New" font-size="10.00">&#45; mi</text>
<text text-anchor="start" x="581" y="-70.5" font-family="Courier New" font-size="10.00">&#45; hi</text>
<polyline fill="none" stroke="black" points="573,-63.5 788,-63.5 "/>
<text text-anchor="start" x="581" y="-51.5" font-family="Courier New" font-size="10.00">+ initialConditions()</text>
<text text-anchor="start" x="581" y="-40.5" font-family="Courier New" font-size="10.00"># SetNeuronCell()</text>
<text text-anchor="start" x="581" y="-29.5" font-family="Courier New" font-size="10.00"># Get1DValues()</text>
<text text-anchor="start" x="581" y="-18.5" font-family="Courier New" font-size="10.00"># Set1DValues()</text>
<text text-anchor="start" x="581" y="-7.5" font-family="Courier New" font-size="10.00"># Solve()</text>
</a>
</g>
</g>
<!-- Node2 -->
<g id="node2" class="node"><title>Node2</title>
<g id="a_node2"><a xlink:href="../../d4/d5a/class_c2_m2_1_1_neuronal_dynamics_1_1_simulation_1_1_neuron_simulation1_d.html" target="_top" xlink:title="Provide an interface for 1D neuron&#45;surface simulations to be visualized and interacted with">
<polygon fill="white" stroke="black" points="475,-325.5 475,-657.5 624,-657.5 624,-325.5 475,-325.5"/>
<text text-anchor="middle" x="549.5" y="-645.5" font-family="Courier New" font-size="10.00">NeuronSimulation1D</text>
<polyline fill="none" stroke="black" points="475,-638.5 624,-638.5 "/>
<text text-anchor="start" x="483" y="-626.5" font-family="Courier New" font-size="10.00">+ refinementLevel</text>
<text text-anchor="start" x="483" y="-615.5" font-family="Courier New" font-size="10.00">+ cell1xPath</text>
<text text-anchor="start" x="483" y="-604.5" font-family="Courier New" font-size="10.00">+ cell2xPath</text>
<text text-anchor="start" x="483" y="-593.5" font-family="Courier New" font-size="10.00">+ cell3xPath</text>
<text text-anchor="start" x="483" y="-582.5" font-family="Courier New" font-size="10.00">+ cell4xPath</text>
<text text-anchor="start" x="483" y="-571.5" font-family="Courier New" font-size="10.00">+ cell5xPath</text>
<text text-anchor="start" x="483" y="-560.5" font-family="Courier New" font-size="10.00">+ visualize1D</text>
<text text-anchor="start" x="483" y="-549.5" font-family="Courier New" font-size="10.00">+ color1D</text>
<text text-anchor="start" x="483" y="-538.5" font-family="Courier New" font-size="10.00">+ lineWidth1D</text>
<text text-anchor="start" x="483" y="-527.5" font-family="Courier New" font-size="10.00">&#45; meshScale</text>
<text text-anchor="start" x="483" y="-516.5" font-family="Courier New" font-size="10.00">&#45; meshColScale</text>
<text text-anchor="start" x="483" y="-505.5" font-family="Courier New" font-size="10.00">&#45; map</text>
<text text-anchor="start" x="483" y="-494.5" font-family="Courier New" font-size="10.00">&#45; scaledMeshes</text>
<polyline fill="none" stroke="black" points="475,-487.5 624,-487.5 "/>
<text text-anchor="start" x="483" y="-475.5" font-family="Courier New" font-size="10.00">+ GetValues()</text>
<text text-anchor="start" x="483" y="-464.5" font-family="Courier New" font-size="10.00">+ SetValues()</text>
<text text-anchor="start" x="483" y="-453.5" font-family="Courier New" font-size="10.00">+ RescaleMesh()</text>
<text text-anchor="start" x="483" y="-442.5" font-family="Courier New" font-size="10.00">+ SwitchColliderMesh()</text>
<text text-anchor="start" x="483" y="-431.5" font-family="Courier New" font-size="10.00">+ SwitchMesh()</text>
<text text-anchor="start" x="483" y="-420.5" font-family="Courier New" font-size="10.00"># Set1DValues()</text>
<text text-anchor="start" x="483" y="-409.5" font-family="Courier New" font-size="10.00"># Get1DValues()</text>
<text text-anchor="start" x="483" y="-398.5" font-family="Courier New" font-size="10.00"># SetNeuronCell()</text>
<text text-anchor="start" x="483" y="-387.5" font-family="Courier New" font-size="10.00"># ReadData()</text>
<text text-anchor="start" x="483" y="-376.5" font-family="Courier New" font-size="10.00"># BuildVisualization()</text>
<text text-anchor="start" x="483" y="-365.5" font-family="Courier New" font-size="10.00">&#45; BuildUI()</text>
<text text-anchor="start" x="483" y="-354.5" font-family="Courier New" font-size="10.00">&#45; Clean3DCell()</text>
<text text-anchor="start" x="483" y="-343.5" font-family="Courier New" font-size="10.00">&#45; BuildMesh()</text>
<text text-anchor="start" x="483" y="-332.5" font-family="Courier New" font-size="10.00">&#45; SwitchColliderMesh()</text>
</a>
</g>
</g>
<!-- Node2&#45;&gt;Node1 -->
<g id="edge1" class="edge"><title>Node2&#45;&gt;Node1</title>
<path fill="none" stroke="midnightblue" d="M614.9,-315.518C619.662,-302.777 624.425,-290.033 629.088,-277.557"/>
<polygon fill="none" stroke="midnightblue" points="611.482,-314.664 611.26,-325.257 618.039,-317.115 611.482,-314.664"/>
</g>
<!-- Node3 -->
<g id="node3" class="node"><title>Node3</title>
<g id="a_node3"><a xlink:href="../../d6/d2d/class_c2_m2_1_1_simulation_1_1_mesh_simulation.html" target="_top" xlink:title="Simulation of type double[] for visualizing scalar fields on mesh surfaces">
<polygon fill="white" stroke="black" points="171,-727.5 171,-872.5 326,-872.5 326,-727.5 171,-727.5"/>
<text text-anchor="middle" x="248.5" y="-860.5" font-family="Courier New" font-size="10.00">MeshSimulation</text>
<polyline fill="none" stroke="black" points="171,-853.5 326,-853.5 "/>
<text text-anchor="start" x="179" y="-841.5" font-family="Courier New" font-size="10.00">+ gradient</text>
<text text-anchor="start" x="179" y="-830.5" font-family="Courier New" font-size="10.00">+ globalMax</text>
<text text-anchor="start" x="179" y="-819.5" font-family="Courier New" font-size="10.00">+ globalMin</text>
<text text-anchor="start" x="179" y="-808.5" font-family="Courier New" font-size="10.00">+ colorLUT</text>
<text text-anchor="start" x="179" y="-797.5" font-family="Courier New" font-size="10.00"># colliderMesh</text>
<text text-anchor="start" x="179" y="-786.5" font-family="Courier New" font-size="10.00">&#45; mf</text>
<text text-anchor="start" x="179" y="-775.5" font-family="Courier New" font-size="10.00">&#45; mr</text>
<polyline fill="none" stroke="black" points="171,-768.5 326,-768.5 "/>
<text text-anchor="start" x="179" y="-756.5" font-family="Courier New" font-size="10.00"># UpdateVisualization()</text>
<text text-anchor="start" x="179" y="-745.5" font-family="Courier New" font-size="10.00"># OnAwake()</text>
<text text-anchor="start" x="179" y="-734.5" font-family="Courier New" font-size="10.00">&#45; UpdateVisualization()</text>
</a>
</g>
</g>
<!-- Node3&#45;&gt;Node2 -->
<g id="edge2" class="edge"><title>Node3&#45;&gt;Node2</title>
<path fill="none" stroke="midnightblue" d="M326.314,-719.764C372.098,-673.144 429.693,-614.496 474.906,-568.457"/>
<polygon fill="none" stroke="midnightblue" points="323.581,-717.552 319.071,-727.139 328.575,-722.457 323.581,-717.552"/>
</g>
<!-- Node4 -->
<g id="node4" class="node"><title>Node4</title>
<g id="a_node4"><a xlink:href="../../db/d39/class_c2_m2_1_1_simulation_1_1_simulation.html" target="_top" xlink:title=" ">
<polygon fill="white" stroke="black" points="0,-1000.5 0,-1277.5 185,-1277.5 185,-1000.5 0,-1000.5"/>
<text text-anchor="start" x="8" y="-1265.5" font-family="Courier New" font-size="10.00">Simulation&lt; double</text>
<text text-anchor="start" x="8" y="-1254.5" font-family="Courier New" font-size="10.00">[], Mesh, VRRaycastableMesh,</text>
<text text-anchor="middle" x="92.5" y="-1243.5" font-family="Courier New" font-size="10.00"> VRGrabbableMesh &gt;</text>
<polyline fill="none" stroke="black" points="0,-1236.5 185,-1236.5 "/>
<text text-anchor="start" x="8" y="-1224.5" font-family="Courier New" font-size="10.00">+ dryRun</text>
<text text-anchor="start" x="8" y="-1213.5" font-family="Courier New" font-size="10.00">+ startOnAwake</text>
<text text-anchor="start" x="8" y="-1202.5" font-family="Courier New" font-size="10.00">+ viz</text>
<text text-anchor="start" x="8" y="-1191.5" font-family="Courier New" font-size="10.00"># mutex</text>
<text text-anchor="start" x="8" y="-1180.5" font-family="Courier New" font-size="10.00">&#45; solveThread</text>
<polyline fill="none" stroke="black" points="0,-1173.5 185,-1173.5 "/>
<text text-anchor="start" x="8" y="-1161.5" font-family="Courier New" font-size="10.00">+ GetValues()</text>
<text text-anchor="start" x="8" y="-1150.5" font-family="Courier New" font-size="10.00">+ StartSimulation()</text>
<text text-anchor="start" x="8" y="-1139.5" font-family="Courier New" font-size="10.00">+ StopSimulation()</text>
<text text-anchor="start" x="8" y="-1128.5" font-family="Courier New" font-size="10.00">+ Awake()</text>
<text text-anchor="start" x="8" y="-1117.5" font-family="Courier New" font-size="10.00">+ Start()</text>
<text text-anchor="start" x="8" y="-1106.5" font-family="Courier New" font-size="10.00">+ Update()</text>
<text text-anchor="start" x="8" y="-1095.5" font-family="Courier New" font-size="10.00"># BuildVisualization()</text>
<text text-anchor="start" x="8" y="-1084.5" font-family="Courier New" font-size="10.00"># ReadData()</text>
<text text-anchor="start" x="8" y="-1073.5" font-family="Courier New" font-size="10.00"># UpdateVisualization()</text>
<text text-anchor="start" x="8" y="-1062.5" font-family="Courier New" font-size="10.00"># Solve()</text>
<text text-anchor="start" x="8" y="-1051.5" font-family="Courier New" font-size="10.00"># OnAwake()</text>
<text text-anchor="start" x="8" y="-1040.5" font-family="Courier New" font-size="10.00"># OnStart()</text>
<text text-anchor="start" x="8" y="-1029.5" font-family="Courier New" font-size="10.00"># OnUpdate()</text>
<text text-anchor="start" x="8" y="-1018.5" font-family="Courier New" font-size="10.00">&#45; OnApplicationPause()</text>
<text text-anchor="start" x="8" y="-1007.5" font-family="Courier New" font-size="10.00">&#45; OnApplicationQuit()</text>
</a>
</g>
</g>
<!-- Node4&#45;&gt;Node3 -->
<g id="edge3" class="edge"><title>Node4&#45;&gt;Node3</title>
<path fill="none" stroke="midnightblue" d="M160.477,-991.152C179.502,-950.053 199.337,-907.206 215.35,-872.612"/>
<polygon fill="none" stroke="midnightblue" points="157.201,-989.898 156.176,-1000.44 163.553,-992.839 157.201,-989.898"/>
</g>
<!-- Node5 -->
<g id="node5" class="node"><title>Node5</title>
<g id="a_node5"><a xlink:href="../../da/d4f/class_c2_m2_1_1_visualization_1_1_l_u_t_gradient.html" target="_top" xlink:title="Create a fast and memory&#45;friendly color lookup table from a gradient">
<polygon fill="white" stroke="black" points="203,-1055.5 203,-1222.5 400,-1222.5 400,-1055.5 203,-1055.5"/>
<text text-anchor="middle" x="301.5" y="-1210.5" font-family="Courier New" font-size="10.00">C2M2.Visualization.LUTGradient</text>
<polyline fill="none" stroke="black" points="203,-1203.5 400,-1203.5 "/>
<text text-anchor="start" x="211" y="-1191.5" font-family="Courier New" font-size="10.00">+ extremaMethod</text>
<text text-anchor="start" x="211" y="-1180.5" font-family="Courier New" font-size="10.00">+ globalMax</text>
<text text-anchor="start" x="211" y="-1169.5" font-family="Courier New" font-size="10.00">+ globalMin</text>
<text text-anchor="start" x="211" y="-1158.5" font-family="Courier New" font-size="10.00">+ LutRes</text>
<text text-anchor="start" x="211" y="-1147.5" font-family="Courier New" font-size="10.00">+ Gradient</text>
<text text-anchor="start" x="211" y="-1136.5" font-family="Courier New" font-size="10.00">+ gradientLUT</text>
<text text-anchor="start" x="211" y="-1125.5" font-family="Courier New" font-size="10.00">&#45; lutRes</text>
<text text-anchor="start" x="211" y="-1114.5" font-family="Courier New" font-size="10.00">&#45; gradient</text>
<polyline fill="none" stroke="black" points="203,-1107.5 400,-1107.5 "/>
<text text-anchor="start" x="211" y="-1095.5" font-family="Courier New" font-size="10.00">+ Evaluate()</text>
<text text-anchor="start" x="211" y="-1084.5" font-family="Courier New" font-size="10.00">+ Evaluate()</text>
<text text-anchor="start" x="211" y="-1073.5" font-family="Courier New" font-size="10.00">&#45; BuildLUT()</text>
<text text-anchor="start" x="211" y="-1062.5" font-family="Courier New" font-size="10.00">&#45; RescaleArray()</text>
</a>
</g>
</g>
<!-- Node5&#45;&gt;Node3 -->
<g id="edge4" class="edge"><title>Node5&#45;&gt;Node3</title>
<path fill="none" stroke="#404040" d="M265.193,-1055.29C256.672,-1032.04 248.821,-1006.42 244.5,-982 237.452,-942.174 243.602,-931.434 244.5,-891 244.545,-888.957 244.597,-886.889 244.653,-884.803"/>
<polygon fill="none" stroke="#404040" points="244.656,-884.707 240.842,-878.587 245.025,-872.713 248.839,-878.834 244.656,-884.707"/>
<text text-anchor="middle" x="290" y="-934" font-family="Courier New" font-size="10.00"> +extremaMethod</text>
</g>
<!-- Node6 -->
<g id="node6" class="node"><title>Node6</title>
<g id="a_node6"><a xlink:title=" ">
<polygon fill="white" stroke="#bfbfbf" points="343,-1315.5 343,-1372.5 438,-1372.5 438,-1315.5 343,-1315.5"/>
<text text-anchor="middle" x="390.5" y="-1360.5" font-family="Courier New" font-size="10.00">MonoBehaviour</text>
<polyline fill="none" stroke="#bfbfbf" points="343,-1353.5 438,-1353.5 "/>
<text text-anchor="middle" x="390.5" y="-1341.5" font-family="Courier New" font-size="10.00"> </text>
<polyline fill="none" stroke="#bfbfbf" points="343,-1334.5 438,-1334.5 "/>
<text text-anchor="middle" x="390.5" y="-1322.5" font-family="Courier New" font-size="10.00"> </text>
</a>
</g>
</g>
<!-- Node6&#45;&gt;Node5 -->
<g id="edge5" class="edge"><title>Node6&#45;&gt;Node5</title>
<path fill="none" stroke="midnightblue" d="M374.29,-1306.03C364.064,-1282.7 350.434,-1251.61 337.734,-1222.65"/>
<polygon fill="none" stroke="midnightblue" points="371.091,-1307.45 378.312,-1315.2 377.502,-1304.64 371.091,-1307.45"/>
</g>
<!-- Node9 -->
<g id="node9" class="node"><title>Node9</title>
<g id="a_node9"><a xlink:href="../../dc/d72/class_c2_m2_1_1_utils_1_1_mesh_utils_1_1_mesh_col_controller.html" target="_top" xlink:title="Set this.mesh to quickly look up and update a MeshCollider&#39;s mesh">
<polygon fill="white" stroke="black" points="345,-891.5 345,-981.5 512,-981.5 512,-891.5 345,-891.5"/>
<text text-anchor="start" x="353" y="-969.5" font-family="Courier New" font-size="10.00">C2M2.Utils.MeshUtils.Mesh</text>
<text text-anchor="middle" x="428.5" y="-958.5" font-family="Courier New" font-size="10.00">ColController</text>
<polyline fill="none" stroke="black" points="345,-951.5 512,-951.5 "/>
<text text-anchor="start" x="353" y="-939.5" font-family="Courier New" font-size="10.00">+ meshCol</text>
<text text-anchor="start" x="353" y="-928.5" font-family="Courier New" font-size="10.00">+ Mesh</text>
<text text-anchor="start" x="353" y="-917.5" font-family="Courier New" font-size="10.00">&#45; mesh</text>
<polyline fill="none" stroke="black" points="345,-910.5 512,-910.5 "/>
<text text-anchor="middle" x="428.5" y="-898.5" font-family="Courier New" font-size="10.00"> </text>
</a>
</g>
</g>
<!-- Node6&#45;&gt;Node9 -->
<g id="edge9" class="edge"><title>Node6&#45;&gt;Node9</title>
<path fill="none" stroke="midnightblue" d="M402.294,-1305.65C404.723,-1296.68 406.996,-1287.06 408.5,-1278 425.97,-1172.7 428.754,-1046.88 428.872,-981.637"/>
<polygon fill="none" stroke="midnightblue" points="398.876,-1304.88 399.517,-1315.45 405.611,-1306.79 398.876,-1304.88"/>
</g>
<!-- Node7 -->
<g id="node7" class="node"><title>Node7</title>
<g id="a_node7"><a xlink:title=" ">
<polygon fill="white" stroke="#bfbfbf" points="529,-771.5 529,-828.5 570,-828.5 570,-771.5 529,-771.5"/>
<text text-anchor="middle" x="549.5" y="-816.5" font-family="Courier New" font-size="10.00">C2M2</text>
<polyline fill="none" stroke="#bfbfbf" points="529,-809.5 570,-809.5 "/>
<text text-anchor="middle" x="549.5" y="-797.5" font-family="Courier New" font-size="10.00"> </text>
<polyline fill="none" stroke="#bfbfbf" points="529,-790.5 570,-790.5 "/>
<text text-anchor="middle" x="549.5" y="-778.5" font-family="Courier New" font-size="10.00"> </text>
</a>
</g>
</g>
<!-- Node7&#45;&gt;Node2 -->
<g id="edge6" class="edge"><title>Node7&#45;&gt;Node2</title>
<path fill="none" stroke="#404040" d="M549.5,-771.26C549.5,-746.969 549.5,-709.425 549.5,-669.68"/>
<polygon fill="none" stroke="#404040" points="549.5,-669.572 545.5,-663.572 549.5,-657.572 553.5,-663.572 549.5,-669.572"/>
<text text-anchor="middle" x="574" y="-690" font-family="Courier New" font-size="10.00"> #grid1D</text>
</g>
<!-- Node8 -->
<g id="node8" class="node"><title>Node8</title>
<g id="a_node8"><a xlink:href="../../dd/d2a/struct_c2_m2_1_1_neuronal_dynamics_1_1_u_g_x_1_1_mapping_info.html" target="_top" xlink:title="Encapsulates the grids and mapping data">
<polygon fill="white" stroke="black" points="588,-755 588,-845 761,-845 761,-755 588,-755"/>
<text text-anchor="start" x="596" y="-833" font-family="Courier New" font-size="10.00">C2M2.NeuronalDynamics.UGX.</text>
<text text-anchor="middle" x="674.5" y="-822" font-family="Courier New" font-size="10.00">MappingInfo</text>
<polyline fill="none" stroke="black" points="588,-815 761,-815 "/>
<text text-anchor="start" x="596" y="-803" font-family="Courier New" font-size="10.00">+ ModelGeometry</text>
<text text-anchor="start" x="596" y="-792" font-family="Courier New" font-size="10.00">+ SurfaceGeometry</text>
<text text-anchor="start" x="596" y="-781" font-family="Courier New" font-size="10.00">+ Data</text>
<polyline fill="none" stroke="black" points="588,-774 761,-774 "/>
<text text-anchor="start" x="596" y="-762" font-family="Courier New" font-size="10.00">+ MappingInfo()</text>
</a>
</g>
</g>
<!-- Node8&#45;&gt;Node2 -->
<g id="edge7" class="edge"><title>Node8&#45;&gt;Node2</title>
<path fill="none" stroke="#404040" d="M656.457,-754.76C646.902,-731.329 634.471,-700.85 621.481,-668.998"/>
<polygon fill="none" stroke="#404040" points="621.399,-668.796 615.429,-664.751 616.867,-657.684 622.837,-661.73 621.399,-668.796"/>
<text text-anchor="middle" x="666" y="-690" font-family="Courier New" font-size="10.00"> &#45;mapping</text>
</g>
<!-- Node9&#45;&gt;Node2 -->
<g id="edge8" class="edge"><title>Node9&#45;&gt;Node2</title>
<path fill="none" stroke="#404040" d="M409.279,-891.353C407.31,-885.285 405.623,-879.057 404.5,-873 392.671,-809.198 386.761,-789.417 404.5,-727 417.563,-681.036 442.488,-635.26 468.036,-596.516"/>
<polygon fill="none" stroke="#404040" points="468.204,-596.265 468.227,-589.054 474.892,-586.302 474.869,-593.513 468.204,-596.265"/>
<text text-anchor="middle" x="462" y="-797.5" font-family="Courier New" font-size="10.00"> &#45;meshColController</text>
</g>
<!-- Node10 -->
<g id="node10" class="node"><title>Node10</title>
<g id="a_node10"><a xlink:href="../../da/df6/class_c2_m2_1_1_neuronal_dynamics_1_1_u_g_x_1_1_neuron_cell.html" target="_top" xlink:title=" ">
<polygon fill="white" stroke="black" points="680,-391.5 680,-591.5 853,-591.5 853,-391.5 680,-391.5"/>
<text text-anchor="start" x="688" y="-579.5" font-family="Courier New" font-size="10.00">C2M2.NeuronalDynamics.UGX.</text>
<text text-anchor="middle" x="766.5" y="-568.5" font-family="Courier New" font-size="10.00">NeuronCell</text>
<polyline fill="none" stroke="black" points="680,-561.5 853,-561.5 "/>
<text text-anchor="start" x="688" y="-549.5" font-family="Courier New" font-size="10.00">+ nodeData</text>
<text text-anchor="start" x="688" y="-538.5" font-family="Courier New" font-size="10.00">+ edges</text>
<text text-anchor="start" x="688" y="-527.5" font-family="Courier New" font-size="10.00">+ edgeLengths</text>
<text text-anchor="start" x="688" y="-516.5" font-family="Courier New" font-size="10.00">+ boundaryID</text>
<text text-anchor="start" x="688" y="-505.5" font-family="Courier New" font-size="10.00">+ somaID</text>
<text text-anchor="start" x="688" y="-494.5" font-family="Courier New" font-size="10.00">+ vertCount</text>
<text text-anchor="start" x="688" y="-483.5" font-family="Courier New" font-size="10.00">+ edgeCount</text>
<polyline fill="none" stroke="black" points="680,-476.5 853,-476.5 "/>
<text text-anchor="start" x="688" y="-464.5" font-family="Courier New" font-size="10.00">+ NeuronCell()</text>
<text text-anchor="start" x="688" y="-453.5" font-family="Courier New" font-size="10.00">+ ReadDataTable()</text>
<text text-anchor="start" x="688" y="-442.5" font-family="Courier New" font-size="10.00">+ NodeToString()</text>
<text text-anchor="start" x="688" y="-431.5" font-family="Courier New" font-size="10.00">+ EdgeToString()</text>
<text text-anchor="start" x="688" y="-420.5" font-family="Courier New" font-size="10.00">+ ToString()</text>
<text text-anchor="start" x="688" y="-409.5" font-family="Courier New" font-size="10.00">&#45; NodeNeighborsToString()</text>
<text text-anchor="start" x="688" y="-398.5" font-family="Courier New" font-size="10.00">&#45; GetEdgeLength()</text>
</a>
</g>
</g>
<!-- Node10&#45;&gt;Node1 -->
<g id="edge10" class="edge"><title>Node10&#45;&gt;Node1</title>
<path fill="none" stroke="#404040" d="M742.201,-391.466C734.447,-359.867 725.687,-324.162 717.253,-289.792"/>
<polygon fill="none" stroke="#404040" points="717.146,-289.353 711.831,-284.479 714.286,-277.699 719.601,-282.573 717.146,-289.353"/>
<text text-anchor="middle" x="746" y="-299" font-family="Courier New" font-size="10.00"> &#45;myCell</text>
</g>
<!-- Node11 -->
<g id="node11" class="node"><title>Node11</title>
<g id="a_node11"><a xlink:title=" ">
<polygon fill="white" stroke="#bfbfbf" points="779,-771.5 779,-828.5 832,-828.5 832,-771.5 779,-771.5"/>
<text text-anchor="middle" x="805.5" y="-816.5" font-family="Courier New" font-size="10.00">static</text>
<polyline fill="none" stroke="#bfbfbf" points="779,-809.5 832,-809.5 "/>
<text text-anchor="middle" x="805.5" y="-797.5" font-family="Courier New" font-size="10.00"> </text>
<polyline fill="none" stroke="#bfbfbf" points="779,-790.5 832,-790.5 "/>
<text text-anchor="middle" x="805.5" y="-778.5" font-family="Courier New" font-size="10.00"> </text>
</a>
</g>
</g>
<!-- Node11&#45;&gt;Node10 -->
<g id="edge11" class="edge"><title>Node11&#45;&gt;Node10</title>
<path fill="none" stroke="#404040" d="M801.97,-771.26C797.171,-733.545 788.307,-663.88 780.641,-603.631"/>
<polygon fill="none" stroke="#404040" points="780.64,-603.623 775.914,-598.176 779.125,-591.719 783.85,-597.166 780.64,-603.623"/>
<text text-anchor="middle" x="849" y="-701" font-family="Courier New" font-size="10.00"> &#45;nodeFormatString</text>
<text text-anchor="middle" x="849" y="-690" font-family="Courier New" font-size="10.00">&#45;edgeFormatString</text>
<text text-anchor="middle" x="849" y="-679" font-family="Courier New" font-size="10.00">&#45;cellFormatString</text>
</g>
</g>
</svg>
        <g id="navigator" transform="translate(0 0)" fill="#404254">
                <rect fill="#f2f5e9" fill-opacity="0.5" stroke="#606060" stroke-width=".5" x="0" y="0" width="60" height="60"/>
                <use id="zoomplus" xlink:href="#zoomPlus" x="17" y="9" onmousedown="handleZoom(evt,'in')"/>
                <use id="zoomminus" xlink:href="#zoomMin" x="42" y="9" onmousedown="handleZoom(evt,'out')"/>
                <use id="reset" xlink:href="#resetDef" x="30" y="36" onmousedown="handleReset()"/>
                <g id="arrowUp" xlink:href="#dirArrow" transform="translate(30 24)" onmousedown="handlePan(0,-1)">
                  <use xlink:href="#rim" fill="#404040">
                        <set attributeName="fill" to="#808080" begin="arrowUp.mouseover" end="arrowUp.mouseout"/>
                  </use>
                  <path fill="none" stroke="white" stroke-width="1.5" d="M0,-3.0v7 M-2.5,-0.5L0,-3.0L2.5,-0.5"/>
                </g>
                <g id="arrowRight" xlink:href="#dirArrow" transform="rotate(90) translate(36 -43)" onmousedown="handlePan(1,0)">
                  <use xlink:href="#rim" fill="#404040">
                        <set attributeName="fill" to="#808080" begin="arrowRight.mouseover" end="arrowRight.mouseout"/>
                  </use>
                  <path fill="none" stroke="white" stroke-width="1.5" d="M0,-3.0v7 M-2.5,-0.5L0,-3.0L2.5,-0.5"/>
                </g>
                <g id="arrowDown" xlink:href="#dirArrow" transform="rotate(180) translate(-30 -48)" onmousedown="handlePan(0,1)">
                  <use xlink:href="#rim" fill="#404040">
                        <set attributeName="fill" to="#808080" begin="arrowDown.mouseover" end="arrowDown.mouseout"/>
                  </use>
                  <path fill="none" stroke="white" stroke-width="1.5" d="M0,-3.0v7 M-2.5,-0.5L0,-3.0L2.5,-0.5"/>
                </g>
                <g id="arrowLeft" xlink:href="#dirArrow" transform="rotate(270) translate(-36 17)" onmousedown="handlePan(-1,0)">
                  <use xlink:href="#rim" fill="#404040">
                        <set attributeName="fill" to="#808080" begin="arrowLeft.mouseover" end="arrowLeft.mouseout"/>
                  </use>
                  <path fill="none" stroke="white" stroke-width="1.5" d="M0,-3.0v7 M-2.5,-0.5L0,-3.0L2.5,-0.5"/>
                </g>
        </g>
        <svg viewBox="0 0 15 15" width="100%" height="30px" preserveAspectRatio="xMaxYMin meet">
         <g id="arrow_out" transform="scale(0.3 0.3)">
          <a xlink:href="class_c2_m2_1_1_neuronal_dynamics_1_1_simulation_1_1_cell_solver2_simple_f_e__coll__graph_org.svg" target="_base">
           <rect id="button" ry="5" rx="5" y="6" x="6" height="38" width="38"
                fill="#f2f5e9" fill-opacity="0.5" stroke="#606060" stroke-width="1.0"/>
           <path id="arrow"
             d="M 11.500037,31.436501 C 11.940474,20.09759 22.043105,11.32322 32.158766,21.979434 L 37.068811,17.246167 C 37.068811,17.246167 37.088388,32 37.088388,32 L 22.160133,31.978069 C 22.160133,31.978069 26.997745,27.140456 26.997745,27.140456 C 18.528582,18.264221 13.291696,25.230495 11.500037,31.436501 z"
             style="fill:#404040;"/>
          </a>
         </g>
        </svg>
</svg>
