<?xml version="1.0" encoding="UTF-8" standalone="no"?>
<!DOCTYPE svg PUBLIC "-//W3C//DTD SVG 1.1//EN"
 "http://www.w3.org/Graphics/SVG/1.1/DTD/svg11.dtd">
<!-- Generated by graphviz version 2.46.0 (20210118.1747)
 -->
<!-- Title: C2M2.Interaction.PositionResetControl Pages: 1 -->
<svg width="175pt" height="226pt"
 viewBox="0.00 0.00 175.00 226.00" xmlns="http://www.w3.org/2000/svg" xmlns:xlink="http://www.w3.org/1999/xlink">
<g id="graph0" class="graph" transform="scale(1 1) rotate(0) translate(4 222)">
<title>C2M2.Interaction.PositionResetControl</title>
<polygon fill="white" stroke="transparent" points="-4,4 -4,-222 171,-222 171,4 -4,4"/>
<!-- Node1 -->
<g id="node1" class="node">
<title>Node1</title>
<g id="a_node1"><a xlink:title=" ">
<polygon fill="#bfbfbf" stroke="black" points="0,-0.5 0,-123.5 167,-123.5 167,-0.5 0,-0.5"/>
<text text-anchor="start" x="8" y="-111.5" font-family="Courier New" font-size="10.00">C2M2.Interaction.Position</text>
<text text-anchor="middle" x="83.5" y="-100.5" font-family="Courier New" font-size="10.00">ResetControl</text>
<polyline fill="none" stroke="black" points="0,-93.5 167,-93.5 "/>
<text text-anchor="start" x="8" y="-81.5" font-family="Courier New" font-size="10.00">+ resetButton</text>
<text text-anchor="start" x="8" y="-70.5" font-family="Courier New" font-size="10.00">+ resetKey</text>
<text text-anchor="start" x="8" y="-59.5" font-family="Courier New" font-size="10.00">+ resetPosition</text>
<text text-anchor="start" x="8" y="-48.5" font-family="Courier New" font-size="10.00">+ target</text>
<text text-anchor="start" x="8" y="-37.5" font-family="Courier New" font-size="10.00">+ ResetRequested</text>
<polyline fill="none" stroke="black" points="0,-30.5 167,-30.5 "/>
<text text-anchor="start" x="8" y="-18.5" font-family="Courier New" font-size="10.00">&#45; Start()</text>
<text text-anchor="start" x="8" y="-7.5" font-family="Courier New" font-size="10.00">&#45; Update()</text>
</a>
</g>
</g>
<!-- Node2 -->
<g id="node2" class="node">
<title>Node2</title>
<g id="a_node2"><a xlink:title=" ">
<polygon fill="white" stroke="#bfbfbf" points="36,-160.5 36,-217.5 131,-217.5 131,-160.5 36,-160.5"/>
<text text-anchor="middle" x="83.5" y="-205.5" font-family="Courier New" font-size="10.00">MonoBehaviour</text>
<polyline fill="none" stroke="#bfbfbf" points="36,-198.5 131,-198.5 "/>
<text text-anchor="middle" x="83.5" y="-186.5" font-family="Courier New" font-size="10.00"> </text>
<polyline fill="none" stroke="#bfbfbf" points="36,-179.5 131,-179.5 "/>
<text text-anchor="middle" x="83.5" y="-167.5" font-family="Courier New" font-size="10.00"> </text>
</a>
</g>
</g>
<!-- Node2&#45;&gt;Node1 -->
<g id="edge1" class="edge">
<title>Node2&#45;&gt;Node1</title>
<path fill="none" stroke="midnightblue" d="M83.5,-150.1C83.5,-141.74 83.5,-132.68 83.5,-123.67"/>
<polygon fill="none" stroke="midnightblue" points="80,-150.26 83.5,-160.26 87,-150.26 80,-150.26"/>
</g>
</g>
</svg>
