<?xml version="1.0" encoding="UTF-8" standalone="no"?>
<!DOCTYPE svg PUBLIC "-//W3C//DTD SVG 1.1//EN"
 "http://www.w3.org/Graphics/SVG/1.1/DTD/svg11.dtd">
<!-- Generated by graphviz version 2.38.0 (20140413.2041)
 -->
<!-- Title: C2M2.Interaction.VR.VRGrabbable Pages: 1 -->
<svg width="211pt" height="182pt"
 viewBox="0.00 0.00 211.00 182.00" xmlns="http://www.w3.org/2000/svg" xmlns:xlink="http://www.w3.org/1999/xlink">
<g id="graph0" class="graph" transform="scale(1 1) rotate(0) translate(4 178)">
<title>C2M2.Interaction.VR.VRGrabbable</title>
<polygon fill="white" stroke="none" points="-4,4 -4,-178 207,-178 207,4 -4,4"/>
<!-- Node1 -->
<g id="node1" class="node"><title>Node1</title>
<g id="a_node1"><a xlink:title="Add Rigidbody, Collider, and OVRGrabbable to object">
<polygon fill="#bfbfbf" stroke="black" points="0,-0.5 0,-79.5 203,-79.5 203,-0.5 0,-0.5"/>
<text text-anchor="middle" x="101.5" y="-67.5" font-family="Courier New" font-size="10.00">C2M2.Interaction.VR.VRGrabbable</text>
<polyline fill="none" stroke="black" points="0,-60.5 203,-60.5 "/>
<text text-anchor="middle" x="101.5" y="-48.5" font-family="Courier New" font-size="10.00"> </text>
<polyline fill="none" stroke="black" points="0,-41.5 203,-41.5 "/>
<text text-anchor="start" x="8" y="-29.5" font-family="Courier New" font-size="10.00">&#45; Awake()</text>
<text text-anchor="start" x="8" y="-18.5" font-family="Courier New" font-size="10.00">&#45; Start()</text>
<text text-anchor="start" x="8" y="-7.5" font-family="Courier New" font-size="10.00">&#45; RefreshColliders()</text>
</a>
</g>
</g>
<!-- Node2 -->
<g id="node2" class="node"><title>Node2</title>
<g id="a_node2"><a xlink:title=" ">
<polygon fill="white" stroke="#bfbfbf" points="54,-116.5 54,-173.5 149,-173.5 149,-116.5 54,-116.5"/>
<text text-anchor="middle" x="101.5" y="-161.5" font-family="Courier New" font-size="10.00">MonoBehaviour</text>
<polyline fill="none" stroke="#bfbfbf" points="54,-154.5 149,-154.5 "/>
<text text-anchor="middle" x="101.5" y="-142.5" font-family="Courier New" font-size="10.00"> </text>
<polyline fill="none" stroke="#bfbfbf" points="54,-135.5 149,-135.5 "/>
<text text-anchor="middle" x="101.5" y="-123.5" font-family="Courier New" font-size="10.00"> </text>
</a>
</g>
</g>
<!-- Node2&#45;&gt;Node1 -->
<g id="edge1" class="edge"><title>Node2&#45;&gt;Node1</title>
<path fill="none" stroke="midnightblue" d="M101.5,-106.156C101.5,-97.4733 101.5,-88.2318 101.5,-79.5205"/>
<polygon fill="none" stroke="midnightblue" points="98.0001,-106.398 101.5,-116.398 105,-106.398 98.0001,-106.398"/>
</g>
</g>
</svg>
