<?xml version="1.0" encoding="UTF-8" standalone="no"?>
<!DOCTYPE svg PUBLIC "-//W3C//DTD SVG 1.1//EN"
 "http://www.w3.org/Graphics/SVG/1.1/DTD/svg11.dtd">
<!-- Generated by graphviz version 2.38.0 (20140413.2041)
 -->
<!-- Title: C2M2.Interaction.RaycastEventManager Pages: 1 -->
<svg width="169pt" height="369pt"
 viewBox="0.00 0.00 169.00 369.00" xmlns="http://www.w3.org/2000/svg" xmlns:xlink="http://www.w3.org/1999/xlink">
<g id="graph0" class="graph" transform="scale(1 1) rotate(0) translate(4 365)">
<title>C2M2.Interaction.RaycastEventManager</title>
<polygon fill="white" stroke="none" points="-4,4 -4,-365 165,-365 165,4 -4,4"/>
<!-- Node1 -->
<g id="node1" class="node"><title>Node1</title>
<g id="a_node1"><a xlink:title="Attach this script to parent gameObject, create one child with one raycast trigger per child....">
<polygon fill="#bfbfbf" stroke="black" points="0,-0.5 0,-266.5 161,-266.5 161,-0.5 0,-0.5"/>
<text text-anchor="start" x="8" y="-254.5" font-family="Courier New" font-size="10.00">C2M2.Interaction.Raycast</text>
<text text-anchor="middle" x="80.5" y="-243.5" font-family="Courier New" font-size="10.00">EventManager</text>
<polyline fill="none" stroke="black" points="0,-236.5 161,-236.5 "/>
<text text-anchor="start" x="8" y="-224.5" font-family="Courier New" font-size="10.00">+ rightTrigger</text>
<text text-anchor="start" x="8" y="-213.5" font-family="Courier New" font-size="10.00">+ leftTrigger</text>
<text text-anchor="start" x="8" y="-202.5" font-family="Courier New" font-size="10.00">&#45; emptyTrigger</text>
<text text-anchor="start" x="8" y="-191.5" font-family="Courier New" font-size="10.00">&#45; nullHit</text>
<polyline fill="none" stroke="black" points="0,-184.5 161,-184.5 "/>
<text text-anchor="start" x="8" y="-172.5" font-family="Courier New" font-size="10.00">+ TriggerChangeRight()</text>
<text text-anchor="start" x="8" y="-161.5" font-family="Courier New" font-size="10.00">+ TriggerChangeLeft()</text>
<text text-anchor="start" x="8" y="-150.5" font-family="Courier New" font-size="10.00">+ TriggerChangeBoth()</text>
<text text-anchor="start" x="8" y="-139.5" font-family="Courier New" font-size="10.00">+ TriggerEmptyRight()</text>
<text text-anchor="start" x="8" y="-128.5" font-family="Courier New" font-size="10.00">+ TriggerEmptyLeft()</text>
<text text-anchor="start" x="8" y="-117.5" font-family="Courier New" font-size="10.00">+ TriggerEmptyBoth()</text>
<text text-anchor="start" x="8" y="-106.5" font-family="Courier New" font-size="10.00">+ PressEvent()</text>
<text text-anchor="start" x="8" y="-95.5" font-family="Courier New" font-size="10.00">+ HoldEvent()</text>
<text text-anchor="start" x="8" y="-84.5" font-family="Courier New" font-size="10.00">+ EndEvent()</text>
<text text-anchor="start" x="8" y="-73.5" font-family="Courier New" font-size="10.00">+ AllEvents()</text>
<text text-anchor="start" x="8" y="-62.5" font-family="Courier New" font-size="10.00">+ PressEventNull()</text>
<text text-anchor="start" x="8" y="-51.5" font-family="Courier New" font-size="10.00">+ HoldEventNull()</text>
<text text-anchor="start" x="8" y="-40.5" font-family="Courier New" font-size="10.00">+ EndEventNull()</text>
<text text-anchor="start" x="8" y="-29.5" font-family="Courier New" font-size="10.00">+ AllEventsNull()</text>
<text text-anchor="start" x="8" y="-18.5" font-family="Courier New" font-size="10.00">+ ToString()</text>
<text text-anchor="start" x="8" y="-7.5" font-family="Courier New" font-size="10.00">&#45; Awake()</text>
</a>
</g>
</g>
<!-- Node2 -->
<g id="node2" class="node"><title>Node2</title>
<g id="a_node2"><a xlink:title=" ">
<polygon fill="white" stroke="#bfbfbf" points="33,-303.5 33,-360.5 128,-360.5 128,-303.5 33,-303.5"/>
<text text-anchor="middle" x="80.5" y="-348.5" font-family="Courier New" font-size="10.00">MonoBehaviour</text>
<polyline fill="none" stroke="#bfbfbf" points="33,-341.5 128,-341.5 "/>
<text text-anchor="middle" x="80.5" y="-329.5" font-family="Courier New" font-size="10.00"> </text>
<polyline fill="none" stroke="#bfbfbf" points="33,-322.5 128,-322.5 "/>
<text text-anchor="middle" x="80.5" y="-310.5" font-family="Courier New" font-size="10.00"> </text>
</a>
</g>
</g>
<!-- Node2&#45;&gt;Node1 -->
<g id="edge1" class="edge"><title>Node2&#45;&gt;Node1</title>
<path fill="none" stroke="midnightblue" d="M80.5,-293.205C80.5,-285.137 80.5,-276.18 80.5,-266.746"/>
<polygon fill="none" stroke="midnightblue" points="77.0001,-293.263 80.5,-303.263 84.0001,-293.263 77.0001,-293.263"/>
</g>
</g>
</svg>
