<?xml version="1.0" encoding="UTF-8" standalone="no"?>
<!DOCTYPE svg PUBLIC "-//W3C//DTD SVG 1.1//EN"
 "http://www.w3.org/Graphics/SVG/1.1/DTD/svg11.dtd">
<!-- Generated by graphviz version 2.38.0 (20140413.2041)
 -->
<!-- Title: C2M2.Interaction.RaycastSimHeaterContinuous Pages: 1 -->
<svg width="181pt" height="364pt"
 viewBox="0.00 0.00 181.00 364.00" xmlns="http://www.w3.org/2000/svg" xmlns:xlink="http://www.w3.org/1999/xlink">
<g id="graph0" class="graph" transform="scale(1 1) rotate(0) translate(4 360)">
<title>C2M2.Interaction.RaycastSimHeaterContinuous</title>
<polygon fill="white" stroke="none" points="-4,4 -4,-360 177,-360 177,4 -4,4"/>
<!-- Node1 -->
<g id="node1" class="node"><title>Node1</title>
<g id="a_node1"><a xlink:title=" ">
<polygon fill="#bfbfbf" stroke="black" points="0,-0.5 0,-123.5 173,-123.5 173,-0.5 0,-0.5"/>
<text text-anchor="start" x="8" y="-111.5" font-family="Courier New" font-size="10.00">C2M2.Interaction.Raycast</text>
<text text-anchor="middle" x="86.5" y="-100.5" font-family="Courier New" font-size="10.00">SimHeaterContinuous</text>
<polyline fill="none" stroke="black" points="0,-93.5 173,-93.5 "/>
<text text-anchor="start" x="8" y="-81.5" font-family="Courier New" font-size="10.00">&#45; dijkstraSearch</text>
<text text-anchor="start" x="8" y="-70.5" font-family="Courier New" font-size="10.00">&#45; gaussian</text>
<text text-anchor="start" x="8" y="-59.5" font-family="Courier New" font-size="10.00">&#45; uniqueVerts</text>
<polyline fill="none" stroke="black" points="0,-52.5 173,-52.5 "/>
<text text-anchor="start" x="8" y="-40.5" font-family="Courier New" font-size="10.00">+ SetWarmCoolHands()</text>
<text text-anchor="start" x="8" y="-29.5" font-family="Courier New" font-size="10.00">+ RaycastersDefaultColor()</text>
<text text-anchor="start" x="8" y="-18.5" font-family="Courier New" font-size="10.00"># OnAwake()</text>
<text text-anchor="start" x="8" y="-7.5" font-family="Courier New" font-size="10.00"># HitMethod()</text>
</a>
</g>
</g>
<!-- Node2 -->
<g id="node2" class="node"><title>Node2</title>
<g id="a_node2"><a xlink:href="../../d4/dfc/class_c2_m2_1_1_interaction_1_1_raycast_sim_heater.html" target="_top" xlink:title=" ">
<polygon fill="white" stroke="black" points="30,-160.5 30,-261.5 143,-261.5 143,-160.5 30,-160.5"/>
<text text-anchor="middle" x="86.5" y="-249.5" font-family="Courier New" font-size="10.00">RaycastSimHeater</text>
<polyline fill="none" stroke="black" points="30,-242.5 143,-242.5 "/>
<text text-anchor="start" x="38" y="-230.5" font-family="Courier New" font-size="10.00"># simulation</text>
<text text-anchor="start" x="38" y="-219.5" font-family="Courier New" font-size="10.00"># raycastable</text>
<polyline fill="none" stroke="black" points="30,-212.5 143,-212.5 "/>
<text text-anchor="start" x="38" y="-200.5" font-family="Courier New" font-size="10.00">+ Hit()</text>
<text text-anchor="start" x="38" y="-189.5" font-family="Courier New" font-size="10.00"># OnAwake()</text>
<text text-anchor="start" x="38" y="-178.5" font-family="Courier New" font-size="10.00"># HitMethod()</text>
<text text-anchor="start" x="38" y="-167.5" font-family="Courier New" font-size="10.00">&#45; Awake()</text>
</a>
</g>
</g>
<!-- Node2&#45;&gt;Node1 -->
<g id="edge1" class="edge"><title>Node2&#45;&gt;Node1</title>
<path fill="none" stroke="midnightblue" d="M86.5,-150.139C86.5,-141.411 86.5,-132.417 86.5,-123.672"/>
<polygon fill="none" stroke="midnightblue" points="83.0001,-150.232 86.5,-160.233 90.0001,-150.233 83.0001,-150.232"/>
</g>
<!-- Node3 -->
<g id="node3" class="node"><title>Node3</title>
<g id="a_node3"><a xlink:title=" ">
<polygon fill="white" stroke="#bfbfbf" points="39,-298.5 39,-355.5 134,-355.5 134,-298.5 39,-298.5"/>
<text text-anchor="middle" x="86.5" y="-343.5" font-family="Courier New" font-size="10.00">MonoBehaviour</text>
<polyline fill="none" stroke="#bfbfbf" points="39,-336.5 134,-336.5 "/>
<text text-anchor="middle" x="86.5" y="-324.5" font-family="Courier New" font-size="10.00"> </text>
<polyline fill="none" stroke="#bfbfbf" points="39,-317.5 134,-317.5 "/>
<text text-anchor="middle" x="86.5" y="-305.5" font-family="Courier New" font-size="10.00"> </text>
</a>
</g>
</g>
<!-- Node3&#45;&gt;Node2 -->
<g id="edge2" class="edge"><title>Node3&#45;&gt;Node2</title>
<path fill="none" stroke="midnightblue" d="M86.5,-288.354C86.5,-279.796 86.5,-270.578 86.5,-261.608"/>
<polygon fill="none" stroke="midnightblue" points="83.0001,-288.404 86.5,-298.404 90.0001,-288.404 83.0001,-288.404"/>
</g>
</g>
</svg>
