<?xml version="1.0" encoding="UTF-8" standalone="no"?>
<!DOCTYPE svg PUBLIC "-//W3C//DTD SVG 1.1//EN"
 "http://www.w3.org/Graphics/SVG/1.1/DTD/svg11.dtd">
<!-- Generated by graphviz version 2.38.0 (20140413.2041)
 -->
<!-- Title: C2M2.RaycastInputField Pages: 1 -->
<svg width="597pt" height="859pt"
 viewBox="0.00 0.00 597.00 859.00" xmlns="http://www.w3.org/2000/svg" xmlns:xlink="http://www.w3.org/1999/xlink">
<g id="graph0" class="graph" transform="scale(1 1) rotate(0) translate(4 855)">
<title>C2M2.RaycastInputField</title>
<polygon fill="white" stroke="none" points="-4,4 -4,-855 593,-855 593,4 -4,4"/>
<!-- Node1 -->
<g id="node1" class="node"><title>Node1</title>
<g id="a_node1"><a xlink:title=" ">
<polygon fill="#bfbfbf" stroke="black" points="155,-0.5 155,-343.5 310,-343.5 310,-0.5 155,-0.5"/>
<text text-anchor="middle" x="232.5" y="-331.5" font-family="Courier New" font-size="10.00">C2M2.RaycastInputField</text>
<polyline fill="none" stroke="black" points="155,-324.5 310,-324.5 "/>
<text text-anchor="start" x="163" y="-312.5" font-family="Courier New" font-size="10.00">+ menuAnchor</text>
<text text-anchor="start" x="163" y="-301.5" font-family="Courier New" font-size="10.00">+ targetGraphic</text>
<text text-anchor="start" x="163" y="-290.5" font-family="Courier New" font-size="10.00">+ defaultColor</text>
<text text-anchor="start" x="163" y="-279.5" font-family="Courier New" font-size="10.00">+ highlightedColor</text>
<text text-anchor="start" x="163" y="-268.5" font-family="Courier New" font-size="10.00">+ invalidColor</text>
<text text-anchor="start" x="163" y="-257.5" font-family="Courier New" font-size="10.00">+ validColor</text>
<text text-anchor="start" x="163" y="-246.5" font-family="Courier New" font-size="10.00">+ textComponent</text>
<text text-anchor="start" x="163" y="-235.5" font-family="Courier New" font-size="10.00">+ text</text>
<text text-anchor="start" x="163" y="-224.5" font-family="Courier New" font-size="10.00">+ placeHolder</text>
<text text-anchor="start" x="163" y="-213.5" font-family="Courier New" font-size="10.00">+ takeFromHolder</text>
<text text-anchor="start" x="163" y="-202.5" font-family="Courier New" font-size="10.00">and 6 more...</text>
<text text-anchor="start" x="163" y="-191.5" font-family="Courier New" font-size="10.00">&#45; caretEnabled</text>
<polyline fill="none" stroke="black" points="155,-184.5 310,-184.5 "/>
<text text-anchor="start" x="163" y="-172.5" font-family="Courier New" font-size="10.00">+ Activate()</text>
<text text-anchor="start" x="163" y="-161.5" font-family="Courier New" font-size="10.00">+ Deactivate()</text>
<text text-anchor="start" x="163" y="-150.5" font-family="Courier New" font-size="10.00">+ CharacterIntake()</text>
<text text-anchor="start" x="163" y="-139.5" font-family="Courier New" font-size="10.00">+ PrintText()</text>
<text text-anchor="start" x="163" y="-128.5" font-family="Courier New" font-size="10.00">&#45; Start()</text>
<text text-anchor="start" x="163" y="-117.5" font-family="Courier New" font-size="10.00">&#45; ValidateInput()</text>
<text text-anchor="start" x="163" y="-106.5" font-family="Courier New" font-size="10.00">&#45; UpdateDisplayText()</text>
<text text-anchor="start" x="163" y="-95.5" font-family="Courier New" font-size="10.00">&#45; ColorToDefault()</text>
<text text-anchor="start" x="163" y="-84.5" font-family="Courier New" font-size="10.00">&#45; ColorToHighlighted()</text>
<text text-anchor="start" x="163" y="-73.5" font-family="Courier New" font-size="10.00">&#45; ColorToInvalid()</text>
<text text-anchor="start" x="163" y="-62.5" font-family="Courier New" font-size="10.00">&#45; ColorToValid()</text>
<text text-anchor="start" x="163" y="-51.5" font-family="Courier New" font-size="10.00">&#45; UpdateCaretPosition()</text>
<text text-anchor="start" x="163" y="-40.5" font-family="Courier New" font-size="10.00">&#45; caretBlink()</text>
<text text-anchor="start" x="163" y="-29.5" font-family="Courier New" font-size="10.00">&#45; AppendText()</text>
<text text-anchor="start" x="163" y="-18.5" font-family="Courier New" font-size="10.00">&#45; RemoveLast()</text>
<text text-anchor="start" x="163" y="-7.5" font-family="Courier New" font-size="10.00">&#45; SubmitText()</text>
</a>
</g>
</g>
<!-- Node2 -->
<g id="node2" class="node"><title>Node2</title>
<g id="a_node2"><a xlink:title=" ">
<polygon fill="white" stroke="#bfbfbf" points="0,-793.5 0,-850.5 95,-850.5 95,-793.5 0,-793.5"/>
<text text-anchor="middle" x="47.5" y="-838.5" font-family="Courier New" font-size="10.00">MonoBehaviour</text>
<polyline fill="none" stroke="#bfbfbf" points="0,-831.5 95,-831.5 "/>
<text text-anchor="middle" x="47.5" y="-819.5" font-family="Courier New" font-size="10.00"> </text>
<polyline fill="none" stroke="#bfbfbf" points="0,-812.5 95,-812.5 "/>
<text text-anchor="middle" x="47.5" y="-800.5" font-family="Courier New" font-size="10.00"> </text>
</a>
</g>
</g>
<!-- Node2&#45;&gt;Node1 -->
<g id="edge1" class="edge"><title>Node2&#45;&gt;Node1</title>
<path fill="none" stroke="midnightblue" d="M40.9759,-783.354C29.3216,-706.72 10.5416,-528.242 60.5,-391 80.2059,-336.865 118.993,-285.769 154.754,-246.669"/>
<polygon fill="none" stroke="midnightblue" points="37.5564,-784.141 42.5652,-793.477 44.4717,-783.055 37.5564,-784.141"/>
</g>
<!-- Node5 -->
<g id="node5" class="node"><title>Node5</title>
<g id="a_node5"><a xlink:href="../../db/db3/class_c2_m2_1_1_raycast_keyboard.html" target="_top" xlink:title=" ">
<polygon fill="white" stroke="black" points="70,-391.5 70,-635.5 219,-635.5 219,-391.5 70,-391.5"/>
<text text-anchor="middle" x="144.5" y="-623.5" font-family="Courier New" font-size="10.00">C2M2.RaycastKeyboard</text>
<polyline fill="none" stroke="black" points="70,-616.5 219,-616.5 "/>
<text text-anchor="start" x="78" y="-604.5" font-family="Courier New" font-size="10.00">+ keyPrefab</text>
<text text-anchor="start" x="78" y="-593.5" font-family="Courier New" font-size="10.00">+ specialKeyContainer</text>
<text text-anchor="start" x="78" y="-582.5" font-family="Courier New" font-size="10.00">+ lowerKeyContainer</text>
<text text-anchor="start" x="78" y="-571.5" font-family="Courier New" font-size="10.00">+ upperKeyContainer</text>
<text text-anchor="start" x="78" y="-560.5" font-family="Courier New" font-size="10.00">+ menuAnchor</text>
<text text-anchor="start" x="78" y="-549.5" font-family="Courier New" font-size="10.00">+ activeField</text>
<text text-anchor="start" x="78" y="-538.5" font-family="Courier New" font-size="10.00">&#45; hasActiveField</text>
<text text-anchor="start" x="78" y="-527.5" font-family="Courier New" font-size="10.00">&#45; lastHit</text>
<text text-anchor="start" x="78" y="-516.5" font-family="Courier New" font-size="10.00">&#45; keyPositions</text>
<text text-anchor="start" x="78" y="-505.5" font-family="Courier New" font-size="10.00">&#45; specialKeys</text>
<text text-anchor="start" x="78" y="-494.5" font-family="Courier New" font-size="10.00">&#45; specialKeyLocations</text>
<text text-anchor="start" x="78" y="-483.5" font-family="Courier New" font-size="10.00">&#45; upperCharRow1</text>
<text text-anchor="start" x="78" y="-472.5" font-family="Courier New" font-size="10.00">&#45; upperCharRow2</text>
<text text-anchor="start" x="78" y="-461.5" font-family="Courier New" font-size="10.00">&#45; upperCharRow3</text>
<polyline fill="none" stroke="black" points="70,-454.5 219,-454.5 "/>
<text text-anchor="start" x="78" y="-442.5" font-family="Courier New" font-size="10.00">+ PassChar()</text>
<text text-anchor="start" x="78" y="-431.5" font-family="Courier New" font-size="10.00">+ InputFieldActivate()</text>
<text text-anchor="start" x="78" y="-420.5" font-family="Courier New" font-size="10.00">&#45; Awake()</text>
<text text-anchor="start" x="78" y="-409.5" font-family="Courier New" font-size="10.00">&#45; OnEnable()</text>
<text text-anchor="start" x="78" y="-398.5" font-family="Courier New" font-size="10.00">&#45; BuildKeyboard()</text>
</a>
</g>
</g>
<!-- Node2&#45;&gt;Node5 -->
<g id="edge5" class="edge"><title>Node2&#45;&gt;Node5</title>
<path fill="none" stroke="midnightblue" d="M59.3821,-783.455C71.0436,-746.607 89.4637,-688.404 106.19,-635.551"/>
<polygon fill="none" stroke="midnightblue" points="55.9596,-782.67 56.2792,-793.26 62.6334,-784.782 55.9596,-782.67"/>
</g>
<!-- Node3 -->
<g id="node3" class="node"><title>Node3</title>
<g id="a_node3"><a xlink:href="../../d9/df8/class_c2_m2_1_1_raycast_input_field_1_1_on_submit_event.html" target="_top" xlink:title=" ">
<polygon fill="white" stroke="black" points="237,-479.5 237,-547.5 404,-547.5 404,-479.5 237,-479.5"/>
<text text-anchor="start" x="245" y="-535.5" font-family="Courier New" font-size="10.00">C2M2.RaycastInputField.On</text>
<text text-anchor="middle" x="320.5" y="-524.5" font-family="Courier New" font-size="10.00">SubmitEvent</text>
<polyline fill="none" stroke="black" points="237,-517.5 404,-517.5 "/>
<text text-anchor="middle" x="320.5" y="-505.5" font-family="Courier New" font-size="10.00"> </text>
<polyline fill="none" stroke="black" points="237,-498.5 404,-498.5 "/>
<text text-anchor="middle" x="320.5" y="-486.5" font-family="Courier New" font-size="10.00"> </text>
</a>
</g>
</g>
<!-- Node3&#45;&gt;Node1 -->
<g id="edge2" class="edge"><title>Node3&#45;&gt;Node1</title>
<path fill="none" stroke="#404040" d="M311.902,-479.329C304.171,-449.503 292.159,-403.162 279.798,-355.475"/>
<polygon fill="none" stroke="#404040" points="279.747,-355.276 274.369,-350.472 276.736,-343.66 282.113,-348.465 279.747,-355.276"/>
<text text-anchor="middle" x="316" y="-365" font-family="Courier New" font-size="10.00"> +onEndEdit</text>
</g>
<!-- Node4 -->
<g id="node4" class="node"><title>Node4</title>
<g id="a_node4"><a xlink:title=" ">
<polygon fill="white" stroke="#bfbfbf" points="304,-793.5 304,-850.5 441,-850.5 441,-793.5 304,-793.5"/>
<text text-anchor="middle" x="372.5" y="-838.5" font-family="Courier New" font-size="10.00">UnityEvent&lt; string &gt;</text>
<polyline fill="none" stroke="#bfbfbf" points="304,-831.5 441,-831.5 "/>
<text text-anchor="middle" x="372.5" y="-819.5" font-family="Courier New" font-size="10.00"> </text>
<polyline fill="none" stroke="#bfbfbf" points="304,-812.5 441,-812.5 "/>
<text text-anchor="middle" x="372.5" y="-800.5" font-family="Courier New" font-size="10.00"> </text>
</a>
</g>
</g>
<!-- Node4&#45;&gt;Node3 -->
<g id="edge3" class="edge"><title>Node4&#45;&gt;Node3</title>
<path fill="none" stroke="midnightblue" d="M366.118,-783.381C355.877,-723.023 335.939,-605.502 326.17,-547.922"/>
<polygon fill="none" stroke="midnightblue" points="362.67,-783.986 367.794,-793.26 369.572,-782.815 362.67,-783.986"/>
</g>
<!-- Node7 -->
<g id="node7" class="node"><title>Node7</title>
<g id="a_node7"><a xlink:href="../../da/d12/class_c2_m2_1_1_raycast_input_field_1_1_on_change_event.html" target="_top" xlink:title=" ">
<polygon fill="white" stroke="black" points="422,-479.5 422,-547.5 589,-547.5 589,-479.5 422,-479.5"/>
<text text-anchor="start" x="430" y="-535.5" font-family="Courier New" font-size="10.00">C2M2.RaycastInputField.On</text>
<text text-anchor="middle" x="505.5" y="-524.5" font-family="Courier New" font-size="10.00">ChangeEvent</text>
<polyline fill="none" stroke="black" points="422,-517.5 589,-517.5 "/>
<text text-anchor="middle" x="505.5" y="-505.5" font-family="Courier New" font-size="10.00"> </text>
<polyline fill="none" stroke="black" points="422,-498.5 589,-498.5 "/>
<text text-anchor="middle" x="505.5" y="-486.5" font-family="Courier New" font-size="10.00"> </text>
</a>
</g>
</g>
<!-- Node4&#45;&gt;Node7 -->
<g id="edge8" class="edge"><title>Node4&#45;&gt;Node7</title>
<path fill="none" stroke="midnightblue" d="M388.662,-783.754C414.804,-723.509 465.96,-605.621 490.997,-547.922"/>
<polygon fill="none" stroke="midnightblue" points="385.307,-782.693 384.537,-793.26 391.729,-785.479 385.307,-782.693"/>
</g>
<!-- Node5&#45;&gt;Node1 -->
<g id="edge4" class="edge"><title>Node5&#45;&gt;Node1</title>
<path fill="none" stroke="#404040" d="M175.897,-391.371C178.946,-379.609 182.083,-367.508 185.242,-355.32"/>
<polygon fill="none" stroke="#404040" points="185.265,-355.232 182.898,-348.42 188.276,-343.616 190.642,-350.428 185.265,-355.232"/>
<text text-anchor="middle" x="214" y="-365" font-family="Courier New" font-size="10.00"> &#45;keyboard</text>
</g>
<!-- Node6 -->
<g id="node6" class="node"><title>Node6</title>
<g id="a_node6"><a xlink:title=" ">
<polygon fill="white" stroke="#bfbfbf" points="118,-793.5 118,-850.5 171,-850.5 171,-793.5 118,-793.5"/>
<text text-anchor="middle" x="144.5" y="-838.5" font-family="Courier New" font-size="10.00">static</text>
<polyline fill="none" stroke="#bfbfbf" points="118,-831.5 171,-831.5 "/>
<text text-anchor="middle" x="144.5" y="-819.5" font-family="Courier New" font-size="10.00"> </text>
<polyline fill="none" stroke="#bfbfbf" points="118,-812.5 171,-812.5 "/>
<text text-anchor="middle" x="144.5" y="-800.5" font-family="Courier New" font-size="10.00"> </text>
</a>
</g>
</g>
<!-- Node6&#45;&gt;Node5 -->
<g id="edge6" class="edge"><title>Node6&#45;&gt;Node5</title>
<path fill="none" stroke="#404040" d="M144.5,-793.26C144.5,-760.106 144.5,-702.263 144.5,-647.831"/>
<polygon fill="none" stroke="#404040" points="144.5,-647.551 140.5,-641.551 144.5,-635.551 148.5,-641.551 144.5,-647.551"/>
<text text-anchor="middle" x="190" y="-767" font-family="Courier New" font-size="10.00"> &#45;lowerCharRow0</text>
<text text-anchor="middle" x="190" y="-756" font-family="Courier New" font-size="10.00">&#45;positionj</text>
<text text-anchor="middle" x="190" y="-745" font-family="Courier New" font-size="10.00">&#45;lowerCharRow1</text>
<text text-anchor="middle" x="190" y="-734" font-family="Courier New" font-size="10.00">&#45;lowerCharRow2</text>
<text text-anchor="middle" x="190" y="-723" font-family="Courier New" font-size="10.00">&#45;position1i</text>
<text text-anchor="middle" x="190" y="-712" font-family="Courier New" font-size="10.00">&#45;lowerCharRow3</text>
<text text-anchor="middle" x="190" y="-701" font-family="Courier New" font-size="10.00">&#45;position0i</text>
<text text-anchor="middle" x="190" y="-690" font-family="Courier New" font-size="10.00">&#45;position3i</text>
<text text-anchor="middle" x="190" y="-679" font-family="Courier New" font-size="10.00">&#45;upperCharRow0</text>
<text text-anchor="middle" x="190" y="-668" font-family="Courier New" font-size="10.00">&#45;position2i</text>
<text text-anchor="middle" x="190" y="-657" font-family="Courier New" font-size="10.00">...</text>
</g>
<!-- Node7&#45;&gt;Node1 -->
<g id="edge7" class="edge"><title>Node7&#45;&gt;Node1</title>
<path fill="none" stroke="#404040" d="M480.564,-479.242C462.022,-454.679 435.976,-420.525 412.5,-391 382.146,-352.825 348.236,-311.439 318.104,-275.088"/>
<polygon fill="none" stroke="#404040" points="317.785,-274.704 310.875,-272.641 310.121,-265.47 317.031,-267.532 317.785,-274.704"/>
<text text-anchor="middle" x="442" y="-365" font-family="Courier New" font-size="10.00"> +onValueChanged</text>
</g>
</g>
</svg>
