<?xml version="1.0" encoding="UTF-8" standalone="no"?>
<!DOCTYPE svg PUBLIC "-//W3C//DTD SVG 1.1//EN"
 "http://www.w3.org/Graphics/SVG/1.1/DTD/svg11.dtd">
<!-- Generated by graphviz version 2.38.0 (20140413.2041)
 -->
<!-- Title: C2M2.Interaction.Signaling.RaycastEventSignaler Pages: 1 -->
<svg width="417pt" height="996pt"
 viewBox="0.00 0.00 416.50 996.00" xmlns="http://www.w3.org/2000/svg" xmlns:xlink="http://www.w3.org/1999/xlink">
<g id="graph0" class="graph" transform="scale(1 1) rotate(0) translate(4 992)">
<title>C2M2.Interaction.Signaling.RaycastEventSignaler</title>
<polygon fill="white" stroke="none" points="-4,4 -4,-992 412.5,-992 412.5,4 -4,4"/>
<!-- Node1 -->
<g id="node1" class="node"><title>Node1</title>
<g id="a_node1"><a xlink:title=" ">
<polygon fill="#bfbfbf" stroke="black" points="26,-0.5 26,-255.5 211,-255.5 211,-0.5 26,-0.5"/>
<text text-anchor="start" x="34" y="-243.5" font-family="Courier New" font-size="10.00">C2M2.Interaction.Signaling.</text>
<text text-anchor="middle" x="118.5" y="-232.5" font-family="Courier New" font-size="10.00">RaycastEventSignaler</text>
<polyline fill="none" stroke="black" points="26,-225.5 211,-225.5 "/>
<text text-anchor="start" x="34" y="-213.5" font-family="Courier New" font-size="10.00">+ rightHand</text>
<text text-anchor="start" x="34" y="-202.5" font-family="Courier New" font-size="10.00">+ maxRaycastDistance</text>
<text text-anchor="start" x="34" y="-191.5" font-family="Courier New" font-size="10.00">&#45; layerMask</text>
<text text-anchor="start" x="34" y="-180.5" font-family="Courier New" font-size="10.00">&#45; lastHit</text>
<polyline fill="none" stroke="black" points="26,-173.5 211,-173.5 "/>
<text text-anchor="start" x="34" y="-161.5" font-family="Courier New" font-size="10.00"># OnAwake()</text>
<text text-anchor="start" x="34" y="-150.5" font-family="Courier New" font-size="10.00"># Awake()</text>
<text text-anchor="start" x="34" y="-139.5" font-family="Courier New" font-size="10.00"># OnStart()</text>
<text text-anchor="start" x="34" y="-128.5" font-family="Courier New" font-size="10.00"># OnPress()</text>
<text text-anchor="start" x="34" y="-117.5" font-family="Courier New" font-size="10.00"># OnHoldPress()</text>
<text text-anchor="start" x="34" y="-106.5" font-family="Courier New" font-size="10.00"># OnEndPress()</text>
<text text-anchor="start" x="34" y="-95.5" font-family="Courier New" font-size="10.00"># OnPressSub()</text>
<text text-anchor="start" x="34" y="-84.5" font-family="Courier New" font-size="10.00"># OnHoldPressSub()</text>
<text text-anchor="start" x="34" y="-73.5" font-family="Courier New" font-size="10.00"># OnEndPressSub()</text>
<text text-anchor="start" x="34" y="-62.5" font-family="Courier New" font-size="10.00"># RaycastingMethod()</text>
<text text-anchor="start" x="34" y="-51.5" font-family="Courier New" font-size="10.00"># BeginRaycastingCondition()</text>
<text text-anchor="start" x="34" y="-40.5" font-family="Courier New" font-size="10.00"># ChildsPressCondition()</text>
<text text-anchor="start" x="34" y="-29.5" font-family="Courier New" font-size="10.00">&#45; Start()</text>
<text text-anchor="start" x="34" y="-18.5" font-family="Courier New" font-size="10.00">&#45; FixedUpdate()</text>
<text text-anchor="start" x="34" y="-7.5" font-family="Courier New" font-size="10.00">&#45; FindRaycastTrigger()</text>
</a>
</g>
</g>
<!-- Node2 -->
<g id="node2" class="node"><title>Node2</title>
<g id="a_node2"><a xlink:href="../../d6/d4b/class_c2_m2_1_1_interaction_1_1_signaling_1_1_press_event_signaler.html" target="_top" xlink:title="Send press, holdPress, and endPress events based on set values of Pressed and RaycastTriggerManager">
<polygon fill="white" stroke="black" points="0,-544.5 0,-634.5 125,-634.5 125,-544.5 0,-544.5"/>
<text text-anchor="middle" x="62.5" y="-622.5" font-family="Courier New" font-size="10.00">PressEventSignaler</text>
<polyline fill="none" stroke="black" points="0,-615.5 125,-615.5 "/>
<text text-anchor="start" x="8" y="-603.5" font-family="Courier New" font-size="10.00">+ Pressed</text>
<text text-anchor="start" x="8" y="-592.5" font-family="Courier New" font-size="10.00">&#45; pressedPrevFrame</text>
<polyline fill="none" stroke="black" points="0,-585.5 125,-585.5 "/>
<text text-anchor="start" x="8" y="-573.5" font-family="Courier New" font-size="10.00"># OnPress()</text>
<text text-anchor="start" x="8" y="-562.5" font-family="Courier New" font-size="10.00"># OnHoldPress()</text>
<text text-anchor="start" x="8" y="-551.5" font-family="Courier New" font-size="10.00"># OnEndPress()</text>
</a>
</g>
</g>
<!-- Node2&#45;&gt;Node1 -->
<g id="edge1" class="edge"><title>Node2&#45;&gt;Node1</title>
<path fill="none" stroke="midnightblue" d="M69.0961,-534.376C77.3878,-466.34 91.8847,-347.388 103.037,-255.877"/>
<polygon fill="none" stroke="midnightblue" points="65.6051,-534.091 67.8695,-544.441 72.5537,-534.938 65.6051,-534.091"/>
</g>
<!-- Node3 -->
<g id="node3" class="node"><title>Node3</title>
<g id="a_node3"><a xlink:title=" ">
<polygon fill="white" stroke="#bfbfbf" points="73,-830 73,-887 168,-887 168,-830 73,-830"/>
<text text-anchor="middle" x="120.5" y="-875" font-family="Courier New" font-size="10.00">MonoBehaviour</text>
<polyline fill="none" stroke="#bfbfbf" points="73,-868 168,-868 "/>
<text text-anchor="middle" x="120.5" y="-856" font-family="Courier New" font-size="10.00"> </text>
<polyline fill="none" stroke="#bfbfbf" points="73,-849 168,-849 "/>
<text text-anchor="middle" x="120.5" y="-837" font-family="Courier New" font-size="10.00"> </text>
</a>
</g>
</g>
<!-- Node3&#45;&gt;Node2 -->
<g id="edge2" class="edge"><title>Node3&#45;&gt;Node2</title>
<path fill="none" stroke="midnightblue" d="M112.38,-820.12C101.806,-771.442 83.3477,-686.471 72.0943,-634.667"/>
<polygon fill="none" stroke="midnightblue" points="108.968,-820.903 114.511,-829.932 115.809,-819.417 108.968,-820.903"/>
</g>
<!-- Node4 -->
<g id="node4" class="node"><title>Node4</title>
<g id="a_node4"><a xlink:href="../../d7/dcb/class_c2_m2_1_1_raycast_event_manager.html" target="_top" xlink:title="Attach this script to parent gameObject, create one child with one raycast trigger per child....">
<polygon fill="white" stroke="black" points="119,-303.5 119,-525.5 280,-525.5 280,-303.5 119,-303.5"/>
<text text-anchor="middle" x="199.5" y="-513.5" font-family="Courier New" font-size="10.00">C2M2.RaycastEventManager</text>
<polyline fill="none" stroke="black" points="119,-506.5 280,-506.5 "/>
<text text-anchor="middle" x="199.5" y="-494.5" font-family="Courier New" font-size="10.00"> </text>
<polyline fill="none" stroke="black" points="119,-487.5 280,-487.5 "/>
<text text-anchor="start" x="127" y="-475.5" font-family="Courier New" font-size="10.00">+ TriggerChangeRight()</text>
<text text-anchor="start" x="127" y="-464.5" font-family="Courier New" font-size="10.00">+ TriggerChangeLeft()</text>
<text text-anchor="start" x="127" y="-453.5" font-family="Courier New" font-size="10.00">+ TriggerChangeBoth()</text>
<text text-anchor="start" x="127" y="-442.5" font-family="Courier New" font-size="10.00">+ TriggerEmptyRight()</text>
<text text-anchor="start" x="127" y="-431.5" font-family="Courier New" font-size="10.00">+ TriggerEmptyLeft()</text>
<text text-anchor="start" x="127" y="-420.5" font-family="Courier New" font-size="10.00">+ TriggerEmptyBoth()</text>
<text text-anchor="start" x="127" y="-409.5" font-family="Courier New" font-size="10.00">+ PressEvent()</text>
<text text-anchor="start" x="127" y="-398.5" font-family="Courier New" font-size="10.00">+ HoldEvent()</text>
<text text-anchor="start" x="127" y="-387.5" font-family="Courier New" font-size="10.00">+ EndEvent()</text>
<text text-anchor="start" x="127" y="-376.5" font-family="Courier New" font-size="10.00">+ AllEvents()</text>
<text text-anchor="start" x="127" y="-365.5" font-family="Courier New" font-size="10.00">+ PressEventNull()</text>
<text text-anchor="start" x="127" y="-354.5" font-family="Courier New" font-size="10.00">+ HoldEventNull()</text>
<text text-anchor="start" x="127" y="-343.5" font-family="Courier New" font-size="10.00">+ EndEventNull()</text>
<text text-anchor="start" x="127" y="-332.5" font-family="Courier New" font-size="10.00">+ AllEventsNull()</text>
<text text-anchor="start" x="127" y="-321.5" font-family="Courier New" font-size="10.00">+ ToString()</text>
<text text-anchor="start" x="127" y="-310.5" font-family="Courier New" font-size="10.00">&#45; Awake()</text>
</a>
</g>
</g>
<!-- Node3&#45;&gt;Node4 -->
<g id="edge4" class="edge"><title>Node3&#45;&gt;Node4</title>
<path fill="none" stroke="midnightblue" d="M127.247,-819.754C138.759,-755.34 162.617,-621.858 179.771,-525.882"/>
<polygon fill="none" stroke="midnightblue" points="123.756,-819.391 125.442,-829.851 130.647,-820.623 123.756,-819.391"/>
</g>
<!-- Node5 -->
<g id="node5" class="node"><title>Node5</title>
<g id="a_node5"><a xlink:href="../../dd/dab/class_c2_m2_1_1_raycast_press_events.html" target="_top" xlink:title="Store custom events that the corresponding RaycastTriggerManager will invoke">
<polygon fill="white" stroke="black" points="169,-653.5 169,-754.5 324,-754.5 324,-653.5 169,-653.5"/>
<text text-anchor="middle" x="246.5" y="-742.5" font-family="Courier New" font-size="10.00">C2M2.RaycastPressEvents</text>
<polyline fill="none" stroke="black" points="169,-735.5 324,-735.5 "/>
<text text-anchor="start" x="177" y="-723.5" font-family="Courier New" font-size="10.00">+ OnPress</text>
<text text-anchor="start" x="177" y="-712.5" font-family="Courier New" font-size="10.00">+ OnHoldPress</text>
<text text-anchor="start" x="177" y="-701.5" font-family="Courier New" font-size="10.00">+ OnEndPress</text>
<polyline fill="none" stroke="black" points="169,-694.5 324,-694.5 "/>
<text text-anchor="start" x="177" y="-682.5" font-family="Courier New" font-size="10.00">+ Press()</text>
<text text-anchor="start" x="177" y="-671.5" font-family="Courier New" font-size="10.00">+ HoldPress()</text>
<text text-anchor="start" x="177" y="-660.5" font-family="Courier New" font-size="10.00">+ EndPress()</text>
</a>
</g>
</g>
<!-- Node3&#45;&gt;Node5 -->
<g id="edge6" class="edge"><title>Node3&#45;&gt;Node5</title>
<path fill="none" stroke="midnightblue" d="M149.89,-821.928C166.441,-801.897 187.366,-776.571 205.507,-754.614"/>
<polygon fill="none" stroke="midnightblue" points="146.989,-819.945 143.318,-829.883 152.385,-824.404 146.989,-819.945"/>
</g>
<!-- Node4&#45;&gt;Node1 -->
<g id="edge3" class="edge"><title>Node4&#45;&gt;Node1</title>
<path fill="none" stroke="#404040" d="M168.067,-303.098C164.765,-291.5 161.379,-279.605 158.001,-267.743"/>
<polygon fill="none" stroke="#404040" points="157.917,-267.445 152.427,-262.769 154.631,-255.903 160.121,-260.579 157.917,-267.445"/>
<text text-anchor="middle" x="201" y="-277" font-family="Courier New" font-size="10.00"> &#45;activeEvent</text>
</g>
<!-- Node5&#45;&gt;Node4 -->
<g id="edge5" class="edge"><title>Node5&#45;&gt;Node4</title>
<path fill="none" stroke="#404040" d="M238.367,-653.25C233.142,-621.288 226.112,-578.287 219.468,-537.644"/>
<polygon fill="none" stroke="#404040" points="219.45,-537.532 214.534,-532.256 217.514,-525.69 222.429,-530.966 219.45,-537.532"/>
<text text-anchor="middle" x="275" y="-598" font-family="Courier New" font-size="10.00"> +leftTrigger</text>
<text text-anchor="middle" x="275" y="-587" font-family="Courier New" font-size="10.00">+rightTrigger</text>
<text text-anchor="middle" x="275" y="-576" font-family="Courier New" font-size="10.00">&#45;emptyTrigger</text>
</g>
<!-- Node6 -->
<g id="node6" class="node"><title>Node6</title>
<g id="a_node6"><a xlink:href="../../db/d79/class_c2_m2_1_1_raycast_press_events_1_1_raycast_hit_event.html" target="_top" xlink:title=" ">
<polygon fill="white" stroke="black" points="186,-824.5 186,-892.5 347,-892.5 347,-824.5 186,-824.5"/>
<text text-anchor="start" x="194" y="-880.5" font-family="Courier New" font-size="10.00">C2M2.RaycastPressEvents.</text>
<text text-anchor="middle" x="266.5" y="-869.5" font-family="Courier New" font-size="10.00">RaycastHitEvent</text>
<polyline fill="none" stroke="black" points="186,-862.5 347,-862.5 "/>
<text text-anchor="middle" x="266.5" y="-850.5" font-family="Courier New" font-size="10.00"> </text>
<polyline fill="none" stroke="black" points="186,-843.5 347,-843.5 "/>
<text text-anchor="middle" x="266.5" y="-831.5" font-family="Courier New" font-size="10.00"> </text>
</a>
</g>
</g>
<!-- Node6&#45;&gt;Node5 -->
<g id="edge7" class="edge"><title>Node6&#45;&gt;Node5</title>
<path fill="none" stroke="#404040" d="M262.16,-824.41C259.944,-807.507 257.173,-786.385 254.582,-766.625"/>
<polygon fill="none" stroke="#404040" points="254.558,-766.445 249.812,-761.016 252.998,-754.547 257.744,-759.976 254.558,-766.445"/>
<text text-anchor="middle" x="296" y="-798" font-family="Courier New" font-size="10.00"> &#45;onPress</text>
<text text-anchor="middle" x="296" y="-787" font-family="Courier New" font-size="10.00">&#45;onHoldPress</text>
<text text-anchor="middle" x="296" y="-776" font-family="Courier New" font-size="10.00">&#45;onEndPress</text>
</g>
<!-- Node7 -->
<g id="node7" class="node"><title>Node7</title>
<g id="a_node7"><a xlink:title=" ">
<polygon fill="white" stroke="#bfbfbf" points="186,-930.5 186,-987.5 347,-987.5 347,-930.5 186,-930.5"/>
<text text-anchor="middle" x="266.5" y="-975.5" font-family="Courier New" font-size="10.00">UnityEvent&lt; RaycastHit &gt;</text>
<polyline fill="none" stroke="#bfbfbf" points="186,-968.5 347,-968.5 "/>
<text text-anchor="middle" x="266.5" y="-956.5" font-family="Courier New" font-size="10.00"> </text>
<polyline fill="none" stroke="#bfbfbf" points="186,-949.5 347,-949.5 "/>
<text text-anchor="middle" x="266.5" y="-937.5" font-family="Courier New" font-size="10.00"> </text>
</a>
</g>
</g>
<!-- Node7&#45;&gt;Node6 -->
<g id="edge8" class="edge"><title>Node7&#45;&gt;Node6</title>
<path fill="none" stroke="midnightblue" d="M266.5,-920.007C266.5,-910.962 266.5,-901.383 266.5,-892.578"/>
<polygon fill="none" stroke="midnightblue" points="263,-920.3 266.5,-930.3 270,-920.3 263,-920.3"/>
</g>
<!-- Node8 -->
<g id="node8" class="node"><title>Node8</title>
<g id="a_node8"><a xlink:title=" ">
<polygon fill="white" stroke="#bfbfbf" points="342,-675.5 342,-732.5 395,-732.5 395,-675.5 342,-675.5"/>
<text text-anchor="middle" x="368.5" y="-720.5" font-family="Courier New" font-size="10.00">static</text>
<polyline fill="none" stroke="#bfbfbf" points="342,-713.5 395,-713.5 "/>
<text text-anchor="middle" x="368.5" y="-701.5" font-family="Courier New" font-size="10.00"> </text>
<polyline fill="none" stroke="#bfbfbf" points="342,-694.5 395,-694.5 "/>
<text text-anchor="middle" x="368.5" y="-682.5" font-family="Courier New" font-size="10.00"> </text>
</a>
</g>
</g>
<!-- Node8&#45;&gt;Node4 -->
<g id="edge9" class="edge"><title>Node8&#45;&gt;Node4</title>
<path fill="none" stroke="#404040" d="M363.665,-675.338C357.057,-642.371 343.12,-586.421 318.5,-544 309.882,-529.15 299.275,-514.599 287.977,-500.937"/>
<polygon fill="none" stroke="#404040" points="287.835,-500.77 280.901,-498.791 280.061,-491.629 286.995,-493.608 287.835,-500.77"/>
<text text-anchor="middle" x="381" y="-587" font-family="Courier New" font-size="10.00"> &#45;nullHit</text>
</g>
</g>
</svg>
