<?xml version="1.0" encoding="UTF-8" standalone="no"?>
<!DOCTYPE svg PUBLIC "-//W3C//DTD SVG 1.1//EN"
 "http://www.w3.org/Graphics/SVG/1.1/DTD/svg11.dtd">
<!-- Generated by graphviz version 2.46.0 (20210118.1747)
 -->
<!-- Title: C2M2.Interaction.VR.VRDeviceManager Pages: 1 -->
<svg width="193pt" height="259pt"
 viewBox="0.00 0.00 193.00 259.00" xmlns="http://www.w3.org/2000/svg" xmlns:xlink="http://www.w3.org/1999/xlink">
<g id="graph0" class="graph" transform="scale(1 1) rotate(0) translate(4 255)">
<title>C2M2.Interaction.VR.VRDeviceManager</title>
<polygon fill="white" stroke="transparent" points="-4,4 -4,-255 189,-255 189,4 -4,4"/>
<!-- Node1 -->
<g id="node1" class="node">
<title>Node1</title>
<g id="a_node1"><a xlink:title="Make sure that a VR device is loaded before using OVRPlayerController. If none is loaded,...">
<polygon fill="#bfbfbf" stroke="black" points="0,-0.5 0,-156.5 185,-156.5 185,-0.5 0,-0.5"/>
<text text-anchor="start" x="8" y="-144.5" font-family="Courier New" font-size="10.00">C2M2.Interaction.VR.VRDevice</text>
<text text-anchor="middle" x="92.5" y="-133.5" font-family="Courier New" font-size="10.00">Manager</text>
<polyline fill="none" stroke="black" points="0,-126.5 185,-126.5 "/>
<text text-anchor="start" x="8" y="-114.5" font-family="Courier New" font-size="10.00">+ informationOverlay</text>
<text text-anchor="start" x="8" y="-103.5" font-family="Courier New" font-size="10.00">+ informationDisplayTV</text>
<text text-anchor="start" x="8" y="-92.5" font-family="Courier New" font-size="10.00">+ VrIsActive</text>
<text text-anchor="start" x="8" y="-81.5" font-family="Courier New" font-size="10.00">+ vrDevice</text>
<text text-anchor="start" x="8" y="-70.5" font-family="Courier New" font-size="10.00">&#45; emulator</text>
<text text-anchor="start" x="8" y="-59.5" font-family="Courier New" font-size="10.00">&#45; mouseSignaler</text>
<text text-anchor="start" x="8" y="-48.5" font-family="Courier New" font-size="10.00">&#45; playerController</text>
<text text-anchor="start" x="8" y="-37.5" font-family="Courier New" font-size="10.00">&#45; emulatorMove</text>
<polyline fill="none" stroke="black" points="0,-30.5 185,-30.5 "/>
<text text-anchor="start" x="8" y="-18.5" font-family="Courier New" font-size="10.00">&#45; Awake()</text>
<text text-anchor="start" x="8" y="-7.5" font-family="Courier New" font-size="10.00">&#45; SwitchState()</text>
</a>
</g>
</g>
<!-- Node2 -->
<g id="node2" class="node">
<title>Node2</title>
<g id="a_node2"><a xlink:title=" ">
<polygon fill="white" stroke="#bfbfbf" points="45,-193.5 45,-250.5 140,-250.5 140,-193.5 45,-193.5"/>
<text text-anchor="middle" x="92.5" y="-238.5" font-family="Courier New" font-size="10.00">MonoBehaviour</text>
<polyline fill="none" stroke="#bfbfbf" points="45,-231.5 140,-231.5 "/>
<text text-anchor="middle" x="92.5" y="-219.5" font-family="Courier New" font-size="10.00"> </text>
<polyline fill="none" stroke="#bfbfbf" points="45,-212.5 140,-212.5 "/>
<text text-anchor="middle" x="92.5" y="-200.5" font-family="Courier New" font-size="10.00"> </text>
</a>
</g>
</g>
<!-- Node2&#45;&gt;Node1 -->
<g id="edge1" class="edge">
<title>Node2&#45;&gt;Node1</title>
<path fill="none" stroke="midnightblue" d="M92.5,-183.34C92.5,-175.04 92.5,-165.96 92.5,-156.74"/>
<polygon fill="none" stroke="midnightblue" points="89,-183.38 92.5,-193.38 96,-183.38 89,-183.38"/>
</g>
</g>
</svg>
