<?xml version="1.0" encoding="UTF-8" standalone="no"?>
<!DOCTYPE svg PUBLIC "-//W3C//DTD SVG 1.1//EN"
 "http://www.w3.org/Graphics/SVG/1.1/DTD/svg11.dtd">
<!-- Generated by graphviz version 2.38.0 (20140413.2041)
 -->
<!-- Title: C2M2.Interaction.RaycastSimHeaterContinuous Pages: 1 -->
<svg width="962pt" height="900pt"
 viewBox="0.00 0.00 962.00 900.00" xmlns="http://www.w3.org/2000/svg" xmlns:xlink="http://www.w3.org/1999/xlink">
<g id="graph0" class="graph" transform="scale(1 1) rotate(0) translate(4 896)">
<title>C2M2.Interaction.RaycastSimHeaterContinuous</title>
<polygon fill="white" stroke="none" points="-4,4 -4,-896 958,-896 958,4 -4,4"/>
<!-- Node1 -->
<g id="node1" class="node"><title>Node1</title>
<g id="a_node1"><a xlink:title=" ">
<polygon fill="#bfbfbf" stroke="black" points="559,-0.5 559,-101.5 732,-101.5 732,-0.5 559,-0.5"/>
<text text-anchor="start" x="567" y="-89.5" font-family="Courier New" font-size="10.00">C2M2.Interaction.Raycast</text>
<text text-anchor="middle" x="645.5" y="-78.5" font-family="Courier New" font-size="10.00">SimHeaterContinuous</text>
<polyline fill="none" stroke="black" points="559,-71.5 732,-71.5 "/>
<text text-anchor="middle" x="645.5" y="-59.5" font-family="Courier New" font-size="10.00"> </text>
<polyline fill="none" stroke="black" points="559,-52.5 732,-52.5 "/>
<text text-anchor="start" x="567" y="-40.5" font-family="Courier New" font-size="10.00">+ SetWarmCoolHands()</text>
<text text-anchor="start" x="567" y="-29.5" font-family="Courier New" font-size="10.00">+ RaycastersDefaultColor()</text>
<text text-anchor="start" x="567" y="-18.5" font-family="Courier New" font-size="10.00"># OnAwake()</text>
<text text-anchor="start" x="567" y="-7.5" font-family="Courier New" font-size="10.00"># HitMethod()</text>
</a>
</g>
</g>
<!-- Node2 -->
<g id="node2" class="node"><title>Node2</title>
<g id="a_node2"><a xlink:href="../../d4/dfc/class_c2_m2_1_1_interaction_1_1_raycast_sim_heater.html" target="_top" xlink:title=" ">
<polygon fill="white" stroke="black" points="236,-139.5 236,-229.5 349,-229.5 349,-139.5 236,-139.5"/>
<text text-anchor="middle" x="292.5" y="-217.5" font-family="Courier New" font-size="10.00">RaycastSimHeater</text>
<polyline fill="none" stroke="black" points="236,-210.5 349,-210.5 "/>
<text text-anchor="middle" x="292.5" y="-198.5" font-family="Courier New" font-size="10.00"> </text>
<polyline fill="none" stroke="black" points="236,-191.5 349,-191.5 "/>
<text text-anchor="start" x="244" y="-179.5" font-family="Courier New" font-size="10.00">+ Hit()</text>
<text text-anchor="start" x="244" y="-168.5" font-family="Courier New" font-size="10.00"># OnAwake()</text>
<text text-anchor="start" x="244" y="-157.5" font-family="Courier New" font-size="10.00"># HitMethod()</text>
<text text-anchor="start" x="244" y="-146.5" font-family="Courier New" font-size="10.00">&#45; Awake()</text>
</a>
</g>
</g>
<!-- Node2&#45;&gt;Node1 -->
<g id="edge1" class="edge"><title>Node2&#45;&gt;Node1</title>
<path fill="none" stroke="midnightblue" d="M358.775,-158.811C415.363,-137.731 497.155,-107.262 558.912,-84.256"/>
<polygon fill="none" stroke="midnightblue" points="357.365,-155.602 349.216,-162.372 359.808,-162.161 357.365,-155.602"/>
</g>
<!-- Node3 -->
<g id="node3" class="node"><title>Node3</title>
<g id="a_node3"><a xlink:title=" ">
<polygon fill="white" stroke="#bfbfbf" points="340,-834.5 340,-891.5 435,-891.5 435,-834.5 340,-834.5"/>
<text text-anchor="middle" x="387.5" y="-879.5" font-family="Courier New" font-size="10.00">MonoBehaviour</text>
<polyline fill="none" stroke="#bfbfbf" points="340,-872.5 435,-872.5 "/>
<text text-anchor="middle" x="387.5" y="-860.5" font-family="Courier New" font-size="10.00"> </text>
<polyline fill="none" stroke="#bfbfbf" points="340,-853.5 435,-853.5 "/>
<text text-anchor="middle" x="387.5" y="-841.5" font-family="Courier New" font-size="10.00"> </text>
</a>
</g>
</g>
<!-- Node3&#45;&gt;Node2 -->
<g id="edge2" class="edge"><title>Node3&#45;&gt;Node2</title>
<path fill="none" stroke="midnightblue" d="M383.309,-824.412C374.052,-742.563 350.678,-542.134 325.5,-375 317.988,-325.137 307.857,-268.167 300.81,-229.822"/>
<polygon fill="none" stroke="midnightblue" points="379.846,-824.934 384.444,-834.479 386.801,-824.15 379.846,-824.934"/>
</g>
<!-- Node4 -->
<g id="node4" class="node"><title>Node4</title>
<g id="a_node4"><a xlink:href="../../d5/d84/class_c2_m2_1_1_interaction_1_1_v_r_1_1_v_r_raycastable.html" target="_top" xlink:title=" ">
<polygon fill="white" stroke="black" points="125,-641.5 125,-753.5 340,-753.5 340,-641.5 125,-641.5"/>
<text text-anchor="middle" x="232.5" y="-741.5" font-family="Courier New" font-size="10.00">C2M2.Interaction.VR.VRRaycastable</text>
<polyline fill="none" stroke="black" points="125,-734.5 340,-734.5 "/>
<text text-anchor="start" x="133" y="-722.5" font-family="Courier New" font-size="10.00">+ raycastTargetObject</text>
<text text-anchor="start" x="133" y="-711.5" font-family="Courier New" font-size="10.00">+ ColliderMesh</text>
<text text-anchor="start" x="133" y="-700.5" font-family="Courier New" font-size="10.00">&#45; colliderMesh</text>
<polyline fill="none" stroke="black" points="125,-693.5 340,-693.5 "/>
<text text-anchor="start" x="133" y="-681.5" font-family="Courier New" font-size="10.00">&#45; Awake()</text>
<text text-anchor="start" x="133" y="-670.5" font-family="Courier New" font-size="10.00">&#45; BuildChildObject()</text>
<text text-anchor="start" x="133" y="-659.5" font-family="Courier New" font-size="10.00">&#45; BuildRigidBody()</text>
<text text-anchor="start" x="133" y="-648.5" font-family="Courier New" font-size="10.00">&#45; BuildMeshCollider()</text>
</a>
</g>
</g>
<!-- Node3&#45;&gt;Node4 -->
<g id="edge4" class="edge"><title>Node3&#45;&gt;Node4</title>
<path fill="none" stroke="midnightblue" d="M354.308,-826.988C334.045,-805.613 307.695,-777.819 284.689,-753.551"/>
<polygon fill="none" stroke="midnightblue" points="351.786,-829.415 361.206,-834.264 356.866,-824.599 351.786,-829.415"/>
</g>
<!-- Node5 -->
<g id="node5" class="node"><title>Node5</title>
<g id="a_node5"><a xlink:href="../../dc/daa/class_c2_m2_1_1_simulation_1_1_interactable.html" target="_top" xlink:title="Manages interaction input to simulations">
<polygon fill="white" stroke="black" points="0,-283 0,-351 185,-351 185,-283 0,-283"/>
<text text-anchor="middle" x="92.5" y="-339" font-family="Courier New" font-size="10.00">C2M2.Simulation.Interactable</text>
<polyline fill="none" stroke="black" points="0,-332 185,-332 "/>
<text text-anchor="start" x="8" y="-320" font-family="Courier New" font-size="10.00">+ interactionType</text>
<text text-anchor="start" x="8" y="-309" font-family="Courier New" font-size="10.00">+ SimHeater</text>
<polyline fill="none" stroke="black" points="0,-302 185,-302 "/>
<text text-anchor="start" x="8" y="-290" font-family="Courier New" font-size="10.00">+ SetValues()</text>
</a>
</g>
</g>
<!-- Node3&#45;&gt;Node5 -->
<g id="edge6" class="edge"><title>Node3&#45;&gt;Node5</title>
<path fill="none" stroke="midnightblue" d="M329.735,-856.684C249.042,-847.878 109.207,-827.114 80.5,-787 -18.9531,-648.029 31.9291,-574.269 46.5,-404 47.6152,-390.969 46.4412,-387.061 51.5,-375 54.9419,-366.794 59.7547,-358.633 64.8767,-351.159"/>
<polygon fill="none" stroke="midnightblue" points="329.437,-860.172 339.751,-857.749 330.177,-853.211 329.437,-860.172"/>
</g>
<!-- Node6 -->
<g id="node6" class="node"><title>Node6</title>
<g id="a_node6"><a xlink:href="../../d4/dfc/class_c2_m2_1_1_interaction_1_1_raycast_sim_heater.html" target="_top" xlink:title=" ">
<polygon fill="white" stroke="black" points="56,-432 56,-533 217,-533 217,-432 56,-432"/>
<text text-anchor="start" x="64" y="-521" font-family="Courier New" font-size="10.00">C2M2.Interaction.Raycast</text>
<text text-anchor="middle" x="136.5" y="-510" font-family="Courier New" font-size="10.00">SimHeater</text>
<polyline fill="none" stroke="black" points="56,-503 217,-503 "/>
<text text-anchor="middle" x="136.5" y="-491" font-family="Courier New" font-size="10.00"> </text>
<polyline fill="none" stroke="black" points="56,-484 217,-484 "/>
<text text-anchor="start" x="64" y="-472" font-family="Courier New" font-size="10.00">+ Hit()</text>
<text text-anchor="start" x="64" y="-461" font-family="Courier New" font-size="10.00"># OnAwake()</text>
<text text-anchor="start" x="64" y="-450" font-family="Courier New" font-size="10.00"># HitMethod()</text>
<text text-anchor="start" x="64" y="-439" font-family="Courier New" font-size="10.00">&#45; Awake()</text>
</a>
</g>
</g>
<!-- Node3&#45;&gt;Node6 -->
<g id="edge8" class="edge"><title>Node3&#45;&gt;Node6</title>
<path fill="none" stroke="midnightblue" d="M329.536,-854.27C257.625,-843.354 141.312,-820.893 115.5,-787 59.4186,-713.362 89.9619,-598.314 114.81,-533.061"/>
<polygon fill="none" stroke="midnightblue" points="329.402,-857.788 339.808,-855.797 330.431,-850.864 329.402,-857.788"/>
</g>
<!-- Node7 -->
<g id="node7" class="node"><title>Node7</title>
<g id="a_node7"><a xlink:href="../../d2/d9a/class_c2_m2_1_1_interaction_1_1_adjacency_1_1_unique_vertices.html" target="_top" xlink:title="Get the unique vertices of a mesh and add invisible vertices for adjacency list">
<polygon fill="white" stroke="black" points="463,-608.5 463,-786.5 672,-786.5 672,-608.5 463,-608.5"/>
<text text-anchor="start" x="471" y="-774.5" font-family="Courier New" font-size="10.00">C2M2.Interaction.Adjacency.</text>
<text text-anchor="middle" x="567.5" y="-763.5" font-family="Courier New" font-size="10.00">UniqueVertices</text>
<polyline fill="none" stroke="black" points="463,-756.5 672,-756.5 "/>
<text text-anchor="start" x="471" y="-744.5" font-family="Courier New" font-size="10.00">+ subdivisions</text>
<text text-anchor="start" x="471" y="-733.5" font-family="Courier New" font-size="10.00">+ uniqueVerts</text>
<text text-anchor="start" x="471" y="-722.5" font-family="Courier New" font-size="10.00">+ uniqueMeshVertLength</text>
<text text-anchor="start" x="471" y="-711.5" font-family="Courier New" font-size="10.00">+ uniqueVertReverseLookup</text>
<text text-anchor="start" x="471" y="-700.5" font-family="Courier New" font-size="10.00">&#45; vertices</text>
<text text-anchor="start" x="471" y="-689.5" font-family="Courier New" font-size="10.00">&#45; triangles</text>
<polyline fill="none" stroke="black" points="463,-682.5 672,-682.5 "/>
<text text-anchor="start" x="471" y="-670.5" font-family="Courier New" font-size="10.00">+ FindNearestUniqueVert()</text>
<text text-anchor="start" x="471" y="-659.5" font-family="Courier New" font-size="10.00">+ RaycastFindNearestUnique</text>
<text text-anchor="start" x="471" y="-648.5" font-family="Courier New" font-size="10.00">Verts()</text>
<text text-anchor="start" x="471" y="-637.5" font-family="Courier New" font-size="10.00">&#45; Awake()</text>
<text text-anchor="start" x="471" y="-626.5" font-family="Courier New" font-size="10.00">&#45; BuildInvisibleVerts()</text>
<text text-anchor="start" x="471" y="-615.5" font-family="Courier New" font-size="10.00">&#45; BuildUniqueVertReverseLookup()</text>
</a>
</g>
</g>
<!-- Node3&#45;&gt;Node7 -->
<g id="edge12" class="edge"><title>Node3&#45;&gt;Node7</title>
<path fill="none" stroke="midnightblue" d="M425.588,-827.404C438.893,-815.318 454.499,-801.143 470.402,-786.697"/>
<polygon fill="none" stroke="midnightblue" points="423.083,-824.95 418.035,-834.264 427.79,-830.132 423.083,-824.95"/>
</g>
<!-- Node8 -->
<g id="node8" class="node"><title>Node8</title>
<g id="a_node8"><a xlink:href="../../da/dfa/class_c2_m2_1_1_interaction_1_1_adjacency_1_1_gaussian_distance_calculator.html" target="_top" xlink:title="Find Gaussian curve values in 3D space at a given distance from origin">
<polygon fill="white" stroke="black" points="775,-614 775,-781 954,-781 954,-614 775,-614"/>
<text text-anchor="start" x="783" y="-769" font-family="Courier New" font-size="10.00">C2M2.Interaction.Adjacency.</text>
<text text-anchor="middle" x="864.5" y="-758" font-family="Courier New" font-size="10.00">GaussianDistanceCalculator</text>
<polyline fill="none" stroke="black" points="775,-751 954,-751 "/>
<text text-anchor="start" x="783" y="-739" font-family="Courier New" font-size="10.00">+ height</text>
<text text-anchor="start" x="783" y="-728" font-family="Courier New" font-size="10.00">+ StdDev</text>
<text text-anchor="start" x="783" y="-717" font-family="Courier New" font-size="10.00">&#45; stdDev</text>
<text text-anchor="start" x="783" y="-706" font-family="Courier New" font-size="10.00">&#45; stdDevSq</text>
<text text-anchor="start" x="783" y="-695" font-family="Courier New" font-size="10.00">&#45; twoXstdDevSq</text>
<text text-anchor="start" x="783" y="-684" font-family="Courier New" font-size="10.00">&#45; stdDevCb</text>
<polyline fill="none" stroke="black" points="775,-677 954,-677 "/>
<text text-anchor="start" x="783" y="-665" font-family="Courier New" font-size="10.00">+ SetGaussian()</text>
<text text-anchor="start" x="783" y="-654" font-family="Courier New" font-size="10.00">+ CalculateGaussian()</text>
<text text-anchor="start" x="783" y="-643" font-family="Courier New" font-size="10.00">+ CalculateGaussian()</text>
<text text-anchor="start" x="783" y="-632" font-family="Courier New" font-size="10.00">+ CalculateGaussianDistSq()</text>
<text text-anchor="start" x="783" y="-621" font-family="Courier New" font-size="10.00">+ DistanceThreshold()</text>
</a>
</g>
</g>
<!-- Node3&#45;&gt;Node8 -->
<g id="edge14" class="edge"><title>Node3&#45;&gt;Node8</title>
<path fill="none" stroke="midnightblue" d="M445.164,-859.842C535.869,-855.629 707.059,-844.128 760.5,-816 777.013,-807.309 792.136,-794.856 805.429,-781.277"/>
<polygon fill="none" stroke="midnightblue" points="444.879,-856.351 435.047,-860.297 445.194,-863.344 444.879,-856.351"/>
</g>
<!-- Node10 -->
<g id="node10" class="node"><title>Node10</title>
<g id="a_node10"><a xlink:href="../../df/d79/class_c2_m2_1_1_interaction_1_1_adjacency_1_1_dijkstra_search.html" target="_top" xlink:title=" ">
<polygon fill="white" stroke="black" points="493,-277.5 493,-356.5 672,-356.5 672,-277.5 493,-277.5"/>
<text text-anchor="start" x="501" y="-344.5" font-family="Courier New" font-size="10.00">C2M2.Interaction.Adjacency.</text>
<text text-anchor="middle" x="582.5" y="-333.5" font-family="Courier New" font-size="10.00">DijkstraSearch</text>
<polyline fill="none" stroke="black" points="493,-326.5 672,-326.5 "/>
<text text-anchor="start" x="501" y="-314.5" font-family="Courier New" font-size="10.00">+ minDistances</text>
<polyline fill="none" stroke="black" points="493,-307.5 672,-307.5 "/>
<text text-anchor="start" x="501" y="-295.5" font-family="Courier New" font-size="10.00">+ Search()</text>
<text text-anchor="start" x="501" y="-284.5" font-family="Courier New" font-size="10.00">&#45; Awake()</text>
</a>
</g>
</g>
<!-- Node3&#45;&gt;Node10 -->
<g id="edge17" class="edge"><title>Node3&#45;&gt;Node10</title>
<path fill="none" stroke="midnightblue" d="M445.156,-855.557C522.073,-845.639 651.92,-823.818 680.5,-787 784.88,-652.536 750.727,-559.061 680.5,-404 672.189,-385.648 657.811,-369.662 642.591,-356.615"/>
<polygon fill="none" stroke="midnightblue" points="444.613,-852.098 435.13,-856.822 445.489,-859.043 444.613,-852.098"/>
</g>
<!-- Node11 -->
<g id="node11" class="node"><title>Node11</title>
<g id="a_node11"><a xlink:href="../../d1/d3e/class_c2_m2_1_1_interaction_1_1_adjacency_1_1_adjacency_list.html" target="_top" xlink:title=" ">
<polygon fill="white" stroke="black" points="368,-404.5 368,-560.5 547,-560.5 547,-404.5 368,-404.5"/>
<text text-anchor="start" x="376" y="-548.5" font-family="Courier New" font-size="10.00">C2M2.Interaction.Adjacency.</text>
<text text-anchor="middle" x="457.5" y="-537.5" font-family="Courier New" font-size="10.00">AdjacencyList</text>
<polyline fill="none" stroke="black" points="368,-530.5 547,-530.5 "/>
<text text-anchor="start" x="376" y="-518.5" font-family="Courier New" font-size="10.00">+ adjacencyList</text>
<text text-anchor="start" x="376" y="-507.5" font-family="Courier New" font-size="10.00">+ edgeList</text>
<text text-anchor="start" x="376" y="-496.5" font-family="Courier New" font-size="10.00">+ edgeCount</text>
<text text-anchor="start" x="376" y="-485.5" font-family="Courier New" font-size="10.00">&#45; mesh</text>
<text text-anchor="start" x="376" y="-474.5" font-family="Courier New" font-size="10.00">&#45; vertices</text>
<text text-anchor="start" x="376" y="-463.5" font-family="Courier New" font-size="10.00">&#45; triangles</text>
<text text-anchor="start" x="376" y="-452.5" font-family="Courier New" font-size="10.00">&#45; duplicate</text>
<polyline fill="none" stroke="black" points="368,-445.5 547,-445.5 "/>
<text text-anchor="start" x="376" y="-433.5" font-family="Courier New" font-size="10.00">&#45; Awake()</text>
<text text-anchor="start" x="376" y="-422.5" font-family="Courier New" font-size="10.00">&#45; CreateAdjacencyList()</text>
<text text-anchor="start" x="376" y="-411.5" font-family="Courier New" font-size="10.00">&#45; AdjacencyListAddEdge()</text>
</a>
</g>
</g>
<!-- Node3&#45;&gt;Node11 -->
<g id="edge20" class="edge"><title>Node3&#45;&gt;Node11</title>
<path fill="none" stroke="midnightblue" d="M394.436,-824.498C405.744,-763.354 428.378,-640.964 443.229,-560.664"/>
<polygon fill="none" stroke="midnightblue" points="390.968,-824.005 392.591,-834.474 397.851,-825.278 390.968,-824.005"/>
</g>
<!-- Node4&#45;&gt;Node2 -->
<g id="edge3" class="edge"><title>Node4&#45;&gt;Node2</title>
<path fill="none" stroke="#404040" d="M231.654,-641.305C231.419,-577.023 233.345,-467.792 246.5,-375 252.953,-329.48 265.505,-278.927 275.868,-241.492"/>
<polygon fill="none" stroke="#404040" points="275.901,-241.375 273.672,-234.517 279.146,-229.822 281.375,-236.68 275.901,-241.375"/>
<text text-anchor="middle" x="286" y="-378" font-family="Courier New" font-size="10.00"> #raycastable</text>
</g>
<!-- Node4&#45;&gt;Node6 -->
<g id="edge9" class="edge"><title>Node4&#45;&gt;Node6</title>
<path fill="none" stroke="#404040" d="M183.059,-641.416C171.332,-625.752 160.05,-608.023 152.5,-590 146.629,-575.984 142.873,-560.134 140.481,-545.026"/>
<polygon fill="none" stroke="#404040" points="140.478,-545.006 135.697,-539.608 138.841,-533.118 143.622,-538.516 140.478,-545.006"/>
<text text-anchor="middle" x="192" y="-582" font-family="Courier New" font-size="10.00"> #raycastable</text>
</g>
<!-- Node5&#45;&gt;Node2 -->
<g id="edge5" class="edge"><title>Node5&#45;&gt;Node2</title>
<path fill="none" stroke="#404040" d="M120.249,-282.692C131.312,-270.75 144.692,-257.823 158.5,-248 178.72,-233.615 202.776,-221.182 224.888,-211.278"/>
<polygon fill="none" stroke="#404040" points="224.901,-211.272 228.803,-205.208 235.901,-206.477 232,-212.541 224.901,-211.272"/>
<text text-anchor="middle" x="195" y="-251" font-family="Courier New" font-size="10.00"> #simulation</text>
</g>
<!-- Node5&#45;&gt;Node6 -->
<g id="edge10" class="edge"><title>Node5&#45;&gt;Node6</title>
<path fill="none" stroke="#404040" d="M62.3434,-351.051C55.9246,-361.896 52.2103,-374.199 56.5,-386 61.1577,-398.813 68.372,-411.107 76.6015,-422.359"/>
<polygon fill="none" stroke="#404040" points="76.6999,-422.486 83.5383,-424.774 84.0561,-431.967 77.2177,-429.679 76.6999,-422.486"/>
<text text-anchor="middle" x="93" y="-378" font-family="Courier New" font-size="10.00"> #simulation</text>
</g>
<!-- Node6&#45;&gt;Node5 -->
<g id="edge7" class="edge"><title>Node6&#45;&gt;Node5</title>
<path fill="none" stroke="#404040" d="M141.104,-431.921C141.259,-413.613 139.569,-392.962 133.5,-375 131.963,-370.453 129.93,-365.956 127.588,-361.602"/>
<polygon fill="none" stroke="#404040" points="127.458,-361.387 120.928,-358.328 121.24,-351.123 127.77,-354.183 127.458,-361.387"/>
<text text-anchor="middle" x="170" y="-378" font-family="Courier New" font-size="10.00"> #simHeater</text>
</g>
<!-- Node7&#45;&gt;Node1 -->
<g id="edge11" class="edge"><title>Node7&#45;&gt;Node1</title>
<path fill="none" stroke="#404040" d="M658.193,-608.402C685.564,-572.79 708.5,-529.289 708.5,-483.5 708.5,-483.5 708.5,-483.5 708.5,-183.5 708.5,-158.704 699.277,-133.631 687.888,-112.124"/>
<polygon fill="none" stroke="#404040" points="687.828,-112.017 681.407,-108.736 681.965,-101.547 688.387,-104.827 687.828,-112.017"/>
<text text-anchor="middle" x="748" y="-314.5" font-family="Courier New" font-size="10.00"> &#45;uniqueVerts</text>
</g>
<!-- Node7&#45;&gt;Node10 -->
<g id="edge18" class="edge"><title>Node7&#45;&gt;Node10</title>
<path fill="none" stroke="#404040" d="M570.998,-608.236C573.946,-533.847 578.061,-430.019 580.486,-368.82"/>
<polygon fill="none" stroke="#404040" points="580.487,-368.792 576.728,-362.639 580.962,-356.802 584.722,-362.955 580.487,-368.792"/>
<text text-anchor="middle" x="628" y="-480" font-family="Courier New" font-size="10.00"> &#45;uniqueVertices</text>
</g>
<!-- Node7&#45;&gt;Node11 -->
<g id="edge21" class="edge"><title>Node7&#45;&gt;Node11</title>
<path fill="none" stroke="#404040" d="M482.403,-608.197C478.713,-602.264 475.366,-596.181 472.5,-590 469.915,-584.426 467.747,-578.525 465.932,-572.473"/>
<polygon fill="none" stroke="#404040" points="465.889,-572.308 460.503,-567.513 462.857,-560.697 468.243,-565.492 465.889,-572.308"/>
<text text-anchor="middle" x="521" y="-582" font-family="Courier New" font-size="10.00"> &#45;uniqueVertices</text>
</g>
<!-- Node8&#45;&gt;Node1 -->
<g id="edge13" class="edge"><title>Node8&#45;&gt;Node1</title>
<path fill="none" stroke="#404040" d="M852.558,-613.995C847.83,-574.584 843.5,-526.697 843.5,-483.5 843.5,-483.5 843.5,-483.5 843.5,-183.5 843.5,-130.27 793.228,-97.2957 743.347,-77.6792"/>
<polygon fill="none" stroke="#404040" points="743.296,-77.6605 736.275,-79.3038 732.058,-73.4546 739.079,-71.8112 743.296,-77.6605"/>
<text text-anchor="middle" x="874" y="-314.5" font-family="Courier New" font-size="10.00"> &#45;gaussian</text>
</g>
<!-- Node9 -->
<g id="node9" class="node"><title>Node9</title>
<g id="a_node9"><a xlink:title=" ">
<polygon fill="white" stroke="#bfbfbf" points="838,-834.5 838,-891.5 891,-891.5 891,-834.5 838,-834.5"/>
<text text-anchor="middle" x="864.5" y="-879.5" font-family="Courier New" font-size="10.00">static</text>
<polyline fill="none" stroke="#bfbfbf" points="838,-872.5 891,-872.5 "/>
<text text-anchor="middle" x="864.5" y="-860.5" font-family="Courier New" font-size="10.00"> </text>
<polyline fill="none" stroke="#bfbfbf" points="838,-853.5 891,-853.5 "/>
<text text-anchor="middle" x="864.5" y="-841.5" font-family="Courier New" font-size="10.00"> </text>
</a>
</g>
</g>
<!-- Node9&#45;&gt;Node8 -->
<g id="edge15" class="edge"><title>Node9&#45;&gt;Node8</title>
<path fill="none" stroke="#404040" d="M864.5,-834.264C864.5,-822.546 864.5,-808.148 864.5,-793.156"/>
<polygon fill="none" stroke="#404040" points="864.5,-793.045 860.5,-787.045 864.5,-781.045 868.5,-787.045 864.5,-793.045"/>
<text text-anchor="middle" x="874" y="-808" font-family="Courier New" font-size="10.00"> &#45;e</text>
</g>
<!-- Node10&#45;&gt;Node1 -->
<g id="edge16" class="edge"><title>Node10&#45;&gt;Node1</title>
<path fill="none" stroke="#404040" d="M581.189,-277.151C581.026,-240.696 583.542,-185.04 597.5,-139 600.145,-130.276 603.743,-121.447 607.788,-112.928"/>
<polygon fill="none" stroke="#404040" points="607.923,-112.659 607.05,-105.501 613.321,-101.941 614.195,-109.099 607.923,-112.659"/>
<text text-anchor="middle" x="646" y="-182" font-family="Courier New" font-size="10.00"> &#45;dijkstraSearch</text>
</g>
<!-- Node11&#45;&gt;Node10 -->
<g id="edge19" class="edge"><title>Node11&#45;&gt;Node10</title>
<path fill="none" stroke="#404040" d="M464.25,-404.474C467.512,-393.931 472.098,-383.743 478.5,-375 481.15,-371.382 484.101,-367.967 487.284,-364.746"/>
<polygon fill="none" stroke="#404040" points="487.307,-364.725 489.069,-357.733 496.202,-356.67 494.439,-363.663 487.307,-364.725"/>
<text text-anchor="middle" x="524" y="-378" font-family="Courier New" font-size="10.00"> &#45;adjacencyList</text>
</g>
</g>
</svg>
