<?xml version="1.0" encoding="UTF-8" standalone="no"?>
<!DOCTYPE svg PUBLIC "-//W3C//DTD SVG 1.1//EN"
 "http://www.w3.org/Graphics/SVG/1.1/DTD/svg11.dtd">
<!-- Generated by graphviz version 2.38.0 (20140413.2041)
 -->
<!-- Title: C2M2.Interaction.RaycastPressEvents Pages: 1 -->
<svg width="300pt" height="354pt"
 viewBox="0.00 0.00 300.00 354.00" xmlns="http://www.w3.org/2000/svg" xmlns:xlink="http://www.w3.org/1999/xlink">
<g id="graph0" class="graph" transform="scale(1 1) rotate(0) translate(4 350)">
<title>C2M2.Interaction.RaycastPressEvents</title>
<polygon fill="white" stroke="none" points="-4,4 -4,-350 296,-350 296,4 -4,4"/>
<!-- Node1 -->
<g id="node1" class="node"><title>Node1</title>
<g id="a_node1"><a xlink:title="Store custom events that the corresponding RaycastTriggerManager will invoke">
<polygon fill="#bfbfbf" stroke="black" points="14,-0.5 14,-112.5 175,-112.5 175,-0.5 14,-0.5"/>
<text text-anchor="start" x="22" y="-100.5" font-family="Courier New" font-size="10.00">C2M2.Interaction.Raycast</text>
<text text-anchor="middle" x="94.5" y="-89.5" font-family="Courier New" font-size="10.00">PressEvents</text>
<polyline fill="none" stroke="black" points="14,-82.5 175,-82.5 "/>
<text text-anchor="start" x="22" y="-70.5" font-family="Courier New" font-size="10.00">+ OnPress</text>
<text text-anchor="start" x="22" y="-59.5" font-family="Courier New" font-size="10.00">+ OnHoldPress</text>
<text text-anchor="start" x="22" y="-48.5" font-family="Courier New" font-size="10.00">+ OnEndPress</text>
<polyline fill="none" stroke="black" points="14,-41.5 175,-41.5 "/>
<text text-anchor="start" x="22" y="-29.5" font-family="Courier New" font-size="10.00">+ Press()</text>
<text text-anchor="start" x="22" y="-18.5" font-family="Courier New" font-size="10.00">+ HoldPress()</text>
<text text-anchor="start" x="22" y="-7.5" font-family="Courier New" font-size="10.00">+ EndPress()</text>
</a>
</g>
</g>
<!-- Node2 -->
<g id="node2" class="node"><title>Node2</title>
<g id="a_node2"><a xlink:title=" ">
<polygon fill="white" stroke="#bfbfbf" points="0,-188 0,-245 95,-245 95,-188 0,-188"/>
<text text-anchor="middle" x="47.5" y="-233" font-family="Courier New" font-size="10.00">MonoBehaviour</text>
<polyline fill="none" stroke="#bfbfbf" points="0,-226 95,-226 "/>
<text text-anchor="middle" x="47.5" y="-214" font-family="Courier New" font-size="10.00"> </text>
<polyline fill="none" stroke="#bfbfbf" points="0,-207 95,-207 "/>
<text text-anchor="middle" x="47.5" y="-195" font-family="Courier New" font-size="10.00"> </text>
</a>
</g>
</g>
<!-- Node2&#45;&gt;Node1 -->
<g id="edge1" class="edge"><title>Node2&#45;&gt;Node1</title>
<path fill="none" stroke="midnightblue" d="M58.5928,-178.209C64.4212,-158.616 71.6772,-134.223 78.138,-112.504"/>
<polygon fill="none" stroke="midnightblue" points="55.1833,-177.396 55.6868,-187.979 61.8928,-179.392 55.1833,-177.396"/>
</g>
<!-- Node3 -->
<g id="node3" class="node"><title>Node3</title>
<g id="a_node3"><a xlink:href="../../d2/d43/class_c2_m2_1_1_interaction_1_1_raycast_press_events_1_1_raycast_hit_event.html" target="_top" xlink:title=" ">
<polygon fill="white" stroke="black" points="113,-182.5 113,-250.5 292,-250.5 292,-182.5 113,-182.5"/>
<text text-anchor="start" x="121" y="-238.5" font-family="Courier New" font-size="10.00">C2M2.Interaction.Raycast</text>
<text text-anchor="middle" x="202.5" y="-227.5" font-family="Courier New" font-size="10.00">PressEvents.RaycastHitEvent</text>
<polyline fill="none" stroke="black" points="113,-220.5 292,-220.5 "/>
<text text-anchor="middle" x="202.5" y="-208.5" font-family="Courier New" font-size="10.00"> </text>
<polyline fill="none" stroke="black" points="113,-201.5 292,-201.5 "/>
<text text-anchor="middle" x="202.5" y="-189.5" font-family="Courier New" font-size="10.00"> </text>
</a>
</g>
</g>
<!-- Node3&#45;&gt;Node1 -->
<g id="edge2" class="edge"><title>Node3&#45;&gt;Node1</title>
<path fill="none" stroke="#404040" d="M179.86,-182.378C168.006,-165.037 153.067,-143.182 139.013,-122.621"/>
<polygon fill="none" stroke="#404040" points="138.974,-122.564 132.286,-119.868 132.203,-112.658 138.891,-115.354 138.974,-122.564"/>
<text text-anchor="middle" x="200" y="-156" font-family="Courier New" font-size="10.00"> &#45;onPress</text>
<text text-anchor="middle" x="200" y="-145" font-family="Courier New" font-size="10.00">&#45;onHoldPress</text>
<text text-anchor="middle" x="200" y="-134" font-family="Courier New" font-size="10.00">&#45;onEndPress</text>
</g>
<!-- Node4 -->
<g id="node4" class="node"><title>Node4</title>
<g id="a_node4"><a xlink:title=" ">
<polygon fill="white" stroke="#bfbfbf" points="122,-288.5 122,-345.5 283,-345.5 283,-288.5 122,-288.5"/>
<text text-anchor="middle" x="202.5" y="-333.5" font-family="Courier New" font-size="10.00">UnityEvent&lt; RaycastHit &gt;</text>
<polyline fill="none" stroke="#bfbfbf" points="122,-326.5 283,-326.5 "/>
<text text-anchor="middle" x="202.5" y="-314.5" font-family="Courier New" font-size="10.00"> </text>
<polyline fill="none" stroke="#bfbfbf" points="122,-307.5 283,-307.5 "/>
<text text-anchor="middle" x="202.5" y="-295.5" font-family="Courier New" font-size="10.00"> </text>
</a>
</g>
</g>
<!-- Node4&#45;&gt;Node3 -->
<g id="edge3" class="edge"><title>Node4&#45;&gt;Node3</title>
<path fill="none" stroke="midnightblue" d="M202.5,-278.007C202.5,-268.962 202.5,-259.383 202.5,-250.578"/>
<polygon fill="none" stroke="midnightblue" points="199,-278.3 202.5,-288.3 206,-278.3 199,-278.3"/>
</g>
</g>
</svg>
