<?xml version="1.0" encoding="UTF-8" standalone="no"?>
<!DOCTYPE svg PUBLIC "-//W3C//DTD SVG 1.1//EN"
 "http://www.w3.org/Graphics/SVG/1.1/DTD/svg11.dtd">
<!-- Generated by graphviz version 2.46.0 (20210118.1747)
 -->
<!-- Title: C2M2.Interaction.RaycastPressEvents Pages: 1 -->
<svg width="300pt" height="420pt"
 viewBox="0.00 0.00 300.00 420.00" xmlns="http://www.w3.org/2000/svg" xmlns:xlink="http://www.w3.org/1999/xlink">
<g id="graph0" class="graph" transform="scale(1 1) rotate(0) translate(4 416)">
<title>C2M2.Interaction.RaycastPressEvents</title>
<polygon fill="white" stroke="transparent" points="-4,4 -4,-416 296,-416 296,4 -4,4"/>
<!-- Node1 -->
<g id="node1" class="node">
<title>Node1</title>
<g id="a_node1"><a xlink:title="Store custom events that the corresponding RaycastTriggerManager will invoke">
<polygon fill="#bfbfbf" stroke="black" points="14,-0.5 14,-156.5 175,-156.5 175,-0.5 14,-0.5"/>
<text text-anchor="start" x="22" y="-144.5" font-family="Courier New" font-size="10.00">C2M2.Interaction.Raycast</text>
<text text-anchor="middle" x="94.5" y="-133.5" font-family="Courier New" font-size="10.00">PressEvents</text>
<polyline fill="none" stroke="black" points="14,-126.5 175,-126.5 "/>
<text text-anchor="start" x="22" y="-114.5" font-family="Courier New" font-size="10.00">+ OnHover</text>
<text text-anchor="start" x="22" y="-103.5" font-family="Courier New" font-size="10.00">+ OnHoverEnd</text>
<text text-anchor="start" x="22" y="-92.5" font-family="Courier New" font-size="10.00">+ OnPress</text>
<text text-anchor="start" x="22" y="-81.5" font-family="Courier New" font-size="10.00">+ OnHoldPress</text>
<text text-anchor="start" x="22" y="-70.5" font-family="Courier New" font-size="10.00">+ OnEndPress</text>
<polyline fill="none" stroke="black" points="14,-63.5 175,-63.5 "/>
<text text-anchor="start" x="22" y="-51.5" font-family="Courier New" font-size="10.00">+ Hover()</text>
<text text-anchor="start" x="22" y="-40.5" font-family="Courier New" font-size="10.00">+ EndHover()</text>
<text text-anchor="start" x="22" y="-29.5" font-family="Courier New" font-size="10.00">+ Press()</text>
<text text-anchor="start" x="22" y="-18.5" font-family="Courier New" font-size="10.00">+ HoldPress()</text>
<text text-anchor="start" x="22" y="-7.5" font-family="Courier New" font-size="10.00">+ EndPress()</text>
</a>
</g>
</g>
<!-- Node2 -->
<g id="node2" class="node">
<title>Node2</title>
<g id="a_node2"><a xlink:title=" ">
<polygon fill="white" stroke="#bfbfbf" points="0,-254 0,-311 95,-311 95,-254 0,-254"/>
<text text-anchor="middle" x="47.5" y="-299" font-family="Courier New" font-size="10.00">MonoBehaviour</text>
<polyline fill="none" stroke="#bfbfbf" points="0,-292 95,-292 "/>
<text text-anchor="middle" x="47.5" y="-280" font-family="Courier New" font-size="10.00"> </text>
<polyline fill="none" stroke="#bfbfbf" points="0,-273 95,-273 "/>
<text text-anchor="middle" x="47.5" y="-261" font-family="Courier New" font-size="10.00"> </text>
</a>
</g>
</g>
<!-- Node2&#45;&gt;Node1 -->
<g id="edge1" class="edge">
<title>Node2&#45;&gt;Node1</title>
<path fill="none" stroke="midnightblue" d="M56.25,-243.9C61.94,-219.45 69.56,-186.69 76.5,-156.84"/>
<polygon fill="none" stroke="midnightblue" points="52.79,-243.3 53.94,-253.84 59.61,-244.89 52.79,-243.3"/>
</g>
<!-- Node3 -->
<g id="node3" class="node">
<title>Node3</title>
<g id="a_node3"><a xlink:href="../../d2/d43/class_c2_m2_1_1_interaction_1_1_raycast_press_events_1_1_raycast_hit_event.html" target="_top" xlink:title=" ">
<polygon fill="white" stroke="black" points="113,-248.5 113,-316.5 292,-316.5 292,-248.5 113,-248.5"/>
<text text-anchor="start" x="121" y="-304.5" font-family="Courier New" font-size="10.00">C2M2.Interaction.Raycast</text>
<text text-anchor="middle" x="202.5" y="-293.5" font-family="Courier New" font-size="10.00">PressEvents.RaycastHitEvent</text>
<polyline fill="none" stroke="black" points="113,-286.5 292,-286.5 "/>
<text text-anchor="middle" x="202.5" y="-274.5" font-family="Courier New" font-size="10.00"> </text>
<polyline fill="none" stroke="black" points="113,-267.5 292,-267.5 "/>
<text text-anchor="middle" x="202.5" y="-255.5" font-family="Courier New" font-size="10.00"> </text>
</a>
</g>
</g>
<!-- Node3&#45;&gt;Node1 -->
<g id="edge2" class="edge">
<title>Node3&#45;&gt;Node1</title>
<path fill="none" stroke="#404040" d="M184.67,-248.14C172.87,-226.09 156.82,-196.06 141.52,-167.45"/>
<polygon fill="none" stroke="#404040" points="141.37,-167.16 135.01,-163.76 135.71,-156.58 142.07,-159.98 141.37,-167.16"/>
<text text-anchor="middle" x="210" y="-222" font-family="Courier New" font-size="10.00"> &#45;onEndPress</text>
<text text-anchor="middle" x="210" y="-211" font-family="Courier New" font-size="10.00">&#45;onHoldPress</text>
<text text-anchor="middle" x="210" y="-200" font-family="Courier New" font-size="10.00">&#45;onHover</text>
<text text-anchor="middle" x="210" y="-189" font-family="Courier New" font-size="10.00">&#45;onHoverEnd</text>
<text text-anchor="middle" x="210" y="-178" font-family="Courier New" font-size="10.00">&#45;onPress</text>
</g>
<!-- Node4 -->
<g id="node4" class="node">
<title>Node4</title>
<g id="a_node4"><a xlink:title=" ">
<polygon fill="white" stroke="#bfbfbf" points="122,-354.5 122,-411.5 283,-411.5 283,-354.5 122,-354.5"/>
<text text-anchor="middle" x="202.5" y="-399.5" font-family="Courier New" font-size="10.00">UnityEvent&lt; RaycastHit &gt;</text>
<polyline fill="none" stroke="#bfbfbf" points="122,-392.5 283,-392.5 "/>
<text text-anchor="middle" x="202.5" y="-380.5" font-family="Courier New" font-size="10.00"> </text>
<polyline fill="none" stroke="#bfbfbf" points="122,-373.5 283,-373.5 "/>
<text text-anchor="middle" x="202.5" y="-361.5" font-family="Courier New" font-size="10.00"> </text>
</a>
</g>
</g>
<!-- Node4&#45;&gt;Node3 -->
<g id="edge3" class="edge">
<title>Node4&#45;&gt;Node3</title>
<path fill="none" stroke="midnightblue" d="M202.5,-344.01C202.5,-334.96 202.5,-325.38 202.5,-316.58"/>
<polygon fill="none" stroke="midnightblue" points="199,-344.3 202.5,-354.3 206,-344.3 199,-344.3"/>
</g>
</g>
</svg>
