<?xml version="1.0" encoding="UTF-8" standalone="no"?>
<!DOCTYPE svg PUBLIC "-//W3C//DTD SVG 1.1//EN"
 "http://www.w3.org/Graphics/SVG/1.1/DTD/svg11.dtd">
<!-- Generated by graphviz version 2.46.0 (20210118.1747)
 -->
<!-- Title: C2M2.NeuronalDynamics.Visualization.VTK.VTUPlayerButton Pages: 1 -->
<!--zoomable 1076 -->
<svg id="main" version="1.1" xmlns="http://www.w3.org/2000/svg" xmlns:xlink="http://www.w3.org/1999/xlink" xml:space="preserve" onload="init(evt)">
<style type="text/css"><![CDATA[
.edge:hover path { stroke: red; }
.edge:hover polygon { stroke: red; fill: red; }
]]></style>
<script type="text/javascript"><![CDATA[
var edges = document.getElementsByTagName('g');
if (edges && edges.length) {
  for (var i=0;i<edges.length;i++) {
    if (edges[i].id.substr(0,4)=='edge') {
      edges[i].setAttribute('class','edge');
    }
  }
}
]]></script>
        <defs>
                <circle id="rim" cx="0" cy="0" r="7"/>
                <circle id="rim2" cx="0" cy="0" r="3.5"/>
                <g id="zoomPlus">
                        <use xlink:href="#rim" fill="#404040">
                                <set attributeName="fill" to="#808080" begin="zoomplus.mouseover" end="zoomplus.mouseout"/>
                        </use>
                        <path d="M-4,0h8M0,-4v8" fill="none" stroke="white" stroke-width="1.5" pointer-events="none"/>
                </g>
                <g id="zoomMin">
                        <use xlink:href="#rim" fill="#404040">
                                <set attributeName="fill" to="#808080" begin="zoomminus.mouseover" end="zoomminus.mouseout"/>
                        </use>
                        <path d="M-4,0h8" fill="none" stroke="white" stroke-width="1.5" pointer-events="none"/>
                </g>
                <g id="dirArrow">
                        <path fill="none" stroke="white" stroke-width="1.5" d="M0,-3.0v7 M-2.5,-0.5L0,-3.0L2.5,-0.5"/>
                </g>
               <g id="resetDef">
                       <use xlink:href="#rim2" fill="#404040">
                               <set attributeName="fill" to="#808080" begin="reset.mouseover" end="reset.mouseout"/>
                       </use>
               </g>
        </defs>

<script type="text/javascript">
var viewWidth = 737;
var viewHeight = 1076;
var sectionId = 'dynsection-1';
</script>
<script xlink:href="../../svgpan.js"/>
<svg id="graph" class="graph">
<g id="viewport">
<title>C2M2.NeuronalDynamics.Visualization.VTK.VTUPlayerButton</title>
<polygon fill="white" stroke="transparent" points="-4,4 -4,-1072 733,-1072 733,4 -4,4"/>
<!-- Node1 -->
<g id="node1" class="node">
<title>Node1</title>
<g id="a_node1"><a xlink:title=" ">
<polygon fill="#bfbfbf" stroke="black" points="123,-0.5 123,-123.5 356,-123.5 356,-0.5 123,-0.5"/>
<text text-anchor="start" x="131" y="-111.5" font-family="Courier New" font-size="10.00">C2M2.NeuronalDynamics.Visualization.</text>
<text text-anchor="middle" x="239.5" y="-100.5" font-family="Courier New" font-size="10.00">VTK.VTUPlayerButton</text>
<polyline fill="none" stroke="black" points="123,-93.5 356,-93.5 "/>
<text text-anchor="start" x="131" y="-81.5" font-family="Courier New" font-size="10.00">+ buttonType</text>
<text text-anchor="start" x="131" y="-70.5" font-family="Courier New" font-size="10.00">+ mainImage</text>
<text text-anchor="start" x="131" y="-59.5" font-family="Courier New" font-size="10.00">+ clickedImage</text>
<text text-anchor="start" x="131" y="-48.5" font-family="Courier New" font-size="10.00">&#45; animationSpeed</text>
<text text-anchor="start" x="131" y="-37.5" font-family="Courier New" font-size="10.00">&#45; fastMultiplier</text>
<polyline fill="none" stroke="black" points="123,-30.5 356,-30.5 "/>
<text text-anchor="start" x="131" y="-18.5" font-family="Courier New" font-size="10.00">+ ClickButton()</text>
<text text-anchor="start" x="131" y="-7.5" font-family="Courier New" font-size="10.00">&#45; Awake()</text>
</a>
</g>
</g>
<!-- Node2 -->
<g id="node2" class="node">
<title>Node2</title>
<g id="a_node2"><a xlink:title=" ">
<polygon fill="white" stroke="#bfbfbf" points="294,-910 294,-967 389,-967 389,-910 294,-910"/>
<text text-anchor="middle" x="341.5" y="-955" font-family="Courier New" font-size="10.00">MonoBehaviour</text>
<polyline fill="none" stroke="#bfbfbf" points="294,-948 389,-948 "/>
<text text-anchor="middle" x="341.5" y="-936" font-family="Courier New" font-size="10.00"> </text>
<polyline fill="none" stroke="#bfbfbf" points="294,-929 389,-929 "/>
<text text-anchor="middle" x="341.5" y="-917" font-family="Courier New" font-size="10.00"> </text>
</a>
</g>
</g>
<!-- Node2&#45;&gt;Node1 -->
<g id="edge1" class="edge">
<title>Node2&#45;&gt;Node1</title>
<path fill="none" stroke="midnightblue" d="M287.62,-903.78C256.52,-881.63 219.2,-849.95 196.5,-813 177.94,-782.78 177.5,-770.96 177.5,-735.5 177.5,-735.5 177.5,-735.5 177.5,-259.5 177.5,-212.46 193.86,-161.9 209.77,-123.84"/>
<polygon fill="none" stroke="midnightblue" points="286,-906.92 296.2,-909.77 290,-901.18 286,-906.92"/>
</g>
<!-- Node3 -->
<g id="node3" class="node">
<title>Node3</title>
<g id="a_node3"><a xlink:href="../../dc/d1d/class_c2_m2_1_1_neuronal_dynamics_1_1_visualization_1_1_v_t_k_1_1_v_t_u_player.html" target="_top" xlink:title=" ">
<polygon fill="white" stroke="black" points="206,-397.5 206,-608.5 439,-608.5 439,-397.5 206,-397.5"/>
<text text-anchor="start" x="214" y="-596.5" font-family="Courier New" font-size="10.00">C2M2.NeuronalDynamics.Visualization.</text>
<text text-anchor="middle" x="322.5" y="-585.5" font-family="Courier New" font-size="10.00">VTK.VTUPlayer</text>
<polyline fill="none" stroke="black" points="206,-578.5 439,-578.5 "/>
<text text-anchor="start" x="214" y="-566.5" font-family="Courier New" font-size="10.00">+ frameCountDisplay</text>
<text text-anchor="start" x="214" y="-555.5" font-family="Courier New" font-size="10.00">&#45; mf</text>
<text text-anchor="start" x="214" y="-544.5" font-family="Courier New" font-size="10.00">&#45; maxFrame</text>
<text text-anchor="start" x="214" y="-533.5" font-family="Courier New" font-size="10.00">&#45; slider</text>
<text text-anchor="start" x="214" y="-522.5" font-family="Courier New" font-size="10.00">&#45; formatString</text>
<text text-anchor="start" x="214" y="-511.5" font-family="Courier New" font-size="10.00">&#45; currentFrame</text>
<polyline fill="none" stroke="black" points="206,-504.5 439,-504.5 "/>
<text text-anchor="start" x="214" y="-492.5" font-family="Courier New" font-size="10.00">+ Initialize()</text>
<text text-anchor="start" x="214" y="-481.5" font-family="Courier New" font-size="10.00">+ Play()</text>
<text text-anchor="start" x="214" y="-470.5" font-family="Courier New" font-size="10.00">+ Pause()</text>
<text text-anchor="start" x="214" y="-459.5" font-family="Courier New" font-size="10.00">+ Rewind()</text>
<text text-anchor="start" x="214" y="-448.5" font-family="Courier New" font-size="10.00">+ NextFrame()</text>
<text text-anchor="start" x="214" y="-437.5" font-family="Courier New" font-size="10.00">+ PreviousFrame()</text>
<text text-anchor="start" x="214" y="-426.5" font-family="Courier New" font-size="10.00">&#45; NextFrameRepeating()</text>
<text text-anchor="start" x="214" y="-415.5" font-family="Courier New" font-size="10.00">&#45; PreviousFramePrevious()</text>
<text text-anchor="start" x="214" y="-404.5" font-family="Courier New" font-size="10.00">&#45; UpdateMesh()</text>
</a>
</g>
</g>
<!-- Node2&#45;&gt;Node3 -->
<g id="edge3" class="edge">
<title>Node2&#45;&gt;Node3</title>
<path fill="none" stroke="midnightblue" d="M354.89,-900.19C362.93,-875.75 372.38,-842.91 376.5,-813 387.79,-731.09 393.88,-706.87 372.5,-627 370.89,-620.99 369.06,-614.88 367.08,-608.75"/>
<polygon fill="none" stroke="midnightblue" points="351.53,-899.19 351.66,-909.78 358.16,-901.42 351.53,-899.19"/>
</g>
<!-- Node4 -->
<g id="node4" class="node">
<title>Node4</title>
<g id="a_node4"><a xlink:href="../../d8/d74/class_c2_m2_1_1_neuronal_dynamics_1_1_visualization_1_1_v_t_k_1_1_v_t_u_manager.html" target="_top" xlink:title=" ">
<polygon fill="white" stroke="black" points="325,-171.5 325,-349.5 558,-349.5 558,-171.5 325,-171.5"/>
<text text-anchor="start" x="333" y="-337.5" font-family="Courier New" font-size="10.00">C2M2.NeuronalDynamics.Visualization.</text>
<text text-anchor="middle" x="441.5" y="-326.5" font-family="Courier New" font-size="10.00">VTK.VTUManager</text>
<polyline fill="none" stroke="black" points="325,-319.5 558,-319.5 "/>
<text text-anchor="start" x="333" y="-307.5" font-family="Courier New" font-size="10.00">+ dataExtension</text>
<text text-anchor="start" x="333" y="-296.5" font-family="Courier New" font-size="10.00">+ dataPath</text>
<text text-anchor="start" x="333" y="-285.5" font-family="Courier New" font-size="10.00">+ fileProcessCount</text>
<text text-anchor="start" x="333" y="-274.5" font-family="Courier New" font-size="10.00">+ initialPosition</text>
<text text-anchor="start" x="333" y="-263.5" font-family="Courier New" font-size="10.00">+ initialRotation</text>
<text text-anchor="start" x="333" y="-252.5" font-family="Courier New" font-size="10.00">+ compoundColliderResolution</text>
<text text-anchor="start" x="333" y="-241.5" font-family="Courier New" font-size="10.00">+ adjacencyListSubdivisions</text>
<text text-anchor="start" x="333" y="-230.5" font-family="Courier New" font-size="10.00">+ vtuList</text>
<text text-anchor="start" x="333" y="-219.5" font-family="Courier New" font-size="10.00">+ gradient</text>
<text text-anchor="start" x="333" y="-208.5" font-family="Courier New" font-size="10.00">&#45; meshf</text>
<polyline fill="none" stroke="black" points="325,-201.5 558,-201.5 "/>
<text text-anchor="start" x="333" y="-189.5" font-family="Courier New" font-size="10.00">+ Initialize()</text>
<text text-anchor="start" x="333" y="-178.5" font-family="Courier New" font-size="10.00">&#45; BuildVTUList()</text>
</a>
</g>
</g>
<!-- Node2&#45;&gt;Node4 -->
<g id="edge5" class="edge">
<title>Node2&#45;&gt;Node4</title>
<path fill="none" stroke="midnightblue" d="M370.65,-901.62C373.95,-896.56 377.01,-891.28 379.5,-886 476.48,-679.96 451.03,-606.71 453.5,-379 453.55,-374.11 453.77,-372.88 453.5,-368 453.17,-362.06 452.73,-355.93 452.22,-349.77"/>
<polygon fill="none" stroke="midnightblue" points="367.74,-899.68 364.92,-909.89 373.49,-903.66 367.74,-899.68"/>
</g>
<!-- Node6 -->
<g id="node6" class="node">
<title>Node6</title>
<g id="a_node6"><a xlink:href="../../d8/d68/class_c2_m2_1_1_interaction_1_1_raycast_press_events.html" target="_top" xlink:title="Store custom events that the corresponding RaycastTriggerManager will invoke">
<polygon fill="white" stroke="black" points="206,-656.5 206,-812.5 367,-812.5 367,-656.5 206,-656.5"/>
<text text-anchor="start" x="214" y="-800.5" font-family="Courier New" font-size="10.00">C2M2.Interaction.Raycast</text>
<text text-anchor="middle" x="286.5" y="-789.5" font-family="Courier New" font-size="10.00">PressEvents</text>
<polyline fill="none" stroke="black" points="206,-782.5 367,-782.5 "/>
<text text-anchor="start" x="214" y="-770.5" font-family="Courier New" font-size="10.00">+ OnHover</text>
<text text-anchor="start" x="214" y="-759.5" font-family="Courier New" font-size="10.00">+ OnHoverEnd</text>
<text text-anchor="start" x="214" y="-748.5" font-family="Courier New" font-size="10.00">+ OnPress</text>
<text text-anchor="start" x="214" y="-737.5" font-family="Courier New" font-size="10.00">+ OnHoldPress</text>
<text text-anchor="start" x="214" y="-726.5" font-family="Courier New" font-size="10.00">+ OnEndPress</text>
<polyline fill="none" stroke="black" points="206,-719.5 367,-719.5 "/>
<text text-anchor="start" x="214" y="-707.5" font-family="Courier New" font-size="10.00">+ Hover()</text>
<text text-anchor="start" x="214" y="-696.5" font-family="Courier New" font-size="10.00">+ EndHover()</text>
<text text-anchor="start" x="214" y="-685.5" font-family="Courier New" font-size="10.00">+ Press()</text>
<text text-anchor="start" x="214" y="-674.5" font-family="Courier New" font-size="10.00">+ HoldPress()</text>
<text text-anchor="start" x="214" y="-663.5" font-family="Courier New" font-size="10.00">+ EndPress()</text>
</a>
</g>
</g>
<!-- Node2&#45;&gt;Node6 -->
<g id="edge9" class="edge">
<title>Node2&#45;&gt;Node6</title>
<path fill="none" stroke="midnightblue" d="M331.26,-899.9C324.61,-875.45 315.68,-842.69 307.56,-812.84"/>
<polygon fill="none" stroke="midnightblue" points="327.96,-901.11 333.97,-909.84 334.72,-899.27 327.96,-901.11"/>
</g>
<!-- Node3&#45;&gt;Node1 -->
<g id="edge2" class="edge">
<title>Node3&#45;&gt;Node1</title>
<path fill="none" stroke="#404040" d="M265.45,-397.37C259.01,-381.86 253.38,-365.78 249.5,-350 231.96,-278.7 231.29,-194.45 233.89,-135.75"/>
<polygon fill="none" stroke="#404040" points="233.89,-135.61 230.19,-129.42 234.48,-123.63 238.18,-129.82 233.89,-135.61"/>
<text text-anchor="middle" x="283" y="-258" font-family="Courier New" font-size="10.00"> &#45;vtuPlayer</text>
</g>
<!-- Node3&#45;&gt;Node4 -->
<g id="edge6" class="edge">
<title>Node3&#45;&gt;Node4</title>
<path fill="none" stroke="#404040" d="M295.64,-397.25C296.56,-387.1 298.99,-377.17 303.5,-368 307.22,-360.43 311.77,-353.24 316.92,-346.44"/>
<polygon fill="none" stroke="#404040" points="317.25,-346.04 317.97,-338.87 324.87,-336.77 324.15,-343.95 317.25,-346.04"/>
<text text-anchor="middle" x="337" y="-371" font-family="Courier New" font-size="10.00"> +VTUPlayer</text>
</g>
<!-- Node4&#45;&gt;Node1 -->
<g id="edge12" class="edge">
<title>Node4&#45;&gt;Node1</title>
<path fill="none" stroke="#404040" d="M350.84,-171.31C337.38,-158.21 323.66,-144.87 310.67,-132.24"/>
<polygon fill="none" stroke="#404040" points="310.41,-131.98 303.32,-130.66 301.81,-123.61 308.9,-124.93 310.41,-131.98"/>
<text text-anchor="middle" x="364" y="-145" font-family="Courier New" font-size="10.00"> +vtuManager</text>
</g>
<!-- Node4&#45;&gt;Node3 -->
<g id="edge4" class="edge">
<title>Node4&#45;&gt;Node3</title>
<path fill="none" stroke="#404040" d="M389.98,-349.71C386.7,-355.86 383.51,-362 380.5,-368 377.56,-373.88 374.61,-379.94 371.7,-386.09"/>
<polygon fill="none" stroke="#404040" points="371.58,-386.36 372.66,-393.49 366.5,-397.23 365.41,-390.11 371.58,-386.36"/>
<text text-anchor="middle" x="417" y="-371" font-family="Courier New" font-size="10.00"> +vtuManager</text>
</g>
<!-- Node5 -->
<g id="node5" class="node">
<title>Node5</title>
<g id="a_node5"><a xlink:href="../../da/da3/class_c2_m2_1_1_neuronal_dynamics_1_1_visualization_1_1_v_t_k_1_1_v_t_u_object_builder.html" target="_top" xlink:title="Overarching manager to control order of events for reading in VTK data, positioning it,...">
<polygon fill="white" stroke="black" points="496,-463.5 496,-542.5 729,-542.5 729,-463.5 496,-463.5"/>
<text text-anchor="start" x="504" y="-530.5" font-family="Courier New" font-size="10.00">C2M2.NeuronalDynamics.Visualization.</text>
<text text-anchor="middle" x="612.5" y="-519.5" font-family="Courier New" font-size="10.00">VTK.VTUObjectBuilder</text>
<polyline fill="none" stroke="black" points="496,-512.5 729,-512.5 "/>
<text text-anchor="middle" x="612.5" y="-500.5" font-family="Courier New" font-size="10.00"> </text>
<polyline fill="none" stroke="black" points="496,-493.5 729,-493.5 "/>
<text text-anchor="start" x="504" y="-481.5" font-family="Courier New" font-size="10.00">+ BuildVTUObjects()</text>
<text text-anchor="start" x="504" y="-470.5" font-family="Courier New" font-size="10.00">+ BuildVTUObjects()</text>
</a>
</g>
</g>
<!-- Node5&#45;&gt;Node4 -->
<g id="edge7" class="edge">
<title>Node5&#45;&gt;Node4</title>
<path fill="none" stroke="#404040" d="M585.03,-463.36C565.13,-435.38 537.31,-396.25 511.45,-359.88"/>
<polygon fill="none" stroke="#404040" points="511.17,-359.48 504.43,-356.91 504.22,-349.71 510.95,-352.28 511.17,-359.48"/>
<text text-anchor="middle" x="576" y="-371" font-family="Courier New" font-size="10.00"> &#45;vtuObjectBuilder</text>
</g>
<!-- Node6&#45;&gt;Node3 -->
<g id="edge8" class="edge">
<title>Node6&#45;&gt;Node3</title>
<path fill="none" stroke="#404040" d="M298.59,-656.44C300.4,-644.92 302.29,-632.82 304.19,-620.7"/>
<polygon fill="none" stroke="#404040" points="304.23,-620.44 301.21,-613.89 306.09,-608.58 309.12,-615.13 304.23,-620.44"/>
<text text-anchor="middle" x="335" y="-630" font-family="Courier New" font-size="10.00"> +fullPause</text>
</g>
<!-- Node7 -->
<g id="node7" class="node">
<title>Node7</title>
<g id="a_node7"><a xlink:href="../../d2/d43/class_c2_m2_1_1_interaction_1_1_raycast_press_events_1_1_raycast_hit_event.html" target="_top" xlink:title=" ">
<polygon fill="white" stroke="black" points="0,-904.5 0,-972.5 179,-972.5 179,-904.5 0,-904.5"/>
<text text-anchor="start" x="8" y="-960.5" font-family="Courier New" font-size="10.00">C2M2.Interaction.Raycast</text>
<text text-anchor="middle" x="89.5" y="-949.5" font-family="Courier New" font-size="10.00">PressEvents.RaycastHitEvent</text>
<polyline fill="none" stroke="black" points="0,-942.5 179,-942.5 "/>
<text text-anchor="middle" x="89.5" y="-930.5" font-family="Courier New" font-size="10.00"> </text>
<polyline fill="none" stroke="black" points="0,-923.5 179,-923.5 "/>
<text text-anchor="middle" x="89.5" y="-911.5" font-family="Courier New" font-size="10.00"> </text>
</a>
</g>
</g>
<!-- Node7&#45;&gt;Node6 -->
<g id="edge10" class="edge">
<title>Node7&#45;&gt;Node6</title>
<path fill="none" stroke="#404040" d="M122.03,-904.14C144.11,-881.5 174.38,-850.47 202.93,-821.19"/>
<polygon fill="none" stroke="#404040" points="202.95,-821.17 204.28,-814.08 211.33,-812.58 210,-819.67 202.95,-821.17"/>
<text text-anchor="middle" x="225" y="-878" font-family="Courier New" font-size="10.00"> &#45;onEndPress</text>
<text text-anchor="middle" x="225" y="-867" font-family="Courier New" font-size="10.00">&#45;onHoldPress</text>
<text text-anchor="middle" x="225" y="-856" font-family="Courier New" font-size="10.00">&#45;onHover</text>
<text text-anchor="middle" x="225" y="-845" font-family="Courier New" font-size="10.00">&#45;onHoverEnd</text>
<text text-anchor="middle" x="225" y="-834" font-family="Courier New" font-size="10.00">&#45;onPress</text>
</g>
<!-- Node8 -->
<g id="node8" class="node">
<title>Node8</title>
<g id="a_node8"><a xlink:title=" ">
<polygon fill="white" stroke="#bfbfbf" points="9,-1010.5 9,-1067.5 170,-1067.5 170,-1010.5 9,-1010.5"/>
<text text-anchor="middle" x="89.5" y="-1055.5" font-family="Courier New" font-size="10.00">UnityEvent&lt; RaycastHit &gt;</text>
<polyline fill="none" stroke="#bfbfbf" points="9,-1048.5 170,-1048.5 "/>
<text text-anchor="middle" x="89.5" y="-1036.5" font-family="Courier New" font-size="10.00"> </text>
<polyline fill="none" stroke="#bfbfbf" points="9,-1029.5 170,-1029.5 "/>
<text text-anchor="middle" x="89.5" y="-1017.5" font-family="Courier New" font-size="10.00"> </text>
</a>
</g>
</g>
<!-- Node8&#45;&gt;Node7 -->
<g id="edge11" class="edge">
<title>Node8&#45;&gt;Node7</title>
<path fill="none" stroke="midnightblue" d="M89.5,-1000.01C89.5,-990.96 89.5,-981.38 89.5,-972.58"/>
<polygon fill="none" stroke="midnightblue" points="86,-1000.3 89.5,-1010.3 93,-1000.3 86,-1000.3"/>
</g>
</g>
</svg>
        <g id="navigator" transform="translate(0 0)" fill="#404254">
                <rect fill="#f2f5e9" fill-opacity="0.5" stroke="#606060" stroke-width=".5" x="0" y="0" width="60" height="60"/>
                <use id="zoomplus" xlink:href="#zoomPlus" x="17" y="9" onmousedown="handleZoom(evt,'in')"/>
                <use id="zoomminus" xlink:href="#zoomMin" x="42" y="9" onmousedown="handleZoom(evt,'out')"/>
                <use id="reset" xlink:href="#resetDef" x="30" y="36" onmousedown="handleReset()"/>
                <g id="arrowUp" xlink:href="#dirArrow" transform="translate(30 24)" onmousedown="handlePan(0,-1)">
                  <use xlink:href="#rim" fill="#404040">
                        <set attributeName="fill" to="#808080" begin="arrowUp.mouseover" end="arrowUp.mouseout"/>
                  </use>
                  <path fill="none" stroke="white" stroke-width="1.5" d="M0,-3.0v7 M-2.5,-0.5L0,-3.0L2.5,-0.5"/>
                </g>
                <g id="arrowRight" xlink:href="#dirArrow" transform="rotate(90) translate(36 -43)" onmousedown="handlePan(1,0)">
                  <use xlink:href="#rim" fill="#404040">
                        <set attributeName="fill" to="#808080" begin="arrowRight.mouseover" end="arrowRight.mouseout"/>
                  </use>
                  <path fill="none" stroke="white" stroke-width="1.5" d="M0,-3.0v7 M-2.5,-0.5L0,-3.0L2.5,-0.5"/>
                </g>
                <g id="arrowDown" xlink:href="#dirArrow" transform="rotate(180) translate(-30 -48)" onmousedown="handlePan(0,1)">
                  <use xlink:href="#rim" fill="#404040">
                        <set attributeName="fill" to="#808080" begin="arrowDown.mouseover" end="arrowDown.mouseout"/>
                  </use>
                  <path fill="none" stroke="white" stroke-width="1.5" d="M0,-3.0v7 M-2.5,-0.5L0,-3.0L2.5,-0.5"/>
                </g>
                <g id="arrowLeft" xlink:href="#dirArrow" transform="rotate(270) translate(-36 17)" onmousedown="handlePan(-1,0)">
                  <use xlink:href="#rim" fill="#404040">
                        <set attributeName="fill" to="#808080" begin="arrowLeft.mouseover" end="arrowLeft.mouseout"/>
                  </use>
                  <path fill="none" stroke="white" stroke-width="1.5" d="M0,-3.0v7 M-2.5,-0.5L0,-3.0L2.5,-0.5"/>
                </g>
        </g>
        <svg viewBox="0 0 15 15" width="100%" height="30px" preserveAspectRatio="xMaxYMin meet">
         <g id="arrow_out" transform="scale(0.3 0.3)">
          <a xlink:href="class_c2_m2_1_1_neuronal_dynamics_1_1_visualization_1_1_v_t_k_1_1_v_t_u_player_button__coll__graph_org.svg" target="_base">
           <rect id="button" ry="5" rx="5" y="6" x="6" height="38" width="38"
                fill="#f2f5e9" fill-opacity="0.5" stroke="#606060" stroke-width="1.0"/>
           <path id="arrow"
             d="M 11.500037,31.436501 C 11.940474,20.09759 22.043105,11.32322 32.158766,21.979434 L 37.068811,17.246167 C 37.068811,17.246167 37.088388,32 37.088388,32 L 22.160133,31.978069 C 22.160133,31.978069 26.997745,27.140456 26.997745,27.140456 C 18.528582,18.264221 13.291696,25.230495 11.500037,31.436501 z"
             style="fill:#404040;"/>
          </a>
         </g>
        </svg>
</svg>
