<?xml version="1.0" encoding="UTF-8" standalone="no"?>
<!DOCTYPE svg PUBLIC "-//W3C//DTD SVG 1.1//EN"
 "http://www.w3.org/Graphics/SVG/1.1/DTD/svg11.dtd">
<!-- Generated by graphviz version 2.38.0 (20140413.2041)
 -->
<!-- Title: C2M2.NeuronalDynamics.Visualization.VTK.VTUPlayerButton Pages: 1 -->
<svg width="737pt" height="1021pt"
 viewBox="0.00 0.00 737.00 1021.00" xmlns="http://www.w3.org/2000/svg" xmlns:xlink="http://www.w3.org/1999/xlink">
<g id="graph0" class="graph" transform="scale(1 1) rotate(0) translate(4 1017)">
<title>C2M2.NeuronalDynamics.Visualization.VTK.VTUPlayerButton</title>
<polygon fill="white" stroke="none" points="-4,4 -4,-1017 733,-1017 733,4 -4,4"/>
<!-- Node1 -->
<g id="node1" class="node"><title>Node1</title>
<g id="a_node1"><a xlink:title=" ">
<polygon fill="#bfbfbf" stroke="black" points="123,-0.5 123,-123.5 356,-123.5 356,-0.5 123,-0.5"/>
<text text-anchor="start" x="131" y="-111.5" font-family="Courier New" font-size="10.00">C2M2.NeuronalDynamics.Visualization.</text>
<text text-anchor="middle" x="239.5" y="-100.5" font-family="Courier New" font-size="10.00">VTK.VTUPlayerButton</text>
<polyline fill="none" stroke="black" points="123,-93.5 356,-93.5 "/>
<text text-anchor="start" x="131" y="-81.5" font-family="Courier New" font-size="10.00">+ buttonType</text>
<text text-anchor="start" x="131" y="-70.5" font-family="Courier New" font-size="10.00">+ mainImage</text>
<text text-anchor="start" x="131" y="-59.5" font-family="Courier New" font-size="10.00">+ clickedImage</text>
<text text-anchor="start" x="131" y="-48.5" font-family="Courier New" font-size="10.00">&#45; animationSpeed</text>
<text text-anchor="start" x="131" y="-37.5" font-family="Courier New" font-size="10.00">&#45; fastMultiplier</text>
<polyline fill="none" stroke="black" points="123,-30.5 356,-30.5 "/>
<text text-anchor="start" x="131" y="-18.5" font-family="Courier New" font-size="10.00">+ ClickButton()</text>
<text text-anchor="start" x="131" y="-7.5" font-family="Courier New" font-size="10.00">&#45; Awake()</text>
</a>
</g>
</g>
<!-- Node2 -->
<g id="node2" class="node"><title>Node2</title>
<g id="a_node2"><a xlink:title=" ">
<polygon fill="white" stroke="#bfbfbf" points="294,-855 294,-912 389,-912 389,-855 294,-855"/>
<text text-anchor="middle" x="341.5" y="-900" font-family="Courier New" font-size="10.00">MonoBehaviour</text>
<polyline fill="none" stroke="#bfbfbf" points="294,-893 389,-893 "/>
<text text-anchor="middle" x="341.5" y="-881" font-family="Courier New" font-size="10.00"> </text>
<polyline fill="none" stroke="#bfbfbf" points="294,-874 389,-874 "/>
<text text-anchor="middle" x="341.5" y="-862" font-family="Courier New" font-size="10.00"> </text>
</a>
</g>
</g>
<!-- Node2&#45;&gt;Node1 -->
<g id="edge1" class="edge"><title>Node2&#45;&gt;Node1</title>
<path fill="none" stroke="midnightblue" d="M284.638,-856.51C237.265,-830.509 177.5,-785.599 177.5,-724.5 177.5,-724.5 177.5,-724.5 177.5,-265 177.5,-216.027 194.361,-163.198 210.497,-123.853"/>
<polygon fill="none" stroke="midnightblue" points="283.153,-859.684 293.624,-861.301 286.446,-853.507 283.153,-859.684"/>
</g>
<!-- Node3 -->
<g id="node3" class="node"><title>Node3</title>
<g id="a_node3"><a xlink:href="../../dc/d1d/class_c2_m2_1_1_neuronal_dynamics_1_1_visualization_1_1_v_t_k_1_1_v_t_u_player.html" target="_top" xlink:title=" ">
<polygon fill="white" stroke="black" points="206,-408.5 206,-619.5 439,-619.5 439,-408.5 206,-408.5"/>
<text text-anchor="start" x="214" y="-607.5" font-family="Courier New" font-size="10.00">C2M2.NeuronalDynamics.Visualization.</text>
<text text-anchor="middle" x="322.5" y="-596.5" font-family="Courier New" font-size="10.00">VTK.VTUPlayer</text>
<polyline fill="none" stroke="black" points="206,-589.5 439,-589.5 "/>
<text text-anchor="start" x="214" y="-577.5" font-family="Courier New" font-size="10.00">+ frameCountDisplay</text>
<text text-anchor="start" x="214" y="-566.5" font-family="Courier New" font-size="10.00">&#45; mf</text>
<text text-anchor="start" x="214" y="-555.5" font-family="Courier New" font-size="10.00">&#45; maxFrame</text>
<text text-anchor="start" x="214" y="-544.5" font-family="Courier New" font-size="10.00">&#45; slider</text>
<text text-anchor="start" x="214" y="-533.5" font-family="Courier New" font-size="10.00">&#45; formatString</text>
<text text-anchor="start" x="214" y="-522.5" font-family="Courier New" font-size="10.00">&#45; currentFrame</text>
<polyline fill="none" stroke="black" points="206,-515.5 439,-515.5 "/>
<text text-anchor="start" x="214" y="-503.5" font-family="Courier New" font-size="10.00">+ Initialize()</text>
<text text-anchor="start" x="214" y="-492.5" font-family="Courier New" font-size="10.00">+ Play()</text>
<text text-anchor="start" x="214" y="-481.5" font-family="Courier New" font-size="10.00">+ Pause()</text>
<text text-anchor="start" x="214" y="-470.5" font-family="Courier New" font-size="10.00">+ Rewind()</text>
<text text-anchor="start" x="214" y="-459.5" font-family="Courier New" font-size="10.00">+ NextFrame()</text>
<text text-anchor="start" x="214" y="-448.5" font-family="Courier New" font-size="10.00">+ PreviousFrame()</text>
<text text-anchor="start" x="214" y="-437.5" font-family="Courier New" font-size="10.00">&#45; NextFrameRepeating()</text>
<text text-anchor="start" x="214" y="-426.5" font-family="Courier New" font-size="10.00">&#45; PreviousFramePrevious()</text>
<text text-anchor="start" x="214" y="-415.5" font-family="Courier New" font-size="10.00">&#45; UpdateMesh()</text>
</a>
</g>
</g>
<!-- Node2&#45;&gt;Node3 -->
<g id="edge3" class="edge"><title>Node2&#45;&gt;Node3</title>
<path fill="none" stroke="midnightblue" d="M357.042,-845.29C364.208,-826.149 371.91,-802.223 375.5,-780 385.568,-717.672 387.614,-699.045 371.5,-638 369.916,-631.999 368.121,-625.896 366.177,-619.779"/>
<polygon fill="none" stroke="midnightblue" points="353.695,-844.24 353.367,-854.83 360.228,-846.756 353.695,-844.24"/>
</g>
<!-- Node4 -->
<g id="node4" class="node"><title>Node4</title>
<g id="a_node4"><a xlink:href="../../d8/d74/class_c2_m2_1_1_neuronal_dynamics_1_1_visualization_1_1_v_t_k_1_1_v_t_u_manager.html" target="_top" xlink:title=" ">
<polygon fill="white" stroke="black" points="325,-171.5 325,-360.5 558,-360.5 558,-171.5 325,-171.5"/>
<text text-anchor="start" x="333" y="-348.5" font-family="Courier New" font-size="10.00">C2M2.NeuronalDynamics.Visualization.</text>
<text text-anchor="middle" x="441.5" y="-337.5" font-family="Courier New" font-size="10.00">VTK.VTUManager</text>
<polyline fill="none" stroke="black" points="325,-330.5 558,-330.5 "/>
<text text-anchor="start" x="333" y="-318.5" font-family="Courier New" font-size="10.00">+ dataExtension</text>
<text text-anchor="start" x="333" y="-307.5" font-family="Courier New" font-size="10.00">+ dataPath</text>
<text text-anchor="start" x="333" y="-296.5" font-family="Courier New" font-size="10.00">+ fileProcessCount</text>
<text text-anchor="start" x="333" y="-285.5" font-family="Courier New" font-size="10.00">+ initialPosition</text>
<text text-anchor="start" x="333" y="-274.5" font-family="Courier New" font-size="10.00">+ initialRotation</text>
<text text-anchor="start" x="333" y="-263.5" font-family="Courier New" font-size="10.00">+ compoundColliderResolution</text>
<text text-anchor="start" x="333" y="-252.5" font-family="Courier New" font-size="10.00">+ adjacencyListSubdivisions</text>
<text text-anchor="start" x="333" y="-241.5" font-family="Courier New" font-size="10.00">+ vtuList</text>
<text text-anchor="start" x="333" y="-230.5" font-family="Courier New" font-size="10.00">+ gradient</text>
<text text-anchor="start" x="333" y="-219.5" font-family="Courier New" font-size="10.00">&#45; objectManager</text>
<text text-anchor="start" x="333" y="-208.5" font-family="Courier New" font-size="10.00">&#45; meshf</text>
<polyline fill="none" stroke="black" points="325,-201.5 558,-201.5 "/>
<text text-anchor="start" x="333" y="-189.5" font-family="Courier New" font-size="10.00">+ Initialize()</text>
<text text-anchor="start" x="333" y="-178.5" font-family="Courier New" font-size="10.00">&#45; BuildVTUList()</text>
</a>
</g>
</g>
<!-- Node2&#45;&gt;Node4 -->
<g id="edge5" class="edge"><title>Node2&#45;&gt;Node4</title>
<path fill="none" stroke="midnightblue" d="M371.895,-846.592C375.417,-841.537 378.733,-836.264 381.5,-831 473.897,-655.208 451.342,-588.583 453.5,-390 453.553,-385.111 453.761,-383.882 453.5,-379 453.182,-373.044 452.769,-366.917 452.289,-360.745"/>
<polygon fill="none" stroke="midnightblue" points="368.925,-844.722 365.831,-854.855 374.569,-848.864 368.925,-844.722"/>
</g>
<!-- Node6 -->
<g id="node6" class="node"><title>Node6</title>
<g id="a_node6"><a xlink:href="../../d8/d68/class_c2_m2_1_1_interaction_1_1_raycast_press_events.html" target="_top" xlink:title="Store custom events that the corresponding RaycastTriggerManager will invoke">
<polygon fill="white" stroke="black" points="206,-667.5 206,-779.5 367,-779.5 367,-667.5 206,-667.5"/>
<text text-anchor="start" x="214" y="-767.5" font-family="Courier New" font-size="10.00">C2M2.Interaction.Raycast</text>
<text text-anchor="middle" x="286.5" y="-756.5" font-family="Courier New" font-size="10.00">PressEvents</text>
<polyline fill="none" stroke="black" points="206,-749.5 367,-749.5 "/>
<text text-anchor="start" x="214" y="-737.5" font-family="Courier New" font-size="10.00">+ OnPress</text>
<text text-anchor="start" x="214" y="-726.5" font-family="Courier New" font-size="10.00">+ OnHoldPress</text>
<text text-anchor="start" x="214" y="-715.5" font-family="Courier New" font-size="10.00">+ OnEndPress</text>
<polyline fill="none" stroke="black" points="206,-708.5 367,-708.5 "/>
<text text-anchor="start" x="214" y="-696.5" font-family="Courier New" font-size="10.00">+ Press()</text>
<text text-anchor="start" x="214" y="-685.5" font-family="Courier New" font-size="10.00">+ HoldPress()</text>
<text text-anchor="start" x="214" y="-674.5" font-family="Courier New" font-size="10.00">+ EndPress()</text>
</a>
</g>
</g>
<!-- Node2&#45;&gt;Node6 -->
<g id="edge9" class="edge"><title>Node2&#45;&gt;Node6</title>
<path fill="none" stroke="midnightblue" d="M328.613,-845.479C321.777,-825.84 313.242,-801.323 305.647,-779.504"/>
<polygon fill="none" stroke="midnightblue" points="325.327,-846.685 331.92,-854.979 331.938,-844.384 325.327,-846.685"/>
</g>
<!-- Node3&#45;&gt;Node1 -->
<g id="edge2" class="edge"><title>Node3&#45;&gt;Node1</title>
<path fill="none" stroke="#404040" d="M264.599,-408.44C258.084,-392.919 252.398,-376.816 248.5,-361 229.99,-285.891 230.025,-196.913 233.26,-135.859"/>
<polygon fill="none" stroke="#404040" points="233.273,-135.632 229.628,-129.41 233.969,-123.652 237.615,-129.874 233.273,-135.632"/>
<text text-anchor="middle" x="282" y="-263.5" font-family="Courier New" font-size="10.00"> &#45;vtuPlayer</text>
</g>
<!-- Node3&#45;&gt;Node4 -->
<g id="edge6" class="edge"><title>Node3&#45;&gt;Node4</title>
<path fill="none" stroke="#404040" d="M296.84,-408.364C297.758,-398.186 300.126,-388.226 304.5,-379 308.037,-371.54 312.341,-364.411 317.213,-357.628"/>
<polygon fill="none" stroke="#404040" points="317.376,-357.417 317.894,-350.225 324.733,-347.937 324.215,-355.129 317.376,-357.417"/>
<text text-anchor="middle" x="338" y="-382" font-family="Courier New" font-size="10.00"> +VTUPlayer</text>
</g>
<!-- Node4&#45;&gt;Node1 -->
<g id="edge12" class="edge"><title>Node4&#45;&gt;Node1</title>
<path fill="none" stroke="#404040" d="M347.892,-171.392C334.727,-158.227 321.394,-144.894 308.793,-132.293"/>
<polygon fill="none" stroke="#404040" points="308.683,-132.183 301.612,-130.769 300.198,-123.698 307.269,-125.112 308.683,-132.183"/>
<text text-anchor="middle" x="365" y="-145" font-family="Courier New" font-size="10.00"> +vtuManager</text>
</g>
<!-- Node4&#45;&gt;Node3 -->
<g id="edge4" class="edge"><title>Node4&#45;&gt;Node3</title>
<path fill="none" stroke="#404040" d="M389.622,-360.786C386.477,-366.92 383.411,-373.029 380.5,-379 377.619,-384.91 374.726,-390.998 371.854,-397.168"/>
<polygon fill="none" stroke="#404040" points="371.729,-397.438 372.854,-404.561 366.712,-408.339 365.587,-401.216 371.729,-397.438"/>
<text text-anchor="middle" x="417" y="-382" font-family="Courier New" font-size="10.00"> +vtuManager</text>
</g>
<!-- Node5 -->
<g id="node5" class="node"><title>Node5</title>
<g id="a_node5"><a xlink:href="../../da/da3/class_c2_m2_1_1_neuronal_dynamics_1_1_visualization_1_1_v_t_k_1_1_v_t_u_object_builder.html" target="_top" xlink:title="Overarching manager to control order of events for reading in VTK data, positioning it,...">
<polygon fill="white" stroke="black" points="496,-474.5 496,-553.5 729,-553.5 729,-474.5 496,-474.5"/>
<text text-anchor="start" x="504" y="-541.5" font-family="Courier New" font-size="10.00">C2M2.NeuronalDynamics.Visualization.</text>
<text text-anchor="middle" x="612.5" y="-530.5" font-family="Courier New" font-size="10.00">VTK.VTUObjectBuilder</text>
<polyline fill="none" stroke="black" points="496,-523.5 729,-523.5 "/>
<text text-anchor="middle" x="612.5" y="-511.5" font-family="Courier New" font-size="10.00"> </text>
<polyline fill="none" stroke="black" points="496,-504.5 729,-504.5 "/>
<text text-anchor="start" x="504" y="-492.5" font-family="Courier New" font-size="10.00">+ BuildVTUObjects()</text>
<text text-anchor="start" x="504" y="-481.5" font-family="Courier New" font-size="10.00">+ BuildVTUObjects()</text>
</a>
</g>
</g>
<!-- Node5&#45;&gt;Node4 -->
<g id="edge7" class="edge"><title>Node5&#45;&gt;Node4</title>
<path fill="none" stroke="#404040" d="M585.593,-474.292C566.249,-446.464 539.196,-407.545 513.748,-370.936"/>
<polygon fill="none" stroke="#404040" points="513.47,-370.536 506.761,-367.892 506.621,-360.683 513.33,-363.326 513.47,-370.536"/>
<text text-anchor="middle" x="581" y="-382" font-family="Courier New" font-size="10.00"> &#45;vtuObjectBuilder</text>
</g>
<!-- Node6&#45;&gt;Node3 -->
<g id="edge8" class="edge"><title>Node6&#45;&gt;Node3</title>
<path fill="none" stroke="#404040" d="M296.053,-667.439C297.994,-656.247 300.106,-644.078 302.26,-631.659"/>
<polygon fill="none" stroke="#404040" points="302.284,-631.522 299.369,-624.927 304.335,-619.699 307.251,-626.294 302.284,-631.522"/>
<text text-anchor="middle" x="334" y="-641" font-family="Courier New" font-size="10.00"> +fullPause</text>
</g>
<!-- Node7 -->
<g id="node7" class="node"><title>Node7</title>
<g id="a_node7"><a xlink:href="../../d2/d43/class_c2_m2_1_1_interaction_1_1_raycast_press_events_1_1_raycast_hit_event.html" target="_top" xlink:title=" ">
<polygon fill="white" stroke="black" points="0,-849.5 0,-917.5 179,-917.5 179,-849.5 0,-849.5"/>
<text text-anchor="start" x="8" y="-905.5" font-family="Courier New" font-size="10.00">C2M2.Interaction.Raycast</text>
<text text-anchor="middle" x="89.5" y="-894.5" font-family="Courier New" font-size="10.00">PressEvents.RaycastHitEvent</text>
<polyline fill="none" stroke="black" points="0,-887.5 179,-887.5 "/>
<text text-anchor="middle" x="89.5" y="-875.5" font-family="Courier New" font-size="10.00"> </text>
<polyline fill="none" stroke="black" points="0,-868.5 179,-868.5 "/>
<text text-anchor="middle" x="89.5" y="-856.5" font-family="Courier New" font-size="10.00"> </text>
</a>
</g>
</g>
<!-- Node7&#45;&gt;Node6 -->
<g id="edge10" class="edge"><title>Node7&#45;&gt;Node6</title>
<path fill="none" stroke="#404040" d="M130.798,-849.378C153.206,-831.406 181.658,-808.586 208.094,-787.384"/>
<polygon fill="none" stroke="#404040" points="208.366,-787.166 210.544,-780.291 217.728,-779.658 215.55,-786.532 208.366,-787.166"/>
<text text-anchor="middle" x="231" y="-823" font-family="Courier New" font-size="10.00"> &#45;onPress</text>
<text text-anchor="middle" x="231" y="-812" font-family="Courier New" font-size="10.00">&#45;onHoldPress</text>
<text text-anchor="middle" x="231" y="-801" font-family="Courier New" font-size="10.00">&#45;onEndPress</text>
</g>
<!-- Node8 -->
<g id="node8" class="node"><title>Node8</title>
<g id="a_node8"><a xlink:title=" ">
<polygon fill="white" stroke="#bfbfbf" points="9,-955.5 9,-1012.5 170,-1012.5 170,-955.5 9,-955.5"/>
<text text-anchor="middle" x="89.5" y="-1000.5" font-family="Courier New" font-size="10.00">UnityEvent&lt; RaycastHit &gt;</text>
<polyline fill="none" stroke="#bfbfbf" points="9,-993.5 170,-993.5 "/>
<text text-anchor="middle" x="89.5" y="-981.5" font-family="Courier New" font-size="10.00"> </text>
<polyline fill="none" stroke="#bfbfbf" points="9,-974.5 170,-974.5 "/>
<text text-anchor="middle" x="89.5" y="-962.5" font-family="Courier New" font-size="10.00"> </text>
</a>
</g>
</g>
<!-- Node8&#45;&gt;Node7 -->
<g id="edge11" class="edge"><title>Node8&#45;&gt;Node7</title>
<path fill="none" stroke="midnightblue" d="M89.5,-945.007C89.5,-935.962 89.5,-926.383 89.5,-917.578"/>
<polygon fill="none" stroke="midnightblue" points="86.0001,-945.3 89.5,-955.3 93.0001,-945.3 86.0001,-945.3"/>
</g>
</g>
</svg>
