<?xml version="1.0" encoding="UTF-8" standalone="no"?>
<!DOCTYPE svg PUBLIC "-//W3C//DTD SVG 1.1//EN"
 "http://www.w3.org/Graphics/SVG/1.1/DTD/svg11.dtd">
<!-- Generated by graphviz version 2.38.0 (20140413.2041)
 -->
<!-- Title: C2M2.NeuronalDynamics.Simulation.SimpleSolver_constDerivative Pages: 1 -->
<svg width="446pt" height="1103pt"
 viewBox="0.00 0.00 445.50 1103.00" xmlns="http://www.w3.org/2000/svg" xmlns:xlink="http://www.w3.org/1999/xlink">
<g id="graph0" class="graph" transform="scale(1 1) rotate(0) translate(4 1099)">
<title>C2M2.NeuronalDynamics.Simulation.SimpleSolver_constDerivative</title>
<polygon fill="white" stroke="none" points="-4,4 -4,-1099 441.5,-1099 441.5,4 -4,4"/>
<!-- Node1 -->
<g id="node1" class="node"><title>Node1</title>
<g id="a_node1"><a xlink:title=" ">
<polygon fill="#bfbfbf" stroke="black" points="154,-0.5 154,-255.5 369,-255.5 369,-0.5 154,-0.5"/>
<text text-anchor="start" x="162" y="-243.5" font-family="Courier New" font-size="10.00">C2M2.NeuronalDynamics.Simulation.</text>
<text text-anchor="middle" x="261.5" y="-232.5" font-family="Courier New" font-size="10.00">SimpleSolver_constDerivative</text>
<polyline fill="none" stroke="black" points="154,-225.5 369,-225.5 "/>
<text text-anchor="start" x="162" y="-213.5" font-family="Courier New" font-size="10.00">+ res</text>
<text text-anchor="start" x="162" y="-202.5" font-family="Courier New" font-size="10.00">+ gk</text>
<text text-anchor="start" x="162" y="-191.5" font-family="Courier New" font-size="10.00">+ gna</text>
<text text-anchor="start" x="162" y="-180.5" font-family="Courier New" font-size="10.00">+ gl</text>
<text text-anchor="start" x="162" y="-169.5" font-family="Courier New" font-size="10.00">+ ek</text>
<text text-anchor="start" x="162" y="-158.5" font-family="Courier New" font-size="10.00">+ ena</text>
<text text-anchor="start" x="162" y="-147.5" font-family="Courier New" font-size="10.00">+ el</text>
<text text-anchor="start" x="162" y="-136.5" font-family="Courier New" font-size="10.00">+ cap</text>
<text text-anchor="start" x="162" y="-125.5" font-family="Courier New" font-size="10.00">+ ni</text>
<text text-anchor="start" x="162" y="-114.5" font-family="Courier New" font-size="10.00">+ vstart</text>
<text text-anchor="start" x="162" y="-103.5" font-family="Courier New" font-size="10.00">&#45; U</text>
<text text-anchor="start" x="162" y="-92.5" font-family="Courier New" font-size="10.00">&#45; i</text>
<text text-anchor="start" x="162" y="-81.5" font-family="Courier New" font-size="10.00">&#45; mi</text>
<text text-anchor="start" x="162" y="-70.5" font-family="Courier New" font-size="10.00">&#45; hi</text>
<polyline fill="none" stroke="black" points="154,-63.5 369,-63.5 "/>
<text text-anchor="start" x="162" y="-51.5" font-family="Courier New" font-size="10.00"># SetNeuronCell()</text>
<text text-anchor="start" x="162" y="-40.5" font-family="Courier New" font-size="10.00"># Get1DValues()</text>
<text text-anchor="start" x="162" y="-29.5" font-family="Courier New" font-size="10.00"># Set1DValues()</text>
<text text-anchor="start" x="162" y="-18.5" font-family="Courier New" font-size="10.00"># Solve()</text>
<text text-anchor="start" x="162" y="-7.5" font-family="Courier New" font-size="10.00">&#45; ic()</text>
</a>
</g>
</g>
<!-- Node2 -->
<g id="node2" class="node"><title>Node2</title>
<g id="a_node2"><a xlink:href="../../d4/d5a/class_c2_m2_1_1_neuronal_dynamics_1_1_simulation_1_1_neuron_simulation1_d.html" target="_top" xlink:title="Provide an interface for 1D neuron&#45;surface simulations to be visualized and interacted with">
<polygon fill="white" stroke="black" points="99,-303.5 99,-525.5 224,-525.5 224,-303.5 99,-303.5"/>
<text text-anchor="middle" x="161.5" y="-513.5" font-family="Courier New" font-size="10.00">NeuronSimulation1D</text>
<polyline fill="none" stroke="black" points="99,-506.5 224,-506.5 "/>
<text text-anchor="start" x="107" y="-494.5" font-family="Courier New" font-size="10.00">+ visualize1D</text>
<text text-anchor="start" x="107" y="-483.5" font-family="Courier New" font-size="10.00">+ color1D</text>
<text text-anchor="start" x="107" y="-472.5" font-family="Courier New" font-size="10.00">+ lineWidth1D</text>
<text text-anchor="start" x="107" y="-461.5" font-family="Courier New" font-size="10.00">&#45; map</text>
<text text-anchor="start" x="107" y="-450.5" font-family="Courier New" font-size="10.00">&#45; neuronCellFolder</text>
<text text-anchor="start" x="107" y="-439.5" font-family="Courier New" font-size="10.00">&#45; activeCellFolder</text>
<text text-anchor="start" x="107" y="-428.5" font-family="Courier New" font-size="10.00">&#45; ugxExt</text>
<text text-anchor="start" x="107" y="-417.5" font-family="Courier New" font-size="10.00">&#45; cngExt</text>
<text text-anchor="start" x="107" y="-406.5" font-family="Courier New" font-size="10.00">&#45; spec1D</text>
<text text-anchor="start" x="107" y="-395.5" font-family="Courier New" font-size="10.00">&#45; specTris</text>
<text text-anchor="start" x="107" y="-384.5" font-family="Courier New" font-size="10.00">&#45; specBlownup</text>
<polyline fill="none" stroke="black" points="99,-377.5 224,-377.5 "/>
<text text-anchor="start" x="107" y="-365.5" font-family="Courier New" font-size="10.00">+ GetValues()</text>
<text text-anchor="start" x="107" y="-354.5" font-family="Courier New" font-size="10.00">+ SetValues()</text>
<text text-anchor="start" x="107" y="-343.5" font-family="Courier New" font-size="10.00"># Set1DValues()</text>
<text text-anchor="start" x="107" y="-332.5" font-family="Courier New" font-size="10.00"># Get1DValues()</text>
<text text-anchor="start" x="107" y="-321.5" font-family="Courier New" font-size="10.00"># SetNeuronCell()</text>
<text text-anchor="start" x="107" y="-310.5" font-family="Courier New" font-size="10.00"># BuildMesh()</text>
</a>
</g>
</g>
<!-- Node2&#45;&gt;Node1 -->
<g id="edge1" class="edge"><title>Node2&#45;&gt;Node1</title>
<path fill="none" stroke="midnightblue" d="M203.639,-293.616C208.021,-281.148 212.486,-268.445 216.894,-255.903"/>
<polygon fill="none" stroke="midnightblue" points="200.32,-292.503 200.306,-303.098 206.924,-294.824 200.32,-292.503"/>
</g>
<!-- Node3 -->
<g id="node3" class="node"><title>Node3</title>
<g id="a_node3"><a xlink:href="../../d4/de1/class_c2_m2_1_1_simulation_1_1_surface_simulation.html" target="_top" xlink:title="Simulation of type double[] for visualizing scalar fields on mesh surfaces">
<polygon fill="white" stroke="black" points="16,-595.5 16,-740.5 171,-740.5 171,-595.5 16,-595.5"/>
<text text-anchor="middle" x="93.5" y="-728.5" font-family="Courier New" font-size="10.00">SurfaceSimulation</text>
<polyline fill="none" stroke="black" points="16,-721.5 171,-721.5 "/>
<text text-anchor="start" x="24" y="-709.5" font-family="Courier New" font-size="10.00">+ gradient</text>
<text text-anchor="start" x="24" y="-698.5" font-family="Courier New" font-size="10.00">+ globalMax</text>
<text text-anchor="start" x="24" y="-687.5" font-family="Courier New" font-size="10.00">+ globalMin</text>
<text text-anchor="start" x="24" y="-676.5" font-family="Courier New" font-size="10.00">+ colorLUT</text>
<text text-anchor="start" x="24" y="-665.5" font-family="Courier New" font-size="10.00">&#45; mf</text>
<text text-anchor="start" x="24" y="-654.5" font-family="Courier New" font-size="10.00">&#45; mr</text>
<polyline fill="none" stroke="black" points="16,-647.5 171,-647.5 "/>
<text text-anchor="start" x="24" y="-635.5" font-family="Courier New" font-size="10.00"># BuildMesh()</text>
<text text-anchor="start" x="24" y="-624.5" font-family="Courier New" font-size="10.00"># UpdateVisualization()</text>
<text text-anchor="start" x="24" y="-613.5" font-family="Courier New" font-size="10.00"># OnAwake()</text>
<text text-anchor="start" x="24" y="-602.5" font-family="Courier New" font-size="10.00">&#45; UpdateVisualization()</text>
</a>
</g>
</g>
<!-- Node3&#45;&gt;Node2 -->
<g id="edge2" class="edge"><title>Node3&#45;&gt;Node2</title>
<path fill="none" stroke="midnightblue" d="M115.544,-585.47C120.688,-566.446 126.25,-545.874 131.669,-525.832"/>
<polygon fill="none" stroke="midnightblue" points="112.127,-584.7 112.895,-595.267 118.884,-586.527 112.127,-584.7"/>
</g>
<!-- Node4 -->
<g id="node4" class="node"><title>Node4</title>
<g id="a_node4"><a xlink:href="../../db/d39/class_c2_m2_1_1_simulation_1_1_simulation.html" target="_top" xlink:title=" ">
<polygon fill="white" stroke="black" points="0,-788.5 0,-999.5 155,-999.5 155,-788.5 0,-788.5"/>
<text text-anchor="middle" x="77.5" y="-987.5" font-family="Courier New" font-size="10.00">Simulation&lt; double[]&gt;</text>
<polyline fill="none" stroke="black" points="0,-980.5 155,-980.5 "/>
<text text-anchor="start" x="8" y="-968.5" font-family="Courier New" font-size="10.00">+ startOnAwake</text>
<text text-anchor="start" x="8" y="-957.5" font-family="Courier New" font-size="10.00"># mutex</text>
<text text-anchor="start" x="8" y="-946.5" font-family="Courier New" font-size="10.00">&#45; solveThread</text>
<polyline fill="none" stroke="black" points="0,-939.5 155,-939.5 "/>
<text text-anchor="start" x="8" y="-927.5" font-family="Courier New" font-size="10.00">+ GetValues()</text>
<text text-anchor="start" x="8" y="-916.5" font-family="Courier New" font-size="10.00">+ StartSimulation()</text>
<text text-anchor="start" x="8" y="-905.5" font-family="Courier New" font-size="10.00">+ StopSimulation()</text>
<text text-anchor="start" x="8" y="-894.5" font-family="Courier New" font-size="10.00">+ Awake()</text>
<text text-anchor="start" x="8" y="-883.5" font-family="Courier New" font-size="10.00">+ Start()</text>
<text text-anchor="start" x="8" y="-872.5" font-family="Courier New" font-size="10.00">+ Update()</text>
<text text-anchor="start" x="8" y="-861.5" font-family="Courier New" font-size="10.00"># UpdateVisualization()</text>
<text text-anchor="start" x="8" y="-850.5" font-family="Courier New" font-size="10.00"># Solve()</text>
<text text-anchor="start" x="8" y="-839.5" font-family="Courier New" font-size="10.00"># OnAwake()</text>
<text text-anchor="start" x="8" y="-828.5" font-family="Courier New" font-size="10.00"># OnStart()</text>
<text text-anchor="start" x="8" y="-817.5" font-family="Courier New" font-size="10.00"># OnUpdate()</text>
<text text-anchor="start" x="8" y="-806.5" font-family="Courier New" font-size="10.00">&#45; OnApplicationPause()</text>
<text text-anchor="start" x="8" y="-795.5" font-family="Courier New" font-size="10.00">&#45; OnApplicationQuit()</text>
</a>
</g>
</g>
<!-- Node4&#45;&gt;Node3 -->
<g id="edge3" class="edge"><title>Node4&#45;&gt;Node3</title>
<path fill="none" stroke="midnightblue" d="M85.7114,-778.041C86.6177,-765.353 87.5203,-752.716 88.3728,-740.781"/>
<polygon fill="none" stroke="midnightblue" points="82.2061,-777.99 84.9847,-788.214 89.1884,-778.489 82.2061,-777.99"/>
</g>
<!-- Node5 -->
<g id="node5" class="node"><title>Node5</title>
<g id="a_node5"><a xlink:href="../../da/d4f/class_c2_m2_1_1_visualization_1_1_l_u_t_gradient.html" target="_top" xlink:title="Create a fast and memory&#45;friendly color lookup table from a gradient">
<polygon fill="white" stroke="black" points="173,-810.5 173,-977.5 370,-977.5 370,-810.5 173,-810.5"/>
<text text-anchor="middle" x="271.5" y="-965.5" font-family="Courier New" font-size="10.00">C2M2.Visualization.LUTGradient</text>
<polyline fill="none" stroke="black" points="173,-958.5 370,-958.5 "/>
<text text-anchor="start" x="181" y="-946.5" font-family="Courier New" font-size="10.00">+ extremaMethod</text>
<text text-anchor="start" x="181" y="-935.5" font-family="Courier New" font-size="10.00">+ globalMax</text>
<text text-anchor="start" x="181" y="-924.5" font-family="Courier New" font-size="10.00">+ globalMin</text>
<text text-anchor="start" x="181" y="-913.5" font-family="Courier New" font-size="10.00">+ LutRes</text>
<text text-anchor="start" x="181" y="-902.5" font-family="Courier New" font-size="10.00">+ Gradient</text>
<text text-anchor="start" x="181" y="-891.5" font-family="Courier New" font-size="10.00">+ gradientLUT</text>
<text text-anchor="start" x="181" y="-880.5" font-family="Courier New" font-size="10.00">&#45; lutRes</text>
<text text-anchor="start" x="181" y="-869.5" font-family="Courier New" font-size="10.00">&#45; gradient</text>
<polyline fill="none" stroke="black" points="173,-862.5 370,-862.5 "/>
<text text-anchor="start" x="181" y="-850.5" font-family="Courier New" font-size="10.00">+ Evaluate()</text>
<text text-anchor="start" x="181" y="-839.5" font-family="Courier New" font-size="10.00">+ Evaluate()</text>
<text text-anchor="start" x="181" y="-828.5" font-family="Courier New" font-size="10.00">&#45; BuildLUT()</text>
<text text-anchor="start" x="181" y="-817.5" font-family="Courier New" font-size="10.00">&#45; RescaleArray()</text>
</a>
</g>
</g>
<!-- Node5&#45;&gt;Node3 -->
<g id="edge4" class="edge"><title>Node5&#45;&gt;Node3</title>
<path fill="none" stroke="#404040" d="M205.725,-810.227C190.15,-790.627 173.555,-769.744 158.036,-750.214"/>
<polygon fill="none" stroke="#404040" points="157.979,-750.142 151.115,-747.933 150.514,-740.747 157.378,-742.956 157.979,-750.142"/>
<text text-anchor="middle" x="218" y="-762" font-family="Courier New" font-size="10.00"> +extremaMethod</text>
</g>
<!-- Node6 -->
<g id="node6" class="node"><title>Node6</title>
<g id="a_node6"><a xlink:title=" ">
<polygon fill="white" stroke="#bfbfbf" points="224,-1037.5 224,-1094.5 319,-1094.5 319,-1037.5 224,-1037.5"/>
<text text-anchor="middle" x="271.5" y="-1082.5" font-family="Courier New" font-size="10.00">MonoBehaviour</text>
<polyline fill="none" stroke="#bfbfbf" points="224,-1075.5 319,-1075.5 "/>
<text text-anchor="middle" x="271.5" y="-1063.5" font-family="Courier New" font-size="10.00"> </text>
<polyline fill="none" stroke="#bfbfbf" points="224,-1056.5 319,-1056.5 "/>
<text text-anchor="middle" x="271.5" y="-1044.5" font-family="Courier New" font-size="10.00"> </text>
</a>
</g>
</g>
<!-- Node6&#45;&gt;Node5 -->
<g id="edge5" class="edge"><title>Node6&#45;&gt;Node5</title>
<path fill="none" stroke="midnightblue" d="M271.5,-1027.15C271.5,-1012.48 271.5,-995.061 271.5,-977.769"/>
<polygon fill="none" stroke="midnightblue" points="268,-1027.31 271.5,-1037.31 275,-1027.31 268,-1027.31"/>
</g>
<!-- Node7 -->
<g id="node7" class="node"><title>Node7</title>
<g id="a_node7"><a xlink:title=" ">
<polygon fill="white" stroke="#bfbfbf" points="189,-639.5 189,-696.5 230,-696.5 230,-639.5 189,-639.5"/>
<text text-anchor="middle" x="209.5" y="-684.5" font-family="Courier New" font-size="10.00">C2M2</text>
<polyline fill="none" stroke="#bfbfbf" points="189,-677.5 230,-677.5 "/>
<text text-anchor="middle" x="209.5" y="-665.5" font-family="Courier New" font-size="10.00"> </text>
<polyline fill="none" stroke="#bfbfbf" points="189,-658.5 230,-658.5 "/>
<text text-anchor="middle" x="209.5" y="-646.5" font-family="Courier New" font-size="10.00"> </text>
</a>
</g>
</g>
<!-- Node7&#45;&gt;Node2 -->
<g id="edge6" class="edge"><title>Node7&#45;&gt;Node2</title>
<path fill="none" stroke="#404040" d="M204.18,-639.124C199.402,-614.089 192.039,-575.51 184.766,-537.402"/>
<polygon fill="none" stroke="#404040" points="184.764,-537.393 179.71,-532.249 182.514,-525.606 187.568,-530.749 184.764,-537.393"/>
<text text-anchor="middle" x="216" y="-558" font-family="Courier New" font-size="10.00"> #grid1D</text>
</g>
<!-- Node8 -->
<g id="node8" class="node"><title>Node8</title>
<g id="a_node8"><a xlink:href="../../da/df6/class_c2_m2_1_1_neuronal_dynamics_1_1_u_g_x_1_1_neuron_cell.html" target="_top" xlink:title=" ">
<polygon fill="white" stroke="black" points="242,-314.5 242,-514.5 415,-514.5 415,-314.5 242,-314.5"/>
<text text-anchor="start" x="250" y="-502.5" font-family="Courier New" font-size="10.00">C2M2.NeuronalDynamics.UGX.</text>
<text text-anchor="middle" x="328.5" y="-491.5" font-family="Courier New" font-size="10.00">NeuronCell</text>
<polyline fill="none" stroke="black" points="242,-484.5 415,-484.5 "/>
<text text-anchor="start" x="250" y="-472.5" font-family="Courier New" font-size="10.00">+ nodeData</text>
<text text-anchor="start" x="250" y="-461.5" font-family="Courier New" font-size="10.00">+ edges</text>
<text text-anchor="start" x="250" y="-450.5" font-family="Courier New" font-size="10.00">+ edgeLengths</text>
<text text-anchor="start" x="250" y="-439.5" font-family="Courier New" font-size="10.00">+ boundaryID</text>
<text text-anchor="start" x="250" y="-428.5" font-family="Courier New" font-size="10.00">+ somaID</text>
<text text-anchor="start" x="250" y="-417.5" font-family="Courier New" font-size="10.00">+ vertCount</text>
<text text-anchor="start" x="250" y="-406.5" font-family="Courier New" font-size="10.00">+ edgeCount</text>
<polyline fill="none" stroke="black" points="242,-399.5 415,-399.5 "/>
<text text-anchor="start" x="250" y="-387.5" font-family="Courier New" font-size="10.00">+ NeuronCell()</text>
<text text-anchor="start" x="250" y="-376.5" font-family="Courier New" font-size="10.00">+ ReadDataTable()</text>
<text text-anchor="start" x="250" y="-365.5" font-family="Courier New" font-size="10.00">+ NodeToString()</text>
<text text-anchor="start" x="250" y="-354.5" font-family="Courier New" font-size="10.00">+ EdgeToString()</text>
<text text-anchor="start" x="250" y="-343.5" font-family="Courier New" font-size="10.00">+ ToString()</text>
<text text-anchor="start" x="250" y="-332.5" font-family="Courier New" font-size="10.00">&#45; NodeNeighborsToString()</text>
<text text-anchor="start" x="250" y="-321.5" font-family="Courier New" font-size="10.00">&#45; GetEdgeLength()</text>
</a>
</g>
</g>
<!-- Node8&#45;&gt;Node1 -->
<g id="edge7" class="edge"><title>Node8&#45;&gt;Node1</title>
<path fill="none" stroke="#404040" d="M305.161,-314.395C301.61,-299.316 297.89,-283.522 294.184,-267.785"/>
<polygon fill="none" stroke="#404040" points="294.106,-267.455 288.837,-262.532 291.356,-255.775 296.624,-260.698 294.106,-267.455"/>
<text text-anchor="middle" x="322" y="-277" font-family="Courier New" font-size="10.00"> &#45;myCell</text>
</g>
<!-- Node9 -->
<g id="node9" class="node"><title>Node9</title>
<g id="a_node9"><a xlink:title=" ">
<polygon fill="white" stroke="#bfbfbf" points="302,-639.5 302,-696.5 355,-696.5 355,-639.5 302,-639.5"/>
<text text-anchor="middle" x="328.5" y="-684.5" font-family="Courier New" font-size="10.00">static</text>
<polyline fill="none" stroke="#bfbfbf" points="302,-677.5 355,-677.5 "/>
<text text-anchor="middle" x="328.5" y="-665.5" font-family="Courier New" font-size="10.00"> </text>
<polyline fill="none" stroke="#bfbfbf" points="302,-658.5 355,-658.5 "/>
<text text-anchor="middle" x="328.5" y="-646.5" font-family="Courier New" font-size="10.00"> </text>
</a>
</g>
</g>
<!-- Node9&#45;&gt;Node8 -->
<g id="edge8" class="edge"><title>Node9&#45;&gt;Node8</title>
<path fill="none" stroke="#404040" d="M328.5,-639.124C328.5,-611.77 328.5,-568.244 328.5,-526.833"/>
<polygon fill="none" stroke="#404040" points="328.5,-526.648 324.5,-520.648 328.5,-514.648 332.5,-520.648 328.5,-526.648"/>
<text text-anchor="middle" x="383" y="-569" font-family="Courier New" font-size="10.00"> &#45;nodeFormatString</text>
<text text-anchor="middle" x="383" y="-558" font-family="Courier New" font-size="10.00">&#45;edgeFormatString</text>
<text text-anchor="middle" x="383" y="-547" font-family="Courier New" font-size="10.00">&#45;cellFormatString</text>
</g>
</g>
</svg>
