<?xml version="1.0" encoding="UTF-8" standalone="no"?>
<!DOCTYPE svg PUBLIC "-//W3C//DTD SVG 1.1//EN"
 "http://www.w3.org/Graphics/SVG/1.1/DTD/svg11.dtd">
<!-- Generated by graphviz version 2.46.0 (20210118.1747)
 -->
<!-- Title: C2M2.Interaction.RaycastForward Pages: 1 -->
<!--zoomable 1092 -->
<svg id="main" version="1.1" xmlns="http://www.w3.org/2000/svg" xmlns:xlink="http://www.w3.org/1999/xlink" xml:space="preserve" onload="init(evt)">
<style type="text/css"><![CDATA[
.edge:hover path { stroke: red; }
.edge:hover polygon { stroke: red; fill: red; }
]]></style>
<script type="text/javascript"><![CDATA[
var edges = document.getElementsByTagName('g');
if (edges && edges.length) {
  for (var i=0;i<edges.length;i++) {
    if (edges[i].id.substr(0,4)=='edge') {
      edges[i].setAttribute('class','edge');
    }
  }
}
]]></script>
        <defs>
                <circle id="rim" cx="0" cy="0" r="7"/>
                <circle id="rim2" cx="0" cy="0" r="3.5"/>
                <g id="zoomPlus">
                        <use xlink:href="#rim" fill="#404040">
                                <set attributeName="fill" to="#808080" begin="zoomplus.mouseover" end="zoomplus.mouseout"/>
                        </use>
                        <path d="M-4,0h8M0,-4v8" fill="none" stroke="white" stroke-width="1.5" pointer-events="none"/>
                </g>
                <g id="zoomMin">
                        <use xlink:href="#rim" fill="#404040">
                                <set attributeName="fill" to="#808080" begin="zoomminus.mouseover" end="zoomminus.mouseout"/>
                        </use>
                        <path d="M-4,0h8" fill="none" stroke="white" stroke-width="1.5" pointer-events="none"/>
                </g>
                <g id="dirArrow">
                        <path fill="none" stroke="white" stroke-width="1.5" d="M0,-3.0v7 M-2.5,-0.5L0,-3.0L2.5,-0.5"/>
                </g>
               <g id="resetDef">
                       <use xlink:href="#rim2" fill="#404040">
                               <set attributeName="fill" to="#808080" begin="reset.mouseover" end="reset.mouseout"/>
                       </use>
               </g>
        </defs>

<script type="text/javascript">
var viewWidth = 374;
var viewHeight = 1092;
var sectionId = 'dynsection-1';
</script>
<script xlink:href="../../svgpan.js"/>
<svg id="graph" class="graph">
<g id="viewport">
<title>C2M2.Interaction.RaycastForward</title>
<polygon fill="white" stroke="transparent" points="-4,4 -4,-1088 370,-1088 370,4 -4,4"/>
<!-- Node1 -->
<g id="node1" class="node">
<title>Node1</title>
<g id="a_node1"><a xlink:title=" ">
<polygon fill="#bfbfbf" stroke="black" points="0,-0.5 0,-365.5 167,-365.5 167,-0.5 0,-0.5"/>
<text text-anchor="start" x="8" y="-353.5" font-family="Courier New" font-size="10.00">C2M2.Interaction.Raycast</text>
<text text-anchor="middle" x="83.5" y="-342.5" font-family="Courier New" font-size="10.00">Forward</text>
<polyline fill="none" stroke="black" points="0,-335.5 167,-335.5 "/>
<text text-anchor="start" x="8" y="-323.5" font-family="Courier New" font-size="10.00">+ rightHand</text>
<text text-anchor="start" x="8" y="-312.5" font-family="Courier New" font-size="10.00">+ raycastController</text>
<text text-anchor="start" x="8" y="-301.5" font-family="Courier New" font-size="10.00">+ raycastButton</text>
<text text-anchor="start" x="8" y="-290.5" font-family="Courier New" font-size="10.00">+ triggerButton</text>
<text text-anchor="start" x="8" y="-279.5" font-family="Courier New" font-size="10.00">+ layerMask</text>
<text text-anchor="start" x="8" y="-268.5" font-family="Courier New" font-size="10.00">+ staticIndexRenderer</text>
<text text-anchor="start" x="8" y="-257.5" font-family="Courier New" font-size="10.00">+ staticHandObject</text>
<text text-anchor="start" x="8" y="-246.5" font-family="Courier New" font-size="10.00">+ defaultHandObject</text>
<text text-anchor="start" x="8" y="-235.5" font-family="Courier New" font-size="10.00">+ minHitDist</text>
<text text-anchor="start" x="8" y="-224.5" font-family="Courier New" font-size="10.00">+ hysteresisDist</text>
<text text-anchor="start" x="8" y="-213.5" font-family="Courier New" font-size="10.00">and 10 more...</text>
<text text-anchor="start" x="8" y="-202.5" font-family="Courier New" font-size="10.00">&#45; activeObjectID</text>
<text text-anchor="start" x="8" y="-191.5" font-family="Courier New" font-size="10.00">&#45; valid</text>
<text text-anchor="start" x="8" y="-180.5" font-family="Courier New" font-size="10.00">&#45; clicked</text>
<text text-anchor="start" x="8" y="-169.5" font-family="Courier New" font-size="10.00">&#45; touched</text>
<text text-anchor="start" x="8" y="-158.5" font-family="Courier New" font-size="10.00">&#45; hitTriggered</text>
<text text-anchor="start" x="8" y="-147.5" font-family="Courier New" font-size="10.00">&#45; holdTriggered</text>
<text text-anchor="start" x="8" y="-136.5" font-family="Courier New" font-size="10.00">&#45; endTriggered</text>
<text text-anchor="start" x="8" y="-125.5" font-family="Courier New" font-size="10.00">&#45; validHitEvent</text>
<text text-anchor="start" x="8" y="-114.5" font-family="Courier New" font-size="10.00">&#45; validHoldEvent</text>
<text text-anchor="start" x="8" y="-103.5" font-family="Courier New" font-size="10.00">&#45; validEndEvent</text>
<text text-anchor="start" x="8" y="-92.5" font-family="Courier New" font-size="10.00">&#45; relativeForward</text>
<text text-anchor="start" x="8" y="-81.5" font-family="Courier New" font-size="10.00">&#45; lineRend</text>
<text text-anchor="start" x="8" y="-70.5" font-family="Courier New" font-size="10.00">&#45; invisible</text>
<text text-anchor="start" x="8" y="-59.5" font-family="Courier New" font-size="10.00">&#45; currentState</text>
<polyline fill="none" stroke="black" points="0,-52.5 167,-52.5 "/>
<text text-anchor="start" x="8" y="-40.5" font-family="Courier New" font-size="10.00">+ ChangeStaticHandColor()</text>
<text text-anchor="start" x="8" y="-29.5" font-family="Courier New" font-size="10.00">&#45; Start()</text>
<text text-anchor="start" x="8" y="-18.5" font-family="Courier New" font-size="10.00">&#45; FixedUpdate()</text>
<text text-anchor="start" x="8" y="-7.5" font-family="Courier New" font-size="10.00">&#45; TryRaycastHit()</text>
</a>
</g>
</g>
<!-- Node2 -->
<g id="node2" class="node">
<title>Node2</title>
<g id="a_node2"><a xlink:title=" ">
<polygon fill="white" stroke="#bfbfbf" points="39,-926 39,-983 134,-983 134,-926 39,-926"/>
<text text-anchor="middle" x="86.5" y="-971" font-family="Courier New" font-size="10.00">MonoBehaviour</text>
<polyline fill="none" stroke="#bfbfbf" points="39,-964 134,-964 "/>
<text text-anchor="middle" x="86.5" y="-952" font-family="Courier New" font-size="10.00"> </text>
<polyline fill="none" stroke="#bfbfbf" points="39,-945 134,-945 "/>
<text text-anchor="middle" x="86.5" y="-933" font-family="Courier New" font-size="10.00"> </text>
</a>
</g>
</g>
<!-- Node2&#45;&gt;Node1 -->
<g id="edge1" class="edge">
<title>Node2&#45;&gt;Node1</title>
<path fill="none" stroke="midnightblue" d="M85.7,-915.89C85.62,-911.22 85.55,-906.5 85.5,-902 83.47,-719.55 83.11,-511.01 83.17,-365.86"/>
<polygon fill="none" stroke="midnightblue" points="82.2,-916.04 85.88,-925.97 89.2,-915.91 82.2,-916.04"/>
</g>
<!-- Node3 -->
<g id="node3" class="node">
<title>Node3</title>
<g id="a_node3"><a xlink:href="../../d5/df9/class_c2_m2_1_1_interaction_1_1_raycast_event_manager.html" target="_top" xlink:title="Attach this script to parent gameObject, create one child with one raycast trigger per child....">
<polygon fill="white" stroke="black" points="115,-413.5 115,-602.5 276,-602.5 276,-413.5 115,-413.5"/>
<text text-anchor="start" x="123" y="-590.5" font-family="Courier New" font-size="10.00">C2M2.Interaction.Raycast</text>
<text text-anchor="middle" x="195.5" y="-579.5" font-family="Courier New" font-size="10.00">EventManager</text>
<polyline fill="none" stroke="black" points="115,-572.5 276,-572.5 "/>
<text text-anchor="middle" x="195.5" y="-560.5" font-family="Courier New" font-size="10.00"> </text>
<polyline fill="none" stroke="black" points="115,-553.5 276,-553.5 "/>
<text text-anchor="start" x="123" y="-541.5" font-family="Courier New" font-size="10.00">+ TriggerChangeRight()</text>
<text text-anchor="start" x="123" y="-530.5" font-family="Courier New" font-size="10.00">+ TriggerChangeLeft()</text>
<text text-anchor="start" x="123" y="-519.5" font-family="Courier New" font-size="10.00">+ TriggerChangeBoth()</text>
<text text-anchor="start" x="123" y="-508.5" font-family="Courier New" font-size="10.00">+ TriggerEmptyRight()</text>
<text text-anchor="start" x="123" y="-497.5" font-family="Courier New" font-size="10.00">+ TriggerEmptyLeft()</text>
<text text-anchor="start" x="123" y="-486.5" font-family="Courier New" font-size="10.00">+ TriggerEmptyBoth()</text>
<text text-anchor="start" x="123" y="-475.5" font-family="Courier New" font-size="10.00">+ HoverEvent()</text>
<text text-anchor="start" x="123" y="-464.5" font-family="Courier New" font-size="10.00">+ HoverEndEvent()</text>
<text text-anchor="start" x="123" y="-453.5" font-family="Courier New" font-size="10.00">+ PressEvent()</text>
<text text-anchor="start" x="123" y="-442.5" font-family="Courier New" font-size="10.00">+ HoldEvent()</text>
<text text-anchor="start" x="123" y="-431.5" font-family="Courier New" font-size="10.00">and 7 more...</text>
<text text-anchor="start" x="123" y="-420.5" font-family="Courier New" font-size="10.00">&#45; Awake()</text>
</a>
</g>
</g>
<!-- Node2&#45;&gt;Node3 -->
<g id="edge3" class="edge">
<title>Node2&#45;&gt;Node3</title>
<path fill="none" stroke="midnightblue" d="M88.29,-915.55C91.62,-860.84 100.73,-757.05 124.5,-672 130.94,-648.96 139.99,-624.93 149.47,-602.63"/>
<polygon fill="none" stroke="midnightblue" points="84.78,-915.63 87.7,-925.82 91.77,-916.03 84.78,-915.63"/>
</g>
<!-- Node5 -->
<g id="node5" class="node">
<title>Node5</title>
<g id="a_node5"><a xlink:href="../../d8/d68/class_c2_m2_1_1_interaction_1_1_raycast_press_events.html" target="_top" xlink:title="Store custom events that the corresponding RaycastTriggerManager will invoke">
<polygon fill="white" stroke="black" points="134,-672.5 134,-828.5 295,-828.5 295,-672.5 134,-672.5"/>
<text text-anchor="start" x="142" y="-816.5" font-family="Courier New" font-size="10.00">C2M2.Interaction.Raycast</text>
<text text-anchor="middle" x="214.5" y="-805.5" font-family="Courier New" font-size="10.00">PressEvents</text>
<polyline fill="none" stroke="black" points="134,-798.5 295,-798.5 "/>
<text text-anchor="start" x="142" y="-786.5" font-family="Courier New" font-size="10.00">+ OnHover</text>
<text text-anchor="start" x="142" y="-775.5" font-family="Courier New" font-size="10.00">+ OnHoverEnd</text>
<text text-anchor="start" x="142" y="-764.5" font-family="Courier New" font-size="10.00">+ OnPress</text>
<text text-anchor="start" x="142" y="-753.5" font-family="Courier New" font-size="10.00">+ OnHoldPress</text>
<text text-anchor="start" x="142" y="-742.5" font-family="Courier New" font-size="10.00">+ OnEndPress</text>
<polyline fill="none" stroke="black" points="134,-735.5 295,-735.5 "/>
<text text-anchor="start" x="142" y="-723.5" font-family="Courier New" font-size="10.00">+ Hover()</text>
<text text-anchor="start" x="142" y="-712.5" font-family="Courier New" font-size="10.00">+ EndHover()</text>
<text text-anchor="start" x="142" y="-701.5" font-family="Courier New" font-size="10.00">+ Press()</text>
<text text-anchor="start" x="142" y="-690.5" font-family="Courier New" font-size="10.00">+ HoldPress()</text>
<text text-anchor="start" x="142" y="-679.5" font-family="Courier New" font-size="10.00">+ EndPress()</text>
</a>
</g>
</g>
<!-- Node2&#45;&gt;Node5 -->
<g id="edge6" class="edge">
<title>Node2&#45;&gt;Node5</title>
<path fill="none" stroke="midnightblue" d="M109.66,-917.43C112.97,-912.25 116.32,-906.99 119.5,-902 134.67,-878.14 151.14,-852.11 166.03,-828.51"/>
<polygon fill="none" stroke="midnightblue" points="106.62,-915.68 104.17,-925.99 112.51,-919.46 106.62,-915.68"/>
</g>
<!-- Node3&#45;&gt;Node1 -->
<g id="edge2" class="edge">
<title>Node3&#45;&gt;Node1</title>
<path fill="none" stroke="#404040" d="M162.95,-413.14C158.95,-401.59 154.75,-389.48 150.46,-377.1"/>
<polygon fill="none" stroke="#404040" points="150.43,-377.01 144.68,-372.66 146.5,-365.68 152.24,-370.04 150.43,-377.01"/>
<text text-anchor="middle" x="223" y="-387" font-family="Courier New" font-size="10.00"> &#45;activeTriggerManager</text>
</g>
<!-- Node4 -->
<g id="node4" class="node">
<title>Node4</title>
<g id="a_node4"><a xlink:title=" ">
<polygon fill="white" stroke="#bfbfbf" points="313,-722 313,-779 366,-779 366,-722 313,-722"/>
<text text-anchor="middle" x="339.5" y="-767" font-family="Courier New" font-size="10.00">static</text>
<polyline fill="none" stroke="#bfbfbf" points="313,-760 366,-760 "/>
<text text-anchor="middle" x="339.5" y="-748" font-family="Courier New" font-size="10.00"> </text>
<polyline fill="none" stroke="#bfbfbf" points="313,-741 366,-741 "/>
<text text-anchor="middle" x="339.5" y="-729" font-family="Courier New" font-size="10.00"> </text>
</a>
</g>
</g>
<!-- Node4&#45;&gt;Node3 -->
<g id="edge4" class="edge">
<title>Node4&#45;&gt;Node3</title>
<path fill="none" stroke="#404040" d="M331.68,-721.99C323.39,-695.13 308.83,-653.65 289.5,-621 287.46,-617.56 285.32,-614.12 283.09,-610.69"/>
<polygon fill="none" stroke="#404040" points="282.9,-610.4 276.22,-607.67 276.18,-600.46 282.85,-603.19 282.9,-610.4"/>
<text text-anchor="middle" x="332" y="-635" font-family="Courier New" font-size="10.00"> &#45;nullHit</text>
</g>
<!-- Node5&#45;&gt;Node3 -->
<g id="edge5" class="edge">
<title>Node5&#45;&gt;Node3</title>
<path fill="none" stroke="#404040" d="M208.41,-672.41C206.96,-654.09 205.39,-634.23 203.86,-614.88"/>
<polygon fill="none" stroke="#404040" points="203.86,-614.87 199.4,-609.21 202.92,-602.91 207.38,-608.58 203.86,-614.87"/>
<text text-anchor="middle" x="246" y="-646" font-family="Courier New" font-size="10.00"> +leftTrigger</text>
<text text-anchor="middle" x="246" y="-635" font-family="Courier New" font-size="10.00">+rightTrigger</text>
<text text-anchor="middle" x="246" y="-624" font-family="Courier New" font-size="10.00">&#45;emptyTrigger</text>
</g>
<!-- Node6 -->
<g id="node6" class="node">
<title>Node6</title>
<g id="a_node6"><a xlink:href="../../d2/d43/class_c2_m2_1_1_interaction_1_1_raycast_press_events_1_1_raycast_hit_event.html" target="_top" xlink:title=" ">
<polygon fill="white" stroke="black" points="152,-920.5 152,-988.5 331,-988.5 331,-920.5 152,-920.5"/>
<text text-anchor="start" x="160" y="-976.5" font-family="Courier New" font-size="10.00">C2M2.Interaction.Raycast</text>
<text text-anchor="middle" x="241.5" y="-965.5" font-family="Courier New" font-size="10.00">PressEvents.RaycastHitEvent</text>
<polyline fill="none" stroke="black" points="152,-958.5 331,-958.5 "/>
<text text-anchor="middle" x="241.5" y="-946.5" font-family="Courier New" font-size="10.00"> </text>
<polyline fill="none" stroke="black" points="152,-939.5 331,-939.5 "/>
<text text-anchor="middle" x="241.5" y="-927.5" font-family="Courier New" font-size="10.00"> </text>
</a>
</g>
</g>
<!-- Node6&#45;&gt;Node5 -->
<g id="edge7" class="edge">
<title>Node6&#45;&gt;Node5</title>
<path fill="none" stroke="#404040" d="M237.04,-920.14C234.13,-898.38 230.19,-868.85 226.41,-840.59"/>
<polygon fill="none" stroke="#404040" points="226.39,-840.47 221.63,-835.06 224.8,-828.58 229.56,-834 226.39,-840.47"/>
<text text-anchor="middle" x="270" y="-894" font-family="Courier New" font-size="10.00"> &#45;onEndPress</text>
<text text-anchor="middle" x="270" y="-883" font-family="Courier New" font-size="10.00">&#45;onHoldPress</text>
<text text-anchor="middle" x="270" y="-872" font-family="Courier New" font-size="10.00">&#45;onHover</text>
<text text-anchor="middle" x="270" y="-861" font-family="Courier New" font-size="10.00">&#45;onHoverEnd</text>
<text text-anchor="middle" x="270" y="-850" font-family="Courier New" font-size="10.00">&#45;onPress</text>
</g>
<!-- Node7 -->
<g id="node7" class="node">
<title>Node7</title>
<g id="a_node7"><a xlink:title=" ">
<polygon fill="white" stroke="#bfbfbf" points="161,-1026.5 161,-1083.5 322,-1083.5 322,-1026.5 161,-1026.5"/>
<text text-anchor="middle" x="241.5" y="-1071.5" font-family="Courier New" font-size="10.00">UnityEvent&lt; RaycastHit &gt;</text>
<polyline fill="none" stroke="#bfbfbf" points="161,-1064.5 322,-1064.5 "/>
<text text-anchor="middle" x="241.5" y="-1052.5" font-family="Courier New" font-size="10.00"> </text>
<polyline fill="none" stroke="#bfbfbf" points="161,-1045.5 322,-1045.5 "/>
<text text-anchor="middle" x="241.5" y="-1033.5" font-family="Courier New" font-size="10.00"> </text>
</a>
</g>
</g>
<!-- Node7&#45;&gt;Node6 -->
<g id="edge8" class="edge">
<title>Node7&#45;&gt;Node6</title>
<path fill="none" stroke="midnightblue" d="M241.5,-1016.01C241.5,-1006.96 241.5,-997.38 241.5,-988.58"/>
<polygon fill="none" stroke="midnightblue" points="238,-1016.3 241.5,-1026.3 245,-1016.3 238,-1016.3"/>
</g>
</g>
</svg>
        <g id="navigator" transform="translate(0 0)" fill="#404254">
                <rect fill="#f2f5e9" fill-opacity="0.5" stroke="#606060" stroke-width=".5" x="0" y="0" width="60" height="60"/>
                <use id="zoomplus" xlink:href="#zoomPlus" x="17" y="9" onmousedown="handleZoom(evt,'in')"/>
                <use id="zoomminus" xlink:href="#zoomMin" x="42" y="9" onmousedown="handleZoom(evt,'out')"/>
                <use id="reset" xlink:href="#resetDef" x="30" y="36" onmousedown="handleReset()"/>
                <g id="arrowUp" xlink:href="#dirArrow" transform="translate(30 24)" onmousedown="handlePan(0,-1)">
                  <use xlink:href="#rim" fill="#404040">
                        <set attributeName="fill" to="#808080" begin="arrowUp.mouseover" end="arrowUp.mouseout"/>
                  </use>
                  <path fill="none" stroke="white" stroke-width="1.5" d="M0,-3.0v7 M-2.5,-0.5L0,-3.0L2.5,-0.5"/>
                </g>
                <g id="arrowRight" xlink:href="#dirArrow" transform="rotate(90) translate(36 -43)" onmousedown="handlePan(1,0)">
                  <use xlink:href="#rim" fill="#404040">
                        <set attributeName="fill" to="#808080" begin="arrowRight.mouseover" end="arrowRight.mouseout"/>
                  </use>
                  <path fill="none" stroke="white" stroke-width="1.5" d="M0,-3.0v7 M-2.5,-0.5L0,-3.0L2.5,-0.5"/>
                </g>
                <g id="arrowDown" xlink:href="#dirArrow" transform="rotate(180) translate(-30 -48)" onmousedown="handlePan(0,1)">
                  <use xlink:href="#rim" fill="#404040">
                        <set attributeName="fill" to="#808080" begin="arrowDown.mouseover" end="arrowDown.mouseout"/>
                  </use>
                  <path fill="none" stroke="white" stroke-width="1.5" d="M0,-3.0v7 M-2.5,-0.5L0,-3.0L2.5,-0.5"/>
                </g>
                <g id="arrowLeft" xlink:href="#dirArrow" transform="rotate(270) translate(-36 17)" onmousedown="handlePan(-1,0)">
                  <use xlink:href="#rim" fill="#404040">
                        <set attributeName="fill" to="#808080" begin="arrowLeft.mouseover" end="arrowLeft.mouseout"/>
                  </use>
                  <path fill="none" stroke="white" stroke-width="1.5" d="M0,-3.0v7 M-2.5,-0.5L0,-3.0L2.5,-0.5"/>
                </g>
        </g>
        <svg viewBox="0 0 15 15" width="100%" height="30px" preserveAspectRatio="xMaxYMin meet">
         <g id="arrow_out" transform="scale(0.3 0.3)">
          <a xlink:href="class_c2_m2_1_1_interaction_1_1_raycast_forward__coll__graph_org.svg" target="_base">
           <rect id="button" ry="5" rx="5" y="6" x="6" height="38" width="38"
                fill="#f2f5e9" fill-opacity="0.5" stroke="#606060" stroke-width="1.0"/>
           <path id="arrow"
             d="M 11.500037,31.436501 C 11.940474,20.09759 22.043105,11.32322 32.158766,21.979434 L 37.068811,17.246167 C 37.068811,17.246167 37.088388,32 37.088388,32 L 22.160133,31.978069 C 22.160133,31.978069 26.997745,27.140456 26.997745,27.140456 C 18.528582,18.264221 13.291696,25.230495 11.500037,31.436501 z"
             style="fill:#404040;"/>
          </a>
         </g>
        </svg>
</svg>
