<?xml version="1.0" encoding="UTF-8" standalone="no"?>
<!DOCTYPE svg PUBLIC "-//W3C//DTD SVG 1.1//EN"
 "http://www.w3.org/Graphics/SVG/1.1/DTD/svg11.dtd">
<!-- Generated by graphviz version 2.38.0 (20140413.2041)
 -->
<!-- Title: C2M2.OIT.Interaction.ParticleIsoQuantControllerButton Pages: 1 -->
<svg width="199pt" height="336pt"
 viewBox="0.00 0.00 199.00 336.00" xmlns="http://www.w3.org/2000/svg" xmlns:xlink="http://www.w3.org/1999/xlink">
<g id="graph0" class="graph" transform="scale(1 1) rotate(0) translate(4 332)">
<title>C2M2.OIT.Interaction.ParticleIsoQuantControllerButton</title>
<polygon fill="white" stroke="none" points="-4,4 -4,-332 195,-332 195,4 -4,4"/>
<!-- Node1 -->
<g id="node1" class="node"><title>Node1</title>
<g id="a_node1"><a xlink:title=" ">
<polygon fill="#bfbfbf" stroke="black" points="0,-0.5 0,-233.5 191,-233.5 191,-0.5 0,-0.5"/>
<text text-anchor="start" x="8" y="-221.5" font-family="Courier New" font-size="10.00">C2M2.OIT.Interaction.Particle</text>
<text text-anchor="middle" x="95.5" y="-210.5" font-family="Courier New" font-size="10.00">IsoQuantControllerButton</text>
<polyline fill="none" stroke="black" points="0,-203.5 191,-203.5 "/>
<text text-anchor="start" x="8" y="-191.5" font-family="Courier New" font-size="10.00">+ highController</text>
<text text-anchor="start" x="8" y="-180.5" font-family="Courier New" font-size="10.00">+ increasingButton</text>
<text text-anchor="start" x="8" y="-169.5" font-family="Courier New" font-size="10.00">+ valueText</text>
<text text-anchor="start" x="8" y="-158.5" font-family="Courier New" font-size="10.00">+ buttonChangeValue</text>
<text text-anchor="start" x="8" y="-147.5" font-family="Courier New" font-size="10.00">+ partSysCon</text>
<text text-anchor="start" x="8" y="-136.5" font-family="Courier New" font-size="10.00">+ buttonWaitTime</text>
<text text-anchor="start" x="8" y="-125.5" font-family="Courier New" font-size="10.00">+ menuAudioSource</text>
<text text-anchor="start" x="8" y="-114.5" font-family="Courier New" font-size="10.00">+ buttonPressSound</text>
<text text-anchor="start" x="8" y="-103.5" font-family="Courier New" font-size="10.00">+ hapticAudioClip</text>
<text text-anchor="start" x="8" y="-92.5" font-family="Courier New" font-size="10.00">&#45; hapticsClip</text>
<text text-anchor="start" x="8" y="-81.5" font-family="Courier New" font-size="10.00">&#45; localAvatar</text>
<text text-anchor="start" x="8" y="-70.5" font-family="Courier New" font-size="10.00">&#45; originalHigh</text>
<text text-anchor="start" x="8" y="-59.5" font-family="Courier New" font-size="10.00">&#45; originalLow</text>
<polyline fill="none" stroke="black" points="0,-52.5 191,-52.5 "/>
<text text-anchor="start" x="8" y="-40.5" font-family="Courier New" font-size="10.00">+ onClick()</text>
<text text-anchor="start" x="8" y="-29.5" font-family="Courier New" font-size="10.00">&#45; Start()</text>
<text text-anchor="start" x="8" y="-18.5" font-family="Courier New" font-size="10.00">&#45; Update()</text>
<text text-anchor="start" x="8" y="-7.5" font-family="Courier New" font-size="10.00">&#45; OnTriggerEnter()</text>
</a>
</g>
</g>
<!-- Node2 -->
<g id="node2" class="node"><title>Node2</title>
<g id="a_node2"><a xlink:title=" ">
<polygon fill="white" stroke="#bfbfbf" points="48,-270.5 48,-327.5 143,-327.5 143,-270.5 48,-270.5"/>
<text text-anchor="middle" x="95.5" y="-315.5" font-family="Courier New" font-size="10.00">MonoBehaviour</text>
<polyline fill="none" stroke="#bfbfbf" points="48,-308.5 143,-308.5 "/>
<text text-anchor="middle" x="95.5" y="-296.5" font-family="Courier New" font-size="10.00"> </text>
<polyline fill="none" stroke="#bfbfbf" points="48,-289.5 143,-289.5 "/>
<text text-anchor="middle" x="95.5" y="-277.5" font-family="Courier New" font-size="10.00"> </text>
</a>
</g>
</g>
<!-- Node2&#45;&gt;Node1 -->
<g id="edge1" class="edge"><title>Node2&#45;&gt;Node1</title>
<path fill="none" stroke="midnightblue" d="M95.5,-260.141C95.5,-252.029 95.5,-243.054 95.5,-233.673"/>
<polygon fill="none" stroke="midnightblue" points="92.0001,-260.269 95.5,-270.269 99.0001,-260.27 92.0001,-260.269"/>
</g>
</g>
</svg>
