<?xml version="1.0" encoding="UTF-8" standalone="no"?>
<!DOCTYPE svg PUBLIC "-//W3C//DTD SVG 1.1//EN"
 "http://www.w3.org/Graphics/SVG/1.1/DTD/svg11.dtd">
<!-- Generated by graphviz version 2.38.0 (20140413.2041)
 -->
<!-- Title: C2M2.Interaction.Signaling.RaycastEventSignaler Pages: 1 -->
<svg width="396pt" height="887pt"
 viewBox="0.00 0.00 396.00 887.00" xmlns="http://www.w3.org/2000/svg" xmlns:xlink="http://www.w3.org/1999/xlink">
<g id="graph0" class="graph" transform="scale(1 1) rotate(0) translate(4 883)">
<title>C2M2.Interaction.Signaling.RaycastEventSignaler</title>
<polygon fill="white" stroke="none" points="-4,4 -4,-883 392,-883 392,4 -4,4"/>
<!-- Node1 -->
<g id="node1" class="node"><title>Node1</title>
<g id="a_node1"><a xlink:title=" ">
<polygon fill="#bfbfbf" stroke="black" points="101,-391.5 101,-657.5 286,-657.5 286,-391.5 101,-391.5"/>
<text text-anchor="start" x="109" y="-645.5" font-family="Courier New" font-size="10.00">C2M2.Interaction.Signaling.</text>
<text text-anchor="middle" x="193.5" y="-634.5" font-family="Courier New" font-size="10.00">RaycastEventSignaler</text>
<polyline fill="none" stroke="black" points="101,-627.5 286,-627.5 "/>
<text text-anchor="start" x="109" y="-615.5" font-family="Courier New" font-size="10.00">+ rightHand</text>
<text text-anchor="start" x="109" y="-604.5" font-family="Courier New" font-size="10.00">+ layerMask</text>
<text text-anchor="start" x="109" y="-593.5" font-family="Courier New" font-size="10.00">+ maxRaycastDistance</text>
<text text-anchor="start" x="109" y="-582.5" font-family="Courier New" font-size="10.00">&#45; activeEvent</text>
<text text-anchor="start" x="109" y="-571.5" font-family="Courier New" font-size="10.00">&#45; lastHit</text>
<polyline fill="none" stroke="black" points="101,-564.5 286,-564.5 "/>
<text text-anchor="start" x="109" y="-552.5" font-family="Courier New" font-size="10.00"># OnAwake()</text>
<text text-anchor="start" x="109" y="-541.5" font-family="Courier New" font-size="10.00"># Awake()</text>
<text text-anchor="start" x="109" y="-530.5" font-family="Courier New" font-size="10.00"># OnStart()</text>
<text text-anchor="start" x="109" y="-519.5" font-family="Courier New" font-size="10.00"># OnPress()</text>
<text text-anchor="start" x="109" y="-508.5" font-family="Courier New" font-size="10.00"># OnHoldPress()</text>
<text text-anchor="start" x="109" y="-497.5" font-family="Courier New" font-size="10.00"># OnEndPress()</text>
<text text-anchor="start" x="109" y="-486.5" font-family="Courier New" font-size="10.00"># OnPressSub()</text>
<text text-anchor="start" x="109" y="-475.5" font-family="Courier New" font-size="10.00"># OnHoldPressSub()</text>
<text text-anchor="start" x="109" y="-464.5" font-family="Courier New" font-size="10.00"># OnEndPressSub()</text>
<text text-anchor="start" x="109" y="-453.5" font-family="Courier New" font-size="10.00"># RaycastingMethod()</text>
<text text-anchor="start" x="109" y="-442.5" font-family="Courier New" font-size="10.00"># BeginRaycastingCondition()</text>
<text text-anchor="start" x="109" y="-431.5" font-family="Courier New" font-size="10.00"># ChildsPressCondition()</text>
<text text-anchor="start" x="109" y="-420.5" font-family="Courier New" font-size="10.00">&#45; Start()</text>
<text text-anchor="start" x="109" y="-409.5" font-family="Courier New" font-size="10.00">&#45; FixedUpdate()</text>
<text text-anchor="start" x="109" y="-398.5" font-family="Courier New" font-size="10.00">&#45; FindRaycastTrigger()</text>
</a>
</g>
</g>
<!-- Node4 -->
<g id="node4" class="node"><title>Node4</title>
<g id="a_node4"><a xlink:href="../../d3/da8/class_c2_m2_1_1_interaction_1_1_signaling_1_1_mouse_event_signaler.html" target="_top" xlink:title=" ">
<polygon fill="white" stroke="black" points="0,-88.5 0,-266.5 185,-266.5 185,-88.5 0,-88.5"/>
<text text-anchor="start" x="8" y="-254.5" font-family="Courier New" font-size="10.00">C2M2.Interaction.Signaling.</text>
<text text-anchor="middle" x="92.5" y="-243.5" font-family="Courier New" font-size="10.00">MouseEventSignaler</text>
<polyline fill="none" stroke="black" points="0,-236.5 185,-236.5 "/>
<text text-anchor="start" x="8" y="-224.5" font-family="Courier New" font-size="10.00">+ grabKeys</text>
<text text-anchor="start" x="8" y="-213.5" font-family="Courier New" font-size="10.00">&#45; grabTransform</text>
<text text-anchor="start" x="8" y="-202.5" font-family="Courier New" font-size="10.00">&#45; grabber</text>
<text text-anchor="start" x="8" y="-191.5" font-family="Courier New" font-size="10.00">&#45; grabVolume</text>
<polyline fill="none" stroke="black" points="0,-184.5 185,-184.5 "/>
<text text-anchor="start" x="8" y="-172.5" font-family="Courier New" font-size="10.00"># OnAwake()</text>
<text text-anchor="start" x="8" y="-161.5" font-family="Courier New" font-size="10.00"># OnStart()</text>
<text text-anchor="start" x="8" y="-150.5" font-family="Courier New" font-size="10.00"># BeginRaycastingCondition()</text>
<text text-anchor="start" x="8" y="-139.5" font-family="Courier New" font-size="10.00"># RaycastingMethod()</text>
<text text-anchor="start" x="8" y="-128.5" font-family="Courier New" font-size="10.00"># ChildsPressCondition()</text>
<text text-anchor="start" x="8" y="-117.5" font-family="Courier New" font-size="10.00"># OnPressSub()</text>
<text text-anchor="start" x="8" y="-106.5" font-family="Courier New" font-size="10.00"># OnHoldPressSub()</text>
<text text-anchor="start" x="8" y="-95.5" font-family="Courier New" font-size="10.00"># OnEndPressSub()</text>
</a>
</g>
</g>
<!-- Node1&#45;&gt;Node4 -->
<g id="edge3" class="edge"><title>Node1&#45;&gt;Node4</title>
<path fill="none" stroke="midnightblue" d="M151.861,-381.269C140.482,-342.4 128.483,-301.414 118.274,-266.542"/>
<polygon fill="none" stroke="midnightblue" points="148.571,-382.487 154.74,-391.101 155.289,-380.52 148.571,-382.487"/>
</g>
<!-- Node5 -->
<g id="node5" class="node"><title>Node5</title>
<g id="a_node5"><a xlink:href="../../d4/d2f/class_c2_m2_1_1_interaction_1_1_signaling_1_1_oculus_event_signaler.html" target="_top" xlink:title="Activate raycast triggers using oculus controller buttons and fingertip distance">
<polygon fill="white" stroke="black" points="203,-0.5 203,-354.5 388,-354.5 388,-0.5 203,-0.5"/>
<text text-anchor="start" x="211" y="-342.5" font-family="Courier New" font-size="10.00">C2M2.Interaction.Signaling.</text>
<text text-anchor="middle" x="295.5" y="-331.5" font-family="Courier New" font-size="10.00">OculusEventSignaler</text>
<polyline fill="none" stroke="black" points="203,-324.5 388,-324.5 "/>
<text text-anchor="start" x="211" y="-312.5" font-family="Courier New" font-size="10.00">+ controller</text>
<text text-anchor="start" x="211" y="-301.5" font-family="Courier New" font-size="10.00">+ beginRaycastingButton</text>
<text text-anchor="start" x="211" y="-290.5" font-family="Courier New" font-size="10.00">+ toggleMode</text>
<text text-anchor="start" x="211" y="-279.5" font-family="Courier New" font-size="10.00">+ triggerEventsButton</text>
<text text-anchor="start" x="211" y="-268.5" font-family="Courier New" font-size="10.00">+ grabber</text>
<text text-anchor="start" x="211" y="-257.5" font-family="Courier New" font-size="10.00">+ lineRend</text>
<text text-anchor="start" x="211" y="-246.5" font-family="Courier New" font-size="10.00">+ unpressedColor</text>
<text text-anchor="start" x="211" y="-235.5" font-family="Courier New" font-size="10.00">+ pressedColor</text>
<text text-anchor="start" x="211" y="-224.5" font-family="Courier New" font-size="10.00">+ localAvatar</text>
<text text-anchor="start" x="211" y="-213.5" font-family="Courier New" font-size="10.00">+ isLeftHand</text>
<text text-anchor="start" x="211" y="-202.5" font-family="Courier New" font-size="10.00">+ staticHand</text>
<text text-anchor="start" x="211" y="-191.5" font-family="Courier New" font-size="10.00">+ clickDistance</text>
<text text-anchor="start" x="211" y="-180.5" font-family="Courier New" font-size="10.00">+ Toggled</text>
<text text-anchor="start" x="211" y="-169.5" font-family="Courier New" font-size="10.00">&#45; toggled</text>
<text text-anchor="start" x="211" y="-158.5" font-family="Courier New" font-size="10.00">&#45; distancePressed</text>
<text text-anchor="start" x="211" y="-147.5" font-family="Courier New" font-size="10.00">&#45; defaultHand</text>
<polyline fill="none" stroke="black" points="203,-140.5 388,-140.5 "/>
<text text-anchor="start" x="211" y="-128.5" font-family="Courier New" font-size="10.00"># OnAwake()</text>
<text text-anchor="start" x="211" y="-117.5" font-family="Courier New" font-size="10.00"># OnStart()</text>
<text text-anchor="start" x="211" y="-106.5" font-family="Courier New" font-size="10.00"># BeginRaycastingCondition()</text>
<text text-anchor="start" x="211" y="-95.5" font-family="Courier New" font-size="10.00"># ChildsPressCondition()</text>
<text text-anchor="start" x="211" y="-84.5" font-family="Courier New" font-size="10.00"># OnPressSub()</text>
<text text-anchor="start" x="211" y="-73.5" font-family="Courier New" font-size="10.00"># OnHoldPressSub()</text>
<text text-anchor="start" x="211" y="-62.5" font-family="Courier New" font-size="10.00"># OnEndPressSub()</text>
<text text-anchor="start" x="211" y="-51.5" font-family="Courier New" font-size="10.00"># RaycastingMethod()</text>
<text text-anchor="start" x="211" y="-40.5" font-family="Courier New" font-size="10.00">&#45; StaticHandSetActive()</text>
<text text-anchor="start" x="211" y="-29.5" font-family="Courier New" font-size="10.00">&#45; LineRendererSetActive()</text>
<text text-anchor="start" x="211" y="-18.5" font-family="Courier New" font-size="10.00">&#45; CheckPressDistance()</text>
<text text-anchor="start" x="211" y="-7.5" font-family="Courier New" font-size="10.00">&#45; SearchForHand()</text>
</a>
</g>
</g>
<!-- Node1&#45;&gt;Node5 -->
<g id="edge4" class="edge"><title>Node1&#45;&gt;Node5</title>
<path fill="none" stroke="midnightblue" d="M235.48,-381.508C238.107,-372.623 240.767,-363.626 243.431,-354.616"/>
<polygon fill="none" stroke="midnightblue" points="232.123,-380.519 232.644,-391.101 238.836,-382.503 232.123,-380.519"/>
</g>
<!-- Node2 -->
<g id="node2" class="node"><title>Node2</title>
<g id="a_node2"><a xlink:href="../../d6/d4b/class_c2_m2_1_1_interaction_1_1_signaling_1_1_press_event_signaler.html" target="_top" xlink:title="Send press, holdPress, and endPress events based on set values of Pressed and RaycastTriggerManager">
<polygon fill="white" stroke="black" points="131,-694.5 131,-784.5 256,-784.5 256,-694.5 131,-694.5"/>
<text text-anchor="middle" x="193.5" y="-772.5" font-family="Courier New" font-size="10.00">PressEventSignaler</text>
<polyline fill="none" stroke="black" points="131,-765.5 256,-765.5 "/>
<text text-anchor="start" x="139" y="-753.5" font-family="Courier New" font-size="10.00">+ Pressed</text>
<text text-anchor="start" x="139" y="-742.5" font-family="Courier New" font-size="10.00">&#45; pressedPrevFrame</text>
<polyline fill="none" stroke="black" points="131,-735.5 256,-735.5 "/>
<text text-anchor="start" x="139" y="-723.5" font-family="Courier New" font-size="10.00"># OnPress()</text>
<text text-anchor="start" x="139" y="-712.5" font-family="Courier New" font-size="10.00"># OnHoldPress()</text>
<text text-anchor="start" x="139" y="-701.5" font-family="Courier New" font-size="10.00"># OnEndPress()</text>
</a>
</g>
</g>
<!-- Node2&#45;&gt;Node1 -->
<g id="edge1" class="edge"><title>Node2&#45;&gt;Node1</title>
<path fill="none" stroke="midnightblue" d="M193.5,-684.144C193.5,-675.819 193.5,-666.928 193.5,-657.767"/>
<polygon fill="none" stroke="midnightblue" points="190,-684.366 193.5,-694.366 197,-684.366 190,-684.366"/>
</g>
<!-- Node3 -->
<g id="node3" class="node"><title>Node3</title>
<g id="a_node3"><a xlink:title=" ">
<polygon fill="white" stroke="#bfbfbf" points="146,-821.5 146,-878.5 241,-878.5 241,-821.5 146,-821.5"/>
<text text-anchor="middle" x="193.5" y="-866.5" font-family="Courier New" font-size="10.00">MonoBehaviour</text>
<polyline fill="none" stroke="#bfbfbf" points="146,-859.5 241,-859.5 "/>
<text text-anchor="middle" x="193.5" y="-847.5" font-family="Courier New" font-size="10.00"> </text>
<polyline fill="none" stroke="#bfbfbf" points="146,-840.5 241,-840.5 "/>
<text text-anchor="middle" x="193.5" y="-828.5" font-family="Courier New" font-size="10.00"> </text>
</a>
</g>
</g>
<!-- Node3&#45;&gt;Node2 -->
<g id="edge2" class="edge"><title>Node3&#45;&gt;Node2</title>
<path fill="none" stroke="midnightblue" d="M193.5,-811.214C193.5,-802.609 193.5,-793.394 193.5,-784.554"/>
<polygon fill="none" stroke="midnightblue" points="190,-811.34 193.5,-821.34 197,-811.34 190,-811.34"/>
</g>
</g>
</svg>
