<?xml version="1.0" encoding="UTF-8" standalone="no"?>
<!DOCTYPE svg PUBLIC "-//W3C//DTD SVG 1.1//EN"
 "http://www.w3.org/Graphics/SVG/1.1/DTD/svg11.dtd">
<!-- Generated by graphviz version 2.46.0 (20210118.1747)
 -->
<!-- Title: C2M2.Interaction.Signaling.RaycastEventSignaler Pages: 1 -->
<svg width="396pt" height="920pt"
 viewBox="0.00 0.00 396.00 920.00" xmlns="http://www.w3.org/2000/svg" xmlns:xlink="http://www.w3.org/1999/xlink">
<g id="graph0" class="graph" transform="scale(1 1) rotate(0) translate(4 916)">
<title>C2M2.Interaction.Signaling.RaycastEventSignaler</title>
<polygon fill="white" stroke="transparent" points="-4,4 -4,-916 392,-916 392,4 -4,4"/>
<!-- Node1 -->
<g id="node1" class="node">
<title>Node1</title>
<g id="a_node1"><a xlink:title=" ">
<polygon fill="#bfbfbf" stroke="black" points="104,-391.5 104,-668.5 283,-668.5 283,-391.5 104,-391.5"/>
<text text-anchor="start" x="112" y="-656.5" font-family="Courier New" font-size="10.00">C2M2.Interaction.Signaling.</text>
<text text-anchor="middle" x="193.5" y="-645.5" font-family="Courier New" font-size="10.00">RaycastEventSignaler</text>
<polyline fill="none" stroke="black" points="104,-638.5 283,-638.5 "/>
<text text-anchor="start" x="112" y="-626.5" font-family="Courier New" font-size="10.00">+ rightHand</text>
<text text-anchor="start" x="112" y="-615.5" font-family="Courier New" font-size="10.00">+ layerMask</text>
<text text-anchor="start" x="112" y="-604.5" font-family="Courier New" font-size="10.00">+ maxRaycastDistance</text>
<text text-anchor="start" x="112" y="-593.5" font-family="Courier New" font-size="10.00">&#45; activeEvent</text>
<text text-anchor="start" x="112" y="-582.5" font-family="Courier New" font-size="10.00">&#45; lastHit</text>
<text text-anchor="start" x="112" y="-571.5" font-family="Courier New" font-size="10.00">&#45; prevObj</text>
<polyline fill="none" stroke="black" points="104,-564.5 283,-564.5 "/>
<text text-anchor="start" x="112" y="-552.5" font-family="Courier New" font-size="10.00"># OnAwake()</text>
<text text-anchor="start" x="112" y="-541.5" font-family="Courier New" font-size="10.00"># Awake()</text>
<text text-anchor="start" x="112" y="-530.5" font-family="Courier New" font-size="10.00"># OnStart()</text>
<text text-anchor="start" x="112" y="-519.5" font-family="Courier New" font-size="10.00"># OnHover()</text>
<text text-anchor="start" x="112" y="-508.5" font-family="Courier New" font-size="10.00"># OnHoverEnd()</text>
<text text-anchor="start" x="112" y="-497.5" font-family="Courier New" font-size="10.00"># OnPress()</text>
<text text-anchor="start" x="112" y="-486.5" font-family="Courier New" font-size="10.00"># OnHoldPress()</text>
<text text-anchor="start" x="112" y="-475.5" font-family="Courier New" font-size="10.00"># OnEndPress()</text>
<text text-anchor="start" x="112" y="-464.5" font-family="Courier New" font-size="10.00"># OnHoverSub()</text>
<text text-anchor="start" x="112" y="-453.5" font-family="Courier New" font-size="10.00"># OnHoverEndSub()</text>
<text text-anchor="start" x="112" y="-442.5" font-family="Courier New" font-size="10.00">and 6 more...</text>
<text text-anchor="start" x="112" y="-431.5" font-family="Courier New" font-size="10.00">&#45; Start()</text>
<text text-anchor="start" x="112" y="-420.5" font-family="Courier New" font-size="10.00">&#45; FixedUpdate()</text>
<text text-anchor="start" x="112" y="-409.5" font-family="Courier New" font-size="10.00">&#45; OnObjectChange()</text>
<text text-anchor="start" x="112" y="-398.5" font-family="Courier New" font-size="10.00">&#45; FindRaycastTrigger()</text>
</a>
</g>
</g>
<!-- Node4 -->
<g id="node4" class="node">
<title>Node4</title>
<g id="a_node4"><a xlink:href="../../d3/da8/class_c2_m2_1_1_interaction_1_1_signaling_1_1_mouse_event_signaler.html" target="_top" xlink:title=" ">
<polygon fill="white" stroke="black" points="0,-105 0,-250 185,-250 185,-105 0,-105"/>
<text text-anchor="start" x="8" y="-238" font-family="Courier New" font-size="10.00">C2M2.Interaction.Signaling.</text>
<text text-anchor="middle" x="92.5" y="-227" font-family="Courier New" font-size="10.00">MouseEventSignaler</text>
<polyline fill="none" stroke="black" points="0,-220 185,-220 "/>
<text text-anchor="start" x="8" y="-208" font-family="Courier New" font-size="10.00">+ grabKeys</text>
<text text-anchor="start" x="8" y="-197" font-family="Courier New" font-size="10.00">&#45; grabTransform</text>
<text text-anchor="start" x="8" y="-186" font-family="Courier New" font-size="10.00">&#45; grabber</text>
<text text-anchor="start" x="8" y="-175" font-family="Courier New" font-size="10.00">&#45; grabVolume</text>
<polyline fill="none" stroke="black" points="0,-168 185,-168 "/>
<text text-anchor="start" x="8" y="-156" font-family="Courier New" font-size="10.00"># OnAwake()</text>
<text text-anchor="start" x="8" y="-145" font-family="Courier New" font-size="10.00"># OnStart()</text>
<text text-anchor="start" x="8" y="-134" font-family="Courier New" font-size="10.00"># BeginRaycastingCondition()</text>
<text text-anchor="start" x="8" y="-123" font-family="Courier New" font-size="10.00"># RaycastingMethod()</text>
<text text-anchor="start" x="8" y="-112" font-family="Courier New" font-size="10.00"># ChildsPressCondition()</text>
</a>
</g>
</g>
<!-- Node1&#45;&gt;Node4 -->
<g id="edge3" class="edge">
<title>Node1&#45;&gt;Node4</title>
<path fill="none" stroke="midnightblue" d="M151.08,-381.8C137.96,-336.25 124.08,-288.1 113.13,-250.1"/>
<polygon fill="none" stroke="midnightblue" points="147.74,-382.84 153.87,-391.48 154.47,-380.9 147.74,-382.84"/>
</g>
<!-- Node5 -->
<g id="node5" class="node">
<title>Node5</title>
<g id="a_node5"><a xlink:href="../../d4/d2f/class_c2_m2_1_1_interaction_1_1_signaling_1_1_oculus_event_signaler.html" target="_top" xlink:title="Activate raycast triggers using oculus controller buttons and fingertip distance">
<polygon fill="white" stroke="black" points="203,-0.5 203,-354.5 388,-354.5 388,-0.5 203,-0.5"/>
<text text-anchor="start" x="211" y="-342.5" font-family="Courier New" font-size="10.00">C2M2.Interaction.Signaling.</text>
<text text-anchor="middle" x="295.5" y="-331.5" font-family="Courier New" font-size="10.00">OculusEventSignaler</text>
<polyline fill="none" stroke="black" points="203,-324.5 388,-324.5 "/>
<text text-anchor="start" x="211" y="-312.5" font-family="Courier New" font-size="10.00">+ controller</text>
<text text-anchor="start" x="211" y="-301.5" font-family="Courier New" font-size="10.00">+ beginRaycastingButton</text>
<text text-anchor="start" x="211" y="-290.5" font-family="Courier New" font-size="10.00">+ toggleMode</text>
<text text-anchor="start" x="211" y="-279.5" font-family="Courier New" font-size="10.00">+ triggerEventsButton</text>
<text text-anchor="start" x="211" y="-268.5" font-family="Courier New" font-size="10.00">+ grabber</text>
<text text-anchor="start" x="211" y="-257.5" font-family="Courier New" font-size="10.00">+ lineRend</text>
<text text-anchor="start" x="211" y="-246.5" font-family="Courier New" font-size="10.00">+ unpressedColor</text>
<text text-anchor="start" x="211" y="-235.5" font-family="Courier New" font-size="10.00">+ pressedColor</text>
<text text-anchor="start" x="211" y="-224.5" font-family="Courier New" font-size="10.00">+ localAvatar</text>
<text text-anchor="start" x="211" y="-213.5" font-family="Courier New" font-size="10.00">+ isLeftHand</text>
<text text-anchor="start" x="211" y="-202.5" font-family="Courier New" font-size="10.00">+ staticHand</text>
<text text-anchor="start" x="211" y="-191.5" font-family="Courier New" font-size="10.00">+ clickDistance</text>
<text text-anchor="start" x="211" y="-180.5" font-family="Courier New" font-size="10.00">+ Toggled</text>
<text text-anchor="start" x="211" y="-169.5" font-family="Courier New" font-size="10.00">&#45; toggled</text>
<text text-anchor="start" x="211" y="-158.5" font-family="Courier New" font-size="10.00">&#45; distancePressed</text>
<text text-anchor="start" x="211" y="-147.5" font-family="Courier New" font-size="10.00">&#45; defaultHand</text>
<polyline fill="none" stroke="black" points="203,-140.5 388,-140.5 "/>
<text text-anchor="start" x="211" y="-128.5" font-family="Courier New" font-size="10.00"># OnAwake()</text>
<text text-anchor="start" x="211" y="-117.5" font-family="Courier New" font-size="10.00"># OnStart()</text>
<text text-anchor="start" x="211" y="-106.5" font-family="Courier New" font-size="10.00"># BeginRaycastingCondition()</text>
<text text-anchor="start" x="211" y="-95.5" font-family="Courier New" font-size="10.00"># ChildsPressCondition()</text>
<text text-anchor="start" x="211" y="-84.5" font-family="Courier New" font-size="10.00"># OnPressSub()</text>
<text text-anchor="start" x="211" y="-73.5" font-family="Courier New" font-size="10.00"># OnHoldPressSub()</text>
<text text-anchor="start" x="211" y="-62.5" font-family="Courier New" font-size="10.00"># OnEndPressSub()</text>
<text text-anchor="start" x="211" y="-51.5" font-family="Courier New" font-size="10.00"># RaycastingMethod()</text>
<text text-anchor="start" x="211" y="-40.5" font-family="Courier New" font-size="10.00">&#45; StaticHandSetActive()</text>
<text text-anchor="start" x="211" y="-29.5" font-family="Courier New" font-size="10.00">&#45; LineRendererSetActive()</text>
<text text-anchor="start" x="211" y="-18.5" font-family="Courier New" font-size="10.00">&#45; CheckPressDistance()</text>
<text text-anchor="start" x="211" y="-7.5" font-family="Courier New" font-size="10.00">&#45; SearchForHand()</text>
</a>
</g>
</g>
<!-- Node1&#45;&gt;Node5 -->
<g id="edge4" class="edge">
<title>Node1&#45;&gt;Node5</title>
<path fill="none" stroke="midnightblue" d="M236.34,-381.8C238.94,-372.84 241.58,-363.78 244.22,-354.72"/>
<polygon fill="none" stroke="midnightblue" points="232.95,-380.9 233.52,-391.48 239.68,-382.86 232.95,-380.9"/>
</g>
<!-- Node2 -->
<g id="node2" class="node">
<title>Node2</title>
<g id="a_node2"><a xlink:href="../../d6/d4b/class_c2_m2_1_1_interaction_1_1_signaling_1_1_press_event_signaler.html" target="_top" xlink:title="Send press, holdPress, and endPress events based on set values of Pressed and RaycastTriggerManager">
<polygon fill="white" stroke="black" points="131,-705.5 131,-817.5 256,-817.5 256,-705.5 131,-705.5"/>
<text text-anchor="middle" x="193.5" y="-805.5" font-family="Courier New" font-size="10.00">PressEventSignaler</text>
<polyline fill="none" stroke="black" points="131,-798.5 256,-798.5 "/>
<text text-anchor="start" x="139" y="-786.5" font-family="Courier New" font-size="10.00">+ Pressed</text>
<text text-anchor="start" x="139" y="-775.5" font-family="Courier New" font-size="10.00">&#45; pressedPrevFrame</text>
<polyline fill="none" stroke="black" points="131,-768.5 256,-768.5 "/>
<text text-anchor="start" x="139" y="-756.5" font-family="Courier New" font-size="10.00"># OnHover()</text>
<text text-anchor="start" x="139" y="-745.5" font-family="Courier New" font-size="10.00"># OnHoverEnd()</text>
<text text-anchor="start" x="139" y="-734.5" font-family="Courier New" font-size="10.00"># OnPress()</text>
<text text-anchor="start" x="139" y="-723.5" font-family="Courier New" font-size="10.00"># OnHoldPress()</text>
<text text-anchor="start" x="139" y="-712.5" font-family="Courier New" font-size="10.00"># OnEndPress()</text>
</a>
</g>
</g>
<!-- Node2&#45;&gt;Node1 -->
<g id="edge1" class="edge">
<title>Node2&#45;&gt;Node1</title>
<path fill="none" stroke="midnightblue" d="M193.5,-695.21C193.5,-686.8 193.5,-677.95 193.5,-668.9"/>
<polygon fill="none" stroke="midnightblue" points="190,-695.24 193.5,-705.24 197,-695.24 190,-695.24"/>
</g>
<!-- Node3 -->
<g id="node3" class="node">
<title>Node3</title>
<g id="a_node3"><a xlink:title=" ">
<polygon fill="white" stroke="#bfbfbf" points="146,-854.5 146,-911.5 241,-911.5 241,-854.5 146,-854.5"/>
<text text-anchor="middle" x="193.5" y="-899.5" font-family="Courier New" font-size="10.00">MonoBehaviour</text>
<polyline fill="none" stroke="#bfbfbf" points="146,-892.5 241,-892.5 "/>
<text text-anchor="middle" x="193.5" y="-880.5" font-family="Courier New" font-size="10.00"> </text>
<polyline fill="none" stroke="#bfbfbf" points="146,-873.5 241,-873.5 "/>
<text text-anchor="middle" x="193.5" y="-861.5" font-family="Courier New" font-size="10.00"> </text>
</a>
</g>
</g>
<!-- Node3&#45;&gt;Node2 -->
<g id="edge2" class="edge">
<title>Node3&#45;&gt;Node2</title>
<path fill="none" stroke="midnightblue" d="M193.5,-844.11C193.5,-835.75 193.5,-826.73 193.5,-817.83"/>
<polygon fill="none" stroke="midnightblue" points="190,-844.28 193.5,-854.28 197,-844.28 190,-844.28"/>
</g>
</g>
</svg>
