<?xml version="1.0" encoding="UTF-8" standalone="no"?>
<!DOCTYPE svg PUBLIC "-//W3C//DTD SVG 1.1//EN"
 "http://www.w3.org/Graphics/SVG/1.1/DTD/svg11.dtd">
<!-- Generated by graphviz version 2.38.0 (20140413.2041)
 -->
<!-- Title: C2M2.Interaction.UI.VRButton Pages: 1 -->
<svg width="193pt" height="270pt"
 viewBox="0.00 0.00 193.00 270.00" xmlns="http://www.w3.org/2000/svg" xmlns:xlink="http://www.w3.org/1999/xlink">
<g id="graph0" class="graph" transform="scale(1 1) rotate(0) translate(4 266)">
<title>C2M2.Interaction.UI.VRButton</title>
<polygon fill="white" stroke="none" points="-4,4 -4,-266 189,-266 189,4 -4,4"/>
<!-- Node1 -->
<g id="node1" class="node"><title>Node1</title>
<g id="a_node1"><a xlink:title="If an object enters this button&#39;s trigger collider, and if that object is marked as the index finger,...">
<polygon fill="#bfbfbf" stroke="black" points="0,-0.5 0,-167.5 185,-167.5 185,-0.5 0,-0.5"/>
<text text-anchor="middle" x="92.5" y="-155.5" font-family="Courier New" font-size="10.00">C2M2.Interaction.UI.VRButton</text>
<polyline fill="none" stroke="black" points="0,-148.5 185,-148.5 "/>
<text text-anchor="start" x="8" y="-136.5" font-family="Courier New" font-size="10.00">+ waitTime</text>
<text text-anchor="start" x="8" y="-125.5" font-family="Courier New" font-size="10.00">+ clickOnEnter</text>
<text text-anchor="start" x="8" y="-114.5" font-family="Courier New" font-size="10.00">+ clickOnStay</text>
<text text-anchor="start" x="8" y="-103.5" font-family="Courier New" font-size="10.00">+ clickOnExit</text>
<text text-anchor="start" x="8" y="-92.5" font-family="Courier New" font-size="10.00">+ deactivateOnEnter</text>
<text text-anchor="start" x="8" y="-81.5" font-family="Courier New" font-size="10.00">+ deactivateOnStay</text>
<text text-anchor="start" x="8" y="-70.5" font-family="Courier New" font-size="10.00">+ deactivateOnExit</text>
<text text-anchor="start" x="8" y="-59.5" font-family="Courier New" font-size="10.00">&#45; button</text>
<polyline fill="none" stroke="black" points="0,-52.5 185,-52.5 "/>
<text text-anchor="start" x="8" y="-40.5" font-family="Courier New" font-size="10.00">&#45; Start()</text>
<text text-anchor="start" x="8" y="-29.5" font-family="Courier New" font-size="10.00">&#45; OnTriggerEnter()</text>
<text text-anchor="start" x="8" y="-18.5" font-family="Courier New" font-size="10.00">&#45; OnTriggerStay()</text>
<text text-anchor="start" x="8" y="-7.5" font-family="Courier New" font-size="10.00">&#45; OnTriggerExit()</text>
</a>
</g>
</g>
<!-- Node2 -->
<g id="node2" class="node"><title>Node2</title>
<g id="a_node2"><a xlink:title=" ">
<polygon fill="white" stroke="#bfbfbf" points="45,-204.5 45,-261.5 140,-261.5 140,-204.5 45,-204.5"/>
<text text-anchor="middle" x="92.5" y="-249.5" font-family="Courier New" font-size="10.00">MonoBehaviour</text>
<polyline fill="none" stroke="#bfbfbf" points="45,-242.5 140,-242.5 "/>
<text text-anchor="middle" x="92.5" y="-230.5" font-family="Courier New" font-size="10.00"> </text>
<polyline fill="none" stroke="#bfbfbf" points="45,-223.5 140,-223.5 "/>
<text text-anchor="middle" x="92.5" y="-211.5" font-family="Courier New" font-size="10.00"> </text>
</a>
</g>
</g>
<!-- Node2&#45;&gt;Node1 -->
<g id="edge1" class="edge"><title>Node2&#45;&gt;Node1</title>
<path fill="none" stroke="midnightblue" d="M92.5,-194.35C92.5,-186.08 92.5,-177.008 92.5,-167.738"/>
<polygon fill="none" stroke="midnightblue" points="89.0001,-194.35 92.5,-204.35 96.0001,-194.35 89.0001,-194.35"/>
</g>
</g>
</svg>
