<?xml version="1.0" encoding="UTF-8" standalone="no"?>
<!DOCTYPE svg PUBLIC "-//W3C//DTD SVG 1.1//EN"
 "http://www.w3.org/Graphics/SVG/1.1/DTD/svg11.dtd">
<!-- Generated by graphviz version 2.38.0 (20140413.2041)
 -->
<!-- Title: C2M2.NeuronalDynamics.UGX.Grid Pages: 1 -->
<svg width="205pt" height="176pt"
 viewBox="0.00 0.00 205.00 176.00" xmlns="http://www.w3.org/2000/svg" xmlns:xlink="http://www.w3.org/1999/xlink">
<g id="graph0" class="graph" transform="scale(1 1) rotate(0) translate(4 172)">
<title>C2M2.NeuronalDynamics.UGX.Grid</title>
<polygon fill="white" stroke="none" points="-4,4 -4,-172 201,-172 201,4 -4,4"/>
<!-- Node1 -->
<g id="node1" class="node"><title>Node1</title>
<g id="a_node1"><a xlink:title="Encapsulates Unity mesh and the edges of the UGX file">
<polygon fill="#bfbfbf" stroke="black" points="0,-0.5 0,-167.5 197,-167.5 197,-0.5 0,-0.5"/>
<text text-anchor="middle" x="98.5" y="-155.5" font-family="Courier New" font-size="10.00">C2M2.NeuronalDynamics.UGX.Grid</text>
<polyline fill="none" stroke="black" points="0,-148.5 197,-148.5 "/>
<text text-anchor="start" x="8" y="-136.5" font-family="Courier New" font-size="10.00">+ types</text>
<text text-anchor="start" x="8" y="-125.5" font-family="Courier New" font-size="10.00">+ data</text>
<text text-anchor="start" x="8" y="-114.5" font-family="Courier New" font-size="10.00">+ AttachmentInfo</text>
<text text-anchor="start" x="8" y="-103.5" font-family="Courier New" font-size="10.00">+ Mesh</text>
<text text-anchor="start" x="8" y="-92.5" font-family="Courier New" font-size="10.00">+ Edges</text>
<text text-anchor="start" x="8" y="-81.5" font-family="Courier New" font-size="10.00">+ Vertices</text>
<text text-anchor="start" x="8" y="-70.5" font-family="Courier New" font-size="10.00">+ Subsets</text>
<text text-anchor="start" x="8" y="-59.5" font-family="Courier New" font-size="10.00">+ Type</text>
<polyline fill="none" stroke="black" points="0,-52.5 197,-52.5 "/>
<text text-anchor="start" x="8" y="-40.5" font-family="Courier New" font-size="10.00">+ ToString()</text>
<text text-anchor="start" x="8" y="-29.5" font-family="Courier New" font-size="10.00">+ Grid()</text>
<text text-anchor="start" x="8" y="-18.5" font-family="Courier New" font-size="10.00">+ HasVertexAttachment&lt; T &gt;()</text>
<text text-anchor="start" x="8" y="-7.5" font-family="Courier New" font-size="10.00">+ Clear()</text>
</a>
</g>
</g>
</g>
</svg>
