<?xml version="1.0" encoding="UTF-8" standalone="no"?>
<!DOCTYPE svg PUBLIC "-//W3C//DTD SVG 1.1//EN"
 "http://www.w3.org/Graphics/SVG/1.1/DTD/svg11.dtd">
<!-- Generated by graphviz version 2.38.0 (20140413.2041)
 -->
<!-- Title: C2M2.Interaction.UI.ColliderButtonLimiter Pages: 1 -->
<svg width="303pt" height="547pt"
 viewBox="0.00 0.00 303.00 547.00" xmlns="http://www.w3.org/2000/svg" xmlns:xlink="http://www.w3.org/1999/xlink">
<g id="graph0" class="graph" transform="scale(1 1) rotate(0) translate(4 543)">
<title>C2M2.Interaction.UI.ColliderButtonLimiter</title>
<polygon fill="white" stroke="none" points="-4,4 -4,-543 299,-543 299,4 -4,4"/>
<!-- Node1 -->
<g id="node1" class="node"><title>Node1</title>
<g id="a_node1"><a xlink:title=" ">
<polygon fill="#bfbfbf" stroke="black" points="0,-0.5 0,-68.5 185,-68.5 185,-0.5 0,-0.5"/>
<text text-anchor="start" x="8" y="-56.5" font-family="Courier New" font-size="10.00">C2M2.Interaction.UI.Collider</text>
<text text-anchor="middle" x="92.5" y="-45.5" font-family="Courier New" font-size="10.00">ButtonLimiter</text>
<polyline fill="none" stroke="black" points="0,-38.5 185,-38.5 "/>
<text text-anchor="middle" x="92.5" y="-26.5" font-family="Courier New" font-size="10.00"> </text>
<polyline fill="none" stroke="black" points="0,-19.5 185,-19.5 "/>
<text text-anchor="start" x="8" y="-7.5" font-family="Courier New" font-size="10.00">&#45; Update()</text>
</a>
</g>
</g>
<!-- Node2 -->
<g id="node2" class="node"><title>Node2</title>
<g id="a_node2"><a xlink:title=" ">
<polygon fill="white" stroke="#bfbfbf" points="46,-481.5 46,-538.5 141,-538.5 141,-481.5 46,-481.5"/>
<text text-anchor="middle" x="93.5" y="-526.5" font-family="Courier New" font-size="10.00">MonoBehaviour</text>
<polyline fill="none" stroke="#bfbfbf" points="46,-519.5 141,-519.5 "/>
<text text-anchor="middle" x="93.5" y="-507.5" font-family="Courier New" font-size="10.00"> </text>
<polyline fill="none" stroke="#bfbfbf" points="46,-500.5 141,-500.5 "/>
<text text-anchor="middle" x="93.5" y="-488.5" font-family="Courier New" font-size="10.00"> </text>
</a>
</g>
</g>
<!-- Node2&#45;&gt;Node1 -->
<g id="edge1" class="edge"><title>Node2&#45;&gt;Node1</title>
<path fill="none" stroke="midnightblue" d="M87.9574,-471.213C78.6985,-402.537 62.2512,-252.723 74.5,-127 76.3996,-107.503 80.5247,-85.9948 84.3472,-68.733"/>
<polygon fill="none" stroke="midnightblue" points="84.4918,-471.704 89.3216,-481.134 91.4266,-470.75 84.4918,-471.704"/>
</g>
<!-- Node3 -->
<g id="node3" class="node"><title>Node3</title>
<g id="a_node3"><a xlink:href="../../d1/d90/class_c2_m2_1_1_interaction_1_1_u_i_1_1_button_highlight_manager.html" target="_top" xlink:title=" ">
<polygon fill="white" stroke="black" points="84,-127.5 84,-239.5 257,-239.5 257,-127.5 84,-127.5"/>
<text text-anchor="start" x="92" y="-227.5" font-family="Courier New" font-size="10.00">C2M2.Interaction.UI.Button</text>
<text text-anchor="middle" x="170.5" y="-216.5" font-family="Courier New" font-size="10.00">HighlightManager</text>
<polyline fill="none" stroke="black" points="84,-209.5 257,-209.5 "/>
<text text-anchor="start" x="92" y="-197.5" font-family="Courier New" font-size="10.00">+ activeIndex</text>
<text text-anchor="start" x="92" y="-186.5" font-family="Courier New" font-size="10.00">&#45; buttonLookup</text>
<polyline fill="none" stroke="black" points="84,-179.5 257,-179.5 "/>
<text text-anchor="start" x="92" y="-167.5" font-family="Courier New" font-size="10.00">+ HighlightButton()</text>
<text text-anchor="start" x="92" y="-156.5" font-family="Courier New" font-size="10.00">+ HighlightButton()</text>
<text text-anchor="start" x="92" y="-145.5" font-family="Courier New" font-size="10.00">&#45; Awake()</text>
<text text-anchor="start" x="92" y="-134.5" font-family="Courier New" font-size="10.00">&#45; SetDefaultState()</text>
</a>
</g>
</g>
<!-- Node2&#45;&gt;Node3 -->
<g id="edge3" class="edge"><title>Node2&#45;&gt;Node3</title>
<path fill="none" stroke="midnightblue" d="M91.8939,-471.11C91.0832,-426.155 93.1762,-349.434 112.5,-287 117.487,-270.886 125.284,-254.513 133.561,-239.721"/>
<polygon fill="none" stroke="midnightblue" points="88.3991,-471.373 92.1375,-481.286 95.3971,-471.205 88.3991,-471.373"/>
</g>
<!-- Node4 -->
<g id="node4" class="node"><title>Node4</title>
<g id="a_node4"><a xlink:href="../../d6/d94/class_c2_m2_1_1_interaction_1_1_u_i_1_1_button_highlight.html" target="_top" xlink:title=" ">
<polygon fill="white" stroke="black" points="122,-287.5 122,-443.5 295,-443.5 295,-287.5 122,-287.5"/>
<text text-anchor="start" x="130" y="-431.5" font-family="Courier New" font-size="10.00">C2M2.Interaction.UI.Button</text>
<text text-anchor="middle" x="208.5" y="-420.5" font-family="Courier New" font-size="10.00">Highlight</text>
<polyline fill="none" stroke="black" points="122,-413.5 295,-413.5 "/>
<text text-anchor="start" x="130" y="-401.5" font-family="Courier New" font-size="10.00">+ defaultImg</text>
<text text-anchor="start" x="130" y="-390.5" font-family="Courier New" font-size="10.00">+ highlightImg</text>
<text text-anchor="start" x="130" y="-379.5" font-family="Courier New" font-size="10.00">+ highlightSeconds</text>
<text text-anchor="start" x="130" y="-368.5" font-family="Courier New" font-size="10.00">&#45; highlighted</text>
<polyline fill="none" stroke="black" points="122,-361.5 295,-361.5 "/>
<text text-anchor="start" x="130" y="-349.5" font-family="Courier New" font-size="10.00">+ Highlight()</text>
<text text-anchor="start" x="130" y="-338.5" font-family="Courier New" font-size="10.00">+ Unhighlight()</text>
<text text-anchor="start" x="130" y="-327.5" font-family="Courier New" font-size="10.00">+ Toggle()</text>
<text text-anchor="start" x="130" y="-316.5" font-family="Courier New" font-size="10.00">+ TimedHighlight()</text>
<text text-anchor="start" x="130" y="-305.5" font-family="Courier New" font-size="10.00">&#45; Awake()</text>
<text text-anchor="start" x="130" y="-294.5" font-family="Courier New" font-size="10.00">&#45; SwitchCoroutine()</text>
</a>
</g>
</g>
<!-- Node2&#45;&gt;Node4 -->
<g id="edge5" class="edge"><title>Node2&#45;&gt;Node4</title>
<path fill="none" stroke="midnightblue" d="M122.424,-473.159C129.754,-464.076 137.915,-453.964 146.21,-443.686"/>
<polygon fill="none" stroke="midnightblue" points="119.503,-471.206 115.946,-481.186 124.95,-475.602 119.503,-471.206"/>
</g>
<!-- Node3&#45;&gt;Node1 -->
<g id="edge2" class="edge"><title>Node3&#45;&gt;Node1</title>
<path fill="none" stroke="#404040" d="M141.234,-127.344C132.897,-111.634 123.927,-94.7284 115.983,-79.7572"/>
<polygon fill="none" stroke="#404040" points="115.761,-79.3377 109.415,-75.9125 110.136,-68.7375 116.482,-72.1627 115.761,-79.3377"/>
<text text-anchor="middle" x="177" y="-101" font-family="Courier New" font-size="10.00"> +vizController</text>
<text text-anchor="middle" x="177" y="-90" font-family="Courier New" font-size="10.00">+colController</text>
</g>
<!-- Node4&#45;&gt;Node3 -->
<g id="edge4" class="edge"><title>Node4&#45;&gt;Node3</title>
<path fill="none" stroke="#404040" d="M192.219,-287.38C189.707,-275.483 187.131,-263.278 184.67,-251.622"/>
<polygon fill="none" stroke="#404040" points="184.634,-251.451 179.481,-246.407 182.155,-239.71 187.309,-244.754 184.634,-251.451"/>
<text text-anchor="middle" x="214" y="-261" font-family="Courier New" font-size="10.00"> +buttons</text>
</g>
</g>
</svg>
