<?xml version="1.0" encoding="UTF-8" standalone="no"?>
<!DOCTYPE svg PUBLIC "-//W3C//DTD SVG 1.1//EN"
 "http://www.w3.org/Graphics/SVG/1.1/DTD/svg11.dtd">
<!-- Generated by graphviz version 2.46.0 (20210118.1747)
 -->
<!-- Title: C2M2.Interaction.UI.ColliderButtonLimiter Pages: 1 -->
<!--zoomable 547 -->
<svg id="main" version="1.1" xmlns="http://www.w3.org/2000/svg" xmlns:xlink="http://www.w3.org/1999/xlink" xml:space="preserve" onload="init(evt)">
<style type="text/css"><![CDATA[
.edge:hover path { stroke: red; }
.edge:hover polygon { stroke: red; fill: red; }
]]></style>
<script type="text/javascript"><![CDATA[
var edges = document.getElementsByTagName('g');
if (edges && edges.length) {
  for (var i=0;i<edges.length;i++) {
    if (edges[i].id.substr(0,4)=='edge') {
      edges[i].setAttribute('class','edge');
    }
  }
}
]]></script>
        <defs>
                <circle id="rim" cx="0" cy="0" r="7"/>
                <circle id="rim2" cx="0" cy="0" r="3.5"/>
                <g id="zoomPlus">
                        <use xlink:href="#rim" fill="#404040">
                                <set attributeName="fill" to="#808080" begin="zoomplus.mouseover" end="zoomplus.mouseout"/>
                        </use>
                        <path d="M-4,0h8M0,-4v8" fill="none" stroke="white" stroke-width="1.5" pointer-events="none"/>
                </g>
                <g id="zoomMin">
                        <use xlink:href="#rim" fill="#404040">
                                <set attributeName="fill" to="#808080" begin="zoomminus.mouseover" end="zoomminus.mouseout"/>
                        </use>
                        <path d="M-4,0h8" fill="none" stroke="white" stroke-width="1.5" pointer-events="none"/>
                </g>
                <g id="dirArrow">
                        <path fill="none" stroke="white" stroke-width="1.5" d="M0,-3.0v7 M-2.5,-0.5L0,-3.0L2.5,-0.5"/>
                </g>
               <g id="resetDef">
                       <use xlink:href="#rim2" fill="#404040">
                               <set attributeName="fill" to="#808080" begin="reset.mouseover" end="reset.mouseout"/>
                       </use>
               </g>
        </defs>

<script type="text/javascript">
var viewWidth = 324;
var viewHeight = 547;
var sectionId = 'dynsection-1';
</script>
<script xlink:href="../../svgpan.js"/>
<svg id="graph" class="graph">
<g id="viewport">
<title>C2M2.Interaction.UI.ColliderButtonLimiter</title>
<polygon fill="white" stroke="transparent" points="-4,4 -4,-543 320,-543 320,4 -4,4"/>
<!-- Node1 -->
<g id="node1" class="node">
<title>Node1</title>
<g id="a_node1"><a xlink:title=" ">
<polygon fill="#bfbfbf" stroke="black" points="0,-0.5 0,-68.5 185,-68.5 185,-0.5 0,-0.5"/>
<text text-anchor="start" x="8" y="-56.5" font-family="Courier New" font-size="10.00">C2M2.Interaction.UI.Collider</text>
<text text-anchor="middle" x="92.5" y="-45.5" font-family="Courier New" font-size="10.00">ButtonLimiter</text>
<polyline fill="none" stroke="black" points="0,-38.5 185,-38.5 "/>
<text text-anchor="middle" x="92.5" y="-26.5" font-family="Courier New" font-size="10.00"> </text>
<polyline fill="none" stroke="black" points="0,-19.5 185,-19.5 "/>
<text text-anchor="start" x="8" y="-7.5" font-family="Courier New" font-size="10.00">&#45; Update()</text>
</a>
</g>
</g>
<!-- Node2 -->
<g id="node2" class="node">
<title>Node2</title>
<g id="a_node2"><a xlink:title=" ">
<polygon fill="white" stroke="#bfbfbf" points="67,-481.5 67,-538.5 162,-538.5 162,-481.5 67,-481.5"/>
<text text-anchor="middle" x="114.5" y="-526.5" font-family="Courier New" font-size="10.00">MonoBehaviour</text>
<polyline fill="none" stroke="#bfbfbf" points="67,-519.5 162,-519.5 "/>
<text text-anchor="middle" x="114.5" y="-507.5" font-family="Courier New" font-size="10.00"> </text>
<polyline fill="none" stroke="#bfbfbf" points="67,-500.5 162,-500.5 "/>
<text text-anchor="middle" x="114.5" y="-488.5" font-family="Courier New" font-size="10.00"> </text>
</a>
</g>
</g>
<!-- Node2&#45;&gt;Node1 -->
<g id="edge1" class="edge">
<title>Node2&#45;&gt;Node1</title>
<path fill="none" stroke="midnightblue" d="M110.26,-471.24C109.99,-468.45 109.73,-465.68 109.5,-463 101.02,-364.06 99.34,-339.23 95.5,-240 93.17,-179.68 92.61,-109.29 92.5,-68.81"/>
<polygon fill="none" stroke="midnightblue" points="106.78,-471.7 111.28,-481.29 113.75,-470.99 106.78,-471.7"/>
</g>
<!-- Node3 -->
<g id="node3" class="node">
<title>Node3</title>
<g id="a_node3"><a xlink:href="../../d1/d90/class_c2_m2_1_1_interaction_1_1_u_i_1_1_button_highlight_manager.html" target="_top" xlink:title=" ">
<polygon fill="white" stroke="black" points="105,-127.5 105,-239.5 278,-239.5 278,-127.5 105,-127.5"/>
<text text-anchor="start" x="113" y="-227.5" font-family="Courier New" font-size="10.00">C2M2.Interaction.UI.Button</text>
<text text-anchor="middle" x="191.5" y="-216.5" font-family="Courier New" font-size="10.00">HighlightManager</text>
<polyline fill="none" stroke="black" points="105,-209.5 278,-209.5 "/>
<text text-anchor="start" x="113" y="-197.5" font-family="Courier New" font-size="10.00">+ activeIndex</text>
<text text-anchor="start" x="113" y="-186.5" font-family="Courier New" font-size="10.00">&#45; buttonLookup</text>
<polyline fill="none" stroke="black" points="105,-179.5 278,-179.5 "/>
<text text-anchor="start" x="113" y="-167.5" font-family="Courier New" font-size="10.00">+ HighlightButton()</text>
<text text-anchor="start" x="113" y="-156.5" font-family="Courier New" font-size="10.00">+ HighlightButton()</text>
<text text-anchor="start" x="113" y="-145.5" font-family="Courier New" font-size="10.00">&#45; Awake()</text>
<text text-anchor="start" x="113" y="-134.5" font-family="Courier New" font-size="10.00">&#45; SetDefaultState()</text>
</a>
</g>
</g>
<!-- Node2&#45;&gt;Node3 -->
<g id="edge3" class="edge">
<title>Node2&#45;&gt;Node3</title>
<path fill="none" stroke="midnightblue" d="M112.89,-471.11C112.08,-426.16 114.18,-349.43 133.5,-287 138.49,-270.89 146.28,-254.51 154.56,-239.72"/>
<polygon fill="none" stroke="midnightblue" points="109.4,-471.37 113.14,-481.29 116.4,-471.21 109.4,-471.37"/>
</g>
<!-- Node4 -->
<g id="node4" class="node">
<title>Node4</title>
<g id="a_node4"><a xlink:href="../../d6/d94/class_c2_m2_1_1_interaction_1_1_u_i_1_1_button_highlight.html" target="_top" xlink:title=" ">
<polygon fill="white" stroke="black" points="143,-287.5 143,-443.5 316,-443.5 316,-287.5 143,-287.5"/>
<text text-anchor="start" x="151" y="-431.5" font-family="Courier New" font-size="10.00">C2M2.Interaction.UI.Button</text>
<text text-anchor="middle" x="229.5" y="-420.5" font-family="Courier New" font-size="10.00">Highlight</text>
<polyline fill="none" stroke="black" points="143,-413.5 316,-413.5 "/>
<text text-anchor="start" x="151" y="-401.5" font-family="Courier New" font-size="10.00">+ defaultImg</text>
<text text-anchor="start" x="151" y="-390.5" font-family="Courier New" font-size="10.00">+ highlightImg</text>
<text text-anchor="start" x="151" y="-379.5" font-family="Courier New" font-size="10.00">+ highlightSeconds</text>
<text text-anchor="start" x="151" y="-368.5" font-family="Courier New" font-size="10.00">&#45; highlighted</text>
<polyline fill="none" stroke="black" points="143,-361.5 316,-361.5 "/>
<text text-anchor="start" x="151" y="-349.5" font-family="Courier New" font-size="10.00">+ Highlight()</text>
<text text-anchor="start" x="151" y="-338.5" font-family="Courier New" font-size="10.00">+ Unhighlight()</text>
<text text-anchor="start" x="151" y="-327.5" font-family="Courier New" font-size="10.00">+ Toggle()</text>
<text text-anchor="start" x="151" y="-316.5" font-family="Courier New" font-size="10.00">+ TimedHighlight()</text>
<text text-anchor="start" x="151" y="-305.5" font-family="Courier New" font-size="10.00">&#45; Awake()</text>
<text text-anchor="start" x="151" y="-294.5" font-family="Courier New" font-size="10.00">&#45; SwitchCoroutine()</text>
</a>
</g>
</g>
<!-- Node2&#45;&gt;Node4 -->
<g id="edge5" class="edge">
<title>Node2&#45;&gt;Node4</title>
<path fill="none" stroke="midnightblue" d="M143.42,-473.16C150.75,-464.08 158.92,-453.96 167.21,-443.69"/>
<polygon fill="none" stroke="midnightblue" points="140.5,-471.21 136.95,-481.19 145.95,-475.6 140.5,-471.21"/>
</g>
<!-- Node3&#45;&gt;Node1 -->
<g id="edge2" class="edge">
<title>Node3&#45;&gt;Node1</title>
<path fill="none" stroke="#404040" d="M154.35,-127.34C143.57,-111.33 131.94,-94.07 121.71,-78.88"/>
<polygon fill="none" stroke="#404040" points="121.59,-78.69 114.92,-75.95 114.88,-68.74 121.55,-71.48 121.59,-78.69"/>
<text text-anchor="middle" x="188" y="-101" font-family="Courier New" font-size="10.00"> +colController</text>
<text text-anchor="middle" x="188" y="-90" font-family="Courier New" font-size="10.00">+vizController</text>
</g>
<!-- Node4&#45;&gt;Node3 -->
<g id="edge4" class="edge">
<title>Node4&#45;&gt;Node3</title>
<path fill="none" stroke="#404040" d="M213.22,-287.38C210.71,-275.48 208.13,-263.28 205.67,-251.62"/>
<polygon fill="none" stroke="#404040" points="205.63,-251.45 200.48,-246.41 203.16,-239.71 208.31,-244.75 205.63,-251.45"/>
<text text-anchor="middle" x="235" y="-261" font-family="Courier New" font-size="10.00"> +buttons</text>
</g>
</g>
</svg>
        <g id="navigator" transform="translate(0 0)" fill="#404254">
                <rect fill="#f2f5e9" fill-opacity="0.5" stroke="#606060" stroke-width=".5" x="0" y="0" width="60" height="60"/>
                <use id="zoomplus" xlink:href="#zoomPlus" x="17" y="9" onmousedown="handleZoom(evt,'in')"/>
                <use id="zoomminus" xlink:href="#zoomMin" x="42" y="9" onmousedown="handleZoom(evt,'out')"/>
                <use id="reset" xlink:href="#resetDef" x="30" y="36" onmousedown="handleReset()"/>
                <g id="arrowUp" xlink:href="#dirArrow" transform="translate(30 24)" onmousedown="handlePan(0,-1)">
                  <use xlink:href="#rim" fill="#404040">
                        <set attributeName="fill" to="#808080" begin="arrowUp.mouseover" end="arrowUp.mouseout"/>
                  </use>
                  <path fill="none" stroke="white" stroke-width="1.5" d="M0,-3.0v7 M-2.5,-0.5L0,-3.0L2.5,-0.5"/>
                </g>
                <g id="arrowRight" xlink:href="#dirArrow" transform="rotate(90) translate(36 -43)" onmousedown="handlePan(1,0)">
                  <use xlink:href="#rim" fill="#404040">
                        <set attributeName="fill" to="#808080" begin="arrowRight.mouseover" end="arrowRight.mouseout"/>
                  </use>
                  <path fill="none" stroke="white" stroke-width="1.5" d="M0,-3.0v7 M-2.5,-0.5L0,-3.0L2.5,-0.5"/>
                </g>
                <g id="arrowDown" xlink:href="#dirArrow" transform="rotate(180) translate(-30 -48)" onmousedown="handlePan(0,1)">
                  <use xlink:href="#rim" fill="#404040">
                        <set attributeName="fill" to="#808080" begin="arrowDown.mouseover" end="arrowDown.mouseout"/>
                  </use>
                  <path fill="none" stroke="white" stroke-width="1.5" d="M0,-3.0v7 M-2.5,-0.5L0,-3.0L2.5,-0.5"/>
                </g>
                <g id="arrowLeft" xlink:href="#dirArrow" transform="rotate(270) translate(-36 17)" onmousedown="handlePan(-1,0)">
                  <use xlink:href="#rim" fill="#404040">
                        <set attributeName="fill" to="#808080" begin="arrowLeft.mouseover" end="arrowLeft.mouseout"/>
                  </use>
                  <path fill="none" stroke="white" stroke-width="1.5" d="M0,-3.0v7 M-2.5,-0.5L0,-3.0L2.5,-0.5"/>
                </g>
        </g>
        <svg viewBox="0 0 15 15" width="100%" height="30px" preserveAspectRatio="xMaxYMin meet">
         <g id="arrow_out" transform="scale(0.3 0.3)">
          <a xlink:href="class_c2_m2_1_1_interaction_1_1_u_i_1_1_collider_button_limiter__coll__graph_org.svg" target="_base">
           <rect id="button" ry="5" rx="5" y="6" x="6" height="38" width="38"
                fill="#f2f5e9" fill-opacity="0.5" stroke="#606060" stroke-width="1.0"/>
           <path id="arrow"
             d="M 11.500037,31.436501 C 11.940474,20.09759 22.043105,11.32322 32.158766,21.979434 L 37.068811,17.246167 C 37.068811,17.246167 37.088388,32 37.088388,32 L 22.160133,31.978069 C 22.160133,31.978069 26.997745,27.140456 26.997745,27.140456 C 18.528582,18.264221 13.291696,25.230495 11.500037,31.436501 z"
             style="fill:#404040;"/>
          </a>
         </g>
        </svg>
</svg>
