<?xml version="1.0" encoding="UTF-8" standalone="no"?>
<!DOCTYPE svg PUBLIC "-//W3C//DTD SVG 1.1//EN"
 "http://www.w3.org/Graphics/SVG/1.1/DTD/svg11.dtd">
<!-- Generated by graphviz version 2.38.0 (20140413.2041)
 -->
<!-- Title: C2M2.Utils.DebugUtils.FPSCounter Pages: 1 -->
<svg width="249pt" height="314pt"
 viewBox="0.00 0.00 248.50 314.00" xmlns="http://www.w3.org/2000/svg" xmlns:xlink="http://www.w3.org/1999/xlink">
<g id="graph0" class="graph" transform="scale(1 1) rotate(0) translate(4 310)">
<title>C2M2.Utils.DebugUtils.FPSCounter</title>
<polygon fill="white" stroke="none" points="-4,4 -4,-310 244.5,-310 244.5,4 -4,4"/>
<!-- Node1 -->
<g id="node1" class="node"><title>Node1</title>
<g id="a_node1"><a xlink:title="Records and stores frame rendering time data over multiple seconds">
<polygon fill="#bfbfbf" stroke="black" points="0,-0.5 0,-189.5 209,-189.5 209,-0.5 0,-0.5"/>
<text text-anchor="middle" x="104.5" y="-177.5" font-family="Courier New" font-size="10.00">C2M2.Utils.DebugUtils.FPSCounter</text>
<polyline fill="none" stroke="black" points="0,-170.5 209,-170.5 "/>
<text text-anchor="start" x="8" y="-158.5" font-family="Courier New" font-size="10.00">+ sampleSize</text>
<text text-anchor="start" x="8" y="-147.5" font-family="Courier New" font-size="10.00">+ avg</text>
<text text-anchor="start" x="8" y="-136.5" font-family="Courier New" font-size="10.00">+ high</text>
<text text-anchor="start" x="8" y="-125.5" font-family="Courier New" font-size="10.00">+ low</text>
<text text-anchor="start" x="8" y="-114.5" font-family="Courier New" font-size="10.00">+ highStr</text>
<text text-anchor="start" x="8" y="-103.5" font-family="Courier New" font-size="10.00">+ avgStr</text>
<text text-anchor="start" x="8" y="-92.5" font-family="Courier New" font-size="10.00">+ lowStr</text>
<text text-anchor="start" x="8" y="-81.5" font-family="Courier New" font-size="10.00">&#45; fpsBuffer</text>
<text text-anchor="start" x="8" y="-70.5" font-family="Courier New" font-size="10.00">&#45; fpsBufferIndex</text>
<polyline fill="none" stroke="black" points="0,-63.5 209,-63.5 "/>
<text text-anchor="start" x="8" y="-51.5" font-family="Courier New" font-size="10.00">+ ToString()</text>
<text text-anchor="start" x="8" y="-40.5" font-family="Courier New" font-size="10.00">&#45; Update()</text>
<text text-anchor="start" x="8" y="-29.5" font-family="Courier New" font-size="10.00">&#45; InitializeBuffer()</text>
<text text-anchor="start" x="8" y="-18.5" font-family="Courier New" font-size="10.00">&#45; UpdateBuffer()</text>
<text text-anchor="start" x="8" y="-7.5" font-family="Courier New" font-size="10.00">&#45; CalculateFPS()</text>
</a>
</g>
</g>
<!-- Node2 -->
<g id="node2" class="node"><title>Node2</title>
<g id="a_node2"><a xlink:title=" ">
<polygon fill="white" stroke="#bfbfbf" points="11,-248.5 11,-305.5 106,-305.5 106,-248.5 11,-248.5"/>
<text text-anchor="middle" x="58.5" y="-293.5" font-family="Courier New" font-size="10.00">MonoBehaviour</text>
<polyline fill="none" stroke="#bfbfbf" points="11,-286.5 106,-286.5 "/>
<text text-anchor="middle" x="58.5" y="-274.5" font-family="Courier New" font-size="10.00"> </text>
<polyline fill="none" stroke="#bfbfbf" points="11,-267.5 106,-267.5 "/>
<text text-anchor="middle" x="58.5" y="-255.5" font-family="Courier New" font-size="10.00"> </text>
</a>
</g>
</g>
<!-- Node2&#45;&gt;Node1 -->
<g id="edge1" class="edge"><title>Node2&#45;&gt;Node1</title>
<path fill="none" stroke="midnightblue" d="M68.1198,-238.357C71.7795,-224.037 76.1322,-207.004 80.5322,-189.787"/>
<polygon fill="none" stroke="midnightblue" points="64.6717,-237.714 65.5867,-248.269 71.4538,-239.447 64.6717,-237.714"/>
</g>
<!-- Node3 -->
<g id="node3" class="node"><title>Node3</title>
<g id="a_node3"><a xlink:title=" ">
<polygon fill="white" stroke="#bfbfbf" points="124,-248.5 124,-305.5 177,-305.5 177,-248.5 124,-248.5"/>
<text text-anchor="middle" x="150.5" y="-293.5" font-family="Courier New" font-size="10.00">static</text>
<polyline fill="none" stroke="#bfbfbf" points="124,-286.5 177,-286.5 "/>
<text text-anchor="middle" x="150.5" y="-274.5" font-family="Courier New" font-size="10.00"> </text>
<polyline fill="none" stroke="#bfbfbf" points="124,-267.5 177,-267.5 "/>
<text text-anchor="middle" x="150.5" y="-255.5" font-family="Courier New" font-size="10.00"> </text>
</a>
</g>
</g>
<!-- Node3&#45;&gt;Node1 -->
<g id="edge2" class="edge"><title>Node3&#45;&gt;Node1</title>
<path fill="none" stroke="#404040" d="M143.413,-248.269C140.096,-235.289 135.913,-218.919 131.528,-201.76"/>
<polygon fill="none" stroke="#404040" points="131.439,-201.414 126.078,-196.591 128.468,-189.787 133.829,-194.61 131.439,-201.414"/>
<text text-anchor="middle" x="189" y="-222" font-family="Courier New" font-size="10.00"> &#45;formatString</text>
<text text-anchor="middle" x="189" y="-211" font-family="Courier New" font-size="10.00">&#45;staticNumStrings</text>
</g>
</g>
</svg>
