<?xml version="1.0" encoding="UTF-8" standalone="no"?>
<!DOCTYPE svg PUBLIC "-//W3C//DTD SVG 1.1//EN"
 "http://www.w3.org/Graphics/SVG/1.1/DTD/svg11.dtd">
<!-- Generated by graphviz version 2.38.0 (20140413.2041)
 -->
<!-- Title: C2M2.Utils.DebugUtils.FPSCounter Pages: 1 -->
<svg width="249pt" height="325pt"
 viewBox="0.00 0.00 248.50 325.00" xmlns="http://www.w3.org/2000/svg" xmlns:xlink="http://www.w3.org/1999/xlink">
<g id="graph0" class="graph" transform="scale(1 1) rotate(0) translate(4 321)">
<title>C2M2.Utils.DebugUtils.FPSCounter</title>
<polygon fill="white" stroke="none" points="-4,4 -4,-321 244.5,-321 244.5,4 -4,4"/>
<!-- Node1 -->
<g id="node1" class="node"><title>Node1</title>
<g id="a_node1"><a xlink:title=" ">
<polygon fill="#bfbfbf" stroke="black" points="0,-0.5 0,-200.5 209,-200.5 209,-0.5 0,-0.5"/>
<text text-anchor="middle" x="104.5" y="-188.5" font-family="Courier New" font-size="10.00">C2M2.Utils.DebugUtils.FPSCounter</text>
<polyline fill="none" stroke="black" points="0,-181.5 209,-181.5 "/>
<text text-anchor="start" x="8" y="-169.5" font-family="Courier New" font-size="10.00">+ sampleSize</text>
<text text-anchor="start" x="8" y="-158.5" font-family="Courier New" font-size="10.00">+ AverageFPS</text>
<text text-anchor="start" x="8" y="-147.5" font-family="Courier New" font-size="10.00">+ HighestFPS</text>
<text text-anchor="start" x="8" y="-136.5" font-family="Courier New" font-size="10.00">+ LowestFPS</text>
<text text-anchor="start" x="8" y="-125.5" font-family="Courier New" font-size="10.00">+ averageFPSString</text>
<text text-anchor="start" x="8" y="-114.5" font-family="Courier New" font-size="10.00">+ highestFPSString</text>
<text text-anchor="start" x="8" y="-103.5" font-family="Courier New" font-size="10.00">+ lowestFPSString</text>
<text text-anchor="start" x="8" y="-92.5" font-family="Courier New" font-size="10.00">&#45; fpsBuffer</text>
<text text-anchor="start" x="8" y="-81.5" font-family="Courier New" font-size="10.00">&#45; fpsBufferIndex</text>
<polyline fill="none" stroke="black" points="0,-74.5 209,-74.5 "/>
<text text-anchor="start" x="8" y="-62.5" font-family="Courier New" font-size="10.00">+ ToString()</text>
<text text-anchor="start" x="8" y="-51.5" font-family="Courier New" font-size="10.00">&#45; Update()</text>
<text text-anchor="start" x="8" y="-40.5" font-family="Courier New" font-size="10.00">&#45; InitializeBuffer()</text>
<text text-anchor="start" x="8" y="-29.5" font-family="Courier New" font-size="10.00">&#45; UpdateBuffer()</text>
<text text-anchor="start" x="8" y="-18.5" font-family="Courier New" font-size="10.00">&#45; CalculateFPS()</text>
<text text-anchor="start" x="8" y="-7.5" font-family="Courier New" font-size="10.00">&#45; UpdateTexts()</text>
</a>
</g>
</g>
<!-- Node2 -->
<g id="node2" class="node"><title>Node2</title>
<g id="a_node2"><a xlink:title=" ">
<polygon fill="white" stroke="#bfbfbf" points="11,-259.5 11,-316.5 106,-316.5 106,-259.5 11,-259.5"/>
<text text-anchor="middle" x="58.5" y="-304.5" font-family="Courier New" font-size="10.00">MonoBehaviour</text>
<polyline fill="none" stroke="#bfbfbf" points="11,-297.5 106,-297.5 "/>
<text text-anchor="middle" x="58.5" y="-285.5" font-family="Courier New" font-size="10.00"> </text>
<polyline fill="none" stroke="#bfbfbf" points="11,-278.5 106,-278.5 "/>
<text text-anchor="middle" x="58.5" y="-266.5" font-family="Courier New" font-size="10.00"> </text>
</a>
</g>
</g>
<!-- Node2&#45;&gt;Node1 -->
<g id="edge1" class="edge"><title>Node2&#45;&gt;Node1</title>
<path fill="none" stroke="midnightblue" d="M67.8449,-249.316C71.3982,-234.987 75.6331,-217.909 79.9413,-200.536"/>
<polygon fill="none" stroke="midnightblue" points="64.3965,-248.68 65.3867,-259.229 71.1907,-250.365 64.3965,-248.68"/>
</g>
<!-- Node3 -->
<g id="node3" class="node"><title>Node3</title>
<g id="a_node3"><a xlink:title=" ">
<polygon fill="white" stroke="#bfbfbf" points="124,-259.5 124,-316.5 177,-316.5 177,-259.5 124,-259.5"/>
<text text-anchor="middle" x="150.5" y="-304.5" font-family="Courier New" font-size="10.00">static</text>
<polyline fill="none" stroke="#bfbfbf" points="124,-297.5 177,-297.5 "/>
<text text-anchor="middle" x="150.5" y="-285.5" font-family="Courier New" font-size="10.00"> </text>
<polyline fill="none" stroke="#bfbfbf" points="124,-278.5 177,-278.5 "/>
<text text-anchor="middle" x="150.5" y="-266.5" font-family="Courier New" font-size="10.00"> </text>
</a>
</g>
</g>
<!-- Node3&#45;&gt;Node1 -->
<g id="edge2" class="edge"><title>Node3&#45;&gt;Node1</title>
<path fill="none" stroke="#404040" d="M143.613,-259.229C140.396,-246.254 136.333,-229.869 132.051,-212.601"/>
<polygon fill="none" stroke="#404040" points="131.947,-212.183 126.621,-207.322 129.059,-200.536 134.385,-205.397 131.947,-212.183"/>
<text text-anchor="middle" x="189" y="-233" font-family="Courier New" font-size="10.00"> &#45;formatString</text>
<text text-anchor="middle" x="189" y="-222" font-family="Courier New" font-size="10.00">&#45;staticNumStrings</text>
</g>
</g>
</svg>
