<?xml version="1.0" encoding="UTF-8" standalone="no"?>
<!DOCTYPE svg PUBLIC "-//W3C//DTD SVG 1.1//EN"
 "http://www.w3.org/Graphics/SVG/1.1/DTD/svg11.dtd">
<!-- Generated by graphviz version 2.38.0 (20140413.2041)
 -->
<!-- Title: C2M2.NeuronalDynamics.Visualization.Neuron1D Pages: 1 -->
<svg width="241pt" height="248pt"
 viewBox="0.00 0.00 241.00 248.00" xmlns="http://www.w3.org/2000/svg" xmlns:xlink="http://www.w3.org/1999/xlink">
<g id="graph0" class="graph" transform="scale(1 1) rotate(0) translate(4 244)">
<title>C2M2.NeuronalDynamics.Visualization.Neuron1D</title>
<polygon fill="white" stroke="none" points="-4,4 -4,-244 237,-244 237,4 -4,4"/>
<!-- Node1 -->
<g id="node1" class="node"><title>Node1</title>
<g id="a_node1"><a xlink:title="Read in a map associating 1D neuron vertices to 3D mesh vertices.">
<polygon fill="#bfbfbf" stroke="black" points="0,-0.5 0,-145.5 233,-145.5 233,-0.5 0,-0.5"/>
<text text-anchor="start" x="8" y="-133.5" font-family="Courier New" font-size="10.00">C2M2.NeuronalDynamics.Visualization.</text>
<text text-anchor="middle" x="116.5" y="-122.5" font-family="Courier New" font-size="10.00">Neuron1D</text>
<polyline fill="none" stroke="black" points="0,-115.5 233,-115.5 "/>
<text text-anchor="start" x="8" y="-103.5" font-family="Courier New" font-size="10.00">+ objFilePath</text>
<text text-anchor="start" x="8" y="-92.5" font-family="Courier New" font-size="10.00">+ mapPath</text>
<text text-anchor="start" x="8" y="-81.5" font-family="Courier New" font-size="10.00">+ gradient</text>
<text text-anchor="start" x="8" y="-70.5" font-family="Courier New" font-size="10.00">+ vertMap</text>
<text text-anchor="start" x="8" y="-59.5" font-family="Courier New" font-size="10.00">&#45; meshFilter3D</text>
<polyline fill="none" stroke="black" points="0,-52.5 233,-52.5 "/>
<text text-anchor="start" x="8" y="-40.5" font-family="Courier New" font-size="10.00">+ Start()</text>
<text text-anchor="start" x="8" y="-29.5" font-family="Courier New" font-size="10.00">&#45; Awake()</text>
<text text-anchor="start" x="8" y="-18.5" font-family="Courier New" font-size="10.00">&#45; TestSimulation()</text>
<text text-anchor="start" x="8" y="-7.5" font-family="Courier New" font-size="10.00">&#45; EvaluateColors32()</text>
</a>
</g>
</g>
<!-- Node2 -->
<g id="node2" class="node"><title>Node2</title>
<g id="a_node2"><a xlink:title=" ">
<polygon fill="white" stroke="#bfbfbf" points="69,-182.5 69,-239.5 164,-239.5 164,-182.5 69,-182.5"/>
<text text-anchor="middle" x="116.5" y="-227.5" font-family="Courier New" font-size="10.00">MonoBehaviour</text>
<polyline fill="none" stroke="#bfbfbf" points="69,-220.5 164,-220.5 "/>
<text text-anchor="middle" x="116.5" y="-208.5" font-family="Courier New" font-size="10.00"> </text>
<polyline fill="none" stroke="#bfbfbf" points="69,-201.5 164,-201.5 "/>
<text text-anchor="middle" x="116.5" y="-189.5" font-family="Courier New" font-size="10.00"> </text>
</a>
</g>
</g>
<!-- Node2&#45;&gt;Node1 -->
<g id="edge1" class="edge"><title>Node2&#45;&gt;Node1</title>
<path fill="none" stroke="midnightblue" d="M116.5,-172.356C116.5,-163.999 116.5,-154.872 116.5,-145.656"/>
<polygon fill="none" stroke="midnightblue" points="113,-172.478 116.5,-182.478 120,-172.478 113,-172.478"/>
</g>
</g>
</svg>
