<?xml version="1.0" encoding="UTF-8" standalone="no"?>
<!DOCTYPE svg PUBLIC "-//W3C//DTD SVG 1.1//EN"
 "http://www.w3.org/Graphics/SVG/1.1/DTD/svg11.dtd">
<!-- Generated by graphviz version 2.38.0 (20140413.2041)
 -->
<!-- Title: VRScrollbar Pages: 1 -->
<svg width="103pt" height="171pt"
 viewBox="0.00 0.00 103.00 171.00" xmlns="http://www.w3.org/2000/svg" xmlns:xlink="http://www.w3.org/1999/xlink">
<g id="graph0" class="graph" transform="scale(1 1) rotate(0) translate(4 167)">
<title>VRScrollbar</title>
<polygon fill="white" stroke="none" points="-4,4 -4,-167 99,-167 99,4 -4,4"/>
<!-- Node1 -->
<g id="node1" class="node"><title>Node1</title>
<g id="a_node1"><a xlink:title=" ">
<polygon fill="#bfbfbf" stroke="black" points="6,-0.5 6,-68.5 89,-68.5 89,-0.5 6,-0.5"/>
<text text-anchor="middle" x="47.5" y="-56.5" font-family="Courier New" font-size="10.00">VRScrollbar</text>
<polyline fill="none" stroke="black" points="6,-49.5 89,-49.5 "/>
<text text-anchor="start" x="14" y="-37.5" font-family="Courier New" font-size="10.00">&#45; info</text>
<polyline fill="none" stroke="black" points="6,-30.5 89,-30.5 "/>
<text text-anchor="start" x="14" y="-18.5" font-family="Courier New" font-size="10.00">&#45; Start()</text>
<text text-anchor="start" x="14" y="-7.5" font-family="Courier New" font-size="10.00">&#45; Update()</text>
</a>
</g>
</g>
<!-- Node2 -->
<g id="node2" class="node"><title>Node2</title>
<g id="a_node2"><a xlink:title=" ">
<polygon fill="white" stroke="#bfbfbf" points="0,-105.5 0,-162.5 95,-162.5 95,-105.5 0,-105.5"/>
<text text-anchor="middle" x="47.5" y="-150.5" font-family="Courier New" font-size="10.00">MonoBehaviour</text>
<polyline fill="none" stroke="#bfbfbf" points="0,-143.5 95,-143.5 "/>
<text text-anchor="middle" x="47.5" y="-131.5" font-family="Courier New" font-size="10.00"> </text>
<polyline fill="none" stroke="#bfbfbf" points="0,-124.5 95,-124.5 "/>
<text text-anchor="middle" x="47.5" y="-112.5" font-family="Courier New" font-size="10.00"> </text>
</a>
</g>
</g>
<!-- Node2&#45;&gt;Node1 -->
<g id="edge1" class="edge"><title>Node2&#45;&gt;Node1</title>
<path fill="none" stroke="midnightblue" d="M47.5,-95.0631C47.5,-86.3933 47.5,-77.2431 47.5,-68.7855"/>
<polygon fill="none" stroke="midnightblue" points="44.0001,-95.3212 47.5,-105.321 51.0001,-95.3212 44.0001,-95.3212"/>
</g>
</g>
</svg>
