<?xml version="1.0" encoding="UTF-8" standalone="no"?>
<!DOCTYPE svg PUBLIC "-//W3C//DTD SVG 1.1//EN"
 "http://www.w3.org/Graphics/SVG/1.1/DTD/svg11.dtd">
<!-- Generated by graphviz version 2.38.0 (20140413.2041)
 -->
<!-- Title: C2M2.Utils.DebugUtils.Actions.TransformResetter Pages: 1 -->
<svg width="205pt" height="237pt"
 viewBox="0.00 0.00 205.00 237.00" xmlns="http://www.w3.org/2000/svg" xmlns:xlink="http://www.w3.org/1999/xlink">
<g id="graph0" class="graph" transform="scale(1 1) rotate(0) translate(4 233)">
<title>C2M2.Utils.DebugUtils.Actions.TransformResetter</title>
<polygon fill="white" stroke="none" points="-4,4 -4,-233 201,-233 201,4 -4,4"/>
<!-- Node1 -->
<g id="node1" class="node"><title>Node1</title>
<g id="a_node1"><a xlink:title="This resets the position, rotation of the object it&#39;s attached to at &quot;startFrame&quot;.">
<polygon fill="#bfbfbf" stroke="black" points="0,-0.5 0,-134.5 197,-134.5 197,-0.5 0,-0.5"/>
<text text-anchor="start" x="8" y="-122.5" font-family="Courier New" font-size="10.00">C2M2.Utils.DebugUtils.Actions.</text>
<text text-anchor="middle" x="98.5" y="-111.5" font-family="Courier New" font-size="10.00">TransformResetter</text>
<polyline fill="none" stroke="black" points="0,-104.5 197,-104.5 "/>
<text text-anchor="start" x="8" y="-92.5" font-family="Courier New" font-size="10.00">+ position</text>
<text text-anchor="start" x="8" y="-81.5" font-family="Courier New" font-size="10.00">+ rotation</text>
<text text-anchor="start" x="8" y="-70.5" font-family="Courier New" font-size="10.00">+ targetFrame</text>
<text text-anchor="start" x="8" y="-59.5" font-family="Courier New" font-size="10.00">&#45; maxFrame</text>
<polyline fill="none" stroke="black" points="0,-52.5 197,-52.5 "/>
<text text-anchor="start" x="8" y="-40.5" font-family="Courier New" font-size="10.00">&#45; Awake()</text>
<text text-anchor="start" x="8" y="-29.5" font-family="Courier New" font-size="10.00">&#45; Start()</text>
<text text-anchor="start" x="8" y="-18.5" font-family="Courier New" font-size="10.00">&#45; Update()</text>
<text text-anchor="start" x="8" y="-7.5" font-family="Courier New" font-size="10.00">&#45; ResetPosition()</text>
</a>
</g>
</g>
<!-- Node2 -->
<g id="node2" class="node"><title>Node2</title>
<g id="a_node2"><a xlink:title=" ">
<polygon fill="white" stroke="#bfbfbf" points="51,-171.5 51,-228.5 146,-228.5 146,-171.5 51,-171.5"/>
<text text-anchor="middle" x="98.5" y="-216.5" font-family="Courier New" font-size="10.00">MonoBehaviour</text>
<polyline fill="none" stroke="#bfbfbf" points="51,-209.5 146,-209.5 "/>
<text text-anchor="middle" x="98.5" y="-197.5" font-family="Courier New" font-size="10.00"> </text>
<polyline fill="none" stroke="#bfbfbf" points="51,-190.5 146,-190.5 "/>
<text text-anchor="middle" x="98.5" y="-178.5" font-family="Courier New" font-size="10.00"> </text>
</a>
</g>
</g>
<!-- Node2&#45;&gt;Node1 -->
<g id="edge1" class="edge"><title>Node2&#45;&gt;Node1</title>
<path fill="none" stroke="midnightblue" d="M98.5,-161.16C98.5,-152.782 98.5,-143.668 98.5,-134.533"/>
<polygon fill="none" stroke="midnightblue" points="95.0001,-161.324 98.5,-171.324 102,-161.324 95.0001,-161.324"/>
</g>
</g>
</svg>
