<?xml version="1.0" encoding="UTF-8" standalone="no"?>
<!DOCTYPE svg PUBLIC "-//W3C//DTD SVG 1.1//EN"
 "http://www.w3.org/Graphics/SVG/1.1/DTD/svg11.dtd">
<!-- Generated by graphviz version 2.38.0 (20140413.2041)
 -->
<!-- Title: C2M2.Interaction.RaycastEventManager Pages: 1 -->
<!--zoomable 657 -->
<svg id="main" version="1.1" xmlns="http://www.w3.org/2000/svg" xmlns:xlink="http://www.w3.org/1999/xlink" xml:space="preserve" onload="init(evt)">
<style type="text/css"><![CDATA[
.edge:hover path { stroke: red; }
.edge:hover polygon { stroke: red; fill: red; }
]]></style>
<script type="text/javascript"><![CDATA[
var edges = document.getElementsByTagName('g');
if (edges && edges.length) {
  for (var i=0;i<edges.length;i++) {
    if (edges[i].id.substr(0,4)=='edge') {
      edges[i].setAttribute('class','edge');
    }
  }
}
]]></script>
        <defs>
                <circle id="rim" cx="0" cy="0" r="7"/>
                <circle id="rim2" cx="0" cy="0" r="3.5"/>
                <g id="zoomPlus">
                        <use xlink:href="#rim" fill="#404040">
                                <set attributeName="fill" to="#808080" begin="zoomplus.mouseover" end="zoomplus.mouseout"/>
                        </use>
                        <path d="M-4,0h8M0,-4v8" fill="none" stroke="white" stroke-width="1.5" pointer-events="none"/>
                </g>
                <g id="zoomMin">
                        <use xlink:href="#rim" fill="#404040">
                                <set attributeName="fill" to="#808080" begin="zoomminus.mouseover" end="zoomminus.mouseout"/>
                        </use>
                        <path d="M-4,0h8" fill="none" stroke="white" stroke-width="1.5" pointer-events="none"/>
                </g>
                <g id="dirArrow">
                        <path fill="none" stroke="white" stroke-width="1.5" d="M0,-3.0v7 M-2.5,-0.5L0,-3.0L2.5,-0.5"/>
                </g>
               <g id="resetDef">
                       <use xlink:href="#rim2" fill="#404040">
                               <set attributeName="fill" to="#808080" begin="reset.mouseover" end="reset.mouseout"/>
                       </use>
               </g>
        </defs>

<script type="text/javascript">
var viewWidth = 318;
var viewHeight = 657;
var sectionId = 'dynsection-1';
</script>
<script xlink:href="../../svgpan.js"/>
<svg id="graph" class="graph">
<g id="viewport">
<title>C2M2.Interaction.RaycastEventManager</title>
<polygon fill="white" stroke="none" points="-4,4 -4,-653 313.5,-653 313.5,4 -4,4"/>
<!-- Node1 -->
<g id="node1" class="node"><title>Node1</title>
<g id="a_node1"><a xlink:title="Attach this script to parent gameObject, create one child with one raycast trigger per child....">
<polygon fill="#bfbfbf" stroke="black" points="76,-0.5 76,-233.5 237,-233.5 237,-0.5 76,-0.5"/>
<text text-anchor="start" x="84" y="-221.5" font-family="Courier New" font-size="10.00">C2M2.Interaction.Raycast</text>
<text text-anchor="middle" x="156.5" y="-210.5" font-family="Courier New" font-size="10.00">EventManager</text>
<polyline fill="none" stroke="black" points="76,-203.5 237,-203.5 "/>
<text text-anchor="middle" x="156.5" y="-191.5" font-family="Courier New" font-size="10.00"> </text>
<polyline fill="none" stroke="black" points="76,-184.5 237,-184.5 "/>
<text text-anchor="start" x="84" y="-172.5" font-family="Courier New" font-size="10.00">+ TriggerChangeRight()</text>
<text text-anchor="start" x="84" y="-161.5" font-family="Courier New" font-size="10.00">+ TriggerChangeLeft()</text>
<text text-anchor="start" x="84" y="-150.5" font-family="Courier New" font-size="10.00">+ TriggerChangeBoth()</text>
<text text-anchor="start" x="84" y="-139.5" font-family="Courier New" font-size="10.00">+ TriggerEmptyRight()</text>
<text text-anchor="start" x="84" y="-128.5" font-family="Courier New" font-size="10.00">+ TriggerEmptyLeft()</text>
<text text-anchor="start" x="84" y="-117.5" font-family="Courier New" font-size="10.00">+ TriggerEmptyBoth()</text>
<text text-anchor="start" x="84" y="-106.5" font-family="Courier New" font-size="10.00">+ PressEvent()</text>
<text text-anchor="start" x="84" y="-95.5" font-family="Courier New" font-size="10.00">+ HoldEvent()</text>
<text text-anchor="start" x="84" y="-84.5" font-family="Courier New" font-size="10.00">+ EndEvent()</text>
<text text-anchor="start" x="84" y="-73.5" font-family="Courier New" font-size="10.00">+ AllEvents()</text>
<text text-anchor="start" x="84" y="-62.5" font-family="Courier New" font-size="10.00">+ PressEventNull()</text>
<text text-anchor="start" x="84" y="-51.5" font-family="Courier New" font-size="10.00">+ HoldEventNull()</text>
<text text-anchor="start" x="84" y="-40.5" font-family="Courier New" font-size="10.00">+ EndEventNull()</text>
<text text-anchor="start" x="84" y="-29.5" font-family="Courier New" font-size="10.00">+ AllEventsNull()</text>
<text text-anchor="start" x="84" y="-18.5" font-family="Courier New" font-size="10.00">+ ToString()</text>
<text text-anchor="start" x="84" y="-7.5" font-family="Courier New" font-size="10.00">&#45; Awake()</text>
</a>
</g>
</g>
<!-- Node2 -->
<g id="node2" class="node"><title>Node2</title>
<g id="a_node2"><a xlink:title=" ">
<polygon fill="white" stroke="#bfbfbf" points="0,-491 0,-548 95,-548 95,-491 0,-491"/>
<text text-anchor="middle" x="47.5" y="-536" font-family="Courier New" font-size="10.00">MonoBehaviour</text>
<polyline fill="none" stroke="#bfbfbf" points="0,-529 95,-529 "/>
<text text-anchor="middle" x="47.5" y="-517" font-family="Courier New" font-size="10.00"> </text>
<polyline fill="none" stroke="#bfbfbf" points="0,-510 95,-510 "/>
<text text-anchor="middle" x="47.5" y="-498" font-family="Courier New" font-size="10.00"> </text>
</a>
</g>
</g>
<!-- Node2&#45;&gt;Node1 -->
<g id="edge1" class="edge"><title>Node2&#45;&gt;Node1</title>
<path fill="none" stroke="midnightblue" d="M46.7183,-480.555C46.7592,-436.921 49.7269,-363.521 66.5,-303 72.9151,-279.853 82.1706,-256.1 92.3314,-233.658"/>
<polygon fill="none" stroke="midnightblue" points="43.2189,-480.732 46.7618,-490.717 50.2189,-480.702 43.2189,-480.732"/>
</g>
<!-- Node4 -->
<g id="node4" class="node"><title>Node4</title>
<g id="a_node4"><a xlink:href="../../d8/d68/class_c2_m2_1_1_interaction_1_1_raycast_press_events.html" target="_top" xlink:title="Store custom events that the corresponding RaycastTriggerManager will invoke">
<polygon fill="white" stroke="black" points="76,-303.5 76,-415.5 237,-415.5 237,-303.5 76,-303.5"/>
<text text-anchor="start" x="84" y="-403.5" font-family="Courier New" font-size="10.00">C2M2.Interaction.Raycast</text>
<text text-anchor="middle" x="156.5" y="-392.5" font-family="Courier New" font-size="10.00">PressEvents</text>
<polyline fill="none" stroke="black" points="76,-385.5 237,-385.5 "/>
<text text-anchor="start" x="84" y="-373.5" font-family="Courier New" font-size="10.00">+ OnPress</text>
<text text-anchor="start" x="84" y="-362.5" font-family="Courier New" font-size="10.00">+ OnHoldPress</text>
<text text-anchor="start" x="84" y="-351.5" font-family="Courier New" font-size="10.00">+ OnEndPress</text>
<polyline fill="none" stroke="black" points="76,-344.5 237,-344.5 "/>
<text text-anchor="start" x="84" y="-332.5" font-family="Courier New" font-size="10.00">+ Press()</text>
<text text-anchor="start" x="84" y="-321.5" font-family="Courier New" font-size="10.00">+ HoldPress()</text>
<text text-anchor="start" x="84" y="-310.5" font-family="Courier New" font-size="10.00">+ EndPress()</text>
</a>
</g>
</g>
<!-- Node2&#45;&gt;Node4 -->
<g id="edge4" class="edge"><title>Node2&#45;&gt;Node4</title>
<path fill="none" stroke="midnightblue" d="M72.301,-482.55C85.9698,-462.736 103.227,-437.722 118.554,-415.504"/>
<polygon fill="none" stroke="midnightblue" points="69.284,-480.76 66.4864,-490.979 75.0459,-484.735 69.284,-480.76"/>
</g>
<!-- Node3 -->
<g id="node3" class="node"><title>Node3</title>
<g id="a_node3"><a xlink:title=" ">
<polygon fill="white" stroke="#bfbfbf" points="255,-331 255,-388 308,-388 308,-331 255,-331"/>
<text text-anchor="middle" x="281.5" y="-376" font-family="Courier New" font-size="10.00">static</text>
<polyline fill="none" stroke="#bfbfbf" points="255,-369 308,-369 "/>
<text text-anchor="middle" x="281.5" y="-357" font-family="Courier New" font-size="10.00"> </text>
<polyline fill="none" stroke="#bfbfbf" points="255,-350 308,-350 "/>
<text text-anchor="middle" x="281.5" y="-338" font-family="Courier New" font-size="10.00"> </text>
</a>
</g>
</g>
<!-- Node3&#45;&gt;Node1 -->
<g id="edge2" class="edge"><title>Node3&#45;&gt;Node1</title>
<path fill="none" stroke="#404040" d="M272.109,-330.774C264.346,-308.928 252.515,-277.936 239.5,-252 238.278,-249.566 237.026,-247.118 235.748,-244.662"/>
<polygon fill="none" stroke="#404040" points="235.631,-244.443 229.279,-241.029 229.988,-233.852 236.34,-237.266 235.631,-244.443"/>
<text text-anchor="middle" x="282" y="-266" font-family="Courier New" font-size="10.00"> &#45;nullHit</text>
</g>
<!-- Node4&#45;&gt;Node1 -->
<g id="edge3" class="edge"><title>Node4&#45;&gt;Node1</title>
<path fill="none" stroke="#404040" d="M156.5,-303.324C156.5,-286.017 156.5,-266.135 156.5,-245.963"/>
<polygon fill="none" stroke="#404040" points="156.5,-245.729 152.5,-239.729 156.5,-233.729 160.5,-239.729 156.5,-245.729"/>
<text text-anchor="middle" x="196" y="-277" font-family="Courier New" font-size="10.00"> +leftTrigger</text>
<text text-anchor="middle" x="196" y="-266" font-family="Courier New" font-size="10.00">+rightTrigger</text>
<text text-anchor="middle" x="196" y="-255" font-family="Courier New" font-size="10.00">&#45;emptyTrigger</text>
</g>
<!-- Node5 -->
<g id="node5" class="node"><title>Node5</title>
<g id="a_node5"><a xlink:href="../../d2/d43/class_c2_m2_1_1_interaction_1_1_raycast_press_events_1_1_raycast_hit_event.html" target="_top" xlink:title=" ">
<polygon fill="white" stroke="black" points="113,-485.5 113,-553.5 292,-553.5 292,-485.5 113,-485.5"/>
<text text-anchor="start" x="121" y="-541.5" font-family="Courier New" font-size="10.00">C2M2.Interaction.Raycast</text>
<text text-anchor="middle" x="202.5" y="-530.5" font-family="Courier New" font-size="10.00">PressEvents.RaycastHitEvent</text>
<polyline fill="none" stroke="black" points="113,-523.5 292,-523.5 "/>
<text text-anchor="middle" x="202.5" y="-511.5" font-family="Courier New" font-size="10.00"> </text>
<polyline fill="none" stroke="black" points="113,-504.5 292,-504.5 "/>
<text text-anchor="middle" x="202.5" y="-492.5" font-family="Courier New" font-size="10.00"> </text>
</a>
</g>
</g>
<!-- Node5&#45;&gt;Node4 -->
<g id="edge5" class="edge"><title>Node5&#45;&gt;Node4</title>
<path fill="none" stroke="#404040" d="M192.857,-485.378C187.946,-468.509 181.791,-447.37 175.95,-427.306"/>
<polygon fill="none" stroke="#404040" points="175.913,-427.179 170.395,-422.537 172.559,-415.658 178.076,-420.3 175.913,-427.179"/>
<text text-anchor="middle" x="223" y="-459" font-family="Courier New" font-size="10.00"> &#45;onPress</text>
<text text-anchor="middle" x="223" y="-448" font-family="Courier New" font-size="10.00">&#45;onHoldPress</text>
<text text-anchor="middle" x="223" y="-437" font-family="Courier New" font-size="10.00">&#45;onEndPress</text>
</g>
<!-- Node6 -->
<g id="node6" class="node"><title>Node6</title>
<g id="a_node6"><a xlink:title=" ">
<polygon fill="white" stroke="#bfbfbf" points="122,-591.5 122,-648.5 283,-648.5 283,-591.5 122,-591.5"/>
<text text-anchor="middle" x="202.5" y="-636.5" font-family="Courier New" font-size="10.00">UnityEvent&lt; RaycastHit &gt;</text>
<polyline fill="none" stroke="#bfbfbf" points="122,-629.5 283,-629.5 "/>
<text text-anchor="middle" x="202.5" y="-617.5" font-family="Courier New" font-size="10.00"> </text>
<polyline fill="none" stroke="#bfbfbf" points="122,-610.5 283,-610.5 "/>
<text text-anchor="middle" x="202.5" y="-598.5" font-family="Courier New" font-size="10.00"> </text>
</a>
</g>
</g>
<!-- Node6&#45;&gt;Node5 -->
<g id="edge6" class="edge"><title>Node6&#45;&gt;Node5</title>
<path fill="none" stroke="midnightblue" d="M202.5,-581.007C202.5,-571.962 202.5,-562.383 202.5,-553.578"/>
<polygon fill="none" stroke="midnightblue" points="199,-581.3 202.5,-591.3 206,-581.3 199,-581.3"/>
</g>
</g>
</svg>
        <g id="navigator" transform="translate(0 0)" fill="#404254">
                <rect fill="#f2f5e9" fill-opacity="0.5" stroke="#606060" stroke-width=".5" x="0" y="0" width="60" height="60"/>
                <use id="zoomplus" xlink:href="#zoomPlus" x="17" y="9" onmousedown="handleZoom(evt,'in')"/>
                <use id="zoomminus" xlink:href="#zoomMin" x="42" y="9" onmousedown="handleZoom(evt,'out')"/>
                <use id="reset" xlink:href="#resetDef" x="30" y="36" onmousedown="handleReset()"/>
                <g id="arrowUp" xlink:href="#dirArrow" transform="translate(30 24)" onmousedown="handlePan(0,-1)">
                  <use xlink:href="#rim" fill="#404040">
                        <set attributeName="fill" to="#808080" begin="arrowUp.mouseover" end="arrowUp.mouseout"/>
                  </use>
                  <path fill="none" stroke="white" stroke-width="1.5" d="M0,-3.0v7 M-2.5,-0.5L0,-3.0L2.5,-0.5"/>
                </g>
                <g id="arrowRight" xlink:href="#dirArrow" transform="rotate(90) translate(36 -43)" onmousedown="handlePan(1,0)">
                  <use xlink:href="#rim" fill="#404040">
                        <set attributeName="fill" to="#808080" begin="arrowRight.mouseover" end="arrowRight.mouseout"/>
                  </use>
                  <path fill="none" stroke="white" stroke-width="1.5" d="M0,-3.0v7 M-2.5,-0.5L0,-3.0L2.5,-0.5"/>
                </g>
                <g id="arrowDown" xlink:href="#dirArrow" transform="rotate(180) translate(-30 -48)" onmousedown="handlePan(0,1)">
                  <use xlink:href="#rim" fill="#404040">
                        <set attributeName="fill" to="#808080" begin="arrowDown.mouseover" end="arrowDown.mouseout"/>
                  </use>
                  <path fill="none" stroke="white" stroke-width="1.5" d="M0,-3.0v7 M-2.5,-0.5L0,-3.0L2.5,-0.5"/>
                </g>
                <g id="arrowLeft" xlink:href="#dirArrow" transform="rotate(270) translate(-36 17)" onmousedown="handlePan(-1,0)">
                  <use xlink:href="#rim" fill="#404040">
                        <set attributeName="fill" to="#808080" begin="arrowLeft.mouseover" end="arrowLeft.mouseout"/>
                  </use>
                  <path fill="none" stroke="white" stroke-width="1.5" d="M0,-3.0v7 M-2.5,-0.5L0,-3.0L2.5,-0.5"/>
                </g>
        </g>
        <svg viewBox="0 0 15 15" width="100%" height="30px" preserveAspectRatio="xMaxYMin meet">
         <g id="arrow_out" transform="scale(0.3 0.3)">
          <a xlink:href="class_c2_m2_1_1_interaction_1_1_raycast_event_manager__coll__graph_org.svg" target="_base">
           <rect id="button" ry="5" rx="5" y="6" x="6" height="38" width="38"
                fill="#f2f5e9" fill-opacity="0.5" stroke="#606060" stroke-width="1.0"/>
           <path id="arrow"
             d="M 11.500037,31.436501 C 11.940474,20.09759 22.043105,11.32322 32.158766,21.979434 L 37.068811,17.246167 C 37.068811,17.246167 37.088388,32 37.088388,32 L 22.160133,31.978069 C 22.160133,31.978069 26.997745,27.140456 26.997745,27.140456 C 18.528582,18.264221 13.291696,25.230495 11.500037,31.436501 z"
             style="fill:#404040;"/>
          </a>
         </g>
        </svg>
</svg>
