<?xml version="1.0" encoding="UTF-8" standalone="no"?>
<!DOCTYPE svg PUBLIC "-//W3C//DTD SVG 1.1//EN"
 "http://www.w3.org/Graphics/SVG/1.1/DTD/svg11.dtd">
<!-- Generated by graphviz version 2.46.0 (20210118.1747)
 -->
<!-- Title: C2M2.Interaction.RaycastEventManager Pages: 1 -->
<svg width="316pt" height="679pt"
 viewBox="0.00 0.00 316.00 679.00" xmlns="http://www.w3.org/2000/svg" xmlns:xlink="http://www.w3.org/1999/xlink">
<g id="graph0" class="graph" transform="scale(1 1) rotate(0) translate(4 675)">
<title>C2M2.Interaction.RaycastEventManager</title>
<polygon fill="white" stroke="transparent" points="-4,4 -4,-675 312,-675 312,4 -4,4"/>
<!-- Node1 -->
<g id="node1" class="node">
<title>Node1</title>
<g id="a_node1"><a xlink:title="Attach this script to parent gameObject, create one child with one raycast trigger per child....">
<polygon fill="#bfbfbf" stroke="black" points="76,-0.5 76,-189.5 237,-189.5 237,-0.5 76,-0.5"/>
<text text-anchor="start" x="84" y="-177.5" font-family="Courier New" font-size="10.00">C2M2.Interaction.Raycast</text>
<text text-anchor="middle" x="156.5" y="-166.5" font-family="Courier New" font-size="10.00">EventManager</text>
<polyline fill="none" stroke="black" points="76,-159.5 237,-159.5 "/>
<text text-anchor="middle" x="156.5" y="-147.5" font-family="Courier New" font-size="10.00"> </text>
<polyline fill="none" stroke="black" points="76,-140.5 237,-140.5 "/>
<text text-anchor="start" x="84" y="-128.5" font-family="Courier New" font-size="10.00">+ TriggerChangeRight()</text>
<text text-anchor="start" x="84" y="-117.5" font-family="Courier New" font-size="10.00">+ TriggerChangeLeft()</text>
<text text-anchor="start" x="84" y="-106.5" font-family="Courier New" font-size="10.00">+ TriggerChangeBoth()</text>
<text text-anchor="start" x="84" y="-95.5" font-family="Courier New" font-size="10.00">+ TriggerEmptyRight()</text>
<text text-anchor="start" x="84" y="-84.5" font-family="Courier New" font-size="10.00">+ TriggerEmptyLeft()</text>
<text text-anchor="start" x="84" y="-73.5" font-family="Courier New" font-size="10.00">+ TriggerEmptyBoth()</text>
<text text-anchor="start" x="84" y="-62.5" font-family="Courier New" font-size="10.00">+ HoverEvent()</text>
<text text-anchor="start" x="84" y="-51.5" font-family="Courier New" font-size="10.00">+ HoverEndEvent()</text>
<text text-anchor="start" x="84" y="-40.5" font-family="Courier New" font-size="10.00">+ PressEvent()</text>
<text text-anchor="start" x="84" y="-29.5" font-family="Courier New" font-size="10.00">+ HoldEvent()</text>
<text text-anchor="start" x="84" y="-18.5" font-family="Courier New" font-size="10.00">and 7 more...</text>
<text text-anchor="start" x="84" y="-7.5" font-family="Courier New" font-size="10.00">&#45; Awake()</text>
</a>
</g>
</g>
<!-- Node2 -->
<g id="node2" class="node">
<title>Node2</title>
<g id="a_node2"><a xlink:title=" ">
<polygon fill="white" stroke="#bfbfbf" points="0,-513 0,-570 95,-570 95,-513 0,-513"/>
<text text-anchor="middle" x="47.5" y="-558" font-family="Courier New" font-size="10.00">MonoBehaviour</text>
<polyline fill="none" stroke="#bfbfbf" points="0,-551 95,-551 "/>
<text text-anchor="middle" x="47.5" y="-539" font-family="Courier New" font-size="10.00"> </text>
<polyline fill="none" stroke="#bfbfbf" points="0,-532 95,-532 "/>
<text text-anchor="middle" x="47.5" y="-520" font-family="Courier New" font-size="10.00"> </text>
</a>
</g>
</g>
<!-- Node2&#45;&gt;Node1 -->
<g id="edge1" class="edge">
<title>Node2&#45;&gt;Node1</title>
<path fill="none" stroke="midnightblue" d="M44.91,-502.31C42.33,-447.3 41.76,-343.15 66.5,-259 73.38,-235.59 84.04,-211.8 95.63,-189.91"/>
<polygon fill="none" stroke="midnightblue" points="41.44,-502.83 45.45,-512.63 48.43,-502.46 41.44,-502.83"/>
</g>
<!-- Node4 -->
<g id="node4" class="node">
<title>Node4</title>
<g id="a_node4"><a xlink:href="../../d8/d68/class_c2_m2_1_1_interaction_1_1_raycast_press_events.html" target="_top" xlink:title="Store custom events that the corresponding RaycastTriggerManager will invoke">
<polygon fill="white" stroke="black" points="76,-259.5 76,-415.5 237,-415.5 237,-259.5 76,-259.5"/>
<text text-anchor="start" x="84" y="-403.5" font-family="Courier New" font-size="10.00">C2M2.Interaction.Raycast</text>
<text text-anchor="middle" x="156.5" y="-392.5" font-family="Courier New" font-size="10.00">PressEvents</text>
<polyline fill="none" stroke="black" points="76,-385.5 237,-385.5 "/>
<text text-anchor="start" x="84" y="-373.5" font-family="Courier New" font-size="10.00">+ OnHover</text>
<text text-anchor="start" x="84" y="-362.5" font-family="Courier New" font-size="10.00">+ OnHoverEnd</text>
<text text-anchor="start" x="84" y="-351.5" font-family="Courier New" font-size="10.00">+ OnPress</text>
<text text-anchor="start" x="84" y="-340.5" font-family="Courier New" font-size="10.00">+ OnHoldPress</text>
<text text-anchor="start" x="84" y="-329.5" font-family="Courier New" font-size="10.00">+ OnEndPress</text>
<polyline fill="none" stroke="black" points="76,-322.5 237,-322.5 "/>
<text text-anchor="start" x="84" y="-310.5" font-family="Courier New" font-size="10.00">+ Hover()</text>
<text text-anchor="start" x="84" y="-299.5" font-family="Courier New" font-size="10.00">+ EndHover()</text>
<text text-anchor="start" x="84" y="-288.5" font-family="Courier New" font-size="10.00">+ Press()</text>
<text text-anchor="start" x="84" y="-277.5" font-family="Courier New" font-size="10.00">+ HoldPress()</text>
<text text-anchor="start" x="84" y="-266.5" font-family="Courier New" font-size="10.00">+ EndPress()</text>
</a>
</g>
</g>
<!-- Node2&#45;&gt;Node4 -->
<g id="edge4" class="edge">
<title>Node2&#45;&gt;Node4</title>
<path fill="none" stroke="midnightblue" d="M67.26,-503.88C80.51,-479.33 98.45,-446.09 114.77,-415.84"/>
<polygon fill="none" stroke="midnightblue" points="64.1,-502.37 62.43,-512.84 70.26,-505.7 64.1,-502.37"/>
</g>
<!-- Node3 -->
<g id="node3" class="node">
<title>Node3</title>
<g id="a_node3"><a xlink:title=" ">
<polygon fill="white" stroke="#bfbfbf" points="255,-309 255,-366 308,-366 308,-309 255,-309"/>
<text text-anchor="middle" x="281.5" y="-354" font-family="Courier New" font-size="10.00">static</text>
<polyline fill="none" stroke="#bfbfbf" points="255,-347 308,-347 "/>
<text text-anchor="middle" x="281.5" y="-335" font-family="Courier New" font-size="10.00"> </text>
<polyline fill="none" stroke="#bfbfbf" points="255,-328 308,-328 "/>
<text text-anchor="middle" x="281.5" y="-316" font-family="Courier New" font-size="10.00"> </text>
</a>
</g>
</g>
<!-- Node3&#45;&gt;Node1 -->
<g id="edge2" class="edge">
<title>Node3&#45;&gt;Node1</title>
<path fill="none" stroke="#404040" d="M275.23,-308.91C268.53,-282.17 256.52,-240.95 239.5,-208 238.16,-205.41 236.77,-202.83 235.33,-200.24"/>
<polygon fill="none" stroke="#404040" points="235.19,-199.99 228.71,-196.82 229.14,-189.63 235.62,-192.79 235.19,-199.99"/>
<text text-anchor="middle" x="280" y="-222" font-family="Courier New" font-size="10.00"> &#45;nullHit</text>
</g>
<!-- Node4&#45;&gt;Node1 -->
<g id="edge3" class="edge">
<title>Node4&#45;&gt;Node1</title>
<path fill="none" stroke="#404040" d="M156.5,-259.41C156.5,-241.18 156.5,-221.42 156.5,-202.15"/>
<polygon fill="none" stroke="#404040" points="156.5,-201.91 152.5,-195.91 156.5,-189.91 160.5,-195.91 156.5,-201.91"/>
<text text-anchor="middle" x="196" y="-233" font-family="Courier New" font-size="10.00"> +leftTrigger</text>
<text text-anchor="middle" x="196" y="-222" font-family="Courier New" font-size="10.00">+rightTrigger</text>
<text text-anchor="middle" x="196" y="-211" font-family="Courier New" font-size="10.00">&#45;emptyTrigger</text>
</g>
<!-- Node5 -->
<g id="node5" class="node">
<title>Node5</title>
<g id="a_node5"><a xlink:href="../../d2/d43/class_c2_m2_1_1_interaction_1_1_raycast_press_events_1_1_raycast_hit_event.html" target="_top" xlink:title=" ">
<polygon fill="white" stroke="black" points="113,-507.5 113,-575.5 292,-575.5 292,-507.5 113,-507.5"/>
<text text-anchor="start" x="121" y="-563.5" font-family="Courier New" font-size="10.00">C2M2.Interaction.Raycast</text>
<text text-anchor="middle" x="202.5" y="-552.5" font-family="Courier New" font-size="10.00">PressEvents.RaycastHitEvent</text>
<polyline fill="none" stroke="black" points="113,-545.5 292,-545.5 "/>
<text text-anchor="middle" x="202.5" y="-533.5" font-family="Courier New" font-size="10.00"> </text>
<polyline fill="none" stroke="black" points="113,-526.5 292,-526.5 "/>
<text text-anchor="middle" x="202.5" y="-514.5" font-family="Courier New" font-size="10.00"> </text>
</a>
</g>
</g>
<!-- Node5&#45;&gt;Node4 -->
<g id="edge5" class="edge">
<title>Node5&#45;&gt;Node4</title>
<path fill="none" stroke="#404040" d="M194.9,-507.14C189.95,-485.38 183.22,-455.85 176.79,-427.59"/>
<polygon fill="none" stroke="#404040" points="176.72,-427.28 171.48,-422.32 174.05,-415.58 179.29,-420.54 176.72,-427.28"/>
<text text-anchor="middle" x="226" y="-481" font-family="Courier New" font-size="10.00"> &#45;onEndPress</text>
<text text-anchor="middle" x="226" y="-470" font-family="Courier New" font-size="10.00">&#45;onHoldPress</text>
<text text-anchor="middle" x="226" y="-459" font-family="Courier New" font-size="10.00">&#45;onHover</text>
<text text-anchor="middle" x="226" y="-448" font-family="Courier New" font-size="10.00">&#45;onHoverEnd</text>
<text text-anchor="middle" x="226" y="-437" font-family="Courier New" font-size="10.00">&#45;onPress</text>
</g>
<!-- Node6 -->
<g id="node6" class="node">
<title>Node6</title>
<g id="a_node6"><a xlink:title=" ">
<polygon fill="white" stroke="#bfbfbf" points="122,-613.5 122,-670.5 283,-670.5 283,-613.5 122,-613.5"/>
<text text-anchor="middle" x="202.5" y="-658.5" font-family="Courier New" font-size="10.00">UnityEvent&lt; RaycastHit &gt;</text>
<polyline fill="none" stroke="#bfbfbf" points="122,-651.5 283,-651.5 "/>
<text text-anchor="middle" x="202.5" y="-639.5" font-family="Courier New" font-size="10.00"> </text>
<polyline fill="none" stroke="#bfbfbf" points="122,-632.5 283,-632.5 "/>
<text text-anchor="middle" x="202.5" y="-620.5" font-family="Courier New" font-size="10.00"> </text>
</a>
</g>
</g>
<!-- Node6&#45;&gt;Node5 -->
<g id="edge6" class="edge">
<title>Node6&#45;&gt;Node5</title>
<path fill="none" stroke="midnightblue" d="M202.5,-603.01C202.5,-593.96 202.5,-584.38 202.5,-575.58"/>
<polygon fill="none" stroke="midnightblue" points="199,-603.3 202.5,-613.3 206,-603.3 199,-603.3"/>
</g>
</g>
</svg>
