<?xml version="1.0" encoding="UTF-8" standalone="no"?>
<!DOCTYPE svg PUBLIC "-//W3C//DTD SVG 1.1//EN"
 "http://www.w3.org/Graphics/SVG/1.1/DTD/svg11.dtd">
<!-- Generated by graphviz version 2.38.0 (20140413.2041)
 -->
<!-- Title: C2M2.Interaction.RaycastEventManager Pages: 1 -->
<svg width="318pt" height="657pt"
 viewBox="0.00 0.00 317.50 657.00" xmlns="http://www.w3.org/2000/svg" xmlns:xlink="http://www.w3.org/1999/xlink">
<g id="graph0" class="graph" transform="scale(1 1) rotate(0) translate(4 653)">
<title>C2M2.Interaction.RaycastEventManager</title>
<polygon fill="white" stroke="none" points="-4,4 -4,-653 313.5,-653 313.5,4 -4,4"/>
<!-- Node1 -->
<g id="node1" class="node"><title>Node1</title>
<g id="a_node1"><a xlink:title="Attach this script to parent gameObject, create one child with one raycast trigger per child....">
<polygon fill="#bfbfbf" stroke="black" points="76,-0.5 76,-233.5 237,-233.5 237,-0.5 76,-0.5"/>
<text text-anchor="start" x="84" y="-221.5" font-family="Courier New" font-size="10.00">C2M2.Interaction.Raycast</text>
<text text-anchor="middle" x="156.5" y="-210.5" font-family="Courier New" font-size="10.00">EventManager</text>
<polyline fill="none" stroke="black" points="76,-203.5 237,-203.5 "/>
<text text-anchor="middle" x="156.5" y="-191.5" font-family="Courier New" font-size="10.00"> </text>
<polyline fill="none" stroke="black" points="76,-184.5 237,-184.5 "/>
<text text-anchor="start" x="84" y="-172.5" font-family="Courier New" font-size="10.00">+ TriggerChangeRight()</text>
<text text-anchor="start" x="84" y="-161.5" font-family="Courier New" font-size="10.00">+ TriggerChangeLeft()</text>
<text text-anchor="start" x="84" y="-150.5" font-family="Courier New" font-size="10.00">+ TriggerChangeBoth()</text>
<text text-anchor="start" x="84" y="-139.5" font-family="Courier New" font-size="10.00">+ TriggerEmptyRight()</text>
<text text-anchor="start" x="84" y="-128.5" font-family="Courier New" font-size="10.00">+ TriggerEmptyLeft()</text>
<text text-anchor="start" x="84" y="-117.5" font-family="Courier New" font-size="10.00">+ TriggerEmptyBoth()</text>
<text text-anchor="start" x="84" y="-106.5" font-family="Courier New" font-size="10.00">+ PressEvent()</text>
<text text-anchor="start" x="84" y="-95.5" font-family="Courier New" font-size="10.00">+ HoldEvent()</text>
<text text-anchor="start" x="84" y="-84.5" font-family="Courier New" font-size="10.00">+ EndEvent()</text>
<text text-anchor="start" x="84" y="-73.5" font-family="Courier New" font-size="10.00">+ AllEvents()</text>
<text text-anchor="start" x="84" y="-62.5" font-family="Courier New" font-size="10.00">+ PressEventNull()</text>
<text text-anchor="start" x="84" y="-51.5" font-family="Courier New" font-size="10.00">+ HoldEventNull()</text>
<text text-anchor="start" x="84" y="-40.5" font-family="Courier New" font-size="10.00">+ EndEventNull()</text>
<text text-anchor="start" x="84" y="-29.5" font-family="Courier New" font-size="10.00">+ AllEventsNull()</text>
<text text-anchor="start" x="84" y="-18.5" font-family="Courier New" font-size="10.00">+ ToString()</text>
<text text-anchor="start" x="84" y="-7.5" font-family="Courier New" font-size="10.00">&#45; Awake()</text>
</a>
</g>
</g>
<!-- Node2 -->
<g id="node2" class="node"><title>Node2</title>
<g id="a_node2"><a xlink:title=" ">
<polygon fill="white" stroke="#bfbfbf" points="0,-491 0,-548 95,-548 95,-491 0,-491"/>
<text text-anchor="middle" x="47.5" y="-536" font-family="Courier New" font-size="10.00">MonoBehaviour</text>
<polyline fill="none" stroke="#bfbfbf" points="0,-529 95,-529 "/>
<text text-anchor="middle" x="47.5" y="-517" font-family="Courier New" font-size="10.00"> </text>
<polyline fill="none" stroke="#bfbfbf" points="0,-510 95,-510 "/>
<text text-anchor="middle" x="47.5" y="-498" font-family="Courier New" font-size="10.00"> </text>
</a>
</g>
</g>
<!-- Node2&#45;&gt;Node1 -->
<g id="edge1" class="edge"><title>Node2&#45;&gt;Node1</title>
<path fill="none" stroke="midnightblue" d="M46.7183,-480.555C46.7592,-436.921 49.7269,-363.521 66.5,-303 72.9151,-279.853 82.1706,-256.1 92.3314,-233.658"/>
<polygon fill="none" stroke="midnightblue" points="43.2189,-480.732 46.7618,-490.717 50.2189,-480.702 43.2189,-480.732"/>
</g>
<!-- Node4 -->
<g id="node4" class="node"><title>Node4</title>
<g id="a_node4"><a xlink:href="../../d8/d68/class_c2_m2_1_1_interaction_1_1_raycast_press_events.html" target="_top" xlink:title="Store custom events that the corresponding RaycastTriggerManager will invoke">
<polygon fill="white" stroke="black" points="76,-303.5 76,-415.5 237,-415.5 237,-303.5 76,-303.5"/>
<text text-anchor="start" x="84" y="-403.5" font-family="Courier New" font-size="10.00">C2M2.Interaction.Raycast</text>
<text text-anchor="middle" x="156.5" y="-392.5" font-family="Courier New" font-size="10.00">PressEvents</text>
<polyline fill="none" stroke="black" points="76,-385.5 237,-385.5 "/>
<text text-anchor="start" x="84" y="-373.5" font-family="Courier New" font-size="10.00">+ OnPress</text>
<text text-anchor="start" x="84" y="-362.5" font-family="Courier New" font-size="10.00">+ OnHoldPress</text>
<text text-anchor="start" x="84" y="-351.5" font-family="Courier New" font-size="10.00">+ OnEndPress</text>
<polyline fill="none" stroke="black" points="76,-344.5 237,-344.5 "/>
<text text-anchor="start" x="84" y="-332.5" font-family="Courier New" font-size="10.00">+ Press()</text>
<text text-anchor="start" x="84" y="-321.5" font-family="Courier New" font-size="10.00">+ HoldPress()</text>
<text text-anchor="start" x="84" y="-310.5" font-family="Courier New" font-size="10.00">+ EndPress()</text>
</a>
</g>
</g>
<!-- Node2&#45;&gt;Node4 -->
<g id="edge4" class="edge"><title>Node2&#45;&gt;Node4</title>
<path fill="none" stroke="midnightblue" d="M72.301,-482.55C85.9698,-462.736 103.227,-437.722 118.554,-415.504"/>
<polygon fill="none" stroke="midnightblue" points="69.284,-480.76 66.4864,-490.979 75.0459,-484.735 69.284,-480.76"/>
</g>
<!-- Node3 -->
<g id="node3" class="node"><title>Node3</title>
<g id="a_node3"><a xlink:title=" ">
<polygon fill="white" stroke="#bfbfbf" points="255,-331 255,-388 308,-388 308,-331 255,-331"/>
<text text-anchor="middle" x="281.5" y="-376" font-family="Courier New" font-size="10.00">static</text>
<polyline fill="none" stroke="#bfbfbf" points="255,-369 308,-369 "/>
<text text-anchor="middle" x="281.5" y="-357" font-family="Courier New" font-size="10.00"> </text>
<polyline fill="none" stroke="#bfbfbf" points="255,-350 308,-350 "/>
<text text-anchor="middle" x="281.5" y="-338" font-family="Courier New" font-size="10.00"> </text>
</a>
</g>
</g>
<!-- Node3&#45;&gt;Node1 -->
<g id="edge2" class="edge"><title>Node3&#45;&gt;Node1</title>
<path fill="none" stroke="#404040" d="M272.109,-330.774C264.346,-308.928 252.515,-277.936 239.5,-252 238.278,-249.566 237.026,-247.118 235.748,-244.662"/>
<polygon fill="none" stroke="#404040" points="235.631,-244.443 229.279,-241.029 229.988,-233.852 236.34,-237.266 235.631,-244.443"/>
<text text-anchor="middle" x="282" y="-266" font-family="Courier New" font-size="10.00"> &#45;nullHit</text>
</g>
<!-- Node4&#45;&gt;Node1 -->
<g id="edge3" class="edge"><title>Node4&#45;&gt;Node1</title>
<path fill="none" stroke="#404040" d="M156.5,-303.324C156.5,-286.017 156.5,-266.135 156.5,-245.963"/>
<polygon fill="none" stroke="#404040" points="156.5,-245.729 152.5,-239.729 156.5,-233.729 160.5,-239.729 156.5,-245.729"/>
<text text-anchor="middle" x="196" y="-277" font-family="Courier New" font-size="10.00"> +leftTrigger</text>
<text text-anchor="middle" x="196" y="-266" font-family="Courier New" font-size="10.00">+rightTrigger</text>
<text text-anchor="middle" x="196" y="-255" font-family="Courier New" font-size="10.00">&#45;emptyTrigger</text>
</g>
<!-- Node5 -->
<g id="node5" class="node"><title>Node5</title>
<g id="a_node5"><a xlink:href="../../d2/d43/class_c2_m2_1_1_interaction_1_1_raycast_press_events_1_1_raycast_hit_event.html" target="_top" xlink:title=" ">
<polygon fill="white" stroke="black" points="113,-485.5 113,-553.5 292,-553.5 292,-485.5 113,-485.5"/>
<text text-anchor="start" x="121" y="-541.5" font-family="Courier New" font-size="10.00">C2M2.Interaction.Raycast</text>
<text text-anchor="middle" x="202.5" y="-530.5" font-family="Courier New" font-size="10.00">PressEvents.RaycastHitEvent</text>
<polyline fill="none" stroke="black" points="113,-523.5 292,-523.5 "/>
<text text-anchor="middle" x="202.5" y="-511.5" font-family="Courier New" font-size="10.00"> </text>
<polyline fill="none" stroke="black" points="113,-504.5 292,-504.5 "/>
<text text-anchor="middle" x="202.5" y="-492.5" font-family="Courier New" font-size="10.00"> </text>
</a>
</g>
</g>
<!-- Node5&#45;&gt;Node4 -->
<g id="edge5" class="edge"><title>Node5&#45;&gt;Node4</title>
<path fill="none" stroke="#404040" d="M192.857,-485.378C187.946,-468.509 181.791,-447.37 175.95,-427.306"/>
<polygon fill="none" stroke="#404040" points="175.913,-427.179 170.395,-422.537 172.559,-415.658 178.076,-420.3 175.913,-427.179"/>
<text text-anchor="middle" x="223" y="-459" font-family="Courier New" font-size="10.00"> &#45;onPress</text>
<text text-anchor="middle" x="223" y="-448" font-family="Courier New" font-size="10.00">&#45;onHoldPress</text>
<text text-anchor="middle" x="223" y="-437" font-family="Courier New" font-size="10.00">&#45;onEndPress</text>
</g>
<!-- Node6 -->
<g id="node6" class="node"><title>Node6</title>
<g id="a_node6"><a xlink:title=" ">
<polygon fill="white" stroke="#bfbfbf" points="122,-591.5 122,-648.5 283,-648.5 283,-591.5 122,-591.5"/>
<text text-anchor="middle" x="202.5" y="-636.5" font-family="Courier New" font-size="10.00">UnityEvent&lt; RaycastHit &gt;</text>
<polyline fill="none" stroke="#bfbfbf" points="122,-629.5 283,-629.5 "/>
<text text-anchor="middle" x="202.5" y="-617.5" font-family="Courier New" font-size="10.00"> </text>
<polyline fill="none" stroke="#bfbfbf" points="122,-610.5 283,-610.5 "/>
<text text-anchor="middle" x="202.5" y="-598.5" font-family="Courier New" font-size="10.00"> </text>
</a>
</g>
</g>
<!-- Node6&#45;&gt;Node5 -->
<g id="edge6" class="edge"><title>Node6&#45;&gt;Node5</title>
<path fill="none" stroke="midnightblue" d="M202.5,-581.007C202.5,-571.962 202.5,-562.383 202.5,-553.578"/>
<polygon fill="none" stroke="midnightblue" points="199,-581.3 202.5,-591.3 206,-581.3 199,-581.3"/>
</g>
</g>
</svg>
