<?xml version="1.0" encoding="UTF-8" standalone="no"?>
<!DOCTYPE svg PUBLIC "-//W3C//DTD SVG 1.1//EN"
 "http://www.w3.org/Graphics/SVG/1.1/DTD/svg11.dtd">
<!-- Generated by graphviz version 2.38.0 (20140413.2041)
 -->
<!-- Title: C2M2.Interaction.Adjacency.GaussianDistanceCalculator Pages: 1 -->
<svg width="187pt" height="281pt"
 viewBox="0.00 0.00 187.00 281.00" xmlns="http://www.w3.org/2000/svg" xmlns:xlink="http://www.w3.org/1999/xlink">
<g id="graph0" class="graph" transform="scale(1 1) rotate(0) translate(4 277)">
<title>C2M2.Interaction.Adjacency.GaussianDistanceCalculator</title>
<polygon fill="white" stroke="none" points="-4,4 -4,-277 183,-277 183,4 -4,4"/>
<!-- Node1 -->
<g id="node1" class="node"><title>Node1</title>
<g id="a_node1"><a xlink:title="Find Gaussian curve values in 3D space at a given distance from origin">
<polygon fill="#bfbfbf" stroke="black" points="0,-0.5 0,-178.5 179,-178.5 179,-0.5 0,-0.5"/>
<text text-anchor="start" x="8" y="-166.5" font-family="Courier New" font-size="10.00">C2M2.Interaction.Adjacency.</text>
<text text-anchor="middle" x="89.5" y="-155.5" font-family="Courier New" font-size="10.00">GaussianDistanceCalculator</text>
<polyline fill="none" stroke="black" points="0,-148.5 179,-148.5 "/>
<text text-anchor="start" x="8" y="-136.5" font-family="Courier New" font-size="10.00">+ height</text>
<text text-anchor="start" x="8" y="-125.5" font-family="Courier New" font-size="10.00">+ StdDev</text>
<text text-anchor="start" x="8" y="-114.5" font-family="Courier New" font-size="10.00">&#45; stdDev</text>
<text text-anchor="start" x="8" y="-103.5" font-family="Courier New" font-size="10.00">&#45; stdDevSq</text>
<text text-anchor="start" x="8" y="-92.5" font-family="Courier New" font-size="10.00">&#45; twoXstdDevSq</text>
<text text-anchor="start" x="8" y="-81.5" font-family="Courier New" font-size="10.00">&#45; stdDevCb</text>
<text text-anchor="start" x="8" y="-70.5" font-family="Courier New" font-size="10.00">&#45; e</text>
<polyline fill="none" stroke="black" points="0,-63.5 179,-63.5 "/>
<text text-anchor="start" x="8" y="-51.5" font-family="Courier New" font-size="10.00">+ SetGaussian()</text>
<text text-anchor="start" x="8" y="-40.5" font-family="Courier New" font-size="10.00">+ CalculateGaussian()</text>
<text text-anchor="start" x="8" y="-29.5" font-family="Courier New" font-size="10.00">+ CalculateGaussian()</text>
<text text-anchor="start" x="8" y="-18.5" font-family="Courier New" font-size="10.00">+ CalculateGaussianDistSq()</text>
<text text-anchor="start" x="8" y="-7.5" font-family="Courier New" font-size="10.00">+ DistanceThreshold()</text>
</a>
</g>
</g>
<!-- Node2 -->
<g id="node2" class="node"><title>Node2</title>
<g id="a_node2"><a xlink:title=" ">
<polygon fill="white" stroke="#bfbfbf" points="42,-215.5 42,-272.5 137,-272.5 137,-215.5 42,-215.5"/>
<text text-anchor="middle" x="89.5" y="-260.5" font-family="Courier New" font-size="10.00">MonoBehaviour</text>
<polyline fill="none" stroke="#bfbfbf" points="42,-253.5 137,-253.5 "/>
<text text-anchor="middle" x="89.5" y="-241.5" font-family="Courier New" font-size="10.00"> </text>
<polyline fill="none" stroke="#bfbfbf" points="42,-234.5 137,-234.5 "/>
<text text-anchor="middle" x="89.5" y="-222.5" font-family="Courier New" font-size="10.00"> </text>
</a>
</g>
</g>
<!-- Node2&#45;&gt;Node1 -->
<g id="edge1" class="edge"><title>Node2&#45;&gt;Node1</title>
<path fill="none" stroke="midnightblue" d="M89.5,-205.374C89.5,-197.089 89.5,-187.977 89.5,-178.62"/>
<polygon fill="none" stroke="midnightblue" points="86.0001,-205.383 89.5,-215.383 93.0001,-205.383 86.0001,-205.383"/>
</g>
</g>
</svg>
