<?xml version="1.0" encoding="UTF-8" standalone="no"?>
<!DOCTYPE svg PUBLIC "-//W3C//DTD SVG 1.1//EN"
 "http://www.w3.org/Graphics/SVG/1.1/DTD/svg11.dtd">
<!-- Generated by graphviz version 2.46.0 (20210118.1747)
 -->
<!-- Title: C2M2.NeuronalDynamics.UGX.VertexAttachementAccessor&lt; T &gt; Pages: 1 -->
<svg width="336pt" height="358pt"
 viewBox="0.00 0.00 336.00 358.00" xmlns="http://www.w3.org/2000/svg" xmlns:xlink="http://www.w3.org/1999/xlink">
<g id="graph0" class="graph" transform="scale(1 1) rotate(0) translate(4 354)">
<title>C2M2.NeuronalDynamics.UGX.VertexAttachementAccessor&lt; T &gt;</title>
<polygon fill="white" stroke="transparent" points="-4,4 -4,-354 332,-354 332,4 -4,4"/>
<!-- Node1 -->
<g id="node1" class="node">
<title>Node1</title>
<g id="a_node1"><a xlink:title="VertexAttachmentAcccesor">
<polygon fill="#bfbfbf" stroke="black" points="44,-0.5 44,-123.5 241,-123.5 241,-0.5 44,-0.5"/>
<text text-anchor="start" x="52" y="-111.5" font-family="Courier New" font-size="10.00">C2M2.NeuronalDynamics.UGX.</text>
<text text-anchor="middle" x="142.5" y="-100.5" font-family="Courier New" font-size="10.00">VertexAttachementAccessor&lt; T &gt;</text>
<polyline fill="none" stroke="black" points="44,-93.5 241,-93.5 "/>
<text text-anchor="start" x="52" y="-81.5" font-family="Courier New" font-size="10.00">+ this[int key]</text>
<polyline fill="none" stroke="black" points="44,-74.5 241,-74.5 "/>
<text text-anchor="start" x="52" y="-62.5" font-family="Courier New" font-size="10.00">+ VertexAttachementAccessor()</text>
<text text-anchor="start" x="52" y="-51.5" font-family="Courier New" font-size="10.00">+ VertexAttachementAccessor()</text>
<text text-anchor="start" x="52" y="-40.5" font-family="Courier New" font-size="10.00">+ GetEnumerator()</text>
<text text-anchor="start" x="52" y="-29.5" font-family="Courier New" font-size="10.00">&#45; GetValue()</text>
<text text-anchor="start" x="52" y="-18.5" font-family="Courier New" font-size="10.00">&#45; SetValue()</text>
<text text-anchor="start" x="52" y="-7.5" font-family="Courier New" font-size="10.00">&#45; GetEnumerator()</text>
</a>
</g>
</g>
<!-- Node2 -->
<g id="node2" class="node">
<title>Node2</title>
<g id="a_node2"><a xlink:title=" ">
<polygon fill="white" stroke="#bfbfbf" points="0,-232 0,-289 113,-289 113,-232 0,-232"/>
<text text-anchor="middle" x="56.5" y="-277" font-family="Courier New" font-size="10.00">IEnumerable&lt; T &gt;</text>
<polyline fill="none" stroke="#bfbfbf" points="0,-270 113,-270 "/>
<text text-anchor="middle" x="56.5" y="-258" font-family="Courier New" font-size="10.00"> </text>
<polyline fill="none" stroke="#bfbfbf" points="0,-251 113,-251 "/>
<text text-anchor="middle" x="56.5" y="-239" font-family="Courier New" font-size="10.00"> </text>
</a>
</g>
</g>
<!-- Node2&#45;&gt;Node1 -->
<g id="edge1" class="edge">
<title>Node2&#45;&gt;Node1</title>
<path fill="none" stroke="midnightblue" d="M72.73,-222.42C84.89,-194.64 101.78,-156.03 115.9,-123.77"/>
<polygon fill="none" stroke="midnightblue" points="69.44,-221.2 68.64,-231.76 75.86,-224.01 69.44,-221.2"/>
</g>
<!-- Node3 -->
<g id="node3" class="node">
<title>Node3</title>
<g id="a_node3"><a xlink:href="../../d8/d5b/class_c2_m2_1_1_neuronal_dynamics_1_1_u_g_x_1_1_grid.html" target="_top" xlink:title="Encapsulates Unity mesh and the edges of the UGX file">
<polygon fill="white" stroke="black" points="131,-171.5 131,-349.5 328,-349.5 328,-171.5 131,-171.5"/>
<text text-anchor="middle" x="229.5" y="-337.5" font-family="Courier New" font-size="10.00">C2M2.NeuronalDynamics.UGX.Grid</text>
<polyline fill="none" stroke="black" points="131,-330.5 328,-330.5 "/>
<text text-anchor="start" x="139" y="-318.5" font-family="Courier New" font-size="10.00">+ types</text>
<text text-anchor="start" x="139" y="-307.5" font-family="Courier New" font-size="10.00">+ data</text>
<text text-anchor="start" x="139" y="-296.5" font-family="Courier New" font-size="10.00">+ AttachmentInfo</text>
<text text-anchor="start" x="139" y="-285.5" font-family="Courier New" font-size="10.00">+ Mesh</text>
<text text-anchor="start" x="139" y="-274.5" font-family="Courier New" font-size="10.00">+ Edges</text>
<text text-anchor="start" x="139" y="-263.5" font-family="Courier New" font-size="10.00">+ Vertices</text>
<text text-anchor="start" x="139" y="-252.5" font-family="Courier New" font-size="10.00">+ Subsets</text>
<text text-anchor="start" x="139" y="-241.5" font-family="Courier New" font-size="10.00">+ Type</text>
<polyline fill="none" stroke="black" points="131,-234.5 328,-234.5 "/>
<text text-anchor="start" x="139" y="-222.5" font-family="Courier New" font-size="10.00">+ ToString()</text>
<text text-anchor="start" x="139" y="-211.5" font-family="Courier New" font-size="10.00">+ Grid()</text>
<text text-anchor="start" x="139" y="-200.5" font-family="Courier New" font-size="10.00">+ HasVertexAttachment</text>
<text text-anchor="start" x="139" y="-189.5" font-family="Courier New" font-size="10.00">&lt; T &gt;()</text>
<text text-anchor="start" x="139" y="-178.5" font-family="Courier New" font-size="10.00">+ Clear()</text>
</a>
</g>
</g>
<!-- Node3&#45;&gt;Node1 -->
<g id="edge2" class="edge">
<title>Node3&#45;&gt;Node1</title>
<path fill="none" stroke="#404040" d="M190.45,-171.31C185.04,-159.09 179.54,-146.67 174.29,-134.8"/>
<polygon fill="none" stroke="#404040" points="174.19,-134.59 168.11,-130.72 169.34,-123.61 175.42,-127.48 174.19,-134.59"/>
<text text-anchor="middle" x="200" y="-145" font-family="Courier New" font-size="10.00"> &#45;grid</text>
</g>
</g>
</svg>
