<?xml version="1.0" encoding="UTF-8" standalone="no"?>
<!DOCTYPE svg PUBLIC "-//W3C//DTD SVG 1.1//EN"
 "http://www.w3.org/Graphics/SVG/1.1/DTD/svg11.dtd">
<!-- Generated by graphviz version 2.38.0 (20140413.2041)
 -->
<!-- Title: C2M2.NeuronalDynamics.Simulation.CellSolver2FullAP_DendriteImplicit Pages: 1 -->
<svg width="515pt" height="1301pt"
 viewBox="0.00 0.00 514.50 1301.00" xmlns="http://www.w3.org/2000/svg" xmlns:xlink="http://www.w3.org/1999/xlink">
<g id="graph0" class="graph" transform="scale(1 1) rotate(0) translate(4 1297)">
<title>C2M2.NeuronalDynamics.Simulation.CellSolver2FullAP_DendriteImplicit</title>
<polygon fill="white" stroke="none" points="-4,4 -4,-1297 510.5,-1297 510.5,4 -4,4"/>
<!-- Node1 -->
<g id="node1" class="node"><title>Node1</title>
<g id="a_node1"><a xlink:title=" ">
<polygon fill="#bfbfbf" stroke="black" points="156,-0.5 156,-431.5 377,-431.5 377,-0.5 156,-0.5"/>
<text text-anchor="start" x="164" y="-419.5" font-family="Courier New" font-size="10.00">C2M2.NeuronalDynamics.Simulation.</text>
<text text-anchor="middle" x="266.5" y="-408.5" font-family="Courier New" font-size="10.00">CellSolver2FullAP_DendriteImplicit</text>
<polyline fill="none" stroke="black" points="156,-401.5 377,-401.5 "/>
<text text-anchor="start" x="164" y="-389.5" font-family="Courier New" font-size="10.00">+ res</text>
<text text-anchor="start" x="164" y="-378.5" font-family="Courier New" font-size="10.00">+ gk</text>
<text text-anchor="start" x="164" y="-367.5" font-family="Courier New" font-size="10.00">+ gna</text>
<text text-anchor="start" x="164" y="-356.5" font-family="Courier New" font-size="10.00">+ gl</text>
<text text-anchor="start" x="164" y="-345.5" font-family="Courier New" font-size="10.00">+ ek</text>
<text text-anchor="start" x="164" y="-334.5" font-family="Courier New" font-size="10.00">+ ena</text>
<text text-anchor="start" x="164" y="-323.5" font-family="Courier New" font-size="10.00">+ el</text>
<text text-anchor="start" x="164" y="-312.5" font-family="Courier New" font-size="10.00">+ cap</text>
<text text-anchor="start" x="164" y="-301.5" font-family="Courier New" font-size="10.00">+ ni</text>
<text text-anchor="start" x="164" y="-290.5" font-family="Courier New" font-size="10.00">+ nT</text>
<text text-anchor="start" x="164" y="-279.5" font-family="Courier New" font-size="10.00">+ endTime</text>
<text text-anchor="start" x="164" y="-268.5" font-family="Courier New" font-size="10.00">+ vstart</text>
<text text-anchor="start" x="164" y="-257.5" font-family="Courier New" font-size="10.00">&#45; U</text>
<text text-anchor="start" x="164" y="-246.5" font-family="Courier New" font-size="10.00">&#45; M</text>
<text text-anchor="start" x="164" y="-235.5" font-family="Courier New" font-size="10.00">&#45; N</text>
<text text-anchor="start" x="164" y="-224.5" font-family="Courier New" font-size="10.00">&#45; H</text>
<text text-anchor="start" x="164" y="-213.5" font-family="Courier New" font-size="10.00">&#45; i</text>
<text text-anchor="start" x="164" y="-202.5" font-family="Courier New" font-size="10.00">&#45; mi</text>
<text text-anchor="start" x="164" y="-191.5" font-family="Courier New" font-size="10.00">&#45; hi</text>
<polyline fill="none" stroke="black" points="156,-184.5 377,-184.5 "/>
<text text-anchor="start" x="164" y="-172.5" font-family="Courier New" font-size="10.00">+ initialConditions()</text>
<text text-anchor="start" x="164" y="-161.5" font-family="Courier New" font-size="10.00">+ boundaryConditions()</text>
<text text-anchor="start" x="164" y="-150.5" font-family="Courier New" font-size="10.00"># SetNeuronCell()</text>
<text text-anchor="start" x="164" y="-139.5" font-family="Courier New" font-size="10.00"># Get1DValues()</text>
<text text-anchor="start" x="164" y="-128.5" font-family="Courier New" font-size="10.00"># Set1DValues()</text>
<text text-anchor="start" x="164" y="-117.5" font-family="Courier New" font-size="10.00"># Solve()</text>
<text text-anchor="start" x="164" y="-106.5" font-family="Courier New" font-size="10.00">&#45; reactF()</text>
<text text-anchor="start" x="164" y="-95.5" font-family="Courier New" font-size="10.00">&#45; fN()</text>
<text text-anchor="start" x="164" y="-84.5" font-family="Courier New" font-size="10.00">&#45; fM()</text>
<text text-anchor="start" x="164" y="-73.5" font-family="Courier New" font-size="10.00">&#45; fH()</text>
<text text-anchor="start" x="164" y="-62.5" font-family="Courier New" font-size="10.00">&#45; an()</text>
<text text-anchor="start" x="164" y="-51.5" font-family="Courier New" font-size="10.00">&#45; bn()</text>
<text text-anchor="start" x="164" y="-40.5" font-family="Courier New" font-size="10.00">&#45; am()</text>
<text text-anchor="start" x="164" y="-29.5" font-family="Courier New" font-size="10.00">&#45; bm()</text>
<text text-anchor="start" x="164" y="-18.5" font-family="Courier New" font-size="10.00">&#45; ah()</text>
<text text-anchor="start" x="164" y="-7.5" font-family="Courier New" font-size="10.00">&#45; bh()</text>
</a>
</g>
</g>
<!-- Node2 -->
<g id="node2" class="node"><title>Node2</title>
<g id="a_node2"><a xlink:href="../../d1/de3/class_c2_m2_1_1_neuronal_dynamics_1_1_simulation_1_1_neuron_simulation.html" target="_top" xlink:title="Provides base functionality for Neuron simulations">
<polygon fill="white" stroke="black" points="158,-507 158,-652 277,-652 277,-507 158,-507"/>
<text text-anchor="middle" x="217.5" y="-640" font-family="Courier New" font-size="10.00">NeuronSimulation</text>
<polyline fill="none" stroke="black" points="158,-633 277,-633 "/>
<text text-anchor="start" x="166" y="-621" font-family="Courier New" font-size="10.00">+ visualize1D</text>
<text text-anchor="start" x="166" y="-610" font-family="Courier New" font-size="10.00">+ color1D</text>
<text text-anchor="start" x="166" y="-599" font-family="Courier New" font-size="10.00">+ lineWidth1D</text>
<text text-anchor="start" x="166" y="-588" font-family="Courier New" font-size="10.00">&#45; map</text>
<polyline fill="none" stroke="black" points="158,-581 277,-581 "/>
<text text-anchor="start" x="166" y="-569" font-family="Courier New" font-size="10.00">+ GetValues()</text>
<text text-anchor="start" x="166" y="-558" font-family="Courier New" font-size="10.00">+ SetValues()</text>
<text text-anchor="start" x="166" y="-547" font-family="Courier New" font-size="10.00"># Set1DValues()</text>
<text text-anchor="start" x="166" y="-536" font-family="Courier New" font-size="10.00"># Get1DValues()</text>
<text text-anchor="start" x="166" y="-525" font-family="Courier New" font-size="10.00"># SetNeuronCell()</text>
<text text-anchor="start" x="166" y="-514" font-family="Courier New" font-size="10.00"># BuildMesh()</text>
</a>
</g>
</g>
<!-- Node2&#45;&gt;Node1 -->
<g id="edge1" class="edge"><title>Node2&#45;&gt;Node1</title>
<path fill="none" stroke="midnightblue" d="M228.619,-496.473C231.312,-476.6 234.317,-454.431 237.424,-431.511"/>
<polygon fill="none" stroke="midnightblue" points="225.114,-496.267 227.239,-506.647 232.051,-497.208 225.114,-496.267"/>
</g>
<!-- Node3 -->
<g id="node3" class="node"><title>Node3</title>
<g id="a_node3"><a xlink:href="../../d4/de1/class_c2_m2_1_1_simulation_1_1_surface_simulation.html" target="_top" xlink:title="Simulation of type double[] for visualizing scalar fields on mesh surfaces">
<polygon fill="white" stroke="black" points="16,-793.5 16,-938.5 171,-938.5 171,-793.5 16,-793.5"/>
<text text-anchor="middle" x="93.5" y="-926.5" font-family="Courier New" font-size="10.00">SurfaceSimulation</text>
<polyline fill="none" stroke="black" points="16,-919.5 171,-919.5 "/>
<text text-anchor="start" x="24" y="-907.5" font-family="Courier New" font-size="10.00">+ gradient</text>
<text text-anchor="start" x="24" y="-896.5" font-family="Courier New" font-size="10.00">+ globalMax</text>
<text text-anchor="start" x="24" y="-885.5" font-family="Courier New" font-size="10.00">+ globalMin</text>
<text text-anchor="start" x="24" y="-874.5" font-family="Courier New" font-size="10.00">+ colorLUT</text>
<text text-anchor="start" x="24" y="-863.5" font-family="Courier New" font-size="10.00">&#45; mf</text>
<text text-anchor="start" x="24" y="-852.5" font-family="Courier New" font-size="10.00">&#45; mr</text>
<polyline fill="none" stroke="black" points="16,-845.5 171,-845.5 "/>
<text text-anchor="start" x="24" y="-833.5" font-family="Courier New" font-size="10.00"># BuildMesh()</text>
<text text-anchor="start" x="24" y="-822.5" font-family="Courier New" font-size="10.00"># UpdateVisualization()</text>
<text text-anchor="start" x="24" y="-811.5" font-family="Courier New" font-size="10.00"># OnAwake()</text>
<text text-anchor="start" x="24" y="-800.5" font-family="Courier New" font-size="10.00">&#45; UpdateVisualization()</text>
</a>
</g>
</g>
<!-- Node3&#45;&gt;Node2 -->
<g id="edge2" class="edge"><title>Node3&#45;&gt;Node2</title>
<path fill="none" stroke="midnightblue" d="M128.827,-783.948C146.915,-742.447 168.745,-692.36 186.22,-652.268"/>
<polygon fill="none" stroke="midnightblue" points="125.578,-782.643 124.79,-793.209 131.994,-785.44 125.578,-782.643"/>
</g>
<!-- Node4 -->
<g id="node4" class="node"><title>Node4</title>
<g id="a_node4"><a xlink:href="../../db/d39/class_c2_m2_1_1_simulation_1_1_simulation.html" target="_top" xlink:title=" ">
<polygon fill="white" stroke="black" points="0,-986.5 0,-1197.5 155,-1197.5 155,-986.5 0,-986.5"/>
<text text-anchor="middle" x="77.5" y="-1185.5" font-family="Courier New" font-size="10.00">Simulation&lt; double[]&gt;</text>
<polyline fill="none" stroke="black" points="0,-1178.5 155,-1178.5 "/>
<text text-anchor="start" x="8" y="-1166.5" font-family="Courier New" font-size="10.00">+ startOnAwake</text>
<text text-anchor="start" x="8" y="-1155.5" font-family="Courier New" font-size="10.00"># mutex</text>
<text text-anchor="start" x="8" y="-1144.5" font-family="Courier New" font-size="10.00">&#45; solveThread</text>
<polyline fill="none" stroke="black" points="0,-1137.5 155,-1137.5 "/>
<text text-anchor="start" x="8" y="-1125.5" font-family="Courier New" font-size="10.00">+ GetValues()</text>
<text text-anchor="start" x="8" y="-1114.5" font-family="Courier New" font-size="10.00">+ Awake()</text>
<text text-anchor="start" x="8" y="-1103.5" font-family="Courier New" font-size="10.00">+ Start()</text>
<text text-anchor="start" x="8" y="-1092.5" font-family="Courier New" font-size="10.00">+ Update()</text>
<text text-anchor="start" x="8" y="-1081.5" font-family="Courier New" font-size="10.00">+ StartSimulation()</text>
<text text-anchor="start" x="8" y="-1070.5" font-family="Courier New" font-size="10.00">+ StopSimulation()</text>
<text text-anchor="start" x="8" y="-1059.5" font-family="Courier New" font-size="10.00"># UpdateVisualization()</text>
<text text-anchor="start" x="8" y="-1048.5" font-family="Courier New" font-size="10.00"># OnAwake()</text>
<text text-anchor="start" x="8" y="-1037.5" font-family="Courier New" font-size="10.00"># OnStart()</text>
<text text-anchor="start" x="8" y="-1026.5" font-family="Courier New" font-size="10.00"># OnUpdate()</text>
<text text-anchor="start" x="8" y="-1015.5" font-family="Courier New" font-size="10.00"># Solve()</text>
<text text-anchor="start" x="8" y="-1004.5" font-family="Courier New" font-size="10.00">&#45; OnApplicationPause()</text>
<text text-anchor="start" x="8" y="-993.5" font-family="Courier New" font-size="10.00">&#45; OnApplicationQuit()</text>
</a>
</g>
</g>
<!-- Node4&#45;&gt;Node3 -->
<g id="edge3" class="edge"><title>Node4&#45;&gt;Node3</title>
<path fill="none" stroke="midnightblue" d="M85.7114,-976.041C86.6177,-963.353 87.5203,-950.716 88.3728,-938.781"/>
<polygon fill="none" stroke="midnightblue" points="82.2061,-975.99 84.9847,-986.214 89.1884,-976.489 82.2061,-975.99"/>
</g>
<!-- Node5 -->
<g id="node5" class="node"><title>Node5</title>
<g id="a_node5"><a xlink:href="../../da/d4f/class_c2_m2_1_1_visualization_1_1_l_u_t_gradient.html" target="_top" xlink:title="Create a fast and memory&#45;friendly color lookup table from a gradient">
<polygon fill="white" stroke="black" points="173,-1008.5 173,-1175.5 370,-1175.5 370,-1008.5 173,-1008.5"/>
<text text-anchor="middle" x="271.5" y="-1163.5" font-family="Courier New" font-size="10.00">C2M2.Visualization.LUTGradient</text>
<polyline fill="none" stroke="black" points="173,-1156.5 370,-1156.5 "/>
<text text-anchor="start" x="181" y="-1144.5" font-family="Courier New" font-size="10.00">+ extremaMethod</text>
<text text-anchor="start" x="181" y="-1133.5" font-family="Courier New" font-size="10.00">+ globalMax</text>
<text text-anchor="start" x="181" y="-1122.5" font-family="Courier New" font-size="10.00">+ globalMin</text>
<text text-anchor="start" x="181" y="-1111.5" font-family="Courier New" font-size="10.00">+ LutRes</text>
<text text-anchor="start" x="181" y="-1100.5" font-family="Courier New" font-size="10.00">+ Gradient</text>
<text text-anchor="start" x="181" y="-1089.5" font-family="Courier New" font-size="10.00">+ gradientLUT</text>
<text text-anchor="start" x="181" y="-1078.5" font-family="Courier New" font-size="10.00">&#45; lutRes</text>
<text text-anchor="start" x="181" y="-1067.5" font-family="Courier New" font-size="10.00">&#45; gradient</text>
<polyline fill="none" stroke="black" points="173,-1060.5 370,-1060.5 "/>
<text text-anchor="start" x="181" y="-1048.5" font-family="Courier New" font-size="10.00">+ Evaluate()</text>
<text text-anchor="start" x="181" y="-1037.5" font-family="Courier New" font-size="10.00">+ Evaluate()</text>
<text text-anchor="start" x="181" y="-1026.5" font-family="Courier New" font-size="10.00">&#45; BuildLUT()</text>
<text text-anchor="start" x="181" y="-1015.5" font-family="Courier New" font-size="10.00">&#45; RescaleArray()</text>
</a>
</g>
</g>
<!-- Node5&#45;&gt;Node3 -->
<g id="edge4" class="edge"><title>Node5&#45;&gt;Node3</title>
<path fill="none" stroke="#404040" d="M205.725,-1008.23C190.15,-988.627 173.555,-967.744 158.036,-948.214"/>
<polygon fill="none" stroke="#404040" points="157.979,-948.142 151.115,-945.933 150.514,-938.747 157.378,-940.956 157.979,-948.142"/>
<text text-anchor="middle" x="218" y="-960" font-family="Courier New" font-size="10.00"> +extremaMethod</text>
</g>
<!-- Node6 -->
<g id="node6" class="node"><title>Node6</title>
<g id="a_node6"><a xlink:title=" ">
<polygon fill="white" stroke="#bfbfbf" points="224,-1235.5 224,-1292.5 319,-1292.5 319,-1235.5 224,-1235.5"/>
<text text-anchor="middle" x="271.5" y="-1280.5" font-family="Courier New" font-size="10.00">MonoBehaviour</text>
<polyline fill="none" stroke="#bfbfbf" points="224,-1273.5 319,-1273.5 "/>
<text text-anchor="middle" x="271.5" y="-1261.5" font-family="Courier New" font-size="10.00"> </text>
<polyline fill="none" stroke="#bfbfbf" points="224,-1254.5 319,-1254.5 "/>
<text text-anchor="middle" x="271.5" y="-1242.5" font-family="Courier New" font-size="10.00"> </text>
</a>
</g>
</g>
<!-- Node6&#45;&gt;Node5 -->
<g id="edge5" class="edge"><title>Node6&#45;&gt;Node5</title>
<path fill="none" stroke="midnightblue" d="M271.5,-1225.15C271.5,-1210.48 271.5,-1193.06 271.5,-1175.77"/>
<polygon fill="none" stroke="midnightblue" points="268,-1225.31 271.5,-1235.31 275,-1225.31 268,-1225.31"/>
</g>
<!-- Node7 -->
<g id="node7" class="node"><title>Node7</title>
<g id="a_node7"><a xlink:title=" ">
<polygon fill="white" stroke="#bfbfbf" points="189,-837.5 189,-894.5 230,-894.5 230,-837.5 189,-837.5"/>
<text text-anchor="middle" x="209.5" y="-882.5" font-family="Courier New" font-size="10.00">C2M2</text>
<polyline fill="none" stroke="#bfbfbf" points="189,-875.5 230,-875.5 "/>
<text text-anchor="middle" x="209.5" y="-863.5" font-family="Courier New" font-size="10.00"> </text>
<polyline fill="none" stroke="#bfbfbf" points="189,-856.5 230,-856.5 "/>
<text text-anchor="middle" x="209.5" y="-844.5" font-family="Courier New" font-size="10.00"> </text>
</a>
</g>
</g>
<!-- Node7&#45;&gt;Node2 -->
<g id="edge6" class="edge"><title>Node7&#45;&gt;Node2</title>
<path fill="none" stroke="#404040" d="M209.212,-837.215C208.974,-804.066 208.896,-746.973 210.5,-698 210.856,-687.126 211.367,-675.692 211.953,-664.402"/>
<polygon fill="none" stroke="#404040" points="211.962,-664.224 208.294,-658.015 212.614,-652.241 216.282,-658.45 211.962,-664.224"/>
<text text-anchor="middle" x="235" y="-734" font-family="Courier New" font-size="10.00"> #grid1D</text>
</g>
<!-- Node8 -->
<g id="node8" class="node"><title>Node8</title>
<g id="a_node8"><a xlink:title=" ">
<polygon fill="white" stroke="#bfbfbf" points="318,-837.5 318,-894.5 371,-894.5 371,-837.5 318,-837.5"/>
<text text-anchor="middle" x="344.5" y="-882.5" font-family="Courier New" font-size="10.00">static</text>
<polyline fill="none" stroke="#bfbfbf" points="318,-875.5 371,-875.5 "/>
<text text-anchor="middle" x="344.5" y="-863.5" font-family="Courier New" font-size="10.00"> </text>
<polyline fill="none" stroke="#bfbfbf" points="318,-856.5 371,-856.5 "/>
<text text-anchor="middle" x="344.5" y="-844.5" font-family="Courier New" font-size="10.00"> </text>
</a>
</g>
</g>
<!-- Node8&#45;&gt;Node2 -->
<g id="edge7" class="edge"><title>Node8&#45;&gt;Node2</title>
<path fill="none" stroke="#404040" d="M319.703,-837.245C305.762,-820.319 289.086,-797.643 278.5,-775 263.571,-743.069 269.667,-731.75 259.5,-698 256.126,-686.799 252.306,-675.095 248.379,-663.599"/>
<polygon fill="none" stroke="#404040" points="248.358,-663.538 242.614,-659.178 244.429,-652.199 250.173,-656.559 248.358,-663.538"/>
<text text-anchor="middle" x="330" y="-767" font-family="Courier New" font-size="10.00"> &#45;specTris</text>
<text text-anchor="middle" x="330" y="-756" font-family="Courier New" font-size="10.00">&#45;activeCellFolder</text>
<text text-anchor="middle" x="330" y="-745" font-family="Courier New" font-size="10.00">&#45;neuronCellFolder</text>
<text text-anchor="middle" x="330" y="-734" font-family="Courier New" font-size="10.00">&#45;cngExt</text>
<text text-anchor="middle" x="330" y="-723" font-family="Courier New" font-size="10.00">&#45;specBlownup</text>
<text text-anchor="middle" x="330" y="-712" font-family="Courier New" font-size="10.00">&#45;spec1D</text>
<text text-anchor="middle" x="330" y="-701" font-family="Courier New" font-size="10.00">&#45;ugxExt</text>
</g>
<!-- Node9 -->
<g id="node9" class="node"><title>Node9</title>
<g id="a_node9"><a xlink:href="../../da/df6/class_c2_m2_1_1_neuronal_dynamics_1_1_u_g_x_1_1_neuron_cell.html" target="_top" xlink:title=" ">
<polygon fill="white" stroke="black" points="312,-479.5 312,-679.5 485,-679.5 485,-479.5 312,-479.5"/>
<text text-anchor="start" x="320" y="-667.5" font-family="Courier New" font-size="10.00">C2M2.NeuronalDynamics.UGX.</text>
<text text-anchor="middle" x="398.5" y="-656.5" font-family="Courier New" font-size="10.00">NeuronCell</text>
<polyline fill="none" stroke="black" points="312,-649.5 485,-649.5 "/>
<text text-anchor="start" x="320" y="-637.5" font-family="Courier New" font-size="10.00">+ nodeData</text>
<text text-anchor="start" x="320" y="-626.5" font-family="Courier New" font-size="10.00">+ edges</text>
<text text-anchor="start" x="320" y="-615.5" font-family="Courier New" font-size="10.00">+ edgeLengths</text>
<text text-anchor="start" x="320" y="-604.5" font-family="Courier New" font-size="10.00">+ boundaryID</text>
<text text-anchor="start" x="320" y="-593.5" font-family="Courier New" font-size="10.00">+ somaID</text>
<text text-anchor="start" x="320" y="-582.5" font-family="Courier New" font-size="10.00">+ vertCount</text>
<text text-anchor="start" x="320" y="-571.5" font-family="Courier New" font-size="10.00">+ edgeCount</text>
<polyline fill="none" stroke="black" points="312,-564.5 485,-564.5 "/>
<text text-anchor="start" x="320" y="-552.5" font-family="Courier New" font-size="10.00">+ NeuronCell()</text>
<text text-anchor="start" x="320" y="-541.5" font-family="Courier New" font-size="10.00">+ ReadDataTable()</text>
<text text-anchor="start" x="320" y="-530.5" font-family="Courier New" font-size="10.00">+ NodeToString()</text>
<text text-anchor="start" x="320" y="-519.5" font-family="Courier New" font-size="10.00">+ EdgeToString()</text>
<text text-anchor="start" x="320" y="-508.5" font-family="Courier New" font-size="10.00">+ ToString()</text>
<text text-anchor="start" x="320" y="-497.5" font-family="Courier New" font-size="10.00">&#45; NodeNeighborsToString()</text>
<text text-anchor="start" x="320" y="-486.5" font-family="Courier New" font-size="10.00">&#45; GetEdgeLength()</text>
</a>
</g>
</g>
<!-- Node8&#45;&gt;Node9 -->
<g id="edge9" class="edge"><title>Node8&#45;&gt;Node9</title>
<path fill="none" stroke="#404040" d="M360.344,-837.181C369.391,-819.865 379.998,-796.809 385.5,-775 392.206,-748.416 395.97,-719.18 397.981,-691.632"/>
<polygon fill="none" stroke="#404040" points="397.99,-691.502 394.385,-685.257 398.763,-679.527 402.368,-685.772 397.99,-691.502"/>
<text text-anchor="middle" x="452" y="-745" font-family="Courier New" font-size="10.00"> &#45;nodeFormatString</text>
<text text-anchor="middle" x="452" y="-734" font-family="Courier New" font-size="10.00">&#45;edgeFormatString</text>
<text text-anchor="middle" x="452" y="-723" font-family="Courier New" font-size="10.00">&#45;cellFormatString</text>
</g>
<!-- Node9&#45;&gt;Node1 -->
<g id="edge8" class="edge"><title>Node9&#45;&gt;Node1</title>
<path fill="none" stroke="#404040" d="M362.256,-479.24C358.049,-467.718 353.637,-455.637 349.115,-443.251"/>
<polygon fill="none" stroke="#404040" points="349.048,-443.07 343.233,-438.806 344.932,-431.798 350.748,-436.062 349.048,-443.07"/>
<text text-anchor="middle" x="377" y="-453" font-family="Courier New" font-size="10.00"> &#45;myCell</text>
</g>
</g>
</svg>
