<?xml version="1.0" encoding="UTF-8" standalone="no"?>
<!DOCTYPE svg PUBLIC "-//W3C//DTD SVG 1.1//EN"
 "http://www.w3.org/Graphics/SVG/1.1/DTD/svg11.dtd">
<!-- Generated by graphviz version 2.38.0 (20140413.2041)
 -->
<!-- Title: C2M2.NeuronalDynamics.Simulation.CellSolver2FullAP_DendriteImplicit Pages: 1 -->
<!--zoomable 1279 -->
<svg id="main" version="1.1" xmlns="http://www.w3.org/2000/svg" xmlns:xlink="http://www.w3.org/1999/xlink" xml:space="preserve" onload="init(evt)">
<style type="text/css"><![CDATA[
.edge:hover path { stroke: red; }
.edge:hover polygon { stroke: red; fill: red; }
]]></style>
<script type="text/javascript"><![CDATA[
var edges = document.getElementsByTagName('g');
if (edges && edges.length) {
  for (var i=0;i<edges.length;i++) {
    if (edges[i].id.substr(0,4)=='edge') {
      edges[i].setAttribute('class','edge');
    }
  }
}
]]></script>
        <defs>
                <circle id="rim" cx="0" cy="0" r="7"/>
                <circle id="rim2" cx="0" cy="0" r="3.5"/>
                <g id="zoomPlus">
                        <use xlink:href="#rim" fill="#404040">
                                <set attributeName="fill" to="#808080" begin="zoomplus.mouseover" end="zoomplus.mouseout"/>
                        </use>
                        <path d="M-4,0h8M0,-4v8" fill="none" stroke="white" stroke-width="1.5" pointer-events="none"/>
                </g>
                <g id="zoomMin">
                        <use xlink:href="#rim" fill="#404040">
                                <set attributeName="fill" to="#808080" begin="zoomminus.mouseover" end="zoomminus.mouseout"/>
                        </use>
                        <path d="M-4,0h8" fill="none" stroke="white" stroke-width="1.5" pointer-events="none"/>
                </g>
                <g id="dirArrow">
                        <path fill="none" stroke="white" stroke-width="1.5" d="M0,-3.0v7 M-2.5,-0.5L0,-3.0L2.5,-0.5"/>
                </g>
               <g id="resetDef">
                       <use xlink:href="#rim2" fill="#404040">
                               <set attributeName="fill" to="#808080" begin="reset.mouseover" end="reset.mouseout"/>
                       </use>
               </g>
        </defs>

<script type="text/javascript">
var viewWidth = 446;
var viewHeight = 1279;
var sectionId = 'dynsection-1';
</script>
<script xlink:href="../../svgpan.js"/>
<svg id="graph" class="graph">
<g id="viewport">
<title>C2M2.NeuronalDynamics.Simulation.CellSolver2FullAP_DendriteImplicit</title>
<polygon fill="white" stroke="none" points="-4,4 -4,-1275 441.5,-1275 441.5,4 -4,4"/>
<!-- Node1 -->
<g id="node1" class="node"><title>Node1</title>
<g id="a_node1"><a xlink:title=" ">
<polygon fill="#bfbfbf" stroke="black" points="151,-0.5 151,-431.5 372,-431.5 372,-0.5 151,-0.5"/>
<text text-anchor="start" x="159" y="-419.5" font-family="Courier New" font-size="10.00">C2M2.NeuronalDynamics.Simulation.</text>
<text text-anchor="middle" x="261.5" y="-408.5" font-family="Courier New" font-size="10.00">CellSolver2FullAP_DendriteImplicit</text>
<polyline fill="none" stroke="black" points="151,-401.5 372,-401.5 "/>
<text text-anchor="start" x="159" y="-389.5" font-family="Courier New" font-size="10.00">+ res</text>
<text text-anchor="start" x="159" y="-378.5" font-family="Courier New" font-size="10.00">+ gk</text>
<text text-anchor="start" x="159" y="-367.5" font-family="Courier New" font-size="10.00">+ gna</text>
<text text-anchor="start" x="159" y="-356.5" font-family="Courier New" font-size="10.00">+ gl</text>
<text text-anchor="start" x="159" y="-345.5" font-family="Courier New" font-size="10.00">+ ek</text>
<text text-anchor="start" x="159" y="-334.5" font-family="Courier New" font-size="10.00">+ ena</text>
<text text-anchor="start" x="159" y="-323.5" font-family="Courier New" font-size="10.00">+ el</text>
<text text-anchor="start" x="159" y="-312.5" font-family="Courier New" font-size="10.00">+ cap</text>
<text text-anchor="start" x="159" y="-301.5" font-family="Courier New" font-size="10.00">+ ni</text>
<text text-anchor="start" x="159" y="-290.5" font-family="Courier New" font-size="10.00">+ nT</text>
<text text-anchor="start" x="159" y="-279.5" font-family="Courier New" font-size="10.00">+ endTime</text>
<text text-anchor="start" x="159" y="-268.5" font-family="Courier New" font-size="10.00">+ vstart</text>
<text text-anchor="start" x="159" y="-257.5" font-family="Courier New" font-size="10.00">&#45; U</text>
<text text-anchor="start" x="159" y="-246.5" font-family="Courier New" font-size="10.00">&#45; M</text>
<text text-anchor="start" x="159" y="-235.5" font-family="Courier New" font-size="10.00">&#45; N</text>
<text text-anchor="start" x="159" y="-224.5" font-family="Courier New" font-size="10.00">&#45; H</text>
<text text-anchor="start" x="159" y="-213.5" font-family="Courier New" font-size="10.00">&#45; i</text>
<text text-anchor="start" x="159" y="-202.5" font-family="Courier New" font-size="10.00">&#45; mi</text>
<text text-anchor="start" x="159" y="-191.5" font-family="Courier New" font-size="10.00">&#45; hi</text>
<polyline fill="none" stroke="black" points="151,-184.5 372,-184.5 "/>
<text text-anchor="start" x="159" y="-172.5" font-family="Courier New" font-size="10.00">+ initialConditions()</text>
<text text-anchor="start" x="159" y="-161.5" font-family="Courier New" font-size="10.00">+ boundaryConditions()</text>
<text text-anchor="start" x="159" y="-150.5" font-family="Courier New" font-size="10.00"># SetNeuronCell()</text>
<text text-anchor="start" x="159" y="-139.5" font-family="Courier New" font-size="10.00"># Get1DValues()</text>
<text text-anchor="start" x="159" y="-128.5" font-family="Courier New" font-size="10.00"># Set1DValues()</text>
<text text-anchor="start" x="159" y="-117.5" font-family="Courier New" font-size="10.00"># Solve()</text>
<text text-anchor="start" x="159" y="-106.5" font-family="Courier New" font-size="10.00">&#45; reactF()</text>
<text text-anchor="start" x="159" y="-95.5" font-family="Courier New" font-size="10.00">&#45; fN()</text>
<text text-anchor="start" x="159" y="-84.5" font-family="Courier New" font-size="10.00">&#45; fM()</text>
<text text-anchor="start" x="159" y="-73.5" font-family="Courier New" font-size="10.00">&#45; fH()</text>
<text text-anchor="start" x="159" y="-62.5" font-family="Courier New" font-size="10.00">&#45; an()</text>
<text text-anchor="start" x="159" y="-51.5" font-family="Courier New" font-size="10.00">&#45; bn()</text>
<text text-anchor="start" x="159" y="-40.5" font-family="Courier New" font-size="10.00">&#45; am()</text>
<text text-anchor="start" x="159" y="-29.5" font-family="Courier New" font-size="10.00">&#45; bm()</text>
<text text-anchor="start" x="159" y="-18.5" font-family="Courier New" font-size="10.00">&#45; ah()</text>
<text text-anchor="start" x="159" y="-7.5" font-family="Courier New" font-size="10.00">&#45; bh()</text>
</a>
</g>
</g>
<!-- Node2 -->
<g id="node2" class="node"><title>Node2</title>
<g id="a_node2"><a xlink:href="../../d4/d5a/class_c2_m2_1_1_neuronal_dynamics_1_1_simulation_1_1_neuron_simulation1_d.html" target="_top" xlink:title="Provide an interface for 1D neuron&#45;surface simulations to be visualized and interacted with">
<polygon fill="white" stroke="black" points="99,-479.5 99,-701.5 224,-701.5 224,-479.5 99,-479.5"/>
<text text-anchor="middle" x="161.5" y="-689.5" font-family="Courier New" font-size="10.00">NeuronSimulation1D</text>
<polyline fill="none" stroke="black" points="99,-682.5 224,-682.5 "/>
<text text-anchor="start" x="107" y="-670.5" font-family="Courier New" font-size="10.00">+ visualize1D</text>
<text text-anchor="start" x="107" y="-659.5" font-family="Courier New" font-size="10.00">+ color1D</text>
<text text-anchor="start" x="107" y="-648.5" font-family="Courier New" font-size="10.00">+ lineWidth1D</text>
<text text-anchor="start" x="107" y="-637.5" font-family="Courier New" font-size="10.00">&#45; map</text>
<text text-anchor="start" x="107" y="-626.5" font-family="Courier New" font-size="10.00">&#45; neuronCellFolder</text>
<text text-anchor="start" x="107" y="-615.5" font-family="Courier New" font-size="10.00">&#45; activeCellFolder</text>
<text text-anchor="start" x="107" y="-604.5" font-family="Courier New" font-size="10.00">&#45; ugxExt</text>
<text text-anchor="start" x="107" y="-593.5" font-family="Courier New" font-size="10.00">&#45; cngExt</text>
<text text-anchor="start" x="107" y="-582.5" font-family="Courier New" font-size="10.00">&#45; spec1D</text>
<text text-anchor="start" x="107" y="-571.5" font-family="Courier New" font-size="10.00">&#45; specTris</text>
<text text-anchor="start" x="107" y="-560.5" font-family="Courier New" font-size="10.00">&#45; specBlownup</text>
<polyline fill="none" stroke="black" points="99,-553.5 224,-553.5 "/>
<text text-anchor="start" x="107" y="-541.5" font-family="Courier New" font-size="10.00">+ GetValues()</text>
<text text-anchor="start" x="107" y="-530.5" font-family="Courier New" font-size="10.00">+ SetValues()</text>
<text text-anchor="start" x="107" y="-519.5" font-family="Courier New" font-size="10.00"># Set1DValues()</text>
<text text-anchor="start" x="107" y="-508.5" font-family="Courier New" font-size="10.00"># Get1DValues()</text>
<text text-anchor="start" x="107" y="-497.5" font-family="Courier New" font-size="10.00"># SetNeuronCell()</text>
<text text-anchor="start" x="107" y="-486.5" font-family="Courier New" font-size="10.00"># BuildMesh()</text>
</a>
</g>
</g>
<!-- Node2&#45;&gt;Node1 -->
<g id="edge1" class="edge"><title>Node2&#45;&gt;Node1</title>
<path fill="none" stroke="midnightblue" d="M193.713,-469.506C197.008,-457.233 200.421,-444.519 203.884,-431.618"/>
<polygon fill="none" stroke="midnightblue" points="190.31,-468.684 191.097,-479.25 197.071,-470.499 190.31,-468.684"/>
</g>
<!-- Node3 -->
<g id="node3" class="node"><title>Node3</title>
<g id="a_node3"><a xlink:href="../../d4/de1/class_c2_m2_1_1_simulation_1_1_surface_simulation.html" target="_top" xlink:title="Simulation of type double[] for visualizing scalar fields on mesh surfaces">
<polygon fill="white" stroke="black" points="16,-771.5 16,-916.5 171,-916.5 171,-771.5 16,-771.5"/>
<text text-anchor="middle" x="93.5" y="-904.5" font-family="Courier New" font-size="10.00">SurfaceSimulation</text>
<polyline fill="none" stroke="black" points="16,-897.5 171,-897.5 "/>
<text text-anchor="start" x="24" y="-885.5" font-family="Courier New" font-size="10.00">+ gradient</text>
<text text-anchor="start" x="24" y="-874.5" font-family="Courier New" font-size="10.00">+ globalMax</text>
<text text-anchor="start" x="24" y="-863.5" font-family="Courier New" font-size="10.00">+ globalMin</text>
<text text-anchor="start" x="24" y="-852.5" font-family="Courier New" font-size="10.00">+ colorLUT</text>
<text text-anchor="start" x="24" y="-841.5" font-family="Courier New" font-size="10.00">&#45; mf</text>
<text text-anchor="start" x="24" y="-830.5" font-family="Courier New" font-size="10.00">&#45; mr</text>
<polyline fill="none" stroke="black" points="16,-823.5 171,-823.5 "/>
<text text-anchor="start" x="24" y="-811.5" font-family="Courier New" font-size="10.00"># BuildMesh()</text>
<text text-anchor="start" x="24" y="-800.5" font-family="Courier New" font-size="10.00"># UpdateVisualization()</text>
<text text-anchor="start" x="24" y="-789.5" font-family="Courier New" font-size="10.00"># OnAwake()</text>
<text text-anchor="start" x="24" y="-778.5" font-family="Courier New" font-size="10.00">&#45; UpdateVisualization()</text>
</a>
</g>
</g>
<!-- Node3&#45;&gt;Node2 -->
<g id="edge2" class="edge"><title>Node3&#45;&gt;Node2</title>
<path fill="none" stroke="midnightblue" d="M115.544,-761.47C120.688,-742.446 126.25,-721.874 131.669,-701.832"/>
<polygon fill="none" stroke="midnightblue" points="112.127,-760.7 112.895,-771.267 118.884,-762.527 112.127,-760.7"/>
</g>
<!-- Node4 -->
<g id="node4" class="node"><title>Node4</title>
<g id="a_node4"><a xlink:href="../../db/d39/class_c2_m2_1_1_simulation_1_1_simulation.html" target="_top" xlink:title=" ">
<polygon fill="white" stroke="black" points="0,-964.5 0,-1175.5 155,-1175.5 155,-964.5 0,-964.5"/>
<text text-anchor="middle" x="77.5" y="-1163.5" font-family="Courier New" font-size="10.00">Simulation&lt; double[]&gt;</text>
<polyline fill="none" stroke="black" points="0,-1156.5 155,-1156.5 "/>
<text text-anchor="start" x="8" y="-1144.5" font-family="Courier New" font-size="10.00">+ startOnAwake</text>
<text text-anchor="start" x="8" y="-1133.5" font-family="Courier New" font-size="10.00"># mutex</text>
<text text-anchor="start" x="8" y="-1122.5" font-family="Courier New" font-size="10.00">&#45; solveThread</text>
<polyline fill="none" stroke="black" points="0,-1115.5 155,-1115.5 "/>
<text text-anchor="start" x="8" y="-1103.5" font-family="Courier New" font-size="10.00">+ GetValues()</text>
<text text-anchor="start" x="8" y="-1092.5" font-family="Courier New" font-size="10.00">+ StartSimulation()</text>
<text text-anchor="start" x="8" y="-1081.5" font-family="Courier New" font-size="10.00">+ StopSimulation()</text>
<text text-anchor="start" x="8" y="-1070.5" font-family="Courier New" font-size="10.00">+ Awake()</text>
<text text-anchor="start" x="8" y="-1059.5" font-family="Courier New" font-size="10.00">+ Start()</text>
<text text-anchor="start" x="8" y="-1048.5" font-family="Courier New" font-size="10.00">+ Update()</text>
<text text-anchor="start" x="8" y="-1037.5" font-family="Courier New" font-size="10.00"># UpdateVisualization()</text>
<text text-anchor="start" x="8" y="-1026.5" font-family="Courier New" font-size="10.00"># Solve()</text>
<text text-anchor="start" x="8" y="-1015.5" font-family="Courier New" font-size="10.00"># OnAwake()</text>
<text text-anchor="start" x="8" y="-1004.5" font-family="Courier New" font-size="10.00"># OnStart()</text>
<text text-anchor="start" x="8" y="-993.5" font-family="Courier New" font-size="10.00"># OnUpdate()</text>
<text text-anchor="start" x="8" y="-982.5" font-family="Courier New" font-size="10.00">&#45; OnApplicationPause()</text>
<text text-anchor="start" x="8" y="-971.5" font-family="Courier New" font-size="10.00">&#45; OnApplicationQuit()</text>
</a>
</g>
</g>
<!-- Node4&#45;&gt;Node3 -->
<g id="edge3" class="edge"><title>Node4&#45;&gt;Node3</title>
<path fill="none" stroke="midnightblue" d="M85.7114,-954.041C86.6177,-941.353 87.5203,-928.716 88.3728,-916.781"/>
<polygon fill="none" stroke="midnightblue" points="82.2061,-953.99 84.9847,-964.214 89.1884,-954.489 82.2061,-953.99"/>
</g>
<!-- Node5 -->
<g id="node5" class="node"><title>Node5</title>
<g id="a_node5"><a xlink:href="../../da/d4f/class_c2_m2_1_1_visualization_1_1_l_u_t_gradient.html" target="_top" xlink:title="Create a fast and memory&#45;friendly color lookup table from a gradient">
<polygon fill="white" stroke="black" points="173,-986.5 173,-1153.5 370,-1153.5 370,-986.5 173,-986.5"/>
<text text-anchor="middle" x="271.5" y="-1141.5" font-family="Courier New" font-size="10.00">C2M2.Visualization.LUTGradient</text>
<polyline fill="none" stroke="black" points="173,-1134.5 370,-1134.5 "/>
<text text-anchor="start" x="181" y="-1122.5" font-family="Courier New" font-size="10.00">+ extremaMethod</text>
<text text-anchor="start" x="181" y="-1111.5" font-family="Courier New" font-size="10.00">+ globalMax</text>
<text text-anchor="start" x="181" y="-1100.5" font-family="Courier New" font-size="10.00">+ globalMin</text>
<text text-anchor="start" x="181" y="-1089.5" font-family="Courier New" font-size="10.00">+ LutRes</text>
<text text-anchor="start" x="181" y="-1078.5" font-family="Courier New" font-size="10.00">+ Gradient</text>
<text text-anchor="start" x="181" y="-1067.5" font-family="Courier New" font-size="10.00">+ gradientLUT</text>
<text text-anchor="start" x="181" y="-1056.5" font-family="Courier New" font-size="10.00">&#45; lutRes</text>
<text text-anchor="start" x="181" y="-1045.5" font-family="Courier New" font-size="10.00">&#45; gradient</text>
<polyline fill="none" stroke="black" points="173,-1038.5 370,-1038.5 "/>
<text text-anchor="start" x="181" y="-1026.5" font-family="Courier New" font-size="10.00">+ Evaluate()</text>
<text text-anchor="start" x="181" y="-1015.5" font-family="Courier New" font-size="10.00">+ Evaluate()</text>
<text text-anchor="start" x="181" y="-1004.5" font-family="Courier New" font-size="10.00">&#45; BuildLUT()</text>
<text text-anchor="start" x="181" y="-993.5" font-family="Courier New" font-size="10.00">&#45; RescaleArray()</text>
</a>
</g>
</g>
<!-- Node5&#45;&gt;Node3 -->
<g id="edge4" class="edge"><title>Node5&#45;&gt;Node3</title>
<path fill="none" stroke="#404040" d="M205.725,-986.227C190.15,-966.627 173.555,-945.744 158.036,-926.214"/>
<polygon fill="none" stroke="#404040" points="157.979,-926.142 151.115,-923.933 150.514,-916.747 157.378,-918.956 157.979,-926.142"/>
<text text-anchor="middle" x="218" y="-938" font-family="Courier New" font-size="10.00"> +extremaMethod</text>
</g>
<!-- Node6 -->
<g id="node6" class="node"><title>Node6</title>
<g id="a_node6"><a xlink:title=" ">
<polygon fill="white" stroke="#bfbfbf" points="224,-1213.5 224,-1270.5 319,-1270.5 319,-1213.5 224,-1213.5"/>
<text text-anchor="middle" x="271.5" y="-1258.5" font-family="Courier New" font-size="10.00">MonoBehaviour</text>
<polyline fill="none" stroke="#bfbfbf" points="224,-1251.5 319,-1251.5 "/>
<text text-anchor="middle" x="271.5" y="-1239.5" font-family="Courier New" font-size="10.00"> </text>
<polyline fill="none" stroke="#bfbfbf" points="224,-1232.5 319,-1232.5 "/>
<text text-anchor="middle" x="271.5" y="-1220.5" font-family="Courier New" font-size="10.00"> </text>
</a>
</g>
</g>
<!-- Node6&#45;&gt;Node5 -->
<g id="edge5" class="edge"><title>Node6&#45;&gt;Node5</title>
<path fill="none" stroke="midnightblue" d="M271.5,-1203.15C271.5,-1188.48 271.5,-1171.06 271.5,-1153.77"/>
<polygon fill="none" stroke="midnightblue" points="268,-1203.31 271.5,-1213.31 275,-1203.31 268,-1203.31"/>
</g>
<!-- Node7 -->
<g id="node7" class="node"><title>Node7</title>
<g id="a_node7"><a xlink:title=" ">
<polygon fill="white" stroke="#bfbfbf" points="189,-815.5 189,-872.5 230,-872.5 230,-815.5 189,-815.5"/>
<text text-anchor="middle" x="209.5" y="-860.5" font-family="Courier New" font-size="10.00">C2M2</text>
<polyline fill="none" stroke="#bfbfbf" points="189,-853.5 230,-853.5 "/>
<text text-anchor="middle" x="209.5" y="-841.5" font-family="Courier New" font-size="10.00"> </text>
<polyline fill="none" stroke="#bfbfbf" points="189,-834.5 230,-834.5 "/>
<text text-anchor="middle" x="209.5" y="-822.5" font-family="Courier New" font-size="10.00"> </text>
</a>
</g>
</g>
<!-- Node7&#45;&gt;Node2 -->
<g id="edge6" class="edge"><title>Node7&#45;&gt;Node2</title>
<path fill="none" stroke="#404040" d="M204.18,-815.124C199.402,-790.089 192.039,-751.51 184.766,-713.402"/>
<polygon fill="none" stroke="#404040" points="184.764,-713.393 179.71,-708.249 182.514,-701.606 187.568,-706.749 184.764,-713.393"/>
<text text-anchor="middle" x="216" y="-734" font-family="Courier New" font-size="10.00"> #grid1D</text>
</g>
<!-- Node8 -->
<g id="node8" class="node"><title>Node8</title>
<g id="a_node8"><a xlink:href="../../da/df6/class_c2_m2_1_1_neuronal_dynamics_1_1_u_g_x_1_1_neuron_cell.html" target="_top" xlink:title=" ">
<polygon fill="white" stroke="black" points="242,-490.5 242,-690.5 415,-690.5 415,-490.5 242,-490.5"/>
<text text-anchor="start" x="250" y="-678.5" font-family="Courier New" font-size="10.00">C2M2.NeuronalDynamics.UGX.</text>
<text text-anchor="middle" x="328.5" y="-667.5" font-family="Courier New" font-size="10.00">NeuronCell</text>
<polyline fill="none" stroke="black" points="242,-660.5 415,-660.5 "/>
<text text-anchor="start" x="250" y="-648.5" font-family="Courier New" font-size="10.00">+ nodeData</text>
<text text-anchor="start" x="250" y="-637.5" font-family="Courier New" font-size="10.00">+ edges</text>
<text text-anchor="start" x="250" y="-626.5" font-family="Courier New" font-size="10.00">+ edgeLengths</text>
<text text-anchor="start" x="250" y="-615.5" font-family="Courier New" font-size="10.00">+ boundaryID</text>
<text text-anchor="start" x="250" y="-604.5" font-family="Courier New" font-size="10.00">+ somaID</text>
<text text-anchor="start" x="250" y="-593.5" font-family="Courier New" font-size="10.00">+ vertCount</text>
<text text-anchor="start" x="250" y="-582.5" font-family="Courier New" font-size="10.00">+ edgeCount</text>
<polyline fill="none" stroke="black" points="242,-575.5 415,-575.5 "/>
<text text-anchor="start" x="250" y="-563.5" font-family="Courier New" font-size="10.00">+ NeuronCell()</text>
<text text-anchor="start" x="250" y="-552.5" font-family="Courier New" font-size="10.00">+ ReadDataTable()</text>
<text text-anchor="start" x="250" y="-541.5" font-family="Courier New" font-size="10.00">+ NodeToString()</text>
<text text-anchor="start" x="250" y="-530.5" font-family="Courier New" font-size="10.00">+ EdgeToString()</text>
<text text-anchor="start" x="250" y="-519.5" font-family="Courier New" font-size="10.00">+ ToString()</text>
<text text-anchor="start" x="250" y="-508.5" font-family="Courier New" font-size="10.00">&#45; NodeNeighborsToString()</text>
<text text-anchor="start" x="250" y="-497.5" font-family="Courier New" font-size="10.00">&#45; GetEdgeLength()</text>
</a>
</g>
</g>
<!-- Node8&#45;&gt;Node1 -->
<g id="edge7" class="edge"><title>Node8&#45;&gt;Node1</title>
<path fill="none" stroke="#404040" d="M310.633,-490.166C308.008,-475.568 305.217,-460.051 302.35,-444.115"/>
<polygon fill="none" stroke="#404040" points="302.269,-443.665 297.27,-438.468 300.145,-431.854 305.144,-437.052 302.269,-443.665"/>
<text text-anchor="middle" x="330" y="-453" font-family="Courier New" font-size="10.00"> &#45;myCell</text>
</g>
<!-- Node9 -->
<g id="node9" class="node"><title>Node9</title>
<g id="a_node9"><a xlink:title=" ">
<polygon fill="white" stroke="#bfbfbf" points="302,-815.5 302,-872.5 355,-872.5 355,-815.5 302,-815.5"/>
<text text-anchor="middle" x="328.5" y="-860.5" font-family="Courier New" font-size="10.00">static</text>
<polyline fill="none" stroke="#bfbfbf" points="302,-853.5 355,-853.5 "/>
<text text-anchor="middle" x="328.5" y="-841.5" font-family="Courier New" font-size="10.00"> </text>
<polyline fill="none" stroke="#bfbfbf" points="302,-834.5 355,-834.5 "/>
<text text-anchor="middle" x="328.5" y="-822.5" font-family="Courier New" font-size="10.00"> </text>
</a>
</g>
</g>
<!-- Node9&#45;&gt;Node8 -->
<g id="edge8" class="edge"><title>Node9&#45;&gt;Node8</title>
<path fill="none" stroke="#404040" d="M328.5,-815.124C328.5,-787.77 328.5,-744.244 328.5,-702.833"/>
<polygon fill="none" stroke="#404040" points="328.5,-702.648 324.5,-696.648 328.5,-690.648 332.5,-696.648 328.5,-702.648"/>
<text text-anchor="middle" x="383" y="-745" font-family="Courier New" font-size="10.00"> &#45;nodeFormatString</text>
<text text-anchor="middle" x="383" y="-734" font-family="Courier New" font-size="10.00">&#45;edgeFormatString</text>
<text text-anchor="middle" x="383" y="-723" font-family="Courier New" font-size="10.00">&#45;cellFormatString</text>
</g>
</g>
</svg>
        <g id="navigator" transform="translate(0 0)" fill="#404254">
                <rect fill="#f2f5e9" fill-opacity="0.5" stroke="#606060" stroke-width=".5" x="0" y="0" width="60" height="60"/>
                <use id="zoomplus" xlink:href="#zoomPlus" x="17" y="9" onmousedown="handleZoom(evt,'in')"/>
                <use id="zoomminus" xlink:href="#zoomMin" x="42" y="9" onmousedown="handleZoom(evt,'out')"/>
                <use id="reset" xlink:href="#resetDef" x="30" y="36" onmousedown="handleReset()"/>
                <g id="arrowUp" xlink:href="#dirArrow" transform="translate(30 24)" onmousedown="handlePan(0,-1)">
                  <use xlink:href="#rim" fill="#404040">
                        <set attributeName="fill" to="#808080" begin="arrowUp.mouseover" end="arrowUp.mouseout"/>
                  </use>
                  <path fill="none" stroke="white" stroke-width="1.5" d="M0,-3.0v7 M-2.5,-0.5L0,-3.0L2.5,-0.5"/>
                </g>
                <g id="arrowRight" xlink:href="#dirArrow" transform="rotate(90) translate(36 -43)" onmousedown="handlePan(1,0)">
                  <use xlink:href="#rim" fill="#404040">
                        <set attributeName="fill" to="#808080" begin="arrowRight.mouseover" end="arrowRight.mouseout"/>
                  </use>
                  <path fill="none" stroke="white" stroke-width="1.5" d="M0,-3.0v7 M-2.5,-0.5L0,-3.0L2.5,-0.5"/>
                </g>
                <g id="arrowDown" xlink:href="#dirArrow" transform="rotate(180) translate(-30 -48)" onmousedown="handlePan(0,1)">
                  <use xlink:href="#rim" fill="#404040">
                        <set attributeName="fill" to="#808080" begin="arrowDown.mouseover" end="arrowDown.mouseout"/>
                  </use>
                  <path fill="none" stroke="white" stroke-width="1.5" d="M0,-3.0v7 M-2.5,-0.5L0,-3.0L2.5,-0.5"/>
                </g>
                <g id="arrowLeft" xlink:href="#dirArrow" transform="rotate(270) translate(-36 17)" onmousedown="handlePan(-1,0)">
                  <use xlink:href="#rim" fill="#404040">
                        <set attributeName="fill" to="#808080" begin="arrowLeft.mouseover" end="arrowLeft.mouseout"/>
                  </use>
                  <path fill="none" stroke="white" stroke-width="1.5" d="M0,-3.0v7 M-2.5,-0.5L0,-3.0L2.5,-0.5"/>
                </g>
        </g>
        <svg viewBox="0 0 15 15" width="100%" height="30px" preserveAspectRatio="xMaxYMin meet">
         <g id="arrow_out" transform="scale(0.3 0.3)">
          <a xlink:href="class_c2_m2_1_1_neuronal_dynamics_1_1_simulation_1_1_cell_solver2_full_a_p___dendrite_implicit__coll__graph_org.svg" target="_base">
           <rect id="button" ry="5" rx="5" y="6" x="6" height="38" width="38"
                fill="#f2f5e9" fill-opacity="0.5" stroke="#606060" stroke-width="1.0"/>
           <path id="arrow"
             d="M 11.500037,31.436501 C 11.940474,20.09759 22.043105,11.32322 32.158766,21.979434 L 37.068811,17.246167 C 37.068811,17.246167 37.088388,32 37.088388,32 L 22.160133,31.978069 C 22.160133,31.978069 26.997745,27.140456 26.997745,27.140456 C 18.528582,18.264221 13.291696,25.230495 11.500037,31.436501 z"
             style="fill:#404040;"/>
          </a>
         </g>
        </svg>
</svg>
