<?xml version="1.0" encoding="UTF-8" standalone="no"?>
<!DOCTYPE svg PUBLIC "-//W3C//DTD SVG 1.1//EN"
 "http://www.w3.org/Graphics/SVG/1.1/DTD/svg11.dtd">
<!-- Generated by graphviz version 2.46.0 (20210118.1747)
 -->
<!-- Title: C2M2.Simulation.SimulationDiffuseReact Pages: 1 -->
<svg width="298pt" height="563pt"
 viewBox="0.00 0.00 298.00 563.00" xmlns="http://www.w3.org/2000/svg" xmlns:xlink="http://www.w3.org/1999/xlink">
<g id="graph0" class="graph" transform="scale(1 1) rotate(0) translate(4 559)">
<title>C2M2.Simulation.SimulationDiffuseReact</title>
<polygon fill="white" stroke="transparent" points="-4,4 -4,-559 294,-559 294,4 -4,4"/>
<!-- Node1 -->
<g id="node1" class="node">
<title>Node1</title>
<g id="a_node1"><a xlink:title="Provide a general access point for information regarding a live simulation. Simulations should inheri...">
<polygon fill="#bfbfbf" stroke="black" points="0,-0.5 0,-321.5 173,-321.5 173,-0.5 0,-0.5"/>
<text text-anchor="start" x="8" y="-309.5" font-family="Courier New" font-size="10.00">C2M2.Simulation.Simulation</text>
<text text-anchor="middle" x="86.5" y="-298.5" font-family="Courier New" font-size="10.00">DiffuseReact</text>
<polyline fill="none" stroke="black" points="0,-291.5 173,-291.5 "/>
<text text-anchor="start" x="8" y="-279.5" font-family="Courier New" font-size="10.00">+ adaptStepsPerSec</text>
<text text-anchor="start" x="8" y="-268.5" font-family="Courier New" font-size="10.00">+ idealRenderFPS</text>
<text text-anchor="start" x="8" y="-257.5" font-family="Courier New" font-size="10.00">+ stepsPerSec</text>
<text text-anchor="start" x="8" y="-246.5" font-family="Courier New" font-size="10.00">+ simulationConditions</text>
<text text-anchor="start" x="8" y="-235.5" font-family="Courier New" font-size="10.00">+ playState</text>
<text text-anchor="start" x="8" y="-224.5" font-family="Courier New" font-size="10.00">+ paused</text>
<text text-anchor="start" x="8" y="-213.5" font-family="Courier New" font-size="10.00">+ started</text>
<text text-anchor="start" x="8" y="-202.5" font-family="Courier New" font-size="10.00">+ hasChanged</text>
<text text-anchor="start" x="8" y="-191.5" font-family="Courier New" font-size="10.00"># max</text>
<text text-anchor="start" x="8" y="-180.5" font-family="Courier New" font-size="10.00"># min</text>
<text text-anchor="start" x="8" y="-169.5" font-family="Courier New" font-size="10.00"># allowOutsideChanges</text>
<text text-anchor="start" x="8" y="-158.5" font-family="Courier New" font-size="10.00"># pauseStartTime</text>
<text text-anchor="start" x="8" y="-147.5" font-family="Courier New" font-size="10.00"># pauseTime</text>
<text text-anchor="start" x="8" y="-136.5" font-family="Courier New" font-size="10.00"># newUnpause</text>
<text text-anchor="start" x="8" y="-125.5" font-family="Courier New" font-size="10.00"># simulationRoutine</text>
<polyline fill="none" stroke="black" points="0,-118.5 173,-118.5 "/>
<text text-anchor="start" x="8" y="-106.5" font-family="Courier New" font-size="10.00">+ Initialize()</text>
<text text-anchor="start" x="8" y="-95.5" font-family="Courier New" font-size="10.00">+ StartSimulation()</text>
<text text-anchor="start" x="8" y="-84.5" font-family="Courier New" font-size="10.00">+ StopSimulation()</text>
<text text-anchor="start" x="8" y="-73.5" font-family="Courier New" font-size="10.00">+ ChangeValues()</text>
<text text-anchor="start" x="8" y="-62.5" font-family="Courier New" font-size="10.00"># Initialize()</text>
<text text-anchor="start" x="8" y="-51.5" font-family="Courier New" font-size="10.00"># Solve()</text>
<text text-anchor="start" x="8" y="-40.5" font-family="Courier New" font-size="10.00"># ApplyChanges()</text>
<text text-anchor="start" x="8" y="-29.5" font-family="Courier New" font-size="10.00">&#45; Update()</text>
<text text-anchor="start" x="8" y="-18.5" font-family="Courier New" font-size="10.00">&#45; SolveWrapper()</text>
<text text-anchor="start" x="8" y="-7.5" font-family="Courier New" font-size="10.00">&#45; AdaptStepsPerSec()</text>
</a>
</g>
</g>
<!-- Node2 -->
<g id="node2" class="node">
<title>Node2</title>
<g id="a_node2"><a xlink:title=" ">
<polygon fill="white" stroke="#bfbfbf" points="35,-497.5 35,-554.5 130,-554.5 130,-497.5 35,-497.5"/>
<text text-anchor="middle" x="82.5" y="-542.5" font-family="Courier New" font-size="10.00">MonoBehaviour</text>
<polyline fill="none" stroke="#bfbfbf" points="35,-535.5 130,-535.5 "/>
<text text-anchor="middle" x="82.5" y="-523.5" font-family="Courier New" font-size="10.00"> </text>
<polyline fill="none" stroke="#bfbfbf" points="35,-516.5 130,-516.5 "/>
<text text-anchor="middle" x="82.5" y="-504.5" font-family="Courier New" font-size="10.00"> </text>
</a>
</g>
</g>
<!-- Node2&#45;&gt;Node1 -->
<g id="edge1" class="edge">
<title>Node2&#45;&gt;Node1</title>
<path fill="none" stroke="midnightblue" d="M82.92,-487.22C83.35,-447.74 84.06,-383.13 84.74,-321.86"/>
<polygon fill="none" stroke="midnightblue" points="79.41,-487.38 82.8,-497.42 86.41,-487.46 79.41,-487.38"/>
</g>
<!-- Node3 -->
<g id="node3" class="node">
<title>Node3</title>
<g id="a_node3"><a xlink:href="../../d9/d15/class_c2_m2_1_1_simulation_1_1_object_manager.html" target="_top" xlink:title=" ">
<polygon fill="white" stroke="black" points="99,-369.5 99,-459.5 290,-459.5 290,-369.5 99,-369.5"/>
<text text-anchor="middle" x="194.5" y="-447.5" font-family="Courier New" font-size="10.00">C2M2.Simulation.ObjectManager</text>
<polyline fill="none" stroke="black" points="99,-440.5 290,-440.5 "/>
<text text-anchor="start" x="107" y="-428.5" font-family="Courier New" font-size="10.00">+ gradient</text>
<text text-anchor="start" x="107" y="-417.5" font-family="Courier New" font-size="10.00">+ vtuManager</text>
<text text-anchor="start" x="107" y="-406.5" font-family="Courier New" font-size="10.00">+ meshInfo</text>
<text text-anchor="start" x="107" y="-395.5" font-family="Courier New" font-size="10.00">+ diffusionManager</text>
<polyline fill="none" stroke="black" points="99,-388.5 290,-388.5 "/>
<text text-anchor="start" x="107" y="-376.5" font-family="Courier New" font-size="10.00">&#45; Awake()</text>
</a>
</g>
</g>
<!-- Node2&#45;&gt;Node3 -->
<g id="edge3" class="edge">
<title>Node2&#45;&gt;Node3</title>
<path fill="none" stroke="midnightblue" d="M118.11,-490.18C128.01,-480.51 138.88,-469.88 149.25,-459.74"/>
<polygon fill="none" stroke="midnightblue" points="115.47,-487.88 110.76,-497.37 120.36,-492.88 115.47,-487.88"/>
</g>
<!-- Node3&#45;&gt;Node1 -->
<g id="edge2" class="edge">
<title>Node3&#45;&gt;Node1</title>
<path fill="none" stroke="#404040" d="M175.56,-369.4C170.86,-358.45 165.53,-346.05 159.88,-332.88"/>
<polygon fill="none" stroke="#404040" points="159.79,-332.68 153.75,-328.75 155.06,-321.65 161.1,-325.59 159.79,-332.68"/>
<text text-anchor="middle" x="211" y="-343" font-family="Courier New" font-size="10.00"> #objectManager</text>
</g>
</g>
</svg>
