<?xml version="1.0" encoding="UTF-8" standalone="no"?>
<!DOCTYPE svg PUBLIC "-//W3C//DTD SVG 1.1//EN"
 "http://www.w3.org/Graphics/SVG/1.1/DTD/svg11.dtd">
<!-- Generated by graphviz version 2.46.0 (20210118.1747)
 -->
<!-- Title: C2M2.Simulation.Interactable Pages: 1 -->
<svg width="229pt" height="529pt"
 viewBox="0.00 0.00 229.00 529.00" xmlns="http://www.w3.org/2000/svg" xmlns:xlink="http://www.w3.org/1999/xlink">
<g id="graph0" class="graph" transform="scale(1 1) rotate(0) translate(4 525)">
<title>C2M2.Simulation.Interactable</title>
<polygon fill="white" stroke="transparent" points="-4,4 -4,-525 225,-525 225,4 -4,4"/>
<!-- Node1 -->
<g id="node1" class="node">
<title>Node1</title>
<g id="a_node1"><a xlink:title="Interface for interaction scripts">
<polygon fill="#bfbfbf" stroke="black" points="18,-336.5 18,-426.5 203,-426.5 203,-336.5 18,-336.5"/>
<text text-anchor="middle" x="110.5" y="-414.5" font-family="Courier New" font-size="10.00">C2M2.Simulation.Interactable</text>
<polyline fill="none" stroke="black" points="18,-407.5 203,-407.5 "/>
<text text-anchor="start" x="26" y="-395.5" font-family="Courier New" font-size="10.00">+ Heater</text>
<text text-anchor="start" x="26" y="-384.5" font-family="Courier New" font-size="10.00"># interactionType</text>
<text text-anchor="start" x="26" y="-373.5" font-family="Courier New" font-size="10.00">&#45; heater</text>
<polyline fill="none" stroke="black" points="18,-366.5 203,-366.5 "/>
<text text-anchor="start" x="26" y="-354.5" font-family="Courier New" font-size="10.00">+ SetValues()</text>
<text text-anchor="start" x="26" y="-343.5" font-family="Courier New" font-size="10.00">+ GetSimulationTime()</text>
</a>
</g>
</g>
<!-- Node3 -->
<g id="node3" class="node">
<title>Node3</title>
<g id="a_node3"><a xlink:href="../../db/d39/class_c2_m2_1_1_simulation_1_1_simulation.html" target="_top" xlink:title="Provides an base interface for simulations using a general data type T">
<polygon fill="white" stroke="black" points="0,-0.5 0,-299.5 221,-299.5 221,-0.5 0,-0.5"/>
<text text-anchor="start" x="8" y="-287.5" font-family="Courier New" font-size="10.00">C2M2.Simulation.Simulation</text>
<text text-anchor="start" x="8" y="-276.5" font-family="Courier New" font-size="10.00">&lt; ValueType, VizType, RaycastType,</text>
<text text-anchor="middle" x="110.5" y="-265.5" font-family="Courier New" font-size="10.00"> GrabType &gt;</text>
<polyline fill="none" stroke="black" points="0,-258.5 221,-258.5 "/>
<text text-anchor="start" x="8" y="-246.5" font-family="Courier New" font-size="10.00">+ dryRun</text>
<text text-anchor="start" x="8" y="-235.5" font-family="Courier New" font-size="10.00">+ startOnAwake</text>
<text text-anchor="start" x="8" y="-224.5" font-family="Courier New" font-size="10.00">+ viz</text>
<text text-anchor="start" x="8" y="-213.5" font-family="Courier New" font-size="10.00"># mutex</text>
<text text-anchor="start" x="8" y="-202.5" font-family="Courier New" font-size="10.00">&#45; solveThread</text>
<polyline fill="none" stroke="black" points="0,-195.5 221,-195.5 "/>
<text text-anchor="start" x="8" y="-183.5" font-family="Courier New" font-size="10.00">+ GetValues()</text>
<text text-anchor="start" x="8" y="-172.5" font-family="Courier New" font-size="10.00">+ Initialize()</text>
<text text-anchor="start" x="8" y="-161.5" font-family="Courier New" font-size="10.00">+ Update()</text>
<text text-anchor="start" x="8" y="-150.5" font-family="Courier New" font-size="10.00">+ StartSimulation()</text>
<text text-anchor="start" x="8" y="-139.5" font-family="Courier New" font-size="10.00">+ StopSimulation()</text>
<text text-anchor="start" x="8" y="-128.5" font-family="Courier New" font-size="10.00"># BuildVisualization()</text>
<text text-anchor="start" x="8" y="-117.5" font-family="Courier New" font-size="10.00"># UpdateVisualization()</text>
<text text-anchor="start" x="8" y="-106.5" font-family="Courier New" font-size="10.00"># Solve()</text>
<text text-anchor="start" x="8" y="-95.5" font-family="Courier New" font-size="10.00"># PreSolve()</text>
<text text-anchor="start" x="8" y="-84.5" font-family="Courier New" font-size="10.00"># OnAwakePre()</text>
<text text-anchor="start" x="8" y="-73.5" font-family="Courier New" font-size="10.00"># OnAwakePost()</text>
<text text-anchor="start" x="8" y="-62.5" font-family="Courier New" font-size="10.00"># OnStart()</text>
<text text-anchor="start" x="8" y="-51.5" font-family="Courier New" font-size="10.00"># OnUpdate()</text>
<text text-anchor="start" x="8" y="-40.5" font-family="Courier New" font-size="10.00"># OnPause()</text>
<text text-anchor="start" x="8" y="-29.5" font-family="Courier New" font-size="10.00"># OnQuit()</text>
<text text-anchor="start" x="8" y="-18.5" font-family="Courier New" font-size="10.00">&#45; OnApplicationPause()</text>
<text text-anchor="start" x="8" y="-7.5" font-family="Courier New" font-size="10.00">&#45; OnApplicationQuit()</text>
</a>
</g>
</g>
<!-- Node1&#45;&gt;Node3 -->
<g id="edge2" class="edge">
<title>Node1&#45;&gt;Node3</title>
<path fill="none" stroke="midnightblue" d="M110.5,-326.03C110.5,-317.7 110.5,-308.77 110.5,-299.53"/>
<polygon fill="none" stroke="midnightblue" points="107,-326.25 110.5,-336.25 114,-326.25 107,-326.25"/>
</g>
<!-- Node2 -->
<g id="node2" class="node">
<title>Node2</title>
<g id="a_node2"><a xlink:title=" ">
<polygon fill="white" stroke="#bfbfbf" points="63,-463.5 63,-520.5 158,-520.5 158,-463.5 63,-463.5"/>
<text text-anchor="middle" x="110.5" y="-508.5" font-family="Courier New" font-size="10.00">MonoBehaviour</text>
<polyline fill="none" stroke="#bfbfbf" points="63,-501.5 158,-501.5 "/>
<text text-anchor="middle" x="110.5" y="-489.5" font-family="Courier New" font-size="10.00"> </text>
<polyline fill="none" stroke="#bfbfbf" points="63,-482.5 158,-482.5 "/>
<text text-anchor="middle" x="110.5" y="-470.5" font-family="Courier New" font-size="10.00"> </text>
</a>
</g>
</g>
<!-- Node2&#45;&gt;Node1 -->
<g id="edge1" class="edge">
<title>Node2&#45;&gt;Node1</title>
<path fill="none" stroke="midnightblue" d="M110.5,-453.21C110.5,-444.61 110.5,-435.39 110.5,-426.55"/>
<polygon fill="none" stroke="midnightblue" points="107,-453.34 110.5,-463.34 114,-453.34 107,-453.34"/>
</g>
</g>
</svg>
