<?xml version="1.0" encoding="UTF-8" standalone="no"?>
<!DOCTYPE svg PUBLIC "-//W3C//DTD SVG 1.1//EN"
 "http://www.w3.org/Graphics/SVG/1.1/DTD/svg11.dtd">
<!-- Generated by graphviz version 2.38.0 (20140413.2041)
 -->
<!-- Title: C2M2.Interaction.UI.RaycastKey Pages: 1 -->
<svg width="279pt" height="683pt"
 viewBox="0.00 0.00 278.50 683.00" xmlns="http://www.w3.org/2000/svg" xmlns:xlink="http://www.w3.org/1999/xlink">
<g id="graph0" class="graph" transform="scale(1 1) rotate(0) translate(4 679)">
<title>C2M2.Interaction.UI.RaycastKey</title>
<polygon fill="white" stroke="none" points="-4,4 -4,-679 274.5,-679 274.5,4 -4,4"/>
<!-- Node1 -->
<g id="node1" class="node"><title>Node1</title>
<g id="a_node1"><a xlink:title=" ">
<polygon fill="#bfbfbf" stroke="black" points="0,-0.5 0,-156.5 197,-156.5 197,-0.5 0,-0.5"/>
<text text-anchor="middle" x="98.5" y="-144.5" font-family="Courier New" font-size="10.00">C2M2.Interaction.UI.RaycastKey</text>
<polyline fill="none" stroke="black" points="0,-137.5 197,-137.5 "/>
<text text-anchor="start" x="8" y="-125.5" font-family="Courier New" font-size="10.00">+ image</text>
<text text-anchor="start" x="8" y="-114.5" font-family="Courier New" font-size="10.00">+ defaultColor</text>
<text text-anchor="start" x="8" y="-103.5" font-family="Courier New" font-size="10.00">+ clickedColor</text>
<text text-anchor="start" x="8" y="-92.5" font-family="Courier New" font-size="10.00">+ inactiveColor</text>
<text text-anchor="start" x="8" y="-81.5" font-family="Courier New" font-size="10.00">+ clickTime</text>
<text text-anchor="start" x="8" y="-70.5" font-family="Courier New" font-size="10.00">+ character</text>
<text text-anchor="start" x="8" y="-59.5" font-family="Courier New" font-size="10.00">&#45; active</text>
<polyline fill="none" stroke="black" points="0,-52.5 197,-52.5 "/>
<text text-anchor="start" x="8" y="-40.5" font-family="Courier New" font-size="10.00">+ Click()</text>
<text text-anchor="start" x="8" y="-29.5" font-family="Courier New" font-size="10.00">&#45; Awake()</text>
<text text-anchor="start" x="8" y="-18.5" font-family="Courier New" font-size="10.00">&#45; Start()</text>
<text text-anchor="start" x="8" y="-7.5" font-family="Courier New" font-size="10.00">&#45; Reenable()</text>
</a>
</g>
</g>
<!-- Node2 -->
<g id="node2" class="node"><title>Node2</title>
<g id="a_node2"><a xlink:title=" ">
<polygon fill="white" stroke="#bfbfbf" points="27,-617.5 27,-674.5 122,-674.5 122,-617.5 27,-617.5"/>
<text text-anchor="middle" x="74.5" y="-662.5" font-family="Courier New" font-size="10.00">MonoBehaviour</text>
<polyline fill="none" stroke="#bfbfbf" points="27,-655.5 122,-655.5 "/>
<text text-anchor="middle" x="74.5" y="-643.5" font-family="Courier New" font-size="10.00"> </text>
<polyline fill="none" stroke="#bfbfbf" points="27,-636.5 122,-636.5 "/>
<text text-anchor="middle" x="74.5" y="-624.5" font-family="Courier New" font-size="10.00"> </text>
</a>
</g>
</g>
<!-- Node2&#45;&gt;Node1 -->
<g id="edge1" class="edge"><title>Node2&#45;&gt;Node1</title>
<path fill="none" stroke="midnightblue" d="M73.3651,-607.257C71.4341,-530.948 68.7727,-352.907 80.5,-204 81.7088,-188.651 83.617,-172.314 85.7476,-156.697"/>
<polygon fill="none" stroke="midnightblue" points="69.8684,-607.432 73.6311,-617.336 76.8659,-607.247 69.8684,-607.432"/>
</g>
<!-- Node3 -->
<g id="node3" class="node"><title>Node3</title>
<g id="a_node3"><a xlink:href="../../d4/d6f/class_c2_m2_1_1_interaction_1_1_u_i_1_1_raycast_keyboard.html" target="_top" xlink:title="Instantiates a raycastable keyboard and manages its input/output">
<polygon fill="white" stroke="black" points="90,-204.5 90,-459.5 269,-459.5 269,-204.5 90,-204.5"/>
<text text-anchor="start" x="98" y="-447.5" font-family="Courier New" font-size="10.00">C2M2.Interaction.UI.Raycast</text>
<text text-anchor="middle" x="179.5" y="-436.5" font-family="Courier New" font-size="10.00">Keyboard</text>
<polyline fill="none" stroke="black" points="90,-429.5 269,-429.5 "/>
<text text-anchor="start" x="98" y="-417.5" font-family="Courier New" font-size="10.00">+ keyPrefab</text>
<text text-anchor="start" x="98" y="-406.5" font-family="Courier New" font-size="10.00">+ specialKeyContainer</text>
<text text-anchor="start" x="98" y="-395.5" font-family="Courier New" font-size="10.00">+ lowerKeyContainer</text>
<text text-anchor="start" x="98" y="-384.5" font-family="Courier New" font-size="10.00">+ upperKeyContainer</text>
<text text-anchor="start" x="98" y="-373.5" font-family="Courier New" font-size="10.00">+ menuAnchor</text>
<text text-anchor="start" x="98" y="-362.5" font-family="Courier New" font-size="10.00">+ activeField</text>
<text text-anchor="start" x="98" y="-351.5" font-family="Courier New" font-size="10.00">&#45; hasActiveField</text>
<text text-anchor="start" x="98" y="-340.5" font-family="Courier New" font-size="10.00">&#45; lastHit</text>
<text text-anchor="start" x="98" y="-329.5" font-family="Courier New" font-size="10.00">&#45; keyPositions</text>
<text text-anchor="start" x="98" y="-318.5" font-family="Courier New" font-size="10.00">&#45; specialKeys</text>
<text text-anchor="start" x="98" y="-307.5" font-family="Courier New" font-size="10.00">&#45; specialKeyLocations</text>
<text text-anchor="start" x="98" y="-296.5" font-family="Courier New" font-size="10.00">&#45; upperCharRow1</text>
<text text-anchor="start" x="98" y="-285.5" font-family="Courier New" font-size="10.00">&#45; upperCharRow2</text>
<text text-anchor="start" x="98" y="-274.5" font-family="Courier New" font-size="10.00">&#45; upperCharRow3</text>
<polyline fill="none" stroke="black" points="90,-267.5 269,-267.5 "/>
<text text-anchor="start" x="98" y="-255.5" font-family="Courier New" font-size="10.00">+ PassChar()</text>
<text text-anchor="start" x="98" y="-244.5" font-family="Courier New" font-size="10.00">+ InputFieldActivate()</text>
<text text-anchor="start" x="98" y="-233.5" font-family="Courier New" font-size="10.00">&#45; Awake()</text>
<text text-anchor="start" x="98" y="-222.5" font-family="Courier New" font-size="10.00">&#45; OnEnable()</text>
<text text-anchor="start" x="98" y="-211.5" font-family="Courier New" font-size="10.00">&#45; BuildKeyboard()</text>
</a>
</g>
</g>
<!-- Node2&#45;&gt;Node3 -->
<g id="edge3" class="edge"><title>Node2&#45;&gt;Node3</title>
<path fill="none" stroke="midnightblue" d="M87.1024,-607.553C99.4471,-570.871 118.963,-512.881 136.885,-459.628"/>
<polygon fill="none" stroke="midnightblue" points="83.6905,-606.718 83.818,-617.312 90.3249,-608.951 83.6905,-606.718"/>
</g>
<!-- Node3&#45;&gt;Node1 -->
<g id="edge2" class="edge"><title>Node3&#45;&gt;Node1</title>
<path fill="none" stroke="#404040" d="M138.644,-204.145C134.722,-191.967 130.805,-179.804 127.039,-168.111"/>
<polygon fill="none" stroke="#404040" points="127.008,-168.014 121.361,-163.529 123.329,-156.592 128.976,-161.077 127.008,-168.014"/>
<text text-anchor="middle" x="163" y="-178" font-family="Courier New" font-size="10.00"> &#45;keyboard</text>
</g>
<!-- Node4 -->
<g id="node4" class="node"><title>Node4</title>
<g id="a_node4"><a xlink:title=" ">
<polygon fill="white" stroke="#bfbfbf" points="153,-617.5 153,-674.5 206,-674.5 206,-617.5 153,-617.5"/>
<text text-anchor="middle" x="179.5" y="-662.5" font-family="Courier New" font-size="10.00">static</text>
<polyline fill="none" stroke="#bfbfbf" points="153,-655.5 206,-655.5 "/>
<text text-anchor="middle" x="179.5" y="-643.5" font-family="Courier New" font-size="10.00"> </text>
<polyline fill="none" stroke="#bfbfbf" points="153,-636.5 206,-636.5 "/>
<text text-anchor="middle" x="179.5" y="-624.5" font-family="Courier New" font-size="10.00"> </text>
</a>
</g>
</g>
<!-- Node4&#45;&gt;Node3 -->
<g id="edge4" class="edge"><title>Node4&#45;&gt;Node3</title>
<path fill="none" stroke="#404040" d="M179.5,-617.312C179.5,-584.244 179.5,-526.495 179.5,-471.645"/>
<polygon fill="none" stroke="#404040" points="179.5,-471.628 175.5,-465.628 179.5,-459.628 183.5,-465.628 179.5,-471.628"/>
<text text-anchor="middle" x="225" y="-591" font-family="Courier New" font-size="10.00"> &#45;lowerCharRow0</text>
<text text-anchor="middle" x="225" y="-580" font-family="Courier New" font-size="10.00">&#45;positionj</text>
<text text-anchor="middle" x="225" y="-569" font-family="Courier New" font-size="10.00">&#45;lowerCharRow1</text>
<text text-anchor="middle" x="225" y="-558" font-family="Courier New" font-size="10.00">&#45;lowerCharRow2</text>
<text text-anchor="middle" x="225" y="-547" font-family="Courier New" font-size="10.00">&#45;position1i</text>
<text text-anchor="middle" x="225" y="-536" font-family="Courier New" font-size="10.00">&#45;lowerCharRow3</text>
<text text-anchor="middle" x="225" y="-525" font-family="Courier New" font-size="10.00">&#45;position0i</text>
<text text-anchor="middle" x="225" y="-514" font-family="Courier New" font-size="10.00">&#45;position3i</text>
<text text-anchor="middle" x="225" y="-503" font-family="Courier New" font-size="10.00">&#45;upperCharRow0</text>
<text text-anchor="middle" x="225" y="-492" font-family="Courier New" font-size="10.00">&#45;position2i</text>
<text text-anchor="middle" x="225" y="-481" font-family="Courier New" font-size="10.00">...</text>
</g>
</g>
</svg>
