<?xml version="1.0" encoding="UTF-8" standalone="no"?>
<!DOCTYPE svg PUBLIC "-//W3C//DTD SVG 1.1//EN"
 "http://www.w3.org/Graphics/SVG/1.1/DTD/svg11.dtd">
<!-- Generated by graphviz version 2.46.0 (20210118.1747)
 -->
<!-- Title: C2M2.Interaction.UI.RaycastKey Pages: 1 -->
<svg width="330pt" height="683pt"
 viewBox="0.00 0.00 329.50 683.00" xmlns="http://www.w3.org/2000/svg" xmlns:xlink="http://www.w3.org/1999/xlink">
<g id="graph0" class="graph" transform="scale(1 1) rotate(0) translate(4 679)">
<title>C2M2.Interaction.UI.RaycastKey</title>
<polygon fill="white" stroke="transparent" points="-4,4 -4,-679 325.5,-679 325.5,4 -4,4"/>
<!-- Node1 -->
<g id="node1" class="node">
<title>Node1</title>
<g id="a_node1"><a xlink:title=" ">
<polygon fill="#bfbfbf" stroke="black" points="0,-0.5 0,-156.5 197,-156.5 197,-0.5 0,-0.5"/>
<text text-anchor="middle" x="98.5" y="-144.5" font-family="Courier New" font-size="10.00">C2M2.Interaction.UI.RaycastKey</text>
<polyline fill="none" stroke="black" points="0,-137.5 197,-137.5 "/>
<text text-anchor="start" x="8" y="-125.5" font-family="Courier New" font-size="10.00">+ image</text>
<text text-anchor="start" x="8" y="-114.5" font-family="Courier New" font-size="10.00">+ defaultColor</text>
<text text-anchor="start" x="8" y="-103.5" font-family="Courier New" font-size="10.00">+ clickedColor</text>
<text text-anchor="start" x="8" y="-92.5" font-family="Courier New" font-size="10.00">+ inactiveColor</text>
<text text-anchor="start" x="8" y="-81.5" font-family="Courier New" font-size="10.00">+ clickTime</text>
<text text-anchor="start" x="8" y="-70.5" font-family="Courier New" font-size="10.00">+ character</text>
<text text-anchor="start" x="8" y="-59.5" font-family="Courier New" font-size="10.00">&#45; active</text>
<polyline fill="none" stroke="black" points="0,-52.5 197,-52.5 "/>
<text text-anchor="start" x="8" y="-40.5" font-family="Courier New" font-size="10.00">+ Click()</text>
<text text-anchor="start" x="8" y="-29.5" font-family="Courier New" font-size="10.00">&#45; Awake()</text>
<text text-anchor="start" x="8" y="-18.5" font-family="Courier New" font-size="10.00">&#45; Start()</text>
<text text-anchor="start" x="8" y="-7.5" font-family="Courier New" font-size="10.00">&#45; Reenable()</text>
</a>
</g>
</g>
<!-- Node2 -->
<g id="node2" class="node">
<title>Node2</title>
<g id="a_node2"><a xlink:title=" ">
<polygon fill="white" stroke="#bfbfbf" points="48,-617.5 48,-674.5 143,-674.5 143,-617.5 48,-617.5"/>
<text text-anchor="middle" x="95.5" y="-662.5" font-family="Courier New" font-size="10.00">MonoBehaviour</text>
<polyline fill="none" stroke="#bfbfbf" points="48,-655.5 143,-655.5 "/>
<text text-anchor="middle" x="95.5" y="-643.5" font-family="Courier New" font-size="10.00"> </text>
<polyline fill="none" stroke="#bfbfbf" points="48,-636.5 143,-636.5 "/>
<text text-anchor="middle" x="95.5" y="-624.5" font-family="Courier New" font-size="10.00"> </text>
</a>
</g>
</g>
<!-- Node2&#45;&gt;Node1 -->
<g id="edge1" class="edge">
<title>Node2&#45;&gt;Node1</title>
<path fill="none" stroke="midnightblue" d="M95.7,-607.13C96.19,-515.33 97.44,-279.45 98.09,-156.56"/>
<polygon fill="none" stroke="midnightblue" points="92.2,-607.32 95.65,-617.34 99.2,-607.36 92.2,-607.32"/>
</g>
<!-- Node3 -->
<g id="node3" class="node">
<title>Node3</title>
<g id="a_node3"><a xlink:href="../../d4/d6f/class_c2_m2_1_1_interaction_1_1_u_i_1_1_raycast_keyboard.html" target="_top" xlink:title="Instantiates a raycastable keyboard and manages its input/output">
<polygon fill="white" stroke="black" points="111,-204.5 111,-459.5 290,-459.5 290,-204.5 111,-204.5"/>
<text text-anchor="start" x="119" y="-447.5" font-family="Courier New" font-size="10.00">C2M2.Interaction.UI.Raycast</text>
<text text-anchor="middle" x="200.5" y="-436.5" font-family="Courier New" font-size="10.00">Keyboard</text>
<polyline fill="none" stroke="black" points="111,-429.5 290,-429.5 "/>
<text text-anchor="start" x="119" y="-417.5" font-family="Courier New" font-size="10.00">+ keyPrefab</text>
<text text-anchor="start" x="119" y="-406.5" font-family="Courier New" font-size="10.00">+ specialKeyContainer</text>
<text text-anchor="start" x="119" y="-395.5" font-family="Courier New" font-size="10.00">+ lowerKeyContainer</text>
<text text-anchor="start" x="119" y="-384.5" font-family="Courier New" font-size="10.00">+ upperKeyContainer</text>
<text text-anchor="start" x="119" y="-373.5" font-family="Courier New" font-size="10.00">+ menuAnchor</text>
<text text-anchor="start" x="119" y="-362.5" font-family="Courier New" font-size="10.00">+ activeField</text>
<text text-anchor="start" x="119" y="-351.5" font-family="Courier New" font-size="10.00">&#45; hasActiveField</text>
<text text-anchor="start" x="119" y="-340.5" font-family="Courier New" font-size="10.00">&#45; lastHit</text>
<text text-anchor="start" x="119" y="-329.5" font-family="Courier New" font-size="10.00">&#45; keyPositions</text>
<text text-anchor="start" x="119" y="-318.5" font-family="Courier New" font-size="10.00">&#45; specialKeys</text>
<text text-anchor="start" x="119" y="-307.5" font-family="Courier New" font-size="10.00">&#45; upperCharRow0</text>
<text text-anchor="start" x="119" y="-296.5" font-family="Courier New" font-size="10.00">&#45; upperCharRow1</text>
<text text-anchor="start" x="119" y="-285.5" font-family="Courier New" font-size="10.00">&#45; upperCharRow2</text>
<text text-anchor="start" x="119" y="-274.5" font-family="Courier New" font-size="10.00">&#45; upperCharRow3</text>
<polyline fill="none" stroke="black" points="111,-267.5 290,-267.5 "/>
<text text-anchor="start" x="119" y="-255.5" font-family="Courier New" font-size="10.00">+ PassChar()</text>
<text text-anchor="start" x="119" y="-244.5" font-family="Courier New" font-size="10.00">+ InputFieldActivate()</text>
<text text-anchor="start" x="119" y="-233.5" font-family="Courier New" font-size="10.00">&#45; Awake()</text>
<text text-anchor="start" x="119" y="-222.5" font-family="Courier New" font-size="10.00">&#45; OnEnable()</text>
<text text-anchor="start" x="119" y="-211.5" font-family="Courier New" font-size="10.00">&#45; BuildKeyboard()</text>
</a>
</g>
</g>
<!-- Node2&#45;&gt;Node3 -->
<g id="edge3" class="edge">
<title>Node2&#45;&gt;Node3</title>
<path fill="none" stroke="midnightblue" d="M108.1,-607.55C120.45,-570.87 139.96,-512.88 157.88,-459.63"/>
<polygon fill="none" stroke="midnightblue" points="104.69,-606.72 104.82,-617.31 111.32,-608.95 104.69,-606.72"/>
</g>
<!-- Node3&#45;&gt;Node1 -->
<g id="edge2" class="edge">
<title>Node3&#45;&gt;Node1</title>
<path fill="none" stroke="#404040" d="M149.05,-204.14C144.06,-191.84 139.08,-179.55 134.29,-167.75"/>
<polygon fill="none" stroke="#404040" points="134.28,-167.71 128.31,-163.66 129.77,-156.59 135.73,-160.65 134.28,-167.71"/>
<text text-anchor="middle" x="171" y="-178" font-family="Courier New" font-size="10.00"> &#45;keyboard</text>
</g>
<!-- Node4 -->
<g id="node4" class="node">
<title>Node4</title>
<g id="a_node4"><a xlink:title=" ">
<polygon fill="white" stroke="#bfbfbf" points="174,-617.5 174,-674.5 227,-674.5 227,-617.5 174,-617.5"/>
<text text-anchor="middle" x="200.5" y="-662.5" font-family="Courier New" font-size="10.00">static</text>
<polyline fill="none" stroke="#bfbfbf" points="174,-655.5 227,-655.5 "/>
<text text-anchor="middle" x="200.5" y="-643.5" font-family="Courier New" font-size="10.00"> </text>
<polyline fill="none" stroke="#bfbfbf" points="174,-636.5 227,-636.5 "/>
<text text-anchor="middle" x="200.5" y="-624.5" font-family="Courier New" font-size="10.00"> </text>
</a>
</g>
</g>
<!-- Node4&#45;&gt;Node3 -->
<g id="edge4" class="edge">
<title>Node4&#45;&gt;Node3</title>
<path fill="none" stroke="#404040" d="M200.5,-617.31C200.5,-584.24 200.5,-526.5 200.5,-471.64"/>
<polygon fill="none" stroke="#404040" points="200.5,-471.63 196.5,-465.63 200.5,-459.63 204.5,-465.63 200.5,-471.63"/>
<text text-anchor="middle" x="261" y="-591" font-family="Courier New" font-size="10.00"> &#45;lowerCharRow0</text>
<text text-anchor="middle" x="261" y="-580" font-family="Courier New" font-size="10.00">&#45;lowerCharRow1</text>
<text text-anchor="middle" x="261" y="-569" font-family="Courier New" font-size="10.00">&#45;lowerCharRow2</text>
<text text-anchor="middle" x="261" y="-558" font-family="Courier New" font-size="10.00">&#45;lowerCharRow3</text>
<text text-anchor="middle" x="261" y="-547" font-family="Courier New" font-size="10.00">&#45;position0i</text>
<text text-anchor="middle" x="261" y="-536" font-family="Courier New" font-size="10.00">&#45;position1i</text>
<text text-anchor="middle" x="261" y="-525" font-family="Courier New" font-size="10.00">&#45;position2i</text>
<text text-anchor="middle" x="261" y="-514" font-family="Courier New" font-size="10.00">&#45;position3i</text>
<text text-anchor="middle" x="261" y="-503" font-family="Courier New" font-size="10.00">&#45;positionj</text>
<text text-anchor="middle" x="261" y="-492" font-family="Courier New" font-size="10.00">&#45;specialKeyLocations</text>
<text text-anchor="middle" x="261" y="-481" font-family="Courier New" font-size="10.00">...</text>
</g>
</g>
</svg>
