<?xml version="1.0" encoding="UTF-8" standalone="no"?>
<!DOCTYPE svg PUBLIC "-//W3C//DTD SVG 1.1//EN"
 "http://www.w3.org/Graphics/SVG/1.1/DTD/svg11.dtd">
<!-- Generated by graphviz version 2.46.0 (20210118.1747)
 -->
<!-- Title: C2M2.Interaction.VR.VRDeviceManager Pages: 1 -->
<svg width="747pt" height="1448pt"
 viewBox="0.00 0.00 747.16 1448.00" xmlns="http://www.w3.org/2000/svg" xmlns:xlink="http://www.w3.org/1999/xlink">
<g id="graph0" class="graph" transform="scale(1 1) rotate(0) translate(4 1444)">
<title>C2M2.Interaction.VR.VRDeviceManager</title>
<polygon fill="white" stroke="transparent" points="-4,4 -4,-1444 743.16,-1444 743.16,4 -4,4"/>
<!-- Node1 -->
<g id="node1" class="node">
<title>Node1</title>
<g id="a_node1"><a xlink:title="Make sure that a VR device is loaded before using OVRPlayerController. If none is loaded,...">
<polygon fill="#bfbfbf" stroke="black" points="193.16,-0.5 193.16,-123.5 378.16,-123.5 378.16,-0.5 193.16,-0.5"/>
<text text-anchor="start" x="201.16" y="-111.5" font-family="Courier New" font-size="10.00">C2M2.Interaction.VR.VRDevice</text>
<text text-anchor="middle" x="285.66" y="-100.5" font-family="Courier New" font-size="10.00">Manager</text>
<polyline fill="none" stroke="black" points="193.16,-93.5 378.16,-93.5 "/>
<text text-anchor="start" x="201.16" y="-81.5" font-family="Courier New" font-size="10.00">+ informationOverlay</text>
<text text-anchor="start" x="201.16" y="-70.5" font-family="Courier New" font-size="10.00">+ informationDisplayTV</text>
<text text-anchor="start" x="201.16" y="-59.5" font-family="Courier New" font-size="10.00">+ VrIsActive</text>
<text text-anchor="start" x="201.16" y="-48.5" font-family="Courier New" font-size="10.00">+ vrDevice</text>
<text text-anchor="start" x="201.16" y="-37.5" font-family="Courier New" font-size="10.00">&#45; playerController</text>
<polyline fill="none" stroke="black" points="193.16,-30.5 378.16,-30.5 "/>
<text text-anchor="start" x="201.16" y="-18.5" font-family="Courier New" font-size="10.00">&#45; Awake()</text>
<text text-anchor="start" x="201.16" y="-7.5" font-family="Courier New" font-size="10.00">&#45; SwitchState()</text>
</a>
</g>
</g>
<!-- Node2 -->
<g id="node2" class="node">
<title>Node2</title>
<g id="a_node2"><a xlink:title=" ">
<polygon fill="white" stroke="#bfbfbf" points="355.16,-1282 355.16,-1339 450.16,-1339 450.16,-1282 355.16,-1282"/>
<text text-anchor="middle" x="402.66" y="-1327" font-family="Courier New" font-size="10.00">MonoBehaviour</text>
<polyline fill="none" stroke="#bfbfbf" points="355.16,-1320 450.16,-1320 "/>
<text text-anchor="middle" x="402.66" y="-1308" font-family="Courier New" font-size="10.00"> </text>
<polyline fill="none" stroke="#bfbfbf" points="355.16,-1301 450.16,-1301 "/>
<text text-anchor="middle" x="402.66" y="-1289" font-family="Courier New" font-size="10.00"> </text>
</a>
</g>
</g>
<!-- Node2&#45;&gt;Node1 -->
<g id="edge1" class="edge">
<title>Node2&#45;&gt;Node1</title>
<path fill="none" stroke="midnightblue" d="M379.04,-1272.77C356.08,-1233.49 324.66,-1168.58 324.66,-1107.5 324.66,-1107.5 324.66,-1107.5 324.66,-254 324.66,-203.83 321.38,-191.01 310.66,-142 309.34,-135.96 307.75,-129.72 306.03,-123.51"/>
<polygon fill="none" stroke="midnightblue" points="376.24,-1274.92 384.37,-1281.71 382.25,-1271.33 376.24,-1274.92"/>
</g>
<!-- Node3 -->
<g id="node3" class="node">
<title>Node3</title>
<g id="a_node3"><a xlink:href="../../d7/d46/class_movement_controller.html" target="_top" xlink:title=" ">
<polygon fill="white" stroke="black" points="10.16,-397.5 10.16,-630.5 141.16,-630.5 141.16,-397.5 10.16,-397.5"/>
<text text-anchor="middle" x="75.66" y="-618.5" font-family="Courier New" font-size="10.00">MovementController</text>
<polyline fill="none" stroke="black" points="10.16,-611.5 141.16,-611.5 "/>
<text text-anchor="start" x="18.16" y="-599.5" font-family="Courier New" font-size="10.00">+ forward</text>
<text text-anchor="start" x="18.16" y="-588.5" font-family="Courier New" font-size="10.00">+ backward</text>
<text text-anchor="start" x="18.16" y="-577.5" font-family="Courier New" font-size="10.00">+ left</text>
<text text-anchor="start" x="18.16" y="-566.5" font-family="Courier New" font-size="10.00">+ right</text>
<text text-anchor="start" x="18.16" y="-555.5" font-family="Courier New" font-size="10.00">+ upDown</text>
<text text-anchor="start" x="18.16" y="-544.5" font-family="Courier New" font-size="10.00">+ speed</text>
<text text-anchor="start" x="18.16" y="-533.5" font-family="Courier New" font-size="10.00">+ relativeTo</text>
<text text-anchor="start" x="18.16" y="-522.5" font-family="Courier New" font-size="10.00">+ ForwardPress</text>
<text text-anchor="start" x="18.16" y="-511.5" font-family="Courier New" font-size="10.00">+ BackwardPress</text>
<text text-anchor="start" x="18.16" y="-500.5" font-family="Courier New" font-size="10.00">+ LeftPress</text>
<text text-anchor="start" x="18.16" y="-489.5" font-family="Courier New" font-size="10.00">+ RightPress</text>
<text text-anchor="start" x="18.16" y="-478.5" font-family="Courier New" font-size="10.00">+ UpDownPress</text>
<text text-anchor="start" x="18.16" y="-467.5" font-family="Courier New" font-size="10.00">+ isMoving</text>
<text text-anchor="start" x="18.16" y="-456.5" font-family="Courier New" font-size="10.00">&#45; moveRoutine</text>
<polyline fill="none" stroke="black" points="10.16,-449.5 141.16,-449.5 "/>
<text text-anchor="start" x="18.16" y="-437.5" font-family="Courier New" font-size="10.00">+ EnableMovement()</text>
<text text-anchor="start" x="18.16" y="-426.5" font-family="Courier New" font-size="10.00">+ DisableMovement()</text>
<text text-anchor="start" x="18.16" y="-415.5" font-family="Courier New" font-size="10.00">&#45; Start()</text>
<text text-anchor="start" x="18.16" y="-404.5" font-family="Courier New" font-size="10.00">&#45; Movement()</text>
</a>
</g>
</g>
<!-- Node2&#45;&gt;Node3 -->
<g id="edge3" class="edge">
<title>Node2&#45;&gt;Node3</title>
<path fill="none" stroke="midnightblue" d="M346.1,-1286.61C333,-1279.12 320.14,-1269.65 310.66,-1258 159.45,-1072.31 105,-788.21 85.79,-630.55"/>
<polygon fill="none" stroke="midnightblue" points="344.69,-1289.84 355.16,-1291.49 348.01,-1283.67 344.69,-1289.84"/>
</g>
<!-- Node6 -->
<g id="node6" class="node">
<title>Node6</title>
<g id="a_node6"><a xlink:href="../../d6/d4b/class_c2_m2_1_1_interaction_1_1_signaling_1_1_press_event_signaler.html" target="_top" xlink:title="Send press, holdPress, and endPress events based on set values of Pressed and RaycastTriggerManager">
<polygon fill="white" stroke="black" points="340.16,-897.5 340.16,-1009.5 465.16,-1009.5 465.16,-897.5 340.16,-897.5"/>
<text text-anchor="middle" x="402.66" y="-997.5" font-family="Courier New" font-size="10.00">PressEventSignaler</text>
<polyline fill="none" stroke="black" points="340.16,-990.5 465.16,-990.5 "/>
<text text-anchor="start" x="348.16" y="-978.5" font-family="Courier New" font-size="10.00">+ Pressed</text>
<text text-anchor="start" x="348.16" y="-967.5" font-family="Courier New" font-size="10.00">&#45; pressedPrevFrame</text>
<polyline fill="none" stroke="black" points="340.16,-960.5 465.16,-960.5 "/>
<text text-anchor="start" x="348.16" y="-948.5" font-family="Courier New" font-size="10.00"># OnHover()</text>
<text text-anchor="start" x="348.16" y="-937.5" font-family="Courier New" font-size="10.00"># OnHoverEnd()</text>
<text text-anchor="start" x="348.16" y="-926.5" font-family="Courier New" font-size="10.00"># OnPress()</text>
<text text-anchor="start" x="348.16" y="-915.5" font-family="Courier New" font-size="10.00"># OnHoldPress()</text>
<text text-anchor="start" x="348.16" y="-904.5" font-family="Courier New" font-size="10.00"># OnEndPress()</text>
</a>
</g>
</g>
<!-- Node2&#45;&gt;Node6 -->
<g id="edge7" class="edge">
<title>Node2&#45;&gt;Node6</title>
<path fill="none" stroke="midnightblue" d="M402.66,-1271.69C402.66,-1208.83 402.66,-1082.55 402.66,-1009.72"/>
<polygon fill="none" stroke="midnightblue" points="399.16,-1271.94 402.66,-1281.94 406.16,-1271.94 399.16,-1271.94"/>
</g>
<!-- Node7 -->
<g id="node7" class="node">
<title>Node7</title>
<g id="a_node7"><a xlink:href="../../d5/df9/class_c2_m2_1_1_interaction_1_1_raycast_event_manager.html" target="_top" xlink:title="Attach this script to parent gameObject, create one child with one raycast trigger per child....">
<polygon fill="white" stroke="black" points="431.16,-689.5 431.16,-878.5 592.16,-878.5 592.16,-689.5 431.16,-689.5"/>
<text text-anchor="start" x="439.16" y="-866.5" font-family="Courier New" font-size="10.00">C2M2.Interaction.Raycast</text>
<text text-anchor="middle" x="511.66" y="-855.5" font-family="Courier New" font-size="10.00">EventManager</text>
<polyline fill="none" stroke="black" points="431.16,-848.5 592.16,-848.5 "/>
<text text-anchor="middle" x="511.66" y="-836.5" font-family="Courier New" font-size="10.00"> </text>
<polyline fill="none" stroke="black" points="431.16,-829.5 592.16,-829.5 "/>
<text text-anchor="start" x="439.16" y="-817.5" font-family="Courier New" font-size="10.00">+ TriggerChangeRight()</text>
<text text-anchor="start" x="439.16" y="-806.5" font-family="Courier New" font-size="10.00">+ TriggerChangeLeft()</text>
<text text-anchor="start" x="439.16" y="-795.5" font-family="Courier New" font-size="10.00">+ TriggerChangeBoth()</text>
<text text-anchor="start" x="439.16" y="-784.5" font-family="Courier New" font-size="10.00">+ TriggerEmptyRight()</text>
<text text-anchor="start" x="439.16" y="-773.5" font-family="Courier New" font-size="10.00">+ TriggerEmptyLeft()</text>
<text text-anchor="start" x="439.16" y="-762.5" font-family="Courier New" font-size="10.00">+ TriggerEmptyBoth()</text>
<text text-anchor="start" x="439.16" y="-751.5" font-family="Courier New" font-size="10.00">+ HoverEvent()</text>
<text text-anchor="start" x="439.16" y="-740.5" font-family="Courier New" font-size="10.00">+ HoverEndEvent()</text>
<text text-anchor="start" x="439.16" y="-729.5" font-family="Courier New" font-size="10.00">+ PressEvent()</text>
<text text-anchor="start" x="439.16" y="-718.5" font-family="Courier New" font-size="10.00">+ HoldEvent()</text>
<text text-anchor="start" x="439.16" y="-707.5" font-family="Courier New" font-size="10.00">and 7 more...</text>
<text text-anchor="start" x="439.16" y="-696.5" font-family="Courier New" font-size="10.00">&#45; Awake()</text>
</a>
</g>
</g>
<!-- Node2&#45;&gt;Node7 -->
<g id="edge9" class="edge">
<title>Node2&#45;&gt;Node7</title>
<path fill="none" stroke="midnightblue" d="M413.22,-1271.81C414.42,-1267.17 415.6,-1262.48 416.66,-1258 447.59,-1127.18 477.08,-974.47 494.78,-878.74"/>
<polygon fill="none" stroke="midnightblue" points="409.75,-1271.23 410.56,-1281.79 416.51,-1273.03 409.75,-1271.23"/>
</g>
<!-- Node9 -->
<g id="node9" class="node">
<title>Node9</title>
<g id="a_node9"><a xlink:href="../../d8/d68/class_c2_m2_1_1_interaction_1_1_raycast_press_events.html" target="_top" xlink:title="Store custom events that the corresponding RaycastTriggerManager will invoke">
<polygon fill="white" stroke="black" points="569.16,-1028.5 569.16,-1184.5 730.16,-1184.5 730.16,-1028.5 569.16,-1028.5"/>
<text text-anchor="start" x="577.16" y="-1172.5" font-family="Courier New" font-size="10.00">C2M2.Interaction.Raycast</text>
<text text-anchor="middle" x="649.66" y="-1161.5" font-family="Courier New" font-size="10.00">PressEvents</text>
<polyline fill="none" stroke="black" points="569.16,-1154.5 730.16,-1154.5 "/>
<text text-anchor="start" x="577.16" y="-1142.5" font-family="Courier New" font-size="10.00">+ OnHover</text>
<text text-anchor="start" x="577.16" y="-1131.5" font-family="Courier New" font-size="10.00">+ OnHoverEnd</text>
<text text-anchor="start" x="577.16" y="-1120.5" font-family="Courier New" font-size="10.00">+ OnPress</text>
<text text-anchor="start" x="577.16" y="-1109.5" font-family="Courier New" font-size="10.00">+ OnHoldPress</text>
<text text-anchor="start" x="577.16" y="-1098.5" font-family="Courier New" font-size="10.00">+ OnEndPress</text>
<polyline fill="none" stroke="black" points="569.16,-1091.5 730.16,-1091.5 "/>
<text text-anchor="start" x="577.16" y="-1079.5" font-family="Courier New" font-size="10.00">+ Hover()</text>
<text text-anchor="start" x="577.16" y="-1068.5" font-family="Courier New" font-size="10.00">+ EndHover()</text>
<text text-anchor="start" x="577.16" y="-1057.5" font-family="Courier New" font-size="10.00">+ Press()</text>
<text text-anchor="start" x="577.16" y="-1046.5" font-family="Courier New" font-size="10.00">+ HoldPress()</text>
<text text-anchor="start" x="577.16" y="-1035.5" font-family="Courier New" font-size="10.00">+ EndPress()</text>
</a>
</g>
</g>
<!-- Node2&#45;&gt;Node9 -->
<g id="edge12" class="edge">
<title>Node2&#45;&gt;Node9</title>
<path fill="none" stroke="midnightblue" d="M457.49,-1276.43C466.42,-1270.54 475.43,-1264.28 483.66,-1258 513.05,-1235.59 543.49,-1209.09 570.15,-1184.62"/>
<polygon fill="none" stroke="midnightblue" points="455.47,-1273.57 448.99,-1281.95 459.29,-1279.44 455.47,-1273.57"/>
</g>
<!-- Node3&#45;&gt;Node1 -->
<g id="edge2" class="edge">
<title>Node3&#45;&gt;Node1</title>
<path fill="none" stroke="#404040" d="M22.71,-397.19C-1.15,-326.43 -15.29,-237.14 28.66,-171 62.61,-119.91 125.93,-92.94 181.22,-78.72"/>
<polygon fill="none" stroke="#404040" points="181.23,-78.72 186.11,-73.42 192.88,-75.88 188,-81.19 181.23,-78.72"/>
<text text-anchor="middle" x="71.16" y="-252.5" font-family="Courier New" font-size="10.00"> &#45;emulatorMove</text>
</g>
<!-- Node14 -->
<g id="node14" class="node">
<title>Node14</title>
<g id="a_node14"><a xlink:href="../../d5/d45/class_c2_m2_1_1_interaction_1_1_v_r_1_1_moving_o_v_r_headset_emulator.html" target="_top" xlink:title="Add movement functionality to Oculus HMD headset emulator, add some additional small functionality li...">
<polygon fill="white" stroke="black" points="123.16,-171.5 123.16,-338.5 296.16,-338.5 296.16,-171.5 123.16,-171.5"/>
<text text-anchor="start" x="131.16" y="-326.5" font-family="Courier New" font-size="10.00">C2M2.Interaction.VR.Moving</text>
<text text-anchor="middle" x="209.66" y="-315.5" font-family="Courier New" font-size="10.00">OVRHeadsetEmulator</text>
<polyline fill="none" stroke="black" points="123.16,-308.5 296.16,-308.5 "/>
<text text-anchor="start" x="131.16" y="-296.5" font-family="Courier New" font-size="10.00">+ slowMoveKeys</text>
<text text-anchor="start" x="131.16" y="-285.5" font-family="Courier New" font-size="10.00">+ speed</text>
<text text-anchor="start" x="131.16" y="-274.5" font-family="Courier New" font-size="10.00">+ slowSpeed</text>
<text text-anchor="start" x="131.16" y="-263.5" font-family="Courier New" font-size="10.00">+ SlowMoving</text>
<polyline fill="none" stroke="black" points="123.16,-256.5 296.16,-256.5 "/>
<text text-anchor="start" x="131.16" y="-244.5" font-family="Courier New" font-size="10.00">&#45; Awake()</text>
<text text-anchor="start" x="131.16" y="-233.5" font-family="Courier New" font-size="10.00">&#45; Start()</text>
<text text-anchor="start" x="131.16" y="-222.5" font-family="Courier New" font-size="10.00">&#45; CheckSpeed()</text>
<text text-anchor="start" x="131.16" y="-211.5" font-family="Courier New" font-size="10.00">&#45; DisableAvatar()</text>
<text text-anchor="start" x="131.16" y="-200.5" font-family="Courier New" font-size="10.00">&#45; InitUI()</text>
<text text-anchor="start" x="131.16" y="-189.5" font-family="Courier New" font-size="10.00">&#45; OnEnable()</text>
<text text-anchor="start" x="131.16" y="-178.5" font-family="Courier New" font-size="10.00">&#45; OnDisable()</text>
</a>
</g>
</g>
<!-- Node3&#45;&gt;Node14 -->
<g id="edge19" class="edge">
<title>Node3&#45;&gt;Node14</title>
<path fill="none" stroke="#404040" d="M117.95,-397.39C124.08,-383.55 130.69,-369.8 137.66,-357 139.05,-354.45 140.5,-351.88 141.98,-349.31"/>
<polygon fill="none" stroke="#404040" points="142.14,-349.05 141.81,-341.84 148.33,-338.76 148.66,-345.96 142.14,-349.05"/>
<text text-anchor="middle" x="174.16" y="-360" font-family="Courier New" font-size="10.00"> &#45;controller</text>
</g>
<!-- Node4 -->
<g id="node4" class="node">
<title>Node4</title>
<g id="a_node4"><a xlink:href="../../d3/da8/class_c2_m2_1_1_interaction_1_1_signaling_1_1_mouse_event_signaler.html" target="_top" xlink:title=" ">
<polygon fill="white" stroke="black" points="365.16,-188 365.16,-322 550.16,-322 550.16,-188 365.16,-188"/>
<text text-anchor="start" x="373.16" y="-310" font-family="Courier New" font-size="10.00">C2M2.Interaction.Signaling.</text>
<text text-anchor="middle" x="457.66" y="-299" font-family="Courier New" font-size="10.00">MouseEventSignaler</text>
<polyline fill="none" stroke="black" points="365.16,-292 550.16,-292 "/>
<text text-anchor="start" x="373.16" y="-280" font-family="Courier New" font-size="10.00">+ grabKeys</text>
<text text-anchor="start" x="373.16" y="-269" font-family="Courier New" font-size="10.00">&#45; grabTransform</text>
<text text-anchor="start" x="373.16" y="-258" font-family="Courier New" font-size="10.00">&#45; grabVolume</text>
<polyline fill="none" stroke="black" points="365.16,-251 550.16,-251 "/>
<text text-anchor="start" x="373.16" y="-239" font-family="Courier New" font-size="10.00"># OnAwake()</text>
<text text-anchor="start" x="373.16" y="-228" font-family="Courier New" font-size="10.00"># OnStart()</text>
<text text-anchor="start" x="373.16" y="-217" font-family="Courier New" font-size="10.00"># BeginRaycastingCondition()</text>
<text text-anchor="start" x="373.16" y="-206" font-family="Courier New" font-size="10.00"># RaycastingMethod()</text>
<text text-anchor="start" x="373.16" y="-195" font-family="Courier New" font-size="10.00"># ChildsPressCondition()</text>
</a>
</g>
</g>
<!-- Node4&#45;&gt;Node1 -->
<g id="edge4" class="edge">
<title>Node4&#45;&gt;Node1</title>
<path fill="none" stroke="#404040" d="M397.99,-187.73C382.04,-170.03 364.76,-150.83 348.64,-132.93"/>
<polygon fill="none" stroke="#404040" points="348.36,-132.62 341.37,-130.84 340.33,-123.71 347.32,-125.49 348.36,-132.62"/>
<text text-anchor="middle" x="412.16" y="-145" font-family="Courier New" font-size="10.00"> &#45;mouseSignaler</text>
</g>
<!-- Node5 -->
<g id="node5" class="node">
<title>Node5</title>
<g id="a_node5"><a xlink:href="../../d6/d2d/class_c2_m2_1_1_interaction_1_1_signaling_1_1_raycast_event_signaler.html" target="_top" xlink:title=" ">
<polygon fill="white" stroke="black" points="383.16,-386.5 383.16,-641.5 532.16,-641.5 532.16,-386.5 383.16,-386.5"/>
<text text-anchor="middle" x="457.66" y="-629.5" font-family="Courier New" font-size="10.00">RaycastEventSignaler</text>
<polyline fill="none" stroke="black" points="383.16,-622.5 532.16,-622.5 "/>
<text text-anchor="start" x="391.16" y="-610.5" font-family="Courier New" font-size="10.00">+ rightHand</text>
<text text-anchor="start" x="391.16" y="-599.5" font-family="Courier New" font-size="10.00">+ layerMask</text>
<text text-anchor="start" x="391.16" y="-588.5" font-family="Courier New" font-size="10.00">+ maxRaycastDistance</text>
<text text-anchor="start" x="391.16" y="-577.5" font-family="Courier New" font-size="10.00">&#45; lastHit</text>
<text text-anchor="start" x="391.16" y="-566.5" font-family="Courier New" font-size="10.00">&#45; prevObj</text>
<polyline fill="none" stroke="black" points="383.16,-559.5 532.16,-559.5 "/>
<text text-anchor="start" x="391.16" y="-547.5" font-family="Courier New" font-size="10.00"># OnAwake()</text>
<text text-anchor="start" x="391.16" y="-536.5" font-family="Courier New" font-size="10.00"># Awake()</text>
<text text-anchor="start" x="391.16" y="-525.5" font-family="Courier New" font-size="10.00"># OnStart()</text>
<text text-anchor="start" x="391.16" y="-514.5" font-family="Courier New" font-size="10.00"># OnHover()</text>
<text text-anchor="start" x="391.16" y="-503.5" font-family="Courier New" font-size="10.00"># OnHoverEnd()</text>
<text text-anchor="start" x="391.16" y="-492.5" font-family="Courier New" font-size="10.00"># OnPress()</text>
<text text-anchor="start" x="391.16" y="-481.5" font-family="Courier New" font-size="10.00"># OnHoldPress()</text>
<text text-anchor="start" x="391.16" y="-470.5" font-family="Courier New" font-size="10.00"># OnEndPress()</text>
<text text-anchor="start" x="391.16" y="-459.5" font-family="Courier New" font-size="10.00"># OnHoverSub()</text>
<text text-anchor="start" x="391.16" y="-448.5" font-family="Courier New" font-size="10.00"># OnHoverEndSub()</text>
<text text-anchor="start" x="391.16" y="-437.5" font-family="Courier New" font-size="10.00">and 6 more...</text>
<text text-anchor="start" x="391.16" y="-426.5" font-family="Courier New" font-size="10.00">&#45; Start()</text>
<text text-anchor="start" x="391.16" y="-415.5" font-family="Courier New" font-size="10.00">&#45; FixedUpdate()</text>
<text text-anchor="start" x="391.16" y="-404.5" font-family="Courier New" font-size="10.00">&#45; OnObjectChange()</text>
<text text-anchor="start" x="391.16" y="-393.5" font-family="Courier New" font-size="10.00">&#45; FindRaycastTrigger()</text>
</a>
</g>
</g>
<!-- Node5&#45;&gt;Node4 -->
<g id="edge5" class="edge">
<title>Node5&#45;&gt;Node4</title>
<path fill="none" stroke="midnightblue" d="M457.66,-376.25C457.66,-357.49 457.66,-338.96 457.66,-322.28"/>
<polygon fill="none" stroke="midnightblue" points="454.16,-376.38 457.66,-386.38 461.16,-376.38 454.16,-376.38"/>
</g>
<!-- Node6&#45;&gt;Node5 -->
<g id="edge6" class="edge">
<title>Node6&#45;&gt;Node5</title>
<path fill="none" stroke="midnightblue" d="M404.97,-887.24C407.43,-833.76 412.32,-756.22 421.66,-689 423.8,-673.57 426.5,-657.46 429.45,-641.53"/>
<polygon fill="none" stroke="midnightblue" points="401.47,-887.12 404.52,-897.27 408.46,-887.43 401.47,-887.12"/>
</g>
<!-- Node7&#45;&gt;Node5 -->
<g id="edge8" class="edge">
<title>Node7&#45;&gt;Node5</title>
<path fill="none" stroke="#404040" d="M492.77,-689.27C490.45,-677.72 488.03,-665.73 485.61,-653.69"/>
<polygon fill="none" stroke="#404040" points="485.55,-653.42 480.44,-648.33 483.18,-641.65 488.29,-646.75 485.55,-653.42"/>
<text text-anchor="middle" x="528.16" y="-663" font-family="Courier New" font-size="10.00"> &#45;activeEvent</text>
</g>
<!-- Node8 -->
<g id="node8" class="node">
<title>Node8</title>
<g id="a_node8"><a xlink:title=" ">
<polygon fill="white" stroke="#bfbfbf" points="498.16,-1078 498.16,-1135 551.16,-1135 551.16,-1078 498.16,-1078"/>
<text text-anchor="middle" x="524.66" y="-1123" font-family="Courier New" font-size="10.00">static</text>
<polyline fill="none" stroke="#bfbfbf" points="498.16,-1116 551.16,-1116 "/>
<text text-anchor="middle" x="524.66" y="-1104" font-family="Courier New" font-size="10.00"> </text>
<polyline fill="none" stroke="#bfbfbf" points="498.16,-1097 551.16,-1097 "/>
<text text-anchor="middle" x="524.66" y="-1085" font-family="Courier New" font-size="10.00"> </text>
</a>
</g>
</g>
<!-- Node8&#45;&gt;Node7 -->
<g id="edge10" class="edge">
<title>Node8&#45;&gt;Node7</title>
<path fill="none" stroke="#404040" d="M523.54,-1077.9C521.87,-1036.66 518.63,-956.75 515.95,-890.81"/>
<polygon fill="none" stroke="#404040" points="515.95,-890.66 511.71,-884.83 515.46,-878.67 519.7,-884.5 515.95,-890.66"/>
<text text-anchor="middle" x="548.16" y="-951" font-family="Courier New" font-size="10.00"> &#45;nullHit</text>
</g>
<!-- Node9&#45;&gt;Node7 -->
<g id="edge11" class="edge">
<title>Node9&#45;&gt;Node7</title>
<path fill="none" stroke="#404040" d="M628.18,-1028.16C615.96,-988.18 599.2,-939.08 579.66,-897 578.51,-894.53 577.32,-892.04 576.1,-889.55"/>
<polygon fill="none" stroke="#404040" points="575.96,-889.28 569.68,-885.75 570.52,-878.59 576.81,-882.12 575.96,-889.28"/>
<text text-anchor="middle" x="662.16" y="-962" font-family="Courier New" font-size="10.00"> +leftTrigger</text>
<text text-anchor="middle" x="662.16" y="-951" font-family="Courier New" font-size="10.00">+rightTrigger</text>
<text text-anchor="middle" x="662.16" y="-940" font-family="Courier New" font-size="10.00">&#45;emptyTrigger</text>
</g>
<!-- Node10 -->
<g id="node10" class="node">
<title>Node10</title>
<g id="a_node10"><a xlink:href="../../d2/d43/class_c2_m2_1_1_interaction_1_1_raycast_press_events_1_1_raycast_hit_event.html" target="_top" xlink:title=" ">
<polygon fill="white" stroke="black" points="560.16,-1276.5 560.16,-1344.5 739.16,-1344.5 739.16,-1276.5 560.16,-1276.5"/>
<text text-anchor="start" x="568.16" y="-1332.5" font-family="Courier New" font-size="10.00">C2M2.Interaction.Raycast</text>
<text text-anchor="middle" x="649.66" y="-1321.5" font-family="Courier New" font-size="10.00">PressEvents.RaycastHitEvent</text>
<polyline fill="none" stroke="black" points="560.16,-1314.5 739.16,-1314.5 "/>
<text text-anchor="middle" x="649.66" y="-1302.5" font-family="Courier New" font-size="10.00"> </text>
<polyline fill="none" stroke="black" points="560.16,-1295.5 739.16,-1295.5 "/>
<text text-anchor="middle" x="649.66" y="-1283.5" font-family="Courier New" font-size="10.00"> </text>
</a>
</g>
</g>
<!-- Node10&#45;&gt;Node9 -->
<g id="edge13" class="edge">
<title>Node10&#45;&gt;Node9</title>
<path fill="none" stroke="#404040" d="M649.66,-1276.14C649.66,-1254.38 649.66,-1224.85 649.66,-1196.59"/>
<polygon fill="none" stroke="#404040" points="649.66,-1196.58 645.66,-1190.58 649.66,-1184.58 653.66,-1190.58 649.66,-1196.58"/>
<text text-anchor="middle" x="686.16" y="-1250" font-family="Courier New" font-size="10.00"> &#45;onEndPress</text>
<text text-anchor="middle" x="686.16" y="-1239" font-family="Courier New" font-size="10.00">&#45;onHoldPress</text>
<text text-anchor="middle" x="686.16" y="-1228" font-family="Courier New" font-size="10.00">&#45;onHover</text>
<text text-anchor="middle" x="686.16" y="-1217" font-family="Courier New" font-size="10.00">&#45;onHoverEnd</text>
<text text-anchor="middle" x="686.16" y="-1206" font-family="Courier New" font-size="10.00">&#45;onPress</text>
</g>
<!-- Node11 -->
<g id="node11" class="node">
<title>Node11</title>
<g id="a_node11"><a xlink:title=" ">
<polygon fill="white" stroke="#bfbfbf" points="569.16,-1382.5 569.16,-1439.5 730.16,-1439.5 730.16,-1382.5 569.16,-1382.5"/>
<text text-anchor="middle" x="649.66" y="-1427.5" font-family="Courier New" font-size="10.00">UnityEvent&lt; RaycastHit &gt;</text>
<polyline fill="none" stroke="#bfbfbf" points="569.16,-1420.5 730.16,-1420.5 "/>
<text text-anchor="middle" x="649.66" y="-1408.5" font-family="Courier New" font-size="10.00"> </text>
<polyline fill="none" stroke="#bfbfbf" points="569.16,-1401.5 730.16,-1401.5 "/>
<text text-anchor="middle" x="649.66" y="-1389.5" font-family="Courier New" font-size="10.00"> </text>
</a>
</g>
</g>
<!-- Node11&#45;&gt;Node10 -->
<g id="edge14" class="edge">
<title>Node11&#45;&gt;Node10</title>
<path fill="none" stroke="midnightblue" d="M649.66,-1372.01C649.66,-1362.96 649.66,-1353.38 649.66,-1344.58"/>
<polygon fill="none" stroke="midnightblue" points="646.16,-1372.3 649.66,-1382.3 653.16,-1372.3 646.16,-1372.3"/>
</g>
<!-- Node12 -->
<g id="node12" class="node">
<title>Node12</title>
<g id="a_node12"><a xlink:href="../../dd/d45/class_c2_m2_1_1_interaction_1_1_v_r_1_1_public_o_v_r_grabber.html" target="_top" xlink:title="Offers a public interface for other scripts to change OVRGrabber&#39;s grab volume.">
<polygon fill="white" stroke="black" points="556.16,-474.5 556.16,-553.5 729.16,-553.5 729.16,-474.5 556.16,-474.5"/>
<text text-anchor="start" x="564.16" y="-541.5" font-family="Courier New" font-size="10.00">C2M2.Interaction.VR.Public</text>
<text text-anchor="middle" x="642.66" y="-530.5" font-family="Courier New" font-size="10.00">OVRGrabber</text>
<polyline fill="none" stroke="black" points="556.16,-523.5 729.16,-523.5 "/>
<text text-anchor="start" x="564.16" y="-511.5" font-family="Courier New" font-size="10.00">+ M_GrabVolumes</text>
<text text-anchor="start" x="564.16" y="-500.5" font-family="Courier New" font-size="10.00">+ Controller</text>
<polyline fill="none" stroke="black" points="556.16,-493.5 729.16,-493.5 "/>
<text text-anchor="middle" x="642.66" y="-481.5" font-family="Courier New" font-size="10.00"> </text>
</a>
</g>
</g>
<!-- Node12&#45;&gt;Node4 -->
<g id="edge15" class="edge">
<title>Node12&#45;&gt;Node4</title>
<path fill="none" stroke="#404040" d="M614.76,-474.25C587.72,-436.67 545.95,-378.66 512.28,-331.88"/>
<polygon fill="none" stroke="#404040" points="512.24,-331.82 505.49,-329.29 505.23,-322.08 511.98,-324.62 512.24,-331.82"/>
<text text-anchor="middle" x="561.16" y="-360" font-family="Courier New" font-size="10.00"> &#45;grabber</text>
</g>
<!-- Node13 -->
<g id="node13" class="node">
<title>Node13</title>
<g id="a_node13"><a xlink:title=" ">
<polygon fill="white" stroke="#bfbfbf" points="610.16,-755.5 610.16,-812.5 687.16,-812.5 687.16,-755.5 610.16,-755.5"/>
<text text-anchor="middle" x="648.66" y="-800.5" font-family="Courier New" font-size="10.00">OVRGrabber</text>
<polyline fill="none" stroke="#bfbfbf" points="610.16,-793.5 687.16,-793.5 "/>
<text text-anchor="middle" x="648.66" y="-781.5" font-family="Courier New" font-size="10.00"> </text>
<polyline fill="none" stroke="#bfbfbf" points="610.16,-774.5 687.16,-774.5 "/>
<text text-anchor="middle" x="648.66" y="-762.5" font-family="Courier New" font-size="10.00"> </text>
</a>
</g>
</g>
<!-- Node13&#45;&gt;Node12 -->
<g id="edge16" class="edge">
<title>Node13&#45;&gt;Node12</title>
<path fill="none" stroke="midnightblue" d="M647.81,-745.12C646.68,-694.38 644.67,-604.84 643.53,-553.69"/>
<polygon fill="none" stroke="midnightblue" points="644.32,-745.41 648.04,-755.33 651.32,-745.25 644.32,-745.41"/>
</g>
<!-- Node14&#45;&gt;Node1 -->
<g id="edge17" class="edge">
<title>Node14&#45;&gt;Node1</title>
<path fill="none" stroke="#404040" d="M238.25,-171.43C241.97,-161.47 245.82,-151.47 249.66,-142 250.61,-139.65 251.59,-137.28 252.6,-134.88"/>
<polygon fill="none" stroke="#404040" points="252.71,-134.62 251.39,-127.53 257.42,-123.59 258.74,-130.68 252.71,-134.62"/>
<text text-anchor="middle" x="280.16" y="-145" font-family="Courier New" font-size="10.00"> &#45;emulator</text>
</g>
<!-- Node15 -->
<g id="node15" class="node">
<title>Node15</title>
<g id="a_node15"><a xlink:title=" ">
<polygon fill="white" stroke="#bfbfbf" points="159.16,-485.5 159.16,-542.5 284.16,-542.5 284.16,-485.5 159.16,-485.5"/>
<text text-anchor="middle" x="221.66" y="-530.5" font-family="Courier New" font-size="10.00">OVRHeadsetEmulator</text>
<polyline fill="none" stroke="#bfbfbf" points="159.16,-523.5 284.16,-523.5 "/>
<text text-anchor="middle" x="221.66" y="-511.5" font-family="Courier New" font-size="10.00"> </text>
<polyline fill="none" stroke="#bfbfbf" points="159.16,-504.5 284.16,-504.5 "/>
<text text-anchor="middle" x="221.66" y="-492.5" font-family="Courier New" font-size="10.00"> </text>
</a>
</g>
</g>
<!-- Node15&#45;&gt;Node14 -->
<g id="edge18" class="edge">
<title>Node15&#45;&gt;Node14</title>
<path fill="none" stroke="midnightblue" d="M219.91,-475.51C218.24,-439.78 215.67,-384.77 213.52,-338.76"/>
<polygon fill="none" stroke="midnightblue" points="216.41,-475.67 220.38,-485.5 223.41,-475.34 216.41,-475.67"/>
</g>
</g>
</svg>
