<?xml version="1.0" encoding="UTF-8" standalone="no"?>
<!DOCTYPE svg PUBLIC "-//W3C//DTD SVG 1.1//EN"
 "http://www.w3.org/Graphics/SVG/1.1/DTD/svg11.dtd">
<!-- Generated by graphviz version 2.38.0 (20140413.2041)
 -->
<!-- Title: VRGazeScrollUpButton Pages: 1 -->
<svg width="145pt" height="314pt"
 viewBox="0.00 0.00 145.00 314.00" xmlns="http://www.w3.org/2000/svg" xmlns:xlink="http://www.w3.org/1999/xlink">
<g id="graph0" class="graph" transform="scale(1 1) rotate(0) translate(4 310)">
<title>VRGazeScrollUpButton</title>
<polygon fill="white" stroke="none" points="-4,4 -4,-310 141,-310 141,4 -4,4"/>
<!-- Node1 -->
<g id="node1" class="node"><title>Node1</title>
<g id="a_node1"><a xlink:title=" ">
<polygon fill="#bfbfbf" stroke="black" points="0,-0.5 0,-211.5 137,-211.5 137,-0.5 0,-0.5"/>
<text text-anchor="middle" x="68.5" y="-199.5" font-family="Courier New" font-size="10.00">VRGazeScrollUpButton</text>
<polyline fill="none" stroke="black" points="0,-192.5 137,-192.5 "/>
<text text-anchor="start" x="8" y="-180.5" font-family="Courier New" font-size="10.00">+ panelScrollRect</text>
<text text-anchor="start" x="8" y="-169.5" font-family="Courier New" font-size="10.00">+ scrollSpeed</text>
<text text-anchor="start" x="8" y="-158.5" font-family="Courier New" font-size="10.00">+ hapticAudioClip</text>
<text text-anchor="start" x="8" y="-147.5" font-family="Courier New" font-size="10.00">&#45; childImage</text>
<text text-anchor="start" x="8" y="-136.5" font-family="Courier New" font-size="10.00">&#45; childImageNewColor</text>
<text text-anchor="start" x="8" y="-125.5" font-family="Courier New" font-size="10.00">&#45; hapticsClip</text>
<text text-anchor="start" x="8" y="-114.5" font-family="Courier New" font-size="10.00">&#45; switchOn</text>
<text text-anchor="start" x="8" y="-103.5" font-family="Courier New" font-size="10.00">&#45; left</text>
<text text-anchor="start" x="8" y="-92.5" font-family="Courier New" font-size="10.00">&#45; right</text>
<polyline fill="none" stroke="black" points="0,-85.5 137,-85.5 "/>
<text text-anchor="start" x="8" y="-73.5" font-family="Courier New" font-size="10.00">+ Start()</text>
<text text-anchor="start" x="8" y="-62.5" font-family="Courier New" font-size="10.00">+ Update()</text>
<text text-anchor="start" x="8" y="-51.5" font-family="Courier New" font-size="10.00">+ OnGazeEnter()</text>
<text text-anchor="start" x="8" y="-40.5" font-family="Courier New" font-size="10.00">+ OnGazeExit()</text>
<text text-anchor="start" x="8" y="-29.5" font-family="Courier New" font-size="10.00">&#45; OnTriggerEnter()</text>
<text text-anchor="start" x="8" y="-18.5" font-family="Courier New" font-size="10.00">&#45; OnTriggerStay()</text>
<text text-anchor="start" x="8" y="-7.5" font-family="Courier New" font-size="10.00">&#45; OnTriggerExit()</text>
</a>
</g>
</g>
<!-- Node2 -->
<g id="node2" class="node"><title>Node2</title>
<g id="a_node2"><a xlink:title=" ">
<polygon fill="white" stroke="#bfbfbf" points="21,-248.5 21,-305.5 116,-305.5 116,-248.5 21,-248.5"/>
<text text-anchor="middle" x="68.5" y="-293.5" font-family="Courier New" font-size="10.00">MonoBehaviour</text>
<polyline fill="none" stroke="#bfbfbf" points="21,-286.5 116,-286.5 "/>
<text text-anchor="middle" x="68.5" y="-274.5" font-family="Courier New" font-size="10.00"> </text>
<polyline fill="none" stroke="#bfbfbf" points="21,-267.5 116,-267.5 "/>
<text text-anchor="middle" x="68.5" y="-255.5" font-family="Courier New" font-size="10.00"> </text>
</a>
</g>
</g>
<!-- Node2&#45;&gt;Node1 -->
<g id="edge1" class="edge"><title>Node2&#45;&gt;Node1</title>
<path fill="none" stroke="midnightblue" d="M68.5,-238.233C68.5,-230.038 68.5,-220.987 68.5,-211.584"/>
<polygon fill="none" stroke="midnightblue" points="65.0001,-238.471 68.5,-248.471 72.0001,-238.471 65.0001,-238.471"/>
</g>
</g>
</svg>
