<?xml version="1.0" encoding="UTF-8" standalone="no"?>
<!DOCTYPE svg PUBLIC "-//W3C//DTD SVG 1.1//EN"
 "http://www.w3.org/Graphics/SVG/1.1/DTD/svg11.dtd">
<!-- Generated by graphviz version 2.38.0 (20140413.2041)
 -->
<!-- Title: C2M2.Simulation.Interactable Pages: 1 -->
<svg width="238pt" height="332pt"
 viewBox="0.00 0.00 238.00 332.00" xmlns="http://www.w3.org/2000/svg" xmlns:xlink="http://www.w3.org/1999/xlink">
<g id="graph0" class="graph" transform="scale(1 1) rotate(0) translate(4 328)">
<title>C2M2.Simulation.Interactable</title>
<polygon fill="white" stroke="none" points="-4,4 -4,-328 234,-328 234,4 -4,4"/>
<!-- Node1 -->
<g id="node1" class="node"><title>Node1</title>
<g id="a_node1"><a xlink:title="Interface for interaction scripts">
<polygon fill="#bfbfbf" stroke="black" points="0,-149.5 0,-228.5 185,-228.5 185,-149.5 0,-149.5"/>
<text text-anchor="middle" x="92.5" y="-216.5" font-family="Courier New" font-size="10.00">C2M2.Simulation.Interactable</text>
<polyline fill="none" stroke="black" points="0,-209.5 185,-209.5 "/>
<text text-anchor="start" x="8" y="-197.5" font-family="Courier New" font-size="10.00">+ Heater</text>
<text text-anchor="start" x="8" y="-186.5" font-family="Courier New" font-size="10.00"># interactionType</text>
<polyline fill="none" stroke="black" points="0,-179.5 185,-179.5 "/>
<text text-anchor="start" x="8" y="-167.5" font-family="Courier New" font-size="10.00">+ SetValues()</text>
<text text-anchor="start" x="8" y="-156.5" font-family="Courier New" font-size="10.00">+ GetSimulationTime()</text>
</a>
</g>
</g>
<!-- Node3 -->
<g id="node3" class="node"><title>Node3</title>
<g id="a_node3"><a xlink:href="../../dc/d54/class_c2_m2_1_1_interaction_1_1_raycast_heater.html" target="_top" xlink:title=" ">
<polygon fill="white" stroke="black" points="69,-0.5 69,-101.5 230,-101.5 230,-0.5 69,-0.5"/>
<text text-anchor="start" x="77" y="-89.5" font-family="Courier New" font-size="10.00">C2M2.Interaction.Raycast</text>
<text text-anchor="middle" x="149.5" y="-78.5" font-family="Courier New" font-size="10.00">Heater</text>
<polyline fill="none" stroke="black" points="69,-71.5 230,-71.5 "/>
<text text-anchor="middle" x="149.5" y="-59.5" font-family="Courier New" font-size="10.00"> </text>
<polyline fill="none" stroke="black" points="69,-52.5 230,-52.5 "/>
<text text-anchor="start" x="77" y="-40.5" font-family="Courier New" font-size="10.00">+ Hit()</text>
<text text-anchor="start" x="77" y="-29.5" font-family="Courier New" font-size="10.00"># OnAwake()</text>
<text text-anchor="start" x="77" y="-18.5" font-family="Courier New" font-size="10.00"># HitMethod()</text>
<text text-anchor="start" x="77" y="-7.5" font-family="Courier New" font-size="10.00">&#45; Awake()</text>
</a>
</g>
</g>
<!-- Node1&#45;&gt;Node3 -->
<g id="edge4" class="edge"><title>Node1&#45;&gt;Node3</title>
<path fill="none" stroke="#404040" d="M52.7087,-149.342C47.4399,-139.89 45.3946,-129.7 50.5,-120 53.2677,-114.741 56.6462,-109.811 60.4651,-105.2"/>
<polygon fill="none" stroke="#404040" points="60.6866,-104.962 61.8511,-97.846 68.868,-96.1838 67.7035,-103.3 60.6866,-104.962"/>
<text text-anchor="middle" x="87" y="-123" font-family="Courier New" font-size="10.00"> #simulation</text>
</g>
<!-- Node2 -->
<g id="node2" class="node"><title>Node2</title>
<g id="a_node2"><a xlink:title=" ">
<polygon fill="white" stroke="#bfbfbf" points="129,-266.5 129,-323.5 224,-323.5 224,-266.5 129,-266.5"/>
<text text-anchor="middle" x="176.5" y="-311.5" font-family="Courier New" font-size="10.00">MonoBehaviour</text>
<polyline fill="none" stroke="#bfbfbf" points="129,-304.5 224,-304.5 "/>
<text text-anchor="middle" x="176.5" y="-292.5" font-family="Courier New" font-size="10.00"> </text>
<polyline fill="none" stroke="#bfbfbf" points="129,-285.5 224,-285.5 "/>
<text text-anchor="middle" x="176.5" y="-273.5" font-family="Courier New" font-size="10.00"> </text>
</a>
</g>
</g>
<!-- Node2&#45;&gt;Node1 -->
<g id="edge1" class="edge"><title>Node2&#45;&gt;Node1</title>
<path fill="none" stroke="midnightblue" d="M147.872,-258.556C140.103,-248.938 131.654,-238.476 123.749,-228.689"/>
<polygon fill="none" stroke="midnightblue" points="145.204,-260.823 154.21,-266.403 150.649,-256.424 145.204,-260.823"/>
</g>
<!-- Node2&#45;&gt;Node3 -->
<g id="edge3" class="edge"><title>Node2&#45;&gt;Node3</title>
<path fill="none" stroke="midnightblue" d="M188.003,-256.675C190.284,-247.698 192.333,-238.078 193.5,-229 198.035,-193.735 198.271,-184.234 193.5,-149 191.317,-132.874 185.435,-116.373 178.656,-101.66"/>
<polygon fill="none" stroke="midnightblue" points="184.585,-255.907 185.365,-266.473 191.345,-257.727 184.585,-255.907"/>
</g>
<!-- Node3&#45;&gt;Node1 -->
<g id="edge2" class="edge"><title>Node3&#45;&gt;Node1</title>
<path fill="none" stroke="#404040" d="M137.967,-101.624C135.031,-111.531 131.54,-121.734 127.5,-131 126.425,-133.465 125.259,-135.95 124.026,-138.432"/>
<polygon fill="none" stroke="#404040" points="123.92,-138.631 124.625,-145.807 118.272,-149.218 117.567,-142.042 123.92,-138.631"/>
<text text-anchor="middle" x="157" y="-123" font-family="Courier New" font-size="10.00"> &#45;heater</text>
</g>
</g>
</svg>
