<?xml version="1.0" encoding="UTF-8" standalone="no"?>
<!DOCTYPE svg PUBLIC "-//W3C//DTD SVG 1.1//EN"
 "http://www.w3.org/Graphics/SVG/1.1/DTD/svg11.dtd">
<!-- Generated by graphviz version 2.38.0 (20140413.2041)
 -->
<!-- Title: C2M2.Interaction.RaycastSimHeaterDiscrete Pages: 1 -->
<svg width="169pt" height="320pt"
 viewBox="0.00 0.00 169.00 320.00" xmlns="http://www.w3.org/2000/svg" xmlns:xlink="http://www.w3.org/1999/xlink">
<g id="graph0" class="graph" transform="scale(1 1) rotate(0) translate(4 316)">
<title>C2M2.Interaction.RaycastSimHeaterDiscrete</title>
<polygon fill="white" stroke="none" points="-4,4 -4,-316 165,-316 165,4 -4,4"/>
<!-- Node1 -->
<g id="node1" class="node"><title>Node1</title>
<g id="a_node1"><a xlink:title=" ">
<polygon fill="#bfbfbf" stroke="black" points="0,-0.5 0,-90.5 161,-90.5 161,-0.5 0,-0.5"/>
<text text-anchor="start" x="8" y="-78.5" font-family="Courier New" font-size="10.00">C2M2.Interaction.Raycast</text>
<text text-anchor="middle" x="80.5" y="-67.5" font-family="Courier New" font-size="10.00">SimHeaterDiscrete</text>
<polyline fill="none" stroke="black" points="0,-60.5 161,-60.5 "/>
<text text-anchor="start" x="8" y="-48.5" font-family="Courier New" font-size="10.00">&#45; mf</text>
<polyline fill="none" stroke="black" points="0,-41.5 161,-41.5 "/>
<text text-anchor="start" x="8" y="-29.5" font-family="Courier New" font-size="10.00">+ HitToTriangles()</text>
<text text-anchor="start" x="8" y="-18.5" font-family="Courier New" font-size="10.00"># OnAwake()</text>
<text text-anchor="start" x="8" y="-7.5" font-family="Courier New" font-size="10.00"># HitMethod()</text>
</a>
</g>
</g>
<!-- Node2 -->
<g id="node2" class="node"><title>Node2</title>
<g id="a_node2"><a xlink:href="../../dc/d54/class_c2_m2_1_1_interaction_1_1_raycast_heater.html" target="_top" xlink:title=" ">
<polygon fill="white" stroke="black" points="33,-127.5 33,-217.5 128,-217.5 128,-127.5 33,-127.5"/>
<text text-anchor="middle" x="80.5" y="-205.5" font-family="Courier New" font-size="10.00">RaycastHeater</text>
<polyline fill="none" stroke="black" points="33,-198.5 128,-198.5 "/>
<text text-anchor="start" x="41" y="-186.5" font-family="Courier New" font-size="10.00"># simulation</text>
<polyline fill="none" stroke="black" points="33,-179.5 128,-179.5 "/>
<text text-anchor="start" x="41" y="-167.5" font-family="Courier New" font-size="10.00">+ Hit()</text>
<text text-anchor="start" x="41" y="-156.5" font-family="Courier New" font-size="10.00"># OnAwake()</text>
<text text-anchor="start" x="41" y="-145.5" font-family="Courier New" font-size="10.00"># HitMethod()</text>
<text text-anchor="start" x="41" y="-134.5" font-family="Courier New" font-size="10.00">&#45; Awake()</text>
</a>
</g>
</g>
<!-- Node2&#45;&gt;Node1 -->
<g id="edge1" class="edge"><title>Node2&#45;&gt;Node1</title>
<path fill="none" stroke="midnightblue" d="M80.5,-117.157C80.5,-108.282 80.5,-99.1831 80.5,-90.5937"/>
<polygon fill="none" stroke="midnightblue" points="77.0001,-117.43 80.5,-127.43 84.0001,-117.43 77.0001,-117.43"/>
</g>
<!-- Node3 -->
<g id="node3" class="node"><title>Node3</title>
<g id="a_node3"><a xlink:title=" ">
<polygon fill="white" stroke="#bfbfbf" points="33,-254.5 33,-311.5 128,-311.5 128,-254.5 33,-254.5"/>
<text text-anchor="middle" x="80.5" y="-299.5" font-family="Courier New" font-size="10.00">MonoBehaviour</text>
<polyline fill="none" stroke="#bfbfbf" points="33,-292.5 128,-292.5 "/>
<text text-anchor="middle" x="80.5" y="-280.5" font-family="Courier New" font-size="10.00"> </text>
<polyline fill="none" stroke="#bfbfbf" points="33,-273.5 128,-273.5 "/>
<text text-anchor="middle" x="80.5" y="-261.5" font-family="Courier New" font-size="10.00"> </text>
</a>
</g>
</g>
<!-- Node3&#45;&gt;Node2 -->
<g id="edge2" class="edge"><title>Node3&#45;&gt;Node2</title>
<path fill="none" stroke="midnightblue" d="M80.5,-244.214C80.5,-235.609 80.5,-226.394 80.5,-217.554"/>
<polygon fill="none" stroke="midnightblue" points="77.0001,-244.34 80.5,-254.34 84.0001,-244.34 77.0001,-244.34"/>
</g>
</g>
</svg>
