<?xml version="1.0" encoding="UTF-8" standalone="no"?>
<!DOCTYPE svg PUBLIC "-//W3C//DTD SVG 1.1//EN"
 "http://www.w3.org/Graphics/SVG/1.1/DTD/svg11.dtd">
<!-- Generated by graphviz version 2.38.0 (20140413.2041)
 -->
<!-- Title: C2M2.OIT.Interaction.ParticleIsoQuantControllerButton Pages: 1 -->
<!--zoomable 943 -->
<svg id="main" version="1.1" xmlns="http://www.w3.org/2000/svg" xmlns:xlink="http://www.w3.org/1999/xlink" xml:space="preserve" onload="init(evt)">
<style type="text/css"><![CDATA[
.edge:hover path { stroke: red; }
.edge:hover polygon { stroke: red; fill: red; }
]]></style>
<script type="text/javascript"><![CDATA[
var edges = document.getElementsByTagName('g');
if (edges && edges.length) {
  for (var i=0;i<edges.length;i++) {
    if (edges[i].id.substr(0,4)=='edge') {
      edges[i].setAttribute('class','edge');
    }
  }
}
]]></script>
        <defs>
                <circle id="rim" cx="0" cy="0" r="7"/>
                <circle id="rim2" cx="0" cy="0" r="3.5"/>
                <g id="zoomPlus">
                        <use xlink:href="#rim" fill="#404040">
                                <set attributeName="fill" to="#808080" begin="zoomplus.mouseover" end="zoomplus.mouseout"/>
                        </use>
                        <path d="M-4,0h8M0,-4v8" fill="none" stroke="white" stroke-width="1.5" pointer-events="none"/>
                </g>
                <g id="zoomMin">
                        <use xlink:href="#rim" fill="#404040">
                                <set attributeName="fill" to="#808080" begin="zoomminus.mouseover" end="zoomminus.mouseout"/>
                        </use>
                        <path d="M-4,0h8" fill="none" stroke="white" stroke-width="1.5" pointer-events="none"/>
                </g>
                <g id="dirArrow">
                        <path fill="none" stroke="white" stroke-width="1.5" d="M0,-3.0v7 M-2.5,-0.5L0,-3.0L2.5,-0.5"/>
                </g>
               <g id="resetDef">
                       <use xlink:href="#rim2" fill="#404040">
                               <set attributeName="fill" to="#808080" begin="reset.mouseover" end="reset.mouseout"/>
                       </use>
               </g>
        </defs>

<script type="text/javascript">
var viewWidth = 458;
var viewHeight = 943;
var sectionId = 'dynsection-1';
</script>
<script xlink:href="../../svgpan.js"/>
<svg id="graph" class="graph">
<g id="viewport">
<title>C2M2.OIT.Interaction.ParticleIsoQuantControllerButton</title>
<polygon fill="white" stroke="none" points="-4,4 -4,-939 454,-939 454,4 -4,4"/>
<!-- Node1 -->
<g id="node1" class="node"><title>Node1</title>
<g id="a_node1"><a xlink:title=" ">
<polygon fill="#bfbfbf" stroke="black" points="22,-0.5 22,-211.5 213,-211.5 213,-0.5 22,-0.5"/>
<text text-anchor="start" x="30" y="-199.5" font-family="Courier New" font-size="10.00">C2M2.OIT.Interaction.Particle</text>
<text text-anchor="middle" x="117.5" y="-188.5" font-family="Courier New" font-size="10.00">IsoQuantControllerButton</text>
<polyline fill="none" stroke="black" points="22,-181.5 213,-181.5 "/>
<text text-anchor="start" x="30" y="-169.5" font-family="Courier New" font-size="10.00">+ highController</text>
<text text-anchor="start" x="30" y="-158.5" font-family="Courier New" font-size="10.00">+ increasingButton</text>
<text text-anchor="start" x="30" y="-147.5" font-family="Courier New" font-size="10.00">+ buttonChangeValue</text>
<text text-anchor="start" x="30" y="-136.5" font-family="Courier New" font-size="10.00">+ buttonWaitTime</text>
<text text-anchor="start" x="30" y="-125.5" font-family="Courier New" font-size="10.00">+ menuAudioSource</text>
<text text-anchor="start" x="30" y="-114.5" font-family="Courier New" font-size="10.00">+ buttonPressSound</text>
<text text-anchor="start" x="30" y="-103.5" font-family="Courier New" font-size="10.00">+ hapticAudioClip</text>
<text text-anchor="start" x="30" y="-92.5" font-family="Courier New" font-size="10.00">&#45; hapticsClip</text>
<text text-anchor="start" x="30" y="-81.5" font-family="Courier New" font-size="10.00">&#45; localAvatar</text>
<text text-anchor="start" x="30" y="-70.5" font-family="Courier New" font-size="10.00">&#45; originalHigh</text>
<text text-anchor="start" x="30" y="-59.5" font-family="Courier New" font-size="10.00">&#45; originalLow</text>
<polyline fill="none" stroke="black" points="22,-52.5 213,-52.5 "/>
<text text-anchor="start" x="30" y="-40.5" font-family="Courier New" font-size="10.00">+ onClick()</text>
<text text-anchor="start" x="30" y="-29.5" font-family="Courier New" font-size="10.00">&#45; Start()</text>
<text text-anchor="start" x="30" y="-18.5" font-family="Courier New" font-size="10.00">&#45; Update()</text>
<text text-anchor="start" x="30" y="-7.5" font-family="Courier New" font-size="10.00">&#45; OnTriggerEnter()</text>
</a>
</g>
</g>
<!-- Node2 -->
<g id="node2" class="node"><title>Node2</title>
<g id="a_node2"><a xlink:title=" ">
<polygon fill="white" stroke="#bfbfbf" points="0,-877.5 0,-934.5 95,-934.5 95,-877.5 0,-877.5"/>
<text text-anchor="middle" x="47.5" y="-922.5" font-family="Courier New" font-size="10.00">MonoBehaviour</text>
<polyline fill="none" stroke="#bfbfbf" points="0,-915.5 95,-915.5 "/>
<text text-anchor="middle" x="47.5" y="-903.5" font-family="Courier New" font-size="10.00"> </text>
<polyline fill="none" stroke="#bfbfbf" points="0,-896.5 95,-896.5 "/>
<text text-anchor="middle" x="47.5" y="-884.5" font-family="Courier New" font-size="10.00"> </text>
</a>
</g>
</g>
<!-- Node2&#45;&gt;Node1 -->
<g id="edge1" class="edge"><title>Node2&#45;&gt;Node1</title>
<path fill="none" stroke="midnightblue" d="M22.4701,-868.626C17.5386,-859.65 13.0915,-849.791 10.5,-840 -0.664812,-797.817 0.50279,-297.077 12.5,-259 17.6084,-242.787 25.1021,-226.772 33.7745,-211.569"/>
<polygon fill="none" stroke="midnightblue" points="19.4514,-870.398 27.5122,-877.273 25.4985,-866.872 19.4514,-870.398"/>
</g>
<!-- Node4 -->
<g id="node4" class="node"><title>Node4</title>
<g id="a_node4"><a xlink:href="../../d7/dcd/class_c2_m2_1_1_o_i_t_1_1_interaction_1_1_particle_system_controller.html" target="_top" xlink:title=" ">
<polygon fill="white" stroke="black" points="22,-259.5 22,-547.5 213,-547.5 213,-259.5 22,-259.5"/>
<text text-anchor="start" x="30" y="-535.5" font-family="Courier New" font-size="10.00">C2M2.OIT.Interaction.Particle</text>
<text text-anchor="middle" x="117.5" y="-524.5" font-family="Courier New" font-size="10.00">SystemController</text>
<polyline fill="none" stroke="black" points="22,-517.5 213,-517.5 "/>
<text text-anchor="start" x="30" y="-505.5" font-family="Courier New" font-size="10.00">+ numberOfParticles</text>
<text text-anchor="start" x="30" y="-494.5" font-family="Courier New" font-size="10.00">+ particleSize</text>
<text text-anchor="start" x="30" y="-483.5" font-family="Courier New" font-size="10.00">+ maxValues</text>
<text text-anchor="start" x="30" y="-472.5" font-family="Courier New" font-size="10.00">+ minValues</text>
<text text-anchor="start" x="30" y="-461.5" font-family="Courier New" font-size="10.00">+ isoquantHigh</text>
<text text-anchor="start" x="30" y="-450.5" font-family="Courier New" font-size="10.00">+ isoquantLow</text>
<text text-anchor="start" x="30" y="-439.5" font-family="Courier New" font-size="10.00">&#45; particles</text>
<text text-anchor="start" x="30" y="-428.5" font-family="Courier New" font-size="10.00">&#45; particlesUpdated</text>
<text text-anchor="start" x="30" y="-417.5" font-family="Courier New" font-size="10.00">&#45; particleSys</text>
<text text-anchor="start" x="30" y="-406.5" font-family="Courier New" font-size="10.00">&#45; particleSysRend</text>
<text text-anchor="start" x="30" y="-395.5" font-family="Courier New" font-size="10.00">&#45; newPositions</text>
<text text-anchor="start" x="30" y="-384.5" font-family="Courier New" font-size="10.00">&#45; newColors</text>
<text text-anchor="start" x="30" y="-373.5" font-family="Courier New" font-size="10.00">&#45; particleNumberChangeHolder</text>
<text text-anchor="start" x="30" y="-362.5" font-family="Courier New" font-size="10.00">&#45; particleSizeChangeHolder</text>
<text text-anchor="start" x="30" y="-351.5" font-family="Courier New" font-size="10.00">&#45; maxValueHolder</text>
<text text-anchor="start" x="30" y="-340.5" font-family="Courier New" font-size="10.00">&#45; minValueHolder</text>
<text text-anchor="start" x="30" y="-329.5" font-family="Courier New" font-size="10.00">&#45; isoquantHighHolder</text>
<text text-anchor="start" x="30" y="-318.5" font-family="Courier New" font-size="10.00">&#45; isoquantLowHolder</text>
<polyline fill="none" stroke="black" points="22,-311.5 213,-311.5 "/>
<text text-anchor="start" x="30" y="-299.5" font-family="Courier New" font-size="10.00">+ UpdateParticles()</text>
<text text-anchor="start" x="30" y="-288.5" font-family="Courier New" font-size="10.00">+ UpdateParticleSize()</text>
<text text-anchor="start" x="30" y="-277.5" font-family="Courier New" font-size="10.00">&#45; Start()</text>
<text text-anchor="start" x="30" y="-266.5" font-family="Courier New" font-size="10.00">&#45; Update()</text>
</a>
</g>
</g>
<!-- Node2&#45;&gt;Node4 -->
<g id="edge4" class="edge"><title>Node2&#45;&gt;Node4</title>
<path fill="none" stroke="midnightblue" d="M34.5765,-867.503C32.0561,-858.595 29.7953,-849.048 28.5,-840 13.069,-732.21 4.89355,-701.299 28.5,-595 32.0019,-579.231 36.9523,-563.222 42.7458,-547.526"/>
<polygon fill="none" stroke="midnightblue" points="31.2685,-868.657 37.4949,-877.229 37.9732,-866.645 31.2685,-868.657"/>
</g>
<!-- Node5 -->
<g id="node5" class="node"><title>Node5</title>
<g id="a_node5"><a xlink:href="../../de/dbc/class_c2_m2_1_1_o_i_t_1_1_visualization_1_1_particle_system_ascii_data_reader.html" target="_top" xlink:title=" ">
<polygon fill="white" stroke="black" points="38,-606.5 38,-828.5 241,-828.5 241,-606.5 38,-606.5"/>
<text text-anchor="start" x="46" y="-816.5" font-family="Courier New" font-size="10.00">C2M2.OIT.Visualization.Particle</text>
<text text-anchor="middle" x="139.5" y="-805.5" font-family="Courier New" font-size="10.00">SystemAsciiDataReader</text>
<polyline fill="none" stroke="black" points="38,-798.5 241,-798.5 "/>
<text text-anchor="start" x="46" y="-786.5" font-family="Courier New" font-size="10.00">+ assets</text>
<text text-anchor="start" x="46" y="-775.5" font-family="Courier New" font-size="10.00">+ RoomObject</text>
<text text-anchor="start" x="46" y="-764.5" font-family="Courier New" font-size="10.00">+ reduceBy</text>
<text text-anchor="start" x="46" y="-753.5" font-family="Courier New" font-size="10.00">+ dataSetList</text>
<text text-anchor="start" x="46" y="-742.5" font-family="Courier New" font-size="10.00">+ colorFloatMax</text>
<text text-anchor="start" x="46" y="-731.5" font-family="Courier New" font-size="10.00">+ colorFloatMin</text>
<text text-anchor="start" x="46" y="-720.5" font-family="Courier New" font-size="10.00">&#45; assetString</text>
<text text-anchor="start" x="46" y="-709.5" font-family="Courier New" font-size="10.00">&#45; currentLine</text>
<text text-anchor="start" x="46" y="-698.5" font-family="Courier New" font-size="10.00">&#45; sR</text>
<text text-anchor="start" x="46" y="-687.5" font-family="Courier New" font-size="10.00">&#45; currentLineSplit</text>
<text text-anchor="start" x="46" y="-676.5" font-family="Courier New" font-size="10.00">&#45; backupdataSetList</text>
<polyline fill="none" stroke="black" points="38,-669.5 241,-669.5 "/>
<text text-anchor="start" x="46" y="-657.5" font-family="Courier New" font-size="10.00">+ InitializeParticleData()</text>
<text text-anchor="start" x="46" y="-646.5" font-family="Courier New" font-size="10.00">+ Isoquant()</text>
<text text-anchor="start" x="46" y="-635.5" font-family="Courier New" font-size="10.00">&#45; InitializeInformationLists()</text>
<text text-anchor="start" x="46" y="-624.5" font-family="Courier New" font-size="10.00">&#45; CreateStringReader()</text>
<text text-anchor="start" x="46" y="-613.5" font-family="Courier New" font-size="10.00">&#45; CloseStringReader()</text>
</a>
</g>
</g>
<!-- Node2&#45;&gt;Node5 -->
<g id="edge6" class="edge"><title>Node2&#45;&gt;Node5</title>
<path fill="none" stroke="midnightblue" d="M65.5139,-868.483C71.322,-856.709 78.0904,-842.988 85.1294,-828.719"/>
<polygon fill="none" stroke="midnightblue" points="62.3601,-866.965 61.0749,-877.481 68.6378,-870.062 62.3601,-866.965"/>
</g>
<!-- Node6 -->
<g id="node6" class="node"><title>Node6</title>
<g id="a_node6"><a xlink:href="../../d2/d3c/class_c2_m2_1_1_o_i_t_1_1_interaction_1_1_particle_field_handle_controller.html" target="_top" xlink:title=" ">
<polygon fill="white" stroke="black" points="259,-595.5 259,-839.5 450,-839.5 450,-595.5 259,-595.5"/>
<text text-anchor="start" x="267" y="-827.5" font-family="Courier New" font-size="10.00">C2M2.OIT.Interaction.Particle</text>
<text text-anchor="middle" x="354.5" y="-816.5" font-family="Courier New" font-size="10.00">FieldHandleController</text>
<polyline fill="none" stroke="black" points="259,-809.5 450,-809.5 "/>
<text text-anchor="start" x="267" y="-797.5" font-family="Courier New" font-size="10.00">+ xMinMarker</text>
<text text-anchor="start" x="267" y="-786.5" font-family="Courier New" font-size="10.00">+ xMaxMarker</text>
<text text-anchor="start" x="267" y="-775.5" font-family="Courier New" font-size="10.00">+ yMinMarker</text>
<text text-anchor="start" x="267" y="-764.5" font-family="Courier New" font-size="10.00">+ yMaxMarker</text>
<text text-anchor="start" x="267" y="-753.5" font-family="Courier New" font-size="10.00">+ zMinMarker</text>
<text text-anchor="start" x="267" y="-742.5" font-family="Courier New" font-size="10.00">+ zMaxMarker</text>
<text text-anchor="start" x="267" y="-731.5" font-family="Courier New" font-size="10.00">+ xMinCollider</text>
<text text-anchor="start" x="267" y="-720.5" font-family="Courier New" font-size="10.00">+ xMaxCollider</text>
<text text-anchor="start" x="267" y="-709.5" font-family="Courier New" font-size="10.00">+ yMinCollider</text>
<text text-anchor="start" x="267" y="-698.5" font-family="Courier New" font-size="10.00">+ yMaxCollider</text>
<text text-anchor="start" x="267" y="-687.5" font-family="Courier New" font-size="10.00">+ zMinCollider</text>
<text text-anchor="start" x="267" y="-676.5" font-family="Courier New" font-size="10.00">+ zMaxCollider</text>
<text text-anchor="start" x="267" y="-665.5" font-family="Courier New" font-size="10.00">&#45; minVector</text>
<text text-anchor="start" x="267" y="-654.5" font-family="Courier New" font-size="10.00">&#45; maxVector</text>
<polyline fill="none" stroke="black" points="259,-647.5 450,-647.5 "/>
<text text-anchor="start" x="267" y="-635.5" font-family="Courier New" font-size="10.00">+ UpdateHandlePositions()</text>
<text text-anchor="start" x="267" y="-624.5" font-family="Courier New" font-size="10.00">+ GetMinVector()</text>
<text text-anchor="start" x="267" y="-613.5" font-family="Courier New" font-size="10.00">+ GetMaxVector()</text>
<text text-anchor="start" x="267" y="-602.5" font-family="Courier New" font-size="10.00">&#45; Update()</text>
</a>
</g>
</g>
<!-- Node2&#45;&gt;Node6 -->
<g id="edge8" class="edge"><title>Node2&#45;&gt;Node6</title>
<path fill="none" stroke="midnightblue" d="M105.12,-895.19C147.662,-885.96 205.56,-869.085 249.5,-840 252.638,-837.923 255.738,-835.726 258.794,-833.43"/>
<polygon fill="none" stroke="midnightblue" points="104.271,-891.792 95.1997,-897.265 105.704,-898.643 104.271,-891.792"/>
</g>
<!-- Node3 -->
<g id="node3" class="node"><title>Node3</title>
<g id="a_node3"><a xlink:title=" ">
<polygon fill="white" stroke="#bfbfbf" points="231,-375 231,-432 272,-432 272,-375 231,-375"/>
<text text-anchor="middle" x="251.5" y="-420" font-family="Courier New" font-size="10.00">Text</text>
<polyline fill="none" stroke="#bfbfbf" points="231,-413 272,-413 "/>
<text text-anchor="middle" x="251.5" y="-401" font-family="Courier New" font-size="10.00"> </text>
<polyline fill="none" stroke="#bfbfbf" points="231,-394 272,-394 "/>
<text text-anchor="middle" x="251.5" y="-382" font-family="Courier New" font-size="10.00"> </text>
</a>
</g>
</g>
<!-- Node3&#45;&gt;Node1 -->
<g id="edge2" class="edge"><title>Node3&#45;&gt;Node1</title>
<path fill="none" stroke="#404040" d="M248.973,-374.827C245.533,-345.196 237.823,-297.279 221.5,-259 216.262,-246.716 209.965,-234.394 203.093,-222.374"/>
<polygon fill="none" stroke="#404040" points="203.012,-222.236 196.52,-219.097 196.92,-211.897 203.412,-215.036 203.012,-222.236"/>
<text text-anchor="middle" x="247" y="-233" font-family="Courier New" font-size="10.00"> +valueText</text>
</g>
<!-- Node4&#45;&gt;Node1 -->
<g id="edge3" class="edge"><title>Node4&#45;&gt;Node1</title>
<path fill="none" stroke="#404040" d="M117.5,-259.078C117.5,-247.182 117.5,-235.249 117.5,-223.586"/>
<polygon fill="none" stroke="#404040" points="117.5,-223.544 113.5,-217.545 117.5,-211.544 121.5,-217.544 117.5,-223.544"/>
<text text-anchor="middle" x="154" y="-233" font-family="Courier New" font-size="10.00"> +partSysCon</text>
</g>
<!-- Node5&#45;&gt;Node4 -->
<g id="edge5" class="edge"><title>Node5&#45;&gt;Node4</title>
<path fill="none" stroke="#404040" d="M131.713,-606.061C130.649,-590.975 129.541,-575.265 128.434,-559.568"/>
<polygon fill="none" stroke="#404040" points="128.433,-559.547 124.021,-553.844 127.589,-547.577 132.001,-553.281 128.433,-559.547"/>
<text text-anchor="middle" x="184" y="-569" font-family="Courier New" font-size="10.00"> &#45;particleTextData</text>
</g>
<!-- Node6&#45;&gt;Node4 -->
<g id="edge7" class="edge"><title>Node6&#45;&gt;Node4</title>
<path fill="none" stroke="#404040" d="M268.189,-595.43C259.793,-585.235 251.167,-575.286 242.5,-566 234.112,-557.014 229.831,-557.039 221.5,-548 221.412,-547.905 221.324,-547.809 221.236,-547.713"/>
<polygon fill="none" stroke="#404040" points="221.096,-547.557 214.112,-545.76 213.085,-538.623 220.069,-540.42 221.096,-547.557"/>
<text text-anchor="middle" x="328" y="-569" font-family="Courier New" font-size="10.00"> &#45;particleHandleController</text>
</g>
</g>
</svg>
        <g id="navigator" transform="translate(0 0)" fill="#404254">
                <rect fill="#f2f5e9" fill-opacity="0.5" stroke="#606060" stroke-width=".5" x="0" y="0" width="60" height="60"/>
                <use id="zoomplus" xlink:href="#zoomPlus" x="17" y="9" onmousedown="handleZoom(evt,'in')"/>
                <use id="zoomminus" xlink:href="#zoomMin" x="42" y="9" onmousedown="handleZoom(evt,'out')"/>
                <use id="reset" xlink:href="#resetDef" x="30" y="36" onmousedown="handleReset()"/>
                <g id="arrowUp" xlink:href="#dirArrow" transform="translate(30 24)" onmousedown="handlePan(0,-1)">
                  <use xlink:href="#rim" fill="#404040">
                        <set attributeName="fill" to="#808080" begin="arrowUp.mouseover" end="arrowUp.mouseout"/>
                  </use>
                  <path fill="none" stroke="white" stroke-width="1.5" d="M0,-3.0v7 M-2.5,-0.5L0,-3.0L2.5,-0.5"/>
                </g>
                <g id="arrowRight" xlink:href="#dirArrow" transform="rotate(90) translate(36 -43)" onmousedown="handlePan(1,0)">
                  <use xlink:href="#rim" fill="#404040">
                        <set attributeName="fill" to="#808080" begin="arrowRight.mouseover" end="arrowRight.mouseout"/>
                  </use>
                  <path fill="none" stroke="white" stroke-width="1.5" d="M0,-3.0v7 M-2.5,-0.5L0,-3.0L2.5,-0.5"/>
                </g>
                <g id="arrowDown" xlink:href="#dirArrow" transform="rotate(180) translate(-30 -48)" onmousedown="handlePan(0,1)">
                  <use xlink:href="#rim" fill="#404040">
                        <set attributeName="fill" to="#808080" begin="arrowDown.mouseover" end="arrowDown.mouseout"/>
                  </use>
                  <path fill="none" stroke="white" stroke-width="1.5" d="M0,-3.0v7 M-2.5,-0.5L0,-3.0L2.5,-0.5"/>
                </g>
                <g id="arrowLeft" xlink:href="#dirArrow" transform="rotate(270) translate(-36 17)" onmousedown="handlePan(-1,0)">
                  <use xlink:href="#rim" fill="#404040">
                        <set attributeName="fill" to="#808080" begin="arrowLeft.mouseover" end="arrowLeft.mouseout"/>
                  </use>
                  <path fill="none" stroke="white" stroke-width="1.5" d="M0,-3.0v7 M-2.5,-0.5L0,-3.0L2.5,-0.5"/>
                </g>
        </g>
        <svg viewBox="0 0 15 15" width="100%" height="30px" preserveAspectRatio="xMaxYMin meet">
         <g id="arrow_out" transform="scale(0.3 0.3)">
          <a xlink:href="class_c2_m2_1_1_o_i_t_1_1_interaction_1_1_particle_iso_quant_controller_button__coll__graph_org.svg" target="_base">
           <rect id="button" ry="5" rx="5" y="6" x="6" height="38" width="38"
                fill="#f2f5e9" fill-opacity="0.5" stroke="#606060" stroke-width="1.0"/>
           <path id="arrow"
             d="M 11.500037,31.436501 C 11.940474,20.09759 22.043105,11.32322 32.158766,21.979434 L 37.068811,17.246167 C 37.068811,17.246167 37.088388,32 37.088388,32 L 22.160133,31.978069 C 22.160133,31.978069 26.997745,27.140456 26.997745,27.140456 C 18.528582,18.264221 13.291696,25.230495 11.500037,31.436501 z"
             style="fill:#404040;"/>
          </a>
         </g>
        </svg>
</svg>
