<?xml version="1.0" encoding="UTF-8" standalone="no"?>
<!DOCTYPE svg PUBLIC "-//W3C//DTD SVG 1.1//EN"
 "http://www.w3.org/Graphics/SVG/1.1/DTD/svg11.dtd">
<!-- Generated by graphviz version 2.46.0 (20210118.1747)
 -->
<!-- Title: C2M2.Simulation.DiffusionManager Pages: 1 -->
<svg width="813pt" height="1385pt"
 viewBox="0.00 0.00 812.68 1385.00" xmlns="http://www.w3.org/2000/svg" xmlns:xlink="http://www.w3.org/1999/xlink">
<g id="graph0" class="graph" transform="scale(1 1) rotate(0) translate(4 1381)">
<title>C2M2.Simulation.DiffusionManager</title>
<polygon fill="white" stroke="transparent" points="-4,4 -4,-1381 808.68,-1381 808.68,4 -4,4"/>
<!-- Node1 -->
<g id="node1" class="node">
<title>Node1</title>
<g id="a_node1"><a xlink:title=" ">
<polygon fill="#bfbfbf" stroke="black" points="23.68,-0.5 23.68,-332.5 190.68,-332.5 190.68,-0.5 23.68,-0.5"/>
<text text-anchor="start" x="31.68" y="-320.5" font-family="Courier New" font-size="10.00">C2M2.Simulation.Diffusion</text>
<text text-anchor="middle" x="107.18" y="-309.5" font-family="Courier New" font-size="10.00">Manager</text>
<polyline fill="none" stroke="black" points="23.68,-302.5 190.68,-302.5 "/>
<text text-anchor="start" x="31.68" y="-290.5" font-family="Courier New" font-size="10.00">+ gaussianHeight</text>
<text text-anchor="start" x="31.68" y="-279.5" font-family="Courier New" font-size="10.00">+ gaussianStdDev</text>
<text text-anchor="start" x="31.68" y="-268.5" font-family="Courier New" font-size="10.00">+ pointInfoPrefab</text>
<text text-anchor="start" x="31.68" y="-257.5" font-family="Courier New" font-size="10.00">+ DiffusionConstant</text>
<text text-anchor="start" x="31.68" y="-246.5" font-family="Courier New" font-size="10.00">+ ReactionConstant</text>
<text text-anchor="start" x="31.68" y="-235.5" font-family="Courier New" font-size="10.00">+ Beta</text>
<text text-anchor="start" x="31.68" y="-224.5" font-family="Courier New" font-size="10.00">+ activeDiffusion</text>
<text text-anchor="start" x="31.68" y="-213.5" font-family="Courier New" font-size="10.00">+ gaussAddCond</text>
<text text-anchor="start" x="31.68" y="-202.5" font-family="Courier New" font-size="10.00">+ gaussSubCond</text>
<text text-anchor="start" x="31.68" y="-191.5" font-family="Courier New" font-size="10.00">&#45; diffusionConstant</text>
<text text-anchor="start" x="31.68" y="-180.5" font-family="Courier New" font-size="10.00">&#45; reactionConstant</text>
<text text-anchor="start" x="31.68" y="-169.5" font-family="Courier New" font-size="10.00">&#45; beta</text>
<text text-anchor="start" x="31.68" y="-158.5" font-family="Courier New" font-size="10.00">&#45; gaussAddCondRoutine</text>
<text text-anchor="start" x="31.68" y="-147.5" font-family="Courier New" font-size="10.00">&#45; gaussSubCondRoutine</text>
<polyline fill="none" stroke="black" points="23.68,-140.5 190.68,-140.5 "/>
<text text-anchor="start" x="31.68" y="-128.5" font-family="Courier New" font-size="10.00">+ Initialize()</text>
<text text-anchor="start" x="31.68" y="-117.5" font-family="Courier New" font-size="10.00">+ CreateDiffusion()</text>
<text text-anchor="start" x="31.68" y="-106.5" font-family="Courier New" font-size="10.00">+ CreateGaussAddCond()</text>
<text text-anchor="start" x="31.68" y="-95.5" font-family="Courier New" font-size="10.00">+ CreateGaussSubCond()</text>
<text text-anchor="start" x="31.68" y="-84.5" font-family="Courier New" font-size="10.00">+ PlayGaussAddCond()</text>
<text text-anchor="start" x="31.68" y="-73.5" font-family="Courier New" font-size="10.00">+ PlayGaussSubCond()</text>
<text text-anchor="start" x="31.68" y="-62.5" font-family="Courier New" font-size="10.00">+ StopGaussAddCond()</text>
<text text-anchor="start" x="31.68" y="-51.5" font-family="Courier New" font-size="10.00">+ StopGaussSubCond()</text>
<text text-anchor="start" x="31.68" y="-40.5" font-family="Courier New" font-size="10.00">+ RaycasterHotColor()</text>
<text text-anchor="start" x="31.68" y="-29.5" font-family="Courier New" font-size="10.00">+ RaycasterColdColor()</text>
<text text-anchor="start" x="31.68" y="-18.5" font-family="Courier New" font-size="10.00">and 10 more...</text>
<text text-anchor="start" x="31.68" y="-7.5" font-family="Courier New" font-size="10.00">&#45; Awake()</text>
</a>
</g>
</g>
<!-- Node2 -->
<g id="node2" class="node">
<title>Node2</title>
<g id="a_node2"><a xlink:title=" ">
<polygon fill="white" stroke="#bfbfbf" points="115.68,-1319.5 115.68,-1376.5 210.68,-1376.5 210.68,-1319.5 115.68,-1319.5"/>
<text text-anchor="middle" x="163.18" y="-1364.5" font-family="Courier New" font-size="10.00">MonoBehaviour</text>
<polyline fill="none" stroke="#bfbfbf" points="115.68,-1357.5 210.68,-1357.5 "/>
<text text-anchor="middle" x="163.18" y="-1345.5" font-family="Courier New" font-size="10.00"> </text>
<polyline fill="none" stroke="#bfbfbf" points="115.68,-1338.5 210.68,-1338.5 "/>
<text text-anchor="middle" x="163.18" y="-1326.5" font-family="Courier New" font-size="10.00"> </text>
</a>
</g>
</g>
<!-- Node2&#45;&gt;Node1 -->
<g id="edge1" class="edge">
<title>Node2&#45;&gt;Node1</title>
<path fill="none" stroke="midnightblue" d="M143.95,-1309.79C142.62,-1306.84 141.34,-1303.89 140.18,-1301 68.03,-1122.6 39.4,-1078.2 10.18,-888 -19.03,-697.91 20.89,-478.85 58,-332.65"/>
<polygon fill="none" stroke="midnightblue" points="140.92,-1311.55 148.35,-1319.11 147.25,-1308.57 140.92,-1311.55"/>
</g>
<!-- Node3 -->
<g id="node3" class="node">
<title>Node3</title>
<g id="a_node3"><a xlink:href="../../d6/dad/class_c2_m2_1_1_interaction_1_1_u_i_1_1_raycast_input_field.html" target="_top" xlink:title=" ">
<polygon fill="white" stroke="black" points="231.68,-424.5 231.68,-778.5 410.68,-778.5 410.68,-424.5 231.68,-424.5"/>
<text text-anchor="start" x="239.68" y="-766.5" font-family="Courier New" font-size="10.00">C2M2.Interaction.UI.Raycast</text>
<text text-anchor="middle" x="321.18" y="-755.5" font-family="Courier New" font-size="10.00">InputField</text>
<polyline fill="none" stroke="black" points="231.68,-748.5 410.68,-748.5 "/>
<text text-anchor="start" x="239.68" y="-736.5" font-family="Courier New" font-size="10.00">+ menuAnchor</text>
<text text-anchor="start" x="239.68" y="-725.5" font-family="Courier New" font-size="10.00">+ targetGraphic</text>
<text text-anchor="start" x="239.68" y="-714.5" font-family="Courier New" font-size="10.00">+ defaultColor</text>
<text text-anchor="start" x="239.68" y="-703.5" font-family="Courier New" font-size="10.00">+ highlightedColor</text>
<text text-anchor="start" x="239.68" y="-692.5" font-family="Courier New" font-size="10.00">+ invalidColor</text>
<text text-anchor="start" x="239.68" y="-681.5" font-family="Courier New" font-size="10.00">+ validColor</text>
<text text-anchor="start" x="239.68" y="-670.5" font-family="Courier New" font-size="10.00">+ textComponent</text>
<text text-anchor="start" x="239.68" y="-659.5" font-family="Courier New" font-size="10.00">+ text</text>
<text text-anchor="start" x="239.68" y="-648.5" font-family="Courier New" font-size="10.00">+ placeHolder</text>
<text text-anchor="start" x="239.68" y="-637.5" font-family="Courier New" font-size="10.00">+ takeFromHolder</text>
<text text-anchor="start" x="239.68" y="-626.5" font-family="Courier New" font-size="10.00">and 6 more...</text>
<text text-anchor="start" x="239.68" y="-615.5" font-family="Courier New" font-size="10.00">&#45; caretEnabled</text>
<polyline fill="none" stroke="black" points="231.68,-608.5 410.68,-608.5 "/>
<text text-anchor="start" x="239.68" y="-596.5" font-family="Courier New" font-size="10.00">+ Activate()</text>
<text text-anchor="start" x="239.68" y="-585.5" font-family="Courier New" font-size="10.00">+ Deactivate()</text>
<text text-anchor="start" x="239.68" y="-574.5" font-family="Courier New" font-size="10.00">+ CharacterIntake()</text>
<text text-anchor="start" x="239.68" y="-563.5" font-family="Courier New" font-size="10.00">+ PrintText()</text>
<text text-anchor="start" x="239.68" y="-552.5" font-family="Courier New" font-size="10.00">&#45; Start()</text>
<text text-anchor="start" x="239.68" y="-541.5" font-family="Courier New" font-size="10.00">&#45; ValidateInput()</text>
<text text-anchor="start" x="239.68" y="-530.5" font-family="Courier New" font-size="10.00">&#45; UpdateDisplayText()</text>
<text text-anchor="start" x="239.68" y="-519.5" font-family="Courier New" font-size="10.00">&#45; ColorToDefault()</text>
<text text-anchor="start" x="239.68" y="-508.5" font-family="Courier New" font-size="10.00">&#45; ColorToHighlighted()</text>
<text text-anchor="start" x="239.68" y="-497.5" font-family="Courier New" font-size="10.00">&#45; ColorToInvalid()</text>
<text text-anchor="start" x="239.68" y="-486.5" font-family="Courier New" font-size="10.00">&#45; ColorToValid()</text>
<text text-anchor="start" x="239.68" y="-475.5" font-family="Courier New" font-size="10.00">&#45; UpdateCaretPosition()</text>
<text text-anchor="start" x="239.68" y="-464.5" font-family="Courier New" font-size="10.00">&#45; caretBlink()</text>
<text text-anchor="start" x="239.68" y="-453.5" font-family="Courier New" font-size="10.00">&#45; AppendText()</text>
<text text-anchor="start" x="239.68" y="-442.5" font-family="Courier New" font-size="10.00">&#45; RemoveLast()</text>
<text text-anchor="start" x="239.68" y="-431.5" font-family="Courier New" font-size="10.00">&#45; SubmitText()</text>
</a>
</g>
</g>
<!-- Node2&#45;&gt;Node3 -->
<g id="edge3" class="edge">
<title>Node2&#45;&gt;Node3</title>
<path fill="none" stroke="midnightblue" d="M166.05,-1309.21C172.37,-1232.46 189.69,-1053.15 223.18,-906 232.67,-864.29 245.36,-820.12 258.45,-778.77"/>
<polygon fill="none" stroke="midnightblue" points="162.55,-1309.1 165.23,-1319.34 169.52,-1309.66 162.55,-1309.1"/>
</g>
<!-- Node6 -->
<g id="node6" class="node">
<title>Node6</title>
<g id="a_node6"><a xlink:href="../../d4/d6f/class_c2_m2_1_1_interaction_1_1_u_i_1_1_raycast_keyboard.html" target="_top" xlink:title="Instantiates a raycastable keyboard and manages its input/output">
<polygon fill="white" stroke="black" points="231.68,-906.5 231.68,-1161.5 410.68,-1161.5 410.68,-906.5 231.68,-906.5"/>
<text text-anchor="start" x="239.68" y="-1149.5" font-family="Courier New" font-size="10.00">C2M2.Interaction.UI.Raycast</text>
<text text-anchor="middle" x="321.18" y="-1138.5" font-family="Courier New" font-size="10.00">Keyboard</text>
<polyline fill="none" stroke="black" points="231.68,-1131.5 410.68,-1131.5 "/>
<text text-anchor="start" x="239.68" y="-1119.5" font-family="Courier New" font-size="10.00">+ keyPrefab</text>
<text text-anchor="start" x="239.68" y="-1108.5" font-family="Courier New" font-size="10.00">+ specialKeyContainer</text>
<text text-anchor="start" x="239.68" y="-1097.5" font-family="Courier New" font-size="10.00">+ lowerKeyContainer</text>
<text text-anchor="start" x="239.68" y="-1086.5" font-family="Courier New" font-size="10.00">+ upperKeyContainer</text>
<text text-anchor="start" x="239.68" y="-1075.5" font-family="Courier New" font-size="10.00">+ menuAnchor</text>
<text text-anchor="start" x="239.68" y="-1064.5" font-family="Courier New" font-size="10.00">+ activeField</text>
<text text-anchor="start" x="239.68" y="-1053.5" font-family="Courier New" font-size="10.00">&#45; hasActiveField</text>
<text text-anchor="start" x="239.68" y="-1042.5" font-family="Courier New" font-size="10.00">&#45; lastHit</text>
<text text-anchor="start" x="239.68" y="-1031.5" font-family="Courier New" font-size="10.00">&#45; keyPositions</text>
<text text-anchor="start" x="239.68" y="-1020.5" font-family="Courier New" font-size="10.00">&#45; specialKeys</text>
<text text-anchor="start" x="239.68" y="-1009.5" font-family="Courier New" font-size="10.00">&#45; upperCharRow0</text>
<text text-anchor="start" x="239.68" y="-998.5" font-family="Courier New" font-size="10.00">&#45; upperCharRow1</text>
<text text-anchor="start" x="239.68" y="-987.5" font-family="Courier New" font-size="10.00">&#45; upperCharRow2</text>
<text text-anchor="start" x="239.68" y="-976.5" font-family="Courier New" font-size="10.00">&#45; upperCharRow3</text>
<polyline fill="none" stroke="black" points="231.68,-969.5 410.68,-969.5 "/>
<text text-anchor="start" x="239.68" y="-957.5" font-family="Courier New" font-size="10.00">+ PassChar()</text>
<text text-anchor="start" x="239.68" y="-946.5" font-family="Courier New" font-size="10.00">+ InputFieldActivate()</text>
<text text-anchor="start" x="239.68" y="-935.5" font-family="Courier New" font-size="10.00">&#45; Awake()</text>
<text text-anchor="start" x="239.68" y="-924.5" font-family="Courier New" font-size="10.00">&#45; OnEnable()</text>
<text text-anchor="start" x="239.68" y="-913.5" font-family="Courier New" font-size="10.00">&#45; BuildKeyboard()</text>
</a>
</g>
</g>
<!-- Node2&#45;&gt;Node6 -->
<g id="edge7" class="edge">
<title>Node2&#45;&gt;Node6</title>
<path fill="none" stroke="midnightblue" d="M207.9,-1312.2C211.27,-1308.62 214.42,-1304.87 217.18,-1301 246.88,-1259.3 269.54,-1207.97 286.01,-1161.56"/>
<polygon fill="none" stroke="midnightblue" points="205.39,-1309.76 200.74,-1319.28 210.31,-1314.73 205.39,-1309.76"/>
</g>
<!-- Node9 -->
<g id="node9" class="node">
<title>Node9</title>
<g id="a_node9"><a xlink:href="../../d9/d15/class_c2_m2_1_1_simulation_1_1_object_manager.html" target="_top" xlink:title=" ">
<polygon fill="white" stroke="black" points="11.68,-797.5 11.68,-887.5 202.68,-887.5 202.68,-797.5 11.68,-797.5"/>
<text text-anchor="middle" x="107.18" y="-875.5" font-family="Courier New" font-size="10.00">C2M2.Simulation.ObjectManager</text>
<polyline fill="none" stroke="black" points="11.68,-868.5 202.68,-868.5 "/>
<text text-anchor="start" x="19.68" y="-856.5" font-family="Courier New" font-size="10.00">+ gradient</text>
<text text-anchor="start" x="19.68" y="-845.5" font-family="Courier New" font-size="10.00">+ vtuManager</text>
<text text-anchor="start" x="19.68" y="-834.5" font-family="Courier New" font-size="10.00">+ meshInfo</text>
<text text-anchor="start" x="19.68" y="-823.5" font-family="Courier New" font-size="10.00">+ diffusionManager</text>
<polyline fill="none" stroke="black" points="11.68,-816.5 202.68,-816.5 "/>
<text text-anchor="start" x="19.68" y="-804.5" font-family="Courier New" font-size="10.00">&#45; Awake()</text>
</a>
</g>
</g>
<!-- Node2&#45;&gt;Node9 -->
<g id="edge12" class="edge">
<title>Node2&#45;&gt;Node9</title>
<path fill="none" stroke="midnightblue" d="M158.95,-1309.02C148.78,-1217.53 122.94,-985.25 112.09,-887.7"/>
<polygon fill="none" stroke="midnightblue" points="155.5,-1309.66 160.09,-1319.21 162.46,-1308.89 155.5,-1309.66"/>
</g>
<!-- Node3&#45;&gt;Node1 -->
<g id="edge2" class="edge">
<title>Node3&#45;&gt;Node1</title>
<path fill="none" stroke="#404040" d="M234.13,-424.38C220.96,-397.73 207.37,-370.24 194.2,-343.59"/>
<polygon fill="none" stroke="#404040" points="194.1,-343.38 187.86,-339.78 188.79,-332.63 195.03,-336.23 194.1,-343.38"/>
<text text-anchor="middle" x="289.68" y="-398" font-family="Courier New" font-size="10.00"> +betaInputField</text>
<text text-anchor="start" x="220.18" y="-387" font-family="Courier New" font-size="10.00">+diffusionConstantInput</text>
<text text-anchor="middle" x="289.68" y="-376" font-family="Courier New" font-size="10.00">Field</text>
<text text-anchor="start" x="220.18" y="-365" font-family="Courier New" font-size="10.00">+reactionConstantInput</text>
<text text-anchor="middle" x="289.68" y="-354" font-family="Courier New" font-size="10.00">Field</text>
</g>
<!-- Node4 -->
<g id="node4" class="node">
<title>Node4</title>
<g id="a_node4"><a xlink:href="../../da/d7b/class_c2_m2_1_1_interaction_1_1_u_i_1_1_raycast_input_field_1_1_on_change_event.html" target="_top" xlink:title=" ">
<polygon fill="white" stroke="black" points="428.68,-1000 428.68,-1068 607.68,-1068 607.68,-1000 428.68,-1000"/>
<text text-anchor="start" x="436.68" y="-1056" font-family="Courier New" font-size="10.00">C2M2.Interaction.UI.Raycast</text>
<text text-anchor="middle" x="518.18" y="-1045" font-family="Courier New" font-size="10.00">InputField.OnChangeEvent</text>
<polyline fill="none" stroke="black" points="428.68,-1038 607.68,-1038 "/>
<text text-anchor="middle" x="518.18" y="-1026" font-family="Courier New" font-size="10.00"> </text>
<polyline fill="none" stroke="black" points="428.68,-1019 607.68,-1019 "/>
<text text-anchor="middle" x="518.18" y="-1007" font-family="Courier New" font-size="10.00"> </text>
</a>
</g>
</g>
<!-- Node4&#45;&gt;Node3 -->
<g id="edge4" class="edge">
<title>Node4&#45;&gt;Node3</title>
<path fill="none" stroke="#404040" d="M503.05,-999.93C482.29,-954.57 443.38,-869.55 406.86,-789.75"/>
<polygon fill="none" stroke="#404040" points="406.72,-789.44 400.59,-785.64 401.73,-778.52 407.86,-782.32 406.72,-789.44"/>
<text text-anchor="middle" x="496.68" y="-840" font-family="Courier New" font-size="10.00"> +onValueChanged</text>
</g>
<!-- Node5 -->
<g id="node5" class="node">
<title>Node5</title>
<g id="a_node5"><a xlink:title=" ">
<polygon fill="white" stroke="#bfbfbf" points="547.68,-1319.5 547.68,-1376.5 684.68,-1376.5 684.68,-1319.5 547.68,-1319.5"/>
<text text-anchor="middle" x="616.18" y="-1364.5" font-family="Courier New" font-size="10.00">UnityEvent&lt; string &gt;</text>
<polyline fill="none" stroke="#bfbfbf" points="547.68,-1357.5 684.68,-1357.5 "/>
<text text-anchor="middle" x="616.18" y="-1345.5" font-family="Courier New" font-size="10.00"> </text>
<polyline fill="none" stroke="#bfbfbf" points="547.68,-1338.5 684.68,-1338.5 "/>
<text text-anchor="middle" x="616.18" y="-1326.5" font-family="Courier New" font-size="10.00"> </text>
</a>
</g>
</g>
<!-- Node5&#45;&gt;Node4 -->
<g id="edge5" class="edge">
<title>Node5&#45;&gt;Node4</title>
<path fill="none" stroke="midnightblue" d="M604.44,-1309.63C585.14,-1248.19 547.01,-1126.81 528.61,-1068.2"/>
<polygon fill="none" stroke="midnightblue" points="601.14,-1310.82 607.48,-1319.31 607.82,-1308.72 601.14,-1310.82"/>
</g>
<!-- Node8 -->
<g id="node8" class="node">
<title>Node8</title>
<g id="a_node8"><a xlink:href="../../d4/de5/class_c2_m2_1_1_interaction_1_1_u_i_1_1_raycast_input_field_1_1_on_submit_event.html" target="_top" xlink:title=" ">
<polygon fill="white" stroke="black" points="625.68,-1000 625.68,-1068 804.68,-1068 804.68,-1000 625.68,-1000"/>
<text text-anchor="start" x="633.68" y="-1056" font-family="Courier New" font-size="10.00">C2M2.Interaction.UI.Raycast</text>
<text text-anchor="middle" x="715.18" y="-1045" font-family="Courier New" font-size="10.00">InputField.OnSubmitEvent</text>
<polyline fill="none" stroke="black" points="625.68,-1038 804.68,-1038 "/>
<text text-anchor="middle" x="715.18" y="-1026" font-family="Courier New" font-size="10.00"> </text>
<polyline fill="none" stroke="black" points="625.68,-1019 804.68,-1019 "/>
<text text-anchor="middle" x="715.18" y="-1007" font-family="Courier New" font-size="10.00"> </text>
</a>
</g>
</g>
<!-- Node5&#45;&gt;Node8 -->
<g id="edge10" class="edge">
<title>Node5&#45;&gt;Node8</title>
<path fill="none" stroke="midnightblue" d="M628.03,-1309.63C647.53,-1248.19 686.05,-1126.81 704.64,-1068.2"/>
<polygon fill="none" stroke="midnightblue" points="624.65,-1308.72 624.96,-1319.31 631.32,-1310.84 624.65,-1308.72"/>
</g>
<!-- Node6&#45;&gt;Node3 -->
<g id="edge6" class="edge">
<title>Node6&#45;&gt;Node3</title>
<path fill="none" stroke="#404040" d="M321.18,-906.45C321.18,-870.26 321.18,-830.01 321.18,-790.96"/>
<polygon fill="none" stroke="#404040" points="321.18,-790.88 317.18,-784.88 321.18,-778.88 325.18,-784.88 321.18,-790.88"/>
<text text-anchor="middle" x="351.68" y="-840" font-family="Courier New" font-size="10.00"> &#45;keyboard</text>
</g>
<!-- Node7 -->
<g id="node7" class="node">
<title>Node7</title>
<g id="a_node7"><a xlink:title=" ">
<polygon fill="white" stroke="#bfbfbf" points="294.68,-1319.5 294.68,-1376.5 347.68,-1376.5 347.68,-1319.5 294.68,-1319.5"/>
<text text-anchor="middle" x="321.18" y="-1364.5" font-family="Courier New" font-size="10.00">static</text>
<polyline fill="none" stroke="#bfbfbf" points="294.68,-1357.5 347.68,-1357.5 "/>
<text text-anchor="middle" x="321.18" y="-1345.5" font-family="Courier New" font-size="10.00"> </text>
<polyline fill="none" stroke="#bfbfbf" points="294.68,-1338.5 347.68,-1338.5 "/>
<text text-anchor="middle" x="321.18" y="-1326.5" font-family="Courier New" font-size="10.00"> </text>
</a>
</g>
</g>
<!-- Node7&#45;&gt;Node6 -->
<g id="edge8" class="edge">
<title>Node7&#45;&gt;Node6</title>
<path fill="none" stroke="#404040" d="M321.18,-1319.31C321.18,-1286.24 321.18,-1228.5 321.18,-1173.64"/>
<polygon fill="none" stroke="#404040" points="321.18,-1173.63 317.18,-1167.63 321.18,-1161.63 325.18,-1167.63 321.18,-1173.63"/>
<text text-anchor="middle" x="381.68" y="-1293" font-family="Courier New" font-size="10.00"> &#45;lowerCharRow0</text>
<text text-anchor="middle" x="381.68" y="-1282" font-family="Courier New" font-size="10.00">&#45;lowerCharRow1</text>
<text text-anchor="middle" x="381.68" y="-1271" font-family="Courier New" font-size="10.00">&#45;lowerCharRow2</text>
<text text-anchor="middle" x="381.68" y="-1260" font-family="Courier New" font-size="10.00">&#45;lowerCharRow3</text>
<text text-anchor="middle" x="381.68" y="-1249" font-family="Courier New" font-size="10.00">&#45;position0i</text>
<text text-anchor="middle" x="381.68" y="-1238" font-family="Courier New" font-size="10.00">&#45;position1i</text>
<text text-anchor="middle" x="381.68" y="-1227" font-family="Courier New" font-size="10.00">&#45;position2i</text>
<text text-anchor="middle" x="381.68" y="-1216" font-family="Courier New" font-size="10.00">&#45;position3i</text>
<text text-anchor="middle" x="381.68" y="-1205" font-family="Courier New" font-size="10.00">&#45;positionj</text>
<text text-anchor="middle" x="381.68" y="-1194" font-family="Courier New" font-size="10.00">&#45;specialKeyLocations</text>
<text text-anchor="middle" x="381.68" y="-1183" font-family="Courier New" font-size="10.00">...</text>
</g>
<!-- Node8&#45;&gt;Node3 -->
<g id="edge9" class="edge">
<title>Node8&#45;&gt;Node3</title>
<path fill="none" stroke="#404040" d="M695.54,-999.78C666.66,-952.26 609.56,-863.29 549.18,-797 510.25,-754.27 462.17,-711.99 420.21,-677.83"/>
<polygon fill="none" stroke="#404040" points="420.14,-677.76 412.96,-677.1 410.81,-670.22 417.99,-670.88 420.14,-677.76"/>
<text text-anchor="middle" x="651.68" y="-840" font-family="Courier New" font-size="10.00"> +onEndEdit</text>
</g>
<!-- Node9&#45;&gt;Node1 -->
<g id="edge11" class="edge">
<title>Node9&#45;&gt;Node1</title>
<path fill="none" stroke="#404040" d="M107.18,-797.28C107.18,-707.1 107.18,-497.62 107.18,-344.94"/>
<polygon fill="none" stroke="#404040" points="107.18,-344.66 103.18,-338.66 107.18,-332.66 111.18,-338.66 107.18,-344.66"/>
<text text-anchor="middle" x="152.68" y="-599" font-family="Courier New" font-size="10.00"> &#45;objectManager</text>
</g>
</g>
</svg>
