<?xml version="1.0" encoding="UTF-8" standalone="no"?>
<!DOCTYPE svg PUBLIC "-//W3C//DTD SVG 1.1//EN"
 "http://www.w3.org/Graphics/SVG/1.1/DTD/svg11.dtd">
<!-- Generated by graphviz version 2.38.0 (20140413.2041)
 -->
<!-- Title: C2M2.NeuronalDynamics.Visualization.VTK.VTUPlayerButton Pages: 1 -->
<svg width="728pt" height="1010pt"
 viewBox="0.00 0.00 728.00 1010.00" xmlns="http://www.w3.org/2000/svg" xmlns:xlink="http://www.w3.org/1999/xlink">
<g id="graph0" class="graph" transform="scale(1 1) rotate(0) translate(4 1006)">
<title>C2M2.NeuronalDynamics.Visualization.VTK.VTUPlayerButton</title>
<polygon fill="white" stroke="none" points="-4,4 -4,-1006 724,-1006 724,4 -4,4"/>
<!-- Node1 -->
<g id="node1" class="node"><title>Node1</title>
<g id="a_node1"><a xlink:title=" ">
<polygon fill="#bfbfbf" stroke="black" points="114,-0.5 114,-123.5 347,-123.5 347,-0.5 114,-0.5"/>
<text text-anchor="start" x="122" y="-111.5" font-family="Courier New" font-size="10.00">C2M2.NeuronalDynamics.Visualization.</text>
<text text-anchor="middle" x="230.5" y="-100.5" font-family="Courier New" font-size="10.00">VTK.VTUPlayerButton</text>
<polyline fill="none" stroke="black" points="114,-93.5 347,-93.5 "/>
<text text-anchor="start" x="122" y="-81.5" font-family="Courier New" font-size="10.00">+ buttonType</text>
<text text-anchor="start" x="122" y="-70.5" font-family="Courier New" font-size="10.00">+ mainImage</text>
<text text-anchor="start" x="122" y="-59.5" font-family="Courier New" font-size="10.00">+ clickedImage</text>
<text text-anchor="start" x="122" y="-48.5" font-family="Courier New" font-size="10.00">&#45; animationSpeed</text>
<text text-anchor="start" x="122" y="-37.5" font-family="Courier New" font-size="10.00">&#45; fastMultiplier</text>
<polyline fill="none" stroke="black" points="114,-30.5 347,-30.5 "/>
<text text-anchor="start" x="122" y="-18.5" font-family="Courier New" font-size="10.00">+ ClickButton()</text>
<text text-anchor="start" x="122" y="-7.5" font-family="Courier New" font-size="10.00">&#45; Awake()</text>
</a>
</g>
</g>
<!-- Node2 -->
<g id="node2" class="node"><title>Node2</title>
<g id="a_node2"><a xlink:title=" ">
<polygon fill="white" stroke="#bfbfbf" points="280,-844 280,-901 375,-901 375,-844 280,-844"/>
<text text-anchor="middle" x="327.5" y="-889" font-family="Courier New" font-size="10.00">MonoBehaviour</text>
<polyline fill="none" stroke="#bfbfbf" points="280,-882 375,-882 "/>
<text text-anchor="middle" x="327.5" y="-870" font-family="Courier New" font-size="10.00"> </text>
<polyline fill="none" stroke="#bfbfbf" points="280,-863 375,-863 "/>
<text text-anchor="middle" x="327.5" y="-851" font-family="Courier New" font-size="10.00"> </text>
</a>
</g>
</g>
<!-- Node2&#45;&gt;Node1 -->
<g id="edge1" class="edge"><title>Node2&#45;&gt;Node1</title>
<path fill="none" stroke="midnightblue" d="M270.827,-845.632C225.155,-820.457 168.5,-777.449 168.5,-719 168.5,-719 168.5,-719 168.5,-265 168.5,-216.027 185.361,-163.198 201.497,-123.853"/>
<polygon fill="none" stroke="midnightblue" points="269.326,-848.799 279.795,-850.429 272.628,-842.626 269.326,-848.799"/>
</g>
<!-- Node3 -->
<g id="node3" class="node"><title>Node3</title>
<g id="a_node3"><a xlink:href="../../dc/d1d/class_c2_m2_1_1_neuronal_dynamics_1_1_visualization_1_1_v_t_k_1_1_v_t_u_player.html" target="_top" xlink:title=" ">
<polygon fill="white" stroke="black" points="197,-408.5 197,-619.5 430,-619.5 430,-408.5 197,-408.5"/>
<text text-anchor="start" x="205" y="-607.5" font-family="Courier New" font-size="10.00">C2M2.NeuronalDynamics.Visualization.</text>
<text text-anchor="middle" x="313.5" y="-596.5" font-family="Courier New" font-size="10.00">VTK.VTUPlayer</text>
<polyline fill="none" stroke="black" points="197,-589.5 430,-589.5 "/>
<text text-anchor="start" x="205" y="-577.5" font-family="Courier New" font-size="10.00">+ frameCountDisplay</text>
<text text-anchor="start" x="205" y="-566.5" font-family="Courier New" font-size="10.00">&#45; mf</text>
<text text-anchor="start" x="205" y="-555.5" font-family="Courier New" font-size="10.00">&#45; maxFrame</text>
<text text-anchor="start" x="205" y="-544.5" font-family="Courier New" font-size="10.00">&#45; slider</text>
<text text-anchor="start" x="205" y="-533.5" font-family="Courier New" font-size="10.00">&#45; formatString</text>
<text text-anchor="start" x="205" y="-522.5" font-family="Courier New" font-size="10.00">&#45; currentFrame</text>
<polyline fill="none" stroke="black" points="197,-515.5 430,-515.5 "/>
<text text-anchor="start" x="205" y="-503.5" font-family="Courier New" font-size="10.00">+ Initialize()</text>
<text text-anchor="start" x="205" y="-492.5" font-family="Courier New" font-size="10.00">+ Play()</text>
<text text-anchor="start" x="205" y="-481.5" font-family="Courier New" font-size="10.00">+ Pause()</text>
<text text-anchor="start" x="205" y="-470.5" font-family="Courier New" font-size="10.00">+ Rewind()</text>
<text text-anchor="start" x="205" y="-459.5" font-family="Courier New" font-size="10.00">+ NextFrame()</text>
<text text-anchor="start" x="205" y="-448.5" font-family="Courier New" font-size="10.00">+ PreviousFrame()</text>
<text text-anchor="start" x="205" y="-437.5" font-family="Courier New" font-size="10.00">&#45; NextFrameRepeating()</text>
<text text-anchor="start" x="205" y="-426.5" font-family="Courier New" font-size="10.00">&#45; PreviousFramePrevious()</text>
<text text-anchor="start" x="205" y="-415.5" font-family="Courier New" font-size="10.00">&#45; UpdateMesh()</text>
</a>
</g>
</g>
<!-- Node2&#45;&gt;Node3 -->
<g id="edge3" class="edge"><title>Node2&#45;&gt;Node3</title>
<path fill="none" stroke="midnightblue" d="M342.587,-834.249C349.543,-815.097 357.018,-791.175 360.5,-769 369.531,-711.482 371.066,-695.255 360.5,-638 359.38,-631.93 357.973,-625.773 356.353,-619.613"/>
<polygon fill="none" stroke="midnightblue" points="339.241,-833.203 339.02,-843.795 345.798,-835.653 339.241,-833.203"/>
</g>
<!-- Node4 -->
<g id="node4" class="node"><title>Node4</title>
<g id="a_node4"><a xlink:href="../../dd/dab/class_c2_m2_1_1_raycast_press_events.html" target="_top" xlink:title="Store custom events that the corresponding RaycastTriggerManager will invoke">
<polygon fill="white" stroke="black" points="197,-667.5 197,-768.5 352,-768.5 352,-667.5 197,-667.5"/>
<text text-anchor="middle" x="274.5" y="-756.5" font-family="Courier New" font-size="10.00">C2M2.RaycastPressEvents</text>
<polyline fill="none" stroke="black" points="197,-749.5 352,-749.5 "/>
<text text-anchor="start" x="205" y="-737.5" font-family="Courier New" font-size="10.00">+ OnPress</text>
<text text-anchor="start" x="205" y="-726.5" font-family="Courier New" font-size="10.00">+ OnHoldPress</text>
<text text-anchor="start" x="205" y="-715.5" font-family="Courier New" font-size="10.00">+ OnEndPress</text>
<polyline fill="none" stroke="black" points="197,-708.5 352,-708.5 "/>
<text text-anchor="start" x="205" y="-696.5" font-family="Courier New" font-size="10.00">+ Press()</text>
<text text-anchor="start" x="205" y="-685.5" font-family="Courier New" font-size="10.00">+ HoldPress()</text>
<text text-anchor="start" x="205" y="-674.5" font-family="Courier New" font-size="10.00">+ EndPress()</text>
</a>
</g>
</g>
<!-- Node2&#45;&gt;Node4 -->
<g id="edge5" class="edge"><title>Node2&#45;&gt;Node4</title>
<path fill="none" stroke="midnightblue" d="M314.577,-834.315C307.707,-814.549 299.17,-789.985 291.743,-768.614"/>
<polygon fill="none" stroke="midnightblue" points="311.313,-835.587 317.902,-843.883 317.925,-833.289 311.313,-835.587"/>
</g>
<!-- Node7 -->
<g id="node7" class="node"><title>Node7</title>
<g id="a_node7"><a xlink:href="../../d8/d74/class_c2_m2_1_1_neuronal_dynamics_1_1_visualization_1_1_v_t_k_1_1_v_t_u_manager.html" target="_top" xlink:title=" ">
<polygon fill="white" stroke="black" points="316,-171.5 316,-360.5 549,-360.5 549,-171.5 316,-171.5"/>
<text text-anchor="start" x="324" y="-348.5" font-family="Courier New" font-size="10.00">C2M2.NeuronalDynamics.Visualization.</text>
<text text-anchor="middle" x="432.5" y="-337.5" font-family="Courier New" font-size="10.00">VTK.VTUManager</text>
<polyline fill="none" stroke="black" points="316,-330.5 549,-330.5 "/>
<text text-anchor="start" x="324" y="-318.5" font-family="Courier New" font-size="10.00">+ dataExtension</text>
<text text-anchor="start" x="324" y="-307.5" font-family="Courier New" font-size="10.00">+ dataPath</text>
<text text-anchor="start" x="324" y="-296.5" font-family="Courier New" font-size="10.00">+ fileProcessCount</text>
<text text-anchor="start" x="324" y="-285.5" font-family="Courier New" font-size="10.00">+ initialPosition</text>
<text text-anchor="start" x="324" y="-274.5" font-family="Courier New" font-size="10.00">+ initialRotation</text>
<text text-anchor="start" x="324" y="-263.5" font-family="Courier New" font-size="10.00">+ compoundColliderResolution</text>
<text text-anchor="start" x="324" y="-252.5" font-family="Courier New" font-size="10.00">+ adjacencyListSubdivisions</text>
<text text-anchor="start" x="324" y="-241.5" font-family="Courier New" font-size="10.00">+ vtuList</text>
<text text-anchor="start" x="324" y="-230.5" font-family="Courier New" font-size="10.00">+ gradient</text>
<text text-anchor="start" x="324" y="-219.5" font-family="Courier New" font-size="10.00">&#45; objectManager</text>
<text text-anchor="start" x="324" y="-208.5" font-family="Courier New" font-size="10.00">&#45; meshf</text>
<polyline fill="none" stroke="black" points="316,-201.5 549,-201.5 "/>
<text text-anchor="start" x="324" y="-189.5" font-family="Courier New" font-size="10.00">+ Initialize()</text>
<text text-anchor="start" x="324" y="-178.5" font-family="Courier New" font-size="10.00">&#45; BuildVTUList()</text>
</a>
</g>
</g>
<!-- Node2&#45;&gt;Node7 -->
<g id="edge9" class="edge"><title>Node2&#45;&gt;Node7</title>
<path fill="none" stroke="midnightblue" d="M356.777,-835.603C360.295,-830.519 363.646,-825.236 366.5,-820 411.788,-736.916 422.015,-712.995 439.5,-620 455.811,-533.253 451.557,-432.405 444.713,-360.767"/>
<polygon fill="none" stroke="midnightblue" points="353.78,-833.774 350.756,-843.928 359.452,-837.876 353.78,-833.774"/>
</g>
<!-- Node3&#45;&gt;Node1 -->
<g id="edge2" class="edge"><title>Node3&#45;&gt;Node1</title>
<path fill="none" stroke="#404040" d="M255.599,-408.44C249.084,-392.919 243.398,-376.816 239.5,-361 220.99,-285.891 221.025,-196.913 224.26,-135.859"/>
<polygon fill="none" stroke="#404040" points="224.273,-135.632 220.628,-129.41 224.969,-123.652 228.615,-129.874 224.273,-135.632"/>
<text text-anchor="middle" x="273" y="-263.5" font-family="Courier New" font-size="10.00"> &#45;vtuPlayer</text>
</g>
<!-- Node3&#45;&gt;Node7 -->
<g id="edge10" class="edge"><title>Node3&#45;&gt;Node7</title>
<path fill="none" stroke="#404040" d="M287.84,-408.364C288.758,-398.186 291.126,-388.226 295.5,-379 299.037,-371.54 303.341,-364.411 308.213,-357.628"/>
<polygon fill="none" stroke="#404040" points="308.376,-357.417 308.894,-350.225 315.733,-347.937 315.215,-355.129 308.376,-357.417"/>
<text text-anchor="middle" x="329" y="-382" font-family="Courier New" font-size="10.00"> +VTUPlayer</text>
</g>
<!-- Node4&#45;&gt;Node3 -->
<g id="edge4" class="edge"><title>Node4&#45;&gt;Node3</title>
<path fill="none" stroke="#404040" d="M284.09,-667.327C286.21,-656.349 288.542,-644.271 290.937,-631.864"/>
<polygon fill="none" stroke="#404040" points="290.973,-631.677 288.183,-625.027 293.248,-619.894 296.038,-626.544 290.973,-631.677"/>
<text text-anchor="middle" x="323" y="-641" font-family="Courier New" font-size="10.00"> +fullPause</text>
</g>
<!-- Node5 -->
<g id="node5" class="node"><title>Node5</title>
<g id="a_node5"><a xlink:href="../../db/d79/class_c2_m2_1_1_raycast_press_events_1_1_raycast_hit_event.html" target="_top" xlink:title=" ">
<polygon fill="white" stroke="black" points="0,-838.5 0,-906.5 161,-906.5 161,-838.5 0,-838.5"/>
<text text-anchor="start" x="8" y="-894.5" font-family="Courier New" font-size="10.00">C2M2.RaycastPressEvents.</text>
<text text-anchor="middle" x="80.5" y="-883.5" font-family="Courier New" font-size="10.00">RaycastHitEvent</text>
<polyline fill="none" stroke="black" points="0,-876.5 161,-876.5 "/>
<text text-anchor="middle" x="80.5" y="-864.5" font-family="Courier New" font-size="10.00"> </text>
<polyline fill="none" stroke="black" points="0,-857.5 161,-857.5 "/>
<text text-anchor="middle" x="80.5" y="-845.5" font-family="Courier New" font-size="10.00"> </text>
</a>
</g>
</g>
<!-- Node5&#45;&gt;Node4 -->
<g id="edge6" class="edge"><title>Node5&#45;&gt;Node4</title>
<path fill="none" stroke="#404040" d="M122.595,-838.41C145.721,-820.231 175.054,-797.173 201.764,-776.176"/>
<polygon fill="none" stroke="#404040" points="202.036,-775.963 204.281,-769.11 211.47,-768.547 209.225,-775.4 202.036,-775.963"/>
<text text-anchor="middle" x="220" y="-812" font-family="Courier New" font-size="10.00"> &#45;onPress</text>
<text text-anchor="middle" x="220" y="-801" font-family="Courier New" font-size="10.00">&#45;onHoldPress</text>
<text text-anchor="middle" x="220" y="-790" font-family="Courier New" font-size="10.00">&#45;onEndPress</text>
</g>
<!-- Node6 -->
<g id="node6" class="node"><title>Node6</title>
<g id="a_node6"><a xlink:title=" ">
<polygon fill="white" stroke="#bfbfbf" points="0,-944.5 0,-1001.5 161,-1001.5 161,-944.5 0,-944.5"/>
<text text-anchor="middle" x="80.5" y="-989.5" font-family="Courier New" font-size="10.00">UnityEvent&lt; RaycastHit &gt;</text>
<polyline fill="none" stroke="#bfbfbf" points="0,-982.5 161,-982.5 "/>
<text text-anchor="middle" x="80.5" y="-970.5" font-family="Courier New" font-size="10.00"> </text>
<polyline fill="none" stroke="#bfbfbf" points="0,-963.5 161,-963.5 "/>
<text text-anchor="middle" x="80.5" y="-951.5" font-family="Courier New" font-size="10.00"> </text>
</a>
</g>
</g>
<!-- Node6&#45;&gt;Node5 -->
<g id="edge7" class="edge"><title>Node6&#45;&gt;Node5</title>
<path fill="none" stroke="midnightblue" d="M80.5,-934.007C80.5,-924.962 80.5,-915.383 80.5,-906.578"/>
<polygon fill="none" stroke="midnightblue" points="77.0001,-934.3 80.5,-944.3 84.0001,-934.3 77.0001,-934.3"/>
</g>
<!-- Node7&#45;&gt;Node1 -->
<g id="edge12" class="edge"><title>Node7&#45;&gt;Node1</title>
<path fill="none" stroke="#404040" d="M338.892,-171.392C325.727,-158.227 312.394,-144.894 299.793,-132.293"/>
<polygon fill="none" stroke="#404040" points="299.683,-132.183 292.612,-130.769 291.198,-123.698 298.269,-125.112 299.683,-132.183"/>
<text text-anchor="middle" x="356" y="-145" font-family="Courier New" font-size="10.00"> +vtuManager</text>
</g>
<!-- Node7&#45;&gt;Node3 -->
<g id="edge8" class="edge"><title>Node7&#45;&gt;Node3</title>
<path fill="none" stroke="#404040" d="M380.622,-360.786C377.477,-366.92 374.411,-373.029 371.5,-379 368.619,-384.91 365.726,-390.998 362.854,-397.168"/>
<polygon fill="none" stroke="#404040" points="362.729,-397.438 363.854,-404.561 357.712,-408.339 356.587,-401.216 362.729,-397.438"/>
<text text-anchor="middle" x="408" y="-382" font-family="Courier New" font-size="10.00"> +vtuManager</text>
</g>
<!-- Node8 -->
<g id="node8" class="node"><title>Node8</title>
<g id="a_node8"><a xlink:href="../../da/da3/class_c2_m2_1_1_neuronal_dynamics_1_1_visualization_1_1_v_t_k_1_1_v_t_u_object_builder.html" target="_top" xlink:title="Overarching manager to control order of events for reading in VTK data, positioning it,...">
<polygon fill="white" stroke="black" points="487,-474.5 487,-553.5 720,-553.5 720,-474.5 487,-474.5"/>
<text text-anchor="start" x="495" y="-541.5" font-family="Courier New" font-size="10.00">C2M2.NeuronalDynamics.Visualization.</text>
<text text-anchor="middle" x="603.5" y="-530.5" font-family="Courier New" font-size="10.00">VTK.VTUObjectBuilder</text>
<polyline fill="none" stroke="black" points="487,-523.5 720,-523.5 "/>
<text text-anchor="middle" x="603.5" y="-511.5" font-family="Courier New" font-size="10.00"> </text>
<polyline fill="none" stroke="black" points="487,-504.5 720,-504.5 "/>
<text text-anchor="start" x="495" y="-492.5" font-family="Courier New" font-size="10.00">+ BuildVTUObjects()</text>
<text text-anchor="start" x="495" y="-481.5" font-family="Courier New" font-size="10.00">+ BuildVTUObjects()</text>
</a>
</g>
</g>
<!-- Node8&#45;&gt;Node7 -->
<g id="edge11" class="edge"><title>Node8&#45;&gt;Node7</title>
<path fill="none" stroke="#404040" d="M576.593,-474.292C557.249,-446.464 530.196,-407.545 504.748,-370.936"/>
<polygon fill="none" stroke="#404040" points="504.47,-370.536 497.761,-367.892 497.621,-360.683 504.33,-363.326 504.47,-370.536"/>
<text text-anchor="middle" x="572" y="-382" font-family="Courier New" font-size="10.00"> &#45;vtuObjectBuilder</text>
</g>
</g>
</svg>
