<?xml version="1.0" encoding="UTF-8" standalone="no"?>
<!DOCTYPE svg PUBLIC "-//W3C//DTD SVG 1.1//EN"
 "http://www.w3.org/Graphics/SVG/1.1/DTD/svg11.dtd">
<!-- Generated by graphviz version 2.38.0 (20140413.2041)
 -->
<!-- Title: Graphical Class Hierarchy Pages: 1 -->
<svg width="288pt" height="137pt"
 viewBox="0.00 0.00 288.00 137.00" xmlns="http://www.w3.org/2000/svg" xmlns:xlink="http://www.w3.org/1999/xlink">
<g id="graph0" class="graph" transform="scale(1 1) rotate(0) translate(4 133)">
<title>Graphical Class Hierarchy</title>
<polygon fill="white" stroke="none" points="-4,4 -4,-133 284,-133 284,4 -4,4"/>
<!-- Node6 -->
<g id="node1" class="node"><title>Node6</title>
<g id="a_node1"><a xlink:title=" ">
<polygon fill="white" stroke="#bfbfbf" points="0,-55 0,-74 77,-74 77,-55 0,-55"/>
<text text-anchor="middle" x="38.5" y="-62" font-family="Courier New" font-size="10.00">UnityEvent</text>
</a>
</g>
</g>
<!-- Node0 -->
<g id="node2" class="node"><title>Node0</title>
<g id="a_node2"><a xlink:href="da/d12/class_c2_m2_1_1_raycast_input_field_1_1_on_change_event.html" target="_top" xlink:title=" ">
<polygon fill="white" stroke="black" points="113,-98.5 113,-128.5 280,-128.5 280,-98.5 113,-98.5"/>
<text text-anchor="start" x="121" y="-116.5" font-family="Courier New" font-size="10.00">C2M2.RaycastInputField.On</text>
<text text-anchor="middle" x="196.5" y="-105.5" font-family="Courier New" font-size="10.00">ChangeEvent</text>
</a>
</g>
</g>
<!-- Node6&#45;&gt;Node0 -->
<g id="edge1" class="edge"><title>Node6&#45;&gt;Node0</title>
<path fill="none" stroke="midnightblue" d="M76.126,-77.3178C87.8673,-81.3301 100.949,-85.6997 113,-89.5 122.531,-92.5057 132.725,-95.5821 142.581,-98.4862"/>
<polygon fill="midnightblue" stroke="midnightblue" points="77.2253,-73.9947 66.6306,-74.0518 74.9485,-80.6141 77.2253,-73.9947"/>
</g>
<!-- Node8 -->
<g id="node3" class="node"><title>Node8</title>
<g id="a_node3"><a xlink:href="d9/df8/class_c2_m2_1_1_raycast_input_field_1_1_on_submit_event.html" target="_top" xlink:title=" ">
<polygon fill="white" stroke="black" points="113,-49.5 113,-79.5 280,-79.5 280,-49.5 113,-49.5"/>
<text text-anchor="start" x="121" y="-67.5" font-family="Courier New" font-size="10.00">C2M2.RaycastInputField.On</text>
<text text-anchor="middle" x="196.5" y="-56.5" font-family="Courier New" font-size="10.00">SubmitEvent</text>
</a>
</g>
</g>
<!-- Node6&#45;&gt;Node8 -->
<g id="edge2" class="edge"><title>Node6&#45;&gt;Node8</title>
<path fill="none" stroke="midnightblue" d="M87.5147,-64.5C95.5599,-64.5 104.107,-64.5 112.732,-64.5"/>
<polygon fill="midnightblue" stroke="midnightblue" points="87.2633,-61.0001 77.2632,-64.5 87.2632,-68.0001 87.2633,-61.0001"/>
</g>
<!-- Node9 -->
<g id="node4" class="node"><title>Node9</title>
<g id="a_node4"><a xlink:href="db/d79/class_c2_m2_1_1_raycast_press_events_1_1_raycast_hit_event.html" target="_top" xlink:title=" ">
<polygon fill="white" stroke="black" points="116,-0.5 116,-30.5 277,-30.5 277,-0.5 116,-0.5"/>
<text text-anchor="start" x="124" y="-18.5" font-family="Courier New" font-size="10.00">C2M2.RaycastPressEvents.</text>
<text text-anchor="middle" x="196.5" y="-7.5" font-family="Courier New" font-size="10.00">RaycastHitEvent</text>
</a>
</g>
</g>
<!-- Node6&#45;&gt;Node9 -->
<g id="edge3" class="edge"><title>Node6&#45;&gt;Node9</title>
<path fill="none" stroke="midnightblue" d="M77.9984,-51.7575C89.2637,-48.0754 101.611,-44.0845 113,-40.5 123.421,-37.22 134.608,-33.7778 145.275,-30.5326"/>
<polygon fill="midnightblue" stroke="midnightblue" points="76.84,-48.454 68.4286,-54.8959 79.0213,-55.1054 76.84,-48.454"/>
</g>
</g>
</svg>
