<?xml version="1.0" encoding="UTF-8" standalone="no"?>
<!DOCTYPE svg PUBLIC "-//W3C//DTD SVG 1.1//EN"
 "http://www.w3.org/Graphics/SVG/1.1/DTD/svg11.dtd">
<!-- Generated by graphviz version 2.38.0 (20140413.2041)
 -->
<!-- Title: Graphical Class Hierarchy Pages: 1 -->
<svg width="306pt" height="274pt"
 viewBox="0.00 0.00 306.00 273.50" xmlns="http://www.w3.org/2000/svg" xmlns:xlink="http://www.w3.org/1999/xlink">
<g id="graph0" class="graph" transform="scale(1 1) rotate(0) translate(4 269.5)">
<title>Graphical Class Hierarchy</title>
<polygon fill="white" stroke="none" points="-4,4 -4,-269.5 302,-269.5 302,4 -4,4"/>
<!-- Node179 -->
<g id="node1" class="node"><title>Node179</title>
<g id="a_node1"><a xlink:title=" ">
<polygon fill="white" stroke="#bfbfbf" points="0,-117.5 0,-136.5 71,-136.5 71,-117.5 0,-117.5"/>
<text text-anchor="middle" x="35.5" y="-124.5" font-family="Courier New" font-size="10.00">Exception</text>
</a>
</g>
</g>
<!-- Node0 -->
<g id="node2" class="node"><title>Node0</title>
<g id="a_node2"><a xlink:href="de/d32/class_c2_m2_1_1_interaction_1_1_v_r_1_1_grabbable_not_found_exception.html" target="_top" xlink:title=" ">
<polygon fill="white" stroke="black" points="107,-235 107,-265 298,-265 298,-235 107,-235"/>
<text text-anchor="start" x="115" y="-253" font-family="Courier New" font-size="10.00">C2M2.Interaction.VR.Grabbable</text>
<text text-anchor="middle" x="202.5" y="-242" font-family="Courier New" font-size="10.00">NotFoundException</text>
</a>
</g>
</g>
<!-- Node179&#45;&gt;Node0 -->
<g id="edge1" class="edge"><title>Node179&#45;&gt;Node0</title>
<path fill="none" stroke="midnightblue" d="M44.8404,-145.818C55.8148,-168.364 77.2564,-205.636 107,-226 112.028,-229.443 117.511,-232.391 123.221,-234.918"/>
<polygon fill="midnightblue" stroke="midnightblue" points="47.9434,-144.191 40.5425,-136.61 41.6003,-147.152 47.9434,-144.191"/>
</g>
<!-- Node181 -->
<g id="node3" class="node"><title>Node181</title>
<g id="a_node3"><a xlink:href="d4/de1/class_c2_m2_1_1_simulation_1_1_simulation_not_found_exception.html" target="_top" xlink:title=" ">
<polygon fill="white" stroke="black" points="116,-186 116,-216 289,-216 289,-186 116,-186"/>
<text text-anchor="start" x="124" y="-204" font-family="Courier New" font-size="10.00">C2M2.Simulation.Simulation</text>
<text text-anchor="middle" x="202.5" y="-193" font-family="Courier New" font-size="10.00">NotFoundException</text>
</a>
</g>
</g>
<!-- Node179&#45;&gt;Node181 -->
<g id="edge2" class="edge"><title>Node179&#45;&gt;Node181</title>
<path fill="none" stroke="midnightblue" d="M55.22,-143.196C68.7836,-154.172 88.004,-168.224 107,-177 114.376,-180.408 122.308,-183.381 130.329,-185.964"/>
<polygon fill="midnightblue" stroke="midnightblue" points="57.1102,-140.216 47.183,-136.515 52.6351,-145.599 57.1102,-140.216"/>
</g>
<!-- Node182 -->
<g id="node4" class="node"><title>Node182</title>
<g id="a_node4"><a xlink:href="de/d95/class_c2_m2_1_1_utils_1_1_time_node_not_found_exception.html" target="_top" xlink:title=" ">
<polygon fill="white" stroke="black" points="113,-137 113,-167 292,-167 292,-137 113,-137"/>
<text text-anchor="start" x="121" y="-155" font-family="Courier New" font-size="10.00">C2M2.Utils.TimeNodeNotFound</text>
<text text-anchor="middle" x="202.5" y="-144" font-family="Courier New" font-size="10.00">Exception</text>
</a>
</g>
</g>
<!-- Node179&#45;&gt;Node182 -->
<g id="edge3" class="edge"><title>Node179&#45;&gt;Node182</title>
<path fill="none" stroke="midnightblue" d="M81.07,-133.753C91.0051,-135.258 101.878,-136.906 112.897,-138.575"/>
<polygon fill="midnightblue" stroke="midnightblue" points="81.5009,-130.278 71.0894,-132.241 80.4522,-137.199 81.5009,-130.278"/>
</g>
<!-- Node183 -->
<g id="node5" class="node"><title>Node183</title>
<g id="a_node5"><a xlink:href="d9/db8/class_c2_m2_1_1_visualization_1_1_gradient32_l_u_t_not_found_exception.html" target="_top" xlink:title=" ">
<polygon fill="white" stroke="black" points="107,-88 107,-118 298,-118 298,-88 107,-88"/>
<text text-anchor="start" x="115" y="-106" font-family="Courier New" font-size="10.00">C2M2.Visualization.Gradient32</text>
<text text-anchor="middle" x="202.5" y="-95" font-family="Courier New" font-size="10.00">LUTNotFoundException</text>
</a>
</g>
</g>
<!-- Node179&#45;&gt;Node183 -->
<g id="edge4" class="edge"><title>Node179&#45;&gt;Node183</title>
<path fill="none" stroke="midnightblue" d="M81.0006,-120.527C89.1159,-119.347 97.8589,-118.075 106.797,-116.775"/>
<polygon fill="midnightblue" stroke="midnightblue" points="80.4815,-117.066 71.0894,-121.969 81.4891,-123.993 80.4815,-117.066"/>
</g>
<!-- Node184 -->
<g id="node6" class="node"><title>Node184</title>
<g id="a_node6"><a xlink:href="d9/dec/class_c2_m2_1_1_visualization_1_1_gradient_not_found_exception.html" target="_top" xlink:title=" ">
<polygon fill="white" stroke="black" points="113,-39 113,-69 292,-69 292,-39 113,-39"/>
<text text-anchor="start" x="121" y="-57" font-family="Courier New" font-size="10.00">C2M2.Visualization.Gradient</text>
<text text-anchor="middle" x="202.5" y="-46" font-family="Courier New" font-size="10.00">NotFoundException</text>
</a>
</g>
</g>
<!-- Node179&#45;&gt;Node184 -->
<g id="edge5" class="edge"><title>Node179&#45;&gt;Node184</title>
<path fill="none" stroke="midnightblue" d="M56.3223,-110.798C69.881,-100.419 88.6572,-87.3723 107,-79 115.337,-75.1948 124.361,-71.8826 133.412,-69.0246"/>
<polygon fill="midnightblue" stroke="midnightblue" points="53.9265,-108.229 48.2228,-117.158 58.2495,-113.735 53.9265,-108.229"/>
</g>
<!-- Node185 -->
<g id="node7" class="node"><title>Node185</title>
<g id="a_node7"><a xlink:href="df/d10/class_mesh_filter_not_found_exception.html" target="_top" xlink:title=" ">
<polygon fill="white" stroke="black" points="113,-0.5 113,-19.5 292,-19.5 292,-0.5 113,-0.5"/>
<text text-anchor="middle" x="202.5" y="-7.5" font-family="Courier New" font-size="10.00">MeshFilterNotFoundException</text>
</a>
</g>
</g>
<!-- Node179&#45;&gt;Node185 -->
<g id="edge6" class="edge"><title>Node179&#45;&gt;Node185</title>
<path fill="none" stroke="midnightblue" d="M44.8092,-108.363C55.7522,-86.0741 77.1624,-49.3545 107,-30 113.612,-25.7108 120.982,-22.3223 128.608,-19.6486"/>
<polygon fill="midnightblue" stroke="midnightblue" points="41.6129,-106.936 40.5252,-117.475 47.9476,-109.914 41.6129,-106.936"/>
</g>
</g>
</svg>
