<?xml version="1.0" encoding="UTF-8" standalone="no"?>
<!DOCTYPE svg PUBLIC "-//W3C//DTD SVG 1.1//EN"
 "http://www.w3.org/Graphics/SVG/1.1/DTD/svg11.dtd">
<!-- Generated by graphviz version 2.38.0 (20140413.2041)
 -->
<!-- Title: C2M2.Interaction.Signaling.OculusEventSignaler Pages: 1 -->
<svg width="193pt" height="799pt"
 viewBox="0.00 0.00 193.00 799.00" xmlns="http://www.w3.org/2000/svg" xmlns:xlink="http://www.w3.org/1999/xlink">
<g id="graph0" class="graph" transform="scale(1 1) rotate(0) translate(4 795)">
<title>C2M2.Interaction.Signaling.OculusEventSignaler</title>
<polygon fill="white" stroke="none" points="-4,4 -4,-795 189,-795 189,4 -4,4"/>
<!-- Node1 -->
<g id="node1" class="node"><title>Node1</title>
<g id="a_node1"><a xlink:title="Activate raycast triggers using oculus controller buttons and fingertip distance">
<polygon fill="#bfbfbf" stroke="black" points="0,-0.5 0,-277.5 185,-277.5 185,-0.5 0,-0.5"/>
<text text-anchor="start" x="8" y="-265.5" font-family="Courier New" font-size="10.00">C2M2.Interaction.Signaling.</text>
<text text-anchor="middle" x="92.5" y="-254.5" font-family="Courier New" font-size="10.00">OculusEventSignaler</text>
<polyline fill="none" stroke="black" points="0,-247.5 185,-247.5 "/>
<text text-anchor="start" x="8" y="-235.5" font-family="Courier New" font-size="10.00">+ controller</text>
<text text-anchor="start" x="8" y="-224.5" font-family="Courier New" font-size="10.00">+ beginRaycastingButton</text>
<text text-anchor="start" x="8" y="-213.5" font-family="Courier New" font-size="10.00">+ triggerEventsButton</text>
<text text-anchor="start" x="8" y="-202.5" font-family="Courier New" font-size="10.00">+ lineRend</text>
<text text-anchor="start" x="8" y="-191.5" font-family="Courier New" font-size="10.00">+ unpressedColor</text>
<text text-anchor="start" x="8" y="-180.5" font-family="Courier New" font-size="10.00">+ pressedColor</text>
<text text-anchor="start" x="8" y="-169.5" font-family="Courier New" font-size="10.00">+ staticHand</text>
<text text-anchor="start" x="8" y="-158.5" font-family="Courier New" font-size="10.00">+ defaultHand</text>
<text text-anchor="start" x="8" y="-147.5" font-family="Courier New" font-size="10.00">+ clickDistance</text>
<text text-anchor="start" x="8" y="-136.5" font-family="Courier New" font-size="10.00">&#45; distancePressed</text>
<polyline fill="none" stroke="black" points="0,-129.5 185,-129.5 "/>
<text text-anchor="start" x="8" y="-117.5" font-family="Courier New" font-size="10.00"># OnAwake()</text>
<text text-anchor="start" x="8" y="-106.5" font-family="Courier New" font-size="10.00"># OnStart()</text>
<text text-anchor="start" x="8" y="-95.5" font-family="Courier New" font-size="10.00"># BeginRaycastingCondition()</text>
<text text-anchor="start" x="8" y="-84.5" font-family="Courier New" font-size="10.00"># ChildsPressCondition()</text>
<text text-anchor="start" x="8" y="-73.5" font-family="Courier New" font-size="10.00"># OnPressSub()</text>
<text text-anchor="start" x="8" y="-62.5" font-family="Courier New" font-size="10.00"># OnHoldPressSub()</text>
<text text-anchor="start" x="8" y="-51.5" font-family="Courier New" font-size="10.00"># OnEndPressSub()</text>
<text text-anchor="start" x="8" y="-40.5" font-family="Courier New" font-size="10.00"># RaycastingMethod()</text>
<text text-anchor="start" x="8" y="-29.5" font-family="Courier New" font-size="10.00">&#45; StaticHandSetActive()</text>
<text text-anchor="start" x="8" y="-18.5" font-family="Courier New" font-size="10.00">&#45; LineRendererSetActive()</text>
<text text-anchor="start" x="8" y="-7.5" font-family="Courier New" font-size="10.00">&#45; CheckPressDistance()</text>
</a>
</g>
</g>
<!-- Node2 -->
<g id="node2" class="node"><title>Node2</title>
<g id="a_node2"><a xlink:href="../../d6/d2d/class_c2_m2_1_1_interaction_1_1_signaling_1_1_raycast_event_signaler.html" target="_top" xlink:title=" ">
<polygon fill="white" stroke="black" points="0,-314.5 0,-569.5 185,-569.5 185,-314.5 0,-314.5"/>
<text text-anchor="middle" x="92.5" y="-557.5" font-family="Courier New" font-size="10.00">RaycastEventSignaler</text>
<polyline fill="none" stroke="black" points="0,-550.5 185,-550.5 "/>
<text text-anchor="start" x="8" y="-538.5" font-family="Courier New" font-size="10.00">+ rightHand</text>
<text text-anchor="start" x="8" y="-527.5" font-family="Courier New" font-size="10.00">+ maxRaycastDistance</text>
<text text-anchor="start" x="8" y="-516.5" font-family="Courier New" font-size="10.00">&#45; layerMask</text>
<text text-anchor="start" x="8" y="-505.5" font-family="Courier New" font-size="10.00">&#45; activeEvent</text>
<text text-anchor="start" x="8" y="-494.5" font-family="Courier New" font-size="10.00">&#45; lastHit</text>
<polyline fill="none" stroke="black" points="0,-487.5 185,-487.5 "/>
<text text-anchor="start" x="8" y="-475.5" font-family="Courier New" font-size="10.00"># OnAwake()</text>
<text text-anchor="start" x="8" y="-464.5" font-family="Courier New" font-size="10.00"># Awake()</text>
<text text-anchor="start" x="8" y="-453.5" font-family="Courier New" font-size="10.00"># OnStart()</text>
<text text-anchor="start" x="8" y="-442.5" font-family="Courier New" font-size="10.00"># OnPress()</text>
<text text-anchor="start" x="8" y="-431.5" font-family="Courier New" font-size="10.00"># OnHoldPress()</text>
<text text-anchor="start" x="8" y="-420.5" font-family="Courier New" font-size="10.00"># OnEndPress()</text>
<text text-anchor="start" x="8" y="-409.5" font-family="Courier New" font-size="10.00"># OnPressSub()</text>
<text text-anchor="start" x="8" y="-398.5" font-family="Courier New" font-size="10.00"># OnHoldPressSub()</text>
<text text-anchor="start" x="8" y="-387.5" font-family="Courier New" font-size="10.00"># OnEndPressSub()</text>
<text text-anchor="start" x="8" y="-376.5" font-family="Courier New" font-size="10.00"># RaycastingMethod()</text>
<text text-anchor="start" x="8" y="-365.5" font-family="Courier New" font-size="10.00"># BeginRaycastingCondition()</text>
<text text-anchor="start" x="8" y="-354.5" font-family="Courier New" font-size="10.00"># ChildsPressCondition()</text>
<text text-anchor="start" x="8" y="-343.5" font-family="Courier New" font-size="10.00">&#45; Start()</text>
<text text-anchor="start" x="8" y="-332.5" font-family="Courier New" font-size="10.00">&#45; FixedUpdate()</text>
<text text-anchor="start" x="8" y="-321.5" font-family="Courier New" font-size="10.00">&#45; FindRaycastTrigger()</text>
</a>
</g>
</g>
<!-- Node2&#45;&gt;Node1 -->
<g id="edge1" class="edge"><title>Node2&#45;&gt;Node1</title>
<path fill="none" stroke="midnightblue" d="M92.5,-304.012C92.5,-295.285 92.5,-286.497 92.5,-277.767"/>
<polygon fill="none" stroke="midnightblue" points="89.0001,-304.221 92.5,-314.221 96.0001,-304.221 89.0001,-304.221"/>
</g>
<!-- Node3 -->
<g id="node3" class="node"><title>Node3</title>
<g id="a_node3"><a xlink:href="../../d6/d4b/class_c2_m2_1_1_interaction_1_1_signaling_1_1_press_event_signaler.html" target="_top" xlink:title="Send press, holdPress, and endPress events based on set values of Pressed and RaycastTriggerManager">
<polygon fill="white" stroke="black" points="30,-606.5 30,-696.5 155,-696.5 155,-606.5 30,-606.5"/>
<text text-anchor="middle" x="92.5" y="-684.5" font-family="Courier New" font-size="10.00">PressEventSignaler</text>
<polyline fill="none" stroke="black" points="30,-677.5 155,-677.5 "/>
<text text-anchor="start" x="38" y="-665.5" font-family="Courier New" font-size="10.00">+ Pressed</text>
<text text-anchor="start" x="38" y="-654.5" font-family="Courier New" font-size="10.00">&#45; pressedPrevFrame</text>
<polyline fill="none" stroke="black" points="30,-647.5 155,-647.5 "/>
<text text-anchor="start" x="38" y="-635.5" font-family="Courier New" font-size="10.00"># OnPress()</text>
<text text-anchor="start" x="38" y="-624.5" font-family="Courier New" font-size="10.00"># OnHoldPress()</text>
<text text-anchor="start" x="38" y="-613.5" font-family="Courier New" font-size="10.00"># OnEndPress()</text>
</a>
</g>
</g>
<!-- Node3&#45;&gt;Node2 -->
<g id="edge2" class="edge"><title>Node3&#45;&gt;Node2</title>
<path fill="none" stroke="midnightblue" d="M92.5,-596.467C92.5,-587.992 92.5,-578.938 92.5,-569.625"/>
<polygon fill="none" stroke="midnightblue" points="89.0001,-596.495 92.5,-606.495 96.0001,-596.495 89.0001,-596.495"/>
</g>
<!-- Node4 -->
<g id="node4" class="node"><title>Node4</title>
<g id="a_node4"><a xlink:title=" ">
<polygon fill="white" stroke="#bfbfbf" points="45,-733.5 45,-790.5 140,-790.5 140,-733.5 45,-733.5"/>
<text text-anchor="middle" x="92.5" y="-778.5" font-family="Courier New" font-size="10.00">MonoBehaviour</text>
<polyline fill="none" stroke="#bfbfbf" points="45,-771.5 140,-771.5 "/>
<text text-anchor="middle" x="92.5" y="-759.5" font-family="Courier New" font-size="10.00"> </text>
<polyline fill="none" stroke="#bfbfbf" points="45,-752.5 140,-752.5 "/>
<text text-anchor="middle" x="92.5" y="-740.5" font-family="Courier New" font-size="10.00"> </text>
</a>
</g>
</g>
<!-- Node4&#45;&gt;Node3 -->
<g id="edge3" class="edge"><title>Node4&#45;&gt;Node3</title>
<path fill="none" stroke="midnightblue" d="M92.5,-723.214C92.5,-714.609 92.5,-705.394 92.5,-696.554"/>
<polygon fill="none" stroke="midnightblue" points="89.0001,-723.34 92.5,-733.34 96.0001,-723.34 89.0001,-723.34"/>
</g>
</g>
</svg>
