<?xml version="1.0" encoding="UTF-8" standalone="no"?>
<!DOCTYPE svg PUBLIC "-//W3C//DTD SVG 1.1//EN"
 "http://www.w3.org/Graphics/SVG/1.1/DTD/svg11.dtd">
<!-- Generated by graphviz version 2.38.0 (20140413.2041)
 -->
<!-- Title: C2M2.Interaction.VR.MovingOVRHeadsetEmulator Pages: 1 -->
<svg width="181pt" height="281pt"
 viewBox="0.00 0.00 181.00 281.00" xmlns="http://www.w3.org/2000/svg" xmlns:xlink="http://www.w3.org/1999/xlink">
<g id="graph0" class="graph" transform="scale(1 1) rotate(0) translate(4 277)">
<title>C2M2.Interaction.VR.MovingOVRHeadsetEmulator</title>
<polygon fill="white" stroke="none" points="-4,4 -4,-277 177,-277 177,4 -4,4"/>
<!-- Node1 -->
<g id="node1" class="node"><title>Node1</title>
<g id="a_node1"><a xlink:title="Add movement functionality to Oculus HMD headset emulator, add some additional small functionality li...">
<polygon fill="#bfbfbf" stroke="black" points="0,-0.5 0,-178.5 173,-178.5 173,-0.5 0,-0.5"/>
<text text-anchor="start" x="8" y="-166.5" font-family="Courier New" font-size="10.00">C2M2.Interaction.VR.Moving</text>
<text text-anchor="middle" x="86.5" y="-155.5" font-family="Courier New" font-size="10.00">OVRHeadsetEmulator</text>
<polyline fill="none" stroke="black" points="0,-148.5 173,-148.5 "/>
<text text-anchor="start" x="8" y="-136.5" font-family="Courier New" font-size="10.00">+ slowMoveKeys</text>
<text text-anchor="start" x="8" y="-125.5" font-family="Courier New" font-size="10.00">+ speed</text>
<text text-anchor="start" x="8" y="-114.5" font-family="Courier New" font-size="10.00">+ slowSpeed</text>
<text text-anchor="start" x="8" y="-103.5" font-family="Courier New" font-size="10.00">+ SlowMoving</text>
<text text-anchor="start" x="8" y="-92.5" font-family="Courier New" font-size="10.00">&#45; controller</text>
<polyline fill="none" stroke="black" points="0,-85.5 173,-85.5 "/>
<text text-anchor="start" x="8" y="-73.5" font-family="Courier New" font-size="10.00">&#45; Awake()</text>
<text text-anchor="start" x="8" y="-62.5" font-family="Courier New" font-size="10.00">&#45; Start()</text>
<text text-anchor="start" x="8" y="-51.5" font-family="Courier New" font-size="10.00">&#45; CheckSpeed()</text>
<text text-anchor="start" x="8" y="-40.5" font-family="Courier New" font-size="10.00">&#45; DisableAvatar()</text>
<text text-anchor="start" x="8" y="-29.5" font-family="Courier New" font-size="10.00">&#45; InitUI()</text>
<text text-anchor="start" x="8" y="-18.5" font-family="Courier New" font-size="10.00">&#45; OnEnable()</text>
<text text-anchor="start" x="8" y="-7.5" font-family="Courier New" font-size="10.00">&#45; OnDisable()</text>
</a>
</g>
</g>
<!-- Node2 -->
<g id="node2" class="node"><title>Node2</title>
<g id="a_node2"><a xlink:title=" ">
<polygon fill="white" stroke="#bfbfbf" points="24,-215.5 24,-272.5 149,-272.5 149,-215.5 24,-215.5"/>
<text text-anchor="middle" x="86.5" y="-260.5" font-family="Courier New" font-size="10.00">OVRHeadsetEmulator</text>
<polyline fill="none" stroke="#bfbfbf" points="24,-253.5 149,-253.5 "/>
<text text-anchor="middle" x="86.5" y="-241.5" font-family="Courier New" font-size="10.00"> </text>
<polyline fill="none" stroke="#bfbfbf" points="24,-234.5 149,-234.5 "/>
<text text-anchor="middle" x="86.5" y="-222.5" font-family="Courier New" font-size="10.00"> </text>
</a>
</g>
</g>
<!-- Node2&#45;&gt;Node1 -->
<g id="edge1" class="edge"><title>Node2&#45;&gt;Node1</title>
<path fill="none" stroke="midnightblue" d="M86.5,-205.374C86.5,-197.089 86.5,-187.977 86.5,-178.62"/>
<polygon fill="none" stroke="midnightblue" points="83.0001,-205.383 86.5,-215.383 90.0001,-205.383 83.0001,-205.383"/>
</g>
</g>
</svg>
