<?xml version="1.0" encoding="UTF-8" standalone="no"?>
<!DOCTYPE svg PUBLIC "-//W3C//DTD SVG 1.1//EN"
 "http://www.w3.org/Graphics/SVG/1.1/DTD/svg11.dtd">
<!-- Generated by graphviz version 2.38.0 (20140413.2041)
 -->
<!-- Title: C2M2.Interaction.VR.VRRaycastable Pages: 1 -->
<svg width="223pt" height="215pt"
 viewBox="0.00 0.00 223.00 215.00" xmlns="http://www.w3.org/2000/svg" xmlns:xlink="http://www.w3.org/1999/xlink">
<g id="graph0" class="graph" transform="scale(1 1) rotate(0) translate(4 211)">
<title>C2M2.Interaction.VR.VRRaycastable</title>
<polygon fill="white" stroke="none" points="-4,4 -4,-211 219,-211 219,4 -4,4"/>
<!-- Node1 -->
<g id="node1" class="node"><title>Node1</title>
<g id="a_node1"><a xlink:title=" ">
<polygon fill="#bfbfbf" stroke="black" points="0,-0.5 0,-112.5 215,-112.5 215,-0.5 0,-0.5"/>
<text text-anchor="middle" x="107.5" y="-100.5" font-family="Courier New" font-size="10.00">C2M2.Interaction.VR.VRRaycastable</text>
<polyline fill="none" stroke="black" points="0,-93.5 215,-93.5 "/>
<text text-anchor="start" x="8" y="-81.5" font-family="Courier New" font-size="10.00">+ raycastTargetObject</text>
<text text-anchor="start" x="8" y="-70.5" font-family="Courier New" font-size="10.00">+ ColliderMesh</text>
<text text-anchor="start" x="8" y="-59.5" font-family="Courier New" font-size="10.00">&#45; colliderMesh</text>
<polyline fill="none" stroke="black" points="0,-52.5 215,-52.5 "/>
<text text-anchor="start" x="8" y="-40.5" font-family="Courier New" font-size="10.00">&#45; Awake()</text>
<text text-anchor="start" x="8" y="-29.5" font-family="Courier New" font-size="10.00">&#45; BuildChildObject()</text>
<text text-anchor="start" x="8" y="-18.5" font-family="Courier New" font-size="10.00">&#45; BuildRigidBody()</text>
<text text-anchor="start" x="8" y="-7.5" font-family="Courier New" font-size="10.00">&#45; BuildMeshCollider()</text>
</a>
</g>
</g>
<!-- Node2 -->
<g id="node2" class="node"><title>Node2</title>
<g id="a_node2"><a xlink:title=" ">
<polygon fill="white" stroke="#bfbfbf" points="60,-149.5 60,-206.5 155,-206.5 155,-149.5 60,-149.5"/>
<text text-anchor="middle" x="107.5" y="-194.5" font-family="Courier New" font-size="10.00">MonoBehaviour</text>
<polyline fill="none" stroke="#bfbfbf" points="60,-187.5 155,-187.5 "/>
<text text-anchor="middle" x="107.5" y="-175.5" font-family="Courier New" font-size="10.00"> </text>
<polyline fill="none" stroke="#bfbfbf" points="60,-168.5 155,-168.5 "/>
<text text-anchor="middle" x="107.5" y="-156.5" font-family="Courier New" font-size="10.00"> </text>
</a>
</g>
</g>
<!-- Node2&#45;&gt;Node1 -->
<g id="edge1" class="edge"><title>Node2&#45;&gt;Node1</title>
<path fill="none" stroke="midnightblue" d="M107.5,-139.108C107.5,-130.748 107.5,-121.725 107.5,-112.834"/>
<polygon fill="none" stroke="midnightblue" points="104,-139.284 107.5,-149.284 111,-139.284 104,-139.284"/>
</g>
</g>
</svg>
