<?xml version="1.0" encoding="UTF-8" standalone="no"?>
<!DOCTYPE svg PUBLIC "-//W3C//DTD SVG 1.1//EN"
 "http://www.w3.org/Graphics/SVG/1.1/DTD/svg11.dtd">
<!-- Generated by graphviz version 2.38.0 (20140413.2041)
 -->
<!-- Title: C2M2.Utils.Actions.ResetPositionMono Pages: 1 -->
<svg width="169pt" height="237pt"
 viewBox="0.00 0.00 169.00 237.00" xmlns="http://www.w3.org/2000/svg" xmlns:xlink="http://www.w3.org/1999/xlink">
<g id="graph0" class="graph" transform="scale(1 1) rotate(0) translate(4 233)">
<title>C2M2.Utils.Actions.ResetPositionMono</title>
<polygon fill="white" stroke="none" points="-4,4 -4,-233 165,-233 165,4 -4,4"/>
<!-- Node1 -->
<g id="node1" class="node"><title>Node1</title>
<g id="a_node1"><a xlink:title=" ">
<polygon fill="#bfbfbf" stroke="black" points="0,-0.5 0,-134.5 161,-134.5 161,-0.5 0,-0.5"/>
<text text-anchor="start" x="8" y="-122.5" font-family="Courier New" font-size="10.00">C2M2.Utils.Actions.Reset</text>
<text text-anchor="middle" x="80.5" y="-111.5" font-family="Courier New" font-size="10.00">PositionMono</text>
<polyline fill="none" stroke="black" points="0,-104.5 161,-104.5 "/>
<text text-anchor="start" x="8" y="-92.5" font-family="Courier New" font-size="10.00">+ useBoundingBox</text>
<text text-anchor="start" x="8" y="-81.5" font-family="Courier New" font-size="10.00">+ overloadPosition</text>
<text text-anchor="start" x="8" y="-70.5" font-family="Courier New" font-size="10.00">+ overloadRotation</text>
<text text-anchor="start" x="8" y="-59.5" font-family="Courier New" font-size="10.00">&#45; initialPosition</text>
<text text-anchor="start" x="8" y="-48.5" font-family="Courier New" font-size="10.00">&#45; initialRotation</text>
<polyline fill="none" stroke="black" points="0,-41.5 161,-41.5 "/>
<text text-anchor="start" x="8" y="-29.5" font-family="Courier New" font-size="10.00">+ ResetPosition()</text>
<text text-anchor="start" x="8" y="-18.5" font-family="Courier New" font-size="10.00">&#45; Awake()</text>
<text text-anchor="start" x="8" y="-7.5" font-family="Courier New" font-size="10.00">&#45; Start()</text>
</a>
</g>
</g>
<!-- Node2 -->
<g id="node2" class="node"><title>Node2</title>
<g id="a_node2"><a xlink:title=" ">
<polygon fill="white" stroke="#bfbfbf" points="33,-171.5 33,-228.5 128,-228.5 128,-171.5 33,-171.5"/>
<text text-anchor="middle" x="80.5" y="-216.5" font-family="Courier New" font-size="10.00">MonoBehaviour</text>
<polyline fill="none" stroke="#bfbfbf" points="33,-209.5 128,-209.5 "/>
<text text-anchor="middle" x="80.5" y="-197.5" font-family="Courier New" font-size="10.00"> </text>
<polyline fill="none" stroke="#bfbfbf" points="33,-190.5 128,-190.5 "/>
<text text-anchor="middle" x="80.5" y="-178.5" font-family="Courier New" font-size="10.00"> </text>
</a>
</g>
</g>
<!-- Node2&#45;&gt;Node1 -->
<g id="edge1" class="edge"><title>Node2&#45;&gt;Node1</title>
<path fill="none" stroke="midnightblue" d="M80.5,-161.16C80.5,-152.782 80.5,-143.668 80.5,-134.533"/>
<polygon fill="none" stroke="midnightblue" points="77.0001,-161.324 80.5,-171.324 84.0001,-161.324 77.0001,-161.324"/>
</g>
</g>
</svg>
