<?xml version="1.0" encoding="UTF-8" standalone="no"?>
<!DOCTYPE svg PUBLIC "-//W3C//DTD SVG 1.1//EN"
 "http://www.w3.org/Graphics/SVG/1.1/DTD/svg11.dtd">
<!-- Generated by graphviz version 2.46.0 (20210118.1747)
 -->
<!-- Title: C2M2.Interaction.UI.RaycastKeyboard Pages: 1 -->
<svg width="261pt" height="479pt"
 viewBox="0.00 0.00 260.50 479.00" xmlns="http://www.w3.org/2000/svg" xmlns:xlink="http://www.w3.org/1999/xlink">
<g id="graph0" class="graph" transform="scale(1 1) rotate(0) translate(4 475)">
<title>C2M2.Interaction.UI.RaycastKeyboard</title>
<polygon fill="white" stroke="transparent" points="-4,4 -4,-475 256.5,-475 256.5,4 -4,4"/>
<!-- Node1 -->
<g id="node1" class="node">
<title>Node1</title>
<g id="a_node1"><a xlink:title="Instantiates a raycastable keyboard and manages its input/output">
<polygon fill="#bfbfbf" stroke="black" points="4,-0.5 4,-255.5 183,-255.5 183,-0.5 4,-0.5"/>
<text text-anchor="start" x="12" y="-243.5" font-family="Courier New" font-size="10.00">C2M2.Interaction.UI.Raycast</text>
<text text-anchor="middle" x="93.5" y="-232.5" font-family="Courier New" font-size="10.00">Keyboard</text>
<polyline fill="none" stroke="black" points="4,-225.5 183,-225.5 "/>
<text text-anchor="start" x="12" y="-213.5" font-family="Courier New" font-size="10.00">+ keyPrefab</text>
<text text-anchor="start" x="12" y="-202.5" font-family="Courier New" font-size="10.00">+ specialKeyContainer</text>
<text text-anchor="start" x="12" y="-191.5" font-family="Courier New" font-size="10.00">+ lowerKeyContainer</text>
<text text-anchor="start" x="12" y="-180.5" font-family="Courier New" font-size="10.00">+ upperKeyContainer</text>
<text text-anchor="start" x="12" y="-169.5" font-family="Courier New" font-size="10.00">+ menuAnchor</text>
<text text-anchor="start" x="12" y="-158.5" font-family="Courier New" font-size="10.00">+ activeField</text>
<text text-anchor="start" x="12" y="-147.5" font-family="Courier New" font-size="10.00">&#45; hasActiveField</text>
<text text-anchor="start" x="12" y="-136.5" font-family="Courier New" font-size="10.00">&#45; lastHit</text>
<text text-anchor="start" x="12" y="-125.5" font-family="Courier New" font-size="10.00">&#45; keyPositions</text>
<text text-anchor="start" x="12" y="-114.5" font-family="Courier New" font-size="10.00">&#45; specialKeys</text>
<text text-anchor="start" x="12" y="-103.5" font-family="Courier New" font-size="10.00">&#45; upperCharRow0</text>
<text text-anchor="start" x="12" y="-92.5" font-family="Courier New" font-size="10.00">&#45; upperCharRow1</text>
<text text-anchor="start" x="12" y="-81.5" font-family="Courier New" font-size="10.00">&#45; upperCharRow2</text>
<text text-anchor="start" x="12" y="-70.5" font-family="Courier New" font-size="10.00">&#45; upperCharRow3</text>
<polyline fill="none" stroke="black" points="4,-63.5 183,-63.5 "/>
<text text-anchor="start" x="12" y="-51.5" font-family="Courier New" font-size="10.00">+ PassChar()</text>
<text text-anchor="start" x="12" y="-40.5" font-family="Courier New" font-size="10.00">+ InputFieldActivate()</text>
<text text-anchor="start" x="12" y="-29.5" font-family="Courier New" font-size="10.00">&#45; Awake()</text>
<text text-anchor="start" x="12" y="-18.5" font-family="Courier New" font-size="10.00">&#45; OnEnable()</text>
<text text-anchor="start" x="12" y="-7.5" font-family="Courier New" font-size="10.00">&#45; BuildKeyboard()</text>
</a>
</g>
</g>
<!-- Node2 -->
<g id="node2" class="node">
<title>Node2</title>
<g id="a_node2"><a xlink:title=" ">
<polygon fill="white" stroke="#bfbfbf" points="0,-413.5 0,-470.5 95,-470.5 95,-413.5 0,-413.5"/>
<text text-anchor="middle" x="47.5" y="-458.5" font-family="Courier New" font-size="10.00">MonoBehaviour</text>
<polyline fill="none" stroke="#bfbfbf" points="0,-451.5 95,-451.5 "/>
<text text-anchor="middle" x="47.5" y="-439.5" font-family="Courier New" font-size="10.00"> </text>
<polyline fill="none" stroke="#bfbfbf" points="0,-432.5 95,-432.5 "/>
<text text-anchor="middle" x="47.5" y="-420.5" font-family="Courier New" font-size="10.00"> </text>
</a>
</g>
</g>
<!-- Node2&#45;&gt;Node1 -->
<g id="edge1" class="edge">
<title>Node2&#45;&gt;Node1</title>
<path fill="none" stroke="midnightblue" d="M53.09,-403.08C58.5,-366.38 67.01,-308.65 74.83,-255.63"/>
<polygon fill="none" stroke="midnightblue" points="49.58,-402.91 51.58,-413.31 56.5,-403.93 49.58,-402.91"/>
</g>
<!-- Node3 -->
<g id="node3" class="node">
<title>Node3</title>
<g id="a_node3"><a xlink:title=" ">
<polygon fill="white" stroke="#bfbfbf" points="113,-413.5 113,-470.5 166,-470.5 166,-413.5 113,-413.5"/>
<text text-anchor="middle" x="139.5" y="-458.5" font-family="Courier New" font-size="10.00">static</text>
<polyline fill="none" stroke="#bfbfbf" points="113,-451.5 166,-451.5 "/>
<text text-anchor="middle" x="139.5" y="-439.5" font-family="Courier New" font-size="10.00"> </text>
<polyline fill="none" stroke="#bfbfbf" points="113,-432.5 166,-432.5 "/>
<text text-anchor="middle" x="139.5" y="-420.5" font-family="Courier New" font-size="10.00"> </text>
</a>
</g>
</g>
<!-- Node3&#45;&gt;Node1 -->
<g id="edge2" class="edge">
<title>Node3&#45;&gt;Node1</title>
<path fill="none" stroke="#404040" d="M135.42,-413.31C130.54,-380.24 122.03,-322.5 113.94,-267.64"/>
<polygon fill="none" stroke="#404040" points="113.92,-267.5 109.09,-262.15 112.17,-255.63 117,-260.98 113.92,-267.5"/>
<text text-anchor="middle" x="192" y="-387" font-family="Courier New" font-size="10.00"> &#45;lowerCharRow0</text>
<text text-anchor="middle" x="192" y="-376" font-family="Courier New" font-size="10.00">&#45;lowerCharRow1</text>
<text text-anchor="middle" x="192" y="-365" font-family="Courier New" font-size="10.00">&#45;lowerCharRow2</text>
<text text-anchor="middle" x="192" y="-354" font-family="Courier New" font-size="10.00">&#45;lowerCharRow3</text>
<text text-anchor="middle" x="192" y="-343" font-family="Courier New" font-size="10.00">&#45;position0i</text>
<text text-anchor="middle" x="192" y="-332" font-family="Courier New" font-size="10.00">&#45;position1i</text>
<text text-anchor="middle" x="192" y="-321" font-family="Courier New" font-size="10.00">&#45;position2i</text>
<text text-anchor="middle" x="192" y="-310" font-family="Courier New" font-size="10.00">&#45;position3i</text>
<text text-anchor="middle" x="192" y="-299" font-family="Courier New" font-size="10.00">&#45;positionj</text>
<text text-anchor="middle" x="192" y="-288" font-family="Courier New" font-size="10.00">&#45;specialKeyLocations</text>
<text text-anchor="middle" x="192" y="-277" font-family="Courier New" font-size="10.00">...</text>
</g>
</g>
</svg>
