<?xml version="1.0" encoding="UTF-8" standalone="no"?>
<!DOCTYPE svg PUBLIC "-//W3C//DTD SVG 1.1//EN"
 "http://www.w3.org/Graphics/SVG/1.1/DTD/svg11.dtd">
<!-- Generated by graphviz version 2.38.0 (20140413.2041)
 -->
<!-- Title: C2M2.OIT.Interaction.ParticleSystemController Pages: 1 -->
<svg width="199pt" height="413pt"
 viewBox="0.00 0.00 199.00 413.00" xmlns="http://www.w3.org/2000/svg" xmlns:xlink="http://www.w3.org/1999/xlink">
<g id="graph0" class="graph" transform="scale(1 1) rotate(0) translate(4 409)">
<title>C2M2.OIT.Interaction.ParticleSystemController</title>
<polygon fill="white" stroke="none" points="-4,4 -4,-409 195,-409 195,4 -4,4"/>
<!-- Node1 -->
<g id="node1" class="node"><title>Node1</title>
<g id="a_node1"><a xlink:title=" ">
<polygon fill="#bfbfbf" stroke="black" points="0,-0.5 0,-310.5 191,-310.5 191,-0.5 0,-0.5"/>
<text text-anchor="start" x="8" y="-298.5" font-family="Courier New" font-size="10.00">C2M2.OIT.Interaction.Particle</text>
<text text-anchor="middle" x="95.5" y="-287.5" font-family="Courier New" font-size="10.00">SystemController</text>
<polyline fill="none" stroke="black" points="0,-280.5 191,-280.5 "/>
<text text-anchor="start" x="8" y="-268.5" font-family="Courier New" font-size="10.00">+ numberOfParticles</text>
<text text-anchor="start" x="8" y="-257.5" font-family="Courier New" font-size="10.00">+ particleSize</text>
<text text-anchor="start" x="8" y="-246.5" font-family="Courier New" font-size="10.00">+ maxValues</text>
<text text-anchor="start" x="8" y="-235.5" font-family="Courier New" font-size="10.00">+ minValues</text>
<text text-anchor="start" x="8" y="-224.5" font-family="Courier New" font-size="10.00">+ isoquantHigh</text>
<text text-anchor="start" x="8" y="-213.5" font-family="Courier New" font-size="10.00">+ isoquantLow</text>
<text text-anchor="start" x="8" y="-202.5" font-family="Courier New" font-size="10.00">&#45; particles</text>
<text text-anchor="start" x="8" y="-191.5" font-family="Courier New" font-size="10.00">&#45; particlesUpdated</text>
<text text-anchor="start" x="8" y="-180.5" font-family="Courier New" font-size="10.00">&#45; particleSys</text>
<text text-anchor="start" x="8" y="-169.5" font-family="Courier New" font-size="10.00">&#45; particleSysRend</text>
<text text-anchor="start" x="8" y="-158.5" font-family="Courier New" font-size="10.00">&#45; particleTextData</text>
<text text-anchor="start" x="8" y="-147.5" font-family="Courier New" font-size="10.00">&#45; particleHandleController</text>
<text text-anchor="start" x="8" y="-136.5" font-family="Courier New" font-size="10.00">&#45; newPositions</text>
<text text-anchor="start" x="8" y="-125.5" font-family="Courier New" font-size="10.00">&#45; newColors</text>
<text text-anchor="start" x="8" y="-114.5" font-family="Courier New" font-size="10.00">&#45; particleNumberChangeHolder</text>
<text text-anchor="start" x="8" y="-103.5" font-family="Courier New" font-size="10.00">&#45; particleSizeChangeHolder</text>
<text text-anchor="start" x="8" y="-92.5" font-family="Courier New" font-size="10.00">&#45; maxValueHolder</text>
<text text-anchor="start" x="8" y="-81.5" font-family="Courier New" font-size="10.00">&#45; minValueHolder</text>
<text text-anchor="start" x="8" y="-70.5" font-family="Courier New" font-size="10.00">&#45; isoquantHighHolder</text>
<text text-anchor="start" x="8" y="-59.5" font-family="Courier New" font-size="10.00">&#45; isoquantLowHolder</text>
<polyline fill="none" stroke="black" points="0,-52.5 191,-52.5 "/>
<text text-anchor="start" x="8" y="-40.5" font-family="Courier New" font-size="10.00">+ UpdateParticles()</text>
<text text-anchor="start" x="8" y="-29.5" font-family="Courier New" font-size="10.00">+ UpdateParticleSize()</text>
<text text-anchor="start" x="8" y="-18.5" font-family="Courier New" font-size="10.00">&#45; Start()</text>
<text text-anchor="start" x="8" y="-7.5" font-family="Courier New" font-size="10.00">&#45; Update()</text>
</a>
</g>
</g>
<!-- Node2 -->
<g id="node2" class="node"><title>Node2</title>
<g id="a_node2"><a xlink:title=" ">
<polygon fill="white" stroke="#bfbfbf" points="48,-347.5 48,-404.5 143,-404.5 143,-347.5 48,-347.5"/>
<text text-anchor="middle" x="95.5" y="-392.5" font-family="Courier New" font-size="10.00">MonoBehaviour</text>
<polyline fill="none" stroke="#bfbfbf" points="48,-385.5 143,-385.5 "/>
<text text-anchor="middle" x="95.5" y="-373.5" font-family="Courier New" font-size="10.00"> </text>
<polyline fill="none" stroke="#bfbfbf" points="48,-366.5 143,-366.5 "/>
<text text-anchor="middle" x="95.5" y="-354.5" font-family="Courier New" font-size="10.00"> </text>
</a>
</g>
</g>
<!-- Node2&#45;&gt;Node1 -->
<g id="edge1" class="edge"><title>Node2&#45;&gt;Node1</title>
<path fill="none" stroke="midnightblue" d="M95.5,-337.281C95.5,-329.208 95.5,-320.205 95.5,-310.648"/>
<polygon fill="none" stroke="midnightblue" points="92.0001,-337.327 95.5,-347.327 99.0001,-337.327 92.0001,-337.327"/>
</g>
</g>
</svg>
