<?xml version="1.0" encoding="UTF-8" standalone="no"?>
<!DOCTYPE svg PUBLIC "-//W3C//DTD SVG 1.1//EN"
 "http://www.w3.org/Graphics/SVG/1.1/DTD/svg11.dtd">
<!-- Generated by graphviz version 2.38.0 (20140413.2041)
 -->
<!-- Title: C2M2.NeuronalDynamics.UGX.ISynapse Pages: 1 -->
<svg width="563pt" height="259pt"
 viewBox="0.00 0.00 563.00 259.00" xmlns="http://www.w3.org/2000/svg" xmlns:xlink="http://www.w3.org/1999/xlink">
<g id="graph0" class="graph" transform="scale(1 1) rotate(0) translate(4 255)">
<title>C2M2.NeuronalDynamics.UGX.ISynapse</title>
<polygon fill="white" stroke="none" points="-4,4 -4,-255 559,-255 559,4 -4,4"/>
<!-- Node1 -->
<g id="node1" class="node"><title>Node1</title>
<g id="a_node1"><a xlink:title="A synapse respresentation">
<polygon fill="#bfbfbf" stroke="black" points="191,-171.5 191,-250.5 364,-250.5 364,-171.5 191,-171.5"/>
<text text-anchor="start" x="199" y="-238.5" font-family="Courier New" font-size="10.00">C2M2.NeuronalDynamics.UGX.</text>
<text text-anchor="middle" x="277.5" y="-227.5" font-family="Courier New" font-size="10.00">ISynapse</text>
<polyline fill="none" stroke="black" points="191,-220.5 364,-220.5 "/>
<text text-anchor="middle" x="277.5" y="-208.5" font-family="Courier New" font-size="10.00"> </text>
<polyline fill="none" stroke="black" points="191,-201.5 364,-201.5 "/>
<text text-anchor="start" x="199" y="-189.5" font-family="Courier New" font-size="10.00">+ GetType()</text>
<text text-anchor="start" x="199" y="-178.5" font-family="Courier New" font-size="10.00">+ GetCurrent()</text>
</a>
</g>
</g>
<!-- Node2 -->
<g id="node2" class="node"><title>Node2</title>
<g id="a_node2"><a xlink:href="../../d7/dbe/struct_c2_m2_1_1_neuronal_dynamics_1_1_u_g_x_1_1_alpha_post_synapse.html" target="_top" xlink:title="A alpha post synapse">
<polygon fill="white" stroke="black" points="0,-6 0,-129 173,-129 173,-6 0,-6"/>
<text text-anchor="start" x="8" y="-117" font-family="Courier New" font-size="10.00">C2M2.NeuronalDynamics.UGX.</text>
<text text-anchor="middle" x="86.5" y="-106" font-family="Courier New" font-size="10.00">AlphaPostSynapse</text>
<polyline fill="none" stroke="black" points="0,-99 173,-99 "/>
<text text-anchor="start" x="8" y="-87" font-family="Courier New" font-size="10.00">+ m_onset</text>
<text text-anchor="start" x="8" y="-76" font-family="Courier New" font-size="10.00">+ m_gMax</text>
<text text-anchor="start" x="8" y="-65" font-family="Courier New" font-size="10.00">+ m_tau</text>
<text text-anchor="start" x="8" y="-54" font-family="Courier New" font-size="10.00">+ m_rev</text>
<polyline fill="none" stroke="black" points="0,-47 173,-47 "/>
<text text-anchor="start" x="8" y="-35" font-family="Courier New" font-size="10.00">+ GetCurrent()</text>
<text text-anchor="start" x="8" y="-24" font-family="Courier New" font-size="10.00">+ GetType()</text>
<text text-anchor="start" x="8" y="-13" font-family="Courier New" font-size="10.00">+ AlphaPostSynapse()</text>
</a>
</g>
</g>
<!-- Node1&#45;&gt;Node2 -->
<g id="edge1" class="edge"><title>Node1&#45;&gt;Node2</title>
<path fill="none" stroke="midnightblue" d="M216.907,-165.11C201.502,-153.698 184.692,-141.244 168.419,-129.189"/>
<polygon fill="none" stroke="midnightblue" points="215.19,-168.194 225.308,-171.335 219.357,-162.569 215.19,-168.194"/>
</g>
<!-- Node3 -->
<g id="node3" class="node"><title>Node3</title>
<g id="a_node3"><a xlink:href="../../dd/d8d/struct_c2_m2_1_1_neuronal_dynamics_1_1_u_g_x_1_1_e_x_p2_synapse.html" target="_top" xlink:title="A bi&#45;exponential synapse">
<polygon fill="white" stroke="black" points="191,-0.5 191,-134.5 364,-134.5 364,-0.5 191,-0.5"/>
<text text-anchor="start" x="199" y="-122.5" font-family="Courier New" font-size="10.00">C2M2.NeuronalDynamics.UGX.</text>
<text text-anchor="middle" x="277.5" y="-111.5" font-family="Courier New" font-size="10.00">EXP2Synapse</text>
<polyline fill="none" stroke="black" points="191,-104.5 364,-104.5 "/>
<text text-anchor="start" x="199" y="-92.5" font-family="Courier New" font-size="10.00">+ m_onset</text>
<text text-anchor="start" x="199" y="-81.5" font-family="Courier New" font-size="10.00">+ m_gMax</text>
<text text-anchor="start" x="199" y="-70.5" font-family="Courier New" font-size="10.00">+ m_tau1</text>
<text text-anchor="start" x="199" y="-59.5" font-family="Courier New" font-size="10.00">+ m_tau2</text>
<text text-anchor="start" x="199" y="-48.5" font-family="Courier New" font-size="10.00">+ m_rev</text>
<polyline fill="none" stroke="black" points="191,-41.5 364,-41.5 "/>
<text text-anchor="start" x="199" y="-29.5" font-family="Courier New" font-size="10.00">+ GetCurrent()</text>
<text text-anchor="start" x="199" y="-18.5" font-family="Courier New" font-size="10.00">+ GetType()</text>
<text text-anchor="start" x="199" y="-7.5" font-family="Courier New" font-size="10.00">+ EXP2Synapse()</text>
</a>
</g>
</g>
<!-- Node1&#45;&gt;Node3 -->
<g id="edge2" class="edge"><title>Node1&#45;&gt;Node3</title>
<path fill="none" stroke="midnightblue" d="M277.5,-161.158C277.5,-152.59 277.5,-143.546 277.5,-134.602"/>
<polygon fill="none" stroke="midnightblue" points="274,-161.334 277.5,-171.335 281,-161.335 274,-161.334"/>
</g>
<!-- Node4 -->
<g id="node4" class="node"><title>Node4</title>
<g id="a_node4"><a xlink:href="../../d3/d7b/struct_c2_m2_1_1_neuronal_dynamics_1_1_u_g_x_1_1_undef_synapse.html" target="_top" xlink:title="Undef Synapse">
<polygon fill="white" stroke="black" points="382,-28 382,-107 555,-107 555,-28 382,-28"/>
<text text-anchor="start" x="390" y="-95" font-family="Courier New" font-size="10.00">C2M2.NeuronalDynamics.UGX.</text>
<text text-anchor="middle" x="468.5" y="-84" font-family="Courier New" font-size="10.00">UndefSynapse</text>
<polyline fill="none" stroke="black" points="382,-77 555,-77 "/>
<text text-anchor="middle" x="468.5" y="-65" font-family="Courier New" font-size="10.00"> </text>
<polyline fill="none" stroke="black" points="382,-58 555,-58 "/>
<text text-anchor="start" x="390" y="-46" font-family="Courier New" font-size="10.00">+ GetCurrent()</text>
<text text-anchor="start" x="390" y="-35" font-family="Courier New" font-size="10.00">+ GetType()</text>
</a>
</g>
</g>
<!-- Node1&#45;&gt;Node4 -->
<g id="edge3" class="edge"><title>Node1&#45;&gt;Node4</title>
<path fill="none" stroke="midnightblue" d="M337.743,-165.369C362.99,-146.666 392.061,-125.129 416.372,-107.119"/>
<polygon fill="none" stroke="midnightblue" points="335.643,-162.569 329.692,-171.335 339.81,-168.194 335.643,-162.569"/>
</g>
</g>
</svg>
