<?xml version="1.0" encoding="UTF-8" standalone="no"?>
<!DOCTYPE svg PUBLIC "-//W3C//DTD SVG 1.1//EN"
 "http://www.w3.org/Graphics/SVG/1.1/DTD/svg11.dtd">
<!-- Generated by graphviz version 2.38.0 (20140413.2041)
 -->
<!-- Title: C2M2.NeuronalDynamics.Simulation.CellSolver2vb Pages: 1 -->
<svg width="912pt" height="1370pt"
 viewBox="0.00 0.00 911.50 1370.00" xmlns="http://www.w3.org/2000/svg" xmlns:xlink="http://www.w3.org/1999/xlink">
<g id="graph0" class="graph" transform="scale(1 1) rotate(0) translate(4 1366)">
<title>C2M2.NeuronalDynamics.Simulation.CellSolver2vb</title>
<polygon fill="white" stroke="none" points="-4,4 -4,-1366 907.5,-1366 907.5,4 -4,4"/>
<!-- Node1 -->
<g id="node1" class="node"><title>Node1</title>
<g id="a_node1"><a xlink:title=" ">
<polygon fill="#bfbfbf" stroke="black" points="573,-0.5 573,-266.5 788,-266.5 788,-0.5 573,-0.5"/>
<text text-anchor="start" x="581" y="-254.5" font-family="Courier New" font-size="10.00">C2M2.NeuronalDynamics.Simulation.</text>
<text text-anchor="middle" x="680.5" y="-243.5" font-family="Courier New" font-size="10.00">CellSolver2vb</text>
<polyline fill="none" stroke="black" points="573,-236.5 788,-236.5 "/>
<text text-anchor="start" x="581" y="-224.5" font-family="Courier New" font-size="10.00">+ res</text>
<text text-anchor="start" x="581" y="-213.5" font-family="Courier New" font-size="10.00">+ gk</text>
<text text-anchor="start" x="581" y="-202.5" font-family="Courier New" font-size="10.00">+ gna</text>
<text text-anchor="start" x="581" y="-191.5" font-family="Courier New" font-size="10.00">+ gl</text>
<text text-anchor="start" x="581" y="-180.5" font-family="Courier New" font-size="10.00">+ ek</text>
<text text-anchor="start" x="581" y="-169.5" font-family="Courier New" font-size="10.00">+ ena</text>
<text text-anchor="start" x="581" y="-158.5" font-family="Courier New" font-size="10.00">+ el</text>
<text text-anchor="start" x="581" y="-147.5" font-family="Courier New" font-size="10.00">+ cap</text>
<text text-anchor="start" x="581" y="-136.5" font-family="Courier New" font-size="10.00">+ ni</text>
<text text-anchor="start" x="581" y="-125.5" font-family="Courier New" font-size="10.00">+ nT</text>
<text text-anchor="start" x="581" y="-114.5" font-family="Courier New" font-size="10.00">+ vstart</text>
<text text-anchor="start" x="581" y="-103.5" font-family="Courier New" font-size="10.00">&#45; U</text>
<text text-anchor="start" x="581" y="-92.5" font-family="Courier New" font-size="10.00">&#45; i</text>
<text text-anchor="start" x="581" y="-81.5" font-family="Courier New" font-size="10.00">&#45; mi</text>
<text text-anchor="start" x="581" y="-70.5" font-family="Courier New" font-size="10.00">&#45; hi</text>
<polyline fill="none" stroke="black" points="573,-63.5 788,-63.5 "/>
<text text-anchor="start" x="581" y="-51.5" font-family="Courier New" font-size="10.00">+ initialConditions()</text>
<text text-anchor="start" x="581" y="-40.5" font-family="Courier New" font-size="10.00"># SetNeuronCell()</text>
<text text-anchor="start" x="581" y="-29.5" font-family="Courier New" font-size="10.00"># Get1DValues()</text>
<text text-anchor="start" x="581" y="-18.5" font-family="Courier New" font-size="10.00"># Set1DValues()</text>
<text text-anchor="start" x="581" y="-7.5" font-family="Courier New" font-size="10.00"># Solve()</text>
</a>
</g>
</g>
<!-- Node2 -->
<g id="node2" class="node"><title>Node2</title>
<g id="a_node2"><a xlink:href="../../d4/d5a/class_c2_m2_1_1_neuronal_dynamics_1_1_simulation_1_1_neuron_simulation1_d.html" target="_top" xlink:title="Provide an interface for 1D neuron&#45;surface simulations to be visualized and interacted with">
<polygon fill="white" stroke="black" points="475,-314.5 475,-646.5 624,-646.5 624,-314.5 475,-314.5"/>
<text text-anchor="middle" x="549.5" y="-634.5" font-family="Courier New" font-size="10.00">NeuronSimulation1D</text>
<polyline fill="none" stroke="black" points="475,-627.5 624,-627.5 "/>
<text text-anchor="start" x="483" y="-615.5" font-family="Courier New" font-size="10.00">+ refinementLevel</text>
<text text-anchor="start" x="483" y="-604.5" font-family="Courier New" font-size="10.00">+ cell1xPath</text>
<text text-anchor="start" x="483" y="-593.5" font-family="Courier New" font-size="10.00">+ cell2xPath</text>
<text text-anchor="start" x="483" y="-582.5" font-family="Courier New" font-size="10.00">+ cell3xPath</text>
<text text-anchor="start" x="483" y="-571.5" font-family="Courier New" font-size="10.00">+ cell4xPath</text>
<text text-anchor="start" x="483" y="-560.5" font-family="Courier New" font-size="10.00">+ cell5xPath</text>
<text text-anchor="start" x="483" y="-549.5" font-family="Courier New" font-size="10.00">+ visualize1D</text>
<text text-anchor="start" x="483" y="-538.5" font-family="Courier New" font-size="10.00">+ color1D</text>
<text text-anchor="start" x="483" y="-527.5" font-family="Courier New" font-size="10.00">+ lineWidth1D</text>
<text text-anchor="start" x="483" y="-516.5" font-family="Courier New" font-size="10.00">&#45; meshScale</text>
<text text-anchor="start" x="483" y="-505.5" font-family="Courier New" font-size="10.00">&#45; meshColScale</text>
<text text-anchor="start" x="483" y="-494.5" font-family="Courier New" font-size="10.00">&#45; map</text>
<text text-anchor="start" x="483" y="-483.5" font-family="Courier New" font-size="10.00">&#45; scaledMeshes</text>
<polyline fill="none" stroke="black" points="475,-476.5 624,-476.5 "/>
<text text-anchor="start" x="483" y="-464.5" font-family="Courier New" font-size="10.00">+ GetValues()</text>
<text text-anchor="start" x="483" y="-453.5" font-family="Courier New" font-size="10.00">+ SetValues()</text>
<text text-anchor="start" x="483" y="-442.5" font-family="Courier New" font-size="10.00">+ RescaleMesh()</text>
<text text-anchor="start" x="483" y="-431.5" font-family="Courier New" font-size="10.00">+ SwitchColliderMesh()</text>
<text text-anchor="start" x="483" y="-420.5" font-family="Courier New" font-size="10.00">+ SwitchMesh()</text>
<text text-anchor="start" x="483" y="-409.5" font-family="Courier New" font-size="10.00"># Set1DValues()</text>
<text text-anchor="start" x="483" y="-398.5" font-family="Courier New" font-size="10.00"># Get1DValues()</text>
<text text-anchor="start" x="483" y="-387.5" font-family="Courier New" font-size="10.00"># SetNeuronCell()</text>
<text text-anchor="start" x="483" y="-376.5" font-family="Courier New" font-size="10.00"># ReadData()</text>
<text text-anchor="start" x="483" y="-365.5" font-family="Courier New" font-size="10.00"># BuildVisualization()</text>
<text text-anchor="start" x="483" y="-354.5" font-family="Courier New" font-size="10.00">&#45; BuildUI()</text>
<text text-anchor="start" x="483" y="-343.5" font-family="Courier New" font-size="10.00">&#45; Clean3DCell()</text>
<text text-anchor="start" x="483" y="-332.5" font-family="Courier New" font-size="10.00">&#45; BuildMesh()</text>
<text text-anchor="start" x="483" y="-321.5" font-family="Courier New" font-size="10.00">&#45; SwitchColliderMesh()</text>
</a>
</g>
</g>
<!-- Node2&#45;&gt;Node1 -->
<g id="edge1" class="edge"><title>Node2&#45;&gt;Node1</title>
<path fill="none" stroke="midnightblue" d="M615.783,-304.939C620.678,-292.046 625.568,-279.168 630.343,-266.594"/>
<polygon fill="none" stroke="midnightblue" points="612.496,-303.735 612.218,-314.326 619.04,-306.22 612.496,-303.735"/>
</g>
<!-- Node3 -->
<g id="node3" class="node"><title>Node3</title>
<g id="a_node3"><a xlink:href="../../d6/d2d/class_c2_m2_1_1_simulation_1_1_mesh_simulation.html" target="_top" xlink:title="Simulation of type double[] for visualizing scalar fields on mesh surfaces">
<polygon fill="white" stroke="black" points="171,-716.5 171,-861.5 326,-861.5 326,-716.5 171,-716.5"/>
<text text-anchor="middle" x="248.5" y="-849.5" font-family="Courier New" font-size="10.00">MeshSimulation</text>
<polyline fill="none" stroke="black" points="171,-842.5 326,-842.5 "/>
<text text-anchor="start" x="179" y="-830.5" font-family="Courier New" font-size="10.00">+ gradient</text>
<text text-anchor="start" x="179" y="-819.5" font-family="Courier New" font-size="10.00">+ globalMax</text>
<text text-anchor="start" x="179" y="-808.5" font-family="Courier New" font-size="10.00">+ globalMin</text>
<text text-anchor="start" x="179" y="-797.5" font-family="Courier New" font-size="10.00">+ colorLUT</text>
<text text-anchor="start" x="179" y="-786.5" font-family="Courier New" font-size="10.00"># colliderMesh</text>
<text text-anchor="start" x="179" y="-775.5" font-family="Courier New" font-size="10.00">&#45; mf</text>
<text text-anchor="start" x="179" y="-764.5" font-family="Courier New" font-size="10.00">&#45; mr</text>
<polyline fill="none" stroke="black" points="171,-757.5 326,-757.5 "/>
<text text-anchor="start" x="179" y="-745.5" font-family="Courier New" font-size="10.00"># UpdateVisualization()</text>
<text text-anchor="start" x="179" y="-734.5" font-family="Courier New" font-size="10.00"># OnAwake()</text>
<text text-anchor="start" x="179" y="-723.5" font-family="Courier New" font-size="10.00">&#45; UpdateVisualization()</text>
</a>
</g>
</g>
<!-- Node3&#45;&gt;Node2 -->
<g id="edge2" class="edge"><title>Node3&#45;&gt;Node2</title>
<path fill="none" stroke="midnightblue" d="M326.314,-708.764C372.098,-662.144 429.693,-603.496 474.906,-557.457"/>
<polygon fill="none" stroke="midnightblue" points="323.581,-706.552 319.071,-716.139 328.575,-711.457 323.581,-706.552"/>
</g>
<!-- Node4 -->
<g id="node4" class="node"><title>Node4</title>
<g id="a_node4"><a xlink:href="../../db/d39/class_c2_m2_1_1_simulation_1_1_simulation.html" target="_top" xlink:title=" ">
<polygon fill="white" stroke="black" points="0,-989.5 0,-1266.5 185,-1266.5 185,-989.5 0,-989.5"/>
<text text-anchor="start" x="8" y="-1254.5" font-family="Courier New" font-size="10.00">Simulation&lt; double</text>
<text text-anchor="start" x="8" y="-1243.5" font-family="Courier New" font-size="10.00">[], Mesh, VRRaycastableMesh,</text>
<text text-anchor="middle" x="92.5" y="-1232.5" font-family="Courier New" font-size="10.00"> VRGrabbableMesh &gt;</text>
<polyline fill="none" stroke="black" points="0,-1225.5 185,-1225.5 "/>
<text text-anchor="start" x="8" y="-1213.5" font-family="Courier New" font-size="10.00">+ dryRun</text>
<text text-anchor="start" x="8" y="-1202.5" font-family="Courier New" font-size="10.00">+ startOnAwake</text>
<text text-anchor="start" x="8" y="-1191.5" font-family="Courier New" font-size="10.00">+ viz</text>
<text text-anchor="start" x="8" y="-1180.5" font-family="Courier New" font-size="10.00"># mutex</text>
<text text-anchor="start" x="8" y="-1169.5" font-family="Courier New" font-size="10.00">&#45; solveThread</text>
<polyline fill="none" stroke="black" points="0,-1162.5 185,-1162.5 "/>
<text text-anchor="start" x="8" y="-1150.5" font-family="Courier New" font-size="10.00">+ GetValues()</text>
<text text-anchor="start" x="8" y="-1139.5" font-family="Courier New" font-size="10.00">+ StartSimulation()</text>
<text text-anchor="start" x="8" y="-1128.5" font-family="Courier New" font-size="10.00">+ StopSimulation()</text>
<text text-anchor="start" x="8" y="-1117.5" font-family="Courier New" font-size="10.00">+ Awake()</text>
<text text-anchor="start" x="8" y="-1106.5" font-family="Courier New" font-size="10.00">+ Start()</text>
<text text-anchor="start" x="8" y="-1095.5" font-family="Courier New" font-size="10.00">+ Update()</text>
<text text-anchor="start" x="8" y="-1084.5" font-family="Courier New" font-size="10.00"># BuildVisualization()</text>
<text text-anchor="start" x="8" y="-1073.5" font-family="Courier New" font-size="10.00"># ReadData()</text>
<text text-anchor="start" x="8" y="-1062.5" font-family="Courier New" font-size="10.00"># UpdateVisualization()</text>
<text text-anchor="start" x="8" y="-1051.5" font-family="Courier New" font-size="10.00"># Solve()</text>
<text text-anchor="start" x="8" y="-1040.5" font-family="Courier New" font-size="10.00"># OnAwake()</text>
<text text-anchor="start" x="8" y="-1029.5" font-family="Courier New" font-size="10.00"># OnStart()</text>
<text text-anchor="start" x="8" y="-1018.5" font-family="Courier New" font-size="10.00"># OnUpdate()</text>
<text text-anchor="start" x="8" y="-1007.5" font-family="Courier New" font-size="10.00">&#45; OnApplicationPause()</text>
<text text-anchor="start" x="8" y="-996.5" font-family="Courier New" font-size="10.00">&#45; OnApplicationQuit()</text>
</a>
</g>
</g>
<!-- Node4&#45;&gt;Node3 -->
<g id="edge3" class="edge"><title>Node4&#45;&gt;Node3</title>
<path fill="none" stroke="midnightblue" d="M160.477,-980.152C179.502,-939.053 199.337,-896.206 215.35,-861.612"/>
<polygon fill="none" stroke="midnightblue" points="157.201,-978.898 156.176,-989.443 163.553,-981.839 157.201,-978.898"/>
</g>
<!-- Node5 -->
<g id="node5" class="node"><title>Node5</title>
<g id="a_node5"><a xlink:href="../../da/d4f/class_c2_m2_1_1_visualization_1_1_l_u_t_gradient.html" target="_top" xlink:title="Create a fast and memory&#45;friendly color lookup table from a gradient">
<polygon fill="white" stroke="black" points="203,-1044.5 203,-1211.5 400,-1211.5 400,-1044.5 203,-1044.5"/>
<text text-anchor="middle" x="301.5" y="-1199.5" font-family="Courier New" font-size="10.00">C2M2.Visualization.LUTGradient</text>
<polyline fill="none" stroke="black" points="203,-1192.5 400,-1192.5 "/>
<text text-anchor="start" x="211" y="-1180.5" font-family="Courier New" font-size="10.00">+ extremaMethod</text>
<text text-anchor="start" x="211" y="-1169.5" font-family="Courier New" font-size="10.00">+ globalMax</text>
<text text-anchor="start" x="211" y="-1158.5" font-family="Courier New" font-size="10.00">+ globalMin</text>
<text text-anchor="start" x="211" y="-1147.5" font-family="Courier New" font-size="10.00">+ LutRes</text>
<text text-anchor="start" x="211" y="-1136.5" font-family="Courier New" font-size="10.00">+ Gradient</text>
<text text-anchor="start" x="211" y="-1125.5" font-family="Courier New" font-size="10.00">+ gradientLUT</text>
<text text-anchor="start" x="211" y="-1114.5" font-family="Courier New" font-size="10.00">&#45; lutRes</text>
<text text-anchor="start" x="211" y="-1103.5" font-family="Courier New" font-size="10.00">&#45; gradient</text>
<polyline fill="none" stroke="black" points="203,-1096.5 400,-1096.5 "/>
<text text-anchor="start" x="211" y="-1084.5" font-family="Courier New" font-size="10.00">+ Evaluate()</text>
<text text-anchor="start" x="211" y="-1073.5" font-family="Courier New" font-size="10.00">+ Evaluate()</text>
<text text-anchor="start" x="211" y="-1062.5" font-family="Courier New" font-size="10.00">&#45; BuildLUT()</text>
<text text-anchor="start" x="211" y="-1051.5" font-family="Courier New" font-size="10.00">&#45; RescaleArray()</text>
</a>
</g>
</g>
<!-- Node5&#45;&gt;Node3 -->
<g id="edge4" class="edge"><title>Node5&#45;&gt;Node3</title>
<path fill="none" stroke="#404040" d="M265.193,-1044.29C256.672,-1021.04 248.821,-995.418 244.5,-971 237.452,-931.174 243.602,-920.434 244.5,-880 244.545,-877.957 244.597,-875.889 244.653,-873.803"/>
<polygon fill="none" stroke="#404040" points="244.656,-873.707 240.842,-867.587 245.025,-861.713 248.839,-867.834 244.656,-873.707"/>
<text text-anchor="middle" x="290" y="-923" font-family="Courier New" font-size="10.00"> +extremaMethod</text>
</g>
<!-- Node6 -->
<g id="node6" class="node"><title>Node6</title>
<g id="a_node6"><a xlink:title=" ">
<polygon fill="white" stroke="#bfbfbf" points="343,-1304.5 343,-1361.5 438,-1361.5 438,-1304.5 343,-1304.5"/>
<text text-anchor="middle" x="390.5" y="-1349.5" font-family="Courier New" font-size="10.00">MonoBehaviour</text>
<polyline fill="none" stroke="#bfbfbf" points="343,-1342.5 438,-1342.5 "/>
<text text-anchor="middle" x="390.5" y="-1330.5" font-family="Courier New" font-size="10.00"> </text>
<polyline fill="none" stroke="#bfbfbf" points="343,-1323.5 438,-1323.5 "/>
<text text-anchor="middle" x="390.5" y="-1311.5" font-family="Courier New" font-size="10.00"> </text>
</a>
</g>
</g>
<!-- Node6&#45;&gt;Node5 -->
<g id="edge5" class="edge"><title>Node6&#45;&gt;Node5</title>
<path fill="none" stroke="midnightblue" d="M374.29,-1295.03C364.064,-1271.7 350.434,-1240.61 337.734,-1211.65"/>
<polygon fill="none" stroke="midnightblue" points="371.091,-1296.45 378.312,-1304.2 377.502,-1293.64 371.091,-1296.45"/>
</g>
<!-- Node9 -->
<g id="node9" class="node"><title>Node9</title>
<g id="a_node9"><a xlink:href="../../dc/d72/class_c2_m2_1_1_utils_1_1_mesh_utils_1_1_mesh_col_controller.html" target="_top" xlink:title="Set this.mesh to quickly look up and update a MeshCollider&#39;s mesh">
<polygon fill="white" stroke="black" points="345,-880.5 345,-970.5 512,-970.5 512,-880.5 345,-880.5"/>
<text text-anchor="start" x="353" y="-958.5" font-family="Courier New" font-size="10.00">C2M2.Utils.MeshUtils.Mesh</text>
<text text-anchor="middle" x="428.5" y="-947.5" font-family="Courier New" font-size="10.00">ColController</text>
<polyline fill="none" stroke="black" points="345,-940.5 512,-940.5 "/>
<text text-anchor="start" x="353" y="-928.5" font-family="Courier New" font-size="10.00">+ meshCol</text>
<text text-anchor="start" x="353" y="-917.5" font-family="Courier New" font-size="10.00">+ Mesh</text>
<text text-anchor="start" x="353" y="-906.5" font-family="Courier New" font-size="10.00">&#45; mesh</text>
<polyline fill="none" stroke="black" points="345,-899.5 512,-899.5 "/>
<text text-anchor="middle" x="428.5" y="-887.5" font-family="Courier New" font-size="10.00"> </text>
</a>
</g>
</g>
<!-- Node6&#45;&gt;Node9 -->
<g id="edge9" class="edge"><title>Node6&#45;&gt;Node9</title>
<path fill="none" stroke="midnightblue" d="M402.294,-1294.65C404.723,-1285.68 406.996,-1276.06 408.5,-1267 425.97,-1161.7 428.754,-1035.88 428.872,-970.637"/>
<polygon fill="none" stroke="midnightblue" points="398.876,-1293.88 399.517,-1304.45 405.611,-1295.79 398.876,-1293.88"/>
</g>
<!-- Node7 -->
<g id="node7" class="node"><title>Node7</title>
<g id="a_node7"><a xlink:title=" ">
<polygon fill="white" stroke="#bfbfbf" points="529,-760.5 529,-817.5 570,-817.5 570,-760.5 529,-760.5"/>
<text text-anchor="middle" x="549.5" y="-805.5" font-family="Courier New" font-size="10.00">C2M2</text>
<polyline fill="none" stroke="#bfbfbf" points="529,-798.5 570,-798.5 "/>
<text text-anchor="middle" x="549.5" y="-786.5" font-family="Courier New" font-size="10.00"> </text>
<polyline fill="none" stroke="#bfbfbf" points="529,-779.5 570,-779.5 "/>
<text text-anchor="middle" x="549.5" y="-767.5" font-family="Courier New" font-size="10.00"> </text>
</a>
</g>
</g>
<!-- Node7&#45;&gt;Node2 -->
<g id="edge6" class="edge"><title>Node7&#45;&gt;Node2</title>
<path fill="none" stroke="#404040" d="M549.5,-760.26C549.5,-735.969 549.5,-698.425 549.5,-658.68"/>
<polygon fill="none" stroke="#404040" points="549.5,-658.572 545.5,-652.572 549.5,-646.572 553.5,-652.572 549.5,-658.572"/>
<text text-anchor="middle" x="574" y="-679" font-family="Courier New" font-size="10.00"> #grid1D</text>
</g>
<!-- Node8 -->
<g id="node8" class="node"><title>Node8</title>
<g id="a_node8"><a xlink:href="../../dd/d2a/struct_c2_m2_1_1_neuronal_dynamics_1_1_u_g_x_1_1_mapping_info.html" target="_top" xlink:title="Encapsulates the grids and mapping data">
<polygon fill="white" stroke="black" points="588,-744 588,-834 761,-834 761,-744 588,-744"/>
<text text-anchor="start" x="596" y="-822" font-family="Courier New" font-size="10.00">C2M2.NeuronalDynamics.UGX.</text>
<text text-anchor="middle" x="674.5" y="-811" font-family="Courier New" font-size="10.00">MappingInfo</text>
<polyline fill="none" stroke="black" points="588,-804 761,-804 "/>
<text text-anchor="start" x="596" y="-792" font-family="Courier New" font-size="10.00">+ ModelGeometry</text>
<text text-anchor="start" x="596" y="-781" font-family="Courier New" font-size="10.00">+ SurfaceGeometry</text>
<text text-anchor="start" x="596" y="-770" font-family="Courier New" font-size="10.00">+ Data</text>
<polyline fill="none" stroke="black" points="588,-763 761,-763 "/>
<text text-anchor="start" x="596" y="-751" font-family="Courier New" font-size="10.00">+ MappingInfo()</text>
</a>
</g>
</g>
<!-- Node8&#45;&gt;Node2 -->
<g id="edge7" class="edge"><title>Node8&#45;&gt;Node2</title>
<path fill="none" stroke="#404040" d="M656.457,-743.76C646.902,-720.329 634.471,-689.85 621.481,-657.998"/>
<polygon fill="none" stroke="#404040" points="621.399,-657.796 615.429,-653.751 616.867,-646.684 622.837,-650.73 621.399,-657.796"/>
<text text-anchor="middle" x="666" y="-679" font-family="Courier New" font-size="10.00"> &#45;mapping</text>
</g>
<!-- Node9&#45;&gt;Node2 -->
<g id="edge8" class="edge"><title>Node9&#45;&gt;Node2</title>
<path fill="none" stroke="#404040" d="M409.279,-880.353C407.31,-874.285 405.623,-868.057 404.5,-862 392.671,-798.198 386.761,-778.417 404.5,-716 417.563,-670.036 442.488,-624.26 468.036,-585.516"/>
<polygon fill="none" stroke="#404040" points="468.204,-585.265 468.227,-578.054 474.892,-575.302 474.869,-582.513 468.204,-585.265"/>
<text text-anchor="middle" x="462" y="-786.5" font-family="Courier New" font-size="10.00"> &#45;meshColController</text>
</g>
<!-- Node10 -->
<g id="node10" class="node"><title>Node10</title>
<g id="a_node10"><a xlink:href="../../da/df6/class_c2_m2_1_1_neuronal_dynamics_1_1_u_g_x_1_1_neuron_cell.html" target="_top" xlink:title=" ">
<polygon fill="white" stroke="black" points="680,-380.5 680,-580.5 853,-580.5 853,-380.5 680,-380.5"/>
<text text-anchor="start" x="688" y="-568.5" font-family="Courier New" font-size="10.00">C2M2.NeuronalDynamics.UGX.</text>
<text text-anchor="middle" x="766.5" y="-557.5" font-family="Courier New" font-size="10.00">NeuronCell</text>
<polyline fill="none" stroke="black" points="680,-550.5 853,-550.5 "/>
<text text-anchor="start" x="688" y="-538.5" font-family="Courier New" font-size="10.00">+ nodeData</text>
<text text-anchor="start" x="688" y="-527.5" font-family="Courier New" font-size="10.00">+ edges</text>
<text text-anchor="start" x="688" y="-516.5" font-family="Courier New" font-size="10.00">+ edgeLengths</text>
<text text-anchor="start" x="688" y="-505.5" font-family="Courier New" font-size="10.00">+ boundaryID</text>
<text text-anchor="start" x="688" y="-494.5" font-family="Courier New" font-size="10.00">+ somaID</text>
<text text-anchor="start" x="688" y="-483.5" font-family="Courier New" font-size="10.00">+ vertCount</text>
<text text-anchor="start" x="688" y="-472.5" font-family="Courier New" font-size="10.00">+ edgeCount</text>
<polyline fill="none" stroke="black" points="680,-465.5 853,-465.5 "/>
<text text-anchor="start" x="688" y="-453.5" font-family="Courier New" font-size="10.00">+ NeuronCell()</text>
<text text-anchor="start" x="688" y="-442.5" font-family="Courier New" font-size="10.00">+ ReadDataTable()</text>
<text text-anchor="start" x="688" y="-431.5" font-family="Courier New" font-size="10.00">+ NodeToString()</text>
<text text-anchor="start" x="688" y="-420.5" font-family="Courier New" font-size="10.00">+ EdgeToString()</text>
<text text-anchor="start" x="688" y="-409.5" font-family="Courier New" font-size="10.00">+ ToString()</text>
<text text-anchor="start" x="688" y="-398.5" font-family="Courier New" font-size="10.00">&#45; NodeNeighborsToString()</text>
<text text-anchor="start" x="688" y="-387.5" font-family="Courier New" font-size="10.00">&#45; GetEdgeLength()</text>
</a>
</g>
</g>
<!-- Node10&#45;&gt;Node1 -->
<g id="edge10" class="edge"><title>Node10&#45;&gt;Node1</title>
<path fill="none" stroke="#404040" d="M741.741,-380.175C733.84,-348.479 724.93,-312.737 716.403,-278.53"/>
<polygon fill="none" stroke="#404040" points="716.308,-278.148 710.976,-273.294 713.405,-266.505 718.738,-271.359 716.308,-278.148"/>
<text text-anchor="middle" x="743" y="-288" font-family="Courier New" font-size="10.00"> &#45;myCell</text>
</g>
<!-- Node11 -->
<g id="node11" class="node"><title>Node11</title>
<g id="a_node11"><a xlink:title=" ">
<polygon fill="white" stroke="#bfbfbf" points="779,-760.5 779,-817.5 832,-817.5 832,-760.5 779,-760.5"/>
<text text-anchor="middle" x="805.5" y="-805.5" font-family="Courier New" font-size="10.00">static</text>
<polyline fill="none" stroke="#bfbfbf" points="779,-798.5 832,-798.5 "/>
<text text-anchor="middle" x="805.5" y="-786.5" font-family="Courier New" font-size="10.00"> </text>
<polyline fill="none" stroke="#bfbfbf" points="779,-779.5 832,-779.5 "/>
<text text-anchor="middle" x="805.5" y="-767.5" font-family="Courier New" font-size="10.00"> </text>
</a>
</g>
</g>
<!-- Node11&#45;&gt;Node10 -->
<g id="edge11" class="edge"><title>Node11&#45;&gt;Node10</title>
<path fill="none" stroke="#404040" d="M801.97,-760.26C797.171,-722.545 788.307,-652.88 780.641,-592.631"/>
<polygon fill="none" stroke="#404040" points="780.64,-592.623 775.914,-587.176 779.125,-580.719 783.85,-586.166 780.64,-592.623"/>
<text text-anchor="middle" x="849" y="-690" font-family="Courier New" font-size="10.00"> &#45;nodeFormatString</text>
<text text-anchor="middle" x="849" y="-679" font-family="Courier New" font-size="10.00">&#45;edgeFormatString</text>
<text text-anchor="middle" x="849" y="-668" font-family="Courier New" font-size="10.00">&#45;cellFormatString</text>
</g>
</g>
</svg>
