<?xml version="1.0" encoding="UTF-8" standalone="no"?>
<!DOCTYPE svg PUBLIC "-//W3C//DTD SVG 1.1//EN"
 "http://www.w3.org/Graphics/SVG/1.1/DTD/svg11.dtd">
<!-- Generated by graphviz version 2.38.0 (20140413.2041)
 -->
<!-- Title: C2M2.NeuronalDynamics.Simulation.CellSolver2vb Pages: 1 -->
<!--zoomable 1114 -->
<svg id="main" version="1.1" xmlns="http://www.w3.org/2000/svg" xmlns:xlink="http://www.w3.org/1999/xlink" xml:space="preserve" onload="init(evt)">
<style type="text/css"><![CDATA[
.edge:hover path { stroke: red; }
.edge:hover polygon { stroke: red; fill: red; }
]]></style>
<script type="text/javascript"><![CDATA[
var edges = document.getElementsByTagName('g');
if (edges && edges.length) {
  for (var i=0;i<edges.length;i++) {
    if (edges[i].id.substr(0,4)=='edge') {
      edges[i].setAttribute('class','edge');
    }
  }
}
]]></script>
        <defs>
                <circle id="rim" cx="0" cy="0" r="7"/>
                <circle id="rim2" cx="0" cy="0" r="3.5"/>
                <g id="zoomPlus">
                        <use xlink:href="#rim" fill="#404040">
                                <set attributeName="fill" to="#808080" begin="zoomplus.mouseover" end="zoomplus.mouseout"/>
                        </use>
                        <path d="M-4,0h8M0,-4v8" fill="none" stroke="white" stroke-width="1.5" pointer-events="none"/>
                </g>
                <g id="zoomMin">
                        <use xlink:href="#rim" fill="#404040">
                                <set attributeName="fill" to="#808080" begin="zoomminus.mouseover" end="zoomminus.mouseout"/>
                        </use>
                        <path d="M-4,0h8" fill="none" stroke="white" stroke-width="1.5" pointer-events="none"/>
                </g>
                <g id="dirArrow">
                        <path fill="none" stroke="white" stroke-width="1.5" d="M0,-3.0v7 M-2.5,-0.5L0,-3.0L2.5,-0.5"/>
                </g>
               <g id="resetDef">
                       <use xlink:href="#rim2" fill="#404040">
                               <set attributeName="fill" to="#808080" begin="reset.mouseover" end="reset.mouseout"/>
                       </use>
               </g>
        </defs>

<script type="text/javascript">
var viewWidth = 446;
var viewHeight = 1114;
var sectionId = 'dynsection-1';
</script>
<script xlink:href="../../svgpan.js"/>
<svg id="graph" class="graph">
<g id="viewport">
<title>C2M2.NeuronalDynamics.Simulation.CellSolver2vb</title>
<polygon fill="white" stroke="none" points="-4,4 -4,-1110 441.5,-1110 441.5,4 -4,4"/>
<!-- Node1 -->
<g id="node1" class="node"><title>Node1</title>
<g id="a_node1"><a xlink:title=" ">
<polygon fill="#bfbfbf" stroke="black" points="154,-0.5 154,-266.5 369,-266.5 369,-0.5 154,-0.5"/>
<text text-anchor="start" x="162" y="-254.5" font-family="Courier New" font-size="10.00">C2M2.NeuronalDynamics.Simulation.</text>
<text text-anchor="middle" x="261.5" y="-243.5" font-family="Courier New" font-size="10.00">CellSolver2vb</text>
<polyline fill="none" stroke="black" points="154,-236.5 369,-236.5 "/>
<text text-anchor="start" x="162" y="-224.5" font-family="Courier New" font-size="10.00">+ res</text>
<text text-anchor="start" x="162" y="-213.5" font-family="Courier New" font-size="10.00">+ gk</text>
<text text-anchor="start" x="162" y="-202.5" font-family="Courier New" font-size="10.00">+ gna</text>
<text text-anchor="start" x="162" y="-191.5" font-family="Courier New" font-size="10.00">+ gl</text>
<text text-anchor="start" x="162" y="-180.5" font-family="Courier New" font-size="10.00">+ ek</text>
<text text-anchor="start" x="162" y="-169.5" font-family="Courier New" font-size="10.00">+ ena</text>
<text text-anchor="start" x="162" y="-158.5" font-family="Courier New" font-size="10.00">+ el</text>
<text text-anchor="start" x="162" y="-147.5" font-family="Courier New" font-size="10.00">+ cap</text>
<text text-anchor="start" x="162" y="-136.5" font-family="Courier New" font-size="10.00">+ ni</text>
<text text-anchor="start" x="162" y="-125.5" font-family="Courier New" font-size="10.00">+ nT</text>
<text text-anchor="start" x="162" y="-114.5" font-family="Courier New" font-size="10.00">+ vstart</text>
<text text-anchor="start" x="162" y="-103.5" font-family="Courier New" font-size="10.00">&#45; U</text>
<text text-anchor="start" x="162" y="-92.5" font-family="Courier New" font-size="10.00">&#45; i</text>
<text text-anchor="start" x="162" y="-81.5" font-family="Courier New" font-size="10.00">&#45; mi</text>
<text text-anchor="start" x="162" y="-70.5" font-family="Courier New" font-size="10.00">&#45; hi</text>
<polyline fill="none" stroke="black" points="154,-63.5 369,-63.5 "/>
<text text-anchor="start" x="162" y="-51.5" font-family="Courier New" font-size="10.00">+ initialConditions()</text>
<text text-anchor="start" x="162" y="-40.5" font-family="Courier New" font-size="10.00"># SetNeuronCell()</text>
<text text-anchor="start" x="162" y="-29.5" font-family="Courier New" font-size="10.00"># Get1DValues()</text>
<text text-anchor="start" x="162" y="-18.5" font-family="Courier New" font-size="10.00"># Set1DValues()</text>
<text text-anchor="start" x="162" y="-7.5" font-family="Courier New" font-size="10.00"># Solve()</text>
</a>
</g>
</g>
<!-- Node2 -->
<g id="node2" class="node"><title>Node2</title>
<g id="a_node2"><a xlink:href="../../d4/d5a/class_c2_m2_1_1_neuronal_dynamics_1_1_simulation_1_1_neuron_simulation1_d.html" target="_top" xlink:title="Provide an interface for 1D neuron&#45;surface simulations to be visualized and interacted with">
<polygon fill="white" stroke="black" points="99,-314.5 99,-536.5 224,-536.5 224,-314.5 99,-314.5"/>
<text text-anchor="middle" x="161.5" y="-524.5" font-family="Courier New" font-size="10.00">NeuronSimulation1D</text>
<polyline fill="none" stroke="black" points="99,-517.5 224,-517.5 "/>
<text text-anchor="start" x="107" y="-505.5" font-family="Courier New" font-size="10.00">+ visualize1D</text>
<text text-anchor="start" x="107" y="-494.5" font-family="Courier New" font-size="10.00">+ color1D</text>
<text text-anchor="start" x="107" y="-483.5" font-family="Courier New" font-size="10.00">+ lineWidth1D</text>
<text text-anchor="start" x="107" y="-472.5" font-family="Courier New" font-size="10.00">&#45; map</text>
<text text-anchor="start" x="107" y="-461.5" font-family="Courier New" font-size="10.00">&#45; neuronCellFolder</text>
<text text-anchor="start" x="107" y="-450.5" font-family="Courier New" font-size="10.00">&#45; activeCellFolder</text>
<text text-anchor="start" x="107" y="-439.5" font-family="Courier New" font-size="10.00">&#45; ugxExt</text>
<text text-anchor="start" x="107" y="-428.5" font-family="Courier New" font-size="10.00">&#45; cngExt</text>
<text text-anchor="start" x="107" y="-417.5" font-family="Courier New" font-size="10.00">&#45; spec1D</text>
<text text-anchor="start" x="107" y="-406.5" font-family="Courier New" font-size="10.00">&#45; specTris</text>
<text text-anchor="start" x="107" y="-395.5" font-family="Courier New" font-size="10.00">&#45; specBlownup</text>
<polyline fill="none" stroke="black" points="99,-388.5 224,-388.5 "/>
<text text-anchor="start" x="107" y="-376.5" font-family="Courier New" font-size="10.00">+ GetValues()</text>
<text text-anchor="start" x="107" y="-365.5" font-family="Courier New" font-size="10.00">+ SetValues()</text>
<text text-anchor="start" x="107" y="-354.5" font-family="Courier New" font-size="10.00"># Set1DValues()</text>
<text text-anchor="start" x="107" y="-343.5" font-family="Courier New" font-size="10.00"># Get1DValues()</text>
<text text-anchor="start" x="107" y="-332.5" font-family="Courier New" font-size="10.00"># SetNeuronCell()</text>
<text text-anchor="start" x="107" y="-321.5" font-family="Courier New" font-size="10.00"># BuildMesh()</text>
</a>
</g>
</g>
<!-- Node2&#45;&gt;Node1 -->
<g id="edge1" class="edge"><title>Node2&#45;&gt;Node1</title>
<path fill="none" stroke="midnightblue" d="M202.736,-304.915C207.062,-292.37 211.478,-279.564 215.849,-266.887"/>
<polygon fill="none" stroke="midnightblue" points="199.399,-303.855 199.448,-314.45 206.017,-306.137 199.399,-303.855"/>
</g>
<!-- Node3 -->
<g id="node3" class="node"><title>Node3</title>
<g id="a_node3"><a xlink:href="../../d4/de1/class_c2_m2_1_1_simulation_1_1_surface_simulation.html" target="_top" xlink:title="Simulation of type double[] for visualizing scalar fields on mesh surfaces">
<polygon fill="white" stroke="black" points="16,-606.5 16,-751.5 171,-751.5 171,-606.5 16,-606.5"/>
<text text-anchor="middle" x="93.5" y="-739.5" font-family="Courier New" font-size="10.00">SurfaceSimulation</text>
<polyline fill="none" stroke="black" points="16,-732.5 171,-732.5 "/>
<text text-anchor="start" x="24" y="-720.5" font-family="Courier New" font-size="10.00">+ gradient</text>
<text text-anchor="start" x="24" y="-709.5" font-family="Courier New" font-size="10.00">+ globalMax</text>
<text text-anchor="start" x="24" y="-698.5" font-family="Courier New" font-size="10.00">+ globalMin</text>
<text text-anchor="start" x="24" y="-687.5" font-family="Courier New" font-size="10.00">+ colorLUT</text>
<text text-anchor="start" x="24" y="-676.5" font-family="Courier New" font-size="10.00">&#45; mf</text>
<text text-anchor="start" x="24" y="-665.5" font-family="Courier New" font-size="10.00">&#45; mr</text>
<polyline fill="none" stroke="black" points="16,-658.5 171,-658.5 "/>
<text text-anchor="start" x="24" y="-646.5" font-family="Courier New" font-size="10.00"># BuildMesh()</text>
<text text-anchor="start" x="24" y="-635.5" font-family="Courier New" font-size="10.00"># UpdateVisualization()</text>
<text text-anchor="start" x="24" y="-624.5" font-family="Courier New" font-size="10.00"># OnAwake()</text>
<text text-anchor="start" x="24" y="-613.5" font-family="Courier New" font-size="10.00">&#45; UpdateVisualization()</text>
</a>
</g>
</g>
<!-- Node3&#45;&gt;Node2 -->
<g id="edge2" class="edge"><title>Node3&#45;&gt;Node2</title>
<path fill="none" stroke="midnightblue" d="M115.544,-596.47C120.688,-577.446 126.25,-556.874 131.669,-536.832"/>
<polygon fill="none" stroke="midnightblue" points="112.127,-595.7 112.895,-606.267 118.884,-597.527 112.127,-595.7"/>
</g>
<!-- Node4 -->
<g id="node4" class="node"><title>Node4</title>
<g id="a_node4"><a xlink:href="../../db/d39/class_c2_m2_1_1_simulation_1_1_simulation.html" target="_top" xlink:title=" ">
<polygon fill="white" stroke="black" points="0,-799.5 0,-1010.5 155,-1010.5 155,-799.5 0,-799.5"/>
<text text-anchor="middle" x="77.5" y="-998.5" font-family="Courier New" font-size="10.00">Simulation&lt; double[]&gt;</text>
<polyline fill="none" stroke="black" points="0,-991.5 155,-991.5 "/>
<text text-anchor="start" x="8" y="-979.5" font-family="Courier New" font-size="10.00">+ startOnAwake</text>
<text text-anchor="start" x="8" y="-968.5" font-family="Courier New" font-size="10.00"># mutex</text>
<text text-anchor="start" x="8" y="-957.5" font-family="Courier New" font-size="10.00">&#45; solveThread</text>
<polyline fill="none" stroke="black" points="0,-950.5 155,-950.5 "/>
<text text-anchor="start" x="8" y="-938.5" font-family="Courier New" font-size="10.00">+ GetValues()</text>
<text text-anchor="start" x="8" y="-927.5" font-family="Courier New" font-size="10.00">+ StartSimulation()</text>
<text text-anchor="start" x="8" y="-916.5" font-family="Courier New" font-size="10.00">+ StopSimulation()</text>
<text text-anchor="start" x="8" y="-905.5" font-family="Courier New" font-size="10.00">+ Awake()</text>
<text text-anchor="start" x="8" y="-894.5" font-family="Courier New" font-size="10.00">+ Start()</text>
<text text-anchor="start" x="8" y="-883.5" font-family="Courier New" font-size="10.00">+ Update()</text>
<text text-anchor="start" x="8" y="-872.5" font-family="Courier New" font-size="10.00"># UpdateVisualization()</text>
<text text-anchor="start" x="8" y="-861.5" font-family="Courier New" font-size="10.00"># Solve()</text>
<text text-anchor="start" x="8" y="-850.5" font-family="Courier New" font-size="10.00"># OnAwake()</text>
<text text-anchor="start" x="8" y="-839.5" font-family="Courier New" font-size="10.00"># OnStart()</text>
<text text-anchor="start" x="8" y="-828.5" font-family="Courier New" font-size="10.00"># OnUpdate()</text>
<text text-anchor="start" x="8" y="-817.5" font-family="Courier New" font-size="10.00">&#45; OnApplicationPause()</text>
<text text-anchor="start" x="8" y="-806.5" font-family="Courier New" font-size="10.00">&#45; OnApplicationQuit()</text>
</a>
</g>
</g>
<!-- Node4&#45;&gt;Node3 -->
<g id="edge3" class="edge"><title>Node4&#45;&gt;Node3</title>
<path fill="none" stroke="midnightblue" d="M85.7114,-789.041C86.6177,-776.353 87.5203,-763.716 88.3728,-751.781"/>
<polygon fill="none" stroke="midnightblue" points="82.2061,-788.99 84.9847,-799.214 89.1884,-789.489 82.2061,-788.99"/>
</g>
<!-- Node5 -->
<g id="node5" class="node"><title>Node5</title>
<g id="a_node5"><a xlink:href="../../da/d4f/class_c2_m2_1_1_visualization_1_1_l_u_t_gradient.html" target="_top" xlink:title="Create a fast and memory&#45;friendly color lookup table from a gradient">
<polygon fill="white" stroke="black" points="173,-821.5 173,-988.5 370,-988.5 370,-821.5 173,-821.5"/>
<text text-anchor="middle" x="271.5" y="-976.5" font-family="Courier New" font-size="10.00">C2M2.Visualization.LUTGradient</text>
<polyline fill="none" stroke="black" points="173,-969.5 370,-969.5 "/>
<text text-anchor="start" x="181" y="-957.5" font-family="Courier New" font-size="10.00">+ extremaMethod</text>
<text text-anchor="start" x="181" y="-946.5" font-family="Courier New" font-size="10.00">+ globalMax</text>
<text text-anchor="start" x="181" y="-935.5" font-family="Courier New" font-size="10.00">+ globalMin</text>
<text text-anchor="start" x="181" y="-924.5" font-family="Courier New" font-size="10.00">+ LutRes</text>
<text text-anchor="start" x="181" y="-913.5" font-family="Courier New" font-size="10.00">+ Gradient</text>
<text text-anchor="start" x="181" y="-902.5" font-family="Courier New" font-size="10.00">+ gradientLUT</text>
<text text-anchor="start" x="181" y="-891.5" font-family="Courier New" font-size="10.00">&#45; lutRes</text>
<text text-anchor="start" x="181" y="-880.5" font-family="Courier New" font-size="10.00">&#45; gradient</text>
<polyline fill="none" stroke="black" points="173,-873.5 370,-873.5 "/>
<text text-anchor="start" x="181" y="-861.5" font-family="Courier New" font-size="10.00">+ Evaluate()</text>
<text text-anchor="start" x="181" y="-850.5" font-family="Courier New" font-size="10.00">+ Evaluate()</text>
<text text-anchor="start" x="181" y="-839.5" font-family="Courier New" font-size="10.00">&#45; BuildLUT()</text>
<text text-anchor="start" x="181" y="-828.5" font-family="Courier New" font-size="10.00">&#45; RescaleArray()</text>
</a>
</g>
</g>
<!-- Node5&#45;&gt;Node3 -->
<g id="edge4" class="edge"><title>Node5&#45;&gt;Node3</title>
<path fill="none" stroke="#404040" d="M205.725,-821.227C190.15,-801.627 173.555,-780.744 158.036,-761.214"/>
<polygon fill="none" stroke="#404040" points="157.979,-761.142 151.115,-758.933 150.514,-751.747 157.378,-753.956 157.979,-761.142"/>
<text text-anchor="middle" x="218" y="-773" font-family="Courier New" font-size="10.00"> +extremaMethod</text>
</g>
<!-- Node6 -->
<g id="node6" class="node"><title>Node6</title>
<g id="a_node6"><a xlink:title=" ">
<polygon fill="white" stroke="#bfbfbf" points="224,-1048.5 224,-1105.5 319,-1105.5 319,-1048.5 224,-1048.5"/>
<text text-anchor="middle" x="271.5" y="-1093.5" font-family="Courier New" font-size="10.00">MonoBehaviour</text>
<polyline fill="none" stroke="#bfbfbf" points="224,-1086.5 319,-1086.5 "/>
<text text-anchor="middle" x="271.5" y="-1074.5" font-family="Courier New" font-size="10.00"> </text>
<polyline fill="none" stroke="#bfbfbf" points="224,-1067.5 319,-1067.5 "/>
<text text-anchor="middle" x="271.5" y="-1055.5" font-family="Courier New" font-size="10.00"> </text>
</a>
</g>
</g>
<!-- Node6&#45;&gt;Node5 -->
<g id="edge5" class="edge"><title>Node6&#45;&gt;Node5</title>
<path fill="none" stroke="midnightblue" d="M271.5,-1038.15C271.5,-1023.48 271.5,-1006.06 271.5,-988.769"/>
<polygon fill="none" stroke="midnightblue" points="268,-1038.31 271.5,-1048.31 275,-1038.31 268,-1038.31"/>
</g>
<!-- Node7 -->
<g id="node7" class="node"><title>Node7</title>
<g id="a_node7"><a xlink:title=" ">
<polygon fill="white" stroke="#bfbfbf" points="189,-650.5 189,-707.5 230,-707.5 230,-650.5 189,-650.5"/>
<text text-anchor="middle" x="209.5" y="-695.5" font-family="Courier New" font-size="10.00">C2M2</text>
<polyline fill="none" stroke="#bfbfbf" points="189,-688.5 230,-688.5 "/>
<text text-anchor="middle" x="209.5" y="-676.5" font-family="Courier New" font-size="10.00"> </text>
<polyline fill="none" stroke="#bfbfbf" points="189,-669.5 230,-669.5 "/>
<text text-anchor="middle" x="209.5" y="-657.5" font-family="Courier New" font-size="10.00"> </text>
</a>
</g>
</g>
<!-- Node7&#45;&gt;Node2 -->
<g id="edge6" class="edge"><title>Node7&#45;&gt;Node2</title>
<path fill="none" stroke="#404040" d="M204.18,-650.124C199.402,-625.089 192.039,-586.51 184.766,-548.402"/>
<polygon fill="none" stroke="#404040" points="184.764,-548.393 179.71,-543.249 182.514,-536.606 187.568,-541.749 184.764,-548.393"/>
<text text-anchor="middle" x="216" y="-569" font-family="Courier New" font-size="10.00"> #grid1D</text>
</g>
<!-- Node8 -->
<g id="node8" class="node"><title>Node8</title>
<g id="a_node8"><a xlink:href="../../da/df6/class_c2_m2_1_1_neuronal_dynamics_1_1_u_g_x_1_1_neuron_cell.html" target="_top" xlink:title=" ">
<polygon fill="white" stroke="black" points="242,-325.5 242,-525.5 415,-525.5 415,-325.5 242,-325.5"/>
<text text-anchor="start" x="250" y="-513.5" font-family="Courier New" font-size="10.00">C2M2.NeuronalDynamics.UGX.</text>
<text text-anchor="middle" x="328.5" y="-502.5" font-family="Courier New" font-size="10.00">NeuronCell</text>
<polyline fill="none" stroke="black" points="242,-495.5 415,-495.5 "/>
<text text-anchor="start" x="250" y="-483.5" font-family="Courier New" font-size="10.00">+ nodeData</text>
<text text-anchor="start" x="250" y="-472.5" font-family="Courier New" font-size="10.00">+ edges</text>
<text text-anchor="start" x="250" y="-461.5" font-family="Courier New" font-size="10.00">+ edgeLengths</text>
<text text-anchor="start" x="250" y="-450.5" font-family="Courier New" font-size="10.00">+ boundaryID</text>
<text text-anchor="start" x="250" y="-439.5" font-family="Courier New" font-size="10.00">+ somaID</text>
<text text-anchor="start" x="250" y="-428.5" font-family="Courier New" font-size="10.00">+ vertCount</text>
<text text-anchor="start" x="250" y="-417.5" font-family="Courier New" font-size="10.00">+ edgeCount</text>
<polyline fill="none" stroke="black" points="242,-410.5 415,-410.5 "/>
<text text-anchor="start" x="250" y="-398.5" font-family="Courier New" font-size="10.00">+ NeuronCell()</text>
<text text-anchor="start" x="250" y="-387.5" font-family="Courier New" font-size="10.00">+ ReadDataTable()</text>
<text text-anchor="start" x="250" y="-376.5" font-family="Courier New" font-size="10.00">+ NodeToString()</text>
<text text-anchor="start" x="250" y="-365.5" font-family="Courier New" font-size="10.00">+ EdgeToString()</text>
<text text-anchor="start" x="250" y="-354.5" font-family="Courier New" font-size="10.00">+ ToString()</text>
<text text-anchor="start" x="250" y="-343.5" font-family="Courier New" font-size="10.00">&#45; NodeNeighborsToString()</text>
<text text-anchor="start" x="250" y="-332.5" font-family="Courier New" font-size="10.00">&#45; GetEdgeLength()</text>
</a>
</g>
</g>
<!-- Node8&#45;&gt;Node1 -->
<g id="edge7" class="edge"><title>Node8&#45;&gt;Node1</title>
<path fill="none" stroke="#404040" d="M305.536,-325.104C302.065,-310.078 298.425,-294.325 294.789,-278.587"/>
<polygon fill="none" stroke="#404040" points="294.713,-278.258 289.465,-273.313 292.012,-266.566 297.26,-271.512 294.713,-278.258"/>
<text text-anchor="middle" x="322" y="-288" font-family="Courier New" font-size="10.00"> &#45;myCell</text>
</g>
<!-- Node9 -->
<g id="node9" class="node"><title>Node9</title>
<g id="a_node9"><a xlink:title=" ">
<polygon fill="white" stroke="#bfbfbf" points="302,-650.5 302,-707.5 355,-707.5 355,-650.5 302,-650.5"/>
<text text-anchor="middle" x="328.5" y="-695.5" font-family="Courier New" font-size="10.00">static</text>
<polyline fill="none" stroke="#bfbfbf" points="302,-688.5 355,-688.5 "/>
<text text-anchor="middle" x="328.5" y="-676.5" font-family="Courier New" font-size="10.00"> </text>
<polyline fill="none" stroke="#bfbfbf" points="302,-669.5 355,-669.5 "/>
<text text-anchor="middle" x="328.5" y="-657.5" font-family="Courier New" font-size="10.00"> </text>
</a>
</g>
</g>
<!-- Node9&#45;&gt;Node8 -->
<g id="edge8" class="edge"><title>Node9&#45;&gt;Node8</title>
<path fill="none" stroke="#404040" d="M328.5,-650.124C328.5,-622.77 328.5,-579.244 328.5,-537.833"/>
<polygon fill="none" stroke="#404040" points="328.5,-537.648 324.5,-531.648 328.5,-525.648 332.5,-531.648 328.5,-537.648"/>
<text text-anchor="middle" x="383" y="-580" font-family="Courier New" font-size="10.00"> &#45;nodeFormatString</text>
<text text-anchor="middle" x="383" y="-569" font-family="Courier New" font-size="10.00">&#45;edgeFormatString</text>
<text text-anchor="middle" x="383" y="-558" font-family="Courier New" font-size="10.00">&#45;cellFormatString</text>
</g>
</g>
</svg>
        <g id="navigator" transform="translate(0 0)" fill="#404254">
                <rect fill="#f2f5e9" fill-opacity="0.5" stroke="#606060" stroke-width=".5" x="0" y="0" width="60" height="60"/>
                <use id="zoomplus" xlink:href="#zoomPlus" x="17" y="9" onmousedown="handleZoom(evt,'in')"/>
                <use id="zoomminus" xlink:href="#zoomMin" x="42" y="9" onmousedown="handleZoom(evt,'out')"/>
                <use id="reset" xlink:href="#resetDef" x="30" y="36" onmousedown="handleReset()"/>
                <g id="arrowUp" xlink:href="#dirArrow" transform="translate(30 24)" onmousedown="handlePan(0,-1)">
                  <use xlink:href="#rim" fill="#404040">
                        <set attributeName="fill" to="#808080" begin="arrowUp.mouseover" end="arrowUp.mouseout"/>
                  </use>
                  <path fill="none" stroke="white" stroke-width="1.5" d="M0,-3.0v7 M-2.5,-0.5L0,-3.0L2.5,-0.5"/>
                </g>
                <g id="arrowRight" xlink:href="#dirArrow" transform="rotate(90) translate(36 -43)" onmousedown="handlePan(1,0)">
                  <use xlink:href="#rim" fill="#404040">
                        <set attributeName="fill" to="#808080" begin="arrowRight.mouseover" end="arrowRight.mouseout"/>
                  </use>
                  <path fill="none" stroke="white" stroke-width="1.5" d="M0,-3.0v7 M-2.5,-0.5L0,-3.0L2.5,-0.5"/>
                </g>
                <g id="arrowDown" xlink:href="#dirArrow" transform="rotate(180) translate(-30 -48)" onmousedown="handlePan(0,1)">
                  <use xlink:href="#rim" fill="#404040">
                        <set attributeName="fill" to="#808080" begin="arrowDown.mouseover" end="arrowDown.mouseout"/>
                  </use>
                  <path fill="none" stroke="white" stroke-width="1.5" d="M0,-3.0v7 M-2.5,-0.5L0,-3.0L2.5,-0.5"/>
                </g>
                <g id="arrowLeft" xlink:href="#dirArrow" transform="rotate(270) translate(-36 17)" onmousedown="handlePan(-1,0)">
                  <use xlink:href="#rim" fill="#404040">
                        <set attributeName="fill" to="#808080" begin="arrowLeft.mouseover" end="arrowLeft.mouseout"/>
                  </use>
                  <path fill="none" stroke="white" stroke-width="1.5" d="M0,-3.0v7 M-2.5,-0.5L0,-3.0L2.5,-0.5"/>
                </g>
        </g>
        <svg viewBox="0 0 15 15" width="100%" height="30px" preserveAspectRatio="xMaxYMin meet">
         <g id="arrow_out" transform="scale(0.3 0.3)">
          <a xlink:href="class_c2_m2_1_1_neuronal_dynamics_1_1_simulation_1_1_cell_solver2vb__coll__graph_org.svg" target="_base">
           <rect id="button" ry="5" rx="5" y="6" x="6" height="38" width="38"
                fill="#f2f5e9" fill-opacity="0.5" stroke="#606060" stroke-width="1.0"/>
           <path id="arrow"
             d="M 11.500037,31.436501 C 11.940474,20.09759 22.043105,11.32322 32.158766,21.979434 L 37.068811,17.246167 C 37.068811,17.246167 37.088388,32 37.088388,32 L 22.160133,31.978069 C 22.160133,31.978069 26.997745,27.140456 26.997745,27.140456 C 18.528582,18.264221 13.291696,25.230495 11.500037,31.436501 z"
             style="fill:#404040;"/>
          </a>
         </g>
        </svg>
</svg>
