<?xml version="1.0" encoding="UTF-8" standalone="no"?>
<!DOCTYPE svg PUBLIC "-//W3C//DTD SVG 1.1//EN"
 "http://www.w3.org/Graphics/SVG/1.1/DTD/svg11.dtd">
<!-- Generated by graphviz version 2.38.0 (20140413.2041)
 -->
<!-- Title: C2M2.NeuronalDynamics.Simulation.CellSolver2vb Pages: 1 -->
<svg width="452pt" height="1125pt"
 viewBox="0.00 0.00 451.50 1125.00" xmlns="http://www.w3.org/2000/svg" xmlns:xlink="http://www.w3.org/1999/xlink">
<g id="graph0" class="graph" transform="scale(1 1) rotate(0) translate(4 1121)">
<title>C2M2.NeuronalDynamics.Simulation.CellSolver2vb</title>
<polygon fill="white" stroke="none" points="-4,4 -4,-1121 447.5,-1121 447.5,4 -4,4"/>
<!-- Node1 -->
<g id="node1" class="node"><title>Node1</title>
<g id="a_node1"><a xlink:title=" ">
<polygon fill="#bfbfbf" stroke="black" points="155,-0.5 155,-266.5 370,-266.5 370,-0.5 155,-0.5"/>
<text text-anchor="start" x="163" y="-254.5" font-family="Courier New" font-size="10.00">C2M2.NeuronalDynamics.Simulation.</text>
<text text-anchor="middle" x="262.5" y="-243.5" font-family="Courier New" font-size="10.00">CellSolver2vb</text>
<polyline fill="none" stroke="black" points="155,-236.5 370,-236.5 "/>
<text text-anchor="start" x="163" y="-224.5" font-family="Courier New" font-size="10.00">+ res</text>
<text text-anchor="start" x="163" y="-213.5" font-family="Courier New" font-size="10.00">+ gk</text>
<text text-anchor="start" x="163" y="-202.5" font-family="Courier New" font-size="10.00">+ gna</text>
<text text-anchor="start" x="163" y="-191.5" font-family="Courier New" font-size="10.00">+ gl</text>
<text text-anchor="start" x="163" y="-180.5" font-family="Courier New" font-size="10.00">+ ek</text>
<text text-anchor="start" x="163" y="-169.5" font-family="Courier New" font-size="10.00">+ ena</text>
<text text-anchor="start" x="163" y="-158.5" font-family="Courier New" font-size="10.00">+ el</text>
<text text-anchor="start" x="163" y="-147.5" font-family="Courier New" font-size="10.00">+ cap</text>
<text text-anchor="start" x="163" y="-136.5" font-family="Courier New" font-size="10.00">+ ni</text>
<text text-anchor="start" x="163" y="-125.5" font-family="Courier New" font-size="10.00">+ nT</text>
<text text-anchor="start" x="163" y="-114.5" font-family="Courier New" font-size="10.00">+ vstart</text>
<text text-anchor="start" x="163" y="-103.5" font-family="Courier New" font-size="10.00">&#45; U</text>
<text text-anchor="start" x="163" y="-92.5" font-family="Courier New" font-size="10.00">&#45; i</text>
<text text-anchor="start" x="163" y="-81.5" font-family="Courier New" font-size="10.00">&#45; mi</text>
<text text-anchor="start" x="163" y="-70.5" font-family="Courier New" font-size="10.00">&#45; hi</text>
<polyline fill="none" stroke="black" points="155,-63.5 370,-63.5 "/>
<text text-anchor="start" x="163" y="-51.5" font-family="Courier New" font-size="10.00">+ initialConditions()</text>
<text text-anchor="start" x="163" y="-40.5" font-family="Courier New" font-size="10.00"># SetNeuronCell()</text>
<text text-anchor="start" x="163" y="-29.5" font-family="Courier New" font-size="10.00"># Get1DValues()</text>
<text text-anchor="start" x="163" y="-18.5" font-family="Courier New" font-size="10.00"># Set1DValues()</text>
<text text-anchor="start" x="163" y="-7.5" font-family="Courier New" font-size="10.00"># Solve()</text>
</a>
</g>
</g>
<!-- Node2 -->
<g id="node2" class="node"><title>Node2</title>
<g id="a_node2"><a xlink:href="../../d4/d5a/class_c2_m2_1_1_neuronal_dynamics_1_1_simulation_1_1_neuron_simulation1_d.html" target="_top" xlink:title="Provide an interface for 1D neuron&#45;surface simulations to be visualized and interacted with">
<polygon fill="white" stroke="black" points="81,-314.5 81,-536.5 230,-536.5 230,-314.5 81,-314.5"/>
<text text-anchor="middle" x="155.5" y="-524.5" font-family="Courier New" font-size="10.00">NeuronSimulation1D</text>
<polyline fill="none" stroke="black" points="81,-517.5 230,-517.5 "/>
<text text-anchor="start" x="89" y="-505.5" font-family="Courier New" font-size="10.00">+ visualize1D</text>
<text text-anchor="start" x="89" y="-494.5" font-family="Courier New" font-size="10.00">+ color1D</text>
<text text-anchor="start" x="89" y="-483.5" font-family="Courier New" font-size="10.00">+ lineWidth1D</text>
<text text-anchor="start" x="89" y="-472.5" font-family="Courier New" font-size="10.00">&#45; map</text>
<text text-anchor="start" x="89" y="-461.5" font-family="Courier New" font-size="10.00">&#45; neuronCellFolder</text>
<text text-anchor="start" x="89" y="-450.5" font-family="Courier New" font-size="10.00">&#45; activeCellFolder</text>
<text text-anchor="start" x="89" y="-439.5" font-family="Courier New" font-size="10.00">&#45; ugxExt</text>
<text text-anchor="start" x="89" y="-428.5" font-family="Courier New" font-size="10.00">&#45; cngExt</text>
<text text-anchor="start" x="89" y="-417.5" font-family="Courier New" font-size="10.00">&#45; spec1D</text>
<text text-anchor="start" x="89" y="-406.5" font-family="Courier New" font-size="10.00">&#45; specTris</text>
<text text-anchor="start" x="89" y="-395.5" font-family="Courier New" font-size="10.00">&#45; specBlownup</text>
<polyline fill="none" stroke="black" points="81,-388.5 230,-388.5 "/>
<text text-anchor="start" x="89" y="-376.5" font-family="Courier New" font-size="10.00">+ GetValues()</text>
<text text-anchor="start" x="89" y="-365.5" font-family="Courier New" font-size="10.00">+ SetValues()</text>
<text text-anchor="start" x="89" y="-354.5" font-family="Courier New" font-size="10.00"># Set1DValues()</text>
<text text-anchor="start" x="89" y="-343.5" font-family="Courier New" font-size="10.00"># Get1DValues()</text>
<text text-anchor="start" x="89" y="-332.5" font-family="Courier New" font-size="10.00"># SetNeuronCell()</text>
<text text-anchor="start" x="89" y="-321.5" font-family="Courier New" font-size="10.00"># BuildVisualization()</text>
</a>
</g>
</g>
<!-- Node2&#45;&gt;Node1 -->
<g id="edge1" class="edge"><title>Node2&#45;&gt;Node1</title>
<path fill="none" stroke="midnightblue" d="M199.623,-304.915C204.251,-292.37 208.976,-279.564 213.654,-266.887"/>
<polygon fill="none" stroke="midnightblue" points="196.283,-303.857 196.105,-314.45 202.85,-306.28 196.283,-303.857"/>
</g>
<!-- Node3 -->
<g id="node3" class="node"><title>Node3</title>
<g id="a_node3"><a xlink:href="../../d4/de1/class_c2_m2_1_1_simulation_1_1_surface_simulation.html" target="_top" xlink:title="Simulation of type double[] for visualizing scalar fields on mesh surfaces">
<polygon fill="white" stroke="black" points="16,-606.5 16,-740.5 171,-740.5 171,-606.5 16,-606.5"/>
<text text-anchor="middle" x="93.5" y="-728.5" font-family="Courier New" font-size="10.00">SurfaceSimulation</text>
<polyline fill="none" stroke="black" points="16,-721.5 171,-721.5 "/>
<text text-anchor="start" x="24" y="-709.5" font-family="Courier New" font-size="10.00">+ gradient</text>
<text text-anchor="start" x="24" y="-698.5" font-family="Courier New" font-size="10.00">+ globalMax</text>
<text text-anchor="start" x="24" y="-687.5" font-family="Courier New" font-size="10.00">+ globalMin</text>
<text text-anchor="start" x="24" y="-676.5" font-family="Courier New" font-size="10.00">+ colorLUT</text>
<text text-anchor="start" x="24" y="-665.5" font-family="Courier New" font-size="10.00">&#45; mf</text>
<text text-anchor="start" x="24" y="-654.5" font-family="Courier New" font-size="10.00">&#45; mr</text>
<polyline fill="none" stroke="black" points="16,-647.5 171,-647.5 "/>
<text text-anchor="start" x="24" y="-635.5" font-family="Courier New" font-size="10.00"># UpdateVisualization()</text>
<text text-anchor="start" x="24" y="-624.5" font-family="Courier New" font-size="10.00"># OnAwake()</text>
<text text-anchor="start" x="24" y="-613.5" font-family="Courier New" font-size="10.00">&#45; UpdateVisualization()</text>
</a>
</g>
</g>
<!-- Node3&#45;&gt;Node2 -->
<g id="edge2" class="edge"><title>Node3&#45;&gt;Node2</title>
<path fill="none" stroke="midnightblue" d="M112.654,-596.5C117.438,-577.521 122.664,-556.784 127.771,-536.523"/>
<polygon fill="none" stroke="midnightblue" points="109.247,-595.701 110.196,-606.253 116.034,-597.412 109.247,-595.701"/>
</g>
<!-- Node4 -->
<g id="node4" class="node"><title>Node4</title>
<g id="a_node4"><a xlink:href="../../db/d39/class_c2_m2_1_1_simulation_1_1_simulation.html" target="_top" xlink:title=" ">
<polygon fill="white" stroke="black" points="0,-788.5 0,-1021.5 155,-1021.5 155,-788.5 0,-788.5"/>
<text text-anchor="start" x="8" y="-1009.5" font-family="Courier New" font-size="10.00">Simulation&lt; double</text>
<text text-anchor="middle" x="77.5" y="-998.5" font-family="Courier New" font-size="10.00">[], Mesh &gt;</text>
<polyline fill="none" stroke="black" points="0,-991.5 155,-991.5 "/>
<text text-anchor="start" x="8" y="-979.5" font-family="Courier New" font-size="10.00">+ startOnAwake</text>
<text text-anchor="start" x="8" y="-968.5" font-family="Courier New" font-size="10.00"># mutex</text>
<text text-anchor="start" x="8" y="-957.5" font-family="Courier New" font-size="10.00">&#45; solveThread</text>
<polyline fill="none" stroke="black" points="0,-950.5 155,-950.5 "/>
<text text-anchor="start" x="8" y="-938.5" font-family="Courier New" font-size="10.00">+ GetValues()</text>
<text text-anchor="start" x="8" y="-927.5" font-family="Courier New" font-size="10.00">+ StartSimulation()</text>
<text text-anchor="start" x="8" y="-916.5" font-family="Courier New" font-size="10.00">+ StopSimulation()</text>
<text text-anchor="start" x="8" y="-905.5" font-family="Courier New" font-size="10.00">+ Awake()</text>
<text text-anchor="start" x="8" y="-894.5" font-family="Courier New" font-size="10.00">+ Start()</text>
<text text-anchor="start" x="8" y="-883.5" font-family="Courier New" font-size="10.00">+ Update()</text>
<text text-anchor="start" x="8" y="-872.5" font-family="Courier New" font-size="10.00"># BuildVisualization()</text>
<text text-anchor="start" x="8" y="-861.5" font-family="Courier New" font-size="10.00"># UpdateVisualization()</text>
<text text-anchor="start" x="8" y="-850.5" font-family="Courier New" font-size="10.00"># Solve()</text>
<text text-anchor="start" x="8" y="-839.5" font-family="Courier New" font-size="10.00"># OnAwake()</text>
<text text-anchor="start" x="8" y="-828.5" font-family="Courier New" font-size="10.00"># OnStart()</text>
<text text-anchor="start" x="8" y="-817.5" font-family="Courier New" font-size="10.00"># OnUpdate()</text>
<text text-anchor="start" x="8" y="-806.5" font-family="Courier New" font-size="10.00">&#45; OnApplicationPause()</text>
<text text-anchor="start" x="8" y="-795.5" font-family="Courier New" font-size="10.00">&#45; OnApplicationQuit()</text>
</a>
</g>
</g>
<!-- Node4&#45;&gt;Node3 -->
<g id="edge3" class="edge"><title>Node4&#45;&gt;Node3</title>
<path fill="none" stroke="midnightblue" d="M86.2916,-777.895C87.1886,-765.029 88.0721,-752.356 88.8966,-740.53"/>
<polygon fill="none" stroke="midnightblue" points="82.7744,-778.022 85.5703,-788.241 89.7574,-778.509 82.7744,-778.022"/>
</g>
<!-- Node5 -->
<g id="node5" class="node"><title>Node5</title>
<g id="a_node5"><a xlink:href="../../da/d4f/class_c2_m2_1_1_visualization_1_1_l_u_t_gradient.html" target="_top" xlink:title="Create a fast and memory&#45;friendly color lookup table from a gradient">
<polygon fill="white" stroke="black" points="173,-821.5 173,-988.5 370,-988.5 370,-821.5 173,-821.5"/>
<text text-anchor="middle" x="271.5" y="-976.5" font-family="Courier New" font-size="10.00">C2M2.Visualization.LUTGradient</text>
<polyline fill="none" stroke="black" points="173,-969.5 370,-969.5 "/>
<text text-anchor="start" x="181" y="-957.5" font-family="Courier New" font-size="10.00">+ extremaMethod</text>
<text text-anchor="start" x="181" y="-946.5" font-family="Courier New" font-size="10.00">+ globalMax</text>
<text text-anchor="start" x="181" y="-935.5" font-family="Courier New" font-size="10.00">+ globalMin</text>
<text text-anchor="start" x="181" y="-924.5" font-family="Courier New" font-size="10.00">+ LutRes</text>
<text text-anchor="start" x="181" y="-913.5" font-family="Courier New" font-size="10.00">+ Gradient</text>
<text text-anchor="start" x="181" y="-902.5" font-family="Courier New" font-size="10.00">+ gradientLUT</text>
<text text-anchor="start" x="181" y="-891.5" font-family="Courier New" font-size="10.00">&#45; lutRes</text>
<text text-anchor="start" x="181" y="-880.5" font-family="Courier New" font-size="10.00">&#45; gradient</text>
<polyline fill="none" stroke="black" points="173,-873.5 370,-873.5 "/>
<text text-anchor="start" x="181" y="-861.5" font-family="Courier New" font-size="10.00">+ Evaluate()</text>
<text text-anchor="start" x="181" y="-850.5" font-family="Courier New" font-size="10.00">+ Evaluate()</text>
<text text-anchor="start" x="181" y="-839.5" font-family="Courier New" font-size="10.00">&#45; BuildLUT()</text>
<text text-anchor="start" x="181" y="-828.5" font-family="Courier New" font-size="10.00">&#45; RescaleArray()</text>
</a>
</g>
</g>
<!-- Node5&#45;&gt;Node3 -->
<g id="edge4" class="edge"><title>Node5&#45;&gt;Node3</title>
<path fill="none" stroke="#404040" d="M207.489,-821.469C189.437,-798.194 169.891,-772.993 152.169,-750.143"/>
<polygon fill="none" stroke="#404040" points="152.049,-749.989 145.211,-747.699 144.694,-740.506 151.532,-742.796 152.049,-749.989"/>
<text text-anchor="middle" x="213" y="-762" font-family="Courier New" font-size="10.00"> +extremaMethod</text>
</g>
<!-- Node6 -->
<g id="node6" class="node"><title>Node6</title>
<g id="a_node6"><a xlink:title=" ">
<polygon fill="white" stroke="#bfbfbf" points="224,-1059.5 224,-1116.5 319,-1116.5 319,-1059.5 224,-1059.5"/>
<text text-anchor="middle" x="271.5" y="-1104.5" font-family="Courier New" font-size="10.00">MonoBehaviour</text>
<polyline fill="none" stroke="#bfbfbf" points="224,-1097.5 319,-1097.5 "/>
<text text-anchor="middle" x="271.5" y="-1085.5" font-family="Courier New" font-size="10.00"> </text>
<polyline fill="none" stroke="#bfbfbf" points="224,-1078.5 319,-1078.5 "/>
<text text-anchor="middle" x="271.5" y="-1066.5" font-family="Courier New" font-size="10.00"> </text>
</a>
</g>
</g>
<!-- Node6&#45;&gt;Node5 -->
<g id="edge5" class="edge"><title>Node6&#45;&gt;Node5</title>
<path fill="none" stroke="midnightblue" d="M271.5,-1048.75C271.5,-1031.22 271.5,-1009.71 271.5,-988.754"/>
<polygon fill="none" stroke="midnightblue" points="268,-1049.12 271.5,-1059.12 275,-1049.12 268,-1049.12"/>
</g>
<!-- Node7 -->
<g id="node7" class="node"><title>Node7</title>
<g id="a_node7"><a xlink:title=" ">
<polygon fill="white" stroke="#bfbfbf" points="189,-645 189,-702 230,-702 230,-645 189,-645"/>
<text text-anchor="middle" x="209.5" y="-690" font-family="Courier New" font-size="10.00">C2M2</text>
<polyline fill="none" stroke="#bfbfbf" points="189,-683 230,-683 "/>
<text text-anchor="middle" x="209.5" y="-671" font-family="Courier New" font-size="10.00"> </text>
<polyline fill="none" stroke="#bfbfbf" points="189,-664 230,-664 "/>
<text text-anchor="middle" x="209.5" y="-652" font-family="Courier New" font-size="10.00"> </text>
</a>
</g>
</g>
<!-- Node7&#45;&gt;Node2 -->
<g id="edge6" class="edge"><title>Node7&#45;&gt;Node2</title>
<path fill="none" stroke="#404040" d="M203.41,-644.759C198.159,-620.835 190.188,-584.522 182.246,-548.343"/>
<polygon fill="none" stroke="#404040" points="182.245,-548.338 177.052,-543.335 179.672,-536.617 184.866,-541.62 182.245,-548.338"/>
<text text-anchor="middle" x="215" y="-569" font-family="Courier New" font-size="10.00"> #grid1D</text>
</g>
<!-- Node8 -->
<g id="node8" class="node"><title>Node8</title>
<g id="a_node8"><a xlink:href="../../da/df6/class_c2_m2_1_1_neuronal_dynamics_1_1_u_g_x_1_1_neuron_cell.html" target="_top" xlink:title=" ">
<polygon fill="white" stroke="black" points="248,-325.5 248,-525.5 421,-525.5 421,-325.5 248,-325.5"/>
<text text-anchor="start" x="256" y="-513.5" font-family="Courier New" font-size="10.00">C2M2.NeuronalDynamics.UGX.</text>
<text text-anchor="middle" x="334.5" y="-502.5" font-family="Courier New" font-size="10.00">NeuronCell</text>
<polyline fill="none" stroke="black" points="248,-495.5 421,-495.5 "/>
<text text-anchor="start" x="256" y="-483.5" font-family="Courier New" font-size="10.00">+ nodeData</text>
<text text-anchor="start" x="256" y="-472.5" font-family="Courier New" font-size="10.00">+ edges</text>
<text text-anchor="start" x="256" y="-461.5" font-family="Courier New" font-size="10.00">+ edgeLengths</text>
<text text-anchor="start" x="256" y="-450.5" font-family="Courier New" font-size="10.00">+ boundaryID</text>
<text text-anchor="start" x="256" y="-439.5" font-family="Courier New" font-size="10.00">+ somaID</text>
<text text-anchor="start" x="256" y="-428.5" font-family="Courier New" font-size="10.00">+ vertCount</text>
<text text-anchor="start" x="256" y="-417.5" font-family="Courier New" font-size="10.00">+ edgeCount</text>
<polyline fill="none" stroke="black" points="248,-410.5 421,-410.5 "/>
<text text-anchor="start" x="256" y="-398.5" font-family="Courier New" font-size="10.00">+ NeuronCell()</text>
<text text-anchor="start" x="256" y="-387.5" font-family="Courier New" font-size="10.00">+ ReadDataTable()</text>
<text text-anchor="start" x="256" y="-376.5" font-family="Courier New" font-size="10.00">+ NodeToString()</text>
<text text-anchor="start" x="256" y="-365.5" font-family="Courier New" font-size="10.00">+ EdgeToString()</text>
<text text-anchor="start" x="256" y="-354.5" font-family="Courier New" font-size="10.00">+ ToString()</text>
<text text-anchor="start" x="256" y="-343.5" font-family="Courier New" font-size="10.00">&#45; NodeNeighborsToString()</text>
<text text-anchor="start" x="256" y="-332.5" font-family="Courier New" font-size="10.00">&#45; GetEdgeLength()</text>
</a>
</g>
</g>
<!-- Node8&#45;&gt;Node1 -->
<g id="edge7" class="edge"><title>Node8&#45;&gt;Node1</title>
<path fill="none" stroke="#404040" d="M309.822,-325.104C306.092,-310.078 302.181,-294.325 298.273,-278.587"/>
<polygon fill="none" stroke="#404040" points="298.18,-278.213 292.853,-273.353 295.289,-266.566 300.617,-271.426 298.18,-278.213"/>
<text text-anchor="middle" x="326" y="-288" font-family="Courier New" font-size="10.00"> &#45;myCell</text>
</g>
<!-- Node9 -->
<g id="node9" class="node"><title>Node9</title>
<g id="a_node9"><a xlink:title=" ">
<polygon fill="white" stroke="#bfbfbf" points="308,-645 308,-702 361,-702 361,-645 308,-645"/>
<text text-anchor="middle" x="334.5" y="-690" font-family="Courier New" font-size="10.00">static</text>
<polyline fill="none" stroke="#bfbfbf" points="308,-683 361,-683 "/>
<text text-anchor="middle" x="334.5" y="-671" font-family="Courier New" font-size="10.00"> </text>
<polyline fill="none" stroke="#bfbfbf" points="308,-664 361,-664 "/>
<text text-anchor="middle" x="334.5" y="-652" font-family="Courier New" font-size="10.00"> </text>
</a>
</g>
</g>
<!-- Node9&#45;&gt;Node8 -->
<g id="edge8" class="edge"><title>Node9&#45;&gt;Node8</title>
<path fill="none" stroke="#404040" d="M334.5,-644.759C334.5,-618.511 334.5,-577.35 334.5,-537.815"/>
<polygon fill="none" stroke="#404040" points="334.5,-537.615 330.5,-531.615 334.5,-525.615 338.5,-531.615 334.5,-537.615"/>
<text text-anchor="middle" x="389" y="-580" font-family="Courier New" font-size="10.00"> &#45;nodeFormatString</text>
<text text-anchor="middle" x="389" y="-569" font-family="Courier New" font-size="10.00">&#45;edgeFormatString</text>
<text text-anchor="middle" x="389" y="-558" font-family="Courier New" font-size="10.00">&#45;cellFormatString</text>
</g>
</g>
</svg>
