<?xml version="1.0" encoding="UTF-8" standalone="no"?>
<!DOCTYPE svg PUBLIC "-//W3C//DTD SVG 1.1//EN"
 "http://www.w3.org/Graphics/SVG/1.1/DTD/svg11.dtd">
<!-- Generated by graphviz version 2.38.0 (20140413.2041)
 -->
<!-- Title: C2M2.Visualization.VR.VRDeviceManager Pages: 1 -->
<svg width="205pt" height="215pt"
 viewBox="0.00 0.00 205.00 215.00" xmlns="http://www.w3.org/2000/svg" xmlns:xlink="http://www.w3.org/1999/xlink">
<g id="graph0" class="graph" transform="scale(1 1) rotate(0) translate(4 211)">
<title>C2M2.Visualization.VR.VRDeviceManager</title>
<polygon fill="white" stroke="none" points="-4,4 -4,-211 201,-211 201,4 -4,4"/>
<!-- Node1 -->
<g id="node1" class="node"><title>Node1</title>
<g id="a_node1"><a xlink:title="Make sure that a VR device is loaded before using OVRPlayerController. If none is loaded,...">
<polygon fill="#bfbfbf" stroke="black" points="0,-0.5 0,-112.5 197,-112.5 197,-0.5 0,-0.5"/>
<text text-anchor="start" x="8" y="-100.5" font-family="Courier New" font-size="10.00">C2M2.Visualization.VR.VRDevice</text>
<text text-anchor="middle" x="98.5" y="-89.5" font-family="Courier New" font-size="10.00">Manager</text>
<polyline fill="none" stroke="black" points="0,-82.5 197,-82.5 "/>
<text text-anchor="start" x="8" y="-70.5" font-family="Courier New" font-size="10.00">+ fpsOverlay</text>
<text text-anchor="start" x="8" y="-59.5" font-family="Courier New" font-size="10.00">+ fpsTVScreen</text>
<text text-anchor="start" x="8" y="-48.5" font-family="Courier New" font-size="10.00">&#45; emulator</text>
<text text-anchor="start" x="8" y="-37.5" font-family="Courier New" font-size="10.00">&#45; signaler</text>
<text text-anchor="start" x="8" y="-26.5" font-family="Courier New" font-size="10.00">&#45; playerController</text>
<polyline fill="none" stroke="black" points="0,-19.5 197,-19.5 "/>
<text text-anchor="start" x="8" y="-7.5" font-family="Courier New" font-size="10.00">&#45; Update()</text>
</a>
</g>
</g>
<!-- Node2 -->
<g id="node2" class="node"><title>Node2</title>
<g id="a_node2"><a xlink:title=" ">
<polygon fill="white" stroke="#bfbfbf" points="51,-149.5 51,-206.5 146,-206.5 146,-149.5 51,-149.5"/>
<text text-anchor="middle" x="98.5" y="-194.5" font-family="Courier New" font-size="10.00">MonoBehaviour</text>
<polyline fill="none" stroke="#bfbfbf" points="51,-187.5 146,-187.5 "/>
<text text-anchor="middle" x="98.5" y="-175.5" font-family="Courier New" font-size="10.00"> </text>
<polyline fill="none" stroke="#bfbfbf" points="51,-168.5 146,-168.5 "/>
<text text-anchor="middle" x="98.5" y="-156.5" font-family="Courier New" font-size="10.00"> </text>
</a>
</g>
</g>
<!-- Node2&#45;&gt;Node1 -->
<g id="edge1" class="edge"><title>Node2&#45;&gt;Node1</title>
<path fill="none" stroke="midnightblue" d="M98.5,-139.108C98.5,-130.748 98.5,-121.725 98.5,-112.834"/>
<polygon fill="none" stroke="midnightblue" points="95.0001,-139.284 98.5,-149.284 102,-139.284 95.0001,-139.284"/>
</g>
</g>
</svg>
