<?xml version="1.0" encoding="UTF-8" standalone="no"?>
<!DOCTYPE svg PUBLIC "-//W3C//DTD SVG 1.1//EN"
 "http://www.w3.org/Graphics/SVG/1.1/DTD/svg11.dtd">
<!-- Generated by graphviz version 2.38.0 (20140413.2041)
 -->
<!-- Title: C2M2.Simulation.SurfaceSimulation Pages: 1 -->
<svg width="378pt" height="519pt"
 viewBox="0.00 0.00 378.00 519.00" xmlns="http://www.w3.org/2000/svg" xmlns:xlink="http://www.w3.org/1999/xlink">
<g id="graph0" class="graph" transform="scale(1 1) rotate(0) translate(4 515)">
<title>C2M2.Simulation.SurfaceSimulation</title>
<polygon fill="white" stroke="none" points="-4,4 -4,-515 374,-515 374,4 -4,4"/>
<!-- Node1 -->
<g id="node1" class="node"><title>Node1</title>
<g id="a_node1"><a xlink:title="Simulation of type double[] for visualizing scalar fields on mesh surfaces">
<polygon fill="#bfbfbf" stroke="black" points="26,-0.5 26,-134.5 241,-134.5 241,-0.5 26,-0.5"/>
<text text-anchor="middle" x="133.5" y="-122.5" font-family="Courier New" font-size="10.00">C2M2.Simulation.SurfaceSimulation</text>
<polyline fill="none" stroke="black" points="26,-115.5 241,-115.5 "/>
<text text-anchor="start" x="34" y="-103.5" font-family="Courier New" font-size="10.00">+ gradient</text>
<text text-anchor="start" x="34" y="-92.5" font-family="Courier New" font-size="10.00">+ globalMax</text>
<text text-anchor="start" x="34" y="-81.5" font-family="Courier New" font-size="10.00">+ globalMin</text>
<text text-anchor="start" x="34" y="-70.5" font-family="Courier New" font-size="10.00">+ colorLUT</text>
<text text-anchor="start" x="34" y="-59.5" font-family="Courier New" font-size="10.00">&#45; mf</text>
<text text-anchor="start" x="34" y="-48.5" font-family="Courier New" font-size="10.00">&#45; mr</text>
<polyline fill="none" stroke="black" points="26,-41.5 241,-41.5 "/>
<text text-anchor="start" x="34" y="-29.5" font-family="Courier New" font-size="10.00"># UpdateVisualization()</text>
<text text-anchor="start" x="34" y="-18.5" font-family="Courier New" font-size="10.00"># OnAwake()</text>
<text text-anchor="start" x="34" y="-7.5" font-family="Courier New" font-size="10.00">&#45; UpdateVisualization()</text>
</a>
</g>
</g>
<!-- Node2 -->
<g id="node2" class="node"><title>Node2</title>
<g id="a_node2"><a xlink:href="../../db/d39/class_c2_m2_1_1_simulation_1_1_simulation.html" target="_top" xlink:title=" ">
<polygon fill="white" stroke="black" points="0,-182.5 0,-415.5 155,-415.5 155,-182.5 0,-182.5"/>
<text text-anchor="start" x="8" y="-403.5" font-family="Courier New" font-size="10.00">Simulation&lt; double</text>
<text text-anchor="middle" x="77.5" y="-392.5" font-family="Courier New" font-size="10.00">[], Mesh &gt;</text>
<polyline fill="none" stroke="black" points="0,-385.5 155,-385.5 "/>
<text text-anchor="start" x="8" y="-373.5" font-family="Courier New" font-size="10.00">+ startOnAwake</text>
<text text-anchor="start" x="8" y="-362.5" font-family="Courier New" font-size="10.00"># mutex</text>
<text text-anchor="start" x="8" y="-351.5" font-family="Courier New" font-size="10.00">&#45; solveThread</text>
<polyline fill="none" stroke="black" points="0,-344.5 155,-344.5 "/>
<text text-anchor="start" x="8" y="-332.5" font-family="Courier New" font-size="10.00">+ GetValues()</text>
<text text-anchor="start" x="8" y="-321.5" font-family="Courier New" font-size="10.00">+ StartSimulation()</text>
<text text-anchor="start" x="8" y="-310.5" font-family="Courier New" font-size="10.00">+ StopSimulation()</text>
<text text-anchor="start" x="8" y="-299.5" font-family="Courier New" font-size="10.00">+ Awake()</text>
<text text-anchor="start" x="8" y="-288.5" font-family="Courier New" font-size="10.00">+ Start()</text>
<text text-anchor="start" x="8" y="-277.5" font-family="Courier New" font-size="10.00">+ Update()</text>
<text text-anchor="start" x="8" y="-266.5" font-family="Courier New" font-size="10.00"># BuildVisualization()</text>
<text text-anchor="start" x="8" y="-255.5" font-family="Courier New" font-size="10.00"># UpdateVisualization()</text>
<text text-anchor="start" x="8" y="-244.5" font-family="Courier New" font-size="10.00"># Solve()</text>
<text text-anchor="start" x="8" y="-233.5" font-family="Courier New" font-size="10.00"># OnAwake()</text>
<text text-anchor="start" x="8" y="-222.5" font-family="Courier New" font-size="10.00"># OnStart()</text>
<text text-anchor="start" x="8" y="-211.5" font-family="Courier New" font-size="10.00"># OnUpdate()</text>
<text text-anchor="start" x="8" y="-200.5" font-family="Courier New" font-size="10.00">&#45; OnApplicationPause()</text>
<text text-anchor="start" x="8" y="-189.5" font-family="Courier New" font-size="10.00">&#45; OnApplicationQuit()</text>
</a>
</g>
</g>
<!-- Node2&#45;&gt;Node1 -->
<g id="edge1" class="edge"><title>Node2&#45;&gt;Node1</title>
<path fill="none" stroke="midnightblue" d="M108.178,-172.277C111.349,-159.28 114.474,-146.473 117.388,-134.53"/>
<polygon fill="none" stroke="midnightblue" points="104.716,-171.697 105.746,-182.241 111.517,-173.356 104.716,-171.697"/>
</g>
<!-- Node3 -->
<g id="node3" class="node"><title>Node3</title>
<g id="a_node3"><a xlink:href="../../da/d4f/class_c2_m2_1_1_visualization_1_1_l_u_t_gradient.html" target="_top" xlink:title="Create a fast and memory&#45;friendly color lookup table from a gradient">
<polygon fill="white" stroke="black" points="173,-215.5 173,-382.5 370,-382.5 370,-215.5 173,-215.5"/>
<text text-anchor="middle" x="271.5" y="-370.5" font-family="Courier New" font-size="10.00">C2M2.Visualization.LUTGradient</text>
<polyline fill="none" stroke="black" points="173,-363.5 370,-363.5 "/>
<text text-anchor="start" x="181" y="-351.5" font-family="Courier New" font-size="10.00">+ extremaMethod</text>
<text text-anchor="start" x="181" y="-340.5" font-family="Courier New" font-size="10.00">+ globalMax</text>
<text text-anchor="start" x="181" y="-329.5" font-family="Courier New" font-size="10.00">+ globalMin</text>
<text text-anchor="start" x="181" y="-318.5" font-family="Courier New" font-size="10.00">+ LutRes</text>
<text text-anchor="start" x="181" y="-307.5" font-family="Courier New" font-size="10.00">+ Gradient</text>
<text text-anchor="start" x="181" y="-296.5" font-family="Courier New" font-size="10.00">+ gradientLUT</text>
<text text-anchor="start" x="181" y="-285.5" font-family="Courier New" font-size="10.00">&#45; lutRes</text>
<text text-anchor="start" x="181" y="-274.5" font-family="Courier New" font-size="10.00">&#45; gradient</text>
<polyline fill="none" stroke="black" points="173,-267.5 370,-267.5 "/>
<text text-anchor="start" x="181" y="-255.5" font-family="Courier New" font-size="10.00">+ Evaluate()</text>
<text text-anchor="start" x="181" y="-244.5" font-family="Courier New" font-size="10.00">+ Evaluate()</text>
<text text-anchor="start" x="181" y="-233.5" font-family="Courier New" font-size="10.00">&#45; BuildLUT()</text>
<text text-anchor="start" x="181" y="-222.5" font-family="Courier New" font-size="10.00">&#45; RescaleArray()</text>
</a>
</g>
</g>
<!-- Node3&#45;&gt;Node1 -->
<g id="edge2" class="edge"><title>Node3&#45;&gt;Node1</title>
<path fill="none" stroke="#404040" d="M221.874,-215.469C208.065,-192.505 193.13,-167.668 179.537,-145.062"/>
<polygon fill="none" stroke="#404040" points="179.374,-144.79 172.854,-141.71 173.19,-134.506 179.71,-137.587 179.374,-144.79"/>
<text text-anchor="middle" x="235" y="-156" font-family="Courier New" font-size="10.00"> +extremaMethod</text>
</g>
<!-- Node4 -->
<g id="node4" class="node"><title>Node4</title>
<g id="a_node4"><a xlink:title=" ">
<polygon fill="white" stroke="#bfbfbf" points="224,-453.5 224,-510.5 319,-510.5 319,-453.5 224,-453.5"/>
<text text-anchor="middle" x="271.5" y="-498.5" font-family="Courier New" font-size="10.00">MonoBehaviour</text>
<polyline fill="none" stroke="#bfbfbf" points="224,-491.5 319,-491.5 "/>
<text text-anchor="middle" x="271.5" y="-479.5" font-family="Courier New" font-size="10.00"> </text>
<polyline fill="none" stroke="#bfbfbf" points="224,-472.5 319,-472.5 "/>
<text text-anchor="middle" x="271.5" y="-460.5" font-family="Courier New" font-size="10.00"> </text>
</a>
</g>
</g>
<!-- Node4&#45;&gt;Node3 -->
<g id="edge3" class="edge"><title>Node4&#45;&gt;Node3</title>
<path fill="none" stroke="midnightblue" d="M271.5,-442.754C271.5,-425.221 271.5,-403.709 271.5,-382.754"/>
<polygon fill="none" stroke="midnightblue" points="268,-443.115 271.5,-453.115 275,-443.115 268,-443.115"/>
</g>
</g>
</svg>
