<?xml version="1.0" encoding="UTF-8" standalone="no"?>
<!DOCTYPE svg PUBLIC "-//W3C//DTD SVG 1.1//EN"
 "http://www.w3.org/Graphics/SVG/1.1/DTD/svg11.dtd">
<!-- Generated by graphviz version 2.38.0 (20140413.2041)
 -->
<!-- Title: C2M2.NeuronalDynamics.Simulation.CellSolver2SimpleDiffusion Pages: 1 -->
<svg width="912pt" height="1414pt"
 viewBox="0.00 0.00 911.50 1414.00" xmlns="http://www.w3.org/2000/svg" xmlns:xlink="http://www.w3.org/1999/xlink">
<g id="graph0" class="graph" transform="scale(1 1) rotate(0) translate(4 1410)">
<title>C2M2.NeuronalDynamics.Simulation.CellSolver2SimpleDiffusion</title>
<polygon fill="white" stroke="none" points="-4,4 -4,-1410 907.5,-1410 907.5,4 -4,4"/>
<!-- Node1 -->
<g id="node1" class="node"><title>Node1</title>
<g id="a_node1"><a xlink:title=" ">
<polygon fill="#bfbfbf" stroke="black" points="573,-0.5 573,-310.5 788,-310.5 788,-0.5 573,-0.5"/>
<text text-anchor="start" x="581" y="-298.5" font-family="Courier New" font-size="10.00">C2M2.NeuronalDynamics.Simulation.</text>
<text text-anchor="middle" x="680.5" y="-287.5" font-family="Courier New" font-size="10.00">CellSolver2SimpleDiffusion</text>
<polyline fill="none" stroke="black" points="573,-280.5 788,-280.5 "/>
<text text-anchor="start" x="581" y="-268.5" font-family="Courier New" font-size="10.00">+ res</text>
<text text-anchor="start" x="581" y="-257.5" font-family="Courier New" font-size="10.00">+ gk</text>
<text text-anchor="start" x="581" y="-246.5" font-family="Courier New" font-size="10.00">+ gna</text>
<text text-anchor="start" x="581" y="-235.5" font-family="Courier New" font-size="10.00">+ gl</text>
<text text-anchor="start" x="581" y="-224.5" font-family="Courier New" font-size="10.00">+ ek</text>
<text text-anchor="start" x="581" y="-213.5" font-family="Courier New" font-size="10.00">+ ena</text>
<text text-anchor="start" x="581" y="-202.5" font-family="Courier New" font-size="10.00">+ el</text>
<text text-anchor="start" x="581" y="-191.5" font-family="Courier New" font-size="10.00">+ cap</text>
<text text-anchor="start" x="581" y="-180.5" font-family="Courier New" font-size="10.00">+ ni</text>
<text text-anchor="start" x="581" y="-169.5" font-family="Courier New" font-size="10.00">+ nT</text>
<text text-anchor="start" x="581" y="-158.5" font-family="Courier New" font-size="10.00">+ endTime</text>
<text text-anchor="start" x="581" y="-147.5" font-family="Courier New" font-size="10.00">+ vstart</text>
<text text-anchor="start" x="581" y="-136.5" font-family="Courier New" font-size="10.00">&#45; U</text>
<text text-anchor="start" x="581" y="-125.5" font-family="Courier New" font-size="10.00">&#45; i</text>
<text text-anchor="start" x="581" y="-114.5" font-family="Courier New" font-size="10.00">&#45; mi</text>
<text text-anchor="start" x="581" y="-103.5" font-family="Courier New" font-size="10.00">&#45; hi</text>
<polyline fill="none" stroke="black" points="573,-96.5 788,-96.5 "/>
<text text-anchor="start" x="581" y="-84.5" font-family="Courier New" font-size="10.00">+ initialConditions()</text>
<text text-anchor="start" x="581" y="-73.5" font-family="Courier New" font-size="10.00">+ boundaryConditions()</text>
<text text-anchor="start" x="581" y="-62.5" font-family="Courier New" font-size="10.00">+ setBC()</text>
<text text-anchor="start" x="581" y="-51.5" font-family="Courier New" font-size="10.00">+ updateBC()</text>
<text text-anchor="start" x="581" y="-40.5" font-family="Courier New" font-size="10.00"># SetNeuronCell()</text>
<text text-anchor="start" x="581" y="-29.5" font-family="Courier New" font-size="10.00"># Get1DValues()</text>
<text text-anchor="start" x="581" y="-18.5" font-family="Courier New" font-size="10.00"># Set1DValues()</text>
<text text-anchor="start" x="581" y="-7.5" font-family="Courier New" font-size="10.00"># Solve()</text>
</a>
</g>
</g>
<!-- Node2 -->
<g id="node2" class="node"><title>Node2</title>
<g id="a_node2"><a xlink:href="../../d4/d5a/class_c2_m2_1_1_neuronal_dynamics_1_1_simulation_1_1_neuron_simulation1_d.html" target="_top" xlink:title="Provide an interface for 1D neuron&#45;surface simulations to be visualized and interacted with">
<polygon fill="white" stroke="black" points="475,-358.5 475,-690.5 624,-690.5 624,-358.5 475,-358.5"/>
<text text-anchor="middle" x="549.5" y="-678.5" font-family="Courier New" font-size="10.00">NeuronSimulation1D</text>
<polyline fill="none" stroke="black" points="475,-671.5 624,-671.5 "/>
<text text-anchor="start" x="483" y="-659.5" font-family="Courier New" font-size="10.00">+ refinementLevel</text>
<text text-anchor="start" x="483" y="-648.5" font-family="Courier New" font-size="10.00">+ cell1xPath</text>
<text text-anchor="start" x="483" y="-637.5" font-family="Courier New" font-size="10.00">+ cell2xPath</text>
<text text-anchor="start" x="483" y="-626.5" font-family="Courier New" font-size="10.00">+ cell3xPath</text>
<text text-anchor="start" x="483" y="-615.5" font-family="Courier New" font-size="10.00">+ cell4xPath</text>
<text text-anchor="start" x="483" y="-604.5" font-family="Courier New" font-size="10.00">+ cell5xPath</text>
<text text-anchor="start" x="483" y="-593.5" font-family="Courier New" font-size="10.00">+ visualize1D</text>
<text text-anchor="start" x="483" y="-582.5" font-family="Courier New" font-size="10.00">+ color1D</text>
<text text-anchor="start" x="483" y="-571.5" font-family="Courier New" font-size="10.00">+ lineWidth1D</text>
<text text-anchor="start" x="483" y="-560.5" font-family="Courier New" font-size="10.00">&#45; meshScale</text>
<text text-anchor="start" x="483" y="-549.5" font-family="Courier New" font-size="10.00">&#45; meshColScale</text>
<text text-anchor="start" x="483" y="-538.5" font-family="Courier New" font-size="10.00">&#45; map</text>
<text text-anchor="start" x="483" y="-527.5" font-family="Courier New" font-size="10.00">&#45; scaledMeshes</text>
<polyline fill="none" stroke="black" points="475,-520.5 624,-520.5 "/>
<text text-anchor="start" x="483" y="-508.5" font-family="Courier New" font-size="10.00">+ GetValues()</text>
<text text-anchor="start" x="483" y="-497.5" font-family="Courier New" font-size="10.00">+ SetValues()</text>
<text text-anchor="start" x="483" y="-486.5" font-family="Courier New" font-size="10.00">+ RescaleMesh()</text>
<text text-anchor="start" x="483" y="-475.5" font-family="Courier New" font-size="10.00">+ SwitchColliderMesh()</text>
<text text-anchor="start" x="483" y="-464.5" font-family="Courier New" font-size="10.00">+ SwitchMesh()</text>
<text text-anchor="start" x="483" y="-453.5" font-family="Courier New" font-size="10.00"># Set1DValues()</text>
<text text-anchor="start" x="483" y="-442.5" font-family="Courier New" font-size="10.00"># Get1DValues()</text>
<text text-anchor="start" x="483" y="-431.5" font-family="Courier New" font-size="10.00"># SetNeuronCell()</text>
<text text-anchor="start" x="483" y="-420.5" font-family="Courier New" font-size="10.00"># ReadData()</text>
<text text-anchor="start" x="483" y="-409.5" font-family="Courier New" font-size="10.00"># BuildVisualization()</text>
<text text-anchor="start" x="483" y="-398.5" font-family="Courier New" font-size="10.00">&#45; BuildUI()</text>
<text text-anchor="start" x="483" y="-387.5" font-family="Courier New" font-size="10.00">&#45; Clean3DCell()</text>
<text text-anchor="start" x="483" y="-376.5" font-family="Courier New" font-size="10.00">&#45; BuildMesh()</text>
<text text-anchor="start" x="483" y="-365.5" font-family="Courier New" font-size="10.00">&#45; SwitchColliderMesh()</text>
</a>
</g>
</g>
<!-- Node2&#45;&gt;Node1 -->
<g id="edge1" class="edge"><title>Node2&#45;&gt;Node1</title>
<path fill="none" stroke="midnightblue" d="M611.947,-348.552C616.482,-335.849 621.036,-323.091 625.522,-310.522"/>
<polygon fill="none" stroke="midnightblue" points="608.551,-347.657 608.485,-358.251 615.143,-350.01 608.551,-347.657"/>
</g>
<!-- Node3 -->
<g id="node3" class="node"><title>Node3</title>
<g id="a_node3"><a xlink:href="../../d6/d2d/class_c2_m2_1_1_simulation_1_1_mesh_simulation.html" target="_top" xlink:title="Simulation of type double[] for visualizing scalar fields on mesh surfaces">
<polygon fill="white" stroke="black" points="171,-760.5 171,-905.5 326,-905.5 326,-760.5 171,-760.5"/>
<text text-anchor="middle" x="248.5" y="-893.5" font-family="Courier New" font-size="10.00">MeshSimulation</text>
<polyline fill="none" stroke="black" points="171,-886.5 326,-886.5 "/>
<text text-anchor="start" x="179" y="-874.5" font-family="Courier New" font-size="10.00">+ gradient</text>
<text text-anchor="start" x="179" y="-863.5" font-family="Courier New" font-size="10.00">+ globalMax</text>
<text text-anchor="start" x="179" y="-852.5" font-family="Courier New" font-size="10.00">+ globalMin</text>
<text text-anchor="start" x="179" y="-841.5" font-family="Courier New" font-size="10.00">+ colorLUT</text>
<text text-anchor="start" x="179" y="-830.5" font-family="Courier New" font-size="10.00"># colliderMesh</text>
<text text-anchor="start" x="179" y="-819.5" font-family="Courier New" font-size="10.00">&#45; mf</text>
<text text-anchor="start" x="179" y="-808.5" font-family="Courier New" font-size="10.00">&#45; mr</text>
<polyline fill="none" stroke="black" points="171,-801.5 326,-801.5 "/>
<text text-anchor="start" x="179" y="-789.5" font-family="Courier New" font-size="10.00"># UpdateVisualization()</text>
<text text-anchor="start" x="179" y="-778.5" font-family="Courier New" font-size="10.00"># OnAwake()</text>
<text text-anchor="start" x="179" y="-767.5" font-family="Courier New" font-size="10.00">&#45; UpdateVisualization()</text>
</a>
</g>
</g>
<!-- Node3&#45;&gt;Node2 -->
<g id="edge2" class="edge"><title>Node3&#45;&gt;Node2</title>
<path fill="none" stroke="midnightblue" d="M326.314,-752.764C372.098,-706.144 429.693,-647.496 474.906,-601.457"/>
<polygon fill="none" stroke="midnightblue" points="323.581,-750.552 319.071,-760.139 328.575,-755.457 323.581,-750.552"/>
</g>
<!-- Node4 -->
<g id="node4" class="node"><title>Node4</title>
<g id="a_node4"><a xlink:href="../../db/d39/class_c2_m2_1_1_simulation_1_1_simulation.html" target="_top" xlink:title=" ">
<polygon fill="white" stroke="black" points="0,-1033.5 0,-1310.5 185,-1310.5 185,-1033.5 0,-1033.5"/>
<text text-anchor="start" x="8" y="-1298.5" font-family="Courier New" font-size="10.00">Simulation&lt; double</text>
<text text-anchor="start" x="8" y="-1287.5" font-family="Courier New" font-size="10.00">[], Mesh, VRRaycastableMesh,</text>
<text text-anchor="middle" x="92.5" y="-1276.5" font-family="Courier New" font-size="10.00"> VRGrabbableMesh &gt;</text>
<polyline fill="none" stroke="black" points="0,-1269.5 185,-1269.5 "/>
<text text-anchor="start" x="8" y="-1257.5" font-family="Courier New" font-size="10.00">+ dryRun</text>
<text text-anchor="start" x="8" y="-1246.5" font-family="Courier New" font-size="10.00">+ startOnAwake</text>
<text text-anchor="start" x="8" y="-1235.5" font-family="Courier New" font-size="10.00">+ viz</text>
<text text-anchor="start" x="8" y="-1224.5" font-family="Courier New" font-size="10.00"># mutex</text>
<text text-anchor="start" x="8" y="-1213.5" font-family="Courier New" font-size="10.00">&#45; solveThread</text>
<polyline fill="none" stroke="black" points="0,-1206.5 185,-1206.5 "/>
<text text-anchor="start" x="8" y="-1194.5" font-family="Courier New" font-size="10.00">+ GetValues()</text>
<text text-anchor="start" x="8" y="-1183.5" font-family="Courier New" font-size="10.00">+ StartSimulation()</text>
<text text-anchor="start" x="8" y="-1172.5" font-family="Courier New" font-size="10.00">+ StopSimulation()</text>
<text text-anchor="start" x="8" y="-1161.5" font-family="Courier New" font-size="10.00">+ Awake()</text>
<text text-anchor="start" x="8" y="-1150.5" font-family="Courier New" font-size="10.00">+ Start()</text>
<text text-anchor="start" x="8" y="-1139.5" font-family="Courier New" font-size="10.00">+ Update()</text>
<text text-anchor="start" x="8" y="-1128.5" font-family="Courier New" font-size="10.00"># BuildVisualization()</text>
<text text-anchor="start" x="8" y="-1117.5" font-family="Courier New" font-size="10.00"># ReadData()</text>
<text text-anchor="start" x="8" y="-1106.5" font-family="Courier New" font-size="10.00"># UpdateVisualization()</text>
<text text-anchor="start" x="8" y="-1095.5" font-family="Courier New" font-size="10.00"># Solve()</text>
<text text-anchor="start" x="8" y="-1084.5" font-family="Courier New" font-size="10.00"># OnAwake()</text>
<text text-anchor="start" x="8" y="-1073.5" font-family="Courier New" font-size="10.00"># OnStart()</text>
<text text-anchor="start" x="8" y="-1062.5" font-family="Courier New" font-size="10.00"># OnUpdate()</text>
<text text-anchor="start" x="8" y="-1051.5" font-family="Courier New" font-size="10.00">&#45; OnApplicationPause()</text>
<text text-anchor="start" x="8" y="-1040.5" font-family="Courier New" font-size="10.00">&#45; OnApplicationQuit()</text>
</a>
</g>
</g>
<!-- Node4&#45;&gt;Node3 -->
<g id="edge3" class="edge"><title>Node4&#45;&gt;Node3</title>
<path fill="none" stroke="midnightblue" d="M160.477,-1024.15C179.502,-983.053 199.337,-940.206 215.35,-905.612"/>
<polygon fill="none" stroke="midnightblue" points="157.201,-1022.9 156.176,-1033.44 163.553,-1025.84 157.201,-1022.9"/>
</g>
<!-- Node5 -->
<g id="node5" class="node"><title>Node5</title>
<g id="a_node5"><a xlink:href="../../da/d4f/class_c2_m2_1_1_visualization_1_1_l_u_t_gradient.html" target="_top" xlink:title="Create a fast and memory&#45;friendly color lookup table from a gradient">
<polygon fill="white" stroke="black" points="203,-1088.5 203,-1255.5 400,-1255.5 400,-1088.5 203,-1088.5"/>
<text text-anchor="middle" x="301.5" y="-1243.5" font-family="Courier New" font-size="10.00">C2M2.Visualization.LUTGradient</text>
<polyline fill="none" stroke="black" points="203,-1236.5 400,-1236.5 "/>
<text text-anchor="start" x="211" y="-1224.5" font-family="Courier New" font-size="10.00">+ extremaMethod</text>
<text text-anchor="start" x="211" y="-1213.5" font-family="Courier New" font-size="10.00">+ globalMax</text>
<text text-anchor="start" x="211" y="-1202.5" font-family="Courier New" font-size="10.00">+ globalMin</text>
<text text-anchor="start" x="211" y="-1191.5" font-family="Courier New" font-size="10.00">+ LutRes</text>
<text text-anchor="start" x="211" y="-1180.5" font-family="Courier New" font-size="10.00">+ Gradient</text>
<text text-anchor="start" x="211" y="-1169.5" font-family="Courier New" font-size="10.00">+ gradientLUT</text>
<text text-anchor="start" x="211" y="-1158.5" font-family="Courier New" font-size="10.00">&#45; lutRes</text>
<text text-anchor="start" x="211" y="-1147.5" font-family="Courier New" font-size="10.00">&#45; gradient</text>
<polyline fill="none" stroke="black" points="203,-1140.5 400,-1140.5 "/>
<text text-anchor="start" x="211" y="-1128.5" font-family="Courier New" font-size="10.00">+ Evaluate()</text>
<text text-anchor="start" x="211" y="-1117.5" font-family="Courier New" font-size="10.00">+ Evaluate()</text>
<text text-anchor="start" x="211" y="-1106.5" font-family="Courier New" font-size="10.00">&#45; BuildLUT()</text>
<text text-anchor="start" x="211" y="-1095.5" font-family="Courier New" font-size="10.00">&#45; RescaleArray()</text>
</a>
</g>
</g>
<!-- Node5&#45;&gt;Node3 -->
<g id="edge4" class="edge"><title>Node5&#45;&gt;Node3</title>
<path fill="none" stroke="#404040" d="M265.193,-1088.29C256.672,-1065.04 248.821,-1039.42 244.5,-1015 237.452,-975.174 243.602,-964.434 244.5,-924 244.545,-921.957 244.597,-919.889 244.653,-917.803"/>
<polygon fill="none" stroke="#404040" points="244.656,-917.707 240.842,-911.587 245.025,-905.713 248.839,-911.834 244.656,-917.707"/>
<text text-anchor="middle" x="290" y="-967" font-family="Courier New" font-size="10.00"> +extremaMethod</text>
</g>
<!-- Node6 -->
<g id="node6" class="node"><title>Node6</title>
<g id="a_node6"><a xlink:title=" ">
<polygon fill="white" stroke="#bfbfbf" points="343,-1348.5 343,-1405.5 438,-1405.5 438,-1348.5 343,-1348.5"/>
<text text-anchor="middle" x="390.5" y="-1393.5" font-family="Courier New" font-size="10.00">MonoBehaviour</text>
<polyline fill="none" stroke="#bfbfbf" points="343,-1386.5 438,-1386.5 "/>
<text text-anchor="middle" x="390.5" y="-1374.5" font-family="Courier New" font-size="10.00"> </text>
<polyline fill="none" stroke="#bfbfbf" points="343,-1367.5 438,-1367.5 "/>
<text text-anchor="middle" x="390.5" y="-1355.5" font-family="Courier New" font-size="10.00"> </text>
</a>
</g>
</g>
<!-- Node6&#45;&gt;Node5 -->
<g id="edge5" class="edge"><title>Node6&#45;&gt;Node5</title>
<path fill="none" stroke="midnightblue" d="M374.29,-1339.03C364.064,-1315.7 350.434,-1284.61 337.734,-1255.65"/>
<polygon fill="none" stroke="midnightblue" points="371.091,-1340.45 378.312,-1348.2 377.502,-1337.64 371.091,-1340.45"/>
</g>
<!-- Node9 -->
<g id="node9" class="node"><title>Node9</title>
<g id="a_node9"><a xlink:href="../../dc/d72/class_c2_m2_1_1_utils_1_1_mesh_utils_1_1_mesh_col_controller.html" target="_top" xlink:title="Set this.mesh to quickly look up and update a MeshCollider&#39;s mesh">
<polygon fill="white" stroke="black" points="345,-924.5 345,-1014.5 512,-1014.5 512,-924.5 345,-924.5"/>
<text text-anchor="start" x="353" y="-1002.5" font-family="Courier New" font-size="10.00">C2M2.Utils.MeshUtils.Mesh</text>
<text text-anchor="middle" x="428.5" y="-991.5" font-family="Courier New" font-size="10.00">ColController</text>
<polyline fill="none" stroke="black" points="345,-984.5 512,-984.5 "/>
<text text-anchor="start" x="353" y="-972.5" font-family="Courier New" font-size="10.00">+ meshCol</text>
<text text-anchor="start" x="353" y="-961.5" font-family="Courier New" font-size="10.00">+ Mesh</text>
<text text-anchor="start" x="353" y="-950.5" font-family="Courier New" font-size="10.00">&#45; mesh</text>
<polyline fill="none" stroke="black" points="345,-943.5 512,-943.5 "/>
<text text-anchor="middle" x="428.5" y="-931.5" font-family="Courier New" font-size="10.00"> </text>
</a>
</g>
</g>
<!-- Node6&#45;&gt;Node9 -->
<g id="edge9" class="edge"><title>Node6&#45;&gt;Node9</title>
<path fill="none" stroke="midnightblue" d="M402.294,-1338.65C404.723,-1329.68 406.996,-1320.06 408.5,-1311 425.97,-1205.7 428.754,-1079.88 428.872,-1014.64"/>
<polygon fill="none" stroke="midnightblue" points="398.876,-1337.88 399.517,-1348.45 405.611,-1339.79 398.876,-1337.88"/>
</g>
<!-- Node7 -->
<g id="node7" class="node"><title>Node7</title>
<g id="a_node7"><a xlink:title=" ">
<polygon fill="white" stroke="#bfbfbf" points="529,-804.5 529,-861.5 570,-861.5 570,-804.5 529,-804.5"/>
<text text-anchor="middle" x="549.5" y="-849.5" font-family="Courier New" font-size="10.00">C2M2</text>
<polyline fill="none" stroke="#bfbfbf" points="529,-842.5 570,-842.5 "/>
<text text-anchor="middle" x="549.5" y="-830.5" font-family="Courier New" font-size="10.00"> </text>
<polyline fill="none" stroke="#bfbfbf" points="529,-823.5 570,-823.5 "/>
<text text-anchor="middle" x="549.5" y="-811.5" font-family="Courier New" font-size="10.00"> </text>
</a>
</g>
</g>
<!-- Node7&#45;&gt;Node2 -->
<g id="edge6" class="edge"><title>Node7&#45;&gt;Node2</title>
<path fill="none" stroke="#404040" d="M549.5,-804.26C549.5,-779.969 549.5,-742.425 549.5,-702.68"/>
<polygon fill="none" stroke="#404040" points="549.5,-702.572 545.5,-696.572 549.5,-690.572 553.5,-696.572 549.5,-702.572"/>
<text text-anchor="middle" x="574" y="-723" font-family="Courier New" font-size="10.00"> #grid1D</text>
</g>
<!-- Node8 -->
<g id="node8" class="node"><title>Node8</title>
<g id="a_node8"><a xlink:href="../../dd/d2a/struct_c2_m2_1_1_neuronal_dynamics_1_1_u_g_x_1_1_mapping_info.html" target="_top" xlink:title="Encapsulates the grids and mapping data">
<polygon fill="white" stroke="black" points="588,-788 588,-878 761,-878 761,-788 588,-788"/>
<text text-anchor="start" x="596" y="-866" font-family="Courier New" font-size="10.00">C2M2.NeuronalDynamics.UGX.</text>
<text text-anchor="middle" x="674.5" y="-855" font-family="Courier New" font-size="10.00">MappingInfo</text>
<polyline fill="none" stroke="black" points="588,-848 761,-848 "/>
<text text-anchor="start" x="596" y="-836" font-family="Courier New" font-size="10.00">+ ModelGeometry</text>
<text text-anchor="start" x="596" y="-825" font-family="Courier New" font-size="10.00">+ SurfaceGeometry</text>
<text text-anchor="start" x="596" y="-814" font-family="Courier New" font-size="10.00">+ Data</text>
<polyline fill="none" stroke="black" points="588,-807 761,-807 "/>
<text text-anchor="start" x="596" y="-795" font-family="Courier New" font-size="10.00">+ MappingInfo()</text>
</a>
</g>
</g>
<!-- Node8&#45;&gt;Node2 -->
<g id="edge7" class="edge"><title>Node8&#45;&gt;Node2</title>
<path fill="none" stroke="#404040" d="M656.457,-787.76C646.902,-764.329 634.471,-733.85 621.481,-701.998"/>
<polygon fill="none" stroke="#404040" points="621.399,-701.796 615.429,-697.751 616.867,-690.684 622.837,-694.73 621.399,-701.796"/>
<text text-anchor="middle" x="666" y="-723" font-family="Courier New" font-size="10.00"> &#45;mapping</text>
</g>
<!-- Node9&#45;&gt;Node2 -->
<g id="edge8" class="edge"><title>Node9&#45;&gt;Node2</title>
<path fill="none" stroke="#404040" d="M409.279,-924.353C407.31,-918.285 405.623,-912.057 404.5,-906 392.671,-842.198 386.761,-822.417 404.5,-760 417.563,-714.036 442.488,-668.26 468.036,-629.516"/>
<polygon fill="none" stroke="#404040" points="468.204,-629.265 468.227,-622.054 474.892,-619.302 474.869,-626.513 468.204,-629.265"/>
<text text-anchor="middle" x="462" y="-830.5" font-family="Courier New" font-size="10.00"> &#45;meshColController</text>
</g>
<!-- Node10 -->
<g id="node10" class="node"><title>Node10</title>
<g id="a_node10"><a xlink:href="../../da/df6/class_c2_m2_1_1_neuronal_dynamics_1_1_u_g_x_1_1_neuron_cell.html" target="_top" xlink:title=" ">
<polygon fill="white" stroke="black" points="680,-424.5 680,-624.5 853,-624.5 853,-424.5 680,-424.5"/>
<text text-anchor="start" x="688" y="-612.5" font-family="Courier New" font-size="10.00">C2M2.NeuronalDynamics.UGX.</text>
<text text-anchor="middle" x="766.5" y="-601.5" font-family="Courier New" font-size="10.00">NeuronCell</text>
<polyline fill="none" stroke="black" points="680,-594.5 853,-594.5 "/>
<text text-anchor="start" x="688" y="-582.5" font-family="Courier New" font-size="10.00">+ nodeData</text>
<text text-anchor="start" x="688" y="-571.5" font-family="Courier New" font-size="10.00">+ edges</text>
<text text-anchor="start" x="688" y="-560.5" font-family="Courier New" font-size="10.00">+ edgeLengths</text>
<text text-anchor="start" x="688" y="-549.5" font-family="Courier New" font-size="10.00">+ boundaryID</text>
<text text-anchor="start" x="688" y="-538.5" font-family="Courier New" font-size="10.00">+ somaID</text>
<text text-anchor="start" x="688" y="-527.5" font-family="Courier New" font-size="10.00">+ vertCount</text>
<text text-anchor="start" x="688" y="-516.5" font-family="Courier New" font-size="10.00">+ edgeCount</text>
<polyline fill="none" stroke="black" points="680,-509.5 853,-509.5 "/>
<text text-anchor="start" x="688" y="-497.5" font-family="Courier New" font-size="10.00">+ NeuronCell()</text>
<text text-anchor="start" x="688" y="-486.5" font-family="Courier New" font-size="10.00">+ ReadDataTable()</text>
<text text-anchor="start" x="688" y="-475.5" font-family="Courier New" font-size="10.00">+ NodeToString()</text>
<text text-anchor="start" x="688" y="-464.5" font-family="Courier New" font-size="10.00">+ EdgeToString()</text>
<text text-anchor="start" x="688" y="-453.5" font-family="Courier New" font-size="10.00">+ ToString()</text>
<text text-anchor="start" x="688" y="-442.5" font-family="Courier New" font-size="10.00">&#45; NodeNeighborsToString()</text>
<text text-anchor="start" x="688" y="-431.5" font-family="Courier New" font-size="10.00">&#45; GetEdgeLength()</text>
</a>
</g>
</g>
<!-- Node10&#45;&gt;Node1 -->
<g id="edge10" class="edge"><title>Node10&#45;&gt;Node1</title>
<path fill="none" stroke="#404040" d="M743.227,-424.185C735.875,-392.811 727.541,-357.245 719.404,-322.522"/>
<polygon fill="none" stroke="#404040" points="719.392,-322.469 714.129,-317.54 716.654,-310.786 721.918,-315.715 719.392,-322.469"/>
<text text-anchor="middle" x="748" y="-332" font-family="Courier New" font-size="10.00"> &#45;myCell</text>
</g>
<!-- Node11 -->
<g id="node11" class="node"><title>Node11</title>
<g id="a_node11"><a xlink:title=" ">
<polygon fill="white" stroke="#bfbfbf" points="779,-804.5 779,-861.5 832,-861.5 832,-804.5 779,-804.5"/>
<text text-anchor="middle" x="805.5" y="-849.5" font-family="Courier New" font-size="10.00">static</text>
<polyline fill="none" stroke="#bfbfbf" points="779,-842.5 832,-842.5 "/>
<text text-anchor="middle" x="805.5" y="-830.5" font-family="Courier New" font-size="10.00"> </text>
<polyline fill="none" stroke="#bfbfbf" points="779,-823.5 832,-823.5 "/>
<text text-anchor="middle" x="805.5" y="-811.5" font-family="Courier New" font-size="10.00"> </text>
</a>
</g>
</g>
<!-- Node11&#45;&gt;Node10 -->
<g id="edge11" class="edge"><title>Node11&#45;&gt;Node10</title>
<path fill="none" stroke="#404040" d="M801.97,-804.26C797.171,-766.545 788.307,-696.88 780.641,-636.631"/>
<polygon fill="none" stroke="#404040" points="780.64,-636.623 775.914,-631.176 779.125,-624.719 783.85,-630.166 780.64,-636.623"/>
<text text-anchor="middle" x="849" y="-734" font-family="Courier New" font-size="10.00"> &#45;nodeFormatString</text>
<text text-anchor="middle" x="849" y="-723" font-family="Courier New" font-size="10.00">&#45;edgeFormatString</text>
<text text-anchor="middle" x="849" y="-712" font-family="Courier New" font-size="10.00">&#45;cellFormatString</text>
</g>
</g>
</svg>
