<?xml version="1.0" encoding="UTF-8" standalone="no"?>
<!DOCTYPE svg PUBLIC "-//W3C//DTD SVG 1.1//EN"
 "http://www.w3.org/Graphics/SVG/1.1/DTD/svg11.dtd">
<!-- Generated by graphviz version 2.38.0 (20140413.2041)
 -->
<!-- Title: C2M2.NeuronalDynamics.Simulation.CellSolver2SimpleDiffusion Pages: 1 -->
<svg width="452pt" height="1169pt"
 viewBox="0.00 0.00 451.50 1169.00" xmlns="http://www.w3.org/2000/svg" xmlns:xlink="http://www.w3.org/1999/xlink">
<g id="graph0" class="graph" transform="scale(1 1) rotate(0) translate(4 1165)">
<title>C2M2.NeuronalDynamics.Simulation.CellSolver2SimpleDiffusion</title>
<polygon fill="white" stroke="none" points="-4,4 -4,-1165 447.5,-1165 447.5,4 -4,4"/>
<!-- Node1 -->
<g id="node1" class="node"><title>Node1</title>
<g id="a_node1"><a xlink:title=" ">
<polygon fill="#bfbfbf" stroke="black" points="155,-0.5 155,-310.5 370,-310.5 370,-0.5 155,-0.5"/>
<text text-anchor="start" x="163" y="-298.5" font-family="Courier New" font-size="10.00">C2M2.NeuronalDynamics.Simulation.</text>
<text text-anchor="middle" x="262.5" y="-287.5" font-family="Courier New" font-size="10.00">CellSolver2SimpleDiffusion</text>
<polyline fill="none" stroke="black" points="155,-280.5 370,-280.5 "/>
<text text-anchor="start" x="163" y="-268.5" font-family="Courier New" font-size="10.00">+ res</text>
<text text-anchor="start" x="163" y="-257.5" font-family="Courier New" font-size="10.00">+ gk</text>
<text text-anchor="start" x="163" y="-246.5" font-family="Courier New" font-size="10.00">+ gna</text>
<text text-anchor="start" x="163" y="-235.5" font-family="Courier New" font-size="10.00">+ gl</text>
<text text-anchor="start" x="163" y="-224.5" font-family="Courier New" font-size="10.00">+ ek</text>
<text text-anchor="start" x="163" y="-213.5" font-family="Courier New" font-size="10.00">+ ena</text>
<text text-anchor="start" x="163" y="-202.5" font-family="Courier New" font-size="10.00">+ el</text>
<text text-anchor="start" x="163" y="-191.5" font-family="Courier New" font-size="10.00">+ cap</text>
<text text-anchor="start" x="163" y="-180.5" font-family="Courier New" font-size="10.00">+ ni</text>
<text text-anchor="start" x="163" y="-169.5" font-family="Courier New" font-size="10.00">+ nT</text>
<text text-anchor="start" x="163" y="-158.5" font-family="Courier New" font-size="10.00">+ endTime</text>
<text text-anchor="start" x="163" y="-147.5" font-family="Courier New" font-size="10.00">+ vstart</text>
<text text-anchor="start" x="163" y="-136.5" font-family="Courier New" font-size="10.00">&#45; U</text>
<text text-anchor="start" x="163" y="-125.5" font-family="Courier New" font-size="10.00">&#45; i</text>
<text text-anchor="start" x="163" y="-114.5" font-family="Courier New" font-size="10.00">&#45; mi</text>
<text text-anchor="start" x="163" y="-103.5" font-family="Courier New" font-size="10.00">&#45; hi</text>
<polyline fill="none" stroke="black" points="155,-96.5 370,-96.5 "/>
<text text-anchor="start" x="163" y="-84.5" font-family="Courier New" font-size="10.00">+ initialConditions()</text>
<text text-anchor="start" x="163" y="-73.5" font-family="Courier New" font-size="10.00">+ boundaryConditions()</text>
<text text-anchor="start" x="163" y="-62.5" font-family="Courier New" font-size="10.00">+ setBC()</text>
<text text-anchor="start" x="163" y="-51.5" font-family="Courier New" font-size="10.00">+ updateBC()</text>
<text text-anchor="start" x="163" y="-40.5" font-family="Courier New" font-size="10.00"># SetNeuronCell()</text>
<text text-anchor="start" x="163" y="-29.5" font-family="Courier New" font-size="10.00"># Get1DValues()</text>
<text text-anchor="start" x="163" y="-18.5" font-family="Courier New" font-size="10.00"># Set1DValues()</text>
<text text-anchor="start" x="163" y="-7.5" font-family="Courier New" font-size="10.00"># Solve()</text>
</a>
</g>
</g>
<!-- Node2 -->
<g id="node2" class="node"><title>Node2</title>
<g id="a_node2"><a xlink:href="../../d4/d5a/class_c2_m2_1_1_neuronal_dynamics_1_1_simulation_1_1_neuron_simulation1_d.html" target="_top" xlink:title="Provide an interface for 1D neuron&#45;surface simulations to be visualized and interacted with">
<polygon fill="white" stroke="black" points="81,-358.5 81,-580.5 230,-580.5 230,-358.5 81,-358.5"/>
<text text-anchor="middle" x="155.5" y="-568.5" font-family="Courier New" font-size="10.00">NeuronSimulation1D</text>
<polyline fill="none" stroke="black" points="81,-561.5 230,-561.5 "/>
<text text-anchor="start" x="89" y="-549.5" font-family="Courier New" font-size="10.00">+ visualize1D</text>
<text text-anchor="start" x="89" y="-538.5" font-family="Courier New" font-size="10.00">+ color1D</text>
<text text-anchor="start" x="89" y="-527.5" font-family="Courier New" font-size="10.00">+ lineWidth1D</text>
<text text-anchor="start" x="89" y="-516.5" font-family="Courier New" font-size="10.00">&#45; map</text>
<text text-anchor="start" x="89" y="-505.5" font-family="Courier New" font-size="10.00">&#45; neuronCellFolder</text>
<text text-anchor="start" x="89" y="-494.5" font-family="Courier New" font-size="10.00">&#45; activeCellFolder</text>
<text text-anchor="start" x="89" y="-483.5" font-family="Courier New" font-size="10.00">&#45; ugxExt</text>
<text text-anchor="start" x="89" y="-472.5" font-family="Courier New" font-size="10.00">&#45; cngExt</text>
<text text-anchor="start" x="89" y="-461.5" font-family="Courier New" font-size="10.00">&#45; spec1D</text>
<text text-anchor="start" x="89" y="-450.5" font-family="Courier New" font-size="10.00">&#45; specTris</text>
<text text-anchor="start" x="89" y="-439.5" font-family="Courier New" font-size="10.00">&#45; specBlownup</text>
<polyline fill="none" stroke="black" points="81,-432.5 230,-432.5 "/>
<text text-anchor="start" x="89" y="-420.5" font-family="Courier New" font-size="10.00">+ GetValues()</text>
<text text-anchor="start" x="89" y="-409.5" font-family="Courier New" font-size="10.00">+ SetValues()</text>
<text text-anchor="start" x="89" y="-398.5" font-family="Courier New" font-size="10.00"># Set1DValues()</text>
<text text-anchor="start" x="89" y="-387.5" font-family="Courier New" font-size="10.00"># Get1DValues()</text>
<text text-anchor="start" x="89" y="-376.5" font-family="Courier New" font-size="10.00"># SetNeuronCell()</text>
<text text-anchor="start" x="89" y="-365.5" font-family="Courier New" font-size="10.00"># BuildVisualization()</text>
</a>
</g>
</g>
<!-- Node2&#45;&gt;Node1 -->
<g id="edge1" class="edge"><title>Node2&#45;&gt;Node1</title>
<path fill="none" stroke="midnightblue" d="M196.624,-348.586C200.905,-336.105 205.297,-323.297 209.683,-310.508"/>
<polygon fill="none" stroke="midnightblue" points="193.308,-347.467 193.375,-358.061 199.93,-349.738 193.308,-347.467"/>
</g>
<!-- Node3 -->
<g id="node3" class="node"><title>Node3</title>
<g id="a_node3"><a xlink:href="../../d4/de1/class_c2_m2_1_1_simulation_1_1_surface_simulation.html" target="_top" xlink:title="Simulation of type double[] for visualizing scalar fields on mesh surfaces">
<polygon fill="white" stroke="black" points="16,-650.5 16,-784.5 171,-784.5 171,-650.5 16,-650.5"/>
<text text-anchor="middle" x="93.5" y="-772.5" font-family="Courier New" font-size="10.00">SurfaceSimulation</text>
<polyline fill="none" stroke="black" points="16,-765.5 171,-765.5 "/>
<text text-anchor="start" x="24" y="-753.5" font-family="Courier New" font-size="10.00">+ gradient</text>
<text text-anchor="start" x="24" y="-742.5" font-family="Courier New" font-size="10.00">+ globalMax</text>
<text text-anchor="start" x="24" y="-731.5" font-family="Courier New" font-size="10.00">+ globalMin</text>
<text text-anchor="start" x="24" y="-720.5" font-family="Courier New" font-size="10.00">+ colorLUT</text>
<text text-anchor="start" x="24" y="-709.5" font-family="Courier New" font-size="10.00">&#45; mf</text>
<text text-anchor="start" x="24" y="-698.5" font-family="Courier New" font-size="10.00">&#45; mr</text>
<polyline fill="none" stroke="black" points="16,-691.5 171,-691.5 "/>
<text text-anchor="start" x="24" y="-679.5" font-family="Courier New" font-size="10.00"># UpdateVisualization()</text>
<text text-anchor="start" x="24" y="-668.5" font-family="Courier New" font-size="10.00"># OnAwake()</text>
<text text-anchor="start" x="24" y="-657.5" font-family="Courier New" font-size="10.00">&#45; UpdateVisualization()</text>
</a>
</g>
</g>
<!-- Node3&#45;&gt;Node2 -->
<g id="edge2" class="edge"><title>Node3&#45;&gt;Node2</title>
<path fill="none" stroke="midnightblue" d="M112.654,-640.5C117.438,-621.521 122.664,-600.784 127.771,-580.523"/>
<polygon fill="none" stroke="midnightblue" points="109.247,-639.701 110.196,-650.253 116.034,-641.412 109.247,-639.701"/>
</g>
<!-- Node4 -->
<g id="node4" class="node"><title>Node4</title>
<g id="a_node4"><a xlink:href="../../db/d39/class_c2_m2_1_1_simulation_1_1_simulation.html" target="_top" xlink:title=" ">
<polygon fill="white" stroke="black" points="0,-832.5 0,-1065.5 155,-1065.5 155,-832.5 0,-832.5"/>
<text text-anchor="start" x="8" y="-1053.5" font-family="Courier New" font-size="10.00">Simulation&lt; double</text>
<text text-anchor="middle" x="77.5" y="-1042.5" font-family="Courier New" font-size="10.00">[], Mesh &gt;</text>
<polyline fill="none" stroke="black" points="0,-1035.5 155,-1035.5 "/>
<text text-anchor="start" x="8" y="-1023.5" font-family="Courier New" font-size="10.00">+ startOnAwake</text>
<text text-anchor="start" x="8" y="-1012.5" font-family="Courier New" font-size="10.00"># mutex</text>
<text text-anchor="start" x="8" y="-1001.5" font-family="Courier New" font-size="10.00">&#45; solveThread</text>
<polyline fill="none" stroke="black" points="0,-994.5 155,-994.5 "/>
<text text-anchor="start" x="8" y="-982.5" font-family="Courier New" font-size="10.00">+ GetValues()</text>
<text text-anchor="start" x="8" y="-971.5" font-family="Courier New" font-size="10.00">+ StartSimulation()</text>
<text text-anchor="start" x="8" y="-960.5" font-family="Courier New" font-size="10.00">+ StopSimulation()</text>
<text text-anchor="start" x="8" y="-949.5" font-family="Courier New" font-size="10.00">+ Awake()</text>
<text text-anchor="start" x="8" y="-938.5" font-family="Courier New" font-size="10.00">+ Start()</text>
<text text-anchor="start" x="8" y="-927.5" font-family="Courier New" font-size="10.00">+ Update()</text>
<text text-anchor="start" x="8" y="-916.5" font-family="Courier New" font-size="10.00"># BuildVisualization()</text>
<text text-anchor="start" x="8" y="-905.5" font-family="Courier New" font-size="10.00"># UpdateVisualization()</text>
<text text-anchor="start" x="8" y="-894.5" font-family="Courier New" font-size="10.00"># Solve()</text>
<text text-anchor="start" x="8" y="-883.5" font-family="Courier New" font-size="10.00"># OnAwake()</text>
<text text-anchor="start" x="8" y="-872.5" font-family="Courier New" font-size="10.00"># OnStart()</text>
<text text-anchor="start" x="8" y="-861.5" font-family="Courier New" font-size="10.00"># OnUpdate()</text>
<text text-anchor="start" x="8" y="-850.5" font-family="Courier New" font-size="10.00">&#45; OnApplicationPause()</text>
<text text-anchor="start" x="8" y="-839.5" font-family="Courier New" font-size="10.00">&#45; OnApplicationQuit()</text>
</a>
</g>
</g>
<!-- Node4&#45;&gt;Node3 -->
<g id="edge3" class="edge"><title>Node4&#45;&gt;Node3</title>
<path fill="none" stroke="midnightblue" d="M86.2916,-821.895C87.1886,-809.029 88.0721,-796.356 88.8966,-784.53"/>
<polygon fill="none" stroke="midnightblue" points="82.7744,-822.022 85.5703,-832.241 89.7574,-822.509 82.7744,-822.022"/>
</g>
<!-- Node5 -->
<g id="node5" class="node"><title>Node5</title>
<g id="a_node5"><a xlink:href="../../da/d4f/class_c2_m2_1_1_visualization_1_1_l_u_t_gradient.html" target="_top" xlink:title="Create a fast and memory&#45;friendly color lookup table from a gradient">
<polygon fill="white" stroke="black" points="173,-865.5 173,-1032.5 370,-1032.5 370,-865.5 173,-865.5"/>
<text text-anchor="middle" x="271.5" y="-1020.5" font-family="Courier New" font-size="10.00">C2M2.Visualization.LUTGradient</text>
<polyline fill="none" stroke="black" points="173,-1013.5 370,-1013.5 "/>
<text text-anchor="start" x="181" y="-1001.5" font-family="Courier New" font-size="10.00">+ extremaMethod</text>
<text text-anchor="start" x="181" y="-990.5" font-family="Courier New" font-size="10.00">+ globalMax</text>
<text text-anchor="start" x="181" y="-979.5" font-family="Courier New" font-size="10.00">+ globalMin</text>
<text text-anchor="start" x="181" y="-968.5" font-family="Courier New" font-size="10.00">+ LutRes</text>
<text text-anchor="start" x="181" y="-957.5" font-family="Courier New" font-size="10.00">+ Gradient</text>
<text text-anchor="start" x="181" y="-946.5" font-family="Courier New" font-size="10.00">+ gradientLUT</text>
<text text-anchor="start" x="181" y="-935.5" font-family="Courier New" font-size="10.00">&#45; lutRes</text>
<text text-anchor="start" x="181" y="-924.5" font-family="Courier New" font-size="10.00">&#45; gradient</text>
<polyline fill="none" stroke="black" points="173,-917.5 370,-917.5 "/>
<text text-anchor="start" x="181" y="-905.5" font-family="Courier New" font-size="10.00">+ Evaluate()</text>
<text text-anchor="start" x="181" y="-894.5" font-family="Courier New" font-size="10.00">+ Evaluate()</text>
<text text-anchor="start" x="181" y="-883.5" font-family="Courier New" font-size="10.00">&#45; BuildLUT()</text>
<text text-anchor="start" x="181" y="-872.5" font-family="Courier New" font-size="10.00">&#45; RescaleArray()</text>
</a>
</g>
</g>
<!-- Node5&#45;&gt;Node3 -->
<g id="edge4" class="edge"><title>Node5&#45;&gt;Node3</title>
<path fill="none" stroke="#404040" d="M207.489,-865.469C189.437,-842.194 169.891,-816.993 152.169,-794.143"/>
<polygon fill="none" stroke="#404040" points="152.049,-793.989 145.211,-791.699 144.694,-784.506 151.532,-786.796 152.049,-793.989"/>
<text text-anchor="middle" x="213" y="-806" font-family="Courier New" font-size="10.00"> +extremaMethod</text>
</g>
<!-- Node6 -->
<g id="node6" class="node"><title>Node6</title>
<g id="a_node6"><a xlink:title=" ">
<polygon fill="white" stroke="#bfbfbf" points="224,-1103.5 224,-1160.5 319,-1160.5 319,-1103.5 224,-1103.5"/>
<text text-anchor="middle" x="271.5" y="-1148.5" font-family="Courier New" font-size="10.00">MonoBehaviour</text>
<polyline fill="none" stroke="#bfbfbf" points="224,-1141.5 319,-1141.5 "/>
<text text-anchor="middle" x="271.5" y="-1129.5" font-family="Courier New" font-size="10.00"> </text>
<polyline fill="none" stroke="#bfbfbf" points="224,-1122.5 319,-1122.5 "/>
<text text-anchor="middle" x="271.5" y="-1110.5" font-family="Courier New" font-size="10.00"> </text>
</a>
</g>
</g>
<!-- Node6&#45;&gt;Node5 -->
<g id="edge5" class="edge"><title>Node6&#45;&gt;Node5</title>
<path fill="none" stroke="midnightblue" d="M271.5,-1092.75C271.5,-1075.22 271.5,-1053.71 271.5,-1032.75"/>
<polygon fill="none" stroke="midnightblue" points="268,-1093.12 271.5,-1103.12 275,-1093.12 268,-1093.12"/>
</g>
<!-- Node7 -->
<g id="node7" class="node"><title>Node7</title>
<g id="a_node7"><a xlink:title=" ">
<polygon fill="white" stroke="#bfbfbf" points="189,-689 189,-746 230,-746 230,-689 189,-689"/>
<text text-anchor="middle" x="209.5" y="-734" font-family="Courier New" font-size="10.00">C2M2</text>
<polyline fill="none" stroke="#bfbfbf" points="189,-727 230,-727 "/>
<text text-anchor="middle" x="209.5" y="-715" font-family="Courier New" font-size="10.00"> </text>
<polyline fill="none" stroke="#bfbfbf" points="189,-708 230,-708 "/>
<text text-anchor="middle" x="209.5" y="-696" font-family="Courier New" font-size="10.00"> </text>
</a>
</g>
</g>
<!-- Node7&#45;&gt;Node2 -->
<g id="edge6" class="edge"><title>Node7&#45;&gt;Node2</title>
<path fill="none" stroke="#404040" d="M203.41,-688.759C198.159,-664.835 190.188,-628.522 182.246,-592.343"/>
<polygon fill="none" stroke="#404040" points="182.245,-592.338 177.052,-587.335 179.672,-580.617 184.866,-585.62 182.245,-592.338"/>
<text text-anchor="middle" x="215" y="-613" font-family="Courier New" font-size="10.00"> #grid1D</text>
</g>
<!-- Node8 -->
<g id="node8" class="node"><title>Node8</title>
<g id="a_node8"><a xlink:href="../../da/df6/class_c2_m2_1_1_neuronal_dynamics_1_1_u_g_x_1_1_neuron_cell.html" target="_top" xlink:title=" ">
<polygon fill="white" stroke="black" points="248,-369.5 248,-569.5 421,-569.5 421,-369.5 248,-369.5"/>
<text text-anchor="start" x="256" y="-557.5" font-family="Courier New" font-size="10.00">C2M2.NeuronalDynamics.UGX.</text>
<text text-anchor="middle" x="334.5" y="-546.5" font-family="Courier New" font-size="10.00">NeuronCell</text>
<polyline fill="none" stroke="black" points="248,-539.5 421,-539.5 "/>
<text text-anchor="start" x="256" y="-527.5" font-family="Courier New" font-size="10.00">+ nodeData</text>
<text text-anchor="start" x="256" y="-516.5" font-family="Courier New" font-size="10.00">+ edges</text>
<text text-anchor="start" x="256" y="-505.5" font-family="Courier New" font-size="10.00">+ edgeLengths</text>
<text text-anchor="start" x="256" y="-494.5" font-family="Courier New" font-size="10.00">+ boundaryID</text>
<text text-anchor="start" x="256" y="-483.5" font-family="Courier New" font-size="10.00">+ somaID</text>
<text text-anchor="start" x="256" y="-472.5" font-family="Courier New" font-size="10.00">+ vertCount</text>
<text text-anchor="start" x="256" y="-461.5" font-family="Courier New" font-size="10.00">+ edgeCount</text>
<polyline fill="none" stroke="black" points="248,-454.5 421,-454.5 "/>
<text text-anchor="start" x="256" y="-442.5" font-family="Courier New" font-size="10.00">+ NeuronCell()</text>
<text text-anchor="start" x="256" y="-431.5" font-family="Courier New" font-size="10.00">+ ReadDataTable()</text>
<text text-anchor="start" x="256" y="-420.5" font-family="Courier New" font-size="10.00">+ NodeToString()</text>
<text text-anchor="start" x="256" y="-409.5" font-family="Courier New" font-size="10.00">+ EdgeToString()</text>
<text text-anchor="start" x="256" y="-398.5" font-family="Courier New" font-size="10.00">+ ToString()</text>
<text text-anchor="start" x="256" y="-387.5" font-family="Courier New" font-size="10.00">&#45; NodeNeighborsToString()</text>
<text text-anchor="start" x="256" y="-376.5" font-family="Courier New" font-size="10.00">&#45; GetEdgeLength()</text>
</a>
</g>
</g>
<!-- Node8&#45;&gt;Node1 -->
<g id="edge7" class="edge"><title>Node8&#45;&gt;Node1</title>
<path fill="none" stroke="#404040" d="M311.62,-369.353C308.174,-354.423 304.543,-338.688 300.879,-322.81"/>
<polygon fill="none" stroke="#404040" points="300.772,-322.344 295.525,-317.397 298.073,-310.651 303.32,-315.598 300.772,-322.344"/>
<text text-anchor="middle" x="328" y="-332" font-family="Courier New" font-size="10.00"> &#45;myCell</text>
</g>
<!-- Node9 -->
<g id="node9" class="node"><title>Node9</title>
<g id="a_node9"><a xlink:title=" ">
<polygon fill="white" stroke="#bfbfbf" points="308,-689 308,-746 361,-746 361,-689 308,-689"/>
<text text-anchor="middle" x="334.5" y="-734" font-family="Courier New" font-size="10.00">static</text>
<polyline fill="none" stroke="#bfbfbf" points="308,-727 361,-727 "/>
<text text-anchor="middle" x="334.5" y="-715" font-family="Courier New" font-size="10.00"> </text>
<polyline fill="none" stroke="#bfbfbf" points="308,-708 361,-708 "/>
<text text-anchor="middle" x="334.5" y="-696" font-family="Courier New" font-size="10.00"> </text>
</a>
</g>
</g>
<!-- Node9&#45;&gt;Node8 -->
<g id="edge8" class="edge"><title>Node9&#45;&gt;Node8</title>
<path fill="none" stroke="#404040" d="M334.5,-688.759C334.5,-662.511 334.5,-621.35 334.5,-581.815"/>
<polygon fill="none" stroke="#404040" points="334.5,-581.615 330.5,-575.615 334.5,-569.615 338.5,-575.615 334.5,-581.615"/>
<text text-anchor="middle" x="389" y="-624" font-family="Courier New" font-size="10.00"> &#45;nodeFormatString</text>
<text text-anchor="middle" x="389" y="-613" font-family="Courier New" font-size="10.00">&#45;edgeFormatString</text>
<text text-anchor="middle" x="389" y="-602" font-family="Courier New" font-size="10.00">&#45;cellFormatString</text>
</g>
</g>
</svg>
