<?xml version="1.0" encoding="UTF-8" standalone="no"?>
<!DOCTYPE svg PUBLIC "-//W3C//DTD SVG 1.1//EN"
 "http://www.w3.org/Graphics/SVG/1.1/DTD/svg11.dtd">
<!-- Generated by graphviz version 2.38.0 (20140413.2041)
 -->
<!-- Title: C2M2.NeuronalDynamics.Simulation.CellSolver2SimpleDiffusion Pages: 1 -->
<!--zoomable 1824 -->
<svg id="main" version="1.1" xmlns="http://www.w3.org/2000/svg" xmlns:xlink="http://www.w3.org/1999/xlink" xml:space="preserve" onload="init(evt)">
<style type="text/css"><![CDATA[
.edge:hover path { stroke: red; }
.edge:hover polygon { stroke: red; fill: red; }
]]></style>
<script type="text/javascript"><![CDATA[
var edges = document.getElementsByTagName('g');
if (edges && edges.length) {
  for (var i=0;i<edges.length;i++) {
    if (edges[i].id.substr(0,4)=='edge') {
      edges[i].setAttribute('class','edge');
    }
  }
}
]]></script>
        <defs>
                <circle id="rim" cx="0" cy="0" r="7"/>
                <circle id="rim2" cx="0" cy="0" r="3.5"/>
                <g id="zoomPlus">
                        <use xlink:href="#rim" fill="#404040">
                                <set attributeName="fill" to="#808080" begin="zoomplus.mouseover" end="zoomplus.mouseout"/>
                        </use>
                        <path d="M-4,0h8M0,-4v8" fill="none" stroke="white" stroke-width="1.5" pointer-events="none"/>
                </g>
                <g id="zoomMin">
                        <use xlink:href="#rim" fill="#404040">
                                <set attributeName="fill" to="#808080" begin="zoomminus.mouseover" end="zoomminus.mouseout"/>
                        </use>
                        <path d="M-4,0h8" fill="none" stroke="white" stroke-width="1.5" pointer-events="none"/>
                </g>
                <g id="dirArrow">
                        <path fill="none" stroke="white" stroke-width="1.5" d="M0,-3.0v7 M-2.5,-0.5L0,-3.0L2.5,-0.5"/>
                </g>
               <g id="resetDef">
                       <use xlink:href="#rim2" fill="#404040">
                               <set attributeName="fill" to="#808080" begin="reset.mouseover" end="reset.mouseout"/>
                       </use>
               </g>
        </defs>

<script type="text/javascript">
var viewWidth = 1491;
var viewHeight = 1824;
var sectionId = 'dynsection-1';
</script>
<script xlink:href="../../svgpan.js"/>
<svg id="graph" class="graph">
<g id="viewport">
<title>C2M2.NeuronalDynamics.Simulation.CellSolver2SimpleDiffusion</title>
<polygon fill="white" stroke="none" points="-4,4 -4,-1820 1487,-1820 1487,4 -4,4"/>
<!-- Node1 -->
<g id="node1" class="node"><title>Node1</title>
<g id="a_node1"><a xlink:title=" ">
<polygon fill="#bfbfbf" stroke="black" points="767,-0.5 767,-332.5 982,-332.5 982,-0.5 767,-0.5"/>
<text text-anchor="start" x="775" y="-320.5" font-family="Courier New" font-size="10.00">C2M2.NeuronalDynamics.Simulation.</text>
<text text-anchor="middle" x="874.5" y="-309.5" font-family="Courier New" font-size="10.00">CellSolver2SimpleDiffusion</text>
<polyline fill="none" stroke="black" points="767,-302.5 982,-302.5 "/>
<text text-anchor="start" x="775" y="-290.5" font-family="Courier New" font-size="10.00">+ res</text>
<text text-anchor="start" x="775" y="-279.5" font-family="Courier New" font-size="10.00">+ gk</text>
<text text-anchor="start" x="775" y="-268.5" font-family="Courier New" font-size="10.00">+ gna</text>
<text text-anchor="start" x="775" y="-257.5" font-family="Courier New" font-size="10.00">+ gl</text>
<text text-anchor="start" x="775" y="-246.5" font-family="Courier New" font-size="10.00">+ ek</text>
<text text-anchor="start" x="775" y="-235.5" font-family="Courier New" font-size="10.00">+ ena</text>
<text text-anchor="start" x="775" y="-224.5" font-family="Courier New" font-size="10.00">+ el</text>
<text text-anchor="start" x="775" y="-213.5" font-family="Courier New" font-size="10.00">+ cap</text>
<text text-anchor="start" x="775" y="-202.5" font-family="Courier New" font-size="10.00">+ ni</text>
<text text-anchor="start" x="775" y="-191.5" font-family="Courier New" font-size="10.00">+ nT</text>
<text text-anchor="start" x="775" y="-180.5" font-family="Courier New" font-size="10.00">+ endTime</text>
<text text-anchor="start" x="775" y="-169.5" font-family="Courier New" font-size="10.00">+ vstart</text>
<text text-anchor="start" x="775" y="-158.5" font-family="Courier New" font-size="10.00">&#45; U</text>
<text text-anchor="start" x="775" y="-147.5" font-family="Courier New" font-size="10.00">&#45; k</text>
<text text-anchor="start" x="775" y="-136.5" font-family="Courier New" font-size="10.00">&#45; i</text>
<text text-anchor="start" x="775" y="-125.5" font-family="Courier New" font-size="10.00">&#45; mi</text>
<text text-anchor="start" x="775" y="-114.5" font-family="Courier New" font-size="10.00">&#45; hi</text>
<polyline fill="none" stroke="black" points="767,-107.5 982,-107.5 "/>
<text text-anchor="start" x="775" y="-95.5" font-family="Courier New" font-size="10.00">+ GetSimulationTime()</text>
<text text-anchor="start" x="775" y="-84.5" font-family="Courier New" font-size="10.00">+ Get1DValues()</text>
<text text-anchor="start" x="775" y="-73.5" font-family="Courier New" font-size="10.00">+ Set1DValues()</text>
<text text-anchor="start" x="775" y="-62.5" font-family="Courier New" font-size="10.00">+ initialConditions()</text>
<text text-anchor="start" x="775" y="-51.5" font-family="Courier New" font-size="10.00">+ boundaryConditions()</text>
<text text-anchor="start" x="775" y="-40.5" font-family="Courier New" font-size="10.00">+ setBC()</text>
<text text-anchor="start" x="775" y="-29.5" font-family="Courier New" font-size="10.00">+ updateBC()</text>
<text text-anchor="start" x="775" y="-18.5" font-family="Courier New" font-size="10.00"># Solve()</text>
<text text-anchor="start" x="775" y="-7.5" font-family="Courier New" font-size="10.00">&#45; InitializeNeuronCell()</text>
</a>
</g>
</g>
<!-- Node2 -->
<g id="node2" class="node"><title>Node2</title>
<g id="a_node2"><a xlink:href="../../d7/d92/class_c2_m2_1_1_neuronal_dynamics_1_1_simulation_1_1_n_d_simulation.html" target="_top" xlink:title="Provide an interface for 1D neuron&#45;surface simulations to be visualized and interacted with">
<polygon fill="white" stroke="black" points="761,-370.5 761,-845.5 988,-845.5 988,-370.5 761,-370.5"/>
<text text-anchor="middle" x="874.5" y="-833.5" font-family="Courier New" font-size="10.00">NDSimulation</text>
<polyline fill="none" stroke="black" points="761,-826.5 988,-826.5 "/>
<text text-anchor="start" x="769" y="-814.5" font-family="Courier New" font-size="10.00">+ visualize1D</text>
<text text-anchor="start" x="769" y="-803.5" font-family="Courier New" font-size="10.00">+ color1D</text>
<text text-anchor="start" x="769" y="-792.5" font-family="Courier New" font-size="10.00">+ lineWidth1D</text>
<text text-anchor="start" x="769" y="-781.5" font-family="Courier New" font-size="10.00">+ vrnFileName</text>
<text text-anchor="start" x="769" y="-770.5" font-family="Courier New" font-size="10.00">+ hitValue</text>
<text text-anchor="start" x="769" y="-759.5" font-family="Courier New" font-size="10.00">+ clamps</text>
<text text-anchor="start" x="769" y="-748.5" font-family="Courier New" font-size="10.00">+ VisualInflation</text>
<text text-anchor="start" x="769" y="-737.5" font-family="Courier New" font-size="10.00">+ ColliderInflation</text>
<text text-anchor="start" x="769" y="-726.5" font-family="Courier New" font-size="10.00">+ RefinementLevel</text>
<text text-anchor="start" x="769" y="-715.5" font-family="Courier New" font-size="10.00">+ ClampMode</text>
<text text-anchor="start" x="769" y="-704.5" font-family="Courier New" font-size="10.00">+ VrnReader</text>
<text text-anchor="start" x="769" y="-693.5" font-family="Courier New" font-size="10.00">+ Grid1D</text>
<text text-anchor="start" x="769" y="-682.5" font-family="Courier New" font-size="10.00">+ Verts1D</text>
<text text-anchor="start" x="769" y="-671.5" font-family="Courier New" font-size="10.00">+ Grid2D</text>
<text text-anchor="start" x="769" y="-660.5" font-family="Courier New" font-size="10.00">+ NeuronCell</text>
<text text-anchor="start" x="769" y="-649.5" font-family="Courier New" font-size="10.00">+ AverageDendriteRadius</text>
<text text-anchor="start" x="769" y="-638.5" font-family="Courier New" font-size="10.00">+ Map</text>
<text text-anchor="start" x="769" y="-627.5" font-family="Courier New" font-size="10.00">+ Mapping</text>
<text text-anchor="start" x="769" y="-616.5" font-family="Courier New" font-size="10.00">+ Scalars3D</text>
<text text-anchor="start" x="769" y="-605.5" font-family="Courier New" font-size="10.00">&#45; visualInflation</text>
<text text-anchor="start" x="769" y="-594.5" font-family="Courier New" font-size="10.00">&#45; colliderInflation</text>
<text text-anchor="start" x="769" y="-583.5" font-family="Courier New" font-size="10.00">&#45; refinementLevel</text>
<text text-anchor="start" x="769" y="-572.5" font-family="Courier New" font-size="10.00">&#45; meshCache</text>
<text text-anchor="start" x="769" y="-561.5" font-family="Courier New" font-size="10.00">&#45; clampMode</text>
<text text-anchor="start" x="769" y="-550.5" font-family="Courier New" font-size="10.00">&#45; averageDendriteRadius</text>
<text text-anchor="start" x="769" y="-539.5" font-family="Courier New" font-size="10.00">&#45; scalars3D</text>
<polyline fill="none" stroke="black" points="761,-532.5 988,-532.5 "/>
<text text-anchor="start" x="769" y="-520.5" font-family="Courier New" font-size="10.00">+ OnVisualInflationChangeDelegate()</text>
<text text-anchor="start" x="769" y="-509.5" font-family="Courier New" font-size="10.00">+ GetValues()</text>
<text text-anchor="start" x="769" y="-498.5" font-family="Courier New" font-size="10.00">+ SetValues()</text>
<text text-anchor="start" x="769" y="-487.5" font-family="Courier New" font-size="10.00">+ SetValues()</text>
<text text-anchor="start" x="769" y="-476.5" font-family="Courier New" font-size="10.00">+ Set1DValues()</text>
<text text-anchor="start" x="769" y="-465.5" font-family="Courier New" font-size="10.00">+ Get1DValues()</text>
<text text-anchor="start" x="769" y="-454.5" font-family="Courier New" font-size="10.00">+ SwitchColliderMesh()</text>
<text text-anchor="start" x="769" y="-443.5" font-family="Courier New" font-size="10.00">+ SwitchMesh()</text>
<text text-anchor="start" x="769" y="-432.5" font-family="Courier New" font-size="10.00"># OnAwakePre()</text>
<text text-anchor="start" x="769" y="-421.5" font-family="Courier New" font-size="10.00"># OnStart()</text>
<text text-anchor="start" x="769" y="-410.5" font-family="Courier New" font-size="10.00"># BuildVisualization()</text>
<text text-anchor="start" x="769" y="-399.5" font-family="Courier New" font-size="10.00">&#45; CheckMeshCache()</text>
<text text-anchor="start" x="769" y="-388.5" font-family="Courier New" font-size="10.00">&#45; UpdateGrid1D()</text>
<text text-anchor="start" x="769" y="-377.5" font-family="Courier New" font-size="10.00">&#45; Update2DGrid()</text>
</a>
</g>
</g>
<!-- Node2&#45;&gt;Node1 -->
<g id="edge1" class="edge"><title>Node2&#45;&gt;Node1</title>
<path fill="none" stroke="midnightblue" d="M874.5,-360.116C874.5,-350.84 874.5,-341.629 874.5,-332.551"/>
<polygon fill="none" stroke="midnightblue" points="871,-360.205 874.5,-370.205 878,-360.205 871,-360.205"/>
</g>
<!-- Node3 -->
<g id="node3" class="node"><title>Node3</title>
<g id="a_node3"><a xlink:href="../../d6/d2d/class_c2_m2_1_1_simulation_1_1_mesh_simulation.html" target="_top" xlink:title="Simulation of type double[] for visualizing scalar fields on mesh surfaces">
<polygon fill="white" stroke="black" points="224,-932 224,-1110 379,-1110 379,-932 224,-932"/>
<text text-anchor="middle" x="301.5" y="-1098" font-family="Courier New" font-size="10.00">MeshSimulation</text>
<polyline fill="none" stroke="black" points="224,-1091 379,-1091 "/>
<text text-anchor="start" x="232" y="-1079" font-family="Courier New" font-size="10.00">+ gradient</text>
<text text-anchor="start" x="232" y="-1068" font-family="Courier New" font-size="10.00">+ globalMax</text>
<text text-anchor="start" x="232" y="-1057" font-family="Courier New" font-size="10.00">+ globalMin</text>
<text text-anchor="start" x="232" y="-1046" font-family="Courier New" font-size="10.00">+ colorLUT</text>
<text text-anchor="start" x="232" y="-1035" font-family="Courier New" font-size="10.00">+ VisualMesh</text>
<text text-anchor="start" x="232" y="-1024" font-family="Courier New" font-size="10.00">+ ColliderMesh</text>
<text text-anchor="start" x="232" y="-1013" font-family="Courier New" font-size="10.00">&#45; visualMesh</text>
<text text-anchor="start" x="232" y="-1002" font-family="Courier New" font-size="10.00">&#45; colliderMesh</text>
<text text-anchor="start" x="232" y="-991" font-family="Courier New" font-size="10.00">&#45; mf</text>
<text text-anchor="start" x="232" y="-980" font-family="Courier New" font-size="10.00">&#45; mr</text>
<polyline fill="none" stroke="black" points="224,-973 379,-973 "/>
<text text-anchor="start" x="232" y="-961" font-family="Courier New" font-size="10.00"># UpdateVisualization()</text>
<text text-anchor="start" x="232" y="-950" font-family="Courier New" font-size="10.00"># OnAwakePost()</text>
<text text-anchor="start" x="232" y="-939" font-family="Courier New" font-size="10.00">&#45; UpdateVisualization()</text>
</a>
</g>
</g>
<!-- Node3&#45;&gt;Node2 -->
<g id="edge2" class="edge"><title>Node3&#45;&gt;Node2</title>
<path fill="none" stroke="midnightblue" d="M367.72,-924.118C374.072,-917.005 380.694,-910.198 387.5,-904 501.143,-800.497 656.412,-713.89 760.808,-661.842"/>
<polygon fill="none" stroke="midnightblue" points="364.843,-922.094 360.937,-931.943 370.132,-926.679 364.843,-922.094"/>
</g>
<!-- Node4 -->
<g id="node4" class="node"><title>Node4</title>
<g id="a_node4"><a xlink:href="../../db/d39/class_c2_m2_1_1_simulation_1_1_simulation.html" target="_top" xlink:title=" ">
<polygon fill="white" stroke="black" points="0,-1207.5 0,-1517.5 185,-1517.5 185,-1207.5 0,-1207.5"/>
<text text-anchor="start" x="8" y="-1505.5" font-family="Courier New" font-size="10.00">Simulation&lt; double</text>
<text text-anchor="start" x="8" y="-1494.5" font-family="Courier New" font-size="10.00">[], Mesh, VRRaycastableMesh,</text>
<text text-anchor="middle" x="92.5" y="-1483.5" font-family="Courier New" font-size="10.00"> VRGrabbableMesh &gt;</text>
<polyline fill="none" stroke="black" points="0,-1476.5 185,-1476.5 "/>
<text text-anchor="start" x="8" y="-1464.5" font-family="Courier New" font-size="10.00">+ dryRun</text>
<text text-anchor="start" x="8" y="-1453.5" font-family="Courier New" font-size="10.00">+ startOnAwake</text>
<text text-anchor="start" x="8" y="-1442.5" font-family="Courier New" font-size="10.00">+ viz</text>
<text text-anchor="start" x="8" y="-1431.5" font-family="Courier New" font-size="10.00"># mutex</text>
<text text-anchor="start" x="8" y="-1420.5" font-family="Courier New" font-size="10.00">&#45; solveThread</text>
<polyline fill="none" stroke="black" points="0,-1413.5 185,-1413.5 "/>
<text text-anchor="start" x="8" y="-1401.5" font-family="Courier New" font-size="10.00">+ GetValues()</text>
<text text-anchor="start" x="8" y="-1390.5" font-family="Courier New" font-size="10.00">+ Awake()</text>
<text text-anchor="start" x="8" y="-1379.5" font-family="Courier New" font-size="10.00">+ Start()</text>
<text text-anchor="start" x="8" y="-1368.5" font-family="Courier New" font-size="10.00">+ Update()</text>
<text text-anchor="start" x="8" y="-1357.5" font-family="Courier New" font-size="10.00">+ StartSimulation()</text>
<text text-anchor="start" x="8" y="-1346.5" font-family="Courier New" font-size="10.00">+ StopSimulation()</text>
<text text-anchor="start" x="8" y="-1335.5" font-family="Courier New" font-size="10.00"># BuildVisualization()</text>
<text text-anchor="start" x="8" y="-1324.5" font-family="Courier New" font-size="10.00"># UpdateVisualization()</text>
<text text-anchor="start" x="8" y="-1313.5" font-family="Courier New" font-size="10.00"># Solve()</text>
<text text-anchor="start" x="8" y="-1302.5" font-family="Courier New" font-size="10.00"># PreSolve()</text>
<text text-anchor="start" x="8" y="-1291.5" font-family="Courier New" font-size="10.00"># OnAwakePre()</text>
<text text-anchor="start" x="8" y="-1280.5" font-family="Courier New" font-size="10.00"># OnAwakePost()</text>
<text text-anchor="start" x="8" y="-1269.5" font-family="Courier New" font-size="10.00"># OnStart()</text>
<text text-anchor="start" x="8" y="-1258.5" font-family="Courier New" font-size="10.00"># OnUpdate()</text>
<text text-anchor="start" x="8" y="-1247.5" font-family="Courier New" font-size="10.00"># OnPause()</text>
<text text-anchor="start" x="8" y="-1236.5" font-family="Courier New" font-size="10.00"># OnQuit()</text>
<text text-anchor="start" x="8" y="-1225.5" font-family="Courier New" font-size="10.00">&#45; OnApplicationPause()</text>
<text text-anchor="start" x="8" y="-1214.5" font-family="Courier New" font-size="10.00">&#45; OnApplicationQuit()</text>
</a>
</g>
</g>
<!-- Node4&#45;&gt;Node3 -->
<g id="edge3" class="edge"><title>Node4&#45;&gt;Node3</title>
<path fill="none" stroke="midnightblue" d="M190.557,-1202.22C209.999,-1170.64 229.739,-1138.57 247.073,-1110.41"/>
<polygon fill="none" stroke="midnightblue" points="187.345,-1200.76 185.083,-1211.11 193.306,-1204.43 187.345,-1200.76"/>
</g>
<!-- Node5 -->
<g id="node5" class="node"><title>Node5</title>
<g id="a_node5"><a xlink:href="../../da/d4f/class_c2_m2_1_1_visualization_1_1_l_u_t_gradient.html" target="_top" xlink:title="Create a fast and memory&#45;friendly color lookup table from a gradient">
<polygon fill="white" stroke="black" points="203,-1246 203,-1479 400,-1479 400,-1246 203,-1246"/>
<text text-anchor="middle" x="301.5" y="-1467" font-family="Courier New" font-size="10.00">C2M2.Visualization.LUTGradient</text>
<polyline fill="none" stroke="black" points="203,-1460 400,-1460 "/>
<text text-anchor="start" x="211" y="-1448" font-family="Courier New" font-size="10.00">+ extremaMethod</text>
<text text-anchor="start" x="211" y="-1437" font-family="Courier New" font-size="10.00">+ globalMax</text>
<text text-anchor="start" x="211" y="-1426" font-family="Courier New" font-size="10.00">+ globalMin</text>
<text text-anchor="start" x="211" y="-1415" font-family="Courier New" font-size="10.00">+ curMax</text>
<text text-anchor="start" x="211" y="-1404" font-family="Courier New" font-size="10.00">+ curMix</text>
<text text-anchor="start" x="211" y="-1393" font-family="Courier New" font-size="10.00">+ LutRes</text>
<text text-anchor="start" x="211" y="-1382" font-family="Courier New" font-size="10.00">+ Gradient</text>
<text text-anchor="start" x="211" y="-1371" font-family="Courier New" font-size="10.00">+ gradientLUT</text>
<text text-anchor="start" x="211" y="-1360" font-family="Courier New" font-size="10.00">+ oldMin</text>
<text text-anchor="start" x="211" y="-1349" font-family="Courier New" font-size="10.00">+ oldMax</text>
<text text-anchor="start" x="211" y="-1338" font-family="Courier New" font-size="10.00">&#45; lutRes</text>
<text text-anchor="start" x="211" y="-1327" font-family="Courier New" font-size="10.00">&#45; gradient</text>
<polyline fill="none" stroke="black" points="203,-1320 400,-1320 "/>
<text text-anchor="start" x="211" y="-1308" font-family="Courier New" font-size="10.00">+ Evaluate()</text>
<text text-anchor="start" x="211" y="-1297" font-family="Courier New" font-size="10.00">+ Evaluate()</text>
<text text-anchor="start" x="211" y="-1286" font-family="Courier New" font-size="10.00">+ EvaluateUnscaled()</text>
<text text-anchor="start" x="211" y="-1275" font-family="Courier New" font-size="10.00">+ GetMinMax()</text>
<text text-anchor="start" x="211" y="-1264" font-family="Courier New" font-size="10.00">&#45; BuildLUT()</text>
<text text-anchor="start" x="211" y="-1253" font-family="Courier New" font-size="10.00">&#45; RescaleArray()</text>
</a>
</g>
</g>
<!-- Node5&#45;&gt;Node3 -->
<g id="edge4" class="edge"><title>Node5&#45;&gt;Node3</title>
<path fill="none" stroke="#404040" d="M301.5,-1245.61C301.5,-1205.49 301.5,-1160.88 301.5,-1122.13"/>
<polygon fill="none" stroke="#404040" points="301.5,-1122.04 297.5,-1116.04 301.5,-1110.04 305.5,-1116.04 301.5,-1122.04"/>
<text text-anchor="middle" x="347" y="-1170" font-family="Courier New" font-size="10.00"> +extremaMethod</text>
</g>
<!-- Node6 -->
<g id="node6" class="node"><title>Node6</title>
<g id="a_node6"><a xlink:title=" ">
<polygon fill="white" stroke="#bfbfbf" points="358,-1604 358,-1661 453,-1661 453,-1604 358,-1604"/>
<text text-anchor="middle" x="405.5" y="-1649" font-family="Courier New" font-size="10.00">MonoBehaviour</text>
<polyline fill="none" stroke="#bfbfbf" points="358,-1642 453,-1642 "/>
<text text-anchor="middle" x="405.5" y="-1630" font-family="Courier New" font-size="10.00"> </text>
<polyline fill="none" stroke="#bfbfbf" points="358,-1623 453,-1623 "/>
<text text-anchor="middle" x="405.5" y="-1611" font-family="Courier New" font-size="10.00"> </text>
</a>
</g>
</g>
<!-- Node6&#45;&gt;Node5 -->
<g id="edge5" class="edge"><title>Node6&#45;&gt;Node5</title>
<path fill="none" stroke="midnightblue" d="M391.036,-1594.23C379.418,-1564.29 362.448,-1520.56 346.398,-1479.2"/>
<polygon fill="none" stroke="midnightblue" points="387.881,-1595.77 394.762,-1603.83 394.407,-1593.24 387.881,-1595.77"/>
</g>
<!-- Node16 -->
<g id="node16" class="node"><title>Node16</title>
<g id="a_node16"><a xlink:href="../../d5/df9/class_c2_m2_1_1_interaction_1_1_raycast_event_manager.html" target="_top" xlink:title="Attach this script to parent gameObject, create one child with one raycast trigger per child....">
<polygon fill="white" stroke="black" points="397,-904.5 397,-1137.5 558,-1137.5 558,-904.5 397,-904.5"/>
<text text-anchor="start" x="405" y="-1125.5" font-family="Courier New" font-size="10.00">C2M2.Interaction.Raycast</text>
<text text-anchor="middle" x="477.5" y="-1114.5" font-family="Courier New" font-size="10.00">EventManager</text>
<polyline fill="none" stroke="black" points="397,-1107.5 558,-1107.5 "/>
<text text-anchor="middle" x="477.5" y="-1095.5" font-family="Courier New" font-size="10.00"> </text>
<polyline fill="none" stroke="black" points="397,-1088.5 558,-1088.5 "/>
<text text-anchor="start" x="405" y="-1076.5" font-family="Courier New" font-size="10.00">+ TriggerChangeRight()</text>
<text text-anchor="start" x="405" y="-1065.5" font-family="Courier New" font-size="10.00">+ TriggerChangeLeft()</text>
<text text-anchor="start" x="405" y="-1054.5" font-family="Courier New" font-size="10.00">+ TriggerChangeBoth()</text>
<text text-anchor="start" x="405" y="-1043.5" font-family="Courier New" font-size="10.00">+ TriggerEmptyRight()</text>
<text text-anchor="start" x="405" y="-1032.5" font-family="Courier New" font-size="10.00">+ TriggerEmptyLeft()</text>
<text text-anchor="start" x="405" y="-1021.5" font-family="Courier New" font-size="10.00">+ TriggerEmptyBoth()</text>
<text text-anchor="start" x="405" y="-1010.5" font-family="Courier New" font-size="10.00">+ PressEvent()</text>
<text text-anchor="start" x="405" y="-999.5" font-family="Courier New" font-size="10.00">+ HoldEvent()</text>
<text text-anchor="start" x="405" y="-988.5" font-family="Courier New" font-size="10.00">+ EndEvent()</text>
<text text-anchor="start" x="405" y="-977.5" font-family="Courier New" font-size="10.00">+ AllEvents()</text>
<text text-anchor="start" x="405" y="-966.5" font-family="Courier New" font-size="10.00">+ PressEventNull()</text>
<text text-anchor="start" x="405" y="-955.5" font-family="Courier New" font-size="10.00">+ HoldEventNull()</text>
<text text-anchor="start" x="405" y="-944.5" font-family="Courier New" font-size="10.00">+ EndEventNull()</text>
<text text-anchor="start" x="405" y="-933.5" font-family="Courier New" font-size="10.00">+ AllEventsNull()</text>
<text text-anchor="start" x="405" y="-922.5" font-family="Courier New" font-size="10.00">+ ToString()</text>
<text text-anchor="start" x="405" y="-911.5" font-family="Courier New" font-size="10.00">&#45; Awake()</text>
</a>
</g>
</g>
<!-- Node6&#45;&gt;Node16 -->
<g id="edge16" class="edge"><title>Node6&#45;&gt;Node16</title>
<path fill="none" stroke="midnightblue" d="M408.453,-1593.61C414.422,-1519.3 428.946,-1349.26 447.5,-1207 450.425,-1184.58 453.972,-1160.69 457.589,-1137.79"/>
<polygon fill="none" stroke="midnightblue" points="404.942,-1593.62 407.635,-1603.87 411.919,-1594.18 404.942,-1593.62"/>
</g>
<!-- Node17 -->
<g id="node17" class="node"><title>Node17</title>
<g id="a_node17"><a xlink:href="../../d8/d68/class_c2_m2_1_1_interaction_1_1_raycast_press_events.html" target="_top" xlink:title="Store custom events that the corresponding RaycastTriggerManager will invoke">
<polygon fill="white" stroke="black" points="457,-1306.5 457,-1418.5 618,-1418.5 618,-1306.5 457,-1306.5"/>
<text text-anchor="start" x="465" y="-1406.5" font-family="Courier New" font-size="10.00">C2M2.Interaction.Raycast</text>
<text text-anchor="middle" x="537.5" y="-1395.5" font-family="Courier New" font-size="10.00">PressEvents</text>
<polyline fill="none" stroke="black" points="457,-1388.5 618,-1388.5 "/>
<text text-anchor="start" x="465" y="-1376.5" font-family="Courier New" font-size="10.00">+ OnPress</text>
<text text-anchor="start" x="465" y="-1365.5" font-family="Courier New" font-size="10.00">+ OnHoldPress</text>
<text text-anchor="start" x="465" y="-1354.5" font-family="Courier New" font-size="10.00">+ OnEndPress</text>
<polyline fill="none" stroke="black" points="457,-1347.5 618,-1347.5 "/>
<text text-anchor="start" x="465" y="-1335.5" font-family="Courier New" font-size="10.00">+ Press()</text>
<text text-anchor="start" x="465" y="-1324.5" font-family="Courier New" font-size="10.00">+ HoldPress()</text>
<text text-anchor="start" x="465" y="-1313.5" font-family="Courier New" font-size="10.00">+ EndPress()</text>
</a>
</g>
</g>
<!-- Node6&#45;&gt;Node17 -->
<g id="edge19" class="edge"><title>Node6&#45;&gt;Node17</title>
<path fill="none" stroke="midnightblue" d="M427.811,-1595.23C432.812,-1586.72 437.973,-1577.62 442.5,-1569 468.734,-1519.07 495.407,-1460.55 513.785,-1418.75"/>
<polygon fill="none" stroke="midnightblue" points="424.793,-1593.46 422.691,-1603.84 430.81,-1597.04 424.793,-1593.46"/>
</g>
<!-- Node7 -->
<g id="node7" class="node"><title>Node7</title>
<g id="a_node7"><a xlink:href="../../da/df6/class_c2_m2_1_1_neuronal_dynamics_1_1_u_g_x_1_1_neuron_cell.html" target="_top" xlink:title=" ">
<polygon fill="white" stroke="black" points="576,-926.5 576,-1115.5 749,-1115.5 749,-926.5 576,-926.5"/>
<text text-anchor="start" x="584" y="-1103.5" font-family="Courier New" font-size="10.00">C2M2.NeuronalDynamics.UGX.</text>
<text text-anchor="middle" x="662.5" y="-1092.5" font-family="Courier New" font-size="10.00">NeuronCell</text>
<polyline fill="none" stroke="black" points="576,-1085.5 749,-1085.5 "/>
<text text-anchor="start" x="584" y="-1073.5" font-family="Courier New" font-size="10.00">+ nodeData</text>
<text text-anchor="start" x="584" y="-1062.5" font-family="Courier New" font-size="10.00">+ edges</text>
<text text-anchor="start" x="584" y="-1051.5" font-family="Courier New" font-size="10.00">+ edgeLengths</text>
<text text-anchor="start" x="584" y="-1040.5" font-family="Courier New" font-size="10.00">+ boundaryID</text>
<text text-anchor="start" x="584" y="-1029.5" font-family="Courier New" font-size="10.00">+ somaID</text>
<text text-anchor="start" x="584" y="-1018.5" font-family="Courier New" font-size="10.00">+ vertCount</text>
<text text-anchor="start" x="584" y="-1007.5" font-family="Courier New" font-size="10.00">+ edgeCount</text>
<polyline fill="none" stroke="black" points="576,-1000.5 749,-1000.5 "/>
<text text-anchor="start" x="584" y="-988.5" font-family="Courier New" font-size="10.00">+ NeuronCell()</text>
<text text-anchor="start" x="584" y="-977.5" font-family="Courier New" font-size="10.00">+ NodeToString()</text>
<text text-anchor="start" x="584" y="-966.5" font-family="Courier New" font-size="10.00">+ EdgeToString()</text>
<text text-anchor="start" x="584" y="-955.5" font-family="Courier New" font-size="10.00">+ ToString()</text>
<text text-anchor="start" x="584" y="-944.5" font-family="Courier New" font-size="10.00">&#45; NodeNeighborsToString()</text>
<text text-anchor="start" x="584" y="-933.5" font-family="Courier New" font-size="10.00">&#45; GetEdgeLength()</text>
</a>
</g>
</g>
<!-- Node7&#45;&gt;Node2 -->
<g id="edge6" class="edge"><title>Node7&#45;&gt;Node2</title>
<path fill="none" stroke="#404040" d="M710.739,-926.481C724.237,-900.311 739.535,-870.654 755.227,-840.233"/>
<polygon fill="none" stroke="#404040" points="755.29,-840.11 754.486,-832.944 760.791,-829.445 761.595,-836.611 755.29,-840.11"/>
<text text-anchor="middle" x="774" y="-872.5" font-family="Courier New" font-size="10.00"> &#45;neuronCell</text>
</g>
<!-- Node8 -->
<g id="node8" class="node"><title>Node8</title>
<g id="a_node8"><a xlink:title=" ">
<polygon fill="white" stroke="#bfbfbf" points="636,-1334 636,-1391 689,-1391 689,-1334 636,-1334"/>
<text text-anchor="middle" x="662.5" y="-1379" font-family="Courier New" font-size="10.00">static</text>
<polyline fill="none" stroke="#bfbfbf" points="636,-1372 689,-1372 "/>
<text text-anchor="middle" x="662.5" y="-1360" font-family="Courier New" font-size="10.00"> </text>
<polyline fill="none" stroke="#bfbfbf" points="636,-1353 689,-1353 "/>
<text text-anchor="middle" x="662.5" y="-1341" font-family="Courier New" font-size="10.00"> </text>
</a>
</g>
</g>
<!-- Node8&#45;&gt;Node7 -->
<g id="edge7" class="edge"><title>Node8&#45;&gt;Node7</title>
<path fill="none" stroke="#404040" d="M662.5,-1333.72C662.5,-1289.26 662.5,-1199.82 662.5,-1128.11"/>
<polygon fill="none" stroke="#404040" points="662.5,-1127.85 658.5,-1121.85 662.5,-1115.85 666.5,-1121.85 662.5,-1127.85"/>
<text text-anchor="middle" x="717" y="-1181" font-family="Courier New" font-size="10.00"> &#45;nodeFormatString</text>
<text text-anchor="middle" x="717" y="-1170" font-family="Courier New" font-size="10.00">&#45;edgeFormatString</text>
<text text-anchor="middle" x="717" y="-1159" font-family="Courier New" font-size="10.00">&#45;cellFormatString</text>
</g>
<!-- Node8&#45;&gt;Node16 -->
<g id="edge17" class="edge"><title>Node8&#45;&gt;Node16</title>
<path fill="none" stroke="#404040" d="M661.546,-1333.98C659.248,-1301.33 651.606,-1246.36 626.5,-1207 619.519,-1196.06 612.597,-1198.26 603.5,-1189 590.659,-1175.93 577.985,-1161.53 565.912,-1146.82"/>
<polygon fill="none" stroke="#404040" points="565.617,-1146.45 558.733,-1144.31 558.07,-1137.12 564.953,-1139.27 565.617,-1146.45"/>
<text text-anchor="middle" x="631" y="-1170" font-family="Courier New" font-size="10.00"> &#45;nullHit</text>
</g>
<!-- Node9 -->
<g id="node9" class="node"><title>Node9</title>
<g id="a_node9"><a xlink:href="../../db/dbd/struct_c2_m2_1_1_neuronal_dynamics_1_1_simulation_1_1_vert3_d1_d_pair.html" target="_top" xlink:title="Stores two 1D indices and a lambda value for a 3D vertex">
<polygon fill="white" stroke="black" points="767,-970.5 767,-1071.5 982,-1071.5 982,-970.5 767,-970.5"/>
<text text-anchor="start" x="775" y="-1059.5" font-family="Courier New" font-size="10.00">C2M2.NeuronalDynamics.Simulation.</text>
<text text-anchor="middle" x="874.5" y="-1048.5" font-family="Courier New" font-size="10.00">Vert3D1DPair</text>
<polyline fill="none" stroke="black" points="767,-1041.5 982,-1041.5 "/>
<text text-anchor="start" x="775" y="-1029.5" font-family="Courier New" font-size="10.00">+ v1</text>
<text text-anchor="start" x="775" y="-1018.5" font-family="Courier New" font-size="10.00">+ v2</text>
<text text-anchor="start" x="775" y="-1007.5" font-family="Courier New" font-size="10.00">+ lambda</text>
<polyline fill="none" stroke="black" points="767,-1000.5 982,-1000.5 "/>
<text text-anchor="start" x="775" y="-988.5" font-family="Courier New" font-size="10.00">+ Vert3D1DPair()</text>
<text text-anchor="start" x="775" y="-977.5" font-family="Courier New" font-size="10.00">+ ToString()</text>
</a>
</g>
</g>
<!-- Node9&#45;&gt;Node2 -->
<g id="edge8" class="edge"><title>Node9&#45;&gt;Node2</title>
<path fill="none" stroke="#404040" d="M874.5,-970.424C874.5,-940.76 874.5,-900.581 874.5,-857.779"/>
<polygon fill="none" stroke="#404040" points="874.5,-857.643 870.5,-851.643 874.5,-845.643 878.5,-851.643 874.5,-857.643"/>
<text text-anchor="middle" x="890" y="-872.5" font-family="Courier New" font-size="10.00"> &#45;map</text>
</g>
<!-- Node10 -->
<g id="node10" class="node"><title>Node10</title>
<g id="a_node10"><a xlink:title=" ">
<polygon fill="white" stroke="#bfbfbf" points="1000,-992.5 1000,-1049.5 1041,-1049.5 1041,-992.5 1000,-992.5"/>
<text text-anchor="middle" x="1020.5" y="-1037.5" font-family="Courier New" font-size="10.00">C2M2</text>
<polyline fill="none" stroke="#bfbfbf" points="1000,-1030.5 1041,-1030.5 "/>
<text text-anchor="middle" x="1020.5" y="-1018.5" font-family="Courier New" font-size="10.00"> </text>
<polyline fill="none" stroke="#bfbfbf" points="1000,-1011.5 1041,-1011.5 "/>
<text text-anchor="middle" x="1020.5" y="-999.5" font-family="Courier New" font-size="10.00"> </text>
</a>
</g>
</g>
<!-- Node10&#45;&gt;Node2 -->
<g id="edge9" class="edge"><title>Node10&#45;&gt;Node2</title>
<path fill="none" stroke="#404040" d="M1014.28,-992.071C1008.78,-968.402 1000.13,-933.678 990.5,-904 985.51,-888.626 980.138,-872.897 974.537,-857.096"/>
<polygon fill="none" stroke="#404040" points="974.46,-856.881 968.674,-852.578 970.421,-845.582 976.207,-849.885 974.46,-856.881"/>
<text text-anchor="middle" x="1007" y="-878" font-family="Courier New" font-size="10.00"> &#45;grid1D</text>
<text text-anchor="middle" x="1007" y="-867" font-family="Courier New" font-size="10.00">&#45;grid2D</text>
</g>
<!-- Node11 -->
<g id="node11" class="node"><title>Node11</title>
<g id="a_node11"><a xlink:href="../../dd/d2a/struct_c2_m2_1_1_neuronal_dynamics_1_1_u_g_x_1_1_mapping_info.html" target="_top" xlink:title="Encapsulates the grids and mapping data">
<polygon fill="white" stroke="black" points="1059,-976 1059,-1066 1232,-1066 1232,-976 1059,-976"/>
<text text-anchor="start" x="1067" y="-1054" font-family="Courier New" font-size="10.00">C2M2.NeuronalDynamics.UGX.</text>
<text text-anchor="middle" x="1145.5" y="-1043" font-family="Courier New" font-size="10.00">MappingInfo</text>
<polyline fill="none" stroke="black" points="1059,-1036 1232,-1036 "/>
<text text-anchor="start" x="1067" y="-1024" font-family="Courier New" font-size="10.00">+ ModelGeometry</text>
<text text-anchor="start" x="1067" y="-1013" font-family="Courier New" font-size="10.00">+ SurfaceGeometry</text>
<text text-anchor="start" x="1067" y="-1002" font-family="Courier New" font-size="10.00">+ Data</text>
<polyline fill="none" stroke="black" points="1059,-995 1232,-995 "/>
<text text-anchor="start" x="1067" y="-983" font-family="Courier New" font-size="10.00">+ MappingInfo()</text>
</a>
</g>
</g>
<!-- Node11&#45;&gt;Node2 -->
<g id="edge10" class="edge"><title>Node11&#45;&gt;Node2</title>
<path fill="none" stroke="#404040" d="M1116.24,-975.625C1086.89,-931.111 1039.72,-859.567 994.798,-791.445"/>
<polygon fill="none" stroke="#404040" points="994.796,-791.441 988.153,-788.634 988.19,-781.423 994.832,-784.23 994.796,-791.441"/>
<text text-anchor="middle" x="1078" y="-872.5" font-family="Courier New" font-size="10.00"> &#45;mapping</text>
</g>
<!-- Node12 -->
<g id="node12" class="node"><title>Node12</title>
<g id="a_node12"><a xlink:href="../../d1/d08/class_c2_m2_1_1_neuronal_dynamics_1_1_visualization_1_1_v_r_n_1_1_vrn_reader.html" target="_top" xlink:title=" ">
<polygon fill="white" stroke="black" points="1250,-959.5 1250,-1082.5 1483,-1082.5 1483,-959.5 1250,-959.5"/>
<text text-anchor="start" x="1258" y="-1070.5" font-family="Courier New" font-size="10.00">C2M2.NeuronalDynamics.Visualization.</text>
<text text-anchor="middle" x="1366.5" y="-1059.5" font-family="Courier New" font-size="10.00">VRN.VrnReader</text>
<polyline fill="none" stroke="black" points="1250,-1052.5 1483,-1052.5 "/>
<text text-anchor="start" x="1258" y="-1040.5" font-family="Courier New" font-size="10.00">&#45; fileName</text>
<text text-anchor="start" x="1258" y="-1029.5" font-family="Courier New" font-size="10.00">&#45; loaded</text>
<polyline fill="none" stroke="black" points="1250,-1022.5 1483,-1022.5 "/>
<text text-anchor="start" x="1258" y="-1010.5" font-family="Courier New" font-size="10.00">+ List()</text>
<text text-anchor="start" x="1258" y="-999.5" font-family="Courier New" font-size="10.00">+ ReadUGX()</text>
<text text-anchor="start" x="1258" y="-988.5" font-family="Courier New" font-size="10.00">+ Retrieve1DMeshName()</text>
<text text-anchor="start" x="1258" y="-977.5" font-family="Courier New" font-size="10.00">+ Retrieve2DMeshName()</text>
<text text-anchor="start" x="1258" y="-966.5" font-family="Courier New" font-size="10.00">+ VrnReader()</text>
</a>
</g>
</g>
<!-- Node12&#45;&gt;Node2 -->
<g id="edge11" class="edge"><title>Node12&#45;&gt;Node2</title>
<path fill="none" stroke="#404040" d="M1302.17,-959.265C1282.6,-941.209 1260.88,-921.566 1240.5,-904 1161.21,-835.679 1069.52,-761.779 997.741,-705.035"/>
<polygon fill="none" stroke="#404040" points="997.614,-704.934 990.426,-704.355 988.197,-697.497 995.384,-698.077 997.614,-704.934"/>
<text text-anchor="middle" x="1246" y="-872.5" font-family="Courier New" font-size="10.00"> &#45;vrnReader</text>
</g>
<!-- Node13 -->
<g id="node13" class="node"><title>Node13</title>
<g id="a_node13"><a xlink:href="../../d9/d5c/class_c2_m2_1_1_neuronal_dynamics_1_1_visualization_1_1_v_r_n_1_1_vrn_reader_1_1_geometry.html" target="_top" xlink:title="Stores 1D and associated 2D geometries in the member geom1d">
<polygon fill="white" stroke="black" points="1250,-1328.5 1250,-1396.5 1483,-1396.5 1483,-1328.5 1250,-1328.5"/>
<text text-anchor="start" x="1258" y="-1384.5" font-family="Courier New" font-size="10.00">C2M2.NeuronalDynamics.Visualization.</text>
<text text-anchor="middle" x="1366.5" y="-1373.5" font-family="Courier New" font-size="10.00">VRN.VrnReader.Geometry</text>
<polyline fill="none" stroke="black" points="1250,-1366.5 1483,-1366.5 "/>
<text text-anchor="middle" x="1366.5" y="-1354.5" font-family="Courier New" font-size="10.00"> </text>
<polyline fill="none" stroke="black" points="1250,-1347.5 1483,-1347.5 "/>
<text text-anchor="start" x="1258" y="-1335.5" font-family="Courier New" font-size="10.00">+ Geometry()</text>
</a>
</g>
</g>
<!-- Node13&#45;&gt;Node12 -->
<g id="edge12" class="edge"><title>Node13&#45;&gt;Node12</title>
<path fill="none" stroke="#404040" d="M1366.5,-1328.33C1366.5,-1274.54 1366.5,-1167.06 1366.5,-1094.81"/>
<polygon fill="none" stroke="#404040" points="1366.5,-1094.65 1362.5,-1088.65 1366.5,-1082.65 1370.5,-1088.65 1366.5,-1094.65"/>
<text text-anchor="middle" x="1397" y="-1170" font-family="Courier New" font-size="10.00"> &#45;geometry</text>
</g>
<!-- Node14 -->
<g id="node14" class="node"><title>Node14</title>
<g id="a_node14"><a xlink:href="../../dd/df0/struct_c2_m2_1_1_neuronal_dynamics_1_1_visualization_1_1_v_r_n_1_1_vrn_reader_1_1_geom1d.html" target="_top" xlink:title="Stores the 1D geometries by name, refinement and a description Inflations are attached to the 1D geom...">
<polygon fill="white" stroke="black" points="1250,-1587.5 1250,-1677.5 1483,-1677.5 1483,-1587.5 1250,-1587.5"/>
<text text-anchor="start" x="1258" y="-1665.5" font-family="Courier New" font-size="10.00">C2M2.NeuronalDynamics.Visualization.</text>
<text text-anchor="middle" x="1366.5" y="-1654.5" font-family="Courier New" font-size="10.00">VRN.VrnReader.Geom1d</text>
<polyline fill="none" stroke="black" points="1250,-1647.5 1483,-1647.5 "/>
<text text-anchor="start" x="1258" y="-1635.5" font-family="Courier New" font-size="10.00">+ name</text>
<text text-anchor="start" x="1258" y="-1624.5" font-family="Courier New" font-size="10.00">+ refinement</text>
<text text-anchor="start" x="1258" y="-1613.5" font-family="Courier New" font-size="10.00">+ description</text>
<polyline fill="none" stroke="black" points="1250,-1606.5 1483,-1606.5 "/>
<text text-anchor="start" x="1258" y="-1594.5" font-family="Courier New" font-size="10.00">+ Geom1d()</text>
</a>
</g>
</g>
<!-- Node14&#45;&gt;Node13 -->
<g id="edge13" class="edge"><title>Node14&#45;&gt;Node13</title>
<path fill="none" stroke="#404040" d="M1366.5,-1587.25C1366.5,-1538.01 1366.5,-1458.86 1366.5,-1409.09"/>
<polygon fill="none" stroke="#404040" points="1366.5,-1408.8 1362.5,-1402.8 1366.5,-1396.8 1370.5,-1402.8 1366.5,-1408.8"/>
<text text-anchor="middle" x="1391" y="-1550" font-family="Courier New" font-size="10.00"> +geom1d</text>
</g>
<!-- Node15 -->
<g id="node15" class="node"><title>Node15</title>
<g id="a_node15"><a xlink:href="../../d8/daf/struct_c2_m2_1_1_neuronal_dynamics_1_1_visualization_1_1_v_r_n_1_1_vrn_reader_1_1_geom2d.html" target="_top" xlink:title="Stores the 2d geometries by name, inflation (factor), and description">
<polygon fill="white" stroke="black" points="1250,-1725.5 1250,-1815.5 1483,-1815.5 1483,-1725.5 1250,-1725.5"/>
<text text-anchor="start" x="1258" y="-1803.5" font-family="Courier New" font-size="10.00">C2M2.NeuronalDynamics.Visualization.</text>
<text text-anchor="middle" x="1366.5" y="-1792.5" font-family="Courier New" font-size="10.00">VRN.VrnReader.Geom2d</text>
<polyline fill="none" stroke="black" points="1250,-1785.5 1483,-1785.5 "/>
<text text-anchor="start" x="1258" y="-1773.5" font-family="Courier New" font-size="10.00">+ inflation</text>
<text text-anchor="start" x="1258" y="-1762.5" font-family="Courier New" font-size="10.00">+ name</text>
<text text-anchor="start" x="1258" y="-1751.5" font-family="Courier New" font-size="10.00">+ description</text>
<polyline fill="none" stroke="black" points="1250,-1744.5 1483,-1744.5 "/>
<text text-anchor="start" x="1258" y="-1732.5" font-family="Courier New" font-size="10.00">+ Geom2d()</text>
</a>
</g>
</g>
<!-- Node15&#45;&gt;Node14 -->
<g id="edge14" class="edge"><title>Node15&#45;&gt;Node14</title>
<path fill="none" stroke="#404040" d="M1366.5,-1725.34C1366.5,-1714.06 1366.5,-1701.78 1366.5,-1689.97"/>
<polygon fill="none" stroke="#404040" points="1366.5,-1689.9 1362.5,-1683.9 1366.5,-1677.9 1370.5,-1683.9 1366.5,-1689.9"/>
<text text-anchor="middle" x="1403" y="-1699" font-family="Courier New" font-size="10.00"> +inflations</text>
</g>
<!-- Node16&#45;&gt;Node2 -->
<g id="edge15" class="edge"><title>Node16&#45;&gt;Node2</title>
<path fill="none" stroke="#404040" d="M558.099,-913.573C560.9,-910.318 563.705,-907.119 566.5,-904 624.313,-839.489 693.612,-772.33 751.823,-718.416"/>
<polygon fill="none" stroke="#404040" points="751.882,-718.362 753.576,-711.352 760.698,-710.22 759.004,-717.229 751.882,-718.362"/>
<text text-anchor="middle" x="647" y="-872.5" font-family="Courier New" font-size="10.00"> &#45;raycastManager</text>
</g>
<!-- Node17&#45;&gt;Node16 -->
<g id="edge18" class="edge"><title>Node17&#45;&gt;Node16</title>
<path fill="none" stroke="#404040" d="M515.507,-1306.16C503.352,-1272.8 489.358,-1229.12 482.5,-1189 480.349,-1176.41 478.789,-1163.22 477.682,-1149.99"/>
<polygon fill="none" stroke="#404040" points="477.67,-1149.82 473.24,-1144.13 476.788,-1137.86 481.218,-1143.55 477.67,-1149.82"/>
<text text-anchor="middle" x="522" y="-1181" font-family="Courier New" font-size="10.00"> +leftTrigger</text>
<text text-anchor="middle" x="522" y="-1170" font-family="Courier New" font-size="10.00">+rightTrigger</text>
<text text-anchor="middle" x="522" y="-1159" font-family="Courier New" font-size="10.00">&#45;emptyTrigger</text>
</g>
<!-- Node18 -->
<g id="node18" class="node"><title>Node18</title>
<g id="a_node18"><a xlink:href="../../d2/d43/class_c2_m2_1_1_interaction_1_1_raycast_press_events_1_1_raycast_hit_event.html" target="_top" xlink:title=" ">
<polygon fill="white" stroke="black" points="471,-1598.5 471,-1666.5 650,-1666.5 650,-1598.5 471,-1598.5"/>
<text text-anchor="start" x="479" y="-1654.5" font-family="Courier New" font-size="10.00">C2M2.Interaction.Raycast</text>
<text text-anchor="middle" x="560.5" y="-1643.5" font-family="Courier New" font-size="10.00">PressEvents.RaycastHitEvent</text>
<polyline fill="none" stroke="black" points="471,-1636.5 650,-1636.5 "/>
<text text-anchor="middle" x="560.5" y="-1624.5" font-family="Courier New" font-size="10.00"> </text>
<polyline fill="none" stroke="black" points="471,-1617.5 650,-1617.5 "/>
<text text-anchor="middle" x="560.5" y="-1605.5" font-family="Courier New" font-size="10.00"> </text>
</a>
</g>
</g>
<!-- Node18&#45;&gt;Node17 -->
<g id="edge20" class="edge"><title>Node18&#45;&gt;Node17</title>
<path fill="none" stroke="#404040" d="M557.657,-1598.37C554.083,-1556.73 547.862,-1484.24 543.274,-1430.78"/>
<polygon fill="none" stroke="#404040" points="543.26,-1430.61 538.761,-1424.97 542.233,-1418.65 546.732,-1424.29 543.26,-1430.61"/>
<text text-anchor="middle" x="592" y="-1561" font-family="Courier New" font-size="10.00"> &#45;onPress</text>
<text text-anchor="middle" x="592" y="-1550" font-family="Courier New" font-size="10.00">&#45;onHoldPress</text>
<text text-anchor="middle" x="592" y="-1539" font-family="Courier New" font-size="10.00">&#45;onEndPress</text>
</g>
<!-- Node19 -->
<g id="node19" class="node"><title>Node19</title>
<g id="a_node19"><a xlink:title=" ">
<polygon fill="white" stroke="#bfbfbf" points="480,-1742 480,-1799 641,-1799 641,-1742 480,-1742"/>
<text text-anchor="middle" x="560.5" y="-1787" font-family="Courier New" font-size="10.00">UnityEvent&lt; RaycastHit &gt;</text>
<polyline fill="none" stroke="#bfbfbf" points="480,-1780 641,-1780 "/>
<text text-anchor="middle" x="560.5" y="-1768" font-family="Courier New" font-size="10.00"> </text>
<polyline fill="none" stroke="#bfbfbf" points="480,-1761 641,-1761 "/>
<text text-anchor="middle" x="560.5" y="-1749" font-family="Courier New" font-size="10.00"> </text>
</a>
</g>
</g>
<!-- Node19&#45;&gt;Node18 -->
<g id="edge21" class="edge"><title>Node19&#45;&gt;Node18</title>
<path fill="none" stroke="midnightblue" d="M560.5,-1731.78C560.5,-1711.38 560.5,-1686.41 560.5,-1666.75"/>
<polygon fill="none" stroke="midnightblue" points="557,-1731.98 560.5,-1741.98 564,-1731.98 557,-1731.98"/>
</g>
</g>
</svg>
        <g id="navigator" transform="translate(0 0)" fill="#404254">
                <rect fill="#f2f5e9" fill-opacity="0.5" stroke="#606060" stroke-width=".5" x="0" y="0" width="60" height="60"/>
                <use id="zoomplus" xlink:href="#zoomPlus" x="17" y="9" onmousedown="handleZoom(evt,'in')"/>
                <use id="zoomminus" xlink:href="#zoomMin" x="42" y="9" onmousedown="handleZoom(evt,'out')"/>
                <use id="reset" xlink:href="#resetDef" x="30" y="36" onmousedown="handleReset()"/>
                <g id="arrowUp" xlink:href="#dirArrow" transform="translate(30 24)" onmousedown="handlePan(0,-1)">
                  <use xlink:href="#rim" fill="#404040">
                        <set attributeName="fill" to="#808080" begin="arrowUp.mouseover" end="arrowUp.mouseout"/>
                  </use>
                  <path fill="none" stroke="white" stroke-width="1.5" d="M0,-3.0v7 M-2.5,-0.5L0,-3.0L2.5,-0.5"/>
                </g>
                <g id="arrowRight" xlink:href="#dirArrow" transform="rotate(90) translate(36 -43)" onmousedown="handlePan(1,0)">
                  <use xlink:href="#rim" fill="#404040">
                        <set attributeName="fill" to="#808080" begin="arrowRight.mouseover" end="arrowRight.mouseout"/>
                  </use>
                  <path fill="none" stroke="white" stroke-width="1.5" d="M0,-3.0v7 M-2.5,-0.5L0,-3.0L2.5,-0.5"/>
                </g>
                <g id="arrowDown" xlink:href="#dirArrow" transform="rotate(180) translate(-30 -48)" onmousedown="handlePan(0,1)">
                  <use xlink:href="#rim" fill="#404040">
                        <set attributeName="fill" to="#808080" begin="arrowDown.mouseover" end="arrowDown.mouseout"/>
                  </use>
                  <path fill="none" stroke="white" stroke-width="1.5" d="M0,-3.0v7 M-2.5,-0.5L0,-3.0L2.5,-0.5"/>
                </g>
                <g id="arrowLeft" xlink:href="#dirArrow" transform="rotate(270) translate(-36 17)" onmousedown="handlePan(-1,0)">
                  <use xlink:href="#rim" fill="#404040">
                        <set attributeName="fill" to="#808080" begin="arrowLeft.mouseover" end="arrowLeft.mouseout"/>
                  </use>
                  <path fill="none" stroke="white" stroke-width="1.5" d="M0,-3.0v7 M-2.5,-0.5L0,-3.0L2.5,-0.5"/>
                </g>
        </g>
        <svg viewBox="0 0 15 15" width="100%" height="30px" preserveAspectRatio="xMaxYMin meet">
         <g id="arrow_out" transform="scale(0.3 0.3)">
          <a xlink:href="class_c2_m2_1_1_neuronal_dynamics_1_1_simulation_1_1_cell_solver2_simple_diffusion__coll__graph_org.svg" target="_base">
           <rect id="button" ry="5" rx="5" y="6" x="6" height="38" width="38"
                fill="#f2f5e9" fill-opacity="0.5" stroke="#606060" stroke-width="1.0"/>
           <path id="arrow"
             d="M 11.500037,31.436501 C 11.940474,20.09759 22.043105,11.32322 32.158766,21.979434 L 37.068811,17.246167 C 37.068811,17.246167 37.088388,32 37.088388,32 L 22.160133,31.978069 C 22.160133,31.978069 26.997745,27.140456 26.997745,27.140456 C 18.528582,18.264221 13.291696,25.230495 11.500037,31.436501 z"
             style="fill:#404040;"/>
          </a>
         </g>
        </svg>
</svg>
