<?xml version="1.0" encoding="UTF-8" standalone="no"?>
<!DOCTYPE svg PUBLIC "-//W3C//DTD SVG 1.1//EN"
 "http://www.w3.org/Graphics/SVG/1.1/DTD/svg11.dtd">
<!-- Generated by graphviz version 2.38.0 (20140413.2041)
 -->
<!-- Title: C2M2.NeuronalDynamics.UGX.SynapseData Pages: 1 -->
<svg width="306pt" height="204pt"
 viewBox="0.00 0.00 306.00 204.00" xmlns="http://www.w3.org/2000/svg" xmlns:xlink="http://www.w3.org/1999/xlink">
<g id="graph0" class="graph" transform="scale(1 1) rotate(0) translate(4 200)">
<title>C2M2.NeuronalDynamics.UGX.SynapseData</title>
<polygon fill="white" stroke="none" points="-4,4 -4,-200 302,-200 302,4 -4,4"/>
<!-- Node1 -->
<g id="node1" class="node"><title>Node1</title>
<g id="a_node1"><a xlink:title="Data for synapse attachment">
<polygon fill="#bfbfbf" stroke="black" points="46,-0.5 46,-68.5 219,-68.5 219,-0.5 46,-0.5"/>
<text text-anchor="start" x="54" y="-56.5" font-family="Courier New" font-size="10.00">C2M2.NeuronalDynamics.UGX.</text>
<text text-anchor="middle" x="132.5" y="-45.5" font-family="Courier New" font-size="10.00">SynapseData</text>
<polyline fill="none" stroke="black" points="46,-38.5 219,-38.5 "/>
<text text-anchor="middle" x="132.5" y="-26.5" font-family="Courier New" font-size="10.00"> </text>
<polyline fill="none" stroke="black" points="46,-19.5 219,-19.5 "/>
<text text-anchor="start" x="54" y="-7.5" font-family="Courier New" font-size="10.00">+ SynapseData()</text>
</a>
</g>
</g>
<!-- Node2 -->
<g id="node2" class="node"><title>Node2</title>
<g id="a_node2"><a xlink:href="../../da/d2a/interface_c2_m2_1_1_neuronal_dynamics_1_1_u_g_x_1_1_i_attachment_data.html" target="_top" xlink:title="Marker interface for attachment data">
<polygon fill="white" stroke="black" points="0,-127.5 0,-184.5 107,-184.5 107,-127.5 0,-127.5"/>
<text text-anchor="middle" x="53.5" y="-172.5" font-family="Courier New" font-size="10.00">IAttachmentData</text>
<polyline fill="none" stroke="black" points="0,-165.5 107,-165.5 "/>
<text text-anchor="middle" x="53.5" y="-153.5" font-family="Courier New" font-size="10.00"> </text>
<polyline fill="none" stroke="black" points="0,-146.5 107,-146.5 "/>
<text text-anchor="middle" x="53.5" y="-134.5" font-family="Courier New" font-size="10.00"> </text>
</a>
</g>
</g>
<!-- Node2&#45;&gt;Node1 -->
<g id="edge1" class="edge"><title>Node2&#45;&gt;Node1</title>
<path fill="none" stroke="midnightblue" d="M77.4782,-118.729C88.0263,-102.774 100.33,-84.1616 110.625,-68.5891"/>
<polygon fill="none" stroke="midnightblue" points="74.4179,-117.012 71.8228,-127.284 80.2572,-120.872 74.4179,-117.012"/>
</g>
<!-- Node3 -->
<g id="node3" class="node"><title>Node3</title>
<g id="a_node3"><a xlink:href="../../d7/df5/interface_c2_m2_1_1_neuronal_dynamics_1_1_u_g_x_1_1_i_synapse.html" target="_top" xlink:title="A synapse respresentation">
<polygon fill="white" stroke="black" points="125,-116.5 125,-195.5 298,-195.5 298,-116.5 125,-116.5"/>
<text text-anchor="start" x="133" y="-183.5" font-family="Courier New" font-size="10.00">C2M2.NeuronalDynamics.UGX.</text>
<text text-anchor="middle" x="211.5" y="-172.5" font-family="Courier New" font-size="10.00">ISynapse</text>
<polyline fill="none" stroke="black" points="125,-165.5 298,-165.5 "/>
<text text-anchor="middle" x="211.5" y="-153.5" font-family="Courier New" font-size="10.00"> </text>
<polyline fill="none" stroke="black" points="125,-146.5 298,-146.5 "/>
<text text-anchor="start" x="133" y="-134.5" font-family="Courier New" font-size="10.00">+ GetType()</text>
<text text-anchor="start" x="133" y="-123.5" font-family="Courier New" font-size="10.00">+ GetCurrent()</text>
</a>
</g>
</g>
<!-- Node3&#45;&gt;Node1 -->
<g id="edge2" class="edge"><title>Node3&#45;&gt;Node1</title>
<path fill="none" stroke="#404040" d="M185.851,-116.202C178.045,-104.395 169.414,-91.3377 161.409,-79.2287"/>
<polygon fill="none" stroke="#404040" points="161.189,-78.897 154.544,-76.0978 154.572,-68.8867 161.217,-71.686 161.189,-78.897"/>
<text text-anchor="middle" x="200" y="-90" font-family="Courier New" font-size="10.00"> +Synapse</text>
</g>
</g>
</svg>
