<?xml version="1.0" encoding="UTF-8" standalone="no"?>
<!DOCTYPE svg PUBLIC "-//W3C//DTD SVG 1.1//EN"
 "http://www.w3.org/Graphics/SVG/1.1/DTD/svg11.dtd">
<!-- Generated by graphviz version 2.38.0 (20140413.2041)
 -->
<!-- Title: C2M2.NeuronalDynamics.UGX.MappingData Pages: 1 -->
<svg width="181pt" height="193pt"
 viewBox="0.00 0.00 181.00 193.00" xmlns="http://www.w3.org/2000/svg" xmlns:xlink="http://www.w3.org/1999/xlink">
<g id="graph0" class="graph" transform="scale(1 1) rotate(0) translate(4 189)">
<title>C2M2.NeuronalDynamics.UGX.MappingData</title>
<polygon fill="white" stroke="none" points="-4,4 -4,-189 177,-189 177,4 -4,4"/>
<!-- Node1 -->
<g id="node1" class="node"><title>Node1</title>
<g id="a_node1"><a xlink:title="Data for mapping attachment Used to read in mapping data which maps between 1d and 2d vertices">
<polygon fill="#bfbfbf" stroke="black" points="0,-0.5 0,-90.5 173,-90.5 173,-0.5 0,-0.5"/>
<text text-anchor="start" x="8" y="-78.5" font-family="Courier New" font-size="10.00">C2M2.NeuronalDynamics.UGX.</text>
<text text-anchor="middle" x="86.5" y="-67.5" font-family="Courier New" font-size="10.00">MappingData</text>
<polyline fill="none" stroke="black" points="0,-60.5 173,-60.5 "/>
<text text-anchor="start" x="8" y="-48.5" font-family="Courier New" font-size="10.00">+ Start</text>
<text text-anchor="start" x="8" y="-37.5" font-family="Courier New" font-size="10.00">+ End</text>
<text text-anchor="start" x="8" y="-26.5" font-family="Courier New" font-size="10.00">+ Lambda</text>
<polyline fill="none" stroke="black" points="0,-19.5 173,-19.5 "/>
<text text-anchor="start" x="8" y="-7.5" font-family="Courier New" font-size="10.00">+ MappingData()</text>
</a>
</g>
</g>
<!-- Node2 -->
<g id="node2" class="node"><title>Node2</title>
<g id="a_node2"><a xlink:href="../../da/d2a/interface_c2_m2_1_1_neuronal_dynamics_1_1_u_g_x_1_1_i_attachment_data.html" target="_top" xlink:title="Marker interface for attachment data">
<polygon fill="white" stroke="black" points="33,-127.5 33,-184.5 140,-184.5 140,-127.5 33,-127.5"/>
<text text-anchor="middle" x="86.5" y="-172.5" font-family="Courier New" font-size="10.00">IAttachmentData</text>
<polyline fill="none" stroke="black" points="33,-165.5 140,-165.5 "/>
<text text-anchor="middle" x="86.5" y="-153.5" font-family="Courier New" font-size="10.00"> </text>
<polyline fill="none" stroke="black" points="33,-146.5 140,-146.5 "/>
<text text-anchor="middle" x="86.5" y="-134.5" font-family="Courier New" font-size="10.00"> </text>
</a>
</g>
</g>
<!-- Node2&#45;&gt;Node1 -->
<g id="edge1" class="edge"><title>Node2&#45;&gt;Node1</title>
<path fill="none" stroke="midnightblue" d="M86.5,-117.214C86.5,-108.609 86.5,-99.3943 86.5,-90.5541"/>
<polygon fill="none" stroke="midnightblue" points="83.0001,-117.34 86.5,-127.34 90.0001,-117.34 83.0001,-117.34"/>
</g>
</g>
</svg>
