<?xml version="1.0" encoding="UTF-8" standalone="no"?>
<!DOCTYPE svg PUBLIC "-//W3C//DTD SVG 1.1//EN"
 "http://www.w3.org/Graphics/SVG/1.1/DTD/svg11.dtd">
<!-- Generated by graphviz version 2.38.0 (20140413.2041)
 -->
<!-- Title: C2M2.Utils.DebugUtils.Actions.XFramePause Pages: 1 -->
<svg width="205pt" height="171pt"
 viewBox="0.00 0.00 205.00 171.00" xmlns="http://www.w3.org/2000/svg" xmlns:xlink="http://www.w3.org/1999/xlink">
<g id="graph0" class="graph" transform="scale(1 1) rotate(0) translate(4 167)">
<title>C2M2.Utils.DebugUtils.Actions.XFramePause</title>
<polygon fill="white" stroke="none" points="-4,4 -4,-167 201,-167 201,4 -4,4"/>
<!-- Node1 -->
<g id="node1" class="node"><title>Node1</title>
<g id="a_node1"><a xlink:title=" ">
<polygon fill="#bfbfbf" stroke="black" points="0,-0.5 0,-68.5 197,-68.5 197,-0.5 0,-0.5"/>
<text text-anchor="start" x="8" y="-56.5" font-family="Courier New" font-size="10.00">C2M2.Utils.DebugUtils.Actions.</text>
<text text-anchor="middle" x="98.5" y="-45.5" font-family="Courier New" font-size="10.00">XFramePause</text>
<polyline fill="none" stroke="black" points="0,-38.5 197,-38.5 "/>
<text text-anchor="start" x="8" y="-26.5" font-family="Courier New" font-size="10.00">+ frameCount</text>
<polyline fill="none" stroke="black" points="0,-19.5 197,-19.5 "/>
<text text-anchor="start" x="8" y="-7.5" font-family="Courier New" font-size="10.00">&#45; Update()</text>
</a>
</g>
</g>
<!-- Node2 -->
<g id="node2" class="node"><title>Node2</title>
<g id="a_node2"><a xlink:title=" ">
<polygon fill="white" stroke="#bfbfbf" points="51,-105.5 51,-162.5 146,-162.5 146,-105.5 51,-105.5"/>
<text text-anchor="middle" x="98.5" y="-150.5" font-family="Courier New" font-size="10.00">MonoBehaviour</text>
<polyline fill="none" stroke="#bfbfbf" points="51,-143.5 146,-143.5 "/>
<text text-anchor="middle" x="98.5" y="-131.5" font-family="Courier New" font-size="10.00"> </text>
<polyline fill="none" stroke="#bfbfbf" points="51,-124.5 146,-124.5 "/>
<text text-anchor="middle" x="98.5" y="-112.5" font-family="Courier New" font-size="10.00"> </text>
</a>
</g>
</g>
<!-- Node2&#45;&gt;Node1 -->
<g id="edge1" class="edge"><title>Node2&#45;&gt;Node1</title>
<path fill="none" stroke="midnightblue" d="M98.5,-95.0631C98.5,-86.3933 98.5,-77.2431 98.5,-68.7855"/>
<polygon fill="none" stroke="midnightblue" points="95.0001,-95.3212 98.5,-105.321 102,-95.3212 95.0001,-95.3212"/>
</g>
</g>
</svg>
