<?xml version="1.0" encoding="UTF-8" standalone="no"?>
<!DOCTYPE svg PUBLIC "-//W3C//DTD SVG 1.1//EN"
 "http://www.w3.org/Graphics/SVG/1.1/DTD/svg11.dtd">
<!-- Generated by graphviz version 2.38.0 (20140413.2041)
 -->
<!-- Title: C2M2.NeuronalDynamics.UGX.MapNotBuildException Pages: 1 -->
<svg width="181pt" height="204pt"
 viewBox="0.00 0.00 181.00 204.00" xmlns="http://www.w3.org/2000/svg" xmlns:xlink="http://www.w3.org/1999/xlink">
<g id="graph0" class="graph" transform="scale(1 1) rotate(0) translate(4 200)">
<title>C2M2.NeuronalDynamics.UGX.MapNotBuildException</title>
<polygon fill="white" stroke="none" points="-4,4 -4,-200 177,-200 177,4 -4,4"/>
<!-- Node1 -->
<g id="node1" class="node"><title>Node1</title>
<g id="a_node1"><a xlink:title="Custom exception thrown if map could not be build">
<polygon fill="#bfbfbf" stroke="black" points="0,-0.5 0,-101.5 173,-101.5 173,-0.5 0,-0.5"/>
<text text-anchor="start" x="8" y="-89.5" font-family="Courier New" font-size="10.00">C2M2.NeuronalDynamics.UGX.</text>
<text text-anchor="middle" x="86.5" y="-78.5" font-family="Courier New" font-size="10.00">MapNotBuildException</text>
<polyline fill="none" stroke="black" points="0,-71.5 173,-71.5 "/>
<text text-anchor="middle" x="86.5" y="-59.5" font-family="Courier New" font-size="10.00"> </text>
<polyline fill="none" stroke="black" points="0,-52.5 173,-52.5 "/>
<text text-anchor="start" x="8" y="-40.5" font-family="Courier New" font-size="10.00">+ MapNotBuildException()</text>
<text text-anchor="start" x="8" y="-29.5" font-family="Courier New" font-size="10.00">+ MapNotBuildException()</text>
<text text-anchor="start" x="8" y="-18.5" font-family="Courier New" font-size="10.00">+ MapNotBuildException()</text>
<text text-anchor="start" x="8" y="-7.5" font-family="Courier New" font-size="10.00"># MapNotBuildException()</text>
</a>
</g>
</g>
<!-- Node2 -->
<g id="node2" class="node"><title>Node2</title>
<g id="a_node2"><a xlink:title=" ">
<polygon fill="white" stroke="#bfbfbf" points="51,-138.5 51,-195.5 122,-195.5 122,-138.5 51,-138.5"/>
<text text-anchor="middle" x="86.5" y="-183.5" font-family="Courier New" font-size="10.00">Exception</text>
<polyline fill="none" stroke="#bfbfbf" points="51,-176.5 122,-176.5 "/>
<text text-anchor="middle" x="86.5" y="-164.5" font-family="Courier New" font-size="10.00"> </text>
<polyline fill="none" stroke="#bfbfbf" points="51,-157.5 122,-157.5 "/>
<text text-anchor="middle" x="86.5" y="-145.5" font-family="Courier New" font-size="10.00"> </text>
</a>
</g>
</g>
<!-- Node2&#45;&gt;Node1 -->
<g id="edge1" class="edge"><title>Node2&#45;&gt;Node1</title>
<path fill="none" stroke="midnightblue" d="M86.5,-128.354C86.5,-119.796 86.5,-110.578 86.5,-101.608"/>
<polygon fill="none" stroke="midnightblue" points="83.0001,-128.404 86.5,-138.404 90.0001,-128.404 83.0001,-128.404"/>
</g>
</g>
</svg>
