<?xml version="1.0" encoding="UTF-8" standalone="no"?>
<!DOCTYPE svg PUBLIC "-//W3C//DTD SVG 1.1//EN"
 "http://www.w3.org/Graphics/SVG/1.1/DTD/svg11.dtd">
<!-- Generated by graphviz version 2.38.0 (20140413.2041)
 -->
<!-- Title: C2M2.OIT.Interaction.ParticleSystemController Pages: 1 -->
<svg width="461pt" height="684pt"
 viewBox="0.00 0.00 461.42 684.00" xmlns="http://www.w3.org/2000/svg" xmlns:xlink="http://www.w3.org/1999/xlink">
<g id="graph0" class="graph" transform="scale(1 1) rotate(0) translate(4 680)">
<title>C2M2.OIT.Interaction.ParticleSystemController</title>
<polygon fill="white" stroke="none" points="-4,4 -4,-680 457.42,-680 457.42,4 -4,4"/>
<!-- Node1 -->
<g id="node1" class="node"><title>Node1</title>
<g id="a_node1"><a xlink:title=" ">
<polygon fill="#bfbfbf" stroke="black" points="47.42,-0.5 47.42,-288.5 238.42,-288.5 238.42,-0.5 47.42,-0.5"/>
<text text-anchor="start" x="55.42" y="-276.5" font-family="Courier New" font-size="10.00">C2M2.OIT.Interaction.Particle</text>
<text text-anchor="middle" x="142.92" y="-265.5" font-family="Courier New" font-size="10.00">SystemController</text>
<polyline fill="none" stroke="black" points="47.42,-258.5 238.42,-258.5 "/>
<text text-anchor="start" x="55.42" y="-246.5" font-family="Courier New" font-size="10.00">+ numberOfParticles</text>
<text text-anchor="start" x="55.42" y="-235.5" font-family="Courier New" font-size="10.00">+ particleSize</text>
<text text-anchor="start" x="55.42" y="-224.5" font-family="Courier New" font-size="10.00">+ maxValues</text>
<text text-anchor="start" x="55.42" y="-213.5" font-family="Courier New" font-size="10.00">+ minValues</text>
<text text-anchor="start" x="55.42" y="-202.5" font-family="Courier New" font-size="10.00">+ isoquantHigh</text>
<text text-anchor="start" x="55.42" y="-191.5" font-family="Courier New" font-size="10.00">+ isoquantLow</text>
<text text-anchor="start" x="55.42" y="-180.5" font-family="Courier New" font-size="10.00">&#45; particles</text>
<text text-anchor="start" x="55.42" y="-169.5" font-family="Courier New" font-size="10.00">&#45; particlesUpdated</text>
<text text-anchor="start" x="55.42" y="-158.5" font-family="Courier New" font-size="10.00">&#45; particleSys</text>
<text text-anchor="start" x="55.42" y="-147.5" font-family="Courier New" font-size="10.00">&#45; particleSysRend</text>
<text text-anchor="start" x="55.42" y="-136.5" font-family="Courier New" font-size="10.00">&#45; newPositions</text>
<text text-anchor="start" x="55.42" y="-125.5" font-family="Courier New" font-size="10.00">&#45; newColors</text>
<text text-anchor="start" x="55.42" y="-114.5" font-family="Courier New" font-size="10.00">&#45; particleNumberChangeHolder</text>
<text text-anchor="start" x="55.42" y="-103.5" font-family="Courier New" font-size="10.00">&#45; particleSizeChangeHolder</text>
<text text-anchor="start" x="55.42" y="-92.5" font-family="Courier New" font-size="10.00">&#45; maxValueHolder</text>
<text text-anchor="start" x="55.42" y="-81.5" font-family="Courier New" font-size="10.00">&#45; minValueHolder</text>
<text text-anchor="start" x="55.42" y="-70.5" font-family="Courier New" font-size="10.00">&#45; isoquantHighHolder</text>
<text text-anchor="start" x="55.42" y="-59.5" font-family="Courier New" font-size="10.00">&#45; isoquantLowHolder</text>
<polyline fill="none" stroke="black" points="47.42,-52.5 238.42,-52.5 "/>
<text text-anchor="start" x="55.42" y="-40.5" font-family="Courier New" font-size="10.00">+ UpdateParticles()</text>
<text text-anchor="start" x="55.42" y="-29.5" font-family="Courier New" font-size="10.00">+ UpdateParticleSize()</text>
<text text-anchor="start" x="55.42" y="-18.5" font-family="Courier New" font-size="10.00">&#45; Start()</text>
<text text-anchor="start" x="55.42" y="-7.5" font-family="Courier New" font-size="10.00">&#45; Update()</text>
</a>
</g>
</g>
<!-- Node2 -->
<g id="node2" class="node"><title>Node2</title>
<g id="a_node2"><a xlink:title=" ">
<polygon fill="white" stroke="#bfbfbf" points="95.42,-618.5 95.42,-675.5 190.42,-675.5 190.42,-618.5 95.42,-618.5"/>
<text text-anchor="middle" x="142.92" y="-663.5" font-family="Courier New" font-size="10.00">MonoBehaviour</text>
<polyline fill="none" stroke="#bfbfbf" points="95.42,-656.5 190.42,-656.5 "/>
<text text-anchor="middle" x="142.92" y="-644.5" font-family="Courier New" font-size="10.00"> </text>
<polyline fill="none" stroke="#bfbfbf" points="95.42,-637.5 190.42,-637.5 "/>
<text text-anchor="middle" x="142.92" y="-625.5" font-family="Courier New" font-size="10.00"> </text>
</a>
</g>
</g>
<!-- Node2&#45;&gt;Node1 -->
<g id="edge1" class="edge"><title>Node2&#45;&gt;Node1</title>
<path fill="none" stroke="midnightblue" d="M86.046,-626.683C65.2026,-616.527 43.8198,-601.758 31.92,-581 -22.234,-486.532 3.52793,-441.122 31.92,-336 36.2117,-320.11 42.1933,-304.183 49.1761,-288.681"/>
<polygon fill="none" stroke="midnightblue" points="84.6824,-629.908 95.2314,-630.893 87.5992,-623.544 84.6824,-629.908"/>
</g>
<!-- Node3 -->
<g id="node3" class="node"><title>Node3</title>
<g id="a_node3"><a xlink:href="../../de/dbc/class_c2_m2_1_1_o_i_t_1_1_visualization_1_1_particle_system_ascii_data_reader.html" target="_top" xlink:title="Read and store ascii data representing particle data">
<polygon fill="white" stroke="black" points="41.42,-353 41.42,-564 244.42,-564 244.42,-353 41.42,-353"/>
<text text-anchor="start" x="49.42" y="-552" font-family="Courier New" font-size="10.00">C2M2.OIT.Visualization.Particle</text>
<text text-anchor="middle" x="142.92" y="-541" font-family="Courier New" font-size="10.00">SystemAsciiDataReader</text>
<polyline fill="none" stroke="black" points="41.42,-534 244.42,-534 "/>
<text text-anchor="start" x="49.42" y="-522" font-family="Courier New" font-size="10.00">+ assets</text>
<text text-anchor="start" x="49.42" y="-511" font-family="Courier New" font-size="10.00">+ RoomObject</text>
<text text-anchor="start" x="49.42" y="-500" font-family="Courier New" font-size="10.00">+ reduceBy</text>
<text text-anchor="start" x="49.42" y="-489" font-family="Courier New" font-size="10.00">+ dataSetList</text>
<text text-anchor="start" x="49.42" y="-478" font-family="Courier New" font-size="10.00">+ colorFloatMax</text>
<text text-anchor="start" x="49.42" y="-467" font-family="Courier New" font-size="10.00">+ colorFloatMin</text>
<text text-anchor="start" x="49.42" y="-456" font-family="Courier New" font-size="10.00">&#45; assetString</text>
<text text-anchor="start" x="49.42" y="-445" font-family="Courier New" font-size="10.00">&#45; currentLine</text>
<text text-anchor="start" x="49.42" y="-434" font-family="Courier New" font-size="10.00">&#45; sR</text>
<text text-anchor="start" x="49.42" y="-423" font-family="Courier New" font-size="10.00">&#45; currentLineSplit</text>
<text text-anchor="start" x="49.42" y="-412" font-family="Courier New" font-size="10.00">&#45; backupdataSetList</text>
<polyline fill="none" stroke="black" points="41.42,-405 244.42,-405 "/>
<text text-anchor="start" x="49.42" y="-393" font-family="Courier New" font-size="10.00">+ InitializeParticleData()</text>
<text text-anchor="start" x="49.42" y="-382" font-family="Courier New" font-size="10.00">&#45; InitializeInformationLists()</text>
<text text-anchor="start" x="49.42" y="-371" font-family="Courier New" font-size="10.00">&#45; CreateStringReader()</text>
<text text-anchor="start" x="49.42" y="-360" font-family="Courier New" font-size="10.00">&#45; CloseStringReader()</text>
</a>
</g>
</g>
<!-- Node2&#45;&gt;Node3 -->
<g id="edge3" class="edge"><title>Node2&#45;&gt;Node3</title>
<path fill="none" stroke="midnightblue" d="M142.92,-608.168C142.92,-595.216 142.92,-580.027 142.92,-564.393"/>
<polygon fill="none" stroke="midnightblue" points="139.42,-608.481 142.92,-618.481 146.42,-608.481 139.42,-608.481"/>
</g>
<!-- Node4 -->
<g id="node4" class="node"><title>Node4</title>
<g id="a_node4"><a xlink:href="../../d2/d3c/class_c2_m2_1_1_o_i_t_1_1_interaction_1_1_particle_field_handle_controller.html" target="_top" xlink:title=" ">
<polygon fill="white" stroke="black" points="262.42,-336.5 262.42,-580.5 453.42,-580.5 453.42,-336.5 262.42,-336.5"/>
<text text-anchor="start" x="270.42" y="-568.5" font-family="Courier New" font-size="10.00">C2M2.OIT.Interaction.Particle</text>
<text text-anchor="middle" x="357.92" y="-557.5" font-family="Courier New" font-size="10.00">FieldHandleController</text>
<polyline fill="none" stroke="black" points="262.42,-550.5 453.42,-550.5 "/>
<text text-anchor="start" x="270.42" y="-538.5" font-family="Courier New" font-size="10.00">+ xMinMarker</text>
<text text-anchor="start" x="270.42" y="-527.5" font-family="Courier New" font-size="10.00">+ xMaxMarker</text>
<text text-anchor="start" x="270.42" y="-516.5" font-family="Courier New" font-size="10.00">+ yMinMarker</text>
<text text-anchor="start" x="270.42" y="-505.5" font-family="Courier New" font-size="10.00">+ yMaxMarker</text>
<text text-anchor="start" x="270.42" y="-494.5" font-family="Courier New" font-size="10.00">+ zMinMarker</text>
<text text-anchor="start" x="270.42" y="-483.5" font-family="Courier New" font-size="10.00">+ zMaxMarker</text>
<text text-anchor="start" x="270.42" y="-472.5" font-family="Courier New" font-size="10.00">+ xMinCollider</text>
<text text-anchor="start" x="270.42" y="-461.5" font-family="Courier New" font-size="10.00">+ xMaxCollider</text>
<text text-anchor="start" x="270.42" y="-450.5" font-family="Courier New" font-size="10.00">+ yMinCollider</text>
<text text-anchor="start" x="270.42" y="-439.5" font-family="Courier New" font-size="10.00">+ yMaxCollider</text>
<text text-anchor="start" x="270.42" y="-428.5" font-family="Courier New" font-size="10.00">+ zMinCollider</text>
<text text-anchor="start" x="270.42" y="-417.5" font-family="Courier New" font-size="10.00">+ zMaxCollider</text>
<text text-anchor="start" x="270.42" y="-406.5" font-family="Courier New" font-size="10.00">&#45; minVector</text>
<text text-anchor="start" x="270.42" y="-395.5" font-family="Courier New" font-size="10.00">&#45; maxVector</text>
<polyline fill="none" stroke="black" points="262.42,-388.5 453.42,-388.5 "/>
<text text-anchor="start" x="270.42" y="-376.5" font-family="Courier New" font-size="10.00">+ UpdateHandlePositions()</text>
<text text-anchor="start" x="270.42" y="-365.5" font-family="Courier New" font-size="10.00">+ GetMinVector()</text>
<text text-anchor="start" x="270.42" y="-354.5" font-family="Courier New" font-size="10.00">+ GetMaxVector()</text>
<text text-anchor="start" x="270.42" y="-343.5" font-family="Courier New" font-size="10.00">&#45; Update()</text>
</a>
</g>
</g>
<!-- Node2&#45;&gt;Node4 -->
<g id="edge5" class="edge"><title>Node2&#45;&gt;Node4</title>
<path fill="none" stroke="midnightblue" d="M199.798,-617.085C217.623,-606.819 236.828,-594.442 252.92,-581 256.022,-578.408 259.11,-575.721 262.175,-572.956"/>
<polygon fill="none" stroke="midnightblue" points="197.618,-614.296 190.625,-622.256 201.055,-620.394 197.618,-614.296"/>
</g>
<!-- Node3&#45;&gt;Node1 -->
<g id="edge2" class="edge"><title>Node3&#45;&gt;Node1</title>
<path fill="none" stroke="#404040" d="M142.92,-352.741C142.92,-335.984 142.92,-318.339 142.92,-300.708"/>
<polygon fill="none" stroke="#404040" points="142.92,-300.516 138.92,-294.516 142.92,-288.516 146.92,-294.516 142.92,-300.516"/>
<text text-anchor="middle" x="197.42" y="-310" font-family="Courier New" font-size="10.00"> &#45;particleTextData</text>
</g>
<!-- Node4&#45;&gt;Node1 -->
<g id="edge4" class="edge"><title>Node4&#45;&gt;Node1</title>
<path fill="none" stroke="#404040" d="M275.961,-336.233C269.199,-326.331 262.454,-316.489 255.92,-307 252.49,-302.019 248.995,-296.957 245.461,-291.848"/>
<polygon fill="none" stroke="#404040" points="245.454,-291.838 238.75,-289.183 238.622,-281.973 245.326,-284.628 245.454,-291.838"/>
<text text-anchor="middle" x="340.42" y="-310" font-family="Courier New" font-size="10.00"> &#45;particleHandleController</text>
</g>
</g>
</svg>
