<?xml version="1.0" encoding="UTF-8" standalone="no"?>
<!DOCTYPE svg PUBLIC "-//W3C//DTD SVG 1.1//EN"
 "http://www.w3.org/Graphics/SVG/1.1/DTD/svg11.dtd">
<!-- Generated by graphviz version 2.38.0 (20140413.2041)
 -->
<!-- Title: C2M2.Interaction.Adjacency.DijkstraSearch Pages: 1 -->
<!--zoomable 613 -->
<svg id="main" version="1.1" xmlns="http://www.w3.org/2000/svg" xmlns:xlink="http://www.w3.org/1999/xlink" xml:space="preserve" onload="init(evt)">
<style type="text/css"><![CDATA[
.edge:hover path { stroke: red; }
.edge:hover polygon { stroke: red; fill: red; }
]]></style>
<script type="text/javascript"><![CDATA[
var edges = document.getElementsByTagName('g');
if (edges && edges.length) {
  for (var i=0;i<edges.length;i++) {
    if (edges[i].id.substr(0,4)=='edge') {
      edges[i].setAttribute('class','edge');
    }
  }
}
]]></script>
        <defs>
                <circle id="rim" cx="0" cy="0" r="7"/>
                <circle id="rim2" cx="0" cy="0" r="3.5"/>
                <g id="zoomPlus">
                        <use xlink:href="#rim" fill="#404040">
                                <set attributeName="fill" to="#808080" begin="zoomplus.mouseover" end="zoomplus.mouseout"/>
                        </use>
                        <path d="M-4,0h8M0,-4v8" fill="none" stroke="white" stroke-width="1.5" pointer-events="none"/>
                </g>
                <g id="zoomMin">
                        <use xlink:href="#rim" fill="#404040">
                                <set attributeName="fill" to="#808080" begin="zoomminus.mouseover" end="zoomminus.mouseout"/>
                        </use>
                        <path d="M-4,0h8" fill="none" stroke="white" stroke-width="1.5" pointer-events="none"/>
                </g>
                <g id="dirArrow">
                        <path fill="none" stroke="white" stroke-width="1.5" d="M0,-3.0v7 M-2.5,-0.5L0,-3.0L2.5,-0.5"/>
                </g>
               <g id="resetDef">
                       <use xlink:href="#rim2" fill="#404040">
                               <set attributeName="fill" to="#808080" begin="reset.mouseover" end="reset.mouseout"/>
                       </use>
               </g>
        </defs>

<script type="text/javascript">
var viewWidth = 392;
var viewHeight = 613;
var sectionId = 'dynsection-1';
</script>
<script xlink:href="../../svgpan.js"/>
<svg id="graph" class="graph">
<g id="viewport">
<title>C2M2.Interaction.Adjacency.DijkstraSearch</title>
<polygon fill="white" stroke="none" points="-4,4 -4,-609 388,-609 388,4 -4,4"/>
<!-- Node1 -->
<g id="node1" class="node"><title>Node1</title>
<g id="a_node1"><a xlink:title=" ">
<polygon fill="#bfbfbf" stroke="black" points="0,-0.5 0,-79.5 179,-79.5 179,-0.5 0,-0.5"/>
<text text-anchor="start" x="8" y="-67.5" font-family="Courier New" font-size="10.00">C2M2.Interaction.Adjacency.</text>
<text text-anchor="middle" x="89.5" y="-56.5" font-family="Courier New" font-size="10.00">DijkstraSearch</text>
<polyline fill="none" stroke="black" points="0,-49.5 179,-49.5 "/>
<text text-anchor="start" x="8" y="-37.5" font-family="Courier New" font-size="10.00">+ minDistances</text>
<polyline fill="none" stroke="black" points="0,-30.5 179,-30.5 "/>
<text text-anchor="start" x="8" y="-18.5" font-family="Courier New" font-size="10.00">+ Search()</text>
<text text-anchor="start" x="8" y="-7.5" font-family="Courier New" font-size="10.00">&#45; Awake()</text>
</a>
</g>
</g>
<!-- Node2 -->
<g id="node2" class="node"><title>Node2</title>
<g id="a_node2"><a xlink:title=" ">
<polygon fill="white" stroke="#bfbfbf" points="122,-547.5 122,-604.5 217,-604.5 217,-547.5 122,-547.5"/>
<text text-anchor="middle" x="169.5" y="-592.5" font-family="Courier New" font-size="10.00">MonoBehaviour</text>
<polyline fill="none" stroke="#bfbfbf" points="122,-585.5 217,-585.5 "/>
<text text-anchor="middle" x="169.5" y="-573.5" font-family="Courier New" font-size="10.00"> </text>
<polyline fill="none" stroke="#bfbfbf" points="122,-566.5 217,-566.5 "/>
<text text-anchor="middle" x="169.5" y="-554.5" font-family="Courier New" font-size="10.00"> </text>
</a>
</g>
</g>
<!-- Node2&#45;&gt;Node1 -->
<g id="edge1" class="edge"><title>Node2&#45;&gt;Node1</title>
<path fill="none" stroke="midnightblue" d="M112.466,-556.661C90.6484,-546.547 68.0175,-531.546 55.5,-510 -26.1085,-369.527 39.7037,-164.046 73.0565,-79.507"/>
<polygon fill="none" stroke="midnightblue" points="111.169,-559.914 121.735,-560.702 113.966,-553.497 111.169,-559.914"/>
</g>
<!-- Node3 -->
<g id="node3" class="node"><title>Node3</title>
<g id="a_node3"><a xlink:href="../../d2/d9a/class_c2_m2_1_1_interaction_1_1_adjacency_1_1_unique_vertices.html" target="_top" xlink:title="Get the unique vertices of a mesh and add invisible vertices for adjacency list">
<polygon fill="white" stroke="black" points="65,-331.5 65,-509.5 274,-509.5 274,-331.5 65,-331.5"/>
<text text-anchor="start" x="73" y="-497.5" font-family="Courier New" font-size="10.00">C2M2.Interaction.Adjacency.</text>
<text text-anchor="middle" x="169.5" y="-486.5" font-family="Courier New" font-size="10.00">UniqueVertices</text>
<polyline fill="none" stroke="black" points="65,-479.5 274,-479.5 "/>
<text text-anchor="start" x="73" y="-467.5" font-family="Courier New" font-size="10.00">+ subdivisions</text>
<text text-anchor="start" x="73" y="-456.5" font-family="Courier New" font-size="10.00">+ uniqueVerts</text>
<text text-anchor="start" x="73" y="-445.5" font-family="Courier New" font-size="10.00">+ uniqueMeshVertLength</text>
<text text-anchor="start" x="73" y="-434.5" font-family="Courier New" font-size="10.00">+ uniqueVertReverseLookup</text>
<text text-anchor="start" x="73" y="-423.5" font-family="Courier New" font-size="10.00">&#45; vertices</text>
<text text-anchor="start" x="73" y="-412.5" font-family="Courier New" font-size="10.00">&#45; triangles</text>
<polyline fill="none" stroke="black" points="65,-405.5 274,-405.5 "/>
<text text-anchor="start" x="73" y="-393.5" font-family="Courier New" font-size="10.00">+ FindNearestUniqueVert()</text>
<text text-anchor="start" x="73" y="-382.5" font-family="Courier New" font-size="10.00">+ RaycastFindNearestUnique</text>
<text text-anchor="start" x="73" y="-371.5" font-family="Courier New" font-size="10.00">Verts()</text>
<text text-anchor="start" x="73" y="-360.5" font-family="Courier New" font-size="10.00">&#45; Awake()</text>
<text text-anchor="start" x="73" y="-349.5" font-family="Courier New" font-size="10.00">&#45; BuildInvisibleVerts()</text>
<text text-anchor="start" x="73" y="-338.5" font-family="Courier New" font-size="10.00">&#45; BuildUniqueVertReverseLookup()</text>
</a>
</g>
</g>
<!-- Node2&#45;&gt;Node3 -->
<g id="edge3" class="edge"><title>Node2&#45;&gt;Node3</title>
<path fill="none" stroke="midnightblue" d="M169.5,-536.957C169.5,-528.471 169.5,-519.13 169.5,-509.549"/>
<polygon fill="none" stroke="midnightblue" points="166,-537.202 169.5,-547.202 173,-537.202 166,-537.202"/>
</g>
<!-- Node4 -->
<g id="node4" class="node"><title>Node4</title>
<g id="a_node4"><a xlink:href="../../d1/d3e/class_c2_m2_1_1_interaction_1_1_adjacency_1_1_adjacency_list.html" target="_top" xlink:title=" ">
<polygon fill="white" stroke="black" points="205,-127.5 205,-283.5 384,-283.5 384,-127.5 205,-127.5"/>
<text text-anchor="start" x="213" y="-271.5" font-family="Courier New" font-size="10.00">C2M2.Interaction.Adjacency.</text>
<text text-anchor="middle" x="294.5" y="-260.5" font-family="Courier New" font-size="10.00">AdjacencyList</text>
<polyline fill="none" stroke="black" points="205,-253.5 384,-253.5 "/>
<text text-anchor="start" x="213" y="-241.5" font-family="Courier New" font-size="10.00">+ adjacencyList</text>
<text text-anchor="start" x="213" y="-230.5" font-family="Courier New" font-size="10.00">+ edgeList</text>
<text text-anchor="start" x="213" y="-219.5" font-family="Courier New" font-size="10.00">+ edgeCount</text>
<text text-anchor="start" x="213" y="-208.5" font-family="Courier New" font-size="10.00">&#45; mesh</text>
<text text-anchor="start" x="213" y="-197.5" font-family="Courier New" font-size="10.00">&#45; vertices</text>
<text text-anchor="start" x="213" y="-186.5" font-family="Courier New" font-size="10.00">&#45; triangles</text>
<text text-anchor="start" x="213" y="-175.5" font-family="Courier New" font-size="10.00">&#45; duplicate</text>
<polyline fill="none" stroke="black" points="205,-168.5 384,-168.5 "/>
<text text-anchor="start" x="213" y="-156.5" font-family="Courier New" font-size="10.00">&#45; Awake()</text>
<text text-anchor="start" x="213" y="-145.5" font-family="Courier New" font-size="10.00">&#45; CreateAdjacencyList()</text>
<text text-anchor="start" x="213" y="-134.5" font-family="Courier New" font-size="10.00">&#45; AdjacencyListAddEdge()</text>
</a>
</g>
</g>
<!-- Node2&#45;&gt;Node4 -->
<g id="edge5" class="edge"><title>Node2&#45;&gt;Node4</title>
<path fill="none" stroke="midnightblue" d="M226.437,-555.918C247.751,-545.753 269.844,-530.915 282.5,-510 323.654,-441.988 320.5,-348.833 310.951,-283.731"/>
<polygon fill="none" stroke="midnightblue" points="224.749,-552.839 217.059,-560.128 227.616,-559.225 224.749,-552.839"/>
</g>
<!-- Node3&#45;&gt;Node1 -->
<g id="edge2" class="edge"><title>Node3&#45;&gt;Node1</title>
<path fill="none" stroke="#404040" d="M116.265,-331.41C109.076,-316.066 102.73,-299.913 98.5,-284 81.3018,-219.308 81.9555,-141.53 84.9445,-91.6956"/>
<polygon fill="none" stroke="#404040" points="84.949,-91.6264 81.356,-85.3742 85.7453,-79.6528 89.3384,-85.905 84.949,-91.6264"/>
<text text-anchor="middle" x="147" y="-203" font-family="Courier New" font-size="10.00"> &#45;uniqueVertices</text>
</g>
<!-- Node3&#45;&gt;Node4 -->
<g id="edge6" class="edge"><title>Node3&#45;&gt;Node4</title>
<path fill="none" stroke="#404040" d="M179.573,-331.346C182.594,-321.105 186.488,-311.086 191.5,-302 193.414,-298.53 195.5,-295.116 197.729,-291.765"/>
<polygon fill="none" stroke="#404040" points="197.811,-291.651 198.063,-284.444 204.813,-281.905 204.56,-289.112 197.811,-291.651"/>
<text text-anchor="middle" x="240" y="-305" font-family="Courier New" font-size="10.00"> &#45;uniqueVertices</text>
</g>
<!-- Node4&#45;&gt;Node1 -->
<g id="edge4" class="edge"><title>Node4&#45;&gt;Node1</title>
<path fill="none" stroke="#404040" d="M204.882,-133.024C185.429,-117.509 165.346,-101.492 147.497,-87.2565"/>
<polygon fill="none" stroke="#404040" points="147.211,-87.0283 140.026,-86.4142 137.83,-79.5458 145.015,-80.1598 147.211,-87.0283"/>
<text text-anchor="middle" x="220" y="-101" font-family="Courier New" font-size="10.00"> &#45;adjacencyList</text>
</g>
</g>
</svg>
        <g id="navigator" transform="translate(0 0)" fill="#404254">
                <rect fill="#f2f5e9" fill-opacity="0.5" stroke="#606060" stroke-width=".5" x="0" y="0" width="60" height="60"/>
                <use id="zoomplus" xlink:href="#zoomPlus" x="17" y="9" onmousedown="handleZoom(evt,'in')"/>
                <use id="zoomminus" xlink:href="#zoomMin" x="42" y="9" onmousedown="handleZoom(evt,'out')"/>
                <use id="reset" xlink:href="#resetDef" x="30" y="36" onmousedown="handleReset()"/>
                <g id="arrowUp" xlink:href="#dirArrow" transform="translate(30 24)" onmousedown="handlePan(0,-1)">
                  <use xlink:href="#rim" fill="#404040">
                        <set attributeName="fill" to="#808080" begin="arrowUp.mouseover" end="arrowUp.mouseout"/>
                  </use>
                  <path fill="none" stroke="white" stroke-width="1.5" d="M0,-3.0v7 M-2.5,-0.5L0,-3.0L2.5,-0.5"/>
                </g>
                <g id="arrowRight" xlink:href="#dirArrow" transform="rotate(90) translate(36 -43)" onmousedown="handlePan(1,0)">
                  <use xlink:href="#rim" fill="#404040">
                        <set attributeName="fill" to="#808080" begin="arrowRight.mouseover" end="arrowRight.mouseout"/>
                  </use>
                  <path fill="none" stroke="white" stroke-width="1.5" d="M0,-3.0v7 M-2.5,-0.5L0,-3.0L2.5,-0.5"/>
                </g>
                <g id="arrowDown" xlink:href="#dirArrow" transform="rotate(180) translate(-30 -48)" onmousedown="handlePan(0,1)">
                  <use xlink:href="#rim" fill="#404040">
                        <set attributeName="fill" to="#808080" begin="arrowDown.mouseover" end="arrowDown.mouseout"/>
                  </use>
                  <path fill="none" stroke="white" stroke-width="1.5" d="M0,-3.0v7 M-2.5,-0.5L0,-3.0L2.5,-0.5"/>
                </g>
                <g id="arrowLeft" xlink:href="#dirArrow" transform="rotate(270) translate(-36 17)" onmousedown="handlePan(-1,0)">
                  <use xlink:href="#rim" fill="#404040">
                        <set attributeName="fill" to="#808080" begin="arrowLeft.mouseover" end="arrowLeft.mouseout"/>
                  </use>
                  <path fill="none" stroke="white" stroke-width="1.5" d="M0,-3.0v7 M-2.5,-0.5L0,-3.0L2.5,-0.5"/>
                </g>
        </g>
        <svg viewBox="0 0 15 15" width="100%" height="30px" preserveAspectRatio="xMaxYMin meet">
         <g id="arrow_out" transform="scale(0.3 0.3)">
          <a xlink:href="class_c2_m2_1_1_interaction_1_1_adjacency_1_1_dijkstra_search__coll__graph_org.svg" target="_base">
           <rect id="button" ry="5" rx="5" y="6" x="6" height="38" width="38"
                fill="#f2f5e9" fill-opacity="0.5" stroke="#606060" stroke-width="1.0"/>
           <path id="arrow"
             d="M 11.500037,31.436501 C 11.940474,20.09759 22.043105,11.32322 32.158766,21.979434 L 37.068811,17.246167 C 37.068811,17.246167 37.088388,32 37.088388,32 L 22.160133,31.978069 C 22.160133,31.978069 26.997745,27.140456 26.997745,27.140456 C 18.528582,18.264221 13.291696,25.230495 11.500037,31.436501 z"
             style="fill:#404040;"/>
          </a>
         </g>
        </svg>
</svg>
