<?xml version="1.0" encoding="UTF-8" standalone="no"?>
<!DOCTYPE svg PUBLIC "-//W3C//DTD SVG 1.1//EN"
 "http://www.w3.org/Graphics/SVG/1.1/DTD/svg11.dtd">
<!-- Generated by graphviz version 2.38.0 (20140413.2041)
 -->
<!-- Title: C2M2.NeuronalDynamics.Simulation.MOL_Matrix_v2 Pages: 1 -->
<!--zoomable 1258 -->
<svg id="main" version="1.1" xmlns="http://www.w3.org/2000/svg" xmlns:xlink="http://www.w3.org/1999/xlink" xml:space="preserve" onload="init(evt)">
<style type="text/css"><![CDATA[
.edge:hover path { stroke: red; }
.edge:hover polygon { stroke: red; fill: red; }
]]></style>
<script type="text/javascript"><![CDATA[
var edges = document.getElementsByTagName('g');
if (edges && edges.length) {
  for (var i=0;i<edges.length;i++) {
    if (edges[i].id.substr(0,4)=='edge') {
      edges[i].setAttribute('class','edge');
    }
  }
}
]]></script>
        <defs>
                <circle id="rim" cx="0" cy="0" r="7"/>
                <circle id="rim2" cx="0" cy="0" r="3.5"/>
                <g id="zoomPlus">
                        <use xlink:href="#rim" fill="#404040">
                                <set attributeName="fill" to="#808080" begin="zoomplus.mouseover" end="zoomplus.mouseout"/>
                        </use>
                        <path d="M-4,0h8M0,-4v8" fill="none" stroke="white" stroke-width="1.5" pointer-events="none"/>
                </g>
                <g id="zoomMin">
                        <use xlink:href="#rim" fill="#404040">
                                <set attributeName="fill" to="#808080" begin="zoomminus.mouseover" end="zoomminus.mouseout"/>
                        </use>
                        <path d="M-4,0h8" fill="none" stroke="white" stroke-width="1.5" pointer-events="none"/>
                </g>
                <g id="dirArrow">
                        <path fill="none" stroke="white" stroke-width="1.5" d="M0,-3.0v7 M-2.5,-0.5L0,-3.0L2.5,-0.5"/>
                </g>
               <g id="resetDef">
                       <use xlink:href="#rim2" fill="#404040">
                               <set attributeName="fill" to="#808080" begin="reset.mouseover" end="reset.mouseout"/>
                       </use>
               </g>
        </defs>

<script type="text/javascript">
var viewWidth = 378;
var viewHeight = 1258;
var sectionId = 'dynsection-1';
</script>
<script xlink:href="../../svgpan.js"/>
<svg id="graph" class="graph">
<g id="viewport">
<title>C2M2.NeuronalDynamics.Simulation.MOL_Matrix_v2</title>
<polygon fill="white" stroke="none" points="-4,4 -4,-1254 374,-1254 374,4 -4,4"/>
<!-- Node1 -->
<g id="node1" class="node"><title>Node1</title>
<g id="a_node1"><a xlink:title="Solve Hodkin&#45;Huxley equations using Method of Lines on a 1D rod">
<polygon fill="#bfbfbf" stroke="black" points="73,-0.5 73,-431.5 288,-431.5 288,-0.5 73,-0.5"/>
<text text-anchor="start" x="81" y="-419.5" font-family="Courier New" font-size="10.00">C2M2.NeuronalDynamics.Simulation.</text>
<text text-anchor="middle" x="180.5" y="-408.5" font-family="Courier New" font-size="10.00">MOL_Matrix_v2</text>
<polyline fill="none" stroke="black" points="73,-401.5 288,-401.5 "/>
<text text-anchor="start" x="81" y="-389.5" font-family="Courier New" font-size="10.00">+ nX</text>
<text text-anchor="start" x="81" y="-378.5" font-family="Courier New" font-size="10.00">+ nT</text>
<text text-anchor="start" x="81" y="-367.5" font-family="Courier New" font-size="10.00">+ X</text>
<text text-anchor="start" x="81" y="-356.5" font-family="Courier New" font-size="10.00">+ T</text>
<text text-anchor="start" x="81" y="-345.5" font-family="Courier New" font-size="10.00">+ E</text>
<text text-anchor="start" x="81" y="-334.5" font-family="Courier New" font-size="10.00">+ a</text>
<text text-anchor="start" x="81" y="-323.5" font-family="Courier New" font-size="10.00">+ gk</text>
<text text-anchor="start" x="81" y="-312.5" font-family="Courier New" font-size="10.00">+ ek</text>
<text text-anchor="start" x="81" y="-301.5" font-family="Courier New" font-size="10.00">+ ni</text>
<text text-anchor="start" x="81" y="-290.5" font-family="Courier New" font-size="10.00">+ b</text>
<text text-anchor="start" x="81" y="-279.5" font-family="Courier New" font-size="10.00">+ c</text>
<text text-anchor="start" x="81" y="-268.5" font-family="Courier New" font-size="10.00">&#45; U</text>
<text text-anchor="start" x="81" y="-257.5" font-family="Courier New" font-size="10.00">&#45; i</text>
<text text-anchor="start" x="81" y="-246.5" font-family="Courier New" font-size="10.00">&#45; newValues</text>
<text text-anchor="start" x="81" y="-235.5" font-family="Courier New" font-size="10.00">&#45; vstart</text>
<text text-anchor="start" x="81" y="-224.5" font-family="Courier New" font-size="10.00">&#45; R</text>
<text text-anchor="start" x="81" y="-213.5" font-family="Courier New" font-size="10.00">&#45; gna</text>
<text text-anchor="start" x="81" y="-202.5" font-family="Courier New" font-size="10.00">&#45; gl</text>
<text text-anchor="start" x="81" y="-191.5" font-family="Courier New" font-size="10.00">&#45; ena</text>
<text text-anchor="start" x="81" y="-180.5" font-family="Courier New" font-size="10.00">&#45; el</text>
<text text-anchor="start" x="81" y="-169.5" font-family="Courier New" font-size="10.00">&#45; mi</text>
<text text-anchor="start" x="81" y="-158.5" font-family="Courier New" font-size="10.00">&#45; hi</text>
<polyline fill="none" stroke="black" points="73,-151.5 288,-151.5 "/>
<text text-anchor="start" x="81" y="-139.5" font-family="Courier New" font-size="10.00"># Get1DValues()</text>
<text text-anchor="start" x="81" y="-128.5" font-family="Courier New" font-size="10.00"># Set1DValues()</text>
<text text-anchor="start" x="81" y="-117.5" font-family="Courier New" font-size="10.00"># SetNeuronCell()</text>
<text text-anchor="start" x="81" y="-106.5" font-family="Courier New" font-size="10.00"># Solve()</text>
<text text-anchor="start" x="81" y="-95.5" font-family="Courier New" font-size="10.00">&#45; PointwiseExpb()</text>
<text text-anchor="start" x="81" y="-84.5" font-family="Courier New" font-size="10.00">&#45; BuildStencil()</text>
<text text-anchor="start" x="81" y="-73.5" font-family="Courier New" font-size="10.00">&#45; ReactF()</text>
<text text-anchor="start" x="81" y="-62.5" font-family="Courier New" font-size="10.00">&#45; An()</text>
<text text-anchor="start" x="81" y="-51.5" font-family="Courier New" font-size="10.00">&#45; Bn()</text>
<text text-anchor="start" x="81" y="-40.5" font-family="Courier New" font-size="10.00">&#45; Am()</text>
<text text-anchor="start" x="81" y="-29.5" font-family="Courier New" font-size="10.00">&#45; Bm()</text>
<text text-anchor="start" x="81" y="-18.5" font-family="Courier New" font-size="10.00">&#45; Ah()</text>
<text text-anchor="start" x="81" y="-7.5" font-family="Courier New" font-size="10.00">&#45; Bh()</text>
</a>
</g>
</g>
<!-- Node2 -->
<g id="node2" class="node"><title>Node2</title>
<g id="a_node2"><a xlink:href="../../d4/d5a/class_c2_m2_1_1_neuronal_dynamics_1_1_simulation_1_1_neuron_simulation1_d.html" target="_top" xlink:title="Provide an interface for 1D neuron&#45;surface simulations to be visualized and interacted with">
<polygon fill="white" stroke="black" points="106,-469.5 106,-691.5 255,-691.5 255,-469.5 106,-469.5"/>
<text text-anchor="middle" x="180.5" y="-679.5" font-family="Courier New" font-size="10.00">NeuronSimulation1D</text>
<polyline fill="none" stroke="black" points="106,-672.5 255,-672.5 "/>
<text text-anchor="start" x="114" y="-660.5" font-family="Courier New" font-size="10.00">+ visualize1D</text>
<text text-anchor="start" x="114" y="-649.5" font-family="Courier New" font-size="10.00">+ color1D</text>
<text text-anchor="start" x="114" y="-638.5" font-family="Courier New" font-size="10.00">+ lineWidth1D</text>
<text text-anchor="start" x="114" y="-627.5" font-family="Courier New" font-size="10.00">&#45; map</text>
<text text-anchor="start" x="114" y="-616.5" font-family="Courier New" font-size="10.00">&#45; neuronCellFolder</text>
<text text-anchor="start" x="114" y="-605.5" font-family="Courier New" font-size="10.00">&#45; activeCellFolder</text>
<text text-anchor="start" x="114" y="-594.5" font-family="Courier New" font-size="10.00">&#45; ugxExt</text>
<text text-anchor="start" x="114" y="-583.5" font-family="Courier New" font-size="10.00">&#45; cngExt</text>
<text text-anchor="start" x="114" y="-572.5" font-family="Courier New" font-size="10.00">&#45; spec1D</text>
<text text-anchor="start" x="114" y="-561.5" font-family="Courier New" font-size="10.00">&#45; specTris</text>
<text text-anchor="start" x="114" y="-550.5" font-family="Courier New" font-size="10.00">&#45; specBlownup</text>
<polyline fill="none" stroke="black" points="106,-543.5 255,-543.5 "/>
<text text-anchor="start" x="114" y="-531.5" font-family="Courier New" font-size="10.00">+ GetValues()</text>
<text text-anchor="start" x="114" y="-520.5" font-family="Courier New" font-size="10.00">+ SetValues()</text>
<text text-anchor="start" x="114" y="-509.5" font-family="Courier New" font-size="10.00"># Set1DValues()</text>
<text text-anchor="start" x="114" y="-498.5" font-family="Courier New" font-size="10.00"># Get1DValues()</text>
<text text-anchor="start" x="114" y="-487.5" font-family="Courier New" font-size="10.00"># SetNeuronCell()</text>
<text text-anchor="start" x="114" y="-476.5" font-family="Courier New" font-size="10.00"># BuildVisualization()</text>
</a>
</g>
</g>
<!-- Node2&#45;&gt;Node1 -->
<g id="edge1" class="edge"><title>Node2&#45;&gt;Node1</title>
<path fill="none" stroke="midnightblue" d="M180.5,-459.244C180.5,-450.282 180.5,-441.095 180.5,-431.786"/>
<polygon fill="none" stroke="midnightblue" points="177,-459.262 180.5,-469.262 184,-459.262 177,-459.262"/>
</g>
<!-- Node3 -->
<g id="node3" class="node"><title>Node3</title>
<g id="a_node3"><a xlink:href="../../d4/de1/class_c2_m2_1_1_simulation_1_1_surface_simulation.html" target="_top" xlink:title="Simulation of type double[] for visualizing scalar fields on mesh surfaces">
<polygon fill="white" stroke="black" points="16,-739.5 16,-873.5 171,-873.5 171,-739.5 16,-739.5"/>
<text text-anchor="middle" x="93.5" y="-861.5" font-family="Courier New" font-size="10.00">SurfaceSimulation</text>
<polyline fill="none" stroke="black" points="16,-854.5 171,-854.5 "/>
<text text-anchor="start" x="24" y="-842.5" font-family="Courier New" font-size="10.00">+ gradient</text>
<text text-anchor="start" x="24" y="-831.5" font-family="Courier New" font-size="10.00">+ globalMax</text>
<text text-anchor="start" x="24" y="-820.5" font-family="Courier New" font-size="10.00">+ globalMin</text>
<text text-anchor="start" x="24" y="-809.5" font-family="Courier New" font-size="10.00">+ colorLUT</text>
<text text-anchor="start" x="24" y="-798.5" font-family="Courier New" font-size="10.00">&#45; mf</text>
<text text-anchor="start" x="24" y="-787.5" font-family="Courier New" font-size="10.00">&#45; mr</text>
<polyline fill="none" stroke="black" points="16,-780.5 171,-780.5 "/>
<text text-anchor="start" x="24" y="-768.5" font-family="Courier New" font-size="10.00"># UpdateVisualization()</text>
<text text-anchor="start" x="24" y="-757.5" font-family="Courier New" font-size="10.00"># OnAwake()</text>
<text text-anchor="start" x="24" y="-746.5" font-family="Courier New" font-size="10.00">&#45; UpdateVisualization()</text>
</a>
</g>
</g>
<!-- Node3&#45;&gt;Node2 -->
<g id="edge2" class="edge"><title>Node3&#45;&gt;Node2</title>
<path fill="none" stroke="midnightblue" d="M122.991,-729.569C127.729,-717.371 132.714,-704.535 137.688,-691.729"/>
<polygon fill="none" stroke="midnightblue" points="119.608,-728.613 119.25,-739.202 126.133,-731.147 119.608,-728.613"/>
</g>
<!-- Node4 -->
<g id="node4" class="node"><title>Node4</title>
<g id="a_node4"><a xlink:href="../../db/d39/class_c2_m2_1_1_simulation_1_1_simulation.html" target="_top" xlink:title=" ">
<polygon fill="white" stroke="black" points="0,-921.5 0,-1154.5 155,-1154.5 155,-921.5 0,-921.5"/>
<text text-anchor="start" x="8" y="-1142.5" font-family="Courier New" font-size="10.00">Simulation&lt; double</text>
<text text-anchor="middle" x="77.5" y="-1131.5" font-family="Courier New" font-size="10.00">[], Mesh &gt;</text>
<polyline fill="none" stroke="black" points="0,-1124.5 155,-1124.5 "/>
<text text-anchor="start" x="8" y="-1112.5" font-family="Courier New" font-size="10.00">+ startOnAwake</text>
<text text-anchor="start" x="8" y="-1101.5" font-family="Courier New" font-size="10.00"># mutex</text>
<text text-anchor="start" x="8" y="-1090.5" font-family="Courier New" font-size="10.00">&#45; solveThread</text>
<polyline fill="none" stroke="black" points="0,-1083.5 155,-1083.5 "/>
<text text-anchor="start" x="8" y="-1071.5" font-family="Courier New" font-size="10.00">+ GetValues()</text>
<text text-anchor="start" x="8" y="-1060.5" font-family="Courier New" font-size="10.00">+ StartSimulation()</text>
<text text-anchor="start" x="8" y="-1049.5" font-family="Courier New" font-size="10.00">+ StopSimulation()</text>
<text text-anchor="start" x="8" y="-1038.5" font-family="Courier New" font-size="10.00">+ Awake()</text>
<text text-anchor="start" x="8" y="-1027.5" font-family="Courier New" font-size="10.00">+ Start()</text>
<text text-anchor="start" x="8" y="-1016.5" font-family="Courier New" font-size="10.00">+ Update()</text>
<text text-anchor="start" x="8" y="-1005.5" font-family="Courier New" font-size="10.00"># BuildVisualization()</text>
<text text-anchor="start" x="8" y="-994.5" font-family="Courier New" font-size="10.00"># UpdateVisualization()</text>
<text text-anchor="start" x="8" y="-983.5" font-family="Courier New" font-size="10.00"># Solve()</text>
<text text-anchor="start" x="8" y="-972.5" font-family="Courier New" font-size="10.00"># OnAwake()</text>
<text text-anchor="start" x="8" y="-961.5" font-family="Courier New" font-size="10.00"># OnStart()</text>
<text text-anchor="start" x="8" y="-950.5" font-family="Courier New" font-size="10.00"># OnUpdate()</text>
<text text-anchor="start" x="8" y="-939.5" font-family="Courier New" font-size="10.00">&#45; OnApplicationPause()</text>
<text text-anchor="start" x="8" y="-928.5" font-family="Courier New" font-size="10.00">&#45; OnApplicationQuit()</text>
</a>
</g>
</g>
<!-- Node4&#45;&gt;Node3 -->
<g id="edge3" class="edge"><title>Node4&#45;&gt;Node3</title>
<path fill="none" stroke="midnightblue" d="M86.2916,-910.895C87.1886,-898.029 88.0721,-885.356 88.8966,-873.53"/>
<polygon fill="none" stroke="midnightblue" points="82.7744,-911.022 85.5703,-921.241 89.7574,-911.509 82.7744,-911.022"/>
</g>
<!-- Node5 -->
<g id="node5" class="node"><title>Node5</title>
<g id="a_node5"><a xlink:href="../../da/d4f/class_c2_m2_1_1_visualization_1_1_l_u_t_gradient.html" target="_top" xlink:title="Create a fast and memory&#45;friendly color lookup table from a gradient">
<polygon fill="white" stroke="black" points="173,-954.5 173,-1121.5 370,-1121.5 370,-954.5 173,-954.5"/>
<text text-anchor="middle" x="271.5" y="-1109.5" font-family="Courier New" font-size="10.00">C2M2.Visualization.LUTGradient</text>
<polyline fill="none" stroke="black" points="173,-1102.5 370,-1102.5 "/>
<text text-anchor="start" x="181" y="-1090.5" font-family="Courier New" font-size="10.00">+ extremaMethod</text>
<text text-anchor="start" x="181" y="-1079.5" font-family="Courier New" font-size="10.00">+ globalMax</text>
<text text-anchor="start" x="181" y="-1068.5" font-family="Courier New" font-size="10.00">+ globalMin</text>
<text text-anchor="start" x="181" y="-1057.5" font-family="Courier New" font-size="10.00">+ LutRes</text>
<text text-anchor="start" x="181" y="-1046.5" font-family="Courier New" font-size="10.00">+ Gradient</text>
<text text-anchor="start" x="181" y="-1035.5" font-family="Courier New" font-size="10.00">+ gradientLUT</text>
<text text-anchor="start" x="181" y="-1024.5" font-family="Courier New" font-size="10.00">&#45; lutRes</text>
<text text-anchor="start" x="181" y="-1013.5" font-family="Courier New" font-size="10.00">&#45; gradient</text>
<polyline fill="none" stroke="black" points="173,-1006.5 370,-1006.5 "/>
<text text-anchor="start" x="181" y="-994.5" font-family="Courier New" font-size="10.00">+ Evaluate()</text>
<text text-anchor="start" x="181" y="-983.5" font-family="Courier New" font-size="10.00">+ Evaluate()</text>
<text text-anchor="start" x="181" y="-972.5" font-family="Courier New" font-size="10.00">&#45; BuildLUT()</text>
<text text-anchor="start" x="181" y="-961.5" font-family="Courier New" font-size="10.00">&#45; RescaleArray()</text>
</a>
</g>
</g>
<!-- Node5&#45;&gt;Node3 -->
<g id="edge4" class="edge"><title>Node5&#45;&gt;Node3</title>
<path fill="none" stroke="#404040" d="M207.489,-954.469C189.437,-931.194 169.891,-905.993 152.169,-883.143"/>
<polygon fill="none" stroke="#404040" points="152.049,-882.989 145.211,-880.699 144.694,-873.506 151.532,-875.796 152.049,-882.989"/>
<text text-anchor="middle" x="213" y="-895" font-family="Courier New" font-size="10.00"> +extremaMethod</text>
</g>
<!-- Node6 -->
<g id="node6" class="node"><title>Node6</title>
<g id="a_node6"><a xlink:title=" ">
<polygon fill="white" stroke="#bfbfbf" points="224,-1192.5 224,-1249.5 319,-1249.5 319,-1192.5 224,-1192.5"/>
<text text-anchor="middle" x="271.5" y="-1237.5" font-family="Courier New" font-size="10.00">MonoBehaviour</text>
<polyline fill="none" stroke="#bfbfbf" points="224,-1230.5 319,-1230.5 "/>
<text text-anchor="middle" x="271.5" y="-1218.5" font-family="Courier New" font-size="10.00"> </text>
<polyline fill="none" stroke="#bfbfbf" points="224,-1211.5 319,-1211.5 "/>
<text text-anchor="middle" x="271.5" y="-1199.5" font-family="Courier New" font-size="10.00"> </text>
</a>
</g>
</g>
<!-- Node6&#45;&gt;Node5 -->
<g id="edge5" class="edge"><title>Node6&#45;&gt;Node5</title>
<path fill="none" stroke="midnightblue" d="M271.5,-1181.75C271.5,-1164.22 271.5,-1142.71 271.5,-1121.75"/>
<polygon fill="none" stroke="midnightblue" points="268,-1182.12 271.5,-1192.12 275,-1182.12 268,-1182.12"/>
</g>
<!-- Node7 -->
<g id="node7" class="node"><title>Node7</title>
<g id="a_node7"><a xlink:title=" ">
<polygon fill="white" stroke="#bfbfbf" points="189,-778 189,-835 230,-835 230,-778 189,-778"/>
<text text-anchor="middle" x="209.5" y="-823" font-family="Courier New" font-size="10.00">C2M2</text>
<polyline fill="none" stroke="#bfbfbf" points="189,-816 230,-816 "/>
<text text-anchor="middle" x="209.5" y="-804" font-family="Courier New" font-size="10.00"> </text>
<polyline fill="none" stroke="#bfbfbf" points="189,-797 230,-797 "/>
<text text-anchor="middle" x="209.5" y="-785" font-family="Courier New" font-size="10.00"> </text>
</a>
</g>
</g>
<!-- Node7&#45;&gt;Node2 -->
<g id="edge6" class="edge"><title>Node7&#45;&gt;Node2</title>
<path fill="none" stroke="#404040" d="M205.886,-777.583C203.401,-758.393 199.912,-731.443 196.314,-703.651"/>
<polygon fill="none" stroke="#404040" points="196.309,-703.61 191.572,-698.173 194.768,-691.709 199.505,-697.146 196.309,-703.61"/>
<text text-anchor="middle" x="223" y="-713" font-family="Courier New" font-size="10.00"> #grid1D</text>
</g>
</g>
</svg>
        <g id="navigator" transform="translate(0 0)" fill="#404254">
                <rect fill="#f2f5e9" fill-opacity="0.5" stroke="#606060" stroke-width=".5" x="0" y="0" width="60" height="60"/>
                <use id="zoomplus" xlink:href="#zoomPlus" x="17" y="9" onmousedown="handleZoom(evt,'in')"/>
                <use id="zoomminus" xlink:href="#zoomMin" x="42" y="9" onmousedown="handleZoom(evt,'out')"/>
                <use id="reset" xlink:href="#resetDef" x="30" y="36" onmousedown="handleReset()"/>
                <g id="arrowUp" xlink:href="#dirArrow" transform="translate(30 24)" onmousedown="handlePan(0,-1)">
                  <use xlink:href="#rim" fill="#404040">
                        <set attributeName="fill" to="#808080" begin="arrowUp.mouseover" end="arrowUp.mouseout"/>
                  </use>
                  <path fill="none" stroke="white" stroke-width="1.5" d="M0,-3.0v7 M-2.5,-0.5L0,-3.0L2.5,-0.5"/>
                </g>
                <g id="arrowRight" xlink:href="#dirArrow" transform="rotate(90) translate(36 -43)" onmousedown="handlePan(1,0)">
                  <use xlink:href="#rim" fill="#404040">
                        <set attributeName="fill" to="#808080" begin="arrowRight.mouseover" end="arrowRight.mouseout"/>
                  </use>
                  <path fill="none" stroke="white" stroke-width="1.5" d="M0,-3.0v7 M-2.5,-0.5L0,-3.0L2.5,-0.5"/>
                </g>
                <g id="arrowDown" xlink:href="#dirArrow" transform="rotate(180) translate(-30 -48)" onmousedown="handlePan(0,1)">
                  <use xlink:href="#rim" fill="#404040">
                        <set attributeName="fill" to="#808080" begin="arrowDown.mouseover" end="arrowDown.mouseout"/>
                  </use>
                  <path fill="none" stroke="white" stroke-width="1.5" d="M0,-3.0v7 M-2.5,-0.5L0,-3.0L2.5,-0.5"/>
                </g>
                <g id="arrowLeft" xlink:href="#dirArrow" transform="rotate(270) translate(-36 17)" onmousedown="handlePan(-1,0)">
                  <use xlink:href="#rim" fill="#404040">
                        <set attributeName="fill" to="#808080" begin="arrowLeft.mouseover" end="arrowLeft.mouseout"/>
                  </use>
                  <path fill="none" stroke="white" stroke-width="1.5" d="M0,-3.0v7 M-2.5,-0.5L0,-3.0L2.5,-0.5"/>
                </g>
        </g>
        <svg viewBox="0 0 15 15" width="100%" height="30px" preserveAspectRatio="xMaxYMin meet">
         <g id="arrow_out" transform="scale(0.3 0.3)">
          <a xlink:href="class_c2_m2_1_1_neuronal_dynamics_1_1_simulation_1_1_m_o_l___matrix__v2__coll__graph_org.svg" target="_base">
           <rect id="button" ry="5" rx="5" y="6" x="6" height="38" width="38"
                fill="#f2f5e9" fill-opacity="0.5" stroke="#606060" stroke-width="1.0"/>
           <path id="arrow"
             d="M 11.500037,31.436501 C 11.940474,20.09759 22.043105,11.32322 32.158766,21.979434 L 37.068811,17.246167 C 37.068811,17.246167 37.088388,32 37.088388,32 L 22.160133,31.978069 C 22.160133,31.978069 26.997745,27.140456 26.997745,27.140456 C 18.528582,18.264221 13.291696,25.230495 11.500037,31.436501 z"
             style="fill:#404040;"/>
          </a>
         </g>
        </svg>
</svg>
