<?xml version="1.0" encoding="UTF-8" standalone="no"?>
<!DOCTYPE svg PUBLIC "-//W3C//DTD SVG 1.1//EN"
 "http://www.w3.org/Graphics/SVG/1.1/DTD/svg11.dtd">
<!-- Generated by graphviz version 2.38.0 (20140413.2041)
 -->
<!-- Title: C2M2.NeuronalDynamics.Simulation.MOL_Matrix_v2 Pages: 1 -->
<!--zoomable 1503 -->
<svg id="main" version="1.1" xmlns="http://www.w3.org/2000/svg" xmlns:xlink="http://www.w3.org/1999/xlink" xml:space="preserve" onload="init(evt)">
<style type="text/css"><![CDATA[
.edge:hover path { stroke: red; }
.edge:hover polygon { stroke: red; fill: red; }
]]></style>
<script type="text/javascript"><![CDATA[
var edges = document.getElementsByTagName('g');
if (edges && edges.length) {
  for (var i=0;i<edges.length;i++) {
    if (edges[i].id.substr(0,4)=='edge') {
      edges[i].setAttribute('class','edge');
    }
  }
}
]]></script>
        <defs>
                <circle id="rim" cx="0" cy="0" r="7"/>
                <circle id="rim2" cx="0" cy="0" r="3.5"/>
                <g id="zoomPlus">
                        <use xlink:href="#rim" fill="#404040">
                                <set attributeName="fill" to="#808080" begin="zoomplus.mouseover" end="zoomplus.mouseout"/>
                        </use>
                        <path d="M-4,0h8M0,-4v8" fill="none" stroke="white" stroke-width="1.5" pointer-events="none"/>
                </g>
                <g id="zoomMin">
                        <use xlink:href="#rim" fill="#404040">
                                <set attributeName="fill" to="#808080" begin="zoomminus.mouseover" end="zoomminus.mouseout"/>
                        </use>
                        <path d="M-4,0h8" fill="none" stroke="white" stroke-width="1.5" pointer-events="none"/>
                </g>
                <g id="dirArrow">
                        <path fill="none" stroke="white" stroke-width="1.5" d="M0,-3.0v7 M-2.5,-0.5L0,-3.0L2.5,-0.5"/>
                </g>
               <g id="resetDef">
                       <use xlink:href="#rim2" fill="#404040">
                               <set attributeName="fill" to="#808080" begin="reset.mouseover" end="reset.mouseout"/>
                       </use>
               </g>
        </defs>

<script type="text/javascript">
var viewWidth = 769;
var viewHeight = 1503;
var sectionId = 'dynsection-1';
</script>
<script xlink:href="../../svgpan.js"/>
<svg id="graph" class="graph">
<g id="viewport">
<title>C2M2.NeuronalDynamics.Simulation.MOL_Matrix_v2</title>
<polygon fill="white" stroke="none" points="-4,4 -4,-1499 765,-1499 765,4 -4,4"/>
<!-- Node1 -->
<g id="node1" class="node"><title>Node1</title>
<g id="a_node1"><a xlink:title="Solve Hodkin&#45;Huxley equations using Method of Lines on a 1D rod">
<polygon fill="#bfbfbf" stroke="black" points="365,-0.5 365,-431.5 580,-431.5 580,-0.5 365,-0.5"/>
<text text-anchor="start" x="373" y="-419.5" font-family="Courier New" font-size="10.00">C2M2.NeuronalDynamics.Simulation.</text>
<text text-anchor="middle" x="472.5" y="-408.5" font-family="Courier New" font-size="10.00">MOL_Matrix_v2</text>
<polyline fill="none" stroke="black" points="365,-401.5 580,-401.5 "/>
<text text-anchor="start" x="373" y="-389.5" font-family="Courier New" font-size="10.00">+ nX</text>
<text text-anchor="start" x="373" y="-378.5" font-family="Courier New" font-size="10.00">+ nT</text>
<text text-anchor="start" x="373" y="-367.5" font-family="Courier New" font-size="10.00">+ X</text>
<text text-anchor="start" x="373" y="-356.5" font-family="Courier New" font-size="10.00">+ T</text>
<text text-anchor="start" x="373" y="-345.5" font-family="Courier New" font-size="10.00">+ E</text>
<text text-anchor="start" x="373" y="-334.5" font-family="Courier New" font-size="10.00">+ a</text>
<text text-anchor="start" x="373" y="-323.5" font-family="Courier New" font-size="10.00">+ gk</text>
<text text-anchor="start" x="373" y="-312.5" font-family="Courier New" font-size="10.00">+ ek</text>
<text text-anchor="start" x="373" y="-301.5" font-family="Courier New" font-size="10.00">+ ni</text>
<text text-anchor="start" x="373" y="-290.5" font-family="Courier New" font-size="10.00">+ b</text>
<text text-anchor="start" x="373" y="-279.5" font-family="Courier New" font-size="10.00">+ c</text>
<text text-anchor="start" x="373" y="-268.5" font-family="Courier New" font-size="10.00">&#45; U</text>
<text text-anchor="start" x="373" y="-257.5" font-family="Courier New" font-size="10.00">&#45; i</text>
<text text-anchor="start" x="373" y="-246.5" font-family="Courier New" font-size="10.00">&#45; newValues</text>
<text text-anchor="start" x="373" y="-235.5" font-family="Courier New" font-size="10.00">&#45; vstart</text>
<text text-anchor="start" x="373" y="-224.5" font-family="Courier New" font-size="10.00">&#45; R</text>
<text text-anchor="start" x="373" y="-213.5" font-family="Courier New" font-size="10.00">&#45; gna</text>
<text text-anchor="start" x="373" y="-202.5" font-family="Courier New" font-size="10.00">&#45; gl</text>
<text text-anchor="start" x="373" y="-191.5" font-family="Courier New" font-size="10.00">&#45; ena</text>
<text text-anchor="start" x="373" y="-180.5" font-family="Courier New" font-size="10.00">&#45; el</text>
<text text-anchor="start" x="373" y="-169.5" font-family="Courier New" font-size="10.00">&#45; mi</text>
<text text-anchor="start" x="373" y="-158.5" font-family="Courier New" font-size="10.00">&#45; hi</text>
<polyline fill="none" stroke="black" points="365,-151.5 580,-151.5 "/>
<text text-anchor="start" x="373" y="-139.5" font-family="Courier New" font-size="10.00"># Get1DValues()</text>
<text text-anchor="start" x="373" y="-128.5" font-family="Courier New" font-size="10.00"># Set1DValues()</text>
<text text-anchor="start" x="373" y="-117.5" font-family="Courier New" font-size="10.00"># SetNeuronCell()</text>
<text text-anchor="start" x="373" y="-106.5" font-family="Courier New" font-size="10.00"># Solve()</text>
<text text-anchor="start" x="373" y="-95.5" font-family="Courier New" font-size="10.00">&#45; PointwiseExpb()</text>
<text text-anchor="start" x="373" y="-84.5" font-family="Courier New" font-size="10.00">&#45; BuildStencil()</text>
<text text-anchor="start" x="373" y="-73.5" font-family="Courier New" font-size="10.00">&#45; ReactF()</text>
<text text-anchor="start" x="373" y="-62.5" font-family="Courier New" font-size="10.00">&#45; An()</text>
<text text-anchor="start" x="373" y="-51.5" font-family="Courier New" font-size="10.00">&#45; Bn()</text>
<text text-anchor="start" x="373" y="-40.5" font-family="Courier New" font-size="10.00">&#45; Am()</text>
<text text-anchor="start" x="373" y="-29.5" font-family="Courier New" font-size="10.00">&#45; Bm()</text>
<text text-anchor="start" x="373" y="-18.5" font-family="Courier New" font-size="10.00">&#45; Ah()</text>
<text text-anchor="start" x="373" y="-7.5" font-family="Courier New" font-size="10.00">&#45; Bh()</text>
</a>
</g>
</g>
<!-- Node2 -->
<g id="node2" class="node"><title>Node2</title>
<g id="a_node2"><a xlink:href="../../d4/d5a/class_c2_m2_1_1_neuronal_dynamics_1_1_simulation_1_1_neuron_simulation1_d.html" target="_top" xlink:title="Provide an interface for 1D neuron&#45;surface simulations to be visualized and interacted with">
<polygon fill="white" stroke="black" points="398,-469.5 398,-801.5 547,-801.5 547,-469.5 398,-469.5"/>
<text text-anchor="middle" x="472.5" y="-789.5" font-family="Courier New" font-size="10.00">NeuronSimulation1D</text>
<polyline fill="none" stroke="black" points="398,-782.5 547,-782.5 "/>
<text text-anchor="start" x="406" y="-770.5" font-family="Courier New" font-size="10.00">+ refinementLevel</text>
<text text-anchor="start" x="406" y="-759.5" font-family="Courier New" font-size="10.00">+ cell1xPath</text>
<text text-anchor="start" x="406" y="-748.5" font-family="Courier New" font-size="10.00">+ cell2xPath</text>
<text text-anchor="start" x="406" y="-737.5" font-family="Courier New" font-size="10.00">+ cell3xPath</text>
<text text-anchor="start" x="406" y="-726.5" font-family="Courier New" font-size="10.00">+ cell4xPath</text>
<text text-anchor="start" x="406" y="-715.5" font-family="Courier New" font-size="10.00">+ cell5xPath</text>
<text text-anchor="start" x="406" y="-704.5" font-family="Courier New" font-size="10.00">+ visualize1D</text>
<text text-anchor="start" x="406" y="-693.5" font-family="Courier New" font-size="10.00">+ color1D</text>
<text text-anchor="start" x="406" y="-682.5" font-family="Courier New" font-size="10.00">+ lineWidth1D</text>
<text text-anchor="start" x="406" y="-671.5" font-family="Courier New" font-size="10.00">&#45; meshScale</text>
<text text-anchor="start" x="406" y="-660.5" font-family="Courier New" font-size="10.00">&#45; meshColScale</text>
<text text-anchor="start" x="406" y="-649.5" font-family="Courier New" font-size="10.00">&#45; map</text>
<text text-anchor="start" x="406" y="-638.5" font-family="Courier New" font-size="10.00">&#45; scaledMeshes</text>
<polyline fill="none" stroke="black" points="398,-631.5 547,-631.5 "/>
<text text-anchor="start" x="406" y="-619.5" font-family="Courier New" font-size="10.00">+ GetValues()</text>
<text text-anchor="start" x="406" y="-608.5" font-family="Courier New" font-size="10.00">+ SetValues()</text>
<text text-anchor="start" x="406" y="-597.5" font-family="Courier New" font-size="10.00">+ RescaleMesh()</text>
<text text-anchor="start" x="406" y="-586.5" font-family="Courier New" font-size="10.00">+ SwitchColliderMesh()</text>
<text text-anchor="start" x="406" y="-575.5" font-family="Courier New" font-size="10.00">+ SwitchMesh()</text>
<text text-anchor="start" x="406" y="-564.5" font-family="Courier New" font-size="10.00"># Set1DValues()</text>
<text text-anchor="start" x="406" y="-553.5" font-family="Courier New" font-size="10.00"># Get1DValues()</text>
<text text-anchor="start" x="406" y="-542.5" font-family="Courier New" font-size="10.00"># SetNeuronCell()</text>
<text text-anchor="start" x="406" y="-531.5" font-family="Courier New" font-size="10.00"># ReadData()</text>
<text text-anchor="start" x="406" y="-520.5" font-family="Courier New" font-size="10.00"># BuildVisualization()</text>
<text text-anchor="start" x="406" y="-509.5" font-family="Courier New" font-size="10.00">&#45; BuildUI()</text>
<text text-anchor="start" x="406" y="-498.5" font-family="Courier New" font-size="10.00">&#45; Clean3DCell()</text>
<text text-anchor="start" x="406" y="-487.5" font-family="Courier New" font-size="10.00">&#45; BuildMesh()</text>
<text text-anchor="start" x="406" y="-476.5" font-family="Courier New" font-size="10.00">&#45; SwitchColliderMesh()</text>
</a>
</g>
</g>
<!-- Node2&#45;&gt;Node1 -->
<g id="edge1" class="edge"><title>Node2&#45;&gt;Node1</title>
<path fill="none" stroke="midnightblue" d="M472.5,-459.258C472.5,-450.157 472.5,-440.969 472.5,-431.765"/>
<polygon fill="none" stroke="midnightblue" points="469,-459.493 472.5,-469.493 476,-459.493 469,-459.493"/>
</g>
<!-- Node3 -->
<g id="node3" class="node"><title>Node3</title>
<g id="a_node3"><a xlink:href="../../d6/d2d/class_c2_m2_1_1_simulation_1_1_mesh_simulation.html" target="_top" xlink:title="Simulation of type double[] for visualizing scalar fields on mesh surfaces">
<polygon fill="white" stroke="black" points="171,-849.5 171,-994.5 326,-994.5 326,-849.5 171,-849.5"/>
<text text-anchor="middle" x="248.5" y="-982.5" font-family="Courier New" font-size="10.00">MeshSimulation</text>
<polyline fill="none" stroke="black" points="171,-975.5 326,-975.5 "/>
<text text-anchor="start" x="179" y="-963.5" font-family="Courier New" font-size="10.00">+ gradient</text>
<text text-anchor="start" x="179" y="-952.5" font-family="Courier New" font-size="10.00">+ globalMax</text>
<text text-anchor="start" x="179" y="-941.5" font-family="Courier New" font-size="10.00">+ globalMin</text>
<text text-anchor="start" x="179" y="-930.5" font-family="Courier New" font-size="10.00">+ colorLUT</text>
<text text-anchor="start" x="179" y="-919.5" font-family="Courier New" font-size="10.00"># colliderMesh</text>
<text text-anchor="start" x="179" y="-908.5" font-family="Courier New" font-size="10.00">&#45; mf</text>
<text text-anchor="start" x="179" y="-897.5" font-family="Courier New" font-size="10.00">&#45; mr</text>
<polyline fill="none" stroke="black" points="171,-890.5 326,-890.5 "/>
<text text-anchor="start" x="179" y="-878.5" font-family="Courier New" font-size="10.00"># UpdateVisualization()</text>
<text text-anchor="start" x="179" y="-867.5" font-family="Courier New" font-size="10.00"># OnAwake()</text>
<text text-anchor="start" x="179" y="-856.5" font-family="Courier New" font-size="10.00">&#45; UpdateVisualization()</text>
</a>
</g>
</g>
<!-- Node3&#45;&gt;Node2 -->
<g id="edge2" class="edge"><title>Node3&#45;&gt;Node2</title>
<path fill="none" stroke="midnightblue" d="M311.401,-841.111C338.307,-806.938 369.926,-766.778 397.994,-731.129"/>
<polygon fill="none" stroke="midnightblue" points="308.461,-839.187 305.025,-849.209 313.961,-843.517 308.461,-839.187"/>
</g>
<!-- Node4 -->
<g id="node4" class="node"><title>Node4</title>
<g id="a_node4"><a xlink:href="../../db/d39/class_c2_m2_1_1_simulation_1_1_simulation.html" target="_top" xlink:title=" ">
<polygon fill="white" stroke="black" points="0,-1122.5 0,-1399.5 185,-1399.5 185,-1122.5 0,-1122.5"/>
<text text-anchor="start" x="8" y="-1387.5" font-family="Courier New" font-size="10.00">Simulation&lt; double</text>
<text text-anchor="start" x="8" y="-1376.5" font-family="Courier New" font-size="10.00">[], Mesh, VRRaycastableMesh,</text>
<text text-anchor="middle" x="92.5" y="-1365.5" font-family="Courier New" font-size="10.00"> VRGrabbableMesh &gt;</text>
<polyline fill="none" stroke="black" points="0,-1358.5 185,-1358.5 "/>
<text text-anchor="start" x="8" y="-1346.5" font-family="Courier New" font-size="10.00">+ dryRun</text>
<text text-anchor="start" x="8" y="-1335.5" font-family="Courier New" font-size="10.00">+ startOnAwake</text>
<text text-anchor="start" x="8" y="-1324.5" font-family="Courier New" font-size="10.00">+ viz</text>
<text text-anchor="start" x="8" y="-1313.5" font-family="Courier New" font-size="10.00"># mutex</text>
<text text-anchor="start" x="8" y="-1302.5" font-family="Courier New" font-size="10.00">&#45; solveThread</text>
<polyline fill="none" stroke="black" points="0,-1295.5 185,-1295.5 "/>
<text text-anchor="start" x="8" y="-1283.5" font-family="Courier New" font-size="10.00">+ GetValues()</text>
<text text-anchor="start" x="8" y="-1272.5" font-family="Courier New" font-size="10.00">+ StartSimulation()</text>
<text text-anchor="start" x="8" y="-1261.5" font-family="Courier New" font-size="10.00">+ StopSimulation()</text>
<text text-anchor="start" x="8" y="-1250.5" font-family="Courier New" font-size="10.00">+ Awake()</text>
<text text-anchor="start" x="8" y="-1239.5" font-family="Courier New" font-size="10.00">+ Start()</text>
<text text-anchor="start" x="8" y="-1228.5" font-family="Courier New" font-size="10.00">+ Update()</text>
<text text-anchor="start" x="8" y="-1217.5" font-family="Courier New" font-size="10.00"># BuildVisualization()</text>
<text text-anchor="start" x="8" y="-1206.5" font-family="Courier New" font-size="10.00"># ReadData()</text>
<text text-anchor="start" x="8" y="-1195.5" font-family="Courier New" font-size="10.00"># UpdateVisualization()</text>
<text text-anchor="start" x="8" y="-1184.5" font-family="Courier New" font-size="10.00"># Solve()</text>
<text text-anchor="start" x="8" y="-1173.5" font-family="Courier New" font-size="10.00"># OnAwake()</text>
<text text-anchor="start" x="8" y="-1162.5" font-family="Courier New" font-size="10.00"># OnStart()</text>
<text text-anchor="start" x="8" y="-1151.5" font-family="Courier New" font-size="10.00"># OnUpdate()</text>
<text text-anchor="start" x="8" y="-1140.5" font-family="Courier New" font-size="10.00">&#45; OnApplicationPause()</text>
<text text-anchor="start" x="8" y="-1129.5" font-family="Courier New" font-size="10.00">&#45; OnApplicationQuit()</text>
</a>
</g>
</g>
<!-- Node4&#45;&gt;Node3 -->
<g id="edge3" class="edge"><title>Node4&#45;&gt;Node3</title>
<path fill="none" stroke="midnightblue" d="M160.477,-1113.15C179.502,-1072.05 199.337,-1029.21 215.35,-994.612"/>
<polygon fill="none" stroke="midnightblue" points="157.201,-1111.9 156.176,-1122.44 163.553,-1114.84 157.201,-1111.9"/>
</g>
<!-- Node5 -->
<g id="node5" class="node"><title>Node5</title>
<g id="a_node5"><a xlink:href="../../da/d4f/class_c2_m2_1_1_visualization_1_1_l_u_t_gradient.html" target="_top" xlink:title="Create a fast and memory&#45;friendly color lookup table from a gradient">
<polygon fill="white" stroke="black" points="203,-1177.5 203,-1344.5 400,-1344.5 400,-1177.5 203,-1177.5"/>
<text text-anchor="middle" x="301.5" y="-1332.5" font-family="Courier New" font-size="10.00">C2M2.Visualization.LUTGradient</text>
<polyline fill="none" stroke="black" points="203,-1325.5 400,-1325.5 "/>
<text text-anchor="start" x="211" y="-1313.5" font-family="Courier New" font-size="10.00">+ extremaMethod</text>
<text text-anchor="start" x="211" y="-1302.5" font-family="Courier New" font-size="10.00">+ globalMax</text>
<text text-anchor="start" x="211" y="-1291.5" font-family="Courier New" font-size="10.00">+ globalMin</text>
<text text-anchor="start" x="211" y="-1280.5" font-family="Courier New" font-size="10.00">+ LutRes</text>
<text text-anchor="start" x="211" y="-1269.5" font-family="Courier New" font-size="10.00">+ Gradient</text>
<text text-anchor="start" x="211" y="-1258.5" font-family="Courier New" font-size="10.00">+ gradientLUT</text>
<text text-anchor="start" x="211" y="-1247.5" font-family="Courier New" font-size="10.00">&#45; lutRes</text>
<text text-anchor="start" x="211" y="-1236.5" font-family="Courier New" font-size="10.00">&#45; gradient</text>
<polyline fill="none" stroke="black" points="203,-1229.5 400,-1229.5 "/>
<text text-anchor="start" x="211" y="-1217.5" font-family="Courier New" font-size="10.00">+ Evaluate()</text>
<text text-anchor="start" x="211" y="-1206.5" font-family="Courier New" font-size="10.00">+ Evaluate()</text>
<text text-anchor="start" x="211" y="-1195.5" font-family="Courier New" font-size="10.00">&#45; BuildLUT()</text>
<text text-anchor="start" x="211" y="-1184.5" font-family="Courier New" font-size="10.00">&#45; RescaleArray()</text>
</a>
</g>
</g>
<!-- Node5&#45;&gt;Node3 -->
<g id="edge4" class="edge"><title>Node5&#45;&gt;Node3</title>
<path fill="none" stroke="#404040" d="M265.193,-1177.29C256.672,-1154.04 248.821,-1128.42 244.5,-1104 237.452,-1064.17 243.602,-1053.43 244.5,-1013 244.545,-1010.96 244.597,-1008.89 244.653,-1006.8"/>
<polygon fill="none" stroke="#404040" points="244.656,-1006.71 240.842,-1000.59 245.025,-994.713 248.839,-1000.83 244.656,-1006.71"/>
<text text-anchor="middle" x="290" y="-1056" font-family="Courier New" font-size="10.00"> +extremaMethod</text>
</g>
<!-- Node6 -->
<g id="node6" class="node"><title>Node6</title>
<g id="a_node6"><a xlink:title=" ">
<polygon fill="white" stroke="#bfbfbf" points="343,-1437.5 343,-1494.5 438,-1494.5 438,-1437.5 343,-1437.5"/>
<text text-anchor="middle" x="390.5" y="-1482.5" font-family="Courier New" font-size="10.00">MonoBehaviour</text>
<polyline fill="none" stroke="#bfbfbf" points="343,-1475.5 438,-1475.5 "/>
<text text-anchor="middle" x="390.5" y="-1463.5" font-family="Courier New" font-size="10.00"> </text>
<polyline fill="none" stroke="#bfbfbf" points="343,-1456.5 438,-1456.5 "/>
<text text-anchor="middle" x="390.5" y="-1444.5" font-family="Courier New" font-size="10.00"> </text>
</a>
</g>
</g>
<!-- Node6&#45;&gt;Node5 -->
<g id="edge5" class="edge"><title>Node6&#45;&gt;Node5</title>
<path fill="none" stroke="midnightblue" d="M374.29,-1428.03C364.064,-1404.7 350.434,-1373.61 337.734,-1344.65"/>
<polygon fill="none" stroke="midnightblue" points="371.091,-1429.45 378.312,-1437.2 377.502,-1426.64 371.091,-1429.45"/>
</g>
<!-- Node9 -->
<g id="node9" class="node"><title>Node9</title>
<g id="a_node9"><a xlink:href="../../dc/d72/class_c2_m2_1_1_utils_1_1_mesh_utils_1_1_mesh_col_controller.html" target="_top" xlink:title="Set this.mesh to quickly look up and update a MeshCollider&#39;s mesh">
<polygon fill="white" stroke="black" points="345,-1013.5 345,-1103.5 512,-1103.5 512,-1013.5 345,-1013.5"/>
<text text-anchor="start" x="353" y="-1091.5" font-family="Courier New" font-size="10.00">C2M2.Utils.MeshUtils.Mesh</text>
<text text-anchor="middle" x="428.5" y="-1080.5" font-family="Courier New" font-size="10.00">ColController</text>
<polyline fill="none" stroke="black" points="345,-1073.5 512,-1073.5 "/>
<text text-anchor="start" x="353" y="-1061.5" font-family="Courier New" font-size="10.00">+ meshCol</text>
<text text-anchor="start" x="353" y="-1050.5" font-family="Courier New" font-size="10.00">+ Mesh</text>
<text text-anchor="start" x="353" y="-1039.5" font-family="Courier New" font-size="10.00">&#45; mesh</text>
<polyline fill="none" stroke="black" points="345,-1032.5 512,-1032.5 "/>
<text text-anchor="middle" x="428.5" y="-1020.5" font-family="Courier New" font-size="10.00"> </text>
</a>
</g>
</g>
<!-- Node6&#45;&gt;Node9 -->
<g id="edge9" class="edge"><title>Node6&#45;&gt;Node9</title>
<path fill="none" stroke="midnightblue" d="M402.294,-1427.65C404.723,-1418.68 406.996,-1409.06 408.5,-1400 425.97,-1294.7 428.754,-1168.88 428.872,-1103.64"/>
<polygon fill="none" stroke="midnightblue" points="398.876,-1426.88 399.517,-1437.45 405.611,-1428.79 398.876,-1426.88"/>
</g>
<!-- Node7 -->
<g id="node7" class="node"><title>Node7</title>
<g id="a_node7"><a xlink:title=" ">
<polygon fill="white" stroke="#bfbfbf" points="529,-893.5 529,-950.5 570,-950.5 570,-893.5 529,-893.5"/>
<text text-anchor="middle" x="549.5" y="-938.5" font-family="Courier New" font-size="10.00">C2M2</text>
<polyline fill="none" stroke="#bfbfbf" points="529,-931.5 570,-931.5 "/>
<text text-anchor="middle" x="549.5" y="-919.5" font-family="Courier New" font-size="10.00"> </text>
<polyline fill="none" stroke="#bfbfbf" points="529,-912.5 570,-912.5 "/>
<text text-anchor="middle" x="549.5" y="-900.5" font-family="Courier New" font-size="10.00"> </text>
</a>
</g>
</g>
<!-- Node7&#45;&gt;Node2 -->
<g id="edge6" class="edge"><title>Node7&#45;&gt;Node2</title>
<path fill="none" stroke="#404040" d="M542.047,-893.462C536.635,-873.467 528.8,-844.516 520.323,-813.196"/>
<polygon fill="none" stroke="#404040" points="520.309,-813.145 514.88,-808.398 517.174,-801.561 522.602,-806.308 520.309,-813.145"/>
<text text-anchor="middle" x="550" y="-823" font-family="Courier New" font-size="10.00"> #grid1D</text>
</g>
<!-- Node8 -->
<g id="node8" class="node"><title>Node8</title>
<g id="a_node8"><a xlink:href="../../dd/d2a/struct_c2_m2_1_1_neuronal_dynamics_1_1_u_g_x_1_1_mapping_info.html" target="_top" xlink:title="Encapsulates the grids and mapping data">
<polygon fill="white" stroke="black" points="588,-877 588,-967 761,-967 761,-877 588,-877"/>
<text text-anchor="start" x="596" y="-955" font-family="Courier New" font-size="10.00">C2M2.NeuronalDynamics.UGX.</text>
<text text-anchor="middle" x="674.5" y="-944" font-family="Courier New" font-size="10.00">MappingInfo</text>
<polyline fill="none" stroke="black" points="588,-937 761,-937 "/>
<text text-anchor="start" x="596" y="-925" font-family="Courier New" font-size="10.00">+ ModelGeometry</text>
<text text-anchor="start" x="596" y="-914" font-family="Courier New" font-size="10.00">+ SurfaceGeometry</text>
<text text-anchor="start" x="596" y="-903" font-family="Courier New" font-size="10.00">+ Data</text>
<polyline fill="none" stroke="black" points="588,-896 761,-896 "/>
<text text-anchor="start" x="596" y="-884" font-family="Courier New" font-size="10.00">+ MappingInfo()</text>
</a>
</g>
</g>
<!-- Node8&#45;&gt;Node2 -->
<g id="edge7" class="edge"><title>Node8&#45;&gt;Node2</title>
<path fill="none" stroke="#404040" d="M643.159,-876.859C619.36,-843.341 585.501,-795.653 554.208,-751.579"/>
<polygon fill="none" stroke="#404040" points="554.105,-751.433 547.37,-748.857 547.157,-741.649 553.893,-744.225 554.105,-751.433"/>
<text text-anchor="middle" x="637" y="-823" font-family="Courier New" font-size="10.00"> &#45;mapping</text>
</g>
<!-- Node9&#45;&gt;Node2 -->
<g id="edge8" class="edge"><title>Node9&#45;&gt;Node2</title>
<path fill="none" stroke="#404040" d="M409.279,-1013.35C407.31,-1007.29 405.623,-1001.06 404.5,-995 392.671,-931.198 394.492,-913.112 404.5,-849 406.315,-837.375 408.656,-825.517 411.374,-813.645"/>
<polygon fill="none" stroke="#404040" points="411.421,-813.447 408.925,-806.682 414.211,-801.776 416.706,-808.542 411.421,-813.447"/>
<text text-anchor="middle" x="462" y="-919.5" font-family="Courier New" font-size="10.00"> &#45;meshColController</text>
</g>
</g>
</svg>
        <g id="navigator" transform="translate(0 0)" fill="#404254">
                <rect fill="#f2f5e9" fill-opacity="0.5" stroke="#606060" stroke-width=".5" x="0" y="0" width="60" height="60"/>
                <use id="zoomplus" xlink:href="#zoomPlus" x="17" y="9" onmousedown="handleZoom(evt,'in')"/>
                <use id="zoomminus" xlink:href="#zoomMin" x="42" y="9" onmousedown="handleZoom(evt,'out')"/>
                <use id="reset" xlink:href="#resetDef" x="30" y="36" onmousedown="handleReset()"/>
                <g id="arrowUp" xlink:href="#dirArrow" transform="translate(30 24)" onmousedown="handlePan(0,-1)">
                  <use xlink:href="#rim" fill="#404040">
                        <set attributeName="fill" to="#808080" begin="arrowUp.mouseover" end="arrowUp.mouseout"/>
                  </use>
                  <path fill="none" stroke="white" stroke-width="1.5" d="M0,-3.0v7 M-2.5,-0.5L0,-3.0L2.5,-0.5"/>
                </g>
                <g id="arrowRight" xlink:href="#dirArrow" transform="rotate(90) translate(36 -43)" onmousedown="handlePan(1,0)">
                  <use xlink:href="#rim" fill="#404040">
                        <set attributeName="fill" to="#808080" begin="arrowRight.mouseover" end="arrowRight.mouseout"/>
                  </use>
                  <path fill="none" stroke="white" stroke-width="1.5" d="M0,-3.0v7 M-2.5,-0.5L0,-3.0L2.5,-0.5"/>
                </g>
                <g id="arrowDown" xlink:href="#dirArrow" transform="rotate(180) translate(-30 -48)" onmousedown="handlePan(0,1)">
                  <use xlink:href="#rim" fill="#404040">
                        <set attributeName="fill" to="#808080" begin="arrowDown.mouseover" end="arrowDown.mouseout"/>
                  </use>
                  <path fill="none" stroke="white" stroke-width="1.5" d="M0,-3.0v7 M-2.5,-0.5L0,-3.0L2.5,-0.5"/>
                </g>
                <g id="arrowLeft" xlink:href="#dirArrow" transform="rotate(270) translate(-36 17)" onmousedown="handlePan(-1,0)">
                  <use xlink:href="#rim" fill="#404040">
                        <set attributeName="fill" to="#808080" begin="arrowLeft.mouseover" end="arrowLeft.mouseout"/>
                  </use>
                  <path fill="none" stroke="white" stroke-width="1.5" d="M0,-3.0v7 M-2.5,-0.5L0,-3.0L2.5,-0.5"/>
                </g>
        </g>
        <svg viewBox="0 0 15 15" width="100%" height="30px" preserveAspectRatio="xMaxYMin meet">
         <g id="arrow_out" transform="scale(0.3 0.3)">
          <a xlink:href="class_c2_m2_1_1_neuronal_dynamics_1_1_simulation_1_1_m_o_l___matrix__v2__coll__graph_org.svg" target="_base">
           <rect id="button" ry="5" rx="5" y="6" x="6" height="38" width="38"
                fill="#f2f5e9" fill-opacity="0.5" stroke="#606060" stroke-width="1.0"/>
           <path id="arrow"
             d="M 11.500037,31.436501 C 11.940474,20.09759 22.043105,11.32322 32.158766,21.979434 L 37.068811,17.246167 C 37.068811,17.246167 37.088388,32 37.088388,32 L 22.160133,31.978069 C 22.160133,31.978069 26.997745,27.140456 26.997745,27.140456 C 18.528582,18.264221 13.291696,25.230495 11.500037,31.436501 z"
             style="fill:#404040;"/>
          </a>
         </g>
        </svg>
</svg>
