<?xml version="1.0" encoding="UTF-8" standalone="no"?>
<!DOCTYPE svg PUBLIC "-//W3C//DTD SVG 1.1//EN"
 "http://www.w3.org/Graphics/SVG/1.1/DTD/svg11.dtd">
<!-- Generated by graphviz version 2.38.0 (20140413.2041)
 -->
<!-- Title: C2M2.NeuronalDynamics.Simulation.MOL_Matrix_v2 Pages: 1 -->
<svg width="378pt" height="1247pt"
 viewBox="0.00 0.00 378.00 1247.00" xmlns="http://www.w3.org/2000/svg" xmlns:xlink="http://www.w3.org/1999/xlink">
<g id="graph0" class="graph" transform="scale(1 1) rotate(0) translate(4 1243)">
<title>C2M2.NeuronalDynamics.Simulation.MOL_Matrix_v2</title>
<polygon fill="white" stroke="none" points="-4,4 -4,-1243 374,-1243 374,4 -4,4"/>
<!-- Node1 -->
<g id="node1" class="node"><title>Node1</title>
<g id="a_node1"><a xlink:title="Solve Hodkin&#45;Huxley equations using Method of Lines on a 1D rod">
<polygon fill="#bfbfbf" stroke="black" points="73,-0.5 73,-431.5 288,-431.5 288,-0.5 73,-0.5"/>
<text text-anchor="start" x="81" y="-419.5" font-family="Courier New" font-size="10.00">C2M2.NeuronalDynamics.Simulation.</text>
<text text-anchor="middle" x="180.5" y="-408.5" font-family="Courier New" font-size="10.00">MOL_Matrix_v2</text>
<polyline fill="none" stroke="black" points="73,-401.5 288,-401.5 "/>
<text text-anchor="start" x="81" y="-389.5" font-family="Courier New" font-size="10.00">+ nX</text>
<text text-anchor="start" x="81" y="-378.5" font-family="Courier New" font-size="10.00">+ nT</text>
<text text-anchor="start" x="81" y="-367.5" font-family="Courier New" font-size="10.00">+ X</text>
<text text-anchor="start" x="81" y="-356.5" font-family="Courier New" font-size="10.00">+ T</text>
<text text-anchor="start" x="81" y="-345.5" font-family="Courier New" font-size="10.00">+ E</text>
<text text-anchor="start" x="81" y="-334.5" font-family="Courier New" font-size="10.00">+ a</text>
<text text-anchor="start" x="81" y="-323.5" font-family="Courier New" font-size="10.00">+ gk</text>
<text text-anchor="start" x="81" y="-312.5" font-family="Courier New" font-size="10.00">+ ek</text>
<text text-anchor="start" x="81" y="-301.5" font-family="Courier New" font-size="10.00">+ ni</text>
<text text-anchor="start" x="81" y="-290.5" font-family="Courier New" font-size="10.00">+ b</text>
<text text-anchor="start" x="81" y="-279.5" font-family="Courier New" font-size="10.00">+ c</text>
<text text-anchor="start" x="81" y="-268.5" font-family="Courier New" font-size="10.00">&#45; U</text>
<text text-anchor="start" x="81" y="-257.5" font-family="Courier New" font-size="10.00">&#45; i</text>
<text text-anchor="start" x="81" y="-246.5" font-family="Courier New" font-size="10.00">&#45; newValues</text>
<text text-anchor="start" x="81" y="-235.5" font-family="Courier New" font-size="10.00">&#45; vstart</text>
<text text-anchor="start" x="81" y="-224.5" font-family="Courier New" font-size="10.00">&#45; R</text>
<text text-anchor="start" x="81" y="-213.5" font-family="Courier New" font-size="10.00">&#45; gna</text>
<text text-anchor="start" x="81" y="-202.5" font-family="Courier New" font-size="10.00">&#45; gl</text>
<text text-anchor="start" x="81" y="-191.5" font-family="Courier New" font-size="10.00">&#45; ena</text>
<text text-anchor="start" x="81" y="-180.5" font-family="Courier New" font-size="10.00">&#45; el</text>
<text text-anchor="start" x="81" y="-169.5" font-family="Courier New" font-size="10.00">&#45; mi</text>
<text text-anchor="start" x="81" y="-158.5" font-family="Courier New" font-size="10.00">&#45; hi</text>
<polyline fill="none" stroke="black" points="73,-151.5 288,-151.5 "/>
<text text-anchor="start" x="81" y="-139.5" font-family="Courier New" font-size="10.00"># Get1DValues()</text>
<text text-anchor="start" x="81" y="-128.5" font-family="Courier New" font-size="10.00"># Set1DValues()</text>
<text text-anchor="start" x="81" y="-117.5" font-family="Courier New" font-size="10.00"># SetNeuronCell()</text>
<text text-anchor="start" x="81" y="-106.5" font-family="Courier New" font-size="10.00"># Solve()</text>
<text text-anchor="start" x="81" y="-95.5" font-family="Courier New" font-size="10.00">&#45; PointwiseExpb()</text>
<text text-anchor="start" x="81" y="-84.5" font-family="Courier New" font-size="10.00">&#45; BuildStencil()</text>
<text text-anchor="start" x="81" y="-73.5" font-family="Courier New" font-size="10.00">&#45; ReactF()</text>
<text text-anchor="start" x="81" y="-62.5" font-family="Courier New" font-size="10.00">&#45; An()</text>
<text text-anchor="start" x="81" y="-51.5" font-family="Courier New" font-size="10.00">&#45; Bn()</text>
<text text-anchor="start" x="81" y="-40.5" font-family="Courier New" font-size="10.00">&#45; Am()</text>
<text text-anchor="start" x="81" y="-29.5" font-family="Courier New" font-size="10.00">&#45; Bm()</text>
<text text-anchor="start" x="81" y="-18.5" font-family="Courier New" font-size="10.00">&#45; Ah()</text>
<text text-anchor="start" x="81" y="-7.5" font-family="Courier New" font-size="10.00">&#45; Bh()</text>
</a>
</g>
</g>
<!-- Node2 -->
<g id="node2" class="node"><title>Node2</title>
<g id="a_node2"><a xlink:href="../../d4/d5a/class_c2_m2_1_1_neuronal_dynamics_1_1_simulation_1_1_neuron_simulation1_d.html" target="_top" xlink:title="Provide an interface for 1D neuron&#45;surface simulations to be visualized and interacted with">
<polygon fill="white" stroke="black" points="118,-469.5 118,-691.5 243,-691.5 243,-469.5 118,-469.5"/>
<text text-anchor="middle" x="180.5" y="-679.5" font-family="Courier New" font-size="10.00">NeuronSimulation1D</text>
<polyline fill="none" stroke="black" points="118,-672.5 243,-672.5 "/>
<text text-anchor="start" x="126" y="-660.5" font-family="Courier New" font-size="10.00">+ visualize1D</text>
<text text-anchor="start" x="126" y="-649.5" font-family="Courier New" font-size="10.00">+ color1D</text>
<text text-anchor="start" x="126" y="-638.5" font-family="Courier New" font-size="10.00">+ lineWidth1D</text>
<text text-anchor="start" x="126" y="-627.5" font-family="Courier New" font-size="10.00">&#45; map</text>
<text text-anchor="start" x="126" y="-616.5" font-family="Courier New" font-size="10.00">&#45; neuronCellFolder</text>
<text text-anchor="start" x="126" y="-605.5" font-family="Courier New" font-size="10.00">&#45; activeCellFolder</text>
<text text-anchor="start" x="126" y="-594.5" font-family="Courier New" font-size="10.00">&#45; ugxExt</text>
<text text-anchor="start" x="126" y="-583.5" font-family="Courier New" font-size="10.00">&#45; cngExt</text>
<text text-anchor="start" x="126" y="-572.5" font-family="Courier New" font-size="10.00">&#45; spec1D</text>
<text text-anchor="start" x="126" y="-561.5" font-family="Courier New" font-size="10.00">&#45; specTris</text>
<text text-anchor="start" x="126" y="-550.5" font-family="Courier New" font-size="10.00">&#45; specBlownup</text>
<polyline fill="none" stroke="black" points="118,-543.5 243,-543.5 "/>
<text text-anchor="start" x="126" y="-531.5" font-family="Courier New" font-size="10.00">+ GetValues()</text>
<text text-anchor="start" x="126" y="-520.5" font-family="Courier New" font-size="10.00">+ SetValues()</text>
<text text-anchor="start" x="126" y="-509.5" font-family="Courier New" font-size="10.00"># Set1DValues()</text>
<text text-anchor="start" x="126" y="-498.5" font-family="Courier New" font-size="10.00"># Get1DValues()</text>
<text text-anchor="start" x="126" y="-487.5" font-family="Courier New" font-size="10.00"># SetNeuronCell()</text>
<text text-anchor="start" x="126" y="-476.5" font-family="Courier New" font-size="10.00"># BuildMesh()</text>
</a>
</g>
</g>
<!-- Node2&#45;&gt;Node1 -->
<g id="edge1" class="edge"><title>Node2&#45;&gt;Node1</title>
<path fill="none" stroke="midnightblue" d="M180.5,-459.244C180.5,-450.282 180.5,-441.095 180.5,-431.786"/>
<polygon fill="none" stroke="midnightblue" points="177,-459.262 180.5,-469.262 184,-459.262 177,-459.262"/>
</g>
<!-- Node3 -->
<g id="node3" class="node"><title>Node3</title>
<g id="a_node3"><a xlink:href="../../d4/de1/class_c2_m2_1_1_simulation_1_1_surface_simulation.html" target="_top" xlink:title="Simulation of type double[] for visualizing scalar fields on mesh surfaces">
<polygon fill="white" stroke="black" points="16,-739.5 16,-884.5 171,-884.5 171,-739.5 16,-739.5"/>
<text text-anchor="middle" x="93.5" y="-872.5" font-family="Courier New" font-size="10.00">SurfaceSimulation</text>
<polyline fill="none" stroke="black" points="16,-865.5 171,-865.5 "/>
<text text-anchor="start" x="24" y="-853.5" font-family="Courier New" font-size="10.00">+ gradient</text>
<text text-anchor="start" x="24" y="-842.5" font-family="Courier New" font-size="10.00">+ globalMax</text>
<text text-anchor="start" x="24" y="-831.5" font-family="Courier New" font-size="10.00">+ globalMin</text>
<text text-anchor="start" x="24" y="-820.5" font-family="Courier New" font-size="10.00">+ colorLUT</text>
<text text-anchor="start" x="24" y="-809.5" font-family="Courier New" font-size="10.00">&#45; mf</text>
<text text-anchor="start" x="24" y="-798.5" font-family="Courier New" font-size="10.00">&#45; mr</text>
<polyline fill="none" stroke="black" points="16,-791.5 171,-791.5 "/>
<text text-anchor="start" x="24" y="-779.5" font-family="Courier New" font-size="10.00"># BuildMesh()</text>
<text text-anchor="start" x="24" y="-768.5" font-family="Courier New" font-size="10.00"># UpdateVisualization()</text>
<text text-anchor="start" x="24" y="-757.5" font-family="Courier New" font-size="10.00"># OnAwake()</text>
<text text-anchor="start" x="24" y="-746.5" font-family="Courier New" font-size="10.00">&#45; UpdateVisualization()</text>
</a>
</g>
</g>
<!-- Node3&#45;&gt;Node2 -->
<g id="edge2" class="edge"><title>Node3&#45;&gt;Node2</title>
<path fill="none" stroke="midnightblue" d="M124.352,-729.614C129.007,-717.336 133.873,-704.5 138.71,-691.738"/>
<polygon fill="none" stroke="midnightblue" points="120.942,-728.737 120.669,-739.329 127.487,-731.219 120.942,-728.737"/>
</g>
<!-- Node4 -->
<g id="node4" class="node"><title>Node4</title>
<g id="a_node4"><a xlink:href="../../db/d39/class_c2_m2_1_1_simulation_1_1_simulation.html" target="_top" xlink:title=" ">
<polygon fill="white" stroke="black" points="0,-932.5 0,-1143.5 155,-1143.5 155,-932.5 0,-932.5"/>
<text text-anchor="middle" x="77.5" y="-1131.5" font-family="Courier New" font-size="10.00">Simulation&lt; double[]&gt;</text>
<polyline fill="none" stroke="black" points="0,-1124.5 155,-1124.5 "/>
<text text-anchor="start" x="8" y="-1112.5" font-family="Courier New" font-size="10.00">+ startOnAwake</text>
<text text-anchor="start" x="8" y="-1101.5" font-family="Courier New" font-size="10.00"># mutex</text>
<text text-anchor="start" x="8" y="-1090.5" font-family="Courier New" font-size="10.00">&#45; solveThread</text>
<polyline fill="none" stroke="black" points="0,-1083.5 155,-1083.5 "/>
<text text-anchor="start" x="8" y="-1071.5" font-family="Courier New" font-size="10.00">+ GetValues()</text>
<text text-anchor="start" x="8" y="-1060.5" font-family="Courier New" font-size="10.00">+ StartSimulation()</text>
<text text-anchor="start" x="8" y="-1049.5" font-family="Courier New" font-size="10.00">+ StopSimulation()</text>
<text text-anchor="start" x="8" y="-1038.5" font-family="Courier New" font-size="10.00">+ Awake()</text>
<text text-anchor="start" x="8" y="-1027.5" font-family="Courier New" font-size="10.00">+ Start()</text>
<text text-anchor="start" x="8" y="-1016.5" font-family="Courier New" font-size="10.00">+ Update()</text>
<text text-anchor="start" x="8" y="-1005.5" font-family="Courier New" font-size="10.00"># UpdateVisualization()</text>
<text text-anchor="start" x="8" y="-994.5" font-family="Courier New" font-size="10.00"># Solve()</text>
<text text-anchor="start" x="8" y="-983.5" font-family="Courier New" font-size="10.00"># OnAwake()</text>
<text text-anchor="start" x="8" y="-972.5" font-family="Courier New" font-size="10.00"># OnStart()</text>
<text text-anchor="start" x="8" y="-961.5" font-family="Courier New" font-size="10.00"># OnUpdate()</text>
<text text-anchor="start" x="8" y="-950.5" font-family="Courier New" font-size="10.00">&#45; OnApplicationPause()</text>
<text text-anchor="start" x="8" y="-939.5" font-family="Courier New" font-size="10.00">&#45; OnApplicationQuit()</text>
</a>
</g>
</g>
<!-- Node4&#45;&gt;Node3 -->
<g id="edge3" class="edge"><title>Node4&#45;&gt;Node3</title>
<path fill="none" stroke="midnightblue" d="M85.7114,-922.041C86.6177,-909.353 87.5203,-896.716 88.3728,-884.781"/>
<polygon fill="none" stroke="midnightblue" points="82.2061,-921.99 84.9847,-932.214 89.1884,-922.489 82.2061,-921.99"/>
</g>
<!-- Node5 -->
<g id="node5" class="node"><title>Node5</title>
<g id="a_node5"><a xlink:href="../../da/d4f/class_c2_m2_1_1_visualization_1_1_l_u_t_gradient.html" target="_top" xlink:title="Create a fast and memory&#45;friendly color lookup table from a gradient">
<polygon fill="white" stroke="black" points="173,-954.5 173,-1121.5 370,-1121.5 370,-954.5 173,-954.5"/>
<text text-anchor="middle" x="271.5" y="-1109.5" font-family="Courier New" font-size="10.00">C2M2.Visualization.LUTGradient</text>
<polyline fill="none" stroke="black" points="173,-1102.5 370,-1102.5 "/>
<text text-anchor="start" x="181" y="-1090.5" font-family="Courier New" font-size="10.00">+ extremaMethod</text>
<text text-anchor="start" x="181" y="-1079.5" font-family="Courier New" font-size="10.00">+ globalMax</text>
<text text-anchor="start" x="181" y="-1068.5" font-family="Courier New" font-size="10.00">+ globalMin</text>
<text text-anchor="start" x="181" y="-1057.5" font-family="Courier New" font-size="10.00">+ LutRes</text>
<text text-anchor="start" x="181" y="-1046.5" font-family="Courier New" font-size="10.00">+ Gradient</text>
<text text-anchor="start" x="181" y="-1035.5" font-family="Courier New" font-size="10.00">+ gradientLUT</text>
<text text-anchor="start" x="181" y="-1024.5" font-family="Courier New" font-size="10.00">&#45; lutRes</text>
<text text-anchor="start" x="181" y="-1013.5" font-family="Courier New" font-size="10.00">&#45; gradient</text>
<polyline fill="none" stroke="black" points="173,-1006.5 370,-1006.5 "/>
<text text-anchor="start" x="181" y="-994.5" font-family="Courier New" font-size="10.00">+ Evaluate()</text>
<text text-anchor="start" x="181" y="-983.5" font-family="Courier New" font-size="10.00">+ Evaluate()</text>
<text text-anchor="start" x="181" y="-972.5" font-family="Courier New" font-size="10.00">&#45; BuildLUT()</text>
<text text-anchor="start" x="181" y="-961.5" font-family="Courier New" font-size="10.00">&#45; RescaleArray()</text>
</a>
</g>
</g>
<!-- Node5&#45;&gt;Node3 -->
<g id="edge4" class="edge"><title>Node5&#45;&gt;Node3</title>
<path fill="none" stroke="#404040" d="M205.725,-954.227C190.15,-934.627 173.555,-913.744 158.036,-894.214"/>
<polygon fill="none" stroke="#404040" points="157.979,-894.142 151.115,-891.933 150.514,-884.747 157.378,-886.956 157.979,-894.142"/>
<text text-anchor="middle" x="218" y="-906" font-family="Courier New" font-size="10.00"> +extremaMethod</text>
</g>
<!-- Node6 -->
<g id="node6" class="node"><title>Node6</title>
<g id="a_node6"><a xlink:title=" ">
<polygon fill="white" stroke="#bfbfbf" points="224,-1181.5 224,-1238.5 319,-1238.5 319,-1181.5 224,-1181.5"/>
<text text-anchor="middle" x="271.5" y="-1226.5" font-family="Courier New" font-size="10.00">MonoBehaviour</text>
<polyline fill="none" stroke="#bfbfbf" points="224,-1219.5 319,-1219.5 "/>
<text text-anchor="middle" x="271.5" y="-1207.5" font-family="Courier New" font-size="10.00"> </text>
<polyline fill="none" stroke="#bfbfbf" points="224,-1200.5 319,-1200.5 "/>
<text text-anchor="middle" x="271.5" y="-1188.5" font-family="Courier New" font-size="10.00"> </text>
</a>
</g>
</g>
<!-- Node6&#45;&gt;Node5 -->
<g id="edge5" class="edge"><title>Node6&#45;&gt;Node5</title>
<path fill="none" stroke="midnightblue" d="M271.5,-1171.15C271.5,-1156.48 271.5,-1139.06 271.5,-1121.77"/>
<polygon fill="none" stroke="midnightblue" points="268,-1171.31 271.5,-1181.31 275,-1171.31 268,-1171.31"/>
</g>
<!-- Node7 -->
<g id="node7" class="node"><title>Node7</title>
<g id="a_node7"><a xlink:title=" ">
<polygon fill="white" stroke="#bfbfbf" points="189,-783.5 189,-840.5 230,-840.5 230,-783.5 189,-783.5"/>
<text text-anchor="middle" x="209.5" y="-828.5" font-family="Courier New" font-size="10.00">C2M2</text>
<polyline fill="none" stroke="#bfbfbf" points="189,-821.5 230,-821.5 "/>
<text text-anchor="middle" x="209.5" y="-809.5" font-family="Courier New" font-size="10.00"> </text>
<polyline fill="none" stroke="#bfbfbf" points="189,-802.5 230,-802.5 "/>
<text text-anchor="middle" x="209.5" y="-790.5" font-family="Courier New" font-size="10.00"> </text>
</a>
</g>
</g>
<!-- Node7&#45;&gt;Node2 -->
<g id="edge6" class="edge"><title>Node7&#45;&gt;Node2</title>
<path fill="none" stroke="#404040" d="M206.002,-783.317C203.422,-762.899 199.714,-733.559 195.922,-703.55"/>
<polygon fill="none" stroke="#404040" points="195.915,-703.489 191.194,-698.038 194.41,-691.584 199.131,-697.035 195.915,-703.489"/>
<text text-anchor="middle" x="223" y="-713" font-family="Courier New" font-size="10.00"> #grid1D</text>
</g>
</g>
</svg>
