<?xml version="1.0" encoding="UTF-8" standalone="no"?>
<!DOCTYPE svg PUBLIC "-//W3C//DTD SVG 1.1//EN"
 "http://www.w3.org/Graphics/SVG/1.1/DTD/svg11.dtd">
<!-- Generated by graphviz version 2.46.0 (20210118.1747)
 -->
<!-- Title: SimulationTimerLabel Pages: 1 -->
<svg width="145pt" height="204pt"
 viewBox="0.00 0.00 145.00 204.00" xmlns="http://www.w3.org/2000/svg" xmlns:xlink="http://www.w3.org/1999/xlink">
<g id="graph0" class="graph" transform="scale(1 1) rotate(0) translate(4 200)">
<title>SimulationTimerLabel</title>
<polygon fill="white" stroke="transparent" points="-4,4 -4,-200 141,-200 141,4 -4,4"/>
<!-- Node1 -->
<g id="node1" class="node">
<title>Node1</title>
<g id="a_node1"><a xlink:title=" ">
<polygon fill="#bfbfbf" stroke="black" points="0,-0.5 0,-101.5 137,-101.5 137,-0.5 0,-0.5"/>
<text text-anchor="middle" x="68.5" y="-89.5" font-family="Courier New" font-size="10.00">SimulationTimerLabel</text>
<polyline fill="none" stroke="black" points="0,-82.5 137,-82.5 "/>
<text text-anchor="start" x="8" y="-70.5" font-family="Courier New" font-size="10.00">+ sim</text>
<text text-anchor="start" x="8" y="-59.5" font-family="Courier New" font-size="10.00">+ timerText</text>
<text text-anchor="start" x="8" y="-48.5" font-family="Courier New" font-size="10.00">+ time</text>
<polyline fill="none" stroke="black" points="0,-41.5 137,-41.5 "/>
<text text-anchor="start" x="8" y="-29.5" font-family="Courier New" font-size="10.00">+ ToString()</text>
<text text-anchor="start" x="8" y="-18.5" font-family="Courier New" font-size="10.00">&#45; Start()</text>
<text text-anchor="start" x="8" y="-7.5" font-family="Courier New" font-size="10.00">&#45; FixedUpdate()</text>
</a>
</g>
</g>
<!-- Node2 -->
<g id="node2" class="node">
<title>Node2</title>
<g id="a_node2"><a xlink:title=" ">
<polygon fill="white" stroke="#bfbfbf" points="21,-138.5 21,-195.5 116,-195.5 116,-138.5 21,-138.5"/>
<text text-anchor="middle" x="68.5" y="-183.5" font-family="Courier New" font-size="10.00">MonoBehaviour</text>
<polyline fill="none" stroke="#bfbfbf" points="21,-176.5 116,-176.5 "/>
<text text-anchor="middle" x="68.5" y="-164.5" font-family="Courier New" font-size="10.00"> </text>
<polyline fill="none" stroke="#bfbfbf" points="21,-157.5 116,-157.5 "/>
<text text-anchor="middle" x="68.5" y="-145.5" font-family="Courier New" font-size="10.00"> </text>
</a>
</g>
</g>
<!-- Node2&#45;&gt;Node1 -->
<g id="edge1" class="edge">
<title>Node2&#45;&gt;Node1</title>
<path fill="none" stroke="midnightblue" d="M68.5,-128.35C68.5,-119.8 68.5,-110.58 68.5,-101.61"/>
<polygon fill="none" stroke="midnightblue" points="65,-128.4 68.5,-138.4 72,-128.4 65,-128.4"/>
</g>
</g>
</svg>
