<?xml version="1.0" encoding="UTF-8" standalone="no"?>
<!DOCTYPE svg PUBLIC "-//W3C//DTD SVG 1.1//EN"
 "http://www.w3.org/Graphics/SVG/1.1/DTD/svg11.dtd">
<!-- Generated by graphviz version 2.38.0 (20140413.2041)
 -->
<!-- Title: C2M2.Interaction.Adjacency.DijkstraSearch Pages: 1 -->
<svg width="392pt" height="613pt"
 viewBox="0.00 0.00 392.00 613.00" xmlns="http://www.w3.org/2000/svg" xmlns:xlink="http://www.w3.org/1999/xlink">
<g id="graph0" class="graph" transform="scale(1 1) rotate(0) translate(4 609)">
<title>C2M2.Interaction.Adjacency.DijkstraSearch</title>
<polygon fill="white" stroke="none" points="-4,4 -4,-609 388,-609 388,4 -4,4"/>
<!-- Node1 -->
<g id="node1" class="node"><title>Node1</title>
<g id="a_node1"><a xlink:title=" ">
<polygon fill="#bfbfbf" stroke="black" points="0,-0.5 0,-79.5 179,-79.5 179,-0.5 0,-0.5"/>
<text text-anchor="start" x="8" y="-67.5" font-family="Courier New" font-size="10.00">C2M2.Interaction.Adjacency.</text>
<text text-anchor="middle" x="89.5" y="-56.5" font-family="Courier New" font-size="10.00">DijkstraSearch</text>
<polyline fill="none" stroke="black" points="0,-49.5 179,-49.5 "/>
<text text-anchor="start" x="8" y="-37.5" font-family="Courier New" font-size="10.00">+ minDistances</text>
<polyline fill="none" stroke="black" points="0,-30.5 179,-30.5 "/>
<text text-anchor="start" x="8" y="-18.5" font-family="Courier New" font-size="10.00">+ Search()</text>
<text text-anchor="start" x="8" y="-7.5" font-family="Courier New" font-size="10.00">&#45; Awake()</text>
</a>
</g>
</g>
<!-- Node2 -->
<g id="node2" class="node"><title>Node2</title>
<g id="a_node2"><a xlink:title=" ">
<polygon fill="white" stroke="#bfbfbf" points="122,-547.5 122,-604.5 217,-604.5 217,-547.5 122,-547.5"/>
<text text-anchor="middle" x="169.5" y="-592.5" font-family="Courier New" font-size="10.00">MonoBehaviour</text>
<polyline fill="none" stroke="#bfbfbf" points="122,-585.5 217,-585.5 "/>
<text text-anchor="middle" x="169.5" y="-573.5" font-family="Courier New" font-size="10.00"> </text>
<polyline fill="none" stroke="#bfbfbf" points="122,-566.5 217,-566.5 "/>
<text text-anchor="middle" x="169.5" y="-554.5" font-family="Courier New" font-size="10.00"> </text>
</a>
</g>
</g>
<!-- Node2&#45;&gt;Node1 -->
<g id="edge1" class="edge"><title>Node2&#45;&gt;Node1</title>
<path fill="none" stroke="midnightblue" d="M112.466,-556.661C90.6484,-546.547 68.0175,-531.546 55.5,-510 -26.1085,-369.527 39.7037,-164.046 73.0565,-79.507"/>
<polygon fill="none" stroke="midnightblue" points="111.169,-559.914 121.735,-560.702 113.966,-553.497 111.169,-559.914"/>
</g>
<!-- Node3 -->
<g id="node3" class="node"><title>Node3</title>
<g id="a_node3"><a xlink:href="../../d2/d9a/class_c2_m2_1_1_interaction_1_1_adjacency_1_1_unique_vertices.html" target="_top" xlink:title="Get the unique vertices of a mesh and add invisible vertices for adjacency list">
<polygon fill="white" stroke="black" points="65,-331.5 65,-509.5 274,-509.5 274,-331.5 65,-331.5"/>
<text text-anchor="start" x="73" y="-497.5" font-family="Courier New" font-size="10.00">C2M2.Interaction.Adjacency.</text>
<text text-anchor="middle" x="169.5" y="-486.5" font-family="Courier New" font-size="10.00">UniqueVertices</text>
<polyline fill="none" stroke="black" points="65,-479.5 274,-479.5 "/>
<text text-anchor="start" x="73" y="-467.5" font-family="Courier New" font-size="10.00">+ subdivisions</text>
<text text-anchor="start" x="73" y="-456.5" font-family="Courier New" font-size="10.00">+ uniqueVerts</text>
<text text-anchor="start" x="73" y="-445.5" font-family="Courier New" font-size="10.00">+ uniqueMeshVertLength</text>
<text text-anchor="start" x="73" y="-434.5" font-family="Courier New" font-size="10.00">+ uniqueVertReverseLookup</text>
<text text-anchor="start" x="73" y="-423.5" font-family="Courier New" font-size="10.00">&#45; vertices</text>
<text text-anchor="start" x="73" y="-412.5" font-family="Courier New" font-size="10.00">&#45; triangles</text>
<polyline fill="none" stroke="black" points="65,-405.5 274,-405.5 "/>
<text text-anchor="start" x="73" y="-393.5" font-family="Courier New" font-size="10.00">+ FindNearestUniqueVert()</text>
<text text-anchor="start" x="73" y="-382.5" font-family="Courier New" font-size="10.00">+ RaycastFindNearestUnique</text>
<text text-anchor="start" x="73" y="-371.5" font-family="Courier New" font-size="10.00">Verts()</text>
<text text-anchor="start" x="73" y="-360.5" font-family="Courier New" font-size="10.00">&#45; Awake()</text>
<text text-anchor="start" x="73" y="-349.5" font-family="Courier New" font-size="10.00">&#45; BuildInvisibleVerts()</text>
<text text-anchor="start" x="73" y="-338.5" font-family="Courier New" font-size="10.00">&#45; BuildUniqueVertReverseLookup()</text>
</a>
</g>
</g>
<!-- Node2&#45;&gt;Node3 -->
<g id="edge3" class="edge"><title>Node2&#45;&gt;Node3</title>
<path fill="none" stroke="midnightblue" d="M169.5,-536.957C169.5,-528.471 169.5,-519.13 169.5,-509.549"/>
<polygon fill="none" stroke="midnightblue" points="166,-537.202 169.5,-547.202 173,-537.202 166,-537.202"/>
</g>
<!-- Node4 -->
<g id="node4" class="node"><title>Node4</title>
<g id="a_node4"><a xlink:href="../../d1/d3e/class_c2_m2_1_1_interaction_1_1_adjacency_1_1_adjacency_list.html" target="_top" xlink:title=" ">
<polygon fill="white" stroke="black" points="205,-127.5 205,-283.5 384,-283.5 384,-127.5 205,-127.5"/>
<text text-anchor="start" x="213" y="-271.5" font-family="Courier New" font-size="10.00">C2M2.Interaction.Adjacency.</text>
<text text-anchor="middle" x="294.5" y="-260.5" font-family="Courier New" font-size="10.00">AdjacencyList</text>
<polyline fill="none" stroke="black" points="205,-253.5 384,-253.5 "/>
<text text-anchor="start" x="213" y="-241.5" font-family="Courier New" font-size="10.00">+ adjacencyList</text>
<text text-anchor="start" x="213" y="-230.5" font-family="Courier New" font-size="10.00">+ edgeList</text>
<text text-anchor="start" x="213" y="-219.5" font-family="Courier New" font-size="10.00">+ edgeCount</text>
<text text-anchor="start" x="213" y="-208.5" font-family="Courier New" font-size="10.00">&#45; mesh</text>
<text text-anchor="start" x="213" y="-197.5" font-family="Courier New" font-size="10.00">&#45; vertices</text>
<text text-anchor="start" x="213" y="-186.5" font-family="Courier New" font-size="10.00">&#45; triangles</text>
<text text-anchor="start" x="213" y="-175.5" font-family="Courier New" font-size="10.00">&#45; duplicate</text>
<polyline fill="none" stroke="black" points="205,-168.5 384,-168.5 "/>
<text text-anchor="start" x="213" y="-156.5" font-family="Courier New" font-size="10.00">&#45; Awake()</text>
<text text-anchor="start" x="213" y="-145.5" font-family="Courier New" font-size="10.00">&#45; CreateAdjacencyList()</text>
<text text-anchor="start" x="213" y="-134.5" font-family="Courier New" font-size="10.00">&#45; AdjacencyListAddEdge()</text>
</a>
</g>
</g>
<!-- Node2&#45;&gt;Node4 -->
<g id="edge5" class="edge"><title>Node2&#45;&gt;Node4</title>
<path fill="none" stroke="midnightblue" d="M226.437,-555.918C247.751,-545.753 269.844,-530.915 282.5,-510 323.654,-441.988 320.5,-348.833 310.951,-283.731"/>
<polygon fill="none" stroke="midnightblue" points="224.749,-552.839 217.059,-560.128 227.616,-559.225 224.749,-552.839"/>
</g>
<!-- Node3&#45;&gt;Node1 -->
<g id="edge2" class="edge"><title>Node3&#45;&gt;Node1</title>
<path fill="none" stroke="#404040" d="M116.265,-331.41C109.076,-316.066 102.73,-299.913 98.5,-284 81.3018,-219.308 81.9555,-141.53 84.9445,-91.6956"/>
<polygon fill="none" stroke="#404040" points="84.949,-91.6264 81.356,-85.3742 85.7453,-79.6528 89.3384,-85.905 84.949,-91.6264"/>
<text text-anchor="middle" x="147" y="-203" font-family="Courier New" font-size="10.00"> &#45;uniqueVertices</text>
</g>
<!-- Node3&#45;&gt;Node4 -->
<g id="edge6" class="edge"><title>Node3&#45;&gt;Node4</title>
<path fill="none" stroke="#404040" d="M179.573,-331.346C182.594,-321.105 186.488,-311.086 191.5,-302 193.414,-298.53 195.5,-295.116 197.729,-291.765"/>
<polygon fill="none" stroke="#404040" points="197.811,-291.651 198.063,-284.444 204.813,-281.905 204.56,-289.112 197.811,-291.651"/>
<text text-anchor="middle" x="240" y="-305" font-family="Courier New" font-size="10.00"> &#45;uniqueVertices</text>
</g>
<!-- Node4&#45;&gt;Node1 -->
<g id="edge4" class="edge"><title>Node4&#45;&gt;Node1</title>
<path fill="none" stroke="#404040" d="M204.882,-133.024C185.429,-117.509 165.346,-101.492 147.497,-87.2565"/>
<polygon fill="none" stroke="#404040" points="147.211,-87.0283 140.026,-86.4142 137.83,-79.5458 145.015,-80.1598 147.211,-87.0283"/>
<text text-anchor="middle" x="220" y="-101" font-family="Courier New" font-size="10.00"> &#45;adjacencyList</text>
</g>
</g>
</svg>
