<?xml version="1.0" encoding="UTF-8" standalone="no"?>
<!DOCTYPE svg PUBLIC "-//W3C//DTD SVG 1.1//EN"
 "http://www.w3.org/Graphics/SVG/1.1/DTD/svg11.dtd">
<!-- Generated by graphviz version 2.38.0 (20140413.2041)
 -->
<!-- Title: C2M2.NeuronalDynamics.Visualization.VRN.CouldNotReadMeshFromVRNArchive Pages: 1 -->
<svg width="241pt" height="204pt"
 viewBox="0.00 0.00 241.00 204.00" xmlns="http://www.w3.org/2000/svg" xmlns:xlink="http://www.w3.org/1999/xlink">
<g id="graph0" class="graph" transform="scale(1 1) rotate(0) translate(4 200)">
<title>C2M2.NeuronalDynamics.Visualization.VRN.CouldNotReadMeshFromVRNArchive</title>
<polygon fill="white" stroke="none" points="-4,4 -4,-200 237,-200 237,4 -4,4"/>
<!-- Node1 -->
<g id="node1" class="node"><title>Node1</title>
<g id="a_node1"><a xlink:title="Custom exception thrown if file could not be found in VRN archive">
<polygon fill="#bfbfbf" stroke="black" points="0,-0.5 0,-101.5 233,-101.5 233,-0.5 0,-0.5"/>
<text text-anchor="start" x="8" y="-89.5" font-family="Courier New" font-size="10.00">C2M2.NeuronalDynamics.Visualization.</text>
<text text-anchor="middle" x="116.5" y="-78.5" font-family="Courier New" font-size="10.00">VRN.CouldNotReadMeshFromVRNArchive</text>
<polyline fill="none" stroke="black" points="0,-71.5 233,-71.5 "/>
<text text-anchor="middle" x="116.5" y="-59.5" font-family="Courier New" font-size="10.00"> </text>
<polyline fill="none" stroke="black" points="0,-52.5 233,-52.5 "/>
<text text-anchor="start" x="8" y="-40.5" font-family="Courier New" font-size="10.00">+ CouldNotReadMeshFromVRNArchive()</text>
<text text-anchor="start" x="8" y="-29.5" font-family="Courier New" font-size="10.00">+ CouldNotReadMeshFromVRNArchive()</text>
<text text-anchor="start" x="8" y="-18.5" font-family="Courier New" font-size="10.00">+ CouldNotReadMeshFromVRNArchive()</text>
<text text-anchor="start" x="8" y="-7.5" font-family="Courier New" font-size="10.00"># CouldNotReadMeshFromVRNArchive()</text>
</a>
</g>
</g>
<!-- Node2 -->
<g id="node2" class="node"><title>Node2</title>
<g id="a_node2"><a xlink:title=" ">
<polygon fill="white" stroke="#bfbfbf" points="81,-138.5 81,-195.5 152,-195.5 152,-138.5 81,-138.5"/>
<text text-anchor="middle" x="116.5" y="-183.5" font-family="Courier New" font-size="10.00">Exception</text>
<polyline fill="none" stroke="#bfbfbf" points="81,-176.5 152,-176.5 "/>
<text text-anchor="middle" x="116.5" y="-164.5" font-family="Courier New" font-size="10.00"> </text>
<polyline fill="none" stroke="#bfbfbf" points="81,-157.5 152,-157.5 "/>
<text text-anchor="middle" x="116.5" y="-145.5" font-family="Courier New" font-size="10.00"> </text>
</a>
</g>
</g>
<!-- Node2&#45;&gt;Node1 -->
<g id="edge1" class="edge"><title>Node2&#45;&gt;Node1</title>
<path fill="none" stroke="midnightblue" d="M116.5,-128.354C116.5,-119.796 116.5,-110.578 116.5,-101.608"/>
<polygon fill="none" stroke="midnightblue" points="113,-128.404 116.5,-138.404 120,-128.404 113,-128.404"/>
</g>
</g>
</svg>
