<?xml version="1.0" encoding="UTF-8" standalone="no"?>
<!DOCTYPE svg PUBLIC "-//W3C//DTD SVG 1.1//EN"
 "http://www.w3.org/Graphics/SVG/1.1/DTD/svg11.dtd">
<!-- Generated by graphviz version 2.38.0 (20140413.2041)
 -->
<!-- Title: C2M2.NeuronalDynamics.Visualization.VTK.VTUManager Pages: 1 -->
<svg width="533pt" height="701pt"
 viewBox="0.00 0.00 533.00 701.00" xmlns="http://www.w3.org/2000/svg" xmlns:xlink="http://www.w3.org/1999/xlink">
<g id="graph0" class="graph" transform="scale(1 1) rotate(0) translate(4 697)">
<title>C2M2.NeuronalDynamics.Visualization.VTK.VTUManager</title>
<polygon fill="white" stroke="none" points="-4,4 -4,-697 529,-697 529,4 -4,4"/>
<!-- Node1 -->
<g id="node1" class="node"><title>Node1</title>
<g id="a_node1"><a xlink:title=" ">
<polygon fill="#bfbfbf" stroke="black" points="255,-259.5 255,-448.5 488,-448.5 488,-259.5 255,-259.5"/>
<text text-anchor="start" x="263" y="-436.5" font-family="Courier New" font-size="10.00">C2M2.NeuronalDynamics.Visualization.</text>
<text text-anchor="middle" x="371.5" y="-425.5" font-family="Courier New" font-size="10.00">VTK.VTUManager</text>
<polyline fill="none" stroke="black" points="255,-418.5 488,-418.5 "/>
<text text-anchor="start" x="263" y="-406.5" font-family="Courier New" font-size="10.00">+ dataExtension</text>
<text text-anchor="start" x="263" y="-395.5" font-family="Courier New" font-size="10.00">+ dataPath</text>
<text text-anchor="start" x="263" y="-384.5" font-family="Courier New" font-size="10.00">+ fileProcessCount</text>
<text text-anchor="start" x="263" y="-373.5" font-family="Courier New" font-size="10.00">+ initialPosition</text>
<text text-anchor="start" x="263" y="-362.5" font-family="Courier New" font-size="10.00">+ initialRotation</text>
<text text-anchor="start" x="263" y="-351.5" font-family="Courier New" font-size="10.00">+ compoundColliderResolution</text>
<text text-anchor="start" x="263" y="-340.5" font-family="Courier New" font-size="10.00">+ adjacencyListSubdivisions</text>
<text text-anchor="start" x="263" y="-329.5" font-family="Courier New" font-size="10.00">+ vtuList</text>
<text text-anchor="start" x="263" y="-318.5" font-family="Courier New" font-size="10.00">+ gradient</text>
<text text-anchor="start" x="263" y="-307.5" font-family="Courier New" font-size="10.00">&#45; objectManager</text>
<text text-anchor="start" x="263" y="-296.5" font-family="Courier New" font-size="10.00">&#45; meshf</text>
<polyline fill="none" stroke="black" points="255,-289.5 488,-289.5 "/>
<text text-anchor="start" x="263" y="-277.5" font-family="Courier New" font-size="10.00">+ Initialize()</text>
<text text-anchor="start" x="263" y="-266.5" font-family="Courier New" font-size="10.00">&#45; BuildVTUList()</text>
</a>
</g>
</g>
<!-- Node3 -->
<g id="node3" class="node"><title>Node3</title>
<g id="a_node3"><a xlink:href="../../dc/d1d/class_c2_m2_1_1_neuronal_dynamics_1_1_visualization_1_1_v_t_k_1_1_v_t_u_player.html" target="_top" xlink:title=" ">
<polygon fill="white" stroke="black" points="130,-0.5 130,-211.5 363,-211.5 363,-0.5 130,-0.5"/>
<text text-anchor="start" x="138" y="-199.5" font-family="Courier New" font-size="10.00">C2M2.NeuronalDynamics.Visualization.</text>
<text text-anchor="middle" x="246.5" y="-188.5" font-family="Courier New" font-size="10.00">VTK.VTUPlayer</text>
<polyline fill="none" stroke="black" points="130,-181.5 363,-181.5 "/>
<text text-anchor="start" x="138" y="-169.5" font-family="Courier New" font-size="10.00">+ frameCountDisplay</text>
<text text-anchor="start" x="138" y="-158.5" font-family="Courier New" font-size="10.00">&#45; mf</text>
<text text-anchor="start" x="138" y="-147.5" font-family="Courier New" font-size="10.00">&#45; maxFrame</text>
<text text-anchor="start" x="138" y="-136.5" font-family="Courier New" font-size="10.00">&#45; slider</text>
<text text-anchor="start" x="138" y="-125.5" font-family="Courier New" font-size="10.00">&#45; formatString</text>
<text text-anchor="start" x="138" y="-114.5" font-family="Courier New" font-size="10.00">&#45; currentFrame</text>
<polyline fill="none" stroke="black" points="130,-107.5 363,-107.5 "/>
<text text-anchor="start" x="138" y="-95.5" font-family="Courier New" font-size="10.00">+ Initialize()</text>
<text text-anchor="start" x="138" y="-84.5" font-family="Courier New" font-size="10.00">+ Play()</text>
<text text-anchor="start" x="138" y="-73.5" font-family="Courier New" font-size="10.00">+ Pause()</text>
<text text-anchor="start" x="138" y="-62.5" font-family="Courier New" font-size="10.00">+ Rewind()</text>
<text text-anchor="start" x="138" y="-51.5" font-family="Courier New" font-size="10.00">+ NextFrame()</text>
<text text-anchor="start" x="138" y="-40.5" font-family="Courier New" font-size="10.00">+ PreviousFrame()</text>
<text text-anchor="start" x="138" y="-29.5" font-family="Courier New" font-size="10.00">&#45; NextFrameRepeating()</text>
<text text-anchor="start" x="138" y="-18.5" font-family="Courier New" font-size="10.00">&#45; PreviousFramePrevious()</text>
<text text-anchor="start" x="138" y="-7.5" font-family="Courier New" font-size="10.00">&#45; UpdateMesh()</text>
</a>
</g>
</g>
<!-- Node1&#45;&gt;Node3 -->
<g id="edge8" class="edge"><title>Node1&#45;&gt;Node3</title>
<path fill="none" stroke="#404040" d="M277.796,-259.26C273.986,-253.307 270.513,-247.206 267.5,-241 264.774,-235.385 262.388,-229.495 260.3,-223.449"/>
<polygon fill="none" stroke="#404040" points="260.197,-223.12 254.599,-218.576 256.641,-211.66 262.239,-216.204 260.197,-223.12"/>
<text text-anchor="middle" x="304" y="-233" font-family="Courier New" font-size="10.00"> +vtuManager</text>
</g>
<!-- Node2 -->
<g id="node2" class="node"><title>Node2</title>
<g id="a_node2"><a xlink:title=" ">
<polygon fill="white" stroke="#bfbfbf" points="179,-529.5 179,-586.5 274,-586.5 274,-529.5 179,-529.5"/>
<text text-anchor="middle" x="226.5" y="-574.5" font-family="Courier New" font-size="10.00">MonoBehaviour</text>
<polyline fill="none" stroke="#bfbfbf" points="179,-567.5 274,-567.5 "/>
<text text-anchor="middle" x="226.5" y="-555.5" font-family="Courier New" font-size="10.00"> </text>
<polyline fill="none" stroke="#bfbfbf" points="179,-548.5 274,-548.5 "/>
<text text-anchor="middle" x="226.5" y="-536.5" font-family="Courier New" font-size="10.00"> </text>
</a>
</g>
</g>
<!-- Node2&#45;&gt;Node1 -->
<g id="edge1" class="edge"><title>Node2&#45;&gt;Node1</title>
<path fill="none" stroke="midnightblue" d="M252.326,-521.022C266.912,-500.702 285.881,-474.276 304.381,-448.503"/>
<polygon fill="none" stroke="midnightblue" points="249.346,-519.172 246.358,-529.336 255.032,-523.254 249.346,-519.172"/>
</g>
<!-- Node2&#45;&gt;Node3 -->
<g id="edge3" class="edge"><title>Node2&#45;&gt;Node3</title>
<path fill="none" stroke="midnightblue" d="M228.185,-519.083C231.167,-452.001 237.469,-310.207 241.842,-211.814"/>
<polygon fill="none" stroke="midnightblue" points="224.684,-519.045 227.736,-529.19 231.677,-519.355 224.684,-519.045"/>
</g>
<!-- Node4 -->
<g id="node4" class="node"><title>Node4</title>
<g id="a_node4"><a xlink:href="../../dd/dab/class_c2_m2_1_1_raycast_press_events.html" target="_top" xlink:title="Store custom events that the corresponding RaycastTriggerManager will invoke">
<polygon fill="white" stroke="black" points="43,-303.5 43,-404.5 198,-404.5 198,-303.5 43,-303.5"/>
<text text-anchor="middle" x="120.5" y="-392.5" font-family="Courier New" font-size="10.00">C2M2.RaycastPressEvents</text>
<polyline fill="none" stroke="black" points="43,-385.5 198,-385.5 "/>
<text text-anchor="start" x="51" y="-373.5" font-family="Courier New" font-size="10.00">+ OnPress</text>
<text text-anchor="start" x="51" y="-362.5" font-family="Courier New" font-size="10.00">+ OnHoldPress</text>
<text text-anchor="start" x="51" y="-351.5" font-family="Courier New" font-size="10.00">+ OnEndPress</text>
<polyline fill="none" stroke="black" points="43,-344.5 198,-344.5 "/>
<text text-anchor="start" x="51" y="-332.5" font-family="Courier New" font-size="10.00">+ Press()</text>
<text text-anchor="start" x="51" y="-321.5" font-family="Courier New" font-size="10.00">+ HoldPress()</text>
<text text-anchor="start" x="51" y="-310.5" font-family="Courier New" font-size="10.00">+ EndPress()</text>
</a>
</g>
</g>
<!-- Node2&#45;&gt;Node4 -->
<g id="edge5" class="edge"><title>Node2&#45;&gt;Node4</title>
<path fill="none" stroke="midnightblue" d="M207.203,-520.226C190.236,-487.894 165.395,-440.555 146.647,-404.827"/>
<polygon fill="none" stroke="midnightblue" points="204.238,-522.108 211.983,-529.336 210.436,-518.855 204.238,-522.108"/>
</g>
<!-- Node3&#45;&gt;Node1 -->
<g id="edge2" class="edge"><title>Node3&#45;&gt;Node1</title>
<path fill="none" stroke="#404040" d="M334.71,-211.656C338.269,-217.705 341.565,-223.837 344.5,-230 347.192,-235.653 349.62,-241.581 351.808,-247.652"/>
<polygon fill="none" stroke="#404040" points="351.95,-248.077 357.636,-252.511 355.73,-259.466 350.043,-255.031 351.95,-248.077"/>
<text text-anchor="middle" x="383" y="-233" font-family="Courier New" font-size="10.00"> +VTUPlayer</text>
</g>
<!-- Node4&#45;&gt;Node3 -->
<g id="edge4" class="edge"><title>Node4&#45;&gt;Node3</title>
<path fill="none" stroke="#404040" d="M125.01,-303.357C128.491,-280.221 134.642,-252.826 145.5,-230 146.681,-227.517 147.924,-225.04 149.22,-222.574"/>
<polygon fill="none" stroke="#404040" points="149.369,-222.309 148.81,-215.119 155.232,-211.839 155.79,-219.028 149.369,-222.309"/>
<text text-anchor="middle" x="179" y="-233" font-family="Courier New" font-size="10.00"> +fullPause</text>
</g>
<!-- Node5 -->
<g id="node5" class="node"><title>Node5</title>
<g id="a_node5"><a xlink:href="../../db/d79/class_c2_m2_1_1_raycast_press_events_1_1_raycast_hit_event.html" target="_top" xlink:title=" ">
<polygon fill="white" stroke="black" points="0,-524 0,-592 161,-592 161,-524 0,-524"/>
<text text-anchor="start" x="8" y="-580" font-family="Courier New" font-size="10.00">C2M2.RaycastPressEvents.</text>
<text text-anchor="middle" x="80.5" y="-569" font-family="Courier New" font-size="10.00">RaycastHitEvent</text>
<polyline fill="none" stroke="black" points="0,-562 161,-562 "/>
<text text-anchor="middle" x="80.5" y="-550" font-family="Courier New" font-size="10.00"> </text>
<polyline fill="none" stroke="black" points="0,-543 161,-543 "/>
<text text-anchor="middle" x="80.5" y="-531" font-family="Courier New" font-size="10.00"> </text>
</a>
</g>
</g>
<!-- Node5&#45;&gt;Node4 -->
<g id="edge6" class="edge"><title>Node5&#45;&gt;Node4</title>
<path fill="none" stroke="#404040" d="M87.1052,-523.644C92.8417,-494.675 101.299,-451.965 108.267,-416.776"/>
<polygon fill="none" stroke="#404040" points="108.332,-416.449 105.574,-409.786 110.663,-404.678 113.421,-411.34 108.332,-416.449"/>
<text text-anchor="middle" x="135" y="-492" font-family="Courier New" font-size="10.00"> &#45;onPress</text>
<text text-anchor="middle" x="135" y="-481" font-family="Courier New" font-size="10.00">&#45;onHoldPress</text>
<text text-anchor="middle" x="135" y="-470" font-family="Courier New" font-size="10.00">&#45;onEndPress</text>
</g>
<!-- Node6 -->
<g id="node6" class="node"><title>Node6</title>
<g id="a_node6"><a xlink:title=" ">
<polygon fill="white" stroke="#bfbfbf" points="0,-635.5 0,-692.5 161,-692.5 161,-635.5 0,-635.5"/>
<text text-anchor="middle" x="80.5" y="-680.5" font-family="Courier New" font-size="10.00">UnityEvent&lt; RaycastHit &gt;</text>
<polyline fill="none" stroke="#bfbfbf" points="0,-673.5 161,-673.5 "/>
<text text-anchor="middle" x="80.5" y="-661.5" font-family="Courier New" font-size="10.00"> </text>
<polyline fill="none" stroke="#bfbfbf" points="0,-654.5 161,-654.5 "/>
<text text-anchor="middle" x="80.5" y="-642.5" font-family="Courier New" font-size="10.00"> </text>
</a>
</g>
</g>
<!-- Node6&#45;&gt;Node5 -->
<g id="edge7" class="edge"><title>Node6&#45;&gt;Node5</title>
<path fill="none" stroke="midnightblue" d="M80.5,-625.372C80.5,-614.55 80.5,-602.828 80.5,-592.288"/>
<polygon fill="none" stroke="midnightblue" points="77.0001,-625.403 80.5,-635.403 84.0001,-625.403 77.0001,-625.403"/>
</g>
<!-- Node7 -->
<g id="node7" class="node"><title>Node7</title>
<g id="a_node7"><a xlink:href="../../da/da3/class_c2_m2_1_1_neuronal_dynamics_1_1_visualization_1_1_v_t_k_1_1_v_t_u_object_builder.html" target="_top" xlink:title="Overarching manager to control order of events for reading in VTK data, positioning it,...">
<polygon fill="white" stroke="black" points="292,-518.5 292,-597.5 525,-597.5 525,-518.5 292,-518.5"/>
<text text-anchor="start" x="300" y="-585.5" font-family="Courier New" font-size="10.00">C2M2.NeuronalDynamics.Visualization.</text>
<text text-anchor="middle" x="408.5" y="-574.5" font-family="Courier New" font-size="10.00">VTK.VTUObjectBuilder</text>
<polyline fill="none" stroke="black" points="292,-567.5 525,-567.5 "/>
<text text-anchor="middle" x="408.5" y="-555.5" font-family="Courier New" font-size="10.00"> </text>
<polyline fill="none" stroke="black" points="292,-548.5 525,-548.5 "/>
<text text-anchor="start" x="300" y="-536.5" font-family="Courier New" font-size="10.00">+ BuildVTUObjects()</text>
<text text-anchor="start" x="300" y="-525.5" font-family="Courier New" font-size="10.00">+ BuildVTUObjects()</text>
</a>
</g>
</g>
<!-- Node7&#45;&gt;Node1 -->
<g id="edge9" class="edge"><title>Node7&#45;&gt;Node1</title>
<path fill="none" stroke="#404040" d="M401.366,-518.052C398.329,-501.473 394.625,-481.25 390.873,-460.766"/>
<polygon fill="none" stroke="#404040" points="390.825,-460.504 385.81,-455.323 388.663,-448.701 393.679,-453.882 390.825,-460.504"/>
<text text-anchor="middle" x="453" y="-481" font-family="Courier New" font-size="10.00"> &#45;vtuObjectBuilder</text>
</g>
</g>
</svg>
