<?xml version="1.0" encoding="UTF-8" standalone="no"?>
<!DOCTYPE svg PUBLIC "-//W3C//DTD SVG 1.1//EN"
 "http://www.w3.org/Graphics/SVG/1.1/DTD/svg11.dtd">
<!-- Generated by graphviz version 2.38.0 (20140413.2041)
 -->
<!-- Title: C2M2.Interaction.Signaling.OculusEventSignaler Pages: 1 -->
<svg width="193pt" height="876pt"
 viewBox="0.00 0.00 193.00 876.00" xmlns="http://www.w3.org/2000/svg" xmlns:xlink="http://www.w3.org/1999/xlink">
<g id="graph0" class="graph" transform="scale(1 1) rotate(0) translate(4 872)">
<title>C2M2.Interaction.Signaling.OculusEventSignaler</title>
<polygon fill="white" stroke="none" points="-4,4 -4,-872 189,-872 189,4 -4,4"/>
<!-- Node1 -->
<g id="node1" class="node"><title>Node1</title>
<g id="a_node1"><a xlink:title="Activate raycast triggers using oculus controller buttons and fingertip distance">
<polygon fill="#bfbfbf" stroke="black" points="0,-0.5 0,-354.5 185,-354.5 185,-0.5 0,-0.5"/>
<text text-anchor="start" x="8" y="-342.5" font-family="Courier New" font-size="10.00">C2M2.Interaction.Signaling.</text>
<text text-anchor="middle" x="92.5" y="-331.5" font-family="Courier New" font-size="10.00">OculusEventSignaler</text>
<polyline fill="none" stroke="black" points="0,-324.5 185,-324.5 "/>
<text text-anchor="start" x="8" y="-312.5" font-family="Courier New" font-size="10.00">+ controller</text>
<text text-anchor="start" x="8" y="-301.5" font-family="Courier New" font-size="10.00">+ beginRaycastingButton</text>
<text text-anchor="start" x="8" y="-290.5" font-family="Courier New" font-size="10.00">+ toggleMode</text>
<text text-anchor="start" x="8" y="-279.5" font-family="Courier New" font-size="10.00">+ triggerEventsButton</text>
<text text-anchor="start" x="8" y="-268.5" font-family="Courier New" font-size="10.00">+ grabber</text>
<text text-anchor="start" x="8" y="-257.5" font-family="Courier New" font-size="10.00">+ lineRend</text>
<text text-anchor="start" x="8" y="-246.5" font-family="Courier New" font-size="10.00">+ unpressedColor</text>
<text text-anchor="start" x="8" y="-235.5" font-family="Courier New" font-size="10.00">+ pressedColor</text>
<text text-anchor="start" x="8" y="-224.5" font-family="Courier New" font-size="10.00">+ localAvatar</text>
<text text-anchor="start" x="8" y="-213.5" font-family="Courier New" font-size="10.00">+ isLeftHand</text>
<text text-anchor="start" x="8" y="-202.5" font-family="Courier New" font-size="10.00">+ staticHand</text>
<text text-anchor="start" x="8" y="-191.5" font-family="Courier New" font-size="10.00">+ clickDistance</text>
<text text-anchor="start" x="8" y="-180.5" font-family="Courier New" font-size="10.00">+ Toggled</text>
<text text-anchor="start" x="8" y="-169.5" font-family="Courier New" font-size="10.00">&#45; toggled</text>
<text text-anchor="start" x="8" y="-158.5" font-family="Courier New" font-size="10.00">&#45; distancePressed</text>
<text text-anchor="start" x="8" y="-147.5" font-family="Courier New" font-size="10.00">&#45; defaultHand</text>
<polyline fill="none" stroke="black" points="0,-140.5 185,-140.5 "/>
<text text-anchor="start" x="8" y="-128.5" font-family="Courier New" font-size="10.00"># OnAwake()</text>
<text text-anchor="start" x="8" y="-117.5" font-family="Courier New" font-size="10.00"># OnStart()</text>
<text text-anchor="start" x="8" y="-106.5" font-family="Courier New" font-size="10.00"># BeginRaycastingCondition()</text>
<text text-anchor="start" x="8" y="-95.5" font-family="Courier New" font-size="10.00"># ChildsPressCondition()</text>
<text text-anchor="start" x="8" y="-84.5" font-family="Courier New" font-size="10.00"># OnPressSub()</text>
<text text-anchor="start" x="8" y="-73.5" font-family="Courier New" font-size="10.00"># OnHoldPressSub()</text>
<text text-anchor="start" x="8" y="-62.5" font-family="Courier New" font-size="10.00"># OnEndPressSub()</text>
<text text-anchor="start" x="8" y="-51.5" font-family="Courier New" font-size="10.00"># RaycastingMethod()</text>
<text text-anchor="start" x="8" y="-40.5" font-family="Courier New" font-size="10.00">&#45; StaticHandSetActive()</text>
<text text-anchor="start" x="8" y="-29.5" font-family="Courier New" font-size="10.00">&#45; LineRendererSetActive()</text>
<text text-anchor="start" x="8" y="-18.5" font-family="Courier New" font-size="10.00">&#45; CheckPressDistance()</text>
<text text-anchor="start" x="8" y="-7.5" font-family="Courier New" font-size="10.00">&#45; SearchForHand()</text>
</a>
</g>
</g>
<!-- Node2 -->
<g id="node2" class="node"><title>Node2</title>
<g id="a_node2"><a xlink:href="../../d6/d2d/class_c2_m2_1_1_interaction_1_1_signaling_1_1_raycast_event_signaler.html" target="_top" xlink:title=" ">
<polygon fill="white" stroke="black" points="0,-391.5 0,-646.5 185,-646.5 185,-391.5 0,-391.5"/>
<text text-anchor="middle" x="92.5" y="-634.5" font-family="Courier New" font-size="10.00">RaycastEventSignaler</text>
<polyline fill="none" stroke="black" points="0,-627.5 185,-627.5 "/>
<text text-anchor="start" x="8" y="-615.5" font-family="Courier New" font-size="10.00">+ rightHand</text>
<text text-anchor="start" x="8" y="-604.5" font-family="Courier New" font-size="10.00">+ layerMask</text>
<text text-anchor="start" x="8" y="-593.5" font-family="Courier New" font-size="10.00">+ maxRaycastDistance</text>
<text text-anchor="start" x="8" y="-582.5" font-family="Courier New" font-size="10.00">&#45; activeEvent</text>
<text text-anchor="start" x="8" y="-571.5" font-family="Courier New" font-size="10.00">&#45; lastHit</text>
<polyline fill="none" stroke="black" points="0,-564.5 185,-564.5 "/>
<text text-anchor="start" x="8" y="-552.5" font-family="Courier New" font-size="10.00"># OnAwake()</text>
<text text-anchor="start" x="8" y="-541.5" font-family="Courier New" font-size="10.00"># Awake()</text>
<text text-anchor="start" x="8" y="-530.5" font-family="Courier New" font-size="10.00"># OnStart()</text>
<text text-anchor="start" x="8" y="-519.5" font-family="Courier New" font-size="10.00"># OnPress()</text>
<text text-anchor="start" x="8" y="-508.5" font-family="Courier New" font-size="10.00"># OnHoldPress()</text>
<text text-anchor="start" x="8" y="-497.5" font-family="Courier New" font-size="10.00"># OnEndPress()</text>
<text text-anchor="start" x="8" y="-486.5" font-family="Courier New" font-size="10.00"># OnPressSub()</text>
<text text-anchor="start" x="8" y="-475.5" font-family="Courier New" font-size="10.00"># OnHoldPressSub()</text>
<text text-anchor="start" x="8" y="-464.5" font-family="Courier New" font-size="10.00"># OnEndPressSub()</text>
<text text-anchor="start" x="8" y="-453.5" font-family="Courier New" font-size="10.00"># RaycastingMethod()</text>
<text text-anchor="start" x="8" y="-442.5" font-family="Courier New" font-size="10.00"># BeginRaycastingCondition()</text>
<text text-anchor="start" x="8" y="-431.5" font-family="Courier New" font-size="10.00"># ChildsPressCondition()</text>
<text text-anchor="start" x="8" y="-420.5" font-family="Courier New" font-size="10.00">&#45; Start()</text>
<text text-anchor="start" x="8" y="-409.5" font-family="Courier New" font-size="10.00">&#45; FixedUpdate()</text>
<text text-anchor="start" x="8" y="-398.5" font-family="Courier New" font-size="10.00">&#45; FindRaycastTrigger()</text>
</a>
</g>
</g>
<!-- Node2&#45;&gt;Node1 -->
<g id="edge1" class="edge"><title>Node2&#45;&gt;Node1</title>
<path fill="none" stroke="midnightblue" d="M92.5,-380.943C92.5,-372.239 92.5,-363.416 92.5,-354.57"/>
<polygon fill="none" stroke="midnightblue" points="89.0001,-381.1 92.5,-391.1 96.0001,-381.1 89.0001,-381.1"/>
</g>
<!-- Node3 -->
<g id="node3" class="node"><title>Node3</title>
<g id="a_node3"><a xlink:href="../../d6/d4b/class_c2_m2_1_1_interaction_1_1_signaling_1_1_press_event_signaler.html" target="_top" xlink:title="Send press, holdPress, and endPress events based on set values of Pressed and RaycastTriggerManager">
<polygon fill="white" stroke="black" points="30,-683.5 30,-773.5 155,-773.5 155,-683.5 30,-683.5"/>
<text text-anchor="middle" x="92.5" y="-761.5" font-family="Courier New" font-size="10.00">PressEventSignaler</text>
<polyline fill="none" stroke="black" points="30,-754.5 155,-754.5 "/>
<text text-anchor="start" x="38" y="-742.5" font-family="Courier New" font-size="10.00">+ Pressed</text>
<text text-anchor="start" x="38" y="-731.5" font-family="Courier New" font-size="10.00">&#45; pressedPrevFrame</text>
<polyline fill="none" stroke="black" points="30,-724.5 155,-724.5 "/>
<text text-anchor="start" x="38" y="-712.5" font-family="Courier New" font-size="10.00"># OnPress()</text>
<text text-anchor="start" x="38" y="-701.5" font-family="Courier New" font-size="10.00"># OnHoldPress()</text>
<text text-anchor="start" x="38" y="-690.5" font-family="Courier New" font-size="10.00"># OnEndPress()</text>
</a>
</g>
</g>
<!-- Node3&#45;&gt;Node2 -->
<g id="edge2" class="edge"><title>Node3&#45;&gt;Node2</title>
<path fill="none" stroke="midnightblue" d="M92.5,-673.467C92.5,-664.992 92.5,-655.938 92.5,-646.625"/>
<polygon fill="none" stroke="midnightblue" points="89.0001,-673.495 92.5,-683.495 96.0001,-673.495 89.0001,-673.495"/>
</g>
<!-- Node4 -->
<g id="node4" class="node"><title>Node4</title>
<g id="a_node4"><a xlink:title=" ">
<polygon fill="white" stroke="#bfbfbf" points="45,-810.5 45,-867.5 140,-867.5 140,-810.5 45,-810.5"/>
<text text-anchor="middle" x="92.5" y="-855.5" font-family="Courier New" font-size="10.00">MonoBehaviour</text>
<polyline fill="none" stroke="#bfbfbf" points="45,-848.5 140,-848.5 "/>
<text text-anchor="middle" x="92.5" y="-836.5" font-family="Courier New" font-size="10.00"> </text>
<polyline fill="none" stroke="#bfbfbf" points="45,-829.5 140,-829.5 "/>
<text text-anchor="middle" x="92.5" y="-817.5" font-family="Courier New" font-size="10.00"> </text>
</a>
</g>
</g>
<!-- Node4&#45;&gt;Node3 -->
<g id="edge3" class="edge"><title>Node4&#45;&gt;Node3</title>
<path fill="none" stroke="midnightblue" d="M92.5,-800.214C92.5,-791.609 92.5,-782.394 92.5,-773.554"/>
<polygon fill="none" stroke="midnightblue" points="89.0001,-800.34 92.5,-810.34 96.0001,-800.34 89.0001,-800.34"/>
</g>
</g>
</svg>
