<?xml version="1.0" encoding="UTF-8" standalone="no"?>
<!DOCTYPE svg PUBLIC "-//W3C//DTD SVG 1.1//EN"
 "http://www.w3.org/Graphics/SVG/1.1/DTD/svg11.dtd">
<!-- Generated by graphviz version 2.38.0 (20140413.2041)
 -->
<!-- Title: C2M2.NeuronalDynamics.Simulation.CellSolver2FullAP_Implicit Pages: 1 -->
<!--zoomable 1290 -->
<svg id="main" version="1.1" xmlns="http://www.w3.org/2000/svg" xmlns:xlink="http://www.w3.org/1999/xlink" xml:space="preserve" onload="init(evt)">
<style type="text/css"><![CDATA[
.edge:hover path { stroke: red; }
.edge:hover polygon { stroke: red; fill: red; }
]]></style>
<script type="text/javascript"><![CDATA[
var edges = document.getElementsByTagName('g');
if (edges && edges.length) {
  for (var i=0;i<edges.length;i++) {
    if (edges[i].id.substr(0,4)=='edge') {
      edges[i].setAttribute('class','edge');
    }
  }
}
]]></script>
        <defs>
                <circle id="rim" cx="0" cy="0" r="7"/>
                <circle id="rim2" cx="0" cy="0" r="3.5"/>
                <g id="zoomPlus">
                        <use xlink:href="#rim" fill="#404040">
                                <set attributeName="fill" to="#808080" begin="zoomplus.mouseover" end="zoomplus.mouseout"/>
                        </use>
                        <path d="M-4,0h8M0,-4v8" fill="none" stroke="white" stroke-width="1.5" pointer-events="none"/>
                </g>
                <g id="zoomMin">
                        <use xlink:href="#rim" fill="#404040">
                                <set attributeName="fill" to="#808080" begin="zoomminus.mouseover" end="zoomminus.mouseout"/>
                        </use>
                        <path d="M-4,0h8" fill="none" stroke="white" stroke-width="1.5" pointer-events="none"/>
                </g>
                <g id="dirArrow">
                        <path fill="none" stroke="white" stroke-width="1.5" d="M0,-3.0v7 M-2.5,-0.5L0,-3.0L2.5,-0.5"/>
                </g>
               <g id="resetDef">
                       <use xlink:href="#rim2" fill="#404040">
                               <set attributeName="fill" to="#808080" begin="reset.mouseover" end="reset.mouseout"/>
                       </use>
               </g>
        </defs>

<script type="text/javascript">
var viewWidth = 624;
var viewHeight = 1290;
var sectionId = 'dynsection-1';
</script>
<script xlink:href="../../svgpan.js"/>
<svg id="graph" class="graph">
<g id="viewport">
<title>C2M2.NeuronalDynamics.Simulation.CellSolver2FullAP_Implicit</title>
<polygon fill="white" stroke="none" points="-4,4 -4,-1286 620,-1286 620,4 -4,4"/>
<!-- Node1 -->
<g id="node1" class="node"><title>Node1</title>
<g id="a_node1"><a xlink:title=" ">
<polygon fill="#bfbfbf" stroke="black" points="291,-0.5 291,-420.5 506,-420.5 506,-0.5 291,-0.5"/>
<text text-anchor="start" x="299" y="-408.5" font-family="Courier New" font-size="10.00">C2M2.NeuronalDynamics.Simulation.</text>
<text text-anchor="middle" x="398.5" y="-397.5" font-family="Courier New" font-size="10.00">CellSolver2FullAP_Implicit</text>
<polyline fill="none" stroke="black" points="291,-390.5 506,-390.5 "/>
<text text-anchor="start" x="299" y="-378.5" font-family="Courier New" font-size="10.00">+ res</text>
<text text-anchor="start" x="299" y="-367.5" font-family="Courier New" font-size="10.00">+ gk</text>
<text text-anchor="start" x="299" y="-356.5" font-family="Courier New" font-size="10.00">+ gna</text>
<text text-anchor="start" x="299" y="-345.5" font-family="Courier New" font-size="10.00">+ gl</text>
<text text-anchor="start" x="299" y="-334.5" font-family="Courier New" font-size="10.00">+ ek</text>
<text text-anchor="start" x="299" y="-323.5" font-family="Courier New" font-size="10.00">+ ena</text>
<text text-anchor="start" x="299" y="-312.5" font-family="Courier New" font-size="10.00">+ el</text>
<text text-anchor="start" x="299" y="-301.5" font-family="Courier New" font-size="10.00">+ cap</text>
<text text-anchor="start" x="299" y="-290.5" font-family="Courier New" font-size="10.00">+ ni</text>
<text text-anchor="start" x="299" y="-279.5" font-family="Courier New" font-size="10.00">+ vstart</text>
<text text-anchor="start" x="299" y="-268.5" font-family="Courier New" font-size="10.00">~ orderType</text>
<text text-anchor="start" x="299" y="-257.5" font-family="Courier New" font-size="10.00">&#45; U</text>
<text text-anchor="start" x="299" y="-246.5" font-family="Courier New" font-size="10.00">&#45; M</text>
<text text-anchor="start" x="299" y="-235.5" font-family="Courier New" font-size="10.00">&#45; N</text>
<text text-anchor="start" x="299" y="-224.5" font-family="Courier New" font-size="10.00">&#45; H</text>
<text text-anchor="start" x="299" y="-213.5" font-family="Courier New" font-size="10.00">&#45; i</text>
<text text-anchor="start" x="299" y="-202.5" font-family="Courier New" font-size="10.00">&#45; mi</text>
<text text-anchor="start" x="299" y="-191.5" font-family="Courier New" font-size="10.00">&#45; hi</text>
<polyline fill="none" stroke="black" points="291,-184.5 506,-184.5 "/>
<text text-anchor="start" x="299" y="-172.5" font-family="Courier New" font-size="10.00">+ initialConditions()</text>
<text text-anchor="start" x="299" y="-161.5" font-family="Courier New" font-size="10.00">+ boundaryConditions()</text>
<text text-anchor="start" x="299" y="-150.5" font-family="Courier New" font-size="10.00"># SetNeuronCell()</text>
<text text-anchor="start" x="299" y="-139.5" font-family="Courier New" font-size="10.00"># Get1DValues()</text>
<text text-anchor="start" x="299" y="-128.5" font-family="Courier New" font-size="10.00"># Set1DValues()</text>
<text text-anchor="start" x="299" y="-117.5" font-family="Courier New" font-size="10.00"># Solve()</text>
<text text-anchor="start" x="299" y="-106.5" font-family="Courier New" font-size="10.00">&#45; reactF()</text>
<text text-anchor="start" x="299" y="-95.5" font-family="Courier New" font-size="10.00">&#45; fN()</text>
<text text-anchor="start" x="299" y="-84.5" font-family="Courier New" font-size="10.00">&#45; fM()</text>
<text text-anchor="start" x="299" y="-73.5" font-family="Courier New" font-size="10.00">&#45; fH()</text>
<text text-anchor="start" x="299" y="-62.5" font-family="Courier New" font-size="10.00">&#45; an()</text>
<text text-anchor="start" x="299" y="-51.5" font-family="Courier New" font-size="10.00">&#45; bn()</text>
<text text-anchor="start" x="299" y="-40.5" font-family="Courier New" font-size="10.00">&#45; am()</text>
<text text-anchor="start" x="299" y="-29.5" font-family="Courier New" font-size="10.00">&#45; bm()</text>
<text text-anchor="start" x="299" y="-18.5" font-family="Courier New" font-size="10.00">&#45; ah()</text>
<text text-anchor="start" x="299" y="-7.5" font-family="Courier New" font-size="10.00">&#45; bh()</text>
</a>
</g>
</g>
<!-- Node2 -->
<g id="node2" class="node"><title>Node2</title>
<g id="a_node2"><a xlink:href="../../d1/de3/class_c2_m2_1_1_neuronal_dynamics_1_1_simulation_1_1_neuron_simulation.html" target="_top" xlink:title="Provides base functionality for Neuron simulations">
<polygon fill="white" stroke="black" points="158,-496 158,-641 277,-641 277,-496 158,-496"/>
<text text-anchor="middle" x="217.5" y="-629" font-family="Courier New" font-size="10.00">NeuronSimulation</text>
<polyline fill="none" stroke="black" points="158,-622 277,-622 "/>
<text text-anchor="start" x="166" y="-610" font-family="Courier New" font-size="10.00">+ visualize1D</text>
<text text-anchor="start" x="166" y="-599" font-family="Courier New" font-size="10.00">+ color1D</text>
<text text-anchor="start" x="166" y="-588" font-family="Courier New" font-size="10.00">+ lineWidth1D</text>
<text text-anchor="start" x="166" y="-577" font-family="Courier New" font-size="10.00">&#45; map</text>
<polyline fill="none" stroke="black" points="158,-570 277,-570 "/>
<text text-anchor="start" x="166" y="-558" font-family="Courier New" font-size="10.00">+ GetValues()</text>
<text text-anchor="start" x="166" y="-547" font-family="Courier New" font-size="10.00">+ SetValues()</text>
<text text-anchor="start" x="166" y="-536" font-family="Courier New" font-size="10.00"># Set1DValues()</text>
<text text-anchor="start" x="166" y="-525" font-family="Courier New" font-size="10.00"># Get1DValues()</text>
<text text-anchor="start" x="166" y="-514" font-family="Courier New" font-size="10.00"># SetNeuronCell()</text>
<text text-anchor="start" x="166" y="-503" font-family="Courier New" font-size="10.00"># BuildMesh()</text>
</a>
</g>
</g>
<!-- Node2&#45;&gt;Node1 -->
<g id="edge1" class="edge"><title>Node2&#45;&gt;Node1</title>
<path fill="none" stroke="midnightblue" d="M258.527,-486.807C268.768,-466.664 280.229,-444.122 292.066,-420.841"/>
<polygon fill="none" stroke="midnightblue" points="255.323,-485.386 253.91,-495.886 261.562,-488.559 255.323,-485.386"/>
</g>
<!-- Node3 -->
<g id="node3" class="node"><title>Node3</title>
<g id="a_node3"><a xlink:href="../../d4/de1/class_c2_m2_1_1_simulation_1_1_surface_simulation.html" target="_top" xlink:title="Simulation of type double[] for visualizing scalar fields on mesh surfaces">
<polygon fill="white" stroke="black" points="16,-782.5 16,-927.5 171,-927.5 171,-782.5 16,-782.5"/>
<text text-anchor="middle" x="93.5" y="-915.5" font-family="Courier New" font-size="10.00">SurfaceSimulation</text>
<polyline fill="none" stroke="black" points="16,-908.5 171,-908.5 "/>
<text text-anchor="start" x="24" y="-896.5" font-family="Courier New" font-size="10.00">+ gradient</text>
<text text-anchor="start" x="24" y="-885.5" font-family="Courier New" font-size="10.00">+ globalMax</text>
<text text-anchor="start" x="24" y="-874.5" font-family="Courier New" font-size="10.00">+ globalMin</text>
<text text-anchor="start" x="24" y="-863.5" font-family="Courier New" font-size="10.00">+ colorLUT</text>
<text text-anchor="start" x="24" y="-852.5" font-family="Courier New" font-size="10.00">&#45; mf</text>
<text text-anchor="start" x="24" y="-841.5" font-family="Courier New" font-size="10.00">&#45; mr</text>
<polyline fill="none" stroke="black" points="16,-834.5 171,-834.5 "/>
<text text-anchor="start" x="24" y="-822.5" font-family="Courier New" font-size="10.00"># BuildMesh()</text>
<text text-anchor="start" x="24" y="-811.5" font-family="Courier New" font-size="10.00"># UpdateVisualization()</text>
<text text-anchor="start" x="24" y="-800.5" font-family="Courier New" font-size="10.00"># OnAwake()</text>
<text text-anchor="start" x="24" y="-789.5" font-family="Courier New" font-size="10.00">&#45; UpdateVisualization()</text>
</a>
</g>
</g>
<!-- Node3&#45;&gt;Node2 -->
<g id="edge2" class="edge"><title>Node3&#45;&gt;Node2</title>
<path fill="none" stroke="midnightblue" d="M128.827,-772.948C146.915,-731.447 168.745,-681.36 186.22,-641.268"/>
<polygon fill="none" stroke="midnightblue" points="125.578,-771.643 124.79,-782.209 131.994,-774.44 125.578,-771.643"/>
</g>
<!-- Node4 -->
<g id="node4" class="node"><title>Node4</title>
<g id="a_node4"><a xlink:href="../../db/d39/class_c2_m2_1_1_simulation_1_1_simulation.html" target="_top" xlink:title=" ">
<polygon fill="white" stroke="black" points="0,-975.5 0,-1186.5 155,-1186.5 155,-975.5 0,-975.5"/>
<text text-anchor="middle" x="77.5" y="-1174.5" font-family="Courier New" font-size="10.00">Simulation&lt; double[]&gt;</text>
<polyline fill="none" stroke="black" points="0,-1167.5 155,-1167.5 "/>
<text text-anchor="start" x="8" y="-1155.5" font-family="Courier New" font-size="10.00">+ startOnAwake</text>
<text text-anchor="start" x="8" y="-1144.5" font-family="Courier New" font-size="10.00"># mutex</text>
<text text-anchor="start" x="8" y="-1133.5" font-family="Courier New" font-size="10.00">&#45; solveThread</text>
<polyline fill="none" stroke="black" points="0,-1126.5 155,-1126.5 "/>
<text text-anchor="start" x="8" y="-1114.5" font-family="Courier New" font-size="10.00">+ GetValues()</text>
<text text-anchor="start" x="8" y="-1103.5" font-family="Courier New" font-size="10.00">+ Awake()</text>
<text text-anchor="start" x="8" y="-1092.5" font-family="Courier New" font-size="10.00">+ Start()</text>
<text text-anchor="start" x="8" y="-1081.5" font-family="Courier New" font-size="10.00">+ Update()</text>
<text text-anchor="start" x="8" y="-1070.5" font-family="Courier New" font-size="10.00">+ StartSimulation()</text>
<text text-anchor="start" x="8" y="-1059.5" font-family="Courier New" font-size="10.00">+ StopSimulation()</text>
<text text-anchor="start" x="8" y="-1048.5" font-family="Courier New" font-size="10.00"># UpdateVisualization()</text>
<text text-anchor="start" x="8" y="-1037.5" font-family="Courier New" font-size="10.00"># OnAwake()</text>
<text text-anchor="start" x="8" y="-1026.5" font-family="Courier New" font-size="10.00"># OnStart()</text>
<text text-anchor="start" x="8" y="-1015.5" font-family="Courier New" font-size="10.00"># OnUpdate()</text>
<text text-anchor="start" x="8" y="-1004.5" font-family="Courier New" font-size="10.00"># Solve()</text>
<text text-anchor="start" x="8" y="-993.5" font-family="Courier New" font-size="10.00">&#45; OnApplicationPause()</text>
<text text-anchor="start" x="8" y="-982.5" font-family="Courier New" font-size="10.00">&#45; OnApplicationQuit()</text>
</a>
</g>
</g>
<!-- Node4&#45;&gt;Node3 -->
<g id="edge3" class="edge"><title>Node4&#45;&gt;Node3</title>
<path fill="none" stroke="midnightblue" d="M85.7114,-965.041C86.6177,-952.353 87.5203,-939.716 88.3728,-927.781"/>
<polygon fill="none" stroke="midnightblue" points="82.2061,-964.99 84.9847,-975.214 89.1884,-965.489 82.2061,-964.99"/>
</g>
<!-- Node5 -->
<g id="node5" class="node"><title>Node5</title>
<g id="a_node5"><a xlink:href="../../da/d4f/class_c2_m2_1_1_visualization_1_1_l_u_t_gradient.html" target="_top" xlink:title="Create a fast and memory&#45;friendly color lookup table from a gradient">
<polygon fill="white" stroke="black" points="173,-997.5 173,-1164.5 370,-1164.5 370,-997.5 173,-997.5"/>
<text text-anchor="middle" x="271.5" y="-1152.5" font-family="Courier New" font-size="10.00">C2M2.Visualization.LUTGradient</text>
<polyline fill="none" stroke="black" points="173,-1145.5 370,-1145.5 "/>
<text text-anchor="start" x="181" y="-1133.5" font-family="Courier New" font-size="10.00">+ extremaMethod</text>
<text text-anchor="start" x="181" y="-1122.5" font-family="Courier New" font-size="10.00">+ globalMax</text>
<text text-anchor="start" x="181" y="-1111.5" font-family="Courier New" font-size="10.00">+ globalMin</text>
<text text-anchor="start" x="181" y="-1100.5" font-family="Courier New" font-size="10.00">+ LutRes</text>
<text text-anchor="start" x="181" y="-1089.5" font-family="Courier New" font-size="10.00">+ Gradient</text>
<text text-anchor="start" x="181" y="-1078.5" font-family="Courier New" font-size="10.00">+ gradientLUT</text>
<text text-anchor="start" x="181" y="-1067.5" font-family="Courier New" font-size="10.00">&#45; lutRes</text>
<text text-anchor="start" x="181" y="-1056.5" font-family="Courier New" font-size="10.00">&#45; gradient</text>
<polyline fill="none" stroke="black" points="173,-1049.5 370,-1049.5 "/>
<text text-anchor="start" x="181" y="-1037.5" font-family="Courier New" font-size="10.00">+ Evaluate()</text>
<text text-anchor="start" x="181" y="-1026.5" font-family="Courier New" font-size="10.00">+ Evaluate()</text>
<text text-anchor="start" x="181" y="-1015.5" font-family="Courier New" font-size="10.00">&#45; BuildLUT()</text>
<text text-anchor="start" x="181" y="-1004.5" font-family="Courier New" font-size="10.00">&#45; RescaleArray()</text>
</a>
</g>
</g>
<!-- Node5&#45;&gt;Node3 -->
<g id="edge4" class="edge"><title>Node5&#45;&gt;Node3</title>
<path fill="none" stroke="#404040" d="M205.725,-997.227C190.15,-977.627 173.555,-956.744 158.036,-937.214"/>
<polygon fill="none" stroke="#404040" points="157.979,-937.142 151.115,-934.933 150.514,-927.747 157.378,-929.956 157.979,-937.142"/>
<text text-anchor="middle" x="218" y="-949" font-family="Courier New" font-size="10.00"> +extremaMethod</text>
</g>
<!-- Node6 -->
<g id="node6" class="node"><title>Node6</title>
<g id="a_node6"><a xlink:title=" ">
<polygon fill="white" stroke="#bfbfbf" points="224,-1224.5 224,-1281.5 319,-1281.5 319,-1224.5 224,-1224.5"/>
<text text-anchor="middle" x="271.5" y="-1269.5" font-family="Courier New" font-size="10.00">MonoBehaviour</text>
<polyline fill="none" stroke="#bfbfbf" points="224,-1262.5 319,-1262.5 "/>
<text text-anchor="middle" x="271.5" y="-1250.5" font-family="Courier New" font-size="10.00"> </text>
<polyline fill="none" stroke="#bfbfbf" points="224,-1243.5 319,-1243.5 "/>
<text text-anchor="middle" x="271.5" y="-1231.5" font-family="Courier New" font-size="10.00"> </text>
</a>
</g>
</g>
<!-- Node6&#45;&gt;Node5 -->
<g id="edge5" class="edge"><title>Node6&#45;&gt;Node5</title>
<path fill="none" stroke="midnightblue" d="M271.5,-1214.15C271.5,-1199.48 271.5,-1182.06 271.5,-1164.77"/>
<polygon fill="none" stroke="midnightblue" points="268,-1214.31 271.5,-1224.31 275,-1214.31 268,-1214.31"/>
</g>
<!-- Node7 -->
<g id="node7" class="node"><title>Node7</title>
<g id="a_node7"><a xlink:title=" ">
<polygon fill="white" stroke="#bfbfbf" points="189,-826.5 189,-883.5 230,-883.5 230,-826.5 189,-826.5"/>
<text text-anchor="middle" x="209.5" y="-871.5" font-family="Courier New" font-size="10.00">C2M2</text>
<polyline fill="none" stroke="#bfbfbf" points="189,-864.5 230,-864.5 "/>
<text text-anchor="middle" x="209.5" y="-852.5" font-family="Courier New" font-size="10.00"> </text>
<polyline fill="none" stroke="#bfbfbf" points="189,-845.5 230,-845.5 "/>
<text text-anchor="middle" x="209.5" y="-833.5" font-family="Courier New" font-size="10.00"> </text>
</a>
</g>
</g>
<!-- Node7&#45;&gt;Node2 -->
<g id="edge6" class="edge"><title>Node7&#45;&gt;Node2</title>
<path fill="none" stroke="#404040" d="M209.212,-826.215C208.974,-793.066 208.896,-735.973 210.5,-687 210.856,-676.126 211.367,-664.692 211.953,-653.402"/>
<polygon fill="none" stroke="#404040" points="211.962,-653.224 208.294,-647.015 212.614,-641.241 216.282,-647.45 211.962,-653.224"/>
<text text-anchor="middle" x="235" y="-723" font-family="Courier New" font-size="10.00"> #grid1D</text>
</g>
<!-- Node8 -->
<g id="node8" class="node"><title>Node8</title>
<g id="a_node8"><a xlink:title=" ">
<polygon fill="white" stroke="#bfbfbf" points="318,-826.5 318,-883.5 371,-883.5 371,-826.5 318,-826.5"/>
<text text-anchor="middle" x="344.5" y="-871.5" font-family="Courier New" font-size="10.00">static</text>
<polyline fill="none" stroke="#bfbfbf" points="318,-864.5 371,-864.5 "/>
<text text-anchor="middle" x="344.5" y="-852.5" font-family="Courier New" font-size="10.00"> </text>
<polyline fill="none" stroke="#bfbfbf" points="318,-845.5 371,-845.5 "/>
<text text-anchor="middle" x="344.5" y="-833.5" font-family="Courier New" font-size="10.00"> </text>
</a>
</g>
</g>
<!-- Node8&#45;&gt;Node2 -->
<g id="edge7" class="edge"><title>Node8&#45;&gt;Node2</title>
<path fill="none" stroke="#404040" d="M319.703,-826.245C305.762,-809.319 289.086,-786.643 278.5,-764 263.571,-732.069 269.667,-720.75 259.5,-687 256.126,-675.799 252.306,-664.095 248.379,-652.599"/>
<polygon fill="none" stroke="#404040" points="248.358,-652.538 242.614,-648.178 244.429,-641.199 250.173,-645.559 248.358,-652.538"/>
<text text-anchor="middle" x="330" y="-756" font-family="Courier New" font-size="10.00"> &#45;specTris</text>
<text text-anchor="middle" x="330" y="-745" font-family="Courier New" font-size="10.00">&#45;activeCellFolder</text>
<text text-anchor="middle" x="330" y="-734" font-family="Courier New" font-size="10.00">&#45;neuronCellFolder</text>
<text text-anchor="middle" x="330" y="-723" font-family="Courier New" font-size="10.00">&#45;cngExt</text>
<text text-anchor="middle" x="330" y="-712" font-family="Courier New" font-size="10.00">&#45;specBlownup</text>
<text text-anchor="middle" x="330" y="-701" font-family="Courier New" font-size="10.00">&#45;spec1D</text>
<text text-anchor="middle" x="330" y="-690" font-family="Courier New" font-size="10.00">&#45;ugxExt</text>
</g>
<!-- Node9 -->
<g id="node9" class="node"><title>Node9</title>
<g id="a_node9"><a xlink:href="../../da/df6/class_c2_m2_1_1_neuronal_dynamics_1_1_u_g_x_1_1_neuron_cell.html" target="_top" xlink:title=" ">
<polygon fill="white" stroke="black" points="312,-468.5 312,-668.5 485,-668.5 485,-468.5 312,-468.5"/>
<text text-anchor="start" x="320" y="-656.5" font-family="Courier New" font-size="10.00">C2M2.NeuronalDynamics.UGX.</text>
<text text-anchor="middle" x="398.5" y="-645.5" font-family="Courier New" font-size="10.00">NeuronCell</text>
<polyline fill="none" stroke="black" points="312,-638.5 485,-638.5 "/>
<text text-anchor="start" x="320" y="-626.5" font-family="Courier New" font-size="10.00">+ nodeData</text>
<text text-anchor="start" x="320" y="-615.5" font-family="Courier New" font-size="10.00">+ edges</text>
<text text-anchor="start" x="320" y="-604.5" font-family="Courier New" font-size="10.00">+ edgeLengths</text>
<text text-anchor="start" x="320" y="-593.5" font-family="Courier New" font-size="10.00">+ boundaryID</text>
<text text-anchor="start" x="320" y="-582.5" font-family="Courier New" font-size="10.00">+ somaID</text>
<text text-anchor="start" x="320" y="-571.5" font-family="Courier New" font-size="10.00">+ vertCount</text>
<text text-anchor="start" x="320" y="-560.5" font-family="Courier New" font-size="10.00">+ edgeCount</text>
<polyline fill="none" stroke="black" points="312,-553.5 485,-553.5 "/>
<text text-anchor="start" x="320" y="-541.5" font-family="Courier New" font-size="10.00">+ NeuronCell()</text>
<text text-anchor="start" x="320" y="-530.5" font-family="Courier New" font-size="10.00">+ ReadDataTable()</text>
<text text-anchor="start" x="320" y="-519.5" font-family="Courier New" font-size="10.00">+ NodeToString()</text>
<text text-anchor="start" x="320" y="-508.5" font-family="Courier New" font-size="10.00">+ EdgeToString()</text>
<text text-anchor="start" x="320" y="-497.5" font-family="Courier New" font-size="10.00">+ ToString()</text>
<text text-anchor="start" x="320" y="-486.5" font-family="Courier New" font-size="10.00">&#45; NodeNeighborsToString()</text>
<text text-anchor="start" x="320" y="-475.5" font-family="Courier New" font-size="10.00">&#45; GetEdgeLength()</text>
</a>
</g>
</g>
<!-- Node8&#45;&gt;Node9 -->
<g id="edge9" class="edge"><title>Node8&#45;&gt;Node9</title>
<path fill="none" stroke="#404040" d="M360.344,-826.181C369.391,-808.865 379.998,-785.809 385.5,-764 392.206,-737.416 395.97,-708.18 397.981,-680.632"/>
<polygon fill="none" stroke="#404040" points="397.99,-680.502 394.385,-674.257 398.763,-668.527 402.368,-674.772 397.99,-680.502"/>
<text text-anchor="middle" x="452" y="-734" font-family="Courier New" font-size="10.00"> &#45;nodeFormatString</text>
<text text-anchor="middle" x="452" y="-723" font-family="Courier New" font-size="10.00">&#45;edgeFormatString</text>
<text text-anchor="middle" x="452" y="-712" font-family="Courier New" font-size="10.00">&#45;cellFormatString</text>
</g>
<!-- Node9&#45;&gt;Node1 -->
<g id="edge8" class="edge"><title>Node9&#45;&gt;Node1</title>
<path fill="none" stroke="#404040" d="M398.5,-468.334C398.5,-456.993 398.5,-445.117 398.5,-432.952"/>
<polygon fill="none" stroke="#404040" points="398.5,-432.7 394.5,-426.7 398.5,-420.7 402.5,-426.7 398.5,-432.7"/>
<text text-anchor="middle" x="423" y="-442" font-family="Courier New" font-size="10.00"> &#45;myCell</text>
</g>
<!-- Node10 -->
<g id="node10" class="node"><title>Node10</title>
<g id="a_node10"><a xlink:href="../../d3/dca/class_c2_m2_1_1_utils_1_1_timer.html" target="_top" xlink:title=" ">
<polygon fill="white" stroke="black" points="503,-479.5 503,-657.5 616,-657.5 616,-479.5 503,-479.5"/>
<text text-anchor="middle" x="559.5" y="-645.5" font-family="Courier New" font-size="10.00">C2M2.Utils.Timer</text>
<polyline fill="none" stroke="black" points="503,-638.5 616,-638.5 "/>
<text text-anchor="start" x="511" y="-626.5" font-family="Courier New" font-size="10.00">+ timerNodes</text>
<text text-anchor="start" x="511" y="-615.5" font-family="Courier New" font-size="10.00">&#45; t0</text>
<text text-anchor="start" x="511" y="-604.5" font-family="Courier New" font-size="10.00">&#45; t1</text>
<text text-anchor="start" x="511" y="-593.5" font-family="Courier New" font-size="10.00">&#45; started</text>
<text text-anchor="start" x="511" y="-582.5" font-family="Courier New" font-size="10.00">&#45; stopwatch</text>
<polyline fill="none" stroke="black" points="503,-575.5 616,-575.5 "/>
<text text-anchor="start" x="511" y="-563.5" font-family="Courier New" font-size="10.00">+ Timer()</text>
<text text-anchor="start" x="511" y="-552.5" font-family="Courier New" font-size="10.00">+ Timer()</text>
<text text-anchor="start" x="511" y="-541.5" font-family="Courier New" font-size="10.00">+ StartTimer()</text>
<text text-anchor="start" x="511" y="-530.5" font-family="Courier New" font-size="10.00">+ StopTimer()</text>
<text text-anchor="start" x="511" y="-519.5" font-family="Courier New" font-size="10.00">+ StopTimer()</text>
<text text-anchor="start" x="511" y="-508.5" font-family="Courier New" font-size="10.00">+ ExportCSV()</text>
<text text-anchor="start" x="511" y="-497.5" font-family="Courier New" font-size="10.00">+ ToString()</text>
<text text-anchor="start" x="511" y="-486.5" font-family="Courier New" font-size="10.00">+ ToStringPlus()</text>
</a>
</g>
</g>
<!-- Node10&#45;&gt;Node1 -->
<g id="edge10" class="edge"><title>Node10&#45;&gt;Node1</title>
<path fill="none" stroke="#404040" d="M519.702,-479.5C512.942,-464.552 505.662,-448.455 498.146,-431.835"/>
<polygon fill="none" stroke="#404040" points="498.12,-431.779 492.003,-427.96 493.176,-420.845 499.293,-424.663 498.12,-431.779"/>
<text text-anchor="middle" x="525" y="-442" font-family="Courier New" font-size="10.00"> &#45;timer</text>
</g>
</g>
</svg>
        <g id="navigator" transform="translate(0 0)" fill="#404254">
                <rect fill="#f2f5e9" fill-opacity="0.5" stroke="#606060" stroke-width=".5" x="0" y="0" width="60" height="60"/>
                <use id="zoomplus" xlink:href="#zoomPlus" x="17" y="9" onmousedown="handleZoom(evt,'in')"/>
                <use id="zoomminus" xlink:href="#zoomMin" x="42" y="9" onmousedown="handleZoom(evt,'out')"/>
                <use id="reset" xlink:href="#resetDef" x="30" y="36" onmousedown="handleReset()"/>
                <g id="arrowUp" xlink:href="#dirArrow" transform="translate(30 24)" onmousedown="handlePan(0,-1)">
                  <use xlink:href="#rim" fill="#404040">
                        <set attributeName="fill" to="#808080" begin="arrowUp.mouseover" end="arrowUp.mouseout"/>
                  </use>
                  <path fill="none" stroke="white" stroke-width="1.5" d="M0,-3.0v7 M-2.5,-0.5L0,-3.0L2.5,-0.5"/>
                </g>
                <g id="arrowRight" xlink:href="#dirArrow" transform="rotate(90) translate(36 -43)" onmousedown="handlePan(1,0)">
                  <use xlink:href="#rim" fill="#404040">
                        <set attributeName="fill" to="#808080" begin="arrowRight.mouseover" end="arrowRight.mouseout"/>
                  </use>
                  <path fill="none" stroke="white" stroke-width="1.5" d="M0,-3.0v7 M-2.5,-0.5L0,-3.0L2.5,-0.5"/>
                </g>
                <g id="arrowDown" xlink:href="#dirArrow" transform="rotate(180) translate(-30 -48)" onmousedown="handlePan(0,1)">
                  <use xlink:href="#rim" fill="#404040">
                        <set attributeName="fill" to="#808080" begin="arrowDown.mouseover" end="arrowDown.mouseout"/>
                  </use>
                  <path fill="none" stroke="white" stroke-width="1.5" d="M0,-3.0v7 M-2.5,-0.5L0,-3.0L2.5,-0.5"/>
                </g>
                <g id="arrowLeft" xlink:href="#dirArrow" transform="rotate(270) translate(-36 17)" onmousedown="handlePan(-1,0)">
                  <use xlink:href="#rim" fill="#404040">
                        <set attributeName="fill" to="#808080" begin="arrowLeft.mouseover" end="arrowLeft.mouseout"/>
                  </use>
                  <path fill="none" stroke="white" stroke-width="1.5" d="M0,-3.0v7 M-2.5,-0.5L0,-3.0L2.5,-0.5"/>
                </g>
        </g>
        <svg viewBox="0 0 15 15" width="100%" height="30px" preserveAspectRatio="xMaxYMin meet">
         <g id="arrow_out" transform="scale(0.3 0.3)">
          <a xlink:href="class_c2_m2_1_1_neuronal_dynamics_1_1_simulation_1_1_cell_solver2_full_a_p___implicit__coll__graph_org.svg" target="_base">
           <rect id="button" ry="5" rx="5" y="6" x="6" height="38" width="38"
                fill="#f2f5e9" fill-opacity="0.5" stroke="#606060" stroke-width="1.0"/>
           <path id="arrow"
             d="M 11.500037,31.436501 C 11.940474,20.09759 22.043105,11.32322 32.158766,21.979434 L 37.068811,17.246167 C 37.068811,17.246167 37.088388,32 37.088388,32 L 22.160133,31.978069 C 22.160133,31.978069 26.997745,27.140456 26.997745,27.140456 C 18.528582,18.264221 13.291696,25.230495 11.500037,31.436501 z"
             style="fill:#404040;"/>
          </a>
         </g>
        </svg>
</svg>
