<?xml version="1.0" encoding="UTF-8" standalone="no"?>
<!DOCTYPE svg PUBLIC "-//W3C//DTD SVG 1.1//EN"
 "http://www.w3.org/Graphics/SVG/1.1/DTD/svg11.dtd">
<!-- Generated by graphviz version 2.46.0 (20210118.1747)
 -->
<!-- Title: C2M2.Interaction.UI.PointInfo Pages: 1 -->
<!--zoomable 530 -->
<svg id="main" version="1.1" xmlns="http://www.w3.org/2000/svg" xmlns:xlink="http://www.w3.org/1999/xlink" xml:space="preserve" onload="init(evt)">
<style type="text/css"><![CDATA[
.edge:hover path { stroke: red; }
.edge:hover polygon { stroke: red; fill: red; }
]]></style>
<script type="text/javascript"><![CDATA[
var edges = document.getElementsByTagName('g');
if (edges && edges.length) {
  for (var i=0;i<edges.length;i++) {
    if (edges[i].id.substr(0,4)=='edge') {
      edges[i].setAttribute('class','edge');
    }
  }
}
]]></script>
        <defs>
                <circle id="rim" cx="0" cy="0" r="7"/>
                <circle id="rim2" cx="0" cy="0" r="3.5"/>
                <g id="zoomPlus">
                        <use xlink:href="#rim" fill="#404040">
                                <set attributeName="fill" to="#808080" begin="zoomplus.mouseover" end="zoomplus.mouseout"/>
                        </use>
                        <path d="M-4,0h8M0,-4v8" fill="none" stroke="white" stroke-width="1.5" pointer-events="none"/>
                </g>
                <g id="zoomMin">
                        <use xlink:href="#rim" fill="#404040">
                                <set attributeName="fill" to="#808080" begin="zoomminus.mouseover" end="zoomminus.mouseout"/>
                        </use>
                        <path d="M-4,0h8" fill="none" stroke="white" stroke-width="1.5" pointer-events="none"/>
                </g>
                <g id="dirArrow">
                        <path fill="none" stroke="white" stroke-width="1.5" d="M0,-3.0v7 M-2.5,-0.5L0,-3.0L2.5,-0.5"/>
                </g>
               <g id="resetDef">
                       <use xlink:href="#rim2" fill="#404040">
                               <set attributeName="fill" to="#808080" begin="reset.mouseover" end="reset.mouseout"/>
                       </use>
               </g>
        </defs>

<script type="text/javascript">
var viewWidth = 307;
var viewHeight = 530;
var sectionId = 'dynsection-1';
</script>
<script xlink:href="../../svgpan.js"/>
<svg id="graph" class="graph">
<g id="viewport">
<title>C2M2.Interaction.UI.PointInfo</title>
<polygon fill="white" stroke="transparent" points="-4,4 -4,-526 303,-526 303,4 -4,4"/>
<!-- Node1 -->
<g id="node1" class="node">
<title>Node1</title>
<g id="a_node1"><a xlink:title="Store useful information about individual simulation vertices, and spawn info panels to display that ...">
<polygon fill="#bfbfbf" stroke="black" points="0,-0.5 0,-288.5 191,-288.5 191,-0.5 0,-0.5"/>
<text text-anchor="middle" x="95.5" y="-276.5" font-family="Courier New" font-size="10.00">C2M2.Interaction.UI.PointInfo</text>
<polyline fill="none" stroke="black" points="0,-269.5 191,-269.5 "/>
<text text-anchor="start" x="8" y="-257.5" font-family="Courier New" font-size="10.00">+ vertNum</text>
<text text-anchor="start" x="8" y="-246.5" font-family="Courier New" font-size="10.00">+ vertPos</text>
<text text-anchor="start" x="8" y="-235.5" font-family="Courier New" font-size="10.00">+ curValReading</text>
<text text-anchor="start" x="8" y="-224.5" font-family="Courier New" font-size="10.00">+ curColReading</text>
<text text-anchor="start" x="8" y="-213.5" font-family="Courier New" font-size="10.00">+ infoPanel</text>
<text text-anchor="start" x="8" y="-202.5" font-family="Courier New" font-size="10.00">+ lineRendInfoPanelAnchor</text>
<text text-anchor="start" x="8" y="-191.5" font-family="Courier New" font-size="10.00">+ pointFollower</text>
<text text-anchor="start" x="8" y="-180.5" font-family="Courier New" font-size="10.00">&#45; lineRend</text>
<text text-anchor="start" x="8" y="-169.5" font-family="Courier New" font-size="10.00">&#45; curVal</text>
<text text-anchor="start" x="8" y="-158.5" font-family="Courier New" font-size="10.00">&#45; vertToWatch</text>
<text text-anchor="start" x="8" y="-147.5" font-family="Courier New" font-size="10.00">&#45; curCol</text>
<text text-anchor="start" x="8" y="-136.5" font-family="Courier New" font-size="10.00">&#45; addVal</text>
<text text-anchor="start" x="8" y="-125.5" font-family="Courier New" font-size="10.00">&#45; menuSnapPosition</text>
<polyline fill="none" stroke="black" points="0,-118.5 191,-118.5 "/>
<text text-anchor="start" x="8" y="-106.5" font-family="Courier New" font-size="10.00">+ Close()</text>
<text text-anchor="start" x="8" y="-95.5" font-family="Courier New" font-size="10.00">+ InitializeInfoPanel()</text>
<text text-anchor="start" x="8" y="-84.5" font-family="Courier New" font-size="10.00">+ ReadValue()</text>
<text text-anchor="start" x="8" y="-73.5" font-family="Courier New" font-size="10.00">&#45; Awake()</text>
<text text-anchor="start" x="8" y="-62.5" font-family="Courier New" font-size="10.00">&#45; Update()</text>
<text text-anchor="start" x="8" y="-51.5" font-family="Courier New" font-size="10.00">&#45; CurValReadingDefaultColor</text>
<text text-anchor="start" x="8" y="-40.5" font-family="Courier New" font-size="10.00">Timed()</text>
<text text-anchor="start" x="8" y="-29.5" font-family="Courier New" font-size="10.00">&#45; LateUpdate()</text>
<text text-anchor="start" x="8" y="-18.5" font-family="Courier New" font-size="10.00">&#45; InitializePanelLocation()</text>
<text text-anchor="start" x="8" y="-7.5" font-family="Courier New" font-size="10.00">&#45; UpdateInfo()</text>
</a>
</g>
</g>
<!-- Node2 -->
<g id="node2" class="node">
<title>Node2</title>
<g id="a_node2"><a xlink:title=" ">
<polygon fill="white" stroke="#bfbfbf" points="44,-464.5 44,-521.5 139,-521.5 139,-464.5 44,-464.5"/>
<text text-anchor="middle" x="91.5" y="-509.5" font-family="Courier New" font-size="10.00">MonoBehaviour</text>
<polyline fill="none" stroke="#bfbfbf" points="44,-502.5 139,-502.5 "/>
<text text-anchor="middle" x="91.5" y="-490.5" font-family="Courier New" font-size="10.00"> </text>
<polyline fill="none" stroke="#bfbfbf" points="44,-483.5 139,-483.5 "/>
<text text-anchor="middle" x="91.5" y="-471.5" font-family="Courier New" font-size="10.00"> </text>
</a>
</g>
</g>
<!-- Node2&#45;&gt;Node1 -->
<g id="edge1" class="edge">
<title>Node2&#45;&gt;Node1</title>
<path fill="none" stroke="midnightblue" d="M91.94,-454.17C92.4,-414.31 93.15,-349.07 93.85,-288.81"/>
<polygon fill="none" stroke="midnightblue" points="88.44,-454.19 91.82,-464.23 95.44,-454.27 88.44,-454.19"/>
</g>
<!-- Node3 -->
<g id="node3" class="node">
<title>Node3</title>
<g id="a_node3"><a xlink:href="../../d9/d15/class_c2_m2_1_1_simulation_1_1_object_manager.html" target="_top" xlink:title=" ">
<polygon fill="white" stroke="black" points="108,-336.5 108,-426.5 299,-426.5 299,-336.5 108,-336.5"/>
<text text-anchor="middle" x="203.5" y="-414.5" font-family="Courier New" font-size="10.00">C2M2.Simulation.ObjectManager</text>
<polyline fill="none" stroke="black" points="108,-407.5 299,-407.5 "/>
<text text-anchor="start" x="116" y="-395.5" font-family="Courier New" font-size="10.00">+ gradient</text>
<text text-anchor="start" x="116" y="-384.5" font-family="Courier New" font-size="10.00">+ vtuManager</text>
<text text-anchor="start" x="116" y="-373.5" font-family="Courier New" font-size="10.00">+ meshInfo</text>
<text text-anchor="start" x="116" y="-362.5" font-family="Courier New" font-size="10.00">+ diffusionManager</text>
<polyline fill="none" stroke="black" points="108,-355.5 299,-355.5 "/>
<text text-anchor="start" x="116" y="-343.5" font-family="Courier New" font-size="10.00">&#45; Awake()</text>
</a>
</g>
</g>
<!-- Node2&#45;&gt;Node3 -->
<g id="edge3" class="edge">
<title>Node2&#45;&gt;Node3</title>
<path fill="none" stroke="midnightblue" d="M127.11,-457.18C137.01,-447.51 147.88,-436.88 158.25,-426.74"/>
<polygon fill="none" stroke="midnightblue" points="124.47,-454.88 119.76,-464.37 129.36,-459.88 124.47,-454.88"/>
</g>
<!-- Node3&#45;&gt;Node1 -->
<g id="edge2" class="edge">
<title>Node3&#45;&gt;Node1</title>
<path fill="none" stroke="#404040" d="M183.19,-336.3C178.13,-325.29 172.41,-312.85 166.38,-299.73"/>
<polygon fill="none" stroke="#404040" points="166.26,-299.47 160.12,-295.69 161.25,-288.56 167.39,-292.35 166.26,-299.47"/>
<text text-anchor="middle" x="220" y="-310" font-family="Courier New" font-size="10.00"> &#45;objectManager</text>
</g>
</g>
</svg>
        <g id="navigator" transform="translate(0 0)" fill="#404254">
                <rect fill="#f2f5e9" fill-opacity="0.5" stroke="#606060" stroke-width=".5" x="0" y="0" width="60" height="60"/>
                <use id="zoomplus" xlink:href="#zoomPlus" x="17" y="9" onmousedown="handleZoom(evt,'in')"/>
                <use id="zoomminus" xlink:href="#zoomMin" x="42" y="9" onmousedown="handleZoom(evt,'out')"/>
                <use id="reset" xlink:href="#resetDef" x="30" y="36" onmousedown="handleReset()"/>
                <g id="arrowUp" xlink:href="#dirArrow" transform="translate(30 24)" onmousedown="handlePan(0,-1)">
                  <use xlink:href="#rim" fill="#404040">
                        <set attributeName="fill" to="#808080" begin="arrowUp.mouseover" end="arrowUp.mouseout"/>
                  </use>
                  <path fill="none" stroke="white" stroke-width="1.5" d="M0,-3.0v7 M-2.5,-0.5L0,-3.0L2.5,-0.5"/>
                </g>
                <g id="arrowRight" xlink:href="#dirArrow" transform="rotate(90) translate(36 -43)" onmousedown="handlePan(1,0)">
                  <use xlink:href="#rim" fill="#404040">
                        <set attributeName="fill" to="#808080" begin="arrowRight.mouseover" end="arrowRight.mouseout"/>
                  </use>
                  <path fill="none" stroke="white" stroke-width="1.5" d="M0,-3.0v7 M-2.5,-0.5L0,-3.0L2.5,-0.5"/>
                </g>
                <g id="arrowDown" xlink:href="#dirArrow" transform="rotate(180) translate(-30 -48)" onmousedown="handlePan(0,1)">
                  <use xlink:href="#rim" fill="#404040">
                        <set attributeName="fill" to="#808080" begin="arrowDown.mouseover" end="arrowDown.mouseout"/>
                  </use>
                  <path fill="none" stroke="white" stroke-width="1.5" d="M0,-3.0v7 M-2.5,-0.5L0,-3.0L2.5,-0.5"/>
                </g>
                <g id="arrowLeft" xlink:href="#dirArrow" transform="rotate(270) translate(-36 17)" onmousedown="handlePan(-1,0)">
                  <use xlink:href="#rim" fill="#404040">
                        <set attributeName="fill" to="#808080" begin="arrowLeft.mouseover" end="arrowLeft.mouseout"/>
                  </use>
                  <path fill="none" stroke="white" stroke-width="1.5" d="M0,-3.0v7 M-2.5,-0.5L0,-3.0L2.5,-0.5"/>
                </g>
        </g>
        <svg viewBox="0 0 15 15" width="100%" height="30px" preserveAspectRatio="xMaxYMin meet">
         <g id="arrow_out" transform="scale(0.3 0.3)">
          <a xlink:href="class_c2_m2_1_1_interaction_1_1_u_i_1_1_point_info__coll__graph_org.svg" target="_base">
           <rect id="button" ry="5" rx="5" y="6" x="6" height="38" width="38"
                fill="#f2f5e9" fill-opacity="0.5" stroke="#606060" stroke-width="1.0"/>
           <path id="arrow"
             d="M 11.500037,31.436501 C 11.940474,20.09759 22.043105,11.32322 32.158766,21.979434 L 37.068811,17.246167 C 37.068811,17.246167 37.088388,32 37.088388,32 L 22.160133,31.978069 C 22.160133,31.978069 26.997745,27.140456 26.997745,27.140456 C 18.528582,18.264221 13.291696,25.230495 11.500037,31.436501 z"
             style="fill:#404040;"/>
          </a>
         </g>
        </svg>
</svg>
