<?xml version="1.0" encoding="UTF-8" standalone="no"?>
<!DOCTYPE svg PUBLIC "-//W3C//DTD SVG 1.1//EN"
 "http://www.w3.org/Graphics/SVG/1.1/DTD/svg11.dtd">
<!-- Generated by graphviz version 2.46.0 (20210118.1747)
 -->
<!-- Title: C2M2.NeuronalDynamics.Interaction.NDClampModeSwitch Pages: 1 -->
<svg width="1390pt" height="1654pt"
 viewBox="0.00 0.00 1390.00 1654.00" xmlns="http://www.w3.org/2000/svg" xmlns:xlink="http://www.w3.org/1999/xlink">
<g id="graph0" class="graph" transform="scale(1 1) rotate(0) translate(4 1650)">
<title>C2M2.NeuronalDynamics.Interaction.NDClampModeSwitch</title>
<polygon fill="white" stroke="transparent" points="-4,4 -4,-1650 1386,-1650 1386,4 -4,4"/>
<!-- Node1 -->
<g id="node1" class="node">
<title>Node1</title>
<g id="a_node1"><a xlink:title=" ">
<polygon fill="#bfbfbf" stroke="black" points="0,-0.5 0,-68.5 221,-68.5 221,-0.5 0,-0.5"/>
<text text-anchor="start" x="8" y="-56.5" font-family="Courier New" font-size="10.00">C2M2.NeuronalDynamics.Interaction.</text>
<text text-anchor="middle" x="110.5" y="-45.5" font-family="Courier New" font-size="10.00">NDClampModeSwitch</text>
<polyline fill="none" stroke="black" points="0,-38.5 221,-38.5 "/>
<text text-anchor="middle" x="110.5" y="-26.5" font-family="Courier New" font-size="10.00"> </text>
<polyline fill="none" stroke="black" points="0,-19.5 221,-19.5 "/>
<text text-anchor="start" x="8" y="-7.5" font-family="Courier New" font-size="10.00">+ Toggle()</text>
</a>
</g>
</g>
<!-- Node2 -->
<g id="node2" class="node">
<title>Node2</title>
<g id="a_node2"><a xlink:href="../../dd/df7/class_c2_m2_1_1_neuronal_dynamics_1_1_interaction_1_1_n_d_control_button.html" target="_top" xlink:title=" ">
<polygon fill="white" stroke="black" points="57,-106.5 57,-163.5 164,-163.5 164,-106.5 57,-106.5"/>
<text text-anchor="middle" x="110.5" y="-151.5" font-family="Courier New" font-size="10.00">NDControlButton</text>
<polyline fill="none" stroke="black" points="57,-144.5 164,-144.5 "/>
<text text-anchor="middle" x="110.5" y="-132.5" font-family="Courier New" font-size="10.00"> </text>
<polyline fill="none" stroke="black" points="57,-125.5 164,-125.5 "/>
<text text-anchor="middle" x="110.5" y="-113.5" font-family="Courier New" font-size="10.00"> </text>
</a>
</g>
</g>
<!-- Node2&#45;&gt;Node1 -->
<g id="edge1" class="edge">
<title>Node2&#45;&gt;Node1</title>
<path fill="none" stroke="midnightblue" d="M110.5,-96.01C110.5,-86.96 110.5,-77.38 110.5,-68.58"/>
<polygon fill="none" stroke="midnightblue" points="107,-96.3 110.5,-106.3 114,-96.3 107,-96.3"/>
</g>
<!-- Node3 -->
<g id="node3" class="node">
<title>Node3</title>
<g id="a_node3"><a xlink:title=" ">
<polygon fill="white" stroke="#bfbfbf" points="746,-1434 746,-1491 841,-1491 841,-1434 746,-1434"/>
<text text-anchor="middle" x="793.5" y="-1479" font-family="Courier New" font-size="10.00">MonoBehaviour</text>
<polyline fill="none" stroke="#bfbfbf" points="746,-1472 841,-1472 "/>
<text text-anchor="middle" x="793.5" y="-1460" font-family="Courier New" font-size="10.00"> </text>
<polyline fill="none" stroke="#bfbfbf" points="746,-1453 841,-1453 "/>
<text text-anchor="middle" x="793.5" y="-1441" font-family="Courier New" font-size="10.00"> </text>
</a>
</g>
</g>
<!-- Node3&#45;&gt;Node2 -->
<g id="edge2" class="edge">
<title>Node3&#45;&gt;Node2</title>
<path fill="none" stroke="midnightblue" d="M735.61,-1458.4C587.05,-1449.18 198.08,-1416.7 113.5,-1326 67.97,-1277.17 94.5,-1243.76 94.5,-1177 94.5,-1177 94.5,-1177 94.5,-453.5 94.5,-346.15 103.74,-218.65 108.17,-163.58"/>
<polygon fill="none" stroke="midnightblue" points="735.69,-1461.91 745.88,-1459.02 736.11,-1454.92 735.69,-1461.91"/>
</g>
<!-- Node7 -->
<g id="node7" class="node">
<title>Node7</title>
<g id="a_node7"><a xlink:href="../../da/d4f/class_c2_m2_1_1_visualization_1_1_l_u_t_gradient.html" target="_top" xlink:title="Create a fast and memory&#45;friendly color lookup table from a gradient">
<polygon fill="white" stroke="black" points="473,-1059.5 473,-1292.5 670,-1292.5 670,-1059.5 473,-1059.5"/>
<text text-anchor="middle" x="571.5" y="-1280.5" font-family="Courier New" font-size="10.00">C2M2.Visualization.LUTGradient</text>
<polyline fill="none" stroke="black" points="473,-1273.5 670,-1273.5 "/>
<text text-anchor="start" x="481" y="-1261.5" font-family="Courier New" font-size="10.00">+ extremaMethod</text>
<text text-anchor="start" x="481" y="-1250.5" font-family="Courier New" font-size="10.00">+ globalMax</text>
<text text-anchor="start" x="481" y="-1239.5" font-family="Courier New" font-size="10.00">+ globalMin</text>
<text text-anchor="start" x="481" y="-1228.5" font-family="Courier New" font-size="10.00">+ curMax</text>
<text text-anchor="start" x="481" y="-1217.5" font-family="Courier New" font-size="10.00">+ curMix</text>
<text text-anchor="start" x="481" y="-1206.5" font-family="Courier New" font-size="10.00">+ LutRes</text>
<text text-anchor="start" x="481" y="-1195.5" font-family="Courier New" font-size="10.00">+ Gradient</text>
<text text-anchor="start" x="481" y="-1184.5" font-family="Courier New" font-size="10.00">+ gradientLUT</text>
<text text-anchor="start" x="481" y="-1173.5" font-family="Courier New" font-size="10.00">+ oldMin</text>
<text text-anchor="start" x="481" y="-1162.5" font-family="Courier New" font-size="10.00">+ oldMax</text>
<text text-anchor="start" x="481" y="-1151.5" font-family="Courier New" font-size="10.00">&#45; lutRes</text>
<text text-anchor="start" x="481" y="-1140.5" font-family="Courier New" font-size="10.00">&#45; gradient</text>
<polyline fill="none" stroke="black" points="473,-1133.5 670,-1133.5 "/>
<text text-anchor="start" x="481" y="-1121.5" font-family="Courier New" font-size="10.00">+ Evaluate()</text>
<text text-anchor="start" x="481" y="-1110.5" font-family="Courier New" font-size="10.00">+ Evaluate()</text>
<text text-anchor="start" x="481" y="-1099.5" font-family="Courier New" font-size="10.00">+ EvaluateUnscaled()</text>
<text text-anchor="start" x="481" y="-1088.5" font-family="Courier New" font-size="10.00">+ GetMinMax()</text>
<text text-anchor="start" x="481" y="-1077.5" font-family="Courier New" font-size="10.00">&#45; BuildLUT()</text>
<text text-anchor="start" x="481" y="-1066.5" font-family="Courier New" font-size="10.00">&#45; RescaleArray()</text>
</a>
</g>
</g>
<!-- Node3&#45;&gt;Node7 -->
<g id="edge7" class="edge">
<title>Node3&#45;&gt;Node7</title>
<path fill="none" stroke="midnightblue" d="M765.7,-1425.87C739.61,-1392.44 699.13,-1340.56 661.87,-1292.81"/>
<polygon fill="none" stroke="midnightblue" points="763.1,-1428.23 772.01,-1433.96 768.62,-1423.93 763.1,-1428.23"/>
</g>
<!-- Node17 -->
<g id="node17" class="node">
<title>Node17</title>
<g id="a_node17"><a xlink:href="../../d5/df9/class_c2_m2_1_1_interaction_1_1_raycast_event_manager.html" target="_top" xlink:title="Attach this script to parent gameObject, create one child with one raycast trigger per child....">
<polygon fill="white" stroke="black" points="970,-762 970,-951 1131,-951 1131,-762 970,-762"/>
<text text-anchor="start" x="978" y="-939" font-family="Courier New" font-size="10.00">C2M2.Interaction.Raycast</text>
<text text-anchor="middle" x="1050.5" y="-928" font-family="Courier New" font-size="10.00">EventManager</text>
<polyline fill="none" stroke="black" points="970,-921 1131,-921 "/>
<text text-anchor="middle" x="1050.5" y="-909" font-family="Courier New" font-size="10.00"> </text>
<polyline fill="none" stroke="black" points="970,-902 1131,-902 "/>
<text text-anchor="start" x="978" y="-890" font-family="Courier New" font-size="10.00">+ TriggerChangeRight()</text>
<text text-anchor="start" x="978" y="-879" font-family="Courier New" font-size="10.00">+ TriggerChangeLeft()</text>
<text text-anchor="start" x="978" y="-868" font-family="Courier New" font-size="10.00">+ TriggerChangeBoth()</text>
<text text-anchor="start" x="978" y="-857" font-family="Courier New" font-size="10.00">+ TriggerEmptyRight()</text>
<text text-anchor="start" x="978" y="-846" font-family="Courier New" font-size="10.00">+ TriggerEmptyLeft()</text>
<text text-anchor="start" x="978" y="-835" font-family="Courier New" font-size="10.00">+ TriggerEmptyBoth()</text>
<text text-anchor="start" x="978" y="-824" font-family="Courier New" font-size="10.00">+ HoverEvent()</text>
<text text-anchor="start" x="978" y="-813" font-family="Courier New" font-size="10.00">+ HoverEndEvent()</text>
<text text-anchor="start" x="978" y="-802" font-family="Courier New" font-size="10.00">+ PressEvent()</text>
<text text-anchor="start" x="978" y="-791" font-family="Courier New" font-size="10.00">+ HoldEvent()</text>
<text text-anchor="start" x="978" y="-780" font-family="Courier New" font-size="10.00">and 7 more...</text>
<text text-anchor="start" x="978" y="-769" font-family="Courier New" font-size="10.00">&#45; Awake()</text>
</a>
</g>
</g>
<!-- Node3&#45;&gt;Node17 -->
<g id="edge18" class="edge">
<title>Node3&#45;&gt;Node17</title>
<path fill="none" stroke="midnightblue" d="M803.01,-1424.13C823.26,-1347.31 874.42,-1167.01 942.5,-1026 954.59,-1000.97 969.67,-975.13 984.69,-951.42"/>
<polygon fill="none" stroke="midnightblue" points="799.61,-1423.28 800.47,-1433.84 806.39,-1425.05 799.61,-1423.28"/>
</g>
<!-- Node18 -->
<g id="node18" class="node">
<title>Node18</title>
<g id="a_node18"><a xlink:href="../../d8/d68/class_c2_m2_1_1_interaction_1_1_raycast_press_events.html" target="_top" xlink:title="Store custom events that the corresponding RaycastTriggerManager will invoke">
<polygon fill="white" stroke="black" points="951,-1098 951,-1254 1112,-1254 1112,-1098 951,-1098"/>
<text text-anchor="start" x="959" y="-1242" font-family="Courier New" font-size="10.00">C2M2.Interaction.Raycast</text>
<text text-anchor="middle" x="1031.5" y="-1231" font-family="Courier New" font-size="10.00">PressEvents</text>
<polyline fill="none" stroke="black" points="951,-1224 1112,-1224 "/>
<text text-anchor="start" x="959" y="-1212" font-family="Courier New" font-size="10.00">+ OnHover</text>
<text text-anchor="start" x="959" y="-1201" font-family="Courier New" font-size="10.00">+ OnHoverEnd</text>
<text text-anchor="start" x="959" y="-1190" font-family="Courier New" font-size="10.00">+ OnPress</text>
<text text-anchor="start" x="959" y="-1179" font-family="Courier New" font-size="10.00">+ OnHoldPress</text>
<text text-anchor="start" x="959" y="-1168" font-family="Courier New" font-size="10.00">+ OnEndPress</text>
<polyline fill="none" stroke="black" points="951,-1161 1112,-1161 "/>
<text text-anchor="start" x="959" y="-1149" font-family="Courier New" font-size="10.00">+ Hover()</text>
<text text-anchor="start" x="959" y="-1138" font-family="Courier New" font-size="10.00">+ EndHover()</text>
<text text-anchor="start" x="959" y="-1127" font-family="Courier New" font-size="10.00">+ Press()</text>
<text text-anchor="start" x="959" y="-1116" font-family="Courier New" font-size="10.00">+ HoldPress()</text>
<text text-anchor="start" x="959" y="-1105" font-family="Courier New" font-size="10.00">+ EndPress()</text>
</a>
</g>
</g>
<!-- Node3&#45;&gt;Node18 -->
<g id="edge21" class="edge">
<title>Node3&#45;&gt;Node18</title>
<path fill="none" stroke="midnightblue" d="M849.98,-1435.15C867.17,-1425.39 885.26,-1413.19 899.5,-1399 941.19,-1357.46 974.83,-1300.16 997.71,-1254.18"/>
<polygon fill="none" stroke="midnightblue" points="848.17,-1432.15 841.1,-1440.03 851.54,-1438.28 848.17,-1432.15"/>
</g>
<!-- Node4 -->
<g id="node4" class="node">
<title>Node4</title>
<g id="a_node4"><a xlink:href="../../d7/d92/class_c2_m2_1_1_neuronal_dynamics_1_1_simulation_1_1_n_d_simulation.html" target="_top" xlink:title="Provide an interface for 1D neuron&#45;surface simulations to be visualized and interacted with">
<polygon fill="white" stroke="black" points="554,-211.5 554,-697.5 781,-697.5 781,-211.5 554,-211.5"/>
<text text-anchor="start" x="562" y="-685.5" font-family="Courier New" font-size="10.00">C2M2.NeuronalDynamics.Simulation.</text>
<text text-anchor="middle" x="667.5" y="-674.5" font-family="Courier New" font-size="10.00">NDSimulation</text>
<polyline fill="none" stroke="black" points="554,-667.5 781,-667.5 "/>
<text text-anchor="start" x="562" y="-655.5" font-family="Courier New" font-size="10.00">+ visualize1D</text>
<text text-anchor="start" x="562" y="-644.5" font-family="Courier New" font-size="10.00">+ color1D</text>
<text text-anchor="start" x="562" y="-633.5" font-family="Courier New" font-size="10.00">+ lineWidth1D</text>
<text text-anchor="start" x="562" y="-622.5" font-family="Courier New" font-size="10.00">+ vrnFileName</text>
<text text-anchor="start" x="562" y="-611.5" font-family="Courier New" font-size="10.00">+ hitValue</text>
<text text-anchor="start" x="562" y="-600.5" font-family="Courier New" font-size="10.00">+ clamps</text>
<text text-anchor="start" x="562" y="-589.5" font-family="Courier New" font-size="10.00">+ VisualInflation</text>
<text text-anchor="start" x="562" y="-578.5" font-family="Courier New" font-size="10.00">+ ColliderInflation</text>
<text text-anchor="start" x="562" y="-567.5" font-family="Courier New" font-size="10.00">+ RefinementLevel</text>
<text text-anchor="start" x="562" y="-556.5" font-family="Courier New" font-size="10.00">+ ClampMode</text>
<text text-anchor="start" x="562" y="-545.5" font-family="Courier New" font-size="10.00">+ VrnReader</text>
<text text-anchor="start" x="562" y="-534.5" font-family="Courier New" font-size="10.00">+ Grid1D</text>
<text text-anchor="start" x="562" y="-523.5" font-family="Courier New" font-size="10.00">+ Verts1D</text>
<text text-anchor="start" x="562" y="-512.5" font-family="Courier New" font-size="10.00">+ Grid2D</text>
<text text-anchor="start" x="562" y="-501.5" font-family="Courier New" font-size="10.00">+ NeuronCell</text>
<text text-anchor="start" x="562" y="-490.5" font-family="Courier New" font-size="10.00">+ AverageDendriteRadius</text>
<text text-anchor="start" x="562" y="-479.5" font-family="Courier New" font-size="10.00">+ Map</text>
<text text-anchor="start" x="562" y="-468.5" font-family="Courier New" font-size="10.00">+ Mapping</text>
<text text-anchor="start" x="562" y="-457.5" font-family="Courier New" font-size="10.00">+ Scalars3D</text>
<text text-anchor="start" x="562" y="-446.5" font-family="Courier New" font-size="10.00">&#45; visualInflation</text>
<text text-anchor="start" x="562" y="-435.5" font-family="Courier New" font-size="10.00">&#45; colliderInflation</text>
<text text-anchor="start" x="562" y="-424.5" font-family="Courier New" font-size="10.00">&#45; refinementLevel</text>
<text text-anchor="start" x="562" y="-413.5" font-family="Courier New" font-size="10.00">&#45; meshCache</text>
<text text-anchor="start" x="562" y="-402.5" font-family="Courier New" font-size="10.00">&#45; clampMode</text>
<text text-anchor="start" x="562" y="-391.5" font-family="Courier New" font-size="10.00">&#45; averageDendriteRadius</text>
<text text-anchor="start" x="562" y="-380.5" font-family="Courier New" font-size="10.00">&#45; scalars3D</text>
<polyline fill="none" stroke="black" points="554,-373.5 781,-373.5 "/>
<text text-anchor="start" x="562" y="-361.5" font-family="Courier New" font-size="10.00">+ OnVisualInflationChangeDelegate()</text>
<text text-anchor="start" x="562" y="-350.5" font-family="Courier New" font-size="10.00">+ GetValues()</text>
<text text-anchor="start" x="562" y="-339.5" font-family="Courier New" font-size="10.00">+ SetValues()</text>
<text text-anchor="start" x="562" y="-328.5" font-family="Courier New" font-size="10.00">+ SetValues()</text>
<text text-anchor="start" x="562" y="-317.5" font-family="Courier New" font-size="10.00">+ Set1DValues()</text>
<text text-anchor="start" x="562" y="-306.5" font-family="Courier New" font-size="10.00">+ Get1DValues()</text>
<text text-anchor="start" x="562" y="-295.5" font-family="Courier New" font-size="10.00">+ SwitchColliderMesh()</text>
<text text-anchor="start" x="562" y="-284.5" font-family="Courier New" font-size="10.00">+ SwitchMesh()</text>
<text text-anchor="start" x="562" y="-273.5" font-family="Courier New" font-size="10.00"># OnAwakePre()</text>
<text text-anchor="start" x="562" y="-262.5" font-family="Courier New" font-size="10.00"># OnStart()</text>
<text text-anchor="start" x="562" y="-251.5" font-family="Courier New" font-size="10.00"># BuildVisualization()</text>
<text text-anchor="start" x="562" y="-240.5" font-family="Courier New" font-size="10.00">&#45; CheckMeshCache()</text>
<text text-anchor="start" x="562" y="-229.5" font-family="Courier New" font-size="10.00">&#45; UpdateGrid1D()</text>
<text text-anchor="start" x="562" y="-218.5" font-family="Courier New" font-size="10.00">&#45; Update2DGrid()</text>
</a>
</g>
</g>
<!-- Node4&#45;&gt;Node2 -->
<g id="edge3" class="edge">
<title>Node4&#45;&gt;Node2</title>
<path fill="none" stroke="#404040" d="M553.78,-388.67C437.28,-322.27 260.73,-221.64 169.58,-169.68"/>
<polygon fill="none" stroke="#404040" points="169.32,-169.53 162.13,-170.03 158.9,-163.59 166.09,-163.08 169.32,-169.53"/>
<text text-anchor="middle" x="247" y="-185" font-family="Courier New" font-size="10.00"> +ndSimulation</text>
</g>
<!-- Node5 -->
<g id="node5" class="node">
<title>Node5</title>
<g id="a_node5"><a xlink:href="../../d6/d2d/class_c2_m2_1_1_simulation_1_1_mesh_simulation.html" target="_top" xlink:title="Simulation of type double[] for visualizing scalar fields on mesh surfaces">
<polygon fill="white" stroke="black" points="123,-756.5 123,-956.5 278,-956.5 278,-756.5 123,-756.5"/>
<text text-anchor="middle" x="200.5" y="-944.5" font-family="Courier New" font-size="10.00">MeshSimulation</text>
<polyline fill="none" stroke="black" points="123,-937.5 278,-937.5 "/>
<text text-anchor="start" x="131" y="-925.5" font-family="Courier New" font-size="10.00">+ gradient</text>
<text text-anchor="start" x="131" y="-914.5" font-family="Courier New" font-size="10.00">+ globalMax</text>
<text text-anchor="start" x="131" y="-903.5" font-family="Courier New" font-size="10.00">+ globalMin</text>
<text text-anchor="start" x="131" y="-892.5" font-family="Courier New" font-size="10.00">+ rulerInitPos</text>
<text text-anchor="start" x="131" y="-881.5" font-family="Courier New" font-size="10.00">+ rulerInitRot</text>
<text text-anchor="start" x="131" y="-870.5" font-family="Courier New" font-size="10.00">+ colorLUT</text>
<text text-anchor="start" x="131" y="-859.5" font-family="Courier New" font-size="10.00">+ VisualMesh</text>
<text text-anchor="start" x="131" y="-848.5" font-family="Courier New" font-size="10.00">+ ColliderMesh</text>
<text text-anchor="start" x="131" y="-837.5" font-family="Courier New" font-size="10.00">&#45; visualMesh</text>
<text text-anchor="start" x="131" y="-826.5" font-family="Courier New" font-size="10.00">&#45; colliderMesh</text>
<text text-anchor="start" x="131" y="-815.5" font-family="Courier New" font-size="10.00">&#45; mf</text>
<text text-anchor="start" x="131" y="-804.5" font-family="Courier New" font-size="10.00">&#45; mr</text>
<polyline fill="none" stroke="black" points="123,-797.5 278,-797.5 "/>
<text text-anchor="start" x="131" y="-785.5" font-family="Courier New" font-size="10.00"># UpdateVisualization()</text>
<text text-anchor="start" x="131" y="-774.5" font-family="Courier New" font-size="10.00"># OnAwakePost()</text>
<text text-anchor="start" x="131" y="-763.5" font-family="Courier New" font-size="10.00">&#45; UpdateVisualization()</text>
</a>
</g>
</g>
<!-- Node5&#45;&gt;Node4 -->
<g id="edge4" class="edge">
<title>Node5&#45;&gt;Node4</title>
<path fill="none" stroke="midnightblue" d="M285.45,-757.01C285.8,-756.67 286.15,-756.34 286.5,-756 370.84,-675.37 475.44,-594.03 553.69,-536.35"/>
<polygon fill="none" stroke="midnightblue" points="282.74,-754.76 278.08,-764.27 287.66,-759.75 282.74,-754.76"/>
</g>
<!-- Node6 -->
<g id="node6" class="node">
<title>Node6</title>
<g id="a_node6"><a xlink:href="../../db/d39/class_c2_m2_1_1_simulation_1_1_simulation.html" target="_top" xlink:title=" ">
<polygon fill="white" stroke="black" points="123,-1026.5 123,-1325.5 308,-1325.5 308,-1026.5 123,-1026.5"/>
<text text-anchor="start" x="131" y="-1313.5" font-family="Courier New" font-size="10.00">Simulation&lt; double</text>
<text text-anchor="start" x="131" y="-1302.5" font-family="Courier New" font-size="10.00">[], Mesh, VRRaycastableMesh,</text>
<text text-anchor="middle" x="215.5" y="-1291.5" font-family="Courier New" font-size="10.00"> VRGrabbableMesh &gt;</text>
<polyline fill="none" stroke="black" points="123,-1284.5 308,-1284.5 "/>
<text text-anchor="start" x="131" y="-1272.5" font-family="Courier New" font-size="10.00">+ dryRun</text>
<text text-anchor="start" x="131" y="-1261.5" font-family="Courier New" font-size="10.00">+ startOnAwake</text>
<text text-anchor="start" x="131" y="-1250.5" font-family="Courier New" font-size="10.00">+ viz</text>
<text text-anchor="start" x="131" y="-1239.5" font-family="Courier New" font-size="10.00"># mutex</text>
<text text-anchor="start" x="131" y="-1228.5" font-family="Courier New" font-size="10.00">&#45; solveThread</text>
<polyline fill="none" stroke="black" points="123,-1221.5 308,-1221.5 "/>
<text text-anchor="start" x="131" y="-1209.5" font-family="Courier New" font-size="10.00">+ GetValues()</text>
<text text-anchor="start" x="131" y="-1198.5" font-family="Courier New" font-size="10.00">+ Initialize()</text>
<text text-anchor="start" x="131" y="-1187.5" font-family="Courier New" font-size="10.00">+ Update()</text>
<text text-anchor="start" x="131" y="-1176.5" font-family="Courier New" font-size="10.00">+ StartSimulation()</text>
<text text-anchor="start" x="131" y="-1165.5" font-family="Courier New" font-size="10.00">+ StopSimulation()</text>
<text text-anchor="start" x="131" y="-1154.5" font-family="Courier New" font-size="10.00"># BuildVisualization()</text>
<text text-anchor="start" x="131" y="-1143.5" font-family="Courier New" font-size="10.00"># UpdateVisualization()</text>
<text text-anchor="start" x="131" y="-1132.5" font-family="Courier New" font-size="10.00"># Solve()</text>
<text text-anchor="start" x="131" y="-1121.5" font-family="Courier New" font-size="10.00"># PreSolve()</text>
<text text-anchor="start" x="131" y="-1110.5" font-family="Courier New" font-size="10.00"># OnAwakePre()</text>
<text text-anchor="start" x="131" y="-1099.5" font-family="Courier New" font-size="10.00"># OnAwakePost()</text>
<text text-anchor="start" x="131" y="-1088.5" font-family="Courier New" font-size="10.00"># OnStart()</text>
<text text-anchor="start" x="131" y="-1077.5" font-family="Courier New" font-size="10.00"># OnUpdate()</text>
<text text-anchor="start" x="131" y="-1066.5" font-family="Courier New" font-size="10.00"># OnPause()</text>
<text text-anchor="start" x="131" y="-1055.5" font-family="Courier New" font-size="10.00"># OnQuit()</text>
<text text-anchor="start" x="131" y="-1044.5" font-family="Courier New" font-size="10.00">&#45; OnApplicationPause()</text>
<text text-anchor="start" x="131" y="-1033.5" font-family="Courier New" font-size="10.00">&#45; OnApplicationQuit()</text>
</a>
</g>
</g>
<!-- Node6&#45;&gt;Node5 -->
<g id="edge5" class="edge">
<title>Node6&#45;&gt;Node5</title>
<path fill="none" stroke="midnightblue" d="M208.01,-1016.45C207.04,-996.03 206.08,-975.6 205.18,-956.52"/>
<polygon fill="none" stroke="midnightblue" points="204.51,-1016.65 208.48,-1026.48 211.51,-1016.32 204.51,-1016.65"/>
</g>
<!-- Node7&#45;&gt;Node5 -->
<g id="edge6" class="edge">
<title>Node7&#45;&gt;Node5</title>
<path fill="none" stroke="#404040" d="M472.86,-1107.24C418.62,-1068.22 351.04,-1016.66 287.03,-957.22"/>
<polygon fill="none" stroke="#404040" points="286.78,-956.99 279.67,-955.8 278.02,-948.78 285.14,-949.97 286.78,-956.99"/>
<text text-anchor="middle" x="384" y="-989" font-family="Courier New" font-size="10.00"> +extremaMethod</text>
</g>
<!-- Node8 -->
<g id="node8" class="node">
<title>Node8</title>
<g id="a_node8"><a xlink:href="../../da/df6/class_c2_m2_1_1_neuronal_dynamics_1_1_u_g_x_1_1_neuron_cell.html" target="_top" xlink:title=" ">
<polygon fill="white" stroke="black" points="296,-762 296,-951 469,-951 469,-762 296,-762"/>
<text text-anchor="start" x="304" y="-939" font-family="Courier New" font-size="10.00">C2M2.NeuronalDynamics.UGX.</text>
<text text-anchor="middle" x="382.5" y="-928" font-family="Courier New" font-size="10.00">NeuronCell</text>
<polyline fill="none" stroke="black" points="296,-921 469,-921 "/>
<text text-anchor="start" x="304" y="-909" font-family="Courier New" font-size="10.00">+ nodeData</text>
<text text-anchor="start" x="304" y="-898" font-family="Courier New" font-size="10.00">+ edges</text>
<text text-anchor="start" x="304" y="-887" font-family="Courier New" font-size="10.00">+ edgeLengths</text>
<text text-anchor="start" x="304" y="-876" font-family="Courier New" font-size="10.00">+ boundaryID</text>
<text text-anchor="start" x="304" y="-865" font-family="Courier New" font-size="10.00">+ somaID</text>
<text text-anchor="start" x="304" y="-854" font-family="Courier New" font-size="10.00">+ vertCount</text>
<text text-anchor="start" x="304" y="-843" font-family="Courier New" font-size="10.00">+ edgeCount</text>
<polyline fill="none" stroke="black" points="296,-836 469,-836 "/>
<text text-anchor="start" x="304" y="-824" font-family="Courier New" font-size="10.00">+ NeuronCell()</text>
<text text-anchor="start" x="304" y="-813" font-family="Courier New" font-size="10.00">+ NodeToString()</text>
<text text-anchor="start" x="304" y="-802" font-family="Courier New" font-size="10.00">+ EdgeToString()</text>
<text text-anchor="start" x="304" y="-791" font-family="Courier New" font-size="10.00">+ ToString()</text>
<text text-anchor="start" x="304" y="-780" font-family="Courier New" font-size="10.00">+ GetEdgeLength()</text>
<text text-anchor="start" x="304" y="-769" font-family="Courier New" font-size="10.00">&#45; NodeNeighborsToString()</text>
</a>
</g>
</g>
<!-- Node8&#45;&gt;Node4 -->
<g id="edge8" class="edge">
<title>Node8&#45;&gt;Node4</title>
<path fill="none" stroke="#404040" d="M449.14,-761.97C478.24,-721.12 513.31,-671.91 546.73,-625"/>
<polygon fill="none" stroke="#404040" points="546.88,-624.8 547.1,-617.59 553.84,-615.02 553.62,-622.23 546.88,-624.8"/>
<text text-anchor="middle" x="511" y="-724.5" font-family="Courier New" font-size="10.00"> &#45;neuronCell</text>
</g>
<!-- Node9 -->
<g id="node9" class="node">
<title>Node9</title>
<g id="a_node9"><a xlink:title=" ">
<polygon fill="white" stroke="#bfbfbf" points="762,-1147.5 762,-1204.5 815,-1204.5 815,-1147.5 762,-1147.5"/>
<text text-anchor="middle" x="788.5" y="-1192.5" font-family="Courier New" font-size="10.00">static</text>
<polyline fill="none" stroke="#bfbfbf" points="762,-1185.5 815,-1185.5 "/>
<text text-anchor="middle" x="788.5" y="-1173.5" font-family="Courier New" font-size="10.00"> </text>
<polyline fill="none" stroke="#bfbfbf" points="762,-1166.5 815,-1166.5 "/>
<text text-anchor="middle" x="788.5" y="-1154.5" font-family="Courier New" font-size="10.00"> </text>
</a>
</g>
</g>
<!-- Node9&#45;&gt;Node8 -->
<g id="edge9" class="edge">
<title>Node9&#45;&gt;Node8</title>
<path fill="none" stroke="#404040" d="M775.02,-1147.38C757.44,-1114.07 723.63,-1058.51 679.5,-1026 606.5,-972.22 561.85,-1004.86 479.66,-957.07"/>
<polygon fill="none" stroke="#404040" points="479.41,-956.92 472.21,-957.2 469.18,-950.66 476.38,-950.38 479.41,-956.92"/>
<text text-anchor="middle" x="703" y="-1000" font-family="Courier New" font-size="10.00"> &#45;cellFormatString</text>
<text text-anchor="middle" x="703" y="-989" font-family="Courier New" font-size="10.00">&#45;edgeFormatString</text>
<text text-anchor="middle" x="703" y="-978" font-family="Courier New" font-size="10.00">&#45;nodeFormatString</text>
</g>
<!-- Node9&#45;&gt;Node17 -->
<g id="edge19" class="edge">
<title>Node9&#45;&gt;Node17</title>
<path fill="none" stroke="#404040" d="M782.99,-1147.18C776.18,-1103.78 770.53,-1020.26 816.5,-975 837.65,-954.18 917.25,-968.96 960.35,-955.7"/>
<polygon fill="none" stroke="#404040" points="960.35,-955.7 964.39,-949.72 971.46,-951.16 967.42,-957.13 960.35,-955.7"/>
<text text-anchor="middle" x="844" y="-989" font-family="Courier New" font-size="10.00"> &#45;nullHit</text>
</g>
<!-- Node10 -->
<g id="node10" class="node">
<title>Node10</title>
<g id="a_node10"><a xlink:href="../../db/dbd/struct_c2_m2_1_1_neuronal_dynamics_1_1_simulation_1_1_vert3_d1_d_pair.html" target="_top" xlink:title="Stores two 1D indices and a lambda value for a 3D vertex">
<polygon fill="white" stroke="black" points="487,-806 487,-907 702,-907 702,-806 487,-806"/>
<text text-anchor="start" x="495" y="-895" font-family="Courier New" font-size="10.00">C2M2.NeuronalDynamics.Simulation.</text>
<text text-anchor="middle" x="594.5" y="-884" font-family="Courier New" font-size="10.00">Vert3D1DPair</text>
<polyline fill="none" stroke="black" points="487,-877 702,-877 "/>
<text text-anchor="start" x="495" y="-865" font-family="Courier New" font-size="10.00">+ v1</text>
<text text-anchor="start" x="495" y="-854" font-family="Courier New" font-size="10.00">+ v2</text>
<text text-anchor="start" x="495" y="-843" font-family="Courier New" font-size="10.00">+ lambda</text>
<polyline fill="none" stroke="black" points="487,-836 702,-836 "/>
<text text-anchor="start" x="495" y="-824" font-family="Courier New" font-size="10.00">+ Vert3D1DPair()</text>
<text text-anchor="start" x="495" y="-813" font-family="Courier New" font-size="10.00">+ ToString()</text>
</a>
</g>
</g>
<!-- Node10&#45;&gt;Node4 -->
<g id="edge10" class="edge">
<title>Node10&#45;&gt;Node4</title>
<path fill="none" stroke="#404040" d="M603.6,-805.65C608.32,-779.76 614.49,-745.96 621.13,-709.58"/>
<polygon fill="none" stroke="#404040" points="621.15,-709.49 618.29,-702.87 623.3,-697.68 626.16,-704.3 621.15,-709.49"/>
<text text-anchor="middle" x="633" y="-724.5" font-family="Courier New" font-size="10.00"> &#45;map</text>
</g>
<!-- Node11 -->
<g id="node11" class="node">
<title>Node11</title>
<g id="a_node11"><a xlink:title=" ">
<polygon fill="white" stroke="#bfbfbf" points="720,-828 720,-885 761,-885 761,-828 720,-828"/>
<text text-anchor="middle" x="740.5" y="-873" font-family="Courier New" font-size="10.00">C2M2</text>
<polyline fill="none" stroke="#bfbfbf" points="720,-866 761,-866 "/>
<text text-anchor="middle" x="740.5" y="-854" font-family="Courier New" font-size="10.00"> </text>
<polyline fill="none" stroke="#bfbfbf" points="720,-847 761,-847 "/>
<text text-anchor="middle" x="740.5" y="-835" font-family="Courier New" font-size="10.00"> </text>
</a>
</g>
</g>
<!-- Node11&#45;&gt;Node4 -->
<g id="edge11" class="edge">
<title>Node11&#45;&gt;Node4</title>
<path fill="none" stroke="#404040" d="M735.42,-827.69C730.54,-800.93 722.63,-757.57 713.9,-709.72"/>
<polygon fill="none" stroke="#404040" points="713.88,-709.61 708.86,-704.43 711.72,-697.81 716.73,-702.99 713.88,-709.61"/>
<text text-anchor="middle" x="743" y="-730" font-family="Courier New" font-size="10.00"> &#45;grid1D</text>
<text text-anchor="middle" x="743" y="-719" font-family="Courier New" font-size="10.00">&#45;grid2D</text>
</g>
<!-- Node12 -->
<g id="node12" class="node">
<title>Node12</title>
<g id="a_node12"><a xlink:href="../../dd/d2a/struct_c2_m2_1_1_neuronal_dynamics_1_1_u_g_x_1_1_mapping_info.html" target="_top" xlink:title="Encapsulates the grids and mapping data">
<polygon fill="white" stroke="black" points="779,-811.5 779,-901.5 952,-901.5 952,-811.5 779,-811.5"/>
<text text-anchor="start" x="787" y="-889.5" font-family="Courier New" font-size="10.00">C2M2.NeuronalDynamics.UGX.</text>
<text text-anchor="middle" x="865.5" y="-878.5" font-family="Courier New" font-size="10.00">MappingInfo</text>
<polyline fill="none" stroke="black" points="779,-871.5 952,-871.5 "/>
<text text-anchor="start" x="787" y="-859.5" font-family="Courier New" font-size="10.00">+ ModelGeometry</text>
<text text-anchor="start" x="787" y="-848.5" font-family="Courier New" font-size="10.00">+ SurfaceGeometry</text>
<text text-anchor="start" x="787" y="-837.5" font-family="Courier New" font-size="10.00">+ Data</text>
<polyline fill="none" stroke="black" points="779,-830.5 952,-830.5 "/>
<text text-anchor="start" x="787" y="-818.5" font-family="Courier New" font-size="10.00">+ MappingInfo()</text>
</a>
</g>
</g>
<!-- Node12&#45;&gt;Node4 -->
<g id="edge12" class="edge">
<title>Node12&#45;&gt;Node4</title>
<path fill="none" stroke="#404040" d="M843.55,-811.16C828.9,-781.57 808.36,-740.07 786.46,-695.82"/>
<polygon fill="none" stroke="#404040" points="786.34,-695.58 780.09,-691.98 781.02,-684.83 787.26,-688.43 786.34,-695.58"/>
<text text-anchor="middle" x="834" y="-724.5" font-family="Courier New" font-size="10.00"> &#45;mapping</text>
</g>
<!-- Node13 -->
<g id="node13" class="node">
<title>Node13</title>
<g id="a_node13"><a xlink:href="../../d1/d08/class_c2_m2_1_1_neuronal_dynamics_1_1_visualization_1_1_v_r_n_1_1_vrn_reader.html" target="_top" xlink:title=" ">
<polygon fill="white" stroke="black" points="1149,-789.5 1149,-923.5 1382,-923.5 1382,-789.5 1149,-789.5"/>
<text text-anchor="start" x="1157" y="-911.5" font-family="Courier New" font-size="10.00">C2M2.NeuronalDynamics.Visualization.</text>
<text text-anchor="middle" x="1265.5" y="-900.5" font-family="Courier New" font-size="10.00">VRN.VrnReader</text>
<polyline fill="none" stroke="black" points="1149,-893.5 1382,-893.5 "/>
<text text-anchor="start" x="1157" y="-881.5" font-family="Courier New" font-size="10.00">&#45; fileName</text>
<text text-anchor="start" x="1157" y="-870.5" font-family="Courier New" font-size="10.00">&#45; loaded</text>
<polyline fill="none" stroke="black" points="1149,-863.5 1382,-863.5 "/>
<text text-anchor="start" x="1157" y="-851.5" font-family="Courier New" font-size="10.00">+ List()</text>
<text text-anchor="start" x="1157" y="-840.5" font-family="Courier New" font-size="10.00">+ ReadUGX()</text>
<text text-anchor="start" x="1157" y="-829.5" font-family="Courier New" font-size="10.00">+ Retrieve1DMeshName()</text>
<text text-anchor="start" x="1157" y="-818.5" font-family="Courier New" font-size="10.00">+ Retrieve2DMeshName()</text>
<text text-anchor="start" x="1157" y="-807.5" font-family="Courier New" font-size="10.00">+ VrnReader()</text>
<text text-anchor="start" x="1157" y="-796.5" font-family="Courier New" font-size="10.00">&#45; Load()</text>
</a>
</g>
</g>
<!-- Node13&#45;&gt;Node4 -->
<g id="edge13" class="edge">
<title>Node13&#45;&gt;Node4</title>
<path fill="none" stroke="#404040" d="M1185.1,-789.46C1170.47,-778.03 1155.18,-766.46 1140.5,-756 1025.26,-673.88 888.28,-588.07 791.47,-529.27"/>
<polygon fill="none" stroke="#404040" points="791.31,-529.18 784.1,-529.49 781.05,-522.95 788.25,-522.65 791.31,-529.18"/>
<text text-anchor="middle" x="1136" y="-724.5" font-family="Courier New" font-size="10.00"> &#45;vrnReader</text>
</g>
<!-- Node14 -->
<g id="node14" class="node">
<title>Node14</title>
<g id="a_node14"><a xlink:href="../../d9/d5c/class_c2_m2_1_1_neuronal_dynamics_1_1_visualization_1_1_v_r_n_1_1_vrn_reader_1_1_geometry.html" target="_top" xlink:title="Stores 1D and associated 2D geometries in the member geom1d">
<polygon fill="white" stroke="black" points="1149,-1142 1149,-1210 1382,-1210 1382,-1142 1149,-1142"/>
<text text-anchor="start" x="1157" y="-1198" font-family="Courier New" font-size="10.00">C2M2.NeuronalDynamics.Visualization.</text>
<text text-anchor="middle" x="1265.5" y="-1187" font-family="Courier New" font-size="10.00">VRN.VrnReader.Geometry</text>
<polyline fill="none" stroke="black" points="1149,-1180 1382,-1180 "/>
<text text-anchor="middle" x="1265.5" y="-1168" font-family="Courier New" font-size="10.00"> </text>
<polyline fill="none" stroke="black" points="1149,-1161 1382,-1161 "/>
<text text-anchor="start" x="1157" y="-1149" font-family="Courier New" font-size="10.00">+ Geometry()</text>
</a>
</g>
</g>
<!-- Node14&#45;&gt;Node13 -->
<g id="edge14" class="edge">
<title>Node14&#45;&gt;Node13</title>
<path fill="none" stroke="#404040" d="M1265.5,-1141.92C1265.5,-1093.48 1265.5,-1001.81 1265.5,-935.61"/>
<polygon fill="none" stroke="#404040" points="1265.5,-935.57 1261.5,-929.57 1265.5,-923.57 1269.5,-929.57 1265.5,-935.57"/>
<text text-anchor="middle" x="1296" y="-989" font-family="Courier New" font-size="10.00"> &#45;geometry</text>
</g>
<!-- Node15 -->
<g id="node15" class="node">
<title>Node15</title>
<g id="a_node15"><a xlink:href="../../dd/df0/struct_c2_m2_1_1_neuronal_dynamics_1_1_visualization_1_1_v_r_n_1_1_vrn_reader_1_1_geom1d.html" target="_top" xlink:title="Stores the 1D geometries by name, refinement and a description Inflations are attached to the 1D geom...">
<polygon fill="white" stroke="black" points="1149,-1417.5 1149,-1507.5 1382,-1507.5 1382,-1417.5 1149,-1417.5"/>
<text text-anchor="start" x="1157" y="-1495.5" font-family="Courier New" font-size="10.00">C2M2.NeuronalDynamics.Visualization.</text>
<text text-anchor="middle" x="1265.5" y="-1484.5" font-family="Courier New" font-size="10.00">VRN.VrnReader.Geom1d</text>
<polyline fill="none" stroke="black" points="1149,-1477.5 1382,-1477.5 "/>
<text text-anchor="start" x="1157" y="-1465.5" font-family="Courier New" font-size="10.00">+ name</text>
<text text-anchor="start" x="1157" y="-1454.5" font-family="Courier New" font-size="10.00">+ refinement</text>
<text text-anchor="start" x="1157" y="-1443.5" font-family="Courier New" font-size="10.00">+ description</text>
<polyline fill="none" stroke="black" points="1149,-1436.5 1382,-1436.5 "/>
<text text-anchor="start" x="1157" y="-1424.5" font-family="Courier New" font-size="10.00">+ Geom1d()</text>
</a>
</g>
</g>
<!-- Node15&#45;&gt;Node14 -->
<g id="edge15" class="edge">
<title>Node15&#45;&gt;Node14</title>
<path fill="none" stroke="#404040" d="M1265.5,-1417.36C1265.5,-1364.33 1265.5,-1275.84 1265.5,-1222.3"/>
<polygon fill="none" stroke="#404040" points="1265.5,-1222.13 1261.5,-1216.13 1265.5,-1210.13 1269.5,-1216.13 1265.5,-1222.13"/>
<text text-anchor="middle" x="1290" y="-1369" font-family="Courier New" font-size="10.00"> +geom1d</text>
</g>
<!-- Node16 -->
<g id="node16" class="node">
<title>Node16</title>
<g id="a_node16"><a xlink:href="../../d8/daf/struct_c2_m2_1_1_neuronal_dynamics_1_1_visualization_1_1_v_r_n_1_1_vrn_reader_1_1_geom2d.html" target="_top" xlink:title="Stores the 2d geometries by name, inflation (factor), and description">
<polygon fill="white" stroke="black" points="1149,-1555.5 1149,-1645.5 1382,-1645.5 1382,-1555.5 1149,-1555.5"/>
<text text-anchor="start" x="1157" y="-1633.5" font-family="Courier New" font-size="10.00">C2M2.NeuronalDynamics.Visualization.</text>
<text text-anchor="middle" x="1265.5" y="-1622.5" font-family="Courier New" font-size="10.00">VRN.VrnReader.Geom2d</text>
<polyline fill="none" stroke="black" points="1149,-1615.5 1382,-1615.5 "/>
<text text-anchor="start" x="1157" y="-1603.5" font-family="Courier New" font-size="10.00">+ inflation</text>
<text text-anchor="start" x="1157" y="-1592.5" font-family="Courier New" font-size="10.00">+ name</text>
<text text-anchor="start" x="1157" y="-1581.5" font-family="Courier New" font-size="10.00">+ description</text>
<polyline fill="none" stroke="black" points="1149,-1574.5 1382,-1574.5 "/>
<text text-anchor="start" x="1157" y="-1562.5" font-family="Courier New" font-size="10.00">+ Geom2d()</text>
</a>
</g>
</g>
<!-- Node16&#45;&gt;Node15 -->
<g id="edge16" class="edge">
<title>Node16&#45;&gt;Node15</title>
<path fill="none" stroke="#404040" d="M1265.5,-1555.34C1265.5,-1544.06 1265.5,-1531.78 1265.5,-1519.97"/>
<polygon fill="none" stroke="#404040" points="1265.5,-1519.9 1261.5,-1513.9 1265.5,-1507.9 1269.5,-1513.9 1265.5,-1519.9"/>
<text text-anchor="middle" x="1302" y="-1529" font-family="Courier New" font-size="10.00"> +inflations</text>
</g>
<!-- Node17&#45;&gt;Node4 -->
<g id="edge17" class="edge">
<title>Node17&#45;&gt;Node4</title>
<path fill="none" stroke="#404040" d="M969.91,-765.04C967.08,-761.98 964.27,-758.96 961.5,-756 905.89,-696.55 842.93,-631.87 789.58,-577.79"/>
<polygon fill="none" stroke="#404040" points="789.53,-577.74 782.47,-576.29 781.1,-569.21 788.16,-570.66 789.53,-577.74"/>
<text text-anchor="middle" x="986" y="-724.5" font-family="Courier New" font-size="10.00"> &#45;raycastManager</text>
</g>
<!-- Node18&#45;&gt;Node17 -->
<g id="edge20" class="edge">
<title>Node18&#45;&gt;Node17</title>
<path fill="none" stroke="#404040" d="M1036.12,-1097.74C1038.54,-1057.39 1041.53,-1007.4 1044.16,-963.49"/>
<polygon fill="none" stroke="#404040" points="1044.17,-963.25 1040.54,-957.02 1044.89,-951.27 1048.52,-957.5 1044.17,-963.25"/>
<text text-anchor="middle" x="1082" y="-1000" font-family="Courier New" font-size="10.00"> +leftTrigger</text>
<text text-anchor="middle" x="1082" y="-989" font-family="Courier New" font-size="10.00">+rightTrigger</text>
<text text-anchor="middle" x="1082" y="-978" font-family="Courier New" font-size="10.00">&#45;emptyTrigger</text>
</g>
<!-- Node19 -->
<g id="node19" class="node">
<title>Node19</title>
<g id="a_node19"><a xlink:href="../../d2/d43/class_c2_m2_1_1_interaction_1_1_raycast_press_events_1_1_raycast_hit_event.html" target="_top" xlink:title=" ">
<polygon fill="white" stroke="black" points="942,-1428.5 942,-1496.5 1121,-1496.5 1121,-1428.5 942,-1428.5"/>
<text text-anchor="start" x="950" y="-1484.5" font-family="Courier New" font-size="10.00">C2M2.Interaction.Raycast</text>
<text text-anchor="middle" x="1031.5" y="-1473.5" font-family="Courier New" font-size="10.00">PressEvents.RaycastHitEvent</text>
<polyline fill="none" stroke="black" points="942,-1466.5 1121,-1466.5 "/>
<text text-anchor="middle" x="1031.5" y="-1454.5" font-family="Courier New" font-size="10.00"> </text>
<polyline fill="none" stroke="black" points="942,-1447.5 1121,-1447.5 "/>
<text text-anchor="middle" x="1031.5" y="-1435.5" font-family="Courier New" font-size="10.00"> </text>
</a>
</g>
</g>
<!-- Node19&#45;&gt;Node18 -->
<g id="edge22" class="edge">
<title>Node19&#45;&gt;Node18</title>
<path fill="none" stroke="#404040" d="M1031.5,-1428.31C1031.5,-1388.86 1031.5,-1321.44 1031.5,-1266.36"/>
<polygon fill="none" stroke="#404040" points="1031.5,-1266.09 1027.5,-1260.09 1031.5,-1254.09 1035.5,-1260.09 1031.5,-1266.09"/>
<text text-anchor="middle" x="1068" y="-1391" font-family="Courier New" font-size="10.00"> &#45;onEndPress</text>
<text text-anchor="middle" x="1068" y="-1380" font-family="Courier New" font-size="10.00">&#45;onHoldPress</text>
<text text-anchor="middle" x="1068" y="-1369" font-family="Courier New" font-size="10.00">&#45;onHover</text>
<text text-anchor="middle" x="1068" y="-1358" font-family="Courier New" font-size="10.00">&#45;onHoverEnd</text>
<text text-anchor="middle" x="1068" y="-1347" font-family="Courier New" font-size="10.00">&#45;onPress</text>
</g>
<!-- Node20 -->
<g id="node20" class="node">
<title>Node20</title>
<g id="a_node20"><a xlink:title=" ">
<polygon fill="white" stroke="#bfbfbf" points="951,-1572 951,-1629 1112,-1629 1112,-1572 951,-1572"/>
<text text-anchor="middle" x="1031.5" y="-1617" font-family="Courier New" font-size="10.00">UnityEvent&lt; RaycastHit &gt;</text>
<polyline fill="none" stroke="#bfbfbf" points="951,-1610 1112,-1610 "/>
<text text-anchor="middle" x="1031.5" y="-1598" font-family="Courier New" font-size="10.00"> </text>
<polyline fill="none" stroke="#bfbfbf" points="951,-1591 1112,-1591 "/>
<text text-anchor="middle" x="1031.5" y="-1579" font-family="Courier New" font-size="10.00"> </text>
</a>
</g>
</g>
<!-- Node20&#45;&gt;Node19 -->
<g id="edge23" class="edge">
<title>Node20&#45;&gt;Node19</title>
<path fill="none" stroke="midnightblue" d="M1031.5,-1561.78C1031.5,-1541.38 1031.5,-1516.41 1031.5,-1496.75"/>
<polygon fill="none" stroke="midnightblue" points="1028,-1561.98 1031.5,-1571.98 1035,-1561.98 1028,-1561.98"/>
</g>
</g>
</svg>
