<?xml version="1.0" encoding="UTF-8" standalone="no"?>
<!DOCTYPE svg PUBLIC "-//W3C//DTD SVG 1.1//EN"
 "http://www.w3.org/Graphics/SVG/1.1/DTD/svg11.dtd">
<!-- Generated by graphviz version 2.38.0 (20140413.2041)
 -->
<!-- Title: C2M2.Interaction.Signaling.OculusEventSignaler Pages: 1 -->
<svg width="420pt" height="1299pt"
 viewBox="0.00 0.00 419.50 1299.00" xmlns="http://www.w3.org/2000/svg" xmlns:xlink="http://www.w3.org/1999/xlink">
<g id="graph0" class="graph" transform="scale(1 1) rotate(0) translate(4 1295)">
<title>C2M2.Interaction.Signaling.OculusEventSignaler</title>
<polygon fill="white" stroke="none" points="-4,4 -4,-1295 415.5,-1295 415.5,4 -4,4"/>
<!-- Node1 -->
<g id="node1" class="node"><title>Node1</title>
<g id="a_node1"><a xlink:title="Activate raycast triggers using oculus controller buttons and fingertip distance">
<polygon fill="#bfbfbf" stroke="black" points="119,-0.5 119,-266.5 304,-266.5 304,-0.5 119,-0.5"/>
<text text-anchor="start" x="127" y="-254.5" font-family="Courier New" font-size="10.00">C2M2.Interaction.Signaling.</text>
<text text-anchor="middle" x="211.5" y="-243.5" font-family="Courier New" font-size="10.00">OculusEventSignaler</text>
<polyline fill="none" stroke="black" points="119,-236.5 304,-236.5 "/>
<text text-anchor="start" x="127" y="-224.5" font-family="Courier New" font-size="10.00">+ controller</text>
<text text-anchor="start" x="127" y="-213.5" font-family="Courier New" font-size="10.00">+ beginRaycastingButton</text>
<text text-anchor="start" x="127" y="-202.5" font-family="Courier New" font-size="10.00">+ triggerEventsButton</text>
<text text-anchor="start" x="127" y="-191.5" font-family="Courier New" font-size="10.00">+ lineRend</text>
<text text-anchor="start" x="127" y="-180.5" font-family="Courier New" font-size="10.00">+ unpressedColor</text>
<text text-anchor="start" x="127" y="-169.5" font-family="Courier New" font-size="10.00">+ pressedColor</text>
<text text-anchor="start" x="127" y="-158.5" font-family="Courier New" font-size="10.00">+ staticHand</text>
<text text-anchor="start" x="127" y="-147.5" font-family="Courier New" font-size="10.00">+ clickDistance</text>
<text text-anchor="start" x="127" y="-136.5" font-family="Courier New" font-size="10.00">&#45; distancePressed</text>
<polyline fill="none" stroke="black" points="119,-129.5 304,-129.5 "/>
<text text-anchor="start" x="127" y="-117.5" font-family="Courier New" font-size="10.00"># OnAwake()</text>
<text text-anchor="start" x="127" y="-106.5" font-family="Courier New" font-size="10.00"># OnStart()</text>
<text text-anchor="start" x="127" y="-95.5" font-family="Courier New" font-size="10.00"># BeginRaycastingCondition()</text>
<text text-anchor="start" x="127" y="-84.5" font-family="Courier New" font-size="10.00"># ChildsPressCondition()</text>
<text text-anchor="start" x="127" y="-73.5" font-family="Courier New" font-size="10.00"># OnPressSub()</text>
<text text-anchor="start" x="127" y="-62.5" font-family="Courier New" font-size="10.00"># OnHoldPressSub()</text>
<text text-anchor="start" x="127" y="-51.5" font-family="Courier New" font-size="10.00"># OnEndPressSub()</text>
<text text-anchor="start" x="127" y="-40.5" font-family="Courier New" font-size="10.00"># RaycastingMethod()</text>
<text text-anchor="start" x="127" y="-29.5" font-family="Courier New" font-size="10.00">&#45; StaticHandSetActive()</text>
<text text-anchor="start" x="127" y="-18.5" font-family="Courier New" font-size="10.00">&#45; LineRendererSetActive()</text>
<text text-anchor="start" x="127" y="-7.5" font-family="Courier New" font-size="10.00">&#45; CheckPressDistance()</text>
</a>
</g>
</g>
<!-- Node2 -->
<g id="node2" class="node"><title>Node2</title>
<g id="a_node2"><a xlink:href="../../d6/d2d/class_c2_m2_1_1_interaction_1_1_signaling_1_1_raycast_event_signaler.html" target="_top" xlink:title=" ">
<polygon fill="white" stroke="black" points="5,-314.5 5,-558.5 190,-558.5 190,-314.5 5,-314.5"/>
<text text-anchor="middle" x="97.5" y="-546.5" font-family="Courier New" font-size="10.00">RaycastEventSignaler</text>
<polyline fill="none" stroke="black" points="5,-539.5 190,-539.5 "/>
<text text-anchor="start" x="13" y="-527.5" font-family="Courier New" font-size="10.00">+ rightHand</text>
<text text-anchor="start" x="13" y="-516.5" font-family="Courier New" font-size="10.00">+ maxRaycastDistance</text>
<text text-anchor="start" x="13" y="-505.5" font-family="Courier New" font-size="10.00">&#45; layerMask</text>
<text text-anchor="start" x="13" y="-494.5" font-family="Courier New" font-size="10.00">&#45; lastHit</text>
<polyline fill="none" stroke="black" points="5,-487.5 190,-487.5 "/>
<text text-anchor="start" x="13" y="-475.5" font-family="Courier New" font-size="10.00"># OnAwake()</text>
<text text-anchor="start" x="13" y="-464.5" font-family="Courier New" font-size="10.00"># Awake()</text>
<text text-anchor="start" x="13" y="-453.5" font-family="Courier New" font-size="10.00"># OnStart()</text>
<text text-anchor="start" x="13" y="-442.5" font-family="Courier New" font-size="10.00"># OnPress()</text>
<text text-anchor="start" x="13" y="-431.5" font-family="Courier New" font-size="10.00"># OnHoldPress()</text>
<text text-anchor="start" x="13" y="-420.5" font-family="Courier New" font-size="10.00"># OnEndPress()</text>
<text text-anchor="start" x="13" y="-409.5" font-family="Courier New" font-size="10.00"># OnPressSub()</text>
<text text-anchor="start" x="13" y="-398.5" font-family="Courier New" font-size="10.00"># OnHoldPressSub()</text>
<text text-anchor="start" x="13" y="-387.5" font-family="Courier New" font-size="10.00"># OnEndPressSub()</text>
<text text-anchor="start" x="13" y="-376.5" font-family="Courier New" font-size="10.00"># RaycastingMethod()</text>
<text text-anchor="start" x="13" y="-365.5" font-family="Courier New" font-size="10.00"># BeginRaycastingCondition()</text>
<text text-anchor="start" x="13" y="-354.5" font-family="Courier New" font-size="10.00"># ChildsPressCondition()</text>
<text text-anchor="start" x="13" y="-343.5" font-family="Courier New" font-size="10.00">&#45; Start()</text>
<text text-anchor="start" x="13" y="-332.5" font-family="Courier New" font-size="10.00">&#45; FixedUpdate()</text>
<text text-anchor="start" x="13" y="-321.5" font-family="Courier New" font-size="10.00">&#45; FindRaycastTrigger()</text>
</a>
</g>
</g>
<!-- Node2&#45;&gt;Node1 -->
<g id="edge1" class="edge"><title>Node2&#45;&gt;Node1</title>
<path fill="none" stroke="midnightblue" d="M147.013,-304.768C151.792,-292.151 156.642,-279.346 161.425,-266.715"/>
<polygon fill="none" stroke="midnightblue" points="143.644,-303.781 143.375,-314.373 150.19,-306.261 143.644,-303.781"/>
</g>
<!-- Node3 -->
<g id="node3" class="node"><title>Node3</title>
<g id="a_node3"><a xlink:href="../../d6/d4b/class_c2_m2_1_1_interaction_1_1_signaling_1_1_press_event_signaler.html" target="_top" xlink:title="Send press, holdPress, and endPress events based on set values of Pressed and RaycastTriggerManager">
<polygon fill="white" stroke="black" points="0,-847.5 0,-937.5 125,-937.5 125,-847.5 0,-847.5"/>
<text text-anchor="middle" x="62.5" y="-925.5" font-family="Courier New" font-size="10.00">PressEventSignaler</text>
<polyline fill="none" stroke="black" points="0,-918.5 125,-918.5 "/>
<text text-anchor="start" x="8" y="-906.5" font-family="Courier New" font-size="10.00">+ Pressed</text>
<text text-anchor="start" x="8" y="-895.5" font-family="Courier New" font-size="10.00">&#45; pressedPrevFrame</text>
<polyline fill="none" stroke="black" points="0,-888.5 125,-888.5 "/>
<text text-anchor="start" x="8" y="-876.5" font-family="Courier New" font-size="10.00"># OnPress()</text>
<text text-anchor="start" x="8" y="-865.5" font-family="Courier New" font-size="10.00"># OnHoldPress()</text>
<text text-anchor="start" x="8" y="-854.5" font-family="Courier New" font-size="10.00"># OnEndPress()</text>
</a>
</g>
</g>
<!-- Node3&#45;&gt;Node2 -->
<g id="edge2" class="edge"><title>Node3&#45;&gt;Node2</title>
<path fill="none" stroke="midnightblue" d="M66.6994,-837.027C71.9694,-768.669 81.1617,-649.431 88.1362,-558.962"/>
<polygon fill="none" stroke="midnightblue" points="63.1988,-836.902 65.9197,-847.142 70.1781,-837.441 63.1988,-836.902"/>
</g>
<!-- Node4 -->
<g id="node4" class="node"><title>Node4</title>
<g id="a_node4"><a xlink:title=" ">
<polygon fill="white" stroke="#bfbfbf" points="73,-1133 73,-1190 168,-1190 168,-1133 73,-1133"/>
<text text-anchor="middle" x="120.5" y="-1178" font-family="Courier New" font-size="10.00">MonoBehaviour</text>
<polyline fill="none" stroke="#bfbfbf" points="73,-1171 168,-1171 "/>
<text text-anchor="middle" x="120.5" y="-1159" font-family="Courier New" font-size="10.00"> </text>
<polyline fill="none" stroke="#bfbfbf" points="73,-1152 168,-1152 "/>
<text text-anchor="middle" x="120.5" y="-1140" font-family="Courier New" font-size="10.00"> </text>
</a>
</g>
</g>
<!-- Node4&#45;&gt;Node3 -->
<g id="edge3" class="edge"><title>Node4&#45;&gt;Node3</title>
<path fill="none" stroke="midnightblue" d="M112.38,-1123.12C101.806,-1074.44 83.3477,-989.471 72.0943,-937.667"/>
<polygon fill="none" stroke="midnightblue" points="108.968,-1123.9 114.511,-1132.93 115.809,-1122.42 108.968,-1123.9"/>
</g>
<!-- Node5 -->
<g id="node5" class="node"><title>Node5</title>
<g id="a_node5"><a xlink:href="../../d7/dcb/class_c2_m2_1_1_raycast_event_manager.html" target="_top" xlink:title="Attach this script to parent gameObject, create one child with one raycast trigger per child....">
<polygon fill="white" stroke="black" points="147,-606.5 147,-828.5 308,-828.5 308,-606.5 147,-606.5"/>
<text text-anchor="middle" x="227.5" y="-816.5" font-family="Courier New" font-size="10.00">C2M2.RaycastEventManager</text>
<polyline fill="none" stroke="black" points="147,-809.5 308,-809.5 "/>
<text text-anchor="middle" x="227.5" y="-797.5" font-family="Courier New" font-size="10.00"> </text>
<polyline fill="none" stroke="black" points="147,-790.5 308,-790.5 "/>
<text text-anchor="start" x="155" y="-778.5" font-family="Courier New" font-size="10.00">+ TriggerChangeRight()</text>
<text text-anchor="start" x="155" y="-767.5" font-family="Courier New" font-size="10.00">+ TriggerChangeLeft()</text>
<text text-anchor="start" x="155" y="-756.5" font-family="Courier New" font-size="10.00">+ TriggerChangeBoth()</text>
<text text-anchor="start" x="155" y="-745.5" font-family="Courier New" font-size="10.00">+ TriggerEmptyRight()</text>
<text text-anchor="start" x="155" y="-734.5" font-family="Courier New" font-size="10.00">+ TriggerEmptyLeft()</text>
<text text-anchor="start" x="155" y="-723.5" font-family="Courier New" font-size="10.00">+ TriggerEmptyBoth()</text>
<text text-anchor="start" x="155" y="-712.5" font-family="Courier New" font-size="10.00">+ PressEvent()</text>
<text text-anchor="start" x="155" y="-701.5" font-family="Courier New" font-size="10.00">+ HoldEvent()</text>
<text text-anchor="start" x="155" y="-690.5" font-family="Courier New" font-size="10.00">+ EndEvent()</text>
<text text-anchor="start" x="155" y="-679.5" font-family="Courier New" font-size="10.00">+ AllEvents()</text>
<text text-anchor="start" x="155" y="-668.5" font-family="Courier New" font-size="10.00">+ PressEventNull()</text>
<text text-anchor="start" x="155" y="-657.5" font-family="Courier New" font-size="10.00">+ HoldEventNull()</text>
<text text-anchor="start" x="155" y="-646.5" font-family="Courier New" font-size="10.00">+ EndEventNull()</text>
<text text-anchor="start" x="155" y="-635.5" font-family="Courier New" font-size="10.00">+ AllEventsNull()</text>
<text text-anchor="start" x="155" y="-624.5" font-family="Courier New" font-size="10.00">+ ToString()</text>
<text text-anchor="start" x="155" y="-613.5" font-family="Courier New" font-size="10.00">&#45; Awake()</text>
</a>
</g>
</g>
<!-- Node4&#45;&gt;Node5 -->
<g id="edge5" class="edge"><title>Node4&#45;&gt;Node5</title>
<path fill="none" stroke="midnightblue" d="M126.603,-1123.01C133.548,-1081.83 145.73,-1013.86 159.5,-956 169.48,-914.067 182.104,-868.455 193.758,-828.516"/>
<polygon fill="none" stroke="midnightblue" points="123.15,-1122.44 124.952,-1132.88 130.054,-1123.59 123.15,-1122.44"/>
</g>
<!-- Node6 -->
<g id="node6" class="node"><title>Node6</title>
<g id="a_node6"><a xlink:href="../../dd/dab/class_c2_m2_1_1_raycast_press_events.html" target="_top" xlink:title="Store custom events that the corresponding RaycastTriggerManager will invoke">
<polygon fill="white" stroke="black" points="169,-956.5 169,-1057.5 324,-1057.5 324,-956.5 169,-956.5"/>
<text text-anchor="middle" x="246.5" y="-1045.5" font-family="Courier New" font-size="10.00">C2M2.RaycastPressEvents</text>
<polyline fill="none" stroke="black" points="169,-1038.5 324,-1038.5 "/>
<text text-anchor="start" x="177" y="-1026.5" font-family="Courier New" font-size="10.00">+ OnPress</text>
<text text-anchor="start" x="177" y="-1015.5" font-family="Courier New" font-size="10.00">+ OnHoldPress</text>
<text text-anchor="start" x="177" y="-1004.5" font-family="Courier New" font-size="10.00">+ OnEndPress</text>
<polyline fill="none" stroke="black" points="169,-997.5 324,-997.5 "/>
<text text-anchor="start" x="177" y="-985.5" font-family="Courier New" font-size="10.00">+ Press()</text>
<text text-anchor="start" x="177" y="-974.5" font-family="Courier New" font-size="10.00">+ HoldPress()</text>
<text text-anchor="start" x="177" y="-963.5" font-family="Courier New" font-size="10.00">+ EndPress()</text>
</a>
</g>
</g>
<!-- Node4&#45;&gt;Node6 -->
<g id="edge7" class="edge"><title>Node4&#45;&gt;Node6</title>
<path fill="none" stroke="midnightblue" d="M149.89,-1124.93C166.441,-1104.9 187.366,-1079.57 205.507,-1057.61"/>
<polygon fill="none" stroke="midnightblue" points="146.989,-1122.94 143.318,-1132.88 152.385,-1127.4 146.989,-1122.94"/>
</g>
<!-- Node5&#45;&gt;Node2 -->
<g id="edge4" class="edge"><title>Node5&#45;&gt;Node2</title>
<path fill="none" stroke="#404040" d="M176.121,-606.232C170.578,-594.337 164.897,-582.145 159.249,-570.024"/>
<polygon fill="none" stroke="#404040" points="159.145,-569.8 152.985,-566.05 154.077,-558.922 160.237,-562.672 159.145,-569.8"/>
<text text-anchor="middle" x="206" y="-580" font-family="Courier New" font-size="10.00"> &#45;activeEvent</text>
</g>
<!-- Node6&#45;&gt;Node5 -->
<g id="edge6" class="edge"><title>Node6&#45;&gt;Node5</title>
<path fill="none" stroke="#404040" d="M243.212,-956.25C241.104,-924.357 238.27,-881.471 235.589,-840.905"/>
<polygon fill="none" stroke="#404040" points="235.574,-840.663 231.187,-834.94 234.782,-828.69 239.169,-834.413 235.574,-840.663"/>
<text text-anchor="middle" x="282" y="-901" font-family="Courier New" font-size="10.00"> +leftTrigger</text>
<text text-anchor="middle" x="282" y="-890" font-family="Courier New" font-size="10.00">+rightTrigger</text>
<text text-anchor="middle" x="282" y="-879" font-family="Courier New" font-size="10.00">&#45;emptyTrigger</text>
</g>
<!-- Node7 -->
<g id="node7" class="node"><title>Node7</title>
<g id="a_node7"><a xlink:href="../../db/d79/class_c2_m2_1_1_raycast_press_events_1_1_raycast_hit_event.html" target="_top" xlink:title=" ">
<polygon fill="white" stroke="black" points="186,-1127.5 186,-1195.5 347,-1195.5 347,-1127.5 186,-1127.5"/>
<text text-anchor="start" x="194" y="-1183.5" font-family="Courier New" font-size="10.00">C2M2.RaycastPressEvents.</text>
<text text-anchor="middle" x="266.5" y="-1172.5" font-family="Courier New" font-size="10.00">RaycastHitEvent</text>
<polyline fill="none" stroke="black" points="186,-1165.5 347,-1165.5 "/>
<text text-anchor="middle" x="266.5" y="-1153.5" font-family="Courier New" font-size="10.00"> </text>
<polyline fill="none" stroke="black" points="186,-1146.5 347,-1146.5 "/>
<text text-anchor="middle" x="266.5" y="-1134.5" font-family="Courier New" font-size="10.00"> </text>
</a>
</g>
</g>
<!-- Node7&#45;&gt;Node6 -->
<g id="edge8" class="edge"><title>Node7&#45;&gt;Node6</title>
<path fill="none" stroke="#404040" d="M262.16,-1127.41C259.944,-1110.51 257.173,-1089.39 254.582,-1069.62"/>
<polygon fill="none" stroke="#404040" points="254.558,-1069.45 249.812,-1064.02 252.998,-1057.55 257.744,-1062.98 254.558,-1069.45"/>
<text text-anchor="middle" x="296" y="-1101" font-family="Courier New" font-size="10.00"> &#45;onPress</text>
<text text-anchor="middle" x="296" y="-1090" font-family="Courier New" font-size="10.00">&#45;onHoldPress</text>
<text text-anchor="middle" x="296" y="-1079" font-family="Courier New" font-size="10.00">&#45;onEndPress</text>
</g>
<!-- Node8 -->
<g id="node8" class="node"><title>Node8</title>
<g id="a_node8"><a xlink:title=" ">
<polygon fill="white" stroke="#bfbfbf" points="186,-1233.5 186,-1290.5 347,-1290.5 347,-1233.5 186,-1233.5"/>
<text text-anchor="middle" x="266.5" y="-1278.5" font-family="Courier New" font-size="10.00">UnityEvent&lt; RaycastHit &gt;</text>
<polyline fill="none" stroke="#bfbfbf" points="186,-1271.5 347,-1271.5 "/>
<text text-anchor="middle" x="266.5" y="-1259.5" font-family="Courier New" font-size="10.00"> </text>
<polyline fill="none" stroke="#bfbfbf" points="186,-1252.5 347,-1252.5 "/>
<text text-anchor="middle" x="266.5" y="-1240.5" font-family="Courier New" font-size="10.00"> </text>
</a>
</g>
</g>
<!-- Node8&#45;&gt;Node7 -->
<g id="edge9" class="edge"><title>Node8&#45;&gt;Node7</title>
<path fill="none" stroke="midnightblue" d="M266.5,-1223.01C266.5,-1213.96 266.5,-1204.38 266.5,-1195.58"/>
<polygon fill="none" stroke="midnightblue" points="263,-1223.3 266.5,-1233.3 270,-1223.3 263,-1223.3"/>
</g>
<!-- Node9 -->
<g id="node9" class="node"><title>Node9</title>
<g id="a_node9"><a xlink:title=" ">
<polygon fill="white" stroke="#bfbfbf" points="342,-978.5 342,-1035.5 395,-1035.5 395,-978.5 342,-978.5"/>
<text text-anchor="middle" x="368.5" y="-1023.5" font-family="Courier New" font-size="10.00">static</text>
<polyline fill="none" stroke="#bfbfbf" points="342,-1016.5 395,-1016.5 "/>
<text text-anchor="middle" x="368.5" y="-1004.5" font-family="Courier New" font-size="10.00"> </text>
<polyline fill="none" stroke="#bfbfbf" points="342,-997.5 395,-997.5 "/>
<text text-anchor="middle" x="368.5" y="-985.5" font-family="Courier New" font-size="10.00"> </text>
</a>
</g>
</g>
<!-- Node9&#45;&gt;Node5 -->
<g id="edge10" class="edge"><title>Node9&#45;&gt;Node5</title>
<path fill="none" stroke="#404040" d="M364.378,-978.411C358.758,-945.758 346.861,-890.35 325.5,-847 322.163,-840.229 318.445,-833.461 314.463,-826.771"/>
<polygon fill="none" stroke="#404040" points="314.319,-826.538 307.761,-823.541 308.005,-816.334 314.564,-819.331 314.319,-826.538"/>
<text text-anchor="middle" x="384" y="-890" font-family="Courier New" font-size="10.00"> &#45;nullHit</text>
</g>
<!-- Node10 -->
<g id="node10" class="node"><title>Node10</title>
<g id="a_node10"><a xlink:title=" ">
<polygon fill="white" stroke="#bfbfbf" points="208,-408 208,-465 291,-465 291,-408 208,-408"/>
<text text-anchor="middle" x="249.5" y="-453" font-family="Courier New" font-size="10.00">UnityEngine</text>
<polyline fill="none" stroke="#bfbfbf" points="208,-446 291,-446 "/>
<text text-anchor="middle" x="249.5" y="-434" font-family="Courier New" font-size="10.00"> </text>
<polyline fill="none" stroke="#bfbfbf" points="208,-427 291,-427 "/>
<text text-anchor="middle" x="249.5" y="-415" font-family="Courier New" font-size="10.00"> </text>
</a>
</g>
</g>
<!-- Node10&#45;&gt;Node1 -->
<g id="edge11" class="edge"><title>Node10&#45;&gt;Node1</title>
<path fill="none" stroke="#404040" d="M246.027,-407.99C242.252,-378.092 235.925,-327.976 229.711,-278.752"/>
<polygon fill="none" stroke="#404040" points="229.681,-278.511 224.961,-273.06 228.178,-266.606 232.898,-272.058 229.681,-278.511"/>
<text text-anchor="middle" x="272" y="-288" font-family="Courier New" font-size="10.00"> +defaultHand</text>
</g>
</g>
</svg>
