<?xml version="1.0" encoding="UTF-8" standalone="no"?>
<!DOCTYPE svg PUBLIC "-//W3C//DTD SVG 1.1//EN"
 "http://www.w3.org/Graphics/SVG/1.1/DTD/svg11.dtd">
<!-- Generated by graphviz version 2.46.0 (20210118.1747)
 -->
<!-- Title: C2M2.Simulation.MeshSimulation Pages: 1 -->
<svg width="408pt" height="651pt"
 viewBox="0.00 0.00 408.00 651.00" xmlns="http://www.w3.org/2000/svg" xmlns:xlink="http://www.w3.org/1999/xlink">
<g id="graph0" class="graph" transform="scale(1 1) rotate(0) translate(4 647)">
<title>C2M2.Simulation.MeshSimulation</title>
<polygon fill="white" stroke="transparent" points="-4,4 -4,-647 404,-647 404,4 -4,4"/>
<!-- Node1 -->
<g id="node1" class="node">
<title>Node1</title>
<g id="a_node1"><a xlink:title="Simulation of type double[] for visualizing scalar fields on mesh surfaces">
<polygon fill="#bfbfbf" stroke="black" points="54,-0.5 54,-200.5 251,-200.5 251,-0.5 54,-0.5"/>
<text text-anchor="middle" x="152.5" y="-188.5" font-family="Courier New" font-size="10.00">C2M2.Simulation.MeshSimulation</text>
<polyline fill="none" stroke="black" points="54,-181.5 251,-181.5 "/>
<text text-anchor="start" x="62" y="-169.5" font-family="Courier New" font-size="10.00">+ gradient</text>
<text text-anchor="start" x="62" y="-158.5" font-family="Courier New" font-size="10.00">+ globalMax</text>
<text text-anchor="start" x="62" y="-147.5" font-family="Courier New" font-size="10.00">+ globalMin</text>
<text text-anchor="start" x="62" y="-136.5" font-family="Courier New" font-size="10.00">+ rulerInitPos</text>
<text text-anchor="start" x="62" y="-125.5" font-family="Courier New" font-size="10.00">+ rulerInitRot</text>
<text text-anchor="start" x="62" y="-114.5" font-family="Courier New" font-size="10.00">+ colorLUT</text>
<text text-anchor="start" x="62" y="-103.5" font-family="Courier New" font-size="10.00">+ VisualMesh</text>
<text text-anchor="start" x="62" y="-92.5" font-family="Courier New" font-size="10.00">+ ColliderMesh</text>
<text text-anchor="start" x="62" y="-81.5" font-family="Courier New" font-size="10.00">&#45; visualMesh</text>
<text text-anchor="start" x="62" y="-70.5" font-family="Courier New" font-size="10.00">&#45; colliderMesh</text>
<text text-anchor="start" x="62" y="-59.5" font-family="Courier New" font-size="10.00">&#45; mf</text>
<text text-anchor="start" x="62" y="-48.5" font-family="Courier New" font-size="10.00">&#45; mr</text>
<polyline fill="none" stroke="black" points="54,-41.5 251,-41.5 "/>
<text text-anchor="start" x="62" y="-29.5" font-family="Courier New" font-size="10.00"># UpdateVisualization()</text>
<text text-anchor="start" x="62" y="-18.5" font-family="Courier New" font-size="10.00"># OnAwakePost()</text>
<text text-anchor="start" x="62" y="-7.5" font-family="Courier New" font-size="10.00">&#45; UpdateVisualization()</text>
</a>
</g>
</g>
<!-- Node2 -->
<g id="node2" class="node">
<title>Node2</title>
<g id="a_node2"><a xlink:href="../../db/d39/class_c2_m2_1_1_simulation_1_1_simulation.html" target="_top" xlink:title=" ">
<polygon fill="white" stroke="black" points="0,-248.5 0,-547.5 185,-547.5 185,-248.5 0,-248.5"/>
<text text-anchor="start" x="8" y="-535.5" font-family="Courier New" font-size="10.00">Simulation&lt; double</text>
<text text-anchor="start" x="8" y="-524.5" font-family="Courier New" font-size="10.00">[], Mesh, VRRaycastableMesh,</text>
<text text-anchor="middle" x="92.5" y="-513.5" font-family="Courier New" font-size="10.00"> VRGrabbableMesh &gt;</text>
<polyline fill="none" stroke="black" points="0,-506.5 185,-506.5 "/>
<text text-anchor="start" x="8" y="-494.5" font-family="Courier New" font-size="10.00">+ dryRun</text>
<text text-anchor="start" x="8" y="-483.5" font-family="Courier New" font-size="10.00">+ startOnAwake</text>
<text text-anchor="start" x="8" y="-472.5" font-family="Courier New" font-size="10.00">+ viz</text>
<text text-anchor="start" x="8" y="-461.5" font-family="Courier New" font-size="10.00"># mutex</text>
<text text-anchor="start" x="8" y="-450.5" font-family="Courier New" font-size="10.00">&#45; solveThread</text>
<polyline fill="none" stroke="black" points="0,-443.5 185,-443.5 "/>
<text text-anchor="start" x="8" y="-431.5" font-family="Courier New" font-size="10.00">+ GetValues()</text>
<text text-anchor="start" x="8" y="-420.5" font-family="Courier New" font-size="10.00">+ Initialize()</text>
<text text-anchor="start" x="8" y="-409.5" font-family="Courier New" font-size="10.00">+ Update()</text>
<text text-anchor="start" x="8" y="-398.5" font-family="Courier New" font-size="10.00">+ StartSimulation()</text>
<text text-anchor="start" x="8" y="-387.5" font-family="Courier New" font-size="10.00">+ StopSimulation()</text>
<text text-anchor="start" x="8" y="-376.5" font-family="Courier New" font-size="10.00"># BuildVisualization()</text>
<text text-anchor="start" x="8" y="-365.5" font-family="Courier New" font-size="10.00"># UpdateVisualization()</text>
<text text-anchor="start" x="8" y="-354.5" font-family="Courier New" font-size="10.00"># Solve()</text>
<text text-anchor="start" x="8" y="-343.5" font-family="Courier New" font-size="10.00"># PreSolve()</text>
<text text-anchor="start" x="8" y="-332.5" font-family="Courier New" font-size="10.00"># OnAwakePre()</text>
<text text-anchor="start" x="8" y="-321.5" font-family="Courier New" font-size="10.00"># OnAwakePost()</text>
<text text-anchor="start" x="8" y="-310.5" font-family="Courier New" font-size="10.00"># OnStart()</text>
<text text-anchor="start" x="8" y="-299.5" font-family="Courier New" font-size="10.00"># OnUpdate()</text>
<text text-anchor="start" x="8" y="-288.5" font-family="Courier New" font-size="10.00"># OnPause()</text>
<text text-anchor="start" x="8" y="-277.5" font-family="Courier New" font-size="10.00"># OnQuit()</text>
<text text-anchor="start" x="8" y="-266.5" font-family="Courier New" font-size="10.00">&#45; OnApplicationPause()</text>
<text text-anchor="start" x="8" y="-255.5" font-family="Courier New" font-size="10.00">&#45; OnApplicationQuit()</text>
</a>
</g>
</g>
<!-- Node2&#45;&gt;Node1 -->
<g id="edge1" class="edge">
<title>Node2&#45;&gt;Node1</title>
<path fill="none" stroke="midnightblue" d="M124.67,-238.58C127.26,-225.79 129.84,-213.1 132.32,-200.9"/>
<polygon fill="none" stroke="midnightblue" points="121.24,-237.89 122.68,-248.38 128.1,-239.28 121.24,-237.89"/>
</g>
<!-- Node3 -->
<g id="node3" class="node">
<title>Node3</title>
<g id="a_node3"><a xlink:href="../../da/d4f/class_c2_m2_1_1_visualization_1_1_l_u_t_gradient.html" target="_top" xlink:title="Create a fast and memory&#45;friendly color lookup table from a gradient">
<polygon fill="white" stroke="black" points="203,-281.5 203,-514.5 400,-514.5 400,-281.5 203,-281.5"/>
<text text-anchor="middle" x="301.5" y="-502.5" font-family="Courier New" font-size="10.00">C2M2.Visualization.LUTGradient</text>
<polyline fill="none" stroke="black" points="203,-495.5 400,-495.5 "/>
<text text-anchor="start" x="211" y="-483.5" font-family="Courier New" font-size="10.00">+ extremaMethod</text>
<text text-anchor="start" x="211" y="-472.5" font-family="Courier New" font-size="10.00">+ globalMax</text>
<text text-anchor="start" x="211" y="-461.5" font-family="Courier New" font-size="10.00">+ globalMin</text>
<text text-anchor="start" x="211" y="-450.5" font-family="Courier New" font-size="10.00">+ curMax</text>
<text text-anchor="start" x="211" y="-439.5" font-family="Courier New" font-size="10.00">+ curMix</text>
<text text-anchor="start" x="211" y="-428.5" font-family="Courier New" font-size="10.00">+ LutRes</text>
<text text-anchor="start" x="211" y="-417.5" font-family="Courier New" font-size="10.00">+ Gradient</text>
<text text-anchor="start" x="211" y="-406.5" font-family="Courier New" font-size="10.00">+ gradientLUT</text>
<text text-anchor="start" x="211" y="-395.5" font-family="Courier New" font-size="10.00">+ oldMin</text>
<text text-anchor="start" x="211" y="-384.5" font-family="Courier New" font-size="10.00">+ oldMax</text>
<text text-anchor="start" x="211" y="-373.5" font-family="Courier New" font-size="10.00">&#45; lutRes</text>
<text text-anchor="start" x="211" y="-362.5" font-family="Courier New" font-size="10.00">&#45; gradient</text>
<polyline fill="none" stroke="black" points="203,-355.5 400,-355.5 "/>
<text text-anchor="start" x="211" y="-343.5" font-family="Courier New" font-size="10.00">+ Evaluate()</text>
<text text-anchor="start" x="211" y="-332.5" font-family="Courier New" font-size="10.00">+ Evaluate()</text>
<text text-anchor="start" x="211" y="-321.5" font-family="Courier New" font-size="10.00">+ EvaluateUnscaled()</text>
<text text-anchor="start" x="211" y="-310.5" font-family="Courier New" font-size="10.00">+ GetMinMax()</text>
<text text-anchor="start" x="211" y="-299.5" font-family="Courier New" font-size="10.00">&#45; BuildLUT()</text>
<text text-anchor="start" x="211" y="-288.5" font-family="Courier New" font-size="10.00">&#45; RescaleArray()</text>
</a>
</g>
</g>
<!-- Node3&#45;&gt;Node1 -->
<g id="edge2" class="edge">
<title>Node3&#45;&gt;Node1</title>
<path fill="none" stroke="#404040" d="M243.25,-281.48C231.63,-258.42 219.44,-234.27 207.92,-211.4"/>
<polygon fill="none" stroke="#404040" points="207.9,-211.36 201.62,-207.81 202.49,-200.65 208.77,-204.21 207.9,-211.36"/>
<text text-anchor="middle" x="259" y="-222" font-family="Courier New" font-size="10.00"> +extremaMethod</text>
</g>
<!-- Node4 -->
<g id="node4" class="node">
<title>Node4</title>
<g id="a_node4"><a xlink:title=" ">
<polygon fill="white" stroke="#bfbfbf" points="254,-585.5 254,-642.5 349,-642.5 349,-585.5 254,-585.5"/>
<text text-anchor="middle" x="301.5" y="-630.5" font-family="Courier New" font-size="10.00">MonoBehaviour</text>
<polyline fill="none" stroke="#bfbfbf" points="254,-623.5 349,-623.5 "/>
<text text-anchor="middle" x="301.5" y="-611.5" font-family="Courier New" font-size="10.00"> </text>
<polyline fill="none" stroke="#bfbfbf" points="254,-604.5 349,-604.5 "/>
<text text-anchor="middle" x="301.5" y="-592.5" font-family="Courier New" font-size="10.00"> </text>
</a>
</g>
</g>
<!-- Node4&#45;&gt;Node3 -->
<g id="edge3" class="edge">
<title>Node4&#45;&gt;Node3</title>
<path fill="none" stroke="midnightblue" d="M301.5,-575.3C301.5,-558.06 301.5,-536.61 301.5,-514.67"/>
<polygon fill="none" stroke="midnightblue" points="298,-575.46 301.5,-585.46 305,-575.46 298,-575.46"/>
</g>
</g>
</svg>
