<?xml version="1.0" encoding="UTF-8" standalone="no"?>
<!DOCTYPE svg PUBLIC "-//W3C//DTD SVG 1.1//EN"
 "http://www.w3.org/Graphics/SVG/1.1/DTD/svg11.dtd">
<!-- Generated by graphviz version 2.38.0 (20140413.2041)
 -->
<!-- Title: C2M2.Simulation.MeshSimulation Pages: 1 -->
<svg width="408pt" height="574pt"
 viewBox="0.00 0.00 408.00 574.00" xmlns="http://www.w3.org/2000/svg" xmlns:xlink="http://www.w3.org/1999/xlink">
<g id="graph0" class="graph" transform="scale(1 1) rotate(0) translate(4 570)">
<title>C2M2.Simulation.MeshSimulation</title>
<polygon fill="white" stroke="none" points="-4,4 -4,-570 404,-570 404,4 -4,4"/>
<!-- Node1 -->
<g id="node1" class="node"><title>Node1</title>
<g id="a_node1"><a xlink:title="Simulation of type double[] for visualizing scalar fields on mesh surfaces">
<polygon fill="#bfbfbf" stroke="black" points="54,-0.5 54,-145.5 251,-145.5 251,-0.5 54,-0.5"/>
<text text-anchor="middle" x="152.5" y="-133.5" font-family="Courier New" font-size="10.00">C2M2.Simulation.MeshSimulation</text>
<polyline fill="none" stroke="black" points="54,-126.5 251,-126.5 "/>
<text text-anchor="start" x="62" y="-114.5" font-family="Courier New" font-size="10.00">+ gradient</text>
<text text-anchor="start" x="62" y="-103.5" font-family="Courier New" font-size="10.00">+ globalMax</text>
<text text-anchor="start" x="62" y="-92.5" font-family="Courier New" font-size="10.00">+ globalMin</text>
<text text-anchor="start" x="62" y="-81.5" font-family="Courier New" font-size="10.00">+ colorLUT</text>
<text text-anchor="start" x="62" y="-70.5" font-family="Courier New" font-size="10.00"># colliderMesh</text>
<text text-anchor="start" x="62" y="-59.5" font-family="Courier New" font-size="10.00">&#45; mf</text>
<text text-anchor="start" x="62" y="-48.5" font-family="Courier New" font-size="10.00">&#45; mr</text>
<polyline fill="none" stroke="black" points="54,-41.5 251,-41.5 "/>
<text text-anchor="start" x="62" y="-29.5" font-family="Courier New" font-size="10.00"># UpdateVisualization()</text>
<text text-anchor="start" x="62" y="-18.5" font-family="Courier New" font-size="10.00"># OnAwake()</text>
<text text-anchor="start" x="62" y="-7.5" font-family="Courier New" font-size="10.00">&#45; UpdateVisualization()</text>
</a>
</g>
</g>
<!-- Node2 -->
<g id="node2" class="node"><title>Node2</title>
<g id="a_node2"><a xlink:href="../../db/d39/class_c2_m2_1_1_simulation_1_1_simulation.html" target="_top" xlink:title=" ">
<polygon fill="white" stroke="black" points="0,-193.5 0,-470.5 185,-470.5 185,-193.5 0,-193.5"/>
<text text-anchor="start" x="8" y="-458.5" font-family="Courier New" font-size="10.00">Simulation&lt; double</text>
<text text-anchor="start" x="8" y="-447.5" font-family="Courier New" font-size="10.00">[], Mesh, VRRaycastableMesh,</text>
<text text-anchor="middle" x="92.5" y="-436.5" font-family="Courier New" font-size="10.00"> VRGrabbableMesh &gt;</text>
<polyline fill="none" stroke="black" points="0,-429.5 185,-429.5 "/>
<text text-anchor="start" x="8" y="-417.5" font-family="Courier New" font-size="10.00">+ dryRun</text>
<text text-anchor="start" x="8" y="-406.5" font-family="Courier New" font-size="10.00">+ startOnAwake</text>
<text text-anchor="start" x="8" y="-395.5" font-family="Courier New" font-size="10.00">+ viz</text>
<text text-anchor="start" x="8" y="-384.5" font-family="Courier New" font-size="10.00"># mutex</text>
<text text-anchor="start" x="8" y="-373.5" font-family="Courier New" font-size="10.00">&#45; solveThread</text>
<polyline fill="none" stroke="black" points="0,-366.5 185,-366.5 "/>
<text text-anchor="start" x="8" y="-354.5" font-family="Courier New" font-size="10.00">+ GetValues()</text>
<text text-anchor="start" x="8" y="-343.5" font-family="Courier New" font-size="10.00">+ StartSimulation()</text>
<text text-anchor="start" x="8" y="-332.5" font-family="Courier New" font-size="10.00">+ StopSimulation()</text>
<text text-anchor="start" x="8" y="-321.5" font-family="Courier New" font-size="10.00">+ Awake()</text>
<text text-anchor="start" x="8" y="-310.5" font-family="Courier New" font-size="10.00">+ Start()</text>
<text text-anchor="start" x="8" y="-299.5" font-family="Courier New" font-size="10.00">+ Update()</text>
<text text-anchor="start" x="8" y="-288.5" font-family="Courier New" font-size="10.00"># BuildVisualization()</text>
<text text-anchor="start" x="8" y="-277.5" font-family="Courier New" font-size="10.00"># ReadData()</text>
<text text-anchor="start" x="8" y="-266.5" font-family="Courier New" font-size="10.00"># UpdateVisualization()</text>
<text text-anchor="start" x="8" y="-255.5" font-family="Courier New" font-size="10.00"># Solve()</text>
<text text-anchor="start" x="8" y="-244.5" font-family="Courier New" font-size="10.00"># OnAwake()</text>
<text text-anchor="start" x="8" y="-233.5" font-family="Courier New" font-size="10.00"># OnStart()</text>
<text text-anchor="start" x="8" y="-222.5" font-family="Courier New" font-size="10.00"># OnUpdate()</text>
<text text-anchor="start" x="8" y="-211.5" font-family="Courier New" font-size="10.00">&#45; OnApplicationPause()</text>
<text text-anchor="start" x="8" y="-200.5" font-family="Courier New" font-size="10.00">&#45; OnApplicationQuit()</text>
</a>
</g>
</g>
<!-- Node2&#45;&gt;Node1 -->
<g id="edge1" class="edge"><title>Node2&#45;&gt;Node1</title>
<path fill="none" stroke="midnightblue" d="M126.943,-183.469C129.984,-170.445 132.962,-157.688 135.749,-145.749"/>
<polygon fill="none" stroke="midnightblue" points="123.473,-182.938 124.608,-193.471 130.29,-184.529 123.473,-182.938"/>
</g>
<!-- Node3 -->
<g id="node3" class="node"><title>Node3</title>
<g id="a_node3"><a xlink:href="../../da/d4f/class_c2_m2_1_1_visualization_1_1_l_u_t_gradient.html" target="_top" xlink:title="Create a fast and memory&#45;friendly color lookup table from a gradient">
<polygon fill="white" stroke="black" points="203,-248.5 203,-415.5 400,-415.5 400,-248.5 203,-248.5"/>
<text text-anchor="middle" x="301.5" y="-403.5" font-family="Courier New" font-size="10.00">C2M2.Visualization.LUTGradient</text>
<polyline fill="none" stroke="black" points="203,-396.5 400,-396.5 "/>
<text text-anchor="start" x="211" y="-384.5" font-family="Courier New" font-size="10.00">+ extremaMethod</text>
<text text-anchor="start" x="211" y="-373.5" font-family="Courier New" font-size="10.00">+ globalMax</text>
<text text-anchor="start" x="211" y="-362.5" font-family="Courier New" font-size="10.00">+ globalMin</text>
<text text-anchor="start" x="211" y="-351.5" font-family="Courier New" font-size="10.00">+ LutRes</text>
<text text-anchor="start" x="211" y="-340.5" font-family="Courier New" font-size="10.00">+ Gradient</text>
<text text-anchor="start" x="211" y="-329.5" font-family="Courier New" font-size="10.00">+ gradientLUT</text>
<text text-anchor="start" x="211" y="-318.5" font-family="Courier New" font-size="10.00">&#45; lutRes</text>
<text text-anchor="start" x="211" y="-307.5" font-family="Courier New" font-size="10.00">&#45; gradient</text>
<polyline fill="none" stroke="black" points="203,-300.5 400,-300.5 "/>
<text text-anchor="start" x="211" y="-288.5" font-family="Courier New" font-size="10.00">+ Evaluate()</text>
<text text-anchor="start" x="211" y="-277.5" font-family="Courier New" font-size="10.00">+ Evaluate()</text>
<text text-anchor="start" x="211" y="-266.5" font-family="Courier New" font-size="10.00">&#45; BuildLUT()</text>
<text text-anchor="start" x="211" y="-255.5" font-family="Courier New" font-size="10.00">&#45; RescaleArray()</text>
</a>
</g>
</g>
<!-- Node3&#45;&gt;Node1 -->
<g id="edge2" class="edge"><title>Node3&#45;&gt;Node1</title>
<path fill="none" stroke="#404040" d="M253.535,-248.269C236.487,-218.864 217.307,-185.782 200.275,-156.404"/>
<polygon fill="none" stroke="#404040" points="200.124,-156.144 193.654,-152.959 194.105,-145.762 200.575,-148.947 200.124,-156.144"/>
<text text-anchor="middle" x="254" y="-167" font-family="Courier New" font-size="10.00"> +extremaMethod</text>
</g>
<!-- Node4 -->
<g id="node4" class="node"><title>Node4</title>
<g id="a_node4"><a xlink:title=" ">
<polygon fill="white" stroke="#bfbfbf" points="254,-508.5 254,-565.5 349,-565.5 349,-508.5 254,-508.5"/>
<text text-anchor="middle" x="301.5" y="-553.5" font-family="Courier New" font-size="10.00">MonoBehaviour</text>
<polyline fill="none" stroke="#bfbfbf" points="254,-546.5 349,-546.5 "/>
<text text-anchor="middle" x="301.5" y="-534.5" font-family="Courier New" font-size="10.00"> </text>
<polyline fill="none" stroke="#bfbfbf" points="254,-527.5 349,-527.5 "/>
<text text-anchor="middle" x="301.5" y="-515.5" font-family="Courier New" font-size="10.00"> </text>
</a>
</g>
</g>
<!-- Node4&#45;&gt;Node3 -->
<g id="edge3" class="edge"><title>Node4&#45;&gt;Node3</title>
<path fill="none" stroke="midnightblue" d="M301.5,-498.09C301.5,-474.874 301.5,-444.226 301.5,-415.646"/>
<polygon fill="none" stroke="midnightblue" points="298,-498.199 301.5,-508.199 305,-498.199 298,-498.199"/>
</g>
</g>
</svg>
