<?xml version="1.0" encoding="UTF-8" standalone="no"?>
<!DOCTYPE svg PUBLIC "-//W3C//DTD SVG 1.1//EN"
 "http://www.w3.org/Graphics/SVG/1.1/DTD/svg11.dtd">
<!-- Generated by graphviz version 2.38.0 (20140413.2041)
 -->
<!-- Title: C2M2.Simulation.MeshSimulation Pages: 1 -->
<svg width="408pt" height="640pt"
 viewBox="0.00 0.00 408.00 640.00" xmlns="http://www.w3.org/2000/svg" xmlns:xlink="http://www.w3.org/1999/xlink">
<g id="graph0" class="graph" transform="scale(1 1) rotate(0) translate(4 636)">
<title>C2M2.Simulation.MeshSimulation</title>
<polygon fill="white" stroke="none" points="-4,4 -4,-636 404,-636 404,4 -4,4"/>
<!-- Node1 -->
<g id="node1" class="node"><title>Node1</title>
<g id="a_node1"><a xlink:title="Simulation of type double[] for visualizing scalar fields on mesh surfaces">
<polygon fill="#bfbfbf" stroke="black" points="54,-0.5 54,-178.5 251,-178.5 251,-0.5 54,-0.5"/>
<text text-anchor="middle" x="152.5" y="-166.5" font-family="Courier New" font-size="10.00">C2M2.Simulation.MeshSimulation</text>
<polyline fill="none" stroke="black" points="54,-159.5 251,-159.5 "/>
<text text-anchor="start" x="62" y="-147.5" font-family="Courier New" font-size="10.00">+ gradient</text>
<text text-anchor="start" x="62" y="-136.5" font-family="Courier New" font-size="10.00">+ globalMax</text>
<text text-anchor="start" x="62" y="-125.5" font-family="Courier New" font-size="10.00">+ globalMin</text>
<text text-anchor="start" x="62" y="-114.5" font-family="Courier New" font-size="10.00">+ colorLUT</text>
<text text-anchor="start" x="62" y="-103.5" font-family="Courier New" font-size="10.00">+ VisualMesh</text>
<text text-anchor="start" x="62" y="-92.5" font-family="Courier New" font-size="10.00">+ ColliderMesh</text>
<text text-anchor="start" x="62" y="-81.5" font-family="Courier New" font-size="10.00">&#45; visualMesh</text>
<text text-anchor="start" x="62" y="-70.5" font-family="Courier New" font-size="10.00">&#45; colliderMesh</text>
<text text-anchor="start" x="62" y="-59.5" font-family="Courier New" font-size="10.00">&#45; mf</text>
<text text-anchor="start" x="62" y="-48.5" font-family="Courier New" font-size="10.00">&#45; mr</text>
<polyline fill="none" stroke="black" points="54,-41.5 251,-41.5 "/>
<text text-anchor="start" x="62" y="-29.5" font-family="Courier New" font-size="10.00"># UpdateVisualization()</text>
<text text-anchor="start" x="62" y="-18.5" font-family="Courier New" font-size="10.00"># OnAwakePost()</text>
<text text-anchor="start" x="62" y="-7.5" font-family="Courier New" font-size="10.00">&#45; UpdateVisualization()</text>
</a>
</g>
</g>
<!-- Node2 -->
<g id="node2" class="node"><title>Node2</title>
<g id="a_node2"><a xlink:href="../../db/d39/class_c2_m2_1_1_simulation_1_1_simulation.html" target="_top" xlink:title=" ">
<polygon fill="white" stroke="black" points="0,-226.5 0,-536.5 185,-536.5 185,-226.5 0,-226.5"/>
<text text-anchor="start" x="8" y="-524.5" font-family="Courier New" font-size="10.00">Simulation&lt; double</text>
<text text-anchor="start" x="8" y="-513.5" font-family="Courier New" font-size="10.00">[], Mesh, VRRaycastableMesh,</text>
<text text-anchor="middle" x="92.5" y="-502.5" font-family="Courier New" font-size="10.00"> VRGrabbableMesh &gt;</text>
<polyline fill="none" stroke="black" points="0,-495.5 185,-495.5 "/>
<text text-anchor="start" x="8" y="-483.5" font-family="Courier New" font-size="10.00">+ dryRun</text>
<text text-anchor="start" x="8" y="-472.5" font-family="Courier New" font-size="10.00">+ startOnAwake</text>
<text text-anchor="start" x="8" y="-461.5" font-family="Courier New" font-size="10.00">+ viz</text>
<text text-anchor="start" x="8" y="-450.5" font-family="Courier New" font-size="10.00"># mutex</text>
<text text-anchor="start" x="8" y="-439.5" font-family="Courier New" font-size="10.00">&#45; solveThread</text>
<polyline fill="none" stroke="black" points="0,-432.5 185,-432.5 "/>
<text text-anchor="start" x="8" y="-420.5" font-family="Courier New" font-size="10.00">+ GetValues()</text>
<text text-anchor="start" x="8" y="-409.5" font-family="Courier New" font-size="10.00">+ Awake()</text>
<text text-anchor="start" x="8" y="-398.5" font-family="Courier New" font-size="10.00">+ Start()</text>
<text text-anchor="start" x="8" y="-387.5" font-family="Courier New" font-size="10.00">+ Update()</text>
<text text-anchor="start" x="8" y="-376.5" font-family="Courier New" font-size="10.00">+ StartSimulation()</text>
<text text-anchor="start" x="8" y="-365.5" font-family="Courier New" font-size="10.00">+ StopSimulation()</text>
<text text-anchor="start" x="8" y="-354.5" font-family="Courier New" font-size="10.00"># BuildVisualization()</text>
<text text-anchor="start" x="8" y="-343.5" font-family="Courier New" font-size="10.00"># UpdateVisualization()</text>
<text text-anchor="start" x="8" y="-332.5" font-family="Courier New" font-size="10.00"># Solve()</text>
<text text-anchor="start" x="8" y="-321.5" font-family="Courier New" font-size="10.00"># PreSolve()</text>
<text text-anchor="start" x="8" y="-310.5" font-family="Courier New" font-size="10.00"># OnAwakePre()</text>
<text text-anchor="start" x="8" y="-299.5" font-family="Courier New" font-size="10.00"># OnAwakePost()</text>
<text text-anchor="start" x="8" y="-288.5" font-family="Courier New" font-size="10.00"># OnStart()</text>
<text text-anchor="start" x="8" y="-277.5" font-family="Courier New" font-size="10.00"># OnUpdate()</text>
<text text-anchor="start" x="8" y="-266.5" font-family="Courier New" font-size="10.00"># OnPause()</text>
<text text-anchor="start" x="8" y="-255.5" font-family="Courier New" font-size="10.00"># OnQuit()</text>
<text text-anchor="start" x="8" y="-244.5" font-family="Courier New" font-size="10.00">&#45; OnApplicationPause()</text>
<text text-anchor="start" x="8" y="-233.5" font-family="Courier New" font-size="10.00">&#45; OnApplicationQuit()</text>
</a>
</g>
</g>
<!-- Node2&#45;&gt;Node1 -->
<g id="edge1" class="edge"><title>Node2&#45;&gt;Node1</title>
<path fill="none" stroke="midnightblue" d="M126.473,-216.295C129.134,-203.438 131.751,-190.785 134.241,-178.752"/>
<polygon fill="none" stroke="midnightblue" points="123.031,-215.658 124.432,-226.16 129.886,-217.077 123.031,-215.658"/>
</g>
<!-- Node3 -->
<g id="node3" class="node"><title>Node3</title>
<g id="a_node3"><a xlink:href="../../da/d4f/class_c2_m2_1_1_visualization_1_1_l_u_t_gradient.html" target="_top" xlink:title="Create a fast and memory&#45;friendly color lookup table from a gradient">
<polygon fill="white" stroke="black" points="203,-265 203,-498 400,-498 400,-265 203,-265"/>
<text text-anchor="middle" x="301.5" y="-486" font-family="Courier New" font-size="10.00">C2M2.Visualization.LUTGradient</text>
<polyline fill="none" stroke="black" points="203,-479 400,-479 "/>
<text text-anchor="start" x="211" y="-467" font-family="Courier New" font-size="10.00">+ extremaMethod</text>
<text text-anchor="start" x="211" y="-456" font-family="Courier New" font-size="10.00">+ globalMax</text>
<text text-anchor="start" x="211" y="-445" font-family="Courier New" font-size="10.00">+ globalMin</text>
<text text-anchor="start" x="211" y="-434" font-family="Courier New" font-size="10.00">+ curMax</text>
<text text-anchor="start" x="211" y="-423" font-family="Courier New" font-size="10.00">+ curMix</text>
<text text-anchor="start" x="211" y="-412" font-family="Courier New" font-size="10.00">+ LutRes</text>
<text text-anchor="start" x="211" y="-401" font-family="Courier New" font-size="10.00">+ Gradient</text>
<text text-anchor="start" x="211" y="-390" font-family="Courier New" font-size="10.00">+ gradientLUT</text>
<text text-anchor="start" x="211" y="-379" font-family="Courier New" font-size="10.00">+ oldMin</text>
<text text-anchor="start" x="211" y="-368" font-family="Courier New" font-size="10.00">+ oldMax</text>
<text text-anchor="start" x="211" y="-357" font-family="Courier New" font-size="10.00">&#45; lutRes</text>
<text text-anchor="start" x="211" y="-346" font-family="Courier New" font-size="10.00">&#45; gradient</text>
<polyline fill="none" stroke="black" points="203,-339 400,-339 "/>
<text text-anchor="start" x="211" y="-327" font-family="Courier New" font-size="10.00">+ Evaluate()</text>
<text text-anchor="start" x="211" y="-316" font-family="Courier New" font-size="10.00">+ Evaluate()</text>
<text text-anchor="start" x="211" y="-305" font-family="Courier New" font-size="10.00">+ EvaluateUnscaled()</text>
<text text-anchor="start" x="211" y="-294" font-family="Courier New" font-size="10.00">+ GetMinMax()</text>
<text text-anchor="start" x="211" y="-283" font-family="Courier New" font-size="10.00">&#45; BuildLUT()</text>
<text text-anchor="start" x="211" y="-272" font-family="Courier New" font-size="10.00">&#45; RescaleArray()</text>
</a>
</g>
</g>
<!-- Node3&#45;&gt;Node1 -->
<g id="edge2" class="edge"><title>Node3&#45;&gt;Node1</title>
<path fill="none" stroke="#404040" d="M241.969,-264.634C229.246,-239.871 215.915,-213.925 203.545,-189.85"/>
<polygon fill="none" stroke="#404040" points="203.419,-189.604 197.119,-186.095 197.935,-178.93 204.235,-182.439 203.419,-189.604"/>
<text text-anchor="middle" x="254" y="-200" font-family="Courier New" font-size="10.00"> +extremaMethod</text>
</g>
<!-- Node4 -->
<g id="node4" class="node"><title>Node4</title>
<g id="a_node4"><a xlink:title=" ">
<polygon fill="white" stroke="#bfbfbf" points="254,-574.5 254,-631.5 349,-631.5 349,-574.5 254,-574.5"/>
<text text-anchor="middle" x="301.5" y="-619.5" font-family="Courier New" font-size="10.00">MonoBehaviour</text>
<polyline fill="none" stroke="#bfbfbf" points="254,-612.5 349,-612.5 "/>
<text text-anchor="middle" x="301.5" y="-600.5" font-family="Courier New" font-size="10.00"> </text>
<polyline fill="none" stroke="#bfbfbf" points="254,-593.5 349,-593.5 "/>
<text text-anchor="middle" x="301.5" y="-581.5" font-family="Courier New" font-size="10.00"> </text>
</a>
</g>
</g>
<!-- Node4&#45;&gt;Node3 -->
<g id="edge3" class="edge"><title>Node4&#45;&gt;Node3</title>
<path fill="none" stroke="midnightblue" d="M301.5,-564.122C301.5,-545.513 301.5,-521.983 301.5,-498.083"/>
<polygon fill="none" stroke="midnightblue" points="298,-564.2 301.5,-574.2 305,-564.2 298,-564.2"/>
</g>
</g>
</svg>
