<?xml version="1.0" encoding="UTF-8" standalone="no"?>
<!DOCTYPE svg PUBLIC "-//W3C//DTD SVG 1.1//EN"
 "http://www.w3.org/Graphics/SVG/1.1/DTD/svg11.dtd">
<!-- Generated by graphviz version 2.38.0 (20140413.2041)
 -->
<!-- Title: C2M2.OIT.Interaction.ParticleFieldScaleButtonController Pages: 1 -->
<svg width="458pt" height="998pt"
 viewBox="0.00 0.00 458.00 998.00" xmlns="http://www.w3.org/2000/svg" xmlns:xlink="http://www.w3.org/1999/xlink">
<g id="graph0" class="graph" transform="scale(1 1) rotate(0) translate(4 994)">
<title>C2M2.OIT.Interaction.ParticleFieldScaleButtonController</title>
<polygon fill="white" stroke="none" points="-4,4 -4,-994 454,-994 454,4 -4,4"/>
<!-- Node1 -->
<g id="node1" class="node"><title>Node1</title>
<g id="a_node1"><a xlink:title=" ">
<polygon fill="#bfbfbf" stroke="black" points="22,-0.5 22,-266.5 213,-266.5 213,-0.5 22,-0.5"/>
<text text-anchor="start" x="30" y="-254.5" font-family="Courier New" font-size="10.00">C2M2.OIT.Interaction.Particle</text>
<text text-anchor="middle" x="117.5" y="-243.5" font-family="Courier New" font-size="10.00">FieldScaleButtonController</text>
<polyline fill="none" stroke="black" points="22,-236.5 213,-236.5 "/>
<text text-anchor="start" x="30" y="-224.5" font-family="Courier New" font-size="10.00">+ increasingButton</text>
<text text-anchor="start" x="30" y="-213.5" font-family="Courier New" font-size="10.00">+ buttonChangeValue</text>
<text text-anchor="start" x="30" y="-202.5" font-family="Courier New" font-size="10.00">+ buttonWaitTime</text>
<text text-anchor="start" x="30" y="-191.5" font-family="Courier New" font-size="10.00">+ menuAudioSource</text>
<text text-anchor="start" x="30" y="-180.5" font-family="Courier New" font-size="10.00">+ buttonPressSound</text>
<text text-anchor="start" x="30" y="-169.5" font-family="Courier New" font-size="10.00">+ hapticAudioClip</text>
<text text-anchor="start" x="30" y="-158.5" font-family="Courier New" font-size="10.00">&#45; hapticsClip</text>
<text text-anchor="start" x="30" y="-147.5" font-family="Courier New" font-size="10.00">&#45; valueChanged</text>
<text text-anchor="start" x="30" y="-136.5" font-family="Courier New" font-size="10.00">&#45; axisValue</text>
<text text-anchor="start" x="30" y="-125.5" font-family="Courier New" font-size="10.00">&#45; xMin</text>
<text text-anchor="start" x="30" y="-114.5" font-family="Courier New" font-size="10.00">&#45; xMax</text>
<text text-anchor="start" x="30" y="-103.5" font-family="Courier New" font-size="10.00">&#45; yMin</text>
<text text-anchor="start" x="30" y="-92.5" font-family="Courier New" font-size="10.00">&#45; yMax</text>
<text text-anchor="start" x="30" y="-81.5" font-family="Courier New" font-size="10.00">&#45; zMin</text>
<text text-anchor="start" x="30" y="-70.5" font-family="Courier New" font-size="10.00">&#45; zMax</text>
<text text-anchor="start" x="30" y="-59.5" font-family="Courier New" font-size="10.00">&#45; localAvatar</text>
<polyline fill="none" stroke="black" points="22,-52.5 213,-52.5 "/>
<text text-anchor="start" x="30" y="-40.5" font-family="Courier New" font-size="10.00">+ onClick()</text>
<text text-anchor="start" x="30" y="-29.5" font-family="Courier New" font-size="10.00">&#45; Start()</text>
<text text-anchor="start" x="30" y="-18.5" font-family="Courier New" font-size="10.00">&#45; Update()</text>
<text text-anchor="start" x="30" y="-7.5" font-family="Courier New" font-size="10.00">&#45; OnTriggerEnter()</text>
</a>
</g>
</g>
<!-- Node2 -->
<g id="node2" class="node"><title>Node2</title>
<g id="a_node2"><a xlink:title=" ">
<polygon fill="white" stroke="#bfbfbf" points="0,-932.5 0,-989.5 95,-989.5 95,-932.5 0,-932.5"/>
<text text-anchor="middle" x="47.5" y="-977.5" font-family="Courier New" font-size="10.00">MonoBehaviour</text>
<polyline fill="none" stroke="#bfbfbf" points="0,-970.5 95,-970.5 "/>
<text text-anchor="middle" x="47.5" y="-958.5" font-family="Courier New" font-size="10.00"> </text>
<polyline fill="none" stroke="#bfbfbf" points="0,-951.5 95,-951.5 "/>
<text text-anchor="middle" x="47.5" y="-939.5" font-family="Courier New" font-size="10.00"> </text>
</a>
</g>
</g>
<!-- Node2&#45;&gt;Node1 -->
<g id="edge1" class="edge"><title>Node2&#45;&gt;Node1</title>
<path fill="none" stroke="midnightblue" d="M22.4701,-923.626C17.5386,-914.65 13.0915,-904.791 10.5,-895 -0.107281,-854.924 1.26742,-354.965 12.5,-314 16.8678,-298.071 23.0278,-282.102 30.2001,-266.617"/>
<polygon fill="none" stroke="midnightblue" points="19.4514,-925.398 27.5122,-932.273 25.4985,-921.872 19.4514,-925.398"/>
</g>
<!-- Node4 -->
<g id="node4" class="node"><title>Node4</title>
<g id="a_node4"><a xlink:href="../../d7/dcd/class_c2_m2_1_1_o_i_t_1_1_interaction_1_1_particle_system_controller.html" target="_top" xlink:title=" ">
<polygon fill="white" stroke="black" points="22,-314.5 22,-602.5 213,-602.5 213,-314.5 22,-314.5"/>
<text text-anchor="start" x="30" y="-590.5" font-family="Courier New" font-size="10.00">C2M2.OIT.Interaction.Particle</text>
<text text-anchor="middle" x="117.5" y="-579.5" font-family="Courier New" font-size="10.00">SystemController</text>
<polyline fill="none" stroke="black" points="22,-572.5 213,-572.5 "/>
<text text-anchor="start" x="30" y="-560.5" font-family="Courier New" font-size="10.00">+ numberOfParticles</text>
<text text-anchor="start" x="30" y="-549.5" font-family="Courier New" font-size="10.00">+ particleSize</text>
<text text-anchor="start" x="30" y="-538.5" font-family="Courier New" font-size="10.00">+ maxValues</text>
<text text-anchor="start" x="30" y="-527.5" font-family="Courier New" font-size="10.00">+ minValues</text>
<text text-anchor="start" x="30" y="-516.5" font-family="Courier New" font-size="10.00">+ isoquantHigh</text>
<text text-anchor="start" x="30" y="-505.5" font-family="Courier New" font-size="10.00">+ isoquantLow</text>
<text text-anchor="start" x="30" y="-494.5" font-family="Courier New" font-size="10.00">&#45; particles</text>
<text text-anchor="start" x="30" y="-483.5" font-family="Courier New" font-size="10.00">&#45; particlesUpdated</text>
<text text-anchor="start" x="30" y="-472.5" font-family="Courier New" font-size="10.00">&#45; particleSys</text>
<text text-anchor="start" x="30" y="-461.5" font-family="Courier New" font-size="10.00">&#45; particleSysRend</text>
<text text-anchor="start" x="30" y="-450.5" font-family="Courier New" font-size="10.00">&#45; newPositions</text>
<text text-anchor="start" x="30" y="-439.5" font-family="Courier New" font-size="10.00">&#45; newColors</text>
<text text-anchor="start" x="30" y="-428.5" font-family="Courier New" font-size="10.00">&#45; particleNumberChangeHolder</text>
<text text-anchor="start" x="30" y="-417.5" font-family="Courier New" font-size="10.00">&#45; particleSizeChangeHolder</text>
<text text-anchor="start" x="30" y="-406.5" font-family="Courier New" font-size="10.00">&#45; maxValueHolder</text>
<text text-anchor="start" x="30" y="-395.5" font-family="Courier New" font-size="10.00">&#45; minValueHolder</text>
<text text-anchor="start" x="30" y="-384.5" font-family="Courier New" font-size="10.00">&#45; isoquantHighHolder</text>
<text text-anchor="start" x="30" y="-373.5" font-family="Courier New" font-size="10.00">&#45; isoquantLowHolder</text>
<polyline fill="none" stroke="black" points="22,-366.5 213,-366.5 "/>
<text text-anchor="start" x="30" y="-354.5" font-family="Courier New" font-size="10.00">+ UpdateParticles()</text>
<text text-anchor="start" x="30" y="-343.5" font-family="Courier New" font-size="10.00">+ UpdateParticleSize()</text>
<text text-anchor="start" x="30" y="-332.5" font-family="Courier New" font-size="10.00">&#45; Start()</text>
<text text-anchor="start" x="30" y="-321.5" font-family="Courier New" font-size="10.00">&#45; Update()</text>
</a>
</g>
</g>
<!-- Node2&#45;&gt;Node4 -->
<g id="edge4" class="edge"><title>Node2&#45;&gt;Node4</title>
<path fill="none" stroke="midnightblue" d="M34.5765,-922.503C32.0561,-913.595 29.7953,-904.048 28.5,-895 13.069,-787.21 4.89355,-756.299 28.5,-650 32.0019,-634.231 36.9523,-618.222 42.7458,-602.526"/>
<polygon fill="none" stroke="midnightblue" points="31.2685,-923.657 37.4949,-932.229 37.9732,-921.645 31.2685,-923.657"/>
</g>
<!-- Node5 -->
<g id="node5" class="node"><title>Node5</title>
<g id="a_node5"><a xlink:href="../../de/dbc/class_c2_m2_1_1_o_i_t_1_1_visualization_1_1_particle_system_ascii_data_reader.html" target="_top" xlink:title=" ">
<polygon fill="white" stroke="black" points="38,-661.5 38,-883.5 241,-883.5 241,-661.5 38,-661.5"/>
<text text-anchor="start" x="46" y="-871.5" font-family="Courier New" font-size="10.00">C2M2.OIT.Visualization.Particle</text>
<text text-anchor="middle" x="139.5" y="-860.5" font-family="Courier New" font-size="10.00">SystemAsciiDataReader</text>
<polyline fill="none" stroke="black" points="38,-853.5 241,-853.5 "/>
<text text-anchor="start" x="46" y="-841.5" font-family="Courier New" font-size="10.00">+ assets</text>
<text text-anchor="start" x="46" y="-830.5" font-family="Courier New" font-size="10.00">+ RoomObject</text>
<text text-anchor="start" x="46" y="-819.5" font-family="Courier New" font-size="10.00">+ reduceBy</text>
<text text-anchor="start" x="46" y="-808.5" font-family="Courier New" font-size="10.00">+ dataSetList</text>
<text text-anchor="start" x="46" y="-797.5" font-family="Courier New" font-size="10.00">+ colorFloatMax</text>
<text text-anchor="start" x="46" y="-786.5" font-family="Courier New" font-size="10.00">+ colorFloatMin</text>
<text text-anchor="start" x="46" y="-775.5" font-family="Courier New" font-size="10.00">&#45; assetString</text>
<text text-anchor="start" x="46" y="-764.5" font-family="Courier New" font-size="10.00">&#45; currentLine</text>
<text text-anchor="start" x="46" y="-753.5" font-family="Courier New" font-size="10.00">&#45; sR</text>
<text text-anchor="start" x="46" y="-742.5" font-family="Courier New" font-size="10.00">&#45; currentLineSplit</text>
<text text-anchor="start" x="46" y="-731.5" font-family="Courier New" font-size="10.00">&#45; backupdataSetList</text>
<polyline fill="none" stroke="black" points="38,-724.5 241,-724.5 "/>
<text text-anchor="start" x="46" y="-712.5" font-family="Courier New" font-size="10.00">+ InitializeParticleData()</text>
<text text-anchor="start" x="46" y="-701.5" font-family="Courier New" font-size="10.00">+ Isoquant()</text>
<text text-anchor="start" x="46" y="-690.5" font-family="Courier New" font-size="10.00">&#45; InitializeInformationLists()</text>
<text text-anchor="start" x="46" y="-679.5" font-family="Courier New" font-size="10.00">&#45; CreateStringReader()</text>
<text text-anchor="start" x="46" y="-668.5" font-family="Courier New" font-size="10.00">&#45; CloseStringReader()</text>
</a>
</g>
</g>
<!-- Node2&#45;&gt;Node5 -->
<g id="edge6" class="edge"><title>Node2&#45;&gt;Node5</title>
<path fill="none" stroke="midnightblue" d="M65.5139,-923.483C71.322,-911.709 78.0904,-897.988 85.1294,-883.719"/>
<polygon fill="none" stroke="midnightblue" points="62.3601,-921.965 61.0749,-932.481 68.6378,-925.062 62.3601,-921.965"/>
</g>
<!-- Node6 -->
<g id="node6" class="node"><title>Node6</title>
<g id="a_node6"><a xlink:href="../../d2/d3c/class_c2_m2_1_1_o_i_t_1_1_interaction_1_1_particle_field_handle_controller.html" target="_top" xlink:title=" ">
<polygon fill="white" stroke="black" points="259,-650.5 259,-894.5 450,-894.5 450,-650.5 259,-650.5"/>
<text text-anchor="start" x="267" y="-882.5" font-family="Courier New" font-size="10.00">C2M2.OIT.Interaction.Particle</text>
<text text-anchor="middle" x="354.5" y="-871.5" font-family="Courier New" font-size="10.00">FieldHandleController</text>
<polyline fill="none" stroke="black" points="259,-864.5 450,-864.5 "/>
<text text-anchor="start" x="267" y="-852.5" font-family="Courier New" font-size="10.00">+ xMinMarker</text>
<text text-anchor="start" x="267" y="-841.5" font-family="Courier New" font-size="10.00">+ xMaxMarker</text>
<text text-anchor="start" x="267" y="-830.5" font-family="Courier New" font-size="10.00">+ yMinMarker</text>
<text text-anchor="start" x="267" y="-819.5" font-family="Courier New" font-size="10.00">+ yMaxMarker</text>
<text text-anchor="start" x="267" y="-808.5" font-family="Courier New" font-size="10.00">+ zMinMarker</text>
<text text-anchor="start" x="267" y="-797.5" font-family="Courier New" font-size="10.00">+ zMaxMarker</text>
<text text-anchor="start" x="267" y="-786.5" font-family="Courier New" font-size="10.00">+ xMinCollider</text>
<text text-anchor="start" x="267" y="-775.5" font-family="Courier New" font-size="10.00">+ xMaxCollider</text>
<text text-anchor="start" x="267" y="-764.5" font-family="Courier New" font-size="10.00">+ yMinCollider</text>
<text text-anchor="start" x="267" y="-753.5" font-family="Courier New" font-size="10.00">+ yMaxCollider</text>
<text text-anchor="start" x="267" y="-742.5" font-family="Courier New" font-size="10.00">+ zMinCollider</text>
<text text-anchor="start" x="267" y="-731.5" font-family="Courier New" font-size="10.00">+ zMaxCollider</text>
<text text-anchor="start" x="267" y="-720.5" font-family="Courier New" font-size="10.00">&#45; minVector</text>
<text text-anchor="start" x="267" y="-709.5" font-family="Courier New" font-size="10.00">&#45; maxVector</text>
<polyline fill="none" stroke="black" points="259,-702.5 450,-702.5 "/>
<text text-anchor="start" x="267" y="-690.5" font-family="Courier New" font-size="10.00">+ UpdateHandlePositions()</text>
<text text-anchor="start" x="267" y="-679.5" font-family="Courier New" font-size="10.00">+ GetMinVector()</text>
<text text-anchor="start" x="267" y="-668.5" font-family="Courier New" font-size="10.00">+ GetMaxVector()</text>
<text text-anchor="start" x="267" y="-657.5" font-family="Courier New" font-size="10.00">&#45; Update()</text>
</a>
</g>
</g>
<!-- Node2&#45;&gt;Node6 -->
<g id="edge8" class="edge"><title>Node2&#45;&gt;Node6</title>
<path fill="none" stroke="midnightblue" d="M105.12,-950.19C147.662,-940.96 205.56,-924.085 249.5,-895 252.638,-892.923 255.738,-890.726 258.794,-888.43"/>
<polygon fill="none" stroke="midnightblue" points="104.271,-946.792 95.1997,-952.265 105.704,-953.643 104.271,-946.792"/>
</g>
<!-- Node3 -->
<g id="node3" class="node"><title>Node3</title>
<g id="a_node3"><a xlink:title=" ">
<polygon fill="white" stroke="#bfbfbf" points="231,-430 231,-487 272,-487 272,-430 231,-430"/>
<text text-anchor="middle" x="251.5" y="-475" font-family="Courier New" font-size="10.00">Text</text>
<polyline fill="none" stroke="#bfbfbf" points="231,-468 272,-468 "/>
<text text-anchor="middle" x="251.5" y="-456" font-family="Courier New" font-size="10.00"> </text>
<polyline fill="none" stroke="#bfbfbf" points="231,-449 272,-449 "/>
<text text-anchor="middle" x="251.5" y="-437" font-family="Courier New" font-size="10.00"> </text>
</a>
</g>
</g>
<!-- Node3&#45;&gt;Node1 -->
<g id="edge2" class="edge"><title>Node3&#45;&gt;Node1</title>
<path fill="none" stroke="#404040" d="M248.371,-429.785C244.439,-400.327 236.332,-352.744 221.5,-314 216.891,-301.961 211.538,-289.779 205.739,-277.73"/>
<polygon fill="none" stroke="#404040" points="205.61,-277.47 199.367,-273.861 200.296,-266.71 206.54,-270.319 205.61,-277.47"/>
<text text-anchor="middle" x="247" y="-288" font-family="Courier New" font-size="10.00"> +valueText</text>
</g>
<!-- Node4&#45;&gt;Node1 -->
<g id="edge3" class="edge"><title>Node4&#45;&gt;Node1</title>
<path fill="none" stroke="#404040" d="M117.5,-314.417C117.5,-302.644 117.5,-290.74 117.5,-278.957"/>
<polygon fill="none" stroke="#404040" points="117.5,-278.734 113.5,-272.734 117.5,-266.734 121.5,-272.734 117.5,-278.734"/>
<text text-anchor="middle" x="154" y="-288" font-family="Courier New" font-size="10.00"> +partSysCon</text>
</g>
<!-- Node5&#45;&gt;Node4 -->
<g id="edge5" class="edge"><title>Node5&#45;&gt;Node4</title>
<path fill="none" stroke="#404040" d="M131.713,-661.061C130.649,-645.975 129.541,-630.265 128.434,-614.568"/>
<polygon fill="none" stroke="#404040" points="128.433,-614.547 124.021,-608.844 127.589,-602.577 132.001,-608.281 128.433,-614.547"/>
<text text-anchor="middle" x="184" y="-624" font-family="Courier New" font-size="10.00"> &#45;particleTextData</text>
</g>
<!-- Node6&#45;&gt;Node4 -->
<g id="edge7" class="edge"><title>Node6&#45;&gt;Node4</title>
<path fill="none" stroke="#404040" d="M268.189,-650.43C259.793,-640.235 251.167,-630.286 242.5,-621 234.112,-612.014 229.831,-612.039 221.5,-603 221.412,-602.905 221.324,-602.809 221.236,-602.713"/>
<polygon fill="none" stroke="#404040" points="221.096,-602.557 214.112,-600.76 213.085,-593.623 220.069,-595.42 221.096,-602.557"/>
<text text-anchor="middle" x="328" y="-624" font-family="Courier New" font-size="10.00"> &#45;particleHandleController</text>
</g>
</g>
</svg>
