<?xml version="1.0" encoding="UTF-8" standalone="no"?>
<!DOCTYPE svg PUBLIC "-//W3C//DTD SVG 1.1//EN"
 "http://www.w3.org/Graphics/SVG/1.1/DTD/svg11.dtd">
<!-- Generated by graphviz version 2.38.0 (20140413.2041)
 -->
<!-- Title: C2M2.Interaction.RaycastSimHeater Pages: 1 -->
<svg width="360pt" height="375pt"
 viewBox="0.00 0.00 360.00 375.00" xmlns="http://www.w3.org/2000/svg" xmlns:xlink="http://www.w3.org/1999/xlink">
<g id="graph0" class="graph" transform="scale(1 1) rotate(0) translate(4 371)">
<title>C2M2.Interaction.RaycastSimHeater</title>
<polygon fill="white" stroke="none" points="-4,4 -4,-371 356,-371 356,4 -4,4"/>
<!-- Node1 -->
<g id="node1" class="node"><title>Node1</title>
<g id="a_node1"><a xlink:title=" ">
<polygon fill="#bfbfbf" stroke="black" points="98,-160.5 98,-272.5 259,-272.5 259,-160.5 98,-160.5"/>
<text text-anchor="start" x="106" y="-260.5" font-family="Courier New" font-size="10.00">C2M2.Interaction.Raycast</text>
<text text-anchor="middle" x="178.5" y="-249.5" font-family="Courier New" font-size="10.00">SimHeater</text>
<polyline fill="none" stroke="black" points="98,-242.5 259,-242.5 "/>
<text text-anchor="start" x="106" y="-230.5" font-family="Courier New" font-size="10.00"># simulation</text>
<text text-anchor="start" x="106" y="-219.5" font-family="Courier New" font-size="10.00"># raycastable</text>
<polyline fill="none" stroke="black" points="98,-212.5 259,-212.5 "/>
<text text-anchor="start" x="106" y="-200.5" font-family="Courier New" font-size="10.00">+ Hit()</text>
<text text-anchor="start" x="106" y="-189.5" font-family="Courier New" font-size="10.00"># OnAwake()</text>
<text text-anchor="start" x="106" y="-178.5" font-family="Courier New" font-size="10.00"># HitMethod()</text>
<text text-anchor="start" x="106" y="-167.5" font-family="Courier New" font-size="10.00">&#45; Awake()</text>
</a>
</g>
</g>
<!-- Node3 -->
<g id="node3" class="node"><title>Node3</title>
<g id="a_node3"><a xlink:href="../../da/d95/class_c2_m2_1_1_interaction_1_1_raycast_sim_heater_continuous.html" target="_top" xlink:title=" ">
<polygon fill="white" stroke="black" points="0,-0.5 0,-123.5 173,-123.5 173,-0.5 0,-0.5"/>
<text text-anchor="start" x="8" y="-111.5" font-family="Courier New" font-size="10.00">C2M2.Interaction.Raycast</text>
<text text-anchor="middle" x="86.5" y="-100.5" font-family="Courier New" font-size="10.00">SimHeaterContinuous</text>
<polyline fill="none" stroke="black" points="0,-93.5 173,-93.5 "/>
<text text-anchor="start" x="8" y="-81.5" font-family="Courier New" font-size="10.00">&#45; dijkstraSearch</text>
<text text-anchor="start" x="8" y="-70.5" font-family="Courier New" font-size="10.00">&#45; gaussian</text>
<text text-anchor="start" x="8" y="-59.5" font-family="Courier New" font-size="10.00">&#45; uniqueVerts</text>
<polyline fill="none" stroke="black" points="0,-52.5 173,-52.5 "/>
<text text-anchor="start" x="8" y="-40.5" font-family="Courier New" font-size="10.00">+ SetWarmCoolHands()</text>
<text text-anchor="start" x="8" y="-29.5" font-family="Courier New" font-size="10.00">+ RaycastersDefaultColor()</text>
<text text-anchor="start" x="8" y="-18.5" font-family="Courier New" font-size="10.00"># OnAwake()</text>
<text text-anchor="start" x="8" y="-7.5" font-family="Courier New" font-size="10.00"># HitMethod()</text>
</a>
</g>
</g>
<!-- Node1&#45;&gt;Node3 -->
<g id="edge2" class="edge"><title>Node1&#45;&gt;Node3</title>
<path fill="none" stroke="midnightblue" d="M139.982,-151.652C134.389,-142.382 128.645,-132.86 123.092,-123.655"/>
<polygon fill="none" stroke="midnightblue" points="137.123,-153.689 145.286,-160.444 143.117,-150.073 137.123,-153.689"/>
</g>
<!-- Node4 -->
<g id="node4" class="node"><title>Node4</title>
<g id="a_node4"><a xlink:href="../../d3/d4c/class_c2_m2_1_1_interaction_1_1_raycast_sim_heater_discrete.html" target="_top" xlink:title=" ">
<polygon fill="white" stroke="black" points="191,-17 191,-107 352,-107 352,-17 191,-17"/>
<text text-anchor="start" x="199" y="-95" font-family="Courier New" font-size="10.00">C2M2.Interaction.Raycast</text>
<text text-anchor="middle" x="271.5" y="-84" font-family="Courier New" font-size="10.00">SimHeaterDiscrete</text>
<polyline fill="none" stroke="black" points="191,-77 352,-77 "/>
<text text-anchor="start" x="199" y="-65" font-family="Courier New" font-size="10.00">&#45; mf</text>
<polyline fill="none" stroke="black" points="191,-58 352,-58 "/>
<text text-anchor="start" x="199" y="-46" font-family="Courier New" font-size="10.00">+ HitToTriangles()</text>
<text text-anchor="start" x="199" y="-35" font-family="Courier New" font-size="10.00"># OnAwake()</text>
<text text-anchor="start" x="199" y="-24" font-family="Courier New" font-size="10.00"># HitMethod()</text>
</a>
</g>
</g>
<!-- Node1&#45;&gt;Node4 -->
<g id="edge3" class="edge"><title>Node1&#45;&gt;Node4</title>
<path fill="none" stroke="midnightblue" d="M217.367,-151.766C226.452,-136.869 235.936,-121.317 244.382,-107.468"/>
<polygon fill="none" stroke="midnightblue" points="214.294,-150.084 212.075,-160.444 220.27,-153.729 214.294,-150.084"/>
</g>
<!-- Node2 -->
<g id="node2" class="node"><title>Node2</title>
<g id="a_node2"><a xlink:title=" ">
<polygon fill="white" stroke="#bfbfbf" points="131,-309.5 131,-366.5 226,-366.5 226,-309.5 131,-309.5"/>
<text text-anchor="middle" x="178.5" y="-354.5" font-family="Courier New" font-size="10.00">MonoBehaviour</text>
<polyline fill="none" stroke="#bfbfbf" points="131,-347.5 226,-347.5 "/>
<text text-anchor="middle" x="178.5" y="-335.5" font-family="Courier New" font-size="10.00"> </text>
<polyline fill="none" stroke="#bfbfbf" points="131,-328.5 226,-328.5 "/>
<text text-anchor="middle" x="178.5" y="-316.5" font-family="Courier New" font-size="10.00"> </text>
</a>
</g>
</g>
<!-- Node2&#45;&gt;Node1 -->
<g id="edge1" class="edge"><title>Node2&#45;&gt;Node1</title>
<path fill="none" stroke="midnightblue" d="M178.5,-299.108C178.5,-290.748 178.5,-281.725 178.5,-272.834"/>
<polygon fill="none" stroke="midnightblue" points="175,-299.284 178.5,-309.284 182,-299.284 175,-299.284"/>
</g>
</g>
</svg>
