<?xml version="1.0" encoding="UTF-8" standalone="no"?>
<!DOCTYPE svg PUBLIC "-//W3C//DTD SVG 1.1//EN"
 "http://www.w3.org/Graphics/SVG/1.1/DTD/svg11.dtd">
<!-- Generated by graphviz version 2.38.0 (20140413.2041)
 -->
<!-- Title: C2M2.Interaction.UI.RaycastInputField Pages: 1 -->
<svg width="644pt" height="881pt"
 viewBox="0.00 0.00 644.00 881.00" xmlns="http://www.w3.org/2000/svg" xmlns:xlink="http://www.w3.org/1999/xlink">
<g id="graph0" class="graph" transform="scale(1 1) rotate(0) translate(4 877)">
<title>C2M2.Interaction.UI.RaycastInputField</title>
<polygon fill="white" stroke="none" points="-4,4 -4,-877 640,-877 640,4 -4,4"/>
<!-- Node1 -->
<g id="node1" class="node"><title>Node1</title>
<g id="a_node1"><a xlink:title=" ">
<polygon fill="#bfbfbf" stroke="black" points="161,-0.5 161,-354.5 340,-354.5 340,-0.5 161,-0.5"/>
<text text-anchor="start" x="169" y="-342.5" font-family="Courier New" font-size="10.00">C2M2.Interaction.UI.Raycast</text>
<text text-anchor="middle" x="250.5" y="-331.5" font-family="Courier New" font-size="10.00">InputField</text>
<polyline fill="none" stroke="black" points="161,-324.5 340,-324.5 "/>
<text text-anchor="start" x="169" y="-312.5" font-family="Courier New" font-size="10.00">+ menuAnchor</text>
<text text-anchor="start" x="169" y="-301.5" font-family="Courier New" font-size="10.00">+ targetGraphic</text>
<text text-anchor="start" x="169" y="-290.5" font-family="Courier New" font-size="10.00">+ defaultColor</text>
<text text-anchor="start" x="169" y="-279.5" font-family="Courier New" font-size="10.00">+ highlightedColor</text>
<text text-anchor="start" x="169" y="-268.5" font-family="Courier New" font-size="10.00">+ invalidColor</text>
<text text-anchor="start" x="169" y="-257.5" font-family="Courier New" font-size="10.00">+ validColor</text>
<text text-anchor="start" x="169" y="-246.5" font-family="Courier New" font-size="10.00">+ textComponent</text>
<text text-anchor="start" x="169" y="-235.5" font-family="Courier New" font-size="10.00">+ text</text>
<text text-anchor="start" x="169" y="-224.5" font-family="Courier New" font-size="10.00">+ placeHolder</text>
<text text-anchor="start" x="169" y="-213.5" font-family="Courier New" font-size="10.00">+ takeFromHolder</text>
<text text-anchor="start" x="169" y="-202.5" font-family="Courier New" font-size="10.00">and 6 more...</text>
<text text-anchor="start" x="169" y="-191.5" font-family="Courier New" font-size="10.00">&#45; caretEnabled</text>
<polyline fill="none" stroke="black" points="161,-184.5 340,-184.5 "/>
<text text-anchor="start" x="169" y="-172.5" font-family="Courier New" font-size="10.00">+ Activate()</text>
<text text-anchor="start" x="169" y="-161.5" font-family="Courier New" font-size="10.00">+ Deactivate()</text>
<text text-anchor="start" x="169" y="-150.5" font-family="Courier New" font-size="10.00">+ CharacterIntake()</text>
<text text-anchor="start" x="169" y="-139.5" font-family="Courier New" font-size="10.00">+ PrintText()</text>
<text text-anchor="start" x="169" y="-128.5" font-family="Courier New" font-size="10.00">&#45; Start()</text>
<text text-anchor="start" x="169" y="-117.5" font-family="Courier New" font-size="10.00">&#45; ValidateInput()</text>
<text text-anchor="start" x="169" y="-106.5" font-family="Courier New" font-size="10.00">&#45; UpdateDisplayText()</text>
<text text-anchor="start" x="169" y="-95.5" font-family="Courier New" font-size="10.00">&#45; ColorToDefault()</text>
<text text-anchor="start" x="169" y="-84.5" font-family="Courier New" font-size="10.00">&#45; ColorToHighlighted()</text>
<text text-anchor="start" x="169" y="-73.5" font-family="Courier New" font-size="10.00">&#45; ColorToInvalid()</text>
<text text-anchor="start" x="169" y="-62.5" font-family="Courier New" font-size="10.00">&#45; ColorToValid()</text>
<text text-anchor="start" x="169" y="-51.5" font-family="Courier New" font-size="10.00">&#45; UpdateCaretPosition()</text>
<text text-anchor="start" x="169" y="-40.5" font-family="Courier New" font-size="10.00">&#45; caretBlink()</text>
<text text-anchor="start" x="169" y="-29.5" font-family="Courier New" font-size="10.00">&#45; AppendText()</text>
<text text-anchor="start" x="169" y="-18.5" font-family="Courier New" font-size="10.00">&#45; RemoveLast()</text>
<text text-anchor="start" x="169" y="-7.5" font-family="Courier New" font-size="10.00">&#45; SubmitText()</text>
</a>
</g>
</g>
<!-- Node2 -->
<g id="node2" class="node"><title>Node2</title>
<g id="a_node2"><a xlink:title=" ">
<polygon fill="white" stroke="#bfbfbf" points="0,-815.5 0,-872.5 95,-872.5 95,-815.5 0,-815.5"/>
<text text-anchor="middle" x="47.5" y="-860.5" font-family="Courier New" font-size="10.00">MonoBehaviour</text>
<polyline fill="none" stroke="#bfbfbf" points="0,-853.5 95,-853.5 "/>
<text text-anchor="middle" x="47.5" y="-841.5" font-family="Courier New" font-size="10.00"> </text>
<polyline fill="none" stroke="#bfbfbf" points="0,-834.5 95,-834.5 "/>
<text text-anchor="middle" x="47.5" y="-822.5" font-family="Courier New" font-size="10.00"> </text>
</a>
</g>
</g>
<!-- Node2&#45;&gt;Node1 -->
<g id="edge1" class="edge"><title>Node2&#45;&gt;Node1</title>
<path fill="none" stroke="midnightblue" d="M39.5873,-805.559C24.8459,-727.403 -0.679147,-542.505 53.5,-402 75.6914,-344.45 119.955,-292.019 160.912,-252.425"/>
<polygon fill="none" stroke="midnightblue" points="36.1609,-806.275 41.4994,-815.427 43.0331,-804.944 36.1609,-806.275"/>
</g>
<!-- Node5 -->
<g id="node5" class="node"><title>Node5</title>
<g id="a_node5"><a xlink:href="../../d4/d6f/class_c2_m2_1_1_interaction_1_1_u_i_1_1_raycast_keyboard.html" target="_top" xlink:title="Instantiates a raycastable keyboard and manages its input/output">
<polygon fill="white" stroke="black" points="63,-402.5 63,-657.5 242,-657.5 242,-402.5 63,-402.5"/>
<text text-anchor="start" x="71" y="-645.5" font-family="Courier New" font-size="10.00">C2M2.Interaction.UI.Raycast</text>
<text text-anchor="middle" x="152.5" y="-634.5" font-family="Courier New" font-size="10.00">Keyboard</text>
<polyline fill="none" stroke="black" points="63,-627.5 242,-627.5 "/>
<text text-anchor="start" x="71" y="-615.5" font-family="Courier New" font-size="10.00">+ keyPrefab</text>
<text text-anchor="start" x="71" y="-604.5" font-family="Courier New" font-size="10.00">+ specialKeyContainer</text>
<text text-anchor="start" x="71" y="-593.5" font-family="Courier New" font-size="10.00">+ lowerKeyContainer</text>
<text text-anchor="start" x="71" y="-582.5" font-family="Courier New" font-size="10.00">+ upperKeyContainer</text>
<text text-anchor="start" x="71" y="-571.5" font-family="Courier New" font-size="10.00">+ menuAnchor</text>
<text text-anchor="start" x="71" y="-560.5" font-family="Courier New" font-size="10.00">+ activeField</text>
<text text-anchor="start" x="71" y="-549.5" font-family="Courier New" font-size="10.00">&#45; hasActiveField</text>
<text text-anchor="start" x="71" y="-538.5" font-family="Courier New" font-size="10.00">&#45; lastHit</text>
<text text-anchor="start" x="71" y="-527.5" font-family="Courier New" font-size="10.00">&#45; keyPositions</text>
<text text-anchor="start" x="71" y="-516.5" font-family="Courier New" font-size="10.00">&#45; specialKeys</text>
<text text-anchor="start" x="71" y="-505.5" font-family="Courier New" font-size="10.00">&#45; specialKeyLocations</text>
<text text-anchor="start" x="71" y="-494.5" font-family="Courier New" font-size="10.00">&#45; upperCharRow1</text>
<text text-anchor="start" x="71" y="-483.5" font-family="Courier New" font-size="10.00">&#45; upperCharRow2</text>
<text text-anchor="start" x="71" y="-472.5" font-family="Courier New" font-size="10.00">&#45; upperCharRow3</text>
<polyline fill="none" stroke="black" points="63,-465.5 242,-465.5 "/>
<text text-anchor="start" x="71" y="-453.5" font-family="Courier New" font-size="10.00">+ PassChar()</text>
<text text-anchor="start" x="71" y="-442.5" font-family="Courier New" font-size="10.00">+ InputFieldActivate()</text>
<text text-anchor="start" x="71" y="-431.5" font-family="Courier New" font-size="10.00">&#45; Awake()</text>
<text text-anchor="start" x="71" y="-420.5" font-family="Courier New" font-size="10.00">&#45; OnEnable()</text>
<text text-anchor="start" x="71" y="-409.5" font-family="Courier New" font-size="10.00">&#45; BuildKeyboard()</text>
</a>
</g>
</g>
<!-- Node2&#45;&gt;Node5 -->
<g id="edge5" class="edge"><title>Node2&#45;&gt;Node5</title>
<path fill="none" stroke="midnightblue" d="M60.1024,-805.553C72.4471,-768.871 91.9631,-710.881 109.885,-657.628"/>
<polygon fill="none" stroke="midnightblue" points="56.6905,-804.718 56.818,-815.312 63.3249,-806.951 56.6905,-804.718"/>
</g>
<!-- Node3 -->
<g id="node3" class="node"><title>Node3</title>
<g id="a_node3"><a xlink:href="../../da/d7b/class_c2_m2_1_1_interaction_1_1_u_i_1_1_raycast_input_field_1_1_on_change_event.html" target="_top" xlink:title=" ">
<polygon fill="white" stroke="black" points="260,-496 260,-564 439,-564 439,-496 260,-496"/>
<text text-anchor="start" x="268" y="-552" font-family="Courier New" font-size="10.00">C2M2.Interaction.UI.Raycast</text>
<text text-anchor="middle" x="349.5" y="-541" font-family="Courier New" font-size="10.00">InputField.OnChangeEvent</text>
<polyline fill="none" stroke="black" points="260,-534 439,-534 "/>
<text text-anchor="middle" x="349.5" y="-522" font-family="Courier New" font-size="10.00"> </text>
<polyline fill="none" stroke="black" points="260,-515 439,-515 "/>
<text text-anchor="middle" x="349.5" y="-503" font-family="Courier New" font-size="10.00"> </text>
</a>
</g>
</g>
<!-- Node3&#45;&gt;Node1 -->
<g id="edge2" class="edge"><title>Node3&#45;&gt;Node1</title>
<path fill="none" stroke="#404040" d="M340.097,-495.71C331.388,-464.875 317.689,-416.375 303.599,-366.491"/>
<polygon fill="none" stroke="#404040" points="303.563,-366.365 298.083,-361.678 300.301,-354.816 305.782,-359.503 303.563,-366.365"/>
<text text-anchor="middle" x="355" y="-376" font-family="Courier New" font-size="10.00"> +onValueChanged</text>
</g>
<!-- Node4 -->
<g id="node4" class="node"><title>Node4</title>
<g id="a_node4"><a xlink:title=" ">
<polygon fill="white" stroke="#bfbfbf" points="336,-815.5 336,-872.5 473,-872.5 473,-815.5 336,-815.5"/>
<text text-anchor="middle" x="404.5" y="-860.5" font-family="Courier New" font-size="10.00">UnityEvent&lt; string &gt;</text>
<polyline fill="none" stroke="#bfbfbf" points="336,-853.5 473,-853.5 "/>
<text text-anchor="middle" x="404.5" y="-841.5" font-family="Courier New" font-size="10.00"> </text>
<polyline fill="none" stroke="#bfbfbf" points="336,-834.5 473,-834.5 "/>
<text text-anchor="middle" x="404.5" y="-822.5" font-family="Courier New" font-size="10.00"> </text>
</a>
</g>
</g>
<!-- Node4&#45;&gt;Node3 -->
<g id="edge3" class="edge"><title>Node4&#45;&gt;Node3</title>
<path fill="none" stroke="midnightblue" d="M397.845,-805.248C386.993,-743.685 365.662,-622.685 355.353,-564.202"/>
<polygon fill="none" stroke="midnightblue" points="394.436,-806.072 399.619,-815.312 401.33,-804.856 394.436,-806.072"/>
</g>
<!-- Node7 -->
<g id="node7" class="node"><title>Node7</title>
<g id="a_node7"><a xlink:href="../../d4/de5/class_c2_m2_1_1_interaction_1_1_u_i_1_1_raycast_input_field_1_1_on_submit_event.html" target="_top" xlink:title=" ">
<polygon fill="white" stroke="black" points="457,-496 457,-564 636,-564 636,-496 457,-496"/>
<text text-anchor="start" x="465" y="-552" font-family="Courier New" font-size="10.00">C2M2.Interaction.UI.Raycast</text>
<text text-anchor="middle" x="546.5" y="-541" font-family="Courier New" font-size="10.00">InputField.OnSubmitEvent</text>
<polyline fill="none" stroke="black" points="457,-534 636,-534 "/>
<text text-anchor="middle" x="546.5" y="-522" font-family="Courier New" font-size="10.00"> </text>
<polyline fill="none" stroke="black" points="457,-515 636,-515 "/>
<text text-anchor="middle" x="546.5" y="-503" font-family="Courier New" font-size="10.00"> </text>
</a>
</g>
</g>
<!-- Node4&#45;&gt;Node7 -->
<g id="edge8" class="edge"><title>Node4&#45;&gt;Node7</title>
<path fill="none" stroke="midnightblue" d="M421.336,-806.008C449.245,-744.686 504.662,-622.926 531.389,-564.202"/>
<polygon fill="none" stroke="midnightblue" points="418.058,-804.761 417.102,-815.312 424.43,-807.66 418.058,-804.761"/>
</g>
<!-- Node5&#45;&gt;Node1 -->
<g id="edge4" class="edge"><title>Node5&#45;&gt;Node1</title>
<path fill="none" stroke="#404040" d="M187.88,-402.461C191.183,-390.648 194.576,-378.514 197.992,-366.298"/>
<polygon fill="none" stroke="#404040" points="198.04,-366.125 195.803,-359.27 201.271,-354.568 203.508,-361.424 198.04,-366.125"/>
<text text-anchor="middle" x="227" y="-376" font-family="Courier New" font-size="10.00"> &#45;keyboard</text>
</g>
<!-- Node6 -->
<g id="node6" class="node"><title>Node6</title>
<g id="a_node6"><a xlink:title=" ">
<polygon fill="white" stroke="#bfbfbf" points="126,-815.5 126,-872.5 179,-872.5 179,-815.5 126,-815.5"/>
<text text-anchor="middle" x="152.5" y="-860.5" font-family="Courier New" font-size="10.00">static</text>
<polyline fill="none" stroke="#bfbfbf" points="126,-853.5 179,-853.5 "/>
<text text-anchor="middle" x="152.5" y="-841.5" font-family="Courier New" font-size="10.00"> </text>
<polyline fill="none" stroke="#bfbfbf" points="126,-834.5 179,-834.5 "/>
<text text-anchor="middle" x="152.5" y="-822.5" font-family="Courier New" font-size="10.00"> </text>
</a>
</g>
</g>
<!-- Node6&#45;&gt;Node5 -->
<g id="edge6" class="edge"><title>Node6&#45;&gt;Node5</title>
<path fill="none" stroke="#404040" d="M152.5,-815.312C152.5,-782.244 152.5,-724.495 152.5,-669.645"/>
<polygon fill="none" stroke="#404040" points="152.5,-669.628 148.5,-663.628 152.5,-657.628 156.5,-663.628 152.5,-669.628"/>
<text text-anchor="middle" x="198" y="-789" font-family="Courier New" font-size="10.00"> &#45;lowerCharRow0</text>
<text text-anchor="middle" x="198" y="-778" font-family="Courier New" font-size="10.00">&#45;positionj</text>
<text text-anchor="middle" x="198" y="-767" font-family="Courier New" font-size="10.00">&#45;lowerCharRow1</text>
<text text-anchor="middle" x="198" y="-756" font-family="Courier New" font-size="10.00">&#45;lowerCharRow2</text>
<text text-anchor="middle" x="198" y="-745" font-family="Courier New" font-size="10.00">&#45;position1i</text>
<text text-anchor="middle" x="198" y="-734" font-family="Courier New" font-size="10.00">&#45;lowerCharRow3</text>
<text text-anchor="middle" x="198" y="-723" font-family="Courier New" font-size="10.00">&#45;position0i</text>
<text text-anchor="middle" x="198" y="-712" font-family="Courier New" font-size="10.00">&#45;position3i</text>
<text text-anchor="middle" x="198" y="-701" font-family="Courier New" font-size="10.00">&#45;upperCharRow0</text>
<text text-anchor="middle" x="198" y="-690" font-family="Courier New" font-size="10.00">&#45;position2i</text>
<text text-anchor="middle" x="198" y="-679" font-family="Courier New" font-size="10.00">...</text>
</g>
<!-- Node7&#45;&gt;Node1 -->
<g id="edge7" class="edge"><title>Node7&#45;&gt;Node1</title>
<path fill="none" stroke="#404040" d="M521.6,-495.943C501.894,-470.056 473.464,-433.312 447.5,-402 415.846,-363.826 380.271,-322.898 348.151,-286.632"/>
<polygon fill="none" stroke="#404040" points="348.028,-286.493 341.054,-284.66 340.064,-277.517 347.038,-279.35 348.028,-286.493"/>
<text text-anchor="middle" x="466" y="-376" font-family="Courier New" font-size="10.00"> +onEndEdit</text>
</g>
</g>
</svg>
