<?xml version="1.0" encoding="UTF-8" standalone="no"?>
<!DOCTYPE svg PUBLIC "-//W3C//DTD SVG 1.1//EN"
 "http://www.w3.org/Graphics/SVG/1.1/DTD/svg11.dtd">
<!-- Generated by graphviz version 2.46.0 (20210118.1747)
 -->
<!-- Title: C2M2.Simulation.Simulation&lt; ValueType, VizType, RaycastType, GrabType &gt; Pages: 1 -->
<!--zoomable 529 -->
<svg id="main" version="1.1" xmlns="http://www.w3.org/2000/svg" xmlns:xlink="http://www.w3.org/1999/xlink" xml:space="preserve" onload="init(evt)">
<style type="text/css"><![CDATA[
.edge:hover path { stroke: red; }
.edge:hover polygon { stroke: red; fill: red; }
]]></style>
<script type="text/javascript"><![CDATA[
var edges = document.getElementsByTagName('g');
if (edges && edges.length) {
  for (var i=0;i<edges.length;i++) {
    if (edges[i].id.substr(0,4)=='edge') {
      edges[i].setAttribute('class','edge');
    }
  }
}
]]></script>
        <defs>
                <circle id="rim" cx="0" cy="0" r="7"/>
                <circle id="rim2" cx="0" cy="0" r="3.5"/>
                <g id="zoomPlus">
                        <use xlink:href="#rim" fill="#404040">
                                <set attributeName="fill" to="#808080" begin="zoomplus.mouseover" end="zoomplus.mouseout"/>
                        </use>
                        <path d="M-4,0h8M0,-4v8" fill="none" stroke="white" stroke-width="1.5" pointer-events="none"/>
                </g>
                <g id="zoomMin">
                        <use xlink:href="#rim" fill="#404040">
                                <set attributeName="fill" to="#808080" begin="zoomminus.mouseover" end="zoomminus.mouseout"/>
                        </use>
                        <path d="M-4,0h8" fill="none" stroke="white" stroke-width="1.5" pointer-events="none"/>
                </g>
                <g id="dirArrow">
                        <path fill="none" stroke="white" stroke-width="1.5" d="M0,-3.0v7 M-2.5,-0.5L0,-3.0L2.5,-0.5"/>
                </g>
               <g id="resetDef">
                       <use xlink:href="#rim2" fill="#404040">
                               <set attributeName="fill" to="#808080" begin="reset.mouseover" end="reset.mouseout"/>
                       </use>
               </g>
        </defs>

<script type="text/javascript">
var viewWidth = 229;
var viewHeight = 529;
var sectionId = 'dynsection-0';
</script>
<script xlink:href="../../svgpan.js"/>
<svg id="graph" class="graph">
<g id="viewport">
<title>C2M2.Simulation.Simulation&lt; ValueType, VizType, RaycastType, GrabType &gt;</title>
<polygon fill="white" stroke="transparent" points="-4,4 -4,-525 225,-525 225,4 -4,4"/>
<!-- Node1 -->
<g id="node1" class="node">
<title>Node1</title>
<g id="a_node1"><a xlink:title="Provides an base interface for simulations using a general data type T">
<polygon fill="#bfbfbf" stroke="black" points="0,-0.5 0,-299.5 221,-299.5 221,-0.5 0,-0.5"/>
<text text-anchor="start" x="8" y="-287.5" font-family="Courier New" font-size="10.00">C2M2.Simulation.Simulation</text>
<text text-anchor="start" x="8" y="-276.5" font-family="Courier New" font-size="10.00">&lt; ValueType, VizType, RaycastType,</text>
<text text-anchor="middle" x="110.5" y="-265.5" font-family="Courier New" font-size="10.00"> GrabType &gt;</text>
<polyline fill="none" stroke="black" points="0,-258.5 221,-258.5 "/>
<text text-anchor="start" x="8" y="-246.5" font-family="Courier New" font-size="10.00">+ dryRun</text>
<text text-anchor="start" x="8" y="-235.5" font-family="Courier New" font-size="10.00">+ startOnAwake</text>
<text text-anchor="start" x="8" y="-224.5" font-family="Courier New" font-size="10.00">+ viz</text>
<text text-anchor="start" x="8" y="-213.5" font-family="Courier New" font-size="10.00"># mutex</text>
<text text-anchor="start" x="8" y="-202.5" font-family="Courier New" font-size="10.00">&#45; solveThread</text>
<polyline fill="none" stroke="black" points="0,-195.5 221,-195.5 "/>
<text text-anchor="start" x="8" y="-183.5" font-family="Courier New" font-size="10.00">+ GetValues()</text>
<text text-anchor="start" x="8" y="-172.5" font-family="Courier New" font-size="10.00">+ Initialize()</text>
<text text-anchor="start" x="8" y="-161.5" font-family="Courier New" font-size="10.00">+ Update()</text>
<text text-anchor="start" x="8" y="-150.5" font-family="Courier New" font-size="10.00">+ StartSimulation()</text>
<text text-anchor="start" x="8" y="-139.5" font-family="Courier New" font-size="10.00">+ StopSimulation()</text>
<text text-anchor="start" x="8" y="-128.5" font-family="Courier New" font-size="10.00"># BuildVisualization()</text>
<text text-anchor="start" x="8" y="-117.5" font-family="Courier New" font-size="10.00"># UpdateVisualization()</text>
<text text-anchor="start" x="8" y="-106.5" font-family="Courier New" font-size="10.00"># Solve()</text>
<text text-anchor="start" x="8" y="-95.5" font-family="Courier New" font-size="10.00"># PreSolve()</text>
<text text-anchor="start" x="8" y="-84.5" font-family="Courier New" font-size="10.00"># OnAwakePre()</text>
<text text-anchor="start" x="8" y="-73.5" font-family="Courier New" font-size="10.00"># OnAwakePost()</text>
<text text-anchor="start" x="8" y="-62.5" font-family="Courier New" font-size="10.00"># OnStart()</text>
<text text-anchor="start" x="8" y="-51.5" font-family="Courier New" font-size="10.00"># OnUpdate()</text>
<text text-anchor="start" x="8" y="-40.5" font-family="Courier New" font-size="10.00"># OnPause()</text>
<text text-anchor="start" x="8" y="-29.5" font-family="Courier New" font-size="10.00"># OnQuit()</text>
<text text-anchor="start" x="8" y="-18.5" font-family="Courier New" font-size="10.00">&#45; OnApplicationPause()</text>
<text text-anchor="start" x="8" y="-7.5" font-family="Courier New" font-size="10.00">&#45; OnApplicationQuit()</text>
</a>
</g>
</g>
<!-- Node2 -->
<g id="node2" class="node">
<title>Node2</title>
<g id="a_node2"><a xlink:href="../../dc/daa/class_c2_m2_1_1_simulation_1_1_interactable.html" target="_top" xlink:title="Interface for interaction scripts">
<polygon fill="white" stroke="black" points="39,-336.5 39,-426.5 182,-426.5 182,-336.5 39,-336.5"/>
<text text-anchor="middle" x="110.5" y="-414.5" font-family="Courier New" font-size="10.00">Interactable</text>
<polyline fill="none" stroke="black" points="39,-407.5 182,-407.5 "/>
<text text-anchor="start" x="47" y="-395.5" font-family="Courier New" font-size="10.00">+ Heater</text>
<text text-anchor="start" x="47" y="-384.5" font-family="Courier New" font-size="10.00"># interactionType</text>
<text text-anchor="start" x="47" y="-373.5" font-family="Courier New" font-size="10.00">&#45; heater</text>
<polyline fill="none" stroke="black" points="39,-366.5 182,-366.5 "/>
<text text-anchor="start" x="47" y="-354.5" font-family="Courier New" font-size="10.00">+ SetValues()</text>
<text text-anchor="start" x="47" y="-343.5" font-family="Courier New" font-size="10.00">+ GetSimulationTime()</text>
</a>
</g>
</g>
<!-- Node2&#45;&gt;Node1 -->
<g id="edge1" class="edge">
<title>Node2&#45;&gt;Node1</title>
<path fill="none" stroke="midnightblue" d="M110.5,-326.03C110.5,-317.7 110.5,-308.77 110.5,-299.53"/>
<polygon fill="none" stroke="midnightblue" points="107,-326.25 110.5,-336.25 114,-326.25 107,-326.25"/>
</g>
<!-- Node3 -->
<g id="node3" class="node">
<title>Node3</title>
<g id="a_node3"><a xlink:title=" ">
<polygon fill="white" stroke="#bfbfbf" points="63,-463.5 63,-520.5 158,-520.5 158,-463.5 63,-463.5"/>
<text text-anchor="middle" x="110.5" y="-508.5" font-family="Courier New" font-size="10.00">MonoBehaviour</text>
<polyline fill="none" stroke="#bfbfbf" points="63,-501.5 158,-501.5 "/>
<text text-anchor="middle" x="110.5" y="-489.5" font-family="Courier New" font-size="10.00"> </text>
<polyline fill="none" stroke="#bfbfbf" points="63,-482.5 158,-482.5 "/>
<text text-anchor="middle" x="110.5" y="-470.5" font-family="Courier New" font-size="10.00"> </text>
</a>
</g>
</g>
<!-- Node3&#45;&gt;Node2 -->
<g id="edge2" class="edge">
<title>Node3&#45;&gt;Node2</title>
<path fill="none" stroke="midnightblue" d="M110.5,-453.21C110.5,-444.61 110.5,-435.39 110.5,-426.55"/>
<polygon fill="none" stroke="midnightblue" points="107,-453.34 110.5,-463.34 114,-453.34 107,-453.34"/>
</g>
</g>
</svg>
        <g id="navigator" transform="translate(0 0)" fill="#404254">
                <rect fill="#f2f5e9" fill-opacity="0.5" stroke="#606060" stroke-width=".5" x="0" y="0" width="60" height="60"/>
                <use id="zoomplus" xlink:href="#zoomPlus" x="17" y="9" onmousedown="handleZoom(evt,'in')"/>
                <use id="zoomminus" xlink:href="#zoomMin" x="42" y="9" onmousedown="handleZoom(evt,'out')"/>
                <use id="reset" xlink:href="#resetDef" x="30" y="36" onmousedown="handleReset()"/>
                <g id="arrowUp" xlink:href="#dirArrow" transform="translate(30 24)" onmousedown="handlePan(0,-1)">
                  <use xlink:href="#rim" fill="#404040">
                        <set attributeName="fill" to="#808080" begin="arrowUp.mouseover" end="arrowUp.mouseout"/>
                  </use>
                  <path fill="none" stroke="white" stroke-width="1.5" d="M0,-3.0v7 M-2.5,-0.5L0,-3.0L2.5,-0.5"/>
                </g>
                <g id="arrowRight" xlink:href="#dirArrow" transform="rotate(90) translate(36 -43)" onmousedown="handlePan(1,0)">
                  <use xlink:href="#rim" fill="#404040">
                        <set attributeName="fill" to="#808080" begin="arrowRight.mouseover" end="arrowRight.mouseout"/>
                  </use>
                  <path fill="none" stroke="white" stroke-width="1.5" d="M0,-3.0v7 M-2.5,-0.5L0,-3.0L2.5,-0.5"/>
                </g>
                <g id="arrowDown" xlink:href="#dirArrow" transform="rotate(180) translate(-30 -48)" onmousedown="handlePan(0,1)">
                  <use xlink:href="#rim" fill="#404040">
                        <set attributeName="fill" to="#808080" begin="arrowDown.mouseover" end="arrowDown.mouseout"/>
                  </use>
                  <path fill="none" stroke="white" stroke-width="1.5" d="M0,-3.0v7 M-2.5,-0.5L0,-3.0L2.5,-0.5"/>
                </g>
                <g id="arrowLeft" xlink:href="#dirArrow" transform="rotate(270) translate(-36 17)" onmousedown="handlePan(-1,0)">
                  <use xlink:href="#rim" fill="#404040">
                        <set attributeName="fill" to="#808080" begin="arrowLeft.mouseover" end="arrowLeft.mouseout"/>
                  </use>
                  <path fill="none" stroke="white" stroke-width="1.5" d="M0,-3.0v7 M-2.5,-0.5L0,-3.0L2.5,-0.5"/>
                </g>
        </g>
        <svg viewBox="0 0 15 15" width="100%" height="30px" preserveAspectRatio="xMaxYMin meet">
         <g id="arrow_out" transform="scale(0.3 0.3)">
          <a xlink:href="class_c2_m2_1_1_simulation_1_1_simulation__inherit__graph_org.svg" target="_base">
           <rect id="button" ry="5" rx="5" y="6" x="6" height="38" width="38"
                fill="#f2f5e9" fill-opacity="0.5" stroke="#606060" stroke-width="1.0"/>
           <path id="arrow"
             d="M 11.500037,31.436501 C 11.940474,20.09759 22.043105,11.32322 32.158766,21.979434 L 37.068811,17.246167 C 37.068811,17.246167 37.088388,32 37.088388,32 L 22.160133,31.978069 C 22.160133,31.978069 26.997745,27.140456 26.997745,27.140456 C 18.528582,18.264221 13.291696,25.230495 11.500037,31.436501 z"
             style="fill:#404040;"/>
          </a>
         </g>
        </svg>
</svg>
