<?xml version="1.0" encoding="UTF-8" standalone="no"?>
<!DOCTYPE svg PUBLIC "-//W3C//DTD SVG 1.1//EN"
 "http://www.w3.org/Graphics/SVG/1.1/DTD/svg11.dtd">
<!-- Generated by graphviz version 2.38.0 (20140413.2041)
 -->
<!-- Title: C2M2.Simulation.Simulation&lt; ValueType, VizType, RaycastType, GrabType &gt; Pages: 1 -->
<svg width="229pt" height="496pt"
 viewBox="0.00 0.00 229.00 496.00" xmlns="http://www.w3.org/2000/svg" xmlns:xlink="http://www.w3.org/1999/xlink">
<g id="graph0" class="graph" transform="scale(1 1) rotate(0) translate(4 492)">
<title>C2M2.Simulation.Simulation&lt; ValueType, VizType, RaycastType, GrabType &gt;</title>
<polygon fill="white" stroke="none" points="-4,4 -4,-492 225,-492 225,4 -4,4"/>
<!-- Node1 -->
<g id="node1" class="node"><title>Node1</title>
<g id="a_node1"><a xlink:title="Provides an base interface for simulations using a general data type T">
<polygon fill="#bfbfbf" stroke="black" points="0,-0.5 0,-277.5 221,-277.5 221,-0.5 0,-0.5"/>
<text text-anchor="start" x="8" y="-265.5" font-family="Courier New" font-size="10.00">C2M2.Simulation.Simulation</text>
<text text-anchor="start" x="8" y="-254.5" font-family="Courier New" font-size="10.00">&lt; ValueType, VizType, RaycastType,</text>
<text text-anchor="middle" x="110.5" y="-243.5" font-family="Courier New" font-size="10.00"> GrabType &gt;</text>
<polyline fill="none" stroke="black" points="0,-236.5 221,-236.5 "/>
<text text-anchor="start" x="8" y="-224.5" font-family="Courier New" font-size="10.00">+ dryRun</text>
<text text-anchor="start" x="8" y="-213.5" font-family="Courier New" font-size="10.00">+ startOnAwake</text>
<text text-anchor="start" x="8" y="-202.5" font-family="Courier New" font-size="10.00">+ viz</text>
<text text-anchor="start" x="8" y="-191.5" font-family="Courier New" font-size="10.00"># mutex</text>
<text text-anchor="start" x="8" y="-180.5" font-family="Courier New" font-size="10.00">&#45; solveThread</text>
<polyline fill="none" stroke="black" points="0,-173.5 221,-173.5 "/>
<text text-anchor="start" x="8" y="-161.5" font-family="Courier New" font-size="10.00">+ GetValues()</text>
<text text-anchor="start" x="8" y="-150.5" font-family="Courier New" font-size="10.00">+ StartSimulation()</text>
<text text-anchor="start" x="8" y="-139.5" font-family="Courier New" font-size="10.00">+ StopSimulation()</text>
<text text-anchor="start" x="8" y="-128.5" font-family="Courier New" font-size="10.00">+ Awake()</text>
<text text-anchor="start" x="8" y="-117.5" font-family="Courier New" font-size="10.00">+ Start()</text>
<text text-anchor="start" x="8" y="-106.5" font-family="Courier New" font-size="10.00">+ Update()</text>
<text text-anchor="start" x="8" y="-95.5" font-family="Courier New" font-size="10.00"># BuildVisualization()</text>
<text text-anchor="start" x="8" y="-84.5" font-family="Courier New" font-size="10.00"># ReadData()</text>
<text text-anchor="start" x="8" y="-73.5" font-family="Courier New" font-size="10.00"># UpdateVisualization()</text>
<text text-anchor="start" x="8" y="-62.5" font-family="Courier New" font-size="10.00"># Solve()</text>
<text text-anchor="start" x="8" y="-51.5" font-family="Courier New" font-size="10.00"># OnAwake()</text>
<text text-anchor="start" x="8" y="-40.5" font-family="Courier New" font-size="10.00"># OnStart()</text>
<text text-anchor="start" x="8" y="-29.5" font-family="Courier New" font-size="10.00"># OnUpdate()</text>
<text text-anchor="start" x="8" y="-18.5" font-family="Courier New" font-size="10.00">&#45; OnApplicationPause()</text>
<text text-anchor="start" x="8" y="-7.5" font-family="Courier New" font-size="10.00">&#45; OnApplicationQuit()</text>
</a>
</g>
</g>
<!-- Node2 -->
<g id="node2" class="node"><title>Node2</title>
<g id="a_node2"><a xlink:href="../../dc/daa/class_c2_m2_1_1_simulation_1_1_interactable.html" target="_top" xlink:title="Interface for interaction scripts">
<polygon fill="white" stroke="black" points="51,-314.5 51,-393.5 170,-393.5 170,-314.5 51,-314.5"/>
<text text-anchor="middle" x="110.5" y="-381.5" font-family="Courier New" font-size="10.00">Interactable</text>
<polyline fill="none" stroke="black" points="51,-374.5 170,-374.5 "/>
<text text-anchor="start" x="59" y="-362.5" font-family="Courier New" font-size="10.00">+ Heater</text>
<text text-anchor="start" x="59" y="-351.5" font-family="Courier New" font-size="10.00"># interactionType</text>
<text text-anchor="start" x="59" y="-340.5" font-family="Courier New" font-size="10.00">&#45; heater</text>
<polyline fill="none" stroke="black" points="51,-333.5 170,-333.5 "/>
<text text-anchor="start" x="59" y="-321.5" font-family="Courier New" font-size="10.00">+ SetValues()</text>
</a>
</g>
</g>
<!-- Node2&#45;&gt;Node1 -->
<g id="edge1" class="edge"><title>Node2&#45;&gt;Node1</title>
<path fill="none" stroke="midnightblue" d="M110.5,-304.304C110.5,-296.009 110.5,-287.043 110.5,-277.727"/>
<polygon fill="none" stroke="midnightblue" points="107,-304.427 110.5,-314.427 114,-304.427 107,-304.427"/>
</g>
<!-- Node3 -->
<g id="node3" class="node"><title>Node3</title>
<g id="a_node3"><a xlink:title=" ">
<polygon fill="white" stroke="#bfbfbf" points="63,-430.5 63,-487.5 158,-487.5 158,-430.5 63,-430.5"/>
<text text-anchor="middle" x="110.5" y="-475.5" font-family="Courier New" font-size="10.00">MonoBehaviour</text>
<polyline fill="none" stroke="#bfbfbf" points="63,-468.5 158,-468.5 "/>
<text text-anchor="middle" x="110.5" y="-456.5" font-family="Courier New" font-size="10.00"> </text>
<polyline fill="none" stroke="#bfbfbf" points="63,-449.5 158,-449.5 "/>
<text text-anchor="middle" x="110.5" y="-437.5" font-family="Courier New" font-size="10.00"> </text>
</a>
</g>
</g>
<!-- Node3&#45;&gt;Node2 -->
<g id="edge2" class="edge"><title>Node3&#45;&gt;Node2</title>
<path fill="none" stroke="midnightblue" d="M110.5,-420.156C110.5,-411.473 110.5,-402.232 110.5,-393.52"/>
<polygon fill="none" stroke="midnightblue" points="107,-420.398 110.5,-430.398 114,-420.398 107,-420.398"/>
</g>
</g>
</svg>
