<?xml version="1.0" encoding="UTF-8" standalone="no"?>
<!DOCTYPE svg PUBLIC "-//W3C//DTD SVG 1.1//EN"
 "http://www.w3.org/Graphics/SVG/1.1/DTD/svg11.dtd">
<!-- Generated by graphviz version 2.38.0 (20140413.2041)
 -->
<!-- Title: C2M2.Simulation.Samples.CombinedMeshSimulation Pages: 1 -->
<svg width="169pt" height="573pt"
 viewBox="0.00 0.00 169.00 573.00" xmlns="http://www.w3.org/2000/svg" xmlns:xlink="http://www.w3.org/1999/xlink">
<g id="graph0" class="graph" transform="scale(1 1) rotate(0) translate(4 569)">
<title>C2M2.Simulation.Samples.CombinedMeshSimulation</title>
<polygon fill="white" stroke="none" points="-4,4 -4,-569 165,-569 165,4 -4,4"/>
<!-- Node1 -->
<g id="node1" class="node"><title>Node1</title>
<g id="a_node1"><a xlink:title="Run a blank ScalarFieldSimulation using every MeshRenderer childed under this script">
<polygon fill="#bfbfbf" stroke="black" points="0,-0.5 0,-123.5 161,-123.5 161,-0.5 0,-0.5"/>
<text text-anchor="start" x="8" y="-111.5" font-family="Courier New" font-size="10.00">C2M2.Simulation.Samples.</text>
<text text-anchor="middle" x="80.5" y="-100.5" font-family="Courier New" font-size="10.00">CombinedMeshSimulation</text>
<polyline fill="none" stroke="black" points="0,-93.5 161,-93.5 "/>
<text text-anchor="start" x="8" y="-81.5" font-family="Courier New" font-size="10.00">&#45; values</text>
<polyline fill="none" stroke="black" points="0,-74.5 161,-74.5 "/>
<text text-anchor="start" x="8" y="-62.5" font-family="Courier New" font-size="10.00">+ GetValues()</text>
<text text-anchor="start" x="8" y="-51.5" font-family="Courier New" font-size="10.00">+ SetValues()</text>
<text text-anchor="start" x="8" y="-40.5" font-family="Courier New" font-size="10.00"># BuildMesh()</text>
<text text-anchor="start" x="8" y="-29.5" font-family="Courier New" font-size="10.00"># Solve()</text>
<text text-anchor="start" x="8" y="-18.5" font-family="Courier New" font-size="10.00">&#45; CombineMeshes()</text>
<text text-anchor="start" x="8" y="-7.5" font-family="Courier New" font-size="10.00">&#45; CombineMeshes()</text>
</a>
</g>
</g>
<!-- Node2 -->
<g id="node2" class="node"><title>Node2</title>
<g id="a_node2"><a xlink:href="../../d4/de1/class_c2_m2_1_1_simulation_1_1_surface_simulation.html" target="_top" xlink:title="Simulation of type double[] for visualizing scalar fields on mesh surfaces">
<polygon fill="white" stroke="black" points="3,-160.5 3,-316.5 158,-316.5 158,-160.5 3,-160.5"/>
<text text-anchor="middle" x="80.5" y="-304.5" font-family="Courier New" font-size="10.00">SurfaceSimulation</text>
<polyline fill="none" stroke="black" points="3,-297.5 158,-297.5 "/>
<text text-anchor="start" x="11" y="-285.5" font-family="Courier New" font-size="10.00">+ gradient</text>
<text text-anchor="start" x="11" y="-274.5" font-family="Courier New" font-size="10.00">+ extremaMethod</text>
<text text-anchor="start" x="11" y="-263.5" font-family="Courier New" font-size="10.00">+ globalMax</text>
<text text-anchor="start" x="11" y="-252.5" font-family="Courier New" font-size="10.00">+ globalMin</text>
<text text-anchor="start" x="11" y="-241.5" font-family="Courier New" font-size="10.00">+ colorLUT</text>
<text text-anchor="start" x="11" y="-230.5" font-family="Courier New" font-size="10.00">&#45; mf</text>
<text text-anchor="start" x="11" y="-219.5" font-family="Courier New" font-size="10.00">&#45; mr</text>
<polyline fill="none" stroke="black" points="3,-212.5 158,-212.5 "/>
<text text-anchor="start" x="11" y="-200.5" font-family="Courier New" font-size="10.00"># BuildMesh()</text>
<text text-anchor="start" x="11" y="-189.5" font-family="Courier New" font-size="10.00"># UpdateVisualization()</text>
<text text-anchor="start" x="11" y="-178.5" font-family="Courier New" font-size="10.00"># OnAwake()</text>
<text text-anchor="start" x="11" y="-167.5" font-family="Courier New" font-size="10.00">&#45; UpdateVisualization()</text>
</a>
</g>
</g>
<!-- Node2&#45;&gt;Node1 -->
<g id="edge1" class="edge"><title>Node2&#45;&gt;Node1</title>
<path fill="none" stroke="midnightblue" d="M80.5,-150.302C80.5,-141.291 80.5,-132.28 80.5,-123.653"/>
<polygon fill="none" stroke="midnightblue" points="77.0001,-150.454 80.5,-160.454 84.0001,-150.454 77.0001,-150.454"/>
</g>
<!-- Node3 -->
<g id="node3" class="node"><title>Node3</title>
<g id="a_node3"><a xlink:href="../../db/d39/class_c2_m2_1_1_simulation_1_1_simulation.html" target="_top" xlink:title=" ">
<polygon fill="white" stroke="black" points="3,-353.5 3,-564.5 158,-564.5 158,-353.5 3,-353.5"/>
<text text-anchor="middle" x="80.5" y="-552.5" font-family="Courier New" font-size="10.00">Simulation&lt; double[]&gt;</text>
<polyline fill="none" stroke="black" points="3,-545.5 158,-545.5 "/>
<text text-anchor="start" x="11" y="-533.5" font-family="Courier New" font-size="10.00">+ startOnAwake</text>
<text text-anchor="start" x="11" y="-522.5" font-family="Courier New" font-size="10.00"># mutex</text>
<text text-anchor="start" x="11" y="-511.5" font-family="Courier New" font-size="10.00">&#45; solveThread</text>
<polyline fill="none" stroke="black" points="3,-504.5 158,-504.5 "/>
<text text-anchor="start" x="11" y="-492.5" font-family="Courier New" font-size="10.00">+ GetValues()</text>
<text text-anchor="start" x="11" y="-481.5" font-family="Courier New" font-size="10.00">+ Awake()</text>
<text text-anchor="start" x="11" y="-470.5" font-family="Courier New" font-size="10.00">+ Start()</text>
<text text-anchor="start" x="11" y="-459.5" font-family="Courier New" font-size="10.00">+ Update()</text>
<text text-anchor="start" x="11" y="-448.5" font-family="Courier New" font-size="10.00">+ StartSimulation()</text>
<text text-anchor="start" x="11" y="-437.5" font-family="Courier New" font-size="10.00">+ StopSimulation()</text>
<text text-anchor="start" x="11" y="-426.5" font-family="Courier New" font-size="10.00"># UpdateVisualization()</text>
<text text-anchor="start" x="11" y="-415.5" font-family="Courier New" font-size="10.00"># OnAwake()</text>
<text text-anchor="start" x="11" y="-404.5" font-family="Courier New" font-size="10.00"># OnStart()</text>
<text text-anchor="start" x="11" y="-393.5" font-family="Courier New" font-size="10.00"># OnUpdate()</text>
<text text-anchor="start" x="11" y="-382.5" font-family="Courier New" font-size="10.00"># Solve()</text>
<text text-anchor="start" x="11" y="-371.5" font-family="Courier New" font-size="10.00">&#45; OnApplicationPause()</text>
<text text-anchor="start" x="11" y="-360.5" font-family="Courier New" font-size="10.00">&#45; OnApplicationQuit()</text>
</a>
</g>
</g>
<!-- Node3&#45;&gt;Node2 -->
<g id="edge2" class="edge"><title>Node3&#45;&gt;Node2</title>
<path fill="none" stroke="midnightblue" d="M80.5,-343.073C80.5,-334.085 80.5,-325.148 80.5,-316.507"/>
<polygon fill="none" stroke="midnightblue" points="77.0001,-343.23 80.5,-353.23 84.0001,-343.23 77.0001,-343.23"/>
</g>
</g>
</svg>
