<?xml version="1.0" encoding="UTF-8" standalone="no"?>
<!DOCTYPE svg PUBLIC "-//W3C//DTD SVG 1.1//EN"
 "http://www.w3.org/Graphics/SVG/1.1/DTD/svg11.dtd">
<!-- Generated by graphviz version 2.38.0 (20140413.2041)
 -->
<!-- Title: C2M2.Simulation.Interactable Pages: 1 -->
<svg width="465pt" height="365pt"
 viewBox="0.00 0.00 465.00 365.00" xmlns="http://www.w3.org/2000/svg" xmlns:xlink="http://www.w3.org/1999/xlink">
<g id="graph0" class="graph" transform="scale(1 1) rotate(0) translate(4 361)">
<title>C2M2.Simulation.Interactable</title>
<polygon fill="white" stroke="none" points="-4,4 -4,-361 461,-361 461,4 -4,4"/>
<!-- Node1 -->
<g id="node1" class="node"><title>Node1</title>
<g id="a_node1"><a xlink:title="Manages interaction input to simulations">
<polygon fill="#bfbfbf" stroke="black" points="0,-171.5 0,-239.5 185,-239.5 185,-171.5 0,-171.5"/>
<text text-anchor="middle" x="92.5" y="-227.5" font-family="Courier New" font-size="10.00">C2M2.Simulation.Interactable</text>
<polyline fill="none" stroke="black" points="0,-220.5 185,-220.5 "/>
<text text-anchor="start" x="8" y="-208.5" font-family="Courier New" font-size="10.00">+ interactionType</text>
<text text-anchor="start" x="8" y="-197.5" font-family="Courier New" font-size="10.00">+ SimHeater</text>
<polyline fill="none" stroke="black" points="0,-190.5 185,-190.5 "/>
<text text-anchor="start" x="8" y="-178.5" font-family="Courier New" font-size="10.00">+ SetValues()</text>
</a>
</g>
</g>
<!-- Node3 -->
<g id="node3" class="node"><title>Node3</title>
<g id="a_node3"><a xlink:href="../../d4/dfc/class_c2_m2_1_1_interaction_1_1_raycast_sim_heater.html" target="_top" xlink:title=" ">
<polygon fill="white" stroke="black" points="92,-0.5 92,-101.5 253,-101.5 253,-0.5 92,-0.5"/>
<text text-anchor="start" x="100" y="-89.5" font-family="Courier New" font-size="10.00">C2M2.Interaction.Raycast</text>
<text text-anchor="middle" x="172.5" y="-78.5" font-family="Courier New" font-size="10.00">SimHeater</text>
<polyline fill="none" stroke="black" points="92,-71.5 253,-71.5 "/>
<text text-anchor="middle" x="172.5" y="-59.5" font-family="Courier New" font-size="10.00"> </text>
<polyline fill="none" stroke="black" points="92,-52.5 253,-52.5 "/>
<text text-anchor="start" x="100" y="-40.5" font-family="Courier New" font-size="10.00">+ Hit()</text>
<text text-anchor="start" x="100" y="-29.5" font-family="Courier New" font-size="10.00"># OnAwake()</text>
<text text-anchor="start" x="100" y="-18.5" font-family="Courier New" font-size="10.00"># HitMethod()</text>
<text text-anchor="start" x="100" y="-7.5" font-family="Courier New" font-size="10.00">&#45; Awake()</text>
</a>
</g>
</g>
<!-- Node1&#45;&gt;Node3 -->
<g id="edge6" class="edge"><title>Node1&#45;&gt;Node3</title>
<path fill="none" stroke="#404040" d="M60.8427,-171.381C49.6014,-155.531 41.8654,-136.466 51.5,-120 58.8681,-107.407 69.5194,-96.9674 81.4887,-88.3665"/>
<polygon fill="none" stroke="#404040" points="81.7888,-88.1689 84.5988,-81.5278 91.8098,-81.5674 88.9998,-88.2085 81.7888,-88.1689"/>
<text text-anchor="middle" x="88" y="-123" font-family="Courier New" font-size="10.00"> #simulation</text>
</g>
<!-- Node2 -->
<g id="node2" class="node"><title>Node2</title>
<g id="a_node2"><a xlink:title=" ">
<polygon fill="white" stroke="#bfbfbf" points="166,-299.5 166,-356.5 261,-356.5 261,-299.5 166,-299.5"/>
<text text-anchor="middle" x="213.5" y="-344.5" font-family="Courier New" font-size="10.00">MonoBehaviour</text>
<polyline fill="none" stroke="#bfbfbf" points="166,-337.5 261,-337.5 "/>
<text text-anchor="middle" x="213.5" y="-325.5" font-family="Courier New" font-size="10.00"> </text>
<polyline fill="none" stroke="#bfbfbf" points="166,-318.5 261,-318.5 "/>
<text text-anchor="middle" x="213.5" y="-306.5" font-family="Courier New" font-size="10.00"> </text>
</a>
</g>
</g>
<!-- Node2&#45;&gt;Node1 -->
<g id="edge1" class="edge"><title>Node2&#45;&gt;Node1</title>
<path fill="none" stroke="midnightblue" d="M178.358,-292.004C161.766,-275.479 142.066,-255.861 125.724,-239.587"/>
<polygon fill="none" stroke="midnightblue" points="176.185,-294.778 185.74,-299.355 181.124,-289.818 176.185,-294.778"/>
</g>
<!-- Node2&#45;&gt;Node3 -->
<g id="edge3" class="edge"><title>Node2&#45;&gt;Node3</title>
<path fill="none" stroke="midnightblue" d="M214.426,-289.462C214.662,-247.601 212.667,-178.131 199.5,-120 198.125,-113.93 196.287,-107.692 194.214,-101.573"/>
<polygon fill="none" stroke="midnightblue" points="210.926,-289.451 214.323,-299.486 217.925,-289.523 210.926,-289.451"/>
</g>
<!-- Node4 -->
<g id="node4" class="node"><title>Node4</title>
<g id="a_node4"><a xlink:href="../../d5/d84/class_c2_m2_1_1_interaction_1_1_v_r_1_1_v_r_raycastable.html" target="_top" xlink:title=" ">
<polygon fill="white" stroke="black" points="242,-149.5 242,-261.5 457,-261.5 457,-149.5 242,-149.5"/>
<text text-anchor="middle" x="349.5" y="-249.5" font-family="Courier New" font-size="10.00">C2M2.Interaction.VR.VRRaycastable</text>
<polyline fill="none" stroke="black" points="242,-242.5 457,-242.5 "/>
<text text-anchor="start" x="250" y="-230.5" font-family="Courier New" font-size="10.00">+ raycastTargetObject</text>
<text text-anchor="start" x="250" y="-219.5" font-family="Courier New" font-size="10.00">+ ColliderMesh</text>
<text text-anchor="start" x="250" y="-208.5" font-family="Courier New" font-size="10.00">&#45; colliderMesh</text>
<polyline fill="none" stroke="black" points="242,-201.5 457,-201.5 "/>
<text text-anchor="start" x="250" y="-189.5" font-family="Courier New" font-size="10.00">&#45; Awake()</text>
<text text-anchor="start" x="250" y="-178.5" font-family="Courier New" font-size="10.00">&#45; BuildChildObject()</text>
<text text-anchor="start" x="250" y="-167.5" font-family="Courier New" font-size="10.00">&#45; BuildRigidBody()</text>
<text text-anchor="start" x="250" y="-156.5" font-family="Courier New" font-size="10.00">&#45; BuildMeshCollider()</text>
</a>
</g>
</g>
<!-- Node2&#45;&gt;Node4 -->
<g id="edge5" class="edge"><title>Node2&#45;&gt;Node4</title>
<path fill="none" stroke="midnightblue" d="M252.405,-292.529C263.312,-282.865 275.45,-272.111 287.347,-261.569"/>
<polygon fill="none" stroke="midnightblue" points="249.865,-290.104 244.701,-299.355 254.507,-295.343 249.865,-290.104"/>
</g>
<!-- Node3&#45;&gt;Node1 -->
<g id="edge2" class="edge"><title>Node3&#45;&gt;Node1</title>
<path fill="none" stroke="#404040" d="M142.495,-101.846C139.044,-107.917 135.64,-114.069 132.5,-120 125.686,-132.87 118.736,-147.097 112.581,-160.15"/>
<polygon fill="none" stroke="#404040" points="112.473,-160.38 113.562,-167.509 107.4,-171.255 106.312,-164.127 112.473,-160.38"/>
<text text-anchor="middle" x="166" y="-123" font-family="Courier New" font-size="10.00"> #simHeater</text>
</g>
<!-- Node4&#45;&gt;Node3 -->
<g id="edge4" class="edge"><title>Node4&#45;&gt;Node3</title>
<path fill="none" stroke="#404040" d="M285.599,-149.444C270.592,-136.515 254.561,-122.702 239.426,-109.662"/>
<polygon fill="none" stroke="#404040" points="239.226,-109.49 232.07,-108.604 230.135,-101.657 237.292,-102.543 239.226,-109.49"/>
<text text-anchor="middle" x="301" y="-123" font-family="Courier New" font-size="10.00"> #raycastable</text>
</g>
</g>
</svg>
