<?xml version="1.0" encoding="UTF-8" standalone="no"?>
<!DOCTYPE svg PUBLIC "-//W3C//DTD SVG 1.1//EN"
 "http://www.w3.org/Graphics/SVG/1.1/DTD/svg11.dtd">
<!-- Generated by graphviz version 2.38.0 (20140413.2041)
 -->
<!-- Title: C2M2.NeuronalDynamics.Simulation.CellSolver2FullAP Pages: 1 -->
<svg width="515pt" height="1323pt"
 viewBox="0.00 0.00 514.50 1323.00" xmlns="http://www.w3.org/2000/svg" xmlns:xlink="http://www.w3.org/1999/xlink">
<g id="graph0" class="graph" transform="scale(1 1) rotate(0) translate(4 1319)">
<title>C2M2.NeuronalDynamics.Simulation.CellSolver2FullAP</title>
<polygon fill="white" stroke="none" points="-4,4 -4,-1319 510.5,-1319 510.5,4 -4,4"/>
<!-- Node1 -->
<g id="node1" class="node"><title>Node1</title>
<g id="a_node1"><a xlink:title=" ">
<polygon fill="#bfbfbf" stroke="black" points="159,-0.5 159,-453.5 374,-453.5 374,-0.5 159,-0.5"/>
<text text-anchor="start" x="167" y="-441.5" font-family="Courier New" font-size="10.00">C2M2.NeuronalDynamics.Simulation.</text>
<text text-anchor="middle" x="266.5" y="-430.5" font-family="Courier New" font-size="10.00">CellSolver2FullAP</text>
<polyline fill="none" stroke="black" points="159,-423.5 374,-423.5 "/>
<text text-anchor="start" x="167" y="-411.5" font-family="Courier New" font-size="10.00">+ res</text>
<text text-anchor="start" x="167" y="-400.5" font-family="Courier New" font-size="10.00">+ gk</text>
<text text-anchor="start" x="167" y="-389.5" font-family="Courier New" font-size="10.00">+ gna</text>
<text text-anchor="start" x="167" y="-378.5" font-family="Courier New" font-size="10.00">+ gl</text>
<text text-anchor="start" x="167" y="-367.5" font-family="Courier New" font-size="10.00">+ ek</text>
<text text-anchor="start" x="167" y="-356.5" font-family="Courier New" font-size="10.00">+ ena</text>
<text text-anchor="start" x="167" y="-345.5" font-family="Courier New" font-size="10.00">+ el</text>
<text text-anchor="start" x="167" y="-334.5" font-family="Courier New" font-size="10.00">+ cap</text>
<text text-anchor="start" x="167" y="-323.5" font-family="Courier New" font-size="10.00">+ ni</text>
<text text-anchor="start" x="167" y="-312.5" font-family="Courier New" font-size="10.00">+ nT</text>
<text text-anchor="start" x="167" y="-301.5" font-family="Courier New" font-size="10.00">+ endTime</text>
<text text-anchor="start" x="167" y="-290.5" font-family="Courier New" font-size="10.00">+ vstart</text>
<text text-anchor="start" x="167" y="-279.5" font-family="Courier New" font-size="10.00">&#45; U</text>
<text text-anchor="start" x="167" y="-268.5" font-family="Courier New" font-size="10.00">&#45; M</text>
<text text-anchor="start" x="167" y="-257.5" font-family="Courier New" font-size="10.00">&#45; N</text>
<text text-anchor="start" x="167" y="-246.5" font-family="Courier New" font-size="10.00">&#45; H</text>
<text text-anchor="start" x="167" y="-235.5" font-family="Courier New" font-size="10.00">&#45; i</text>
<text text-anchor="start" x="167" y="-224.5" font-family="Courier New" font-size="10.00">&#45; mi</text>
<text text-anchor="start" x="167" y="-213.5" font-family="Courier New" font-size="10.00">&#45; hi</text>
<polyline fill="none" stroke="black" points="159,-206.5 374,-206.5 "/>
<text text-anchor="start" x="167" y="-194.5" font-family="Courier New" font-size="10.00">+ initialConditions()</text>
<text text-anchor="start" x="167" y="-183.5" font-family="Courier New" font-size="10.00">+ boundaryConditions()</text>
<text text-anchor="start" x="167" y="-172.5" font-family="Courier New" font-size="10.00">+ setBC()</text>
<text text-anchor="start" x="167" y="-161.5" font-family="Courier New" font-size="10.00">+ updateBC()</text>
<text text-anchor="start" x="167" y="-150.5" font-family="Courier New" font-size="10.00"># SetNeuronCell()</text>
<text text-anchor="start" x="167" y="-139.5" font-family="Courier New" font-size="10.00"># Get1DValues()</text>
<text text-anchor="start" x="167" y="-128.5" font-family="Courier New" font-size="10.00"># Set1DValues()</text>
<text text-anchor="start" x="167" y="-117.5" font-family="Courier New" font-size="10.00"># Solve()</text>
<text text-anchor="start" x="167" y="-106.5" font-family="Courier New" font-size="10.00">&#45; reactF()</text>
<text text-anchor="start" x="167" y="-95.5" font-family="Courier New" font-size="10.00">&#45; fN()</text>
<text text-anchor="start" x="167" y="-84.5" font-family="Courier New" font-size="10.00">&#45; fM()</text>
<text text-anchor="start" x="167" y="-73.5" font-family="Courier New" font-size="10.00">&#45; fH()</text>
<text text-anchor="start" x="167" y="-62.5" font-family="Courier New" font-size="10.00">&#45; an()</text>
<text text-anchor="start" x="167" y="-51.5" font-family="Courier New" font-size="10.00">&#45; bn()</text>
<text text-anchor="start" x="167" y="-40.5" font-family="Courier New" font-size="10.00">&#45; am()</text>
<text text-anchor="start" x="167" y="-29.5" font-family="Courier New" font-size="10.00">&#45; bm()</text>
<text text-anchor="start" x="167" y="-18.5" font-family="Courier New" font-size="10.00">&#45; ah()</text>
<text text-anchor="start" x="167" y="-7.5" font-family="Courier New" font-size="10.00">&#45; bh()</text>
</a>
</g>
</g>
<!-- Node2 -->
<g id="node2" class="node"><title>Node2</title>
<g id="a_node2"><a xlink:href="../../d1/de3/class_c2_m2_1_1_neuronal_dynamics_1_1_simulation_1_1_neuron_simulation.html" target="_top" xlink:title="Provides base functionality for Neuron simulations">
<polygon fill="white" stroke="black" points="158,-529 158,-674 277,-674 277,-529 158,-529"/>
<text text-anchor="middle" x="217.5" y="-662" font-family="Courier New" font-size="10.00">NeuronSimulation</text>
<polyline fill="none" stroke="black" points="158,-655 277,-655 "/>
<text text-anchor="start" x="166" y="-643" font-family="Courier New" font-size="10.00">+ visualize1D</text>
<text text-anchor="start" x="166" y="-632" font-family="Courier New" font-size="10.00">+ color1D</text>
<text text-anchor="start" x="166" y="-621" font-family="Courier New" font-size="10.00">+ lineWidth1D</text>
<text text-anchor="start" x="166" y="-610" font-family="Courier New" font-size="10.00">&#45; map</text>
<polyline fill="none" stroke="black" points="158,-603 277,-603 "/>
<text text-anchor="start" x="166" y="-591" font-family="Courier New" font-size="10.00">+ GetValues()</text>
<text text-anchor="start" x="166" y="-580" font-family="Courier New" font-size="10.00">+ SetValues()</text>
<text text-anchor="start" x="166" y="-569" font-family="Courier New" font-size="10.00"># Set1DValues()</text>
<text text-anchor="start" x="166" y="-558" font-family="Courier New" font-size="10.00"># Get1DValues()</text>
<text text-anchor="start" x="166" y="-547" font-family="Courier New" font-size="10.00"># SetNeuronCell()</text>
<text text-anchor="start" x="166" y="-536" font-family="Courier New" font-size="10.00"># BuildMesh()</text>
</a>
</g>
</g>
<!-- Node2&#45;&gt;Node1 -->
<g id="edge1" class="edge"><title>Node2&#45;&gt;Node1</title>
<path fill="none" stroke="midnightblue" d="M228.278,-518.567C230.876,-498.813 233.779,-476.748 236.791,-453.846"/>
<polygon fill="none" stroke="midnightblue" points="224.782,-518.307 226.948,-528.678 231.722,-519.22 224.782,-518.307"/>
</g>
<!-- Node3 -->
<g id="node3" class="node"><title>Node3</title>
<g id="a_node3"><a xlink:href="../../d4/de1/class_c2_m2_1_1_simulation_1_1_surface_simulation.html" target="_top" xlink:title="Simulation of type double[] for visualizing scalar fields on mesh surfaces">
<polygon fill="white" stroke="black" points="16,-815.5 16,-960.5 171,-960.5 171,-815.5 16,-815.5"/>
<text text-anchor="middle" x="93.5" y="-948.5" font-family="Courier New" font-size="10.00">SurfaceSimulation</text>
<polyline fill="none" stroke="black" points="16,-941.5 171,-941.5 "/>
<text text-anchor="start" x="24" y="-929.5" font-family="Courier New" font-size="10.00">+ gradient</text>
<text text-anchor="start" x="24" y="-918.5" font-family="Courier New" font-size="10.00">+ globalMax</text>
<text text-anchor="start" x="24" y="-907.5" font-family="Courier New" font-size="10.00">+ globalMin</text>
<text text-anchor="start" x="24" y="-896.5" font-family="Courier New" font-size="10.00">+ colorLUT</text>
<text text-anchor="start" x="24" y="-885.5" font-family="Courier New" font-size="10.00">&#45; mf</text>
<text text-anchor="start" x="24" y="-874.5" font-family="Courier New" font-size="10.00">&#45; mr</text>
<polyline fill="none" stroke="black" points="16,-867.5 171,-867.5 "/>
<text text-anchor="start" x="24" y="-855.5" font-family="Courier New" font-size="10.00"># BuildMesh()</text>
<text text-anchor="start" x="24" y="-844.5" font-family="Courier New" font-size="10.00"># UpdateVisualization()</text>
<text text-anchor="start" x="24" y="-833.5" font-family="Courier New" font-size="10.00"># OnAwake()</text>
<text text-anchor="start" x="24" y="-822.5" font-family="Courier New" font-size="10.00">&#45; UpdateVisualization()</text>
</a>
</g>
</g>
<!-- Node3&#45;&gt;Node2 -->
<g id="edge2" class="edge"><title>Node3&#45;&gt;Node2</title>
<path fill="none" stroke="midnightblue" d="M128.827,-805.948C146.915,-764.447 168.745,-714.36 186.22,-674.268"/>
<polygon fill="none" stroke="midnightblue" points="125.578,-804.643 124.79,-815.209 131.994,-807.44 125.578,-804.643"/>
</g>
<!-- Node4 -->
<g id="node4" class="node"><title>Node4</title>
<g id="a_node4"><a xlink:href="../../db/d39/class_c2_m2_1_1_simulation_1_1_simulation.html" target="_top" xlink:title=" ">
<polygon fill="white" stroke="black" points="0,-1008.5 0,-1219.5 155,-1219.5 155,-1008.5 0,-1008.5"/>
<text text-anchor="middle" x="77.5" y="-1207.5" font-family="Courier New" font-size="10.00">Simulation&lt; double[]&gt;</text>
<polyline fill="none" stroke="black" points="0,-1200.5 155,-1200.5 "/>
<text text-anchor="start" x="8" y="-1188.5" font-family="Courier New" font-size="10.00">+ startOnAwake</text>
<text text-anchor="start" x="8" y="-1177.5" font-family="Courier New" font-size="10.00"># mutex</text>
<text text-anchor="start" x="8" y="-1166.5" font-family="Courier New" font-size="10.00">&#45; solveThread</text>
<polyline fill="none" stroke="black" points="0,-1159.5 155,-1159.5 "/>
<text text-anchor="start" x="8" y="-1147.5" font-family="Courier New" font-size="10.00">+ GetValues()</text>
<text text-anchor="start" x="8" y="-1136.5" font-family="Courier New" font-size="10.00">+ Awake()</text>
<text text-anchor="start" x="8" y="-1125.5" font-family="Courier New" font-size="10.00">+ Start()</text>
<text text-anchor="start" x="8" y="-1114.5" font-family="Courier New" font-size="10.00">+ Update()</text>
<text text-anchor="start" x="8" y="-1103.5" font-family="Courier New" font-size="10.00">+ StartSimulation()</text>
<text text-anchor="start" x="8" y="-1092.5" font-family="Courier New" font-size="10.00">+ StopSimulation()</text>
<text text-anchor="start" x="8" y="-1081.5" font-family="Courier New" font-size="10.00"># UpdateVisualization()</text>
<text text-anchor="start" x="8" y="-1070.5" font-family="Courier New" font-size="10.00"># OnAwake()</text>
<text text-anchor="start" x="8" y="-1059.5" font-family="Courier New" font-size="10.00"># OnStart()</text>
<text text-anchor="start" x="8" y="-1048.5" font-family="Courier New" font-size="10.00"># OnUpdate()</text>
<text text-anchor="start" x="8" y="-1037.5" font-family="Courier New" font-size="10.00"># Solve()</text>
<text text-anchor="start" x="8" y="-1026.5" font-family="Courier New" font-size="10.00">&#45; OnApplicationPause()</text>
<text text-anchor="start" x="8" y="-1015.5" font-family="Courier New" font-size="10.00">&#45; OnApplicationQuit()</text>
</a>
</g>
</g>
<!-- Node4&#45;&gt;Node3 -->
<g id="edge3" class="edge"><title>Node4&#45;&gt;Node3</title>
<path fill="none" stroke="midnightblue" d="M85.7114,-998.041C86.6177,-985.353 87.5203,-972.716 88.3728,-960.781"/>
<polygon fill="none" stroke="midnightblue" points="82.2061,-997.99 84.9847,-1008.21 89.1884,-998.489 82.2061,-997.99"/>
</g>
<!-- Node5 -->
<g id="node5" class="node"><title>Node5</title>
<g id="a_node5"><a xlink:href="../../da/d4f/class_c2_m2_1_1_visualization_1_1_l_u_t_gradient.html" target="_top" xlink:title="Create a fast and memory&#45;friendly color lookup table from a gradient">
<polygon fill="white" stroke="black" points="173,-1030.5 173,-1197.5 370,-1197.5 370,-1030.5 173,-1030.5"/>
<text text-anchor="middle" x="271.5" y="-1185.5" font-family="Courier New" font-size="10.00">C2M2.Visualization.LUTGradient</text>
<polyline fill="none" stroke="black" points="173,-1178.5 370,-1178.5 "/>
<text text-anchor="start" x="181" y="-1166.5" font-family="Courier New" font-size="10.00">+ extremaMethod</text>
<text text-anchor="start" x="181" y="-1155.5" font-family="Courier New" font-size="10.00">+ globalMax</text>
<text text-anchor="start" x="181" y="-1144.5" font-family="Courier New" font-size="10.00">+ globalMin</text>
<text text-anchor="start" x="181" y="-1133.5" font-family="Courier New" font-size="10.00">+ LutRes</text>
<text text-anchor="start" x="181" y="-1122.5" font-family="Courier New" font-size="10.00">+ Gradient</text>
<text text-anchor="start" x="181" y="-1111.5" font-family="Courier New" font-size="10.00">+ gradientLUT</text>
<text text-anchor="start" x="181" y="-1100.5" font-family="Courier New" font-size="10.00">&#45; lutRes</text>
<text text-anchor="start" x="181" y="-1089.5" font-family="Courier New" font-size="10.00">&#45; gradient</text>
<polyline fill="none" stroke="black" points="173,-1082.5 370,-1082.5 "/>
<text text-anchor="start" x="181" y="-1070.5" font-family="Courier New" font-size="10.00">+ Evaluate()</text>
<text text-anchor="start" x="181" y="-1059.5" font-family="Courier New" font-size="10.00">+ Evaluate()</text>
<text text-anchor="start" x="181" y="-1048.5" font-family="Courier New" font-size="10.00">&#45; BuildLUT()</text>
<text text-anchor="start" x="181" y="-1037.5" font-family="Courier New" font-size="10.00">&#45; RescaleArray()</text>
</a>
</g>
</g>
<!-- Node5&#45;&gt;Node3 -->
<g id="edge4" class="edge"><title>Node5&#45;&gt;Node3</title>
<path fill="none" stroke="#404040" d="M205.725,-1030.23C190.15,-1010.63 173.555,-989.744 158.036,-970.214"/>
<polygon fill="none" stroke="#404040" points="157.979,-970.142 151.115,-967.933 150.514,-960.747 157.378,-962.956 157.979,-970.142"/>
<text text-anchor="middle" x="218" y="-982" font-family="Courier New" font-size="10.00"> +extremaMethod</text>
</g>
<!-- Node6 -->
<g id="node6" class="node"><title>Node6</title>
<g id="a_node6"><a xlink:title=" ">
<polygon fill="white" stroke="#bfbfbf" points="224,-1257.5 224,-1314.5 319,-1314.5 319,-1257.5 224,-1257.5"/>
<text text-anchor="middle" x="271.5" y="-1302.5" font-family="Courier New" font-size="10.00">MonoBehaviour</text>
<polyline fill="none" stroke="#bfbfbf" points="224,-1295.5 319,-1295.5 "/>
<text text-anchor="middle" x="271.5" y="-1283.5" font-family="Courier New" font-size="10.00"> </text>
<polyline fill="none" stroke="#bfbfbf" points="224,-1276.5 319,-1276.5 "/>
<text text-anchor="middle" x="271.5" y="-1264.5" font-family="Courier New" font-size="10.00"> </text>
</a>
</g>
</g>
<!-- Node6&#45;&gt;Node5 -->
<g id="edge5" class="edge"><title>Node6&#45;&gt;Node5</title>
<path fill="none" stroke="midnightblue" d="M271.5,-1247.15C271.5,-1232.48 271.5,-1215.06 271.5,-1197.77"/>
<polygon fill="none" stroke="midnightblue" points="268,-1247.31 271.5,-1257.31 275,-1247.31 268,-1247.31"/>
</g>
<!-- Node7 -->
<g id="node7" class="node"><title>Node7</title>
<g id="a_node7"><a xlink:title=" ">
<polygon fill="white" stroke="#bfbfbf" points="189,-859.5 189,-916.5 230,-916.5 230,-859.5 189,-859.5"/>
<text text-anchor="middle" x="209.5" y="-904.5" font-family="Courier New" font-size="10.00">C2M2</text>
<polyline fill="none" stroke="#bfbfbf" points="189,-897.5 230,-897.5 "/>
<text text-anchor="middle" x="209.5" y="-885.5" font-family="Courier New" font-size="10.00"> </text>
<polyline fill="none" stroke="#bfbfbf" points="189,-878.5 230,-878.5 "/>
<text text-anchor="middle" x="209.5" y="-866.5" font-family="Courier New" font-size="10.00"> </text>
</a>
</g>
</g>
<!-- Node7&#45;&gt;Node2 -->
<g id="edge6" class="edge"><title>Node7&#45;&gt;Node2</title>
<path fill="none" stroke="#404040" d="M209.212,-859.215C208.974,-826.066 208.896,-768.973 210.5,-720 210.856,-709.126 211.367,-697.692 211.953,-686.402"/>
<polygon fill="none" stroke="#404040" points="211.962,-686.224 208.294,-680.015 212.614,-674.241 216.282,-680.45 211.962,-686.224"/>
<text text-anchor="middle" x="235" y="-756" font-family="Courier New" font-size="10.00"> #grid1D</text>
</g>
<!-- Node8 -->
<g id="node8" class="node"><title>Node8</title>
<g id="a_node8"><a xlink:title=" ">
<polygon fill="white" stroke="#bfbfbf" points="318,-859.5 318,-916.5 371,-916.5 371,-859.5 318,-859.5"/>
<text text-anchor="middle" x="344.5" y="-904.5" font-family="Courier New" font-size="10.00">static</text>
<polyline fill="none" stroke="#bfbfbf" points="318,-897.5 371,-897.5 "/>
<text text-anchor="middle" x="344.5" y="-885.5" font-family="Courier New" font-size="10.00"> </text>
<polyline fill="none" stroke="#bfbfbf" points="318,-878.5 371,-878.5 "/>
<text text-anchor="middle" x="344.5" y="-866.5" font-family="Courier New" font-size="10.00"> </text>
</a>
</g>
</g>
<!-- Node8&#45;&gt;Node2 -->
<g id="edge7" class="edge"><title>Node8&#45;&gt;Node2</title>
<path fill="none" stroke="#404040" d="M319.703,-859.245C305.762,-842.319 289.086,-819.643 278.5,-797 263.571,-765.069 269.667,-753.75 259.5,-720 256.126,-708.799 252.306,-697.095 248.379,-685.599"/>
<polygon fill="none" stroke="#404040" points="248.358,-685.538 242.614,-681.178 244.429,-674.199 250.173,-678.559 248.358,-685.538"/>
<text text-anchor="middle" x="330" y="-789" font-family="Courier New" font-size="10.00"> &#45;specTris</text>
<text text-anchor="middle" x="330" y="-778" font-family="Courier New" font-size="10.00">&#45;activeCellFolder</text>
<text text-anchor="middle" x="330" y="-767" font-family="Courier New" font-size="10.00">&#45;neuronCellFolder</text>
<text text-anchor="middle" x="330" y="-756" font-family="Courier New" font-size="10.00">&#45;cngExt</text>
<text text-anchor="middle" x="330" y="-745" font-family="Courier New" font-size="10.00">&#45;specBlownup</text>
<text text-anchor="middle" x="330" y="-734" font-family="Courier New" font-size="10.00">&#45;spec1D</text>
<text text-anchor="middle" x="330" y="-723" font-family="Courier New" font-size="10.00">&#45;ugxExt</text>
</g>
<!-- Node9 -->
<g id="node9" class="node"><title>Node9</title>
<g id="a_node9"><a xlink:href="../../da/df6/class_c2_m2_1_1_neuronal_dynamics_1_1_u_g_x_1_1_neuron_cell.html" target="_top" xlink:title=" ">
<polygon fill="white" stroke="black" points="312,-501.5 312,-701.5 485,-701.5 485,-501.5 312,-501.5"/>
<text text-anchor="start" x="320" y="-689.5" font-family="Courier New" font-size="10.00">C2M2.NeuronalDynamics.UGX.</text>
<text text-anchor="middle" x="398.5" y="-678.5" font-family="Courier New" font-size="10.00">NeuronCell</text>
<polyline fill="none" stroke="black" points="312,-671.5 485,-671.5 "/>
<text text-anchor="start" x="320" y="-659.5" font-family="Courier New" font-size="10.00">+ nodeData</text>
<text text-anchor="start" x="320" y="-648.5" font-family="Courier New" font-size="10.00">+ edges</text>
<text text-anchor="start" x="320" y="-637.5" font-family="Courier New" font-size="10.00">+ edgeLengths</text>
<text text-anchor="start" x="320" y="-626.5" font-family="Courier New" font-size="10.00">+ boundaryID</text>
<text text-anchor="start" x="320" y="-615.5" font-family="Courier New" font-size="10.00">+ somaID</text>
<text text-anchor="start" x="320" y="-604.5" font-family="Courier New" font-size="10.00">+ vertCount</text>
<text text-anchor="start" x="320" y="-593.5" font-family="Courier New" font-size="10.00">+ edgeCount</text>
<polyline fill="none" stroke="black" points="312,-586.5 485,-586.5 "/>
<text text-anchor="start" x="320" y="-574.5" font-family="Courier New" font-size="10.00">+ NeuronCell()</text>
<text text-anchor="start" x="320" y="-563.5" font-family="Courier New" font-size="10.00">+ ReadDataTable()</text>
<text text-anchor="start" x="320" y="-552.5" font-family="Courier New" font-size="10.00">+ NodeToString()</text>
<text text-anchor="start" x="320" y="-541.5" font-family="Courier New" font-size="10.00">+ EdgeToString()</text>
<text text-anchor="start" x="320" y="-530.5" font-family="Courier New" font-size="10.00">+ ToString()</text>
<text text-anchor="start" x="320" y="-519.5" font-family="Courier New" font-size="10.00">&#45; NodeNeighborsToString()</text>
<text text-anchor="start" x="320" y="-508.5" font-family="Courier New" font-size="10.00">&#45; GetEdgeLength()</text>
</a>
</g>
</g>
<!-- Node8&#45;&gt;Node9 -->
<g id="edge9" class="edge"><title>Node8&#45;&gt;Node9</title>
<path fill="none" stroke="#404040" d="M360.344,-859.181C369.391,-841.865 379.998,-818.809 385.5,-797 392.206,-770.416 395.97,-741.18 397.981,-713.632"/>
<polygon fill="none" stroke="#404040" points="397.99,-713.502 394.385,-707.257 398.763,-701.527 402.368,-707.772 397.99,-713.502"/>
<text text-anchor="middle" x="452" y="-767" font-family="Courier New" font-size="10.00"> &#45;nodeFormatString</text>
<text text-anchor="middle" x="452" y="-756" font-family="Courier New" font-size="10.00">&#45;edgeFormatString</text>
<text text-anchor="middle" x="452" y="-745" font-family="Courier New" font-size="10.00">&#45;cellFormatString</text>
</g>
<!-- Node9&#45;&gt;Node1 -->
<g id="edge8" class="edge"><title>Node9&#45;&gt;Node1</title>
<path fill="none" stroke="#404040" d="M363.3,-501.166C359.207,-489.615 354.91,-477.49 350.497,-465.036"/>
<polygon fill="none" stroke="#404040" points="350.422,-464.825 344.648,-460.506 346.414,-453.514 352.188,-457.834 350.422,-464.825"/>
<text text-anchor="middle" x="381" y="-475" font-family="Courier New" font-size="10.00"> &#45;myCell</text>
</g>
</g>
</svg>
