<?xml version="1.0" encoding="UTF-8" standalone="no"?>
<!DOCTYPE svg PUBLIC "-//W3C//DTD SVG 1.1//EN"
 "http://www.w3.org/Graphics/SVG/1.1/DTD/svg11.dtd">
<!-- Generated by graphviz version 2.38.0 (20140413.2041)
 -->
<!-- Title: C2M2.NeuronalDynamics.Interaction.NDControlButton Pages: 1 -->
<svg width="229pt" height="287pt"
 viewBox="0.00 0.00 229.00 287.00" xmlns="http://www.w3.org/2000/svg" xmlns:xlink="http://www.w3.org/1999/xlink">
<g id="graph0" class="graph" transform="scale(1 1) rotate(0) translate(4 283)">
<title>C2M2.NeuronalDynamics.Interaction.NDControlButton</title>
<polygon fill="white" stroke="none" points="-4,4 -4,-283 225,-283 225,4 -4,4"/>
<!-- Node1 -->
<g id="node1" class="node"><title>Node1</title>
<g id="a_node1"><a xlink:title=" ">
<polygon fill="#bfbfbf" stroke="black" points="0,-116.5 0,-184.5 221,-184.5 221,-116.5 0,-116.5"/>
<text text-anchor="start" x="8" y="-172.5" font-family="Courier New" font-size="10.00">C2M2.NeuronalDynamics.Interaction.</text>
<text text-anchor="middle" x="110.5" y="-161.5" font-family="Courier New" font-size="10.00">NDControlButton</text>
<polyline fill="none" stroke="black" points="0,-154.5 221,-154.5 "/>
<text text-anchor="start" x="8" y="-142.5" font-family="Courier New" font-size="10.00">+ ndSimulation</text>
<polyline fill="none" stroke="black" points="0,-135.5 221,-135.5 "/>
<text text-anchor="middle" x="110.5" y="-123.5" font-family="Courier New" font-size="10.00"> </text>
</a>
</g>
</g>
<!-- Node3 -->
<g id="node3" class="node"><title>Node3</title>
<g id="a_node3"><a xlink:href="../../d4/dde/class_c2_m2_1_1_neuronal_dynamics_1_1_interaction_1_1_switch_neuron_mesh.html" target="_top" xlink:title=" ">
<polygon fill="white" stroke="black" points="0,-0.5 0,-79.5 221,-79.5 221,-0.5 0,-0.5"/>
<text text-anchor="start" x="8" y="-67.5" font-family="Courier New" font-size="10.00">C2M2.NeuronalDynamics.Interaction.</text>
<text text-anchor="middle" x="110.5" y="-56.5" font-family="Courier New" font-size="10.00">SwitchNeuronMesh</text>
<polyline fill="none" stroke="black" points="0,-49.5 221,-49.5 "/>
<text text-anchor="start" x="8" y="-37.5" font-family="Courier New" font-size="10.00">+ changeViz</text>
<text text-anchor="start" x="8" y="-26.5" font-family="Courier New" font-size="10.00">+ inflation</text>
<polyline fill="none" stroke="black" points="0,-19.5 221,-19.5 "/>
<text text-anchor="start" x="8" y="-7.5" font-family="Courier New" font-size="10.00">+ Switch()</text>
</a>
</g>
</g>
<!-- Node1&#45;&gt;Node3 -->
<g id="edge2" class="edge"><title>Node1&#45;&gt;Node3</title>
<path fill="none" stroke="midnightblue" d="M110.5,-106.274C110.5,-97.4764 110.5,-88.2753 110.5,-79.6493"/>
<polygon fill="none" stroke="midnightblue" points="107,-106.357 110.5,-116.357 114,-106.357 107,-106.357"/>
</g>
<!-- Node2 -->
<g id="node2" class="node"><title>Node2</title>
<g id="a_node2"><a xlink:title=" ">
<polygon fill="white" stroke="#bfbfbf" points="63,-221.5 63,-278.5 158,-278.5 158,-221.5 63,-221.5"/>
<text text-anchor="middle" x="110.5" y="-266.5" font-family="Courier New" font-size="10.00">MonoBehaviour</text>
<polyline fill="none" stroke="#bfbfbf" points="63,-259.5 158,-259.5 "/>
<text text-anchor="middle" x="110.5" y="-247.5" font-family="Courier New" font-size="10.00"> </text>
<polyline fill="none" stroke="#bfbfbf" points="63,-240.5 158,-240.5 "/>
<text text-anchor="middle" x="110.5" y="-228.5" font-family="Courier New" font-size="10.00"> </text>
</a>
</g>
</g>
<!-- Node2&#45;&gt;Node1 -->
<g id="edge1" class="edge"><title>Node2&#45;&gt;Node1</title>
<path fill="none" stroke="midnightblue" d="M110.5,-211.063C110.5,-202.393 110.5,-193.243 110.5,-184.786"/>
<polygon fill="none" stroke="midnightblue" points="107,-211.321 110.5,-221.321 114,-211.321 107,-211.321"/>
</g>
</g>
</svg>
