<?xml version="1.0" encoding="UTF-8" standalone="no"?>
<!DOCTYPE svg PUBLIC "-//W3C//DTD SVG 1.1//EN"
 "http://www.w3.org/Graphics/SVG/1.1/DTD/svg11.dtd">
<!-- Generated by graphviz version 2.46.0 (20210118.1747)
 -->
<!-- Title: C2M2.NeuronalDynamics.Interaction.NDControlButton Pages: 1 -->
<svg width="468pt" height="287pt"
 viewBox="0.00 0.00 468.00 287.00" xmlns="http://www.w3.org/2000/svg" xmlns:xlink="http://www.w3.org/1999/xlink">
<g id="graph0" class="graph" transform="scale(1 1) rotate(0) translate(4 283)">
<title>C2M2.NeuronalDynamics.Interaction.NDControlButton</title>
<polygon fill="white" stroke="transparent" points="-4,4 -4,-283 464,-283 464,4 -4,4"/>
<!-- Node1 -->
<g id="node1" class="node">
<title>Node1</title>
<g id="a_node1"><a xlink:title=" ">
<polygon fill="#bfbfbf" stroke="black" points="119,-116.5 119,-184.5 340,-184.5 340,-116.5 119,-116.5"/>
<text text-anchor="start" x="127" y="-172.5" font-family="Courier New" font-size="10.00">C2M2.NeuronalDynamics.Interaction.</text>
<text text-anchor="middle" x="229.5" y="-161.5" font-family="Courier New" font-size="10.00">NDControlButton</text>
<polyline fill="none" stroke="black" points="119,-154.5 340,-154.5 "/>
<text text-anchor="start" x="127" y="-142.5" font-family="Courier New" font-size="10.00">+ ndSimulation</text>
<polyline fill="none" stroke="black" points="119,-135.5 340,-135.5 "/>
<text text-anchor="middle" x="229.5" y="-123.5" font-family="Courier New" font-size="10.00"> </text>
</a>
</g>
</g>
<!-- Node3 -->
<g id="node3" class="node">
<title>Node3</title>
<g id="a_node3"><a xlink:href="../../df/d26/class_c2_m2_1_1_neuronal_dynamics_1_1_interaction_1_1_n_d_clamp_mode_switch.html" target="_top" xlink:title=" ">
<polygon fill="white" stroke="black" points="0,-6 0,-74 221,-74 221,-6 0,-6"/>
<text text-anchor="start" x="8" y="-62" font-family="Courier New" font-size="10.00">C2M2.NeuronalDynamics.Interaction.</text>
<text text-anchor="middle" x="110.5" y="-51" font-family="Courier New" font-size="10.00">NDClampModeSwitch</text>
<polyline fill="none" stroke="black" points="0,-44 221,-44 "/>
<text text-anchor="middle" x="110.5" y="-32" font-family="Courier New" font-size="10.00"> </text>
<polyline fill="none" stroke="black" points="0,-25 221,-25 "/>
<text text-anchor="start" x="8" y="-13" font-family="Courier New" font-size="10.00">+ Toggle()</text>
</a>
</g>
</g>
<!-- Node1&#45;&gt;Node3 -->
<g id="edge2" class="edge">
<title>Node1&#45;&gt;Node3</title>
<path fill="none" stroke="midnightblue" d="M185.43,-109.32C172.8,-97.8 159.17,-85.37 147.04,-74.31"/>
<polygon fill="none" stroke="midnightblue" points="183.4,-112.21 193.15,-116.36 188.12,-107.03 183.4,-112.21"/>
</g>
<!-- Node4 -->
<g id="node4" class="node">
<title>Node4</title>
<g id="a_node4"><a xlink:href="../../d4/dde/class_c2_m2_1_1_neuronal_dynamics_1_1_interaction_1_1_switch_neuron_mesh.html" target="_top" xlink:title=" ">
<polygon fill="white" stroke="black" points="239,-0.5 239,-79.5 460,-79.5 460,-0.5 239,-0.5"/>
<text text-anchor="start" x="247" y="-67.5" font-family="Courier New" font-size="10.00">C2M2.NeuronalDynamics.Interaction.</text>
<text text-anchor="middle" x="349.5" y="-56.5" font-family="Courier New" font-size="10.00">SwitchNeuronMesh</text>
<polyline fill="none" stroke="black" points="239,-49.5 460,-49.5 "/>
<text text-anchor="start" x="247" y="-37.5" font-family="Courier New" font-size="10.00">+ changeViz</text>
<text text-anchor="start" x="247" y="-26.5" font-family="Courier New" font-size="10.00">+ inflation</text>
<polyline fill="none" stroke="black" points="239,-19.5 460,-19.5 "/>
<text text-anchor="start" x="247" y="-7.5" font-family="Courier New" font-size="10.00">+ Switch()</text>
</a>
</g>
</g>
<!-- Node1&#45;&gt;Node4 -->
<g id="edge3" class="edge">
<title>Node1&#45;&gt;Node4</title>
<path fill="none" stroke="midnightblue" d="M273.84,-109.41C284.6,-99.68 296.07,-89.31 306.75,-79.65"/>
<polygon fill="none" stroke="midnightblue" points="271.23,-107.05 266.16,-116.36 275.92,-112.25 271.23,-107.05"/>
</g>
<!-- Node2 -->
<g id="node2" class="node">
<title>Node2</title>
<g id="a_node2"><a xlink:title=" ">
<polygon fill="white" stroke="#bfbfbf" points="182,-221.5 182,-278.5 277,-278.5 277,-221.5 182,-221.5"/>
<text text-anchor="middle" x="229.5" y="-266.5" font-family="Courier New" font-size="10.00">MonoBehaviour</text>
<polyline fill="none" stroke="#bfbfbf" points="182,-259.5 277,-259.5 "/>
<text text-anchor="middle" x="229.5" y="-247.5" font-family="Courier New" font-size="10.00"> </text>
<polyline fill="none" stroke="#bfbfbf" points="182,-240.5 277,-240.5 "/>
<text text-anchor="middle" x="229.5" y="-228.5" font-family="Courier New" font-size="10.00"> </text>
</a>
</g>
</g>
<!-- Node2&#45;&gt;Node1 -->
<g id="edge1" class="edge">
<title>Node2&#45;&gt;Node1</title>
<path fill="none" stroke="midnightblue" d="M229.5,-211.06C229.5,-202.39 229.5,-193.24 229.5,-184.79"/>
<polygon fill="none" stroke="midnightblue" points="226,-211.32 229.5,-221.32 233,-211.32 226,-211.32"/>
</g>
</g>
</svg>
