<?xml version="1.0" encoding="UTF-8" standalone="no"?>
<!DOCTYPE svg PUBLIC "-//W3C//DTD SVG 1.1//EN"
 "http://www.w3.org/Graphics/SVG/1.1/DTD/svg11.dtd">
<!-- Generated by graphviz version 2.38.0 (20140413.2041)
 -->
<!-- Title: C2M2.NeuronalDynamics.UGX.NeuronCell Pages: 1 -->
<svg width="204pt" height="336pt"
 viewBox="0.00 0.00 203.50 336.00" xmlns="http://www.w3.org/2000/svg" xmlns:xlink="http://www.w3.org/1999/xlink">
<g id="graph0" class="graph" transform="scale(1 1) rotate(0) translate(4 332)">
<title>C2M2.NeuronalDynamics.UGX.NeuronCell</title>
<polygon fill="white" stroke="none" points="-4,4 -4,-332 199.5,-332 199.5,4 -4,4"/>
<!-- Node1 -->
<g id="node1" class="node"><title>Node1</title>
<g id="a_node1"><a xlink:title=" ">
<polygon fill="#bfbfbf" stroke="black" points="0,-0.5 0,-200.5 173,-200.5 173,-0.5 0,-0.5"/>
<text text-anchor="start" x="8" y="-188.5" font-family="Courier New" font-size="10.00">C2M2.NeuronalDynamics.UGX.</text>
<text text-anchor="middle" x="86.5" y="-177.5" font-family="Courier New" font-size="10.00">NeuronCell</text>
<polyline fill="none" stroke="black" points="0,-170.5 173,-170.5 "/>
<text text-anchor="start" x="8" y="-158.5" font-family="Courier New" font-size="10.00">+ nodeData</text>
<text text-anchor="start" x="8" y="-147.5" font-family="Courier New" font-size="10.00">+ edges</text>
<text text-anchor="start" x="8" y="-136.5" font-family="Courier New" font-size="10.00">+ edgeLengths</text>
<text text-anchor="start" x="8" y="-125.5" font-family="Courier New" font-size="10.00">+ boundaryID</text>
<text text-anchor="start" x="8" y="-114.5" font-family="Courier New" font-size="10.00">+ somaID</text>
<text text-anchor="start" x="8" y="-103.5" font-family="Courier New" font-size="10.00">+ vertCount</text>
<text text-anchor="start" x="8" y="-92.5" font-family="Courier New" font-size="10.00">+ edgeCount</text>
<polyline fill="none" stroke="black" points="0,-85.5 173,-85.5 "/>
<text text-anchor="start" x="8" y="-73.5" font-family="Courier New" font-size="10.00">+ NeuronCell()</text>
<text text-anchor="start" x="8" y="-62.5" font-family="Courier New" font-size="10.00">+ ReadDataTable()</text>
<text text-anchor="start" x="8" y="-51.5" font-family="Courier New" font-size="10.00">+ NodeToString()</text>
<text text-anchor="start" x="8" y="-40.5" font-family="Courier New" font-size="10.00">+ EdgeToString()</text>
<text text-anchor="start" x="8" y="-29.5" font-family="Courier New" font-size="10.00">+ ToString()</text>
<text text-anchor="start" x="8" y="-18.5" font-family="Courier New" font-size="10.00">&#45; NodeNeighborsToString()</text>
<text text-anchor="start" x="8" y="-7.5" font-family="Courier New" font-size="10.00">&#45; GetEdgeLength()</text>
</a>
</g>
</g>
<!-- Node2 -->
<g id="node2" class="node"><title>Node2</title>
<g id="a_node2"><a xlink:title=" ">
<polygon fill="white" stroke="#bfbfbf" points="60,-270.5 60,-327.5 113,-327.5 113,-270.5 60,-270.5"/>
<text text-anchor="middle" x="86.5" y="-315.5" font-family="Courier New" font-size="10.00">static</text>
<polyline fill="none" stroke="#bfbfbf" points="60,-308.5 113,-308.5 "/>
<text text-anchor="middle" x="86.5" y="-296.5" font-family="Courier New" font-size="10.00"> </text>
<polyline fill="none" stroke="#bfbfbf" points="60,-289.5 113,-289.5 "/>
<text text-anchor="middle" x="86.5" y="-277.5" font-family="Courier New" font-size="10.00"> </text>
</a>
</g>
</g>
<!-- Node2&#45;&gt;Node1 -->
<g id="edge1" class="edge"><title>Node2&#45;&gt;Node1</title>
<path fill="none" stroke="#404040" d="M86.5,-270.263C86.5,-254.715 86.5,-234.186 86.5,-212.819"/>
<polygon fill="none" stroke="#404040" points="86.5001,-212.531 82.5,-206.531 86.5,-200.531 90.5,-206.531 86.5001,-212.531"/>
<text text-anchor="middle" x="141" y="-244" font-family="Courier New" font-size="10.00"> &#45;nodeFormatString</text>
<text text-anchor="middle" x="141" y="-233" font-family="Courier New" font-size="10.00">&#45;edgeFormatString</text>
<text text-anchor="middle" x="141" y="-222" font-family="Courier New" font-size="10.00">&#45;cellFormatString</text>
</g>
</g>
</svg>
