<?xml version="1.0" encoding="UTF-8" standalone="no"?>
<!DOCTYPE svg PUBLIC "-//W3C//DTD SVG 1.1//EN"
 "http://www.w3.org/Graphics/SVG/1.1/DTD/svg11.dtd">
<!-- Generated by graphviz version 2.38.0 (20140413.2041)
 -->
<!-- Title: C2M2.Interaction.Signaling.OculusEventSignaler Pages: 1 -->
<!--zoomable 1398 -->
<svg id="main" version="1.1" xmlns="http://www.w3.org/2000/svg" xmlns:xlink="http://www.w3.org/1999/xlink" xml:space="preserve" onload="init(evt)">
<style type="text/css"><![CDATA[
.edge:hover path { stroke: red; }
.edge:hover polygon { stroke: red; fill: red; }
]]></style>
<script type="text/javascript"><![CDATA[
var edges = document.getElementsByTagName('g');
if (edges && edges.length) {
  for (var i=0;i<edges.length;i++) {
    if (edges[i].id.substr(0,4)=='edge') {
      edges[i].setAttribute('class','edge');
    }
  }
}
]]></script>
        <defs>
                <circle id="rim" cx="0" cy="0" r="7"/>
                <circle id="rim2" cx="0" cy="0" r="3.5"/>
                <g id="zoomPlus">
                        <use xlink:href="#rim" fill="#404040">
                                <set attributeName="fill" to="#808080" begin="zoomplus.mouseover" end="zoomplus.mouseout"/>
                        </use>
                        <path d="M-4,0h8M0,-4v8" fill="none" stroke="white" stroke-width="1.5" pointer-events="none"/>
                </g>
                <g id="zoomMin">
                        <use xlink:href="#rim" fill="#404040">
                                <set attributeName="fill" to="#808080" begin="zoomminus.mouseover" end="zoomminus.mouseout"/>
                        </use>
                        <path d="M-4,0h8" fill="none" stroke="white" stroke-width="1.5" pointer-events="none"/>
                </g>
                <g id="dirArrow">
                        <path fill="none" stroke="white" stroke-width="1.5" d="M0,-3.0v7 M-2.5,-0.5L0,-3.0L2.5,-0.5"/>
                </g>
               <g id="resetDef">
                       <use xlink:href="#rim2" fill="#404040">
                               <set attributeName="fill" to="#808080" begin="reset.mouseover" end="reset.mouseout"/>
                       </use>
               </g>
        </defs>

<script type="text/javascript">
var viewWidth = 422;
var viewHeight = 1398;
var sectionId = 'dynsection-1';
</script>
<script xlink:href="../../svgpan.js"/>
<svg id="graph" class="graph">
<g id="viewport">
<title>C2M2.Interaction.Signaling.OculusEventSignaler</title>
<polygon fill="white" stroke="none" points="-4,4 -4,-1394 417.5,-1394 417.5,4 -4,4"/>
<!-- Node1 -->
<g id="node1" class="node"><title>Node1</title>
<g id="a_node1"><a xlink:title="Activate raycast triggers using oculus controller buttons and fingertip distance">
<polygon fill="#bfbfbf" stroke="black" points="119,-0.5 119,-343.5 304,-343.5 304,-0.5 119,-0.5"/>
<text text-anchor="start" x="127" y="-331.5" font-family="Courier New" font-size="10.00">C2M2.Interaction.Signaling.</text>
<text text-anchor="middle" x="211.5" y="-320.5" font-family="Courier New" font-size="10.00">OculusEventSignaler</text>
<polyline fill="none" stroke="black" points="119,-313.5 304,-313.5 "/>
<text text-anchor="start" x="127" y="-301.5" font-family="Courier New" font-size="10.00">+ controller</text>
<text text-anchor="start" x="127" y="-290.5" font-family="Courier New" font-size="10.00">+ beginRaycastingButton</text>
<text text-anchor="start" x="127" y="-279.5" font-family="Courier New" font-size="10.00">+ toggleMode</text>
<text text-anchor="start" x="127" y="-268.5" font-family="Courier New" font-size="10.00">+ triggerEventsButton</text>
<text text-anchor="start" x="127" y="-257.5" font-family="Courier New" font-size="10.00">+ grabber</text>
<text text-anchor="start" x="127" y="-246.5" font-family="Courier New" font-size="10.00">+ lineRend</text>
<text text-anchor="start" x="127" y="-235.5" font-family="Courier New" font-size="10.00">+ unpressedColor</text>
<text text-anchor="start" x="127" y="-224.5" font-family="Courier New" font-size="10.00">+ pressedColor</text>
<text text-anchor="start" x="127" y="-213.5" font-family="Courier New" font-size="10.00">+ localAvatar</text>
<text text-anchor="start" x="127" y="-202.5" font-family="Courier New" font-size="10.00">+ isLeftHand</text>
<text text-anchor="start" x="127" y="-191.5" font-family="Courier New" font-size="10.00">+ staticHand</text>
<text text-anchor="start" x="127" y="-180.5" font-family="Courier New" font-size="10.00">+ clickDistance</text>
<text text-anchor="start" x="127" y="-169.5" font-family="Courier New" font-size="10.00">+ Toggled</text>
<text text-anchor="start" x="127" y="-158.5" font-family="Courier New" font-size="10.00">&#45; toggled</text>
<text text-anchor="start" x="127" y="-147.5" font-family="Courier New" font-size="10.00">&#45; distancePressed</text>
<polyline fill="none" stroke="black" points="119,-140.5 304,-140.5 "/>
<text text-anchor="start" x="127" y="-128.5" font-family="Courier New" font-size="10.00"># OnAwake()</text>
<text text-anchor="start" x="127" y="-117.5" font-family="Courier New" font-size="10.00"># OnStart()</text>
<text text-anchor="start" x="127" y="-106.5" font-family="Courier New" font-size="10.00"># BeginRaycastingCondition()</text>
<text text-anchor="start" x="127" y="-95.5" font-family="Courier New" font-size="10.00"># ChildsPressCondition()</text>
<text text-anchor="start" x="127" y="-84.5" font-family="Courier New" font-size="10.00"># OnPressSub()</text>
<text text-anchor="start" x="127" y="-73.5" font-family="Courier New" font-size="10.00"># OnHoldPressSub()</text>
<text text-anchor="start" x="127" y="-62.5" font-family="Courier New" font-size="10.00"># OnEndPressSub()</text>
<text text-anchor="start" x="127" y="-51.5" font-family="Courier New" font-size="10.00"># RaycastingMethod()</text>
<text text-anchor="start" x="127" y="-40.5" font-family="Courier New" font-size="10.00">&#45; StaticHandSetActive()</text>
<text text-anchor="start" x="127" y="-29.5" font-family="Courier New" font-size="10.00">&#45; LineRendererSetActive()</text>
<text text-anchor="start" x="127" y="-18.5" font-family="Courier New" font-size="10.00">&#45; CheckPressDistance()</text>
<text text-anchor="start" x="127" y="-7.5" font-family="Courier New" font-size="10.00">&#45; SearchForHand()</text>
</a>
</g>
</g>
<!-- Node2 -->
<g id="node2" class="node"><title>Node2</title>
<g id="a_node2"><a xlink:href="../../d6/d2d/class_c2_m2_1_1_interaction_1_1_signaling_1_1_raycast_event_signaler.html" target="_top" xlink:title=" ">
<polygon fill="white" stroke="black" points="5,-391.5 5,-635.5 190,-635.5 190,-391.5 5,-391.5"/>
<text text-anchor="middle" x="97.5" y="-623.5" font-family="Courier New" font-size="10.00">RaycastEventSignaler</text>
<polyline fill="none" stroke="black" points="5,-616.5 190,-616.5 "/>
<text text-anchor="start" x="13" y="-604.5" font-family="Courier New" font-size="10.00">+ rightHand</text>
<text text-anchor="start" x="13" y="-593.5" font-family="Courier New" font-size="10.00">+ layerMask</text>
<text text-anchor="start" x="13" y="-582.5" font-family="Courier New" font-size="10.00">+ maxRaycastDistance</text>
<text text-anchor="start" x="13" y="-571.5" font-family="Courier New" font-size="10.00">&#45; lastHit</text>
<polyline fill="none" stroke="black" points="5,-564.5 190,-564.5 "/>
<text text-anchor="start" x="13" y="-552.5" font-family="Courier New" font-size="10.00"># OnAwake()</text>
<text text-anchor="start" x="13" y="-541.5" font-family="Courier New" font-size="10.00"># Awake()</text>
<text text-anchor="start" x="13" y="-530.5" font-family="Courier New" font-size="10.00"># OnStart()</text>
<text text-anchor="start" x="13" y="-519.5" font-family="Courier New" font-size="10.00"># OnPress()</text>
<text text-anchor="start" x="13" y="-508.5" font-family="Courier New" font-size="10.00"># OnHoldPress()</text>
<text text-anchor="start" x="13" y="-497.5" font-family="Courier New" font-size="10.00"># OnEndPress()</text>
<text text-anchor="start" x="13" y="-486.5" font-family="Courier New" font-size="10.00"># OnPressSub()</text>
<text text-anchor="start" x="13" y="-475.5" font-family="Courier New" font-size="10.00"># OnHoldPressSub()</text>
<text text-anchor="start" x="13" y="-464.5" font-family="Courier New" font-size="10.00"># OnEndPressSub()</text>
<text text-anchor="start" x="13" y="-453.5" font-family="Courier New" font-size="10.00"># RaycastingMethod()</text>
<text text-anchor="start" x="13" y="-442.5" font-family="Courier New" font-size="10.00"># BeginRaycastingCondition()</text>
<text text-anchor="start" x="13" y="-431.5" font-family="Courier New" font-size="10.00"># ChildsPressCondition()</text>
<text text-anchor="start" x="13" y="-420.5" font-family="Courier New" font-size="10.00">&#45; Start()</text>
<text text-anchor="start" x="13" y="-409.5" font-family="Courier New" font-size="10.00">&#45; FixedUpdate()</text>
<text text-anchor="start" x="13" y="-398.5" font-family="Courier New" font-size="10.00">&#45; FindRaycastTrigger()</text>
</a>
</g>
</g>
<!-- Node2&#45;&gt;Node1 -->
<g id="edge1" class="edge"><title>Node2&#45;&gt;Node1</title>
<path fill="none" stroke="midnightblue" d="M141.372,-381.845C145.583,-369.305 149.895,-356.464 154.209,-343.616"/>
<polygon fill="none" stroke="midnightblue" points="138.039,-380.777 138.174,-391.371 144.675,-383.005 138.039,-380.777"/>
</g>
<!-- Node3 -->
<g id="node3" class="node"><title>Node3</title>
<g id="a_node3"><a xlink:href="../../d6/d4b/class_c2_m2_1_1_interaction_1_1_signaling_1_1_press_event_signaler.html" target="_top" xlink:title="Send press, holdPress, and endPress events based on set values of Pressed and RaycastTriggerManager">
<polygon fill="white" stroke="black" points="0,-935.5 0,-1025.5 125,-1025.5 125,-935.5 0,-935.5"/>
<text text-anchor="middle" x="62.5" y="-1013.5" font-family="Courier New" font-size="10.00">PressEventSignaler</text>
<polyline fill="none" stroke="black" points="0,-1006.5 125,-1006.5 "/>
<text text-anchor="start" x="8" y="-994.5" font-family="Courier New" font-size="10.00">+ Pressed</text>
<text text-anchor="start" x="8" y="-983.5" font-family="Courier New" font-size="10.00">&#45; pressedPrevFrame</text>
<polyline fill="none" stroke="black" points="0,-976.5 125,-976.5 "/>
<text text-anchor="start" x="8" y="-964.5" font-family="Courier New" font-size="10.00"># OnPress()</text>
<text text-anchor="start" x="8" y="-953.5" font-family="Courier New" font-size="10.00"># OnHoldPress()</text>
<text text-anchor="start" x="8" y="-942.5" font-family="Courier New" font-size="10.00"># OnEndPress()</text>
</a>
</g>
</g>
<!-- Node3&#45;&gt;Node2 -->
<g id="edge2" class="edge"><title>Node3&#45;&gt;Node2</title>
<path fill="none" stroke="midnightblue" d="M66.5768,-925.337C71.8855,-854.807 81.3189,-729.478 88.3751,-635.731"/>
<polygon fill="none" stroke="midnightblue" points="63.0848,-925.1 65.8243,-935.335 70.0651,-925.626 63.0848,-925.1"/>
</g>
<!-- Node4 -->
<g id="node4" class="node"><title>Node4</title>
<g id="a_node4"><a xlink:title=" ">
<polygon fill="white" stroke="#bfbfbf" points="72,-1232 72,-1289 167,-1289 167,-1232 72,-1232"/>
<text text-anchor="middle" x="119.5" y="-1277" font-family="Courier New" font-size="10.00">MonoBehaviour</text>
<polyline fill="none" stroke="#bfbfbf" points="72,-1270 167,-1270 "/>
<text text-anchor="middle" x="119.5" y="-1258" font-family="Courier New" font-size="10.00"> </text>
<polyline fill="none" stroke="#bfbfbf" points="72,-1251 167,-1251 "/>
<text text-anchor="middle" x="119.5" y="-1239" font-family="Courier New" font-size="10.00"> </text>
</a>
</g>
</g>
<!-- Node4&#45;&gt;Node3 -->
<g id="edge3" class="edge"><title>Node4&#45;&gt;Node3</title>
<path fill="none" stroke="midnightblue" d="M111.788,-1221.89C101.341,-1170.94 82.7221,-1080.13 71.6018,-1025.89"/>
<polygon fill="none" stroke="midnightblue" points="108.389,-1222.73 113.826,-1231.83 115.246,-1221.33 108.389,-1222.73"/>
</g>
<!-- Node5 -->
<g id="node5" class="node"><title>Node5</title>
<g id="a_node5"><a xlink:href="../../d5/df9/class_c2_m2_1_1_interaction_1_1_raycast_event_manager.html" target="_top" xlink:title="Attach this script to parent gameObject, create one child with one raycast trigger per child....">
<polygon fill="white" stroke="black" points="149,-683.5 149,-916.5 310,-916.5 310,-683.5 149,-683.5"/>
<text text-anchor="start" x="157" y="-904.5" font-family="Courier New" font-size="10.00">C2M2.Interaction.Raycast</text>
<text text-anchor="middle" x="229.5" y="-893.5" font-family="Courier New" font-size="10.00">EventManager</text>
<polyline fill="none" stroke="black" points="149,-886.5 310,-886.5 "/>
<text text-anchor="middle" x="229.5" y="-874.5" font-family="Courier New" font-size="10.00"> </text>
<polyline fill="none" stroke="black" points="149,-867.5 310,-867.5 "/>
<text text-anchor="start" x="157" y="-855.5" font-family="Courier New" font-size="10.00">+ TriggerChangeRight()</text>
<text text-anchor="start" x="157" y="-844.5" font-family="Courier New" font-size="10.00">+ TriggerChangeLeft()</text>
<text text-anchor="start" x="157" y="-833.5" font-family="Courier New" font-size="10.00">+ TriggerChangeBoth()</text>
<text text-anchor="start" x="157" y="-822.5" font-family="Courier New" font-size="10.00">+ TriggerEmptyRight()</text>
<text text-anchor="start" x="157" y="-811.5" font-family="Courier New" font-size="10.00">+ TriggerEmptyLeft()</text>
<text text-anchor="start" x="157" y="-800.5" font-family="Courier New" font-size="10.00">+ TriggerEmptyBoth()</text>
<text text-anchor="start" x="157" y="-789.5" font-family="Courier New" font-size="10.00">+ PressEvent()</text>
<text text-anchor="start" x="157" y="-778.5" font-family="Courier New" font-size="10.00">+ HoldEvent()</text>
<text text-anchor="start" x="157" y="-767.5" font-family="Courier New" font-size="10.00">+ EndEvent()</text>
<text text-anchor="start" x="157" y="-756.5" font-family="Courier New" font-size="10.00">+ AllEvents()</text>
<text text-anchor="start" x="157" y="-745.5" font-family="Courier New" font-size="10.00">+ PressEventNull()</text>
<text text-anchor="start" x="157" y="-734.5" font-family="Courier New" font-size="10.00">+ HoldEventNull()</text>
<text text-anchor="start" x="157" y="-723.5" font-family="Courier New" font-size="10.00">+ EndEventNull()</text>
<text text-anchor="start" x="157" y="-712.5" font-family="Courier New" font-size="10.00">+ AllEventsNull()</text>
<text text-anchor="start" x="157" y="-701.5" font-family="Courier New" font-size="10.00">+ ToString()</text>
<text text-anchor="start" x="157" y="-690.5" font-family="Courier New" font-size="10.00">&#45; Awake()</text>
</a>
</g>
</g>
<!-- Node4&#45;&gt;Node5 -->
<g id="edge5" class="edge"><title>Node4&#45;&gt;Node5</title>
<path fill="none" stroke="midnightblue" d="M125.376,-1221.7C132.356,-1178.49 144.911,-1105.75 159.5,-1044 169.392,-1002.13 181.969,-956.703 193.725,-916.583"/>
<polygon fill="none" stroke="midnightblue" points="121.889,-1221.34 123.765,-1231.77 128.801,-1222.45 121.889,-1221.34"/>
</g>
<!-- Node7 -->
<g id="node7" class="node"><title>Node7</title>
<g id="a_node7"><a xlink:href="../../d8/d68/class_c2_m2_1_1_interaction_1_1_raycast_press_events.html" target="_top" xlink:title="Store custom events that the corresponding RaycastTriggerManager will invoke">
<polygon fill="white" stroke="black" points="169,-1044.5 169,-1156.5 330,-1156.5 330,-1044.5 169,-1044.5"/>
<text text-anchor="start" x="177" y="-1144.5" font-family="Courier New" font-size="10.00">C2M2.Interaction.Raycast</text>
<text text-anchor="middle" x="249.5" y="-1133.5" font-family="Courier New" font-size="10.00">PressEvents</text>
<polyline fill="none" stroke="black" points="169,-1126.5 330,-1126.5 "/>
<text text-anchor="start" x="177" y="-1114.5" font-family="Courier New" font-size="10.00">+ OnPress</text>
<text text-anchor="start" x="177" y="-1103.5" font-family="Courier New" font-size="10.00">+ OnHoldPress</text>
<text text-anchor="start" x="177" y="-1092.5" font-family="Courier New" font-size="10.00">+ OnEndPress</text>
<polyline fill="none" stroke="black" points="169,-1085.5 330,-1085.5 "/>
<text text-anchor="start" x="177" y="-1073.5" font-family="Courier New" font-size="10.00">+ Press()</text>
<text text-anchor="start" x="177" y="-1062.5" font-family="Courier New" font-size="10.00">+ HoldPress()</text>
<text text-anchor="start" x="177" y="-1051.5" font-family="Courier New" font-size="10.00">+ EndPress()</text>
</a>
</g>
</g>
<!-- Node4&#45;&gt;Node7 -->
<g id="edge8" class="edge"><title>Node4&#45;&gt;Node7</title>
<path fill="none" stroke="midnightblue" d="M148.642,-1224.08C165.012,-1204.19 185.799,-1178.92 204.243,-1156.5"/>
<polygon fill="none" stroke="midnightblue" points="145.795,-1222.03 142.144,-1231.98 151.201,-1226.48 145.795,-1222.03"/>
</g>
<!-- Node5&#45;&gt;Node2 -->
<g id="edge4" class="edge"><title>Node5&#45;&gt;Node2</title>
<path fill="none" stroke="#404040" d="M175.811,-683.283C170.236,-671.269 164.541,-658.994 158.891,-646.815"/>
<polygon fill="none" stroke="#404040" points="158.77,-646.555 152.616,-642.796 153.719,-635.669 159.873,-639.428 158.77,-646.555"/>
<text text-anchor="middle" x="203" y="-657" font-family="Courier New" font-size="10.00"> &#45;activeEvent</text>
</g>
<!-- Node6 -->
<g id="node6" class="node"><title>Node6</title>
<g id="a_node6"><a xlink:title=" ">
<polygon fill="white" stroke="#bfbfbf" points="348,-1072 348,-1129 401,-1129 401,-1072 348,-1072"/>
<text text-anchor="middle" x="374.5" y="-1117" font-family="Courier New" font-size="10.00">static</text>
<polyline fill="none" stroke="#bfbfbf" points="348,-1110 401,-1110 "/>
<text text-anchor="middle" x="374.5" y="-1098" font-family="Courier New" font-size="10.00"> </text>
<polyline fill="none" stroke="#bfbfbf" points="348,-1091 401,-1091 "/>
<text text-anchor="middle" x="374.5" y="-1079" font-family="Courier New" font-size="10.00"> </text>
</a>
</g>
</g>
<!-- Node6&#45;&gt;Node5 -->
<g id="edge6" class="edge"><title>Node6&#45;&gt;Node5</title>
<path fill="none" stroke="#404040" d="M369.719,-1071.93C363.21,-1038.36 349.749,-980.492 327.5,-935 324.134,-928.119 320.411,-921.222 316.441,-914.387"/>
<polygon fill="none" stroke="#404040" points="316.203,-913.99 309.682,-910.912 310.015,-903.708 316.536,-906.787 316.203,-913.99"/>
<text text-anchor="middle" x="386" y="-978" font-family="Courier New" font-size="10.00"> &#45;nullHit</text>
</g>
<!-- Node7&#45;&gt;Node5 -->
<g id="edge7" class="edge"><title>Node7&#45;&gt;Node5</title>
<path fill="none" stroke="#404040" d="M245.808,-1044.4C243.63,-1011.89 240.777,-969.306 238.067,-928.861"/>
<polygon fill="none" stroke="#404040" points="238.053,-928.648 233.661,-922.929 237.25,-916.675 241.643,-922.394 238.053,-928.648"/>
<text text-anchor="middle" x="284" y="-989" font-family="Courier New" font-size="10.00"> +leftTrigger</text>
<text text-anchor="middle" x="284" y="-978" font-family="Courier New" font-size="10.00">+rightTrigger</text>
<text text-anchor="middle" x="284" y="-967" font-family="Courier New" font-size="10.00">&#45;emptyTrigger</text>
</g>
<!-- Node8 -->
<g id="node8" class="node"><title>Node8</title>
<g id="a_node8"><a xlink:href="../../d2/d43/class_c2_m2_1_1_interaction_1_1_raycast_press_events_1_1_raycast_hit_event.html" target="_top" xlink:title=" ">
<polygon fill="white" stroke="black" points="185,-1226.5 185,-1294.5 364,-1294.5 364,-1226.5 185,-1226.5"/>
<text text-anchor="start" x="193" y="-1282.5" font-family="Courier New" font-size="10.00">C2M2.Interaction.Raycast</text>
<text text-anchor="middle" x="274.5" y="-1271.5" font-family="Courier New" font-size="10.00">PressEvents.RaycastHitEvent</text>
<polyline fill="none" stroke="black" points="185,-1264.5 364,-1264.5 "/>
<text text-anchor="middle" x="274.5" y="-1252.5" font-family="Courier New" font-size="10.00"> </text>
<polyline fill="none" stroke="black" points="185,-1245.5 364,-1245.5 "/>
<text text-anchor="middle" x="274.5" y="-1233.5" font-family="Courier New" font-size="10.00"> </text>
</a>
</g>
</g>
<!-- Node8&#45;&gt;Node7 -->
<g id="edge9" class="edge"><title>Node8&#45;&gt;Node7</title>
<path fill="none" stroke="#404040" d="M269.259,-1226.38C266.603,-1209.59 263.277,-1188.57 260.115,-1168.59"/>
<polygon fill="none" stroke="#404040" points="260.103,-1168.51 255.214,-1163.21 258.227,-1156.66 263.116,-1161.96 260.103,-1168.51"/>
<text text-anchor="middle" x="303" y="-1200" font-family="Courier New" font-size="10.00"> &#45;onPress</text>
<text text-anchor="middle" x="303" y="-1189" font-family="Courier New" font-size="10.00">&#45;onHoldPress</text>
<text text-anchor="middle" x="303" y="-1178" font-family="Courier New" font-size="10.00">&#45;onEndPress</text>
</g>
<!-- Node9 -->
<g id="node9" class="node"><title>Node9</title>
<g id="a_node9"><a xlink:title=" ">
<polygon fill="white" stroke="#bfbfbf" points="194,-1332.5 194,-1389.5 355,-1389.5 355,-1332.5 194,-1332.5"/>
<text text-anchor="middle" x="274.5" y="-1377.5" font-family="Courier New" font-size="10.00">UnityEvent&lt; RaycastHit &gt;</text>
<polyline fill="none" stroke="#bfbfbf" points="194,-1370.5 355,-1370.5 "/>
<text text-anchor="middle" x="274.5" y="-1358.5" font-family="Courier New" font-size="10.00"> </text>
<polyline fill="none" stroke="#bfbfbf" points="194,-1351.5 355,-1351.5 "/>
<text text-anchor="middle" x="274.5" y="-1339.5" font-family="Courier New" font-size="10.00"> </text>
</a>
</g>
</g>
<!-- Node9&#45;&gt;Node8 -->
<g id="edge10" class="edge"><title>Node9&#45;&gt;Node8</title>
<path fill="none" stroke="midnightblue" d="M274.5,-1322.01C274.5,-1312.96 274.5,-1303.38 274.5,-1294.58"/>
<polygon fill="none" stroke="midnightblue" points="271,-1322.3 274.5,-1332.3 278,-1322.3 271,-1322.3"/>
</g>
<!-- Node10 -->
<g id="node10" class="node"><title>Node10</title>
<g id="a_node10"><a xlink:title=" ">
<polygon fill="white" stroke="#bfbfbf" points="208,-485 208,-542 291,-542 291,-485 208,-485"/>
<text text-anchor="middle" x="249.5" y="-530" font-family="Courier New" font-size="10.00">UnityEngine</text>
<polyline fill="none" stroke="#bfbfbf" points="208,-523 291,-523 "/>
<text text-anchor="middle" x="249.5" y="-511" font-family="Courier New" font-size="10.00"> </text>
<polyline fill="none" stroke="#bfbfbf" points="208,-504 291,-504 "/>
<text text-anchor="middle" x="249.5" y="-492" font-family="Courier New" font-size="10.00"> </text>
</a>
</g>
</g>
<!-- Node10&#45;&gt;Node1 -->
<g id="edge11" class="edge"><title>Node10&#45;&gt;Node1</title>
<path fill="none" stroke="#404040" d="M246.39,-484.717C243.108,-455.395 237.637,-406.515 231.989,-356.057"/>
<polygon fill="none" stroke="#404040" points="231.964,-355.826 227.321,-350.308 230.629,-343.9 235.271,-349.418 231.964,-355.826"/>
<text text-anchor="middle" x="273" y="-365" font-family="Courier New" font-size="10.00"> &#45;defaultHand</text>
</g>
</g>
</svg>
        <g id="navigator" transform="translate(0 0)" fill="#404254">
                <rect fill="#f2f5e9" fill-opacity="0.5" stroke="#606060" stroke-width=".5" x="0" y="0" width="60" height="60"/>
                <use id="zoomplus" xlink:href="#zoomPlus" x="17" y="9" onmousedown="handleZoom(evt,'in')"/>
                <use id="zoomminus" xlink:href="#zoomMin" x="42" y="9" onmousedown="handleZoom(evt,'out')"/>
                <use id="reset" xlink:href="#resetDef" x="30" y="36" onmousedown="handleReset()"/>
                <g id="arrowUp" xlink:href="#dirArrow" transform="translate(30 24)" onmousedown="handlePan(0,-1)">
                  <use xlink:href="#rim" fill="#404040">
                        <set attributeName="fill" to="#808080" begin="arrowUp.mouseover" end="arrowUp.mouseout"/>
                  </use>
                  <path fill="none" stroke="white" stroke-width="1.5" d="M0,-3.0v7 M-2.5,-0.5L0,-3.0L2.5,-0.5"/>
                </g>
                <g id="arrowRight" xlink:href="#dirArrow" transform="rotate(90) translate(36 -43)" onmousedown="handlePan(1,0)">
                  <use xlink:href="#rim" fill="#404040">
                        <set attributeName="fill" to="#808080" begin="arrowRight.mouseover" end="arrowRight.mouseout"/>
                  </use>
                  <path fill="none" stroke="white" stroke-width="1.5" d="M0,-3.0v7 M-2.5,-0.5L0,-3.0L2.5,-0.5"/>
                </g>
                <g id="arrowDown" xlink:href="#dirArrow" transform="rotate(180) translate(-30 -48)" onmousedown="handlePan(0,1)">
                  <use xlink:href="#rim" fill="#404040">
                        <set attributeName="fill" to="#808080" begin="arrowDown.mouseover" end="arrowDown.mouseout"/>
                  </use>
                  <path fill="none" stroke="white" stroke-width="1.5" d="M0,-3.0v7 M-2.5,-0.5L0,-3.0L2.5,-0.5"/>
                </g>
                <g id="arrowLeft" xlink:href="#dirArrow" transform="rotate(270) translate(-36 17)" onmousedown="handlePan(-1,0)">
                  <use xlink:href="#rim" fill="#404040">
                        <set attributeName="fill" to="#808080" begin="arrowLeft.mouseover" end="arrowLeft.mouseout"/>
                  </use>
                  <path fill="none" stroke="white" stroke-width="1.5" d="M0,-3.0v7 M-2.5,-0.5L0,-3.0L2.5,-0.5"/>
                </g>
        </g>
        <svg viewBox="0 0 15 15" width="100%" height="30px" preserveAspectRatio="xMaxYMin meet">
         <g id="arrow_out" transform="scale(0.3 0.3)">
          <a xlink:href="class_c2_m2_1_1_interaction_1_1_signaling_1_1_oculus_event_signaler__coll__graph_org.svg" target="_base">
           <rect id="button" ry="5" rx="5" y="6" x="6" height="38" width="38"
                fill="#f2f5e9" fill-opacity="0.5" stroke="#606060" stroke-width="1.0"/>
           <path id="arrow"
             d="M 11.500037,31.436501 C 11.940474,20.09759 22.043105,11.32322 32.158766,21.979434 L 37.068811,17.246167 C 37.068811,17.246167 37.088388,32 37.088388,32 L 22.160133,31.978069 C 22.160133,31.978069 26.997745,27.140456 26.997745,27.140456 C 18.528582,18.264221 13.291696,25.230495 11.500037,31.436501 z"
             style="fill:#404040;"/>
          </a>
         </g>
        </svg>
</svg>
