<?xml version="1.0" encoding="UTF-8" standalone="no"?>
<!DOCTYPE svg PUBLIC "-//W3C//DTD SVG 1.1//EN"
 "http://www.w3.org/Graphics/SVG/1.1/DTD/svg11.dtd">
<!-- Generated by graphviz version 2.46.0 (20210118.1747)
 -->
<!-- Title: C2M2.Interaction.Signaling.OculusEventSignaler Pages: 1 -->
<!--zoomable 1453 -->
<svg id="main" version="1.1" xmlns="http://www.w3.org/2000/svg" xmlns:xlink="http://www.w3.org/1999/xlink" xml:space="preserve" onload="init(evt)">
<style type="text/css"><![CDATA[
.edge:hover path { stroke: red; }
.edge:hover polygon { stroke: red; fill: red; }
]]></style>
<script type="text/javascript"><![CDATA[
var edges = document.getElementsByTagName('g');
if (edges && edges.length) {
  for (var i=0;i<edges.length;i++) {
    if (edges[i].id.substr(0,4)=='edge') {
      edges[i].setAttribute('class','edge');
    }
  }
}
]]></script>
        <defs>
                <circle id="rim" cx="0" cy="0" r="7"/>
                <circle id="rim2" cx="0" cy="0" r="3.5"/>
                <g id="zoomPlus">
                        <use xlink:href="#rim" fill="#404040">
                                <set attributeName="fill" to="#808080" begin="zoomplus.mouseover" end="zoomplus.mouseout"/>
                        </use>
                        <path d="M-4,0h8M0,-4v8" fill="none" stroke="white" stroke-width="1.5" pointer-events="none"/>
                </g>
                <g id="zoomMin">
                        <use xlink:href="#rim" fill="#404040">
                                <set attributeName="fill" to="#808080" begin="zoomminus.mouseover" end="zoomminus.mouseout"/>
                        </use>
                        <path d="M-4,0h8" fill="none" stroke="white" stroke-width="1.5" pointer-events="none"/>
                </g>
                <g id="dirArrow">
                        <path fill="none" stroke="white" stroke-width="1.5" d="M0,-3.0v7 M-2.5,-0.5L0,-3.0L2.5,-0.5"/>
                </g>
               <g id="resetDef">
                       <use xlink:href="#rim2" fill="#404040">
                               <set attributeName="fill" to="#808080" begin="reset.mouseover" end="reset.mouseout"/>
                       </use>
               </g>
        </defs>

<script type="text/javascript">
var viewWidth = 423;
var viewHeight = 1453;
var sectionId = 'dynsection-1';
</script>
<script xlink:href="../../svgpan.js"/>
<svg id="graph" class="graph">
<g id="viewport">
<title>C2M2.Interaction.Signaling.OculusEventSignaler</title>
<polygon fill="white" stroke="transparent" points="-4,4 -4,-1449 418.5,-1449 418.5,4 -4,4"/>
<!-- Node1 -->
<g id="node1" class="node">
<title>Node1</title>
<g id="a_node1"><a xlink:title="Activate raycast triggers using oculus controller buttons and fingertip distance">
<polygon fill="#bfbfbf" stroke="black" points="92,-0.5 92,-343.5 277,-343.5 277,-0.5 92,-0.5"/>
<text text-anchor="start" x="100" y="-331.5" font-family="Courier New" font-size="10.00">C2M2.Interaction.Signaling.</text>
<text text-anchor="middle" x="184.5" y="-320.5" font-family="Courier New" font-size="10.00">OculusEventSignaler</text>
<polyline fill="none" stroke="black" points="92,-313.5 277,-313.5 "/>
<text text-anchor="start" x="100" y="-301.5" font-family="Courier New" font-size="10.00">+ controller</text>
<text text-anchor="start" x="100" y="-290.5" font-family="Courier New" font-size="10.00">+ beginRaycastingButton</text>
<text text-anchor="start" x="100" y="-279.5" font-family="Courier New" font-size="10.00">+ toggleMode</text>
<text text-anchor="start" x="100" y="-268.5" font-family="Courier New" font-size="10.00">+ triggerEventsButton</text>
<text text-anchor="start" x="100" y="-257.5" font-family="Courier New" font-size="10.00">+ grabber</text>
<text text-anchor="start" x="100" y="-246.5" font-family="Courier New" font-size="10.00">+ lineRend</text>
<text text-anchor="start" x="100" y="-235.5" font-family="Courier New" font-size="10.00">+ unpressedColor</text>
<text text-anchor="start" x="100" y="-224.5" font-family="Courier New" font-size="10.00">+ pressedColor</text>
<text text-anchor="start" x="100" y="-213.5" font-family="Courier New" font-size="10.00">+ localAvatar</text>
<text text-anchor="start" x="100" y="-202.5" font-family="Courier New" font-size="10.00">+ isLeftHand</text>
<text text-anchor="start" x="100" y="-191.5" font-family="Courier New" font-size="10.00">+ staticHand</text>
<text text-anchor="start" x="100" y="-180.5" font-family="Courier New" font-size="10.00">+ clickDistance</text>
<text text-anchor="start" x="100" y="-169.5" font-family="Courier New" font-size="10.00">+ Toggled</text>
<text text-anchor="start" x="100" y="-158.5" font-family="Courier New" font-size="10.00">&#45; toggled</text>
<text text-anchor="start" x="100" y="-147.5" font-family="Courier New" font-size="10.00">&#45; distancePressed</text>
<polyline fill="none" stroke="black" points="92,-140.5 277,-140.5 "/>
<text text-anchor="start" x="100" y="-128.5" font-family="Courier New" font-size="10.00"># OnAwake()</text>
<text text-anchor="start" x="100" y="-117.5" font-family="Courier New" font-size="10.00"># OnStart()</text>
<text text-anchor="start" x="100" y="-106.5" font-family="Courier New" font-size="10.00"># BeginRaycastingCondition()</text>
<text text-anchor="start" x="100" y="-95.5" font-family="Courier New" font-size="10.00"># ChildsPressCondition()</text>
<text text-anchor="start" x="100" y="-84.5" font-family="Courier New" font-size="10.00"># OnPressSub()</text>
<text text-anchor="start" x="100" y="-73.5" font-family="Courier New" font-size="10.00"># OnHoldPressSub()</text>
<text text-anchor="start" x="100" y="-62.5" font-family="Courier New" font-size="10.00"># OnEndPressSub()</text>
<text text-anchor="start" x="100" y="-51.5" font-family="Courier New" font-size="10.00"># RaycastingMethod()</text>
<text text-anchor="start" x="100" y="-40.5" font-family="Courier New" font-size="10.00">&#45; StaticHandSetActive()</text>
<text text-anchor="start" x="100" y="-29.5" font-family="Courier New" font-size="10.00">&#45; LineRendererSetActive()</text>
<text text-anchor="start" x="100" y="-18.5" font-family="Courier New" font-size="10.00">&#45; CheckPressDistance()</text>
<text text-anchor="start" x="100" y="-7.5" font-family="Courier New" font-size="10.00">&#45; SearchForHand()</text>
</a>
</g>
</g>
<!-- Node2 -->
<g id="node2" class="node">
<title>Node2</title>
<g id="a_node2"><a xlink:href="../../d6/d2d/class_c2_m2_1_1_interaction_1_1_signaling_1_1_raycast_event_signaler.html" target="_top" xlink:title=" ">
<polygon fill="white" stroke="black" points="43,-391.5 43,-646.5 192,-646.5 192,-391.5 43,-391.5"/>
<text text-anchor="middle" x="117.5" y="-634.5" font-family="Courier New" font-size="10.00">RaycastEventSignaler</text>
<polyline fill="none" stroke="black" points="43,-627.5 192,-627.5 "/>
<text text-anchor="start" x="51" y="-615.5" font-family="Courier New" font-size="10.00">+ rightHand</text>
<text text-anchor="start" x="51" y="-604.5" font-family="Courier New" font-size="10.00">+ layerMask</text>
<text text-anchor="start" x="51" y="-593.5" font-family="Courier New" font-size="10.00">+ maxRaycastDistance</text>
<text text-anchor="start" x="51" y="-582.5" font-family="Courier New" font-size="10.00">&#45; lastHit</text>
<text text-anchor="start" x="51" y="-571.5" font-family="Courier New" font-size="10.00">&#45; prevObj</text>
<polyline fill="none" stroke="black" points="43,-564.5 192,-564.5 "/>
<text text-anchor="start" x="51" y="-552.5" font-family="Courier New" font-size="10.00"># OnAwake()</text>
<text text-anchor="start" x="51" y="-541.5" font-family="Courier New" font-size="10.00"># Awake()</text>
<text text-anchor="start" x="51" y="-530.5" font-family="Courier New" font-size="10.00"># OnStart()</text>
<text text-anchor="start" x="51" y="-519.5" font-family="Courier New" font-size="10.00"># OnHover()</text>
<text text-anchor="start" x="51" y="-508.5" font-family="Courier New" font-size="10.00"># OnHoverEnd()</text>
<text text-anchor="start" x="51" y="-497.5" font-family="Courier New" font-size="10.00"># OnPress()</text>
<text text-anchor="start" x="51" y="-486.5" font-family="Courier New" font-size="10.00"># OnHoldPress()</text>
<text text-anchor="start" x="51" y="-475.5" font-family="Courier New" font-size="10.00"># OnEndPress()</text>
<text text-anchor="start" x="51" y="-464.5" font-family="Courier New" font-size="10.00"># OnHoverSub()</text>
<text text-anchor="start" x="51" y="-453.5" font-family="Courier New" font-size="10.00"># OnHoverEndSub()</text>
<text text-anchor="start" x="51" y="-442.5" font-family="Courier New" font-size="10.00">and 6 more...</text>
<text text-anchor="start" x="51" y="-431.5" font-family="Courier New" font-size="10.00">&#45; Start()</text>
<text text-anchor="start" x="51" y="-420.5" font-family="Courier New" font-size="10.00">&#45; FixedUpdate()</text>
<text text-anchor="start" x="51" y="-409.5" font-family="Courier New" font-size="10.00">&#45; OnObjectChange()</text>
<text text-anchor="start" x="51" y="-398.5" font-family="Courier New" font-size="10.00">&#45; FindRaycastTrigger()</text>
</a>
</g>
</g>
<!-- Node2&#45;&gt;Node1 -->
<g id="edge1" class="edge">
<title>Node2&#45;&gt;Node1</title>
<path fill="none" stroke="midnightblue" d="M144,-381.57C146.41,-369.12 148.88,-356.4 151.35,-343.7"/>
<polygon fill="none" stroke="midnightblue" points="140.54,-381.01 142.07,-391.49 147.41,-382.34 140.54,-381.01"/>
</g>
<!-- Node3 -->
<g id="node3" class="node">
<title>Node3</title>
<g id="a_node3"><a xlink:href="../../d6/d4b/class_c2_m2_1_1_interaction_1_1_signaling_1_1_press_event_signaler.html" target="_top" xlink:title="Send press, holdPress, and endPress events based on set values of Pressed and RaycastTriggerManager">
<polygon fill="white" stroke="black" points="0,-902.5 0,-1014.5 125,-1014.5 125,-902.5 0,-902.5"/>
<text text-anchor="middle" x="62.5" y="-1002.5" font-family="Courier New" font-size="10.00">PressEventSignaler</text>
<polyline fill="none" stroke="black" points="0,-995.5 125,-995.5 "/>
<text text-anchor="start" x="8" y="-983.5" font-family="Courier New" font-size="10.00">+ Pressed</text>
<text text-anchor="start" x="8" y="-972.5" font-family="Courier New" font-size="10.00">&#45; pressedPrevFrame</text>
<polyline fill="none" stroke="black" points="0,-965.5 125,-965.5 "/>
<text text-anchor="start" x="8" y="-953.5" font-family="Courier New" font-size="10.00"># OnHover()</text>
<text text-anchor="start" x="8" y="-942.5" font-family="Courier New" font-size="10.00"># OnHoverEnd()</text>
<text text-anchor="start" x="8" y="-931.5" font-family="Courier New" font-size="10.00"># OnPress()</text>
<text text-anchor="start" x="8" y="-920.5" font-family="Courier New" font-size="10.00"># OnHoldPress()</text>
<text text-anchor="start" x="8" y="-909.5" font-family="Courier New" font-size="10.00"># OnEndPress()</text>
</a>
</g>
</g>
<!-- Node3&#45;&gt;Node2 -->
<g id="edge2" class="edge">
<title>Node3&#45;&gt;Node2</title>
<path fill="none" stroke="midnightblue" d="M70.73,-892.05C78.84,-827.49 91.46,-727.11 101.55,-646.88"/>
<polygon fill="none" stroke="midnightblue" points="67.24,-891.73 69.47,-902.09 74.19,-892.61 67.24,-891.73"/>
</g>
<!-- Node4 -->
<g id="node4" class="node">
<title>Node4</title>
<g id="a_node4"><a xlink:title=" ">
<polygon fill="white" stroke="#bfbfbf" points="61,-1287 61,-1344 156,-1344 156,-1287 61,-1287"/>
<text text-anchor="middle" x="108.5" y="-1332" font-family="Courier New" font-size="10.00">MonoBehaviour</text>
<polyline fill="none" stroke="#bfbfbf" points="61,-1325 156,-1325 "/>
<text text-anchor="middle" x="108.5" y="-1313" font-family="Courier New" font-size="10.00"> </text>
<polyline fill="none" stroke="#bfbfbf" points="61,-1306 156,-1306 "/>
<text text-anchor="middle" x="108.5" y="-1294" font-family="Courier New" font-size="10.00"> </text>
</a>
</g>
</g>
<!-- Node4&#45;&gt;Node3 -->
<g id="edge3" class="edge">
<title>Node4&#45;&gt;Node3</title>
<path fill="none" stroke="midnightblue" d="M103.6,-1276.69C95.46,-1213.83 79.09,-1087.55 69.66,-1014.72"/>
<polygon fill="none" stroke="midnightblue" points="100.17,-1277.47 104.93,-1286.94 107.11,-1276.57 100.17,-1277.47"/>
</g>
<!-- Node5 -->
<g id="node5" class="node">
<title>Node5</title>
<g id="a_node5"><a xlink:href="../../d5/df9/class_c2_m2_1_1_interaction_1_1_raycast_event_manager.html" target="_top" xlink:title="Attach this script to parent gameObject, create one child with one raycast trigger per child....">
<polygon fill="white" stroke="black" points="140,-694.5 140,-883.5 301,-883.5 301,-694.5 140,-694.5"/>
<text text-anchor="start" x="148" y="-871.5" font-family="Courier New" font-size="10.00">C2M2.Interaction.Raycast</text>
<text text-anchor="middle" x="220.5" y="-860.5" font-family="Courier New" font-size="10.00">EventManager</text>
<polyline fill="none" stroke="black" points="140,-853.5 301,-853.5 "/>
<text text-anchor="middle" x="220.5" y="-841.5" font-family="Courier New" font-size="10.00"> </text>
<polyline fill="none" stroke="black" points="140,-834.5 301,-834.5 "/>
<text text-anchor="start" x="148" y="-822.5" font-family="Courier New" font-size="10.00">+ TriggerChangeRight()</text>
<text text-anchor="start" x="148" y="-811.5" font-family="Courier New" font-size="10.00">+ TriggerChangeLeft()</text>
<text text-anchor="start" x="148" y="-800.5" font-family="Courier New" font-size="10.00">+ TriggerChangeBoth()</text>
<text text-anchor="start" x="148" y="-789.5" font-family="Courier New" font-size="10.00">+ TriggerEmptyRight()</text>
<text text-anchor="start" x="148" y="-778.5" font-family="Courier New" font-size="10.00">+ TriggerEmptyLeft()</text>
<text text-anchor="start" x="148" y="-767.5" font-family="Courier New" font-size="10.00">+ TriggerEmptyBoth()</text>
<text text-anchor="start" x="148" y="-756.5" font-family="Courier New" font-size="10.00">+ HoverEvent()</text>
<text text-anchor="start" x="148" y="-745.5" font-family="Courier New" font-size="10.00">+ HoverEndEvent()</text>
<text text-anchor="start" x="148" y="-734.5" font-family="Courier New" font-size="10.00">+ PressEvent()</text>
<text text-anchor="start" x="148" y="-723.5" font-family="Courier New" font-size="10.00">+ HoldEvent()</text>
<text text-anchor="start" x="148" y="-712.5" font-family="Courier New" font-size="10.00">and 7 more...</text>
<text text-anchor="start" x="148" y="-701.5" font-family="Courier New" font-size="10.00">&#45; Awake()</text>
</a>
</g>
</g>
<!-- Node4&#45;&gt;Node5 -->
<g id="edge5" class="edge">
<title>Node4&#45;&gt;Node5</title>
<path fill="none" stroke="midnightblue" d="M114.54,-1276.64C123.36,-1222.44 140.78,-1119.71 159.5,-1033 170.19,-983.47 183.78,-928.69 195.42,-883.71"/>
<polygon fill="none" stroke="midnightblue" points="111.03,-1276.38 112.89,-1286.81 117.94,-1277.5 111.03,-1276.38"/>
</g>
<!-- Node7 -->
<g id="node7" class="node">
<title>Node7</title>
<g id="a_node7"><a xlink:href="../../d8/d68/class_c2_m2_1_1_interaction_1_1_raycast_press_events.html" target="_top" xlink:title="Store custom events that the corresponding RaycastTriggerManager will invoke">
<polygon fill="white" stroke="black" points="169,-1033.5 169,-1189.5 330,-1189.5 330,-1033.5 169,-1033.5"/>
<text text-anchor="start" x="177" y="-1177.5" font-family="Courier New" font-size="10.00">C2M2.Interaction.Raycast</text>
<text text-anchor="middle" x="249.5" y="-1166.5" font-family="Courier New" font-size="10.00">PressEvents</text>
<polyline fill="none" stroke="black" points="169,-1159.5 330,-1159.5 "/>
<text text-anchor="start" x="177" y="-1147.5" font-family="Courier New" font-size="10.00">+ OnHover</text>
<text text-anchor="start" x="177" y="-1136.5" font-family="Courier New" font-size="10.00">+ OnHoverEnd</text>
<text text-anchor="start" x="177" y="-1125.5" font-family="Courier New" font-size="10.00">+ OnPress</text>
<text text-anchor="start" x="177" y="-1114.5" font-family="Courier New" font-size="10.00">+ OnHoldPress</text>
<text text-anchor="start" x="177" y="-1103.5" font-family="Courier New" font-size="10.00">+ OnEndPress</text>
<polyline fill="none" stroke="black" points="169,-1096.5 330,-1096.5 "/>
<text text-anchor="start" x="177" y="-1084.5" font-family="Courier New" font-size="10.00">+ Hover()</text>
<text text-anchor="start" x="177" y="-1073.5" font-family="Courier New" font-size="10.00">+ EndHover()</text>
<text text-anchor="start" x="177" y="-1062.5" font-family="Courier New" font-size="10.00">+ Press()</text>
<text text-anchor="start" x="177" y="-1051.5" font-family="Courier New" font-size="10.00">+ HoldPress()</text>
<text text-anchor="start" x="177" y="-1040.5" font-family="Courier New" font-size="10.00">+ EndPress()</text>
</a>
</g>
</g>
<!-- Node4&#45;&gt;Node7 -->
<g id="edge8" class="edge">
<title>Node4&#45;&gt;Node7</title>
<path fill="none" stroke="midnightblue" d="M141.35,-1279.25C145.91,-1273.93 150.43,-1268.4 154.5,-1263 171.89,-1239.93 189.25,-1213.64 204.29,-1189.55"/>
<polygon fill="none" stroke="midnightblue" points="138.63,-1277.05 134.68,-1286.88 143.9,-1281.66 138.63,-1277.05"/>
</g>
<!-- Node5&#45;&gt;Node2 -->
<g id="edge4" class="edge">
<title>Node5&#45;&gt;Node2</title>
<path fill="none" stroke="#404040" d="M184.48,-694.27C179.95,-682.48 175.24,-670.23 170.52,-657.94"/>
<polygon fill="none" stroke="#404040" points="170.48,-657.86 164.6,-653.69 166.18,-646.65 172.06,-650.82 170.48,-657.86"/>
<text text-anchor="middle" x="215" y="-668" font-family="Courier New" font-size="10.00"> &#45;activeEvent</text>
</g>
<!-- Node6 -->
<g id="node6" class="node">
<title>Node6</title>
<g id="a_node6"><a xlink:title=" ">
<polygon fill="white" stroke="#bfbfbf" points="348,-1083 348,-1140 401,-1140 401,-1083 348,-1083"/>
<text text-anchor="middle" x="374.5" y="-1128" font-family="Courier New" font-size="10.00">static</text>
<polyline fill="none" stroke="#bfbfbf" points="348,-1121 401,-1121 "/>
<text text-anchor="middle" x="374.5" y="-1109" font-family="Courier New" font-size="10.00"> </text>
<polyline fill="none" stroke="#bfbfbf" points="348,-1102 401,-1102 "/>
<text text-anchor="middle" x="374.5" y="-1090" font-family="Courier New" font-size="10.00"> </text>
</a>
</g>
</g>
<!-- Node6&#45;&gt;Node5 -->
<g id="edge6" class="edge">
<title>Node6&#45;&gt;Node5</title>
<path fill="none" stroke="#404040" d="M371.97,-1082.97C367.24,-1041.55 354.46,-961.69 322.5,-902 318.31,-894.18 313.46,-886.48 308.19,-879"/>
<polygon fill="none" stroke="#404040" points="308.16,-878.96 301.38,-876.5 301.04,-869.3 307.82,-871.76 308.16,-878.96"/>
<text text-anchor="middle" x="387" y="-956" font-family="Courier New" font-size="10.00"> &#45;nullHit</text>
</g>
<!-- Node7&#45;&gt;Node5 -->
<g id="edge7" class="edge">
<title>Node7&#45;&gt;Node5</title>
<path fill="none" stroke="#404040" d="M242.52,-1033.32C238.79,-992.09 234.14,-940.72 230.08,-895.82"/>
<polygon fill="none" stroke="#404040" points="230.06,-895.6 225.53,-889.98 228.97,-883.65 233.5,-889.26 230.06,-895.6"/>
<text text-anchor="middle" x="279" y="-967" font-family="Courier New" font-size="10.00"> +leftTrigger</text>
<text text-anchor="middle" x="279" y="-956" font-family="Courier New" font-size="10.00">+rightTrigger</text>
<text text-anchor="middle" x="279" y="-945" font-family="Courier New" font-size="10.00">&#45;emptyTrigger</text>
</g>
<!-- Node8 -->
<g id="node8" class="node">
<title>Node8</title>
<g id="a_node8"><a xlink:href="../../d2/d43/class_c2_m2_1_1_interaction_1_1_raycast_press_events_1_1_raycast_hit_event.html" target="_top" xlink:title=" ">
<polygon fill="white" stroke="black" points="174,-1281.5 174,-1349.5 353,-1349.5 353,-1281.5 174,-1281.5"/>
<text text-anchor="start" x="182" y="-1337.5" font-family="Courier New" font-size="10.00">C2M2.Interaction.Raycast</text>
<text text-anchor="middle" x="263.5" y="-1326.5" font-family="Courier New" font-size="10.00">PressEvents.RaycastHitEvent</text>
<polyline fill="none" stroke="black" points="174,-1319.5 353,-1319.5 "/>
<text text-anchor="middle" x="263.5" y="-1307.5" font-family="Courier New" font-size="10.00"> </text>
<polyline fill="none" stroke="black" points="174,-1300.5 353,-1300.5 "/>
<text text-anchor="middle" x="263.5" y="-1288.5" font-family="Courier New" font-size="10.00"> </text>
</a>
</g>
</g>
<!-- Node8&#45;&gt;Node7 -->
<g id="edge9" class="edge">
<title>Node8&#45;&gt;Node7</title>
<path fill="none" stroke="#404040" d="M261.19,-1281.14C259.68,-1259.38 257.63,-1229.85 255.67,-1201.59"/>
<polygon fill="none" stroke="#404040" points="255.67,-1201.55 251.27,-1195.84 254.84,-1189.58 259.25,-1195.29 255.67,-1201.55"/>
<text text-anchor="middle" x="296" y="-1255" font-family="Courier New" font-size="10.00"> &#45;onEndPress</text>
<text text-anchor="middle" x="296" y="-1244" font-family="Courier New" font-size="10.00">&#45;onHoldPress</text>
<text text-anchor="middle" x="296" y="-1233" font-family="Courier New" font-size="10.00">&#45;onHover</text>
<text text-anchor="middle" x="296" y="-1222" font-family="Courier New" font-size="10.00">&#45;onHoverEnd</text>
<text text-anchor="middle" x="296" y="-1211" font-family="Courier New" font-size="10.00">&#45;onPress</text>
</g>
<!-- Node9 -->
<g id="node9" class="node">
<title>Node9</title>
<g id="a_node9"><a xlink:title=" ">
<polygon fill="white" stroke="#bfbfbf" points="183,-1387.5 183,-1444.5 344,-1444.5 344,-1387.5 183,-1387.5"/>
<text text-anchor="middle" x="263.5" y="-1432.5" font-family="Courier New" font-size="10.00">UnityEvent&lt; RaycastHit &gt;</text>
<polyline fill="none" stroke="#bfbfbf" points="183,-1425.5 344,-1425.5 "/>
<text text-anchor="middle" x="263.5" y="-1413.5" font-family="Courier New" font-size="10.00"> </text>
<polyline fill="none" stroke="#bfbfbf" points="183,-1406.5 344,-1406.5 "/>
<text text-anchor="middle" x="263.5" y="-1394.5" font-family="Courier New" font-size="10.00"> </text>
</a>
</g>
</g>
<!-- Node9&#45;&gt;Node8 -->
<g id="edge10" class="edge">
<title>Node9&#45;&gt;Node8</title>
<path fill="none" stroke="midnightblue" d="M263.5,-1377.01C263.5,-1367.96 263.5,-1358.38 263.5,-1349.58"/>
<polygon fill="none" stroke="midnightblue" points="260,-1377.3 263.5,-1387.3 267,-1377.3 260,-1377.3"/>
</g>
<!-- Node10 -->
<g id="node10" class="node">
<title>Node10</title>
<g id="a_node10"><a xlink:title=" ">
<polygon fill="white" stroke="#bfbfbf" points="210,-490.5 210,-547.5 293,-547.5 293,-490.5 210,-490.5"/>
<text text-anchor="middle" x="251.5" y="-535.5" font-family="Courier New" font-size="10.00">UnityEngine</text>
<polyline fill="none" stroke="#bfbfbf" points="210,-528.5 293,-528.5 "/>
<text text-anchor="middle" x="251.5" y="-516.5" font-family="Courier New" font-size="10.00"> </text>
<polyline fill="none" stroke="#bfbfbf" points="210,-509.5 293,-509.5 "/>
<text text-anchor="middle" x="251.5" y="-497.5" font-family="Courier New" font-size="10.00"> </text>
</a>
</g>
</g>
<!-- Node10&#45;&gt;Node1 -->
<g id="edge11" class="edge">
<title>Node10&#45;&gt;Node1</title>
<path fill="none" stroke="#404040" d="M246.13,-490.35C240.23,-459.95 230.21,-408.37 219.95,-355.53"/>
<polygon fill="none" stroke="#404040" points="219.9,-355.31 214.83,-350.18 217.62,-343.53 222.69,-348.65 219.9,-355.31"/>
<text text-anchor="middle" x="261" y="-365" font-family="Courier New" font-size="10.00"> &#45;defaultHand</text>
</g>
</g>
</svg>
        <g id="navigator" transform="translate(0 0)" fill="#404254">
                <rect fill="#f2f5e9" fill-opacity="0.5" stroke="#606060" stroke-width=".5" x="0" y="0" width="60" height="60"/>
                <use id="zoomplus" xlink:href="#zoomPlus" x="17" y="9" onmousedown="handleZoom(evt,'in')"/>
                <use id="zoomminus" xlink:href="#zoomMin" x="42" y="9" onmousedown="handleZoom(evt,'out')"/>
                <use id="reset" xlink:href="#resetDef" x="30" y="36" onmousedown="handleReset()"/>
                <g id="arrowUp" xlink:href="#dirArrow" transform="translate(30 24)" onmousedown="handlePan(0,-1)">
                  <use xlink:href="#rim" fill="#404040">
                        <set attributeName="fill" to="#808080" begin="arrowUp.mouseover" end="arrowUp.mouseout"/>
                  </use>
                  <path fill="none" stroke="white" stroke-width="1.5" d="M0,-3.0v7 M-2.5,-0.5L0,-3.0L2.5,-0.5"/>
                </g>
                <g id="arrowRight" xlink:href="#dirArrow" transform="rotate(90) translate(36 -43)" onmousedown="handlePan(1,0)">
                  <use xlink:href="#rim" fill="#404040">
                        <set attributeName="fill" to="#808080" begin="arrowRight.mouseover" end="arrowRight.mouseout"/>
                  </use>
                  <path fill="none" stroke="white" stroke-width="1.5" d="M0,-3.0v7 M-2.5,-0.5L0,-3.0L2.5,-0.5"/>
                </g>
                <g id="arrowDown" xlink:href="#dirArrow" transform="rotate(180) translate(-30 -48)" onmousedown="handlePan(0,1)">
                  <use xlink:href="#rim" fill="#404040">
                        <set attributeName="fill" to="#808080" begin="arrowDown.mouseover" end="arrowDown.mouseout"/>
                  </use>
                  <path fill="none" stroke="white" stroke-width="1.5" d="M0,-3.0v7 M-2.5,-0.5L0,-3.0L2.5,-0.5"/>
                </g>
                <g id="arrowLeft" xlink:href="#dirArrow" transform="rotate(270) translate(-36 17)" onmousedown="handlePan(-1,0)">
                  <use xlink:href="#rim" fill="#404040">
                        <set attributeName="fill" to="#808080" begin="arrowLeft.mouseover" end="arrowLeft.mouseout"/>
                  </use>
                  <path fill="none" stroke="white" stroke-width="1.5" d="M0,-3.0v7 M-2.5,-0.5L0,-3.0L2.5,-0.5"/>
                </g>
        </g>
        <svg viewBox="0 0 15 15" width="100%" height="30px" preserveAspectRatio="xMaxYMin meet">
         <g id="arrow_out" transform="scale(0.3 0.3)">
          <a xlink:href="class_c2_m2_1_1_interaction_1_1_signaling_1_1_oculus_event_signaler__coll__graph_org.svg" target="_base">
           <rect id="button" ry="5" rx="5" y="6" x="6" height="38" width="38"
                fill="#f2f5e9" fill-opacity="0.5" stroke="#606060" stroke-width="1.0"/>
           <path id="arrow"
             d="M 11.500037,31.436501 C 11.940474,20.09759 22.043105,11.32322 32.158766,21.979434 L 37.068811,17.246167 C 37.068811,17.246167 37.088388,32 37.088388,32 L 22.160133,31.978069 C 22.160133,31.978069 26.997745,27.140456 26.997745,27.140456 C 18.528582,18.264221 13.291696,25.230495 11.500037,31.436501 z"
             style="fill:#404040;"/>
          </a>
         </g>
        </svg>
</svg>
