<?xml version="1.0" encoding="UTF-8" standalone="no"?>
<!DOCTYPE svg PUBLIC "-//W3C//DTD SVG 1.1//EN"
 "http://www.w3.org/Graphics/SVG/1.1/DTD/svg11.dtd">
<!-- Generated by graphviz version 2.38.0 (20140413.2041)
 -->
<!-- Title: C2M2.Interaction.Signaling.OculusEventSignaler Pages: 1 -->
<svg width="422pt" height="1321pt"
 viewBox="0.00 0.00 421.50 1321.00" xmlns="http://www.w3.org/2000/svg" xmlns:xlink="http://www.w3.org/1999/xlink">
<g id="graph0" class="graph" transform="scale(1 1) rotate(0) translate(4 1317)">
<title>C2M2.Interaction.Signaling.OculusEventSignaler</title>
<polygon fill="white" stroke="none" points="-4,4 -4,-1317 417.5,-1317 417.5,4 -4,4"/>
<!-- Node1 -->
<g id="node1" class="node"><title>Node1</title>
<g id="a_node1"><a xlink:title="Activate raycast triggers using oculus controller buttons and fingertip distance">
<polygon fill="#bfbfbf" stroke="black" points="119,-0.5 119,-266.5 304,-266.5 304,-0.5 119,-0.5"/>
<text text-anchor="start" x="127" y="-254.5" font-family="Courier New" font-size="10.00">C2M2.Interaction.Signaling.</text>
<text text-anchor="middle" x="211.5" y="-243.5" font-family="Courier New" font-size="10.00">OculusEventSignaler</text>
<polyline fill="none" stroke="black" points="119,-236.5 304,-236.5 "/>
<text text-anchor="start" x="127" y="-224.5" font-family="Courier New" font-size="10.00">+ controller</text>
<text text-anchor="start" x="127" y="-213.5" font-family="Courier New" font-size="10.00">+ beginRaycastingButton</text>
<text text-anchor="start" x="127" y="-202.5" font-family="Courier New" font-size="10.00">+ triggerEventsButton</text>
<text text-anchor="start" x="127" y="-191.5" font-family="Courier New" font-size="10.00">+ lineRend</text>
<text text-anchor="start" x="127" y="-180.5" font-family="Courier New" font-size="10.00">+ unpressedColor</text>
<text text-anchor="start" x="127" y="-169.5" font-family="Courier New" font-size="10.00">+ pressedColor</text>
<text text-anchor="start" x="127" y="-158.5" font-family="Courier New" font-size="10.00">+ staticHand</text>
<text text-anchor="start" x="127" y="-147.5" font-family="Courier New" font-size="10.00">+ clickDistance</text>
<text text-anchor="start" x="127" y="-136.5" font-family="Courier New" font-size="10.00">&#45; distancePressed</text>
<polyline fill="none" stroke="black" points="119,-129.5 304,-129.5 "/>
<text text-anchor="start" x="127" y="-117.5" font-family="Courier New" font-size="10.00"># OnAwake()</text>
<text text-anchor="start" x="127" y="-106.5" font-family="Courier New" font-size="10.00"># OnStart()</text>
<text text-anchor="start" x="127" y="-95.5" font-family="Courier New" font-size="10.00"># BeginRaycastingCondition()</text>
<text text-anchor="start" x="127" y="-84.5" font-family="Courier New" font-size="10.00"># ChildsPressCondition()</text>
<text text-anchor="start" x="127" y="-73.5" font-family="Courier New" font-size="10.00"># OnPressSub()</text>
<text text-anchor="start" x="127" y="-62.5" font-family="Courier New" font-size="10.00"># OnHoldPressSub()</text>
<text text-anchor="start" x="127" y="-51.5" font-family="Courier New" font-size="10.00"># OnEndPressSub()</text>
<text text-anchor="start" x="127" y="-40.5" font-family="Courier New" font-size="10.00"># RaycastingMethod()</text>
<text text-anchor="start" x="127" y="-29.5" font-family="Courier New" font-size="10.00">&#45; StaticHandSetActive()</text>
<text text-anchor="start" x="127" y="-18.5" font-family="Courier New" font-size="10.00">&#45; LineRendererSetActive()</text>
<text text-anchor="start" x="127" y="-7.5" font-family="Courier New" font-size="10.00">&#45; CheckPressDistance()</text>
</a>
</g>
</g>
<!-- Node2 -->
<g id="node2" class="node"><title>Node2</title>
<g id="a_node2"><a xlink:href="../../d6/d2d/class_c2_m2_1_1_interaction_1_1_signaling_1_1_raycast_event_signaler.html" target="_top" xlink:title=" ">
<polygon fill="white" stroke="black" points="5,-314.5 5,-558.5 190,-558.5 190,-314.5 5,-314.5"/>
<text text-anchor="middle" x="97.5" y="-546.5" font-family="Courier New" font-size="10.00">RaycastEventSignaler</text>
<polyline fill="none" stroke="black" points="5,-539.5 190,-539.5 "/>
<text text-anchor="start" x="13" y="-527.5" font-family="Courier New" font-size="10.00">+ rightHand</text>
<text text-anchor="start" x="13" y="-516.5" font-family="Courier New" font-size="10.00">+ maxRaycastDistance</text>
<text text-anchor="start" x="13" y="-505.5" font-family="Courier New" font-size="10.00">&#45; layerMask</text>
<text text-anchor="start" x="13" y="-494.5" font-family="Courier New" font-size="10.00">&#45; lastHit</text>
<polyline fill="none" stroke="black" points="5,-487.5 190,-487.5 "/>
<text text-anchor="start" x="13" y="-475.5" font-family="Courier New" font-size="10.00"># OnAwake()</text>
<text text-anchor="start" x="13" y="-464.5" font-family="Courier New" font-size="10.00"># Awake()</text>
<text text-anchor="start" x="13" y="-453.5" font-family="Courier New" font-size="10.00"># OnStart()</text>
<text text-anchor="start" x="13" y="-442.5" font-family="Courier New" font-size="10.00"># OnPress()</text>
<text text-anchor="start" x="13" y="-431.5" font-family="Courier New" font-size="10.00"># OnHoldPress()</text>
<text text-anchor="start" x="13" y="-420.5" font-family="Courier New" font-size="10.00"># OnEndPress()</text>
<text text-anchor="start" x="13" y="-409.5" font-family="Courier New" font-size="10.00"># OnPressSub()</text>
<text text-anchor="start" x="13" y="-398.5" font-family="Courier New" font-size="10.00"># OnHoldPressSub()</text>
<text text-anchor="start" x="13" y="-387.5" font-family="Courier New" font-size="10.00"># OnEndPressSub()</text>
<text text-anchor="start" x="13" y="-376.5" font-family="Courier New" font-size="10.00"># RaycastingMethod()</text>
<text text-anchor="start" x="13" y="-365.5" font-family="Courier New" font-size="10.00"># BeginRaycastingCondition()</text>
<text text-anchor="start" x="13" y="-354.5" font-family="Courier New" font-size="10.00"># ChildsPressCondition()</text>
<text text-anchor="start" x="13" y="-343.5" font-family="Courier New" font-size="10.00">&#45; Start()</text>
<text text-anchor="start" x="13" y="-332.5" font-family="Courier New" font-size="10.00">&#45; FixedUpdate()</text>
<text text-anchor="start" x="13" y="-321.5" font-family="Courier New" font-size="10.00">&#45; FindRaycastTrigger()</text>
</a>
</g>
</g>
<!-- Node2&#45;&gt;Node1 -->
<g id="edge1" class="edge"><title>Node2&#45;&gt;Node1</title>
<path fill="none" stroke="midnightblue" d="M147.013,-304.768C151.792,-292.151 156.642,-279.346 161.425,-266.715"/>
<polygon fill="none" stroke="midnightblue" points="143.644,-303.781 143.375,-314.373 150.19,-306.261 143.644,-303.781"/>
</g>
<!-- Node3 -->
<g id="node3" class="node"><title>Node3</title>
<g id="a_node3"><a xlink:href="../../d6/d4b/class_c2_m2_1_1_interaction_1_1_signaling_1_1_press_event_signaler.html" target="_top" xlink:title="Send press, holdPress, and endPress events based on set values of Pressed and RaycastTriggerManager">
<polygon fill="white" stroke="black" points="0,-858.5 0,-948.5 125,-948.5 125,-858.5 0,-858.5"/>
<text text-anchor="middle" x="62.5" y="-936.5" font-family="Courier New" font-size="10.00">PressEventSignaler</text>
<polyline fill="none" stroke="black" points="0,-929.5 125,-929.5 "/>
<text text-anchor="start" x="8" y="-917.5" font-family="Courier New" font-size="10.00">+ Pressed</text>
<text text-anchor="start" x="8" y="-906.5" font-family="Courier New" font-size="10.00">&#45; pressedPrevFrame</text>
<polyline fill="none" stroke="black" points="0,-899.5 125,-899.5 "/>
<text text-anchor="start" x="8" y="-887.5" font-family="Courier New" font-size="10.00"># OnPress()</text>
<text text-anchor="start" x="8" y="-876.5" font-family="Courier New" font-size="10.00"># OnHoldPress()</text>
<text text-anchor="start" x="8" y="-865.5" font-family="Courier New" font-size="10.00"># OnEndPress()</text>
</a>
</g>
</g>
<!-- Node3&#45;&gt;Node2 -->
<g id="edge2" class="edge"><title>Node3&#45;&gt;Node2</title>
<path fill="none" stroke="midnightblue" d="M66.5768,-848.337C71.8855,-777.807 81.3189,-652.478 88.3751,-558.731"/>
<polygon fill="none" stroke="midnightblue" points="63.0848,-848.1 65.8243,-858.335 70.0651,-848.626 63.0848,-848.1"/>
</g>
<!-- Node4 -->
<g id="node4" class="node"><title>Node4</title>
<g id="a_node4"><a xlink:title=" ">
<polygon fill="white" stroke="#bfbfbf" points="72,-1155 72,-1212 167,-1212 167,-1155 72,-1155"/>
<text text-anchor="middle" x="119.5" y="-1200" font-family="Courier New" font-size="10.00">MonoBehaviour</text>
<polyline fill="none" stroke="#bfbfbf" points="72,-1193 167,-1193 "/>
<text text-anchor="middle" x="119.5" y="-1181" font-family="Courier New" font-size="10.00"> </text>
<polyline fill="none" stroke="#bfbfbf" points="72,-1174 167,-1174 "/>
<text text-anchor="middle" x="119.5" y="-1162" font-family="Courier New" font-size="10.00"> </text>
</a>
</g>
</g>
<!-- Node4&#45;&gt;Node3 -->
<g id="edge3" class="edge"><title>Node4&#45;&gt;Node3</title>
<path fill="none" stroke="midnightblue" d="M111.788,-1144.89C101.341,-1093.94 82.7221,-1003.13 71.6018,-948.891"/>
<polygon fill="none" stroke="midnightblue" points="108.389,-1145.73 113.826,-1154.83 115.246,-1144.33 108.389,-1145.73"/>
</g>
<!-- Node5 -->
<g id="node5" class="node"><title>Node5</title>
<g id="a_node5"><a xlink:href="../../d5/df9/class_c2_m2_1_1_interaction_1_1_raycast_event_manager.html" target="_top" xlink:title="Attach this script to parent gameObject, create one child with one raycast trigger per child....">
<polygon fill="white" stroke="black" points="149,-606.5 149,-839.5 310,-839.5 310,-606.5 149,-606.5"/>
<text text-anchor="start" x="157" y="-827.5" font-family="Courier New" font-size="10.00">C2M2.Interaction.Raycast</text>
<text text-anchor="middle" x="229.5" y="-816.5" font-family="Courier New" font-size="10.00">EventManager</text>
<polyline fill="none" stroke="black" points="149,-809.5 310,-809.5 "/>
<text text-anchor="middle" x="229.5" y="-797.5" font-family="Courier New" font-size="10.00"> </text>
<polyline fill="none" stroke="black" points="149,-790.5 310,-790.5 "/>
<text text-anchor="start" x="157" y="-778.5" font-family="Courier New" font-size="10.00">+ TriggerChangeRight()</text>
<text text-anchor="start" x="157" y="-767.5" font-family="Courier New" font-size="10.00">+ TriggerChangeLeft()</text>
<text text-anchor="start" x="157" y="-756.5" font-family="Courier New" font-size="10.00">+ TriggerChangeBoth()</text>
<text text-anchor="start" x="157" y="-745.5" font-family="Courier New" font-size="10.00">+ TriggerEmptyRight()</text>
<text text-anchor="start" x="157" y="-734.5" font-family="Courier New" font-size="10.00">+ TriggerEmptyLeft()</text>
<text text-anchor="start" x="157" y="-723.5" font-family="Courier New" font-size="10.00">+ TriggerEmptyBoth()</text>
<text text-anchor="start" x="157" y="-712.5" font-family="Courier New" font-size="10.00">+ PressEvent()</text>
<text text-anchor="start" x="157" y="-701.5" font-family="Courier New" font-size="10.00">+ HoldEvent()</text>
<text text-anchor="start" x="157" y="-690.5" font-family="Courier New" font-size="10.00">+ EndEvent()</text>
<text text-anchor="start" x="157" y="-679.5" font-family="Courier New" font-size="10.00">+ AllEvents()</text>
<text text-anchor="start" x="157" y="-668.5" font-family="Courier New" font-size="10.00">+ PressEventNull()</text>
<text text-anchor="start" x="157" y="-657.5" font-family="Courier New" font-size="10.00">+ HoldEventNull()</text>
<text text-anchor="start" x="157" y="-646.5" font-family="Courier New" font-size="10.00">+ EndEventNull()</text>
<text text-anchor="start" x="157" y="-635.5" font-family="Courier New" font-size="10.00">+ AllEventsNull()</text>
<text text-anchor="start" x="157" y="-624.5" font-family="Courier New" font-size="10.00">+ ToString()</text>
<text text-anchor="start" x="157" y="-613.5" font-family="Courier New" font-size="10.00">&#45; Awake()</text>
</a>
</g>
</g>
<!-- Node4&#45;&gt;Node5 -->
<g id="edge5" class="edge"><title>Node4&#45;&gt;Node5</title>
<path fill="none" stroke="midnightblue" d="M125.376,-1144.7C132.356,-1101.49 144.911,-1028.75 159.5,-967 169.392,-925.128 181.969,-879.703 193.725,-839.583"/>
<polygon fill="none" stroke="midnightblue" points="121.889,-1144.34 123.765,-1154.77 128.801,-1145.45 121.889,-1144.34"/>
</g>
<!-- Node7 -->
<g id="node7" class="node"><title>Node7</title>
<g id="a_node7"><a xlink:href="../../d8/d68/class_c2_m2_1_1_interaction_1_1_raycast_press_events.html" target="_top" xlink:title="Store custom events that the corresponding RaycastTriggerManager will invoke">
<polygon fill="white" stroke="black" points="169,-967.5 169,-1079.5 330,-1079.5 330,-967.5 169,-967.5"/>
<text text-anchor="start" x="177" y="-1067.5" font-family="Courier New" font-size="10.00">C2M2.Interaction.Raycast</text>
<text text-anchor="middle" x="249.5" y="-1056.5" font-family="Courier New" font-size="10.00">PressEvents</text>
<polyline fill="none" stroke="black" points="169,-1049.5 330,-1049.5 "/>
<text text-anchor="start" x="177" y="-1037.5" font-family="Courier New" font-size="10.00">+ OnPress</text>
<text text-anchor="start" x="177" y="-1026.5" font-family="Courier New" font-size="10.00">+ OnHoldPress</text>
<text text-anchor="start" x="177" y="-1015.5" font-family="Courier New" font-size="10.00">+ OnEndPress</text>
<polyline fill="none" stroke="black" points="169,-1008.5 330,-1008.5 "/>
<text text-anchor="start" x="177" y="-996.5" font-family="Courier New" font-size="10.00">+ Press()</text>
<text text-anchor="start" x="177" y="-985.5" font-family="Courier New" font-size="10.00">+ HoldPress()</text>
<text text-anchor="start" x="177" y="-974.5" font-family="Courier New" font-size="10.00">+ EndPress()</text>
</a>
</g>
</g>
<!-- Node4&#45;&gt;Node7 -->
<g id="edge8" class="edge"><title>Node4&#45;&gt;Node7</title>
<path fill="none" stroke="midnightblue" d="M148.642,-1147.08C165.012,-1127.19 185.799,-1101.92 204.243,-1079.5"/>
<polygon fill="none" stroke="midnightblue" points="145.795,-1145.03 142.144,-1154.98 151.201,-1149.48 145.795,-1145.03"/>
</g>
<!-- Node5&#45;&gt;Node2 -->
<g id="edge4" class="edge"><title>Node5&#45;&gt;Node2</title>
<path fill="none" stroke="#404040" d="M175.811,-606.283C170.236,-594.269 164.541,-581.994 158.891,-569.815"/>
<polygon fill="none" stroke="#404040" points="158.77,-569.555 152.616,-565.796 153.719,-558.669 159.873,-562.428 158.77,-569.555"/>
<text text-anchor="middle" x="203" y="-580" font-family="Courier New" font-size="10.00"> &#45;activeEvent</text>
</g>
<!-- Node6 -->
<g id="node6" class="node"><title>Node6</title>
<g id="a_node6"><a xlink:title=" ">
<polygon fill="white" stroke="#bfbfbf" points="348,-995 348,-1052 401,-1052 401,-995 348,-995"/>
<text text-anchor="middle" x="374.5" y="-1040" font-family="Courier New" font-size="10.00">static</text>
<polyline fill="none" stroke="#bfbfbf" points="348,-1033 401,-1033 "/>
<text text-anchor="middle" x="374.5" y="-1021" font-family="Courier New" font-size="10.00"> </text>
<polyline fill="none" stroke="#bfbfbf" points="348,-1014 401,-1014 "/>
<text text-anchor="middle" x="374.5" y="-1002" font-family="Courier New" font-size="10.00"> </text>
</a>
</g>
</g>
<!-- Node6&#45;&gt;Node5 -->
<g id="edge6" class="edge"><title>Node6&#45;&gt;Node5</title>
<path fill="none" stroke="#404040" d="M369.719,-994.932C363.21,-961.356 349.749,-903.492 327.5,-858 324.134,-851.119 320.411,-844.222 316.441,-837.387"/>
<polygon fill="none" stroke="#404040" points="316.203,-836.99 309.682,-833.912 310.015,-826.708 316.536,-829.787 316.203,-836.99"/>
<text text-anchor="middle" x="386" y="-901" font-family="Courier New" font-size="10.00"> &#45;nullHit</text>
</g>
<!-- Node7&#45;&gt;Node5 -->
<g id="edge7" class="edge"><title>Node7&#45;&gt;Node5</title>
<path fill="none" stroke="#404040" d="M245.808,-967.403C243.63,-934.892 240.777,-892.306 238.067,-851.861"/>
<polygon fill="none" stroke="#404040" points="238.053,-851.648 233.661,-845.929 237.25,-839.675 241.643,-845.394 238.053,-851.648"/>
<text text-anchor="middle" x="284" y="-912" font-family="Courier New" font-size="10.00"> +leftTrigger</text>
<text text-anchor="middle" x="284" y="-901" font-family="Courier New" font-size="10.00">+rightTrigger</text>
<text text-anchor="middle" x="284" y="-890" font-family="Courier New" font-size="10.00">&#45;emptyTrigger</text>
</g>
<!-- Node8 -->
<g id="node8" class="node"><title>Node8</title>
<g id="a_node8"><a xlink:href="../../d2/d43/class_c2_m2_1_1_interaction_1_1_raycast_press_events_1_1_raycast_hit_event.html" target="_top" xlink:title=" ">
<polygon fill="white" stroke="black" points="185,-1149.5 185,-1217.5 364,-1217.5 364,-1149.5 185,-1149.5"/>
<text text-anchor="start" x="193" y="-1205.5" font-family="Courier New" font-size="10.00">C2M2.Interaction.Raycast</text>
<text text-anchor="middle" x="274.5" y="-1194.5" font-family="Courier New" font-size="10.00">PressEvents.RaycastHitEvent</text>
<polyline fill="none" stroke="black" points="185,-1187.5 364,-1187.5 "/>
<text text-anchor="middle" x="274.5" y="-1175.5" font-family="Courier New" font-size="10.00"> </text>
<polyline fill="none" stroke="black" points="185,-1168.5 364,-1168.5 "/>
<text text-anchor="middle" x="274.5" y="-1156.5" font-family="Courier New" font-size="10.00"> </text>
</a>
</g>
</g>
<!-- Node8&#45;&gt;Node7 -->
<g id="edge9" class="edge"><title>Node8&#45;&gt;Node7</title>
<path fill="none" stroke="#404040" d="M269.259,-1149.38C266.603,-1132.59 263.277,-1111.57 260.115,-1091.59"/>
<polygon fill="none" stroke="#404040" points="260.103,-1091.51 255.214,-1086.21 258.227,-1079.66 263.116,-1084.96 260.103,-1091.51"/>
<text text-anchor="middle" x="303" y="-1123" font-family="Courier New" font-size="10.00"> &#45;onPress</text>
<text text-anchor="middle" x="303" y="-1112" font-family="Courier New" font-size="10.00">&#45;onHoldPress</text>
<text text-anchor="middle" x="303" y="-1101" font-family="Courier New" font-size="10.00">&#45;onEndPress</text>
</g>
<!-- Node9 -->
<g id="node9" class="node"><title>Node9</title>
<g id="a_node9"><a xlink:title=" ">
<polygon fill="white" stroke="#bfbfbf" points="194,-1255.5 194,-1312.5 355,-1312.5 355,-1255.5 194,-1255.5"/>
<text text-anchor="middle" x="274.5" y="-1300.5" font-family="Courier New" font-size="10.00">UnityEvent&lt; RaycastHit &gt;</text>
<polyline fill="none" stroke="#bfbfbf" points="194,-1293.5 355,-1293.5 "/>
<text text-anchor="middle" x="274.5" y="-1281.5" font-family="Courier New" font-size="10.00"> </text>
<polyline fill="none" stroke="#bfbfbf" points="194,-1274.5 355,-1274.5 "/>
<text text-anchor="middle" x="274.5" y="-1262.5" font-family="Courier New" font-size="10.00"> </text>
</a>
</g>
</g>
<!-- Node9&#45;&gt;Node8 -->
<g id="edge10" class="edge"><title>Node9&#45;&gt;Node8</title>
<path fill="none" stroke="midnightblue" d="M274.5,-1245.01C274.5,-1235.96 274.5,-1226.38 274.5,-1217.58"/>
<polygon fill="none" stroke="midnightblue" points="271,-1245.3 274.5,-1255.3 278,-1245.3 271,-1245.3"/>
</g>
<!-- Node10 -->
<g id="node10" class="node"><title>Node10</title>
<g id="a_node10"><a xlink:title=" ">
<polygon fill="white" stroke="#bfbfbf" points="208,-408 208,-465 291,-465 291,-408 208,-408"/>
<text text-anchor="middle" x="249.5" y="-453" font-family="Courier New" font-size="10.00">UnityEngine</text>
<polyline fill="none" stroke="#bfbfbf" points="208,-446 291,-446 "/>
<text text-anchor="middle" x="249.5" y="-434" font-family="Courier New" font-size="10.00"> </text>
<polyline fill="none" stroke="#bfbfbf" points="208,-427 291,-427 "/>
<text text-anchor="middle" x="249.5" y="-415" font-family="Courier New" font-size="10.00"> </text>
</a>
</g>
</g>
<!-- Node10&#45;&gt;Node1 -->
<g id="edge11" class="edge"><title>Node10&#45;&gt;Node1</title>
<path fill="none" stroke="#404040" d="M246.027,-407.99C242.252,-378.092 235.925,-327.976 229.711,-278.752"/>
<polygon fill="none" stroke="#404040" points="229.681,-278.511 224.961,-273.06 228.178,-266.606 232.898,-272.058 229.681,-278.511"/>
<text text-anchor="middle" x="272" y="-288" font-family="Courier New" font-size="10.00"> +defaultHand</text>
</g>
</g>
</svg>
