<?xml version="1.0" encoding="UTF-8" standalone="no"?>
<!DOCTYPE svg PUBLIC "-//W3C//DTD SVG 1.1//EN"
 "http://www.w3.org/Graphics/SVG/1.1/DTD/svg11.dtd">
<!-- Generated by graphviz version 2.38.0 (20140413.2041)
 -->
<!-- Title: C2M2.Simulation.Simulation&lt; ValueType, VizType, RaycastType, GrabType &gt; Pages: 1 -->
<svg width="393pt" height="680pt"
 viewBox="0.00 0.00 393.00 680.00" xmlns="http://www.w3.org/2000/svg" xmlns:xlink="http://www.w3.org/1999/xlink">
<g id="graph0" class="graph" transform="scale(1 1) rotate(0) translate(4 676)">
<title>C2M2.Simulation.Simulation&lt; ValueType, VizType, RaycastType, GrabType &gt;</title>
<polygon fill="white" stroke="none" points="-4,4 -4,-676 389,-676 389,4 -4,4"/>
<!-- Node1 -->
<g id="node1" class="node"><title>Node1</title>
<g id="a_node1"><a xlink:title="Provides an base interface for simulations using a general data type T">
<polygon fill="#bfbfbf" stroke="black" points="0,-0.5 0,-310.5 221,-310.5 221,-0.5 0,-0.5"/>
<text text-anchor="start" x="8" y="-298.5" font-family="Courier New" font-size="10.00">C2M2.Simulation.Simulation</text>
<text text-anchor="start" x="8" y="-287.5" font-family="Courier New" font-size="10.00">&lt; ValueType, VizType, RaycastType,</text>
<text text-anchor="middle" x="110.5" y="-276.5" font-family="Courier New" font-size="10.00"> GrabType &gt;</text>
<polyline fill="none" stroke="black" points="0,-269.5 221,-269.5 "/>
<text text-anchor="start" x="8" y="-257.5" font-family="Courier New" font-size="10.00">+ dryRun</text>
<text text-anchor="start" x="8" y="-246.5" font-family="Courier New" font-size="10.00">+ startOnAwake</text>
<text text-anchor="start" x="8" y="-235.5" font-family="Courier New" font-size="10.00">+ viz</text>
<text text-anchor="start" x="8" y="-224.5" font-family="Courier New" font-size="10.00"># mutex</text>
<text text-anchor="start" x="8" y="-213.5" font-family="Courier New" font-size="10.00">&#45; solveThread</text>
<polyline fill="none" stroke="black" points="0,-206.5 221,-206.5 "/>
<text text-anchor="start" x="8" y="-194.5" font-family="Courier New" font-size="10.00">+ GetValues()</text>
<text text-anchor="start" x="8" y="-183.5" font-family="Courier New" font-size="10.00">+ Awake()</text>
<text text-anchor="start" x="8" y="-172.5" font-family="Courier New" font-size="10.00">+ Start()</text>
<text text-anchor="start" x="8" y="-161.5" font-family="Courier New" font-size="10.00">+ Update()</text>
<text text-anchor="start" x="8" y="-150.5" font-family="Courier New" font-size="10.00">+ StartSimulation()</text>
<text text-anchor="start" x="8" y="-139.5" font-family="Courier New" font-size="10.00">+ StopSimulation()</text>
<text text-anchor="start" x="8" y="-128.5" font-family="Courier New" font-size="10.00"># BuildVisualization()</text>
<text text-anchor="start" x="8" y="-117.5" font-family="Courier New" font-size="10.00"># UpdateVisualization()</text>
<text text-anchor="start" x="8" y="-106.5" font-family="Courier New" font-size="10.00"># Solve()</text>
<text text-anchor="start" x="8" y="-95.5" font-family="Courier New" font-size="10.00"># PreSolve()</text>
<text text-anchor="start" x="8" y="-84.5" font-family="Courier New" font-size="10.00"># OnAwakePre()</text>
<text text-anchor="start" x="8" y="-73.5" font-family="Courier New" font-size="10.00"># OnAwakePost()</text>
<text text-anchor="start" x="8" y="-62.5" font-family="Courier New" font-size="10.00"># OnStart()</text>
<text text-anchor="start" x="8" y="-51.5" font-family="Courier New" font-size="10.00"># OnUpdate()</text>
<text text-anchor="start" x="8" y="-40.5" font-family="Courier New" font-size="10.00"># OnPause()</text>
<text text-anchor="start" x="8" y="-29.5" font-family="Courier New" font-size="10.00"># OnQuit()</text>
<text text-anchor="start" x="8" y="-18.5" font-family="Courier New" font-size="10.00">&#45; OnApplicationPause()</text>
<text text-anchor="start" x="8" y="-7.5" font-family="Courier New" font-size="10.00">&#45; OnApplicationQuit()</text>
</a>
</g>
</g>
<!-- Node2 -->
<g id="node2" class="node"><title>Node2</title>
<g id="a_node2"><a xlink:href="../../dc/daa/class_c2_m2_1_1_simulation_1_1_interactable.html" target="_top" xlink:title="Interface for interaction scripts">
<polygon fill="white" stroke="black" points="39,-348.5 39,-427.5 182,-427.5 182,-348.5 39,-348.5"/>
<text text-anchor="middle" x="110.5" y="-415.5" font-family="Courier New" font-size="10.00">Interactable</text>
<polyline fill="none" stroke="black" points="39,-408.5 182,-408.5 "/>
<text text-anchor="start" x="47" y="-396.5" font-family="Courier New" font-size="10.00">+ Heater</text>
<text text-anchor="start" x="47" y="-385.5" font-family="Courier New" font-size="10.00"># interactionType</text>
<polyline fill="none" stroke="black" points="39,-378.5 182,-378.5 "/>
<text text-anchor="start" x="47" y="-366.5" font-family="Courier New" font-size="10.00">+ SetValues()</text>
<text text-anchor="start" x="47" y="-355.5" font-family="Courier New" font-size="10.00">+ GetSimulationTime()</text>
</a>
</g>
</g>
<!-- Node2&#45;&gt;Node1 -->
<g id="edge1" class="edge"><title>Node2&#45;&gt;Node1</title>
<path fill="none" stroke="midnightblue" d="M110.5,-338.333C110.5,-329.741 110.5,-320.397 110.5,-310.631"/>
<polygon fill="none" stroke="midnightblue" points="107,-338.419 110.5,-348.419 114,-338.42 107,-338.419"/>
</g>
<!-- Node3 -->
<g id="node3" class="node"><title>Node3</title>
<g id="a_node3"><a xlink:title=" ">
<polygon fill="white" stroke="#bfbfbf" points="172,-614.5 172,-671.5 267,-671.5 267,-614.5 172,-614.5"/>
<text text-anchor="middle" x="219.5" y="-659.5" font-family="Courier New" font-size="10.00">MonoBehaviour</text>
<polyline fill="none" stroke="#bfbfbf" points="172,-652.5 267,-652.5 "/>
<text text-anchor="middle" x="219.5" y="-640.5" font-family="Courier New" font-size="10.00"> </text>
<polyline fill="none" stroke="#bfbfbf" points="172,-633.5 267,-633.5 "/>
<text text-anchor="middle" x="219.5" y="-621.5" font-family="Courier New" font-size="10.00"> </text>
</a>
</g>
</g>
<!-- Node3&#45;&gt;Node2 -->
<g id="edge2" class="edge"><title>Node3&#45;&gt;Node2</title>
<path fill="none" stroke="midnightblue" d="M163.382,-612.556C150.196,-602.977 137.632,-591.104 129.5,-577 102.955,-530.96 102.397,-467.905 105.567,-427.806"/>
<polygon fill="none" stroke="midnightblue" points="161.413,-615.45 171.638,-618.224 165.374,-609.679 161.413,-615.45"/>
</g>
<!-- Node4 -->
<g id="node4" class="node"><title>Node4</title>
<g id="a_node4"><a xlink:href="../../dc/d54/class_c2_m2_1_1_interaction_1_1_raycast_heater.html" target="_top" xlink:title=" ">
<polygon fill="white" stroke="black" points="139,-475.5 139,-576.5 300,-576.5 300,-475.5 139,-475.5"/>
<text text-anchor="start" x="147" y="-564.5" font-family="Courier New" font-size="10.00">C2M2.Interaction.Raycast</text>
<text text-anchor="middle" x="219.5" y="-553.5" font-family="Courier New" font-size="10.00">Heater</text>
<polyline fill="none" stroke="black" points="139,-546.5 300,-546.5 "/>
<text text-anchor="middle" x="219.5" y="-534.5" font-family="Courier New" font-size="10.00"> </text>
<polyline fill="none" stroke="black" points="139,-527.5 300,-527.5 "/>
<text text-anchor="start" x="147" y="-515.5" font-family="Courier New" font-size="10.00">+ Hit()</text>
<text text-anchor="start" x="147" y="-504.5" font-family="Courier New" font-size="10.00"># OnAwake()</text>
<text text-anchor="start" x="147" y="-493.5" font-family="Courier New" font-size="10.00"># HitMethod()</text>
<text text-anchor="start" x="147" y="-482.5" font-family="Courier New" font-size="10.00">&#45; Awake()</text>
</a>
</g>
</g>
<!-- Node3&#45;&gt;Node4 -->
<g id="edge4" class="edge"><title>Node3&#45;&gt;Node4</title>
<path fill="none" stroke="midnightblue" d="M219.5,-604.187C219.5,-595.435 219.5,-585.99 219.5,-576.812"/>
<polygon fill="none" stroke="midnightblue" points="216,-604.455 219.5,-614.455 223,-604.455 216,-604.455"/>
</g>
<!-- Node5 -->
<g id="node5" class="node"><title>Node5</title>
<g id="a_node5"><a xlink:href="../../dc/daa/class_c2_m2_1_1_simulation_1_1_interactable.html" target="_top" xlink:title="Interface for interaction scripts">
<polygon fill="white" stroke="black" points="200,-348.5 200,-427.5 385,-427.5 385,-348.5 200,-348.5"/>
<text text-anchor="middle" x="292.5" y="-415.5" font-family="Courier New" font-size="10.00">C2M2.Simulation.Interactable</text>
<polyline fill="none" stroke="black" points="200,-408.5 385,-408.5 "/>
<text text-anchor="start" x="208" y="-396.5" font-family="Courier New" font-size="10.00">+ Heater</text>
<text text-anchor="start" x="208" y="-385.5" font-family="Courier New" font-size="10.00"># interactionType</text>
<polyline fill="none" stroke="black" points="200,-378.5 385,-378.5 "/>
<text text-anchor="start" x="208" y="-366.5" font-family="Courier New" font-size="10.00">+ SetValues()</text>
<text text-anchor="start" x="208" y="-355.5" font-family="Courier New" font-size="10.00">+ GetSimulationTime()</text>
</a>
</g>
</g>
<!-- Node3&#45;&gt;Node5 -->
<g id="edge6" class="edge"><title>Node3&#45;&gt;Node5</title>
<path fill="none" stroke="midnightblue" d="M275.786,-608.761C287.81,-599.656 299.563,-588.952 308.5,-577 342.426,-531.627 341.801,-512.818 351.5,-457 353.346,-446.375 349.911,-436.537 343.907,-427.834"/>
<polygon fill="none" stroke="midnightblue" points="273.491,-606.102 267.45,-614.805 277.6,-611.769 273.491,-606.102"/>
</g>
<!-- Node4&#45;&gt;Node2 -->
<g id="edge3" class="edge"><title>Node4&#45;&gt;Node2</title>
<path fill="none" stroke="#404040" d="M174.694,-475.346C169.482,-469.242 164.313,-463.029 159.5,-457 154.498,-450.735 149.38,-444.017 144.427,-437.331"/>
<polygon fill="none" stroke="#404040" points="144.405,-437.301 137.635,-434.819 137.321,-427.615 144.092,-430.097 144.405,-437.301"/>
<text text-anchor="middle" x="184" y="-449" font-family="Courier New" font-size="10.00"> &#45;heater</text>
</g>
<!-- Node4&#45;&gt;Node5 -->
<g id="edge7" class="edge"><title>Node4&#45;&gt;Node5</title>
<path fill="none" stroke="#404040" d="M209.374,-475.332C209.375,-465.223 210.989,-454.953 215.5,-446 217.079,-442.867 218.92,-439.863 220.97,-436.989"/>
<polygon fill="none" stroke="#404040" points="221.003,-436.949 221.756,-429.777 228.666,-427.714 227.913,-434.885 221.003,-436.949"/>
<text text-anchor="middle" x="240" y="-449" font-family="Courier New" font-size="10.00"> &#45;heater</text>
</g>
<!-- Node5&#45;&gt;Node4 -->
<g id="edge5" class="edge"><title>Node5&#45;&gt;Node4</title>
<path fill="none" stroke="#404040" d="M281.03,-427.576C277.531,-437.407 273.315,-447.792 268.5,-457 267.163,-459.557 265.739,-462.125 264.25,-464.689"/>
<polygon fill="none" stroke="#404040" points="264.101,-464.931 264.365,-472.137 257.814,-475.153 257.55,-467.946 264.101,-464.931"/>
<text text-anchor="middle" x="311" y="-449" font-family="Courier New" font-size="10.00"> #simulation</text>
</g>
</g>
</svg>
