<?xml version="1.0" encoding="UTF-8" standalone="no"?>
<!DOCTYPE svg PUBLIC "-//W3C//DTD SVG 1.1//EN"
 "http://www.w3.org/Graphics/SVG/1.1/DTD/svg11.dtd">
<!-- Generated by graphviz version 2.38.0 (20140413.2041)
 -->
<!-- Title: C2M2.Simulation.Simulation&lt; ValueType, VizType, RaycastType, GrabType &gt; Pages: 1 -->
<svg width="385pt" height="636pt"
 viewBox="0.00 0.00 385.00 636.00" xmlns="http://www.w3.org/2000/svg" xmlns:xlink="http://www.w3.org/1999/xlink">
<g id="graph0" class="graph" transform="scale(1 1) rotate(0) translate(4 632)">
<title>C2M2.Simulation.Simulation&lt; ValueType, VizType, RaycastType, GrabType &gt;</title>
<polygon fill="white" stroke="none" points="-4,4 -4,-632 381,-632 381,4 -4,4"/>
<!-- Node1 -->
<g id="node1" class="node"><title>Node1</title>
<g id="a_node1"><a xlink:title="Provides an base interface for simulations using a general data type T">
<polygon fill="#bfbfbf" stroke="black" points="0,-0.5 0,-277.5 221,-277.5 221,-0.5 0,-0.5"/>
<text text-anchor="start" x="8" y="-265.5" font-family="Courier New" font-size="10.00">C2M2.Simulation.Simulation</text>
<text text-anchor="start" x="8" y="-254.5" font-family="Courier New" font-size="10.00">&lt; ValueType, VizType, RaycastType,</text>
<text text-anchor="middle" x="110.5" y="-243.5" font-family="Courier New" font-size="10.00"> GrabType &gt;</text>
<polyline fill="none" stroke="black" points="0,-236.5 221,-236.5 "/>
<text text-anchor="start" x="8" y="-224.5" font-family="Courier New" font-size="10.00">+ dryRun</text>
<text text-anchor="start" x="8" y="-213.5" font-family="Courier New" font-size="10.00">+ startOnAwake</text>
<text text-anchor="start" x="8" y="-202.5" font-family="Courier New" font-size="10.00">+ viz</text>
<text text-anchor="start" x="8" y="-191.5" font-family="Courier New" font-size="10.00"># mutex</text>
<text text-anchor="start" x="8" y="-180.5" font-family="Courier New" font-size="10.00">&#45; solveThread</text>
<polyline fill="none" stroke="black" points="0,-173.5 221,-173.5 "/>
<text text-anchor="start" x="8" y="-161.5" font-family="Courier New" font-size="10.00">+ GetValues()</text>
<text text-anchor="start" x="8" y="-150.5" font-family="Courier New" font-size="10.00">+ StartSimulation()</text>
<text text-anchor="start" x="8" y="-139.5" font-family="Courier New" font-size="10.00">+ StopSimulation()</text>
<text text-anchor="start" x="8" y="-128.5" font-family="Courier New" font-size="10.00">+ Awake()</text>
<text text-anchor="start" x="8" y="-117.5" font-family="Courier New" font-size="10.00">+ Start()</text>
<text text-anchor="start" x="8" y="-106.5" font-family="Courier New" font-size="10.00">+ Update()</text>
<text text-anchor="start" x="8" y="-95.5" font-family="Courier New" font-size="10.00"># BuildVisualization()</text>
<text text-anchor="start" x="8" y="-84.5" font-family="Courier New" font-size="10.00"># ReadData()</text>
<text text-anchor="start" x="8" y="-73.5" font-family="Courier New" font-size="10.00"># UpdateVisualization()</text>
<text text-anchor="start" x="8" y="-62.5" font-family="Courier New" font-size="10.00"># Solve()</text>
<text text-anchor="start" x="8" y="-51.5" font-family="Courier New" font-size="10.00"># OnAwake()</text>
<text text-anchor="start" x="8" y="-40.5" font-family="Courier New" font-size="10.00"># OnStart()</text>
<text text-anchor="start" x="8" y="-29.5" font-family="Courier New" font-size="10.00"># OnUpdate()</text>
<text text-anchor="start" x="8" y="-18.5" font-family="Courier New" font-size="10.00">&#45; OnApplicationPause()</text>
<text text-anchor="start" x="8" y="-7.5" font-family="Courier New" font-size="10.00">&#45; OnApplicationQuit()</text>
</a>
</g>
</g>
<!-- Node2 -->
<g id="node2" class="node"><title>Node2</title>
<g id="a_node2"><a xlink:href="../../dc/daa/class_c2_m2_1_1_simulation_1_1_interactable.html" target="_top" xlink:title="Interface for interaction scripts">
<polygon fill="white" stroke="black" points="51,-315.5 51,-383.5 170,-383.5 170,-315.5 51,-315.5"/>
<text text-anchor="middle" x="110.5" y="-371.5" font-family="Courier New" font-size="10.00">Interactable</text>
<polyline fill="none" stroke="black" points="51,-364.5 170,-364.5 "/>
<text text-anchor="start" x="59" y="-352.5" font-family="Courier New" font-size="10.00">+ Heater</text>
<text text-anchor="start" x="59" y="-341.5" font-family="Courier New" font-size="10.00"># interactionType</text>
<polyline fill="none" stroke="black" points="51,-334.5 170,-334.5 "/>
<text text-anchor="start" x="59" y="-322.5" font-family="Courier New" font-size="10.00">+ SetValues()</text>
</a>
</g>
</g>
<!-- Node2&#45;&gt;Node1 -->
<g id="edge1" class="edge"><title>Node2&#45;&gt;Node1</title>
<path fill="none" stroke="midnightblue" d="M110.5,-305.249C110.5,-296.817 110.5,-287.562 110.5,-277.874"/>
<polygon fill="none" stroke="midnightblue" points="107,-305.463 110.5,-315.463 114,-305.463 107,-305.463"/>
</g>
<!-- Node3 -->
<g id="node3" class="node"><title>Node3</title>
<g id="a_node3"><a xlink:title=" ">
<polygon fill="white" stroke="#bfbfbf" points="169,-570.5 169,-627.5 264,-627.5 264,-570.5 169,-570.5"/>
<text text-anchor="middle" x="216.5" y="-615.5" font-family="Courier New" font-size="10.00">MonoBehaviour</text>
<polyline fill="none" stroke="#bfbfbf" points="169,-608.5 264,-608.5 "/>
<text text-anchor="middle" x="216.5" y="-596.5" font-family="Courier New" font-size="10.00"> </text>
<polyline fill="none" stroke="#bfbfbf" points="169,-589.5 264,-589.5 "/>
<text text-anchor="middle" x="216.5" y="-577.5" font-family="Courier New" font-size="10.00"> </text>
</a>
</g>
</g>
<!-- Node3&#45;&gt;Node2 -->
<g id="edge2" class="edge"><title>Node3&#45;&gt;Node2</title>
<path fill="none" stroke="midnightblue" d="M160.644,-568.91C147.316,-559.282 134.617,-547.297 126.5,-533 100.04,-486.395 101.48,-422.077 105.556,-383.553"/>
<polygon fill="none" stroke="midnightblue" points="158.753,-571.857 168.987,-574.599 162.697,-566.074 158.753,-571.857"/>
</g>
<!-- Node4 -->
<g id="node4" class="node"><title>Node4</title>
<g id="a_node4"><a xlink:href="../../dc/d54/class_c2_m2_1_1_interaction_1_1_raycast_heater.html" target="_top" xlink:title=" ">
<polygon fill="white" stroke="black" points="136,-431.5 136,-532.5 297,-532.5 297,-431.5 136,-431.5"/>
<text text-anchor="start" x="144" y="-520.5" font-family="Courier New" font-size="10.00">C2M2.Interaction.Raycast</text>
<text text-anchor="middle" x="216.5" y="-509.5" font-family="Courier New" font-size="10.00">Heater</text>
<polyline fill="none" stroke="black" points="136,-502.5 297,-502.5 "/>
<text text-anchor="middle" x="216.5" y="-490.5" font-family="Courier New" font-size="10.00"> </text>
<polyline fill="none" stroke="black" points="136,-483.5 297,-483.5 "/>
<text text-anchor="start" x="144" y="-471.5" font-family="Courier New" font-size="10.00">+ Hit()</text>
<text text-anchor="start" x="144" y="-460.5" font-family="Courier New" font-size="10.00"># OnAwake()</text>
<text text-anchor="start" x="144" y="-449.5" font-family="Courier New" font-size="10.00"># HitMethod()</text>
<text text-anchor="start" x="144" y="-438.5" font-family="Courier New" font-size="10.00">&#45; Awake()</text>
</a>
</g>
</g>
<!-- Node3&#45;&gt;Node4 -->
<g id="edge4" class="edge"><title>Node3&#45;&gt;Node4</title>
<path fill="none" stroke="midnightblue" d="M216.5,-560.187C216.5,-551.435 216.5,-541.99 216.5,-532.812"/>
<polygon fill="none" stroke="midnightblue" points="213,-560.455 216.5,-570.455 220,-560.455 213,-560.455"/>
</g>
<!-- Node5 -->
<g id="node5" class="node"><title>Node5</title>
<g id="a_node5"><a xlink:href="../../dc/daa/class_c2_m2_1_1_simulation_1_1_interactable.html" target="_top" xlink:title="Interface for interaction scripts">
<polygon fill="white" stroke="black" points="192,-315.5 192,-383.5 377,-383.5 377,-315.5 192,-315.5"/>
<text text-anchor="middle" x="284.5" y="-371.5" font-family="Courier New" font-size="10.00">C2M2.Simulation.Interactable</text>
<polyline fill="none" stroke="black" points="192,-364.5 377,-364.5 "/>
<text text-anchor="start" x="200" y="-352.5" font-family="Courier New" font-size="10.00">+ Heater</text>
<text text-anchor="start" x="200" y="-341.5" font-family="Courier New" font-size="10.00"># interactionType</text>
<polyline fill="none" stroke="black" points="192,-334.5 377,-334.5 "/>
<text text-anchor="start" x="200" y="-322.5" font-family="Courier New" font-size="10.00">+ SetValues()</text>
</a>
</g>
</g>
<!-- Node3&#45;&gt;Node5 -->
<g id="edge6" class="edge"><title>Node3&#45;&gt;Node5</title>
<path fill="none" stroke="midnightblue" d="M272.671,-565.237C284.815,-556.063 296.651,-545.21 305.5,-533 338.408,-487.591 335.725,-468.389 344.5,-413 345.265,-408.171 346.541,-406.442 344.5,-402 341.405,-395.264 336.946,-389.079 331.836,-383.511"/>
<polygon fill="none" stroke="midnightblue" points="270.307,-562.626 264.246,-571.316 274.403,-568.302 270.307,-562.626"/>
</g>
<!-- Node4&#45;&gt;Node2 -->
<g id="edge3" class="edge"><title>Node4&#45;&gt;Node2</title>
<path fill="none" stroke="#404040" d="M168.873,-431.22C163.559,-425.191 158.327,-419.031 153.5,-413 148.639,-406.927 143.733,-400.329 139.06,-393.772"/>
<polygon fill="none" stroke="#404040" points="138.817,-393.424 132.103,-390.793 131.95,-383.583 138.664,-386.215 138.817,-393.424"/>
<text text-anchor="middle" x="178" y="-405" font-family="Courier New" font-size="10.00"> &#45;heater</text>
</g>
<!-- Node4&#45;&gt;Node5 -->
<g id="edge7" class="edge"><title>Node4&#45;&gt;Node5</title>
<path fill="none" stroke="#404040" d="M203.706,-431.243C203.376,-421.14 204.818,-410.894 209.5,-402 211.246,-398.683 213.313,-395.538 215.627,-392.562"/>
<polygon fill="none" stroke="#404040" points="215.683,-392.501 216.765,-385.371 223.763,-383.628 222.68,-390.758 215.683,-392.501"/>
<text text-anchor="middle" x="234" y="-405" font-family="Courier New" font-size="10.00"> &#45;heater</text>
</g>
<!-- Node5&#45;&gt;Node4 -->
<g id="edge5" class="edge"><title>Node5&#45;&gt;Node4</title>
<path fill="none" stroke="#404040" d="M274.62,-383.594C271.259,-393.284 267.157,-403.754 262.5,-413 261.202,-415.578 259.821,-418.173 258.379,-420.767"/>
<polygon fill="none" stroke="#404040" points="258.228,-421.024 258.645,-428.223 252.16,-431.376 251.743,-424.177 258.228,-421.024"/>
<text text-anchor="middle" x="304" y="-405" font-family="Courier New" font-size="10.00"> #simulation</text>
</g>
</g>
</svg>
