<?xml version="1.0" encoding="UTF-8" standalone="no"?>
<!DOCTYPE svg PUBLIC "-//W3C//DTD SVG 1.1//EN"
 "http://www.w3.org/Graphics/SVG/1.1/DTD/svg11.dtd">
<!-- Generated by graphviz version 2.46.0 (20210118.1747)
 -->
<!-- Title: C2M2.Simulation.Simulation&lt; ValueType, VizType, RaycastType, GrabType &gt; Pages: 1 -->
<svg width="393pt" height="669pt"
 viewBox="0.00 0.00 393.00 669.00" xmlns="http://www.w3.org/2000/svg" xmlns:xlink="http://www.w3.org/1999/xlink">
<g id="graph0" class="graph" transform="scale(1 1) rotate(0) translate(4 665)">
<title>C2M2.Simulation.Simulation&lt; ValueType, VizType, RaycastType, GrabType &gt;</title>
<polygon fill="white" stroke="transparent" points="-4,4 -4,-665 389,-665 389,4 -4,4"/>
<!-- Node1 -->
<g id="node1" class="node">
<title>Node1</title>
<g id="a_node1"><a xlink:title="Provides an base interface for simulations using a general data type T">
<polygon fill="#bfbfbf" stroke="black" points="0,-0.5 0,-299.5 221,-299.5 221,-0.5 0,-0.5"/>
<text text-anchor="start" x="8" y="-287.5" font-family="Courier New" font-size="10.00">C2M2.Simulation.Simulation</text>
<text text-anchor="start" x="8" y="-276.5" font-family="Courier New" font-size="10.00">&lt; ValueType, VizType, RaycastType,</text>
<text text-anchor="middle" x="110.5" y="-265.5" font-family="Courier New" font-size="10.00"> GrabType &gt;</text>
<polyline fill="none" stroke="black" points="0,-258.5 221,-258.5 "/>
<text text-anchor="start" x="8" y="-246.5" font-family="Courier New" font-size="10.00">+ dryRun</text>
<text text-anchor="start" x="8" y="-235.5" font-family="Courier New" font-size="10.00">+ startOnAwake</text>
<text text-anchor="start" x="8" y="-224.5" font-family="Courier New" font-size="10.00">+ viz</text>
<text text-anchor="start" x="8" y="-213.5" font-family="Courier New" font-size="10.00"># mutex</text>
<text text-anchor="start" x="8" y="-202.5" font-family="Courier New" font-size="10.00">&#45; solveThread</text>
<polyline fill="none" stroke="black" points="0,-195.5 221,-195.5 "/>
<text text-anchor="start" x="8" y="-183.5" font-family="Courier New" font-size="10.00">+ GetValues()</text>
<text text-anchor="start" x="8" y="-172.5" font-family="Courier New" font-size="10.00">+ Initialize()</text>
<text text-anchor="start" x="8" y="-161.5" font-family="Courier New" font-size="10.00">+ Update()</text>
<text text-anchor="start" x="8" y="-150.5" font-family="Courier New" font-size="10.00">+ StartSimulation()</text>
<text text-anchor="start" x="8" y="-139.5" font-family="Courier New" font-size="10.00">+ StopSimulation()</text>
<text text-anchor="start" x="8" y="-128.5" font-family="Courier New" font-size="10.00"># BuildVisualization()</text>
<text text-anchor="start" x="8" y="-117.5" font-family="Courier New" font-size="10.00"># UpdateVisualization()</text>
<text text-anchor="start" x="8" y="-106.5" font-family="Courier New" font-size="10.00"># Solve()</text>
<text text-anchor="start" x="8" y="-95.5" font-family="Courier New" font-size="10.00"># PreSolve()</text>
<text text-anchor="start" x="8" y="-84.5" font-family="Courier New" font-size="10.00"># OnAwakePre()</text>
<text text-anchor="start" x="8" y="-73.5" font-family="Courier New" font-size="10.00"># OnAwakePost()</text>
<text text-anchor="start" x="8" y="-62.5" font-family="Courier New" font-size="10.00"># OnStart()</text>
<text text-anchor="start" x="8" y="-51.5" font-family="Courier New" font-size="10.00"># OnUpdate()</text>
<text text-anchor="start" x="8" y="-40.5" font-family="Courier New" font-size="10.00"># OnPause()</text>
<text text-anchor="start" x="8" y="-29.5" font-family="Courier New" font-size="10.00"># OnQuit()</text>
<text text-anchor="start" x="8" y="-18.5" font-family="Courier New" font-size="10.00">&#45; OnApplicationPause()</text>
<text text-anchor="start" x="8" y="-7.5" font-family="Courier New" font-size="10.00">&#45; OnApplicationQuit()</text>
</a>
</g>
</g>
<!-- Node2 -->
<g id="node2" class="node">
<title>Node2</title>
<g id="a_node2"><a xlink:href="../../dc/daa/class_c2_m2_1_1_simulation_1_1_interactable.html" target="_top" xlink:title="Interface for interaction scripts">
<polygon fill="white" stroke="black" points="39,-337.5 39,-416.5 182,-416.5 182,-337.5 39,-337.5"/>
<text text-anchor="middle" x="110.5" y="-404.5" font-family="Courier New" font-size="10.00">Interactable</text>
<polyline fill="none" stroke="black" points="39,-397.5 182,-397.5 "/>
<text text-anchor="start" x="47" y="-385.5" font-family="Courier New" font-size="10.00">+ Heater</text>
<text text-anchor="start" x="47" y="-374.5" font-family="Courier New" font-size="10.00"># interactionType</text>
<polyline fill="none" stroke="black" points="39,-367.5 182,-367.5 "/>
<text text-anchor="start" x="47" y="-355.5" font-family="Courier New" font-size="10.00">+ SetValues()</text>
<text text-anchor="start" x="47" y="-344.5" font-family="Courier New" font-size="10.00">+ GetSimulationTime()</text>
</a>
</g>
</g>
<!-- Node2&#45;&gt;Node1 -->
<g id="edge1" class="edge">
<title>Node2&#45;&gt;Node1</title>
<path fill="none" stroke="midnightblue" d="M110.5,-327.05C110.5,-318.62 110.5,-309.48 110.5,-299.95"/>
<polygon fill="none" stroke="midnightblue" points="107,-327.32 110.5,-337.32 114,-327.32 107,-327.32"/>
</g>
<!-- Node3 -->
<g id="node3" class="node">
<title>Node3</title>
<g id="a_node3"><a xlink:title=" ">
<polygon fill="white" stroke="#bfbfbf" points="172,-603.5 172,-660.5 267,-660.5 267,-603.5 172,-603.5"/>
<text text-anchor="middle" x="219.5" y="-648.5" font-family="Courier New" font-size="10.00">MonoBehaviour</text>
<polyline fill="none" stroke="#bfbfbf" points="172,-641.5 267,-641.5 "/>
<text text-anchor="middle" x="219.5" y="-629.5" font-family="Courier New" font-size="10.00"> </text>
<polyline fill="none" stroke="#bfbfbf" points="172,-622.5 267,-622.5 "/>
<text text-anchor="middle" x="219.5" y="-610.5" font-family="Courier New" font-size="10.00"> </text>
</a>
</g>
</g>
<!-- Node3&#45;&gt;Node2 -->
<g id="edge2" class="edge">
<title>Node3&#45;&gt;Node2</title>
<path fill="none" stroke="midnightblue" d="M163.38,-601.56C150.2,-591.98 137.63,-580.1 129.5,-566 102.95,-519.96 102.4,-456.9 105.57,-416.81"/>
<polygon fill="none" stroke="midnightblue" points="161.41,-604.45 171.64,-607.22 165.37,-598.68 161.41,-604.45"/>
</g>
<!-- Node4 -->
<g id="node4" class="node">
<title>Node4</title>
<g id="a_node4"><a xlink:href="../../dc/d54/class_c2_m2_1_1_interaction_1_1_raycast_heater.html" target="_top" xlink:title=" ">
<polygon fill="white" stroke="black" points="139,-464.5 139,-565.5 300,-565.5 300,-464.5 139,-464.5"/>
<text text-anchor="start" x="147" y="-553.5" font-family="Courier New" font-size="10.00">C2M2.Interaction.Raycast</text>
<text text-anchor="middle" x="219.5" y="-542.5" font-family="Courier New" font-size="10.00">Heater</text>
<polyline fill="none" stroke="black" points="139,-535.5 300,-535.5 "/>
<text text-anchor="middle" x="219.5" y="-523.5" font-family="Courier New" font-size="10.00"> </text>
<polyline fill="none" stroke="black" points="139,-516.5 300,-516.5 "/>
<text text-anchor="start" x="147" y="-504.5" font-family="Courier New" font-size="10.00">+ Hit()</text>
<text text-anchor="start" x="147" y="-493.5" font-family="Courier New" font-size="10.00"># OnAwake()</text>
<text text-anchor="start" x="147" y="-482.5" font-family="Courier New" font-size="10.00"># HitMethod()</text>
<text text-anchor="start" x="147" y="-471.5" font-family="Courier New" font-size="10.00">&#45; Awake()</text>
</a>
</g>
</g>
<!-- Node3&#45;&gt;Node4 -->
<g id="edge4" class="edge">
<title>Node3&#45;&gt;Node4</title>
<path fill="none" stroke="midnightblue" d="M219.5,-593.19C219.5,-584.43 219.5,-574.99 219.5,-565.81"/>
<polygon fill="none" stroke="midnightblue" points="216,-593.45 219.5,-603.45 223,-593.45 216,-593.45"/>
</g>
<!-- Node5 -->
<g id="node5" class="node">
<title>Node5</title>
<g id="a_node5"><a xlink:href="../../dc/daa/class_c2_m2_1_1_simulation_1_1_interactable.html" target="_top" xlink:title="Interface for interaction scripts">
<polygon fill="white" stroke="black" points="200,-337.5 200,-416.5 385,-416.5 385,-337.5 200,-337.5"/>
<text text-anchor="middle" x="292.5" y="-404.5" font-family="Courier New" font-size="10.00">C2M2.Simulation.Interactable</text>
<polyline fill="none" stroke="black" points="200,-397.5 385,-397.5 "/>
<text text-anchor="start" x="208" y="-385.5" font-family="Courier New" font-size="10.00">+ Heater</text>
<text text-anchor="start" x="208" y="-374.5" font-family="Courier New" font-size="10.00"># interactionType</text>
<polyline fill="none" stroke="black" points="200,-367.5 385,-367.5 "/>
<text text-anchor="start" x="208" y="-355.5" font-family="Courier New" font-size="10.00">+ SetValues()</text>
<text text-anchor="start" x="208" y="-344.5" font-family="Courier New" font-size="10.00">+ GetSimulationTime()</text>
</a>
</g>
</g>
<!-- Node3&#45;&gt;Node5 -->
<g id="edge6" class="edge">
<title>Node3&#45;&gt;Node5</title>
<path fill="none" stroke="midnightblue" d="M275.43,-598.78C287.98,-589.49 300.28,-578.45 309.5,-566 343.03,-520.7 341.26,-501.6 350.5,-446 352.28,-435.29 348.75,-425.35 342.68,-416.56"/>
<polygon fill="none" stroke="midnightblue" points="273.32,-595.99 267.19,-604.63 277.37,-601.7 273.32,-595.99"/>
</g>
<!-- Node4&#45;&gt;Node2 -->
<g id="edge3" class="edge">
<title>Node4&#45;&gt;Node2</title>
<path fill="none" stroke="#404040" d="M173.85,-464.44C168.57,-458.32 163.34,-452.08 158.5,-446 153.65,-439.92 148.72,-433.39 143.96,-426.87"/>
<polygon fill="none" stroke="#404040" points="143.65,-426.44 136.9,-423.9 136.64,-416.7 143.4,-419.23 143.65,-426.44"/>
<text text-anchor="middle" x="183" y="-438" font-family="Courier New" font-size="10.00"> &#45;heater</text>
</g>
<!-- Node4&#45;&gt;Node5 -->
<g id="edge7" class="edge">
<title>Node4&#45;&gt;Node5</title>
<path fill="none" stroke="#404040" d="M209.37,-464.33C209.38,-454.22 210.99,-443.95 215.5,-435 217.08,-431.87 218.92,-428.86 220.97,-425.99"/>
<polygon fill="none" stroke="#404040" points="221,-425.95 221.76,-418.78 228.67,-416.71 227.91,-423.89 221,-425.95"/>
<text text-anchor="middle" x="240" y="-438" font-family="Courier New" font-size="10.00"> &#45;heater</text>
</g>
<!-- Node5&#45;&gt;Node4 -->
<g id="edge5" class="edge">
<title>Node5&#45;&gt;Node4</title>
<path fill="none" stroke="#404040" d="M281.03,-416.58C277.53,-426.41 273.32,-436.79 268.5,-446 267.16,-448.56 265.74,-451.13 264.25,-453.69"/>
<polygon fill="none" stroke="#404040" points="264.1,-453.93 264.36,-461.14 257.81,-464.15 257.55,-456.95 264.1,-453.93"/>
<text text-anchor="middle" x="310" y="-438" font-family="Courier New" font-size="10.00"> #simulation</text>
</g>
</g>
</svg>
