<?xml version="1.0" encoding="UTF-8" standalone="no"?>
<!DOCTYPE svg PUBLIC "-//W3C//DTD SVG 1.1//EN"
 "http://www.w3.org/Graphics/SVG/1.1/DTD/svg11.dtd">
<!-- Generated by graphviz version 2.38.0 (20140413.2041)
 -->
<!-- Title: C2M2.Simulation.Simulation&lt; ValueType, VizType &gt; Pages: 1 -->
<!--zoomable 752 -->
<svg id="main" version="1.1" xmlns="http://www.w3.org/2000/svg" xmlns:xlink="http://www.w3.org/1999/xlink" xml:space="preserve" onload="init(evt)">
<style type="text/css"><![CDATA[
.edge:hover path { stroke: red; }
.edge:hover polygon { stroke: red; fill: red; }
]]></style>
<script type="text/javascript"><![CDATA[
var edges = document.getElementsByTagName('g');
if (edges && edges.length) {
  for (var i=0;i<edges.length;i++) {
    if (edges[i].id.substr(0,4)=='edge') {
      edges[i].setAttribute('class','edge');
    }
  }
}
]]></script>
        <defs>
                <circle id="rim" cx="0" cy="0" r="7"/>
                <circle id="rim2" cx="0" cy="0" r="3.5"/>
                <g id="zoomPlus">
                        <use xlink:href="#rim" fill="#404040">
                                <set attributeName="fill" to="#808080" begin="zoomplus.mouseover" end="zoomplus.mouseout"/>
                        </use>
                        <path d="M-4,0h8M0,-4v8" fill="none" stroke="white" stroke-width="1.5" pointer-events="none"/>
                </g>
                <g id="zoomMin">
                        <use xlink:href="#rim" fill="#404040">
                                <set attributeName="fill" to="#808080" begin="zoomminus.mouseover" end="zoomminus.mouseout"/>
                        </use>
                        <path d="M-4,0h8" fill="none" stroke="white" stroke-width="1.5" pointer-events="none"/>
                </g>
                <g id="dirArrow">
                        <path fill="none" stroke="white" stroke-width="1.5" d="M0,-3.0v7 M-2.5,-0.5L0,-3.0L2.5,-0.5"/>
                </g>
               <g id="resetDef">
                       <use xlink:href="#rim2" fill="#404040">
                               <set attributeName="fill" to="#808080" begin="reset.mouseover" end="reset.mouseout"/>
                       </use>
               </g>
        </defs>

<script type="text/javascript">
var viewWidth = 387;
var viewHeight = 752;
var sectionId = 'dynsection-1';
</script>
<script xlink:href="../../svgpan.js"/>
<svg id="graph" class="graph">
<g id="viewport">
<title>C2M2.Simulation.Simulation&lt; ValueType, VizType &gt;</title>
<polygon fill="white" stroke="none" points="-4,4 -4,-748 383,-748 383,4 -4,4"/>
<!-- Node1 -->
<g id="node1" class="node"><title>Node1</title>
<g id="a_node1"><a xlink:title="Provides an base interface for simulations using a general data type T">
<polygon fill="#bfbfbf" stroke="black" points="0,-0.5 0,-233.5 173,-233.5 173,-0.5 0,-0.5"/>
<text text-anchor="start" x="8" y="-221.5" font-family="Courier New" font-size="10.00">C2M2.Simulation.Simulation</text>
<text text-anchor="middle" x="86.5" y="-210.5" font-family="Courier New" font-size="10.00">&lt; ValueType, VizType &gt;</text>
<polyline fill="none" stroke="black" points="0,-203.5 173,-203.5 "/>
<text text-anchor="start" x="8" y="-191.5" font-family="Courier New" font-size="10.00">+ startOnAwake</text>
<text text-anchor="start" x="8" y="-180.5" font-family="Courier New" font-size="10.00"># mutex</text>
<text text-anchor="start" x="8" y="-169.5" font-family="Courier New" font-size="10.00">&#45; solveThread</text>
<polyline fill="none" stroke="black" points="0,-162.5 173,-162.5 "/>
<text text-anchor="start" x="8" y="-150.5" font-family="Courier New" font-size="10.00">+ GetValues()</text>
<text text-anchor="start" x="8" y="-139.5" font-family="Courier New" font-size="10.00">+ StartSimulation()</text>
<text text-anchor="start" x="8" y="-128.5" font-family="Courier New" font-size="10.00">+ StopSimulation()</text>
<text text-anchor="start" x="8" y="-117.5" font-family="Courier New" font-size="10.00">+ Awake()</text>
<text text-anchor="start" x="8" y="-106.5" font-family="Courier New" font-size="10.00">+ Start()</text>
<text text-anchor="start" x="8" y="-95.5" font-family="Courier New" font-size="10.00">+ Update()</text>
<text text-anchor="start" x="8" y="-84.5" font-family="Courier New" font-size="10.00"># BuildVisualization()</text>
<text text-anchor="start" x="8" y="-73.5" font-family="Courier New" font-size="10.00"># UpdateVisualization()</text>
<text text-anchor="start" x="8" y="-62.5" font-family="Courier New" font-size="10.00"># Solve()</text>
<text text-anchor="start" x="8" y="-51.5" font-family="Courier New" font-size="10.00"># OnAwake()</text>
<text text-anchor="start" x="8" y="-40.5" font-family="Courier New" font-size="10.00"># OnStart()</text>
<text text-anchor="start" x="8" y="-29.5" font-family="Courier New" font-size="10.00"># OnUpdate()</text>
<text text-anchor="start" x="8" y="-18.5" font-family="Courier New" font-size="10.00">&#45; OnApplicationPause()</text>
<text text-anchor="start" x="8" y="-7.5" font-family="Courier New" font-size="10.00">&#45; OnApplicationQuit()</text>
</a>
</g>
</g>
<!-- Node2 -->
<g id="node2" class="node"><title>Node2</title>
<g id="a_node2"><a xlink:href="../../dc/daa/class_c2_m2_1_1_simulation_1_1_interactable.html" target="_top" xlink:title="Interface for interaction scripts">
<polygon fill="white" stroke="black" points="27,-271.5 27,-339.5 146,-339.5 146,-271.5 27,-271.5"/>
<text text-anchor="middle" x="86.5" y="-327.5" font-family="Courier New" font-size="10.00">Interactable</text>
<polyline fill="none" stroke="black" points="27,-320.5 146,-320.5 "/>
<text text-anchor="start" x="35" y="-308.5" font-family="Courier New" font-size="10.00">+ interactionType</text>
<text text-anchor="start" x="35" y="-297.5" font-family="Courier New" font-size="10.00">+ SimHeater</text>
<polyline fill="none" stroke="black" points="27,-290.5 146,-290.5 "/>
<text text-anchor="start" x="35" y="-278.5" font-family="Courier New" font-size="10.00">+ SetValues()</text>
</a>
</g>
</g>
<!-- Node2&#45;&gt;Node1 -->
<g id="edge1" class="edge"><title>Node2&#45;&gt;Node1</title>
<path fill="none" stroke="midnightblue" d="M86.5,-260.882C86.5,-252.419 86.5,-243.187 86.5,-233.62"/>
<polygon fill="none" stroke="midnightblue" points="83.0001,-261.158 86.5,-271.158 90.0001,-261.158 83.0001,-261.158"/>
</g>
<!-- Node3 -->
<g id="node3" class="node"><title>Node3</title>
<g id="a_node3"><a xlink:title=" ">
<polygon fill="white" stroke="#bfbfbf" points="98,-686.5 98,-743.5 193,-743.5 193,-686.5 98,-686.5"/>
<text text-anchor="middle" x="145.5" y="-731.5" font-family="Courier New" font-size="10.00">MonoBehaviour</text>
<polyline fill="none" stroke="#bfbfbf" points="98,-724.5 193,-724.5 "/>
<text text-anchor="middle" x="145.5" y="-712.5" font-family="Courier New" font-size="10.00"> </text>
<polyline fill="none" stroke="#bfbfbf" points="98,-705.5 193,-705.5 "/>
<text text-anchor="middle" x="145.5" y="-693.5" font-family="Courier New" font-size="10.00"> </text>
</a>
</g>
</g>
<!-- Node3&#45;&gt;Node2 -->
<g id="edge2" class="edge"><title>Node3&#45;&gt;Node2</title>
<path fill="none" stroke="midnightblue" d="M122.979,-677.258C118.432,-668.302 114.218,-658.545 111.5,-649 80.2331,-539.192 81.7551,-402.013 84.5068,-339.858"/>
<polygon fill="none" stroke="midnightblue" points="119.989,-679.089 127.79,-686.258 126.162,-675.789 119.989,-679.089"/>
</g>
<!-- Node4 -->
<g id="node4" class="node"><title>Node4</title>
<g id="a_node4"><a xlink:href="../../d4/dfc/class_c2_m2_1_1_interaction_1_1_raycast_sim_heater.html" target="_top" xlink:title=" ">
<polygon fill="white" stroke="black" points="116,-387.5 116,-488.5 277,-488.5 277,-387.5 116,-387.5"/>
<text text-anchor="start" x="124" y="-476.5" font-family="Courier New" font-size="10.00">C2M2.Interaction.Raycast</text>
<text text-anchor="middle" x="196.5" y="-465.5" font-family="Courier New" font-size="10.00">SimHeater</text>
<polyline fill="none" stroke="black" points="116,-458.5 277,-458.5 "/>
<text text-anchor="middle" x="196.5" y="-446.5" font-family="Courier New" font-size="10.00"> </text>
<polyline fill="none" stroke="black" points="116,-439.5 277,-439.5 "/>
<text text-anchor="start" x="124" y="-427.5" font-family="Courier New" font-size="10.00">+ Hit()</text>
<text text-anchor="start" x="124" y="-416.5" font-family="Courier New" font-size="10.00"># OnAwake()</text>
<text text-anchor="start" x="124" y="-405.5" font-family="Courier New" font-size="10.00"># HitMethod()</text>
<text text-anchor="start" x="124" y="-394.5" font-family="Courier New" font-size="10.00">&#45; Awake()</text>
</a>
</g>
</g>
<!-- Node3&#45;&gt;Node4 -->
<g id="edge4" class="edge"><title>Node3&#45;&gt;Node4</title>
<path fill="none" stroke="midnightblue" d="M131.221,-676.59C128.435,-667.677 125.935,-658.107 124.5,-649 116.685,-599.39 108.737,-583.684 124.5,-536 130.062,-519.174 139.797,-502.887 150.344,-488.617"/>
<polygon fill="none" stroke="midnightblue" points="127.975,-677.923 134.446,-686.312 134.619,-675.719 127.975,-677.923"/>
</g>
<!-- Node5 -->
<g id="node5" class="node"><title>Node5</title>
<g id="a_node5"><a xlink:href="../../d5/d84/class_c2_m2_1_1_interaction_1_1_v_r_1_1_v_r_raycastable.html" target="_top" xlink:title=" ">
<polygon fill="white" stroke="black" points="134,-536.5 134,-648.5 349,-648.5 349,-536.5 134,-536.5"/>
<text text-anchor="middle" x="241.5" y="-636.5" font-family="Courier New" font-size="10.00">C2M2.Interaction.VR.VRRaycastable</text>
<polyline fill="none" stroke="black" points="134,-629.5 349,-629.5 "/>
<text text-anchor="start" x="142" y="-617.5" font-family="Courier New" font-size="10.00">+ raycastTargetObject</text>
<text text-anchor="start" x="142" y="-606.5" font-family="Courier New" font-size="10.00">+ ColliderMesh</text>
<text text-anchor="start" x="142" y="-595.5" font-family="Courier New" font-size="10.00">&#45; colliderMesh</text>
<polyline fill="none" stroke="black" points="134,-588.5 349,-588.5 "/>
<text text-anchor="start" x="142" y="-576.5" font-family="Courier New" font-size="10.00">&#45; Awake()</text>
<text text-anchor="start" x="142" y="-565.5" font-family="Courier New" font-size="10.00">&#45; BuildChildObject()</text>
<text text-anchor="start" x="142" y="-554.5" font-family="Courier New" font-size="10.00">&#45; BuildRigidBody()</text>
<text text-anchor="start" x="142" y="-543.5" font-family="Courier New" font-size="10.00">&#45; BuildMeshCollider()</text>
</a>
</g>
</g>
<!-- Node3&#45;&gt;Node5 -->
<g id="edge6" class="edge"><title>Node3&#45;&gt;Node5</title>
<path fill="none" stroke="midnightblue" d="M173.863,-678.399C181.326,-669.03 189.555,-658.701 197.627,-648.569"/>
<polygon fill="none" stroke="midnightblue" points="171.018,-676.353 167.524,-686.355 176.493,-680.714 171.018,-676.353"/>
</g>
<!-- Node6 -->
<g id="node6" class="node"><title>Node6</title>
<g id="a_node6"><a xlink:href="../../dc/daa/class_c2_m2_1_1_simulation_1_1_interactable.html" target="_top" xlink:title="Interface for interaction scripts">
<polygon fill="white" stroke="black" points="194,-271.5 194,-339.5 379,-339.5 379,-271.5 194,-271.5"/>
<text text-anchor="middle" x="286.5" y="-327.5" font-family="Courier New" font-size="10.00">C2M2.Simulation.Interactable</text>
<polyline fill="none" stroke="black" points="194,-320.5 379,-320.5 "/>
<text text-anchor="start" x="202" y="-308.5" font-family="Courier New" font-size="10.00">+ interactionType</text>
<text text-anchor="start" x="202" y="-297.5" font-family="Courier New" font-size="10.00">+ SimHeater</text>
<polyline fill="none" stroke="black" points="194,-290.5 379,-290.5 "/>
<text text-anchor="start" x="202" y="-278.5" font-family="Courier New" font-size="10.00">+ SetValues()</text>
</a>
</g>
</g>
<!-- Node3&#45;&gt;Node6 -->
<g id="edge8" class="edge"><title>Node3&#45;&gt;Node6</title>
<path fill="none" stroke="midnightblue" d="M203.251,-704.282C259.731,-693.462 339.89,-674.136 358.5,-649 379.51,-620.622 362.894,-388.633 347.5,-358 344.139,-351.313 339.482,-345.155 334.225,-339.601"/>
<polygon fill="none" stroke="midnightblue" points="202.536,-700.855 193.352,-706.139 203.826,-707.735 202.536,-700.855"/>
</g>
<!-- Node4&#45;&gt;Node2 -->
<g id="edge3" class="edge"><title>Node4&#45;&gt;Node2</title>
<path fill="none" stroke="#404040" d="M134.636,-387.148C128.867,-381.323 123.368,-375.228 118.5,-369 114.075,-363.34 109.992,-356.973 106.327,-350.525"/>
<polygon fill="none" stroke="#404040" points="106.207,-350.3 99.8568,-346.883 100.568,-339.707 106.918,-343.124 106.207,-350.3"/>
<text text-anchor="middle" x="152" y="-361" font-family="Courier New" font-size="10.00"> &#45;simHeater</text>
</g>
<!-- Node4&#45;&gt;Node6 -->
<g id="edge9" class="edge"><title>Node4&#45;&gt;Node6</title>
<path fill="none" stroke="#404040" d="M186.288,-387.255C186.418,-377.043 188.343,-366.75 193.5,-358 195.562,-354.502 197.956,-351.225 200.61,-348.156"/>
<polygon fill="none" stroke="#404040" points="200.756,-348.011 202.203,-340.947 209.28,-339.565 207.833,-346.63 200.756,-348.011"/>
<text text-anchor="middle" x="227" y="-361" font-family="Courier New" font-size="10.00"> &#45;simHeater</text>
</g>
<!-- Node5&#45;&gt;Node4 -->
<g id="edge5" class="edge"><title>Node5&#45;&gt;Node4</title>
<path fill="none" stroke="#404040" d="M225.254,-536.444C221.799,-524.734 218.13,-512.3 214.61,-500.372"/>
<polygon fill="none" stroke="#404040" points="214.549,-500.167 209.015,-495.544 211.153,-488.657 216.688,-493.28 214.549,-500.167"/>
<text text-anchor="middle" x="259" y="-510" font-family="Courier New" font-size="10.00"> #raycastable</text>
</g>
<!-- Node6&#45;&gt;Node4 -->
<g id="edge7" class="edge"><title>Node6&#45;&gt;Node4</title>
<path fill="none" stroke="#404040" d="M277.924,-339.56C274.566,-349.454 270.139,-360.044 264.5,-369 262.665,-371.914 260.685,-374.8 258.594,-377.643"/>
<polygon fill="none" stroke="#404040" points="258.545,-377.705 257.968,-384.893 251.111,-387.125 251.688,-379.937 258.545,-377.705"/>
<text text-anchor="middle" x="307" y="-361" font-family="Courier New" font-size="10.00"> #simulation</text>
</g>
</g>
</svg>
        <g id="navigator" transform="translate(0 0)" fill="#404254">
                <rect fill="#f2f5e9" fill-opacity="0.5" stroke="#606060" stroke-width=".5" x="0" y="0" width="60" height="60"/>
                <use id="zoomplus" xlink:href="#zoomPlus" x="17" y="9" onmousedown="handleZoom(evt,'in')"/>
                <use id="zoomminus" xlink:href="#zoomMin" x="42" y="9" onmousedown="handleZoom(evt,'out')"/>
                <use id="reset" xlink:href="#resetDef" x="30" y="36" onmousedown="handleReset()"/>
                <g id="arrowUp" xlink:href="#dirArrow" transform="translate(30 24)" onmousedown="handlePan(0,-1)">
                  <use xlink:href="#rim" fill="#404040">
                        <set attributeName="fill" to="#808080" begin="arrowUp.mouseover" end="arrowUp.mouseout"/>
                  </use>
                  <path fill="none" stroke="white" stroke-width="1.5" d="M0,-3.0v7 M-2.5,-0.5L0,-3.0L2.5,-0.5"/>
                </g>
                <g id="arrowRight" xlink:href="#dirArrow" transform="rotate(90) translate(36 -43)" onmousedown="handlePan(1,0)">
                  <use xlink:href="#rim" fill="#404040">
                        <set attributeName="fill" to="#808080" begin="arrowRight.mouseover" end="arrowRight.mouseout"/>
                  </use>
                  <path fill="none" stroke="white" stroke-width="1.5" d="M0,-3.0v7 M-2.5,-0.5L0,-3.0L2.5,-0.5"/>
                </g>
                <g id="arrowDown" xlink:href="#dirArrow" transform="rotate(180) translate(-30 -48)" onmousedown="handlePan(0,1)">
                  <use xlink:href="#rim" fill="#404040">
                        <set attributeName="fill" to="#808080" begin="arrowDown.mouseover" end="arrowDown.mouseout"/>
                  </use>
                  <path fill="none" stroke="white" stroke-width="1.5" d="M0,-3.0v7 M-2.5,-0.5L0,-3.0L2.5,-0.5"/>
                </g>
                <g id="arrowLeft" xlink:href="#dirArrow" transform="rotate(270) translate(-36 17)" onmousedown="handlePan(-1,0)">
                  <use xlink:href="#rim" fill="#404040">
                        <set attributeName="fill" to="#808080" begin="arrowLeft.mouseover" end="arrowLeft.mouseout"/>
                  </use>
                  <path fill="none" stroke="white" stroke-width="1.5" d="M0,-3.0v7 M-2.5,-0.5L0,-3.0L2.5,-0.5"/>
                </g>
        </g>
        <svg viewBox="0 0 15 15" width="100%" height="30px" preserveAspectRatio="xMaxYMin meet">
         <g id="arrow_out" transform="scale(0.3 0.3)">
          <a xlink:href="class_c2_m2_1_1_simulation_1_1_simulation__coll__graph_org.svg" target="_base">
           <rect id="button" ry="5" rx="5" y="6" x="6" height="38" width="38"
                fill="#f2f5e9" fill-opacity="0.5" stroke="#606060" stroke-width="1.0"/>
           <path id="arrow"
             d="M 11.500037,31.436501 C 11.940474,20.09759 22.043105,11.32322 32.158766,21.979434 L 37.068811,17.246167 C 37.068811,17.246167 37.088388,32 37.088388,32 L 22.160133,31.978069 C 22.160133,31.978069 26.997745,27.140456 26.997745,27.140456 C 18.528582,18.264221 13.291696,25.230495 11.500037,31.436501 z"
             style="fill:#404040;"/>
          </a>
         </g>
        </svg>
</svg>
