<?xml version="1.0" encoding="UTF-8" standalone="no"?>
<!DOCTYPE svg PUBLIC "-//W3C//DTD SVG 1.1//EN"
 "http://www.w3.org/Graphics/SVG/1.1/DTD/svg11.dtd">
<!-- Generated by graphviz version 2.38.0 (20140413.2041)
 -->
<!-- Title: C2M2.NeuronalDynamics.UGX.VertexAttachementAccessor&lt; T &gt; Pages: 1 -->
<svg width="336pt" height="347pt"
 viewBox="0.00 0.00 336.00 347.00" xmlns="http://www.w3.org/2000/svg" xmlns:xlink="http://www.w3.org/1999/xlink">
<g id="graph0" class="graph" transform="scale(1 1) rotate(0) translate(4 343)">
<title>C2M2.NeuronalDynamics.UGX.VertexAttachementAccessor&lt; T &gt;</title>
<polygon fill="white" stroke="none" points="-4,4 -4,-343 332,-343 332,4 -4,4"/>
<!-- Node1 -->
<g id="node1" class="node"><title>Node1</title>
<g id="a_node1"><a xlink:title="VertexAttachmentAcccesor">
<polygon fill="#bfbfbf" stroke="black" points="44,-0.5 44,-123.5 241,-123.5 241,-0.5 44,-0.5"/>
<text text-anchor="start" x="52" y="-111.5" font-family="Courier New" font-size="10.00">C2M2.NeuronalDynamics.UGX.</text>
<text text-anchor="middle" x="142.5" y="-100.5" font-family="Courier New" font-size="10.00">VertexAttachementAccessor&lt; T &gt;</text>
<polyline fill="none" stroke="black" points="44,-93.5 241,-93.5 "/>
<text text-anchor="start" x="52" y="-81.5" font-family="Courier New" font-size="10.00">+ this[int key]</text>
<polyline fill="none" stroke="black" points="44,-74.5 241,-74.5 "/>
<text text-anchor="start" x="52" y="-62.5" font-family="Courier New" font-size="10.00">+ VertexAttachementAccessor()</text>
<text text-anchor="start" x="52" y="-51.5" font-family="Courier New" font-size="10.00">+ VertexAttachementAccessor()</text>
<text text-anchor="start" x="52" y="-40.5" font-family="Courier New" font-size="10.00">+ GetEnumerator()</text>
<text text-anchor="start" x="52" y="-29.5" font-family="Courier New" font-size="10.00">&#45; GetValue()</text>
<text text-anchor="start" x="52" y="-18.5" font-family="Courier New" font-size="10.00">&#45; SetValue()</text>
<text text-anchor="start" x="52" y="-7.5" font-family="Courier New" font-size="10.00">&#45; GetEnumerator()</text>
</a>
</g>
</g>
<!-- Node2 -->
<g id="node2" class="node"><title>Node2</title>
<g id="a_node2"><a xlink:title=" ">
<polygon fill="white" stroke="#bfbfbf" points="0,-226.5 0,-283.5 113,-283.5 113,-226.5 0,-226.5"/>
<text text-anchor="middle" x="56.5" y="-271.5" font-family="Courier New" font-size="10.00">IEnumerable&lt; T &gt;</text>
<polyline fill="none" stroke="#bfbfbf" points="0,-264.5 113,-264.5 "/>
<text text-anchor="middle" x="56.5" y="-252.5" font-family="Courier New" font-size="10.00"> </text>
<polyline fill="none" stroke="#bfbfbf" points="0,-245.5 113,-245.5 "/>
<text text-anchor="middle" x="56.5" y="-233.5" font-family="Courier New" font-size="10.00"> </text>
</a>
</g>
</g>
<!-- Node2&#45;&gt;Node1 -->
<g id="edge1" class="edge"><title>Node2&#45;&gt;Node1</title>
<path fill="none" stroke="midnightblue" d="M73.1883,-216.936C85.1161,-190.446 101.432,-154.21 115.237,-123.549"/>
<polygon fill="none" stroke="midnightblue" points="69.9194,-215.672 69.0051,-226.227 76.3022,-218.546 69.9194,-215.672"/>
</g>
<!-- Node3 -->
<g id="node3" class="node"><title>Node3</title>
<g id="a_node3"><a xlink:href="../../d8/d5b/class_c2_m2_1_1_neuronal_dynamics_1_1_u_g_x_1_1_grid.html" target="_top" xlink:title="Encapsulates Unity mesh and the edges of the UGX file">
<polygon fill="white" stroke="black" points="131,-171.5 131,-338.5 328,-338.5 328,-171.5 131,-171.5"/>
<text text-anchor="middle" x="229.5" y="-326.5" font-family="Courier New" font-size="10.00">C2M2.NeuronalDynamics.UGX.Grid</text>
<polyline fill="none" stroke="black" points="131,-319.5 328,-319.5 "/>
<text text-anchor="start" x="139" y="-307.5" font-family="Courier New" font-size="10.00">+ types</text>
<text text-anchor="start" x="139" y="-296.5" font-family="Courier New" font-size="10.00">+ data</text>
<text text-anchor="start" x="139" y="-285.5" font-family="Courier New" font-size="10.00">+ AttachmentInfo</text>
<text text-anchor="start" x="139" y="-274.5" font-family="Courier New" font-size="10.00">+ Mesh</text>
<text text-anchor="start" x="139" y="-263.5" font-family="Courier New" font-size="10.00">+ Edges</text>
<text text-anchor="start" x="139" y="-252.5" font-family="Courier New" font-size="10.00">+ Vertices</text>
<text text-anchor="start" x="139" y="-241.5" font-family="Courier New" font-size="10.00">+ Subsets</text>
<text text-anchor="start" x="139" y="-230.5" font-family="Courier New" font-size="10.00">+ Type</text>
<polyline fill="none" stroke="black" points="131,-223.5 328,-223.5 "/>
<text text-anchor="start" x="139" y="-211.5" font-family="Courier New" font-size="10.00">+ ToString()</text>
<text text-anchor="start" x="139" y="-200.5" font-family="Courier New" font-size="10.00">+ Grid()</text>
<text text-anchor="start" x="139" y="-189.5" font-family="Courier New" font-size="10.00">+ HasVertexAttachment&lt; T &gt;()</text>
<text text-anchor="start" x="139" y="-178.5" font-family="Courier New" font-size="10.00">+ Clear()</text>
</a>
</g>
</g>
<!-- Node3&#45;&gt;Node1 -->
<g id="edge2" class="edge"><title>Node3&#45;&gt;Node1</title>
<path fill="none" stroke="#404040" d="M191.847,-171.335C186.313,-159.187 180.651,-146.757 175.228,-134.85"/>
<polygon fill="none" stroke="#404040" points="175.087,-134.542 168.96,-130.74 170.113,-123.621 176.24,-127.423 175.087,-134.542"/>
<text text-anchor="middle" x="202" y="-145" font-family="Courier New" font-size="10.00"> &#45;grid</text>
</g>
</g>
</svg>
