<?xml version="1.0" encoding="UTF-8" standalone="no"?>
<!DOCTYPE svg PUBLIC "-//W3C//DTD SVG 1.1//EN"
 "http://www.w3.org/Graphics/SVG/1.1/DTD/svg11.dtd">
<!-- Generated by graphviz version 2.38.0 (20140413.2041)
 -->
<!-- Title: C2M2.Interaction.Adjacency.UniqueVertices Pages: 1 -->
<svg width="217pt" height="281pt"
 viewBox="0.00 0.00 217.00 281.00" xmlns="http://www.w3.org/2000/svg" xmlns:xlink="http://www.w3.org/1999/xlink">
<g id="graph0" class="graph" transform="scale(1 1) rotate(0) translate(4 277)">
<title>C2M2.Interaction.Adjacency.UniqueVertices</title>
<polygon fill="white" stroke="none" points="-4,4 -4,-277 213,-277 213,4 -4,4"/>
<!-- Node1 -->
<g id="node1" class="node"><title>Node1</title>
<g id="a_node1"><a xlink:title="Get the unique vertices of a mesh and add invisible vertices for adjacency list">
<polygon fill="#bfbfbf" stroke="black" points="0,-0.5 0,-178.5 209,-178.5 209,-0.5 0,-0.5"/>
<text text-anchor="start" x="8" y="-166.5" font-family="Courier New" font-size="10.00">C2M2.Interaction.Adjacency.</text>
<text text-anchor="middle" x="104.5" y="-155.5" font-family="Courier New" font-size="10.00">UniqueVertices</text>
<polyline fill="none" stroke="black" points="0,-148.5 209,-148.5 "/>
<text text-anchor="start" x="8" y="-136.5" font-family="Courier New" font-size="10.00">+ subdivisions</text>
<text text-anchor="start" x="8" y="-125.5" font-family="Courier New" font-size="10.00">+ uniqueVerts</text>
<text text-anchor="start" x="8" y="-114.5" font-family="Courier New" font-size="10.00">+ uniqueMeshVertLength</text>
<text text-anchor="start" x="8" y="-103.5" font-family="Courier New" font-size="10.00">+ uniqueVertReverseLookup</text>
<text text-anchor="start" x="8" y="-92.5" font-family="Courier New" font-size="10.00">&#45; vertices</text>
<text text-anchor="start" x="8" y="-81.5" font-family="Courier New" font-size="10.00">&#45; triangles</text>
<polyline fill="none" stroke="black" points="0,-74.5 209,-74.5 "/>
<text text-anchor="start" x="8" y="-62.5" font-family="Courier New" font-size="10.00">+ FindNearestUniqueVert()</text>
<text text-anchor="start" x="8" y="-51.5" font-family="Courier New" font-size="10.00">+ RaycastFindNearestUnique</text>
<text text-anchor="start" x="8" y="-40.5" font-family="Courier New" font-size="10.00">Verts()</text>
<text text-anchor="start" x="8" y="-29.5" font-family="Courier New" font-size="10.00">&#45; Awake()</text>
<text text-anchor="start" x="8" y="-18.5" font-family="Courier New" font-size="10.00">&#45; BuildInvisibleVerts()</text>
<text text-anchor="start" x="8" y="-7.5" font-family="Courier New" font-size="10.00">&#45; BuildUniqueVertReverseLookup()</text>
</a>
</g>
</g>
<!-- Node2 -->
<g id="node2" class="node"><title>Node2</title>
<g id="a_node2"><a xlink:title=" ">
<polygon fill="white" stroke="#bfbfbf" points="57,-215.5 57,-272.5 152,-272.5 152,-215.5 57,-215.5"/>
<text text-anchor="middle" x="104.5" y="-260.5" font-family="Courier New" font-size="10.00">MonoBehaviour</text>
<polyline fill="none" stroke="#bfbfbf" points="57,-253.5 152,-253.5 "/>
<text text-anchor="middle" x="104.5" y="-241.5" font-family="Courier New" font-size="10.00"> </text>
<polyline fill="none" stroke="#bfbfbf" points="57,-234.5 152,-234.5 "/>
<text text-anchor="middle" x="104.5" y="-222.5" font-family="Courier New" font-size="10.00"> </text>
</a>
</g>
</g>
<!-- Node2&#45;&gt;Node1 -->
<g id="edge1" class="edge"><title>Node2&#45;&gt;Node1</title>
<path fill="none" stroke="midnightblue" d="M104.5,-205.374C104.5,-197.089 104.5,-187.977 104.5,-178.62"/>
<polygon fill="none" stroke="midnightblue" points="101,-205.383 104.5,-215.383 108,-205.383 101,-205.383"/>
</g>
</g>
</svg>
