<?xml version="1.0" encoding="UTF-8" standalone="no"?>
<!DOCTYPE svg PUBLIC "-//W3C//DTD SVG 1.1//EN"
 "http://www.w3.org/Graphics/SVG/1.1/DTD/svg11.dtd">
<!-- Generated by graphviz version 2.38.0 (20140413.2041)
 -->
<!-- Title: C2M2.NeuronalDynamics.Simulation.NDSimulation Pages: 1 -->
<svg width="1491pt" height="1465pt"
 viewBox="0.00 0.00 1491.00 1465.00" xmlns="http://www.w3.org/2000/svg" xmlns:xlink="http://www.w3.org/1999/xlink">
<g id="graph0" class="graph" transform="scale(1 1) rotate(0) translate(4 1461)">
<title>C2M2.NeuronalDynamics.Simulation.NDSimulation</title>
<polygon fill="white" stroke="none" points="-4,4 -4,-1461 1487,-1461 1487,4 -4,4"/>
<!-- Node1 -->
<g id="node1" class="node"><title>Node1</title>
<g id="a_node1"><a xlink:title="Provide an interface for 1D neuron&#45;surface simulations to be visualized and interacted with">
<polygon fill="#bfbfbf" stroke="black" points="761,-0.5 761,-486.5 988,-486.5 988,-0.5 761,-0.5"/>
<text text-anchor="start" x="769" y="-474.5" font-family="Courier New" font-size="10.00">C2M2.NeuronalDynamics.Simulation.</text>
<text text-anchor="middle" x="874.5" y="-463.5" font-family="Courier New" font-size="10.00">NDSimulation</text>
<polyline fill="none" stroke="black" points="761,-456.5 988,-456.5 "/>
<text text-anchor="start" x="769" y="-444.5" font-family="Courier New" font-size="10.00">+ visualize1D</text>
<text text-anchor="start" x="769" y="-433.5" font-family="Courier New" font-size="10.00">+ color1D</text>
<text text-anchor="start" x="769" y="-422.5" font-family="Courier New" font-size="10.00">+ lineWidth1D</text>
<text text-anchor="start" x="769" y="-411.5" font-family="Courier New" font-size="10.00">+ vrnFileName</text>
<text text-anchor="start" x="769" y="-400.5" font-family="Courier New" font-size="10.00">+ hitValue</text>
<text text-anchor="start" x="769" y="-389.5" font-family="Courier New" font-size="10.00">+ clamps</text>
<text text-anchor="start" x="769" y="-378.5" font-family="Courier New" font-size="10.00">+ VisualInflation</text>
<text text-anchor="start" x="769" y="-367.5" font-family="Courier New" font-size="10.00">+ ColliderInflation</text>
<text text-anchor="start" x="769" y="-356.5" font-family="Courier New" font-size="10.00">+ RefinementLevel</text>
<text text-anchor="start" x="769" y="-345.5" font-family="Courier New" font-size="10.00">+ ClampMode</text>
<text text-anchor="start" x="769" y="-334.5" font-family="Courier New" font-size="10.00">+ VrnReader</text>
<text text-anchor="start" x="769" y="-323.5" font-family="Courier New" font-size="10.00">+ Grid1D</text>
<text text-anchor="start" x="769" y="-312.5" font-family="Courier New" font-size="10.00">+ Verts1D</text>
<text text-anchor="start" x="769" y="-301.5" font-family="Courier New" font-size="10.00">+ Grid2D</text>
<text text-anchor="start" x="769" y="-290.5" font-family="Courier New" font-size="10.00">+ NeuronCell</text>
<text text-anchor="start" x="769" y="-279.5" font-family="Courier New" font-size="10.00">+ AverageDendriteRadius</text>
<text text-anchor="start" x="769" y="-268.5" font-family="Courier New" font-size="10.00">+ Map</text>
<text text-anchor="start" x="769" y="-257.5" font-family="Courier New" font-size="10.00">+ Mapping</text>
<text text-anchor="start" x="769" y="-246.5" font-family="Courier New" font-size="10.00">+ Scalars3D</text>
<text text-anchor="start" x="769" y="-235.5" font-family="Courier New" font-size="10.00">&#45; visualInflation</text>
<text text-anchor="start" x="769" y="-224.5" font-family="Courier New" font-size="10.00">&#45; colliderInflation</text>
<text text-anchor="start" x="769" y="-213.5" font-family="Courier New" font-size="10.00">&#45; refinementLevel</text>
<text text-anchor="start" x="769" y="-202.5" font-family="Courier New" font-size="10.00">&#45; meshCache</text>
<text text-anchor="start" x="769" y="-191.5" font-family="Courier New" font-size="10.00">&#45; clampMode</text>
<text text-anchor="start" x="769" y="-180.5" font-family="Courier New" font-size="10.00">&#45; averageDendriteRadius</text>
<text text-anchor="start" x="769" y="-169.5" font-family="Courier New" font-size="10.00">&#45; scalars3D</text>
<polyline fill="none" stroke="black" points="761,-162.5 988,-162.5 "/>
<text text-anchor="start" x="769" y="-150.5" font-family="Courier New" font-size="10.00">+ OnVisualInflationChangeDelegate()</text>
<text text-anchor="start" x="769" y="-139.5" font-family="Courier New" font-size="10.00">+ GetValues()</text>
<text text-anchor="start" x="769" y="-128.5" font-family="Courier New" font-size="10.00">+ SetValues()</text>
<text text-anchor="start" x="769" y="-117.5" font-family="Courier New" font-size="10.00">+ SetValues()</text>
<text text-anchor="start" x="769" y="-106.5" font-family="Courier New" font-size="10.00">+ Set1DValues()</text>
<text text-anchor="start" x="769" y="-95.5" font-family="Courier New" font-size="10.00">+ Get1DValues()</text>
<text text-anchor="start" x="769" y="-84.5" font-family="Courier New" font-size="10.00">+ SwitchColliderMesh()</text>
<text text-anchor="start" x="769" y="-73.5" font-family="Courier New" font-size="10.00">+ SwitchMesh()</text>
<text text-anchor="start" x="769" y="-62.5" font-family="Courier New" font-size="10.00"># OnAwakePre()</text>
<text text-anchor="start" x="769" y="-51.5" font-family="Courier New" font-size="10.00"># OnStart()</text>
<text text-anchor="start" x="769" y="-40.5" font-family="Courier New" font-size="10.00"># BuildVisualization()</text>
<text text-anchor="start" x="769" y="-29.5" font-family="Courier New" font-size="10.00">&#45; CheckMeshCache()</text>
<text text-anchor="start" x="769" y="-18.5" font-family="Courier New" font-size="10.00">&#45; UpdateGrid1D()</text>
<text text-anchor="start" x="769" y="-7.5" font-family="Courier New" font-size="10.00">&#45; Update2DGrid()</text>
</a>
</g>
</g>
<!-- Node2 -->
<g id="node2" class="node"><title>Node2</title>
<g id="a_node2"><a xlink:href="../../d6/d2d/class_c2_m2_1_1_simulation_1_1_mesh_simulation.html" target="_top" xlink:title="Simulation of type double[] for visualizing scalar fields on mesh surfaces">
<polygon fill="white" stroke="black" points="224,-573 224,-751 379,-751 379,-573 224,-573"/>
<text text-anchor="middle" x="301.5" y="-739" font-family="Courier New" font-size="10.00">MeshSimulation</text>
<polyline fill="none" stroke="black" points="224,-732 379,-732 "/>
<text text-anchor="start" x="232" y="-720" font-family="Courier New" font-size="10.00">+ gradient</text>
<text text-anchor="start" x="232" y="-709" font-family="Courier New" font-size="10.00">+ globalMax</text>
<text text-anchor="start" x="232" y="-698" font-family="Courier New" font-size="10.00">+ globalMin</text>
<text text-anchor="start" x="232" y="-687" font-family="Courier New" font-size="10.00">+ colorLUT</text>
<text text-anchor="start" x="232" y="-676" font-family="Courier New" font-size="10.00">+ VisualMesh</text>
<text text-anchor="start" x="232" y="-665" font-family="Courier New" font-size="10.00">+ ColliderMesh</text>
<text text-anchor="start" x="232" y="-654" font-family="Courier New" font-size="10.00">&#45; visualMesh</text>
<text text-anchor="start" x="232" y="-643" font-family="Courier New" font-size="10.00">&#45; colliderMesh</text>
<text text-anchor="start" x="232" y="-632" font-family="Courier New" font-size="10.00">&#45; mf</text>
<text text-anchor="start" x="232" y="-621" font-family="Courier New" font-size="10.00">&#45; mr</text>
<polyline fill="none" stroke="black" points="224,-614 379,-614 "/>
<text text-anchor="start" x="232" y="-602" font-family="Courier New" font-size="10.00"># UpdateVisualization()</text>
<text text-anchor="start" x="232" y="-591" font-family="Courier New" font-size="10.00"># OnAwakePost()</text>
<text text-anchor="start" x="232" y="-580" font-family="Courier New" font-size="10.00">&#45; UpdateVisualization()</text>
</a>
</g>
</g>
<!-- Node2&#45;&gt;Node1 -->
<g id="edge1" class="edge"><title>Node2&#45;&gt;Node1</title>
<path fill="none" stroke="midnightblue" d="M367.966,-564.966C374.248,-557.917 380.788,-551.164 387.5,-545 501.287,-440.507 656.525,-352.084 760.874,-298.762"/>
<polygon fill="none" stroke="midnightblue" points="365.154,-562.867 361.256,-572.718 370.447,-567.448 365.154,-562.867"/>
</g>
<!-- Node3 -->
<g id="node3" class="node"><title>Node3</title>
<g id="a_node3"><a xlink:href="../../db/d39/class_c2_m2_1_1_simulation_1_1_simulation.html" target="_top" xlink:title=" ">
<polygon fill="white" stroke="black" points="0,-848.5 0,-1158.5 185,-1158.5 185,-848.5 0,-848.5"/>
<text text-anchor="start" x="8" y="-1146.5" font-family="Courier New" font-size="10.00">Simulation&lt; double</text>
<text text-anchor="start" x="8" y="-1135.5" font-family="Courier New" font-size="10.00">[], Mesh, VRRaycastableMesh,</text>
<text text-anchor="middle" x="92.5" y="-1124.5" font-family="Courier New" font-size="10.00"> VRGrabbableMesh &gt;</text>
<polyline fill="none" stroke="black" points="0,-1117.5 185,-1117.5 "/>
<text text-anchor="start" x="8" y="-1105.5" font-family="Courier New" font-size="10.00">+ dryRun</text>
<text text-anchor="start" x="8" y="-1094.5" font-family="Courier New" font-size="10.00">+ startOnAwake</text>
<text text-anchor="start" x="8" y="-1083.5" font-family="Courier New" font-size="10.00">+ viz</text>
<text text-anchor="start" x="8" y="-1072.5" font-family="Courier New" font-size="10.00"># mutex</text>
<text text-anchor="start" x="8" y="-1061.5" font-family="Courier New" font-size="10.00">&#45; solveThread</text>
<polyline fill="none" stroke="black" points="0,-1054.5 185,-1054.5 "/>
<text text-anchor="start" x="8" y="-1042.5" font-family="Courier New" font-size="10.00">+ GetValues()</text>
<text text-anchor="start" x="8" y="-1031.5" font-family="Courier New" font-size="10.00">+ Awake()</text>
<text text-anchor="start" x="8" y="-1020.5" font-family="Courier New" font-size="10.00">+ Start()</text>
<text text-anchor="start" x="8" y="-1009.5" font-family="Courier New" font-size="10.00">+ Update()</text>
<text text-anchor="start" x="8" y="-998.5" font-family="Courier New" font-size="10.00">+ StartSimulation()</text>
<text text-anchor="start" x="8" y="-987.5" font-family="Courier New" font-size="10.00">+ StopSimulation()</text>
<text text-anchor="start" x="8" y="-976.5" font-family="Courier New" font-size="10.00"># BuildVisualization()</text>
<text text-anchor="start" x="8" y="-965.5" font-family="Courier New" font-size="10.00"># UpdateVisualization()</text>
<text text-anchor="start" x="8" y="-954.5" font-family="Courier New" font-size="10.00"># Solve()</text>
<text text-anchor="start" x="8" y="-943.5" font-family="Courier New" font-size="10.00"># PreSolve()</text>
<text text-anchor="start" x="8" y="-932.5" font-family="Courier New" font-size="10.00"># OnAwakePre()</text>
<text text-anchor="start" x="8" y="-921.5" font-family="Courier New" font-size="10.00"># OnAwakePost()</text>
<text text-anchor="start" x="8" y="-910.5" font-family="Courier New" font-size="10.00"># OnStart()</text>
<text text-anchor="start" x="8" y="-899.5" font-family="Courier New" font-size="10.00"># OnUpdate()</text>
<text text-anchor="start" x="8" y="-888.5" font-family="Courier New" font-size="10.00"># OnPause()</text>
<text text-anchor="start" x="8" y="-877.5" font-family="Courier New" font-size="10.00"># OnQuit()</text>
<text text-anchor="start" x="8" y="-866.5" font-family="Courier New" font-size="10.00">&#45; OnApplicationPause()</text>
<text text-anchor="start" x="8" y="-855.5" font-family="Courier New" font-size="10.00">&#45; OnApplicationQuit()</text>
</a>
</g>
</g>
<!-- Node3&#45;&gt;Node2 -->
<g id="edge2" class="edge"><title>Node3&#45;&gt;Node2</title>
<path fill="none" stroke="midnightblue" d="M190.557,-843.217C209.999,-811.635 229.739,-779.569 247.073,-751.412"/>
<polygon fill="none" stroke="midnightblue" points="187.345,-841.757 185.083,-852.108 193.306,-845.427 187.345,-841.757"/>
</g>
<!-- Node4 -->
<g id="node4" class="node"><title>Node4</title>
<g id="a_node4"><a xlink:href="../../da/d4f/class_c2_m2_1_1_visualization_1_1_l_u_t_gradient.html" target="_top" xlink:title="Create a fast and memory&#45;friendly color lookup table from a gradient">
<polygon fill="white" stroke="black" points="203,-887 203,-1120 400,-1120 400,-887 203,-887"/>
<text text-anchor="middle" x="301.5" y="-1108" font-family="Courier New" font-size="10.00">C2M2.Visualization.LUTGradient</text>
<polyline fill="none" stroke="black" points="203,-1101 400,-1101 "/>
<text text-anchor="start" x="211" y="-1089" font-family="Courier New" font-size="10.00">+ extremaMethod</text>
<text text-anchor="start" x="211" y="-1078" font-family="Courier New" font-size="10.00">+ globalMax</text>
<text text-anchor="start" x="211" y="-1067" font-family="Courier New" font-size="10.00">+ globalMin</text>
<text text-anchor="start" x="211" y="-1056" font-family="Courier New" font-size="10.00">+ curMax</text>
<text text-anchor="start" x="211" y="-1045" font-family="Courier New" font-size="10.00">+ curMix</text>
<text text-anchor="start" x="211" y="-1034" font-family="Courier New" font-size="10.00">+ LutRes</text>
<text text-anchor="start" x="211" y="-1023" font-family="Courier New" font-size="10.00">+ Gradient</text>
<text text-anchor="start" x="211" y="-1012" font-family="Courier New" font-size="10.00">+ gradientLUT</text>
<text text-anchor="start" x="211" y="-1001" font-family="Courier New" font-size="10.00">+ oldMin</text>
<text text-anchor="start" x="211" y="-990" font-family="Courier New" font-size="10.00">+ oldMax</text>
<text text-anchor="start" x="211" y="-979" font-family="Courier New" font-size="10.00">&#45; lutRes</text>
<text text-anchor="start" x="211" y="-968" font-family="Courier New" font-size="10.00">&#45; gradient</text>
<polyline fill="none" stroke="black" points="203,-961 400,-961 "/>
<text text-anchor="start" x="211" y="-949" font-family="Courier New" font-size="10.00">+ Evaluate()</text>
<text text-anchor="start" x="211" y="-938" font-family="Courier New" font-size="10.00">+ Evaluate()</text>
<text text-anchor="start" x="211" y="-927" font-family="Courier New" font-size="10.00">+ EvaluateUnscaled()</text>
<text text-anchor="start" x="211" y="-916" font-family="Courier New" font-size="10.00">+ GetMinMax()</text>
<text text-anchor="start" x="211" y="-905" font-family="Courier New" font-size="10.00">&#45; BuildLUT()</text>
<text text-anchor="start" x="211" y="-894" font-family="Courier New" font-size="10.00">&#45; RescaleArray()</text>
</a>
</g>
</g>
<!-- Node4&#45;&gt;Node2 -->
<g id="edge3" class="edge"><title>Node4&#45;&gt;Node2</title>
<path fill="none" stroke="#404040" d="M301.5,-886.613C301.5,-846.487 301.5,-801.88 301.5,-763.129"/>
<polygon fill="none" stroke="#404040" points="301.5,-763.035 297.5,-757.035 301.5,-751.035 305.5,-757.035 301.5,-763.035"/>
<text text-anchor="middle" x="347" y="-811" font-family="Courier New" font-size="10.00"> +extremaMethod</text>
</g>
<!-- Node5 -->
<g id="node5" class="node"><title>Node5</title>
<g id="a_node5"><a xlink:title=" ">
<polygon fill="white" stroke="#bfbfbf" points="358,-1245 358,-1302 453,-1302 453,-1245 358,-1245"/>
<text text-anchor="middle" x="405.5" y="-1290" font-family="Courier New" font-size="10.00">MonoBehaviour</text>
<polyline fill="none" stroke="#bfbfbf" points="358,-1283 453,-1283 "/>
<text text-anchor="middle" x="405.5" y="-1271" font-family="Courier New" font-size="10.00"> </text>
<polyline fill="none" stroke="#bfbfbf" points="358,-1264 453,-1264 "/>
<text text-anchor="middle" x="405.5" y="-1252" font-family="Courier New" font-size="10.00"> </text>
</a>
</g>
</g>
<!-- Node5&#45;&gt;Node4 -->
<g id="edge4" class="edge"><title>Node5&#45;&gt;Node4</title>
<path fill="none" stroke="midnightblue" d="M391.036,-1235.23C379.418,-1205.29 362.448,-1161.56 346.398,-1120.2"/>
<polygon fill="none" stroke="midnightblue" points="387.881,-1236.77 394.762,-1244.83 394.407,-1234.24 387.881,-1236.77"/>
</g>
<!-- Node15 -->
<g id="node15" class="node"><title>Node15</title>
<g id="a_node15"><a xlink:href="../../d5/df9/class_c2_m2_1_1_interaction_1_1_raycast_event_manager.html" target="_top" xlink:title="Attach this script to parent gameObject, create one child with one raycast trigger per child....">
<polygon fill="white" stroke="black" points="397,-545.5 397,-778.5 558,-778.5 558,-545.5 397,-545.5"/>
<text text-anchor="start" x="405" y="-766.5" font-family="Courier New" font-size="10.00">C2M2.Interaction.Raycast</text>
<text text-anchor="middle" x="477.5" y="-755.5" font-family="Courier New" font-size="10.00">EventManager</text>
<polyline fill="none" stroke="black" points="397,-748.5 558,-748.5 "/>
<text text-anchor="middle" x="477.5" y="-736.5" font-family="Courier New" font-size="10.00"> </text>
<polyline fill="none" stroke="black" points="397,-729.5 558,-729.5 "/>
<text text-anchor="start" x="405" y="-717.5" font-family="Courier New" font-size="10.00">+ TriggerChangeRight()</text>
<text text-anchor="start" x="405" y="-706.5" font-family="Courier New" font-size="10.00">+ TriggerChangeLeft()</text>
<text text-anchor="start" x="405" y="-695.5" font-family="Courier New" font-size="10.00">+ TriggerChangeBoth()</text>
<text text-anchor="start" x="405" y="-684.5" font-family="Courier New" font-size="10.00">+ TriggerEmptyRight()</text>
<text text-anchor="start" x="405" y="-673.5" font-family="Courier New" font-size="10.00">+ TriggerEmptyLeft()</text>
<text text-anchor="start" x="405" y="-662.5" font-family="Courier New" font-size="10.00">+ TriggerEmptyBoth()</text>
<text text-anchor="start" x="405" y="-651.5" font-family="Courier New" font-size="10.00">+ PressEvent()</text>
<text text-anchor="start" x="405" y="-640.5" font-family="Courier New" font-size="10.00">+ HoldEvent()</text>
<text text-anchor="start" x="405" y="-629.5" font-family="Courier New" font-size="10.00">+ EndEvent()</text>
<text text-anchor="start" x="405" y="-618.5" font-family="Courier New" font-size="10.00">+ AllEvents()</text>
<text text-anchor="start" x="405" y="-607.5" font-family="Courier New" font-size="10.00">+ PressEventNull()</text>
<text text-anchor="start" x="405" y="-596.5" font-family="Courier New" font-size="10.00">+ HoldEventNull()</text>
<text text-anchor="start" x="405" y="-585.5" font-family="Courier New" font-size="10.00">+ EndEventNull()</text>
<text text-anchor="start" x="405" y="-574.5" font-family="Courier New" font-size="10.00">+ AllEventsNull()</text>
<text text-anchor="start" x="405" y="-563.5" font-family="Courier New" font-size="10.00">+ ToString()</text>
<text text-anchor="start" x="405" y="-552.5" font-family="Courier New" font-size="10.00">&#45; Awake()</text>
</a>
</g>
</g>
<!-- Node5&#45;&gt;Node15 -->
<g id="edge15" class="edge"><title>Node5&#45;&gt;Node15</title>
<path fill="none" stroke="midnightblue" d="M408.453,-1234.61C414.422,-1160.3 428.946,-990.262 447.5,-848 450.425,-825.576 453.972,-801.693 457.589,-778.795"/>
<polygon fill="none" stroke="midnightblue" points="404.942,-1234.62 407.635,-1244.87 411.919,-1235.18 404.942,-1234.62"/>
</g>
<!-- Node16 -->
<g id="node16" class="node"><title>Node16</title>
<g id="a_node16"><a xlink:href="../../d8/d68/class_c2_m2_1_1_interaction_1_1_raycast_press_events.html" target="_top" xlink:title="Store custom events that the corresponding RaycastTriggerManager will invoke">
<polygon fill="white" stroke="black" points="457,-947.5 457,-1059.5 618,-1059.5 618,-947.5 457,-947.5"/>
<text text-anchor="start" x="465" y="-1047.5" font-family="Courier New" font-size="10.00">C2M2.Interaction.Raycast</text>
<text text-anchor="middle" x="537.5" y="-1036.5" font-family="Courier New" font-size="10.00">PressEvents</text>
<polyline fill="none" stroke="black" points="457,-1029.5 618,-1029.5 "/>
<text text-anchor="start" x="465" y="-1017.5" font-family="Courier New" font-size="10.00">+ OnPress</text>
<text text-anchor="start" x="465" y="-1006.5" font-family="Courier New" font-size="10.00">+ OnHoldPress</text>
<text text-anchor="start" x="465" y="-995.5" font-family="Courier New" font-size="10.00">+ OnEndPress</text>
<polyline fill="none" stroke="black" points="457,-988.5 618,-988.5 "/>
<text text-anchor="start" x="465" y="-976.5" font-family="Courier New" font-size="10.00">+ Press()</text>
<text text-anchor="start" x="465" y="-965.5" font-family="Courier New" font-size="10.00">+ HoldPress()</text>
<text text-anchor="start" x="465" y="-954.5" font-family="Courier New" font-size="10.00">+ EndPress()</text>
</a>
</g>
</g>
<!-- Node5&#45;&gt;Node16 -->
<g id="edge18" class="edge"><title>Node5&#45;&gt;Node16</title>
<path fill="none" stroke="midnightblue" d="M427.811,-1236.23C432.812,-1227.72 437.973,-1218.62 442.5,-1210 468.734,-1160.07 495.407,-1101.55 513.785,-1059.75"/>
<polygon fill="none" stroke="midnightblue" points="424.793,-1234.46 422.691,-1244.84 430.81,-1238.04 424.793,-1234.46"/>
</g>
<!-- Node6 -->
<g id="node6" class="node"><title>Node6</title>
<g id="a_node6"><a xlink:href="../../da/df6/class_c2_m2_1_1_neuronal_dynamics_1_1_u_g_x_1_1_neuron_cell.html" target="_top" xlink:title=" ">
<polygon fill="white" stroke="black" points="576,-567.5 576,-756.5 749,-756.5 749,-567.5 576,-567.5"/>
<text text-anchor="start" x="584" y="-744.5" font-family="Courier New" font-size="10.00">C2M2.NeuronalDynamics.UGX.</text>
<text text-anchor="middle" x="662.5" y="-733.5" font-family="Courier New" font-size="10.00">NeuronCell</text>
<polyline fill="none" stroke="black" points="576,-726.5 749,-726.5 "/>
<text text-anchor="start" x="584" y="-714.5" font-family="Courier New" font-size="10.00">+ nodeData</text>
<text text-anchor="start" x="584" y="-703.5" font-family="Courier New" font-size="10.00">+ edges</text>
<text text-anchor="start" x="584" y="-692.5" font-family="Courier New" font-size="10.00">+ edgeLengths</text>
<text text-anchor="start" x="584" y="-681.5" font-family="Courier New" font-size="10.00">+ boundaryID</text>
<text text-anchor="start" x="584" y="-670.5" font-family="Courier New" font-size="10.00">+ somaID</text>
<text text-anchor="start" x="584" y="-659.5" font-family="Courier New" font-size="10.00">+ vertCount</text>
<text text-anchor="start" x="584" y="-648.5" font-family="Courier New" font-size="10.00">+ edgeCount</text>
<polyline fill="none" stroke="black" points="576,-641.5 749,-641.5 "/>
<text text-anchor="start" x="584" y="-629.5" font-family="Courier New" font-size="10.00">+ NeuronCell()</text>
<text text-anchor="start" x="584" y="-618.5" font-family="Courier New" font-size="10.00">+ NodeToString()</text>
<text text-anchor="start" x="584" y="-607.5" font-family="Courier New" font-size="10.00">+ EdgeToString()</text>
<text text-anchor="start" x="584" y="-596.5" font-family="Courier New" font-size="10.00">+ ToString()</text>
<text text-anchor="start" x="584" y="-585.5" font-family="Courier New" font-size="10.00">&#45; NodeNeighborsToString()</text>
<text text-anchor="start" x="584" y="-574.5" font-family="Courier New" font-size="10.00">&#45; GetEdgeLength()</text>
</a>
</g>
</g>
<!-- Node6&#45;&gt;Node1 -->
<g id="edge5" class="edge"><title>Node6&#45;&gt;Node1</title>
<path fill="none" stroke="#404040" d="M710.209,-567.27C723.862,-540.447 739.387,-509.945 755.316,-478.651"/>
<polygon fill="none" stroke="#404040" points="755.521,-478.248 754.678,-471.086 760.965,-467.554 761.808,-474.715 755.521,-478.248"/>
<text text-anchor="middle" x="774" y="-513.5" font-family="Courier New" font-size="10.00"> &#45;neuronCell</text>
</g>
<!-- Node7 -->
<g id="node7" class="node"><title>Node7</title>
<g id="a_node7"><a xlink:title=" ">
<polygon fill="white" stroke="#bfbfbf" points="636,-975 636,-1032 689,-1032 689,-975 636,-975"/>
<text text-anchor="middle" x="662.5" y="-1020" font-family="Courier New" font-size="10.00">static</text>
<polyline fill="none" stroke="#bfbfbf" points="636,-1013 689,-1013 "/>
<text text-anchor="middle" x="662.5" y="-1001" font-family="Courier New" font-size="10.00"> </text>
<polyline fill="none" stroke="#bfbfbf" points="636,-994 689,-994 "/>
<text text-anchor="middle" x="662.5" y="-982" font-family="Courier New" font-size="10.00"> </text>
</a>
</g>
</g>
<!-- Node7&#45;&gt;Node6 -->
<g id="edge6" class="edge"><title>Node7&#45;&gt;Node6</title>
<path fill="none" stroke="#404040" d="M662.5,-974.717C662.5,-930.255 662.5,-840.824 662.5,-769.111"/>
<polygon fill="none" stroke="#404040" points="662.5,-768.855 658.5,-762.855 662.5,-756.855 666.5,-762.855 662.5,-768.855"/>
<text text-anchor="middle" x="717" y="-822" font-family="Courier New" font-size="10.00"> &#45;nodeFormatString</text>
<text text-anchor="middle" x="717" y="-811" font-family="Courier New" font-size="10.00">&#45;edgeFormatString</text>
<text text-anchor="middle" x="717" y="-800" font-family="Courier New" font-size="10.00">&#45;cellFormatString</text>
</g>
<!-- Node7&#45;&gt;Node15 -->
<g id="edge16" class="edge"><title>Node7&#45;&gt;Node15</title>
<path fill="none" stroke="#404040" d="M661.546,-974.983C659.248,-942.328 651.606,-887.357 626.5,-848 619.519,-837.057 612.597,-839.259 603.5,-830 590.659,-816.93 577.985,-802.525 565.912,-787.82"/>
<polygon fill="none" stroke="#404040" points="565.617,-787.454 558.733,-785.305 558.07,-778.125 564.953,-780.274 565.617,-787.454"/>
<text text-anchor="middle" x="631" y="-811" font-family="Courier New" font-size="10.00"> &#45;nullHit</text>
</g>
<!-- Node8 -->
<g id="node8" class="node"><title>Node8</title>
<g id="a_node8"><a xlink:href="../../db/dbd/struct_c2_m2_1_1_neuronal_dynamics_1_1_simulation_1_1_vert3_d1_d_pair.html" target="_top" xlink:title="Stores two 1D indices and a lambda value for a 3D vertex">
<polygon fill="white" stroke="black" points="767,-611.5 767,-712.5 982,-712.5 982,-611.5 767,-611.5"/>
<text text-anchor="start" x="775" y="-700.5" font-family="Courier New" font-size="10.00">C2M2.NeuronalDynamics.Simulation.</text>
<text text-anchor="middle" x="874.5" y="-689.5" font-family="Courier New" font-size="10.00">Vert3D1DPair</text>
<polyline fill="none" stroke="black" points="767,-682.5 982,-682.5 "/>
<text text-anchor="start" x="775" y="-670.5" font-family="Courier New" font-size="10.00">+ v1</text>
<text text-anchor="start" x="775" y="-659.5" font-family="Courier New" font-size="10.00">+ v2</text>
<text text-anchor="start" x="775" y="-648.5" font-family="Courier New" font-size="10.00">+ lambda</text>
<polyline fill="none" stroke="black" points="767,-641.5 982,-641.5 "/>
<text text-anchor="start" x="775" y="-629.5" font-family="Courier New" font-size="10.00">+ Vert3D1DPair()</text>
<text text-anchor="start" x="775" y="-618.5" font-family="Courier New" font-size="10.00">+ ToString()</text>
</a>
</g>
</g>
<!-- Node8&#45;&gt;Node1 -->
<g id="edge7" class="edge"><title>Node8&#45;&gt;Node1</title>
<path fill="none" stroke="#404040" d="M874.5,-611.174C874.5,-581.569 874.5,-541.525 874.5,-498.756"/>
<polygon fill="none" stroke="#404040" points="874.5,-498.627 870.5,-492.627 874.5,-486.627 878.5,-492.627 874.5,-498.627"/>
<text text-anchor="middle" x="890" y="-513.5" font-family="Courier New" font-size="10.00"> &#45;map</text>
</g>
<!-- Node9 -->
<g id="node9" class="node"><title>Node9</title>
<g id="a_node9"><a xlink:title=" ">
<polygon fill="white" stroke="#bfbfbf" points="1000,-633.5 1000,-690.5 1041,-690.5 1041,-633.5 1000,-633.5"/>
<text text-anchor="middle" x="1020.5" y="-678.5" font-family="Courier New" font-size="10.00">C2M2</text>
<polyline fill="none" stroke="#bfbfbf" points="1000,-671.5 1041,-671.5 "/>
<text text-anchor="middle" x="1020.5" y="-659.5" font-family="Courier New" font-size="10.00"> </text>
<polyline fill="none" stroke="#bfbfbf" points="1000,-652.5 1041,-652.5 "/>
<text text-anchor="middle" x="1020.5" y="-640.5" font-family="Courier New" font-size="10.00"> </text>
</a>
</g>
</g>
<!-- Node9&#45;&gt;Node1 -->
<g id="edge8" class="edge"><title>Node9&#45;&gt;Node1</title>
<path fill="none" stroke="#404040" d="M1014.24,-633.086C1008.7,-609.427 1000.04,-574.708 990.5,-545 985.581,-529.683 980.303,-514.014 974.808,-498.265"/>
<polygon fill="none" stroke="#404040" points="974.753,-498.107 968.989,-493.775 970.771,-486.787 976.535,-491.12 974.753,-498.107"/>
<text text-anchor="middle" x="1007" y="-519" font-family="Courier New" font-size="10.00"> &#45;grid1D</text>
<text text-anchor="middle" x="1007" y="-508" font-family="Courier New" font-size="10.00">&#45;grid2D</text>
</g>
<!-- Node10 -->
<g id="node10" class="node"><title>Node10</title>
<g id="a_node10"><a xlink:href="../../dd/d2a/struct_c2_m2_1_1_neuronal_dynamics_1_1_u_g_x_1_1_mapping_info.html" target="_top" xlink:title="Encapsulates the grids and mapping data">
<polygon fill="white" stroke="black" points="1059,-617 1059,-707 1232,-707 1232,-617 1059,-617"/>
<text text-anchor="start" x="1067" y="-695" font-family="Courier New" font-size="10.00">C2M2.NeuronalDynamics.UGX.</text>
<text text-anchor="middle" x="1145.5" y="-684" font-family="Courier New" font-size="10.00">MappingInfo</text>
<polyline fill="none" stroke="black" points="1059,-677 1232,-677 "/>
<text text-anchor="start" x="1067" y="-665" font-family="Courier New" font-size="10.00">+ ModelGeometry</text>
<text text-anchor="start" x="1067" y="-654" font-family="Courier New" font-size="10.00">+ SurfaceGeometry</text>
<text text-anchor="start" x="1067" y="-643" font-family="Courier New" font-size="10.00">+ Data</text>
<polyline fill="none" stroke="black" points="1059,-636 1232,-636 "/>
<text text-anchor="start" x="1067" y="-624" font-family="Courier New" font-size="10.00">+ MappingInfo()</text>
</a>
</g>
</g>
<!-- Node10&#45;&gt;Node1 -->
<g id="edge9" class="edge"><title>Node10&#45;&gt;Node1</title>
<path fill="none" stroke="#404040" d="M1116.75,-616.822C1087.41,-571.724 1039.88,-498.672 994.657,-429.169"/>
<polygon fill="none" stroke="#404040" points="994.548,-429.002 987.923,-426.155 988.004,-418.944 994.629,-421.792 994.548,-429.002"/>
<text text-anchor="middle" x="1086" y="-513.5" font-family="Courier New" font-size="10.00"> &#45;mapping</text>
</g>
<!-- Node11 -->
<g id="node11" class="node"><title>Node11</title>
<g id="a_node11"><a xlink:href="../../d1/d08/class_c2_m2_1_1_neuronal_dynamics_1_1_visualization_1_1_v_r_n_1_1_vrn_reader.html" target="_top" xlink:title=" ">
<polygon fill="white" stroke="black" points="1250,-600.5 1250,-723.5 1483,-723.5 1483,-600.5 1250,-600.5"/>
<text text-anchor="start" x="1258" y="-711.5" font-family="Courier New" font-size="10.00">C2M2.NeuronalDynamics.Visualization.</text>
<text text-anchor="middle" x="1366.5" y="-700.5" font-family="Courier New" font-size="10.00">VRN.VrnReader</text>
<polyline fill="none" stroke="black" points="1250,-693.5 1483,-693.5 "/>
<text text-anchor="start" x="1258" y="-681.5" font-family="Courier New" font-size="10.00">&#45; fileName</text>
<text text-anchor="start" x="1258" y="-670.5" font-family="Courier New" font-size="10.00">&#45; loaded</text>
<polyline fill="none" stroke="black" points="1250,-663.5 1483,-663.5 "/>
<text text-anchor="start" x="1258" y="-651.5" font-family="Courier New" font-size="10.00">+ List()</text>
<text text-anchor="start" x="1258" y="-640.5" font-family="Courier New" font-size="10.00">+ ReadUGX()</text>
<text text-anchor="start" x="1258" y="-629.5" font-family="Courier New" font-size="10.00">+ Retrieve1DMeshName()</text>
<text text-anchor="start" x="1258" y="-618.5" font-family="Courier New" font-size="10.00">+ Retrieve2DMeshName()</text>
<text text-anchor="start" x="1258" y="-607.5" font-family="Courier New" font-size="10.00">+ VrnReader()</text>
</a>
</g>
</g>
<!-- Node11&#45;&gt;Node1 -->
<g id="edge10" class="edge"><title>Node11&#45;&gt;Node1</title>
<path fill="none" stroke="#404040" d="M1302.07,-600.381C1282.5,-582.328 1260.81,-562.658 1240.5,-545 1160.94,-475.814 1069.24,-400.536 997.537,-342.631"/>
<polygon fill="none" stroke="#404040" points="997.341,-342.473 990.16,-341.819 988.002,-334.938 995.183,-335.592 997.341,-342.473"/>
<text text-anchor="middle" x="1245" y="-513.5" font-family="Courier New" font-size="10.00"> &#45;vrnReader</text>
</g>
<!-- Node12 -->
<g id="node12" class="node"><title>Node12</title>
<g id="a_node12"><a xlink:href="../../d9/d5c/class_c2_m2_1_1_neuronal_dynamics_1_1_visualization_1_1_v_r_n_1_1_vrn_reader_1_1_geometry.html" target="_top" xlink:title="Stores 1D and associated 2D geometries in the member geom1d">
<polygon fill="white" stroke="black" points="1250,-969.5 1250,-1037.5 1483,-1037.5 1483,-969.5 1250,-969.5"/>
<text text-anchor="start" x="1258" y="-1025.5" font-family="Courier New" font-size="10.00">C2M2.NeuronalDynamics.Visualization.</text>
<text text-anchor="middle" x="1366.5" y="-1014.5" font-family="Courier New" font-size="10.00">VRN.VrnReader.Geometry</text>
<polyline fill="none" stroke="black" points="1250,-1007.5 1483,-1007.5 "/>
<text text-anchor="middle" x="1366.5" y="-995.5" font-family="Courier New" font-size="10.00"> </text>
<polyline fill="none" stroke="black" points="1250,-988.5 1483,-988.5 "/>
<text text-anchor="start" x="1258" y="-976.5" font-family="Courier New" font-size="10.00">+ Geometry()</text>
</a>
</g>
</g>
<!-- Node12&#45;&gt;Node11 -->
<g id="edge11" class="edge"><title>Node12&#45;&gt;Node11</title>
<path fill="none" stroke="#404040" d="M1366.5,-969.329C1366.5,-915.545 1366.5,-808.06 1366.5,-735.813"/>
<polygon fill="none" stroke="#404040" points="1366.5,-735.645 1362.5,-729.645 1366.5,-723.645 1370.5,-729.645 1366.5,-735.645"/>
<text text-anchor="middle" x="1397" y="-811" font-family="Courier New" font-size="10.00"> &#45;geometry</text>
</g>
<!-- Node13 -->
<g id="node13" class="node"><title>Node13</title>
<g id="a_node13"><a xlink:href="../../dd/df0/struct_c2_m2_1_1_neuronal_dynamics_1_1_visualization_1_1_v_r_n_1_1_vrn_reader_1_1_geom1d.html" target="_top" xlink:title="Stores the 1D geometries by name, refinement and a description Inflations are attached to the 1D geom...">
<polygon fill="white" stroke="black" points="1250,-1228.5 1250,-1318.5 1483,-1318.5 1483,-1228.5 1250,-1228.5"/>
<text text-anchor="start" x="1258" y="-1306.5" font-family="Courier New" font-size="10.00">C2M2.NeuronalDynamics.Visualization.</text>
<text text-anchor="middle" x="1366.5" y="-1295.5" font-family="Courier New" font-size="10.00">VRN.VrnReader.Geom1d</text>
<polyline fill="none" stroke="black" points="1250,-1288.5 1483,-1288.5 "/>
<text text-anchor="start" x="1258" y="-1276.5" font-family="Courier New" font-size="10.00">+ name</text>
<text text-anchor="start" x="1258" y="-1265.5" font-family="Courier New" font-size="10.00">+ refinement</text>
<text text-anchor="start" x="1258" y="-1254.5" font-family="Courier New" font-size="10.00">+ description</text>
<polyline fill="none" stroke="black" points="1250,-1247.5 1483,-1247.5 "/>
<text text-anchor="start" x="1258" y="-1235.5" font-family="Courier New" font-size="10.00">+ Geom1d()</text>
</a>
</g>
</g>
<!-- Node13&#45;&gt;Node12 -->
<g id="edge12" class="edge"><title>Node13&#45;&gt;Node12</title>
<path fill="none" stroke="#404040" d="M1366.5,-1228.25C1366.5,-1179.01 1366.5,-1099.86 1366.5,-1050.09"/>
<polygon fill="none" stroke="#404040" points="1366.5,-1049.8 1362.5,-1043.8 1366.5,-1037.8 1370.5,-1043.8 1366.5,-1049.8"/>
<text text-anchor="middle" x="1391" y="-1191" font-family="Courier New" font-size="10.00"> +geom1d</text>
</g>
<!-- Node14 -->
<g id="node14" class="node"><title>Node14</title>
<g id="a_node14"><a xlink:href="../../d8/daf/struct_c2_m2_1_1_neuronal_dynamics_1_1_visualization_1_1_v_r_n_1_1_vrn_reader_1_1_geom2d.html" target="_top" xlink:title="Stores the 2d geometries by name, inflation (factor), and description">
<polygon fill="white" stroke="black" points="1250,-1366.5 1250,-1456.5 1483,-1456.5 1483,-1366.5 1250,-1366.5"/>
<text text-anchor="start" x="1258" y="-1444.5" font-family="Courier New" font-size="10.00">C2M2.NeuronalDynamics.Visualization.</text>
<text text-anchor="middle" x="1366.5" y="-1433.5" font-family="Courier New" font-size="10.00">VRN.VrnReader.Geom2d</text>
<polyline fill="none" stroke="black" points="1250,-1426.5 1483,-1426.5 "/>
<text text-anchor="start" x="1258" y="-1414.5" font-family="Courier New" font-size="10.00">+ inflation</text>
<text text-anchor="start" x="1258" y="-1403.5" font-family="Courier New" font-size="10.00">+ name</text>
<text text-anchor="start" x="1258" y="-1392.5" font-family="Courier New" font-size="10.00">+ description</text>
<polyline fill="none" stroke="black" points="1250,-1385.5 1483,-1385.5 "/>
<text text-anchor="start" x="1258" y="-1373.5" font-family="Courier New" font-size="10.00">+ Geom2d()</text>
</a>
</g>
</g>
<!-- Node14&#45;&gt;Node13 -->
<g id="edge13" class="edge"><title>Node14&#45;&gt;Node13</title>
<path fill="none" stroke="#404040" d="M1366.5,-1366.34C1366.5,-1355.06 1366.5,-1342.78 1366.5,-1330.97"/>
<polygon fill="none" stroke="#404040" points="1366.5,-1330.9 1362.5,-1324.9 1366.5,-1318.9 1370.5,-1324.9 1366.5,-1330.9"/>
<text text-anchor="middle" x="1403" y="-1340" font-family="Courier New" font-size="10.00"> +inflations</text>
</g>
<!-- Node15&#45;&gt;Node1 -->
<g id="edge14" class="edge"><title>Node15&#45;&gt;Node1</title>
<path fill="none" stroke="#404040" d="M558.137,-554.607C560.927,-551.342 563.719,-548.132 566.5,-545 624.53,-479.643 693.848,-411.262 752.016,-356.271"/>
<polygon fill="none" stroke="#404040" points="752.152,-356.143 753.773,-349.116 760.882,-347.91 759.261,-354.937 752.152,-356.143"/>
<text text-anchor="middle" x="647" y="-513.5" font-family="Courier New" font-size="10.00"> &#45;raycastManager</text>
</g>
<!-- Node16&#45;&gt;Node15 -->
<g id="edge17" class="edge"><title>Node16&#45;&gt;Node15</title>
<path fill="none" stroke="#404040" d="M515.507,-947.158C503.352,-913.796 489.358,-870.124 482.5,-830 480.349,-817.413 478.789,-804.217 477.682,-790.992"/>
<polygon fill="none" stroke="#404040" points="477.67,-790.824 473.24,-785.134 476.788,-778.857 481.218,-784.547 477.67,-790.824"/>
<text text-anchor="middle" x="522" y="-822" font-family="Courier New" font-size="10.00"> +leftTrigger</text>
<text text-anchor="middle" x="522" y="-811" font-family="Courier New" font-size="10.00">+rightTrigger</text>
<text text-anchor="middle" x="522" y="-800" font-family="Courier New" font-size="10.00">&#45;emptyTrigger</text>
</g>
<!-- Node17 -->
<g id="node17" class="node"><title>Node17</title>
<g id="a_node17"><a xlink:href="../../d2/d43/class_c2_m2_1_1_interaction_1_1_raycast_press_events_1_1_raycast_hit_event.html" target="_top" xlink:title=" ">
<polygon fill="white" stroke="black" points="471,-1239.5 471,-1307.5 650,-1307.5 650,-1239.5 471,-1239.5"/>
<text text-anchor="start" x="479" y="-1295.5" font-family="Courier New" font-size="10.00">C2M2.Interaction.Raycast</text>
<text text-anchor="middle" x="560.5" y="-1284.5" font-family="Courier New" font-size="10.00">PressEvents.RaycastHitEvent</text>
<polyline fill="none" stroke="black" points="471,-1277.5 650,-1277.5 "/>
<text text-anchor="middle" x="560.5" y="-1265.5" font-family="Courier New" font-size="10.00"> </text>
<polyline fill="none" stroke="black" points="471,-1258.5 650,-1258.5 "/>
<text text-anchor="middle" x="560.5" y="-1246.5" font-family="Courier New" font-size="10.00"> </text>
</a>
</g>
</g>
<!-- Node17&#45;&gt;Node16 -->
<g id="edge19" class="edge"><title>Node17&#45;&gt;Node16</title>
<path fill="none" stroke="#404040" d="M557.657,-1239.37C554.083,-1197.73 547.862,-1125.24 543.274,-1071.78"/>
<polygon fill="none" stroke="#404040" points="543.26,-1071.61 538.761,-1065.97 542.233,-1059.65 546.732,-1065.29 543.26,-1071.61"/>
<text text-anchor="middle" x="592" y="-1202" font-family="Courier New" font-size="10.00"> &#45;onPress</text>
<text text-anchor="middle" x="592" y="-1191" font-family="Courier New" font-size="10.00">&#45;onHoldPress</text>
<text text-anchor="middle" x="592" y="-1180" font-family="Courier New" font-size="10.00">&#45;onEndPress</text>
</g>
<!-- Node18 -->
<g id="node18" class="node"><title>Node18</title>
<g id="a_node18"><a xlink:title=" ">
<polygon fill="white" stroke="#bfbfbf" points="480,-1383 480,-1440 641,-1440 641,-1383 480,-1383"/>
<text text-anchor="middle" x="560.5" y="-1428" font-family="Courier New" font-size="10.00">UnityEvent&lt; RaycastHit &gt;</text>
<polyline fill="none" stroke="#bfbfbf" points="480,-1421 641,-1421 "/>
<text text-anchor="middle" x="560.5" y="-1409" font-family="Courier New" font-size="10.00"> </text>
<polyline fill="none" stroke="#bfbfbf" points="480,-1402 641,-1402 "/>
<text text-anchor="middle" x="560.5" y="-1390" font-family="Courier New" font-size="10.00"> </text>
</a>
</g>
</g>
<!-- Node18&#45;&gt;Node17 -->
<g id="edge20" class="edge"><title>Node18&#45;&gt;Node17</title>
<path fill="none" stroke="midnightblue" d="M560.5,-1372.78C560.5,-1352.38 560.5,-1327.41 560.5,-1307.75"/>
<polygon fill="none" stroke="midnightblue" points="557,-1372.98 560.5,-1382.98 564,-1372.98 557,-1372.98"/>
</g>
</g>
</svg>
