<?xml version="1.0" encoding="UTF-8" standalone="no"?>
<!DOCTYPE svg PUBLIC "-//W3C//DTD SVG 1.1//EN"
 "http://www.w3.org/Graphics/SVG/1.1/DTD/svg11.dtd">
<!-- Generated by graphviz version 2.38.0 (20140413.2041)
 -->
<!-- Title: C2M2.OIT.Interaction.ParticleSystemController Pages: 1 -->
<!--zoomable 684 -->
<svg id="main" version="1.1" xmlns="http://www.w3.org/2000/svg" xmlns:xlink="http://www.w3.org/1999/xlink" xml:space="preserve" onload="init(evt)">
<style type="text/css"><![CDATA[
.edge:hover path { stroke: red; }
.edge:hover polygon { stroke: red; fill: red; }
]]></style>
<script type="text/javascript"><![CDATA[
var edges = document.getElementsByTagName('g');
if (edges && edges.length) {
  for (var i=0;i<edges.length;i++) {
    if (edges[i].id.substr(0,4)=='edge') {
      edges[i].setAttribute('class','edge');
    }
  }
}
]]></script>
        <defs>
                <circle id="rim" cx="0" cy="0" r="7"/>
                <circle id="rim2" cx="0" cy="0" r="3.5"/>
                <g id="zoomPlus">
                        <use xlink:href="#rim" fill="#404040">
                                <set attributeName="fill" to="#808080" begin="zoomplus.mouseover" end="zoomplus.mouseout"/>
                        </use>
                        <path d="M-4,0h8M0,-4v8" fill="none" stroke="white" stroke-width="1.5" pointer-events="none"/>
                </g>
                <g id="zoomMin">
                        <use xlink:href="#rim" fill="#404040">
                                <set attributeName="fill" to="#808080" begin="zoomminus.mouseover" end="zoomminus.mouseout"/>
                        </use>
                        <path d="M-4,0h8" fill="none" stroke="white" stroke-width="1.5" pointer-events="none"/>
                </g>
                <g id="dirArrow">
                        <path fill="none" stroke="white" stroke-width="1.5" d="M0,-3.0v7 M-2.5,-0.5L0,-3.0L2.5,-0.5"/>
                </g>
               <g id="resetDef">
                       <use xlink:href="#rim2" fill="#404040">
                               <set attributeName="fill" to="#808080" begin="reset.mouseover" end="reset.mouseout"/>
                       </use>
               </g>
        </defs>

<script type="text/javascript">
var viewWidth = 461;
var viewHeight = 684;
var sectionId = 'dynsection-1';
</script>
<script xlink:href="../../svgpan.js"/>
<svg id="graph" class="graph">
<g id="viewport">
<title>C2M2.OIT.Interaction.ParticleSystemController</title>
<polygon fill="white" stroke="none" points="-4,4 -4,-680 457.42,-680 457.42,4 -4,4"/>
<!-- Node1 -->
<g id="node1" class="node"><title>Node1</title>
<g id="a_node1"><a xlink:title=" ">
<polygon fill="#bfbfbf" stroke="black" points="47.42,-0.5 47.42,-288.5 238.42,-288.5 238.42,-0.5 47.42,-0.5"/>
<text text-anchor="start" x="55.42" y="-276.5" font-family="Courier New" font-size="10.00">C2M2.OIT.Interaction.Particle</text>
<text text-anchor="middle" x="142.92" y="-265.5" font-family="Courier New" font-size="10.00">SystemController</text>
<polyline fill="none" stroke="black" points="47.42,-258.5 238.42,-258.5 "/>
<text text-anchor="start" x="55.42" y="-246.5" font-family="Courier New" font-size="10.00">+ numberOfParticles</text>
<text text-anchor="start" x="55.42" y="-235.5" font-family="Courier New" font-size="10.00">+ particleSize</text>
<text text-anchor="start" x="55.42" y="-224.5" font-family="Courier New" font-size="10.00">+ maxValues</text>
<text text-anchor="start" x="55.42" y="-213.5" font-family="Courier New" font-size="10.00">+ minValues</text>
<text text-anchor="start" x="55.42" y="-202.5" font-family="Courier New" font-size="10.00">+ isoquantHigh</text>
<text text-anchor="start" x="55.42" y="-191.5" font-family="Courier New" font-size="10.00">+ isoquantLow</text>
<text text-anchor="start" x="55.42" y="-180.5" font-family="Courier New" font-size="10.00">&#45; particles</text>
<text text-anchor="start" x="55.42" y="-169.5" font-family="Courier New" font-size="10.00">&#45; particlesUpdated</text>
<text text-anchor="start" x="55.42" y="-158.5" font-family="Courier New" font-size="10.00">&#45; particleSys</text>
<text text-anchor="start" x="55.42" y="-147.5" font-family="Courier New" font-size="10.00">&#45; particleSysRend</text>
<text text-anchor="start" x="55.42" y="-136.5" font-family="Courier New" font-size="10.00">&#45; newPositions</text>
<text text-anchor="start" x="55.42" y="-125.5" font-family="Courier New" font-size="10.00">&#45; newColors</text>
<text text-anchor="start" x="55.42" y="-114.5" font-family="Courier New" font-size="10.00">&#45; particleNumberChangeHolder</text>
<text text-anchor="start" x="55.42" y="-103.5" font-family="Courier New" font-size="10.00">&#45; particleSizeChangeHolder</text>
<text text-anchor="start" x="55.42" y="-92.5" font-family="Courier New" font-size="10.00">&#45; maxValueHolder</text>
<text text-anchor="start" x="55.42" y="-81.5" font-family="Courier New" font-size="10.00">&#45; minValueHolder</text>
<text text-anchor="start" x="55.42" y="-70.5" font-family="Courier New" font-size="10.00">&#45; isoquantHighHolder</text>
<text text-anchor="start" x="55.42" y="-59.5" font-family="Courier New" font-size="10.00">&#45; isoquantLowHolder</text>
<polyline fill="none" stroke="black" points="47.42,-52.5 238.42,-52.5 "/>
<text text-anchor="start" x="55.42" y="-40.5" font-family="Courier New" font-size="10.00">+ UpdateParticles()</text>
<text text-anchor="start" x="55.42" y="-29.5" font-family="Courier New" font-size="10.00">+ UpdateParticleSize()</text>
<text text-anchor="start" x="55.42" y="-18.5" font-family="Courier New" font-size="10.00">&#45; Start()</text>
<text text-anchor="start" x="55.42" y="-7.5" font-family="Courier New" font-size="10.00">&#45; Update()</text>
</a>
</g>
</g>
<!-- Node2 -->
<g id="node2" class="node"><title>Node2</title>
<g id="a_node2"><a xlink:title=" ">
<polygon fill="white" stroke="#bfbfbf" points="95.42,-618.5 95.42,-675.5 190.42,-675.5 190.42,-618.5 95.42,-618.5"/>
<text text-anchor="middle" x="142.92" y="-663.5" font-family="Courier New" font-size="10.00">MonoBehaviour</text>
<polyline fill="none" stroke="#bfbfbf" points="95.42,-656.5 190.42,-656.5 "/>
<text text-anchor="middle" x="142.92" y="-644.5" font-family="Courier New" font-size="10.00"> </text>
<polyline fill="none" stroke="#bfbfbf" points="95.42,-637.5 190.42,-637.5 "/>
<text text-anchor="middle" x="142.92" y="-625.5" font-family="Courier New" font-size="10.00"> </text>
</a>
</g>
</g>
<!-- Node2&#45;&gt;Node1 -->
<g id="edge1" class="edge"><title>Node2&#45;&gt;Node1</title>
<path fill="none" stroke="midnightblue" d="M86.046,-626.683C65.2026,-616.527 43.8198,-601.758 31.92,-581 -22.234,-486.532 3.52793,-441.122 31.92,-336 36.2117,-320.11 42.1933,-304.183 49.1761,-288.681"/>
<polygon fill="none" stroke="midnightblue" points="84.6824,-629.908 95.2314,-630.893 87.5992,-623.544 84.6824,-629.908"/>
</g>
<!-- Node3 -->
<g id="node3" class="node"><title>Node3</title>
<g id="a_node3"><a xlink:href="../../de/dbc/class_c2_m2_1_1_o_i_t_1_1_visualization_1_1_particle_system_ascii_data_reader.html" target="_top" xlink:title=" ">
<polygon fill="white" stroke="black" points="41.42,-347.5 41.42,-569.5 244.42,-569.5 244.42,-347.5 41.42,-347.5"/>
<text text-anchor="start" x="49.42" y="-557.5" font-family="Courier New" font-size="10.00">C2M2.OIT.Visualization.Particle</text>
<text text-anchor="middle" x="142.92" y="-546.5" font-family="Courier New" font-size="10.00">SystemAsciiDataReader</text>
<polyline fill="none" stroke="black" points="41.42,-539.5 244.42,-539.5 "/>
<text text-anchor="start" x="49.42" y="-527.5" font-family="Courier New" font-size="10.00">+ assets</text>
<text text-anchor="start" x="49.42" y="-516.5" font-family="Courier New" font-size="10.00">+ RoomObject</text>
<text text-anchor="start" x="49.42" y="-505.5" font-family="Courier New" font-size="10.00">+ reduceBy</text>
<text text-anchor="start" x="49.42" y="-494.5" font-family="Courier New" font-size="10.00">+ dataSetList</text>
<text text-anchor="start" x="49.42" y="-483.5" font-family="Courier New" font-size="10.00">+ colorFloatMax</text>
<text text-anchor="start" x="49.42" y="-472.5" font-family="Courier New" font-size="10.00">+ colorFloatMin</text>
<text text-anchor="start" x="49.42" y="-461.5" font-family="Courier New" font-size="10.00">&#45; assetString</text>
<text text-anchor="start" x="49.42" y="-450.5" font-family="Courier New" font-size="10.00">&#45; currentLine</text>
<text text-anchor="start" x="49.42" y="-439.5" font-family="Courier New" font-size="10.00">&#45; sR</text>
<text text-anchor="start" x="49.42" y="-428.5" font-family="Courier New" font-size="10.00">&#45; currentLineSplit</text>
<text text-anchor="start" x="49.42" y="-417.5" font-family="Courier New" font-size="10.00">&#45; backupdataSetList</text>
<polyline fill="none" stroke="black" points="41.42,-410.5 244.42,-410.5 "/>
<text text-anchor="start" x="49.42" y="-398.5" font-family="Courier New" font-size="10.00">+ InitializeParticleData()</text>
<text text-anchor="start" x="49.42" y="-387.5" font-family="Courier New" font-size="10.00">+ Isoquant()</text>
<text text-anchor="start" x="49.42" y="-376.5" font-family="Courier New" font-size="10.00">&#45; InitializeInformationLists()</text>
<text text-anchor="start" x="49.42" y="-365.5" font-family="Courier New" font-size="10.00">&#45; CreateStringReader()</text>
<text text-anchor="start" x="49.42" y="-354.5" font-family="Courier New" font-size="10.00">&#45; CloseStringReader()</text>
</a>
</g>
</g>
<!-- Node2&#45;&gt;Node3 -->
<g id="edge3" class="edge"><title>Node2&#45;&gt;Node3</title>
<path fill="none" stroke="midnightblue" d="M142.92,-608.428C142.92,-596.893 142.92,-583.564 142.92,-569.719"/>
<polygon fill="none" stroke="midnightblue" points="139.42,-608.481 142.92,-618.481 146.42,-608.481 139.42,-608.481"/>
</g>
<!-- Node4 -->
<g id="node4" class="node"><title>Node4</title>
<g id="a_node4"><a xlink:href="../../d2/d3c/class_c2_m2_1_1_o_i_t_1_1_interaction_1_1_particle_field_handle_controller.html" target="_top" xlink:title=" ">
<polygon fill="white" stroke="black" points="262.42,-336.5 262.42,-580.5 453.42,-580.5 453.42,-336.5 262.42,-336.5"/>
<text text-anchor="start" x="270.42" y="-568.5" font-family="Courier New" font-size="10.00">C2M2.OIT.Interaction.Particle</text>
<text text-anchor="middle" x="357.92" y="-557.5" font-family="Courier New" font-size="10.00">FieldHandleController</text>
<polyline fill="none" stroke="black" points="262.42,-550.5 453.42,-550.5 "/>
<text text-anchor="start" x="270.42" y="-538.5" font-family="Courier New" font-size="10.00">+ xMinMarker</text>
<text text-anchor="start" x="270.42" y="-527.5" font-family="Courier New" font-size="10.00">+ xMaxMarker</text>
<text text-anchor="start" x="270.42" y="-516.5" font-family="Courier New" font-size="10.00">+ yMinMarker</text>
<text text-anchor="start" x="270.42" y="-505.5" font-family="Courier New" font-size="10.00">+ yMaxMarker</text>
<text text-anchor="start" x="270.42" y="-494.5" font-family="Courier New" font-size="10.00">+ zMinMarker</text>
<text text-anchor="start" x="270.42" y="-483.5" font-family="Courier New" font-size="10.00">+ zMaxMarker</text>
<text text-anchor="start" x="270.42" y="-472.5" font-family="Courier New" font-size="10.00">+ xMinCollider</text>
<text text-anchor="start" x="270.42" y="-461.5" font-family="Courier New" font-size="10.00">+ xMaxCollider</text>
<text text-anchor="start" x="270.42" y="-450.5" font-family="Courier New" font-size="10.00">+ yMinCollider</text>
<text text-anchor="start" x="270.42" y="-439.5" font-family="Courier New" font-size="10.00">+ yMaxCollider</text>
<text text-anchor="start" x="270.42" y="-428.5" font-family="Courier New" font-size="10.00">+ zMinCollider</text>
<text text-anchor="start" x="270.42" y="-417.5" font-family="Courier New" font-size="10.00">+ zMaxCollider</text>
<text text-anchor="start" x="270.42" y="-406.5" font-family="Courier New" font-size="10.00">&#45; minVector</text>
<text text-anchor="start" x="270.42" y="-395.5" font-family="Courier New" font-size="10.00">&#45; maxVector</text>
<polyline fill="none" stroke="black" points="262.42,-388.5 453.42,-388.5 "/>
<text text-anchor="start" x="270.42" y="-376.5" font-family="Courier New" font-size="10.00">+ UpdateHandlePositions()</text>
<text text-anchor="start" x="270.42" y="-365.5" font-family="Courier New" font-size="10.00">+ GetMinVector()</text>
<text text-anchor="start" x="270.42" y="-354.5" font-family="Courier New" font-size="10.00">+ GetMaxVector()</text>
<text text-anchor="start" x="270.42" y="-343.5" font-family="Courier New" font-size="10.00">&#45; Update()</text>
</a>
</g>
</g>
<!-- Node2&#45;&gt;Node4 -->
<g id="edge5" class="edge"><title>Node2&#45;&gt;Node4</title>
<path fill="none" stroke="midnightblue" d="M199.798,-617.085C217.623,-606.819 236.828,-594.442 252.92,-581 256.022,-578.408 259.11,-575.721 262.175,-572.956"/>
<polygon fill="none" stroke="midnightblue" points="197.618,-614.296 190.625,-622.256 201.055,-620.394 197.618,-614.296"/>
</g>
<!-- Node3&#45;&gt;Node1 -->
<g id="edge2" class="edge"><title>Node3&#45;&gt;Node1</title>
<path fill="none" stroke="#404040" d="M142.92,-347.061C142.92,-332.123 142.92,-316.573 142.92,-301.029"/>
<polygon fill="none" stroke="#404040" points="142.92,-300.577 138.92,-294.577 142.92,-288.577 146.92,-294.577 142.92,-300.577"/>
<text text-anchor="middle" x="197.42" y="-310" font-family="Courier New" font-size="10.00"> &#45;particleTextData</text>
</g>
<!-- Node4&#45;&gt;Node1 -->
<g id="edge4" class="edge"><title>Node4&#45;&gt;Node1</title>
<path fill="none" stroke="#404040" d="M275.961,-336.233C269.199,-326.331 262.454,-316.489 255.92,-307 252.49,-302.019 248.995,-296.957 245.461,-291.848"/>
<polygon fill="none" stroke="#404040" points="245.454,-291.838 238.75,-289.183 238.622,-281.973 245.326,-284.628 245.454,-291.838"/>
<text text-anchor="middle" x="340.42" y="-310" font-family="Courier New" font-size="10.00"> &#45;particleHandleController</text>
</g>
</g>
</svg>
        <g id="navigator" transform="translate(0 0)" fill="#404254">
                <rect fill="#f2f5e9" fill-opacity="0.5" stroke="#606060" stroke-width=".5" x="0" y="0" width="60" height="60"/>
                <use id="zoomplus" xlink:href="#zoomPlus" x="17" y="9" onmousedown="handleZoom(evt,'in')"/>
                <use id="zoomminus" xlink:href="#zoomMin" x="42" y="9" onmousedown="handleZoom(evt,'out')"/>
                <use id="reset" xlink:href="#resetDef" x="30" y="36" onmousedown="handleReset()"/>
                <g id="arrowUp" xlink:href="#dirArrow" transform="translate(30 24)" onmousedown="handlePan(0,-1)">
                  <use xlink:href="#rim" fill="#404040">
                        <set attributeName="fill" to="#808080" begin="arrowUp.mouseover" end="arrowUp.mouseout"/>
                  </use>
                  <path fill="none" stroke="white" stroke-width="1.5" d="M0,-3.0v7 M-2.5,-0.5L0,-3.0L2.5,-0.5"/>
                </g>
                <g id="arrowRight" xlink:href="#dirArrow" transform="rotate(90) translate(36 -43)" onmousedown="handlePan(1,0)">
                  <use xlink:href="#rim" fill="#404040">
                        <set attributeName="fill" to="#808080" begin="arrowRight.mouseover" end="arrowRight.mouseout"/>
                  </use>
                  <path fill="none" stroke="white" stroke-width="1.5" d="M0,-3.0v7 M-2.5,-0.5L0,-3.0L2.5,-0.5"/>
                </g>
                <g id="arrowDown" xlink:href="#dirArrow" transform="rotate(180) translate(-30 -48)" onmousedown="handlePan(0,1)">
                  <use xlink:href="#rim" fill="#404040">
                        <set attributeName="fill" to="#808080" begin="arrowDown.mouseover" end="arrowDown.mouseout"/>
                  </use>
                  <path fill="none" stroke="white" stroke-width="1.5" d="M0,-3.0v7 M-2.5,-0.5L0,-3.0L2.5,-0.5"/>
                </g>
                <g id="arrowLeft" xlink:href="#dirArrow" transform="rotate(270) translate(-36 17)" onmousedown="handlePan(-1,0)">
                  <use xlink:href="#rim" fill="#404040">
                        <set attributeName="fill" to="#808080" begin="arrowLeft.mouseover" end="arrowLeft.mouseout"/>
                  </use>
                  <path fill="none" stroke="white" stroke-width="1.5" d="M0,-3.0v7 M-2.5,-0.5L0,-3.0L2.5,-0.5"/>
                </g>
        </g>
        <svg viewBox="0 0 15 15" width="100%" height="30px" preserveAspectRatio="xMaxYMin meet">
         <g id="arrow_out" transform="scale(0.3 0.3)">
          <a xlink:href="class_c2_m2_1_1_o_i_t_1_1_interaction_1_1_particle_system_controller__coll__graph_org.svg" target="_base">
           <rect id="button" ry="5" rx="5" y="6" x="6" height="38" width="38"
                fill="#f2f5e9" fill-opacity="0.5" stroke="#606060" stroke-width="1.0"/>
           <path id="arrow"
             d="M 11.500037,31.436501 C 11.940474,20.09759 22.043105,11.32322 32.158766,21.979434 L 37.068811,17.246167 C 37.068811,17.246167 37.088388,32 37.088388,32 L 22.160133,31.978069 C 22.160133,31.978069 26.997745,27.140456 26.997745,27.140456 C 18.528582,18.264221 13.291696,25.230495 11.500037,31.436501 z"
             style="fill:#404040;"/>
          </a>
         </g>
        </svg>
</svg>
