<?xml version="1.0" encoding="UTF-8" standalone="no"?>
<!DOCTYPE svg PUBLIC "-//W3C//DTD SVG 1.1//EN"
 "http://www.w3.org/Graphics/SVG/1.1/DTD/svg11.dtd">
<!-- Generated by graphviz version 2.38.0 (20140413.2041)
 -->
<!-- Title: C2M2.Interaction.RaycastHeater Pages: 1 -->
<svg width="360pt" height="364pt"
 viewBox="0.00 0.00 360.00 364.00" xmlns="http://www.w3.org/2000/svg" xmlns:xlink="http://www.w3.org/1999/xlink">
<g id="graph0" class="graph" transform="scale(1 1) rotate(0) translate(4 360)">
<title>C2M2.Interaction.RaycastHeater</title>
<polygon fill="white" stroke="none" points="-4,4 -4,-360 356,-360 356,4 -4,4"/>
<!-- Node1 -->
<g id="node1" class="node"><title>Node1</title>
<g id="a_node1"><a xlink:title=" ">
<polygon fill="#bfbfbf" stroke="black" points="98,-160.5 98,-261.5 259,-261.5 259,-160.5 98,-160.5"/>
<text text-anchor="start" x="106" y="-249.5" font-family="Courier New" font-size="10.00">C2M2.Interaction.Raycast</text>
<text text-anchor="middle" x="178.5" y="-238.5" font-family="Courier New" font-size="10.00">Heater</text>
<polyline fill="none" stroke="black" points="98,-231.5 259,-231.5 "/>
<text text-anchor="start" x="106" y="-219.5" font-family="Courier New" font-size="10.00"># simulation</text>
<polyline fill="none" stroke="black" points="98,-212.5 259,-212.5 "/>
<text text-anchor="start" x="106" y="-200.5" font-family="Courier New" font-size="10.00">+ Hit()</text>
<text text-anchor="start" x="106" y="-189.5" font-family="Courier New" font-size="10.00"># OnAwake()</text>
<text text-anchor="start" x="106" y="-178.5" font-family="Courier New" font-size="10.00"># HitMethod()</text>
<text text-anchor="start" x="106" y="-167.5" font-family="Courier New" font-size="10.00">&#45; Awake()</text>
</a>
</g>
</g>
<!-- Node3 -->
<g id="node3" class="node"><title>Node3</title>
<g id="a_node3"><a xlink:href="../../da/d95/class_c2_m2_1_1_interaction_1_1_raycast_sim_heater_continuous.html" target="_top" xlink:title=" ">
<polygon fill="white" stroke="black" points="0,-0.5 0,-123.5 173,-123.5 173,-0.5 0,-0.5"/>
<text text-anchor="start" x="8" y="-111.5" font-family="Courier New" font-size="10.00">C2M2.Interaction.Raycast</text>
<text text-anchor="middle" x="86.5" y="-100.5" font-family="Courier New" font-size="10.00">SimHeaterContinuous</text>
<polyline fill="none" stroke="black" points="0,-93.5 173,-93.5 "/>
<text text-anchor="start" x="8" y="-81.5" font-family="Courier New" font-size="10.00">&#45; dijkstraSearch</text>
<text text-anchor="start" x="8" y="-70.5" font-family="Courier New" font-size="10.00">&#45; gaussian</text>
<text text-anchor="start" x="8" y="-59.5" font-family="Courier New" font-size="10.00">&#45; uniqueVerts</text>
<polyline fill="none" stroke="black" points="0,-52.5 173,-52.5 "/>
<text text-anchor="start" x="8" y="-40.5" font-family="Courier New" font-size="10.00">+ SetWarmCoolHands()</text>
<text text-anchor="start" x="8" y="-29.5" font-family="Courier New" font-size="10.00">+ RaycastersDefaultColor()</text>
<text text-anchor="start" x="8" y="-18.5" font-family="Courier New" font-size="10.00"># OnAwake()</text>
<text text-anchor="start" x="8" y="-7.5" font-family="Courier New" font-size="10.00"># HitMethod()</text>
</a>
</g>
</g>
<!-- Node1&#45;&gt;Node3 -->
<g id="edge2" class="edge"><title>Node1&#45;&gt;Node3</title>
<path fill="none" stroke="midnightblue" d="M141.925,-151.56C136.186,-142.389 130.242,-132.892 124.472,-123.672"/>
<polygon fill="none" stroke="midnightblue" points="139.081,-153.613 147.353,-160.233 145.015,-149.899 139.081,-153.613"/>
</g>
<!-- Node4 -->
<g id="node4" class="node"><title>Node4</title>
<g id="a_node4"><a xlink:href="../../d3/d4c/class_c2_m2_1_1_interaction_1_1_raycast_sim_heater_discrete.html" target="_top" xlink:title=" ">
<polygon fill="white" stroke="black" points="191,-11.5 191,-112.5 352,-112.5 352,-11.5 191,-11.5"/>
<text text-anchor="start" x="199" y="-100.5" font-family="Courier New" font-size="10.00">C2M2.Interaction.Raycast</text>
<text text-anchor="middle" x="271.5" y="-89.5" font-family="Courier New" font-size="10.00">SimHeaterDiscrete</text>
<polyline fill="none" stroke="black" points="191,-82.5 352,-82.5 "/>
<text text-anchor="start" x="199" y="-70.5" font-family="Courier New" font-size="10.00">+ value</text>
<text text-anchor="start" x="199" y="-59.5" font-family="Courier New" font-size="10.00">&#45; mf</text>
<polyline fill="none" stroke="black" points="191,-52.5 352,-52.5 "/>
<text text-anchor="start" x="199" y="-40.5" font-family="Courier New" font-size="10.00">+ HitToTriangles()</text>
<text text-anchor="start" x="199" y="-29.5" font-family="Courier New" font-size="10.00"># OnAwake()</text>
<text text-anchor="start" x="199" y="-18.5" font-family="Courier New" font-size="10.00"># HitMethod()</text>
</a>
</g>
</g>
<!-- Node1&#45;&gt;Node4 -->
<g id="edge3" class="edge"><title>Node1&#45;&gt;Node4</title>
<path fill="none" stroke="midnightblue" d="M215.53,-151.469C223.649,-138.635 232.171,-125.166 240.047,-112.716"/>
<polygon fill="none" stroke="midnightblue" points="212.374,-149.91 209.986,-160.233 218.29,-153.653 212.374,-149.91"/>
</g>
<!-- Node2 -->
<g id="node2" class="node"><title>Node2</title>
<g id="a_node2"><a xlink:title=" ">
<polygon fill="white" stroke="#bfbfbf" points="131,-298.5 131,-355.5 226,-355.5 226,-298.5 131,-298.5"/>
<text text-anchor="middle" x="178.5" y="-343.5" font-family="Courier New" font-size="10.00">MonoBehaviour</text>
<polyline fill="none" stroke="#bfbfbf" points="131,-336.5 226,-336.5 "/>
<text text-anchor="middle" x="178.5" y="-324.5" font-family="Courier New" font-size="10.00"> </text>
<polyline fill="none" stroke="#bfbfbf" points="131,-317.5 226,-317.5 "/>
<text text-anchor="middle" x="178.5" y="-305.5" font-family="Courier New" font-size="10.00"> </text>
</a>
</g>
</g>
<!-- Node2&#45;&gt;Node1 -->
<g id="edge1" class="edge"><title>Node2&#45;&gt;Node1</title>
<path fill="none" stroke="midnightblue" d="M178.5,-288.354C178.5,-279.796 178.5,-270.578 178.5,-261.608"/>
<polygon fill="none" stroke="midnightblue" points="175,-288.404 178.5,-298.404 182,-288.404 175,-288.404"/>
</g>
</g>
</svg>
