<?xml version="1.0" encoding="UTF-8" standalone="no"?>
<!DOCTYPE svg PUBLIC "-//W3C//DTD SVG 1.1//EN"
 "http://www.w3.org/Graphics/SVG/1.1/DTD/svg11.dtd">
<!-- Generated by graphviz version 2.38.0 (20140413.2041)
 -->
<!-- Title: C2M2.Interaction.Signaling.PressEventSignaler Pages: 1 -->
<svg width="396pt" height="821pt"
 viewBox="0.00 0.00 396.00 821.00" xmlns="http://www.w3.org/2000/svg" xmlns:xlink="http://www.w3.org/1999/xlink">
<g id="graph0" class="graph" transform="scale(1 1) rotate(0) translate(4 817)">
<title>C2M2.Interaction.Signaling.PressEventSignaler</title>
<polygon fill="white" stroke="none" points="-4,4 -4,-817 392,-817 392,4 -4,4"/>
<!-- Node1 -->
<g id="node1" class="node"><title>Node1</title>
<g id="a_node1"><a xlink:title="Send press, holdPress, and endPress events based on set values of Pressed and RaycastTriggerManager">
<polygon fill="#bfbfbf" stroke="black" points="104,-617.5 104,-718.5 283,-718.5 283,-617.5 104,-617.5"/>
<text text-anchor="start" x="112" y="-706.5" font-family="Courier New" font-size="10.00">C2M2.Interaction.Signaling.</text>
<text text-anchor="middle" x="193.5" y="-695.5" font-family="Courier New" font-size="10.00">PressEventSignaler</text>
<polyline fill="none" stroke="black" points="104,-688.5 283,-688.5 "/>
<text text-anchor="start" x="112" y="-676.5" font-family="Courier New" font-size="10.00">+ Pressed</text>
<text text-anchor="start" x="112" y="-665.5" font-family="Courier New" font-size="10.00">&#45; pressedPrevFrame</text>
<polyline fill="none" stroke="black" points="104,-658.5 283,-658.5 "/>
<text text-anchor="start" x="112" y="-646.5" font-family="Courier New" font-size="10.00"># OnPress()</text>
<text text-anchor="start" x="112" y="-635.5" font-family="Courier New" font-size="10.00"># OnHoldPress()</text>
<text text-anchor="start" x="112" y="-624.5" font-family="Courier New" font-size="10.00"># OnEndPress()</text>
</a>
</g>
</g>
<!-- Node3 -->
<g id="node3" class="node"><title>Node3</title>
<g id="a_node3"><a xlink:href="../../d6/d2d/class_c2_m2_1_1_interaction_1_1_signaling_1_1_raycast_event_signaler.html" target="_top" xlink:title=" ">
<polygon fill="white" stroke="black" points="101,-314.5 101,-580.5 286,-580.5 286,-314.5 101,-314.5"/>
<text text-anchor="start" x="109" y="-568.5" font-family="Courier New" font-size="10.00">C2M2.Interaction.Signaling.</text>
<text text-anchor="middle" x="193.5" y="-557.5" font-family="Courier New" font-size="10.00">RaycastEventSignaler</text>
<polyline fill="none" stroke="black" points="101,-550.5 286,-550.5 "/>
<text text-anchor="start" x="109" y="-538.5" font-family="Courier New" font-size="10.00">+ rightHand</text>
<text text-anchor="start" x="109" y="-527.5" font-family="Courier New" font-size="10.00">+ maxRaycastDistance</text>
<text text-anchor="start" x="109" y="-516.5" font-family="Courier New" font-size="10.00">&#45; layerMask</text>
<text text-anchor="start" x="109" y="-505.5" font-family="Courier New" font-size="10.00">&#45; activeEvent</text>
<text text-anchor="start" x="109" y="-494.5" font-family="Courier New" font-size="10.00">&#45; lastHit</text>
<polyline fill="none" stroke="black" points="101,-487.5 286,-487.5 "/>
<text text-anchor="start" x="109" y="-475.5" font-family="Courier New" font-size="10.00"># OnAwake()</text>
<text text-anchor="start" x="109" y="-464.5" font-family="Courier New" font-size="10.00"># Awake()</text>
<text text-anchor="start" x="109" y="-453.5" font-family="Courier New" font-size="10.00"># OnStart()</text>
<text text-anchor="start" x="109" y="-442.5" font-family="Courier New" font-size="10.00"># OnPress()</text>
<text text-anchor="start" x="109" y="-431.5" font-family="Courier New" font-size="10.00"># OnHoldPress()</text>
<text text-anchor="start" x="109" y="-420.5" font-family="Courier New" font-size="10.00"># OnEndPress()</text>
<text text-anchor="start" x="109" y="-409.5" font-family="Courier New" font-size="10.00"># OnPressSub()</text>
<text text-anchor="start" x="109" y="-398.5" font-family="Courier New" font-size="10.00"># OnHoldPressSub()</text>
<text text-anchor="start" x="109" y="-387.5" font-family="Courier New" font-size="10.00"># OnEndPressSub()</text>
<text text-anchor="start" x="109" y="-376.5" font-family="Courier New" font-size="10.00"># RaycastingMethod()</text>
<text text-anchor="start" x="109" y="-365.5" font-family="Courier New" font-size="10.00"># BeginRaycastingCondition()</text>
<text text-anchor="start" x="109" y="-354.5" font-family="Courier New" font-size="10.00"># ChildsPressCondition()</text>
<text text-anchor="start" x="109" y="-343.5" font-family="Courier New" font-size="10.00">&#45; Start()</text>
<text text-anchor="start" x="109" y="-332.5" font-family="Courier New" font-size="10.00">&#45; FixedUpdate()</text>
<text text-anchor="start" x="109" y="-321.5" font-family="Courier New" font-size="10.00">&#45; FindRaycastTrigger()</text>
</a>
</g>
</g>
<!-- Node1&#45;&gt;Node3 -->
<g id="edge2" class="edge"><title>Node1&#45;&gt;Node3</title>
<path fill="none" stroke="midnightblue" d="M193.5,-607.301C193.5,-598.784 193.5,-589.756 193.5,-580.501"/>
<polygon fill="none" stroke="midnightblue" points="190,-607.419 193.5,-617.419 197,-607.419 190,-607.419"/>
</g>
<!-- Node2 -->
<g id="node2" class="node"><title>Node2</title>
<g id="a_node2"><a xlink:title=" ">
<polygon fill="white" stroke="#bfbfbf" points="146,-755.5 146,-812.5 241,-812.5 241,-755.5 146,-755.5"/>
<text text-anchor="middle" x="193.5" y="-800.5" font-family="Courier New" font-size="10.00">MonoBehaviour</text>
<polyline fill="none" stroke="#bfbfbf" points="146,-793.5 241,-793.5 "/>
<text text-anchor="middle" x="193.5" y="-781.5" font-family="Courier New" font-size="10.00"> </text>
<polyline fill="none" stroke="#bfbfbf" points="146,-774.5 241,-774.5 "/>
<text text-anchor="middle" x="193.5" y="-762.5" font-family="Courier New" font-size="10.00"> </text>
</a>
</g>
</g>
<!-- Node2&#45;&gt;Node1 -->
<g id="edge1" class="edge"><title>Node2&#45;&gt;Node1</title>
<path fill="none" stroke="midnightblue" d="M193.5,-745.354C193.5,-736.796 193.5,-727.578 193.5,-718.608"/>
<polygon fill="none" stroke="midnightblue" points="190,-745.404 193.5,-755.404 197,-745.404 190,-745.404"/>
</g>
<!-- Node4 -->
<g id="node4" class="node"><title>Node4</title>
<g id="a_node4"><a xlink:href="../../d3/da8/class_c2_m2_1_1_interaction_1_1_signaling_1_1_mouse_event_signaler.html" target="_top" xlink:title=" ">
<polygon fill="white" stroke="black" points="0,-66.5 0,-211.5 185,-211.5 185,-66.5 0,-66.5"/>
<text text-anchor="start" x="8" y="-199.5" font-family="Courier New" font-size="10.00">C2M2.Interaction.Signaling.</text>
<text text-anchor="middle" x="92.5" y="-188.5" font-family="Courier New" font-size="10.00">MouseEventSignaler</text>
<polyline fill="none" stroke="black" points="0,-181.5 185,-181.5 "/>
<text text-anchor="middle" x="92.5" y="-169.5" font-family="Courier New" font-size="10.00"> </text>
<polyline fill="none" stroke="black" points="0,-162.5 185,-162.5 "/>
<text text-anchor="start" x="8" y="-150.5" font-family="Courier New" font-size="10.00"># OnAwake()</text>
<text text-anchor="start" x="8" y="-139.5" font-family="Courier New" font-size="10.00"># OnStart()</text>
<text text-anchor="start" x="8" y="-128.5" font-family="Courier New" font-size="10.00"># BeginRaycastingCondition()</text>
<text text-anchor="start" x="8" y="-117.5" font-family="Courier New" font-size="10.00"># RaycastingMethod()</text>
<text text-anchor="start" x="8" y="-106.5" font-family="Courier New" font-size="10.00"># ChildsPressCondition()</text>
<text text-anchor="start" x="8" y="-95.5" font-family="Courier New" font-size="10.00"># OnPressSub()</text>
<text text-anchor="start" x="8" y="-84.5" font-family="Courier New" font-size="10.00"># OnHoldPressSub()</text>
<text text-anchor="start" x="8" y="-73.5" font-family="Courier New" font-size="10.00"># OnEndPressSub()</text>
</a>
</g>
</g>
<!-- Node3&#45;&gt;Node4 -->
<g id="edge3" class="edge"><title>Node3&#45;&gt;Node4</title>
<path fill="none" stroke="midnightblue" d="M146.801,-304.785C136.194,-272.595 125.361,-239.723 116.19,-211.892"/>
<polygon fill="none" stroke="midnightblue" points="143.48,-305.89 149.934,-314.293 150.128,-303.699 143.48,-305.89"/>
</g>
<!-- Node5 -->
<g id="node5" class="node"><title>Node5</title>
<g id="a_node5"><a xlink:href="../../d4/d2f/class_c2_m2_1_1_interaction_1_1_signaling_1_1_oculus_event_signaler.html" target="_top" xlink:title="Activate raycast triggers using oculus controller buttons and fingertip distance">
<polygon fill="white" stroke="black" points="203,-0.5 203,-277.5 388,-277.5 388,-0.5 203,-0.5"/>
<text text-anchor="start" x="211" y="-265.5" font-family="Courier New" font-size="10.00">C2M2.Interaction.Signaling.</text>
<text text-anchor="middle" x="295.5" y="-254.5" font-family="Courier New" font-size="10.00">OculusEventSignaler</text>
<polyline fill="none" stroke="black" points="203,-247.5 388,-247.5 "/>
<text text-anchor="start" x="211" y="-235.5" font-family="Courier New" font-size="10.00">+ controller</text>
<text text-anchor="start" x="211" y="-224.5" font-family="Courier New" font-size="10.00">+ beginRaycastingButton</text>
<text text-anchor="start" x="211" y="-213.5" font-family="Courier New" font-size="10.00">+ triggerEventsButton</text>
<text text-anchor="start" x="211" y="-202.5" font-family="Courier New" font-size="10.00">+ lineRend</text>
<text text-anchor="start" x="211" y="-191.5" font-family="Courier New" font-size="10.00">+ unpressedColor</text>
<text text-anchor="start" x="211" y="-180.5" font-family="Courier New" font-size="10.00">+ pressedColor</text>
<text text-anchor="start" x="211" y="-169.5" font-family="Courier New" font-size="10.00">+ staticHand</text>
<text text-anchor="start" x="211" y="-158.5" font-family="Courier New" font-size="10.00">+ defaultHand</text>
<text text-anchor="start" x="211" y="-147.5" font-family="Courier New" font-size="10.00">+ clickDistance</text>
<text text-anchor="start" x="211" y="-136.5" font-family="Courier New" font-size="10.00">&#45; distancePressed</text>
<polyline fill="none" stroke="black" points="203,-129.5 388,-129.5 "/>
<text text-anchor="start" x="211" y="-117.5" font-family="Courier New" font-size="10.00"># OnAwake()</text>
<text text-anchor="start" x="211" y="-106.5" font-family="Courier New" font-size="10.00"># OnStart()</text>
<text text-anchor="start" x="211" y="-95.5" font-family="Courier New" font-size="10.00"># BeginRaycastingCondition()</text>
<text text-anchor="start" x="211" y="-84.5" font-family="Courier New" font-size="10.00"># ChildsPressCondition()</text>
<text text-anchor="start" x="211" y="-73.5" font-family="Courier New" font-size="10.00"># OnPressSub()</text>
<text text-anchor="start" x="211" y="-62.5" font-family="Courier New" font-size="10.00"># OnHoldPressSub()</text>
<text text-anchor="start" x="211" y="-51.5" font-family="Courier New" font-size="10.00"># OnEndPressSub()</text>
<text text-anchor="start" x="211" y="-40.5" font-family="Courier New" font-size="10.00"># RaycastingMethod()</text>
<text text-anchor="start" x="211" y="-29.5" font-family="Courier New" font-size="10.00">&#45; StaticHandSetActive()</text>
<text text-anchor="start" x="211" y="-18.5" font-family="Courier New" font-size="10.00">&#45; LineRendererSetActive()</text>
<text text-anchor="start" x="211" y="-7.5" font-family="Courier New" font-size="10.00">&#45; CheckPressDistance()</text>
</a>
</g>
</g>
<!-- Node3&#45;&gt;Node5 -->
<g id="edge4" class="edge"><title>Node3&#45;&gt;Node5</title>
<path fill="none" stroke="midnightblue" d="M240.73,-304.577C243.718,-295.599 246.723,-286.57 249.704,-277.612"/>
<polygon fill="none" stroke="midnightblue" points="237.334,-303.699 237.497,-314.293 243.976,-305.909 237.334,-303.699"/>
</g>
</g>
</svg>
