<?xml version="1.0" encoding="UTF-8" standalone="no"?>
<!DOCTYPE svg PUBLIC "-//W3C//DTD SVG 1.1//EN"
 "http://www.w3.org/Graphics/SVG/1.1/DTD/svg11.dtd">
<!-- Generated by graphviz version 2.38.0 (20140413.2041)
 -->
<!-- Title: C2M2.Simulation.Samples.MeshSimulation Pages: 1 -->
<svg width="193pt" height="628pt"
 viewBox="0.00 0.00 193.00 628.00" xmlns="http://www.w3.org/2000/svg" xmlns:xlink="http://www.w3.org/1999/xlink">
<g id="graph0" class="graph" transform="scale(1 1) rotate(0) translate(4 624)">
<title>C2M2.Simulation.Samples.MeshSimulation</title>
<polygon fill="white" stroke="none" points="-4,4 -4,-624 189,-624 189,4 -4,4"/>
<!-- Node1 -->
<g id="node1" class="node"><title>Node1</title>
<g id="a_node1"><a xlink:title="Store a scalar for each vertex on an existing MeshFilter.mesh">
<polygon fill="#bfbfbf" stroke="black" points="12,-0.5 12,-112.5 173,-112.5 173,-0.5 12,-0.5"/>
<text text-anchor="start" x="20" y="-100.5" font-family="Courier New" font-size="10.00">C2M2.Simulation.Samples.</text>
<text text-anchor="middle" x="92.5" y="-89.5" font-family="Courier New" font-size="10.00">MeshSimulation</text>
<polyline fill="none" stroke="black" points="12,-82.5 173,-82.5 "/>
<text text-anchor="start" x="20" y="-70.5" font-family="Courier New" font-size="10.00">&#45; scalars</text>
<polyline fill="none" stroke="black" points="12,-63.5 173,-63.5 "/>
<text text-anchor="start" x="20" y="-51.5" font-family="Courier New" font-size="10.00">+ GetValues()</text>
<text text-anchor="start" x="20" y="-40.5" font-family="Courier New" font-size="10.00">+ SetValues()</text>
<text text-anchor="start" x="20" y="-29.5" font-family="Courier New" font-size="10.00"># Solve()</text>
<text text-anchor="start" x="20" y="-18.5" font-family="Courier New" font-size="10.00"># ReadData()</text>
<text text-anchor="start" x="20" y="-7.5" font-family="Courier New" font-size="10.00"># BuildVisualization()</text>
</a>
</g>
</g>
<!-- Node2 -->
<g id="node2" class="node"><title>Node2</title>
<g id="a_node2"><a xlink:href="../../d6/d2d/class_c2_m2_1_1_simulation_1_1_mesh_simulation.html" target="_top" xlink:title="Simulation of type double[] for visualizing scalar fields on mesh surfaces">
<polygon fill="white" stroke="black" points="6,-149.5 6,-305.5 179,-305.5 179,-149.5 6,-149.5"/>
<text text-anchor="middle" x="92.5" y="-293.5" font-family="Courier New" font-size="10.00">Simulation::MeshSimulation</text>
<polyline fill="none" stroke="black" points="6,-286.5 179,-286.5 "/>
<text text-anchor="start" x="14" y="-274.5" font-family="Courier New" font-size="10.00">+ gradient</text>
<text text-anchor="start" x="14" y="-263.5" font-family="Courier New" font-size="10.00">+ extremaMethod</text>
<text text-anchor="start" x="14" y="-252.5" font-family="Courier New" font-size="10.00">+ globalMax</text>
<text text-anchor="start" x="14" y="-241.5" font-family="Courier New" font-size="10.00">+ globalMin</text>
<text text-anchor="start" x="14" y="-230.5" font-family="Courier New" font-size="10.00">+ colorLUT</text>
<text text-anchor="start" x="14" y="-219.5" font-family="Courier New" font-size="10.00"># colliderMesh</text>
<text text-anchor="start" x="14" y="-208.5" font-family="Courier New" font-size="10.00">&#45; mf</text>
<text text-anchor="start" x="14" y="-197.5" font-family="Courier New" font-size="10.00">&#45; mr</text>
<polyline fill="none" stroke="black" points="6,-190.5 179,-190.5 "/>
<text text-anchor="start" x="14" y="-178.5" font-family="Courier New" font-size="10.00"># UpdateVisualization()</text>
<text text-anchor="start" x="14" y="-167.5" font-family="Courier New" font-size="10.00"># OnAwake()</text>
<text text-anchor="start" x="14" y="-156.5" font-family="Courier New" font-size="10.00">&#45; UpdateVisualization()</text>
</a>
</g>
</g>
<!-- Node2&#45;&gt;Node1 -->
<g id="edge1" class="edge"><title>Node2&#45;&gt;Node1</title>
<path fill="none" stroke="midnightblue" d="M92.5,-139.252C92.5,-130.243 92.5,-121.277 92.5,-112.762"/>
<polygon fill="none" stroke="midnightblue" points="89.0001,-139.418 92.5,-149.418 96.0001,-139.418 89.0001,-139.418"/>
</g>
<!-- Node3 -->
<g id="node3" class="node"><title>Node3</title>
<g id="a_node3"><a xlink:href="../../db/d39/class_c2_m2_1_1_simulation_1_1_simulation.html" target="_top" xlink:title=" ">
<polygon fill="white" stroke="black" points="0,-342.5 0,-619.5 185,-619.5 185,-342.5 0,-342.5"/>
<text text-anchor="start" x="8" y="-607.5" font-family="Courier New" font-size="10.00">Simulation&lt; double</text>
<text text-anchor="start" x="8" y="-596.5" font-family="Courier New" font-size="10.00">[], Mesh, VRRaycastableMesh,</text>
<text text-anchor="middle" x="92.5" y="-585.5" font-family="Courier New" font-size="10.00"> VRGrabbableMesh &gt;</text>
<polyline fill="none" stroke="black" points="0,-578.5 185,-578.5 "/>
<text text-anchor="start" x="8" y="-566.5" font-family="Courier New" font-size="10.00">+ dryRun</text>
<text text-anchor="start" x="8" y="-555.5" font-family="Courier New" font-size="10.00">+ startOnAwake</text>
<text text-anchor="start" x="8" y="-544.5" font-family="Courier New" font-size="10.00">+ viz</text>
<text text-anchor="start" x="8" y="-533.5" font-family="Courier New" font-size="10.00"># mutex</text>
<text text-anchor="start" x="8" y="-522.5" font-family="Courier New" font-size="10.00">&#45; solveThread</text>
<polyline fill="none" stroke="black" points="0,-515.5 185,-515.5 "/>
<text text-anchor="start" x="8" y="-503.5" font-family="Courier New" font-size="10.00">+ GetValues()</text>
<text text-anchor="start" x="8" y="-492.5" font-family="Courier New" font-size="10.00">+ StartSimulation()</text>
<text text-anchor="start" x="8" y="-481.5" font-family="Courier New" font-size="10.00">+ StopSimulation()</text>
<text text-anchor="start" x="8" y="-470.5" font-family="Courier New" font-size="10.00">+ Awake()</text>
<text text-anchor="start" x="8" y="-459.5" font-family="Courier New" font-size="10.00">+ Start()</text>
<text text-anchor="start" x="8" y="-448.5" font-family="Courier New" font-size="10.00">+ Update()</text>
<text text-anchor="start" x="8" y="-437.5" font-family="Courier New" font-size="10.00"># BuildVisualization()</text>
<text text-anchor="start" x="8" y="-426.5" font-family="Courier New" font-size="10.00"># ReadData()</text>
<text text-anchor="start" x="8" y="-415.5" font-family="Courier New" font-size="10.00"># UpdateVisualization()</text>
<text text-anchor="start" x="8" y="-404.5" font-family="Courier New" font-size="10.00"># Solve()</text>
<text text-anchor="start" x="8" y="-393.5" font-family="Courier New" font-size="10.00"># OnAwake()</text>
<text text-anchor="start" x="8" y="-382.5" font-family="Courier New" font-size="10.00"># OnStart()</text>
<text text-anchor="start" x="8" y="-371.5" font-family="Courier New" font-size="10.00"># OnUpdate()</text>
<text text-anchor="start" x="8" y="-360.5" font-family="Courier New" font-size="10.00">&#45; OnApplicationPause()</text>
<text text-anchor="start" x="8" y="-349.5" font-family="Courier New" font-size="10.00">&#45; OnApplicationQuit()</text>
</a>
</g>
</g>
<!-- Node3&#45;&gt;Node2 -->
<g id="edge2" class="edge"><title>Node3&#45;&gt;Node2</title>
<path fill="none" stroke="midnightblue" d="M92.5,-332.467C92.5,-323.292 92.5,-314.277 92.5,-305.625"/>
<polygon fill="none" stroke="midnightblue" points="89.0001,-332.476 92.5,-342.476 96.0001,-332.476 89.0001,-332.476"/>
</g>
</g>
</svg>
