<?xml version="1.0" encoding="UTF-8" standalone="no"?>
<!DOCTYPE svg PUBLIC "-//W3C//DTD SVG 1.1//EN"
 "http://www.w3.org/Graphics/SVG/1.1/DTD/svg11.dtd">
<!-- Generated by graphviz version 2.38.0 (20140413.2041)
 -->
<!-- Title: C2M2.Simulation.Samples.MeshSimulation Pages: 1 -->
<svg width="169pt" height="562pt"
 viewBox="0.00 0.00 169.00 562.00" xmlns="http://www.w3.org/2000/svg" xmlns:xlink="http://www.w3.org/1999/xlink">
<g id="graph0" class="graph" transform="scale(1 1) rotate(0) translate(4 558)">
<title>C2M2.Simulation.Samples.MeshSimulation</title>
<polygon fill="white" stroke="none" points="-4,4 -4,-558 165,-558 165,4 -4,4"/>
<!-- Node1 -->
<g id="node1" class="node"><title>Node1</title>
<g id="a_node1"><a xlink:title="Store a scalar for each vertex on an existing MeshFilter.mesh">
<polygon fill="#bfbfbf" stroke="black" points="0,-0.5 0,-101.5 161,-101.5 161,-0.5 0,-0.5"/>
<text text-anchor="start" x="8" y="-89.5" font-family="Courier New" font-size="10.00">C2M2.Simulation.Samples.</text>
<text text-anchor="middle" x="80.5" y="-78.5" font-family="Courier New" font-size="10.00">MeshSimulation</text>
<polyline fill="none" stroke="black" points="0,-71.5 161,-71.5 "/>
<text text-anchor="start" x="8" y="-59.5" font-family="Courier New" font-size="10.00">&#45; scalars</text>
<polyline fill="none" stroke="black" points="0,-52.5 161,-52.5 "/>
<text text-anchor="start" x="8" y="-40.5" font-family="Courier New" font-size="10.00">+ GetValues()</text>
<text text-anchor="start" x="8" y="-29.5" font-family="Courier New" font-size="10.00">+ SetValues()</text>
<text text-anchor="start" x="8" y="-18.5" font-family="Courier New" font-size="10.00"># Solve()</text>
<text text-anchor="start" x="8" y="-7.5" font-family="Courier New" font-size="10.00"># BuildVisualization()</text>
</a>
</g>
</g>
<!-- Node2 -->
<g id="node2" class="node"><title>Node2</title>
<g id="a_node2"><a xlink:href="../../d4/de1/class_c2_m2_1_1_simulation_1_1_surface_simulation.html" target="_top" xlink:title="Simulation of type double[] for visualizing scalar fields on mesh surfaces">
<polygon fill="white" stroke="black" points="3,-138.5 3,-283.5 158,-283.5 158,-138.5 3,-138.5"/>
<text text-anchor="middle" x="80.5" y="-271.5" font-family="Courier New" font-size="10.00">SurfaceSimulation</text>
<polyline fill="none" stroke="black" points="3,-264.5 158,-264.5 "/>
<text text-anchor="start" x="11" y="-252.5" font-family="Courier New" font-size="10.00">+ gradient</text>
<text text-anchor="start" x="11" y="-241.5" font-family="Courier New" font-size="10.00">+ extremaMethod</text>
<text text-anchor="start" x="11" y="-230.5" font-family="Courier New" font-size="10.00">+ globalMax</text>
<text text-anchor="start" x="11" y="-219.5" font-family="Courier New" font-size="10.00">+ globalMin</text>
<text text-anchor="start" x="11" y="-208.5" font-family="Courier New" font-size="10.00">+ colorLUT</text>
<text text-anchor="start" x="11" y="-197.5" font-family="Courier New" font-size="10.00">&#45; mf</text>
<text text-anchor="start" x="11" y="-186.5" font-family="Courier New" font-size="10.00">&#45; mr</text>
<polyline fill="none" stroke="black" points="3,-179.5 158,-179.5 "/>
<text text-anchor="start" x="11" y="-167.5" font-family="Courier New" font-size="10.00"># UpdateVisualization()</text>
<text text-anchor="start" x="11" y="-156.5" font-family="Courier New" font-size="10.00"># OnAwake()</text>
<text text-anchor="start" x="11" y="-145.5" font-family="Courier New" font-size="10.00">&#45; UpdateVisualization()</text>
</a>
</g>
</g>
<!-- Node2&#45;&gt;Node1 -->
<g id="edge1" class="edge"><title>Node2&#45;&gt;Node1</title>
<path fill="none" stroke="midnightblue" d="M80.5,-128.186C80.5,-119.139 80.5,-110.14 80.5,-101.667"/>
<polygon fill="none" stroke="midnightblue" points="77.0001,-128.397 80.5,-138.397 84.0001,-128.397 77.0001,-128.397"/>
</g>
<!-- Node3 -->
<g id="node3" class="node"><title>Node3</title>
<g id="a_node3"><a xlink:href="../../db/d39/class_c2_m2_1_1_simulation_1_1_simulation.html" target="_top" xlink:title=" ">
<polygon fill="white" stroke="black" points="3,-320.5 3,-553.5 158,-553.5 158,-320.5 3,-320.5"/>
<text text-anchor="start" x="11" y="-541.5" font-family="Courier New" font-size="10.00">Simulation&lt; double</text>
<text text-anchor="middle" x="80.5" y="-530.5" font-family="Courier New" font-size="10.00">[], Mesh &gt;</text>
<polyline fill="none" stroke="black" points="3,-523.5 158,-523.5 "/>
<text text-anchor="start" x="11" y="-511.5" font-family="Courier New" font-size="10.00">+ startOnAwake</text>
<text text-anchor="start" x="11" y="-500.5" font-family="Courier New" font-size="10.00"># mutex</text>
<text text-anchor="start" x="11" y="-489.5" font-family="Courier New" font-size="10.00">&#45; solveThread</text>
<polyline fill="none" stroke="black" points="3,-482.5 158,-482.5 "/>
<text text-anchor="start" x="11" y="-470.5" font-family="Courier New" font-size="10.00">+ GetValues()</text>
<text text-anchor="start" x="11" y="-459.5" font-family="Courier New" font-size="10.00">+ StartSimulation()</text>
<text text-anchor="start" x="11" y="-448.5" font-family="Courier New" font-size="10.00">+ StopSimulation()</text>
<text text-anchor="start" x="11" y="-437.5" font-family="Courier New" font-size="10.00">+ Awake()</text>
<text text-anchor="start" x="11" y="-426.5" font-family="Courier New" font-size="10.00">+ Start()</text>
<text text-anchor="start" x="11" y="-415.5" font-family="Courier New" font-size="10.00">+ Update()</text>
<text text-anchor="start" x="11" y="-404.5" font-family="Courier New" font-size="10.00"># BuildVisualization()</text>
<text text-anchor="start" x="11" y="-393.5" font-family="Courier New" font-size="10.00"># UpdateVisualization()</text>
<text text-anchor="start" x="11" y="-382.5" font-family="Courier New" font-size="10.00"># Solve()</text>
<text text-anchor="start" x="11" y="-371.5" font-family="Courier New" font-size="10.00"># OnAwake()</text>
<text text-anchor="start" x="11" y="-360.5" font-family="Courier New" font-size="10.00"># OnStart()</text>
<text text-anchor="start" x="11" y="-349.5" font-family="Courier New" font-size="10.00"># OnUpdate()</text>
<text text-anchor="start" x="11" y="-338.5" font-family="Courier New" font-size="10.00">&#45; OnApplicationPause()</text>
<text text-anchor="start" x="11" y="-327.5" font-family="Courier New" font-size="10.00">&#45; OnApplicationQuit()</text>
</a>
</g>
</g>
<!-- Node3&#45;&gt;Node2 -->
<g id="edge2" class="edge"><title>Node3&#45;&gt;Node2</title>
<path fill="none" stroke="midnightblue" d="M80.5,-310.15C80.5,-301.114 80.5,-292.201 80.5,-283.649"/>
<polygon fill="none" stroke="midnightblue" points="77.0001,-310.391 80.5,-320.391 84.0001,-310.391 77.0001,-310.391"/>
</g>
</g>
</svg>
