<?xml version="1.0" encoding="UTF-8" standalone="no"?>
<!DOCTYPE svg PUBLIC "-//W3C//DTD SVG 1.1//EN"
 "http://www.w3.org/Graphics/SVG/1.1/DTD/svg11.dtd">
<!-- Generated by graphviz version 2.38.0 (20140413.2041)
 -->
<!-- Title: C2M2.Utils.DebugUtils.ScreenRecorder Pages: 1 -->
<svg width="193pt" height="226pt"
 viewBox="0.00 0.00 193.00 226.00" xmlns="http://www.w3.org/2000/svg" xmlns:xlink="http://www.w3.org/1999/xlink">
<g id="graph0" class="graph" transform="scale(1 1) rotate(0) translate(4 222)">
<title>C2M2.Utils.DebugUtils.ScreenRecorder</title>
<polygon fill="white" stroke="none" points="-4,4 -4,-222 189,-222 189,4 -4,4"/>
<!-- Node1 -->
<g id="node1" class="node"><title>Node1</title>
<g id="a_node1"><a xlink:title=" ">
<polygon fill="#bfbfbf" stroke="black" points="0,-0.5 0,-123.5 185,-123.5 185,-0.5 0,-0.5"/>
<text text-anchor="start" x="8" y="-111.5" font-family="Courier New" font-size="10.00">C2M2.Utils.DebugUtils.Screen</text>
<text text-anchor="middle" x="92.5" y="-100.5" font-family="Courier New" font-size="10.00">Recorder</text>
<polyline fill="none" stroke="black" points="0,-93.5 185,-93.5 "/>
<text text-anchor="start" x="8" y="-81.5" font-family="Courier New" font-size="10.00">+ recordKey</text>
<text text-anchor="start" x="8" y="-70.5" font-family="Courier New" font-size="10.00">+ IsPressed</text>
<text text-anchor="start" x="8" y="-59.5" font-family="Courier New" font-size="10.00">&#45; screenRecorder</text>
<text text-anchor="start" x="8" y="-48.5" font-family="Courier New" font-size="10.00">&#45; recording</text>
<polyline fill="none" stroke="black" points="0,-41.5 185,-41.5 "/>
<text text-anchor="start" x="8" y="-29.5" font-family="Courier New" font-size="10.00">&#45; Awake()</text>
<text text-anchor="start" x="8" y="-18.5" font-family="Courier New" font-size="10.00">&#45; Update()</text>
<text text-anchor="start" x="8" y="-7.5" font-family="Courier New" font-size="10.00">&#45; OnApplicationQuit()</text>
</a>
</g>
</g>
<!-- Node2 -->
<g id="node2" class="node"><title>Node2</title>
<g id="a_node2"><a xlink:title=" ">
<polygon fill="white" stroke="#bfbfbf" points="45,-160.5 45,-217.5 140,-217.5 140,-160.5 45,-160.5"/>
<text text-anchor="middle" x="92.5" y="-205.5" font-family="Courier New" font-size="10.00">MonoBehaviour</text>
<polyline fill="none" stroke="#bfbfbf" points="45,-198.5 140,-198.5 "/>
<text text-anchor="middle" x="92.5" y="-186.5" font-family="Courier New" font-size="10.00"> </text>
<polyline fill="none" stroke="#bfbfbf" points="45,-179.5 140,-179.5 "/>
<text text-anchor="middle" x="92.5" y="-167.5" font-family="Courier New" font-size="10.00"> </text>
</a>
</g>
</g>
<!-- Node2&#45;&gt;Node1 -->
<g id="edge1" class="edge"><title>Node2&#45;&gt;Node1</title>
<path fill="none" stroke="midnightblue" d="M92.5,-150.099C92.5,-141.739 92.5,-132.68 92.5,-123.672"/>
<polygon fill="none" stroke="midnightblue" points="89.0001,-150.258 92.5,-160.258 96.0001,-150.258 89.0001,-150.258"/>
</g>
</g>
</svg>
