<?xml version="1.0" encoding="UTF-8" standalone="no"?>
<!DOCTYPE svg PUBLIC "-//W3C//DTD SVG 1.1//EN"
 "http://www.w3.org/Graphics/SVG/1.1/DTD/svg11.dtd">
<!-- Generated by graphviz version 2.38.0 (20140413.2041)
 -->
<!-- Title: C2M2.NeuronalDynamics.UGX.UGXReader Pages: 1 -->
<svg width="186pt" height="237pt"
 viewBox="0.00 0.00 185.50 237.00" xmlns="http://www.w3.org/2000/svg" xmlns:xlink="http://www.w3.org/1999/xlink">
<g id="graph0" class="graph" transform="scale(1 1) rotate(0) translate(4 233)">
<title>C2M2.NeuronalDynamics.UGX.UGXReader</title>
<polygon fill="white" stroke="none" points="-4,4 -4,-233 181.5,-233 181.5,4 -4,4"/>
<!-- Node1 -->
<g id="node1" class="node"><title>Node1</title>
<g id="a_node1"><a xlink:title="Simple UGX reader class">
<polygon fill="#bfbfbf" stroke="black" points="0,-0.5 0,-90.5 173,-90.5 173,-0.5 0,-0.5"/>
<text text-anchor="start" x="8" y="-78.5" font-family="Courier New" font-size="10.00">C2M2.NeuronalDynamics.UGX.</text>
<text text-anchor="middle" x="86.5" y="-67.5" font-family="Courier New" font-size="10.00">UGXReader</text>
<polyline fill="none" stroke="black" points="0,-60.5 173,-60.5 "/>
<text text-anchor="middle" x="86.5" y="-48.5" font-family="Courier New" font-size="10.00"> </text>
<polyline fill="none" stroke="black" points="0,-41.5 173,-41.5 "/>
<text text-anchor="start" x="8" y="-29.5" font-family="Courier New" font-size="10.00">+ ReadUGX()</text>
<text text-anchor="start" x="8" y="-18.5" font-family="Courier New" font-size="10.00">+ ReadUGX()</text>
<text text-anchor="start" x="8" y="-7.5" font-family="Courier New" font-size="10.00">+ ReadUGX()</text>
</a>
</g>
</g>
<!-- Node2 -->
<g id="node2" class="node"><title>Node2</title>
<g id="a_node2"><a xlink:title=" ">
<polygon fill="white" stroke="#bfbfbf" points="60,-171.5 60,-228.5 113,-228.5 113,-171.5 60,-171.5"/>
<text text-anchor="middle" x="86.5" y="-216.5" font-family="Courier New" font-size="10.00">static</text>
<polyline fill="none" stroke="#bfbfbf" points="60,-209.5 113,-209.5 "/>
<text text-anchor="middle" x="86.5" y="-197.5" font-family="Courier New" font-size="10.00"> </text>
<polyline fill="none" stroke="#bfbfbf" points="60,-190.5 113,-190.5 "/>
<text text-anchor="middle" x="86.5" y="-178.5" font-family="Courier New" font-size="10.00"> </text>
</a>
</g>
</g>
<!-- Node2&#45;&gt;Node1 -->
<g id="edge1" class="edge"><title>Node2&#45;&gt;Node1</title>
<path fill="none" stroke="#404040" d="M86.5,-171.383C86.5,-152.321 86.5,-126.299 86.5,-102.942"/>
<polygon fill="none" stroke="#404040" points="86.5001,-102.662 82.5,-96.6621 86.5,-90.6621 90.5,-96.6621 86.5001,-102.662"/>
<text text-anchor="middle" x="132" y="-145" font-family="Courier New" font-size="10.00"> +Validate</text>
<text text-anchor="middle" x="132" y="-134" font-family="Courier New" font-size="10.00">&#45;MAPPING_FIELDS</text>
<text text-anchor="middle" x="132" y="-123" font-family="Courier New" font-size="10.00">&#45;XSD_SCHEMA</text>
<text text-anchor="middle" x="132" y="-112" font-family="Courier New" font-size="10.00">&#45;UGX_EXTENSION</text>
</g>
</g>
</svg>
