<?xml version="1.0" encoding="UTF-8" standalone="no"?>
<!DOCTYPE svg PUBLIC "-//W3C//DTD SVG 1.1//EN"
 "http://www.w3.org/Graphics/SVG/1.1/DTD/svg11.dtd">
<!-- Generated by graphviz version 2.46.0 (20210118.1747)
 -->
<!-- Title: C2M2.NeuronalDynamics.Visualization.Neuron1DMapFileReader Pages: 1 -->
<svg width="241pt" height="204pt"
 viewBox="0.00 0.00 241.00 204.00" xmlns="http://www.w3.org/2000/svg" xmlns:xlink="http://www.w3.org/1999/xlink">
<g id="graph0" class="graph" transform="scale(1 1) rotate(0) translate(4 200)">
<title>C2M2.NeuronalDynamics.Visualization.Neuron1DMapFileReader</title>
<polygon fill="white" stroke="transparent" points="-4,4 -4,-200 237,-200 237,4 -4,4"/>
<!-- Node1 -->
<g id="node1" class="node">
<title>Node1</title>
<g id="a_node1"><a xlink:title=" ">
<polygon fill="#bfbfbf" stroke="black" points="0,-0.5 0,-68.5 233,-68.5 233,-0.5 0,-0.5"/>
<text text-anchor="start" x="8" y="-56.5" font-family="Courier New" font-size="10.00">C2M2.NeuronalDynamics.Visualization.</text>
<text text-anchor="middle" x="116.5" y="-45.5" font-family="Courier New" font-size="10.00">Neuron1DMapFileReader</text>
<polyline fill="none" stroke="black" points="0,-38.5 233,-38.5 "/>
<text text-anchor="middle" x="116.5" y="-26.5" font-family="Courier New" font-size="10.00"> </text>
<polyline fill="none" stroke="black" points="0,-19.5 233,-19.5 "/>
<text text-anchor="start" x="8" y="-7.5" font-family="Courier New" font-size="10.00">+ ReadMapFile()</text>
</a>
</g>
</g>
<!-- Node2 -->
<g id="node2" class="node">
<title>Node2</title>
<g id="a_node2"><a xlink:title=" ">
<polygon fill="white" stroke="#bfbfbf" points="90,-138.5 90,-195.5 143,-195.5 143,-138.5 90,-138.5"/>
<text text-anchor="middle" x="116.5" y="-183.5" font-family="Courier New" font-size="10.00">static</text>
<polyline fill="none" stroke="#bfbfbf" points="90,-176.5 143,-176.5 "/>
<text text-anchor="middle" x="116.5" y="-164.5" font-family="Courier New" font-size="10.00"> </text>
<polyline fill="none" stroke="#bfbfbf" points="90,-157.5 143,-157.5 "/>
<text text-anchor="middle" x="116.5" y="-145.5" font-family="Courier New" font-size="10.00"> </text>
</a>
</g>
</g>
<!-- Node2&#45;&gt;Node1 -->
<g id="edge1" class="edge">
<title>Node2&#45;&gt;Node1</title>
<path fill="none" stroke="#404040" d="M116.5,-138.32C116.5,-121.63 116.5,-99.96 116.5,-80.82"/>
<polygon fill="none" stroke="#404040" points="116.5,-80.68 112.5,-74.68 116.5,-68.68 120.5,-74.68 116.5,-80.68"/>
<text text-anchor="middle" x="168" y="-112" font-family="Courier New" font-size="10.00"> &#45;newSectionToken</text>
<text text-anchor="middle" x="168" y="-101" font-family="Courier New" font-size="10.00">&#45;objToken</text>
<text text-anchor="middle" x="168" y="-90" font-family="Courier New" font-size="10.00">&#45;swcToken</text>
</g>
</g>
</svg>
