<?xml version="1.0" encoding="UTF-8" standalone="no"?>
<!DOCTYPE svg PUBLIC "-//W3C//DTD SVG 1.1//EN"
 "http://www.w3.org/Graphics/SVG/1.1/DTD/svg11.dtd">
<!-- Generated by graphviz version 2.38.0 (20140413.2041)
 -->
<!-- Title: C2M2.Utils.Timer Pages: 1 -->
<svg width="133pt" height="198pt"
 viewBox="0.00 0.00 133.00 198.00" xmlns="http://www.w3.org/2000/svg" xmlns:xlink="http://www.w3.org/1999/xlink">
<g id="graph0" class="graph" transform="scale(1 1) rotate(0) translate(4 194)">
<title>C2M2.Utils.Timer</title>
<polygon fill="white" stroke="none" points="-4,4 -4,-194 129,-194 129,4 -4,4"/>
<!-- Node1 -->
<g id="node1" class="node"><title>Node1</title>
<g id="a_node1"><a xlink:title=" ">
<polygon fill="#bfbfbf" stroke="black" points="0,-0.5 0,-189.5 125,-189.5 125,-0.5 0,-0.5"/>
<text text-anchor="middle" x="62.5" y="-177.5" font-family="Courier New" font-size="10.00">C2M2.Utils.Timer</text>
<polyline fill="none" stroke="black" points="0,-170.5 125,-170.5 "/>
<text text-anchor="start" x="8" y="-158.5" font-family="Courier New" font-size="10.00">+ timerNodes</text>
<text text-anchor="start" x="8" y="-147.5" font-family="Courier New" font-size="10.00">&#45; t0</text>
<text text-anchor="start" x="8" y="-136.5" font-family="Courier New" font-size="10.00">&#45; t1</text>
<text text-anchor="start" x="8" y="-125.5" font-family="Courier New" font-size="10.00">&#45; started</text>
<text text-anchor="start" x="8" y="-114.5" font-family="Courier New" font-size="10.00">&#45; stopwatch</text>
<polyline fill="none" stroke="black" points="0,-107.5 125,-107.5 "/>
<text text-anchor="start" x="8" y="-95.5" font-family="Courier New" font-size="10.00">+ Timer()</text>
<text text-anchor="start" x="8" y="-84.5" font-family="Courier New" font-size="10.00">+ Timer()</text>
<text text-anchor="start" x="8" y="-73.5" font-family="Courier New" font-size="10.00">+ StartTimer()</text>
<text text-anchor="start" x="8" y="-62.5" font-family="Courier New" font-size="10.00">+ StopTimer()</text>
<text text-anchor="start" x="8" y="-51.5" font-family="Courier New" font-size="10.00">+ StopTimer()</text>
<text text-anchor="start" x="8" y="-40.5" font-family="Courier New" font-size="10.00">+ ExportCSV_path()</text>
<text text-anchor="start" x="8" y="-29.5" font-family="Courier New" font-size="10.00">+ ExportCSV()</text>
<text text-anchor="start" x="8" y="-18.5" font-family="Courier New" font-size="10.00">+ ToString()</text>
<text text-anchor="start" x="8" y="-7.5" font-family="Courier New" font-size="10.00">+ ToStringPlus()</text>
</a>
</g>
</g>
</g>
</svg>
