<?xml version="1.0" encoding="UTF-8" standalone="no"?>
<!DOCTYPE svg PUBLIC "-//W3C//DTD SVG 1.1//EN"
 "http://www.w3.org/Graphics/SVG/1.1/DTD/svg11.dtd">
<!-- Generated by graphviz version 2.38.0 (20140413.2041)
 -->
<!-- Title: C2M2.NeuronalDynamics.UGX.Attachment Pages: 1 -->
<svg width="181pt" height="182pt"
 viewBox="0.00 0.00 181.00 182.00" xmlns="http://www.w3.org/2000/svg" xmlns:xlink="http://www.w3.org/1999/xlink">
<g id="graph0" class="graph" transform="scale(1 1) rotate(0) translate(4 178)">
<title>C2M2.NeuronalDynamics.UGX.Attachment</title>
<polygon fill="white" stroke="none" points="-4,4 -4,-178 177,-178 177,4 -4,4"/>
<!-- Node1 -->
<g id="node1" class="node"><title>Node1</title>
<g id="a_node1"><a xlink:title="Marker interface for attachments">
<polygon fill="#bfbfbf" stroke="black" points="0,-105.5 0,-173.5 173,-173.5 173,-105.5 0,-105.5"/>
<text text-anchor="start" x="8" y="-161.5" font-family="Courier New" font-size="10.00">C2M2.NeuronalDynamics.UGX.</text>
<text text-anchor="middle" x="86.5" y="-150.5" font-family="Courier New" font-size="10.00">Attachment</text>
<polyline fill="none" stroke="black" points="0,-143.5 173,-143.5 "/>
<text text-anchor="middle" x="86.5" y="-131.5" font-family="Courier New" font-size="10.00"> </text>
<polyline fill="none" stroke="black" points="0,-124.5 173,-124.5 "/>
<text text-anchor="middle" x="86.5" y="-112.5" font-family="Courier New" font-size="10.00"> </text>
</a>
</g>
</g>
<!-- Node2 -->
<g id="node2" class="node"><title>Node2</title>
<g id="a_node2"><a xlink:href="../../df/d7a/class_c2_m2_1_1_neuronal_dynamics_1_1_u_g_x_1_1_i_attachment.html" target="_top" xlink:title="Abstract base class for all attachments providing common functionality">
<polygon fill="white" stroke="black" points="0,-0.5 0,-68.5 173,-68.5 173,-0.5 0,-0.5"/>
<text text-anchor="start" x="8" y="-56.5" font-family="Courier New" font-size="10.00">C2M2.NeuronalDynamics.UGX.</text>
<text text-anchor="middle" x="86.5" y="-45.5" font-family="Courier New" font-size="10.00">IAttachment&lt; T &gt;</text>
<polyline fill="none" stroke="black" points="0,-38.5 173,-38.5 "/>
<text text-anchor="start" x="8" y="-26.5" font-family="Courier New" font-size="10.00">+ Data</text>
<polyline fill="none" stroke="black" points="0,-19.5 173,-19.5 "/>
<text text-anchor="start" x="8" y="-7.5" font-family="Courier New" font-size="10.00">+ Clone()</text>
</a>
</g>
</g>
<!-- Node1&#45;&gt;Node2 -->
<g id="edge1" class="edge"><title>Node1&#45;&gt;Node2</title>
<path fill="none" stroke="midnightblue" d="M86.5,-95.1362C86.5,-86.256 86.5,-77.0447 86.5,-68.5947"/>
<polygon fill="none" stroke="midnightblue" points="83.0001,-95.3432 86.5,-105.343 90.0001,-95.3432 83.0001,-95.3432"/>
</g>
</g>
</svg>
