<?xml version="1.0" encoding="UTF-8" standalone="no"?>
<!DOCTYPE svg PUBLIC "-//W3C//DTD SVG 1.1//EN"
 "http://www.w3.org/Graphics/SVG/1.1/DTD/svg11.dtd">
<!-- Generated by graphviz version 2.38.0 (20140413.2041)
 -->
<!-- Title: C2M2.Interaction.Signaling.MouseEventSignaler Pages: 1 -->
<svg width="193pt" height="700pt"
 viewBox="0.00 0.00 193.00 700.00" xmlns="http://www.w3.org/2000/svg" xmlns:xlink="http://www.w3.org/1999/xlink">
<g id="graph0" class="graph" transform="scale(1 1) rotate(0) translate(4 696)">
<title>C2M2.Interaction.Signaling.MouseEventSignaler</title>
<polygon fill="white" stroke="none" points="-4,4 -4,-696 189,-696 189,4 -4,4"/>
<!-- Node1 -->
<g id="node1" class="node"><title>Node1</title>
<g id="a_node1"><a xlink:title=" ">
<polygon fill="#bfbfbf" stroke="black" points="0,-0.5 0,-178.5 185,-178.5 185,-0.5 0,-0.5"/>
<text text-anchor="start" x="8" y="-166.5" font-family="Courier New" font-size="10.00">C2M2.Interaction.Signaling.</text>
<text text-anchor="middle" x="92.5" y="-155.5" font-family="Courier New" font-size="10.00">MouseEventSignaler</text>
<polyline fill="none" stroke="black" points="0,-148.5 185,-148.5 "/>
<text text-anchor="start" x="8" y="-136.5" font-family="Courier New" font-size="10.00">+ grabKeys</text>
<text text-anchor="start" x="8" y="-125.5" font-family="Courier New" font-size="10.00">&#45; grabTransform</text>
<text text-anchor="start" x="8" y="-114.5" font-family="Courier New" font-size="10.00">&#45; grabber</text>
<text text-anchor="start" x="8" y="-103.5" font-family="Courier New" font-size="10.00">&#45; grabVolume</text>
<polyline fill="none" stroke="black" points="0,-96.5 185,-96.5 "/>
<text text-anchor="start" x="8" y="-84.5" font-family="Courier New" font-size="10.00"># OnAwake()</text>
<text text-anchor="start" x="8" y="-73.5" font-family="Courier New" font-size="10.00"># OnStart()</text>
<text text-anchor="start" x="8" y="-62.5" font-family="Courier New" font-size="10.00"># BeginRaycastingCondition()</text>
<text text-anchor="start" x="8" y="-51.5" font-family="Courier New" font-size="10.00"># RaycastingMethod()</text>
<text text-anchor="start" x="8" y="-40.5" font-family="Courier New" font-size="10.00"># ChildsPressCondition()</text>
<text text-anchor="start" x="8" y="-29.5" font-family="Courier New" font-size="10.00"># OnPressSub()</text>
<text text-anchor="start" x="8" y="-18.5" font-family="Courier New" font-size="10.00"># OnHoldPressSub()</text>
<text text-anchor="start" x="8" y="-7.5" font-family="Courier New" font-size="10.00"># OnEndPressSub()</text>
</a>
</g>
</g>
<!-- Node2 -->
<g id="node2" class="node"><title>Node2</title>
<g id="a_node2"><a xlink:href="../../d6/d2d/class_c2_m2_1_1_interaction_1_1_signaling_1_1_raycast_event_signaler.html" target="_top" xlink:title=" ">
<polygon fill="white" stroke="black" points="0,-215.5 0,-470.5 185,-470.5 185,-215.5 0,-215.5"/>
<text text-anchor="middle" x="92.5" y="-458.5" font-family="Courier New" font-size="10.00">RaycastEventSignaler</text>
<polyline fill="none" stroke="black" points="0,-451.5 185,-451.5 "/>
<text text-anchor="start" x="8" y="-439.5" font-family="Courier New" font-size="10.00">+ rightHand</text>
<text text-anchor="start" x="8" y="-428.5" font-family="Courier New" font-size="10.00">+ layerMask</text>
<text text-anchor="start" x="8" y="-417.5" font-family="Courier New" font-size="10.00">+ maxRaycastDistance</text>
<text text-anchor="start" x="8" y="-406.5" font-family="Courier New" font-size="10.00">&#45; activeEvent</text>
<text text-anchor="start" x="8" y="-395.5" font-family="Courier New" font-size="10.00">&#45; lastHit</text>
<polyline fill="none" stroke="black" points="0,-388.5 185,-388.5 "/>
<text text-anchor="start" x="8" y="-376.5" font-family="Courier New" font-size="10.00"># OnAwake()</text>
<text text-anchor="start" x="8" y="-365.5" font-family="Courier New" font-size="10.00"># Awake()</text>
<text text-anchor="start" x="8" y="-354.5" font-family="Courier New" font-size="10.00"># OnStart()</text>
<text text-anchor="start" x="8" y="-343.5" font-family="Courier New" font-size="10.00"># OnPress()</text>
<text text-anchor="start" x="8" y="-332.5" font-family="Courier New" font-size="10.00"># OnHoldPress()</text>
<text text-anchor="start" x="8" y="-321.5" font-family="Courier New" font-size="10.00"># OnEndPress()</text>
<text text-anchor="start" x="8" y="-310.5" font-family="Courier New" font-size="10.00"># OnPressSub()</text>
<text text-anchor="start" x="8" y="-299.5" font-family="Courier New" font-size="10.00"># OnHoldPressSub()</text>
<text text-anchor="start" x="8" y="-288.5" font-family="Courier New" font-size="10.00"># OnEndPressSub()</text>
<text text-anchor="start" x="8" y="-277.5" font-family="Courier New" font-size="10.00"># RaycastingMethod()</text>
<text text-anchor="start" x="8" y="-266.5" font-family="Courier New" font-size="10.00"># BeginRaycastingCondition()</text>
<text text-anchor="start" x="8" y="-255.5" font-family="Courier New" font-size="10.00"># ChildsPressCondition()</text>
<text text-anchor="start" x="8" y="-244.5" font-family="Courier New" font-size="10.00">&#45; Start()</text>
<text text-anchor="start" x="8" y="-233.5" font-family="Courier New" font-size="10.00">&#45; FixedUpdate()</text>
<text text-anchor="start" x="8" y="-222.5" font-family="Courier New" font-size="10.00">&#45; FindRaycastTrigger()</text>
</a>
</g>
</g>
<!-- Node2&#45;&gt;Node1 -->
<g id="edge1" class="edge"><title>Node2&#45;&gt;Node1</title>
<path fill="none" stroke="midnightblue" d="M92.5,-205.043C92.5,-196.116 92.5,-187.265 92.5,-178.672"/>
<polygon fill="none" stroke="midnightblue" points="89.0001,-205.145 92.5,-215.145 96.0001,-205.145 89.0001,-205.145"/>
</g>
<!-- Node3 -->
<g id="node3" class="node"><title>Node3</title>
<g id="a_node3"><a xlink:href="../../d6/d4b/class_c2_m2_1_1_interaction_1_1_signaling_1_1_press_event_signaler.html" target="_top" xlink:title="Send press, holdPress, and endPress events based on set values of Pressed and RaycastTriggerManager">
<polygon fill="white" stroke="black" points="30,-507.5 30,-597.5 155,-597.5 155,-507.5 30,-507.5"/>
<text text-anchor="middle" x="92.5" y="-585.5" font-family="Courier New" font-size="10.00">PressEventSignaler</text>
<polyline fill="none" stroke="black" points="30,-578.5 155,-578.5 "/>
<text text-anchor="start" x="38" y="-566.5" font-family="Courier New" font-size="10.00">+ Pressed</text>
<text text-anchor="start" x="38" y="-555.5" font-family="Courier New" font-size="10.00">&#45; pressedPrevFrame</text>
<polyline fill="none" stroke="black" points="30,-548.5 155,-548.5 "/>
<text text-anchor="start" x="38" y="-536.5" font-family="Courier New" font-size="10.00"># OnPress()</text>
<text text-anchor="start" x="38" y="-525.5" font-family="Courier New" font-size="10.00"># OnHoldPress()</text>
<text text-anchor="start" x="38" y="-514.5" font-family="Courier New" font-size="10.00"># OnEndPress()</text>
</a>
</g>
</g>
<!-- Node3&#45;&gt;Node2 -->
<g id="edge2" class="edge"><title>Node3&#45;&gt;Node2</title>
<path fill="none" stroke="midnightblue" d="M92.5,-497.467C92.5,-488.992 92.5,-479.938 92.5,-470.625"/>
<polygon fill="none" stroke="midnightblue" points="89.0001,-497.495 92.5,-507.495 96.0001,-497.495 89.0001,-497.495"/>
</g>
<!-- Node4 -->
<g id="node4" class="node"><title>Node4</title>
<g id="a_node4"><a xlink:title=" ">
<polygon fill="white" stroke="#bfbfbf" points="45,-634.5 45,-691.5 140,-691.5 140,-634.5 45,-634.5"/>
<text text-anchor="middle" x="92.5" y="-679.5" font-family="Courier New" font-size="10.00">MonoBehaviour</text>
<polyline fill="none" stroke="#bfbfbf" points="45,-672.5 140,-672.5 "/>
<text text-anchor="middle" x="92.5" y="-660.5" font-family="Courier New" font-size="10.00"> </text>
<polyline fill="none" stroke="#bfbfbf" points="45,-653.5 140,-653.5 "/>
<text text-anchor="middle" x="92.5" y="-641.5" font-family="Courier New" font-size="10.00"> </text>
</a>
</g>
</g>
<!-- Node4&#45;&gt;Node3 -->
<g id="edge3" class="edge"><title>Node4&#45;&gt;Node3</title>
<path fill="none" stroke="midnightblue" d="M92.5,-624.214C92.5,-615.609 92.5,-606.394 92.5,-597.554"/>
<polygon fill="none" stroke="midnightblue" points="89.0001,-624.34 92.5,-634.34 96.0001,-624.34 89.0001,-624.34"/>
</g>
</g>
</svg>
