<?xml version="1.0" encoding="UTF-8" standalone="no"?>
<!DOCTYPE svg PUBLIC "-//W3C//DTD SVG 1.1//EN"
 "http://www.w3.org/Graphics/SVG/1.1/DTD/svg11.dtd">
<!-- Generated by graphviz version 2.38.0 (20140413.2041)
 -->
<!-- Title: Graphical Class Hierarchy Pages: 1 -->
<svg width="390pt" height="186pt"
 viewBox="0.00 0.00 390.00 186.00" xmlns="http://www.w3.org/2000/svg" xmlns:xlink="http://www.w3.org/1999/xlink">
<g id="graph0" class="graph" transform="scale(1 1) rotate(0) translate(4 182)">
<title>Graphical Class Hierarchy</title>
<polygon fill="white" stroke="none" points="-4,4 -4,-182 386,-182 386,4 -4,4"/>
<!-- Node0 -->
<g id="node1" class="node"><title>Node0</title>
<g id="a_node1"><a xlink:href="da/d2a/interface_c2_m2_1_1_neuronal_dynamics_1_1_u_g_x_1_1_i_attachment_data.html" target="_top" xlink:title="Marker interface for attachment data">
<polygon fill="white" stroke="black" points="0,-73.5 0,-103.5 173,-103.5 173,-73.5 0,-73.5"/>
<text text-anchor="start" x="8" y="-91.5" font-family="Courier New" font-size="10.00">C2M2.NeuronalDynamics.UGX.</text>
<text text-anchor="middle" x="86.5" y="-80.5" font-family="Courier New" font-size="10.00">IAttachmentData</text>
</a>
</g>
</g>
<!-- Node1 -->
<g id="node2" class="node"><title>Node1</title>
<g id="a_node2"><a xlink:href="de/da8/struct_c2_m2_1_1_neuronal_dynamics_1_1_u_g_x_1_1_diameter_data.html" target="_top" xlink:title="Data for diameter attachment Used to store diameters during reading in a grid">
<polygon fill="white" stroke="black" points="209,-147.5 209,-177.5 382,-177.5 382,-147.5 209,-147.5"/>
<text text-anchor="start" x="217" y="-165.5" font-family="Courier New" font-size="10.00">C2M2.NeuronalDynamics.UGX.</text>
<text text-anchor="middle" x="295.5" y="-154.5" font-family="Courier New" font-size="10.00">DiameterData</text>
</a>
</g>
</g>
<!-- Node0&#45;&gt;Node1 -->
<g id="edge1" class="edge"><title>Node0&#45;&gt;Node1</title>
<path fill="none" stroke="midnightblue" d="M130.612,-107.68C153.628,-117.552 182.584,-129.392 209,-138.5 218.037,-141.616 227.711,-144.63 237.185,-147.409"/>
<polygon fill="midnightblue" stroke="midnightblue" points="131.704,-104.339 121.136,-103.583 128.926,-110.764 131.704,-104.339"/>
</g>
<!-- Node2 -->
<g id="node3" class="node"><title>Node2</title>
<g id="a_node3"><a xlink:href="d2/dae/struct_c2_m2_1_1_neuronal_dynamics_1_1_u_g_x_1_1_mapping_data.html" target="_top" xlink:title="Data for mapping attachment Used to read in mapping data which maps between 1d and 2d vertices">
<polygon fill="white" stroke="black" points="209,-98.5 209,-128.5 382,-128.5 382,-98.5 209,-98.5"/>
<text text-anchor="start" x="217" y="-116.5" font-family="Courier New" font-size="10.00">C2M2.NeuronalDynamics.UGX.</text>
<text text-anchor="middle" x="295.5" y="-105.5" font-family="Courier New" font-size="10.00">MappingData</text>
</a>
</g>
</g>
<!-- Node0&#45;&gt;Node2 -->
<g id="edge2" class="edge"><title>Node0&#45;&gt;Node2</title>
<path fill="none" stroke="midnightblue" d="M183.198,-100.058C191.764,-101.092 200.402,-102.136 208.875,-103.159"/>
<polygon fill="midnightblue" stroke="midnightblue" points="183.537,-96.5733 173.189,-98.8489 182.697,-103.523 183.537,-96.5733"/>
</g>
<!-- Node3 -->
<g id="node4" class="node"><title>Node3</title>
<g id="a_node4"><a xlink:href="df/d3d/struct_c2_m2_1_1_neuronal_dynamics_1_1_u_g_x_1_1_normal_data.html" target="_top" xlink:title="Data for normals of grid Used to store normals during reading in a grid">
<polygon fill="white" stroke="black" points="209,-49.5 209,-79.5 382,-79.5 382,-49.5 209,-49.5"/>
<text text-anchor="start" x="217" y="-67.5" font-family="Courier New" font-size="10.00">C2M2.NeuronalDynamics.UGX.</text>
<text text-anchor="middle" x="295.5" y="-56.5" font-family="Courier New" font-size="10.00">NormalData</text>
</a>
</g>
</g>
<!-- Node0&#45;&gt;Node3 -->
<g id="edge3" class="edge"><title>Node0&#45;&gt;Node3</title>
<path fill="none" stroke="midnightblue" d="M183.198,-77.4046C191.764,-76.4114 200.402,-75.4099 208.875,-74.4275"/>
<polygon fill="midnightblue" stroke="midnightblue" points="182.719,-73.9365 173.189,-78.565 183.526,-80.89 182.719,-73.9365"/>
</g>
<!-- Node4 -->
<g id="node5" class="node"><title>Node4</title>
<g id="a_node5"><a xlink:href="dc/dea/struct_c2_m2_1_1_neuronal_dynamics_1_1_u_g_x_1_1_synapse_data.html" target="_top" xlink:title="Data for synapse attachment Used to store synapse data during reading in a grid">
<polygon fill="white" stroke="black" points="209,-0.5 209,-30.5 382,-30.5 382,-0.5 209,-0.5"/>
<text text-anchor="start" x="217" y="-18.5" font-family="Courier New" font-size="10.00">C2M2.NeuronalDynamics.UGX.</text>
<text text-anchor="middle" x="295.5" y="-7.5" font-family="Courier New" font-size="10.00">SynapseData</text>
</a>
</g>
</g>
<!-- Node0&#45;&gt;Node4 -->
<g id="edge4" class="edge"><title>Node0&#45;&gt;Node4</title>
<path fill="none" stroke="midnightblue" d="M132.462,-69.5968C155.215,-60.323 183.376,-49.287 209,-40.5 218.948,-37.0887 229.643,-33.7257 239.988,-30.6261"/>
<polygon fill="midnightblue" stroke="midnightblue" points="130.988,-66.4182 123.064,-73.4517 133.645,-72.8945 130.988,-66.4182"/>
</g>
</g>
</svg>
