<?xml version="1.0" encoding="UTF-8" standalone="no"?>
<!DOCTYPE svg PUBLIC "-//W3C//DTD SVG 1.1//EN"
 "http://www.w3.org/Graphics/SVG/1.1/DTD/svg11.dtd">
<!-- Generated by graphviz version 2.38.0 (20140413.2041)
 -->
<!-- Title: Graphical Class Hierarchy Pages: 1 -->
<svg width="390pt" height="78pt"
 viewBox="0.00 0.00 390.00 77.50" xmlns="http://www.w3.org/2000/svg" xmlns:xlink="http://www.w3.org/1999/xlink">
<g id="graph0" class="graph" transform="scale(1 1) rotate(0) translate(4 73.5)">
<title>Graphical Class Hierarchy</title>
<polygon fill="white" stroke="none" points="-4,4 -4,-73.5 386,-73.5 386,4 -4,4"/>
<!-- Node187 -->
<g id="node1" class="node"><title>Node187</title>
<g id="a_node1"><a xlink:href="de/df4/interface_c2_m2_1_1_neuronal_dynamics_1_1_u_g_x_1_1_attachment.html" target="_top" xlink:title="Marker interface for attachments">
<polygon fill="white" stroke="black" points="0,-39 0,-69 173,-69 173,-39 0,-39"/>
<text text-anchor="start" x="8" y="-57" font-family="Courier New" font-size="10.00">C2M2.NeuronalDynamics.UGX.</text>
<text text-anchor="middle" x="86.5" y="-46" font-family="Courier New" font-size="10.00">Attachment</text>
</a>
</g>
</g>
<!-- Node0 -->
<g id="node2" class="node"><title>Node0</title>
<g id="a_node2"><a xlink:href="df/d7a/class_c2_m2_1_1_neuronal_dynamics_1_1_u_g_x_1_1_i_attachment.html" target="_top" xlink:title="Abstract base class for all attachments providing common functionality">
<polygon fill="white" stroke="black" points="209,-17 209,-47 382,-47 382,-17 209,-17"/>
<text text-anchor="start" x="217" y="-35" font-family="Courier New" font-size="10.00">C2M2.NeuronalDynamics.UGX.</text>
<text text-anchor="middle" x="295.5" y="-24" font-family="Courier New" font-size="10.00">IAttachment&lt; T &gt;</text>
</a>
</g>
</g>
<!-- Node187&#45;&gt;Node0 -->
<g id="edge1" class="edge"><title>Node187&#45;&gt;Node0</title>
<path fill="none" stroke="midnightblue" d="M183.198,-43.8292C191.764,-42.9188 200.402,-42.0007 208.875,-41.1002"/>
<polygon fill="midnightblue" stroke="midnightblue" points="182.763,-40.3556 173.189,-44.893 183.503,-47.3164 182.763,-40.3556"/>
</g>
<!-- Node159 -->
<g id="node3" class="node"><title>Node159</title>
<g id="a_node3"><a xlink:title=" ">
<polygon fill="white" stroke="#bfbfbf" points="48,-0.5 48,-19.5 125,-19.5 125,-0.5 48,-0.5"/>
<text text-anchor="middle" x="86.5" y="-7.5" font-family="Courier New" font-size="10.00">ICloneable</text>
</a>
</g>
</g>
<!-- Node159&#45;&gt;Node0 -->
<g id="edge2" class="edge"><title>Node159&#45;&gt;Node0</title>
<path fill="none" stroke="midnightblue" d="M135.441,-15.0952C157.224,-17.4102 183.673,-20.2212 208.699,-22.881"/>
<polygon fill="midnightblue" stroke="midnightblue" points="135.781,-11.6117 125.467,-14.0351 135.041,-18.5725 135.781,-11.6117"/>
</g>
</g>
</svg>
