<?xml version="1.0" encoding="UTF-8" standalone="no"?>
<!DOCTYPE svg PUBLIC "-//W3C//DTD SVG 1.1//EN"
 "http://www.w3.org/Graphics/SVG/1.1/DTD/svg11.dtd">
<!-- Generated by graphviz version 2.46.0 (20210118.1747)
 -->
<!-- Title: Graphical Class Hierarchy Pages: 1 -->
<svg width="946pt" height="88pt"
 viewBox="0.00 0.00 946.00 88.00" xmlns="http://www.w3.org/2000/svg" xmlns:xlink="http://www.w3.org/1999/xlink">
<g id="graph0" class="graph" transform="scale(1 1) rotate(0) translate(4 84)">
<title>Graphical Class Hierarchy</title>
<polygon fill="white" stroke="transparent" points="-4,4 -4,-84 942,-84 942,4 -4,4"/>
<!-- Node0 -->
<g id="node1" class="node">
<title>Node0</title>
<g id="a_node1"><a xlink:href="db/d39/class_c2_m2_1_1_simulation_1_1_simulation.html" target="_top" xlink:title=" ">
<polygon fill="white" stroke="black" points="0,-19 0,-60 203,-60 203,-19 0,-19"/>
<text text-anchor="start" x="8" y="-48" font-family="Courier New" font-size="10.00">C2M2.Simulation.Simulation</text>
<text text-anchor="start" x="8" y="-37" font-family="Courier New" font-size="10.00">&lt; double[], Mesh, VRRaycastable</text>
<text text-anchor="middle" x="101.5" y="-26" font-family="Courier New" font-size="10.00">Mesh, VRGrabbableMesh &gt;</text>
</a>
</g>
</g>
<!-- Node1 -->
<g id="node2" class="node">
<title>Node1</title>
<g id="a_node2"><a xlink:href="d6/d2d/class_c2_m2_1_1_simulation_1_1_mesh_simulation.html" target="_top" xlink:title="Simulation of type double[] for visualizing scalar fields on mesh surfaces">
<polygon fill="white" stroke="black" points="239,-30 239,-49 436,-49 436,-30 239,-30"/>
<text text-anchor="middle" x="337.5" y="-37" font-family="Courier New" font-size="10.00">C2M2.Simulation.MeshSimulation</text>
</a>
</g>
</g>
<!-- Node0&#45;&gt;Node1 -->
<g id="edge1" class="edge">
<title>Node0&#45;&gt;Node1</title>
<path fill="none" stroke="midnightblue" d="M213.17,-39.5C221.78,-39.5 230.44,-39.5 238.96,-39.5"/>
<polygon fill="midnightblue" stroke="midnightblue" points="213.1,-36 203.1,-39.5 213.1,-43 213.1,-36"/>
</g>
<!-- Node2 -->
<g id="node3" class="node">
<title>Node2</title>
<g id="a_node3"><a xlink:href="d7/d92/class_c2_m2_1_1_neuronal_dynamics_1_1_simulation_1_1_n_d_simulation.html" target="_top" xlink:title="Provide an interface for 1D neuron&#45;surface simulations to be visualized and interacted with">
<polygon fill="white" stroke="black" points="472,-49.5 472,-79.5 687,-79.5 687,-49.5 472,-49.5"/>
<text text-anchor="start" x="480" y="-67.5" font-family="Courier New" font-size="10.00">C2M2.NeuronalDynamics.Simulation.</text>
<text text-anchor="middle" x="579.5" y="-56.5" font-family="Courier New" font-size="10.00">NDSimulation</text>
</a>
</g>
</g>
<!-- Node1&#45;&gt;Node2 -->
<g id="edge2" class="edge">
<title>Node1&#45;&gt;Node2</title>
<path fill="none" stroke="midnightblue" d="M439.91,-50.06C450.41,-51.16 461.1,-52.27 471.66,-53.37"/>
<polygon fill="midnightblue" stroke="midnightblue" points="440.23,-46.58 429.92,-49.02 439.5,-53.54 440.23,-46.58"/>
</g>
<!-- Node4 -->
<g id="node5" class="node">
<title>Node4</title>
<g id="a_node5"><a xlink:href="dd/d72/class_c2_m2_1_1_simulation_1_1_samples_1_1_combined_mesh_simulation.html" target="_top" xlink:title="Run a blank ScalarFieldSimulation using every MeshRenderer childed under this script">
<polygon fill="white" stroke="black" points="499,-0.5 499,-30.5 660,-30.5 660,-0.5 499,-0.5"/>
<text text-anchor="start" x="507" y="-18.5" font-family="Courier New" font-size="10.00">C2M2.Simulation.Samples.</text>
<text text-anchor="middle" x="579.5" y="-7.5" font-family="Courier New" font-size="10.00">CombinedMeshSimulation</text>
</a>
</g>
</g>
<!-- Node1&#45;&gt;Node4 -->
<g id="edge4" class="edge">
<title>Node1&#45;&gt;Node4</title>
<path fill="none" stroke="midnightblue" d="M443.89,-28.96C462.35,-27.12 481.27,-25.22 498.88,-23.46"/>
<polygon fill="midnightblue" stroke="midnightblue" points="443.3,-25.5 433.7,-29.98 444,-32.47 443.3,-25.5"/>
</g>
<!-- Node3 -->
<g id="node4" class="node">
<title>Node3</title>
<g id="a_node4"><a xlink:href="d2/df3/class_c2_m2_1_1_neuronal_dynamics_1_1_simulation_1_1_sparse_solver_testv1.html" target="_top" xlink:title="This is the sparse solver class for solving the Hodgkin&#45;Huxley equations for the propagation of actio...">
<polygon fill="white" stroke="black" points="723,-49.5 723,-79.5 938,-79.5 938,-49.5 723,-49.5"/>
<text text-anchor="start" x="731" y="-67.5" font-family="Courier New" font-size="10.00">C2M2.NeuronalDynamics.Simulation.</text>
<text text-anchor="middle" x="830.5" y="-56.5" font-family="Courier New" font-size="10.00">SparseSolverTestv1</text>
</a>
</g>
</g>
<!-- Node2&#45;&gt;Node3 -->
<g id="edge3" class="edge">
<title>Node2&#45;&gt;Node3</title>
<path fill="none" stroke="midnightblue" d="M697.41,-64.5C705.83,-64.5 714.29,-64.5 722.64,-64.5"/>
<polygon fill="midnightblue" stroke="midnightblue" points="697.18,-61 687.18,-64.5 697.18,-68 697.18,-61"/>
</g>
</g>
</svg>
