<?xml version="1.0" encoding="UTF-8" standalone="no"?>
<!DOCTYPE svg PUBLIC "-//W3C//DTD SVG 1.1//EN"
 "http://www.w3.org/Graphics/SVG/1.1/DTD/svg11.dtd">
<!-- Generated by graphviz version 2.46.0 (20210118.1747)
 -->
<!-- Title: Graphical Class Hierarchy Pages: 1 -->
<svg width="300pt" height="137pt"
 viewBox="0.00 0.00 300.00 137.00" xmlns="http://www.w3.org/2000/svg" xmlns:xlink="http://www.w3.org/1999/xlink">
<g id="graph0" class="graph" transform="scale(1 1) rotate(0) translate(4 133)">
<title>Graphical Class Hierarchy</title>
<polygon fill="white" stroke="transparent" points="-4,4 -4,-133 296,-133 296,4 -4,4"/>
<!-- Node196 -->
<g id="node1" class="node">
<title>Node196</title>
<g id="a_node1"><a xlink:title=" ">
<polygon fill="white" stroke="#bfbfbf" points="0,-55 0,-74 77,-74 77,-55 0,-55"/>
<text text-anchor="middle" x="38.5" y="-62" font-family="Courier New" font-size="10.00">UnityEvent</text>
</a>
</g>
</g>
<!-- Node0 -->
<g id="node2" class="node">
<title>Node0</title>
<g id="a_node2"><a xlink:href="d2/d43/class_c2_m2_1_1_interaction_1_1_raycast_press_events_1_1_raycast_hit_event.html" target="_top" xlink:title=" ">
<polygon fill="white" stroke="black" points="113,-98.5 113,-128.5 292,-128.5 292,-98.5 113,-98.5"/>
<text text-anchor="start" x="121" y="-116.5" font-family="Courier New" font-size="10.00">C2M2.Interaction.Raycast</text>
<text text-anchor="middle" x="202.5" y="-105.5" font-family="Courier New" font-size="10.00">PressEvents.RaycastHitEvent</text>
</a>
</g>
</g>
<!-- Node196&#45;&gt;Node0 -->
<g id="edge1" class="edge">
<title>Node196&#45;&gt;Node0</title>
<path fill="none" stroke="midnightblue" d="M75.79,-77.35C87.61,-81.4 100.81,-85.78 113,-89.5 122.9,-92.52 133.47,-95.56 143.75,-98.4"/>
<polygon fill="midnightblue" stroke="midnightblue" points="76.84,-74.01 66.25,-74.05 74.56,-80.63 76.84,-74.01"/>
</g>
<!-- Node198 -->
<g id="node3" class="node">
<title>Node198</title>
<g id="a_node3"><a xlink:href="da/d7b/class_c2_m2_1_1_interaction_1_1_u_i_1_1_raycast_input_field_1_1_on_change_event.html" target="_top" xlink:title=" ">
<polygon fill="white" stroke="black" points="113,-49.5 113,-79.5 292,-79.5 292,-49.5 113,-49.5"/>
<text text-anchor="start" x="121" y="-67.5" font-family="Courier New" font-size="10.00">C2M2.Interaction.UI.Raycast</text>
<text text-anchor="middle" x="202.5" y="-56.5" font-family="Courier New" font-size="10.00">InputField.OnChangeEvent</text>
</a>
</g>
</g>
<!-- Node196&#45;&gt;Node198 -->
<g id="edge2" class="edge">
<title>Node196&#45;&gt;Node198</title>
<path fill="none" stroke="midnightblue" d="M87.09,-64.5C95.25,-64.5 103.96,-64.5 112.8,-64.5"/>
<polygon fill="midnightblue" stroke="midnightblue" points="87.07,-61 77.07,-64.5 87.07,-68 87.07,-61"/>
</g>
<!-- Node199 -->
<g id="node4" class="node">
<title>Node199</title>
<g id="a_node4"><a xlink:href="d4/de5/class_c2_m2_1_1_interaction_1_1_u_i_1_1_raycast_input_field_1_1_on_submit_event.html" target="_top" xlink:title=" ">
<polygon fill="white" stroke="black" points="113,-0.5 113,-30.5 292,-30.5 292,-0.5 113,-0.5"/>
<text text-anchor="start" x="121" y="-18.5" font-family="Courier New" font-size="10.00">C2M2.Interaction.UI.Raycast</text>
<text text-anchor="middle" x="202.5" y="-7.5" font-family="Courier New" font-size="10.00">InputField.OnSubmitEvent</text>
</a>
</g>
</g>
<!-- Node196&#45;&gt;Node199 -->
<g id="edge3" class="edge">
<title>Node196&#45;&gt;Node199</title>
<path fill="none" stroke="midnightblue" d="M77.66,-51.72C89.01,-48 101.48,-44.01 113,-40.5 123.84,-37.2 135.48,-33.81 146.64,-30.63"/>
<polygon fill="midnightblue" stroke="midnightblue" points="76.44,-48.43 68.04,-54.89 78.63,-55.08 76.44,-48.43"/>
</g>
</g>
</svg>
