<?xml version="1.0" encoding="UTF-8" standalone="no"?>
<!DOCTYPE svg PUBLIC "-//W3C//DTD SVG 1.1//EN"
 "http://www.w3.org/Graphics/SVG/1.1/DTD/svg11.dtd">
<!-- Generated by graphviz version 2.38.0 (20140413.2041)
 -->
<!-- Title: Graphical Class Hierarchy Pages: 1 -->
<svg width="474pt" height="39pt"
 viewBox="0.00 0.00 474.00 39.00" xmlns="http://www.w3.org/2000/svg" xmlns:xlink="http://www.w3.org/1999/xlink">
<g id="graph0" class="graph" transform="scale(1 1) rotate(0) translate(4 35)">
<title>Graphical Class Hierarchy</title>
<polygon fill="white" stroke="none" points="-4,4 -4,-35 470,-35 470,4 -4,4"/>
<!-- Node0 -->
<g id="node1" class="node"><title>Node0</title>
<g id="a_node1"><a xlink:href="d5/d84/class_c2_m2_1_1_interaction_1_1_v_r_1_1_v_r_raycastable.html" target="_top" xlink:title=" ">
<polygon fill="white" stroke="black" points="0,-0.5 0,-30.5 215,-30.5 215,-0.5 0,-0.5"/>
<text text-anchor="start" x="8" y="-18.5" font-family="Courier New" font-size="10.00">C2M2.Interaction.VR.VRRaycastable</text>
<text text-anchor="middle" x="107.5" y="-7.5" font-family="Courier New" font-size="10.00">&lt; Collider[]&gt;</text>
</a>
</g>
</g>
<!-- Node1 -->
<g id="node2" class="node"><title>Node1</title>
<g id="a_node2"><a xlink:href="d2/dd7/class_c2_m2_1_1_interaction_1_1_v_r_1_1_v_r_raycastable_colliders.html" target="_top" xlink:title=" ">
<polygon fill="white" stroke="black" points="251,-0.5 251,-30.5 466,-30.5 466,-0.5 251,-0.5"/>
<text text-anchor="start" x="259" y="-18.5" font-family="Courier New" font-size="10.00">C2M2.Interaction.VR.VRRaycastable</text>
<text text-anchor="middle" x="358.5" y="-7.5" font-family="Courier New" font-size="10.00">Colliders</text>
</a>
</g>
</g>
<!-- Node0&#45;&gt;Node1 -->
<g id="edge1" class="edge"><title>Node0&#45;&gt;Node1</title>
<path fill="none" stroke="midnightblue" d="M225.413,-15.5C233.829,-15.5 242.29,-15.5 250.644,-15.5"/>
<polygon fill="midnightblue" stroke="midnightblue" points="225.182,-12.0001 215.182,-15.5 225.182,-19.0001 225.182,-12.0001"/>
</g>
</g>
</svg>
