<?xml version="1.0" encoding="UTF-8" standalone="no"?>
<!DOCTYPE svg PUBLIC "-//W3C//DTD SVG 1.1//EN"
 "http://www.w3.org/Graphics/SVG/1.1/DTD/svg11.dtd">
<!-- Generated by graphviz version 2.38.0 (20140413.2041)
 -->
<!-- Title: Graphical Class Hierarchy Pages: 1 -->
<svg width="306pt" height="333pt"
 viewBox="0.00 0.00 306.00 333.00" xmlns="http://www.w3.org/2000/svg" xmlns:xlink="http://www.w3.org/1999/xlink">
<g id="graph0" class="graph" transform="scale(1 1) rotate(0) translate(4 329)">
<title>Graphical Class Hierarchy</title>
<polygon fill="white" stroke="none" points="-4,4 -4,-329 302,-329 302,4 -4,4"/>
<!-- Node177 -->
<g id="node1" class="node"><title>Node177</title>
<g id="a_node1"><a xlink:title=" ">
<polygon fill="white" stroke="#bfbfbf" points="0,-153 0,-172 71,-172 71,-153 0,-153"/>
<text text-anchor="middle" x="35.5" y="-160" font-family="Courier New" font-size="10.00">Exception</text>
</a>
</g>
</g>
<!-- Node0 -->
<g id="node2" class="node"><title>Node0</title>
<g id="a_node2"><a xlink:href="d8/de3/class_c2_m2_1_1_interaction_1_1_u_i_1_1_f_p_s_label_1_1_label_not_found_exception.html" target="_top" xlink:title=" ">
<polygon fill="white" stroke="black" points="107,-294.5 107,-324.5 298,-324.5 298,-294.5 107,-294.5"/>
<text text-anchor="start" x="115" y="-312.5" font-family="Courier New" font-size="10.00">C2M2.Interaction.UI.FPSLabel.</text>
<text text-anchor="middle" x="202.5" y="-301.5" font-family="Courier New" font-size="10.00">LabelNotFoundException</text>
</a>
</g>
</g>
<!-- Node177&#45;&gt;Node0 -->
<g id="edge1" class="edge"><title>Node177&#45;&gt;Node0</title>
<path fill="none" stroke="midnightblue" d="M42.2425,-181.86C51.3773,-209.218 71.8725,-258.822 107,-285.5 111.448,-288.878 116.32,-291.785 121.433,-294.284"/>
<polygon fill="midnightblue" stroke="midnightblue" points="45.5539,-180.724 39.1976,-172.247 38.8806,-182.837 45.5539,-180.724"/>
</g>
<!-- Node179 -->
<g id="node3" class="node"><title>Node179</title>
<g id="a_node3"><a xlink:href="de/d32/class_c2_m2_1_1_interaction_1_1_v_r_1_1_grabbable_not_found_exception.html" target="_top" xlink:title=" ">
<polygon fill="white" stroke="black" points="107,-245.5 107,-275.5 298,-275.5 298,-245.5 107,-245.5"/>
<text text-anchor="start" x="115" y="-263.5" font-family="Courier New" font-size="10.00">C2M2.Interaction.VR.Grabbable</text>
<text text-anchor="middle" x="202.5" y="-252.5" font-family="Courier New" font-size="10.00">NotFoundException</text>
</a>
</g>
</g>
<!-- Node177&#45;&gt;Node179 -->
<g id="edge2" class="edge"><title>Node177&#45;&gt;Node179</title>
<path fill="none" stroke="midnightblue" d="M48.9972,-180.579C61.6745,-197.545 82.8321,-222.367 107,-236.5 112.845,-239.918 119.17,-242.854 125.683,-245.375"/>
<polygon fill="midnightblue" stroke="midnightblue" points="51.5524,-178.139 42.8614,-172.079 45.8767,-182.236 51.5524,-178.139"/>
</g>
<!-- Node180 -->
<g id="node4" class="node"><title>Node180</title>
<g id="a_node4"><a xlink:href="d4/de1/class_c2_m2_1_1_simulation_1_1_simulation_not_found_exception.html" target="_top" xlink:title=" ">
<polygon fill="white" stroke="black" points="116,-196.5 116,-226.5 289,-226.5 289,-196.5 116,-196.5"/>
<text text-anchor="start" x="124" y="-214.5" font-family="Courier New" font-size="10.00">C2M2.Simulation.Simulation</text>
<text text-anchor="middle" x="202.5" y="-203.5" font-family="Courier New" font-size="10.00">NotFoundException</text>
</a>
</g>
</g>
<!-- Node177&#45;&gt;Node180 -->
<g id="edge3" class="edge"><title>Node177&#45;&gt;Node180</title>
<path fill="none" stroke="midnightblue" d="M71.3025,-175.557C82.6148,-179.608 95.2746,-183.94 107,-187.5 117.285,-190.622 128.282,-193.672 139.005,-196.494"/>
<polygon fill="midnightblue" stroke="midnightblue" points="72.3598,-172.217 61.7657,-172.095 69.9714,-178.797 72.3598,-172.217"/>
</g>
<!-- Node181 -->
<g id="node5" class="node"><title>Node181</title>
<g id="a_node5"><a xlink:href="d8/d7c/class_c2_m2_1_1_utils_1_1_exceptions_1_1_mesh_filter_not_found_exception.html" target="_top" xlink:title=" ">
<polygon fill="white" stroke="black" points="116,-147.5 116,-177.5 289,-177.5 289,-147.5 116,-147.5"/>
<text text-anchor="start" x="124" y="-165.5" font-family="Courier New" font-size="10.00">C2M2.Utils.Exceptions.Mesh</text>
<text text-anchor="middle" x="202.5" y="-154.5" font-family="Courier New" font-size="10.00">FilterNotFoundException</text>
</a>
</g>
</g>
<!-- Node177&#45;&gt;Node181 -->
<g id="edge4" class="edge"><title>Node177&#45;&gt;Node181</title>
<path fill="none" stroke="midnightblue" d="M81.1107,-162.5C91.9547,-162.5 103.914,-162.5 115.96,-162.5"/>
<polygon fill="midnightblue" stroke="midnightblue" points="81.0894,-159 71.0894,-162.5 81.0894,-166 81.0894,-159"/>
</g>
<!-- Node182 -->
<g id="node6" class="node"><title>Node182</title>
<g id="a_node6"><a xlink:href="de/d95/class_c2_m2_1_1_utils_1_1_time_node_not_found_exception.html" target="_top" xlink:title=" ">
<polygon fill="white" stroke="black" points="113,-98.5 113,-128.5 292,-128.5 292,-98.5 113,-98.5"/>
<text text-anchor="start" x="121" y="-116.5" font-family="Courier New" font-size="10.00">C2M2.Utils.TimeNodeNotFound</text>
<text text-anchor="middle" x="202.5" y="-105.5" font-family="Courier New" font-size="10.00">Exception</text>
</a>
</g>
</g>
<!-- Node177&#45;&gt;Node182 -->
<g id="edge5" class="edge"><title>Node177&#45;&gt;Node182</title>
<path fill="none" stroke="midnightblue" d="M72.81,-149.601C83.7484,-145.861 95.8182,-141.878 107,-138.5 118.291,-135.089 130.416,-131.688 142.09,-128.542"/>
<polygon fill="midnightblue" stroke="midnightblue" points="71.4485,-146.368 63.1405,-152.943 73.7353,-152.984 71.4485,-146.368"/>
</g>
<!-- Node183 -->
<g id="node7" class="node"><title>Node183</title>
<g id="a_node7"><a xlink:href="d9/db8/class_c2_m2_1_1_visualization_1_1_gradient32_l_u_t_not_found_exception.html" target="_top" xlink:title=" ">
<polygon fill="white" stroke="black" points="107,-49.5 107,-79.5 298,-79.5 298,-49.5 107,-49.5"/>
<text text-anchor="start" x="115" y="-67.5" font-family="Courier New" font-size="10.00">C2M2.Visualization.Gradient32</text>
<text text-anchor="middle" x="202.5" y="-56.5" font-family="Courier New" font-size="10.00">LUTNotFoundException</text>
</a>
</g>
</g>
<!-- Node177&#45;&gt;Node183 -->
<g id="edge6" class="edge"><title>Node177&#45;&gt;Node183</title>
<path fill="none" stroke="midnightblue" d="M49.2873,-144.454C62.0491,-127.766 83.1528,-103.496 107,-89.5 113.586,-85.6346 120.777,-82.3556 128.156,-79.5764"/>
<polygon fill="midnightblue" stroke="midnightblue" points="46.2237,-142.71 43.0912,-152.831 51.8516,-146.873 46.2237,-142.71"/>
</g>
<!-- Node184 -->
<g id="node8" class="node"><title>Node184</title>
<g id="a_node8"><a xlink:href="d9/dec/class_c2_m2_1_1_visualization_1_1_gradient_not_found_exception.html" target="_top" xlink:title=" ">
<polygon fill="white" stroke="black" points="113,-0.5 113,-30.5 292,-30.5 292,-0.5 113,-0.5"/>
<text text-anchor="start" x="121" y="-18.5" font-family="Courier New" font-size="10.00">C2M2.Visualization.Gradient</text>
<text text-anchor="middle" x="202.5" y="-7.5" font-family="Courier New" font-size="10.00">NotFoundException</text>
</a>
</g>
</g>
<!-- Node177&#45;&gt;Node184 -->
<g id="edge7" class="edge"><title>Node177&#45;&gt;Node184</title>
<path fill="none" stroke="midnightblue" d="M42.3233,-143.342C51.557,-116.261 72.172,-67.126 107,-40.5 111.988,-36.6864 117.509,-33.4529 123.303,-30.7115"/>
<polygon fill="midnightblue" stroke="midnightblue" points="38.9934,-142.264 39.2412,-152.856 45.6527,-144.421 38.9934,-142.264"/>
</g>
</g>
</svg>
