<?xml version="1.0" encoding="UTF-8" standalone="no"?>
<!DOCTYPE svg PUBLIC "-//W3C//DTD SVG 1.1//EN"
 "http://www.w3.org/Graphics/SVG/1.1/DTD/svg11.dtd">
<!-- Generated by graphviz version 2.46.0 (20210118.1747)
 -->
<!-- Title: Graphical Class Hierarchy Pages: 1 -->
<svg width="390pt" height="78pt"
 viewBox="0.00 0.00 390.00 77.50" xmlns="http://www.w3.org/2000/svg" xmlns:xlink="http://www.w3.org/1999/xlink">
<g id="graph0" class="graph" transform="scale(1 1) rotate(0) translate(4 73.5)">
<title>Graphical Class Hierarchy</title>
<polygon fill="white" stroke="transparent" points="-4,4 -4,-73.5 386,-73.5 386,4 -4,4"/>
<!-- Node0 -->
<g id="node1" class="node">
<title>Node0</title>
<g id="a_node1"><a xlink:href="de/df4/interface_c2_m2_1_1_neuronal_dynamics_1_1_u_g_x_1_1_attachment.html" target="_top" xlink:title="Marker interface for attachments">
<polygon fill="white" stroke="black" points="0,-39 0,-69 173,-69 173,-39 0,-39"/>
<text text-anchor="start" x="8" y="-57" font-family="Courier New" font-size="10.00">C2M2.NeuronalDynamics.UGX.</text>
<text text-anchor="middle" x="86.5" y="-46" font-family="Courier New" font-size="10.00">Attachment</text>
</a>
</g>
</g>
<!-- Node1 -->
<g id="node2" class="node">
<title>Node1</title>
<g id="a_node2"><a xlink:href="df/d7a/class_c2_m2_1_1_neuronal_dynamics_1_1_u_g_x_1_1_i_attachment.html" target="_top" xlink:title="Abstract base class for all attachments providing common functionality">
<polygon fill="white" stroke="black" points="209,-17 209,-47 382,-47 382,-17 209,-17"/>
<text text-anchor="start" x="217" y="-35" font-family="Courier New" font-size="10.00">C2M2.NeuronalDynamics.UGX.</text>
<text text-anchor="middle" x="295.5" y="-24" font-family="Courier New" font-size="10.00">IAttachment&lt; T &gt;</text>
</a>
</g>
</g>
<!-- Node0&#45;&gt;Node1 -->
<g id="edge1" class="edge">
<title>Node0&#45;&gt;Node1</title>
<path fill="none" stroke="midnightblue" d="M183.2,-43.83C191.76,-42.92 200.4,-42 208.88,-41.1"/>
<polygon fill="midnightblue" stroke="midnightblue" points="182.76,-40.36 173.19,-44.89 183.5,-47.32 182.76,-40.36"/>
</g>
<!-- Node39 -->
<g id="node3" class="node">
<title>Node39</title>
<g id="a_node3"><a xlink:title=" ">
<polygon fill="white" stroke="#bfbfbf" points="48,-0.5 48,-19.5 125,-19.5 125,-0.5 48,-0.5"/>
<text text-anchor="middle" x="86.5" y="-7.5" font-family="Courier New" font-size="10.00">ICloneable</text>
</a>
</g>
</g>
<!-- Node39&#45;&gt;Node1 -->
<g id="edge2" class="edge">
<title>Node39&#45;&gt;Node1</title>
<path fill="none" stroke="midnightblue" d="M135.44,-15.1C157.22,-17.41 183.67,-20.22 208.7,-22.88"/>
<polygon fill="midnightblue" stroke="midnightblue" points="135.78,-11.61 125.47,-14.04 135.04,-18.57 135.78,-11.61"/>
</g>
</g>
</svg>
