<?xml version="1.0" encoding="UTF-8" standalone="no"?>
<!DOCTYPE svg PUBLIC "-//W3C//DTD SVG 1.1//EN"
 "http://www.w3.org/Graphics/SVG/1.1/DTD/svg11.dtd">
<!-- Generated by graphviz version 2.38.0 (20140413.2041)
 -->
<!-- Title: Graphical Class Hierarchy Pages: 1 -->
<svg width="892pt" height="88pt"
 viewBox="0.00 0.00 892.00 88.00" xmlns="http://www.w3.org/2000/svg" xmlns:xlink="http://www.w3.org/1999/xlink">
<g id="graph0" class="graph" transform="scale(1 1) rotate(0) translate(4 84)">
<title>Graphical Class Hierarchy</title>
<polygon fill="white" stroke="none" points="-4,4 -4,-84 888,-84 888,4 -4,4"/>
<!-- Node0 -->
<g id="node1" class="node"><title>Node0</title>
<g id="a_node1"><a xlink:href="db/d39/class_c2_m2_1_1_simulation_1_1_simulation.html" target="_top" xlink:title=" ">
<polygon fill="white" stroke="black" points="0,-13.5 0,-65.5 173,-65.5 173,-13.5 0,-13.5"/>
<text text-anchor="start" x="8" y="-53.5" font-family="Courier New" font-size="10.00">C2M2.Simulation.Simulation</text>
<text text-anchor="start" x="8" y="-42.5" font-family="Courier New" font-size="10.00">&lt; Vector3[], Transform[]</text>
<text text-anchor="start" x="8" y="-31.5" font-family="Courier New" font-size="10.00">, VRRaycastableColliders,</text>
<text text-anchor="middle" x="86.5" y="-20.5" font-family="Courier New" font-size="10.00"> VRGrabbableColliders &gt;</text>
</a>
</g>
</g>
<!-- Node1 -->
<g id="node2" class="node"><title>Node1</title>
<g id="a_node2"><a xlink:href="d3/d66/class_c2_m2_1_1_simulation_1_1_position_field_simulation.html" target="_top" xlink:title="Simulation of type Vector3[] for simulating positional fields">
<polygon fill="white" stroke="black" points="209,-24.5 209,-54.5 370,-54.5 370,-24.5 209,-24.5"/>
<text text-anchor="start" x="217" y="-42.5" font-family="Courier New" font-size="10.00">C2M2.Simulation.Position</text>
<text text-anchor="middle" x="289.5" y="-31.5" font-family="Courier New" font-size="10.00">FieldSimulation</text>
</a>
</g>
</g>
<!-- Node0&#45;&gt;Node1 -->
<g id="edge1" class="edge"><title>Node0&#45;&gt;Node1</title>
<path fill="none" stroke="midnightblue" d="M183.093,-39.5C191.694,-39.5 200.343,-39.5 208.787,-39.5"/>
<polygon fill="midnightblue" stroke="midnightblue" points="183.034,-36.0001 173.034,-39.5 183.034,-43.0001 183.034,-36.0001"/>
</g>
<!-- Node2 -->
<g id="node3" class="node"><title>Node2</title>
<g id="a_node3"><a xlink:href="d0/d99/class_c2_m2_1_1_molecular_dynamics_1_1_simulation_1_1_m_d_simulation.html" target="_top" xlink:title="Reads data files and creates and updates visualizations for molecular dynamics systemss">
<polygon fill="white" stroke="black" points="406,-24.5 406,-54.5 627,-54.5 627,-24.5 406,-24.5"/>
<text text-anchor="start" x="414" y="-42.5" font-family="Courier New" font-size="10.00">C2M2.MolecularDynamics.Simulation.</text>
<text text-anchor="middle" x="516.5" y="-31.5" font-family="Courier New" font-size="10.00">MDSimulation</text>
</a>
</g>
</g>
<!-- Node1&#45;&gt;Node2 -->
<g id="edge2" class="edge"><title>Node1&#45;&gt;Node2</title>
<path fill="none" stroke="midnightblue" d="M380.232,-39.5C388.585,-39.5 397.113,-39.5 405.62,-39.5"/>
<polygon fill="midnightblue" stroke="midnightblue" points="380.143,-36.0001 370.143,-39.5 380.143,-43.0001 380.143,-36.0001"/>
</g>
<!-- Node3 -->
<g id="node4" class="node"><title>Node3</title>
<g id="a_node4"><a xlink:href="d5/de2/class_c2_m2_1_1_molecular_dynamics_1_1_simulation_1_1_example_m_d_simulation.html" target="_top" xlink:title=" ">
<polygon fill="white" stroke="black" points="663,-49.5 663,-79.5 884,-79.5 884,-49.5 663,-49.5"/>
<text text-anchor="start" x="671" y="-67.5" font-family="Courier New" font-size="10.00">C2M2.MolecularDynamics.Simulation.</text>
<text text-anchor="middle" x="773.5" y="-56.5" font-family="Courier New" font-size="10.00">ExampleMDSimulation</text>
</a>
</g>
</g>
<!-- Node2&#45;&gt;Node3 -->
<g id="edge3" class="edge"><title>Node2&#45;&gt;Node3</title>
<path fill="none" stroke="midnightblue" d="M637.186,-51.234C645.786,-52.077 654.433,-52.9248 662.97,-53.7617"/>
<polygon fill="midnightblue" stroke="midnightblue" points="637.417,-47.7398 627.123,-50.2473 636.734,-54.7064 637.417,-47.7398"/>
</g>
<!-- Node4 -->
<g id="node5" class="node"><title>Node4</title>
<g id="a_node5"><a xlink:href="d0/d05/class_c2_m2_1_1_molecular_dynamics_1_1_simulation_1_1_m_d_solver.html" target="_top" xlink:title=" ">
<polygon fill="white" stroke="black" points="663,-0.5 663,-30.5 884,-30.5 884,-0.5 663,-0.5"/>
<text text-anchor="start" x="671" y="-18.5" font-family="Courier New" font-size="10.00">C2M2.MolecularDynamics.Simulation.</text>
<text text-anchor="middle" x="773.5" y="-7.5" font-family="Courier New" font-size="10.00">MDSolver</text>
</a>
</g>
</g>
<!-- Node2&#45;&gt;Node4 -->
<g id="edge4" class="edge"><title>Node2&#45;&gt;Node4</title>
<path fill="none" stroke="midnightblue" d="M637.186,-28.2354C645.786,-27.4261 654.433,-26.6122 662.97,-25.8087"/>
<polygon fill="midnightblue" stroke="midnightblue" points="636.751,-24.7608 627.123,-29.1826 637.407,-31.73 636.751,-24.7608"/>
</g>
</g>
</svg>
