<?xml version="1.0" encoding="UTF-8" standalone="no"?>
<!DOCTYPE svg PUBLIC "-//W3C//DTD SVG 1.1//EN"
 "http://www.w3.org/Graphics/SVG/1.1/DTD/svg11.dtd">
<!-- Generated by graphviz version 2.38.0 (20140413.2041)
 -->
<!-- Title: Graphical Class Hierarchy Pages: 1 -->
<svg width="390pt" height="235pt"
 viewBox="0.00 0.00 390.00 235.00" xmlns="http://www.w3.org/2000/svg" xmlns:xlink="http://www.w3.org/1999/xlink">
<g id="graph0" class="graph" transform="scale(1 1) rotate(0) translate(4 231)">
<title>Graphical Class Hierarchy</title>
<polygon fill="white" stroke="none" points="-4,4 -4,-231 386,-231 386,4 -4,4"/>
<!-- Node0 -->
<g id="node1" class="node"><title>Node0</title>
<g id="a_node1"><a xlink:href="da/d2a/interface_c2_m2_1_1_neuronal_dynamics_1_1_u_g_x_1_1_i_attachment_data.html" target="_top" xlink:title="Marker interface for attachment data">
<polygon fill="white" stroke="black" points="0,-98.5 0,-128.5 173,-128.5 173,-98.5 0,-98.5"/>
<text text-anchor="start" x="8" y="-116.5" font-family="Courier New" font-size="10.00">C2M2.NeuronalDynamics.UGX.</text>
<text text-anchor="middle" x="86.5" y="-105.5" font-family="Courier New" font-size="10.00">IAttachmentData</text>
</a>
</g>
</g>
<!-- Node1 -->
<g id="node2" class="node"><title>Node1</title>
<g id="a_node2"><a xlink:href="de/da8/struct_c2_m2_1_1_neuronal_dynamics_1_1_u_g_x_1_1_diameter_data.html" target="_top" xlink:title="Data for diameter attachment Used to store diameters during reading in a grid">
<polygon fill="white" stroke="black" points="209,-196.5 209,-226.5 382,-226.5 382,-196.5 209,-196.5"/>
<text text-anchor="start" x="217" y="-214.5" font-family="Courier New" font-size="10.00">C2M2.NeuronalDynamics.UGX.</text>
<text text-anchor="middle" x="295.5" y="-203.5" font-family="Courier New" font-size="10.00">DiameterData</text>
</a>
</g>
</g>
<!-- Node0&#45;&gt;Node1 -->
<g id="edge1" class="edge"><title>Node0&#45;&gt;Node1</title>
<path fill="none" stroke="midnightblue" d="M116.739,-134.461C140.61,-150.781 175.719,-173.021 209,-187.5 216.634,-190.821 224.852,-193.809 233.068,-196.457"/>
<polygon fill="midnightblue" stroke="midnightblue" points="118.692,-131.555 108.477,-128.741 114.707,-137.311 118.692,-131.555"/>
</g>
<!-- Node2 -->
<g id="node3" class="node"><title>Node2</title>
<g id="a_node3"><a xlink:href="dd/d35/struct_c2_m2_1_1_neuronal_dynamics_1_1_u_g_x_1_1_index_data.html" target="_top" xlink:title="IndexData">
<polygon fill="white" stroke="black" points="209,-147.5 209,-177.5 382,-177.5 382,-147.5 209,-147.5"/>
<text text-anchor="start" x="217" y="-165.5" font-family="Courier New" font-size="10.00">C2M2.NeuronalDynamics.UGX.</text>
<text text-anchor="middle" x="295.5" y="-154.5" font-family="Courier New" font-size="10.00">IndexData</text>
</a>
</g>
</g>
<!-- Node0&#45;&gt;Node2 -->
<g id="edge2" class="edge"><title>Node0&#45;&gt;Node2</title>
<path fill="none" stroke="midnightblue" d="M161.022,-130.904C183.921,-136.324 208.963,-142.252 231.107,-147.494"/>
<polygon fill="midnightblue" stroke="midnightblue" points="161.551,-127.432 151.014,-128.535 159.938,-134.244 161.551,-127.432"/>
</g>
<!-- Node3 -->
<g id="node4" class="node"><title>Node3</title>
<g id="a_node4"><a xlink:href="d2/dae/struct_c2_m2_1_1_neuronal_dynamics_1_1_u_g_x_1_1_mapping_data.html" target="_top" xlink:title="Data for mapping attachment Used to read in mapping data which maps between 1d and 2d vertices">
<polygon fill="white" stroke="black" points="209,-98.5 209,-128.5 382,-128.5 382,-98.5 209,-98.5"/>
<text text-anchor="start" x="217" y="-116.5" font-family="Courier New" font-size="10.00">C2M2.NeuronalDynamics.UGX.</text>
<text text-anchor="middle" x="295.5" y="-105.5" font-family="Courier New" font-size="10.00">MappingData</text>
</a>
</g>
</g>
<!-- Node0&#45;&gt;Node3 -->
<g id="edge3" class="edge"><title>Node0&#45;&gt;Node3</title>
<path fill="none" stroke="midnightblue" d="M183.198,-113.5C191.764,-113.5 200.402,-113.5 208.875,-113.5"/>
<polygon fill="midnightblue" stroke="midnightblue" points="183.189,-110 173.189,-113.5 183.189,-117 183.189,-110"/>
</g>
<!-- Node4 -->
<g id="node5" class="node"><title>Node4</title>
<g id="a_node5"><a xlink:href="df/d3d/struct_c2_m2_1_1_neuronal_dynamics_1_1_u_g_x_1_1_normal_data.html" target="_top" xlink:title="Data for normals of grid Used to store normals during reading in a grid">
<polygon fill="white" stroke="black" points="209,-49.5 209,-79.5 382,-79.5 382,-49.5 209,-49.5"/>
<text text-anchor="start" x="217" y="-67.5" font-family="Courier New" font-size="10.00">C2M2.NeuronalDynamics.UGX.</text>
<text text-anchor="middle" x="295.5" y="-56.5" font-family="Courier New" font-size="10.00">NormalData</text>
</a>
</g>
</g>
<!-- Node0&#45;&gt;Node4 -->
<g id="edge4" class="edge"><title>Node0&#45;&gt;Node4</title>
<path fill="none" stroke="midnightblue" d="M161.022,-96.0962C183.921,-90.6757 208.963,-84.748 231.107,-79.5062"/>
<polygon fill="midnightblue" stroke="midnightblue" points="159.938,-92.7559 151.014,-98.4654 161.551,-99.5677 159.938,-92.7559"/>
</g>
<!-- Node5 -->
<g id="node6" class="node"><title>Node5</title>
<g id="a_node6"><a xlink:href="dc/dea/struct_c2_m2_1_1_neuronal_dynamics_1_1_u_g_x_1_1_synapse_data.html" target="_top" xlink:title="Data for synapse attachment Used to store synapse data during reading in a grid">
<polygon fill="white" stroke="black" points="209,-0.5 209,-30.5 382,-30.5 382,-0.5 209,-0.5"/>
<text text-anchor="start" x="217" y="-18.5" font-family="Courier New" font-size="10.00">C2M2.NeuronalDynamics.UGX.</text>
<text text-anchor="middle" x="295.5" y="-7.5" font-family="Courier New" font-size="10.00">SynapseData</text>
</a>
</g>
</g>
<!-- Node0&#45;&gt;Node5 -->
<g id="edge5" class="edge"><title>Node0&#45;&gt;Node5</title>
<path fill="none" stroke="midnightblue" d="M117.26,-92.6516C141.169,-76.6474 176.075,-54.9179 209,-40.5 217.358,-36.8399 226.405,-33.539 235.38,-30.6261"/>
<polygon fill="midnightblue" stroke="midnightblue" points="115.29,-89.7587 108.973,-98.2647 119.216,-95.5543 115.29,-89.7587"/>
</g>
</g>
</svg>
