<?xml version="1.0" encoding="UTF-8" standalone="no"?>
<!DOCTYPE svg PUBLIC "-//W3C//DTD SVG 1.1//EN"
 "http://www.w3.org/Graphics/SVG/1.1/DTD/svg11.dtd">
<!-- Generated by graphviz version 2.38.0 (20140413.2041)
 -->
<!-- Title: Graphical Class Hierarchy Pages: 1 -->
<svg width="306pt" height="284pt"
 viewBox="0.00 0.00 306.00 284.00" xmlns="http://www.w3.org/2000/svg" xmlns:xlink="http://www.w3.org/1999/xlink">
<g id="graph0" class="graph" transform="scale(1 1) rotate(0) translate(4 280)">
<title>Graphical Class Hierarchy</title>
<polygon fill="white" stroke="none" points="-4,4 -4,-280 302,-280 302,4 -4,4"/>
<!-- Node171 -->
<g id="node1" class="node"><title>Node171</title>
<g id="a_node1"><a xlink:title=" ">
<polygon fill="white" stroke="#bfbfbf" points="0,-128 0,-147 71,-147 71,-128 0,-128"/>
<text text-anchor="middle" x="35.5" y="-135" font-family="Courier New" font-size="10.00">Exception</text>
</a>
</g>
</g>
<!-- Node0 -->
<g id="node2" class="node"><title>Node0</title>
<g id="a_node2"><a xlink:href="de/d32/class_c2_m2_1_1_interaction_1_1_v_r_1_1_grabbable_not_found_exception.html" target="_top" xlink:title=" ">
<polygon fill="white" stroke="black" points="107,-245.5 107,-275.5 298,-275.5 298,-245.5 107,-245.5"/>
<text text-anchor="start" x="115" y="-263.5" font-family="Courier New" font-size="10.00">C2M2.Interaction.VR.Grabbable</text>
<text text-anchor="middle" x="202.5" y="-252.5" font-family="Courier New" font-size="10.00">NotFoundException</text>
</a>
</g>
</g>
<!-- Node171&#45;&gt;Node0 -->
<g id="edge1" class="edge"><title>Node171&#45;&gt;Node0</title>
<path fill="none" stroke="midnightblue" d="M44.8404,-156.318C55.8148,-178.864 77.2564,-216.136 107,-236.5 112.028,-239.943 117.511,-242.891 123.221,-245.418"/>
<polygon fill="midnightblue" stroke="midnightblue" points="47.9434,-154.691 40.5425,-147.11 41.6003,-157.652 47.9434,-154.691"/>
</g>
<!-- Node173 -->
<g id="node3" class="node"><title>Node173</title>
<g id="a_node3"><a xlink:href="d4/de1/class_c2_m2_1_1_simulation_1_1_simulation_not_found_exception.html" target="_top" xlink:title=" ">
<polygon fill="white" stroke="black" points="116,-196.5 116,-226.5 289,-226.5 289,-196.5 116,-196.5"/>
<text text-anchor="start" x="124" y="-214.5" font-family="Courier New" font-size="10.00">C2M2.Simulation.Simulation</text>
<text text-anchor="middle" x="202.5" y="-203.5" font-family="Courier New" font-size="10.00">NotFoundException</text>
</a>
</g>
</g>
<!-- Node171&#45;&gt;Node173 -->
<g id="edge2" class="edge"><title>Node171&#45;&gt;Node173</title>
<path fill="none" stroke="midnightblue" d="M55.22,-153.696C68.7836,-164.672 88.004,-178.724 107,-187.5 114.376,-190.908 122.308,-193.881 130.329,-196.464"/>
<polygon fill="midnightblue" stroke="midnightblue" points="57.1102,-150.716 47.183,-147.015 52.6351,-156.099 57.1102,-150.716"/>
</g>
<!-- Node174 -->
<g id="node4" class="node"><title>Node174</title>
<g id="a_node4"><a xlink:href="d8/d7c/class_c2_m2_1_1_utils_1_1_exceptions_1_1_mesh_filter_not_found_exception.html" target="_top" xlink:title=" ">
<polygon fill="white" stroke="black" points="116,-147.5 116,-177.5 289,-177.5 289,-147.5 116,-147.5"/>
<text text-anchor="start" x="124" y="-165.5" font-family="Courier New" font-size="10.00">C2M2.Utils.Exceptions.Mesh</text>
<text text-anchor="middle" x="202.5" y="-154.5" font-family="Courier New" font-size="10.00">FilterNotFoundException</text>
</a>
</g>
</g>
<!-- Node171&#45;&gt;Node174 -->
<g id="edge3" class="edge"><title>Node171&#45;&gt;Node174</title>
<path fill="none" stroke="midnightblue" d="M81.1107,-144.259C91.9547,-145.902 103.914,-147.714 115.96,-149.539"/>
<polygon fill="midnightblue" stroke="midnightblue" points="81.5009,-140.778 71.0894,-142.741 80.4522,-147.699 81.5009,-140.778"/>
</g>
<!-- Node175 -->
<g id="node5" class="node"><title>Node175</title>
<g id="a_node5"><a xlink:href="de/d95/class_c2_m2_1_1_utils_1_1_time_node_not_found_exception.html" target="_top" xlink:title=" ">
<polygon fill="white" stroke="black" points="113,-98.5 113,-128.5 292,-128.5 292,-98.5 113,-98.5"/>
<text text-anchor="start" x="121" y="-116.5" font-family="Courier New" font-size="10.00">C2M2.Utils.TimeNodeNotFound</text>
<text text-anchor="middle" x="202.5" y="-105.5" font-family="Courier New" font-size="10.00">Exception</text>
</a>
</g>
</g>
<!-- Node171&#45;&gt;Node175 -->
<g id="edge4" class="edge"><title>Node171&#45;&gt;Node175</title>
<path fill="none" stroke="midnightblue" d="M81.07,-131.017C91.0051,-129.572 101.878,-127.99 112.897,-126.388"/>
<polygon fill="midnightblue" stroke="midnightblue" points="80.4815,-127.566 71.0894,-132.469 81.4891,-134.493 80.4815,-127.566"/>
</g>
<!-- Node176 -->
<g id="node6" class="node"><title>Node176</title>
<g id="a_node6"><a xlink:href="d9/db8/class_c2_m2_1_1_visualization_1_1_gradient32_l_u_t_not_found_exception.html" target="_top" xlink:title=" ">
<polygon fill="white" stroke="black" points="107,-49.5 107,-79.5 298,-79.5 298,-49.5 107,-49.5"/>
<text text-anchor="start" x="115" y="-67.5" font-family="Courier New" font-size="10.00">C2M2.Visualization.Gradient32</text>
<text text-anchor="middle" x="202.5" y="-56.5" font-family="Courier New" font-size="10.00">LUTNotFoundException</text>
</a>
</g>
</g>
<!-- Node171&#45;&gt;Node176 -->
<g id="edge5" class="edge"><title>Node171&#45;&gt;Node176</title>
<path fill="none" stroke="midnightblue" d="M56.3223,-121.298C69.881,-110.919 88.6572,-97.8723 107,-89.5 115.337,-85.6948 124.361,-82.3826 133.412,-79.5246"/>
<polygon fill="midnightblue" stroke="midnightblue" points="53.9265,-118.729 48.2228,-127.658 58.2495,-124.235 53.9265,-118.729"/>
</g>
<!-- Node177 -->
<g id="node7" class="node"><title>Node177</title>
<g id="a_node7"><a xlink:href="d9/dec/class_c2_m2_1_1_visualization_1_1_gradient_not_found_exception.html" target="_top" xlink:title=" ">
<polygon fill="white" stroke="black" points="113,-0.5 113,-30.5 292,-30.5 292,-0.5 113,-0.5"/>
<text text-anchor="start" x="121" y="-18.5" font-family="Courier New" font-size="10.00">C2M2.Visualization.Gradient</text>
<text text-anchor="middle" x="202.5" y="-7.5" font-family="Courier New" font-size="10.00">NotFoundException</text>
</a>
</g>
</g>
<!-- Node171&#45;&gt;Node177 -->
<g id="edge6" class="edge"><title>Node171&#45;&gt;Node177</title>
<path fill="none" stroke="midnightblue" d="M45.1431,-118.772C56.3,-96.6971 77.8051,-60.4933 107,-40.5 112.601,-36.6644 118.758,-33.4172 125.162,-30.6679"/>
<polygon fill="midnightblue" stroke="midnightblue" points="41.9734,-117.287 40.7547,-127.812 48.2706,-120.345 41.9734,-117.287"/>
</g>
</g>
</svg>
