<?xml version="1.0" encoding="UTF-8" standalone="no"?>
<!DOCTYPE svg PUBLIC "-//W3C//DTD SVG 1.1//EN"
 "http://www.w3.org/Graphics/SVG/1.1/DTD/svg11.dtd">
<!-- Generated by graphviz version 2.38.0 (20140413.2041)
 -->
<!-- Title: Graphical Class Hierarchy Pages: 1 -->
<svg width="300pt" height="137pt"
 viewBox="0.00 0.00 300.00 137.00" xmlns="http://www.w3.org/2000/svg" xmlns:xlink="http://www.w3.org/1999/xlink">
<g id="graph0" class="graph" transform="scale(1 1) rotate(0) translate(4 133)">
<title>Graphical Class Hierarchy</title>
<polygon fill="white" stroke="none" points="-4,4 -4,-133 296,-133 296,4 -4,4"/>
<!-- Node6 -->
<g id="node1" class="node"><title>Node6</title>
<g id="a_node1"><a xlink:title=" ">
<polygon fill="white" stroke="#bfbfbf" points="0,-55 0,-74 77,-74 77,-55 0,-55"/>
<text text-anchor="middle" x="38.5" y="-62" font-family="Courier New" font-size="10.00">UnityEvent</text>
</a>
</g>
</g>
<!-- Node0 -->
<g id="node2" class="node"><title>Node0</title>
<g id="a_node2"><a xlink:href="d2/d43/class_c2_m2_1_1_interaction_1_1_raycast_press_events_1_1_raycast_hit_event.html" target="_top" xlink:title=" ">
<polygon fill="white" stroke="black" points="113,-98.5 113,-128.5 292,-128.5 292,-98.5 113,-98.5"/>
<text text-anchor="start" x="121" y="-116.5" font-family="Courier New" font-size="10.00">C2M2.Interaction.Raycast</text>
<text text-anchor="middle" x="202.5" y="-105.5" font-family="Courier New" font-size="10.00">PressEvents.RaycastHitEvent</text>
</a>
</g>
</g>
<!-- Node6&#45;&gt;Node0 -->
<g id="edge1" class="edge"><title>Node6&#45;&gt;Node0</title>
<path fill="none" stroke="midnightblue" d="M75.7916,-77.3503C87.6057,-81.3975 100.814,-85.7793 113,-89.5 122.897,-92.5217 133.473,-95.5562 143.746,-98.4022"/>
<polygon fill="midnightblue" stroke="midnightblue" points="76.8434,-74.0107 66.2487,-74.0511 74.5562,-80.6265 76.8434,-74.0107"/>
</g>
<!-- Node8 -->
<g id="node3" class="node"><title>Node8</title>
<g id="a_node3"><a xlink:href="da/d7b/class_c2_m2_1_1_interaction_1_1_u_i_1_1_raycast_input_field_1_1_on_change_event.html" target="_top" xlink:title=" ">
<polygon fill="white" stroke="black" points="113,-49.5 113,-79.5 292,-79.5 292,-49.5 113,-49.5"/>
<text text-anchor="start" x="121" y="-67.5" font-family="Courier New" font-size="10.00">C2M2.Interaction.UI.Raycast</text>
<text text-anchor="middle" x="202.5" y="-56.5" font-family="Courier New" font-size="10.00">InputField.OnChangeEvent</text>
</a>
</g>
</g>
<!-- Node6&#45;&gt;Node8 -->
<g id="edge2" class="edge"><title>Node6&#45;&gt;Node8</title>
<path fill="none" stroke="midnightblue" d="M87.0875,-64.5C95.2506,-64.5 103.963,-64.5 112.798,-64.5"/>
<polygon fill="midnightblue" stroke="midnightblue" points="87.0733,-61.0001 77.0732,-64.5 87.0732,-68.0001 87.0733,-61.0001"/>
</g>
<!-- Node9 -->
<g id="node4" class="node"><title>Node9</title>
<g id="a_node4"><a xlink:href="d4/de5/class_c2_m2_1_1_interaction_1_1_u_i_1_1_raycast_input_field_1_1_on_submit_event.html" target="_top" xlink:title=" ">
<polygon fill="white" stroke="black" points="113,-0.5 113,-30.5 292,-30.5 292,-0.5 113,-0.5"/>
<text text-anchor="start" x="121" y="-18.5" font-family="Courier New" font-size="10.00">C2M2.Interaction.UI.Raycast</text>
<text text-anchor="middle" x="202.5" y="-7.5" font-family="Courier New" font-size="10.00">InputField.OnSubmitEvent</text>
</a>
</g>
</g>
<!-- Node6&#45;&gt;Node9 -->
<g id="edge3" class="edge"><title>Node6&#45;&gt;Node9</title>
<path fill="none" stroke="midnightblue" d="M77.6622,-51.7158C89.0051,-48.0034 101.479,-44.0068 113,-40.5 123.845,-37.1992 135.481,-33.8063 146.636,-30.6264"/>
<polygon fill="midnightblue" stroke="midnightblue" points="76.4408,-48.433 68.0375,-54.8855 78.6305,-55.0817 76.4408,-48.433"/>
</g>
</g>
</svg>
