<?xml version="1.0" encoding="UTF-8" standalone="no"?>
<!DOCTYPE svg PUBLIC "-//W3C//DTD SVG 1.1//EN"
 "http://www.w3.org/Graphics/SVG/1.1/DTD/svg11.dtd">
<!-- Generated by graphviz version 2.46.0 (20210118.1747)
 -->
<!-- Title: Graphical Class Hierarchy Pages: 1 -->
<svg width="294pt" height="88pt"
 viewBox="0.00 0.00 294.00 88.00" xmlns="http://www.w3.org/2000/svg" xmlns:xlink="http://www.w3.org/1999/xlink">
<g id="graph0" class="graph" transform="scale(1 1) rotate(0) translate(4 84)">
<title>Graphical Class Hierarchy</title>
<polygon fill="white" stroke="transparent" points="-4,4 -4,-84 290,-84 290,4 -4,4"/>
<!-- Node163 -->
<g id="node1" class="node">
<title>Node163</title>
<g id="a_node1"><a xlink:title=" ">
<polygon fill="white" stroke="#bfbfbf" points="0,-30 0,-49 77,-49 77,-30 0,-30"/>
<text text-anchor="middle" x="38.5" y="-37" font-family="Courier New" font-size="10.00">OVRGrabber</text>
</a>
</g>
</g>
<!-- Node0 -->
<g id="node2" class="node">
<title>Node0</title>
<g id="a_node2"><a xlink:href="df/d1d/class_c2_m2_1_1_interaction_1_1_grabber_emulator.html" target="_top" xlink:title=" ">
<polygon fill="white" stroke="black" points="119,-49.5 119,-79.5 280,-79.5 280,-49.5 119,-49.5"/>
<text text-anchor="start" x="127" y="-67.5" font-family="Courier New" font-size="10.00">C2M2.Interaction.Grabber</text>
<text text-anchor="middle" x="199.5" y="-56.5" font-family="Courier New" font-size="10.00">Emulator</text>
</a>
</g>
</g>
<!-- Node163&#45;&gt;Node0 -->
<g id="edge1" class="edge">
<title>Node163&#45;&gt;Node0</title>
<path fill="none" stroke="midnightblue" d="M87.27,-47.01C97.26,-48.58 108.05,-50.28 118.84,-51.97"/>
<polygon fill="midnightblue" stroke="midnightblue" points="87.6,-43.52 77.18,-45.42 86.52,-50.44 87.6,-43.52"/>
</g>
<!-- Node165 -->
<g id="node3" class="node">
<title>Node165</title>
<g id="a_node3"><a xlink:href="dd/d45/class_c2_m2_1_1_interaction_1_1_v_r_1_1_public_o_v_r_grabber.html" target="_top" xlink:title="Offers a public interface for other scripts to change OVRGrabber&#39;s grab volume.">
<polygon fill="white" stroke="black" points="113,-0.5 113,-30.5 286,-30.5 286,-0.5 113,-0.5"/>
<text text-anchor="start" x="121" y="-18.5" font-family="Courier New" font-size="10.00">C2M2.Interaction.VR.Public</text>
<text text-anchor="middle" x="199.5" y="-7.5" font-family="Courier New" font-size="10.00">OVRGrabber</text>
</a>
</g>
</g>
<!-- Node163&#45;&gt;Node165 -->
<g id="edge2" class="edge">
<title>Node163&#45;&gt;Node165</title>
<path fill="none" stroke="midnightblue" d="M87.18,-32.3C95.33,-31.07 104.01,-29.76 112.79,-28.44"/>
<polygon fill="midnightblue" stroke="midnightblue" points="86.55,-28.86 77.18,-33.81 87.59,-35.78 86.55,-28.86"/>
</g>
</g>
</svg>
