<?xml version="1.0" encoding="UTF-8" standalone="no"?>
<!DOCTYPE svg PUBLIC "-//W3C//DTD SVG 1.1//EN"
 "http://www.w3.org/Graphics/SVG/1.1/DTD/svg11.dtd">
<!-- Generated by graphviz version 2.46.0 (20210118.1747)
 -->
<!-- Title: Graphical Class Hierarchy Pages: 1 -->
<svg width="390pt" height="137pt"
 viewBox="0.00 0.00 390.00 137.00" xmlns="http://www.w3.org/2000/svg" xmlns:xlink="http://www.w3.org/1999/xlink">
<g id="graph0" class="graph" transform="scale(1 1) rotate(0) translate(4 133)">
<title>Graphical Class Hierarchy</title>
<polygon fill="white" stroke="transparent" points="-4,4 -4,-133 386,-133 386,4 -4,4"/>
<!-- Node0 -->
<g id="node1" class="node">
<title>Node0</title>
<g id="a_node1"><a xlink:href="d7/df5/interface_c2_m2_1_1_neuronal_dynamics_1_1_u_g_x_1_1_i_synapse.html" target="_top" xlink:title="A synapse respresentation">
<polygon fill="white" stroke="black" points="0,-49.5 0,-79.5 173,-79.5 173,-49.5 0,-49.5"/>
<text text-anchor="start" x="8" y="-67.5" font-family="Courier New" font-size="10.00">C2M2.NeuronalDynamics.UGX.</text>
<text text-anchor="middle" x="86.5" y="-56.5" font-family="Courier New" font-size="10.00">ISynapse</text>
</a>
</g>
</g>
<!-- Node1 -->
<g id="node2" class="node">
<title>Node1</title>
<g id="a_node2"><a xlink:href="d7/dbe/struct_c2_m2_1_1_neuronal_dynamics_1_1_u_g_x_1_1_alpha_post_synapse.html" target="_top" xlink:title="A alpha post synapse">
<polygon fill="white" stroke="black" points="209,-98.5 209,-128.5 382,-128.5 382,-98.5 209,-98.5"/>
<text text-anchor="start" x="217" y="-116.5" font-family="Courier New" font-size="10.00">C2M2.NeuronalDynamics.UGX.</text>
<text text-anchor="middle" x="295.5" y="-105.5" font-family="Courier New" font-size="10.00">AlphaPostSynapse</text>
</a>
</g>
</g>
<!-- Node0&#45;&gt;Node1 -->
<g id="edge1" class="edge">
<title>Node0&#45;&gt;Node1</title>
<path fill="none" stroke="midnightblue" d="M161.02,-81.9C183.92,-87.32 208.96,-93.25 231.11,-98.49"/>
<polygon fill="midnightblue" stroke="midnightblue" points="161.55,-78.43 151.01,-79.53 159.94,-85.24 161.55,-78.43"/>
</g>
<!-- Node2 -->
<g id="node3" class="node">
<title>Node2</title>
<g id="a_node3"><a xlink:href="dd/d8d/struct_c2_m2_1_1_neuronal_dynamics_1_1_u_g_x_1_1_e_x_p2_synapse.html" target="_top" xlink:title="A bi&#45;exponential synapse">
<polygon fill="white" stroke="black" points="209,-49.5 209,-79.5 382,-79.5 382,-49.5 209,-49.5"/>
<text text-anchor="start" x="217" y="-67.5" font-family="Courier New" font-size="10.00">C2M2.NeuronalDynamics.UGX.</text>
<text text-anchor="middle" x="295.5" y="-56.5" font-family="Courier New" font-size="10.00">EXP2Synapse</text>
</a>
</g>
</g>
<!-- Node0&#45;&gt;Node2 -->
<g id="edge2" class="edge">
<title>Node0&#45;&gt;Node2</title>
<path fill="none" stroke="midnightblue" d="M183.2,-64.5C191.76,-64.5 200.4,-64.5 208.88,-64.5"/>
<polygon fill="midnightblue" stroke="midnightblue" points="183.19,-61 173.19,-64.5 183.19,-68 183.19,-61"/>
</g>
<!-- Node3 -->
<g id="node4" class="node">
<title>Node3</title>
<g id="a_node4"><a xlink:href="d3/d7b/struct_c2_m2_1_1_neuronal_dynamics_1_1_u_g_x_1_1_undef_synapse.html" target="_top" xlink:title="Undefined Synapse">
<polygon fill="white" stroke="black" points="209,-0.5 209,-30.5 382,-30.5 382,-0.5 209,-0.5"/>
<text text-anchor="start" x="217" y="-18.5" font-family="Courier New" font-size="10.00">C2M2.NeuronalDynamics.UGX.</text>
<text text-anchor="middle" x="295.5" y="-7.5" font-family="Courier New" font-size="10.00">UndefSynapse</text>
</a>
</g>
</g>
<!-- Node0&#45;&gt;Node3 -->
<g id="edge3" class="edge">
<title>Node0&#45;&gt;Node3</title>
<path fill="none" stroke="midnightblue" d="M161.02,-47.1C183.92,-41.68 208.96,-35.75 231.11,-30.51"/>
<polygon fill="midnightblue" stroke="midnightblue" points="159.94,-43.76 151.01,-49.47 161.55,-50.57 159.94,-43.76"/>
</g>
</g>
</svg>
