<?xml version="1.0" encoding="UTF-8" standalone="no"?>
<!DOCTYPE svg PUBLIC "-//W3C//DTD SVG 1.1//EN"
 "http://www.w3.org/Graphics/SVG/1.1/DTD/svg11.dtd">
<!-- Generated by graphviz version 2.46.0 (20210118.1747)
 -->
<!-- Title: Graphical Class Hierarchy Pages: 1 -->
<svg width="348pt" height="529pt"
 viewBox="0.00 0.00 348.00 529.00" xmlns="http://www.w3.org/2000/svg" xmlns:xlink="http://www.w3.org/1999/xlink">
<g id="graph0" class="graph" transform="scale(1 1) rotate(0) translate(4 525)">
<title>Graphical Class Hierarchy</title>
<polygon fill="white" stroke="transparent" points="-4,4 -4,-525 344,-525 344,4 -4,4"/>
<!-- Node14 -->
<g id="node1" class="node">
<title>Node14</title>
<g id="a_node1"><a xlink:title=" ">
<polygon fill="white" stroke="#bfbfbf" points="0,-251 0,-270 71,-270 71,-251 0,-251"/>
<text text-anchor="middle" x="35.5" y="-258" font-family="Courier New" font-size="10.00">Exception</text>
</a>
</g>
</g>
<!-- Node0 -->
<g id="node2" class="node">
<title>Node0</title>
<g id="a_node2"><a xlink:href="d8/de3/class_c2_m2_1_1_interaction_1_1_u_i_1_1_f_p_s_label_1_1_label_not_found_exception.html" target="_top" xlink:title=" ">
<polygon fill="white" stroke="black" points="128,-490.5 128,-520.5 319,-520.5 319,-490.5 128,-490.5"/>
<text text-anchor="start" x="136" y="-508.5" font-family="Courier New" font-size="10.00">C2M2.Interaction.UI.FPSLabel.</text>
<text text-anchor="middle" x="223.5" y="-497.5" font-family="Courier New" font-size="10.00">LabelNotFoundException</text>
</a>
</g>
</g>
<!-- Node14&#45;&gt;Node0 -->
<g id="edge1" class="edge">
<title>Node14&#45;&gt;Node0</title>
<path fill="none" stroke="midnightblue" d="M36.57,-280.38C37.87,-323.86 47.4,-427.8 107,-481.5 113.16,-487.05 120.26,-491.45 127.86,-494.92"/>
<polygon fill="midnightblue" stroke="midnightblue" points="40.07,-280.19 36.39,-270.25 33.07,-280.31 40.07,-280.19"/>
</g>
<!-- Node16 -->
<g id="node3" class="node">
<title>Node16</title>
<g id="a_node3"><a xlink:href="de/d32/class_c2_m2_1_1_interaction_1_1_v_r_1_1_grabbable_not_found_exception.html" target="_top" xlink:title=" ">
<polygon fill="white" stroke="black" points="128,-441.5 128,-471.5 319,-471.5 319,-441.5 128,-441.5"/>
<text text-anchor="start" x="136" y="-459.5" font-family="Courier New" font-size="10.00">C2M2.Interaction.VR.Grabbable</text>
<text text-anchor="middle" x="223.5" y="-448.5" font-family="Courier New" font-size="10.00">NotFoundException</text>
</a>
</g>
</g>
<!-- Node14&#45;&gt;Node16 -->
<g id="edge2" class="edge">
<title>Node14&#45;&gt;Node16</title>
<path fill="none" stroke="midnightblue" d="M38.63,-280.35C43.63,-316.51 59.52,-393.04 107,-432.5 113.22,-437.67 120.27,-441.82 127.75,-445.13"/>
<polygon fill="midnightblue" stroke="midnightblue" points="42.07,-279.62 37.37,-270.12 35.12,-280.48 42.07,-279.62"/>
</g>
<!-- Node17 -->
<g id="node4" class="node">
<title>Node17</title>
<g id="a_node4"><a xlink:href="df/d80/class_c2_m2_1_1_neuronal_dynamics_1_1_u_g_x_1_1_map_not_build_exception.html" target="_top" xlink:title="Custom exception thrown if map could not be build">
<polygon fill="white" stroke="black" points="137,-392.5 137,-422.5 310,-422.5 310,-392.5 137,-392.5"/>
<text text-anchor="start" x="145" y="-410.5" font-family="Courier New" font-size="10.00">C2M2.NeuronalDynamics.UGX.</text>
<text text-anchor="middle" x="223.5" y="-399.5" font-family="Courier New" font-size="10.00">MapNotBuildException</text>
</a>
</g>
</g>
<!-- Node14&#45;&gt;Node17 -->
<g id="edge3" class="edge">
<title>Node14&#45;&gt;Node17</title>
<path fill="none" stroke="midnightblue" d="M41.96,-279.66C50.83,-307.19 71.12,-357.47 107,-383.5 115.95,-389.99 126.27,-394.82 136.97,-398.38"/>
<polygon fill="midnightblue" stroke="midnightblue" points="45.28,-278.56 39.01,-270.01 38.58,-280.6 45.28,-278.56"/>
</g>
<!-- Node18 -->
<g id="node5" class="node">
<title>Node18</title>
<g id="a_node5"><a xlink:href="dc/de0/class_c2_m2_1_1_neuronal_dynamics_1_1_u_g_x_1_1_subset_not_found_exception.html" target="_top" xlink:title="Custom RTE for situations when subset is not found in geometry">
<polygon fill="white" stroke="black" points="137,-343.5 137,-373.5 310,-373.5 310,-343.5 137,-343.5"/>
<text text-anchor="start" x="145" y="-361.5" font-family="Courier New" font-size="10.00">C2M2.NeuronalDynamics.UGX.</text>
<text text-anchor="middle" x="223.5" y="-350.5" font-family="Courier New" font-size="10.00">SubsetNotFoundException</text>
</a>
</g>
</g>
<!-- Node14&#45;&gt;Node18 -->
<g id="edge4" class="edge">
<title>Node14&#45;&gt;Node18</title>
<path fill="none" stroke="midnightblue" d="M48.86,-278.81C61.44,-295.95 82.53,-320.9 107,-334.5 116.22,-339.62 126.4,-343.66 136.79,-346.83"/>
<polygon fill="midnightblue" stroke="midnightblue" points="51.41,-276.36 42.78,-270.22 45.7,-280.4 51.41,-276.36"/>
</g>
<!-- Node19 -->
<g id="node6" class="node">
<title>Node19</title>
<g id="a_node6"><a xlink:href="d6/d4b/class_c2_m2_1_1_neuronal_dynamics_1_1_visualization_1_1_v_r_n_1_1_could_not_read_mesh_from_v_r_n_archive.html" target="_top" xlink:title="Custom exception thrown if file could not be found in VRN archive">
<polygon fill="white" stroke="black" points="107,-294.5 107,-324.5 340,-324.5 340,-294.5 107,-294.5"/>
<text text-anchor="start" x="115" y="-312.5" font-family="Courier New" font-size="10.00">C2M2.NeuronalDynamics.Visualization.</text>
<text text-anchor="middle" x="223.5" y="-301.5" font-family="Courier New" font-size="10.00">VRN.CouldNotReadMeshFromVRNArchive</text>
</a>
</g>
</g>
<!-- Node14&#45;&gt;Node19 -->
<g id="edge5" class="edge">
<title>Node14&#45;&gt;Node19</title>
<path fill="none" stroke="midnightblue" d="M70.38,-273.57C81.9,-277.72 94.91,-282.12 107,-285.5 118.54,-288.73 130.83,-291.73 142.94,-294.45"/>
<polygon fill="midnightblue" stroke="midnightblue" points="71.3,-270.17 60.71,-270 68.88,-276.74 71.3,-270.17"/>
</g>
<!-- Node20 -->
<g id="node7" class="node">
<title>Node20</title>
<g id="a_node7"><a xlink:href="d4/de1/class_c2_m2_1_1_simulation_1_1_simulation_not_found_exception.html" target="_top" xlink:title=" ">
<polygon fill="white" stroke="black" points="137,-245.5 137,-275.5 310,-275.5 310,-245.5 137,-245.5"/>
<text text-anchor="start" x="145" y="-263.5" font-family="Courier New" font-size="10.00">C2M2.Simulation.Simulation</text>
<text text-anchor="middle" x="223.5" y="-252.5" font-family="Courier New" font-size="10.00">NotFoundException</text>
</a>
</g>
</g>
<!-- Node14&#45;&gt;Node20 -->
<g id="edge6" class="edge">
<title>Node14&#45;&gt;Node20</title>
<path fill="none" stroke="midnightblue" d="M81.07,-260.5C97.82,-260.5 117.48,-260.5 136.72,-260.5"/>
<polygon fill="midnightblue" stroke="midnightblue" points="81.05,-257 71.05,-260.5 81.05,-264 81.05,-257"/>
</g>
<!-- Node21 -->
<g id="node8" class="node">
<title>Node21</title>
<g id="a_node8"><a xlink:href="d8/d7c/class_c2_m2_1_1_utils_1_1_exceptions_1_1_mesh_filter_not_found_exception.html" target="_top" xlink:title=" ">
<polygon fill="white" stroke="black" points="137,-196.5 137,-226.5 310,-226.5 310,-196.5 137,-196.5"/>
<text text-anchor="start" x="145" y="-214.5" font-family="Courier New" font-size="10.00">C2M2.Utils.Exceptions.Mesh</text>
<text text-anchor="middle" x="223.5" y="-203.5" font-family="Courier New" font-size="10.00">FilterNotFoundException</text>
</a>
</g>
</g>
<!-- Node14&#45;&gt;Node21 -->
<g id="edge7" class="edge">
<title>Node14&#45;&gt;Node21</title>
<path fill="none" stroke="midnightblue" d="M72.16,-247.47C83.24,-243.66 95.55,-239.68 107,-236.5 119.85,-232.93 133.62,-229.57 147.02,-226.53"/>
<polygon fill="midnightblue" stroke="midnightblue" points="70.68,-244.28 62.39,-250.89 72.99,-250.89 70.68,-244.28"/>
</g>
<!-- Node22 -->
<g id="node9" class="node">
<title>Node22</title>
<g id="a_node9"><a xlink:href="de/d95/class_c2_m2_1_1_utils_1_1_time_node_not_found_exception.html" target="_top" xlink:title=" ">
<polygon fill="white" stroke="black" points="134,-147.5 134,-177.5 313,-177.5 313,-147.5 134,-147.5"/>
<text text-anchor="start" x="142" y="-165.5" font-family="Courier New" font-size="10.00">C2M2.Utils.TimeNodeNotFound</text>
<text text-anchor="middle" x="223.5" y="-154.5" font-family="Courier New" font-size="10.00">Exception</text>
</a>
</g>
</g>
<!-- Node14&#45;&gt;Node22 -->
<g id="edge8" class="edge">
<title>Node14&#45;&gt;Node22</title>
<path fill="none" stroke="midnightblue" d="M48.94,-242.48C61.58,-225.61 82.71,-201.02 107,-187.5 115.34,-182.86 124.45,-179.08 133.79,-176"/>
<polygon fill="midnightblue" stroke="midnightblue" points="45.85,-240.79 42.83,-250.94 51.52,-244.89 45.85,-240.79"/>
</g>
<!-- Node23 -->
<g id="node10" class="node">
<title>Node23</title>
<g id="a_node10"><a xlink:href="d9/db8/class_c2_m2_1_1_visualization_1_1_gradient32_l_u_t_not_found_exception.html" target="_top" xlink:title=" ">
<polygon fill="white" stroke="black" points="128,-98.5 128,-128.5 319,-128.5 319,-98.5 128,-98.5"/>
<text text-anchor="start" x="136" y="-116.5" font-family="Courier New" font-size="10.00">C2M2.Visualization.Gradient32</text>
<text text-anchor="middle" x="223.5" y="-105.5" font-family="Courier New" font-size="10.00">LUTNotFoundException</text>
</a>
</g>
</g>
<!-- Node14&#45;&gt;Node23 -->
<g id="edge9" class="edge">
<title>Node14&#45;&gt;Node23</title>
<path fill="none" stroke="midnightblue" d="M42.16,-241.13C51.2,-213.78 71.58,-164.33 107,-138.5 113.38,-133.85 120.46,-130.03 127.87,-126.9"/>
<polygon fill="midnightblue" stroke="midnightblue" points="38.8,-240.15 39.15,-250.74 45.48,-242.24 38.8,-240.15"/>
</g>
<!-- Node24 -->
<g id="node11" class="node">
<title>Node24</title>
<g id="a_node11"><a xlink:href="d9/dec/class_c2_m2_1_1_visualization_1_1_gradient_not_found_exception.html" target="_top" xlink:title=" ">
<polygon fill="white" stroke="black" points="134,-49.5 134,-79.5 313,-79.5 313,-49.5 134,-49.5"/>
<text text-anchor="start" x="142" y="-67.5" font-family="Courier New" font-size="10.00">C2M2.Visualization.Gradient</text>
<text text-anchor="middle" x="223.5" y="-56.5" font-family="Courier New" font-size="10.00">NotFoundException</text>
</a>
</g>
</g>
<!-- Node14&#45;&gt;Node24 -->
<g id="edge10" class="edge">
<title>Node14&#45;&gt;Node24</title>
<path fill="none" stroke="midnightblue" d="M38.7,-240.8C43.81,-204.9 59.88,-128.91 107,-89.5 114.87,-82.92 124.07,-77.96 133.78,-74.23"/>
<polygon fill="midnightblue" stroke="midnightblue" points="35.2,-240.59 37.4,-250.95 42.15,-241.48 35.2,-240.59"/>
</g>
<!-- Node25 -->
<g id="node12" class="node">
<title>Node25</title>
<g id="a_node12"><a xlink:href="d0/de4/class_simulation_timer_label_1_1_label_not_found_exception.html" target="_top" xlink:title=" ">
<polygon fill="white" stroke="black" points="137,-0.5 137,-30.5 310,-30.5 310,-0.5 137,-0.5"/>
<text text-anchor="start" x="145" y="-18.5" font-family="Courier New" font-size="10.00">SimulationTimerLabel.Label</text>
<text text-anchor="middle" x="223.5" y="-7.5" font-family="Courier New" font-size="10.00">NotFoundException</text>
</a>
</g>
</g>
<!-- Node14&#45;&gt;Node25 -->
<g id="edge11" class="edge">
<title>Node14&#45;&gt;Node25</title>
<path fill="none" stroke="midnightblue" d="M36.63,-240.74C38.06,-197.53 47.84,-94.19 107,-40.5 115.51,-32.78 125.82,-27.24 136.74,-23.3"/>
<polygon fill="midnightblue" stroke="midnightblue" points="33.13,-240.74 36.42,-250.81 40.13,-240.89 33.13,-240.74"/>
</g>
</g>
</svg>
