<?xml version="1.0" encoding="UTF-8" standalone="no"?>
<!DOCTYPE svg PUBLIC "-//W3C//DTD SVG 1.1//EN"
 "http://www.w3.org/Graphics/SVG/1.1/DTD/svg11.dtd">
<!-- Generated by graphviz version 2.38.0 (20140413.2041)
 -->
<!-- Title: Graphical Class Hierarchy Pages: 1 -->
<svg width="348pt" height="480pt"
 viewBox="0.00 0.00 348.00 480.00" xmlns="http://www.w3.org/2000/svg" xmlns:xlink="http://www.w3.org/1999/xlink">
<g id="graph0" class="graph" transform="scale(1 1) rotate(0) translate(4 476)">
<title>Graphical Class Hierarchy</title>
<polygon fill="white" stroke="none" points="-4,4 -4,-476 344,-476 344,4 -4,4"/>
<!-- Node191 -->
<g id="node1" class="node"><title>Node191</title>
<g id="a_node1"><a xlink:title=" ">
<polygon fill="white" stroke="#bfbfbf" points="0,-226 0,-245 71,-245 71,-226 0,-226"/>
<text text-anchor="middle" x="35.5" y="-233" font-family="Courier New" font-size="10.00">Exception</text>
</a>
</g>
</g>
<!-- Node0 -->
<g id="node2" class="node"><title>Node0</title>
<g id="a_node2"><a xlink:href="d8/de3/class_c2_m2_1_1_interaction_1_1_u_i_1_1_f_p_s_label_1_1_label_not_found_exception.html" target="_top" xlink:title=" ">
<polygon fill="white" stroke="black" points="128,-441.5 128,-471.5 319,-471.5 319,-441.5 128,-441.5"/>
<text text-anchor="start" x="136" y="-459.5" font-family="Courier New" font-size="10.00">C2M2.Interaction.UI.FPSLabel.</text>
<text text-anchor="middle" x="223.5" y="-448.5" font-family="Courier New" font-size="10.00">LabelNotFoundException</text>
</a>
</g>
</g>
<!-- Node191&#45;&gt;Node0 -->
<g id="edge1" class="edge"><title>Node191&#45;&gt;Node0</title>
<path fill="none" stroke="midnightblue" d="M37.4461,-255.128C40.4821,-295.021 53.2574,-385.743 107,-432.5 113.18,-437.877 120.249,-442.16 127.778,-445.559"/>
<polygon fill="midnightblue" stroke="midnightblue" points="40.9359,-254.855 36.8118,-245.096 33.9499,-255.297 40.9359,-254.855"/>
</g>
<!-- Node193 -->
<g id="node3" class="node"><title>Node193</title>
<g id="a_node3"><a xlink:href="de/d32/class_c2_m2_1_1_interaction_1_1_v_r_1_1_grabbable_not_found_exception.html" target="_top" xlink:title=" ">
<polygon fill="white" stroke="black" points="128,-392.5 128,-422.5 319,-422.5 319,-392.5 128,-392.5"/>
<text text-anchor="start" x="136" y="-410.5" font-family="Courier New" font-size="10.00">C2M2.Interaction.VR.Grabbable</text>
<text text-anchor="middle" x="223.5" y="-399.5" font-family="Courier New" font-size="10.00">NotFoundException</text>
</a>
</g>
</g>
<!-- Node191&#45;&gt;Node193 -->
<g id="edge2" class="edge"><title>Node191&#45;&gt;Node193</title>
<path fill="none" stroke="midnightblue" d="M40.0841,-255.281C47.0001,-287.453 65.3474,-350.8 107,-383.5 113.283,-388.432 120.332,-392.419 127.768,-395.633"/>
<polygon fill="midnightblue" stroke="midnightblue" points="43.4826,-254.426 38.0951,-245.303 36.6176,-255.794 43.4826,-254.426"/>
</g>
<!-- Node194 -->
<g id="node4" class="node"><title>Node194</title>
<g id="a_node4"><a xlink:href="df/d80/class_c2_m2_1_1_neuronal_dynamics_1_1_u_g_x_1_1_map_not_build_exception.html" target="_top" xlink:title="Custom exception thrown if map could not be build">
<polygon fill="white" stroke="black" points="137,-343.5 137,-373.5 310,-373.5 310,-343.5 137,-343.5"/>
<text text-anchor="start" x="145" y="-361.5" font-family="Courier New" font-size="10.00">C2M2.NeuronalDynamics.UGX.</text>
<text text-anchor="middle" x="223.5" y="-350.5" font-family="Courier New" font-size="10.00">MapNotBuildException</text>
</a>
</g>
</g>
<!-- Node191&#45;&gt;Node194 -->
<g id="edge3" class="edge"><title>Node191&#45;&gt;Node194</title>
<path fill="none" stroke="midnightblue" d="M44.6946,-254.536C55.5226,-277.301 76.8173,-314.793 107,-334.5 116.089,-340.434 126.365,-344.94 136.947,-348.355"/>
<polygon fill="midnightblue" stroke="midnightblue" points="47.7881,-252.884 40.4618,-245.23 41.4162,-255.782 47.7881,-252.884"/>
</g>
<!-- Node195 -->
<g id="node5" class="node"><title>Node195</title>
<g id="a_node5"><a xlink:href="dc/de0/class_c2_m2_1_1_neuronal_dynamics_1_1_u_g_x_1_1_subset_not_found_exception.html" target="_top" xlink:title="Custom RTE for situations when subset is not found in geometry">
<polygon fill="white" stroke="black" points="137,-294.5 137,-324.5 310,-324.5 310,-294.5 137,-294.5"/>
<text text-anchor="start" x="145" y="-312.5" font-family="Courier New" font-size="10.00">C2M2.NeuronalDynamics.UGX.</text>
<text text-anchor="middle" x="223.5" y="-301.5" font-family="Courier New" font-size="10.00">SubsetNotFoundException</text>
</a>
</g>
</g>
<!-- Node191&#45;&gt;Node195 -->
<g id="edge4" class="edge"><title>Node191&#45;&gt;Node195</title>
<path fill="none" stroke="midnightblue" d="M55.1033,-251.957C68.6126,-263.053 87.8163,-277.142 107,-285.5 116.388,-289.59 126.515,-292.998 136.733,-295.834"/>
<polygon fill="midnightblue" stroke="midnightblue" points="56.9996,-248.976 47.1055,-245.187 52.4773,-254.319 56.9996,-248.976"/>
</g>
<!-- Node196 -->
<g id="node6" class="node"><title>Node196</title>
<g id="a_node6"><a xlink:href="d6/d4b/class_c2_m2_1_1_neuronal_dynamics_1_1_visualization_1_1_v_r_n_1_1_could_not_read_mesh_from_v_r_n_archive.html" target="_top" xlink:title="Custom exception thrown if file could not be found in VRN archive">
<polygon fill="white" stroke="black" points="107,-245.5 107,-275.5 340,-275.5 340,-245.5 107,-245.5"/>
<text text-anchor="start" x="115" y="-263.5" font-family="Courier New" font-size="10.00">C2M2.NeuronalDynamics.Visualization.</text>
<text text-anchor="middle" x="223.5" y="-252.5" font-family="Courier New" font-size="10.00">VRN.CouldNotReadMeshFromVRNArchive</text>
</a>
</g>
</g>
<!-- Node191&#45;&gt;Node196 -->
<g id="edge5" class="edge"><title>Node191&#45;&gt;Node196</title>
<path fill="none" stroke="midnightblue" d="M81.0483,-241.488C90.2621,-242.726 100.356,-244.083 110.777,-245.484"/>
<polygon fill="midnightblue" stroke="midnightblue" points="81.4264,-238.007 71.0493,-240.144 80.4939,-244.945 81.4264,-238.007"/>
</g>
<!-- Node197 -->
<g id="node7" class="node"><title>Node197</title>
<g id="a_node7"><a xlink:href="d4/de1/class_c2_m2_1_1_simulation_1_1_simulation_not_found_exception.html" target="_top" xlink:title=" ">
<polygon fill="white" stroke="black" points="137,-196.5 137,-226.5 310,-226.5 310,-196.5 137,-196.5"/>
<text text-anchor="start" x="145" y="-214.5" font-family="Courier New" font-size="10.00">C2M2.Simulation.Simulation</text>
<text text-anchor="middle" x="223.5" y="-203.5" font-family="Courier New" font-size="10.00">NotFoundException</text>
</a>
</g>
</g>
<!-- Node191&#45;&gt;Node197 -->
<g id="edge6" class="edge"><title>Node191&#45;&gt;Node197</title>
<path fill="none" stroke="midnightblue" d="M81.0724,-229.749C97.8212,-227.588 117.476,-225.051 136.717,-222.569"/>
<polygon fill="midnightblue" stroke="midnightblue" points="80.5191,-226.291 71.0493,-231.042 81.415,-233.233 80.5191,-226.291"/>
</g>
<!-- Node198 -->
<g id="node8" class="node"><title>Node198</title>
<g id="a_node8"><a xlink:href="d8/d7c/class_c2_m2_1_1_utils_1_1_exceptions_1_1_mesh_filter_not_found_exception.html" target="_top" xlink:title=" ">
<polygon fill="white" stroke="black" points="137,-147.5 137,-177.5 310,-177.5 310,-147.5 137,-147.5"/>
<text text-anchor="start" x="145" y="-165.5" font-family="Courier New" font-size="10.00">C2M2.Utils.Exceptions.Mesh</text>
<text text-anchor="middle" x="223.5" y="-154.5" font-family="Courier New" font-size="10.00">FilterNotFoundException</text>
</a>
</g>
</g>
<!-- Node191&#45;&gt;Node198 -->
<g id="edge7" class="edge"><title>Node191&#45;&gt;Node198</title>
<path fill="none" stroke="midnightblue" d="M55.7144,-219.401C69.255,-208.842 88.2484,-195.549 107,-187.5 116.426,-183.454 126.577,-180.034 136.808,-177.151"/>
<polygon fill="midnightblue" stroke="midnightblue" points="53.2708,-216.874 47.6611,-225.862 57.6513,-222.334 53.2708,-216.874"/>
</g>
<!-- Node199 -->
<g id="node9" class="node"><title>Node199</title>
<g id="a_node9"><a xlink:href="de/d95/class_c2_m2_1_1_utils_1_1_time_node_not_found_exception.html" target="_top" xlink:title=" ">
<polygon fill="white" stroke="black" points="134,-98.5 134,-128.5 313,-128.5 313,-98.5 134,-98.5"/>
<text text-anchor="start" x="142" y="-116.5" font-family="Courier New" font-size="10.00">C2M2.Utils.TimeNodeNotFound</text>
<text text-anchor="middle" x="223.5" y="-105.5" font-family="Courier New" font-size="10.00">Exception</text>
</a>
</g>
</g>
<!-- Node191&#45;&gt;Node199 -->
<g id="edge8" class="edge"><title>Node191&#45;&gt;Node199</title>
<path fill="none" stroke="midnightblue" d="M44.824,-216.886C55.7819,-194.62 77.207,-157.923 107,-138.5 115.25,-133.122 124.466,-128.882 133.997,-125.542"/>
<polygon fill="midnightblue" stroke="midnightblue" points="41.6319,-215.449 40.5334,-225.987 47.9635,-218.434 41.6319,-215.449"/>
</g>
<!-- Node200 -->
<g id="node10" class="node"><title>Node200</title>
<g id="a_node10"><a xlink:href="d9/db8/class_c2_m2_1_1_visualization_1_1_gradient32_l_u_t_not_found_exception.html" target="_top" xlink:title=" ">
<polygon fill="white" stroke="black" points="128,-49.5 128,-79.5 319,-79.5 319,-49.5 128,-49.5"/>
<text text-anchor="start" x="136" y="-67.5" font-family="Courier New" font-size="10.00">C2M2.Visualization.Gradient32</text>
<text text-anchor="middle" x="223.5" y="-56.5" font-family="Courier New" font-size="10.00">LUTNotFoundException</text>
</a>
</g>
</g>
<!-- Node191&#45;&gt;Node200 -->
<g id="edge9" class="edge"><title>Node191&#45;&gt;Node200</title>
<path fill="none" stroke="midnightblue" d="M40.1975,-216.019C47.2768,-184.328 65.8538,-121.901 107,-89.5 113.286,-84.5498 120.338,-80.5276 127.776,-77.2656"/>
<polygon fill="midnightblue" stroke="midnightblue" points="36.7631,-215.344 38.1548,-225.847 43.6166,-216.768 36.7631,-215.344"/>
</g>
<!-- Node201 -->
<g id="node11" class="node"><title>Node201</title>
<g id="a_node11"><a xlink:href="d9/dec/class_c2_m2_1_1_visualization_1_1_gradient_not_found_exception.html" target="_top" xlink:title=" ">
<polygon fill="white" stroke="black" points="134,-0.5 134,-30.5 313,-30.5 313,-0.5 134,-0.5"/>
<text text-anchor="start" x="142" y="-18.5" font-family="Courier New" font-size="10.00">C2M2.Visualization.Gradient</text>
<text text-anchor="middle" x="223.5" y="-7.5" font-family="Courier New" font-size="10.00">NotFoundException</text>
</a>
</g>
</g>
<!-- Node191&#45;&gt;Node201 -->
<g id="edge10" class="edge"><title>Node191&#45;&gt;Node201</title>
<path fill="none" stroke="midnightblue" d="M37.5902,-215.549C40.8857,-175.838 54.1047,-86.7545 107,-40.5 114.799,-33.6798 124.016,-28.5775 133.788,-24.7808"/>
<polygon fill="midnightblue" stroke="midnightblue" points="34.0956,-215.351 36.8873,-225.571 41.0785,-215.84 34.0956,-215.351"/>
</g>
</g>
</svg>
