<?xml version="1.0" encoding="UTF-8" standalone="no"?>
<!DOCTYPE svg PUBLIC "-//W3C//DTD SVG 1.1//EN"
 "http://www.w3.org/Graphics/SVG/1.1/DTD/svg11.dtd">
<!-- Generated by graphviz version 2.38.0 (20140413.2041)
 -->
<!-- Title: C2M2.GameManager Pages: 1 -->
<svg width="199pt" height="457pt"
 viewBox="0.00 0.00 199.00 457.00" xmlns="http://www.w3.org/2000/svg" xmlns:xlink="http://www.w3.org/1999/xlink">
<g id="graph0" class="graph" transform="scale(1 1) rotate(0) translate(4 453)">
<title>C2M2.GameManager</title>
<polygon fill="white" stroke="none" points="-4,4 -4,-453 195,-453 195,4 -4,4"/>
<!-- Node1 -->
<g id="node1" class="node"><title>Node1</title>
<g id="a_node1"><a xlink:title=" ">
<polygon fill="#bfbfbf" stroke="black" points="0,-0.5 0,-354.5 191,-354.5 191,-0.5 0,-0.5"/>
<text text-anchor="middle" x="95.5" y="-342.5" font-family="Courier New" font-size="10.00">C2M2.GameManager</text>
<polyline fill="none" stroke="black" points="0,-335.5 191,-335.5 "/>
<text text-anchor="start" x="8" y="-323.5" font-family="Courier New" font-size="10.00">+ mainThreadId</text>
<text text-anchor="start" x="8" y="-312.5" font-family="Courier New" font-size="10.00">+ assetsPath</text>
<text text-anchor="start" x="8" y="-301.5" font-family="Courier New" font-size="10.00">+ useVirtualReality</text>
<text text-anchor="start" x="8" y="-290.5" font-family="Courier New" font-size="10.00">+ defaultMaterial</text>
<text text-anchor="start" x="8" y="-279.5" font-family="Courier New" font-size="10.00">+ vertexColorationMaterial</text>
<text text-anchor="start" x="8" y="-268.5" font-family="Courier New" font-size="10.00">+ objectScaleDefault</text>
<text text-anchor="start" x="8" y="-257.5" font-family="Courier New" font-size="10.00">+ rightRaycaster</text>
<text text-anchor="start" x="8" y="-246.5" font-family="Courier New" font-size="10.00">+ leftRaycaster</text>
<text text-anchor="start" x="8" y="-235.5" font-family="Courier New" font-size="10.00">+ ovrRightHandAnchor</text>
<text text-anchor="start" x="8" y="-224.5" font-family="Courier New" font-size="10.00">+ ovrLeftHandAnchor</text>
<text text-anchor="start" x="8" y="-213.5" font-family="Courier New" font-size="10.00">+ menu</text>
<text text-anchor="start" x="8" y="-202.5" font-family="Courier New" font-size="10.00">+ raycastKeyboardPrefab</text>
<text text-anchor="start" x="8" y="-191.5" font-family="Courier New" font-size="10.00">+ menuSnapPosition</text>
<text text-anchor="start" x="8" y="-180.5" font-family="Courier New" font-size="10.00">+ fpsCounter</text>
<text text-anchor="start" x="8" y="-169.5" font-family="Courier New" font-size="10.00">+ instance</text>
<text text-anchor="start" x="8" y="-158.5" font-family="Courier New" font-size="10.00">+ ovrPlayerController</text>
<text text-anchor="start" x="8" y="-147.5" font-family="Courier New" font-size="10.00">+ nonVRCamera</text>
<text text-anchor="start" x="8" y="-136.5" font-family="Courier New" font-size="10.00">+ raycastKeyboard</text>
<text text-anchor="start" x="8" y="-125.5" font-family="Courier New" font-size="10.00">&#45; isRunning</text>
<text text-anchor="start" x="8" y="-114.5" font-family="Courier New" font-size="10.00">&#45; logQ</text>
<text text-anchor="start" x="8" y="-103.5" font-family="Courier New" font-size="10.00">&#45; logQCap</text>
<polyline fill="none" stroke="black" points="0,-96.5 191,-96.5 "/>
<text text-anchor="start" x="8" y="-84.5" font-family="Courier New" font-size="10.00">+ RaycasterRightChangeColor()</text>
<text text-anchor="start" x="8" y="-73.5" font-family="Courier New" font-size="10.00">+ RaycasterLeftChangeColor()</text>
<text text-anchor="start" x="8" y="-62.5" font-family="Courier New" font-size="10.00">+ DebugLogSafe()</text>
<text text-anchor="start" x="8" y="-51.5" font-family="Courier New" font-size="10.00">+ DebugLogSafe&lt; T &gt;()</text>
<text text-anchor="start" x="8" y="-40.5" font-family="Courier New" font-size="10.00">&#45; Awake()</text>
<text text-anchor="start" x="8" y="-29.5" font-family="Courier New" font-size="10.00">&#45; Update()</text>
<text text-anchor="start" x="8" y="-18.5" font-family="Courier New" font-size="10.00">&#45; OnApplicationQuit()</text>
<text text-anchor="start" x="8" y="-7.5" font-family="Courier New" font-size="10.00">&#45; OnApplicationPause()</text>
</a>
</g>
</g>
<!-- Node2 -->
<g id="node2" class="node"><title>Node2</title>
<g id="a_node2"><a xlink:title=" ">
<polygon fill="white" stroke="#bfbfbf" points="48,-391.5 48,-448.5 143,-448.5 143,-391.5 48,-391.5"/>
<text text-anchor="middle" x="95.5" y="-436.5" font-family="Courier New" font-size="10.00">MonoBehaviour</text>
<polyline fill="none" stroke="#bfbfbf" points="48,-429.5 143,-429.5 "/>
<text text-anchor="middle" x="95.5" y="-417.5" font-family="Courier New" font-size="10.00"> </text>
<polyline fill="none" stroke="#bfbfbf" points="48,-410.5 143,-410.5 "/>
<text text-anchor="middle" x="95.5" y="-398.5" font-family="Courier New" font-size="10.00"> </text>
</a>
</g>
</g>
<!-- Node2&#45;&gt;Node1 -->
<g id="edge1" class="edge"><title>Node2&#45;&gt;Node1</title>
<path fill="none" stroke="midnightblue" d="M95.5,-381.175C95.5,-373.225 95.5,-364.348 95.5,-354.871"/>
<polygon fill="none" stroke="midnightblue" points="92.0001,-381.412 95.5,-391.412 99.0001,-381.412 92.0001,-381.412"/>
</g>
</g>
</svg>
